g AlphaScale
v -0.110864 -0.194091 0.05057
v -0.194107 -0.16568 0.039465
v -0.190854 -0.164471 0.048944
v -0.114123 -0.1953 0.041088
v 0.000621 -0.199536 0.044522
v 0.00389 -0.198327 0.054011
v 0.118683 -0.194091 0.050594
v -0.11518 -0.195703 0.021529
v -0.195148 -0.166083 0.019917
v -0.000468 -0.199939 0.024941
v 0.114285 -0.195703 0.021553
v 0.115404 -0.1953 0.041112
v 0.195683 -0.165643 0.039474
v 0.198967 -0.164434 0.048952
v 0.194549 -0.166046 0.019925
v -0.110864 -0.194091 0.05057
v 0.007196 -0.172752 0.060712
v 0.00389 -0.198327 0.054011
v -0.10456 -0.168886 0.057327
v -0.094363 -0.096495 0.068711
v 0.008396 -0.099253 0.071929
v 0.008514 -0.001202 0.078957
v -0.162753 -0.146802 0.055446
v -0.190854 -0.164471 0.048944
v -0.201353 -0.092552 0.057809
v -0.172426 -0.092732 0.062756
v -0.144282 0.002333 0.070952
v -0.169195 0.001918 0.066236
v -0.121213 0.099194 0.063298
v -0.078261 0.000353 0.076213
v -0.05424 0.098926 0.071326
v 0.008574 0.098028 0.073096
v 0.007507 0.172489 0.062754
v -0.10229 0.099933 0.067527
v -0.069216 0.154328 0.06175
v -0.070618 0.172923 0.057113
v -0.030619 0.19675 0.0558
v 0.004246 0.196234 0.056345
v -0.034345 0.1731 0.061903
v 0.118683 -0.194091 0.050594
v 0.119044 -0.168867 0.057334
v 0.175829 -0.146744 0.055431
v 0.198967 -0.164434 0.048952
v 0.210193 -0.092403 0.057722
v 0.187677 -0.092601 0.06268
v 0.160131 0.002569 0.070797
v 0.11141 -0.09642 0.068667
v 0.178706 0.002188 0.066059
v 0.175829 -0.146744 0.055431
v 0.119044 -0.168867 0.057334
v 0.007196 -0.172752 0.060712
v 0.008396 -0.099253 0.071929
v 0.008514 -0.001202 0.078957
v 0.130846 0.099527 0.06312
v 0.095689 0.000488 0.076124
v 0.071789 0.099092 0.071236
v 0.008574 0.098028 0.073096
v 0.007507 0.172489 0.062754
v 0.049707 0.173279 0.06183
v 0.083298 0.1546 0.061628
v 0.118261 0.100224 0.067371
v 0.083298 0.1546 0.061628
v 0.079972 0.173235 0.056984
v 0.039441 0.196933 0.055732
v 0.049707 0.173279 0.06183
v 0.007507 0.172489 0.062754
v 0.004246 0.196234 0.056345
v 0.00389 -0.198327 0.054011
v 0.007196 -0.172752 0.060712
v 0.119044 -0.168867 0.057334
v 0.210193 -0.092403 0.057722
v 0.195683 -0.165643 0.039474
v 0.198967 -0.164434 0.048952
v 0.206915 -0.093612 0.048225
v 0.175434 0.000979 0.056545
v 0.178706 0.002188 0.066059
v 0.130846 0.099527 0.06312
v 0.205795 -0.094015 0.028621
v 0.194549 -0.166046 0.019925
v 0.174337 0.000576 0.036888
v 0.126487 0.097915 0.033972
v 0.152489 -0.000252 0.019712
v 0.110634 0.097403 0.01634
v 0.076519 0.152093 0.016327
v 0.127577 0.098318 0.053611
v 0.076703 0.172026 0.047488
v 0.079972 0.173235 0.056984
v 0.039441 0.196933 0.055732
v 0.036172 0.195724 0.046239
v 0.035082 0.195321 0.026647
v 0.04208 0.170458 0.010877
v 0.075613 0.171623 0.027888
v -0.205668 -0.094164 0.028707
v -0.194107 -0.16568 0.039465
v -0.195148 -0.166083 0.019917
v -0.204611 -0.093761 0.048312
v -0.172461 0.000709 0.056721
v -0.173543 0.000306 0.037063
v -0.125572 0.097582 0.034149
v -0.201353 -0.092552 0.057809
v -0.190854 -0.164471 0.048944
v -0.169195 0.001918 0.066236
v -0.121213 0.099194 0.063298
v -0.124482 0.097985 0.053789
v -0.073887 0.171714 0.047617
v -0.074977 0.171311 0.028016
v -0.070618 0.172923 0.057113
v -0.034978 0.195138 0.026714
v -0.030619 0.19675 0.0558
v -0.033888 0.195541 0.046307
v 0.000977 0.195025 0.04685
v -0.000113 0.194622 0.027254
v 0.004246 0.196234 0.056345
v 0.035082 0.195321 0.026647
v 0.039441 0.196933 0.055732
v 0.036172 0.195724 0.046239
v 0.035082 0.195321 0.026647
v -0.000113 0.194622 0.027254
v -0.00012 0.169668 0.011783
v 0.04208 0.170458 0.010877
v 0.063072 0.095868 0.012849
v -0.000143 0.094804 0.014661
v 0.076519 0.152093 0.016327
v 0.110634 0.097403 0.01634
v -0.000203 -0.004426 0.020401
v 0.152489 -0.000252 0.019712
v 0.086962 -0.002736 0.01764
v 0.102654 -0.099644 0.010324
v -0.00032 -0.102477 0.013515
v -0.00043 -0.175573 0.009771
v 0.17999 -0.095422 0.011718
v 0.205795 -0.094015 0.028621
v 0.174337 0.000576 0.036888
v 0.168984 -0.149251 0.010207
v 0.194549 -0.166046 0.019925
v 0.114285 -0.195703 0.021553
v -0.000468 -0.199939 0.024941
v 0.111357 -0.171688 0.006447
v -0.034978 0.195138 0.026714
v -0.00012 0.169668 0.011783
v -0.000113 0.194622 0.027254
v -0.041973 0.170279 0.010949
v -0.062958 0.095702 0.012937
v -0.075996 0.151821 0.016448
v -0.00012 0.169668 0.011783
v -0.000143 0.094804 0.014661
v -0.109919 0.097112 0.016494
v -0.151893 -0.000488 0.019864
v -0.000203 -0.004426 0.020401
v -0.086967 -0.002871 0.017727
v -0.103037 -0.099719 0.010367
v -0.00032 -0.102477 0.013515
v -0.00043 -0.175573 0.009771
v -0.112123 -0.171707 0.00644
v -0.169461 -0.14931 0.010222
v -0.179989 -0.095553 0.011793
v -0.125572 0.097582 0.034149
v -0.075996 0.151821 0.016448
v -0.173543 0.000306 0.037063
v -0.074977 0.171311 0.028016
v -0.041973 0.170279 0.010949
v -0.205668 -0.094164 0.028707
v -0.169461 -0.14931 0.010222
v -0.195148 -0.166083 0.019917
v -0.11518 -0.195703 0.021529
v -0.112123 -0.171707 0.00644
v -0.000468 -0.199939 0.024941
v -0.00043 -0.175573 0.009771
v -0.112123 -0.171707 0.00644
vt 0.625972 0.880023
vt 0.620838 0.854054
vt 0.620838 0.854054
vt 0.625972 0.880023
vt 0.624241 0.896675
vt 0.624241 0.896675
vt 0.625972 0.880023
vt 0.625972 0.880023
vt 0.620838 0.854054
vt 0.624241 0.896675
vt 0.625972 0.880023
vt 0.625972 0.880023
vt 0.620838 0.854054
vt 0.620838 0.854054
vt 0.620838 0.854054
vt 0.625972 0.880023
vt 0.615571 0.903651
vt 0.624241 0.896675
vt 0.618205 0.878852
vt 0.594902 0.875341
vt 0.591294 0.907928
vt 0.560516 0.902079
vt 0.614135 0.859679
vt 0.620838 0.854054
vt 0.59851 0.842755
vt 0.597608 0.850901
vt 0.567015 0.846701
vt 0.567944 0.83879
vt 0.538096 0.834821
vt 0.56423 0.870434
vt 0.534356 0.865076
vt 0.530617 0.89533
vt 0.509452 0.882771
vt 0.537161 0.842385
vt 0.520055 0.845524
vt 0.515047 0.839004
vt 0.504881 0.859491
vt 0.503018 0.873811
vt 0.51225 0.860887
vt 0.625972 0.880023
vt 0.625972 0.880023
vt 0.620838 0.854054
vt 0.620838 0.854054
vt 0.59851 0.842755
vt 0.59851 0.842755
vt 0.567944 0.83879
vt 0.594902 0.875341
vt 0.567944 0.83879
vt 0.629434 0.846719
vt 0.625972 0.880023
vt 0.62251 0.913327
vt 0.591294 0.907928
vt 0.560516 0.902079
vt 0.538096 0.834821
vt 0.56423 0.870434
vt 0.534356 0.865076
vt 0.530617 0.89533
vt 0.501156 0.888131
vt 0.504881 0.859491
vt 0.508606 0.830852
vt 0.538096 0.834821
vt 0.515047 0.839004
vt 0.515047 0.839004
vt 0.504881 0.859491
vt 0.504881 0.859491
vt 0.509452 0.882771
vt 0.503018 0.873811
vt 0.624241 0.896675
vt 0.615571 0.903651
vt 0.625972 0.880023
vt 0.59851 0.842755
vt 0.620838 0.854054
vt 0.620838 0.854054
vt 0.59851 0.842755
vt 0.567944 0.83879
vt 0.567944 0.83879
vt 0.538096 0.834821
vt 0.59851 0.842755
vt 0.620838 0.854054
vt 0.567944 0.83879
vt 0.538096 0.834821
vt 0.567016 0.846701
vt 0.537161 0.842385
vt 0.520055 0.845524
vt 0.538096 0.834821
vt 0.515047 0.839004
vt 0.515047 0.839004
vt 0.504881 0.859491
vt 0.504881 0.859491
vt 0.504881 0.859491
vt 0.51225 0.860887
vt 0.515047 0.839004
vt 0.59851 0.842755
vt 0.620838 0.854054
vt 0.620838 0.854054
vt 0.59851 0.842755
vt 0.567944 0.83879
vt 0.567944 0.83879
vt 0.538096 0.834821
vt 0.59851 0.842755
vt 0.620838 0.854054
vt 0.567944 0.83879
vt 0.538096 0.834821
vt 0.538096 0.834821
vt 0.515047 0.839004
vt 0.515047 0.839004
vt 0.515047 0.839004
vt 0.504881 0.859491
vt 0.504881 0.859491
vt 0.504881 0.859491
vt 0.503018 0.873811
vt 0.503018 0.873811
vt 0.503018 0.873811
vt 0.504881 0.859491
vt 0.504881 0.859491
vt 0.504881 0.859491
vt 0.504881 0.859491
vt 0.503018 0.873811
vt 0.509452 0.882771
vt 0.51225 0.860887
vt 0.534356 0.865076
vt 0.530617 0.89533
vt 0.520055 0.845524
vt 0.537161 0.842385
vt 0.560516 0.902079
vt 0.567016 0.846701
vt 0.56423 0.870434
vt 0.594902 0.875341
vt 0.591294 0.907928
vt 0.615571 0.903651
vt 0.597608 0.850901
vt 0.59851 0.842755
vt 0.567944 0.83879
vt 0.614135 0.859679
vt 0.620838 0.854054
vt 0.625972 0.880023
vt 0.624241 0.896675
vt 0.618205 0.878852
vt 0.504881 0.859491
vt 0.509452 0.882771
vt 0.503018 0.873811
vt 0.504881 0.859491
vt 0.534356 0.865076
vt 0.508606 0.830852
vt 0.501156 0.888131
vt 0.530617 0.89533
vt 0.538096 0.834821
vt 0.567944 0.83879
vt 0.560516 0.902079
vt 0.56423 0.870434
vt 0.594902 0.875341
vt 0.591294 0.907928
vt 0.62251 0.913327
vt 0.625972 0.880023
vt 0.629434 0.846719
vt 0.59851 0.842755
vt 0.538096 0.834821
vt 0.515047 0.839004
vt 0.567944 0.83879
vt 0.515047 0.839004
vt 0.504881 0.859491
vt 0.59851 0.842755
vt 0.620838 0.854054
vt 0.620838 0.854054
vt 0.625972 0.880023
vt 0.625972 0.880023
vt 0.624241 0.896675
vt 0.615571 0.903651
vt 0.625972 0.880023
vn -0.1570703 -0.7061232 0.6904483
vn -0.7526334 -0.6295067 0.1930394
vn -0.463387 -0.4423256 0.7678675
vn -0.1951028 -0.9745583 0.1103226
vn -0.0002167097 -0.9972843 0.07364807
vn -0.0001844546 -0.7514517 0.6597882
vn 0.1675739 -0.7540889 0.6350346
vn -0.1631576 -0.8529286 -0.4958755
vn -0.6558642 -0.5039449 -0.5620336
vn 0 -0.8796898 -0.475548
vn 0.161638 -0.8479195 -0.5048817
vn 0.1952487 -0.9801981 0.03300728
vn 0.7715054 -0.6269975 -0.1079509
vn 0.5905024 -0.5357579 0.6035481
vn 0.636823 -0.4911558 -0.5943252
vn -0.1570703 -0.7061232 0.6904483
vn 7.89547E-05 -0.2026287 0.9792556
vn -0.0001844546 -0.7514517 0.6597882
vn -0.06578081 -0.1904368 0.9794931
vn -0.05812942 -0.1076734 0.9924855
vn 0.0002144978 -0.1112425 0.9937932
vn 0.000394052 -0.006850604 0.9999765
vn -0.113419 -0.1703533 0.978834
vn -0.463387 -0.4423256 0.7678675
vn -0.6432687 -0.02053274 0.7653651
vn -0.1230246 -0.09721685 0.9876304
vn -0.1343815 0.02506244 0.9906126
vn -0.6382752 0.2411843 0.7310506
vn -0.6068376 0.3945795 0.6899675
vn -0.05496252 -0.002158155 0.9984861
vn -0.05209914 0.1025107 0.9933667
vn 0.000457662 0.09649141 0.9953337
vn 0.0003188341 0.1964601 0.9805117
vn -0.1434188 0.1431148 0.9792595
vn -0.1405745 0.2099836 0.9675462
vn -0.4955133 0.5714559 0.6541442
vn -0.2066922 0.7678457 0.6063754
vn -0.001559667 0.8295397 0.5584455
vn -0.06105174 0.198035 0.9782917
vn 0.1675739 -0.7540889 0.6350346
vn 0.06886356 -0.198699 0.9776382
vn 0.128409 -0.1805525 0.9751471
vn 0.5905024 -0.5357579 0.6035481
vn 0.8667747 0.01737927 0.4983968
vn 0.1461702 -0.09517253 0.9846708
vn 0.1691128 0.03860268 0.9848405
vn 0.0597367 -0.1081348 0.9923398
vn 0.8284058 0.3244622 0.456583
vn 0.128409 -0.1805525 0.9751471
vn 0.06886356 -0.198699 0.9776382
vn 7.89547E-05 -0.2026287 0.9792556
vn 0.0002144978 -0.1112425 0.9937932
vn 0.000394052 -0.006850604 0.9999765
vn 0.7760993 0.4791237 0.4100125
vn 0.05681646 -0.001630886 0.9983833
vn 0.05452802 0.1039579 0.9930859
vn 0.000457662 0.09649141 0.9953337
vn 0.0003188341 0.1964601 0.9805117
vn 0.06859641 0.2098565 0.9753229
vn 0.182357 0.2458454 0.952001
vn 0.189431 0.1695253 0.967149
vn 0.182357 0.2458454 0.952001
vn 0.6053278 0.6687734 0.4316484
vn 0.220578 0.8210751 0.52648
vn 0.06859641 0.2098565 0.9753229
vn 0.0003188341 0.1964601 0.9805117
vn -0.001559667 0.8295397 0.5584455
vn -0.0001844546 -0.7514517 0.6597882
vn 7.89547E-05 -0.2026287 0.9792556
vn 0.06886356 -0.198699 0.9776382
vn 0.8667747 0.01737927 0.4983968
vn 0.7715054 -0.6269975 -0.1079509
vn 0.5905024 -0.5357579 0.6035481
vn 0.9746561 0.1003177 -0.1999546
vn 0.9035596 0.3767259 -0.2041024
vn 0.8284058 0.3244622 0.456583
vn 0.7760993 0.4791237 0.4100125
vn 0.84803 0.1163669 -0.5170143
vn 0.636823 -0.4911558 -0.5943252
vn 0.8277028 0.3463643 -0.4415199
vn 0.80617 0.4488218 -0.3855501
vn 0.3380305 0.1525493 -0.9286894
vn 0.3988813 0.187533 -0.8976219
vn 0.4078848 0.3477077 -0.844233
vn 0.8496183 0.4873857 -0.2015044
vn 0.6740816 0.7152209 -0.1845889
vn 0.6053278 0.6687734 0.4316484
vn 0.220578 0.8210751 0.52648
vn 0.2493416 0.9609814 -0.1197648
vn 0.2380606 0.8427452 -0.4828121
vn 0.1140316 0.2806049 -0.9530255
vn 0.6450173 0.6473157 -0.4061219
vn -0.8752765 0.1214572 -0.468123
vn -0.7526334 -0.6295067 0.1930394
vn -0.6558642 -0.5039449 -0.5620336
vn -0.9798025 0.07204635 0.1865375
vn -0.9146861 0.3741393 0.1528702
vn -0.8477708 0.3568576 -0.3923484
vn -0.8215884 0.4593533 -0.3376197
vn -0.6432687 -0.02053274 0.7653651
vn -0.463387 -0.4423256 0.7678675
vn -0.6382752 0.2411843 0.7310506
vn -0.6068376 0.3945795 0.6899675
vn -0.85232 0.5063599 0.1309584
vn -0.6776666 0.7309517 0.08048373
vn -0.6584826 0.65655 -0.3678897
vn -0.4955133 0.5714559 0.6541442
vn -0.2462111 0.8481088 -0.4691393
vn -0.2066922 0.7678457 0.6063754
vn -0.2575703 0.9660535 -0.01995659
vn -0.002533264 0.9973254 -0.0730445
vn -0.002517961 0.8693043 -0.4942709
vn -0.001559667 0.8295397 0.5584455
vn 0.2380606 0.8427452 -0.4828121
vn 0.220578 0.8210751 0.52648
vn 0.2493416 0.9609814 -0.1197648
vn 0.2380606 0.8427452 -0.4828121
vn -0.002517961 0.8693043 -0.4942709
vn -0.001312424 0.2576613 -0.9662344
vn 0.1140316 0.2806049 -0.9530255
vn 0.02775367 -0.02092885 -0.9993957
vn -0.0005308198 -0.04628798 -0.998928
vn 0.4078848 0.3477077 -0.844233
vn 0.3988813 0.187533 -0.8976219
vn -0.000385296 0.006757095 -0.9999771
vn 0.3380305 0.1525493 -0.9286894
vn 0.002014783 0.01817543 -0.9998327
vn -0.003678755 0.06170664 -0.9980875
vn -0.0001934072 0.06040788 -0.9981738
vn 0 -0.2517163 -0.967801
vn 0.2768967 0.09319071 -0.9563701
vn 0.84803 0.1163669 -0.5170143
vn 0.8277028 0.3463643 -0.4415199
vn 0.2292428 -0.1345289 -0.9640279
vn 0.636823 -0.4911558 -0.5943252
vn 0.161638 -0.8479195 -0.5048817
vn 0 -0.8796898 -0.475548
vn 0.04292801 -0.2239339 -0.9736584
vn -0.2462111 0.8481088 -0.4691393
vn -0.001312424 0.2576613 -0.9662344
vn -0.002517961 0.8693043 -0.4942709
vn -0.1181673 0.2811754 -0.9523533
vn -0.02946354 -0.02055633 -0.9993544
vn -0.4136121 0.3485539 -0.8410916
vn -0.001312424 0.2576613 -0.9662344
vn -0.0005308198 -0.04628798 -0.998928
vn -0.402947 0.1890475 -0.8954858
vn -0.3405678 0.1552302 -0.9273172
vn -0.000385296 0.006757095 -0.9999771
vn -0.003026068 0.01864599 -0.9998216
vn 0.003179063 0.0623432 -0.9980497
vn -0.0001934072 0.06040788 -0.9981738
vn 0 -0.2517163 -0.967801
vn -0.04307787 -0.2232262 -0.9738143
vn -0.2298925 -0.1318923 -0.9642375
vn -0.2781579 0.09645908 -0.9556798
vn -0.8215884 0.4593533 -0.3376197
vn -0.4136121 0.3485539 -0.8410916
vn -0.8477708 0.3568576 -0.3923484
vn -0.6584826 0.65655 -0.3678897
vn -0.1181673 0.2811754 -0.9523533
vn -0.8752765 0.1214572 -0.468123
vn -0.2298925 -0.1318923 -0.9642375
vn -0.6558642 -0.5039449 -0.5620336
vn -0.1631576 -0.8529286 -0.4958755
vn -0.04307787 -0.2232262 -0.9738143
vn 0 -0.8796898 -0.475548
vn 0 -0.2517163 -0.967801
vn -0.04307787 -0.2232262 -0.9738143
g AlphaScale_0
f 3/3/3 2/2/2 1/1/1
f 2/2/2 4/4/4 1/1/1
f 4/4/4 5/5/5 1/1/1
f 5/5/5 6/6/6 1/1/1
f 6/6/6 5/5/5 7/7/7
f 4/4/4 2/2/2 8/8/8
f 5/5/5 4/4/4 8/8/8
f 2/2/2 9/9/9 8/8/8
f 10/10/10 5/5/5 8/8/8
f 5/5/5 10/10/10 11/11/11
f 5/5/5 12/12/12 7/7/7
f 12/12/12 5/5/5 11/11/11
f 12/12/12 13/13/13 7/7/7
f 13/13/13 12/12/12 11/11/11
f 13/13/13 14/14/14 7/7/7
f 15/15/15 13/13/13 11/11/11
f 18/18/18 17/17/17 16/16/16
f 17/17/17 19/19/19 16/16/16
f 19/19/19 17/17/17 20/20/20
f 17/17/17 21/21/21 20/20/20
f 21/21/21 22/22/22 20/20/20
f 19/19/19 23/23/23 16/16/16
f 23/23/23 19/19/19 20/20/20
f 23/23/23 24/24/24 16/16/16
f 24/24/24 23/23/23 25/25/25
f 23/23/23 26/26/26 25/25/25
f 26/26/26 23/23/23 20/20/20
f 26/26/26 27/27/27 25/25/25
f 27/27/27 26/26/26 20/20/20
f 27/27/27 28/28/28 25/25/25
f 28/28/28 27/27/27 29/29/29
f 22/22/22 30/30/30 20/20/20
f 30/30/30 27/27/27 20/20/20
f 30/30/30 22/22/22 31/31/31
f 27/27/27 30/30/30 31/31/31
f 22/22/22 32/32/32 31/31/31
f 32/32/32 33/33/33 31/31/31
f 27/27/27 34/34/34 29/29/29
f 34/34/34 27/27/27 31/31/31
f 34/34/34 35/35/35 29/29/29
f 35/35/35 34/34/34 31/31/31
f 35/35/35 36/36/36 29/29/29
f 36/36/36 35/35/35 37/37/37
f 33/33/33 38/38/38 37/37/37
f 33/33/33 39/39/39 31/31/31
f 39/39/39 35/35/35 31/31/31
f 35/35/35 39/39/39 37/37/37
f 39/39/39 33/33/33 37/37/37
f 42/42/42 41/41/41 40/40/40
f 43/43/43 42/42/42 40/40/40
f 42/42/42 43/43/43 44/44/44
f 45/45/45 42/42/42 44/44/44
f 46/46/46 45/45/45 44/44/44
f 45/45/45 46/46/46 47/47/47
f 48/48/48 46/46/46 44/44/44
f 49/49/49 45/45/45 47/47/47
f 50/50/50 49/49/49 47/47/47
f 51/51/51 50/50/50 47/47/47
f 52/52/52 51/51/51 47/47/47
f 53/53/53 52/52/52 47/47/47
f 46/46/46 48/48/48 54/54/54
f 55/55/55 53/53/53 47/47/47
f 46/46/46 55/55/55 47/47/47
f 53/53/53 55/55/55 56/56/56
f 55/55/55 46/46/46 56/56/56
f 57/57/57 53/53/53 56/56/56
f 58/58/58 57/57/57 56/56/56
f 59/59/59 58/58/58 56/56/56
f 60/60/60 59/59/59 56/56/56
f 61/61/61 60/60/60 56/56/56
f 46/46/46 61/61/61 56/56/56
f 61/61/61 46/46/46 54/54/54
f 62/62/62 61/61/61 54/54/54
f 63/63/63 62/62/62 54/54/54
f 62/62/62 63/63/63 64/64/64
f 65/65/65 62/62/62 64/64/64
f 66/66/66 65/65/65 64/64/64
f 67/67/67 66/66/66 64/64/64
f 69/69/69 68/68/68 40/40/40
f 70/70/70 69/69/69 40/40/40
f 73/73/73 72/72/72 71/71/71
f 72/72/72 74/74/74 71/71/71
f 74/74/74 75/75/75 71/71/71
f 75/75/75 76/76/76 71/71/71
f 76/76/76 75/75/75 77/77/77
f 74/74/74 72/72/72 78/78/78
f 75/75/75 74/74/74 78/78/78
f 72/72/72 79/79/79 78/78/78
f 80/80/80 75/75/75 78/78/78
f 75/75/75 80/80/80 81/81/81
f 80/80/80 82/82/82 81/81/81
f 82/82/82 83/83/83 81/81/81
f 83/83/83 84/84/84 81/81/81
f 75/75/75 85/85/85 77/77/77
f 85/85/85 75/75/75 81/81/81
f 85/85/85 86/86/86 77/77/77
f 86/86/86 85/85/85 81/81/81
f 86/86/86 87/87/87 77/77/77
f 87/87/87 86/86/86 88/88/88
f 86/86/86 89/89/89 88/88/88
f 89/89/89 86/86/86 90/90/90
f 84/84/84 91/91/91 90/90/90
f 84/84/84 92/92/92 81/81/81
f 92/92/92 86/86/86 81/81/81
f 92/92/92 84/84/84 90/90/90
f 86/86/86 92/92/92 90/90/90
f 95/95/95 94/94/94 93/93/93
f 94/94/94 96/96/96 93/93/93
f 96/96/96 97/97/97 93/93/93
f 97/97/97 98/98/98 93/93/93
f 98/98/98 97/97/97 99/99/99
f 96/96/96 94/94/94 100/100/100
f 97/97/97 96/96/96 100/100/100
f 94/94/94 101/101/101 100/100/100
f 102/102/102 97/97/97 100/100/100
f 97/97/97 102/102/102 103/103/103
f 97/97/97 104/104/104 99/99/99
f 104/104/104 97/97/97 103/103/103
f 104/104/104 105/105/105 99/99/99
f 105/105/105 104/104/104 103/103/103
f 105/105/105 106/106/106 99/99/99
f 107/107/107 105/105/105 103/103/103
f 106/106/106 105/105/105 108/108/108
f 105/105/105 107/107/107 109/109/109
f 105/105/105 110/110/110 108/108/108
f 110/110/110 105/105/105 109/109/109
f 110/110/110 111/111/111 108/108/108
f 111/111/111 110/110/110 109/109/109
f 111/111/111 112/112/112 108/108/108
f 113/113/113 111/111/111 109/109/109
f 112/112/112 111/111/111 114/114/114
f 111/111/111 113/113/113 115/115/115
f 111/111/111 116/116/116 114/114/114
f 116/116/116 111/111/111 115/115/115
f 119/119/119 118/118/118 117/117/117
f 120/120/120 119/119/119 117/117/117
f 119/119/119 120/120/120 121/121/121
f 122/122/122 119/119/119 121/121/121
f 120/120/120 123/123/123 121/121/121
f 123/123/123 124/124/124 121/121/121
f 125/125/125 122/122/122 121/121/121
f 124/124/124 126/126/126 121/121/121
f 127/127/127 125/125/125 121/121/121
f 126/126/126 127/127/127 121/121/121
f 125/125/125 127/127/127 128/128/128
f 127/127/127 126/126/126 128/128/128
f 129/129/129 125/125/125 128/128/128
f 130/130/130 129/129/129 128/128/128
f 126/126/126 131/131/131 128/128/128
f 131/131/131 126/126/126 132/132/132
f 126/126/126 133/133/133 132/132/132
f 134/134/134 131/131/131 132/132/132
f 131/131/131 134/134/134 128/128/128
f 135/135/135 134/134/134 132/132/132
f 134/134/134 135/135/135 136/136/136
f 137/137/137 130/130/130 136/136/136
f 134/134/134 138/138/138 128/128/128
f 138/138/138 134/134/134 136/136/136
f 138/138/138 130/130/130 128/128/128
f 130/130/130 138/138/138 136/136/136
f 141/141/141 140/140/140 139/139/139
f 140/140/140 142/142/142 139/139/139
f 144/144/144 142/142/142 143/143/143
f 142/142/142 145/145/145 143/143/143
f 145/145/145 146/146/146 143/143/143
f 147/147/147 144/144/144 143/143/143
f 148/148/148 147/147/147 143/143/143
f 146/146/146 149/149/149 143/143/143
f 149/149/149 150/150/150 143/143/143
f 150/150/150 148/148/148 143/143/143
f 150/150/150 149/149/149 151/151/151
f 148/148/148 150/150/150 151/151/151
f 149/149/149 152/152/152 151/151/151
f 152/152/152 153/153/153 151/151/151
f 153/153/153 154/154/154 151/151/151
f 154/154/154 155/155/155 151/151/151
f 155/155/155 156/156/156 151/151/151
f 156/156/156 148/148/148 151/151/151
f 147/147/147 148/148/148 157/157/157
f 158/158/158 147/147/147 157/157/157
f 148/148/148 159/159/159 157/157/157
f 160/160/160 158/158/158 157/157/157
f 158/158/158 160/160/160 139/139/139
f 161/161/161 158/158/158 139/139/139
f 159/159/159 148/148/148 162/162/162
f 148/148/148 156/156/156 162/162/162
f 156/156/156 163/163/163 162/162/162
f 163/163/163 164/164/164 162/162/162
f 164/164/164 163/163/163 165/165/165
f 163/163/163 166/166/166 165/165/165
f 168/168/168 167/167/167 165/165/165
f 169/169/169 168/168/168 165/165/165
