g AppleTreeGrownImposter
v 2.653323 -1.22015 0
v 1.200005 -2.773929 0
v -0.9986721 -2.773929 0
v -2.488574 -1.515902 0
v -2.653323 -0.2778963 0
v -2.299079 2.532717 0
v 1.045413 2.532717 0
v 2.653323 1.069479 0
vt 0 0.2927985
vt 0.2738675 0
vt 0.6881927 0
vt 0.9689542 0.2370662
vt 1 0.4703597
vt 0.9332453 1
vt 0.3029992 1
vt 0 0.7242631
vn 0 0 -1
vn 0 0 -1
vn 0 0 -1
vn 0 0 -1
vn 0 0 -0.9999999
vn 0 0 -1
vn 0 0 -1
vn 0 0 -1
g AppleTreeGrownImposter_0
f 4/4/4 6/6/6 8/8/8
f 8/8/8 2/2/2 4/4/4
f 6/6/6 7/7/7 8/8/8
f 4/4/4 5/5/5 6/6/6
f 2/2/2 3/3/3 4/4/4
f 8/8/8 1/1/1 2/2/2
