g BackLeftNoSideTile
v -1 1 -0.25
v -0.75 1 0
v -1 0.75 0
v -0.8 -1 0
v 1 0.8 0
v 1 -1 0
v -0.8 0.8 0
v -1 -1 0
v 1 1 0
v -1 0.75 0
v -0.75 1 0
vt 1 0
vt 0.875 0
vt 1 0.125
vt 0.9 1
vt 0 0.1
vt 0 1
vt 0.9 0.1
vt 1 1
vt 0 0
vt 1 0.125
vt 0.875 0
vn -0.5773503 0.5773503 0.5773503
vn -0.5773503 0.5773503 0.5773503
vn -0.5773503 0.5773503 0.5773503
vn 0 0 1
vn 0 0 1
vn 0 0 1
vn 0 0 1
vn 0 0 1
vn 0 0 1
vn 0 0 1
vn 0 0 1
g BackLeftNoSideTile_0
f 3/3/3 2/2/2 1/1/1
f 6/6/6 5/5/5 4/4/4
f 5/5/5 7/7/7 4/4/4
f 4/4/4 7/7/7 8/8/8
f 5/5/5 9/9/9 7/7/7
f 7/7/7 10/10/10 8/8/8
f 9/9/9 11/11/11 7/7/7
f 7/7/7 11/11/11 10/10/10
