g BackRightCorner
v 1 -1 -0.25
v 0.75 0.75 0
v 1 1 -0.25
v 0.75 -1 0
v -1 -1 0
v -1 0.75 0
v 1 1 -0.25
v -1 1 -0.25
v 1 -1 -0.25
v 1 1 -0.25
v 1 1 -20
v 1 -1 -20
v 1 1 -0.25
v -1 1 -0.25
v -1 1 -20
v 1 1 -20
vt 0 1
vt 0.125 0.125
vt 0 0
vt 0.125 1
vt 1 1
vt 1 0.125
vt 0 0
vt 1 0
vt 9.4E-05 0.99993
vt 0.999907 0.99993
vt 0.999907 -8.874953
vt 9.4E-05 -8.874953
vt 0 1
vt 1 1
vt 1 -8.875
vt 0 -8.875
vn 0.9238795 0 0.3826835
vn 0.3001938 0.3001938 0.9054101
vn 0.9576361 0 0.2879809
vn 0.3826834 0 0.9238795
vn 0 0 1
vn 0 0.3826834 0.9238795
vn 0 0.9576361 0.2879809
vn 0 0.9238795 0.3826835
vn 0.9238795 0 0.3826835
vn 0.9576361 0 0.2879809
vn 1 0 0
vn 1 0 0
vn 0 0.9576361 0.2879809
vn 0 0.9238795 0.3826835
vn 0 1 0
vn 0 1 0
g BackRightCorner_0
f 3/3/3 2/2/2 1/1/1
f 2/2/2 4/4/4 1/1/1
f 4/4/4 2/2/2 5/5/5
f 2/2/2 6/6/6 5/5/5
f 6/6/6 2/2/2 7/7/7
f 8/8/8 6/6/6 7/7/7
g BackRightCorner_1
f 11/11/11 10/10/10 9/9/9
f 12/12/12 11/11/11 9/9/9
f 15/15/15 14/14/14 13/13/13
f 16/16/16 15/15/15 13/13/13
