g Balloon
v -0.255963 0.083167 -1.24672
v -0.200669 0.276197 -1.419061
v -0.158194 0.217735 -1.24672
v -0.32469 0.105498 -1.419061
v -0.255963 -0.083168 -1.24672
v -0.32469 -0.105498 -1.419061
v -0.158194 -0.217736 -1.24672
v -0.200669 -0.276198 -1.419061
v 0 -0.269136 -1.24672
v 0 -0.341399 -1.419061
v 0.158194 -0.217736 -1.24672
v 0.200669 -0.276198 -1.419061
v 0.559017 -0.181636 0.809017
v 0.345492 -0.475529 0.809017
v 0.181636 -0.250001 0.951057
v 0.293893 -0.095492 0.951057
v 0 -1E-06 1
v 0.559017 0.181635 0.809017
v 0.293893 0.095491 0.951057
v 0.181636 0.25 0.951057
v 0.345492 0.475528 0.809017
v 0 0.587785 0.809017
v 0 0.309017 0.951057
v -0.345492 0.475528 0.809017
v -0.181636 0.25 0.951057
v 0.181636 -0.250001 0.951057
v 0 -0.309018 0.951057
v 0.345492 -0.475529 0.809017
v 0 -0.587786 0.809017
v -0.181636 -0.250001 0.951057
v -0.345492 -0.475529 0.809017
v -0.293893 -0.095492 0.951057
v -0.559017 -0.181636 0.809017
v -0.293893 0.095491 0.951057
v -0.181636 0.25 0.951057
v -0.559017 0.181635 0.809017
v -0.345492 0.475528 0.809017
v 0.255963 -0.083168 -1.24672
v 0.158194 -0.217736 -1.24672
v 0.306653 -0.422072 -1.089479
v 0.496175 -0.161217 -1.089479
v 0.442032 -0.608406 -0.802127
v 0.255963 0.083167 -1.24672
v 0.715223 -0.23239 -0.802127
v 0.496175 0.161217 -1.089479
v 0.158194 0.217735 -1.24672
v 0.715223 0.23239 -0.802127
v 0.306653 0.422071 -1.089479
v 0 0.269136 -1.24672
v 0.442032 0.608405 -0.802127
v 0 0.521709 -1.089479
v -0.158194 0.217735 -1.24672
v 0 0.75203 -0.802127
v -0.306653 0.422071 -1.089479
v -0.442032 0.608405 -0.802127
v 0.769421 -0.25 0.587785
v 0.475528 -0.654509 0.587785
v 0.345492 -0.475529 0.809017
v 0.559017 -0.181636 0.809017
v 0.769421 0.25 0.587785
v 0.559017 0.181635 0.809017
v 0.475528 0.654508 0.587785
v 0.345492 0.475528 0.809017
v 0 0.809017 0.587785
v 0 0.587785 0.809017
v -0.475529 0.654509 0.587785
v -0.345492 0.475528 0.809017
v 0.715223 -0.23239 -0.802127
v 0.442032 -0.608406 -0.802127
v 0.545062 -0.750214 -0.423587
v 0.881929 -0.286556 -0.423587
v 0.715223 0.23239 -0.802127
v 0.587201 -0.808212 -0.029834
v 0.881929 0.286556 -0.423587
v 0.442032 0.608405 -0.802127
v 0.95011 -0.30871 -0.029834
v 0.559017 -0.769421 0.308057
v 0.545062 0.750213 -0.423587
v 0 0.75203 -0.802127
v 0.95011 0.308709 -0.029834
v 0.904509 -0.293893 0.308057
v 0.475528 -0.654509 0.587785
v 0.769421 -0.25 0.587785
v 0.904509 0.293892 0.308057
v 0.769421 0.25 0.587785
v 0 0.927315 -0.423587
v -0.442032 0.608405 -0.802127
v -0.545062 0.750214 -0.423587
v 0.587201 0.808212 -0.029834
v 0.559017 0.769421 0.308057
v 0.475528 0.654508 0.587785
v 0 0.999005 -0.029834
v -0.587201 0.808212 -0.029834
v 0 0.951057 0.308057
v 0 0.809017 0.587785
v -0.559017 0.769421 0.308057
v -0.475529 0.654509 0.587785
v 0.559017 -0.769421 0.308057
v 0 -0.809018 0.587785
v 0.475528 -0.654509 0.587785
v 0 -0.951057 0.308057
v 0.587201 -0.808212 -0.029834
v -0.475529 -0.654509 0.587785
v 0 -0.999006 -0.029834
v 0.545062 -0.750214 -0.423587
v -0.559017 -0.769422 0.308057
v -0.769421 -0.25 0.587785
v 0 -0.927316 -0.423587
v 0.442032 -0.608406 -0.802127
v 0 -0.752031 -0.802127
v -0.5872 -0.808213 -0.029834
v -0.904509 -0.293893 0.308057
v -0.769421 0.25 0.587785
v -0.545062 -0.750214 -0.423587
v -0.442032 -0.608406 -0.802127
v -0.95011 -0.30871 -0.029834
v -0.904509 0.293892 0.308057
v -0.475529 0.654509 0.587785
v -0.559017 0.769421 0.308057
v -0.881929 -0.286556 -0.423587
v -0.715223 -0.23239 -0.802127
v -0.95011 0.308709 -0.029834
v -0.587201 0.808212 -0.029834
v -0.881929 0.286556 -0.423587
v -0.715223 0.23239 -0.802127
v -0.545062 0.750214 -0.423587
v -0.442032 0.608405 -0.802127
v 0.306653 -0.422072 -1.089479
v 0 -0.752031 -0.802127
v 0.442032 -0.608406 -0.802127
v 0 -0.52171 -1.089479
v 0.158194 -0.217736 -1.24672
v -0.442032 -0.608406 -0.802127
v 0 -0.269136 -1.24672
v -0.306653 -0.422072 -1.089479
v -0.715223 -0.23239 -0.802127
v -0.158194 -0.217736 -1.24672
v -0.496175 -0.161217 -1.089479
v -0.715223 0.23239 -0.802127
v -0.255963 -0.083168 -1.24672
v -0.496175 0.161217 -1.089479
v -0.442032 0.608405 -0.802127
v -0.255963 0.083167 -1.24672
v -0.306653 0.422071 -1.089479
v -0.158194 0.217735 -1.24672
v 0.475528 -0.654509 0.587785
v 0 -0.587786 0.809017
v 0.345492 -0.475529 0.809017
v 0 -0.809018 0.587785
v -0.345492 -0.475529 0.809017
v -0.475529 -0.654509 0.587785
v -0.559017 -0.181636 0.809017
v -0.769421 -0.25 0.587785
v -0.559017 0.181635 0.809017
v -0.769421 0.25 0.587785
v -0.345492 0.475528 0.809017
v -0.475529 0.654509 0.587785
v -0.158194 0.217735 -1.24672
v -0.200669 0.276197 -1.419061
v 0 0.341399 -1.419061
v 0 0.269136 -1.24672
v 0.200669 0.276197 -1.419061
v 0.158194 0.217735 -1.24672
v 0.32469 0.105498 -1.419061
v 0.255963 0.083167 -1.24672
v 0.32469 -0.105498 -1.419061
v 0.255963 -0.083168 -1.24672
v 0.200669 -0.276198 -1.419061
v 0.158194 -0.217736 -1.24672
v 0 0 -1.473133
v 0.200669 -0.276198 -1.419061
v 0.32469 -0.105498 -1.419061
v 0.32469 0.105498 -1.419061
v 0.200669 0.276197 -1.419061
v 0 0.341399 -1.419061
v -0.200669 0.276197 -1.419061
v 0 0 -1.473133
v 0 -0.341399 -1.419061
v 0.200669 -0.276198 -1.419061
v -0.200669 -0.276198 -1.419061
v -0.32469 -0.105498 -1.419061
v -0.32469 0.105498 -1.419061
v -0.200669 0.276197 -1.419061
vt 0.057596 0.05797
vt 0.061585 0.05789
vt 0.05929 0.055981
vt 0.059503 0.059385
vt 0.056504 0.060087
vt 0.058463 0.06082
vt 0.056153 0.062242
vt 0.058063 0.062329
vt 0.0564 0.064249
vt 0.058199 0.06392
vt 0.056808 0.066152
vt 0.058986 0.065952
vt 0.056366 0.039753
vt 0.054856 0.043451
vt 0.058259 0.043795
vt 0.058983 0.04188
vt 0.061665 0.043898
vt 0.059659 0.037525
vt 0.060627 0.040723
vt 0.062625 0.0407
vt 0.063611 0.037525
vt 0.066869 0.039717
vt 0.064292 0.041814
vt 0.068387 0.0433
vt 0.06506 0.043707
vt 0.058182 0.044107
vt 0.05895 0.046
vt 0.054856 0.044514
vt 0.056374 0.048097
vt 0.060618 0.047114
vt 0.059632 0.050289
vt 0.062616 0.047091
vt 0.063584 0.050289
vt 0.06426 0.045934
vt 0.064984 0.044019
vt 0.066877 0.048061
vt 0.068387 0.044362
vt 0.041987 0.048255
vt 0.040905 0.046753
vt 0.037807 0.047975
vt 0.039926 0.050718
vt 0.034292 0.049839
vt 0.043622 0.049084
vt 0.037457 0.053736
vt 0.042921 0.052176
vt 0.045449 0.049083
vt 0.041995 0.055961
vt 0.046222 0.052143
vt 0.047072 0.048251
vt 0.047074 0.055963
vt 0.049164 0.050613
vt 0.048102 0.046753
vt 0.051657 0.053701
vt 0.051171 0.047827
vt 0.054838 0.049626
vt 0.037697 0.066206
vt 0.034292 0.070335
vt 0.037279 0.07185
vt 0.039753 0.06885
vt 0.042538 0.063924
vt 0.04327 0.067192
vt 0.04789 0.063924
vt 0.047158 0.067192
vt 0.052731 0.066206
vt 0.050675 0.06885
vt 0.056136 0.070335
vt 0.053149 0.07185
vt -0.046424 -0.018065
vt -0.405279 -0.074396
vt -0.488661 0.245229
vt -0.074556 0.284387
vt 0.305696 0.006576
vt -0.512087 0.551381
vt 0.297717 0.298075
vt 0.651749 0.012773
vt -0.086862 0.546094
vt -0.482992 0.802558
vt 0.659433 0.298594
vt 0.992009 -0.003193
vt 0.290928 0.54682
vt -0.083739 0.765007
vt -0.424934 1.019568
vt -0.069528 0.976337
vt 0.287971 0.758254
vt 0.290021 0.970923
vt 1.025133 0.280503
vt 1.323165 -0.064161
vt 1.416016 0.22344
vt 0.65973 0.546095
vt 0.65678 0.759053
vt 0.654961 0.975734
vt 1.038736 0.537482
vt 1.466686 0.517064
vt 1.036442 0.761136
vt 1.027317 0.986694
vt 1.460699 0.778633
vt 1.411752 1.020134
vt 1.46673 0.786695
vt 1.031669 0.991223
vt 1.41582 1.027789
vt 1.042629 0.765747
vt 1.474845 0.525183
vt 0.659415 0.977234
vt 1.046742 0.542119
vt 1.426565 0.231156
vt 0.662997 0.760576
vt 0.294526 0.969455
vt 1.035231 0.285038
vt 1.336057 -0.057191
vt 1.004415 0.001082
vt 0.667679 0.547648
vt 0.294206 0.756776
vt -0.065055 0.971943
vt 0.669395 0.300153
vt 0.664037 0.01428
vt 0.298884 0.545373
vt -0.077546 0.760505
vt -0.420801 1.012282
vt -0.477092 0.794807
vt 0.307695 0.296691
vt 0.318046 0.005267
vt -0.078888 0.541574
vt -0.504142 0.543401
vt -0.064453 0.279976
vt -0.033862 -0.022237
vt -0.478226 0.23745
vt -0.392246 -0.081485
vt 0.03796 0.045661
vt 0.037474 0.039787
vt 0.034292 0.043862
vt 0.039967 0.042876
vt 0.041029 0.046735
vt 0.042056 0.037525
vt 0.042059 0.045237
vt 0.042909 0.041346
vt 0.047135 0.037527
vt 0.043682 0.044405
vt 0.04621 0.041312
vt 0.051673 0.039753
vt 0.045509 0.044404
vt 0.049205 0.04277
vt 0.054838 0.04365
vt 0.047144 0.045234
vt 0.051324 0.045513
vt 0.048226 0.046735
vt 0.034292 0.057496
vt 0.039753 0.05898
vt 0.037279 0.055981
vt 0.037697 0.061624
vt 0.04327 0.060639
vt 0.042538 0.063907
vt 0.047158 0.060639
vt 0.04789 0.063907
vt 0.050675 0.05898
vt 0.052731 0.061624
vt 0.053149 0.055981
vt 0.056136 0.057496
vt 0.066379 0.055981
vt 0.064201 0.056181
vt 0.064989 0.058213
vt 0.066788 0.057884
vt 0.065124 0.059804
vt 0.067034 0.059891
vt 0.064724 0.061313
vt 0.066683 0.062046
vt 0.063684 0.062748
vt 0.065591 0.064163
vt 0.061602 0.064243
vt 0.063897 0.066152
vt 0.061602 0.059596
vt 0.061602 0.064243
vt 0.063684 0.062748
vt 0.064724 0.061313
vt 0.065124 0.059804
vt 0.064989 0.058213
vt 0.064201 0.056181
vt 0.061585 0.062537
vt 0.058199 0.06392
vt 0.058986 0.065952
vt 0.058063 0.062329
vt 0.058463 0.06082
vt 0.059503 0.059385
vt 0.061585 0.05789
vn -0.7720736 0.2508618 -0.583927
vn -0.5420629 0.7460841 0.3866863
vn -0.4771685 0.6567646 -0.5839269
vn -0.8770739 0.2849793 0.3866886
vn -0.7720736 -0.2508622 -0.5839267
vn -0.8770746 -0.2849782 0.3866879
vn -0.4771677 -0.6567644 -0.5839278
vn -0.5420622 -0.7460849 0.386686
vn 0 -0.8118055 -0.5839279
vn 0 -0.9222116 0.3866854
vn 0.4771676 -0.6567644 -0.5839278
vn 0.5420622 -0.7460849 0.386686
vn 0.6027218 -0.1958361 0.7735468
vn 0.3725031 -0.5127054 0.7735468
vn 0.2353688 -0.3239571 0.916326
vn 0.3808348 -0.1237404 0.9163259
vn 0 0 1
vn 0.6027217 0.1958358 0.773547
vn 0.3808347 0.1237404 0.9163259
vn 0.2353688 0.323957 0.9163261
vn 0.3725027 0.5127055 0.7735468
vn 0 0.6337386 0.7735472
vn 0 0.4004331 0.9163261
vn -0.3725022 0.5127048 0.7735476
vn -0.2353688 0.323957 0.9163261
vn 0.2353688 -0.3239571 0.916326
vn 0 -0.4004332 0.9163259
vn 0.3725031 -0.5127054 0.7735468
vn 0 -0.6337389 0.7735471
vn -0.2353689 -0.3239571 0.916326
vn -0.3725026 -0.5127053 0.7735471
vn -0.3808348 -0.1237404 0.9163259
vn -0.6027218 -0.1958357 0.773547
vn -0.3808347 0.1237404 0.9163259
vn -0.2353688 0.323957 0.9163261
vn -0.6027215 0.1958354 0.7735473
vn -0.3725022 0.5127048 0.7735476
vn 0.7720736 -0.2508622 -0.5839267
vn 0.4771676 -0.6567644 -0.5839278
vn 0.4233623 -0.5827067 -0.6936983
vn 0.6850137 -0.2225742 -0.693698
vn 0.510518 -0.7026666 -0.4956118
vn 0.7720736 0.2508618 -0.5839269
vn 0.8260346 -0.2683949 -0.4956117
vn 0.6850135 0.2225746 -0.6936981
vn 0.4771685 0.6567646 -0.5839269
vn 0.8260345 0.2683951 -0.4956118
vn 0.4233618 0.5827072 -0.6936982
vn 0 0.8118057 -0.5839275
vn 0.5105174 0.7026671 -0.4956118
vn 0 0.7202657 -0.6936983
vn -0.4771685 0.6567646 -0.5839269
vn 0 0.868544 -0.4956121
vn -0.4233618 0.5827072 -0.6936982
vn -0.5105173 0.7026668 -0.4956123
vn 0.7898045 -0.2566231 0.5570937
vn 0.4881264 -0.6718482 0.5570931
vn 0.3725031 -0.5127054 0.7735468
vn 0.6027218 -0.1958361 0.7735468
vn 0.7898043 0.2566236 0.5570939
vn 0.6027217 0.1958358 0.773547
vn 0.4881261 0.6718477 0.5570938
vn 0.3725027 0.5127055 0.7735468
vn 0 0.8304494 0.5570939
vn 0 0.6337386 0.7735472
vn -0.4881263 0.6718479 0.5570936
vn -0.3725022 0.5127048 0.7735476
vn 0.8260346 -0.2683949 -0.4956117
vn 0.510518 -0.7026666 -0.4956118
vn 0.5627177 -0.7745135 -0.2889249
vn 0.9104957 -0.2958376 -0.288925
vn 0.8260345 0.2683951 -0.4956118
vn 0.5875067 -0.8086324 -0.03081484
vn 0.9104956 0.295838 -0.288925
vn 0.5105174 0.7026671 -0.4956118
vn 0.9506048 -0.3088704 -0.03081544
vn 0.5648792 -0.7774893 0.2764449
vn 0.5627174 0.7745137 -0.2889252
vn 0 0.868544 -0.4956121
vn 0.9506049 0.30887 -0.03081537
vn 0.9139937 -0.2969747 0.2764448
vn 0.4881264 -0.6718482 0.5570931
vn 0.7898045 -0.2566231 0.5570937
vn 0.9139937 0.2969743 0.2764447
vn 0.7898043 0.2566236 0.5570939
vn 0 0.9573516 -0.2889251
vn -0.5105173 0.7026668 -0.4956123
vn -0.5627171 0.7745139 -0.2889251
vn 0.5875066 0.8086324 -0.03081539
vn 0.5648793 0.7774893 0.2764452
vn 0.4881261 0.6718477 0.5570938
vn 0 0.9995251 -0.03081531
vn -0.5875067 0.8086323 -0.03081493
vn 0 0.9610298 0.2764449
vn 0 0.8304494 0.5570939
vn -0.5648793 0.7774894 0.2764444
vn -0.4881263 0.6718479 0.5570936
vn 0.5648792 -0.7774893 0.2764449
vn 0 -0.83045 0.5570931
vn 0.4881264 -0.6718482 0.5570931
vn 0 -0.9610298 0.2764449
vn 0.5875067 -0.8086324 -0.03081484
vn -0.4881267 -0.6718475 0.5570936
vn 0 -0.9995251 -0.03081473
vn 0.5627177 -0.7745135 -0.2889249
vn -0.5648792 -0.7774894 0.2764447
vn -0.7898046 -0.2566226 0.5570938
vn 0 -0.9573517 -0.2889248
vn 0.510518 -0.7026666 -0.4956118
vn 0 -0.8685442 -0.4956119
vn -0.5875062 -0.8086327 -0.03081535
vn -0.9139938 -0.2969746 0.2764443
vn -0.7898046 0.2566231 0.5570936
vn -0.5627179 -0.7745133 -0.2889251
vn -0.5105179 -0.7026667 -0.4956117
vn -0.9506048 -0.3088706 -0.03081563
vn -0.913994 0.2969741 0.2764442
vn -0.4881263 0.6718479 0.5570936
vn -0.5648793 0.7774894 0.2764444
vn -0.9104957 -0.2958378 -0.2889249
vn -0.8260346 -0.2683949 -0.4956118
vn -0.950605 0.30887 -0.0308152
vn -0.5875067 0.8086323 -0.03081493
vn -0.9104956 0.2958378 -0.2889249
vn -0.8260345 0.268395 -0.4956119
vn -0.5627171 0.7745139 -0.2889251
vn -0.5105173 0.7026668 -0.4956123
vn 0.4233623 -0.5827067 -0.6936983
vn 0 -0.8685442 -0.4956119
vn 0.510518 -0.7026666 -0.4956118
vn 0 -0.7202655 -0.6936985
vn 0.4771676 -0.6567644 -0.5839278
vn -0.5105179 -0.7026667 -0.4956117
vn 0 -0.8118055 -0.5839279
vn -0.4233623 -0.5827067 -0.6936983
vn -0.8260346 -0.2683949 -0.4956118
vn -0.4771677 -0.6567644 -0.5839278
vn -0.6850137 -0.2225742 -0.693698
vn -0.8260345 0.268395 -0.4956119
vn -0.7720736 -0.2508622 -0.5839267
vn -0.6850135 0.2225746 -0.6936982
vn -0.5105173 0.7026668 -0.4956123
vn -0.7720736 0.2508618 -0.583927
vn -0.4233618 0.5827072 -0.6936982
vn -0.4771685 0.6567646 -0.5839269
vn 0.4881264 -0.6718482 0.5570931
vn 0 -0.6337389 0.7735471
vn 0.3725031 -0.5127054 0.7735468
vn 0 -0.83045 0.5570931
vn -0.3725026 -0.5127053 0.7735471
vn -0.4881267 -0.6718475 0.5570936
vn -0.6027218 -0.1958357 0.773547
vn -0.7898046 -0.2566226 0.5570938
vn -0.6027215 0.1958354 0.7735473
vn -0.7898046 0.2566231 0.5570936
vn -0.3725022 0.5127048 0.7735476
vn -0.4881263 0.6718479 0.5570936
vn -0.4771685 0.6567646 -0.5839269
vn -0.5420629 0.7460841 0.3866863
vn 0 0.9222116 0.3866858
vn 0 0.8118057 -0.5839275
vn 0.5420629 0.7460841 0.3866863
vn 0.4771685 0.6567646 -0.5839269
vn 0.8770739 0.2849793 0.3866887
vn 0.7720736 0.2508618 -0.5839269
vn 0.8770747 -0.2849782 0.3866879
vn 0.7720736 -0.2508622 -0.5839267
vn 0.5420622 -0.7460849 0.386686
vn 0.4771676 -0.6567644 -0.5839278
vn 0 0 -1
vn 0.09194936 -0.1265575 -0.9876885
vn 0.1487771 -0.04834076 -0.9876885
vn 0.1487771 0.04834083 -0.9876885
vn 0.09194958 0.1265578 -0.9876885
vn 0 0.1564337 -0.9876885
vn -0.09194958 0.1265578 -0.9876885
vn 0 0 -1
vn 0 -0.1564337 -0.9876885
vn 0.09194936 -0.1265575 -0.9876885
vn -0.09194936 -0.1265575 -0.9876885
vn -0.1487771 -0.04834076 -0.9876885
vn -0.1487771 0.04834083 -0.9876885
vn -0.09194958 0.1265578 -0.9876885
g Balloon_0
f 3/3/3 2/2/2 1/1/1
f 2/2/2 4/4/4 1/1/1
f 1/1/1 4/4/4 5/5/5
f 4/4/4 6/6/6 5/5/5
f 5/5/5 6/6/6 7/7/7
f 6/6/6 8/8/8 7/7/7
f 7/7/7 8/8/8 9/9/9
f 8/8/8 10/10/10 9/9/9
f 9/9/9 10/10/10 11/11/11
f 10/10/10 12/12/12 11/11/11
f 15/15/15 14/14/14 13/13/13
f 16/16/16 15/15/15 13/13/13
f 17/17/17 15/15/15 16/16/16
f 16/16/16 13/13/13 18/18/18
f 17/17/17 16/16/16 19/19/19
f 19/19/19 16/16/16 18/18/18
f 17/17/17 19/19/19 20/20/20
f 19/19/19 18/18/18 21/21/21
f 20/20/20 19/19/19 21/21/21
f 20/20/20 21/21/21 22/22/22
f 23/23/23 20/20/20 22/22/22
f 17/17/17 20/20/20 23/23/23
f 23/23/23 22/22/22 24/24/24
f 25/25/25 23/23/23 24/24/24
f 17/17/17 23/23/23 25/25/25
f 17/17/17 27/27/27 26/26/26
f 26/26/26 27/27/27 28/28/28
f 27/27/27 29/29/29 28/28/28
f 27/27/27 30/30/30 29/29/29
f 17/17/17 30/30/30 27/27/27
f 30/30/30 31/31/31 29/29/29
f 30/30/30 32/32/32 31/31/31
f 17/17/17 32/32/32 30/30/30
f 32/32/32 33/33/33 31/31/31
f 17/17/17 34/34/34 32/32/32
f 32/32/32 34/34/34 33/33/33
f 17/17/17 35/35/35 34/34/34
f 34/34/34 36/36/36 33/33/33
f 34/34/34 35/35/35 36/36/36
f 35/35/35 37/37/37 36/36/36
f 40/40/40 39/39/39 38/38/38
f 41/41/41 40/40/40 38/38/38
f 42/42/42 40/40/40 41/41/41
f 41/41/41 38/38/38 43/43/43
f 44/44/44 42/42/42 41/41/41
f 45/45/45 41/41/41 43/43/43
f 44/44/44 41/41/41 45/45/45
f 45/45/45 43/43/43 46/46/46
f 47/47/47 44/44/44 45/45/45
f 48/48/48 45/45/45 46/46/46
f 47/47/47 45/45/45 48/48/48
f 48/48/48 46/46/46 49/49/49
f 50/50/50 47/47/47 48/48/48
f 51/51/51 48/48/48 49/49/49
f 50/50/50 48/48/48 51/51/51
f 51/51/51 49/49/49 52/52/52
f 53/53/53 50/50/50 51/51/51
f 54/54/54 51/51/51 52/52/52
f 53/53/53 51/51/51 54/54/54
f 55/55/55 53/53/53 54/54/54
f 58/58/58 57/57/57 56/56/56
f 59/59/59 58/58/58 56/56/56
f 59/59/59 56/56/56 60/60/60
f 61/61/61 59/59/59 60/60/60
f 61/61/61 60/60/60 62/62/62
f 63/63/63 61/61/61 62/62/62
f 63/63/63 62/62/62 64/64/64
f 65/65/65 63/63/63 64/64/64
f 65/65/65 64/64/64 66/66/66
f 67/67/67 65/65/65 66/66/66
f 70/70/70 69/69/69 68/68/68
f 71/71/71 70/70/70 68/68/68
f 71/71/71 68/68/68 72/72/72
f 73/73/73 70/70/70 71/71/71
f 74/74/74 71/71/71 72/72/72
f 74/74/74 72/72/72 75/75/75
f 76/76/76 73/73/73 71/71/71
f 76/76/76 71/71/71 74/74/74
f 77/77/77 73/73/73 76/76/76
f 78/78/78 74/74/74 75/75/75
f 78/78/78 75/75/75 79/79/79
f 80/80/80 76/76/76 74/74/74
f 80/80/80 74/74/74 78/78/78
f 81/81/81 77/77/77 76/76/76
f 81/81/81 76/76/76 80/80/80
f 82/82/82 77/77/77 81/81/81
f 83/83/83 82/82/82 81/81/81
f 83/83/83 81/81/81 84/84/84
f 84/84/84 81/81/81 80/80/80
f 85/85/85 83/83/83 84/84/84
f 86/86/86 78/78/78 79/79/79
f 86/86/86 79/79/79 87/87/87
f 88/88/88 86/86/86 87/87/87
f 89/89/89 80/80/80 78/78/78
f 84/84/84 80/80/80 89/89/89
f 89/89/89 78/78/78 86/86/86
f 85/85/85 84/84/84 90/90/90
f 90/90/90 84/84/84 89/89/89
f 91/91/91 85/85/85 90/90/90
f 92/92/92 86/86/86 88/88/88
f 92/92/92 89/89/89 86/86/86
f 90/90/90 89/89/89 92/92/92
f 93/93/93 92/92/92 88/88/88
f 91/91/91 90/90/90 94/94/94
f 94/94/94 90/90/90 92/92/92
f 94/94/94 92/92/92 93/93/93
f 95/95/95 91/91/91 94/94/94
f 96/96/96 94/94/94 93/93/93
f 95/95/95 94/94/94 96/96/96
f 97/97/97 95/95/95 96/96/96
f 100/100/100 99/99/99 98/98/98
f 99/99/99 101/101/101 98/98/98
f 98/98/98 101/101/101 102/102/102
f 99/99/99 103/103/103 101/101/101
f 101/101/101 104/104/104 102/102/102
f 102/102/102 104/104/104 105/105/105
f 103/103/103 106/106/106 101/101/101
f 101/101/101 106/106/106 104/104/104
f 103/103/103 107/107/107 106/106/106
f 104/104/104 108/108/108 105/105/105
f 105/105/105 108/108/108 109/109/109
f 108/108/108 110/110/110 109/109/109
f 106/106/106 111/111/111 104/104/104
f 104/104/104 111/111/111 108/108/108
f 107/107/107 112/112/112 106/106/106
f 106/106/106 112/112/112 111/111/111
f 107/107/107 113/113/113 112/112/112
f 108/108/108 114/114/114 110/110/110
f 111/111/111 114/114/114 108/108/108
f 114/114/114 115/115/115 110/110/110
f 112/112/112 116/116/116 111/111/111
f 111/111/111 116/116/116 114/114/114
f 113/113/113 117/117/117 112/112/112
f 112/112/112 117/117/117 116/116/116
f 113/113/113 118/118/118 117/117/117
f 118/118/118 119/119/119 117/117/117
f 114/114/114 120/120/120 115/115/115
f 116/116/116 120/120/120 114/114/114
f 120/120/120 121/121/121 115/115/115
f 117/117/117 122/122/122 116/116/116
f 117/117/117 119/119/119 122/122/122
f 116/116/116 122/122/122 120/120/120
f 119/119/119 123/123/123 122/122/122
f 120/120/120 124/124/124 121/121/121
f 122/122/122 124/124/124 120/120/120
f 122/122/122 123/123/123 124/124/124
f 124/124/124 125/125/125 121/121/121
f 123/123/123 126/126/126 124/124/124
f 124/124/124 126/126/126 125/125/125
f 126/126/126 127/127/127 125/125/125
f 130/130/130 129/129/129 128/128/128
f 129/129/129 131/131/131 128/128/128
f 128/128/128 131/131/131 132/132/132
f 129/129/129 133/133/133 131/131/131
f 131/131/131 134/134/134 132/132/132
f 133/133/133 135/135/135 131/131/131
f 131/131/131 135/135/135 134/134/134
f 133/133/133 136/136/136 135/135/135
f 135/135/135 137/137/137 134/134/134
f 136/136/136 138/138/138 135/135/135
f 135/135/135 138/138/138 137/137/137
f 136/136/136 139/139/139 138/138/138
f 138/138/138 140/140/140 137/137/137
f 139/139/139 141/141/141 138/138/138
f 138/138/138 141/141/141 140/140/140
f 139/139/139 142/142/142 141/141/141
f 141/141/141 143/143/143 140/140/140
f 142/142/142 144/144/144 141/141/141
f 141/141/141 144/144/144 143/143/143
f 144/144/144 145/145/145 143/143/143
f 148/148/148 147/147/147 146/146/146
f 147/147/147 149/149/149 146/146/146
f 147/147/147 150/150/150 149/149/149
f 150/150/150 151/151/151 149/149/149
f 150/150/150 152/152/152 151/151/151
f 152/152/152 153/153/153 151/151/151
f 152/152/152 154/154/154 153/153/153
f 154/154/154 155/155/155 153/153/153
f 154/154/154 156/156/156 155/155/155
f 156/156/156 157/157/157 155/155/155
f 160/160/160 159/159/159 158/158/158
f 161/161/161 160/160/160 158/158/158
f 162/162/162 160/160/160 161/161/161
f 163/163/163 162/162/162 161/161/161
f 164/164/164 162/162/162 163/163/163
f 165/165/165 164/164/164 163/163/163
f 166/166/166 164/164/164 165/165/165
f 167/167/167 166/166/166 165/165/165
f 168/168/168 166/166/166 167/167/167
f 169/169/169 168/168/168 167/167/167
f 172/172/172 171/171/171 170/170/170
f 173/173/173 172/172/172 170/170/170
f 174/174/174 173/173/173 170/170/170
f 175/175/175 174/174/174 170/170/170
f 176/176/176 175/175/175 170/170/170
f 179/179/179 178/178/178 177/177/177
f 178/178/178 180/180/180 177/177/177
f 180/180/180 181/181/181 177/177/177
f 181/181/181 182/182/182 177/177/177
f 182/182/182 183/183/183 177/177/177
