g BankCollider
v -3.372021 -3.642675 3.464467
v -3.372021 2.843866 9.506821
v -3.372021 -3.642675 9.506821
v -3.372021 2.843866 3.464467
v -3.372021 -3.642675 0.290705
v -3.372021 2.843866 0.290705
v -3.372021 -3.642675 0.131954
v -3.372021 2.843866 0.131954
v -3.372021 -3.642675 -0.576316
v -3.188646 3.001326 0.290705
v -3.372021 2.843866 -0.576316
v -3.188646 3.001326 0.131954
v -3.188646 3.197545 0.290705
v -3.188646 3.001326 -0.576316
v -3.188646 3.197545 0.131954
v -3.188646 3.501554 0.290705
v -3.188646 3.197545 -0.576316
v -3.188646 3.501554 0.131954
v -3.188646 3.501554 -0.576316
v 3.372021 2.843866 3.464467
v 3.372021 -3.642675 9.506821
v 3.372021 2.843866 9.506821
v 3.372021 -3.642675 3.464467
v 3.372021 2.843866 0.290705
v 3.372021 -3.642675 0.290705
v 3.372021 2.843866 0.131954
v 3.372021 -3.642675 0.131954
v 3.372021 2.843866 -0.576316
v 3.372021 -3.642675 -0.576316
v 3.188646 3.001326 -0.576316
v 3.188646 3.001326 0.131954
v 3.188646 3.001326 0.290705
v 3.188646 3.197545 -0.576316
v 3.188646 3.197545 0.131954
v 3.188646 3.501554 -0.576316
v 3.188646 3.197545 0.290705
v 3.188646 3.501554 0.131954
v 3.188646 3.501554 0.290705
v 3.027937 -3.372717 9.506821
v 3.027937 -3.372717 9.363945
v 3.027937 2.683157 9.363945
v 3.027937 2.683157 9.506821
v -1.30704 2.683157 9.363945
v -3.027937 -3.372717 9.363945
v -3.027937 2.683157 9.363945
v -1.30704 -3.372717 9.363945
v 1.30704 2.683157 9.363945
v 1.30704 -3.372717 9.363945
v 3.027937 2.683157 9.363945
v 3.027937 -3.372717 9.363945
v -3.027937 2.683157 9.506821
v -3.027937 2.683157 9.363945
v -3.027937 -3.372717 9.363945
v -3.027937 -3.372717 9.506821
v 1.30704 -3.372717 9.506821
v 3.027937 -3.372717 9.363945
v 3.027937 -3.372717 9.506821
v 1.30704 -3.372717 9.363945
v -1.30704 -3.372717 9.506821
v -1.30704 -3.372717 9.363945
v -3.027937 -3.372717 9.506821
v -3.027937 -3.372717 9.363945
v -1.30704 2.683157 9.506821
v -3.027937 2.683157 9.363945
v -3.027937 2.683157 9.506821
v -1.30704 2.683157 9.363945
v 1.30704 2.683157 9.506821
v 1.30704 2.683157 9.363945
v 3.027937 2.683157 9.506821
v 3.027937 2.683157 9.363945
v -1.376412 3.197545 0.131954
v 1.376412 3.197545 0.131954
v 1.376412 3.197545 0.290705
v -1.376411 3.197545 0.290705
v -3.372021 2.843866 -0.576316
v -3.372021 -3.642675 -0.576316
v -1.376411 -3.642675 -0.576316
v -1.376412 2.843866 -0.576316
v -3.188646 3.001326 -0.576316
v 1.376412 -3.642675 -0.576316
v -1.376412 3.001326 -0.576316
v -3.188646 3.197545 -0.576316
v 1.376411 2.843866 -0.576316
v 3.372021 -3.642675 -0.576316
v 3.372021 2.843866 -0.576316
v 1.376411 3.001326 -0.576316
v 3.188646 3.001326 -0.576316
v -1.376412 3.197545 -0.576316
v -3.188646 3.501554 -0.576316
v -1.376412 3.501554 -0.576316
v 1.376411 3.197545 -0.576316
v -1.376412 3.519532 -0.576316
v 1.376411 3.519532 -0.576316
v 3.188646 3.197545 -0.576316
v 1.376411 3.501554 -0.576316
v 3.188646 3.501554 -0.576316
v 3.372021 -3.642675 3.464467
v 1.376411 -3.642675 9.506821
v 3.372021 -3.642675 9.506821
v 1.376411 -3.642675 3.464467
v 3.372021 -3.642675 0.290705
v -1.376412 -3.642675 9.506821
v 1.376411 -3.642675 0.290705
v 3.372021 -3.642675 0.131954
v -1.376412 -3.642675 3.464467
v -3.372021 -3.642675 9.506821
v -3.372021 -3.642675 3.464467
v -1.376412 -3.642675 0.290705
v -3.372021 -3.642675 0.290705
v 1.376412 -3.642675 0.131954
v 3.372021 -3.642675 -0.576316
v 1.376412 -3.642675 -0.576316
v -1.376412 -3.642675 0.131954
v -3.372021 -3.642675 0.131954
v -1.376411 -3.642675 -0.576316
v -3.372021 -3.642675 -0.576316
v -3.372021 2.843866 3.464467
v -1.376411 2.843866 9.506821
v -3.372021 2.843866 9.506821
v -1.054117 2.843866 3.464467
v -3.372021 2.843866 0.290705
v -1.054117 2.843866 0.290705
v 1.376412 2.843866 9.506821
v 1.054118 2.843866 3.464467
v 3.372021 2.843866 9.506821
v 3.372021 2.843866 3.464467
v 1.054118 2.843866 0.290705
v 3.372021 2.843866 0.290705
v 1.054118 2.843866 0.290705
v 3.188646 3.001326 0.290705
v 3.372021 2.843866 0.290705
v 1.376412 3.001326 0.290705
v 3.188646 3.197545 0.290705
v 1.376412 3.197545 0.290705
v 3.188646 3.501554 0.290705
v 1.376412 3.501554 0.290705
v -1.376411 3.001326 0.290705
v -1.376411 3.197545 0.290705
v -1.054117 2.843866 0.290705
v -1.054117 2.322648 0.290705
v 1.054118 2.322648 0.290705
v -3.372021 2.843866 0.290705
v -3.188646 3.001326 0.290705
v -3.188646 3.197545 0.290705
v -1.376411 3.501554 0.290705
v -3.188646 3.501554 0.290705
v 1.376412 3.501554 0.131954
v 3.188646 3.501554 0.290705
v 1.376412 3.501554 0.290705
v 3.188646 3.501554 0.131954
v 1.376411 3.501554 -0.576316
v 3.188646 3.501554 -0.576316
v -3.188646 3.501554 0.131954
v -1.376411 3.501554 0.290705
v -3.188646 3.501554 0.290705
v -1.376412 3.501554 0.131954
v -3.188646 3.501554 -0.576316
v -1.376412 3.501554 -0.576316
v -1.376412 3.197545 0.131954
v -1.376412 3.501554 -0.576316
v -1.376412 3.197545 -0.576316
v -1.376412 3.501554 0.131954
v -1.376411 3.197545 0.290705
v -1.376411 3.501554 0.290705
v 1.376412 3.197545 0.131954
v 1.376412 3.501554 0.290705
v 1.376412 3.197545 0.290705
v 1.376412 3.501554 0.131954
v 1.376411 3.197545 -0.576316
v 1.376411 3.501554 -0.576316
v -1.376412 3.197545 0.131954
v -1.376412 3.519532 0.131954
v 1.376412 3.519532 0.131954
v 1.376412 3.197545 0.131954
v -1.376412 3.519532 -0.576316
v 1.376411 3.519532 -0.576316
v 1.376412 3.519532 0.131954
v -1.376412 3.519532 0.131954
v -1.376412 3.197545 -0.576316
v -1.376412 3.519532 -0.576316
v -1.376412 3.519532 0.131954
v -1.376412 3.197545 0.131954
v 1.376412 3.197545 0.131954
v 1.376412 3.519532 0.131954
v 1.376411 3.519532 -0.576316
v 1.376411 3.197545 -0.576316
v 1.054118 2.843866 3.464467
v 1.054118 2.322648 3.464467
v 1.054118 2.322648 0.290705
v 1.054118 2.843866 0.290705
v -1.054117 2.322648 0.290705
v 1.054118 2.322648 0.290705
v 1.054118 2.322648 3.464467
v -1.054117 2.322648 3.464467
v -1.054117 2.843866 0.290705
v -1.054117 2.322648 0.290705
v -1.054117 2.322648 3.464467
v -1.054117 2.843866 3.464467
v -1.054117 2.843866 3.464467
v -1.054117 2.322648 3.464467
v 1.054118 2.322648 3.464467
v 1.054118 2.843866 3.464467
v 4.453928 3.557582 4.155341
v -4.453927 3.557582 4.155341
v -4.453928 -4.504832 4.155341
v 4.453927 -4.504832 4.155341
v 4.453927 -4.504832 4.619242
v 4.453928 3.557582 4.619242
v 4.453928 3.557582 4.155341
v 4.453927 -4.504832 4.155341
v 4.453928 3.557582 4.619242
v -4.453927 3.557582 4.619242
v -4.453927 3.557582 4.155341
v 4.453928 3.557582 4.155341
v -4.453927 3.557582 4.619242
v -4.453928 -4.504832 4.619242
v -4.453928 -4.504832 4.155341
v -4.453927 3.557582 4.155341
v -4.453928 -4.504832 4.619242
v 4.453927 -4.504832 4.619242
v 4.453927 -4.504832 4.155341
v -4.453928 -4.504832 4.155341
v -3.027937 -3.372717 9.506821
v -3.372021 -3.642675 9.506821
v -3.372021 2.843866 9.506821
v -3.027937 2.683157 9.506821
v -1.30704 -3.372717 9.506821
v -1.376411 2.843866 9.506821
v -1.376412 -3.642675 9.506821
v -1.30704 2.683157 9.506821
v 1.30704 -3.372717 9.506821
v 1.376412 2.843866 9.506821
v 1.376411 -3.642675 9.506821
v 1.30704 2.683157 9.506821
v 3.027937 -3.372717 9.506821
v 3.372021 2.843866 9.506821
v 3.372021 -3.642675 9.506821
v 3.027937 2.683157 9.506821
v -3.569521 2.711652 5.124646
v -4.453927 3.557582 4.619242
v 4.453928 3.557582 4.619242
v 3.569521 2.711652 5.124646
v 4.453927 -4.504832 4.619242
v -3.569521 -3.658902 5.124646
v -4.453928 -4.504832 4.619242
v 3.569521 -3.658902 5.124646
vn -1 0 0
vn -1 0 0
vn -1 0 0
vn -1 0 0
vn -1 0 0
vn -0.9999992 0.001345145 0
vn -1 0 0
vn -0.9996194 0.02758956 0
vn -1 0 0
vn -0.887769 0.4602891 0
vn -0.9996194 0.02758956 0
vn -0.887769 0.460289 0
vn -1 0 0
vn -0.887769 0.4602891 0
vn -1 0 0
vn -1 0 0
vn -1 0 0
vn -1 0 0
vn -1 0 0
vn 1 0 0
vn 1 0 0
vn 1 0 0
vn 1 0 0
vn 0.9999992 0.001345145 0
vn 1 0 0
vn 0.9996194 0.02758956 0
vn 1 0 0
vn 0.9996194 0.02758956 0
vn 1 0 0
vn 0.887769 0.4602891 0
vn 0.887769 0.460289 0
vn 0.887769 0.4602891 0
vn 1 0 0
vn 1 0 0
vn 1 0 0
vn 1 0 0
vn 1 0 0
vn 1 0 0
vn -1 0 0
vn -1 0 0
vn -1 0 0
vn -1 0 0
vn 0 0 1
vn 0 0 1
vn 0 0 1
vn 0 0 1
vn 0 0 1
vn 0 0 1
vn 0 0 1
vn 0 0 1
vn 1 0 0
vn 1 0 0
vn 1 0 0
vn 1 0 0
vn 0 1 0
vn 0 1 0
vn 0 1 0
vn 0 1 0
vn 0 1 0
vn 0 1 0
vn 0 1 0
vn 0 1 0
vn 0 -1 0
vn 0 -1 0
vn 0 -1 0
vn 0 -1 0
vn 0 -1 0
vn 0 -1 0
vn 0 -1 0
vn 0 -1 0
vn 0 1 0
vn 0 1 0
vn 0 1 0
vn 0 1 0
vn 0 0 -1
vn 0 0 -1
vn 0 0 -1
vn 0 0 -1
vn 0 0 -1
vn 0 0 -1
vn 0 0 -1
vn 0 0 -1
vn 0 0 -1
vn 0 0 -1
vn 0 0 -1
vn 0 0 -1
vn 0 0 -1
vn 0 0 -1
vn 0 0 -1
vn 0 0 -1
vn 0 0 -1
vn 0 0 -1
vn 0 0 -1
vn 0 0 -1
vn 0 0 -1
vn 0 0 -1
vn 0 -1 0
vn 0 -1 0
vn 0 -1 0
vn 0 -1 0
vn 0 -1 0
vn 0 -1 0
vn 0 -1 0
vn 0 -1 0
vn 0 -1 0
vn 0 -1 0
vn 0 -1 0
vn 0 -1 0
vn 0 -1 0
vn 0 -1 0
vn 0 -1 0
vn 0 -1 0
vn 0 -1 0
vn 0 -1 0
vn 0 -1 0
vn 0 -1 0
vn 0 1 0
vn 0 1 0
vn 0 1 0
vn 0 1 0
vn 0 1 0
vn 0 1 0
vn 0 1 0
vn 0 1 0
vn 0 1 0
vn 0 1 0
vn 0 1 0
vn 0 1 0
vn 0 0 1
vn 0 0 1
vn 0 0 1
vn 0 0 1
vn 0 0 1
vn 0 0 1
vn 0 0 1
vn 0 0 1
vn 0 0 1
vn 0 0 1
vn 0 0 1
vn 0 0 1
vn 0 0 1
vn 0 0 1
vn 0 0 1
vn 0 0 1
vn 0 0 1
vn 0 0 1
vn 0 1 0
vn 0 1 0
vn 0 1 0
vn 0 1 0
vn 0 1 0
vn 0 1 0
vn 0 1 0
vn 0 1 0
vn 0 1 0
vn 0 1 0
vn 0 1 0
vn 0 1 0
vn 1 0 0
vn 1 0 0
vn 1 0 0
vn 1 0 0
vn 1 0 0
vn 1 0 0
vn -1 0 0
vn -1 0 0
vn -1 0 0
vn -1 0 0
vn -1 0 0
vn -1 0 0
vn 0 0 1
vn 0 0 1
vn 0 0 1
vn 0 0 1
vn 0 1 0
vn 0 1 0
vn 0 1 0
vn 0 1 0
vn -1 0 0
vn -1 0 0
vn -1 0 0
vn -1 0 0
vn 1 0 0
vn 1 0 0
vn 1 0 0
vn 1 0 0
vn -1 0 0
vn -1 0 0
vn -1 0 0
vn -1 0 0
vn 0 1 0
vn 0 1 0
vn 0 1 0
vn 0 1 0
vn 1 0 0
vn 1 0 0
vn 1 0 0
vn 1 0 0
vn 0 0 -1
vn 0 0 -1
vn 0 0 -1
vn 0 0 -1
vn 0 0 -1
vn 0 0 -1
vn 0 0 -1
vn 0 0 -1
vn 0.4300777 -0.4766546 0.7667031
vn 0.4300777 0.4766545 0.7667031
vn 1 0 0
vn 1 0 0
vn 0.4300777 0.4766545 0.7667031
vn -0.4300777 0.4766545 0.7667031
vn 0 1 0
vn 0 1 0
vn -0.4300777 0.4766545 0.7667031
vn -0.4300777 -0.4766545 0.7667031
vn -1 0 0
vn -1 0 0
vn -0.4300777 -0.4766545 0.7667031
vn 0.4300777 -0.4766546 0.7667031
vn 0 -1 0
vn 0 -1 0
vn 0 0 1
vn 0 0 1
vn 0 0 1
vn 0 0 1
vn 0 0 1
vn 0 0 1
vn 0 0 1
vn 0 0 1
vn 0 0 1
vn 0 0 1
vn 0 0 1
vn 0 0 1
vn 0 0 1
vn 0 0 1
vn 0 0 1
vn 0 0 1
vn -0.06192018 0.06884426 0.995704
vn -0.4300777 0.4766545 0.7667031
vn 0.4300777 0.4766545 0.7667031
vn 0.06192018 0.06884424 0.995704
vn 0.4300777 -0.4766546 0.7667031
vn -0.06192018 -0.06884425 0.995704
vn -0.4300777 -0.4766545 0.7667031
vn 0.06192018 -0.06884427 0.995704
g BankCollider_0
f 3/3/3 2/2/2 1/1/1
f 2/2/2 4/4/4 1/1/1
f 1/1/1 4/4/4 5/5/5
f 4/4/4 6/6/6 5/5/5
f 5/5/5 6/6/6 7/7/7
f 6/6/6 8/8/8 7/7/7
f 7/7/7 8/8/8 9/9/9
f 6/6/6 10/10/10 8/8/8
f 8/8/8 11/11/11 9/9/9
f 10/10/10 12/12/12 8/8/8
f 8/8/8 12/12/12 11/11/11
f 10/10/10 13/13/13 12/12/12
f 12/12/12 14/14/14 11/11/11
f 13/13/13 15/15/15 12/12/12
f 12/12/12 15/15/15 14/14/14
f 13/13/13 16/16/16 15/15/15
f 15/15/15 17/17/17 14/14/14
f 16/16/16 18/18/18 15/15/15
f 15/15/15 18/18/18 17/17/17
f 18/18/18 19/19/19 17/17/17
f 22/22/22 21/21/21 20/20/20
f 21/21/21 23/23/23 20/20/20
f 20/20/20 23/23/23 24/24/24
f 23/23/23 25/25/25 24/24/24
f 24/24/24 25/25/25 26/26/26
f 25/25/25 27/27/27 26/26/26
f 26/26/26 27/27/27 28/28/28
f 27/27/27 29/29/29 28/28/28
f 28/28/28 30/30/30 26/26/26
f 26/26/26 31/31/31 24/24/24
f 30/30/30 31/31/31 26/26/26
f 31/31/31 32/32/32 24/24/24
f 30/30/30 33/33/33 31/31/31
f 31/31/31 34/34/34 32/32/32
f 33/33/33 34/34/34 31/31/31
f 33/33/33 35/35/35 34/34/34
f 34/34/34 36/36/36 32/32/32
f 35/35/35 37/37/37 34/34/34
f 34/34/34 37/37/37 36/36/36
f 37/37/37 38/38/38 36/36/36
f 41/41/41 40/40/40 39/39/39
f 42/42/42 41/41/41 39/39/39
f 45/45/45 44/44/44 43/43/43
f 44/44/44 46/46/46 43/43/43
f 43/43/43 46/46/46 47/47/47
f 46/46/46 48/48/48 47/47/47
f 47/47/47 48/48/48 49/49/49
f 48/48/48 50/50/50 49/49/49
f 53/53/53 52/52/52 51/51/51
f 54/54/54 53/53/53 51/51/51
f 57/57/57 56/56/56 55/55/55
f 56/56/56 58/58/58 55/55/55
f 55/55/55 58/58/58 59/59/59
f 58/58/58 60/60/60 59/59/59
f 59/59/59 60/60/60 61/61/61
f 60/60/60 62/62/62 61/61/61
f 65/65/65 64/64/64 63/63/63
f 64/64/64 66/66/66 63/63/63
f 63/63/63 66/66/66 67/67/67
f 66/66/66 68/68/68 67/67/67
f 67/67/67 68/68/68 69/69/69
f 68/68/68 70/70/70 69/69/69
f 73/73/73 72/72/72 71/71/71
f 74/74/74 73/73/73 71/71/71
f 77/77/77 76/76/76 75/75/75
f 78/78/78 77/77/77 75/75/75
f 75/75/75 79/79/79 78/78/78
f 80/80/80 77/77/77 78/78/78
f 79/79/79 81/81/81 78/78/78
f 79/79/79 82/82/82 81/81/81
f 83/83/83 80/80/80 78/78/78
f 78/78/78 81/81/81 83/83/83
f 84/84/84 80/80/80 83/83/83
f 85/85/85 84/84/84 83/83/83
f 83/83/83 86/86/86 85/85/85
f 81/81/81 86/86/86 83/83/83
f 86/86/86 87/87/87 85/85/85
f 82/82/82 88/88/88 81/81/81
f 81/81/81 88/88/88 86/86/86
f 82/82/82 89/89/89 88/88/88
f 89/89/89 90/90/90 88/88/88
f 86/86/86 91/91/91 87/87/87
f 88/88/88 91/91/91 86/86/86
f 88/88/88 92/92/92 91/91/91
f 92/92/92 93/93/93 91/91/91
f 91/91/91 94/94/94 87/87/87
f 91/91/91 95/95/95 94/94/94
f 95/95/95 96/96/96 94/94/94
f 99/99/99 98/98/98 97/97/97
f 98/98/98 100/100/100 97/97/97
f 97/97/97 100/100/100 101/101/101
f 98/98/98 102/102/102 100/100/100
f 100/100/100 103/103/103 101/101/101
f 101/101/101 103/103/103 104/104/104
f 102/102/102 105/105/105 100/100/100
f 100/100/100 105/105/105 103/103/103
f 102/102/102 106/106/106 105/105/105
f 106/106/106 107/107/107 105/105/105
f 105/105/105 107/107/107 108/108/108
f 105/105/105 108/108/108 103/103/103
f 107/107/107 109/109/109 108/108/108
f 103/103/103 110/110/110 104/104/104
f 103/103/103 108/108/108 110/110/110
f 104/104/104 110/110/110 111/111/111
f 110/110/110 112/112/112 111/111/111
f 108/108/108 109/109/109 113/113/113
f 108/108/108 113/113/113 110/110/110
f 110/110/110 113/113/113 112/112/112
f 109/109/109 114/114/114 113/113/113
f 113/113/113 115/115/115 112/112/112
f 113/113/113 114/114/114 115/115/115
f 114/114/114 116/116/116 115/115/115
f 119/119/119 118/118/118 117/117/117
f 118/118/118 120/120/120 117/117/117
f 117/117/117 120/120/120 121/121/121
f 120/120/120 122/122/122 121/121/121
f 118/118/118 123/123/123 120/120/120
f 123/123/123 124/124/124 120/120/120
f 123/123/123 125/125/125 124/124/124
f 125/125/125 126/126/126 124/124/124
f 124/124/124 126/126/126 127/127/127
f 126/126/126 128/128/128 127/127/127
f 131/131/131 130/130/130 129/129/129
f 130/130/130 132/132/132 129/129/129
f 130/130/130 133/133/133 132/132/132
f 133/133/133 134/134/134 132/132/132
f 133/133/133 135/135/135 134/134/134
f 135/135/135 136/136/136 134/134/134
f 132/132/132 134/134/134 137/137/137
f 134/134/134 138/138/138 137/137/137
f 129/129/129 132/132/132 139/139/139
f 132/132/132 137/137/137 139/139/139
f 139/139/139 140/140/140 129/129/129
f 140/140/140 141/141/141 129/129/129
f 139/139/139 137/137/137 142/142/142
f 137/137/137 143/143/143 142/142/142
f 137/137/137 138/138/138 143/143/143
f 138/138/138 144/144/144 143/143/143
f 138/138/138 145/145/145 144/144/144
f 145/145/145 146/146/146 144/144/144
f 149/149/149 148/148/148 147/147/147
f 148/148/148 150/150/150 147/147/147
f 147/147/147 150/150/150 151/151/151
f 150/150/150 152/152/152 151/151/151
f 155/155/155 154/154/154 153/153/153
f 154/154/154 156/156/156 153/153/153
f 153/153/153 156/156/156 157/157/157
f 156/156/156 158/158/158 157/157/157
f 161/161/161 160/160/160 159/159/159
f 160/160/160 162/162/162 159/159/159
f 159/159/159 162/162/162 163/163/163
f 162/162/162 164/164/164 163/163/163
f 167/167/167 166/166/166 165/165/165
f 166/166/166 168/168/168 165/165/165
f 165/165/165 168/168/168 169/169/169
f 168/168/168 170/170/170 169/169/169
f 173/173/173 172/172/172 171/171/171
f 174/174/174 173/173/173 171/171/171
f 177/177/177 176/176/176 175/175/175
f 178/178/178 177/177/177 175/175/175
f 181/181/181 180/180/180 179/179/179
f 182/182/182 181/181/181 179/179/179
f 185/185/185 184/184/184 183/183/183
f 186/186/186 185/185/185 183/183/183
f 189/189/189 188/188/188 187/187/187
f 190/190/190 189/189/189 187/187/187
f 193/193/193 192/192/192 191/191/191
f 194/194/194 193/193/193 191/191/191
f 197/197/197 196/196/196 195/195/195
f 198/198/198 197/197/197 195/195/195
f 201/201/201 200/200/200 199/199/199
f 202/202/202 201/201/201 199/199/199
f 205/205/205 204/204/204 203/203/203
f 206/206/206 205/205/205 203/203/203
f 209/209/209 208/208/208 207/207/207
f 210/210/210 209/209/209 207/207/207
f 213/213/213 212/212/212 211/211/211
f 214/214/214 213/213/213 211/211/211
f 217/217/217 216/216/216 215/215/215
f 218/218/218 217/217/217 215/215/215
f 221/221/221 220/220/220 219/219/219
f 222/222/222 221/221/221 219/219/219
f 225/225/225 224/224/224 223/223/223
f 226/226/226 225/225/225 223/223/223
f 223/223/223 224/224/224 227/227/227
f 228/228/228 225/225/225 226/226/226
f 224/224/224 229/229/229 227/227/227
f 230/230/230 228/228/228 226/226/226
f 227/227/227 229/229/229 231/231/231
f 232/232/232 228/228/228 230/230/230
f 229/229/229 233/233/233 231/231/231
f 234/234/234 232/232/232 230/230/230
f 231/231/231 233/233/233 235/235/235
f 236/236/236 232/232/232 234/234/234
f 233/233/233 237/237/237 235/235/235
f 238/238/238 236/236/236 234/234/234
f 235/235/235 237/237/237 238/238/238
f 237/237/237 236/236/236 238/238/238
f 241/241/241 240/240/240 239/239/239
f 242/242/242 241/241/241 239/239/239
f 243/243/243 241/241/241 242/242/242
f 239/239/239 240/240/240 244/244/244
f 239/239/239 244/244/244 242/242/242
f 240/240/240 245/245/245 244/244/244
f 245/245/245 243/243/243 246/246/246
f 246/246/246 243/243/243 242/242/242
f 244/244/244 246/246/246 242/242/242
f 244/244/244 245/245/245 246/246/246
