g BankSign
v 0.196001 0.309551 -0.093832
v 0.236375 0.279946 -0.094703
v 0.271204 0.247572 -0.094087
v 0.271205 0.247572 0.096628
v 0.236375 0.279946 0.097244
v 0.196001 0.309551 0.096373
v 0.360933 0.043738 0.097244
v 0.363263 0.003207 0.097244
v 0.360713 -0.043558 0.096877
v 0.353913 0.087543 0.096793
v 0.3515 -0.089301 0.097147
v 0.323498 0.172026 0.09648
v 0.201375 -0.093762 0.098356
v 0.337392 -0.133159 0.096604
v 0.291884 -0.213735 0.096405
v 0.225521 -0.281041 0.096386
v 0.271205 0.247572 0.096628
v 0.140077 -0.330391 0.096385
v 0.170892 -0.142403 0.096338
v 0.124728 -0.18661 0.096482
v 0.037581 -0.357067 0.09646
v 0.096104 -0.203191 0.096461
v 0.017098 -0.225975 0.096397
v -0.306585 -0.356117 0.093379
v -0.178896 -0.241966 0.103156
v -0.179362 0.246155 0.103298
v -0.282197 0.364042 0.097243
v -0.306559 0.360311 0.09342
v 0.04305 0.361083 0.096252
v 0.196001 0.309551 0.096373
v 0.236375 0.279946 0.097244
v 0.081058 0.213325 0.095702
v 0.135288 0.184372 0.096088
v 0.1927 0.117414 0.096131
v 0.212844 0.063407 0.096459
v 0.219415 0.003149 0.096244
v 0.219415 0.003149 -0.093703
v 0.19938 -0.093001 -0.093695
v 0.212843 0.063408 -0.093913
v 0.170892 -0.142403 0.096338
v 0.212844 0.063407 0.096459
v 0.170892 -0.142402 -0.093792
v 0.194748 0.118619 -0.095939
v 0.124728 -0.18661 0.096482
v 0.1927 0.117414 0.096131
v 0.124728 -0.18661 -0.093941
v 0.135288 0.184372 -0.093547
v 0.096104 -0.203191 0.096461
v 0.135288 0.184372 0.096088
v 0.096104 -0.203191 -0.093919
v 0.017098 -0.225975 0.096397
v 0.017098 -0.225975 -0.093851
v -0.178896 -0.241966 0.103156
v -0.178896 -0.241966 -0.100615
v 0.081262 0.214026 -0.093972
v 0.081058 0.213325 0.095702
v -0.179362 0.246155 0.103298
v -0.038115 0.23566 -0.096078
v -0.179424 0.246222 -0.100797
v 0.037581 -0.357067 0.09646
v -0.306585 -0.356117 -0.090838
v -0.306585 -0.356117 0.093379
v 0.037581 -0.357067 -0.093918
v 0.140077 -0.330391 0.096385
v 0.140077 -0.330391 -0.093844
v 0.225521 -0.281041 0.096386
v 0.225522 -0.281041 -0.09384
v 0.291884 -0.213735 0.096405
v 0.291884 -0.213734 -0.093864
v 0.337392 -0.133159 0.096604
v 0.337505 -0.133205 -0.093933
v 0.360833 -0.04357 -0.09421
v 0.3515 -0.089301 0.097147
v 0.360713 -0.043558 0.096877
v 0.363262 0.003207 -0.094703
v 0.363263 0.003207 0.097244
v 0.360933 0.043738 -0.094703
v 0.360933 0.043738 0.097244
v 0.353798 0.08752 -0.094374
v 0.353913 0.087543 0.096793
v 0.340825 0.13052 -0.094614
v 0.323498 0.172026 0.09648
v 0.323395 0.171973 -0.094063
v 0.271205 0.247572 0.096628
v 0.271204 0.247572 -0.094087
v 0.196001 0.309551 -0.093832
v 0.196001 0.309551 0.096373
v 0.04305 0.361083 0.096252
v 0.04305 0.361082 -0.093708
v -0.306579 0.360331 -0.090839
v -0.306559 0.360311 0.09342
v -0.282197 0.364042 0.097243
v -0.179362 0.246155 0.103298
v -0.179424 0.246222 -0.100797
v -0.178896 -0.241966 -0.100615
v -0.178896 -0.241966 0.103156
v -0.306585 -0.356117 0.093379
v -0.306585 -0.356117 -0.090838
v -0.306579 0.360331 -0.090839
v -0.306559 0.360311 0.09342
v 0.360833 -0.04357 -0.09421
v 0.363262 0.003207 -0.094703
v 0.360933 0.043738 -0.094703
v 0.353798 0.08752 -0.094374
v 0.337505 -0.133205 -0.093933
v 0.340825 0.13052 -0.094614
v 0.194748 0.118619 -0.095939
v 0.323395 0.171973 -0.094063
v 0.271204 0.247572 -0.094087
v 0.236375 0.279946 -0.094703
v 0.212843 0.063408 -0.093913
v 0.291884 -0.213734 -0.093864
v 0.219415 0.003149 -0.093703
v 0.225522 -0.281041 -0.09384
v 0.19938 -0.093001 -0.093695
v 0.135288 0.184372 -0.093547
v 0.081262 0.214026 -0.093972
v 0.140077 -0.330391 -0.093844
v 0.170892 -0.142402 -0.093792
v 0.124728 -0.18661 -0.093941
v -0.038115 0.23566 -0.096078
v 0.037581 -0.357067 -0.093918
v 0.096104 -0.203191 -0.093919
v 0.017098 -0.225975 -0.093851
v -0.306585 -0.356117 -0.090838
v -0.178896 -0.241966 -0.100615
v 0.196001 0.309551 -0.093832
v 0.04305 0.361082 -0.093708
v -0.306579 0.360331 -0.090839
v -0.179424 0.246222 -0.100797
v 0.027172 0.059761 -0.090854
v -0.440406 0.059761 -0.090854
v -0.440406 -0.072489 -0.090854
v 0.027172 -0.072489 -0.090854
v -0.440406 0.059761 0.108806
v -0.440406 0.059761 -0.090854
v 0.027172 0.059761 -0.090854
v 0.027172 0.059761 0.108806
v 0.027172 -0.072489 0.108806
v 0.027172 -0.072489 -0.090854
v -0.440406 -0.072489 -0.090854
v -0.440406 -0.072489 0.108806
v -0.440406 0.059761 0.108806
v 0.027172 0.059761 0.108806
v 0.027172 -0.072489 0.108806
v -0.440406 -0.072489 0.108806
v -0.444255 -0.052111 0.112655
v -0.444255 -0.052111 0.112655
v -0.440406 -0.072489 0.108806
v -0.440406 -0.072489 -0.090854
v -0.440406 0.059761 -0.090854
v -0.440406 0.059761 0.108806
v 0.027172 -0.072489 -0.090854
v 0.027172 -0.072489 0.108806
v 0.027172 0.059761 0.108806
v 0.027172 0.059761 -0.090854
vn 0.1627965 0.1935508 0.9674893
vn 0.1627966 0.1935508 0.9674893
vn 0.1627966 0.1935508 0.9674893
vn 0.1628139 0.1935744 -0.9674816
vn 0.1628139 0.1935744 -0.9674816
vn 0.1628139 0.1935744 -0.9674816
vn -0.08835357 -0.003964955 0.9960813
vn -0.06988802 -0.004017652 0.9975467
vn 0.01720578 0.001515122 0.9998509
vn -0.007059537 0.001837243 0.9999734
vn 0.008461558 -0.004271168 0.9999551
vn 0.006825739 0.003334329 0.9999712
vn -0.6104944 0.2322029 0.7572176
vn 0.009390903 -0.01204349 0.9998834
vn 0.009694382 -0.008947038 0.999913
vn 0.00675959 -0.009646821 0.9999306
vn 0.009769539 -0.001794476 0.9999506
vn -0.0004500984 -0.002605061 0.9999965
vn -0.07212444 0.01207202 0.9973226
vn 0.002244303 -0.0002444326 0.9999975
vn -0.004327348 -0.000545635 0.9999905
vn -0.0009284714 0.0003466334 0.9999995
vn 4.701197E-05 -0.01250391 0.9999218
vn -0.03306818 -0.03085296 0.9989768
vn -0.01307965 -0.0707966 0.997405
vn -0.02878201 0.01908437 0.9994035
vn -0.08700546 0.01459979 0.9961008
vn -0.1550201 -5.090758E-05 0.9879113
vn 0.01055533 0.04082644 0.9991105
vn 0.01113097 0.04321957 0.9990036
vn 0.005463176 0.0002326601 0.9999851
vn 0.01285392 -0.05307835 0.9985076
vn -0.007742404 -0.003905898 0.9999624
vn -0.01638362 -0.002444427 0.9998628
vn -0.002990137 -0.003300245 0.9999901
vn -0.8896035 0.09779064 0.4461419
vn -0.999076 0.04288925 0.002784685
vn -0.9329678 0.3599162 0.005588826
vn -0.9749791 -0.2222746 -0.003102795
vn -0.7820477 0.6232122 0.002804573
vn -0.9753036 -0.2208472 -0.00306362
vn -0.7810791 0.624426 0.002772334
vn -0.8628258 -0.5054631 -0.006218313
vn -0.600665 0.7995008 0
vn -0.8632749 -0.5046957 -0.006218269
vn -0.6006635 0.799502 0
vn -0.623834 -0.7815462 -0.004073676
vn -0.3921396 0.9199057 0
vn -0.6232538 -0.7820091 -0.004064726
vn -0.3921424 0.9199045 0
vn -0.1790591 0.9838383 0
vn -0.1790598 0.9838382 0
vn -0.08131897 0.9966882 0
vn -0.08131897 0.9966882 0
vn -0.3149284 -0.9489487 -0.0177886
vn -0.3046044 -0.9524745 -0.002897752
vn -0.1153819 -0.9931853 -0.0164295
vn -0.1449112 -0.9881476 -0.05064638
vn -0.07452598 -0.9972191 -0.0003047764
vn 0.1259328 -0.9920388 0
vn -0.002760224 -0.9999962 0
vn -0.002760224 -0.9999962 0
vn 0.1259331 -0.9920387 0
vn 0.3794099 -0.9252287 0
vn 0.3794083 -0.9252293 0
vn 0.6116304 -0.7911436 0
vn 0.611631 -0.7911432 0
vn 0.7982218 -0.6023635 0.0001597601
vn 0.7981879 -0.6024085 0.0001596923
vn 0.9193274 -0.3933815 -0.009382576
vn 0.9269722 -0.3751298 0.0004798885
vn 0.9884133 -0.1517814 -0.001223508
vn 0.9654304 -0.2602233 -0.01510227
vn 0.9920264 -0.1260299 0.0003603774
vn 0.9999962 0.002747101 0.0002631799
vn 0.9999987 0.001613242 0
vn 0.9940271 0.1091332 0
vn 0.9941533 0.1079776 -0.0002613371
vn 0.9743357 0.2250993 -0.00035014
vn 0.969396 0.2454583 0.004647465
vn 0.9409358 0.3385829 0.001214421
vn 0.8874442 0.4608896 0.004849856
vn 0.8770775 0.4803488 -0.000457775
vn 0.7363525 0.676598 -0.0001537445
vn 0.7363941 0.6765527 -0.0001549998
vn 0.4858466 0.8740441 0
vn 0.4858436 0.8740458 0
vn 0.1606106 0.9870112 -0.00362866
vn 0.1611778 0.9869254 0
vn -0.002189738 0.9999976 7.266712E-05
vn -0.001506221 0.9963238 -0.08565421
vn 0.004217808 0.702091 -0.7120747
vn 0.9999995 0.001018126 -0.0001518525
vn 0.9999995 0.001018126 -0.0001518525
vn 0.9999995 0.001018126 -0.0001518525
vn 0.9999995 0.001018126 -0.0001518525
vn -1 2.235736E-05 5.427166E-05
vn -1 2.235736E-05 5.427166E-05
vn -1 2.235736E-05 5.427166E-05
vn -1 2.235736E-05 5.427166E-05
vn -0.0088056 -0.00170829 -0.9999598
vn -0.09590119 -0.005510674 -0.9953756
vn -0.08024687 -0.005536421 -0.9967596
vn 0.00567337 -0.002756505 -0.9999801
vn -0.001091351 -0.002243328 -0.9999969
vn 0.008668121 0.005245426 -0.9999487
vn -0.006271098 0.001796128 -0.9999788
vn 0.009443387 0.01238731 -0.9998786
vn 0.01666632 0.004478293 -0.9998511
vn 0.003549029 0.006808087 -0.9999706
vn -0.103845 -0.0654243 -0.9924393
vn -0.001101459 0.000131786 -0.9999994
vn -0.01614332 -0.004618479 -0.999859
vn -0.0005829007 0.0006368579 -0.9999996
vn -0.001701276 0.0003952242 -0.9999985
vn -0.01090114 -0.0005646121 -0.9999404
vn 0.008296403 -0.03060545 -0.9994972
vn 0.0008656764 -0.000186241 -0.9999996
vn 0.003979248 -0.000375678 -0.999992
vn 0.00229991 -0.0002348454 -0.9999974
vn 0.002605735 0.02869718 -0.9995847
vn -0.004340549 -0.000526231 -0.9999905
vn -0.0009765298 0.0003649112 -0.9999995
vn 2.185203E-05 -0.01248329 -0.9999222
vn -0.03347713 -0.03044482 -0.9989756
vn -0.01363585 -0.07073157 -0.9974022
vn 0.001182472 0.02663877 -0.9996444
vn 3.2204E-05 0.018872 -0.999822
vn -0.03536701 0.03219371 -0.9988557
vn -0.01488272 0.069901 -0.997443
vn 0 0 -1
vn 0 0 -1
vn 0 0 -1
vn 0 0 -1
vn 0 1 0
vn 0 1 0
vn 0 1 0
vn 0 1 0
vn 0 -1 0
vn 0 -1 0
vn 0 -1 0
vn 0 -1 0
vn 0.0214125 0 0.9997707
vn 0 0 1
vn 0 0 1
vn 0.1045702 0 0.9945175
vn 0.7071068 0 0.7071068
vn -0.9975466 -0.06989446 -0.003919889
vn -0.9826256 -0.1855985 0
vn -0.9997712 -0.01199831 -0.01770741
vn -0.9998567 0.01100759 -0.01285942
vn -0.9994086 0.03438504 0
vn 1 0 0
vn 1 0 0
vn 1 0 0
vn 1 0 0
g BankSign_0
f 3/3/3 2/2/2 1/1/1
f 6/6/6 5/5/5 4/4/4
f 9/9/9 8/8/8 7/7/7
f 7/7/7 10/10/10 9/9/9
f 10/10/10 11/11/11 9/9/9
f 10/10/10 12/12/12 11/11/11
f 12/12/12 13/13/13 11/11/11
f 14/14/14 11/11/11 13/13/13
f 13/13/13 15/15/15 14/14/14
f 13/13/13 16/16/16 15/15/15
f 12/12/12 17/17/17 13/13/13
f 13/13/13 18/18/18 16/16/16
f 13/13/13 19/19/19 18/18/18
f 19/19/19 20/20/20 18/18/18
f 20/20/20 21/21/21 18/18/18
f 20/20/20 22/22/22 21/21/21
f 22/22/22 23/23/23 21/21/21
f 23/23/23 24/24/24 21/21/21
f 23/23/23 25/25/25 24/24/24
f 24/24/24 25/25/25 26/26/26
f 26/26/26 27/27/27 24/24/24
f 27/27/27 28/28/28 24/24/24
f 29/29/29 27/27/27 26/26/26
f 30/30/30 29/29/29 26/26/26
f 26/26/26 31/31/31 30/30/30
f 31/31/31 26/26/26 32/32/32
f 31/31/31 32/32/32 33/33/33
f 31/31/31 33/33/33 34/34/34
f 31/31/31 34/34/34 35/35/35
f 35/35/35 36/36/36 31/31/31
f 17/17/17 31/31/31 36/36/36
f 17/17/17 36/36/36 13/13/13
f 36/36/36 37/37/37 13/13/13
f 37/37/37 38/38/38 13/13/13
f 39/39/39 37/37/37 36/36/36
f 13/13/13 38/38/38 40/40/40
f 41/41/41 39/39/39 36/36/36
f 38/38/38 42/42/42 40/40/40
f 43/43/43 39/39/39 41/41/41
f 40/40/40 42/42/42 44/44/44
f 45/45/45 43/43/43 41/41/41
f 42/42/42 46/46/46 44/44/44
f 47/47/47 43/43/43 45/45/45
f 44/44/44 46/46/46 48/48/48
f 49/49/49 47/47/47 45/45/45
f 46/46/46 50/50/50 48/48/48
f 48/48/48 50/50/50 51/51/51
f 50/50/50 52/52/52 51/51/51
f 51/51/51 52/52/52 53/53/53
f 52/52/52 54/54/54 53/53/53
f 55/55/55 47/47/47 49/49/49
f 56/56/56 55/55/55 49/49/49
f 55/55/55 56/56/56 57/57/57
f 58/58/58 55/55/55 57/57/57
f 57/57/57 59/59/59 58/58/58
f 62/62/62 61/61/61 60/60/60
f 61/61/61 63/63/63 60/60/60
f 60/60/60 63/63/63 64/64/64
f 63/63/63 65/65/65 64/64/64
f 64/64/64 65/65/65 66/66/66
f 65/65/65 67/67/67 66/66/66
f 66/66/66 67/67/67 68/68/68
f 67/67/67 69/69/69 68/68/68
f 68/68/68 69/69/69 70/70/70
f 69/69/69 71/71/71 70/70/70
f 70/70/70 71/71/71 72/72/72
f 72/72/72 73/73/73 70/70/70
f 72/72/72 74/74/74 73/73/73
f 74/74/74 72/72/72 75/75/75
f 75/75/75 76/76/76 74/74/74
f 75/75/75 77/77/77 76/76/76
f 77/77/77 78/78/78 76/76/76
f 77/77/77 79/79/79 78/78/78
f 79/79/79 80/80/80 78/78/78
f 80/80/80 79/79/79 81/81/81
f 81/81/81 82/82/82 80/80/80
f 81/81/81 83/83/83 82/82/82
f 82/82/82 83/83/83 84/84/84
f 83/83/83 85/85/85 84/84/84
f 86/86/86 84/84/84 85/85/85
f 86/86/86 87/87/87 84/84/84
f 87/87/87 86/86/86 88/88/88
f 86/86/86 89/89/89 88/88/88
f 88/88/88 89/89/89 90/90/90
f 90/90/90 91/91/91 88/88/88
f 91/91/91 92/92/92 88/88/88
f 95/95/95 94/94/94 93/93/93
f 96/96/96 95/95/95 93/93/93
f 99/99/99 98/98/98 97/97/97
f 100/100/100 99/99/99 97/97/97
f 103/103/103 102/102/102 101/101/101
f 101/101/101 104/104/104 103/103/103
f 101/101/101 105/105/105 104/104/104
f 105/105/105 106/106/106 104/104/104
f 105/105/105 107/107/107 106/106/106
f 108/108/108 106/106/106 107/107/107
f 107/107/107 109/109/109 108/108/108
f 107/107/107 110/110/110 109/109/109
f 105/105/105 111/111/111 107/107/107
f 105/105/105 112/112/112 111/111/111
f 112/112/112 113/113/113 111/111/111
f 112/112/112 114/114/114 113/113/113
f 115/115/115 113/113/113 114/114/114
f 107/107/107 116/116/116 110/110/110
f 116/116/116 117/117/117 110/110/110
f 114/114/114 118/118/118 115/115/115
f 118/118/118 119/119/119 115/115/115
f 118/118/118 120/120/120 119/119/119
f 117/117/117 121/121/121 110/110/110
f 118/118/118 122/122/122 120/120/120
f 122/122/122 123/123/123 120/120/120
f 122/122/122 124/124/124 123/123/123
f 122/122/122 125/125/125 124/124/124
f 125/125/125 126/126/126 124/124/124
f 127/127/127 110/110/110 121/121/121
f 121/121/121 128/128/128 127/127/127
f 125/125/125 129/129/129 126/126/126
f 121/121/121 129/129/129 128/128/128
f 129/129/129 130/130/130 126/126/126
f 121/121/121 130/130/130 129/129/129
f 133/133/133 132/132/132 131/131/131
f 134/134/134 133/133/133 131/131/131
f 137/137/137 136/136/136 135/135/135
f 138/138/138 137/137/137 135/135/135
f 141/141/141 140/140/140 139/139/139
f 142/142/142 141/141/141 139/139/139
f 145/145/145 144/144/144 143/143/143
f 143/143/143 146/146/146 145/145/145
f 143/143/143 147/147/147 146/146/146
f 150/150/150 149/149/149 148/148/148
f 148/148/148 151/151/151 150/150/150
f 148/148/148 152/152/152 151/151/151
f 155/155/155 154/154/154 153/153/153
f 156/156/156 155/155/155 153/153/153
