g BankInside
v -3.042133 -2.545934 0.262135
v -3.042133 -2.545934 4.689392
v -3.042133 2.545934 4.689392
v -3.042133 2.545934 0.262135
v 3.042133 2.545934 0.262135
v 3.042133 2.545934 4.689392
v 3.042133 -2.545934 4.689392
v 3.042133 -2.545934 0.262135
v 3.042133 -2.545934 0.262135
v 3.042133 -2.545934 4.689392
v -3.042133 -2.545934 4.689392
v -3.042133 -2.545934 0.262135
v -3.042133 2.545934 0.262135
v 3.042133 2.545934 0.262135
v 3.042133 -2.545934 0.262135
v -3.042133 -2.545934 0.262135
v 3.042133 2.545934 4.689392
v -3.042133 2.545934 4.689392
v -3.042133 -2.545934 4.689392
v 3.042133 -2.545934 4.689392
vt 1 0
vt 1 1
vt 0 1
vt 0 0
vt 1 0
vt 1 1
vt 0 1
vt 0 0
vt 1 0
vt 1 1
vt 0 1
vt 0 0
vt 9.1E-05 9.1E-05
vt 0.999908 9.1E-05
vt 0.999909 0.836829
vt 9.1E-05 0.836829
vt 1 0
vt 1 1
vt 0 1
vt 0 0
vn 1 0 0
vn 1 0 0
vn 1 0 0
vn 1 0 0
vn -1 0 0
vn -1 0 0
vn -1 0 0
vn -1 0 0
vn 0 1 0
vn 0 1 0
vn 0 1 0
vn 0 1 0
vn 0 0 1
vn 0 0 1
vn 0 0 1
vn 0 0 1
vn 0 0 -1
vn 0 0 -1
vn 0 0 -1
vn 0 0 -1
g BankInside_0
f 3/3/3 2/2/2 1/1/1
f 4/4/4 3/3/3 1/1/1
f 7/7/7 6/6/6 5/5/5
f 8/8/8 7/7/7 5/5/5
f 11/11/11 10/10/10 9/9/9
f 12/12/12 11/11/11 9/9/9
g BankInside_1
f 15/15/15 14/14/14 13/13/13
f 16/16/16 15/15/15 13/13/13
g BankInside_2
f 19/19/19 18/18/18 17/17/17
f 20/20/20 19/19/19 17/17/17
