g BarnDoor
v 0.904088 0.167157 0
v 0.904088 0.167157 2.907851
v -0.911614 0.167157 2.907851
v -0.911614 0.167157 0
v 0.904088 0.053713 0
v -0.911614 0.053713 0
v -0.911614 0.053713 2.907851
v 0.904088 0.053713 2.907851
v -0.911614 0.167157 2.907851
v -0.911614 0.053713 2.907851
v -0.911614 0.053713 0
v -0.911614 0.167157 0
v 0.904088 0.167157 2.907851
v 0.904088 0.053713 2.907851
v -0.911614 0.053713 2.907851
v -0.911614 0.167157 2.907851
v 0.904088 0.167157 0
v 0.904088 0.053713 0
v 0.904088 0.053713 2.907851
v 0.904088 0.167157 2.907851
v -0.911614 0.167157 0
v -0.911614 0.053713 0
v 0.904088 0.053713 0
v 0.904088 0.167157 0
v -0.902167 0.053713 0
v -0.902167 -0.004875 0
v -0.711404 -0.004875 0
v -0.711404 0.053713 0
v 0.598027 0.074588 1.311726
v 0.642951 0.074588 1.35665
v 0.598027 0.190954 1.35665
v 0.629793 0.054852 1.311726
v 0.629793 -0.001059 1.311726
v 0.642951 0.018678 1.35665
v 0.598027 0.018678 1.311726
v 0.598027 -0.065395 1.248942
v 0.566261 0.054852 1.311726
v 0.598027 0.190954 1.35665
v 0.553103 0.074588 1.35665
v 0.566261 -0.001059 1.311726
v 0.629793 -0.001059 1.401574
v 0.629793 0.054852 1.401574
v 0.598027 0.190954 1.35665
v 0.598027 0.074588 1.401574
v 0.598027 0.190954 1.35665
v 0.598027 0.018678 1.401574
v 0.598027 -0.065395 1.464357
v 0.674188 -0.065395 1.432811
v 0.566261 -0.001059 1.401574
v 0.566261 0.054852 1.401574
v 0.553103 0.018678 1.35665
v 0.705735 -0.065395 1.35665
v 0.521866 -0.065395 1.280489
v 0.49032 -0.065395 1.35665
v 0.651881 -0.146176 1.432811
v 0.674188 -0.065395 1.280489
v 0.674188 -0.179636 1.35665
v 0.521866 -0.065395 1.432811
v 0.544173 -0.146176 1.280489
v 0.598027 -0.179636 1.432811
v 0.651881 -0.146176 1.280489
v 0.521866 -0.179636 1.35665
v 0.544173 -0.146176 1.432811
v 0.598027 -0.226957 1.35665
v 0.598027 -0.179636 1.280489
v -0.711404 0.053713 0
v 0.901815 0.053713 2.907851
v 0.711051 0.053713 2.907851
v -0.902167 0.053713 0
v -0.711404 -0.004875 0
v -0.902167 -0.004875 0
v 0.711051 -0.004875 2.907851
v 0.901815 -0.004875 2.907851
v -0.711404 0.053713 0
v -0.711404 -0.004875 0
v 0.901815 -0.004875 2.907851
v 0.901815 0.053713 2.907851
v 0.901815 0.053713 2.907851
v 0.901815 -0.004875 2.907851
v 0.711051 -0.004875 2.907851
v 0.711051 0.053713 2.907851
v 0.711051 0.053713 2.907851
v 0.711051 -0.004875 2.907851
v -0.902167 -0.004875 0
v -0.902167 0.053713 0
v 0.711051 -0.004875 0
v -0.902167 -0.004875 2.907851
v -0.711404 -0.004875 2.907851
v 0.901815 -0.004875 0
v 0.711051 0.053713 0
v -0.902167 0.053713 2.907851
v -0.902167 -0.004875 2.907851
v 0.711051 -0.004875 0
v -0.902167 0.053713 2.907851
v -0.711404 0.053713 2.907851
v -0.711404 -0.004875 2.907851
v -0.902167 -0.004875 2.907851
v -0.711404 0.053713 2.907851
v 0.901815 0.053713 0
v 0.901815 -0.004875 0
v -0.711404 -0.004875 2.907851
v 0.901815 0.053713 0
v 0.711051 0.053713 0
v 0.711051 -0.004875 0
v 0.901815 -0.004875 0
vt 7.9E-05 7.9E-05
vt 7.9E-05 0.999921
vt 0.624394 0.999921
vt 0.624394 7.9E-05
vt 0.624394 7.9E-05
vt 7.9E-05 7.9E-05
vt 7.9E-05 0.999921
vt 0.624394 0.999921
vt 1.6E-05 0.999984
vt 0.027188 0.999984
vt 0.020596 0.279984
vt 0.004717 0.279994
vt 0 0
vt 0 0
vt 0 0
vt 0 0
vt 0.011787 1.6E-05
vt 0.011665 1.8E-05
vt 0.007287 0.288986
vt 0.018287 0.289078
vt 0 0
vt 0 0
vt 0 0
vt 0 0
vt 7.9E-05 7.9E-05
vt 7.9E-05 7.9E-05
vt 0.624394 7.9E-05
vt 0.624394 7.9E-05
vt 0 0
vt 0 0
vt 0 0
vt 0 0
vt 0 0
vt 0 0
vt 0 0
vt 0 0
vt 0 0
vt 0 0
vt 0 0
vt 0 0
vt 0 0
vt 0 0
vt 0 0
vt 0 0
vt 0 0
vt 0 0
vt 0 0
vt 0 0
vt 0 0
vt 0 0
vt 0 0
vt 0 0
vt 0 0
vt 0 0
vt 0 0
vt 0 0
vt 0 0
vt 0 0
vt 0 0
vt 0 0
vt 0 0
vt 0 0
vt 0 0
vt 0 0
vt 0 0
vt 0.624394 7.9E-05
vt 0.624394 0.999921
vt 7.9E-05 0.999921
vt 7.9E-05 7.9E-05
vt 0.624394 7.9E-05
vt 7.9E-05 7.9E-05
vt 7.9E-05 0.999921
vt 0.624394 0.999921
vt 0.624394 7.9E-05
vt 0.624394 7.9E-05
vt 0.624394 0.999921
vt 0.624394 0.999921
vt 0.624394 0.999921
vt 0.624394 0.999921
vt 7.9E-05 0.999921
vt 7.9E-05 0.999921
vt 7.9E-05 0.999921
vt 7.9E-05 0.999921
vt 7.9E-05 7.9E-05
vt 7.9E-05 7.9E-05
vt 0.624394 7.9E-05
vt 0.624394 0.999921
vt 7.9E-05 0.999921
vt 7.9E-05 7.9E-05
vt 0.624394 7.9E-05
vt 0.624394 0.999921
vt 0.624394 0.999921
vt 0.624394 7.9E-05
vt 0.624394 0.999921
vt 7.9E-05 0.999921
vt 7.9E-05 0.999921
vt 0.624394 0.999921
vt 7.9E-05 0.999921
vt 7.9E-05 7.9E-05
vt 7.9E-05 7.9E-05
vt 7.9E-05 0.999921
vt 7.9E-05 7.9E-05
vt 0.624394 7.9E-05
vt 0.624394 7.9E-05
vt 7.9E-05 7.9E-05
vn 0 1 0
vn 0 1 0
vn 0 1 0
vn 0 1 0
vn 0 -1 0
vn 0 -1 0
vn 0 -1 0
vn 0 -1 0
vn -1 0 0
vn -1 0 0
vn -1 0 0
vn -1 0 0
vn 0 0 1
vn 0 0 1
vn 0 0 1
vn 0 0 1
vn 1 0 0
vn 1 0 0
vn 1 0 0
vn 1 0 0
vn 0 0 -1
vn 0 0 -1
vn 0 0 -1
vn 0 0 -1
vn 0 0 -1
vn 0 0 -1
vn 0 0 -1
vn 0 0 -1
vn 0 0.4021914 -0.9155556
vn 0.9378168 0.3471304 0
vn 0.6568857 0.3701385 -0.6568857
vn 0.6843077 0.1908339 -0.7037793
vn 0.6567719 0.5134628 -0.552274
vn 0.9090109 0.4167724 0
vn 0 0.2090127 -0.977913
vn 0 0.1854606 -0.9826517
vn -0.6843082 0.1908338 -0.7037789
vn -0.6568861 0.3701384 -0.6568853
vn -0.9378169 0.3471302 0
vn -0.6567749 0.5134612 -0.552272
vn 0.6567714 0.5134619 0.5522754
vn 0.6843077 0.1908339 0.7037793
vn 0.6568857 0.3701385 0.6568857
vn 0 0.4021914 0.9155556
vn -0.6568861 0.3701384 0.6568853
vn 0 0.2090093 0.9779137
vn 0 0.185461 0.9826517
vn 0.8076691 0.1328045 0.5744856
vn -0.6567744 0.5134603 0.5522733
vn -0.6843082 0.1908339 0.7037789
vn -0.9090128 0.4167682 0
vn 0.9942398 0.1071782 0
vn -0.8076725 0.1328053 -0.5744805
vn -0.9942397 0.1071792 0
vn 0.6783634 -0.4347026 0.5923315
vn 0.8076698 0.1328049 -0.5744843
vn 0.80874 -0.5881664 0
vn -0.8076717 0.1328049 0.5744817
vn -0.6783663 -0.4347021 -0.5923285
vn 0 -0.7491657 0.6623826
vn 0.678364 -0.4347033 -0.5923305
vn -0.8087411 -0.5881647 0
vn -0.6783659 -0.4347015 0.5923297
vn 0 -1 0
vn 0 -0.7491665 -0.6623818
vn 0 1 0
vn 0 1 0
vn 0 1 0
vn 0 1 0
vn 0 -1 0
vn 0 -1 0
vn 0 -1 0
vn 0 -1 0
vn 0.8744448 0 -0.4851249
vn 0.8744448 0 -0.4851249
vn 0.8744448 0 -0.4851249
vn 0.8744448 0 -0.4851249
vn 0 0 1
vn 0 0 1
vn 0 0 1
vn 0 0 1
vn -0.874445 0 0.4851248
vn -0.874445 0 0.4851248
vn -0.874445 0 0.4851248
vn -0.874445 0 0.4851248
vn 0 -1 0
vn 0 -1 0
vn 0 -1 0
vn 0 -1 0
vn -0.874445 0 -0.4851248
vn -0.874445 0 -0.4851248
vn -0.874445 0 -0.4851248
vn -0.874445 0 -0.4851248
vn 0 0 1
vn 0 0 1
vn 0 0 1
vn 0 0 1
vn 0.8744448 0 0.4851249
vn 0.8744448 0 0.4851249
vn 0.8744448 0 0.4851249
vn 0.8744448 0 0.4851249
vn 0 0 -1
vn 0 0 -1
vn 0 0 -1
vn 0 0 -1
g BarnDoor_0
f 3/3/3 2/2/2 1/1/1
f 4/4/4 3/3/3 1/1/1
f 7/7/7 6/6/6 5/5/5
f 8/8/8 7/7/7 5/5/5
f 11/11/11 10/10/10 9/9/9
f 12/12/12 11/11/11 9/9/9
f 15/15/15 14/14/14 13/13/13
f 16/16/16 15/15/15 13/13/13
f 19/19/19 18/18/18 17/17/17
f 20/20/20 19/19/19 17/17/17
f 23/23/23 22/22/22 21/21/21
f 24/24/24 23/23/23 21/21/21
f 27/27/27 26/26/26 25/25/25
f 28/28/28 27/27/27 25/25/25
g BarnDoor_1
f 31/31/31 30/30/30 29/29/29
f 30/30/30 32/32/32 29/29/29
f 29/29/29 32/32/32 33/33/33
f 32/32/32 30/30/30 34/34/34
f 33/33/33 32/32/32 34/34/34
f 35/35/35 29/29/29 33/33/33
f 35/35/35 33/33/33 36/36/36
f 37/37/37 29/29/29 35/35/35
f 38/38/38 29/29/29 37/37/37
f 39/39/39 38/38/38 37/37/37
f 40/40/40 37/37/37 35/35/35
f 40/40/40 35/35/35 36/36/36
f 39/39/39 37/37/37 40/40/40
f 34/34/34 30/30/30 41/41/41
f 30/30/30 42/42/42 41/41/41
f 42/42/42 30/30/30 43/43/43
f 44/44/44 42/42/42 43/43/43
f 44/44/44 45/45/45 39/39/39
f 41/41/41 42/42/42 46/46/46
f 42/42/42 44/44/44 46/46/46
f 47/47/47 41/41/41 46/46/46
f 41/41/41 48/48/48 34/34/34
f 47/47/47 48/48/48 41/41/41
f 46/46/46 44/44/44 49/49/49
f 47/47/47 46/46/46 49/49/49
f 50/50/50 44/44/44 39/39/39
f 44/44/44 50/50/50 49/49/49
f 50/50/50 39/39/39 51/51/51
f 51/51/51 39/39/39 40/40/40
f 49/49/49 50/50/50 51/51/51
f 48/48/48 52/52/52 34/34/34
f 34/34/34 52/52/52 33/33/33
f 51/51/51 40/40/40 53/53/53
f 53/53/53 40/40/40 36/36/36
f 49/49/49 51/51/51 54/54/54
f 54/54/54 51/51/51 53/53/53
f 47/47/47 55/55/55 48/48/48
f 48/48/48 55/55/55 52/52/52
f 52/52/52 56/56/56 33/33/33
f 33/33/33 56/56/56 36/36/36
f 55/55/55 57/57/57 52/52/52
f 52/52/52 57/57/57 56/56/56
f 58/58/58 49/49/49 54/54/54
f 47/47/47 49/49/49 58/58/58
f 54/54/54 53/53/53 59/59/59
f 59/59/59 53/53/53 36/36/36
f 47/47/47 60/60/60 55/55/55
f 55/55/55 60/60/60 57/57/57
f 57/57/57 61/61/61 56/56/56
f 56/56/56 61/61/61 36/36/36
f 58/58/58 54/54/54 62/62/62
f 62/62/62 54/54/54 59/59/59
f 47/47/47 58/58/58 63/63/63
f 47/47/47 63/63/63 60/60/60
f 63/63/63 58/58/58 62/62/62
f 60/60/60 64/64/64 57/57/57
f 60/60/60 63/63/63 64/64/64
f 57/57/57 64/64/64 61/61/61
f 63/63/63 62/62/62 64/64/64
f 61/61/61 65/65/65 36/36/36
f 65/65/65 59/59/59 36/36/36
f 64/64/64 65/65/65 61/61/61
f 62/62/62 59/59/59 65/65/65
f 64/64/64 62/62/62 65/65/65
g BarnDoor_2
f 68/68/68 67/67/67 66/66/66
f 69/69/69 68/68/68 66/66/66
f 72/72/72 71/71/71 70/70/70
f 73/73/73 72/72/72 70/70/70
f 76/76/76 75/75/75 74/74/74
f 77/77/77 76/76/76 74/74/74
f 80/80/80 79/79/79 78/78/78
f 81/81/81 80/80/80 78/78/78
f 84/84/84 83/83/83 82/82/82
f 85/85/85 84/84/84 82/82/82
f 88/88/88 87/87/87 86/86/86
f 89/89/89 88/88/88 86/86/86
f 92/92/92 91/91/91 90/90/90
f 93/93/93 92/92/92 90/90/90
f 96/96/96 95/95/95 94/94/94
f 97/97/97 96/96/96 94/94/94
f 100/100/100 99/99/99 98/98/98
f 101/101/101 100/100/100 98/98/98
f 104/104/104 103/103/103 102/102/102
f 105/105/105 104/104/104 102/102/102
