g BaseTent
v -4 -4 0
v 4 -4 0
v 4 4 0
v -4 4 0
v 2.550491 -2.550491 4.46313
v 0.197038 -0.197038 5.662597
v 0.197038 0.197038 5.662597
v 2.550491 2.890055 4.46313
v 4 -4 0
v 4 4 0.821117
v 4 4 0
v 4 -4 0.821117
v 3.538477 3.588839 3.263663
v 3.538478 -3.538478 3.263663
v 2.550491 2.890055 4.46313
v 2.550491 -2.550491 4.46313
v -4 4 0
v -4 -4 0.821117
v -4 -4 0
v -4 4 0.821117
v -3.538477 -3.538477 3.263663
v -3.538478 3.588839 3.263663
v -2.550491 -2.550491 4.46313
v -2.550491 2.890055 4.46313
v -1.382243 4 0.08414
v -1.382243 3.005123 0.08414
v -1.382243 3.005123 0.620924
v -1.382243 4.005949 0.620924
v -1.213641 3.005123 3.155802
v -1.213641 3.656991 3.155802
v -0.892999 3.005123 3.966455
v -0.892999 3.513981 3.966455
v -4 -4 0
v 4 -4 0.821117
v 4 -4 0
v -4 -4 0.821117
v 3.538478 -3.538478 3.263663
v -3.538477 -3.538477 3.263663
v 2.550491 -2.550491 4.46313
v -2.550491 -2.550491 4.46313
v -0.197038 -0.197038 5.662597
v -0.197038 0.197038 5.662597
v 0.197038 0.197038 5.662597
v 0.197038 -0.197038 5.662597
v -2.550491 2.890055 4.46313
v -0.197038 0.197038 5.662597
v -0.197038 -0.197038 5.662597
v -2.550491 -2.550491 4.46313
v 2.550491 2.890055 4.46313
v 0.197038 0.197038 5.662597
v -0.197038 0.197038 5.662597
v -2.550491 2.890055 4.46313
v 0.892998 3.513981 3.966455
v -0.892999 3.513981 3.966455
v -2.550491 -2.550491 4.46313
v -0.197038 -0.197038 5.662597
v 0.197038 -0.197038 5.662597
v 2.550491 -2.550491 4.46313
v 0.892998 3.513981 3.966455
v 0.892998 3.005123 3.966455
v 1.213641 3.005123 3.155802
v 1.213641 3.656991 3.155802
v 1.382243 3.005123 0.620924
v 1.382243 4.005949 0.620924
v 1.382243 3.005123 0.08414
v 1.382243 4 0.08414
v -1.382243 4 0.08414
v -4 4 0
v 4 4 0
v 1.382243 4 0.08414
v 1.382243 4 0.08414
v 4 4 0
v 4 4 0.821117
v 1.382243 4.005949 0.620924
v 3.538477 3.588839 3.263663
v 1.213641 3.656991 3.155802
v 2.550491 2.890055 4.46313
v 0.892998 3.513981 3.966455
v -1.382243 4.005949 0.620924
v -4 4 0
v -1.382243 4 0.08414
v -4 4 0.821117
v -1.213641 3.656991 3.155802
v -3.538478 3.588839 3.263663
v -0.892999 3.513981 3.966455
v -2.550491 2.890055 4.46313
v 1.382243 4 0.08414
v 1.382243 3.005123 0.08414
v -1.382243 3.005123 0.08414
v -1.382243 4 0.08414
v -0.892999 3.513981 3.966455
v -0.892999 3.005123 3.966455
v 0.892998 3.005123 3.966455
v 0.892998 3.513981 3.966455
v 1.382243 3.005123 0.08414
v -1.382243 3.005123 0.620924
v -1.382243 3.005123 0.08414
v 1.382243 3.005123 0.620924
v -1.213641 3.005123 3.155802
v 1.213641 3.005123 3.155802
v -0.892999 3.005123 3.966455
v 0.892998 3.005123 3.966455
v -4.549625 -4.190024 0
v -4.549625 4.190024 0
v 4.549625 4.190024 0
v 4.549625 -4.190024 0
v 4.549625 -4.337726 -0.262682
v 4.67157 -4.337726 -0.262682
v 4.67157 -4.190024 -0.262682
v 4.549625 -4.190024 -0.262682
v 4.67157 4.190024 -0.262682
v -4.549625 -4.190024 -0.262682
v -4.549625 -4.337726 -0.262682
v -4.67157 -4.337726 -0.262682
v -4.67157 -4.190024 -0.262682
v 4.549625 4.190024 -0.262682
v 4.67157 4.337726 -0.262682
v 4.549625 4.337726 -0.262682
v -4.549625 4.337726 -0.262682
v -4.549625 4.190024 -0.262682
v -4.67157 4.190024 -0.262682
v -4.67157 4.337726 -0.262682
v -4.549625 -4.190024 0
v -4.549625 -4.190024 0.073557
v -4.549625 4.190024 0.073557
v -4.549625 4.190024 0
v -4.67157 -4.337726 0
v -4.67157 -4.337726 0.073557
v -4.549625 -4.337726 0.073557
v -4.549625 -4.337726 0
v 4.549625 -4.337726 0.073557
v -4.549625 -4.337726 -0.262682
v -4.67157 -4.337726 -0.262682
v 4.549625 -4.337726 0
v 4.67157 -4.337726 0.073557
v 4.549625 -4.337726 -0.262682
v 4.67157 -4.337726 0
v 4.67157 -4.337726 -0.262682
v 4.67157 -4.190024 -0.262682
v 4.67157 -4.337726 -0.262682
v 4.67157 -4.337726 0
v 4.67157 -4.190024 0
v 4.67157 -4.190024 0.073557
v 4.67157 -4.337726 0.073557
v 4.67157 4.190024 0.073557
v 4.67157 4.190024 0
v 4.67157 4.190024 -0.262682
v 4.67157 4.337726 0.073557
v 4.67157 4.337726 -0.262682
v 4.67157 4.337726 0
v -4.67157 4.190024 -0.262682
v -4.67157 4.337726 -0.262682
v -4.67157 4.337726 0
v -4.67157 4.190024 0
v -4.67157 4.190024 0.073557
v -4.67157 4.337726 0.073557
v -4.67157 -4.190024 0.073557
v -4.67157 -4.190024 0
v -4.67157 -4.190024 -0.262682
v -4.67157 -4.337726 0.073557
v -4.67157 -4.337726 -0.262682
v -4.67157 -4.337726 0
v 4.549625 4.337726 -0.262682
v 4.67157 4.337726 -0.262682
v 4.67157 4.337726 0
v 4.549625 4.337726 0
v 4.549625 4.337726 0.073557
v 4.67157 4.337726 0.073557
v -4.549625 4.337726 0.073557
v -4.549625 4.337726 0
v -4.549625 4.337726 -0.262682
v -4.67157 4.337726 0.073557
v -4.67157 4.337726 -0.262682
v -4.67157 4.337726 0
v -4.549625 -4.337726 0.073557
v -4.67157 -4.337726 0.073557
v -4.67157 -4.190024 0.073557
v -4.549625 -4.190024 0.073557
v -4.67157 4.190024 0.073557
v 4.549625 -4.190024 0.073557
v -4.549625 4.190024 0.073557
v 4.549625 -4.337726 0.073557
v 4.67157 -4.337726 0.073557
v 4.67157 -4.190024 0.073557
v -4.67157 4.337726 0.073557
v -4.549625 4.337726 0.073557
v 4.549625 4.190024 0.073557
v 4.549625 4.337726 0.073557
v 4.67157 4.190024 0.073557
v 4.67157 4.337726 0.073557
v 4.549625 -4.190024 0
v 4.549625 -4.190024 0.073557
v -4.549625 -4.190024 0.073557
v -4.549625 -4.190024 0
v 4.549625 4.190024 0
v 4.549625 4.190024 0.073557
v 4.549625 -4.190024 0.073557
v 4.549625 -4.190024 0
v -4.549625 4.190024 0
v -4.549625 4.190024 0.073557
v 4.549625 4.190024 0.073557
v 4.549625 4.190024 0
vt 0.68936 0.181026
vt 0.68936 0.45334
vt 0.971023 0.45334
vt 0.971023 0.181026
vt 0.143602 0.406395
vt 0.357845 0.536895
vt 0.393719 0.536895
vt 0.607962 0.406395
vt 0.011648 0.151986
vt 0.739916 0.194962
vt 0.739916 0.151986
vt 0.011648 0.194962
vt 0.697902 0.325063
vt 0.053662 0.325063
vt 0.607962 0.406395
vt 0.143602 0.406395
vt 0.011648 0.153521
vt 0.739916 0.196497
vt 0.739916 0.153521
vt 0.011648 0.196497
vt 0.697902 0.326597
vt 0.053662 0.326597
vt 0.607962 0.40793
vt 0.143602 0.40793
vt 0.007758 -0.138261
vt 0.007758 -0.138261
vt 0.008302 -0.426236
vt 0.008302 -0.426236
vt 0.020417 -0.426236
vt 0.020417 -0.426236
vt 0.033119 -0.426236
vt 0.033119 -0.426236
vt 0.013677 0.149508
vt 0.739009 0.193406
vt 0.739009 0.149508
vt 0.013677 0.193406
vt 0.697164 0.3263
vt 0.055521 0.3263
vt 0.607587 0.409379
vt 0.145098 0.409379
vt 0.364354 0.543196
vt 0.390649 0.543196
vt 0.390649 0.517775
vt 0.364354 0.517775
vt 0.143602 0.40793
vt 0.357845 0.53843
vt 0.393719 0.53843
vt 0.607962 0.40793
vt 0.178744 0.845191
vt 0.38504 0.98641
vt 0.419584 0.98641
vt 0.625881 0.845191
vt 0.325049 0.80261
vt 0.48007 0.802913
vt 0.145098 0.409379
vt 0.358478 0.542847
vt 0.394208 0.542847
vt 0.607587 0.409379
vt 0.926576 -0.426236
vt 0.926576 -0.426236
vt 0.939278 -0.426236
vt 0.939278 -0.426236
vt 0.951393 -0.426236
vt 0.951393 -0.426236
vt 0.951937 -0.138261
vt 0.951937 -0.138261
vt 0.988 -0.084347
vt 0.992717 0.086004
vt 0.996939 -0.426235
vt 0.989495 -0.251326
vt 0.283531 0.585904
vt 0.04586 0.57994
vt 0.045974 0.625365
vt 0.282804 0.615019
vt 0.089 0.761047
vt 0.295893 0.753708
vt 0.178744 0.845191
vt 0.325049 0.80261
vt 0.524859 0.615914
vt 0.756502 0.583323
vt 0.525024 0.587102
vt 0.756127 0.627541
vt 0.509217 0.753899
vt 0.714319 0.761451
vt 0.48007 0.802913
vt 0.625881 0.845191
vt 0.965374 -0.136188
vt 0.951652 -0.123069
vt 0.943205 0.077002
vt 0.962047 0.090527
vt 0.651419 0.018576
vt 0.658536 0.011179
vt 0.664187 -0.059185
vt 0.654148 -0.067415
vt 0.951652 -0.123069
vt 0.90355 0.084589
vt 0.943205 0.077002
vt 0.90617 -0.130433
vt 0.706544 0.040482
vt 0.709324 -0.091476
vt 0.658536 0.011179
vt 0.664187 -0.059185
vt 0.296052 0.684436
vt 0.296052 0.278571
vt 0.688446 0.278571
vt 0.688446 0.684436
vt 0.688446 0.684436
vt 0.688446 0.684436
vt 0.688446 0.684436
vt 0.688446 0.684436
vt 0.688446 0.278571
vt 0.296052 0.684436
vt 0.296052 0.684436
vt 0.296052 0.684436
vt 0.296052 0.684436
vt 0.688446 0.278571
vt 0.688446 0.278571
vt 0.688446 0.278571
vt 0.296052 0.278571
vt 0.296052 0.278571
vt 0.296052 0.278571
vt 0.296052 0.278571
vt 0.296052 0.684436
vt 0.296052 0.684436
vt 0.296052 0.278571
vt 0.296052 0.278571
vt 0.296052 0.684436
vt 0.296052 0.684436
vt 0.296052 0.684436
vt 0.296052 0.684436
vt 0.688446 0.684436
vt 0.296052 0.684436
vt 0.296052 0.684436
vt 0.688446 0.684436
vt 0.688446 0.684436
vt 0.688446 0.684436
vt 0.688446 0.684436
vt 0.688446 0.684436
vt 0.688446 0.684436
vt 0.688446 0.684436
vt 0.688446 0.684436
vt 0.688446 0.684436
vt 0.688446 0.684436
vt 0.688446 0.684436
vt 0.688446 0.278571
vt 0.688446 0.278571
vt 0.688446 0.278571
vt 0.688446 0.278571
vt 0.688446 0.278571
vt 0.688446 0.278571
vt 0.296052 0.278571
vt 0.296052 0.278571
vt 0.296052 0.278571
vt 0.296052 0.278571
vt 0.296052 0.278571
vt 0.296052 0.278571
vt 0.296052 0.684436
vt 0.296052 0.684436
vt 0.296052 0.684436
vt 0.296052 0.684436
vt 0.296052 0.684436
vt 0.296052 0.684436
vt 0.688446 0.278571
vt 0.688446 0.278571
vt 0.688446 0.278571
vt 0.688446 0.278571
vt 0.688446 0.278571
vt 0.688446 0.278571
vt 0.296052 0.278571
vt 0.296052 0.278571
vt 0.296052 0.278571
vt 0.296052 0.278571
vt 0.296052 0.278571
vt 0.296052 0.278571
vt 0.695181 0.6777
vt 0.695181 0.6777
vt 0.695181 0.6777
vt 0.695181 0.6777
vt 0.289317 0.6777
vt 0.695181 0.285307
vt 0.289317 0.6777
vt 0.695181 0.285307
vt 0.695181 0.285307
vt 0.695181 0.285307
vt 0.289317 0.6777
vt 0.289317 0.6777
vt 0.289317 0.285307
vt 0.289317 0.285307
vt 0.289317 0.285307
vt 0.289317 0.285307
vt 0.688446 0.684436
vt 0.688446 0.684436
vt 0.296052 0.684436
vt 0.296052 0.684436
vt 0.688446 0.278571
vt 0.688446 0.278571
vt 0.688446 0.684436
vt 0.688446 0.684436
vt 0.296052 0.278571
vt 0.296052 0.278571
vt 0.688446 0.278571
vt 0.688446 0.278571
vn 0 0 -1
vn 0 0 -1
vn 0 0 -1
vn 0 0 -1
vn 0.3980736 -0.3980735 0.8264835
vn 0.1782445 -0.1782445 0.9677075
vn 0.1820869 0.154783 0.9710235
vn 0.4155308 0.4514539 0.789635
vn 1 0 0
vn 0.9961112 0 0.08810519
vn 1 0 0
vn 0.9961688 0 0.08745129
vn 0.6527873 0.6277739 0.4239914
vn 0.6207024 -0.6207024 0.4790167
vn 0.4155308 0.4514539 0.789635
vn 0.3980736 -0.3980735 0.8264835
vn -1 0 0
vn -0.9961688 0 0.08745126
vn -1 0 0
vn -0.9961112 0 0.08810519
vn -0.6207024 -0.6207024 0.4790168
vn -0.6527873 0.6277737 0.4239914
vn -0.3980736 -0.3980735 0.8264835
vn -0.4155307 0.451454 0.789635
vn 1 0 0
vn 1 0 0
vn 0.9994487 0 -0.03320142
vn 0.999494 0 -0.03181054
vn 0.9755617 0 -0.2197258
vn 0.9787501 0 -0.2050569
vn 0.5622237 0 -0.8269852
vn 0.5895607 0 -0.807724
vn 0 -1 0
vn 0 -0.9961688 0.08745129
vn 0 -1 0
vn 0 -0.9961688 0.08745128
vn 0.6207024 -0.6207024 0.4790167
vn -0.6207024 -0.6207024 0.4790168
vn 0.3980736 -0.3980735 0.8264835
vn -0.3980736 -0.3980735 0.8264835
vn -0.1782445 -0.1782445 0.9677075
vn -0.1820869 0.1547831 0.9710235
vn 0.1820869 0.154783 0.9710235
vn 0.1782445 -0.1782445 0.9677075
vn -0.4155307 0.451454 0.789635
vn -0.1820869 0.1547831 0.9710235
vn -0.1782445 -0.1782445 0.9677075
vn -0.3980736 -0.3980735 0.8264835
vn 0.4155308 0.4514539 0.789635
vn 0.1820869 0.154783 0.9710235
vn -0.1820869 0.1547831 0.9710235
vn -0.4155307 0.451454 0.789635
vn 0.03360249 0.7403594 0.6713709
vn -0.0336025 0.7403594 0.6713708
vn -0.3980736 -0.3980735 0.8264835
vn -0.1782445 -0.1782445 0.9677075
vn 0.1782445 -0.1782445 0.9677075
vn 0.3980736 -0.3980735 0.8264835
vn -0.5895603 0 -0.8077244
vn -0.5622233 0 -0.8269855
vn -0.9755616 0 -0.2197264
vn -0.97875 0 -0.2050573
vn -0.9994487 0 -0.03320142
vn -0.999494 0 -0.03181054
vn -1 0 0
vn -1 0 0
vn -0.0004195374 0.9999988 -0.001490205
vn -0.001208154 0.9999901 -0.004291386
vn 0.001208154 0.9999901 -0.004291385
vn 0.0004195374 0.9999988 -0.001490205
vn 0.0004195374 0.9999988 -0.001490205
vn 0.001208154 0.9999901 -0.004291385
vn 0.003288491 0.9973269 0.07299528
vn 0.003255223 0.997418 0.07174025
vn 0.6527873 0.6277739 0.4239914
vn 0.05239128 0.9492096 0.3102517
vn 0.4155308 0.4514539 0.789635
vn 0.03360249 0.7403594 0.6713709
vn -0.00325522 0.997418 0.07174024
vn -0.001208154 0.9999901 -0.004291386
vn -0.0004195374 0.9999988 -0.001490205
vn -0.003288489 0.9973269 0.07299528
vn -0.05239126 0.9492096 0.3102517
vn -0.6527873 0.6277737 0.4239914
vn -0.0336025 0.7403594 0.6713708
vn -0.4155307 0.451454 0.789635
vn 0 0 1
vn 0 0 1
vn 0 0 1
vn 0 0 1
vn 0.5895607 0 -0.807724
vn 0.5622237 0 -0.8269852
vn -0.5622233 0 -0.8269855
vn -0.5895603 0 -0.8077244
vn 0 1 0
vn 0 1 0
vn 0 1 0
vn 0 1 0
vn 0 1 0
vn 0 1 0
vn 0 1 0
vn 0 1 0
vn 0 0 1
vn 0 0 1
vn 0 0 1
vn 0 0 1
vn 0 0 -1
vn 0 0 -1
vn 0 0 -1
vn 0 0 -1
vn 0 0 -1
vn 0 0 -1
vn 0 0 -1
vn 0 0 -1
vn 0 0 -1
vn 0 0 -1
vn 0 0 -1
vn 0 0 -1
vn 0 0 -1
vn 0 0 -1
vn 0 0 -1
vn 0 0 -1
vn 1 0 0
vn 1 0 0
vn 1 0 0
vn 1 0 0
vn 0 -1 0
vn 0 -1 0
vn 0 -1 0
vn 0 -1 0
vn 0 -1 0
vn 0 -1 0
vn 0 -1 0
vn 0 -1 0
vn 0 -1 0
vn 0 -1 0
vn 0 -1 0
vn 0 -1 0
vn 1 0 0
vn 1 0 0
vn 1 0 0
vn 1 0 0
vn 1 0 0
vn 1 0 0
vn 1 0 0
vn 1 0 0
vn 1 0 0
vn 1 0 0
vn 1 0 0
vn 1 0 0
vn -1 0 0
vn -1 0 0
vn -1 0 0
vn -1 0 0
vn -1 0 0
vn -1 0 0
vn -1 0 0
vn -1 0 0
vn -1 0 0
vn -1 0 0
vn -1 0 0
vn -1 0 0
vn 0 1 0
vn 0 1 0
vn 0 1 0
vn 0 1 0
vn 0 1 0
vn 0 1 0
vn 0 1 0
vn 0 1 0
vn 0 1 0
vn 0 1 0
vn 0 1 0
vn 0 1 0
vn 0 0 1
vn 0 0 1
vn 0 0 1
vn 0 0 1
vn 0 0 1
vn 0 0 1
vn 0 0 1
vn 0 0 1
vn 0 0 1
vn 0 0 1
vn 0 0 1
vn 0 0 1
vn 0 0 1
vn 0 0 1
vn 0 0 1
vn 0 0 1
vn 0 1 0
vn 0 1 0
vn 0 1 0
vn 0 1 0
vn -1 0 0
vn -1 0 0
vn -1 0 0
vn -1 0 0
vn 0 -1 0
vn 0 -1 0
vn 0 -1 0
vn 0 -1 0
g BaseTent_0
f 3/3/3 2/2/2 1/1/1
f 4/4/4 3/3/3 1/1/1
f 7/7/7 6/6/6 5/5/5
f 8/8/8 7/7/7 5/5/5
f 11/11/11 10/10/10 9/9/9
f 10/10/10 12/12/12 9/9/9
f 10/10/10 13/13/13 12/12/12
f 13/13/13 14/14/14 12/12/12
f 13/13/13 15/15/15 14/14/14
f 15/15/15 16/16/16 14/14/14
f 19/19/19 18/18/18 17/17/17
f 18/18/18 20/20/20 17/17/17
f 18/18/18 21/21/21 20/20/20
f 21/21/21 22/22/22 20/20/20
f 21/21/21 23/23/23 22/22/22
f 23/23/23 24/24/24 22/22/22
f 27/27/27 26/26/26 25/25/25
f 28/28/28 27/27/27 25/25/25
f 29/29/29 27/27/27 28/28/28
f 30/30/30 29/29/29 28/28/28
f 31/31/31 29/29/29 30/30/30
f 32/32/32 31/31/31 30/30/30
f 35/35/35 34/34/34 33/33/33
f 34/34/34 36/36/36 33/33/33
f 34/34/34 37/37/37 36/36/36
f 37/37/37 38/38/38 36/36/36
f 37/37/37 39/39/39 38/38/38
f 39/39/39 40/40/40 38/38/38
f 43/43/43 42/42/42 41/41/41
f 44/44/44 43/43/43 41/41/41
f 47/47/47 46/46/46 45/45/45
f 48/48/48 47/47/47 45/45/45
f 51/51/51 50/50/50 49/49/49
f 52/52/52 51/51/51 49/49/49
f 52/52/52 49/49/49 53/53/53
f 54/54/54 52/52/52 53/53/53
f 57/57/57 56/56/56 55/55/55
f 58/58/58 57/57/57 55/55/55
f 61/61/61 60/60/60 59/59/59
f 62/62/62 61/61/61 59/59/59
f 63/63/63 61/61/61 62/62/62
f 64/64/64 63/63/63 62/62/62
f 65/65/65 63/63/63 64/64/64
f 66/66/66 65/65/65 64/64/64
f 69/69/69 68/68/68 67/67/67
f 70/70/70 69/69/69 67/67/67
f 73/73/73 72/72/72 71/71/71
f 74/74/74 73/73/73 71/71/71
f 75/75/75 73/73/73 74/74/74
f 76/76/76 75/75/75 74/74/74
f 77/77/77 75/75/75 76/76/76
f 78/78/78 77/77/77 76/76/76
f 81/81/81 80/80/80 79/79/79
f 80/80/80 82/82/82 79/79/79
f 79/79/79 82/82/82 83/83/83
f 82/82/82 84/84/84 83/83/83
f 83/83/83 84/84/84 85/85/85
f 84/84/84 86/86/86 85/85/85
f 89/89/89 88/88/88 87/87/87
f 90/90/90 89/89/89 87/87/87
f 93/93/93 92/92/92 91/91/91
f 94/94/94 93/93/93 91/91/91
g BaseTent_1
f 97/97/97 96/96/96 95/95/95
f 96/96/96 98/98/98 95/95/95
f 96/96/96 99/99/99 98/98/98
f 99/99/99 100/100/100 98/98/98
f 99/99/99 101/101/101 100/100/100
f 101/101/101 102/102/102 100/100/100
g BaseTent_2
f 105/105/105 104/104/104 103/103/103
f 106/106/106 105/105/105 103/103/103
f 109/109/109 108/108/108 107/107/107
f 110/110/110 109/109/109 107/107/107
f 111/111/111 109/109/109 110/110/110
f 110/110/110 107/107/107 112/112/112
f 107/107/107 113/113/113 112/112/112
f 113/113/113 114/114/114 112/112/112
f 114/114/114 115/115/115 112/112/112
f 116/116/116 111/111/111 110/110/110
f 116/116/116 110/110/110 112/112/112
f 117/117/117 111/111/111 116/116/116
f 118/118/118 117/117/117 116/116/116
f 119/119/119 118/118/118 116/116/116
f 112/112/112 115/115/115 120/120/120
f 120/120/120 116/116/116 112/112/112
f 120/120/120 119/119/119 116/116/116
f 115/115/115 121/121/121 120/120/120
f 120/120/120 121/121/121 119/119/119
f 121/121/121 122/122/122 119/119/119
f 125/125/125 124/124/124 123/123/123
f 126/126/126 125/125/125 123/123/123
f 129/129/129 128/128/128 127/127/127
f 130/130/130 129/129/129 127/127/127
f 131/131/131 129/129/129 130/130/130
f 130/130/130 127/127/127 132/132/132
f 127/127/127 133/133/133 132/132/132
f 134/134/134 131/131/131 130/130/130
f 130/130/130 132/132/132 134/134/134
f 135/135/135 131/131/131 134/134/134
f 132/132/132 136/136/136 134/134/134
f 137/137/137 135/135/135 134/134/134
f 136/136/136 138/138/138 134/134/134
f 138/138/138 137/137/137 134/134/134
f 141/141/141 140/140/140 139/139/139
f 142/142/142 141/141/141 139/139/139
f 142/142/142 143/143/143 141/141/141
f 143/143/143 144/144/144 141/141/141
f 145/145/145 143/143/143 142/142/142
f 142/142/142 139/139/139 146/146/146
f 146/146/146 145/145/145 142/142/142
f 139/139/139 147/147/147 146/146/146
f 148/148/148 145/145/145 146/146/146
f 147/147/147 149/149/149 146/146/146
f 150/150/150 148/148/148 146/146/146
f 149/149/149 150/150/150 146/146/146
f 153/153/153 152/152/152 151/151/151
f 154/154/154 153/153/153 151/151/151
f 154/154/154 155/155/155 153/153/153
f 155/155/155 156/156/156 153/153/153
f 157/157/157 155/155/155 154/154/154
f 154/154/154 151/151/151 158/158/158
f 158/158/158 157/157/157 154/154/154
f 151/151/151 159/159/159 158/158/158
f 160/160/160 157/157/157 158/158/158
f 159/159/159 161/161/161 158/158/158
f 162/162/162 160/160/160 158/158/158
f 161/161/161 162/162/162 158/158/158
f 165/165/165 164/164/164 163/163/163
f 166/166/166 165/165/165 163/163/163
f 166/166/166 167/167/167 165/165/165
f 167/167/167 168/168/168 165/165/165
f 169/169/169 167/167/167 166/166/166
f 166/166/166 163/163/163 170/170/170
f 170/170/170 169/169/169 166/166/166
f 163/163/163 171/171/171 170/170/170
f 172/172/172 169/169/169 170/170/170
f 171/171/171 173/173/173 170/170/170
f 174/174/174 172/172/172 170/170/170
f 173/173/173 174/174/174 170/170/170
f 177/177/177 176/176/176 175/175/175
f 178/178/178 177/177/177 175/175/175
f 179/179/179 177/177/177 178/178/178
f 178/178/178 175/175/175 180/180/180
f 181/181/181 179/179/179 178/178/178
f 175/175/175 182/182/182 180/180/180
f 182/182/182 183/183/183 180/180/180
f 183/183/183 184/184/184 180/180/180
f 185/185/185 179/179/179 181/181/181
f 186/186/186 185/185/185 181/181/181
f 180/180/180 184/184/184 187/187/187
f 188/188/188 186/186/186 181/181/181
f 187/187/187 188/188/188 181/181/181
f 184/184/184 189/189/189 187/187/187
f 187/187/187 189/189/189 188/188/188
f 189/189/189 190/190/190 188/188/188
f 193/193/193 192/192/192 191/191/191
f 194/194/194 193/193/193 191/191/191
f 197/197/197 196/196/196 195/195/195
f 198/198/198 197/197/197 195/195/195
f 201/201/201 200/200/200 199/199/199
f 202/202/202 201/201/201 199/199/199
