g BasicSlingshotString
v -0.188136 0.111339 0.838648
v -0.305845 -0.001108 0.838648
v -0.315572 -0.003683 0.920164
v -0.194605 0.107023 0.920591
v -0.095292 0.139426 0.838648
v -0.100132 0.136847 0.920804
v -0.025108 0.162489 0.838648
v -0.028318 0.161009 0.921017
v 0.045076 0.160335 0.838648
v 0.043495 0.159045 0.921231
v 0.115261 0.136708 0.838648
v 0.115309 0.134705 0.921444
v 0.185445 0.080314 0.838648
v 0.187122 0.07698 0.921657
v 0.255629 0.022412 0.838648
v 0.258936 0.018888 0.921871
v 0.185622 0.101651 0.839638
v 0.255629 0.022412 0.838648
v 0.255806 0.044128 0.839638
v 0.185445 0.080314 0.838648
v 0.115438 0.158046 0.839638
v 0.115261 0.136708 0.838648
v 0.045253 0.181672 0.839638
v 0.045076 0.160335 0.838648
v -0.024931 0.183826 0.839638
v -0.025108 0.162489 0.838648
v -0.095115 0.160764 0.839638
v -0.095292 0.139426 0.838648
v -0.187959 0.132677 0.839638
v -0.188136 0.111339 0.838648
v -0.305668 0.020298 0.839638
v -0.305845 -0.001108 0.838648
v -0.315395 0.017673 0.921154
v -0.315572 -0.003683 0.920164
v -0.305845 -0.001108 0.838648
v -0.305668 0.020298 0.839638
v -0.187959 0.132677 0.839638
v -0.194428 0.12836 0.92158
v -0.095115 0.160764 0.839638
v -0.099955 0.158185 0.921794
v -0.024931 0.183826 0.839638
v -0.028141 0.182347 0.922007
v 0.045253 0.181672 0.839638
v 0.043672 0.180383 0.92222
v 0.115438 0.158046 0.839638
v 0.115486 0.156042 0.922434
v 0.185622 0.101651 0.839638
v 0.187299 0.098318 0.922647
v 0.255806 0.044128 0.839638
v 0.259113 0.040545 0.92286
v 0.258936 0.018888 0.921871
v 0.255629 0.022412 0.838648
v -0.194428 0.12836 0.92158
v -0.315572 -0.003683 0.920164
v -0.315395 0.017673 0.921154
v -0.194605 0.107023 0.920591
v -0.099955 0.158185 0.921794
v -0.100132 0.136847 0.920804
v -0.028141 0.182347 0.922007
v -0.028318 0.161009 0.921017
v 0.043672 0.180383 0.92222
v 0.043495 0.159045 0.921231
v 0.115486 0.156042 0.922434
v 0.115309 0.134705 0.921444
v 0.187299 0.098318 0.922647
v 0.187122 0.07698 0.921657
v 0.259113 0.040545 0.92286
v 0.258936 0.018888 0.921871
v 0.058795 0.136129 0.802525
v -0.043012 0.137064 0.800575
v -0.084029 0.138182 0.840777
v 0.099691 0.136411 0.844297
v -0.084029 0.139524 0.915046
v 0.09946 0.137666 0.922192
v -0.04304 0.139831 0.95763
v 0.058349 0.138759 0.961582
v -0.040808 0.165034 0.800182
v 0.058795 0.136129 0.802525
v 0.060999 0.164098 0.802131
v -0.043012 0.137064 0.800575
v -0.084029 0.138182 0.840777
v -0.081826 0.166151 0.840383
v 0.101895 0.164381 0.843903
v 0.09946 0.137666 0.922192
v 0.101663 0.165635 0.921798
v 0.099691 0.136411 0.844297
v 0.058795 0.136129 0.802525
v 0.060999 0.164098 0.802131
v 0.058349 0.138759 0.961582
v -0.04304 0.139831 0.95763
v -0.040837 0.167801 0.957236
v 0.060552 0.166729 0.961188
v 0.09946 0.137666 0.922192
v 0.101663 0.165635 0.921798
v -0.081826 0.166151 0.840383
v -0.040808 0.165034 0.800182
v 0.060999 0.164098 0.802131
v 0.101895 0.164381 0.843903
v -0.081826 0.167493 0.914652
v 0.101663 0.165635 0.921798
v -0.040837 0.167801 0.957236
v 0.060552 0.166729 0.961188
v -0.081826 0.167493 0.914652
v -0.040837 0.167801 0.957236
v -0.04304 0.139831 0.95763
v -0.084029 0.139524 0.915046
v -0.084029 0.138182 0.840777
v -0.081826 0.166151 0.840383
vt 0.358772 0.297548
vt 0.341739 0.297548
vt 0.328496 0.334412
vt 0.349965 0.334605
vt 0.367288 0.297548
vt 0.360699 0.334701
vt 0.375804 0.297548
vt 0.371433 0.334798
vt 0.38432 0.297548
vt 0.382167 0.334894
vt 0.392836 0.297548
vt 0.392902 0.334991
vt 0.401352 0.297548
vt 0.403636 0.335087
vt 0.409869 0.297548
vt 0.41437 0.335184
vt 0.401352 0.297548
vt 0.409869 0.297548
vt 0.409869 0.297548
vt 0.401352 0.297548
vt 0.392836 0.297548
vt 0.392836 0.297548
vt 0.38432 0.297548
vt 0.38432 0.297548
vt 0.375804 0.297548
vt 0.375804 0.297548
vt 0.367288 0.297548
vt 0.367288 0.297548
vt 0.358772 0.297548
vt 0.358772 0.297548
vt 0.341739 0.297548
vt 0.341739 0.297548
vt 0.328496 0.334412
vt 0.328496 0.334412
vt 0.341739 0.297548
vt 0.341739 0.297548
vt 0.358772 0.297548
vt 0.349965 0.334605
vt 0.367288 0.297548
vt 0.360699 0.334701
vt 0.375804 0.297548
vt 0.371433 0.334798
vt 0.38432 0.297548
vt 0.382167 0.334894
vt 0.392836 0.297548
vt 0.392902 0.334991
vt 0.401352 0.297548
vt 0.403636 0.335087
vt 0.409869 0.297548
vt 0.41437 0.335184
vt 0.41437 0.335184
vt 0.409869 0.297548
vt 0.349965 0.334605
vt 0.328496 0.334412
vt 0.328496 0.334412
vt 0.349965 0.334605
vt 0.360699 0.334701
vt 0.360699 0.334701
vt 0.371433 0.334798
vt 0.371433 0.334798
vt 0.382167 0.334894
vt 0.382167 0.334894
vt 0.392902 0.334991
vt 0.392902 0.334991
vt 0.403636 0.335087
vt 0.403636 0.335087
vt 0.41437 0.335184
vt 0.41437 0.335184
vt 0.379189 0.377554
vt 0.383909 0.286139
vt 0.376966 0.249308
vt 0.366391 0.414275
vt 0.360937 0.249308
vt 0.345683 0.414067
vt 0.348223 0.286113
vt 0.338654 0.377153
vt 0.383909 0.286139
vt 0.379189 0.377554
vt 0.379189 0.377554
vt 0.383909 0.286139
vt 0.385811 0.249308
vt 0.385811 0.249308
vt 0.379415 0.33487
vt 0.374185 0.334823
vt 0.374185 0.334823
vt 0.379415 0.33487
vt 0.382167 0.334894
vt 0.382167 0.334894
vt 0.338654 0.377153
vt 0.348223 0.286113
vt 0.348223 0.286113
vt 0.338654 0.377153
vt 0.334786 0.413958
vt 0.334786 0.413958
vt 0.376966 0.249308
vt 0.383909 0.286139
vt 0.379189 0.377554
vt 0.366391 0.414275
vt 0.360937 0.249308
vt 0.345683 0.414067
vt 0.348223 0.286113
vt 0.338654 0.377153
vt 0.378038 0.297548
vt 0.375804 0.297548
vt 0.375804 0.297548
vt 0.378038 0.297548
vt 0.382086 0.297548
vt 0.382086 0.297548
vn 0.5395831 -0.8418102 0.01434233
vn 0.6824549 -0.7299985 0.03684483
vn 0.6824549 -0.7299984 0.03684483
vn 0.5603323 -0.8280836 0.01746998
vn 0.304547 -0.9523881 -0.01441881
vn 0.3037317 -0.9526412 -0.01489419
vn 0.1453373 -0.9892967 -0.01300055
vn 0.1540292 -0.9879839 -0.01275632
vn -0.1820032 -0.983094 -0.02002512
vn -0.1792988 -0.9835916 -0.01998628
vn -0.4945892 -0.8688884 -0.0203604
vn -0.4971568 -0.8674224 -0.02033178
vn -0.6293789 -0.7769372 -0.01583699
vn -0.6295463 -0.7768045 -0.0156872
vn -0.6325644 -0.774399 -0.01298267
vn -0.6325644 -0.774399 -0.01298267
vn 0.03712048 0.04589119 -0.9982565
vn 0.03749706 0.04560006 -0.9982558
vn 0.03749706 0.04560007 -0.9982558
vn 0.03734681 0.04571623 -0.9982561
vn 0.02250897 0.04614804 -0.998681
vn 0.029301 0.04608365 -0.9985077
vn 0.007658933 0.04628194 -0.9988991
vn 0.009195059 0.04626851 -0.9988868
vn -0.006006769 0.04639557 -0.9989051
vn -0.007636866 0.04640845 -0.9988934
vn -0.01469844 0.04646224 -0.9988118
vn -0.01446047 0.04646022 -0.9988155
vn -0.02474356 0.04650962 -0.9986113
vn -0.0353623 0.04655688 -0.9982895
vn -0.044497 0.04659333 -0.9979224
vn -0.044497 0.04659333 -0.9979224
vn -0.7456356 0.6646065 -0.04822726
vn -0.992914 0.01368534 -0.1180442
vn -0.992914 0.01368535 -0.1180442
vn -0.7393493 0.6716771 -0.04703779
vn -0.5394696 0.8418856 -0.01418586
vn -0.5602144 0.8281669 -0.01730069
vn -0.304547 0.9523881 0.01441938
vn -0.303732 0.9526411 0.01489519
vn -0.1453347 0.9892972 0.01299169
vn -0.1540268 0.9879844 0.01274762
vn 0.1820035 0.9830941 0.02001941
vn 0.1792986 0.9835918 0.01998045
vn 0.4945891 0.8688884 0.02036052
vn 0.4971585 0.8674215 0.02033187
vn 0.6282504 0.7778457 0.0160437
vn 0.6283563 0.7777631 0.0159052
vn 0.7429845 0.6692987 0.003631517
vn 0.7495288 0.6619649 0.003008804
vn 0.9991806 -0.006331645 -0.03997464
vn 0.9991806 -0.006331645 -0.03997464
vn 0.02195346 -0.04648785 0.9986776
vn 0.03911873 -0.04659394 0.9981476
vn 0.03911873 -0.04659395 0.9981476
vn 0.03115327 -0.04654641 0.9984302
vn 0.01254082 -0.04643606 0.9988425
vn 0.01248692 -0.04643108 0.9988434
vn 0.00325249 -0.04636068 0.9989195
vn 0.00496158 -0.04637674 0.9989116
vn -0.01058311 -0.0462338 0.9988746
vn -0.01213933 -0.04622007 0.9988575
vn -0.02552814 -0.04610465 0.9986104
vn -0.03229835 -0.04604661 0.998417
vn -0.03987526 -0.04587414 0.998151
vn -0.03981025 -0.04572008 0.9981608
vn -0.03976661 -0.04561665 0.9981672
vn -0.03976661 -0.04561666 0.9981672
vn -0.009924352 -0.9998129 0.01660496
vn -0.009528353 -0.9997911 0.01808236
vn -0.009942903 -0.9997897 0.01793636
vn -0.01044243 -0.9998088 0.01653422
vn -0.01031286 -0.9997926 0.0175594
vn -0.0107918 -0.9998105 0.01619948
vn -0.0108366 -0.9997881 0.01750467
vn -0.01119702 -0.9998084 0.0160566
vn -0.2452819 0.005684373 -0.9694352
vn 0.2792595 -0.03551036 -0.9595588
vn 0.3063539 -0.03752795 -0.9511777
vn -0.2724044 0.007923647 -0.9621503
vn -0.9405401 0.06940933 -0.3325157
vn -0.9368009 0.0689675 -0.3429978
vn 0.9462848 -0.07897279 -0.3135414
vn 0.9384466 -0.06915994 0.33843
vn 0.9423953 -0.06962977 0.3271742
vn 0.942094 -0.07881772 -0.3259553
vn 0.2792595 -0.03551036 -0.9595588
vn 0.3063539 -0.03752795 -0.9511777
vn 0.2278372 -0.004230003 0.97369
vn -0.3235524 0.03880155 0.9454144
vn -0.2973625 0.03686041 0.9540529
vn 0.2551206 -0.006474777 0.9668875
vn 0.9384466 -0.06915994 0.33843
vn 0.9423953 -0.06962977 0.3271742
vn 0.00993868 0.9997898 -0.0179351
vn 0.009537489 0.9997917 -0.01804841
vn 0.009920223 0.9998127 -0.01662049
vn 0.01044004 0.9998088 -0.01653035
vn 0.01030973 0.9997926 -0.01756165
vn 0.01079152 0.9998106 -0.0161926
vn 0.01083752 0.9997876 -0.01752869
vn 0.01119783 0.999808 -0.01608109
vn -0.938829 0.07866978 0.3352778
vn -0.2973625 0.03686041 0.9540529
vn -0.3235524 0.03880155 0.9454144
vn -0.9432718 0.07884011 0.3225253
vn -0.9405401 0.06940933 -0.3325157
vn -0.9368009 0.0689675 -0.3429978
g BasicSlingshotString_0
f 3/3/3 2/2/2 1/1/1
f 4/4/4 3/3/3 1/1/1
f 4/4/4 1/1/1 5/5/5
f 6/6/6 4/4/4 5/5/5
f 6/6/6 5/5/5 7/7/7
f 8/8/8 6/6/6 7/7/7
f 8/8/8 7/7/7 9/9/9
f 10/10/10 8/8/8 9/9/9
f 10/10/10 9/9/9 11/11/11
f 12/12/12 10/10/10 11/11/11
f 12/12/12 11/11/11 13/13/13
f 14/14/14 12/12/12 13/13/13
f 14/14/14 13/13/13 15/15/15
f 16/16/16 14/14/14 15/15/15
f 19/19/19 18/18/18 17/17/17
f 18/18/18 20/20/20 17/17/17
f 17/17/17 20/20/20 21/21/21
f 20/20/20 22/22/22 21/21/21
f 21/21/21 22/22/22 23/23/23
f 22/22/22 24/24/24 23/23/23
f 23/23/23 24/24/24 25/25/25
f 24/24/24 26/26/26 25/25/25
f 25/25/25 26/26/26 27/27/27
f 26/26/26 28/28/28 27/27/27
f 27/27/27 28/28/28 29/29/29
f 28/28/28 30/30/30 29/29/29
f 29/29/29 30/30/30 31/31/31
f 30/30/30 32/32/32 31/31/31
f 35/35/35 34/34/34 33/33/33
f 36/36/36 35/35/35 33/33/33
f 36/36/36 33/33/33 37/37/37
f 33/33/33 38/38/38 37/37/37
f 37/37/37 38/38/38 39/39/39
f 38/38/38 40/40/40 39/39/39
f 39/39/39 40/40/40 41/41/41
f 40/40/40 42/42/42 41/41/41
f 41/41/41 42/42/42 43/43/43
f 42/42/42 44/44/44 43/43/43
f 43/43/43 44/44/44 45/45/45
f 44/44/44 46/46/46 45/45/45
f 45/45/45 46/46/46 47/47/47
f 46/46/46 48/48/48 47/47/47
f 47/47/47 48/48/48 49/49/49
f 48/48/48 50/50/50 49/49/49
f 50/50/50 51/51/51 49/49/49
f 51/51/51 52/52/52 49/49/49
f 55/55/55 54/54/54 53/53/53
f 54/54/54 56/56/56 53/53/53
f 53/53/53 56/56/56 57/57/57
f 56/56/56 58/58/58 57/57/57
f 57/57/57 58/58/58 59/59/59
f 58/58/58 60/60/60 59/59/59
f 59/59/59 60/60/60 61/61/61
f 60/60/60 62/62/62 61/61/61
f 61/61/61 62/62/62 63/63/63
f 62/62/62 64/64/64 63/63/63
f 63/63/63 64/64/64 65/65/65
f 64/64/64 66/66/66 65/65/65
f 65/65/65 66/66/66 67/67/67
f 66/66/66 68/68/68 67/67/67
f 71/71/71 70/70/70 69/69/69
f 69/69/69 72/72/72 71/71/71
f 72/72/72 73/73/73 71/71/71
f 72/72/72 74/74/74 73/73/73
f 74/74/74 75/75/75 73/73/73
f 74/74/74 76/76/76 75/75/75
f 79/79/79 78/78/78 77/77/77
f 78/78/78 80/80/80 77/77/77
f 80/80/80 81/81/81 77/77/77
f 81/81/81 82/82/82 77/77/77
f 85/85/85 84/84/84 83/83/83
f 84/84/84 86/86/86 83/83/83
f 86/86/86 87/87/87 83/83/83
f 87/87/87 88/88/88 83/83/83
f 91/91/91 90/90/90 89/89/89
f 92/92/92 91/91/91 89/89/89
f 89/89/89 93/93/93 92/92/92
f 93/93/93 94/94/94 92/92/92
f 97/97/97 96/96/96 95/95/95
f 95/95/95 98/98/98 97/97/97
f 95/95/95 99/99/99 98/98/98
f 99/99/99 100/100/100 98/98/98
f 99/99/99 101/101/101 100/100/100
f 101/101/101 102/102/102 100/100/100
f 105/105/105 104/104/104 103/103/103
f 106/106/106 105/105/105 103/103/103
f 107/107/107 106/106/106 103/103/103
f 108/108/108 107/107/107 103/103/103
