g BasicSprinklerTop
v -0.015232 -0.071627 0.859374
v -0.071627 -0.015232 0.859374
v -0.117929 -0.034411 0.859374
v -0.034411 -0.117929 0.859374
v -0.015232 -0.071627 0.859374
v -0.034411 -0.117929 0.859374
v -0.044419 -0.152229 0.700734
v -0.019662 -0.092459 0.700734
v -0.044419 -0.152229 0.532319
v -0.019662 -0.092459 0.532319
v 0.071627 -0.015232 0.859374
v 0.015232 -0.071627 0.859374
v 0.034411 -0.117929 0.859374
v 0.117929 -0.034411 0.859374
v -0.071627 0.015232 0.859374
v -0.015232 0.071627 0.859374
v -0.034411 0.117929 0.859374
v -0.117929 0.034411 0.859374
v 0.015232 0.071627 0.859374
v 0.034411 0.117929 0.859374
v 0.044419 0.152229 0.700734
v 0.019662 0.092459 0.700734
v 0.044419 0.152229 0.532319
v 0.019662 0.092459 0.532319
v 0.013929 0.065498 0.884738
v 0.071627 0.015232 0.859374
v 0.015232 0.071627 0.859374
v 0.065498 0.013929 0.884738
v 0.071627 -0.015232 0.859374
v 0.065498 -0.013929 0.884738
v 0.092459 -0.019662 0.700734
v 0.092459 0.019662 0.700734
v 0.092459 -0.019662 0.532319
v 0.092459 0.019662 0.532319
v 0.015232 -0.071627 0.859374
v 0.013929 -0.065498 0.884738
v -0.015232 -0.071627 0.859374
v -0.013929 -0.065498 0.884738
v -0.019662 -0.092459 0.700734
v 0.019662 -0.092459 0.700734
v -0.019662 -0.092459 0.532319
v 0.019662 -0.092459 0.532319
v 0.107838 0.031467 0.884738
v 0.031467 0.107838 0.884738
v 0.034411 0.117929 0.859374
v 0.117929 0.034411 0.859374
v 0.107838 -0.031467 0.884738
v 0.117929 -0.034411 0.859374
v 0.031467 -0.107838 0.884738
v 0.152229 0.044419 0.700734
v 0.152229 -0.044419 0.700734
v 0.152229 0.044419 0.532319
v 0.152229 -0.044419 0.532319
v 0.034411 -0.117929 0.859374
v -0.031467 -0.107838 0.884738
v -0.034411 -0.117929 0.859374
v 0.044419 -0.152229 0.700734
v -0.044419 -0.152229 0.700734
v 0.044419 -0.152229 0.532319
v -0.044419 -0.152229 0.532319
v -0.013929 0.065498 0.884738
v 0.013929 0.065498 0.884738
v 0.015232 0.071627 0.859374
v -0.015232 0.071627 0.859374
v -0.065498 0.013929 0.884738
v 0.019662 0.092459 0.700734
v -0.019662 0.092459 0.700734
v 0.019662 0.092459 0.532319
v -0.019662 0.092459 0.532319
v -0.071627 0.015232 0.859374
v -0.065498 -0.013929 0.884738
v -0.071627 -0.015232 0.859374
v -0.013929 -0.065498 0.884738
v -0.015232 -0.071627 0.859374
v -0.092459 0.019662 0.700734
v -0.092459 -0.019662 0.700734
v -0.092459 0.019662 0.532319
v -0.092459 -0.019662 0.532319
v -0.107838 -0.031467 0.884738
v -0.031467 -0.107838 0.884738
v -0.034411 -0.117929 0.859374
v -0.117929 -0.034411 0.859374
v -0.107838 0.031467 0.884738
v -0.117929 0.034411 0.859374
v -0.031467 0.107838 0.884738
v -0.152229 -0.044419 0.700734
v -0.152229 0.044419 0.700734
v -0.152229 -0.044419 0.532319
v -0.152229 0.044419 0.532319
v -0.034411 0.117929 0.859374
v 0.031467 0.107838 0.884738
v 0.034411 0.117929 0.859374
v -0.044419 0.152229 0.700734
v 0.044419 0.152229 0.700734
v -0.044419 0.152229 0.532319
v 0.044419 0.152229 0.532319
v -0.044419 0.152229 0.700734
v -0.019662 0.092459 0.532319
v -0.044419 0.152229 0.532319
v -0.019662 0.092459 0.700734
v -0.034411 0.117929 0.859374
v -0.015232 0.071627 0.859374
v 0.092459 -0.019662 0.700734
v 0.152229 -0.044419 0.532319
v 0.092459 -0.019662 0.532319
v 0.152229 -0.044419 0.700734
v 0.071627 -0.015232 0.859374
v 0.117929 -0.034411 0.859374
v -0.117929 -0.034411 0.859374
v -0.071627 -0.015232 0.859374
v -0.092459 -0.019662 0.700734
v -0.152229 -0.044419 0.700734
v -0.092459 -0.019662 0.532319
v -0.152229 -0.044419 0.532319
v -0.071627 0.015232 0.859374
v -0.117929 0.034411 0.859374
v -0.152229 0.044419 0.700734
v -0.092459 0.019662 0.700734
v -0.152229 0.044419 0.532319
v -0.092459 0.019662 0.532319
v 0.034411 -0.117929 0.859374
v 0.015232 -0.071627 0.859374
v 0.019662 -0.092459 0.700734
v 0.044419 -0.152229 0.700734
v 0.019662 -0.092459 0.532319
v 0.044419 -0.152229 0.532319
v 0.117929 0.034411 0.859374
v 0.071627 0.015232 0.859374
v 0.092459 0.019662 0.700734
v 0.152229 0.044419 0.700734
v 0.092459 0.019662 0.532319
v 0.152229 0.044419 0.532319
v -0.092459 -0.019662 0.532319
v -0.092459 0.019662 0.532319
v -0.152229 0.044419 0.532319
v -0.152229 -0.044419 0.532319
v 0.019662 -0.092459 0.532319
v -0.019662 -0.092459 0.532319
v -0.044419 -0.152229 0.532319
v 0.044419 -0.152229 0.532319
v 0.092459 0.019662 0.532319
v 0.092459 -0.019662 0.532319
v 0.152229 -0.044419 0.532319
v 0.152229 0.044419 0.532319
v -0.019662 0.092459 0.532319
v 0.019662 0.092459 0.532319
v 0.044419 0.152229 0.532319
v -0.044419 0.152229 0.532319
v 0.027301 0.152229 0.642599
v 0.027301 0.152229 0.590455
v -0.027301 0.152229 0.590455
v -0.027301 0.152229 0.642599
v 0.027301 0.318604 0.752702
v -0.027301 0.318604 0.752702
v 0.027301 0.372801 0.786411
v -0.027301 0.372801 0.786411
v -0.027301 0.415166 0.764461
v 0.027301 0.415166 0.764461
v 0.027301 0.467358 0.685596
v -0.027301 0.467358 0.685596
v -0.027301 0.290626 0.653791
v -0.027301 0.322781 0.605202
v 0.027301 0.322781 0.605202
v 0.027301 0.290626 0.653791
v 0.027301 0.318604 0.752702
v 0.027301 0.372801 0.786411
v 0.027301 0.415166 0.764461
v 0.027301 0.265469 0.658911
v 0.027301 0.152229 0.642599
v 0.027301 0.152229 0.590455
v 0.027301 0.290626 0.653791
v 0.027301 0.410046 0.739305
v 0.027301 0.322781 0.605202
v 0.027301 0.467358 0.685596
v 0.027301 0.317661 0.580046
v 0.027301 0.442201 0.690716
v -0.027301 0.152229 0.590455
v -0.027301 0.318604 0.752702
v -0.027301 0.152229 0.642599
v -0.027301 0.265469 0.658911
v -0.027301 0.372801 0.786411
v -0.027301 0.415166 0.764461
v -0.027301 0.410046 0.739305
v -0.027301 0.290626 0.653791
v -0.027301 0.442201 0.690716
v -0.027301 0.317661 0.580046
v -0.027301 0.467358 0.685596
v -0.027301 0.322781 0.605202
v 0.027301 0.152229 0.590455
v 0.027301 0.265469 0.658911
v -0.027301 0.265469 0.658911
v -0.027301 0.152229 0.590455
v 0.027301 0.317661 0.580046
v 0.027301 0.467358 0.685596
v -0.027301 0.467358 0.685596
v -0.027301 0.317661 0.580046
v 0.027301 0.265469 0.658911
v 0.027301 0.317661 0.580046
v -0.027301 0.317661 0.580046
v -0.027301 0.265469 0.658911
v -0.027301 0.290626 0.653791
v 0.027301 0.290626 0.653791
v 0.027301 0.410046 0.739305
v -0.027301 0.410046 0.739305
v -0.027301 0.322781 0.605202
v -0.027301 0.442201 0.690716
v 0.027301 0.442201 0.690716
v 0.027301 0.322781 0.605202
v -0.027301 0.410046 0.739305
v 0.027301 0.410046 0.739305
v 0.027301 0.442201 0.690716
v -0.027301 0.442201 0.690716
v -0.022103 -0.152229 0.620438
v -0.022103 -0.152229 0.560022
v 0.022103 -0.152229 0.560022
v 0.022103 -0.152229 0.620438
v -0.022103 -0.319656 0.689215
v 0.022103 -0.319656 0.689215
v 0.022103 -0.319656 0.628799
v -0.022103 -0.319656 0.628799
v 0.022103 -0.152229 0.560022
v 0.022103 -0.319656 0.628799
v 0.022103 -0.319656 0.689215
v 0.022103 -0.152229 0.620438
v 0.022103 -0.152229 0.620438
v 0.022103 -0.319656 0.689215
v -0.022103 -0.319656 0.689215
v -0.022103 -0.152229 0.620438
v -0.022103 -0.152229 0.620438
v -0.022103 -0.319656 0.689215
v -0.022103 -0.319656 0.628799
v -0.022103 -0.152229 0.560022
v -0.022103 -0.152229 0.560022
v -0.022103 -0.319656 0.628799
v 0.022103 -0.319656 0.628799
v 0.022103 -0.152229 0.560022
v -0.013929 -0.065498 0.884738
v -0.031467 -0.107838 0.884738
v -0.107838 -0.031467 0.884738
v -0.065498 -0.013929 0.884738
v 0.013929 -0.065498 0.884738
v -0.107838 0.031467 0.884738
v 0.031467 -0.107838 0.884738
v -0.065498 0.013929 0.884738
v 0.065498 -0.013929 0.884738
v -0.031467 0.107838 0.884738
v 0.107838 -0.031467 0.884738
v -0.013929 0.065498 0.884738
v 0.065498 0.013929 0.884738
v 0.031467 0.107838 0.884738
v 0.107838 0.031467 0.884738
v 0.013929 0.065498 0.884738
vt 0.796929 0.362934
vt 0.81511 0.362934
vt 0.808927 0.362934
vt 0.782001 0.362934
vt 0.796929 0.362934
vt 0.782001 0.362934
vt 0.770944 0.31179
vt 0.790212 0.31179
vt 0.770944 0.257496
vt 0.790212 0.257496
vt 0.81511 0.362934
vt 0.796929 0.362934
vt 0.782001 0.362934
vt 0.808927 0.362934
vt 0.824931 0.362934
vt 0.843112 0.362934
vt 0.858039 0.362934
vt 0.831114 0.362934
vt 0.843112 0.362934
vt 0.858039 0.362934
vt 0.869097 0.31179
vt 0.849828 0.31179
vt 0.869097 0.257496
vt 0.849828 0.257496
vt 0.841136 0.371111
vt 0.824931 0.362934
vt 0.843112 0.362934
vt 0.824511 0.371111
vt 0.81511 0.362934
vt 0.81553 0.371111
vt 0.813681 0.31179
vt 0.826359 0.31179
vt 0.813681 0.257496
vt 0.826359 0.257496
vt 0.796929 0.362934
vt 0.798905 0.371111
vt 0.796929 0.362934
vt 0.798905 0.371111
vt 0.790212 0.31179
vt 0.790212 0.31179
vt 0.790212 0.257496
vt 0.790212 0.257496
vt 0.830165 0.371111
vt 0.854786 0.371111
vt 0.858039 0.362934
vt 0.831114 0.362934
vt 0.809876 0.371111
vt 0.808927 0.362934
vt 0.785255 0.371111
vt 0.83434 0.31179
vt 0.8057 0.31179
vt 0.83434 0.257496
vt 0.8057 0.257496
vt 0.782001 0.362934
vt 0.785255 0.371111
vt 0.782001 0.362934
vt 0.770944 0.31179
vt 0.770944 0.31179
vt 0.770944 0.257496
vt 0.770944 0.257496
vt 0.841136 0.371111
vt 0.841136 0.371111
vt 0.843112 0.362934
vt 0.843112 0.362934
vt 0.824511 0.371111
vt 0.849828 0.31179
vt 0.849828 0.31179
vt 0.849828 0.257496
vt 0.849828 0.257496
vt 0.824931 0.362934
vt 0.81553 0.371111
vt 0.81511 0.362934
vt 0.798905 0.371111
vt 0.796929 0.362934
vt 0.826359 0.31179
vt 0.813681 0.31179
vt 0.826359 0.257496
vt 0.813681 0.257496
vt 0.809876 0.371111
vt 0.785255 0.371111
vt 0.782001 0.362934
vt 0.808927 0.362934
vt 0.830165 0.371111
vt 0.831114 0.362934
vt 0.854786 0.371111
vt 0.8057 0.31179
vt 0.83434 0.31179
vt 0.8057 0.257496
vt 0.83434 0.257496
vt 0.858039 0.362934
vt 0.854786 0.371111
vt 0.858039 0.362934
vt 0.869097 0.31179
vt 0.869097 0.31179
vt 0.869097 0.257496
vt 0.869097 0.257496
vt 0.869097 0.31179
vt 0.849828 0.257496
vt 0.869097 0.257496
vt 0.849828 0.31179
vt 0.858039 0.362934
vt 0.843112 0.362934
vt 0.813681 0.31179
vt 0.8057 0.257496
vt 0.813681 0.257496
vt 0.8057 0.31179
vt 0.81511 0.362934
vt 0.808927 0.362934
vt 0.808927 0.362934
vt 0.81511 0.362934
vt 0.813681 0.31179
vt 0.8057 0.31179
vt 0.813681 0.257496
vt 0.8057 0.257496
vt 0.824931 0.362934
vt 0.831114 0.362934
vt 0.83434 0.31179
vt 0.826359 0.31179
vt 0.83434 0.257496
vt 0.826359 0.257496
vt 0.782001 0.362934
vt 0.796929 0.362934
vt 0.790212 0.31179
vt 0.770944 0.31179
vt 0.790212 0.257496
vt 0.770944 0.257496
vt 0.831114 0.362934
vt 0.824931 0.362934
vt 0.826359 0.31179
vt 0.83434 0.31179
vt 0.826359 0.257496
vt 0.83434 0.257496
vt 0.813681 0.257496
vt 0.826359 0.257496
vt 0.83434 0.257496
vt 0.8057 0.257496
vt 0.790212 0.257496
vt 0.790212 0.257496
vt 0.770944 0.257496
vt 0.770944 0.257496
vt 0.826359 0.257496
vt 0.813681 0.257496
vt 0.8057 0.257496
vt 0.83434 0.257496
vt 0.849828 0.257496
vt 0.849828 0.257496
vt 0.869097 0.257496
vt 0.869097 0.257496
vt 0.869097 0.293048
vt 0.869097 0.276238
vt 0.869097 0.276238
vt 0.869097 0.293048
vt 0.939361 0.293824
vt 0.939361 0.293824
vt 0.955556 0.293656
vt 0.955556 0.293656
vt 0.961634 0.283186
vt 0.961634 0.283186
vt 0.962062 0.259193
vt 0.962062 0.259193
vt 0.919897 0.276462
vt 0.92016 0.26168
vt 0.92016 0.26168
vt 0.919897 0.276462
vt 0.939361 0.293824
vt 0.955556 0.293656
vt 0.961634 0.283186
vt 0.915209 0.280985
vt 0.869097 0.293048
vt 0.869097 0.276238
vt 0.919897 0.276462
vt 0.957111 0.278498
vt 0.92016 0.26168
vt 0.962062 0.259193
vt 0.915637 0.256992
vt 0.957375 0.263716
vt 0.869097 0.276238
vt 0.939361 0.293824
vt 0.869097 0.293048
vt 0.915209 0.280985
vt 0.955556 0.293656
vt 0.961634 0.283186
vt 0.957111 0.278498
vt 0.919897 0.276462
vt 0.957375 0.263716
vt 0.915637 0.256992
vt 0.962062 0.259193
vt 0.92016 0.26168
vt 0.869097 0.276238
vt 0.915209 0.280985
vt 0.915209 0.280985
vt 0.869097 0.276238
vt 0.915637 0.256992
vt 0.962062 0.259193
vt 0.962062 0.259193
vt 0.915637 0.256992
vt 0.915209 0.280985
vt 0.915637 0.256992
vt 0.915637 0.256992
vt 0.915209 0.280985
vt 0.919897 0.276462
vt 0.919897 0.276462
vt 0.957111 0.278498
vt 0.957111 0.278498
vt 0.92016 0.26168
vt 0.957375 0.263716
vt 0.957375 0.263716
vt 0.92016 0.26168
vt 0.957111 0.278498
vt 0.957111 0.278498
vt 0.957375 0.263716
vt 0.957375 0.263716
vt 0.770944 0.285904
vt 0.770944 0.266426
vt 0.770944 0.266426
vt 0.770944 0.285904
vt 0.716967 0.293778
vt 0.716967 0.293778
vt 0.716967 0.2743
vt 0.716967 0.2743
vt 0.770944 0.266426
vt 0.716967 0.2743
vt 0.716967 0.293778
vt 0.770944 0.285904
vt 0.770944 0.285904
vt 0.716967 0.293778
vt 0.716967 0.293778
vt 0.770944 0.285904
vt 0.770944 0.285904
vt 0.716967 0.293778
vt 0.716967 0.2743
vt 0.770944 0.266426
vt 0.770944 0.266426
vt 0.716967 0.2743
vt 0.716967 0.2743
vt 0.770944 0.266426
vt 0.798905 0.371111
vt 0.785255 0.371111
vt 0.809876 0.371111
vt 0.81553 0.371111
vt 0.798905 0.371111
vt 0.830165 0.371111
vt 0.785255 0.371111
vt 0.824511 0.371111
vt 0.81553 0.371111
vt 0.854786 0.371111
vt 0.809876 0.371111
vt 0.841136 0.371111
vt 0.824511 0.371111
vt 0.854786 0.371111
vt 0.830165 0.371111
vt 0.841136 0.371111
vn 0 0 -1
vn 0 0 -1
vn 0 0 -1
vn 0 0 -1
vn -0.9236048 0.3825656 -0.02444718
vn -0.9236048 0.3825656 -0.02444718
vn -0.9238228 0.3826536 -0.01130307
vn -0.923807 0.3826473 -0.01271459
vn -0.9238825 0.3826763 0
vn -0.9238825 0.3826763 0
vn 0 0 -1
vn 0 0 -1
vn 0 0 -1
vn 0 0 -1
vn 0 0 -1
vn 0 0 -1
vn 0 0 -1
vn 0 0 -1
vn 0.9236048 -0.3825657 -0.02444719
vn 0.9236048 -0.3825657 -0.02444719
vn 0.9238228 -0.3826536 -0.01130308
vn 0.923807 -0.3826473 -0.0127146
vn 0.9238825 -0.3826763 0
vn 0.9238825 -0.3826763 0
vn -0.3823351 -0.8934973 -0.235547
vn -0.95135 -0.2335935 -0.2009155
vn -0.2335935 -0.95135 -0.2009155
vn -0.8934973 -0.3823351 -0.235547
vn -0.95135 0.2335935 -0.2009155
vn -0.8934973 0.3823352 -0.235547
vn -0.9979075 0 -0.06465828
vn -0.9979075 0 -0.06465828
vn -1 0 0
vn -1 0 0
vn -0.2335935 0.95135 -0.2009155
vn -0.3823351 0.8934973 -0.235547
vn 0.2335935 0.95135 -0.2009155
vn 0.3823351 0.8934973 -0.235547
vn 0 0.9979075 -0.06465829
vn 0 0.9979075 -0.06465829
vn 0 1 0
vn 0 1 0
vn 0.8501802 0.3639075 0.38048
vn 0.3639075 0.8501802 0.38048
vn 0.218768 0.9208062 0.3228877
vn 0.9208062 0.218768 0.3228877
vn 0.8501802 -0.3639075 0.38048
vn 0.9208062 -0.218768 0.3228877
vn 0.3639075 -0.8501802 0.38048
vn 0.9945624 0 0.1041415
vn 0.9945624 0 0.1041415
vn 1 0 0
vn 1 0 0
vn 0.218768 -0.9208062 0.3228877
vn -0.3639075 -0.8501802 0.38048
vn -0.218768 -0.9208062 0.3228877
vn 0 -0.9945624 0.1041415
vn 0 -0.9945624 0.1041415
vn 0 -1 0
vn 0 -1 0
vn 0.3823351 -0.8934973 -0.235547
vn -0.3823351 -0.8934973 -0.235547
vn -0.2335935 -0.95135 -0.2009155
vn 0.2335935 -0.95135 -0.2009155
vn 0.8934973 -0.3823351 -0.235547
vn 0 -0.9979075 -0.06465828
vn 0 -0.9979075 -0.06465828
vn 0 -1 0
vn 0 -1 0
vn 0.95135 -0.2335935 -0.2009155
vn 0.8934973 0.3823351 -0.235547
vn 0.95135 0.2335935 -0.2009155
vn 0.3823351 0.8934973 -0.235547
vn 0.2335935 0.95135 -0.2009155
vn 0.9979075 0 -0.06465828
vn 0.9979075 0 -0.06465828
vn 1 0 0
vn 1 0 0
vn -0.8501802 -0.3639075 0.38048
vn -0.3639075 -0.8501802 0.38048
vn -0.218768 -0.9208062 0.3228877
vn -0.9208062 -0.2187681 0.3228877
vn -0.8501802 0.3639076 0.38048
vn -0.9208062 0.2187681 0.3228877
vn -0.3639075 0.8501802 0.38048
vn -0.9945624 0 0.1041415
vn -0.9945624 0 0.1041415
vn -1 0 0
vn -1 0 0
vn -0.218768 0.9208062 0.3228877
vn 0.3639075 0.8501802 0.38048
vn 0.218768 0.9208062 0.3228877
vn 0 0.9945624 0.1041415
vn 0 0.9945624 0.1041415
vn 0 1 0
vn 0 1 0
vn -0.9238228 -0.3826536 -0.01130308
vn -0.9238825 -0.3826763 0
vn -0.9238825 -0.3826763 0
vn -0.923807 -0.3826473 -0.0127146
vn -0.9236048 -0.3825656 -0.0244472
vn -0.9236048 -0.3825656 -0.0244472
vn -0.3826473 -0.923807 -0.01271459
vn -0.3826763 -0.9238825 0
vn -0.3826763 -0.9238825 0
vn -0.3826536 -0.9238228 -0.01130307
vn -0.3825656 -0.9236048 -0.02444718
vn -0.3825656 -0.9236048 -0.02444718
vn 0.3825657 -0.9236048 -0.02444718
vn 0.3825657 -0.9236048 -0.02444718
vn 0.3826473 -0.923807 -0.01271459
vn 0.3826536 -0.9238228 -0.01130307
vn 0.3826763 -0.9238825 0
vn 0.3826763 -0.9238825 0
vn 0.3825657 0.9236048 -0.02444718
vn 0.3825657 0.9236048 -0.02444718
vn 0.3826536 0.9238228 -0.01130308
vn 0.3826473 0.923807 -0.01271459
vn 0.3826763 0.9238825 0
vn 0.3826763 0.9238825 0
vn 0.9236048 0.3825657 -0.02444718
vn 0.9236048 0.3825657 -0.02444718
vn 0.923807 0.3826473 -0.01271459
vn 0.9238228 0.3826536 -0.01130307
vn 0.9238825 0.3826763 0
vn 0.9238825 0.3826763 0
vn -0.3825656 0.9236048 -0.02444717
vn -0.3825656 0.9236048 -0.02444717
vn -0.3826473 0.923807 -0.01271459
vn -0.3826536 0.9238228 -0.01130307
vn -0.3826763 0.9238825 0
vn -0.3826763 0.9238825 0
vn 0 0 -1
vn 0 0 -1
vn 0 0 -1
vn 0 0 -1
vn 0 0 -1
vn 0 0 -1
vn 0 0 -1
vn 0 0 -1
vn 0 0 -1
vn 0 0 -1
vn 0 0 -1
vn 0 0 -1
vn 0 0 -1
vn 0 0 -1
vn 0 0 -1
vn 0 0 -1
vn 0 -0.8808727 0.4733532
vn 0 -1 0
vn 0 -1 0
vn 0 -0.8808727 0.4733532
vn 0 -0.5400646 0.8416236
vn 0 -0.5400646 0.8416236
vn 0 -0.03918131 0.9992321
vn 0 -0.03918131 0.9992321
vn 0 0.6684382 0.7437678
vn 0 0.6684382 0.7437678
vn 0 0.8339228 0.5518811
vn 0 0.8339228 0.5518811
vn 0 0.833928 0.5518732
vn 0 0.833928 0.5518732
vn 0 0.833928 0.5518732
vn 0 0.833928 0.5518732
vn 1 0 0
vn 1 0 0
vn 1 0 0
vn 1 0 0
vn 1 0 0
vn 1 0 0
vn 1 0 0
vn 1 0 0
vn 1 0 0
vn 1 0 0
vn 1 0 0
vn 1 0 0
vn -1 0 0
vn -1 0 0
vn -1 0 0
vn -1 0 0
vn -1 0 0
vn -1 0 0
vn -1 0 0
vn -1 0 0
vn -1 0 0
vn -1 0 0
vn -1 0 0
vn -1 0 0
vn 0 0.5173379 -0.8557812
vn 0 0.5173379 -0.8557812
vn 0 0.5173379 -0.8557812
vn 0 0.5173379 -0.8557812
vn 0 0.5762514 -0.8172725
vn 0 0.5762514 -0.8172725
vn 0 0.5762514 -0.8172725
vn 0 0.5762514 -0.8172725
vn 0 -0.833923 -0.5518808
vn 0 -0.833923 -0.5518808
vn 0 -0.833923 -0.5518808
vn 0 -0.833923 -0.5518808
vn 0 0.5822025 -0.8130438
vn 0 0.5822025 -0.8130438
vn 0 0.5822025 -0.8130438
vn 0 0.5822025 -0.8130438
vn 0 -0.5822026 0.8130438
vn 0 -0.5822026 0.8130438
vn 0 -0.5822026 0.8130438
vn 0 -0.5822026 0.8130438
vn 0 -0.8339283 -0.5518728
vn 0 -0.8339283 -0.5518728
vn 0 -0.8339283 -0.5518728
vn 0 -0.8339283 -0.5518728
vn 0 1 0
vn 0 1 0
vn 0 1 0
vn 0 1 0
vn 0 -1 0
vn 0 -1 0
vn 0 -1 0
vn 0 -1 0
vn 1 0 0
vn 1 0 0
vn 1 0 0
vn 1 0 0
vn 0 0.3799773 0.9249958
vn 0 0.3799773 0.9249958
vn 0 0.3799773 0.9249958
vn 0 0.3799773 0.9249958
vn -1 0 0
vn -1 0 0
vn -1 0 0
vn -1 0 0
vn 0 -0.3799773 -0.9249958
vn 0 -0.3799773 -0.9249958
vn 0 -0.3799773 -0.9249958
vn 0 -0.3799773 -0.9249958
vn 0 0 1
vn 0 0 1
vn 0 0 1
vn 0 0 1
vn 0 0 1
vn 0 0 1
vn 0 0 1
vn 0 0 1
vn 0 0 1
vn 0 0 1
vn 0 0 1
vn 0 0 1
vn 0 0 1
vn 0 0 1
vn 0 0 1
vn 0 0 1
g BasicSprinklerTop_0
f 3/3/3 2/2/2 1/1/1
f 4/4/4 3/3/3 1/1/1
f 7/7/7 6/6/6 5/5/5
f 8/8/8 7/7/7 5/5/5
f 9/9/9 7/7/7 8/8/8
f 10/10/10 9/9/9 8/8/8
f 13/13/13 12/12/12 11/11/11
f 14/14/14 13/13/13 11/11/11
f 17/17/17 16/16/16 15/15/15
f 18/18/18 17/17/17 15/15/15
f 21/21/21 20/20/20 19/19/19
f 22/22/22 21/21/21 19/19/19
f 23/23/23 21/21/21 22/22/22
f 24/24/24 23/23/23 22/22/22
f 27/27/27 26/26/26 25/25/25
f 26/26/26 28/28/28 25/25/25
f 26/26/26 29/29/29 28/28/28
f 29/29/29 30/30/30 28/28/28
f 31/31/31 29/29/29 26/26/26
f 32/32/32 31/31/31 26/26/26
f 33/33/33 31/31/31 32/32/32
f 34/34/34 33/33/33 32/32/32
f 29/29/29 35/35/35 30/30/30
f 35/35/35 36/36/36 30/30/30
f 35/35/35 37/37/37 36/36/36
f 37/37/37 38/38/38 36/36/36
f 39/39/39 37/37/37 35/35/35
f 40/40/40 39/39/39 35/35/35
f 41/41/41 39/39/39 40/40/40
f 42/42/42 41/41/41 40/40/40
f 45/45/45 44/44/44 43/43/43
f 46/46/46 45/45/45 43/43/43
f 46/46/46 43/43/43 47/47/47
f 48/48/48 46/46/46 47/47/47
f 48/48/48 47/47/47 49/49/49
f 50/50/50 46/46/46 48/48/48
f 51/51/51 50/50/50 48/48/48
f 52/52/52 50/50/50 51/51/51
f 53/53/53 52/52/52 51/51/51
f 54/54/54 48/48/48 49/49/49
f 54/54/54 49/49/49 55/55/55
f 56/56/56 54/54/54 55/55/55
f 57/57/57 54/54/54 56/56/56
f 58/58/58 57/57/57 56/56/56
f 59/59/59 57/57/57 58/58/58
f 60/60/60 59/59/59 58/58/58
f 63/63/63 62/62/62 61/61/61
f 64/64/64 63/63/63 61/61/61
f 64/64/64 61/61/61 65/65/65
f 66/66/66 63/63/63 64/64/64
f 67/67/67 66/66/66 64/64/64
f 68/68/68 66/66/66 67/67/67
f 69/69/69 68/68/68 67/67/67
f 70/70/70 64/64/64 65/65/65
f 70/70/70 65/65/65 71/71/71
f 72/72/72 70/70/70 71/71/71
f 72/72/72 71/71/71 73/73/73
f 74/74/74 72/72/72 73/73/73
f 75/75/75 70/70/70 72/72/72
f 76/76/76 75/75/75 72/72/72
f 77/77/77 75/75/75 76/76/76
f 78/78/78 77/77/77 76/76/76
f 81/81/81 80/80/80 79/79/79
f 82/82/82 81/81/81 79/79/79
f 82/82/82 79/79/79 83/83/83
f 84/84/84 82/82/82 83/83/83
f 84/84/84 83/83/83 85/85/85
f 86/86/86 82/82/82 84/84/84
f 87/87/87 86/86/86 84/84/84
f 88/88/88 86/86/86 87/87/87
f 89/89/89 88/88/88 87/87/87
f 90/90/90 84/84/84 85/85/85
f 90/90/90 85/85/85 91/91/91
f 92/92/92 90/90/90 91/91/91
f 93/93/93 90/90/90 92/92/92
f 94/94/94 93/93/93 92/92/92
f 95/95/95 93/93/93 94/94/94
f 96/96/96 95/95/95 94/94/94
f 99/99/99 98/98/98 97/97/97
f 98/98/98 100/100/100 97/97/97
f 97/97/97 100/100/100 101/101/101
f 100/100/100 102/102/102 101/101/101
f 105/105/105 104/104/104 103/103/103
f 104/104/104 106/106/106 103/103/103
f 103/103/103 106/106/106 107/107/107
f 106/106/106 108/108/108 107/107/107
f 111/111/111 110/110/110 109/109/109
f 112/112/112 111/111/111 109/109/109
f 113/113/113 111/111/111 112/112/112
f 114/114/114 113/113/113 112/112/112
f 117/117/117 116/116/116 115/115/115
f 118/118/118 117/117/117 115/115/115
f 119/119/119 117/117/117 118/118/118
f 120/120/120 119/119/119 118/118/118
f 123/123/123 122/122/122 121/121/121
f 124/124/124 123/123/123 121/121/121
f 125/125/125 123/123/123 124/124/124
f 126/126/126 125/125/125 124/124/124
f 129/129/129 128/128/128 127/127/127
f 130/130/130 129/129/129 127/127/127
f 131/131/131 129/129/129 130/130/130
f 132/132/132 131/131/131 130/130/130
f 135/135/135 134/134/134 133/133/133
f 136/136/136 135/135/135 133/133/133
f 139/139/139 138/138/138 137/137/137
f 140/140/140 139/139/139 137/137/137
f 143/143/143 142/142/142 141/141/141
f 144/144/144 143/143/143 141/141/141
f 147/147/147 146/146/146 145/145/145
f 148/148/148 147/147/147 145/145/145
f 151/151/151 150/150/150 149/149/149
f 152/152/152 151/151/151 149/149/149
f 149/149/149 153/153/153 152/152/152
f 153/153/153 154/154/154 152/152/152
f 153/153/153 155/155/155 154/154/154
f 155/155/155 156/156/156 154/154/154
f 157/157/157 156/156/156 155/155/155
f 158/158/158 157/157/157 155/155/155
f 158/158/158 159/159/159 157/157/157
f 159/159/159 160/160/160 157/157/157
f 163/163/163 162/162/162 161/161/161
f 164/164/164 163/163/163 161/161/161
f 167/167/167 166/166/166 165/165/165
f 168/168/168 167/167/167 165/165/165
f 168/168/168 165/165/165 169/169/169
f 170/170/170 168/168/168 169/169/169
f 167/167/167 168/168/168 171/171/171
f 172/172/172 167/167/167 171/171/171
f 171/171/171 168/168/168 173/173/173
f 174/174/174 167/167/167 172/172/172
f 168/168/168 175/175/175 173/173/173
f 176/176/176 174/174/174 172/172/172
f 173/173/173 175/175/175 176/176/176
f 175/175/175 174/174/174 176/176/176
f 179/179/179 178/178/178 177/177/177
f 178/178/178 180/180/180 177/177/177
f 178/178/178 181/181/181 180/180/180
f 181/181/181 182/182/182 180/180/180
f 180/180/180 182/182/182 183/183/183
f 184/184/184 180/180/180 183/183/183
f 183/183/183 182/182/182 185/185/185
f 186/186/186 180/180/180 184/184/184
f 182/182/182 187/187/187 185/185/185
f 188/188/188 186/186/186 184/184/184
f 185/185/185 187/187/187 188/188/188
f 187/187/187 186/186/186 188/188/188
f 191/191/191 190/190/190 189/189/189
f 192/192/192 191/191/191 189/189/189
f 195/195/195 194/194/194 193/193/193
f 196/196/196 195/195/195 193/193/193
f 199/199/199 198/198/198 197/197/197
f 200/200/200 199/199/199 197/197/197
f 203/203/203 202/202/202 201/201/201
f 204/204/204 203/203/203 201/201/201
f 207/207/207 206/206/206 205/205/205
f 208/208/208 207/207/207 205/205/205
f 211/211/211 210/210/210 209/209/209
f 212/212/212 211/211/211 209/209/209
f 215/215/215 214/214/214 213/213/213
f 216/216/216 215/215/215 213/213/213
f 219/219/219 218/218/218 217/217/217
f 220/220/220 219/219/219 217/217/217
f 223/223/223 222/222/222 221/221/221
f 224/224/224 223/223/223 221/221/221
f 227/227/227 226/226/226 225/225/225
f 228/228/228 227/227/227 225/225/225
f 231/231/231 230/230/230 229/229/229
f 232/232/232 231/231/231 229/229/229
f 235/235/235 234/234/234 233/233/233
f 236/236/236 235/235/235 233/233/233
f 239/239/239 238/238/238 237/237/237
f 240/240/240 239/239/239 237/237/237
f 237/237/237 238/238/238 241/241/241
f 242/242/242 239/239/239 240/240/240
f 238/238/238 243/243/243 241/241/241
f 244/244/244 242/242/242 240/240/240
f 241/241/241 243/243/243 245/245/245
f 246/246/246 242/242/242 244/244/244
f 243/243/243 247/247/247 245/245/245
f 248/248/248 246/246/246 244/244/244
f 245/245/245 247/247/247 249/249/249
f 250/250/250 246/246/246 248/248/248
f 247/247/247 251/251/251 249/249/249
f 252/252/252 250/250/250 248/248/248
f 249/249/249 251/251/251 252/252/252
f 251/251/251 250/250/250 252/252/252
