g BatWing
v -0.605683 0.316419 0.115309
v -0.471661 0.414808 0.203908
v -0.424786 0.427095 0.209118
v -0.605683 0.316419 0.115309
v -0.498284 0.391561 0.162957
v -0.471661 0.414808 0.203908
v 0.105487 -0.515333 0.112556
v 0.21673 -0.518087 0.085086
v 0.109194 -0.513815 0.110316
v -0.605683 0.316419 0.115309
v -0.612823 0.299455 0.129151
v -0.424786 0.427095 0.209118
v -0.605683 0.316419 0.115309
v -0.424786 0.427095 0.209118
v -0.471661 0.414808 0.203908
v -0.009754 0.423946 0.152335
v -0.269362 0.465444 0.166858
v -0.424786 0.427095 0.209118
v 0.105487 -0.515333 0.112556
v 0.109194 -0.513815 0.110316
v 0.21673 -0.518087 0.085086
v -0.226549 -0.556335 0.045641
v -0.431528 -0.60227 -0.054047
v -0.49061 -0.532095 -0.032995
v -0.277884 -0.47978 0.063244
v -0.073233 -0.450874 0.124455
v -0.393891 -0.238128 0.102049
v -0.041051 -0.523117 0.112214
v -0.587568 -0.293643 0.012207
v 0.105487 -0.515333 0.112556
v -0.67904 -0.039092 0.054863
v 0.11527 -0.468784 0.115608
v 0.259299 -0.502701 0.079798
v 0.152029 -0.326101 0.120286
v 0.20901 -0.522095 0.085285
v 0.265461 -0.532518 0.069021
v -0.160573 -0.232364 0.151529
v -0.250443 0.015033 0.179267
v -0.511103 0.020053 0.140177
v -0.56605 0.146194 0.155752
v -0.72166 0.079384 0.068276
v -0.737545 0.127353 0.063036
v 0.330531 -0.521819 0.060117
v 0.541854 -0.480735 0.034103
v 0.365365 -0.533536 0.048502
v 0.298377 -0.544771 0.058261
v 0.579435 -0.491879 0.019524
v 0.817232 -0.33398 -0.00847
v 0.425607 -0.436504 0.062938
v 0.610126 -0.268718 0.046871
v 0.775861 -0.324904 0.008927
v 0.908984 0.030035 0.002542
v 0.955397 0.025979 -0.015277
v 1.019338 0.375318 -0.012493
v 0.195662 -0.118315 0.125908
v 0.226066 0.123547 0.131794
v 0.715048 0.055441 0.043765
v 0.653753 0.36304 0.054706
v 0.845154 0.375199 0.015247
v 0.4883 0.501703 0.047344
v -0.290216 0.173937 0.1935
v -0.320826 0.274045 0.1979
v 0.179005 0.328097 0.139939
v -0.009754 0.423946 0.152335
v 0.339617 0.48114 0.080784
v -0.58748 0.204558 0.155547
v -0.60414 0.25941 0.146336
v -0.748811 0.170385 0.049731
v -0.751012 0.202577 0.035307
v -0.611663 0.30021 0.131723
v -0.424786 0.427095 0.209118
v -0.383207 0.345057 0.196139
v -0.269362 0.465444 0.166858
v -0.100938 0.504493 0.11443
v -0.015065 0.518876 0.089136
v 0.018632 0.521711 0.077752
v 0.523518 0.505833 0.035233
v 0.532494 0.513734 0.02767
v 0.030526 0.526112 0.067054
v 1.034461 0.501356 -0.011713
v 0.155479 0.528056 0.050708
v 0.90329 0.514091 -0.003299
v 0.528348 0.52352 0.022383
v -0.226549 -0.556335 0.045641
v -0.355461 -0.582307 -0.035365
v -0.431528 -0.60227 -0.054047
v -0.20755 -0.550342 0.038638
v -0.036448 -0.522227 0.107389
v -0.041051 -0.523117 0.112214
v 0.105487 -0.515333 0.112556
v 0.109194 -0.513815 0.110316
v 0.265461 -0.532518 0.069021
v 0.298377 -0.544771 0.058261
v 0.29544 -0.538595 0.061113
v 0.273518 -0.528024 0.06937
v 0.21673 -0.518087 0.085086
v 0.20901 -0.522095 0.085285
v 0.105487 -0.515333 0.112556
v -0.605683 0.316419 0.115309
v -0.424786 0.427095 0.209118
v -0.611663 0.30021 0.131723
v -0.751012 0.202577 0.035307
v -0.739705 0.218031 0.026711
v -0.693986 0.247149 0.041691
v -0.592952 0.320333 0.097995
v -0.498284 0.391561 0.162957
v -0.60878 0.256392 0.13605
v -0.384367 0.344302 0.193567
v -0.424786 0.427095 0.209118
v -0.322658 0.272821 0.192977
v -0.009754 0.423946 0.152335
v -0.424786 0.427095 0.209118
v -0.594807 0.199662 0.135855
v -0.572157 0.141701 0.128418
v -0.752199 0.117561 0.023653
v -0.758091 0.164348 0.029158
v -0.753332 0.201068 0.030164
v -0.612823 0.299455 0.129151
v -0.424786 0.427095 0.209118
v -0.733874 0.070398 0.013608
v -0.70201 -0.005573 -0.004795
v -0.522588 0.036812 0.110348
v -0.427859 -0.160697 0.078256
v -0.253314 0.019223 0.17181
v -0.655503 -0.138782 -0.035378
v -0.602346 -0.258315 -0.060009
v -0.291743 0.172814 0.186667
v 0.226066 0.123547 0.131794
v 0.179005 0.328097 0.139939
v 0.653753 0.36304 0.054706
v -0.333752 -0.342891 0.049737
v -0.0872 -0.416652 0.121078
v -0.286053 -0.401828 0.042385
v -0.550534 -0.293256 -0.060559
v -0.055927 -0.484491 0.1114
v 0.105487 -0.515333 0.112556
v -0.169065 -0.213006 0.145581
v 0.152029 -0.326101 0.120286
v 0.11527 -0.468784 0.115608
v 0.259299 -0.502701 0.079798
v 0.20901 -0.522095 0.085285
v 0.265461 -0.532518 0.069021
v 0.195662 -0.118315 0.125908
v 0.610126 -0.268718 0.046871
v 0.425607 -0.436504 0.062938
v 0.541854 -0.480735 0.034103
v 0.330531 -0.521819 0.060117
v 0.365365 -0.533536 0.048502
v 0.298377 -0.544771 0.058261
v 0.579435 -0.491879 0.019524
v 0.817232 -0.33398 -0.00847
v 0.775861 -0.324904 0.008927
v 0.908984 0.030035 0.002542
v 0.955397 0.025979 -0.015277
v 1.019338 0.375318 -0.012493
v 0.715048 0.055441 0.043765
v 0.845154 0.375199 0.015247
v 0.4883 0.501702 0.047344
v 0.339617 0.48114 0.080784
v -0.100938 0.504493 0.11443
v -0.269362 0.465444 0.166858
v -0.015065 0.518876 0.089136
v 0.018632 0.521711 0.077752
v 0.523518 0.505833 0.035233
v 0.532494 0.513734 0.02767
v 1.034461 0.501356 -0.011713
v 0.030526 0.526112 0.067054
v 0.90329 0.514091 -0.003299
v 0.155479 0.528056 0.050708
v 0.528348 0.52352 0.022383
v -0.286053 -0.401828 0.042385
v -0.550534 -0.293256 -0.060559
v -0.45272 -0.316049 -0.028269
v -0.261556 -0.399139 0.045617
v -0.049949 -0.484426 0.109134
v -0.055927 -0.484491 0.1114
v 0.105487 -0.515333 0.112556
v 0.109194 -0.513815 0.110316
v 0.265461 -0.532518 0.069021
v 0.29544 -0.538595 0.061113
v 0.298377 -0.544771 0.058261
v 0.273518 -0.528024 0.06937
v 0.21673 -0.518087 0.085086
v 0.20901 -0.522095 0.085285
v 0.105487 -0.515333 0.112556
v -0.605683 0.316419 0.115309
v -0.471661 0.414808 0.203908
v -0.498284 0.391561 0.162957
v -0.592952 0.320333 0.097995
v -0.693986 0.247149 0.041691
v -0.739705 0.218031 0.026711
v -0.753332 0.201068 0.030164
v -0.612823 0.299455 0.129151
vt 0.337532 0.927475
vt 0.435878 0.958569
vt 0.463289 0.955289
vt 0.337532 0.927475
vt 0.407749 0.957706
vt 0.435878 0.958569
vt 0.481663 0.623754
vt 0.513295 0.604007
vt 0.481371 0.622255
vt 0.337532 0.927475
vt 0.340417 0.910878
vt 0.463289 0.955289
vt 0.337532 0.927475
vt 0.463289 0.955289
vt 0.435878 0.958569
vt 0.609702 0.907547
vt 0.534152 0.96104
vt 0.463289 0.955289
vt 0.481663 0.623754
vt 0.481371 0.622255
vt 0.513295 0.604007
vt 0.347249 0.651425
vt 0.252151 0.657237
vt 0.243021 0.681343
vt 0.343217 0.673849
vt 0.43084 0.660801
vt 0.344503 0.725465
vt 0.428401 0.641602
vt 0.24323 0.725518
vt 0.481663 0.623754
vt 0.246564 0.772658
vt 0.493321 0.636648
vt 0.533398 0.612326
vt 0.527708 0.672334
vt 0.513513 0.605423
vt 0.53043 0.594151
vt 0.44094 0.712156
vt 0.454755 0.773582
vt 0.347231 0.783034
vt 0.347524 0.823312
vt 0.246808 0.805656
vt 0.245033 0.831162
vt 0.553814 0.598772
vt 0.623477 0.609973
vt 0.564399 0.590602
vt 0.539879 0.586408
vt 0.637313 0.600691
vt 0.739037 0.636263
vt 0.592617 0.630205
vt 0.676439 0.670365
vt 0.721567 0.645902
vt 0.83023 0.724706
vt 0.849988 0.716909
vt 0.937042 0.79559
vt 0.575997 0.724475
vt 0.629357 0.786736
vt 0.770133 0.744111
vt 0.811389 0.828773
vt 0.87773 0.818163
vt 0.792328 0.898055
vt 0.46834 0.822996
vt 0.473142 0.865315
vt 0.652391 0.850598
vt 0.609702 0.907547
vt 0.737896 0.901677
vt 0.346048 0.854597
vt 0.343467 0.885185
vt 0.242306 0.855829
vt 0.239926 0.878091
vt 0.340417 0.910878
vt 0.463289 0.955289
vt 0.460606 0.905454
vt 0.534152 0.96104
vt 0.607027 0.968703
vt 0.640473 0.971163
vt 0.651225 0.972541
vt 0.805908 0.89757
vt 0.811547 0.901113
vt 0.656017 0.97696
vt 0.967077 0.825266
vt 0.696223 0.962358
vt 0.929374 0.848205
vt 0.813215 0.906671
vt 0.347249 0.651425
vt 0.284498 0.646792
vt 0.252151 0.657237
vt 0.35394 0.643599
vt 0.429793 0.638479
vt 0.428401 0.641602
vt 0.481663 0.623754
vt 0.481371 0.622255
vt 0.53043 0.594151
vt 0.539879 0.586408
vt 0.537294 0.587387
vt 0.530185 0.592819
vt 0.513295 0.604007
vt 0.513513 0.605423
vt 0.481663 0.623754
vt 0.337532 0.927475
vt 0.463289 0.955289
vt 0.340417 0.910878
vt 0.239926 0.878091
vt 0.239186 0.896381
vt 0.263112 0.91532
vt 0.33473 0.939526
vt 0.407749 0.957706
vt 0.343467 0.885185
vt 0.460606 0.905454
vt 0.463289 0.955289
vt 0.473142 0.865315
vt 0.609702 0.907547
vt 0.463289 0.955289
vt 0.346048 0.854597
vt 0.347524 0.823312
vt 0.245033 0.831162
vt 0.242306 0.855829
vt 0.239926 0.878091
vt 0.340417 0.910878
vt 0.463289 0.955289
vt 0.246808 0.805656
vt 0.246564 0.772658
vt 0.347231 0.783034
vt 0.344503 0.725465
vt 0.454755 0.773582
vt 0.24323 0.725518
vt 0.243021 0.681343
vt 0.46834 0.822996
vt 0.629357 0.786736
vt 0.652391 0.850598
vt 0.811389 0.828773
vt 0.343217 0.673849
vt 0.43084 0.660801
vt 0.347249 0.651425
vt 0.252151 0.657237
vt 0.428401 0.641602
vt 0.481663 0.623754
vt 0.44094 0.712156
vt 0.527708 0.672334
vt 0.493321 0.636648
vt 0.533398 0.612326
vt 0.513513 0.605423
vt 0.53043 0.594151
vt 0.575997 0.724475
vt 0.676439 0.670365
vt 0.592617 0.630205
vt 0.623477 0.609973
vt 0.553814 0.598772
vt 0.564399 0.590602
vt 0.539879 0.586408
vt 0.637313 0.600691
vt 0.739037 0.636263
vt 0.721567 0.645902
vt 0.83023 0.724706
vt 0.849988 0.716909
vt 0.937042 0.79559
vt 0.770133 0.744111
vt 0.87773 0.818163
vt 0.792327 0.898055
vt 0.737896 0.901677
vt 0.607027 0.968703
vt 0.534152 0.96104
vt 0.640473 0.971163
vt 0.651225 0.972541
vt 0.805908 0.89757
vt 0.811547 0.901113
vt 0.967077 0.825266
vt 0.656017 0.97696
vt 0.929374 0.848205
vt 0.696223 0.962358
vt 0.813215 0.906671
vt 0.347249 0.651425
vt 0.252151 0.657237
vt 0.284498 0.646792
vt 0.35394 0.643599
vt 0.429793 0.638479
vt 0.428401 0.641602
vt 0.481663 0.623754
vt 0.481371 0.622255
vt 0.53043 0.594151
vt 0.537294 0.587387
vt 0.539879 0.586408
vt 0.530185 0.592819
vt 0.513295 0.604007
vt 0.513513 0.605423
vt 0.481663 0.623754
vt 0.337532 0.927475
vt 0.435878 0.958569
vt 0.407749 0.957706
vt 0.33473 0.939526
vt 0.263112 0.91532
vt 0.239186 0.896381
vt 0.239926 0.878091
vt 0.340417 0.910878
vn -0.6603463 0.6926821 0.2900594
vn -0.5334531 0.1435894 0.8335526
vn -0.02888191 0.03241699 0.999057
vn -0.6603463 0.6926821 0.2900594
vn -0.5192248 0.8404509 -0.1550738
vn -0.5334531 0.1435894 0.8335526
vn 0.0274203 -0.9299519 -0.3666571
vn -0.2001943 0.318046 -0.9266979
vn -0.1914075 -0.2658657 -0.9448167
vn 0.6652594 -0.6740558 -0.3210588
vn 0.4049947 0.007713633 -0.9142864
vn 0.02214304 0.006900362 -0.999731
vn 0.6652594 -0.6740558 -0.3210588
vn 0.02214304 0.006900362 -0.999731
vn 0.5106352 -0.08727897 -0.8553562
vn -0.1139996 -0.250749 -0.9613162
vn -0.1328163 -0.1606603 -0.9780327
vn 0.02214304 0.006900362 -0.999731
vn 0.1653151 0.7203127 0.6736621
vn 0.2336282 0.1962714 0.9523105
vn 0.2001943 -0.3180461 0.9266979
vn -0.2220069 -0.5028839 0.8353567
vn -0.2870263 -0.4581297 0.8412688
vn -0.3221804 -0.3331929 0.8861051
vn -0.2740577 -0.2993487 0.913938
vn -0.09096514 -0.1764844 0.9800912
vn -0.2636107 -0.2518324 0.9311765
vn -0.1092072 -0.3305799 0.9374384
vn -0.3368487 -0.2921355 0.8950921
vn 0.07674072 -0.1353187 0.9878258
vn -0.3538577 -0.2738809 0.8943009
vn 0.1035043 -0.099862 0.9896032
vn 0.1798925 -0.1363544 0.97419
vn 0.1239795 -0.07625823 0.9893501
vn 0.2166069 -0.1738775 0.9606499
vn 0.1933859 -0.3019057 0.9335174
vn -0.04350389 -0.1362501 0.9897188
vn 0.002451197 -0.1028839 0.9946904
vn -0.248345 -0.2204859 0.9432448
vn -0.2387095 -0.1522612 0.9590799
vn -0.4012653 -0.2175492 0.889752
vn -0.506389 -0.04764394 0.8609878
vn 0.1759269 -0.2476131 0.9527526
vn 0.1980009 -0.1737105 0.9646866
vn 0.1940908 -0.4030139 0.894376
vn 0.186239 -0.335578 0.9234188
vn 0.2854533 -0.300728 0.9099885
vn 0.3433999 -0.1525863 0.9267114
vn 0.1718766 -0.1011079 0.9799161
vn 0.1798635 -0.06448752 0.9815755
vn 0.2326623 -0.1033189 0.9670541
vn 0.2215027 -0.03743656 0.9744409
vn 0.2430828 -0.04731996 0.9688507
vn 0.1509095 0.01508289 0.9884325
vn 0.1399167 -0.05510005 0.988629
vn 0.1525856 -0.0252842 0.9879668
vn 0.1859948 -0.02556808 0.982218
vn 0.1836098 0.06338225 0.9809537
vn 0.1982038 0.06672139 0.9778872
vn 0.1656547 0.3838701 0.9084065
vn 0.047893 -0.05274536 0.9974589
vn 0.05341594 0.01735979 0.9984214
vn 0.1523022 0.06557602 0.9861562
vn 0.1162765 0.2622471 0.9579698
vn 0.1491271 0.3145496 0.9374539
vn -0.2777744 -0.04682386 0.9595045
vn -0.3505046 0.004741671 0.9365491
vn -0.5901412 0.1023738 0.8007827
vn -0.6713662 0.3146063 0.6710367
vn -0.4452681 0.08934309 0.8909288
vn -0.02888191 0.03241699 0.999057
vn -0.007218535 0.0430127 0.9990484
vn 0.1325064 0.179798 0.9747384
vn 0.1056178 0.5267819 0.8434131
vn 0.0874451 0.6700906 0.7371106
vn 0.06860244 0.8673487 0.4929504
vn 0.1318811 0.2749368 0.9523745
vn 0.09104624 0.1316525 0.987106
vn 0.07191986 0.7848056 0.6155549
vn 0.09167752 0.03586042 0.9951428
vn 0.07083552 0.6561096 0.7513338
vn 0.07799564 0.3384294 0.9377538
vn 0.07504126 0.533617 0.8423905
vn -0.2220069 -0.5028839 0.8353567
vn 0.276356 -0.951569 -0.1346989
vn -0.2870263 -0.4581297 0.8412688
vn 0.2379984 -0.9621627 -0.1326635
vn 0.159861 -0.970768 -0.1790364
vn -0.1092072 -0.3305799 0.9374384
vn 0.0274203 -0.9299519 -0.3666571
vn -0.1914075 -0.2658657 -0.9448167
vn -0.186916 0.3673305 -0.9111151
vn -0.1699025 0.3570752 -0.9184936
vn -0.1699025 0.3570752 -0.9184936
vn -0.1779391 0.3619337 -0.9150637
vn -0.2001943 0.318046 -0.9266979
vn -0.2291138 0.1336685 -0.9641781
vn 0.0274203 -0.9299519 -0.3666571
vn -0.6603463 0.6926821 0.2900594
vn -0.02888191 0.03241699 0.999057
vn -0.4452681 0.08934309 0.8909288
vn -0.6713662 0.3146063 0.6710367
vn -0.6833531 0.6637294 0.3041248
vn -0.4871705 0.847022 -0.2126464
vn -0.5068998 0.8434731 -0.1777799
vn -0.5192248 0.8404509 -0.1550738
vn 0.3326123 0.1026822 -0.9374569
vn 0.01148611 0.003709054 -0.9999272
vn 0.02214304 0.006900362 -0.999731
vn -0.03802189 0.01365038 -0.9991836
vn -0.1139996 -0.250749 -0.9613162
vn 0.02214304 0.006900362 -0.999731
vn 0.2917529 0.1670457 -0.941794
vn 0.2854539 0.2362103 -0.9288277
vn 0.475169 0.2513732 -0.8432236
vn 0.5437749 0.09283017 -0.8340812
vn 0.6368279 -0.1446602 -0.7573134
vn 0.4049947 0.007713633 -0.9142864
vn 0.02214304 0.006900362 -0.999731
vn 0.43859 0.3467732 -0.8290882
vn 0.4424196 0.3520815 -0.8248051
vn 0.3228613 0.2735829 -0.9060425
vn 0.3522254 0.2953787 -0.8880815
vn 0.03322302 0.1173931 -0.9925297
vn 0.4461842 0.3528002 -0.8224669
vn 0.4484548 0.3739375 -0.8118244
vn -0.0234711 0.07117767 -0.9971874
vn -0.1477519 0.02713185 -0.9886523
vn -0.148836 -0.06183195 -0.9869269
vn -0.1836099 -0.06338236 -0.9809537
vn 0.3740896 0.3399461 -0.8628405
vn 0.1284306 0.1785045 -0.9755213
vn 0.3890987 0.3858105 -0.836512
vn 0.474004 0.5596647 -0.6797763
vn 0.1444481 0.2011263 -0.9688566
vn -0.05774284 0.1294102 -0.9899085
vn 0.08788261 0.1500005 -0.9847723
vn -0.1121645 0.07732849 -0.9906763
vn -0.08654937 0.1005738 -0.9911579
vn -0.1798925 0.1363544 -0.97419
vn -0.2166069 0.1738775 -0.9606499
vn -0.193386 0.3019057 -0.9335174
vn -0.1323201 0.05618062 -0.9896137
vn -0.1798635 0.06448752 -0.9815755
vn -0.1718767 0.1011079 -0.9799161
vn -0.1980009 0.1737105 -0.9646866
vn -0.1759269 0.247613 -0.9527526
vn -0.1940908 0.4030139 -0.894376
vn -0.186239 0.335578 -0.9234189
vn -0.2854533 0.3007279 -0.9099885
vn -0.3433999 0.1525863 -0.9267114
vn -0.2326623 0.1033189 -0.9670541
vn -0.2215027 0.03743656 -0.9744409
vn -0.2430827 0.04731997 -0.9688507
vn -0.1509094 -0.01508289 -0.9884325
vn -0.1859948 0.02556808 -0.982218
vn -0.1982036 -0.06672131 -0.9778873
vn -0.1656545 -0.3838682 -0.9084073
vn -0.1491273 -0.3145508 -0.9374534
vn -0.1056178 -0.5267822 -0.8434129
vn -0.1328163 -0.1606603 -0.9780327
vn -0.08744566 -0.6700959 -0.7371057
vn -0.06860528 -0.86733 -0.4929828
vn -0.1318806 -0.2749358 -0.9523748
vn -0.09104625 -0.1316525 -0.987106
vn -0.09167752 -0.03586043 -0.9951428
vn -0.07191984 -0.7848056 -0.6155548
vn -0.07799564 -0.3384295 -0.9377538
vn -0.07083552 -0.6561096 -0.7513338
vn -0.07504126 -0.533617 -0.8423905
vn -0.197976 0.3601032 0.911664
vn -0.2081873 0.3483091 0.9139686
vn -0.2081873 0.3483092 0.9139687
vn -0.1143263 0.4514076 0.8849637
vn 0.0332235 0.6561334 0.7539132
vn -0.06329333 0.5088016 0.8585539
vn 0.1653151 0.7203127 0.6736621
vn 0.2336282 0.1962714 0.9523105
vn 0.186916 -0.3673306 0.9111151
vn 0.1699025 -0.3570752 0.9184936
vn 0.1699025 -0.3570752 0.9184936
vn 0.1779391 -0.3619337 0.9150637
vn 0.2001943 -0.3180461 0.9266979
vn 0.2291139 -0.1336686 0.9641781
vn 0.1653151 0.7203127 0.6736621
vn 0.6652594 -0.6740558 -0.3210588
vn 0.5106352 -0.08727897 -0.8553562
vn 0.5192247 -0.8404509 0.1550738
vn 0.5068997 -0.8434731 0.1777799
vn 0.4871706 -0.847022 0.2126464
vn 0.6908019 -0.6391618 -0.3380309
vn 0.6368279 -0.1446602 -0.7573134
vn 0.4049947 0.007713633 -0.9142864
g BatWing_0
f 3/3/3 2/2/2 1/1/1
f 6/6/6 5/5/5 4/4/4
f 9/9/9 8/8/8 7/7/7
f 12/12/12 11/11/11 10/10/10
f 15/15/15 14/14/14 13/13/13
f 18/18/18 17/17/17 16/16/16
f 21/21/21 20/20/20 19/19/19
f 24/24/24 23/23/23 22/22/22
f 25/25/25 24/24/24 22/22/22
f 26/26/26 25/25/25 22/22/22
f 24/24/24 25/25/25 27/27/27
f 25/25/25 26/26/26 27/27/27
f 28/28/28 26/26/26 22/22/22
f 29/29/29 24/24/24 27/27/27
f 26/26/26 28/28/28 30/30/30
f 31/31/31 29/29/29 27/27/27
f 32/32/32 26/26/26 30/30/30
f 33/33/33 32/32/32 30/30/30
f 26/26/26 32/32/32 34/34/34
f 32/32/32 33/33/33 34/34/34
f 35/35/35 33/33/33 30/30/30
f 33/33/33 35/35/35 36/36/36
f 26/26/26 37/37/37 27/27/27
f 37/37/37 26/26/26 34/34/34
f 37/37/37 38/38/38 27/27/27
f 38/38/38 37/37/37 34/34/34
f 39/39/39 31/31/31 27/27/27
f 38/38/38 39/39/39 27/27/27
f 31/31/31 39/39/39 40/40/40
f 39/39/39 38/38/38 40/40/40
f 41/41/41 31/31/31 40/40/40
f 42/42/42 41/41/41 40/40/40
f 43/43/43 33/33/33 36/36/36
f 33/33/33 43/43/43 44/44/44
f 45/45/45 43/43/43 36/36/36
f 43/43/43 45/45/45 44/44/44
f 46/46/46 45/45/45 36/36/36
f 45/45/45 47/47/47 44/44/44
f 47/47/47 48/48/48 44/44/44
f 49/49/49 33/33/33 44/44/44
f 50/50/50 49/49/49 44/44/44
f 33/33/33 49/49/49 34/34/34
f 49/49/49 50/50/50 34/34/34
f 48/48/48 51/51/51 44/44/44
f 51/51/51 50/50/50 44/44/44
f 51/51/51 48/48/48 52/52/52
f 50/50/50 51/51/51 52/52/52
f 48/48/48 53/53/53 52/52/52
f 53/53/53 54/54/54 52/52/52
f 50/50/50 55/55/55 34/34/34
f 55/55/55 50/50/50 56/56/56
f 55/55/55 38/38/38 34/34/34
f 38/38/38 55/55/55 56/56/56
f 57/57/57 50/50/50 52/52/52
f 50/50/50 57/57/57 56/56/56
f 58/58/58 57/57/57 52/52/52
f 57/57/57 58/58/58 56/56/56
f 54/54/54 59/59/59 52/52/52
f 59/59/59 58/58/58 52/52/52
f 59/59/59 54/54/54 60/60/60
f 58/58/58 59/59/59 60/60/60
f 61/61/61 38/38/38 56/56/56
f 62/62/62 61/61/61 56/56/56
f 38/38/38 61/61/61 40/40/40
f 61/61/61 62/62/62 40/40/40
f 58/58/58 63/63/63 56/56/56
f 63/63/63 62/62/62 56/56/56
f 63/63/63 58/58/58 64/64/64
f 62/62/62 63/63/63 64/64/64
f 65/65/65 58/58/58 60/60/60
f 58/58/58 65/65/65 64/64/64
f 62/62/62 66/66/66 40/40/40
f 66/66/66 62/62/62 67/67/67
f 66/66/66 42/42/42 40/40/40
f 42/42/42 66/66/66 67/67/67
f 68/68/68 42/42/42 67/67/67
f 69/69/69 68/68/68 67/67/67
f 70/70/70 69/69/69 67/67/67
f 71/71/71 70/70/70 67/67/67
f 62/62/62 72/72/72 67/67/67
f 72/72/72 71/71/71 67/67/67
f 72/72/72 62/62/62 64/64/64
f 71/71/71 72/72/72 64/64/64
f 73/73/73 71/71/71 64/64/64
f 74/74/74 73/73/73 64/64/64
f 65/65/65 74/74/74 64/64/64
f 74/74/74 65/65/65 60/60/60
f 75/75/75 74/74/74 60/60/60
f 76/76/76 75/75/75 60/60/60
f 77/77/77 76/76/76 60/60/60
f 76/76/76 77/77/77 78/78/78
f 54/54/54 77/77/77 60/60/60
f 77/77/77 54/54/54 78/78/78
f 79/79/79 76/76/76 78/78/78
f 54/54/54 80/80/80 78/78/78
f 81/81/81 79/79/79 78/78/78
f 80/80/80 82/82/82 78/78/78
f 83/83/83 81/81/81 78/78/78
f 82/82/82 83/83/83 78/78/78
f 86/86/86 85/85/85 84/84/84
f 85/85/85 87/87/87 84/84/84
f 87/87/87 88/88/88 84/84/84
f 88/88/88 89/89/89 84/84/84
f 89/89/89 88/88/88 90/90/90
f 88/88/88 91/91/91 90/90/90
f 94/94/94 93/93/93 92/92/92
f 95/95/95 94/94/94 92/92/92
f 96/96/96 95/95/95 92/92/92
f 97/97/97 96/96/96 92/92/92
f 96/96/96 97/97/97 98/98/98
f 101/101/101 100/100/100 99/99/99
f 102/102/102 101/101/101 99/99/99
f 103/103/103 102/102/102 99/99/99
f 104/104/104 103/103/103 99/99/99
f 105/105/105 104/104/104 99/99/99
f 106/106/106 105/105/105 99/99/99
f 109/109/109 108/108/108 107/107/107
f 108/108/108 110/110/110 107/107/107
f 110/110/110 108/108/108 111/111/111
f 108/108/108 112/112/112 111/111/111
f 110/110/110 113/113/113 107/107/107
f 113/113/113 110/110/110 114/114/114
f 113/113/113 115/115/115 107/107/107
f 115/115/115 113/113/113 114/114/114
f 115/115/115 116/116/116 107/107/107
f 116/116/116 117/117/117 107/107/107
f 117/117/117 118/118/118 107/107/107
f 118/118/118 119/119/119 107/107/107
f 120/120/120 115/115/115 114/114/114
f 121/121/121 120/120/120 114/114/114
f 122/122/122 121/121/121 114/114/114
f 121/121/121 122/122/122 123/123/123
f 124/124/124 122/122/122 114/114/114
f 122/122/122 124/124/124 123/123/123
f 125/125/125 121/121/121 123/123/123
f 126/126/126 125/125/125 123/123/123
f 110/110/110 127/127/127 114/114/114
f 127/127/127 124/124/124 114/114/114
f 127/127/127 110/110/110 128/128/128
f 124/124/124 127/127/127 128/128/128
f 110/110/110 129/129/129 128/128/128
f 129/129/129 130/130/130 128/128/128
f 129/129/129 110/110/110 111/111/111
f 130/130/130 129/129/129 111/111/111
f 131/131/131 126/126/126 123/123/123
f 132/132/132 131/131/131 123/123/123
f 126/126/126 131/131/131 133/133/133
f 131/131/131 132/132/132 133/133/133
f 134/134/134 126/126/126 133/133/133
f 132/132/132 135/135/135 133/133/133
f 135/135/135 132/132/132 136/136/136
f 124/124/124 137/137/137 123/123/123
f 137/137/137 132/132/132 123/123/123
f 137/137/137 124/124/124 138/138/138
f 132/132/132 137/137/137 138/138/138
f 132/132/132 139/139/139 136/136/136
f 139/139/139 132/132/132 138/138/138
f 139/139/139 140/140/140 136/136/136
f 140/140/140 139/139/139 138/138/138
f 140/140/140 141/141/141 136/136/136
f 141/141/141 140/140/140 142/142/142
f 124/124/124 143/143/143 138/138/138
f 143/143/143 144/144/144 138/138/138
f 143/143/143 124/124/124 128/128/128
f 144/144/144 143/143/143 128/128/128
f 145/145/145 140/140/140 138/138/138
f 144/144/144 145/145/145 138/138/138
f 140/140/140 145/145/145 146/146/146
f 145/145/145 144/144/144 146/146/146
f 140/140/140 147/147/147 142/142/142
f 147/147/147 140/140/140 146/146/146
f 147/147/147 148/148/148 142/142/142
f 148/148/148 147/147/147 146/146/146
f 148/148/148 149/149/149 142/142/142
f 150/150/150 148/148/148 146/146/146
f 151/151/151 150/150/150 146/146/146
f 152/152/152 151/151/151 146/146/146
f 144/144/144 152/152/152 146/146/146
f 151/151/151 152/152/152 153/153/153
f 152/152/152 144/144/144 153/153/153
f 154/154/154 151/151/151 153/153/153
f 155/155/155 154/154/154 153/153/153
f 144/144/144 156/156/156 153/153/153
f 156/156/156 144/144/144 128/128/128
f 130/130/130 156/156/156 128/128/128
f 156/156/156 130/130/130 153/153/153
f 157/157/157 155/155/155 153/153/153
f 130/130/130 157/157/157 153/153/153
f 157/157/157 130/130/130 158/158/158
f 155/155/155 157/157/157 158/158/158
f 130/130/130 159/159/159 158/158/158
f 159/159/159 130/130/130 111/111/111
f 160/160/160 159/159/159 111/111/111
f 159/159/159 160/160/160 158/158/158
f 161/161/161 160/160/160 111/111/111
f 160/160/160 162/162/162 158/158/158
f 162/162/162 163/163/163 158/158/158
f 164/164/164 155/155/155 158/158/158
f 163/163/163 164/164/164 158/158/158
f 155/155/155 164/164/164 165/165/165
f 164/164/164 163/163/163 165/165/165
f 166/166/166 155/155/155 165/165/165
f 163/163/163 167/167/167 165/165/165
f 168/168/168 166/166/166 165/165/165
f 167/167/167 169/169/169 165/165/165
f 170/170/170 168/168/168 165/165/165
f 169/169/169 170/170/170 165/165/165
f 173/173/173 172/172/172 171/171/171
f 174/174/174 173/173/173 171/171/171
f 175/175/175 174/174/174 171/171/171
f 176/176/176 175/175/175 171/171/171
f 175/175/175 176/176/176 177/177/177
f 178/178/178 175/175/175 177/177/177
f 181/181/181 180/180/180 179/179/179
f 180/180/180 182/182/182 179/179/179
f 182/182/182 183/183/183 179/179/179
f 183/183/183 184/184/184 179/179/179
f 184/184/184 183/183/183 185/185/185
f 188/188/188 187/187/187 186/186/186
f 189/189/189 188/188/188 186/186/186
f 190/190/190 189/189/189 186/186/186
f 191/191/191 190/190/190 186/186/186
f 192/192/192 191/191/191 186/186/186
f 193/193/193 192/192/192 186/186/186
