g BeanPlant_Impostor
v 1.864011 -1.449928 0
v 0.6514838 -2.138782 0
v -0.6633046 -2.138782 0
v -1.864281 -1.412069 0
v -1.868083 0.1957937 0
v -1.151529 1.503517 0
v -0.01995395 1.863796 0
v 1.862363 1.150832 0
vt 0.03429732 0.1721027
vt 0.337234 0
vt 0.6657193 0
vt 0.9657701 0.1815612
vt 0.96672 0.583268
vt 0.7876967 0.9099883
vt 0.5049853 1
vt 0.03470921 0.8218738
vn 0 0 -0.9999999
vn 0 0 -1
vn 0 0 -0.9999999
vn 0 0 -1
vn 0 0 -1
vn 0 0 -1
vn 0 0 -0.9999999
vn 0 0 -1
g BeanPlant_Impostor_0
f 4/4/4 6/6/6 8/8/8
f 8/8/8 2/2/2 4/4/4
f 6/6/6 7/7/7 8/8/8
f 4/4/4 5/5/5 6/6/6
f 2/2/2 3/3/3 4/4/4
f 8/8/8 1/1/1 2/2/2
