g Beard
v -0.129187 -0.02098 0.049123
v -0.233112 -0.043349 0.150253
v -0.243793 -0.030674 0.086997
v -0.233112 -0.043349 0.150253
v -0.255381 -0.032348 0.142294
v -0.251344 -0.033045 0.119727
v 0.243793 -0.030674 0.086997
v 0.233112 -0.043349 0.150253
v 0.129187 -0.02098 0.049123
v 0.251344 -0.033045 0.119727
v 0.255381 -0.032348 0.142294
v 0.233112 -0.043349 0.150253
v -0.048742 -0.320201 -0.059202
v 0 -0.358091 0.072271
v 0 -0.328001 -0.059412
v -0.073694 -0.32417 0.039953
v -0.097462 -0.312686 -0.048387
v -0.117549 -0.325859 0.046269
v -0.182242 -0.308663 0.037731
v -0.148763 -0.295815 -0.038534
v -0.194668 -0.247995 -0.022779
v -0.233238 -0.260243 0.037211
v -0.141499 -0.338346 0.091581
v -0.247789 -0.267199 0.063595
v -0.195891 -0.314302 0.069843
v -0.112689 -0.371747 0.162017
v -0.250267 -0.275967 0.088328
v -0.19988 -0.323613 0.100057
v -0.209811 -0.33488 0.128541
v -0.256722 -0.281299 0.130132
v -0.149226 -0.372704 0.199464
v -0.074613 -0.380387 0.226945
v -0.056345 -0.381206 0.18945
v 0 -0.387532 0.234447
v 0 -0.390126 0.196905
v -0.21309 -0.158201 -0.001506
v -0.221571 -0.032807 0.045804
v -0.243793 -0.030674 0.086997
v -0.256751 -0.16985 0.051966
v -0.233238 -0.260243 0.037211
v -0.194668 -0.247995 -0.022779
v -0.272204 -0.178122 0.077234
v -0.250853 -0.031876 0.103986
v -0.273172 -0.186349 0.100786
v -0.247789 -0.267199 0.063595
v -0.251344 -0.033045 0.119727
v -0.250267 -0.275967 0.088328
v -0.255381 -0.032348 0.142294
v -0.256722 -0.281299 0.130132
v -0.276151 -0.192572 0.146667
v -0.074613 -0.380387 0.226945
v 0 -0.340586 0.240041
v 0 -0.387532 0.234447
v -0.068128 -0.334745 0.233073
v -0.149226 -0.372704 0.199464
v -0.128879 -0.328406 0.207605
v -0.209811 -0.33488 0.128541
v -0.18358 -0.307397 0.152185
v -0.256722 -0.281299 0.130132
v -0.229305 -0.263668 0.148857
v -0.276151 -0.192572 0.146667
v -0.247548 -0.179805 0.160184
v -0.255381 -0.032348 0.142294
v -0.233112 -0.043349 0.150253
v -0.141499 -0.338346 0.091581
v -0.10837 -0.279372 0.05297
v -0.117549 -0.325859 0.046269
v -0.13045 -0.301804 0.092565
v -0.112689 -0.371747 0.162017
v -0.10389 -0.339807 0.178825
v -0.056345 -0.381206 0.18945
v -0.10389 -0.339807 0.178825
v -0.112689 -0.371747 0.162017
v -0.051945 -0.348047 0.186298
v 0 -0.390126 0.196905
v 0 -0.356288 0.193771
v -0.073694 -0.32417 0.039953
v 0 -0.32103 0.079014
v 0 -0.358091 0.072271
v -0.06794 -0.287898 0.046675
v -0.117549 -0.325859 0.046269
v -0.10837 -0.279372 0.05297
v -0.21309 -0.158201 -0.001506
v -0.174855 -0.011817 0.03189
v -0.221571 -0.032807 0.045804
v -0.141219 -0.132076 -0.01934
v -0.129187 -0.02098 0.049123
v -0.079294 -0.099644 0.014163
v -0.08033 -0.137878 0.00244
v -0.136281 -0.190611 -0.03686
v -0.194668 -0.247995 -0.022779
v -0.053884 -0.134138 -0.000906
v -0.10386 -0.207173 -0.052117
v -0.148763 -0.295815 -0.038534
v -0.097462 -0.312686 -0.048387
v -0.067574 -0.213584 -0.06279
v -0.037086 -0.130942 0.002888
v -0.022154 -0.132001 -0.002469
v -0.033759 -0.218012 -0.07159
v 0 -0.1332 -0.002633
v -0.048742 -0.320201 -0.059202
v 0 -0.222671 -0.071799
v 0 -0.328001 -0.059412
v -0.221571 -0.032807 0.045804
v -0.174855 -0.011817 0.03189
v -0.129187 -0.02098 0.049123
v -0.243793 -0.030674 0.086997
v -0.233112 -0.043349 0.150253
v -0.250853 -0.031876 0.103986
v -0.251344 -0.033045 0.119727
v 0.048742 -0.320201 -0.059202
v 0 -0.328001 -0.059412
v 0 -0.358091 0.072271
v 0.073694 -0.32417 0.039953
v 0.097462 -0.312686 -0.048387
v 0.117549 -0.325859 0.046269
v 0.182242 -0.308663 0.037731
v 0.148763 -0.295815 -0.038534
v 0.194668 -0.247995 -0.022779
v 0.233238 -0.260243 0.037211
v 0.141499 -0.338346 0.091581
v 0.247789 -0.267199 0.063595
v 0.195891 -0.314302 0.069843
v 0.112689 -0.371747 0.162017
v 0.250267 -0.275967 0.088328
v 0.19988 -0.323613 0.100057
v 0.209811 -0.33488 0.128541
v 0.256722 -0.281299 0.130132
v 0.149226 -0.372704 0.199464
v 0.074613 -0.380387 0.226945
v 0.056345 -0.381206 0.18945
v 0 -0.387532 0.234447
v 0 -0.390126 0.196905
v 0.21309 -0.158201 -0.001506
v 0.243793 -0.030674 0.086997
v 0.221571 -0.032807 0.045804
v 0.256751 -0.16985 0.051966
v 0.233238 -0.260243 0.037211
v 0.194668 -0.247995 -0.022779
v 0.272204 -0.178122 0.077234
v 0.250853 -0.031876 0.103986
v 0.273172 -0.186349 0.100786
v 0.247789 -0.267199 0.063595
v 0.251344 -0.033045 0.119727
v 0.250267 -0.275967 0.088328
v 0.255381 -0.032348 0.142294
v 0.256722 -0.281299 0.130132
v 0.276151 -0.192572 0.146667
v 0.074613 -0.380387 0.226945
v 0 -0.387532 0.234447
v 0 -0.340586 0.240041
v 0.068128 -0.334745 0.233073
v 0.149226 -0.372704 0.199464
v 0.128879 -0.328406 0.207605
v 0.209811 -0.33488 0.128541
v 0.18358 -0.307397 0.152185
v 0.256722 -0.281299 0.130132
v 0.229305 -0.263668 0.148857
v 0.276151 -0.192572 0.146667
v 0.247548 -0.179805 0.160184
v 0.255381 -0.032348 0.142294
v 0.233112 -0.043349 0.150253
v 0.141499 -0.338346 0.091581
v 0.117549 -0.325859 0.046269
v 0.10837 -0.279372 0.05297
v 0.13045 -0.301804 0.092565
v 0.112689 -0.371747 0.162017
v 0.10389 -0.339807 0.178825
v 0.056345 -0.381206 0.18945
v 0.112689 -0.371747 0.162017
v 0.10389 -0.339807 0.178825
v 0.051945 -0.348047 0.186298
v 0 -0.390126 0.196905
v 0 -0.356288 0.193771
v 0.073694 -0.32417 0.039953
v 0 -0.358091 0.072271
v 0 -0.32103 0.079014
v 0.06794 -0.287898 0.046675
v 0.117549 -0.325859 0.046269
v 0.10837 -0.279372 0.05297
v 0.21309 -0.158201 -0.001506
v 0.221571 -0.032807 0.045804
v 0.174855 -0.011817 0.03189
v 0.141219 -0.132076 -0.01934
v 0.129187 -0.02098 0.049123
v 0.079294 -0.099644 0.014163
v 0.08033 -0.137878 0.00244
v 0.136281 -0.190611 -0.03686
v 0.194668 -0.247995 -0.022779
v 0.053884 -0.134138 -0.000906
v 0.10386 -0.207173 -0.052117
v 0.148763 -0.295815 -0.038534
v 0.097462 -0.312686 -0.048387
v 0.067574 -0.213584 -0.06279
v 0.037086 -0.130942 0.002888
v 0.022154 -0.132001 -0.002469
v 0.033759 -0.218012 -0.07159
v 0 -0.1332 -0.002633
v 0.048742 -0.320201 -0.059202
v 0 -0.222671 -0.071799
v 0 -0.328001 -0.059412
v 0.129187 -0.02098 0.049123
v 0.174855 -0.011817 0.03189
v 0.221571 -0.032807 0.045804
v 0.243793 -0.030674 0.086997
v 0.250853 -0.031876 0.103986
v 0.233112 -0.043349 0.150253
v 0.251344 -0.033045 0.119727
vt -0.14155 -0.273482
vt -0.537886 0.282601
vt -0.371673 0.02322
vt -0.537886 0.282601
vt -0.482347 0.195135
vt -0.446749 0.149079
vt -0.371673 0.02322
vt -0.537886 0.282601
vt -0.14155 -0.273482
vt -0.446749 0.149079
vt -0.482347 0.195135
vt -0.537886 0.282601
vt 0.469454 0.039113
vt 0.539787 0.10889
vt 0.538409 0.028201
vt 0.397437 0.16021
vt 0.400499 0.050025
vt 0.255086 0.21153
vt 0.15048 0.2119
vt 0.225019 0.063741
vt 0.115453 0.033215
vt 0.030428 0.175997
vt 0.259225 0.41413
vt -0.00337 0.269363
vt 0.119431 0.309982
vt 0.336223 0.57329
vt -0.020995 0.331838
vt 0.100008 0.375116
vt 0.080665 0.453137
vt -0.042808 0.404626
vt 0.309689 0.641922
vt 0.451356 0.663411
vt 0.461671 0.596535
vt 0.593023 0.6849
vt 0.587118 0.61978
vt 0.005887 0.002689
vt -0.252224 -0.106689
vt -0.371673 0.02322
vt -0.089625 0.140095
vt 0.030428 0.175997
vt 0.115453 0.033215
vt -0.126172 0.228745
vt -0.421086 0.101672
vt -0.141998 0.28856
vt -0.00337 0.269363
vt -0.446749 0.149079
vt -0.020995 0.331838
vt -0.482347 0.195135
vt -0.042808 0.404626
vt -0.16628 0.356116
vt 0.451356 0.663411
vt 0.603578 0.782231
vt 0.593023 0.6849
vt 0.448705 0.7659
vt 0.309689 0.641922
vt 0.293831 0.749569
vt 0.080665 0.453137
vt 0.015432 0.551879
vt -0.042808 0.404626
vt -0.112665 0.491413
vt -0.16628 0.356116
vt -0.240763 0.430946
vt -0.482347 0.195135
vt -0.537886 0.282601
vt 0.259225 0.41413
vt 0.33811 0.24525
vt 0.255086 0.21153
vt 0.317681 0.376596
vt 0.336223 0.57329
vt 0.374824 0.506371
vt 0.461671 0.596535
vt 0.374824 0.506371
vt 0.336223 0.57329
vt 0.478217 0.528917
vt 0.587118 0.61978
vt 0.581609 0.551463
vt 0.397437 0.16021
vt 0.54061 0.146129
vt 0.539787 0.10889
vt 0.43936 0.19569
vt 0.255086 0.21153
vt 0.33811 0.24525
vt 0.005887 0.002689
vt -0.196887 -0.190085
vt -0.252224 -0.106689
vt 0.035129 -0.094722
vt -0.14155 -0.273482
vt 0.06437 -0.192132
vt 0.159135 -0.170172
vt 0.137294 -0.068479
vt 0.115453 0.033215
vt 0.2539 -0.148212
vt 0.239459 -0.042236
vt 0.225019 0.063741
vt 0.400499 0.050025
vt 0.400819 -0.047948
vt 0.401138 -0.145921
vt 0.469555 -0.146374
vt 0.469505 -0.053631
vt 0.537972 -0.146828
vt 0.469454 0.039113
vt 0.538191 -0.059314
vt 0.538409 0.028201
vt -0.252224 -0.106689
vt -0.196887 -0.190085
vt -0.14155 -0.273482
vt -0.371673 0.02322
vt -0.537886 0.282601
vt -0.421086 0.101672
vt -0.446749 0.149079
vt 0.469454 0.039113
vt 0.538409 0.028201
vt 0.539787 0.10889
vt 0.397437 0.16021
vt 0.400499 0.050025
vt 0.255086 0.21153
vt 0.15048 0.2119
vt 0.225019 0.063741
vt 0.115453 0.033215
vt 0.030428 0.175997
vt 0.259225 0.41413
vt -0.00337 0.269363
vt 0.119431 0.309982
vt 0.336223 0.57329
vt -0.020995 0.331838
vt 0.100008 0.375116
vt 0.080665 0.453137
vt -0.042808 0.404626
vt 0.309689 0.641922
vt 0.451356 0.663411
vt 0.461671 0.596535
vt 0.593023 0.6849
vt 0.587118 0.61978
vt 0.005887 0.002689
vt -0.371673 0.02322
vt -0.252224 -0.106689
vt -0.089625 0.140095
vt 0.030428 0.175997
vt 0.115453 0.033215
vt -0.126172 0.228745
vt -0.421086 0.101672
vt -0.141998 0.28856
vt -0.00337 0.269363
vt -0.446749 0.149079
vt -0.020995 0.331838
vt -0.482347 0.195135
vt -0.042808 0.404626
vt -0.16628 0.356116
vt 0.451356 0.663411
vt 0.593023 0.6849
vt 0.603578 0.782231
vt 0.448705 0.7659
vt 0.309689 0.641922
vt 0.293831 0.749569
vt 0.080665 0.453137
vt 0.015432 0.551879
vt -0.042808 0.404626
vt -0.112665 0.491413
vt -0.16628 0.356116
vt -0.240763 0.430946
vt -0.482347 0.195135
vt -0.537886 0.282601
vt 0.259225 0.41413
vt 0.255086 0.21153
vt 0.33811 0.24525
vt 0.317681 0.376596
vt 0.336223 0.57329
vt 0.374824 0.506371
vt 0.461671 0.596535
vt 0.336223 0.57329
vt 0.374824 0.506371
vt 0.478217 0.528917
vt 0.587118 0.61978
vt 0.581609 0.551463
vt 0.397437 0.16021
vt 0.539787 0.10889
vt 0.54061 0.146129
vt 0.43936 0.19569
vt 0.255086 0.21153
vt 0.33811 0.24525
vt 0.005887 0.002689
vt -0.252224 -0.106689
vt -0.196887 -0.190085
vt 0.035129 -0.094722
vt -0.14155 -0.273482
vt 0.06437 -0.192132
vt 0.159135 -0.170172
vt 0.137294 -0.068479
vt 0.115453 0.033215
vt 0.2539 -0.148212
vt 0.239459 -0.042236
vt 0.225019 0.063741
vt 0.400499 0.050025
vt 0.400819 -0.047948
vt 0.401138 -0.145921
vt 0.469555 -0.146374
vt 0.469505 -0.053631
vt 0.537972 -0.146828
vt 0.469454 0.039113
vt 0.538191 -0.059314
vt 0.538409 0.028201
vt -0.14155 -0.273482
vt -0.196887 -0.190085
vt -0.252224 -0.106689
vt -0.371673 0.02322
vt -0.421086 0.101672
vt -0.537886 0.282601
vt -0.446749 0.149079
vn 0.01005782 0.9997818 -0.01830793
vn 0.1494831 0.9292738 0.3377942
vn -0.4315536 0.8806541 -0.1954735
vn 0.1494831 0.9292738 0.3377942
vn -0.5525302 0.6591763 0.5100951
vn -0.4837645 0.875066 0.0152131
vn 0.4315536 0.8806541 -0.1954735
vn -0.1494831 0.9292738 0.3377942
vn -0.01005783 0.9997818 -0.0183079
vn 0.4837645 0.875066 0.01521309
vn 0.5525303 0.6591763 0.5100951
vn -0.1494831 0.9292738 0.3377942
vn -0.197905 -0.6757123 -0.7101032
vn 0 -0.8337025 0.5522139
vn 0 -0.6746609 -0.7381278
vn -0.2437577 -0.7934026 0.5577585
vn -0.2647159 -0.6455768 -0.7163491
vn 0.1271923 -0.9705303 0.2046776
vn -0.4577391 -0.8062112 -0.3748312
vn -0.4474251 -0.4516513 -0.771895
vn -0.5869284 -0.1155169 -0.8013557
vn -0.7574885 -0.3856878 -0.5267409
vn 0.4834631 -0.8396336 -0.2475456
vn -0.7984222 -0.4694484 -0.3770148
vn -0.4407268 -0.8242698 -0.3554424
vn 0.1748409 -0.7980331 -0.5766922
vn -0.8430251 -0.4823075 -0.238093
vn -0.4594905 -0.8256918 -0.3272637
vn -0.701394 -0.6357366 0.3223128
vn -0.7763494 -0.4706019 0.4193034
vn -0.5394024 -0.6965107 0.4731996
vn -0.2399851 -0.7331176 0.6363533
vn 0.07926841 -0.6995565 -0.7101671
vn 0 -0.7421256 0.670261
vn 0 -0.747006 -0.6648173
vn -0.6096895 0.1575514 -0.7768244
vn -0.5147338 0.7970677 -0.3158042
vn -0.4315536 0.8806541 -0.1954735
vn -0.8458023 0.04441636 -0.5316443
vn -0.7574885 -0.3856878 -0.5267409
vn -0.5869284 -0.1155169 -0.8013557
vn -0.9574057 -0.008167367 -0.2886305
vn -0.4953983 0.8654816 -0.07431144
vn -0.9946066 -0.04070727 -0.0953976
vn -0.7984222 -0.4694484 -0.3770148
vn -0.4837645 0.875066 0.0152131
vn -0.8430251 -0.4823075 -0.238093
vn -0.5525302 0.6591763 0.5100951
vn -0.7763494 -0.4706019 0.4193034
vn -0.8630393 -0.06594827 0.5008133
vn -0.2399851 -0.7331176 0.6363533
vn 0 -0.1179184 0.9930233
vn 0 -0.7421256 0.670261
vn -0.2413522 -0.07824858 0.9672778
vn -0.5394024 -0.6965107 0.4731996
vn -0.5457806 0.0531807 0.8362389
vn -0.701394 -0.6357366 0.3223128
vn -0.5663077 -0.1086512 0.8170009
vn -0.7763494 -0.4706019 0.4193034
vn -0.3866009 -0.2894631 0.8756431
vn -0.8630393 -0.06594827 0.5008133
vn -0.3947164 -0.07017474 0.9161192
vn -0.5525302 0.6591763 0.5100951
vn 0.1494831 0.9292738 0.3377942
vn 0.4834631 -0.8396336 -0.2475456
vn 0.5835695 -0.2477907 0.7733346
vn 0.1271923 -0.9705303 0.2046776
vn 0.9746121 -0.2237722 -0.007567257
vn 0.1748409 -0.7980331 -0.5766922
vn 0.6785265 -0.01619092 -0.7343975
vn 0.07926841 -0.6995565 -0.7101671
vn 0.6785265 -0.01619092 -0.7343975
vn 0.1748409 -0.7980331 -0.5766922
vn 0.2246018 0.0154066 -0.9743289
vn 0 -0.747006 -0.6648173
vn 0 -0.101295 -0.9948565
vn -0.2437577 -0.7934026 0.5577585
vn 0 -0.1410765 0.9899988
vn 0 -0.8337025 0.5522139
vn -0.1727003 -0.1609372 0.9717376
vn 0.1271923 -0.9705303 0.2046776
vn 0.5835695 -0.2477907 0.7733346
vn -0.6096895 0.1575514 -0.7768244
vn -0.1010794 0.8191093 -0.5646617
vn -0.5147338 0.7970677 -0.3158042
vn -0.01752312 0.3326147 -0.9429
vn 0.01005782 0.9997818 -0.01830793
vn 0.3188338 0.3841714 -0.8664626
vn 0.1275757 0.4814999 -0.8671114
vn -0.1151519 0.3110899 -0.9433786
vn -0.5869284 -0.1155169 -0.8013557
vn -0.08333569 0.6285279 -0.7733096
vn -0.1959598 0.3361199 -0.9212074
vn -0.4474251 -0.4516513 -0.771895
vn -0.2647159 -0.6455768 -0.7163491
vn -0.1860201 0.3053788 -0.9338845
vn -0.1055405 0.6305256 -0.7689595
vn -0.04417237 0.6310633 -0.7744726
vn -0.09560028 0.2892412 -0.9524705
vn 0 0.6165269 -0.7873338
vn -0.197905 -0.6757123 -0.7101032
vn 0 0.2698667 -0.9628977
vn 0 -0.6746609 -0.7381278
vn -0.5147338 0.7970677 -0.3158042
vn -0.1010794 0.8191093 -0.5646617
vn 0.01005782 0.9997818 -0.01830793
vn -0.4315536 0.8806541 -0.1954735
vn 0.1494831 0.9292738 0.3377942
vn -0.4953983 0.8654816 -0.07431144
vn -0.4837645 0.875066 0.0152131
vn 0.197905 -0.6757123 -0.7101032
vn 0 -0.6746609 -0.7381278
vn 0 -0.8337025 0.5522139
vn 0.2437578 -0.7934026 0.5577586
vn 0.2647159 -0.6455768 -0.7163491
vn -0.1271923 -0.9705305 0.2046776
vn 0.4577391 -0.8062112 -0.3748311
vn 0.4474251 -0.4516514 -0.771895
vn 0.5869284 -0.1155169 -0.8013557
vn 0.7574885 -0.3856878 -0.5267408
vn -0.4834631 -0.8396336 -0.2475456
vn 0.7984222 -0.4694484 -0.3770148
vn 0.4407268 -0.8242698 -0.3554424
vn -0.174841 -0.7980331 -0.5766922
vn 0.843025 -0.4823075 -0.238093
vn 0.4594905 -0.8256918 -0.3272637
vn 0.7013939 -0.6357366 0.3223129
vn 0.7763494 -0.470602 0.4193034
vn 0.5394024 -0.6965107 0.4731996
vn 0.2399852 -0.7331178 0.6363533
vn -0.07926843 -0.6995565 -0.7101671
vn 0 -0.7421256 0.670261
vn 0 -0.747006 -0.6648173
vn 0.6096895 0.1575515 -0.7768245
vn 0.4315536 0.8806541 -0.1954735
vn 0.5147338 0.7970678 -0.3158041
vn 0.8458023 0.04441637 -0.5316443
vn 0.7574885 -0.3856878 -0.5267408
vn 0.5869284 -0.1155169 -0.8013557
vn 0.9574057 -0.008167364 -0.2886306
vn 0.4953983 0.8654816 -0.07431145
vn 0.9946066 -0.04070728 -0.09539764
vn 0.7984222 -0.4694484 -0.3770148
vn 0.4837645 0.875066 0.01521309
vn 0.843025 -0.4823075 -0.238093
vn 0.5525303 0.6591763 0.5100951
vn 0.7763494 -0.470602 0.4193034
vn 0.8630394 -0.06594828 0.5008133
vn 0.2399852 -0.7331178 0.6363533
vn 0 -0.7421256 0.670261
vn 0 -0.1179184 0.9930233
vn 0.2413521 -0.07824861 0.9672778
vn 0.5394024 -0.6965107 0.4731996
vn 0.5457806 0.05318069 0.8362388
vn 0.7013939 -0.6357366 0.3223129
vn 0.5663077 -0.1086512 0.8170009
vn 0.7763494 -0.470602 0.4193034
vn 0.3866008 -0.2894631 0.8756431
vn 0.8630394 -0.06594828 0.5008133
vn 0.3947164 -0.07017475 0.9161192
vn 0.5525303 0.6591763 0.5100951
vn -0.1494831 0.9292738 0.3377942
vn -0.4834631 -0.8396336 -0.2475456
vn -0.1271923 -0.9705305 0.2046776
vn -0.5835695 -0.2477907 0.7733347
vn -0.9746121 -0.2237722 -0.007567273
vn -0.174841 -0.7980331 -0.5766922
vn -0.6785265 -0.01619091 -0.7343975
vn -0.07926843 -0.6995565 -0.7101671
vn -0.174841 -0.7980331 -0.5766922
vn -0.6785265 -0.01619091 -0.7343975
vn -0.2246018 0.01540658 -0.9743289
vn 0 -0.747006 -0.6648173
vn 0 -0.101295 -0.9948565
vn 0.2437578 -0.7934026 0.5577586
vn 0 -0.8337025 0.5522139
vn 0 -0.1410765 0.9899988
vn 0.1727003 -0.1609372 0.9717374
vn -0.1271923 -0.9705305 0.2046776
vn -0.5835695 -0.2477907 0.7733347
vn 0.6096895 0.1575515 -0.7768245
vn 0.5147338 0.7970678 -0.3158041
vn 0.1010794 0.8191094 -0.5646617
vn 0.01752309 0.3326148 -0.9429
vn -0.01005783 0.9997818 -0.0183079
vn -0.3188338 0.3841714 -0.8664626
vn -0.1275757 0.4814999 -0.8671114
vn 0.1151519 0.3110899 -0.9433786
vn 0.5869284 -0.1155169 -0.8013557
vn 0.08333572 0.6285278 -0.7733096
vn 0.1959598 0.3361199 -0.9212074
vn 0.4474251 -0.4516514 -0.771895
vn 0.2647159 -0.6455768 -0.7163491
vn 0.1860201 0.3053788 -0.9338846
vn 0.1055405 0.6305255 -0.7689595
vn 0.04417238 0.6310632 -0.7744727
vn 0.09560028 0.2892411 -0.9524705
vn 0 0.6165269 -0.7873338
vn 0.197905 -0.6757123 -0.7101032
vn 0 0.2698667 -0.9628977
vn 0 -0.6746609 -0.7381278
vn -0.01005783 0.9997818 -0.0183079
vn 0.1010794 0.8191094 -0.5646617
vn 0.5147338 0.7970678 -0.3158041
vn 0.4315536 0.8806541 -0.1954735
vn 0.4953983 0.8654816 -0.07431145
vn -0.1494831 0.9292738 0.3377942
vn 0.4837645 0.875066 0.01521309
g Beard_0
f 3/3/3 2/2/2 1/1/1
f 6/6/6 5/5/5 4/4/4
f 9/9/9 8/8/8 7/7/7
f 12/12/12 11/11/11 10/10/10
f 15/15/15 14/14/14 13/13/13
f 14/14/14 16/16/16 13/13/13
f 13/13/13 16/16/16 17/17/17
f 16/16/16 18/18/18 17/17/17
f 18/18/18 19/19/19 17/17/17
f 19/19/19 20/20/20 17/17/17
f 20/20/20 19/19/19 21/21/21
f 19/19/19 22/22/22 21/21/21
f 19/19/19 18/18/18 23/23/23
f 22/22/22 19/19/19 24/24/24
f 25/25/25 19/19/19 23/23/23
f 19/19/19 25/25/25 24/24/24
f 25/25/25 23/23/23 26/26/26
f 24/24/24 25/25/25 27/27/27
f 25/25/25 28/28/28 27/27/27
f 28/28/28 25/25/25 26/26/26
f 28/28/28 29/29/29 27/27/27
f 29/29/29 28/28/28 26/26/26
f 29/29/29 30/30/30 27/27/27
f 31/31/31 29/29/29 26/26/26
f 32/32/32 31/31/31 26/26/26
f 33/33/33 32/32/32 26/26/26
f 34/34/34 32/32/32 33/33/33
f 35/35/35 34/34/34 33/33/33
f 38/38/38 37/37/37 36/36/36
f 39/39/39 38/38/38 36/36/36
f 40/40/40 39/39/39 36/36/36
f 41/41/41 40/40/40 36/36/36
f 38/38/38 39/39/39 42/42/42
f 39/39/39 40/40/40 42/42/42
f 43/43/43 38/38/38 42/42/42
f 43/43/43 42/42/42 44/44/44
f 40/40/40 45/45/45 42/42/42
f 42/42/42 45/45/45 44/44/44
f 46/46/46 43/43/43 44/44/44
f 45/45/45 47/47/47 44/44/44
f 48/48/48 46/46/46 44/44/44
f 47/47/47 49/49/49 44/44/44
f 50/50/50 48/48/48 44/44/44
f 49/49/49 50/50/50 44/44/44
f 53/53/53 52/52/52 51/51/51
f 52/52/52 54/54/54 51/51/51
f 51/51/51 54/54/54 55/55/55
f 54/54/54 56/56/56 55/55/55
f 55/55/55 56/56/56 57/57/57
f 56/56/56 58/58/58 57/57/57
f 57/57/57 58/58/58 59/59/59
f 58/58/58 60/60/60 59/59/59
f 59/59/59 60/60/60 61/61/61
f 60/60/60 62/62/62 61/61/61
f 61/61/61 62/62/62 63/63/63
f 62/62/62 64/64/64 63/63/63
f 67/67/67 66/66/66 65/65/65
f 66/66/66 68/68/68 65/65/65
f 65/65/65 68/68/68 69/69/69
f 68/68/68 70/70/70 69/69/69
f 73/73/73 72/72/72 71/71/71
f 72/72/72 74/74/74 71/71/71
f 71/71/71 74/74/74 75/75/75
f 74/74/74 76/76/76 75/75/75
f 79/79/79 78/78/78 77/77/77
f 78/78/78 80/80/80 77/77/77
f 77/77/77 80/80/80 81/81/81
f 80/80/80 82/82/82 81/81/81
f 85/85/85 84/84/84 83/83/83
f 84/84/84 86/86/86 83/83/83
f 84/84/84 87/87/87 86/86/86
f 87/87/87 88/88/88 86/86/86
f 88/88/88 89/89/89 86/86/86
f 86/86/86 90/90/90 83/83/83
f 89/89/89 90/90/90 86/86/86
f 90/90/90 91/91/91 83/83/83
f 89/89/89 92/92/92 90/90/90
f 90/90/90 93/93/93 91/91/91
f 92/92/92 93/93/93 90/90/90
f 93/93/93 94/94/94 91/91/91
f 94/94/94 93/93/93 95/95/95
f 93/93/93 92/92/92 96/96/96
f 93/93/93 96/96/96 95/95/95
f 92/92/92 97/97/97 96/96/96
f 97/97/97 98/98/98 96/96/96
f 96/96/96 99/99/99 95/95/95
f 98/98/98 99/99/99 96/96/96
f 98/98/98 100/100/100 99/99/99
f 99/99/99 101/101/101 95/95/95
f 100/100/100 102/102/102 99/99/99
f 99/99/99 102/102/102 101/101/101
f 102/102/102 103/103/103 101/101/101
f 106/106/106 105/105/105 104/104/104
f 104/104/104 107/107/107 106/106/106
f 107/107/107 109/109/109 108/108/108
f 109/109/109 110/110/110 108/108/108
f 113/113/113 112/112/112 111/111/111
f 114/114/114 113/113/113 111/111/111
f 114/114/114 111/111/111 115/115/115
f 116/116/116 114/114/114 115/115/115
f 117/117/117 116/116/116 115/115/115
f 118/118/118 117/117/117 115/115/115
f 117/117/117 118/118/118 119/119/119
f 120/120/120 117/117/117 119/119/119
f 116/116/116 117/117/117 121/121/121
f 117/117/117 120/120/120 122/122/122
f 117/117/117 123/123/123 121/121/121
f 123/123/123 117/117/117 122/122/122
f 121/121/121 123/123/123 124/124/124
f 123/123/123 122/122/122 125/125/125
f 126/126/126 123/123/123 125/125/125
f 123/123/123 126/126/126 124/124/124
f 127/127/127 126/126/126 125/125/125
f 126/126/126 127/127/127 124/124/124
f 128/128/128 127/127/127 125/125/125
f 127/127/127 129/129/129 124/124/124
f 129/129/129 130/130/130 124/124/124
f 130/130/130 131/131/131 124/124/124
f 130/130/130 132/132/132 131/131/131
f 132/132/132 133/133/133 131/131/131
f 136/136/136 135/135/135 134/134/134
f 135/135/135 137/137/137 134/134/134
f 137/137/137 138/138/138 134/134/134
f 138/138/138 139/139/139 134/134/134
f 137/137/137 135/135/135 140/140/140
f 138/138/138 137/137/137 140/140/140
f 135/135/135 141/141/141 140/140/140
f 140/140/140 141/141/141 142/142/142
f 143/143/143 138/138/138 140/140/140
f 143/143/143 140/140/140 142/142/142
f 141/141/141 144/144/144 142/142/142
f 145/145/145 143/143/143 142/142/142
f 144/144/144 146/146/146 142/142/142
f 147/147/147 145/145/145 142/142/142
f 146/146/146 148/148/148 142/142/142
f 148/148/148 147/147/147 142/142/142
f 151/151/151 150/150/150 149/149/149
f 152/152/152 151/151/151 149/149/149
f 152/152/152 149/149/149 153/153/153
f 154/154/154 152/152/152 153/153/153
f 154/154/154 153/153/153 155/155/155
f 156/156/156 154/154/154 155/155/155
f 156/156/156 155/155/155 157/157/157
f 158/158/158 156/156/156 157/157/157
f 158/158/158 157/157/157 159/159/159
f 160/160/160 158/158/158 159/159/159
f 160/160/160 159/159/159 161/161/161
f 162/162/162 160/160/160 161/161/161
f 165/165/165 164/164/164 163/163/163
f 166/166/166 165/165/165 163/163/163
f 166/166/166 163/163/163 167/167/167
f 168/168/168 166/166/166 167/167/167
f 171/171/171 170/170/170 169/169/169
f 172/172/172 171/171/171 169/169/169
f 172/172/172 169/169/169 173/173/173
f 174/174/174 172/172/172 173/173/173
f 177/177/177 176/176/176 175/175/175
f 178/178/178 177/177/177 175/175/175
f 178/178/178 175/175/175 179/179/179
f 180/180/180 178/178/178 179/179/179
f 183/183/183 182/182/182 181/181/181
f 184/184/184 183/183/183 181/181/181
f 185/185/185 183/183/183 184/184/184
f 186/186/186 185/185/185 184/184/184
f 187/187/187 186/186/186 184/184/184
f 188/188/188 184/184/184 181/181/181
f 188/188/188 187/187/187 184/184/184
f 189/189/189 188/188/188 181/181/181
f 190/190/190 187/187/187 188/188/188
f 191/191/191 188/188/188 189/189/189
f 191/191/191 190/190/190 188/188/188
f 192/192/192 191/191/191 189/189/189
f 191/191/191 192/192/192 193/193/193
f 190/190/190 191/191/191 194/194/194
f 194/194/194 191/191/191 193/193/193
f 195/195/195 190/190/190 194/194/194
f 196/196/196 195/195/195 194/194/194
f 197/197/197 194/194/194 193/193/193
f 197/197/197 196/196/196 194/194/194
f 198/198/198 196/196/196 197/197/197
f 199/199/199 197/197/197 193/193/193
f 200/200/200 198/198/198 197/197/197
f 200/200/200 197/197/197 199/199/199
f 201/201/201 200/200/200 199/199/199
f 204/204/204 203/203/203 202/202/202
f 202/202/202 205/205/205 204/204/204
f 207/207/207 206/206/206 205/205/205
f 207/207/207 208/208/208 206/206/206
