g BigBirdEgg
v 0.079672 0.079672 0.010465
v 0.112673 0 0.010465
v 0.208125 0 0.074499
v 0 0 -0.011947
v 0.147167 0.147167 0.074499
v 0.265966 0 0.182997
v 0 0.112673 0.010465
v 0.188067 0.188067 0.182997
v 0.256693 0 0.350338
v -0.079672 0.079672 0.010465
v -0.112673 0 0.010465
v 0 0.208126 0.074499
v -0.147167 0.147167 0.074499
v -0.208125 0 0.074499
v 0.181509 0.18151 0.350338
v 0.182379 0 0.524791
v 0 0.265966 0.182997
v -0.188066 0.188067 0.182997
v -0.265966 0 0.182997
v 0.128962 0.128962 0.524791
v 0.109162 0 0.624275
v 0 0.256693 0.350338
v -0.181509 0.181509 0.350338
v -0.256693 0 0.350338
v 0.077189 0.07719 0.624275
v 0.053654 0 0.664666
v 0 0.18238 0.524791
v -0.128962 0.128962 0.524791
v -0.182379 0 0.524791
v 0.037939 0.037939 0.664666
v 0 0 0.675339
v 0 0.109163 0.624275
v -0.077189 0.07719 0.624275
v -0.109162 0 0.624275
v 0 0.053654 0.664666
v -0.037939 0.037939 0.664666
v -0.053654 0 0.664666
v 0 0 -0.011947
v -0.112673 0 0.010465
v -0.079672 -0.079672 0.010465
v -0.208125 0 0.074499
v -0.147167 -0.147167 0.074499
v -0.265966 0 0.182997
v 0 -0.112673 0.010465
v -0.188066 -0.188066 0.182997
v -0.256693 0 0.350338
v 0.079672 -0.079672 0.010465
v 0.112673 0 0.010465
v 0 -0.208125 0.074499
v 0.147167 -0.147167 0.074499
v 0.208125 0 0.074499
v -0.181509 -0.181509 0.350338
v -0.182379 0 0.524791
v 0 -0.265966 0.182997
v 0.188067 -0.188066 0.182997
v 0.265966 0 0.182997
v -0.128962 -0.128962 0.524791
v -0.109162 0 0.624275
v 0 -0.256693 0.350338
v 0.181509 -0.181509 0.350338
v 0.256693 0 0.350338
v -0.077189 -0.077189 0.624275
v -0.053654 0 0.664666
v 0 -0.182379 0.524791
v 0.128962 -0.128962 0.524791
v 0.182379 0 0.524791
v -0.037939 -0.037939 0.664666
v 0 0 0.675339
v 0 -0.109162 0.624275
v 0.077189 -0.077189 0.624275
v 0.109162 0 0.624275
v 0 -0.053654 0.664666
v 0.037939 -0.037939 0.664666
v 0.053654 0 0.664666
vt 0.288506 0.033361
vt 0.310927 0.033361
vt 0.37578 0.076866
vt 0.234375 0.018133
vt 0.334363 0.076866
vt 0.415078 0.150582
vt 0.234375 0.033361
vt 0.362152 0.150582
vt 0.408778 0.264278
vt 0.180244 0.033361
vt 0.157823 0.033361
vt 0.234375 0.076866
vt 0.134387 0.076866
vt 0.09297 0.076866
vt 0.357696 0.264278
vt 0.358288 0.382805
vt 0.234375 0.150582
vt 0.106599 0.150582
vt 0.053672 0.150582
vt 0.321994 0.382805
vt 0.308542 0.450396
vt 0.234375 0.264278
vt 0.111054 0.264278
vt 0.059972 0.264278
vt 0.286819 0.450396
vt 0.270828 0.477839
vt 0.234375 0.382805
vt 0.146756 0.382805
vt 0.110462 0.382805
vt 0.260152 0.477839
vt 0.234375 0.48509
vt 0.234375 0.450396
vt 0.181931 0.450396
vt 0.160208 0.450396
vt 0.234375 0.477839
vt 0.208598 0.477839
vt 0.197921 0.477839
vt 0.234375 0.018133
vt 0.157823 0.033361
vt 0.180244 0.033361
vt 0.09297 0.076866
vt 0.134387 0.076866
vt 0.053672 0.150582
vt 0.234375 0.033361
vt 0.106599 0.150582
vt 0.059972 0.264278
vt 0.288506 0.033361
vt 0.310927 0.033361
vt 0.234375 0.076866
vt 0.334363 0.076866
vt 0.37578 0.076866
vt 0.111054 0.264278
vt 0.110462 0.382805
vt 0.234375 0.150582
vt 0.362152 0.150582
vt 0.415078 0.150582
vt 0.146756 0.382805
vt 0.160208 0.450396
vt 0.234375 0.264278
vt 0.357696 0.264278
vt 0.408778 0.264278
vt 0.181931 0.450396
vt 0.197921 0.477839
vt 0.234375 0.382805
vt 0.321994 0.382805
vt 0.358288 0.382805
vt 0.208598 0.477839
vt 0.234375 0.48509
vt 0.234375 0.450396
vt 0.286819 0.450396
vt 0.308542 0.450396
vt 0.234375 0.477839
vt 0.260152 0.477839
vt 0.270828 0.477839
vn 0.3518201 0.351819 -0.8674365
vn 0.497549 0 -0.8674358
vn 0.8018779 0 -0.5974879
vn 0 0 -1
vn 0.5670139 0.5670124 -0.5974882
vn 0.9892519 0 -0.146221
vn 0 0.497547 -0.8674369
vn 0.6995075 0.699506 -0.1462213
vn 0.9770626 0 0.2129522
vn -0.35182 0.351819 -0.8674364
vn -0.497549 0 -0.8674358
vn 0 0.8018786 -0.597487
vn -0.5670151 0.5670126 -0.5974868
vn -0.8018791 0 -0.5974863
vn 0.6908873 0.6908879 0.2129519
vn 0.8956303 0 0.444799
vn 0 0.989252 -0.1462206
vn -0.6995062 0.6995074 -0.1462204
vn -0.9892519 0 -0.1462211
vn 0.6333081 0.6333045 0.444799
vn 0.7720583 0 0.6355517
vn 0 0.9770628 0.2129511
vn -0.6908885 0.6908871 0.2129511
vn -0.9770629 0 0.2129508
vn 0.5459287 0.5459264 0.6355519
vn 0.5386941 0 0.8425015
vn 0 0.8956311 0.4447976
vn -0.6333082 0.6333055 0.4447978
vn -0.8956304 0 0.4447989
vn 0.3809142 0.3809104 0.8425032
vn 0 0 1
vn 0 0.7720581 0.635552
vn -0.5459287 0.5459265 0.6355519
vn -0.7720583 0 0.6355517
vn 0 0.5386887 0.842505
vn -0.3809142 0.3809104 0.8425032
vn -0.5386941 0 0.8425015
vn 0 0 -1
vn -0.497549 0 -0.8674358
vn -0.3518198 -0.3518198 -0.8674362
vn -0.8018791 0 -0.5974863
vn -0.5670143 -0.5670143 -0.5974859
vn -0.9892519 0 -0.1462211
vn 0 -0.497549 -0.8674358
vn -0.6995068 -0.6995067 -0.1462215
vn -0.9770629 0 0.2129508
vn 0.3518198 -0.3518198 -0.8674362
vn 0.497549 0 -0.8674358
vn 0 -0.8018791 -0.5974863
vn 0.5670131 -0.5670142 -0.5974873
vn 0.8018779 0 -0.5974879
vn -0.6908879 -0.6908878 0.2129506
vn -0.8956304 0 0.4447989
vn 0 -0.9892519 -0.1462211
vn 0.6995075 -0.6995059 -0.1462212
vn 0.9892519 0 -0.146221
vn -0.6333063 -0.6333063 0.4447991
vn -0.7720583 0 0.6355517
vn 0 -0.9770629 0.2129507
vn 0.6908873 -0.6908881 0.2129517
vn 0.9770626 0 0.2129522
vn -0.5459272 -0.5459272 0.6355526
vn -0.5386941 0 0.8425015
vn 0 -0.8956304 0.444799
vn 0.6333064 -0.6333063 0.4447991
vn 0.8956303 0 0.444799
vn -0.3809148 -0.3809148 0.8425009
vn 0 0 1
vn 0 -0.7720581 0.6355519
vn 0.5459272 -0.5459271 0.6355526
vn 0.7720583 0 0.6355517
vn 0 -0.5386943 0.8425013
vn 0.3809148 -0.3809148 0.8425009
vn 0.5386941 0 0.8425015
g BigBirdEgg_0
f 3/3/3 2/2/2 1/1/1
f 1/1/1 2/2/2 4/4/4
f 5/5/5 3/3/3 1/1/1
f 6/6/6 3/3/3 5/5/5
f 7/7/7 1/1/1 4/4/4
f 5/5/5 1/1/1 7/7/7
f 8/8/8 6/6/6 5/5/5
f 9/9/9 6/6/6 8/8/8
f 10/10/10 7/7/7 4/4/4
f 11/11/11 10/10/10 4/4/4
f 12/12/12 5/5/5 7/7/7
f 12/12/12 7/7/7 10/10/10
f 8/8/8 5/5/5 12/12/12
f 13/13/13 10/10/10 11/11/11
f 13/13/13 12/12/12 10/10/10
f 14/14/14 13/13/13 11/11/11
f 15/15/15 9/9/9 8/8/8
f 16/16/16 9/9/9 15/15/15
f 17/17/17 8/8/8 12/12/12
f 17/17/17 12/12/12 13/13/13
f 15/15/15 8/8/8 17/17/17
f 18/18/18 13/13/13 14/14/14
f 18/18/18 17/17/17 13/13/13
f 19/19/19 18/18/18 14/14/14
f 20/20/20 16/16/16 15/15/15
f 21/21/21 16/16/16 20/20/20
f 22/22/22 15/15/15 17/17/17
f 22/22/22 17/17/17 18/18/18
f 20/20/20 15/15/15 22/22/22
f 23/23/23 18/18/18 19/19/19
f 23/23/23 22/22/22 18/18/18
f 24/24/24 23/23/23 19/19/19
f 25/25/25 21/21/21 20/20/20
f 26/26/26 21/21/21 25/25/25
f 27/27/27 20/20/20 22/22/22
f 27/27/27 22/22/22 23/23/23
f 25/25/25 20/20/20 27/27/27
f 28/28/28 23/23/23 24/24/24
f 28/28/28 27/27/27 23/23/23
f 29/29/29 28/28/28 24/24/24
f 30/30/30 26/26/26 25/25/25
f 31/31/31 26/26/26 30/30/30
f 32/32/32 25/25/25 27/27/27
f 32/32/32 27/27/27 28/28/28
f 30/30/30 25/25/25 32/32/32
f 33/33/33 28/28/28 29/29/29
f 33/33/33 32/32/32 28/28/28
f 34/34/34 33/33/33 29/29/29
f 35/35/35 30/30/30 32/32/32
f 31/31/31 30/30/30 35/35/35
f 35/35/35 32/32/32 33/33/33
f 36/36/36 33/33/33 34/34/34
f 36/36/36 35/35/35 33/33/33
f 31/31/31 35/35/35 36/36/36
f 37/37/37 36/36/36 34/34/34
f 31/31/31 36/36/36 37/37/37
f 40/40/40 39/39/39 38/38/38
f 41/41/41 39/39/39 40/40/40
f 42/42/42 41/41/41 40/40/40
f 43/43/43 41/41/41 42/42/42
f 44/44/44 40/40/40 38/38/38
f 42/42/42 40/40/40 44/44/44
f 45/45/45 43/43/43 42/42/42
f 46/46/46 43/43/43 45/45/45
f 47/47/47 44/44/44 38/38/38
f 48/48/48 47/47/47 38/38/38
f 49/49/49 42/42/42 44/44/44
f 49/49/49 44/44/44 47/47/47
f 45/45/45 42/42/42 49/49/49
f 50/50/50 47/47/47 48/48/48
f 50/50/50 49/49/49 47/47/47
f 51/51/51 50/50/50 48/48/48
f 52/52/52 46/46/46 45/45/45
f 53/53/53 46/46/46 52/52/52
f 54/54/54 45/45/45 49/49/49
f 54/54/54 49/49/49 50/50/50
f 52/52/52 45/45/45 54/54/54
f 55/55/55 50/50/50 51/51/51
f 55/55/55 54/54/54 50/50/50
f 56/56/56 55/55/55 51/51/51
f 57/57/57 53/53/53 52/52/52
f 58/58/58 53/53/53 57/57/57
f 59/59/59 52/52/52 54/54/54
f 59/59/59 54/54/54 55/55/55
f 57/57/57 52/52/52 59/59/59
f 60/60/60 55/55/55 56/56/56
f 60/60/60 59/59/59 55/55/55
f 61/61/61 60/60/60 56/56/56
f 62/62/62 58/58/58 57/57/57
f 63/63/63 58/58/58 62/62/62
f 64/64/64 57/57/57 59/59/59
f 64/64/64 59/59/59 60/60/60
f 62/62/62 57/57/57 64/64/64
f 65/65/65 60/60/60 61/61/61
f 65/65/65 64/64/64 60/60/60
f 66/66/66 65/65/65 61/61/61
f 67/67/67 63/63/63 62/62/62
f 68/68/68 63/63/63 67/67/67
f 69/69/69 62/62/62 64/64/64
f 69/69/69 64/64/64 65/65/65
f 67/67/67 62/62/62 69/69/69
f 70/70/70 65/65/65 66/66/66
f 70/70/70 69/69/69 65/65/65
f 71/71/71 70/70/70 66/66/66
f 72/72/72 67/67/67 69/69/69
f 68/68/68 67/67/67 72/72/72
f 72/72/72 69/69/69 70/70/70
f 73/73/73 70/70/70 71/71/71
f 73/73/73 72/72/72 70/70/70
f 68/68/68 72/72/72 73/73/73
f 74/74/74 73/73/73 71/71/71
f 68/68/68 73/73/73 74/74/74
