g BlueMoonButterfly_wings
v 0 0.701296 0.012901
v 0 -0.367059 0.012901
v -0.862802 -0.367059 0.376067
v -0.862802 0.701296 0.376067
v 0 0.701296 0.012901
v -0.862802 0.701296 0.376067
v -0.862802 -0.367059 0.376067
v 0 -0.367059 0.012901
v 0 0.701296 0.012901
v 0.862802 0.701296 0.376067
v 0.862802 -0.367059 0.376067
v 0 -0.367059 0.012901
v 0 0.701296 0.012901
v 0 -0.367059 0.012901
v 0.862802 -0.367059 0.376067
v 0.862802 0.701296 0.376067
vt 0.114598 0.170845
vt 0.114598 0.289272
vt 0.206792 0.289272
vt 0.206792 0.170845
vt 0.114598 0.170845
vt 0.206792 0.170845
vt 0.206792 0.289272
vt 0.114598 0.289272
vt 0.114598 0.170845
vt 0.206792 0.170845
vt 0.206792 0.289272
vt 0.114598 0.289272
vt 0.114598 0.170845
vt 0.114598 0.289272
vt 0.206792 0.289272
vt 0.206792 0.170845
vn 0.387949 0 0.9216808
vn 0.387949 0 0.9216808
vn 0.387949 0 0.9216808
vn 0.387949 0 0.9216808
vn -0.387949 0 -0.9216808
vn -0.387949 0 -0.9216808
vn -0.387949 0 -0.9216808
vn -0.387949 0 -0.9216808
vn -0.387949 0 0.9216808
vn -0.387949 0 0.9216808
vn -0.387949 0 0.9216808
vn -0.387949 0 0.9216808
vn 0.387949 0 -0.9216808
vn 0.387949 0 -0.9216808
vn 0.387949 0 -0.9216808
vn 0.387949 0 -0.9216808
g BlueMoonButterfly_wings_0
f 3/3/3 2/2/2 1/1/1
f 4/4/4 3/3/3 1/1/1
f 7/7/7 6/6/6 5/5/5
f 8/8/8 7/7/7 5/5/5
f 11/11/11 10/10/10 9/9/9
f 12/12/12 11/11/11 9/9/9
f 15/15/15 14/14/14 13/13/13
f 16/16/16 15/15/15 13/13/13
