g Blueprint
v 0.375403 -0.237025 -0.032708
v 0.180341 -0.396616 -0.020403
v 0.375403 -0.396616 -0.073567
v 0.180341 -0.237025 -0.005932
v 0.375403 -0.077339 -0.002652
v -0.209203 -0.396616 -0.015965
v 0.180341 -0.077488 -0.002652
v 0.375403 0.082034 -0.002652
v -0.209203 -0.237025 -0.005112
v -0.404265 -0.396616 -0.055838
v -0.404265 -0.237025 -0.025194
v -0.209203 -0.076962 -0.002652
v -0.404265 -0.076702 -0.002652
v 0.180341 0.082493 -0.002652
v 0.375403 0.240082 -0.037936
v -0.209203 0.086318 -0.002652
v -0.404265 0.087044 -0.002652
v 0.180341 0.242365 -0.007805
v -0.209203 0.244039 -0.00663
v -0.404265 0.242138 -0.029568
v -0.404265 0.385799 -0.055838
v -0.209203 0.387474 -0.015964
v 0.180341 0.388379 -0.020396
v 0.375403 0.385386 -0.073567
v 0.375403 -0.237025 -0.032708
v 0.375403 -0.396616 -0.073567
v 0.180341 -0.396616 -0.020403
v 0.180341 -0.237025 -0.005932
v 0.375403 -0.077339 -0.002652
v -0.209203 -0.396616 -0.015965
v 0.180341 -0.077488 -0.002652
v 0.375403 0.082034 -0.002652
v -0.209203 -0.237025 -0.005112
v -0.404265 -0.396616 -0.055838
v -0.404265 -0.237025 -0.025194
v -0.209203 -0.076962 -0.002652
v -0.404265 -0.076702 -0.002652
v 0.180341 0.082493 -0.002652
v 0.375403 0.240082 -0.037936
v -0.209203 0.086318 -0.002652
v -0.404265 0.087044 -0.002652
v 0.180341 0.242365 -0.007805
v -0.209203 0.244039 -0.00663
v -0.404265 0.242138 -0.029568
v -0.404265 0.385799 -0.055838
v -0.209203 0.387474 -0.015964
v 0.180341 0.388379 -0.020396
v 0.375403 0.385386 -0.073567
vt 0.203391 0.992086
vt 0.002559 0.74351
vt 0.0001 0.991469
vt 0.206031 0.743969
vt 0.408097 0.991874
vt 0.002195 0.249451
vt 0.409587 0.744471
vt 0.611931 0.991982
vt 0.204776 0.249116
vt 0.001179 0.001292
vt 0.203619 0.00047
vt 0.407586 0.248796
vt 0.406117 0.0001
vt 0.612043 0.744668
vt 0.814465 0.991867
vt 0.610903 0.249205
vt 0.610818 0.001623
vt 0.814721 0.744349
vt 0.814176 0.249494
vt 0.814875 0.00163
vt 0.999388 0.002206
vt 0.999057 0.249636
vt 0.9999 0.743969
vt 0.999397 0.991551
vt 0.203391 0.992086
vt 0.0001 0.991469
vt 0.002559 0.74351
vt 0.206031 0.743969
vt 0.408097 0.991874
vt 0.002195 0.249451
vt 0.409587 0.744471
vt 0.611931 0.991982
vt 0.204776 0.249116
vt 0.001179 0.001292
vt 0.203619 0.00047
vt 0.407586 0.248796
vt 0.406117 0.0001
vt 0.612043 0.744668
vt 0.814465 0.991867
vt 0.610903 0.249205
vt 0.610818 0.001623
vt 0.814721 0.744349
vt 0.814176 0.249494
vt 0.814875 0.00163
vt 0.999388 0.002206
vt 0.999057 0.249636
vt 0.9999 0.743969
vt 0.999397 0.991551
vn -0.1354757 0.1369182 -0.9812745
vn -0.07291572 0.1100639 -0.9912463
vn -0.1979049 0.1674238 -0.9658172
vn -0.0478154 0.07828686 -0.9957836
vn -0.03424693 0.05207695 -0.9980557
vn 0.04680287 0.09578966 -0.9943007
vn -0.01175107 0.02330949 -0.9996592
vn -0.03881134 -0.06318452 -0.9972469
vn 0.03146662 0.06688302 -0.9972645
vn 0.1506598 0.1274538 -0.9803352
vn 0.101964 0.1031497 -0.9894259
vn 0.008210353 0.01888366 -0.999788
vn 0.02545079 0.03854425 -0.9989327
vn -0.01353039 -0.0305588 -0.9994413
vn -0.1420008 -0.1428233 -0.9795088
vn 0.009034834 -0.025605 -0.9996313
vn 0.02891434 -0.04832316 -0.9984132
vn -0.05075156 -0.08224387 -0.9953192
vn 0.03287606 -0.07073642 -0.9969531
vn 0.1074786 -0.1096193 -0.9881457
vn 0.1588658 -0.1215085 -0.9797946
vn 0.04872267 -0.09128276 -0.9946324
vn -0.07680755 -0.1050737 -0.9914938
vn -0.208204 -0.1597294 -0.9649547
vn 0.1354757 -0.1369182 0.9812745
vn 0.1979049 -0.1674238 0.9658172
vn 0.07291572 -0.1100639 0.9912463
vn 0.0478154 -0.07828686 0.9957836
vn 0.03424693 -0.05207695 0.9980557
vn -0.04680287 -0.09578965 0.9943007
vn 0.01175107 -0.02330949 0.9996592
vn 0.03881134 0.06318452 0.9972469
vn -0.03146662 -0.06688301 0.9972645
vn -0.1506598 -0.1274538 0.9803352
vn -0.101964 -0.1031497 0.9894259
vn -0.008210353 -0.01888366 0.999788
vn -0.02545079 -0.03854425 0.9989327
vn 0.01353039 0.0305588 0.9994413
vn 0.1420008 0.1428233 0.9795088
vn -0.009034835 0.025605 0.9996313
vn -0.02891434 0.04832316 0.9984132
vn 0.05075156 0.08224387 0.9953192
vn -0.03287607 0.07073643 0.9969531
vn -0.1074786 0.1096193 0.9881457
vn -0.1588658 0.1215085 0.9797946
vn -0.04872267 0.09128276 0.9946324
vn 0.07680755 0.1050737 0.9914938
vn 0.208204 0.1597294 0.9649547
g Blueprint_0
f 3/3/3 2/2/2 1/1/1
f 2/2/2 4/4/4 1/1/1
f 1/1/1 4/4/4 5/5/5
f 2/2/2 6/6/6 4/4/4
f 4/4/4 7/7/7 5/5/5
f 5/5/5 7/7/7 8/8/8
f 6/6/6 9/9/9 4/4/4
f 4/4/4 9/9/9 7/7/7
f 6/6/6 10/10/10 9/9/9
f 10/10/10 11/11/11 9/9/9
f 9/9/9 11/11/11 12/12/12
f 9/9/9 12/12/12 7/7/7
f 11/11/11 13/13/13 12/12/12
f 7/7/7 14/14/14 8/8/8
f 7/7/7 12/12/12 14/14/14
f 8/8/8 14/14/14 15/15/15
f 12/12/12 13/13/13 16/16/16
f 12/12/12 16/16/16 14/14/14
f 13/13/13 17/17/17 16/16/16
f 14/14/14 18/18/18 15/15/15
f 14/14/14 16/16/16 18/18/18
f 16/16/16 17/17/17 19/19/19
f 16/16/16 19/19/19 18/18/18
f 17/17/17 20/20/20 19/19/19
f 20/20/20 21/21/21 19/19/19
f 21/21/21 22/22/22 19/19/19
f 19/19/19 22/22/22 18/18/18
f 22/22/22 23/23/23 18/18/18
f 18/18/18 23/23/23 15/15/15
f 23/23/23 24/24/24 15/15/15
f 27/27/27 26/26/26 25/25/25
f 28/28/28 27/27/27 25/25/25
f 28/28/28 25/25/25 29/29/29
f 30/30/30 27/27/27 28/28/28
f 31/31/31 28/28/28 29/29/29
f 31/31/31 29/29/29 32/32/32
f 33/33/33 30/30/30 28/28/28
f 33/33/33 28/28/28 31/31/31
f 34/34/34 30/30/30 33/33/33
f 35/35/35 34/34/34 33/33/33
f 35/35/35 33/33/33 36/36/36
f 36/36/36 33/33/33 31/31/31
f 37/37/37 35/35/35 36/36/36
f 38/38/38 31/31/31 32/32/32
f 36/36/36 31/31/31 38/38/38
f 38/38/38 32/32/32 39/39/39
f 37/37/37 36/36/36 40/40/40
f 40/40/40 36/36/36 38/38/38
f 41/41/41 37/37/37 40/40/40
f 42/42/42 38/38/38 39/39/39
f 40/40/40 38/38/38 42/42/42
f 41/41/41 40/40/40 43/43/43
f 43/43/43 40/40/40 42/42/42
f 44/44/44 41/41/41 43/43/43
f 45/45/45 44/44/44 43/43/43
f 46/46/46 45/45/45 43/43/43
f 46/46/46 43/43/43 42/42/42
f 47/47/47 46/46/46 42/42/42
f 47/47/47 42/42/42 39/39/39
f 48/48/48 47/47/47 39/39/39
