g Body
v -1.365786 2.713352 0.666795
v 0 2.806599 0.666795
v 0 2.713352 0.666795
v 1.365786 2.713352 0.666795
v -1.458255 2.806599 0.666795
v -1.365786 1.010816 0.666795
v 1.458255 2.806599 0.666795
v 1.365786 1.010816 0.666795
v -1.458255 1.029556 0.666795
v -1.365786 0.828768 0.666795
v 0 2.806599 0.407872
v 1.458255 1.029556 0.666795
v 1.365786 0.828768 0.666795
v -1.458255 0.839541 0.666795
v -1.365786 -0.487677 0.666795
v -1.458255 -0.550132 0.666795
v -1.365786 -0.966917 0.666795
v -1.458255 1.313862 0.547725
v -1.458255 2.086945 0.547725
v -1.365786 2.023871 0.48137
v -1.458255 2.806599 0.407872
v -1.365786 2.713352 0.407872
v 0 2.713352 0.407872
v -1.458255 -1.050344 0.666795
v -1.365786 -2.649677 0.666795
v 1.458255 2.806599 0.407872
v 1.458255 2.086945 0.547725
v 1.365786 2.713352 0.407872
v 1.365786 2.023871 0.48137
v 0 2.713352 0.17719
v 1.458255 1.313862 0.547725
v -1.458255 -2.719734 0.666795
v 0 -2.649677 0.666795
v -1.365786 2.713352 0.17719
v 1.365786 2.713352 0.17719
v 0 2.400957 0.17719
v 1.458255 0.839541 0.666795
v 1.365786 -0.487677 0.666795
v 1.458255 -0.550132 0.666795
v 1.365786 -0.966917 0.666795
v -1.365786 2.400957 0.17719
v 1.365786 2.400957 0.17719
v 0 2.023871 0.48137
v 0 1.283202 0.48137
v 1.365786 1.283202 0.48137
v 0 0.84579 0.17719
v -1.365786 1.283202 0.48137
v 1.458255 -0.91836 0.547725
v 1.365786 -1.363397 0.48137
v 1.458255 -1.866563 0.547725
v 1.365786 0.84579 0.17719
v -1.458255 -0.91836 0.547725
v -1.365786 -1.363397 0.48137
v -1.458255 -1.866563 0.547725
v -1.458255 -2.719734 0.407872
v 1.458255 -1.050344 0.666795
v 1.365786 -2.649677 0.666795
v 1.458255 -2.719734 0.666795
v 0 -2.719734 0.666795
v 1.458255 -2.719734 0.407872
v -1.365786 -1.970148 0.48137
v 0 -2.719734 0.407872
v 1.365786 -1.970148 0.48137
v -1.365786 -2.649677 0.407872
v 1.365786 -2.649677 0.407872
v 0 -2.649677 0.407872
v -1.365786 -2.249893 0.17719
v -1.365786 -2.506854 0.17719
v 0 -2.506854 0.17719
v 1.365786 -2.506854 0.17719
v 1.365786 -2.249893 0.17719
v 0 -2.249893 0.17719
v 0 -1.970148 0.48137
v 0 -1.363397 0.48137
v 1.365786 -0.971857 0.17719
v 0 -0.971857 0.17719
v -1.365786 -0.971857 0.17719
v -1.365786 0.84579 0.17719
v 0 -0.912046 1.615173
v 0 -0.941582 1.560192
v -1.306512 -0.941582 1.560192
v 1.306512 -0.941582 1.560192
v -1.241173 -0.912046 1.615173
v -1.245841 -0.510936 2.361846
v 1.241173 -0.912046 1.615173
v 1.245841 -0.510936 2.361846
v -1.180502 -0.540471 2.306865
v 0 -0.510936 2.361846
v 0 -0.805111 1.53311
v -1.241173 -0.805111 1.53311
v 1.241173 -0.805111 1.53311
v -1.180502 -0.433536 2.224802
v 1.180502 -0.540471 2.306865
v 1.180502 -0.433536 2.224802
v 0 -0.540471 2.306865
v 0 -0.433536 2.224802
v 0 0.853337 2.28747
v 0 0.84128 2.346556
v -1.303207 0.84128 2.346556
v 1.303207 0.84128 2.346556
v -1.242903 0.853337 2.28747
v -1.303207 0.998303 1.577075
v 1.242903 0.853337 2.28747
v 1.303207 0.998303 1.577075
v -1.242903 0.986246 1.636161
v 0 0.998303 1.577075
v 0 0.813885 2.271044
v -1.242903 0.813885 2.271044
v 1.242903 0.813885 2.271044
v -1.242903 0.813885 1.619735
v 1.242903 0.986246 1.636161
v 1.242903 0.813885 1.619735
v 0 0.986246 1.636161
v 0 0.813885 1.619735
v -1.365786 2.713352 1.51576
v -1.365786 1.010816 1.51576
v -1.365786 0.914325 0.782122
v -1.365786 0.914325 1.501899
v -1.365786 0.828768 2.407872
v -1.365786 0.828768 0.782122
v -1.365786 -0.487677 0.782122
v -1.365786 -0.870427 0.782122
v -1.365786 0.752983 2.292545
v -1.365786 -0.870427 1.481923
v -1.365786 -0.966917 1.51576
v -1.365786 -0.434963 2.292545
v -1.365786 -0.487677 2.407872
v 0 -0.487677 2.407872
v -1.365786 -2.467347 1.51576
v 0 -0.966917 1.51576
v 1.365786 -0.966917 1.51576
v 1.365786 -0.487677 2.407872
v 1.365786 0.828768 2.407872
v 0 0.828768 2.407872
v 1.365786 1.010816 1.51576
v 0 1.010816 1.51576
v 0 1.141663 1.51576
v -1.209395 1.141663 1.51576
v 1.365786 0.914325 1.501899
v 1.365786 0.752983 2.292545
v 1.365786 -0.434963 2.292545
v 1.365786 0.914325 0.782122
v 1.365786 -0.870427 1.481923
v 1.365786 -0.870427 0.782122
v 1.365786 -0.487677 0.782122
v 1.365786 0.828768 0.782122
v 1.365786 -2.467347 1.51576
v 1.365786 2.713352 1.51576
v 0 -2.467347 1.51576
v 1.365786 -2.726803 1.205654
v 0 -2.726803 1.205654
v -1.365786 -2.726803 1.205654
v 1.209395 1.141663 1.51576
v 0 2.713352 1.51576
v 0 1.141663 1.223259
v 1.209395 2.582505 1.51576
v -1.209395 2.582505 1.51576
v -1.209395 1.141663 1.223259
v 1.209395 1.141663 1.223259
v 0 2.582505 1.51576
v 0 2.313375 1.223259
v -1.209395 2.313375 1.223259
v 1.209395 2.313375 1.223259
vn -0.4082483 0.4082483 0.8164966
vn 0 0.7071068 0.7071068
vn 0 0.7071068 0.7071068
vn 0.4082483 0.4082483 0.8164966
vn -0.4082483 0.4082483 0.8164966
vn -0.8320503 0 0.5547002
vn 0.4082483 0.4082483 0.8164966
vn 0.8320503 0 0.5547002
vn -0.7071068 0 0.7071068
vn -0.7071068 0 0.7071068
vn 0 0.7071068 -0.7071068
vn 0.7071068 0 0.7071068
vn 0.7071068 0 0.7071068
vn -0.7071068 0 0.7071068
vn -0.7071068 0 0.7071068
vn -0.7071068 0 0.7071068
vn -0.8944272 0 0.4472136
vn -0.8896671 0 -0.4566098
vn -0.8701145 -0.03890675 -0.4913113
vn -0.4924451 -0.1862497 -0.8501816
vn -0.5676236 0.3425165 -0.748656
vn -0.5676236 0.3425165 -0.748656
vn 0 0.7071068 -0.7071068
vn -0.7071068 0 0.7071068
vn -0.6887033 -0.3408778 0.6399141
vn 0.5676236 0.3425165 -0.748656
vn 0.8701145 -0.03890675 -0.4913113
vn 0.5676236 0.3425165 -0.748656
vn 0.4924451 -0.1862497 -0.8501816
vn 0 0.7071068 -0.7071068
vn 0.8896671 0 -0.4566098
vn -0.4082483 -0.4082483 0.8164966
vn 0 -0.7555411 0.6551012
vn -0.5773503 0.5773503 -0.5773503
vn 0.5773503 0.5773503 -0.5773503
vn 0 -0.3329158 -0.9429565
vn 0.7071068 0 0.7071068
vn 0.7071068 0 0.7071068
vn 0.7071068 0 0.7071068
vn 0.8944272 0 0.4472136
vn -0.468464 -0.2941253 -0.8330857
vn 0.468464 -0.2941253 -0.8330857
vn 0 -0.3329158 -0.9429565
vn 0 0.2991663 -0.954201
vn 0.5270159 0.1389126 -0.8384256
vn 0 0.2991664 -0.954201
vn -0.5270159 0.1389126 -0.8384256
vn 0.8896671 0 -0.4566097
vn 0.5295984 -0.1500017 -0.8348802
vn 0.854908 0.03863578 -0.5173389
vn 0.4641384 0.2649904 -0.8451955
vn -0.8896671 0 -0.4566098
vn -0.5295984 -0.1500017 -0.8348802
vn -0.854908 0.03863578 -0.5173389
vn -0.525627 -0.3477335 -0.7764004
vn 0.7071068 0 0.7071068
vn 0.6887034 -0.3408779 0.6399141
vn 0.4082483 -0.4082483 0.8164966
vn 0 -0.7071068 0.7071067
vn 0.525627 -0.3477335 -0.7764004
vn -0.4725133 0.2159798 -0.8544495
vn 0 -0.7071068 -0.7071067
vn 0.4725133 0.2159798 -0.8544495
vn -0.4552065 -0.2492505 -0.8547872
vn 0.4552065 -0.2492506 -0.8547872
vn 0 -0.4866171 -0.8736153
vn -0.4792512 0.352754 -0.8036683
vn -0.4967314 -0.4223372 -0.7582146
vn 0 -0.4866171 -0.8736153
vn 0.4967314 -0.4223372 -0.7582146
vn 0.4792512 0.352754 -0.8036683
vn 0 0.4019175 -0.9156759
vn 0 0.4019175 -0.9156759
vn 0 -0.324272 -0.9459639
vn 0.4673004 -0.2866884 -0.8363253
vn 0 -0.3242721 -0.9459639
vn -0.4673004 -0.2866884 -0.8363253
vn -0.4641384 0.2649904 -0.8451955
vn 0 -0.2100635 0.9776877
vn 0 -0.8748884 0.4843246
vn 0.003604551 -0.8779783 0.4786867
vn -0.003604588 -0.8779783 0.4786867
vn 0.4350823 -0.523948 0.7322443
vn 0.003604543 -0.88393 0.4676053
vn -0.4350825 -0.523948 0.7322443
vn -0.003604579 -0.88393 0.4676053
vn 0.3809196 -0.923951 0.03485449
vn 0 -0.8867948 0.4621634
vn 0 -0.2100661 0.9776872
vn 0.6246524 -0.2002816 0.7547826
vn -0.6246524 -0.2002816 0.7547826
vn 0.5326642 -0.8213469 -0.2041032
vn -0.3809197 -0.923951 0.03485449
vn -0.5326641 -0.8213469 -0.2041032
vn 0 -0.9776863 -0.2100705
vn 0 -0.9776872 -0.2100661
vn 0 0.8835126 -0.4684072
vn 0 0.9798086 0.1999379
vn 0 0.979808 0.1999406
vn 0 0.979808 0.1999406
vn 0.3843847 0.9009929 -0.2011472
vn 0 0.979807 0.1999451
vn -0.3843847 0.9009929 -0.2011472
vn 0 0.979807 0.1999451
vn 0.3945351 0.7357079 0.5505232
vn 0 0.9798068 0.199947
vn 0 0.831977 -0.5548103
vn 0.5151121 0.7131063 -0.4755405
vn -0.5151121 0.7131063 -0.4755405
vn 0.5965225 0.5399304 0.5938319
vn -0.3945351 0.735708 0.5505232
vn -0.5965225 0.5399304 0.5938319
vn 0 0.5949828 0.8037385
vn 0 0.6727296 0.7398884
vn -0.4082483 0.4082483 0.8164966
vn -0.6956148 0.4543799 0.5564702
vn -1 0 0
vn -1 0 0
vn -0.6388826 0.6259853 0.4471817
vn -1 0 0
vn -1 0 0
vn -1 0 0
vn -1 0 0
vn -1 0 0
vn -0.7499468 -0.4395212 0.4943693
vn -1 0 0
vn -0.6044989 -0.539951 0.5856912
vn 0 -0.5239151 0.8517705
vn -0.8559772 -0.2188338 0.4684174
vn 0 -0.5023289 0.8646766
vn 0.7499468 -0.4395212 0.4943692
vn 0.6044989 -0.539951 0.5856912
vn 0.6388827 0.6259853 0.4471817
vn 0 0.6324805 0.7745762
vn 0.6956148 0.4543799 0.5564702
vn 0 0.6324732 0.7745823
vn 0 0.7071068 0.7071068
vn 0.4082483 0.4082483 0.8164966
vn 1 0 0
vn 1 0 0
vn 1 0 0
vn 1 0 0
vn 1 0 0
vn 1 0 0
vn 1 0 0
vn 1 0 0
vn 0.8559772 -0.2188338 0.4684174
vn 0.4082483 0.4082483 0.8164966
vn 0 -0.4232651 0.9060058
vn 0.4802028 -0.8436555 0.2401055
vn 0 -0.9618062 0.2737314
vn -0.4802028 -0.8436555 0.2401055
vn -0.4082483 0.4082483 0.8164966
vn 0 0.7071068 0.7071068
vn 0 0.7071068 0.7071068
vn -0.3388685 -0.2493715 0.9071836
vn 0.3388685 -0.2493715 0.9071836
vn 0.5773503 0.5773503 0.5773503
vn -0.5773503 0.5773503 0.5773503
vn 0 -0.4018108 0.9157227
vn 0 -0.4018108 0.9157227
vn 0.4792325 -0.3526645 0.8037189
vn -0.4792325 -0.3526645 0.8037189
g Body_0
f 3/3/3 2/2/2 1/1/1
f 2/2/2 3/3/3 4/4/4
f 2/2/2 5/5/5 1/1/1
f 1/1/1 5/5/5 6/6/6
f 7/7/7 2/2/2 4/4/4
f 7/7/7 4/4/4 8/8/8
f 5/5/5 9/9/9 6/6/6
f 6/6/6 9/9/9 10/10/10
f 2/2/2 11/11/11 5/5/5
f 11/11/11 2/2/2 7/7/7
f 12/12/12 7/7/7 8/8/8
f 12/12/12 8/8/8 13/13/13
f 9/9/9 14/14/14 10/10/10
f 10/10/10 14/14/14 15/15/15
f 14/14/14 16/16/16 15/15/15
f 15/15/15 16/16/16 17/17/17
f 14/14/14 9/9/9 18/18/18
f 14/14/14 18/18/18 16/16/16
f 9/9/9 5/5/5 19/19/19
f 9/9/9 19/19/19 18/18/18
f 18/18/18 19/19/19 20/20/20
f 5/5/5 21/21/21 19/19/19
f 11/11/11 21/21/21 5/5/5
f 19/19/19 21/21/21 22/22/22
f 20/20/20 19/19/19 22/22/22
f 21/21/21 11/11/11 23/23/23
f 22/22/22 21/21/21 23/23/23
f 16/16/16 24/24/24 17/17/17
f 17/17/17 24/24/24 25/25/25
f 11/11/11 26/26/26 23/23/23
f 26/26/26 11/11/11 7/7/7
f 26/26/26 7/7/7 27/27/27
f 7/7/7 12/12/12 27/27/27
f 26/26/26 28/28/28 23/23/23
f 26/26/26 27/27/27 28/28/28
f 27/27/27 29/29/29 28/28/28
f 23/23/23 30/30/30 22/22/22
f 30/30/30 23/23/23 28/28/28
f 27/27/27 12/12/12 31/31/31
f 27/27/27 31/31/31 29/29/29
f 24/24/24 32/32/32 25/25/25
f 25/25/25 32/32/32 33/33/33
f 30/30/30 34/34/34 22/22/22
f 22/22/22 34/34/34 20/20/20
f 35/35/35 30/30/30 28/28/28
f 35/35/35 28/28/28 29/29/29
f 34/34/34 30/30/30 36/36/36
f 30/30/30 35/35/35 36/36/36
f 12/12/12 37/37/37 31/31/31
f 37/37/37 12/12/12 13/13/13
f 37/37/37 13/13/13 38/38/38
f 39/39/39 37/37/37 38/38/38
f 31/31/31 37/37/37 39/39/39
f 39/39/39 38/38/38 40/40/40
f 34/34/34 41/41/41 20/20/20
f 41/41/41 34/34/34 36/36/36
f 35/35/35 42/42/42 36/36/36
f 42/42/42 35/35/35 29/29/29
f 41/41/41 36/36/36 43/43/43
f 36/36/36 42/42/42 43/43/43
f 20/20/20 41/41/41 43/43/43
f 42/42/42 29/29/29 43/43/43
f 20/20/20 43/43/43 44/44/44
f 43/43/43 29/29/29 44/44/44
f 31/31/31 45/45/45 29/29/29
f 29/29/29 45/45/45 44/44/44
f 46/46/46 44/44/44 45/45/45
f 47/47/47 20/20/20 44/44/44
f 44/44/44 46/46/46 47/47/47
f 47/47/47 18/18/18 20/20/20
f 48/48/48 31/31/31 39/39/39
f 31/31/31 48/48/48 45/45/45
f 48/48/48 49/49/49 45/45/45
f 50/50/50 48/48/48 39/39/39
f 48/48/48 50/50/50 49/49/49
f 51/51/51 46/46/46 45/45/45
f 51/51/51 45/45/45 49/49/49
f 52/52/52 18/18/18 47/47/47
f 53/53/53 52/52/52 47/47/47
f 18/18/18 52/52/52 16/16/16
f 52/52/52 54/54/54 16/16/16
f 54/54/54 52/52/52 53/53/53
f 54/54/54 24/24/24 16/16/16
f 54/54/54 55/55/55 24/24/24
f 55/55/55 32/32/32 24/24/24
f 56/56/56 50/50/50 39/39/39
f 56/56/56 39/39/39 40/40/40
f 56/56/56 40/40/40 57/57/57
f 58/58/58 56/56/56 57/57/57
f 58/58/58 57/57/57 33/33/33
f 32/32/32 59/59/59 33/33/33
f 59/59/59 58/58/58 33/33/33
f 32/32/32 55/55/55 59/59/59
f 58/58/58 60/60/60 56/56/56
f 60/60/60 50/50/50 56/56/56
f 60/60/60 58/58/58 59/59/59
f 61/61/61 54/54/54 53/53/53
f 55/55/55 54/54/54 61/61/61
f 55/55/55 62/62/62 59/59/59
f 62/62/62 60/60/60 59/59/59
f 50/50/50 60/60/60 63/63/63
f 50/50/50 63/63/63 49/49/49
f 64/64/64 55/55/55 61/61/61
f 62/62/62 55/55/55 64/64/64
f 60/60/60 62/62/62 65/65/65
f 60/60/60 65/65/65 63/63/63
f 66/66/66 62/62/62 64/64/64
f 62/62/62 66/66/66 65/65/65
f 61/61/61 67/67/67 64/64/64
f 64/64/64 68/68/68 66/66/66
f 67/67/67 68/68/68 64/64/64
f 68/68/68 69/69/69 66/66/66
f 69/69/69 68/68/68 67/67/67
f 70/70/70 65/65/65 66/66/66
f 69/69/69 70/70/70 66/66/66
f 70/70/70 71/71/71 65/65/65
f 70/70/70 69/69/69 71/71/71
f 71/71/71 63/63/63 65/65/65
f 72/72/72 69/69/69 67/67/67
f 69/69/69 72/72/72 71/71/71
f 72/72/72 67/67/67 61/61/61
f 71/71/71 72/72/72 63/63/63
f 73/73/73 72/72/72 61/61/61
f 72/72/72 73/73/73 63/63/63
f 73/73/73 61/61/61 53/53/53
f 63/63/63 73/73/73 49/49/49
f 73/73/73 74/74/74 49/49/49
f 74/74/74 73/73/73 53/53/53
f 75/75/75 49/49/49 74/74/74
f 75/75/75 51/51/51 49/49/49
f 46/46/46 51/51/51 75/75/75
f 76/76/76 75/75/75 74/74/74
f 76/76/76 46/46/46 75/75/75
f 77/77/77 76/76/76 74/74/74
f 53/53/53 77/77/77 74/74/74
f 46/46/46 76/76/76 77/77/77
f 78/78/78 77/77/77 53/53/53
f 78/78/78 46/46/46 77/77/77
f 47/47/47 78/78/78 53/53/53
f 46/46/46 78/78/78 47/47/47
f 81/81/81 80/80/80 79/79/79
f 80/80/80 82/82/82 79/79/79
f 83/83/83 81/81/81 79/79/79
f 84/84/84 81/81/81 83/83/83
f 82/82/82 85/85/85 79/79/79
f 82/82/82 86/86/86 85/85/85
f 87/87/87 84/84/84 83/83/83
f 88/88/88 84/84/84 87/87/87
f 79/79/79 89/89/89 83/83/83
f 89/89/89 79/79/79 85/85/85
f 89/89/89 90/90/90 83/83/83
f 83/83/83 90/90/90 87/87/87
f 91/91/91 89/89/89 85/85/85
f 90/90/90 92/92/92 87/87/87
f 86/86/86 93/93/93 85/85/85
f 91/91/91 85/85/85 93/93/93
f 86/86/86 88/88/88 93/93/93
f 94/94/94 91/91/91 93/93/93
f 87/87/87 92/92/92 95/95/95
f 95/95/95 88/88/88 87/87/87
f 88/88/88 95/95/95 93/93/93
f 94/94/94 93/93/93 95/95/95
f 92/92/92 96/96/96 95/95/95
f 96/96/96 94/94/94 95/95/95
f 99/99/99 98/98/98 97/97/97
f 98/98/98 100/100/100 97/97/97
f 101/101/101 99/99/99 97/97/97
f 102/102/102 99/99/99 101/101/101
f 100/100/100 103/103/103 97/97/97
f 100/100/100 104/104/104 103/103/103
f 105/105/105 102/102/102 101/101/101
f 106/106/106 102/102/102 105/105/105
f 97/97/97 107/107/107 101/101/101
f 107/107/107 97/97/97 103/103/103
f 107/107/107 108/108/108 101/101/101
f 101/101/101 108/108/108 105/105/105
f 109/109/109 107/107/107 103/103/103
f 108/108/108 110/110/110 105/105/105
f 104/104/104 111/111/111 103/103/103
f 109/109/109 103/103/103 111/111/111
f 104/104/104 106/106/106 111/111/111
f 112/112/112 109/109/109 111/111/111
f 105/105/105 110/110/110 113/113/113
f 113/113/113 106/106/106 105/105/105
f 106/106/106 113/113/113 111/111/111
f 112/112/112 111/111/111 113/113/113
f 110/110/110 114/114/114 113/113/113
f 114/114/114 112/112/112 113/113/113
g Body_1
f 115/115/115 1/1/1 6/6/6
f 3/3/3 1/1/1 115/115/115
f 116/116/116 115/115/115 6/6/6
f 116/116/116 6/6/6 117/117/117
f 118/118/118 116/116/116 117/117/117
f 119/119/119 116/116/116 118/118/118
f 117/117/117 6/6/6 120/120/120
f 6/6/6 10/10/10 120/120/120
f 120/120/120 10/10/10 121/121/121
f 10/10/10 15/15/15 121/121/121
f 121/121/121 15/15/15 122/122/122
f 15/15/15 17/17/17 122/122/122
f 123/123/123 119/119/119 118/118/118
f 122/122/122 17/17/17 124/124/124
f 17/17/17 125/125/125 124/124/124
f 124/124/124 125/125/125 126/126/126
f 126/126/126 127/127/127 123/123/123
f 127/127/127 119/119/119 123/123/123
f 125/125/125 127/127/127 126/126/126
f 119/119/119 127/127/127 128/128/128
f 129/129/129 125/125/125 17/17/17
f 129/129/129 17/17/17 25/25/25
f 128/128/128 127/127/127 84/84/84
f 84/84/84 127/127/127 81/81/81
f 127/127/127 125/125/125 81/81/81
f 88/88/88 128/128/128 84/84/84
f 81/81/81 125/125/125 80/80/80
f 128/128/128 88/88/88 86/86/86
f 125/125/125 130/130/130 80/80/80
f 125/125/125 129/129/129 130/130/130
f 130/130/130 131/131/131 80/80/80
f 131/131/131 82/82/82 80/80/80
f 132/132/132 86/86/86 82/82/82
f 132/132/132 128/128/128 86/86/86
f 131/131/131 132/132/132 82/82/82
f 132/132/132 133/133/133 128/128/128
f 133/133/133 134/134/134 128/128/128
f 134/134/134 119/119/119 128/128/128
f 119/119/119 134/134/134 98/98/98
f 134/134/134 133/133/133 98/98/98
f 99/99/99 119/119/119 98/98/98
f 116/116/116 119/119/119 99/99/99
f 133/133/133 100/100/100 98/98/98
f 102/102/102 116/116/116 99/99/99
f 133/133/133 135/135/135 100/100/100
f 135/135/135 104/104/104 100/100/100
f 135/135/135 136/136/136 104/104/104
f 136/136/136 116/116/116 102/102/102
f 136/136/136 106/106/106 104/104/104
f 106/106/106 136/136/136 102/102/102
f 116/116/116 136/136/136 137/137/137
f 136/136/136 135/135/135 137/137/137
f 138/138/138 116/116/116 137/137/137
f 115/115/115 116/116/116 138/138/138
f 135/135/135 133/133/133 139/139/139
f 133/133/133 140/140/140 139/139/139
f 133/133/133 132/132/132 140/140/140
f 132/132/132 141/141/141 140/140/140
f 132/132/132 131/131/131 141/141/141
f 135/135/135 139/139/139 142/142/142
f 131/131/131 143/143/143 141/141/141
f 131/131/131 40/40/40 143/143/143
f 40/40/40 144/144/144 143/143/143
f 40/40/40 38/38/38 144/144/144
f 38/38/38 145/145/145 144/144/144
f 38/38/38 13/13/13 145/145/145
f 13/13/13 146/146/146 145/145/145
f 13/13/13 8/8/8 146/146/146
f 8/8/8 142/142/142 146/146/146
f 8/8/8 135/135/135 142/142/142
f 40/40/40 131/131/131 147/147/147
f 147/147/147 131/131/131 130/130/130
f 57/57/57 40/40/40 147/147/147
f 148/148/148 135/135/135 8/8/8
f 4/4/4 148/148/148 8/8/8
f 4/4/4 3/3/3 148/148/148
f 149/149/149 147/147/147 130/130/130
f 129/129/129 149/149/149 130/130/130
f 147/147/147 150/150/150 57/57/57
f 150/150/150 147/147/147 149/149/149
f 57/57/57 150/150/150 151/151/151
f 151/151/151 150/150/150 149/149/149
f 33/33/33 57/57/57 151/151/151
f 25/25/25 33/33/33 151/151/151
f 25/25/25 152/152/152 129/129/129
f 129/129/129 152/152/152 149/149/149
f 152/152/152 151/151/151 149/149/149
f 152/152/152 25/25/25 151/151/151
f 135/135/135 148/148/148 153/153/153
f 135/135/135 153/153/153 137/137/137
f 3/3/3 154/154/154 148/148/148
f 154/154/154 3/3/3 115/115/115
f 155/155/155 137/137/137 153/153/153
f 137/137/137 155/155/155 138/138/138
f 148/148/148 156/156/156 153/153/153
f 148/148/148 154/154/154 156/156/156
f 157/157/157 115/115/115 138/138/138
f 154/154/154 115/115/115 157/157/157
f 155/155/155 158/158/158 138/138/138
f 138/138/138 158/158/158 157/157/157
f 159/159/159 155/155/155 153/153/153
f 159/159/159 153/153/153 156/156/156
f 160/160/160 154/154/154 157/157/157
f 154/154/154 160/160/160 156/156/156
f 155/155/155 161/161/161 158/158/158
f 161/161/161 155/155/155 159/159/159
f 158/158/158 162/162/162 157/157/157
f 157/157/157 162/162/162 160/160/160
f 161/161/161 162/162/162 158/158/158
f 162/162/162 161/161/161 160/160/160
f 163/163/163 159/159/159 156/156/156
f 163/163/163 156/156/156 160/160/160
f 163/163/163 161/161/161 159/159/159
f 161/161/161 163/163/163 160/160/160
g Body_2
f 92/92/92 90/90/90 96/96/96
f 90/90/90 89/89/89 96/96/96
f 89/89/89 91/91/91 96/96/96
f 91/91/91 94/94/94 96/96/96
f 114/114/114 110/110/110 108/108/108
f 107/107/107 114/114/114 108/108/108
f 114/114/114 107/107/107 109/109/109
f 112/112/112 114/114/114 109/109/109
