g BottleTreeStump
v -0.468189 0.468189 0.615032
v -0.356775 0.356775 0.615032
v -0.475699 0 0.615032
v -0.624252 0 0.615032
v -0.488986 0.488986 0.35494
v -0.356775 -0.356775 0.615032
v -0.651982 0 0.35494
v -0.468189 -0.468189 0.615032
v -0.488986 -0.488986 0.35494
v 0.468189 0.468189 0.615032
v 0.356775 0.356775 0.615032
v 0 0.475699 0.615032
v 0 0.624252 0.615032
v 0.488986 0.488986 0.35494
v -0.356775 0.356775 0.615032
v 0 0.651982 0.35494
v -0.468189 0.468189 0.615032
v -0.488986 0.488986 0.35494
v 0.468189 -0.468189 0.615032
v 0.356775 -0.356775 0.615032
v 0.475699 0 0.615032
v 0.624252 0 0.615032
v 0.488986 -0.488986 0.35494
v 0.356775 0.356775 0.615032
v 0.651982 0 0.35494
v 0.468189 0.468189 0.615032
v 0.488986 0.488986 0.35494
v -0.468189 -0.468189 0.615032
v -0.356775 -0.356775 0.615032
v 0 -0.475699 0.615032
v 0 -0.624252 0.615032
v -0.488986 -0.488986 0.35494
v 0.356775 -0.356775 0.615032
v 0 -0.651982 0.35494
v 0.468189 -0.468189 0.615032
v 0.488986 -0.488986 0.35494
v -0.568506 0 0.103627
v -0.453798 0 0.01196
v -0.340349 0.340349 0.01196
v -0.340349 -0.340349 0.01196
v -0.42638 -0.42638 0.103627
v -0.488986 -0.488986 0.35494
v -0.651982 0 0.35494
v -0.488986 0.488986 0.35494
v -0.42638 0.42638 0.103627
v 0 0.568506 0.103627
v 0 0.453798 0.01196
v 0 0.651982 0.35494
v 0.340349 0.340349 0.01196
v 0.488986 0.488986 0.35494
v 0.42638 0.42638 0.103627
v 0.568506 0 0.103627
v 0.453798 0 0.01196
v 0.340349 -0.340349 0.01196
v 0.340349 0.340349 0.01196
v 0.42638 0.42638 0.103627
v 0.488986 0.488986 0.35494
v 0.651982 0 0.35494
v 0.488986 -0.488986 0.35494
v 0.42638 -0.42638 0.103627
v 0 -0.568506 0.103627
v 0 -0.453798 0.01196
v 0 -0.651982 0.35494
v -0.340349 -0.340349 0.01196
v -0.488986 -0.488986 0.35494
v -0.42638 -0.42638 0.103627
v 0 -0.415562 -0.029288
v 0 -0.453798 0.01196
v 0.340349 -0.340349 0.01196
v 0.311672 -0.311672 -0.029288
v -0.340349 -0.340349 0.01196
v 0.230868 -0.230868 -0.038198
v -0.311672 -0.311672 -0.029288
v -0.415562 0 -0.029288
v -0.453798 0 0.01196
v -0.340349 0.340349 0.01196
v -0.230868 -0.230868 -0.038198
v 0 -0.311672 -0.041317
v 0 0 -0.045326
v 0.311672 0 -0.041317
v 0.230868 0.230868 -0.038198
v 0 0.311672 -0.041317
v -0.230868 0.230868 -0.038198
v -0.311672 0 -0.041317
v -0.311672 0.311672 -0.029288
v 0 0.415562 -0.029288
v 0 0.453798 0.01196
v 0 0.311672 -0.041317
v 0.340349 0.340349 0.01196
v 0.230868 0.230868 -0.038198
v 0.311672 0.311672 -0.029288
v 0.415562 0 -0.029288
v 0.453798 0 0.01196
v 0.311672 0 -0.041317
v 0.340349 -0.340349 0.01196
v 0.230868 -0.230868 -0.038198
v 0.311672 -0.311672 -0.029288
v -0.356775 0.356775 0.615032
v -0.356775 0.356775 0.19303
v -0.475699 0 0.19303
v -0.475699 0 0.615032
v 0 0.475699 0.615032
v -0.356775 -0.356775 0.19303
v -0.356775 -0.356775 0.615032
v 0 0.475699 0.19303
v 0.356775 0.356775 0.615032
v 0 -0.475699 0.19303
v 0 -0.475699 0.615032
v 0.356775 0.356775 0.19303
v 0.475699 0 0.615032
v 0.356775 -0.356775 0.19303
v 0.356775 -0.356775 0.615032
v 0.475699 0 0.19303
v -0.375209 0 0.05395
v -0.281407 -0.281407 0.05395
v -0.281407 0.281407 0.05395
v 0 -0.375209 0.05395
v 0 0.375209 0.05395
v 0.281407 -0.281407 0.05395
v 0.281407 0.281407 0.05395
v 0.375209 0 0.05395
vt 0.735748 0.259881
vt 0.735748 0.259881
vt 0.555229 0.259881
vt 0.555229 0.259881
vt 0.752859 0.17022
vt 0.374711 0.259881
vt 0.555229 0.17022
vt 0.374711 0.259881
vt 0.3576 0.17022
vt 0.859939 0.259881
vt 0.859939 0.259881
vt 0.679421 0.259881
vt 0.679421 0.259881
vt 0.87705 0.17022
vt 0.498902 0.259881
vt 0.679421 0.17022
vt 0.498902 0.259881
vt 0.481791 0.17022
vt 0.374711 0.259881
vt 0.374711 0.259881
vt 0.555229 0.259881
vt 0.555229 0.259881
vt 0.3576 0.17022
vt 0.735748 0.259881
vt 0.555229 0.17022
vt 0.735748 0.259881
vt 0.752859 0.17022
vt -0.048966 0.259881
vt -0.048966 0.259881
vt 0.131553 0.259881
vt 0.131553 0.259881
vt -0.066077 0.17022
vt 0.312071 0.259881
vt 0.131553 0.17022
vt 0.312071 0.259881
vt 0.329182 0.17022
vt 0.523688 0.28399
vt 0.565584 0.28399
vt 0.594043 0.369367
vt 0.565584 0.170153
vt 0.523688 0.128257
vt 0.481791 0.08636
vt 0.481791 0.28399
vt 0.531198 0.432212
vt 0.562621 0.40079
vt 0.679421 0.439723
vt 0.679421 0.397827
vt 0.679421 0.48162
vt 0.793257 0.397827
vt 0.87705 0.48162
vt 0.835154 0.439723
vt 0.287286 0.28399
vt 0.245389 0.28399
vt 0.21693 0.198612
vt 0.245389 0.397827
vt 0.287286 0.439723
vt 0.329182 0.48162
vt 0.329182 0.28399
vt 0.279775 0.135768
vt 0.248352 0.16719
vt 0.131553 0.128257
vt 0.131553 0.170153
vt 0.131553 0.08636
vt 0.017716 0.170153
vt -0.066077 0.08636
vt -0.02418 0.128257
vt 0.856856 0.274757
vt 0.857003 0.279084
vt 0.925603 0.269032
vt 0.925203 0.264706
vt 0.788545 0.282352
vt 0.942045 0.25719
vt 0.788624 0.278025
vt 0.720623 0.267727
vt 0.720368 0.272053
vt 0.652087 0.256728
vt 0.79631 0.270346
vt 0.85685 0.267242
vt 0.857125 0.253349
vt 0.993373 0.243297
vt 1.061944 0.226215
vt 0.857542 0.236266
vt 0.686857 0.241292
vt 0.754875 0.261969
vt 0.652389 0.252402
vt 0.58346 0.240593
vt 0.583313 0.244919
vt 0.583608 0.236266
vt 0.514478 0.241651
vt 0.514316 0.232998
vt 0.514397 0.237324
vt 0.44576 0.247623
vt 0.446014 0.25195
vt 0.445505 0.243297
vt 0.377735 0.269032
vt 0.376935 0.260379
vt 0.377335 0.264706
vt 0.500231 0.356036
vt 0.603262 0.307395
vt 0.608005 0.256221
vt 0.500402 0.216293
vt 0.599215 0.452219
vt 0.645041 0.22064
vt 0.596853 0.117507
vt 0.639314 0.344476
vt 0.739016 0.452805
vt 0.696336 0.226107
vt 0.736508 0.118434
vt 0.690672 0.349591
vt 0.835439 0.353893
vt 0.732623 0.262922
vt 0.835439 0.214205
vt 0.72783 0.313961
vt 0.629195 0.266375
vt 0.6524 0.242252
vt 0.624906 0.299754
vt 0.686011 0.247542
vt 0.649603 0.323117
vt 0.711111 0.270582
vt 0.683213 0.327889
vt 0.706684 0.303718
vn -0.6400276 0.6400276 0.4251227
vn 0.617195 -0.617195 0.4879965
vn 0.8978678 0 0.4402653
vn -0.8980384 0 0.439917
vn -0.7034122 0.7034121 -0.102091
vn 0.617195 0.617195 0.4879965
vn -0.9951074 0 -0.09879942
vn -0.6400276 -0.6400276 0.4251227
vn -0.7034121 -0.7034122 -0.102091
vn 0.6400276 0.6400276 0.4251228
vn -0.617195 -0.617195 0.4879965
vn 0 -0.8978678 0.4402653
vn 0 0.8980384 0.439917
vn 0.7034121 0.7034122 -0.102091
vn 0.617195 -0.617195 0.4879965
vn 0 0.9951074 -0.09879944
vn -0.6400276 0.6400276 0.4251227
vn -0.7034122 0.7034121 -0.102091
vn 0.6400276 -0.6400276 0.4251228
vn -0.617195 0.617195 0.4879965
vn -0.8978678 0 0.4402653
vn 0.8980384 0 0.439917
vn 0.7034122 -0.7034122 -0.102091
vn -0.617195 -0.617195 0.4879965
vn 0.9951074 0 -0.09879942
vn 0.6400276 0.6400276 0.4251228
vn 0.7034121 0.7034122 -0.102091
vn -0.6400276 -0.6400276 0.4251227
vn 0.617195 0.617195 0.4879965
vn 0 0.8978678 0.4402653
vn 0 -0.8980384 0.4399171
vn -0.7034121 -0.7034122 -0.102091
vn -0.617195 0.617195 0.4879965
vn 0 -0.9951074 -0.09879944
vn 0.6400276 -0.6400276 0.4251228
vn 0.7034122 -0.7034122 -0.102091
vn -0.8904641 0 -0.4550535
vn -0.646687 0 -0.7627555
vn -0.4397883 0.4397883 -0.7830532
vn -0.4397883 -0.4397883 -0.7830533
vn -0.6262602 -0.6262601 -0.4643238
vn -0.7034121 -0.7034122 -0.102091
vn -0.9951074 0 -0.09879942
vn -0.7034122 0.7034121 -0.102091
vn -0.6262601 0.6262601 -0.4643238
vn 0 0.8904641 -0.4550535
vn 0 0.646687 -0.7627555
vn 0 0.9951074 -0.09879944
vn 0.4397883 0.4397883 -0.7830533
vn 0.7034121 0.7034122 -0.102091
vn 0.6262601 0.6262601 -0.4643238
vn 0.8904641 0 -0.4550535
vn 0.646687 0 -0.7627555
vn 0.4397883 -0.4397884 -0.7830533
vn 0.4397883 0.4397883 -0.7830533
vn 0.6262601 0.6262601 -0.4643238
vn 0.7034121 0.7034122 -0.102091
vn 0.9951074 0 -0.09879942
vn 0.7034122 -0.7034122 -0.102091
vn 0.6262601 -0.6262601 -0.4643238
vn 0 -0.8904641 -0.4550535
vn 0 -0.646687 -0.7627555
vn 0 -0.9951074 -0.09879944
vn -0.4397883 -0.4397883 -0.7830533
vn -0.7034121 -0.7034122 -0.102091
vn -0.6262602 -0.6262601 -0.4643238
vn 0 -0.4267926 -0.9043496
vn 0 -0.646687 -0.7627555
vn 0.4397883 -0.4397884 -0.7830533
vn 0.3095476 -0.3095476 -0.8990888
vn -0.4397883 -0.4397883 -0.7830533
vn 0.03719448 -0.03719448 -0.9986156
vn -0.3095476 -0.3095476 -0.8990888
vn -0.4267926 0 -0.9043496
vn -0.646687 0 -0.7627555
vn -0.4397883 0.4397883 -0.7830532
vn -0.03719448 -0.03719448 -0.9986156
vn 0 -0.04630916 -0.9989272
vn 0 0 -1
vn 0.04630915 0 -0.9989272
vn 0.03719448 0.03719448 -0.9986156
vn 0 0.04630916 -0.9989272
vn -0.03719448 0.03719448 -0.9986156
vn -0.04630916 0 -0.9989272
vn -0.3095476 0.3095476 -0.8990888
vn 0 0.4267926 -0.9043496
vn 0 0.646687 -0.7627555
vn 0 0.04630916 -0.9989272
vn 0.4397883 0.4397883 -0.7830533
vn 0.03719448 0.03719448 -0.9986156
vn 0.3095476 0.3095476 -0.8990888
vn 0.4267925 0 -0.9043496
vn 0.646687 0 -0.7627555
vn 0.04630915 0 -0.9989272
vn 0.4397883 -0.4397884 -0.7830533
vn 0.03719448 -0.03719448 -0.9986156
vn 0.3095476 -0.3095476 -0.8990888
vn 0.617195 -0.617195 0.4879965
vn 0.6992988 -0.6992989 0.1481968
vn 0.98908 0 0.1473794
vn 0.8978678 0 0.4402653
vn 0 -0.8978678 0.4402653
vn 0.6992989 0.6992989 0.1481968
vn 0.617195 0.617195 0.4879965
vn 0 -0.98908 0.1473794
vn -0.617195 -0.617195 0.4879965
vn 0 0.98908 0.1473794
vn 0 0.8978678 0.4402653
vn -0.6992989 -0.6992989 0.1481968
vn -0.8978678 0 0.4402653
vn -0.6992989 0.6992989 0.1481968
vn -0.617195 0.617195 0.4879965
vn -0.98908 0 0.1473794
vn 0.6576894 0 0.7532892
vn 0.3446651 0.3446652 0.8731619
vn 0.3105602 -0.3105602 0.8983901
vn 0 0.4030032 0.9151986
vn 0 -0.4030033 0.9151985
vn -0.3105602 0.3105602 0.8983901
vn -0.3446652 -0.3446652 0.873162
vn -0.6576894 0 0.7532892
g BottleTreeStump_0
f 3/3/3 2/2/2 1/1/1
f 4/4/4 3/3/3 1/1/1
f 1/1/1 5/5/5 4/4/4
f 6/6/6 3/3/3 4/4/4
f 5/5/5 7/7/7 4/4/4
f 8/8/8 6/6/6 4/4/4
f 7/7/7 9/9/9 4/4/4
f 9/9/9 8/8/8 4/4/4
f 12/12/12 11/11/11 10/10/10
f 13/13/13 12/12/12 10/10/10
f 10/10/10 14/14/14 13/13/13
f 15/15/15 12/12/12 13/13/13
f 14/14/14 16/16/16 13/13/13
f 17/17/17 15/15/15 13/13/13
f 16/16/16 18/18/18 13/13/13
f 18/18/18 17/17/17 13/13/13
f 21/21/21 20/20/20 19/19/19
f 22/22/22 21/21/21 19/19/19
f 19/19/19 23/23/23 22/22/22
f 24/24/24 21/21/21 22/22/22
f 23/23/23 25/25/25 22/22/22
f 26/26/26 24/24/24 22/22/22
f 25/25/25 27/27/27 22/22/22
f 27/27/27 26/26/26 22/22/22
f 30/30/30 29/29/29 28/28/28
f 31/31/31 30/30/30 28/28/28
f 28/28/28 32/32/32 31/31/31
f 33/33/33 30/30/30 31/31/31
f 32/32/32 34/34/34 31/31/31
f 35/35/35 33/33/33 31/31/31
f 34/34/34 36/36/36 31/31/31
f 36/36/36 35/35/35 31/31/31
f 39/39/39 38/38/38 37/37/37
f 38/38/38 40/40/40 37/37/37
f 40/40/40 41/41/41 37/37/37
f 41/41/41 42/42/42 37/37/37
f 42/42/42 43/43/43 37/37/37
f 43/43/43 44/44/44 37/37/37
f 45/45/45 39/39/39 37/37/37
f 44/44/44 45/45/45 37/37/37
f 39/39/39 45/45/45 46/46/46
f 45/45/45 44/44/44 46/46/46
f 47/47/47 39/39/39 46/46/46
f 44/44/44 48/48/48 46/46/46
f 49/49/49 47/47/47 46/46/46
f 48/48/48 50/50/50 46/46/46
f 51/51/51 49/49/49 46/46/46
f 50/50/50 51/51/51 46/46/46
f 54/54/54 53/53/53 52/52/52
f 53/53/53 55/55/55 52/52/52
f 55/55/55 56/56/56 52/52/52
f 56/56/56 57/57/57 52/52/52
f 57/57/57 58/58/58 52/52/52
f 58/58/58 59/59/59 52/52/52
f 60/60/60 54/54/54 52/52/52
f 59/59/59 60/60/60 52/52/52
f 54/54/54 60/60/60 61/61/61
f 60/60/60 59/59/59 61/61/61
f 62/62/62 54/54/54 61/61/61
f 59/59/59 63/63/63 61/61/61
f 64/64/64 62/62/62 61/61/61
f 63/63/63 65/65/65 61/61/61
f 66/66/66 64/64/64 61/61/61
f 65/65/65 66/66/66 61/61/61
f 69/69/69 68/68/68 67/67/67
f 70/70/70 69/69/69 67/67/67
f 68/68/68 71/71/71 67/67/67
f 72/72/72 70/70/70 67/67/67
f 71/71/71 73/73/73 67/67/67
f 73/73/73 71/71/71 74/74/74
f 71/71/71 75/75/75 74/74/74
f 75/75/75 76/76/76 74/74/74
f 73/73/73 77/77/77 67/67/67
f 77/77/77 73/73/73 74/74/74
f 78/78/78 72/72/72 67/67/67
f 77/77/77 78/78/78 67/67/67
f 72/72/72 78/78/78 79/79/79
f 78/78/78 77/77/77 79/79/79
f 80/80/80 72/72/72 79/79/79
f 81/81/81 80/80/80 79/79/79
f 82/82/82 81/81/81 79/79/79
f 83/83/83 82/82/82 79/79/79
f 77/77/77 84/84/84 79/79/79
f 84/84/84 77/77/77 74/74/74
f 84/84/84 83/83/83 79/79/79
f 83/83/83 84/84/84 74/74/74
f 76/76/76 85/85/85 74/74/74
f 85/85/85 83/83/83 74/74/74
f 85/85/85 76/76/76 86/86/86
f 83/83/83 85/85/85 86/86/86
f 76/76/76 87/87/87 86/86/86
f 88/88/88 83/83/83 86/86/86
f 87/87/87 89/89/89 86/86/86
f 90/90/90 88/88/88 86/86/86
f 89/89/89 91/91/91 86/86/86
f 91/91/91 90/90/90 86/86/86
f 91/91/91 89/89/89 92/92/92
f 90/90/90 91/91/91 92/92/92
f 89/89/89 93/93/93 92/92/92
f 94/94/94 90/90/90 92/92/92
f 93/93/93 95/95/95 92/92/92
f 96/96/96 94/94/94 92/92/92
f 95/95/95 97/97/97 92/92/92
f 97/97/97 96/96/96 92/92/92
f 100/100/100 99/99/99 98/98/98
f 101/101/101 100/100/100 98/98/98
f 98/98/98 99/99/99 102/102/102
f 103/103/103 100/100/100 101/101/101
f 104/104/104 103/103/103 101/101/101
f 99/99/99 105/105/105 102/102/102
f 102/102/102 105/105/105 106/106/106
f 107/107/107 103/103/103 104/104/104
f 108/108/108 107/107/107 104/104/104
f 105/105/105 109/109/109 106/106/106
f 106/106/106 109/109/109 110/110/110
f 111/111/111 107/107/107 108/108/108
f 112/112/112 111/111/111 108/108/108
f 110/110/110 113/113/113 112/112/112
f 109/109/109 113/113/113 110/110/110
f 113/113/113 111/111/111 112/112/112
f 100/100/100 114/114/114 99/99/99
f 103/103/103 115/115/115 100/100/100
f 115/115/115 114/114/114 100/100/100
f 114/114/114 116/116/116 99/99/99
f 99/99/99 116/116/116 105/105/105
f 116/116/116 114/114/114 115/115/115
f 117/117/117 115/115/115 103/103/103
f 107/107/107 117/117/117 103/103/103
f 116/116/116 115/115/115 117/117/117
f 116/116/116 118/118/118 105/105/105
f 105/105/105 118/118/118 109/109/109
f 118/118/118 116/116/116 117/117/117
f 119/119/119 117/117/117 107/107/107
f 111/111/111 119/119/119 107/107/107
f 118/118/118 117/117/117 119/119/119
f 118/118/118 120/120/120 109/109/109
f 109/109/109 120/120/120 113/113/113
f 120/120/120 118/118/118 119/119/119
f 121/121/121 119/119/119 111/111/111
f 113/113/113 121/121/121 111/111/111
f 120/120/120 121/121/121 113/113/113
f 119/119/119 121/121/121 120/120/120
