g BottleBrushGrown
v 2.672043 -0.6514525 0
v 1.237131 -2.596986 0
v -0.5974784 -2.596986 0
v -2.672043 -1.190098 0
v -2.672043 1.250237 0
v -1.27569 2.586504 0
v 0.07348398 2.7471 0
v 2.672043 2.196909 0
vt 0 0.3640535
vt 0.2685047 0
vt 0.6118018 0
vt 1 0.2632607
vt 1 0.7199028
vt 0.7387106 0.9699487
vt 0.4862495 1
vt 0 0.8970467
vn 0 0 -1
vn 0 0 -0.9999999
vn 0 0 -0.9999999
vn 0 0 -1
vn 0 0 -1
vn 0 0 -1
vn 0 0 -1
vn 0 0 -0.9999999
g BottleBrushGrown_0
f 4/4/4 6/6/6 8/8/8
f 8/8/8 2/2/2 4/4/4
f 6/6/6 7/7/7 8/8/8
f 4/4/4 5/5/5 6/6/6
f 2/2/2 3/3/3 4/4/4
f 8/8/8 1/1/1 2/2/2
