g Bowl
v 0 0.272399 0.008093
v 0.240329 0.240329 0.051471
v 0 0.320438 0.051471
v 0 0.272399 0.008093
v 0 0.320438 0.051471
v -0.240329 0.240329 0.051471
v -0.204299 0.204299 0.008093
v -0.138637 0.138637 0.001765
v 0 0.175734 -0.00045
v 0.138637 0.138637 0.001765
v 0.204299 0.204299 0.008093
v 0.240329 0.240329 0.051471
v 0 0.334225 0.275066
v 0.250669 0.250669 0.275066
v 0.224386 0.224386 0.228237
v 0 0.299182 0.228237
v -0.224386 0.224386 0.228237
v -0.250669 0.250669 0.275066
v -0.334225 0 0.275066
v -0.299182 0 0.228237
v 0 0.334225 0.275066
v 0 0.356656 0.257554
v 0.267492 0.267492 0.257554
v 0.250669 0.250669 0.275066
v 0.334225 0 0.275066
v 0.356656 0 0.257554
v 0.267492 -0.267492 0.257554
v 0.250669 -0.250669 0.275066
v 0 0.334225 0.275066
v -0.267492 0.267492 0.257554
v 0 0.356656 0.257554
v -0.250669 0.250669 0.275066
v -0.334225 0 0.275066
v -0.356656 0 0.257554
v -0.267492 -0.267492 0.257554
v -0.250669 -0.250669 0.275066
v 0.334225 0 0.275066
v 0.224386 0.224386 0.228237
v 0.250669 0.250669 0.275066
v 0.299182 0 0.228237
v 0.224386 -0.224386 0.228237
v 0.250669 -0.250669 0.275066
v 0 -0.334225 0.275066
v 0.224386 -0.224386 0.228237
v 0.250669 -0.250669 0.275066
v 0 -0.299182 0.228237
v -0.224386 -0.224386 0.228237
v -0.250669 -0.250669 0.275066
v 0 -0.334225 0.275066
v -0.267492 -0.267492 0.257554
v -0.250669 -0.250669 0.275066
v 0 -0.356656 0.257554
v 0.267492 -0.267492 0.257554
v 0.250669 -0.250669 0.275066
v -0.334225 0 0.275066
v -0.299182 0 0.228237
v -0.224386 -0.224386 0.228237
v -0.250669 -0.250669 0.275066
v 0 0 0.015916
v 0 -0.185936 0.045423
v -0.142129 -0.142129 0.068372
v -0.185936 0 0.045423
v -0.267708 0 0.133943
v -0.200781 -0.200781 0.133943
v -0.224386 -0.224386 0.228237
v -0.299182 0 0.228237
v -0.224386 0.224386 0.228237
v -0.200781 0.200781 0.133943
v 0 0 0.015916
v 0.142129 -0.142129 0.068372
v 0 -0.185936 0.045423
v 0.185936 0 0.045423
v 0.267708 0 0.133943
v 0.142129 0.142129 0.068372
v 0.200781 -0.200781 0.133943
v 0.200781 0.200781 0.133943
v 0.224386 -0.224386 0.228237
v 0.224386 0.224386 0.228237
v 0.299182 0 0.228237
v 0 0 0.015916
v 0.142129 0.142129 0.068372
v 0.185936 0 0.045423
v 0 0.185936 0.045423
v 0 0.267708 0.133943
v 0.200781 0.200781 0.133943
v 0.224386 0.224386 0.228237
v 0 0.299182 0.228237
v -0.224386 0.224386 0.228237
v -0.200781 0.200781 0.133943
v -0.142129 0.142129 0.068372
v -0.185936 0 0.045423
v -0.267708 0 0.133943
v 0.350292 0 0.158823
v 0.320438 0 0.051471
v 0.240329 -0.240329 0.051471
v 0.262719 -0.262719 0.158823
v 0.240329 0.240329 0.051471
v 0.267492 -0.267492 0.257554
v 0.262719 0.262719 0.158823
v 0.356656 0 0.257554
v 0.267492 0.267492 0.257554
v 0 -0.350292 0.158823
v 0 -0.320438 0.051471
v -0.240329 -0.240329 0.051471
v -0.262719 -0.262719 0.158823
v 0.240329 -0.240329 0.051471
v -0.267492 -0.267492 0.257554
v 0.262719 -0.262719 0.158823
v 0 -0.356656 0.257554
v 0.267492 -0.267492 0.257554
v -0.350292 0 0.158823
v -0.320438 0 0.051471
v -0.240329 0.240329 0.051471
v -0.262719 0.262719 0.158823
v -0.240329 -0.240329 0.051471
v -0.267492 0.267492 0.257554
v -0.262719 -0.262719 0.158823
v -0.356656 0 0.257554
v -0.267492 -0.267492 0.257554
v 0 0.350292 0.158823
v 0 0.356656 0.257554
v -0.267492 0.267492 0.257554
v -0.262719 0.262719 0.158823
v 0.267492 0.267492 0.257554
v -0.240329 0.240329 0.051471
v 0.262719 0.262719 0.158823
v 0 0.320438 0.051471
v 0.240329 0.240329 0.051471
v 0 -0.267708 0.133943
v 0 -0.299182 0.228237
v -0.224386 -0.224386 0.228237
v -0.200781 -0.200781 0.133943
v 0.224386 -0.224386 0.228237
v -0.142129 -0.142129 0.068372
v 0.200781 -0.200781 0.133943
v 0 -0.185936 0.045423
v 0.142129 -0.142129 0.068372
v 0 0 -0.003297
v 0.175734 0 -0.00045
v 0.138637 0.138637 0.001765
v 0 0.175734 -0.00045
v 0.138637 -0.138637 0.001765
v -0.138637 0.138637 0.001765
v 0 -0.175734 -0.00045
v -0.175734 0 -0.00045
v -0.138637 -0.138637 0.001765
v -0.272399 0 0.008093
v -0.240329 -0.240329 0.051471
v -0.204299 -0.204299 0.008093
v -0.320438 0 0.051471
v -0.138637 -0.138637 0.001765
v -0.240329 0.240329 0.051471
v -0.175734 0 -0.00045
v -0.204299 0.204299 0.008093
v -0.138637 0.138637 0.001765
v 0.272399 0 0.008093
v 0.204299 -0.204299 0.008093
v 0.240329 -0.240329 0.051471
v 0.320438 0 0.051471
v 0.138637 -0.138637 0.001765
v 0.240329 0.240329 0.051471
v 0.175734 0 -0.00045
v 0.204299 0.204299 0.008093
v 0.138637 0.138637 0.001765
v 0 -0.272399 0.008093
v 0 -0.320438 0.051471
v 0.240329 -0.240329 0.051471
v 0.204299 -0.204299 0.008093
v -0.240329 -0.240329 0.051471
v 0.138637 -0.138637 0.001765
v -0.204299 -0.204299 0.008093
v 0 -0.175734 -0.00045
v -0.138637 -0.138637 0.001765
vt 0.5 0.5
vt 0.927571 0.072429
vt 0.5 0.072429
vt 0.5 0.5
vt 0.5 0.072429
vt 0.072429 0.072429
vt 0.072429 0.5
vt 0.072429 0.927571
vt 0.5 0.927571
vt 0.927571 0.927571
vt 0.927571 0.5
vt 0.927571 0.072429
vt 0.486731 0.604909
vt 0.568228 0.586793
vt 0.55793 0.573335
vt 0.488856 0.589052
vt 0.42436 0.560242
vt 0.410874 0.570571
vt 0.393108 0.489185
vt 0.408965 0.491271
vt 0.486731 0.604909
vt 0.486813 0.641391
vt 0.595629 0.614021
vt 0.568228 0.586793
vt 0.602914 0.510815
vt 0.639367 0.510638
vt 0.612426 0.401935
vt 0.585148 0.429429
vt 0.486731 0.604909
vt 0.383595 0.598065
vt 0.486813 0.641391
vt 0.410874 0.570571
vt 0.393108 0.489185
vt 0.356655 0.489363
vt 0.400393 0.385979
vt 0.427794 0.413207
vt 0.602914 0.510815
vt 0.55793 0.573335
vt 0.568228 0.586793
vt 0.587057 0.508729
vt 0.571661 0.439758
vt 0.585148 0.429429
vt 0.509291 0.395091
vt 0.571661 0.439758
vt 0.585148 0.429429
vt 0.507165 0.410948
vt 0.438092 0.426665
vt 0.427794 0.413207
vt 0.509291 0.395091
vt 0.400393 0.385979
vt 0.427794 0.413207
vt 0.509209 0.358609
vt 0.612426 0.401935
vt 0.585148 0.429429
vt 0.393108 0.489185
vt 0.408965 0.491271
vt 0.438092 0.426665
vt 0.427794 0.413207
vt 0.500002 0.476943
vt 0.504812 0.34038
vt 0.384719 0.352245
vt 0.363699 0.464401
vt 0.246236 0.466909
vt 0.308162 0.279745
vt 0.217641 0.207606
vt 0.138193 0.476943
vt 0.239649 0.74628
vt 0.311193 0.659091
vt 0.500002 0.476943
vt 0.618662 0.367853
vt 0.504812 0.34038
vt 0.636304 0.489486
vt 0.753767 0.486977
vt 0.615283 0.601642
vt 0.688811 0.294796
vt 0.69184 0.674141
vt 0.760356 0.207606
vt 0.782361 0.74628
vt 0.861811 0.476943
vt 0.500002 0.476943
vt 0.615283 0.601642
vt 0.636304 0.489486
vt 0.495191 0.613506
vt 0.502021 0.72984
vt 0.69184 0.674141
vt 0.782361 0.74628
vt 0.514673 0.836059
vt 0.239649 0.74628
vt 0.311193 0.659091
vt 0.381341 0.586033
vt 0.363699 0.464401
vt 0.246236 0.466909
vt 0.717012 0.505932
vt 0.815253 0.498962
vt 0.735943 0.261117
vt 0.667289 0.340109
vt 0.735943 0.737325
vt 0.612426 0.401935
vt 0.657235 0.668788
vt 0.639367 0.510638
vt 0.595629 0.614021
vt 0.504713 0.280881
vt 0.498011 0.182528
vt 0.260079 0.262675
vt 0.338787 0.331212
vt 0.735943 0.261117
vt 0.400393 0.385979
vt 0.667289 0.340109
vt 0.509209 0.358609
vt 0.612426 0.401935
vt 0.27901 0.494068
vt 0.180768 0.501038
vt 0.260079 0.738883
vt 0.328733 0.659891
vt 0.260079 0.262675
vt 0.383595 0.598065
vt 0.338787 0.331212
vt 0.356655 0.489363
vt 0.400393 0.385979
vt 0.491308 0.719119
vt 0.486813 0.641391
vt 0.383595 0.598065
vt 0.328733 0.659891
vt 0.595629 0.614021
vt 0.260079 0.738883
vt 0.657235 0.668788
vt 0.498011 0.817472
vt 0.735943 0.737325
vt 0.497982 0.224046
vt 0.48533 0.117827
vt 0.217641 0.207606
vt 0.308162 0.279745
vt 0.760356 0.207606
vt 0.384719 0.352245
vt 0.688811 0.294796
vt 0.504812 0.34038
vt 0.618662 0.367853
vt 0.5 0.5
vt 0.5 0.927571
vt 0.927571 0.927571
vt 0.927571 0.5
vt 0.072429 0.927571
vt 0.927571 0.072429
vt 0.072429 0.5
vt 0.5 0.072429
vt 0.072429 0.072429
vt 0.5 0.5
vt 0.072429 0.072429
vt 0.072429 0.5
vt 0.5 0.072429
vt 0.072429 0.927571
vt 0.927571 0.072429
vt 0.5 0.927571
vt 0.927571 0.5
vt 0.927571 0.927571
vt 0.5 0.5
vt 0.927571 0.5
vt 0.927571 0.072429
vt 0.5 0.072429
vt 0.927571 0.927571
vt 0.072429 0.072429
vt 0.5 0.927571
vt 0.072429 0.5
vt 0.072429 0.927571
vt 0.5 0.5
vt 0.5 0.072429
vt 0.072429 0.072429
vt 0.072429 0.5
vt 0.927571 0.072429
vt 0.072429 0.927571
vt 0.927571 0.5
vt 0.5 0.927571
vt 0.927571 0.927571
vn 0 0.3918774 -0.9200175
vn 0.5898548 0.5898548 -0.5514913
vn 0 0.8486435 -0.5289652
vn 0 0.3918774 -0.9200175
vn 0 0.8486435 -0.5289652
vn -0.5898548 0.5898548 -0.5514913
vn -0.2645158 0.2645158 -0.9273956
vn -0.04262135 0.04262136 -0.9981818
vn 0 0.0486082 -0.9988179
vn 0.04262136 0.04262136 -0.9981818
vn 0.2645158 0.2645158 -0.9273956
vn 0.5898548 0.5898548 -0.5514913
vn 0 -0.8006416 0.5991436
vn -0.5538495 -0.5538495 0.6216924
vn -0.6178139 -0.6178139 0.4864278
vn 0 -0.8854373 0.4647589
vn 0.6178139 -0.6178138 0.4864278
vn 0.5538495 -0.5538494 0.6216924
vn 0.8006416 0 0.5991436
vn 0.8854373 0 0.4647589
vn 0 0.6153805 0.7882302
vn 0 0.908883 0.4170509
vn 0.6358029 0.6358029 0.4376179
vn 0.4191668 0.4191669 0.805356
vn 0.6153803 0 0.7882303
vn 0.908883 0 0.417051
vn 0.6358029 -0.6358029 0.4376179
vn 0.4191669 -0.4191669 0.805356
vn 0 0.6153805 0.7882302
vn -0.6358029 0.6358029 0.4376179
vn 0 0.908883 0.4170509
vn -0.4191669 0.4191669 0.805356
vn -0.6153804 0 0.7882302
vn -0.908883 0 0.417051
vn -0.6358029 -0.6358029 0.4376179
vn -0.4191669 -0.4191669 0.805356
vn -0.8006416 0 0.5991436
vn -0.6178139 -0.6178139 0.4864278
vn -0.5538495 -0.5538495 0.6216924
vn -0.8854373 0 0.4647589
vn -0.6178138 0.6178139 0.4864279
vn -0.5538494 0.5538495 0.6216924
vn 0 0.8006416 0.5991436
vn -0.6178138 0.6178139 0.4864279
vn -0.5538494 0.5538495 0.6216924
vn 0 0.8854373 0.4647589
vn 0.6178139 0.6178139 0.4864278
vn 0.5538495 0.5538494 0.6216924
vn 0 -0.6153803 0.7882303
vn -0.6358029 -0.6358029 0.4376179
vn -0.4191669 -0.4191669 0.805356
vn 0 -0.908883 0.417051
vn 0.6358029 -0.6358029 0.4376179
vn 0.4191669 -0.4191669 0.805356
vn 0.8006416 0 0.5991436
vn 0.8854373 0 0.4647589
vn 0.6178139 0.6178139 0.4864278
vn 0.5538495 0.5538494 0.6216924
vn 0 0 1
vn 0 0.4495696 0.8932453
vn 0.3880449 0.3880449 0.835968
vn 0.4495696 0 0.8932453
vn 0.8417968 0 0.5397944
vn 0.588172 0.588172 0.5550744
vn 0.6178139 0.6178139 0.4864278
vn 0.8854373 0 0.4647589
vn 0.6178139 -0.6178138 0.4864278
vn 0.5881719 -0.5881719 0.5550743
vn 0 0 1
vn -0.3880449 0.3880449 0.835968
vn 0 0.4495696 0.8932453
vn -0.4495696 0 0.8932453
vn -0.8417968 0 0.5397944
vn -0.3880449 -0.3880449 0.835968
vn -0.5881719 0.5881719 0.5550743
vn -0.5881719 -0.5881719 0.5550743
vn -0.6178138 0.6178139 0.4864279
vn -0.6178139 -0.6178139 0.4864278
vn -0.8854373 0 0.4647589
vn 0 0 1
vn -0.3880449 -0.3880449 0.835968
vn -0.4495696 0 0.8932453
vn 0 -0.4495696 0.8932453
vn 0 -0.8417968 0.5397944
vn -0.5881719 -0.5881719 0.5550743
vn -0.6178139 -0.6178139 0.4864278
vn 0 -0.8854373 0.4647589
vn 0.6178139 -0.6178138 0.4864278
vn 0.5881719 -0.5881719 0.5550743
vn 0.3880449 -0.3880449 0.835968
vn 0.4495696 0 0.8932453
vn 0.8417968 0 0.5397944
vn 0.9859245 0 -0.1671907
vn 0.8486435 0 -0.5289653
vn 0.5898548 -0.5898548 -0.5514913
vn 0.6959392 -0.6959392 -0.1770236
vn 0.5898548 0.5898548 -0.5514913
vn 0.6358029 -0.6358029 0.4376179
vn 0.6959392 0.6959392 -0.1770236
vn 0.908883 0 0.417051
vn 0.6358029 0.6358029 0.4376179
vn 0 -0.9859245 -0.1671907
vn 0 -0.8486434 -0.5289654
vn -0.5898548 -0.5898547 -0.5514913
vn -0.6959392 -0.6959392 -0.1770236
vn 0.5898548 -0.5898548 -0.5514913
vn -0.6358029 -0.6358029 0.4376179
vn 0.6959392 -0.6959392 -0.1770236
vn 0 -0.908883 0.417051
vn 0.6358029 -0.6358029 0.4376179
vn -0.9859245 0 -0.1671907
vn -0.8486435 0 -0.5289654
vn -0.5898548 0.5898548 -0.5514913
vn -0.6959392 0.6959392 -0.1770236
vn -0.5898548 -0.5898547 -0.5514913
vn -0.6358029 0.6358029 0.4376179
vn -0.6959392 -0.6959392 -0.1770236
vn -0.908883 0 0.417051
vn -0.6358029 -0.6358029 0.4376179
vn 0 0.9859245 -0.1671907
vn 0 0.908883 0.4170509
vn -0.6358029 0.6358029 0.4376179
vn -0.6959392 0.6959392 -0.1770236
vn 0.6358029 0.6358029 0.4376179
vn -0.5898548 0.5898548 -0.5514913
vn 0.6959392 0.6959392 -0.1770236
vn 0 0.8486435 -0.5289652
vn 0.5898548 0.5898548 -0.5514913
vn 0 0.8417969 0.5397944
vn 0 0.8854373 0.4647589
vn 0.6178139 0.6178139 0.4864278
vn 0.588172 0.588172 0.5550744
vn -0.6178138 0.6178139 0.4864279
vn 0.3880449 0.3880449 0.835968
vn -0.5881719 0.5881719 0.5550743
vn 0 0.4495696 0.8932453
vn -0.3880449 0.3880449 0.835968
vn 0 0 -1
vn 0.0486082 0 -0.9988179
vn 0.04262136 0.04262136 -0.9981818
vn 0 0.0486082 -0.9988179
vn 0.04262136 -0.04262136 -0.9981818
vn -0.04262135 0.04262136 -0.9981818
vn 0 -0.04860821 -0.9988179
vn -0.0486082 0 -0.9988179
vn -0.04262135 -0.04262136 -0.9981818
vn -0.3918773 0 -0.9200175
vn -0.5898548 -0.5898547 -0.5514913
vn -0.2645158 -0.2645158 -0.9273958
vn -0.8486435 0 -0.5289654
vn -0.04262135 -0.04262136 -0.9981818
vn -0.5898548 0.5898548 -0.5514913
vn -0.0486082 0 -0.9988179
vn -0.2645158 0.2645158 -0.9273956
vn -0.04262135 0.04262136 -0.9981818
vn 0.3918773 0 -0.9200175
vn 0.2645158 -0.2645158 -0.9273958
vn 0.5898548 -0.5898548 -0.5514913
vn 0.8486435 0 -0.5289653
vn 0.04262136 -0.04262136 -0.9981818
vn 0.5898548 0.5898548 -0.5514913
vn 0.0486082 0 -0.9988179
vn 0.2645158 0.2645158 -0.9273956
vn 0.04262136 0.04262136 -0.9981818
vn 0 -0.3918773 -0.9200175
vn 0 -0.8486434 -0.5289654
vn 0.5898548 -0.5898548 -0.5514913
vn 0.2645158 -0.2645158 -0.9273958
vn -0.5898548 -0.5898547 -0.5514913
vn 0.04262136 -0.04262136 -0.9981818
vn -0.2645158 -0.2645158 -0.9273958
vn 0 -0.04860821 -0.9988179
vn -0.04262135 -0.04262136 -0.9981818
g Bowl_0
f 3/3/3 2/2/2 1/1/1
f 6/6/6 5/5/5 4/4/4
f 7/7/7 6/6/6 4/4/4
f 8/8/8 7/7/7 4/4/4
f 9/9/9 8/8/8 4/4/4
f 10/10/10 9/9/9 4/4/4
f 11/11/11 10/10/10 4/4/4
f 12/12/12 11/11/11 4/4/4
f 15/15/15 14/14/14 13/13/13
f 16/16/16 15/15/15 13/13/13
f 17/17/17 16/16/16 13/13/13
f 18/18/18 17/17/17 13/13/13
f 17/17/17 18/18/18 19/19/19
f 20/20/20 17/17/17 19/19/19
f 23/23/23 22/22/22 21/21/21
f 24/24/24 23/23/23 21/21/21
f 23/23/23 24/24/24 25/25/25
f 26/26/26 23/23/23 25/25/25
f 27/27/27 26/26/26 25/25/25
f 28/28/28 27/27/27 25/25/25
f 31/31/31 30/30/30 29/29/29
f 30/30/30 32/32/32 29/29/29
f 32/32/32 30/30/30 33/33/33
f 30/30/30 34/34/34 33/33/33
f 34/34/34 35/35/35 33/33/33
f 35/35/35 36/36/36 33/33/33
f 39/39/39 38/38/38 37/37/37
f 38/38/38 40/40/40 37/37/37
f 40/40/40 41/41/41 37/37/37
f 41/41/41 42/42/42 37/37/37
f 45/45/45 44/44/44 43/43/43
f 44/44/44 46/46/46 43/43/43
f 46/46/46 47/47/47 43/43/43
f 47/47/47 48/48/48 43/43/43
f 51/51/51 50/50/50 49/49/49
f 50/50/50 52/52/52 49/49/49
f 52/52/52 53/53/53 49/49/49
f 53/53/53 54/54/54 49/49/49
f 57/57/57 56/56/56 55/55/55
f 58/58/58 57/57/57 55/55/55
f 61/61/61 60/60/60 59/59/59
f 62/62/62 61/61/61 59/59/59
f 61/61/61 62/62/62 63/63/63
f 64/64/64 61/61/61 63/63/63
f 65/65/65 64/64/64 63/63/63
f 66/66/66 65/65/65 63/63/63
f 67/67/67 66/66/66 63/63/63
f 68/68/68 67/67/67 63/63/63
f 71/71/71 70/70/70 69/69/69
f 70/70/70 72/72/72 69/69/69
f 72/72/72 70/70/70 73/73/73
f 74/74/74 72/72/72 73/73/73
f 70/70/70 75/75/75 73/73/73
f 76/76/76 74/74/74 73/73/73
f 75/75/75 77/77/77 73/73/73
f 78/78/78 76/76/76 73/73/73
f 77/77/77 79/79/79 73/73/73
f 79/79/79 78/78/78 73/73/73
f 82/82/82 81/81/81 80/80/80
f 81/81/81 83/83/83 80/80/80
f 83/83/83 81/81/81 84/84/84
f 81/81/81 85/85/85 84/84/84
f 85/85/85 86/86/86 84/84/84
f 86/86/86 87/87/87 84/84/84
f 87/87/87 88/88/88 84/84/84
f 88/88/88 89/89/89 84/84/84
f 83/83/83 90/90/90 80/80/80
f 90/90/90 83/83/83 84/84/84
f 89/89/89 90/90/90 84/84/84
f 90/90/90 91/91/91 80/80/80
f 90/90/90 89/89/89 92/92/92
f 91/91/91 90/90/90 92/92/92
f 95/95/95 94/94/94 93/93/93
f 96/96/96 95/95/95 93/93/93
f 94/94/94 97/97/97 93/93/93
f 98/98/98 96/96/96 93/93/93
f 97/97/97 99/99/99 93/93/93
f 100/100/100 98/98/98 93/93/93
f 99/99/99 101/101/101 93/93/93
f 101/101/101 100/100/100 93/93/93
f 104/104/104 103/103/103 102/102/102
f 105/105/105 104/104/104 102/102/102
f 103/103/103 106/106/106 102/102/102
f 107/107/107 105/105/105 102/102/102
f 106/106/106 108/108/108 102/102/102
f 109/109/109 107/107/107 102/102/102
f 108/108/108 110/110/110 102/102/102
f 110/110/110 109/109/109 102/102/102
f 113/113/113 112/112/112 111/111/111
f 114/114/114 113/113/113 111/111/111
f 112/112/112 115/115/115 111/111/111
f 116/116/116 114/114/114 111/111/111
f 115/115/115 117/117/117 111/111/111
f 118/118/118 116/116/116 111/111/111
f 117/117/117 119/119/119 111/111/111
f 119/119/119 118/118/118 111/111/111
f 122/122/122 121/121/121 120/120/120
f 123/123/123 122/122/122 120/120/120
f 121/121/121 124/124/124 120/120/120
f 125/125/125 123/123/123 120/120/120
f 124/124/124 126/126/126 120/120/120
f 127/127/127 125/125/125 120/120/120
f 126/126/126 128/128/128 120/120/120
f 128/128/128 127/127/127 120/120/120
f 131/131/131 130/130/130 129/129/129
f 132/132/132 131/131/131 129/129/129
f 130/130/130 133/133/133 129/129/129
f 134/134/134 132/132/132 129/129/129
f 133/133/133 135/135/135 129/129/129
f 136/136/136 134/134/134 129/129/129
f 135/135/135 137/137/137 129/129/129
f 137/137/137 136/136/136 129/129/129
f 140/140/140 139/139/139 138/138/138
f 141/141/141 140/140/140 138/138/138
f 139/139/139 142/142/142 138/138/138
f 143/143/143 141/141/141 138/138/138
f 142/142/142 144/144/144 138/138/138
f 145/145/145 143/143/143 138/138/138
f 144/144/144 146/146/146 138/138/138
f 146/146/146 145/145/145 138/138/138
f 149/149/149 148/148/148 147/147/147
f 148/148/148 150/150/150 147/147/147
f 151/151/151 149/149/149 147/147/147
f 150/150/150 152/152/152 147/147/147
f 153/153/153 151/151/151 147/147/147
f 152/152/152 154/154/154 147/147/147
f 155/155/155 153/153/153 147/147/147
f 154/154/154 155/155/155 147/147/147
f 158/158/158 157/157/157 156/156/156
f 159/159/159 158/158/158 156/156/156
f 157/157/157 160/160/160 156/156/156
f 161/161/161 159/159/159 156/156/156
f 160/160/160 162/162/162 156/156/156
f 163/163/163 161/161/161 156/156/156
f 162/162/162 164/164/164 156/156/156
f 164/164/164 163/163/163 156/156/156
f 167/167/167 166/166/166 165/165/165
f 168/168/168 167/167/167 165/165/165
f 166/166/166 169/169/169 165/165/165
f 170/170/170 168/168/168 165/165/165
f 169/169/169 171/171/171 165/165/165
f 172/172/172 170/170/170 165/165/165
f 171/171/171 173/173/173 165/165/165
f 173/173/173 172/172/172 165/165/165
