g BrickBridgeCentreWide
v 0 -1 0.998524
v 2.714156 -1 0.998524
v 2.714156 1 0.998524
v 0 1 0.998524
v 0 -1 1.143804
v 0 1 1.1438
v 2.714156 1 1.1438
v 2.714156 -1 1.143804
v 2.714156 -1 0.998524
v 2.714156 -1 1.143804
v 2.714156 1 1.1438
v 2.714156 1 0.998524
v 2.714156 0.430371 0.998524
v 2.714156 1 1.143804
v 2.714156 0.430371 1.143804
v 2.714156 1 0.998524
v 2.714156 1 1.1438
v 0 1 1.1438
v 0 1 0.998524
v 0 -1 0.998524
v 0 -1 1.143804
v 2.714156 -1 1.143804
v 2.714156 -1 0.998524
v 2.331217 -1 0.819451
v 2.331217 1 0.819451
v 2.331217 1 1.305796
v 2.331217 -1 1.305796
v 2.833633 -1 0.819451
v 2.833633 -1 1.305796
v 2.833633 1 1.305796
v 2.833633 1 0.819451
v 2.331217 -1 0.819451
v 2.833633 -1 0.819451
v 2.833633 1 0.819451
v 2.331217 1 0.819451
v 2.331217 1 1.305796
v 2.833633 1 1.305796
v 2.833633 -1 1.305796
v 2.331217 -1 1.305796
v 2.334094 -1 2.496123
v 2.334094 1 2.496123
v 2.334094 1 2.837248
v 2.334094 -1 2.837248
v 2.862763 -1 2.496123
v 2.862763 -1 2.837248
v 2.862763 1 2.837248
v 2.862763 1 2.496123
v 2.334094 -1 2.496123
v 2.862763 -1 2.496123
v 2.862763 1 2.496123
v 2.334094 1 2.496123
v 2.334094 1 2.837248
v 2.862763 1 2.837248
v 2.862763 -1 2.837248
v 2.334094 -1 2.837248
v 2.410426 -1 1.161451
v 2.410426 1 1.161451
v 2.410426 1 2.777236
v 2.410426 -1 2.777236
v 2.783381 -1 1.161451
v 2.783381 -1 2.777236
v 2.783381 1 2.777236
v 2.783381 1 1.161451
v 2.410426 -1 1.161451
v 2.410426 -1 2.777236
v 2.783381 -1 2.777236
v 2.783381 -1 1.161451
v 2.410426 1 2.777236
v 2.410426 1 1.161451
v 2.783381 1 1.161451
v 2.783381 1 2.777236
v 0 -1 0.998524
v 0 1 0.998524
v -2.714156 1 0.998524
v -2.714156 -1 0.998524
v 0 -1 1.143804
v -2.714156 -1 1.143804
v -2.714156 1 1.1438
v 0 1 1.1438
v -2.714156 -1 0.998524
v -2.714156 1 1.1438
v -2.714156 -1 1.143804
v -2.714156 1 0.998524
v -2.714156 0.430371 0.998524
v -2.714156 1 1.143804
v -2.714156 0.430371 1.143804
v -2.714156 1 0.998524
v 0 1 0.998524
v 0 1 1.1438
v -2.714156 1 1.1438
v 0 -1 0.998524
v -2.714156 -1 0.998524
v -2.714156 -1 1.143804
v 0 -1 1.143804
v -2.331217 -1 0.819451
v -2.331217 -1 1.305796
v -2.331217 1 1.305796
v -2.331217 1 0.819451
v -2.833633 -1 0.819451
v -2.833633 1 0.819451
v -2.833633 1 1.305796
v -2.833633 -1 1.305796
v -2.331217 -1 0.819451
v -2.331217 1 0.819451
v -2.833633 1 0.819451
v -2.833633 -1 0.819451
v -2.331217 1 1.305796
v -2.331217 -1 1.305796
v -2.833633 -1 1.305796
v -2.833633 1 1.305796
v -2.334094 -1 2.496123
v -2.334094 -1 2.837248
v -2.334094 1 2.837248
v -2.334094 1 2.496123
v -2.862763 -1 2.496123
v -2.862763 1 2.496123
v -2.862763 1 2.837248
v -2.862763 -1 2.837248
v -2.334094 -1 2.496123
v -2.334094 1 2.496123
v -2.862763 1 2.496123
v -2.862763 -1 2.496123
v -2.334094 1 2.837248
v -2.334094 -1 2.837248
v -2.862763 -1 2.837248
v -2.862763 1 2.837248
v -2.410426 -1 1.161451
v -2.410426 -1 2.777236
v -2.410426 1 2.777236
v -2.410426 1 1.161451
v -2.783381 -1 1.161451
v -2.783381 1 1.161451
v -2.783381 1 2.777236
v -2.783381 -1 2.777236
v -2.410426 -1 1.161451
v -2.783381 -1 1.161451
v -2.783381 -1 2.777236
v -2.410426 -1 2.777236
v -2.410426 1 2.777236
v -2.783381 1 2.777236
v -2.783381 1 1.161451
v -2.410426 1 1.161451
vt 0 0
vt 0 1
vt 1 1
vt 1 0
vt -0.0015 -0.0015
vt -0.0015 0.2485
vt 0.2485 0.2485
vt 0.2485 -0.0015
vt 0.429937 0.896861
vt 0.429937 0.993787
vt 0.978621 0.993787
vt 0.978621 0.896861
vt 0.429937 0.896861
vt 0.978621 0.993787
vt 0.429937 0.993787
vt 0.429937 0.896861
vt 0.429937 0.993787
vt 0.978621 0.993787
vt 0.978621 0.896861
vt 0.429937 0.896861
vt 0.429937 0.993787
vt 0.978621 0.993787
vt 0.978621 0.896861
vt 0.375366 0.467153
vt 0.624634 0.467153
vt 0.624634 0.399566
vt 0.375366 0.399566
vt 0.375366 0.268895
vt 0.375366 0.336482
vt 0.624634 0.336482
vt 0.624634 0.268895
vt 0.429937 0.896861
vt 0.429937 0.993787
vt 0.978621 0.993787
vt 0.978621 0.896861
vt 0.624634 0.399566
vt 0.624634 0.336482
vt 0.375366 0.336482
vt 0.375366 0.399566
vt 0.06343 0.462457
vt 0.313391 0.462457
vt 0.313391 0.400906
vt 0.06343 0.400906
vt 0.06343 0.27328
vt 0.06343 0.334832
vt 0.313391 0.334832
vt 0.313391 0.27328
vt 0.429937 0.896861
vt 0.429937 0.993787
vt 0.978621 0.993787
vt 0.978621 0.896861
vt 0.313391 0.400906
vt 0.313391 0.334832
vt 0.06343 0.334832
vt 0.06343 0.400906
vt 0.358797 0.714891
vt 0.578862 0.714891
vt 0.578862 0.89268
vt 0.358797 0.89268
vt 0.358797 0.714891
vt 0.358797 0.89268
vt 0.578862 0.89268
vt 0.578862 0.714891
vt 0.429937 0.896861
vt 0.429937 0.993787
vt 0.978621 0.993787
vt 0.978621 0.896861
vt 0.429937 0.896861
vt 0.429937 0.993787
vt 0.978621 0.993787
vt 0.978621 0.896861
vt 0 0
vt 1 0
vt 1 1
vt 0 1
vt -0.0015 -0.0015
vt 0.2485 -0.0015
vt 0.2485 0.2485
vt -0.0015 0.2485
vt 0.429937 0.896861
vt 0.978621 0.993787
vt 0.429937 0.993787
vt 0.978621 0.896861
vt 0.429937 0.896861
vt 0.978621 0.993787
vt 0.429937 0.993787
vt 0.429937 0.896861
vt 0.978621 0.896861
vt 0.978621 0.993787
vt 0.429937 0.993787
vt 0.429937 0.896861
vt 0.978621 0.896861
vt 0.978621 0.993787
vt 0.429937 0.993787
vt 0.375366 0.467153
vt 0.375366 0.399566
vt 0.624634 0.399566
vt 0.624634 0.467153
vt 0.375366 0.268895
vt 0.624634 0.268895
vt 0.624634 0.336482
vt 0.375366 0.336482
vt 0.429937 0.896861
vt 0.978621 0.896861
vt 0.978621 0.993787
vt 0.429937 0.993787
vt 0.624634 0.399566
vt 0.375366 0.399566
vt 0.375366 0.336482
vt 0.624634 0.336482
vt 0.06343 0.462457
vt 0.06343 0.400906
vt 0.313391 0.400906
vt 0.313391 0.462457
vt 0.06343 0.27328
vt 0.313391 0.27328
vt 0.313391 0.334832
vt 0.06343 0.334832
vt 0.429937 0.896861
vt 0.978621 0.896861
vt 0.978621 0.993787
vt 0.429937 0.993787
vt 0.313391 0.400906
vt 0.06343 0.400906
vt 0.06343 0.334832
vt 0.313391 0.334832
vt 0.358797 0.714891
vt 0.358797 0.89268
vt 0.578862 0.89268
vt 0.578862 0.714891
vt 0.358797 0.714891
vt 0.578862 0.714891
vt 0.578862 0.89268
vt 0.358797 0.89268
vt 0.429937 0.896861
vt 0.978621 0.896861
vt 0.978621 0.993787
vt 0.429937 0.993787
vt 0.429937 0.896861
vt 0.978621 0.896861
vt 0.978621 0.993787
vt 0.429937 0.993787
vn 0 0 -1
vn 0 0 -1
vn 0 0 -1
vn 0 0 -1
vn 0 0 1
vn 0 0 1
vn 0 0 1
vn 0 0 1
vn 1 0 0
vn 1 0 0
vn 1 0 0
vn 1 0 0
vn 1 0 0
vn 1 0 0
vn 1 0 0
vn 0 1 0
vn 0 1 0
vn 0 1 0
vn 0 1 0
vn 0 -1 0
vn 0 -1 0
vn 0 -1 0
vn 0 -1 0
vn -1 0 0
vn -1 0 0
vn -1 0 0
vn -1 0 0
vn 1 0 0
vn 1 0 0
vn 1 0 0
vn 1 0 0
vn 0 0 -1
vn 0 0 -1
vn 0 0 -1
vn 0 0 -1
vn 0 0 1
vn 0 0 1
vn 0 0 1
vn 0 0 1
vn -1 0 0
vn -1 0 0
vn -1 0 0
vn -1 0 0
vn 1 0 0
vn 1 0 0
vn 1 0 0
vn 1 0 0
vn 0 0 -1
vn 0 0 -1
vn 0 0 -1
vn 0 0 -1
vn 0 0 1
vn 0 0 1
vn 0 0 1
vn 0 0 1
vn -1 0 0
vn -1 0 0
vn -1 0 0
vn -1 0 0
vn 1 0 0
vn 1 0 0
vn 1 0 0
vn 1 0 0
vn 0 -1 0
vn 0 -1 0
vn 0 -1 0
vn 0 -1 0
vn 0 1 0
vn 0 1 0
vn 0 1 0
vn 0 1 0
vn 0 0 -1
vn 0 0 -1
vn 0 0 -1
vn 0 0 -1
vn 0 0 1
vn 0 0 1
vn 0 0 1
vn 0 0 1
vn -1 0 0
vn -1 0 0
vn -1 0 0
vn -1 0 0
vn -1 0 0
vn -1 0 0
vn -1 0 0
vn 0 1 0
vn 0 1 0
vn 0 1 0
vn 0 1 0
vn 0 -1 0
vn 0 -1 0
vn 0 -1 0
vn 0 -1 0
vn 1 0 0
vn 1 0 0
vn 1 0 0
vn 1 0 0
vn -1 0 0
vn -1 0 0
vn -1 0 0
vn -1 0 0
vn 0 0 -1
vn 0 0 -1
vn 0 0 -1
vn 0 0 -1
vn 0 0 1
vn 0 0 1
vn 0 0 1
vn 0 0 1
vn 1 0 0
vn 1 0 0
vn 1 0 0
vn 1 0 0
vn -1 0 0
vn -1 0 0
vn -1 0 0
vn -1 0 0
vn 0 0 -1
vn 0 0 -1
vn 0 0 -1
vn 0 0 -1
vn 0 0 1
vn 0 0 1
vn 0 0 1
vn 0 0 1
vn 1 0 0
vn 1 0 0
vn 1 0 0
vn 1 0 0
vn -1 0 0
vn -1 0 0
vn -1 0 0
vn -1 0 0
vn 0 -1 0
vn 0 -1 0
vn 0 -1 0
vn 0 -1 0
vn 0 1 0
vn 0 1 0
vn 0 1 0
vn 0 1 0
g BrickBridgeCentreWide_0
f 3/3/3 2/2/2 1/1/1
f 4/4/4 3/3/3 1/1/1
f 7/7/7 6/6/6 5/5/5
f 8/8/8 7/7/7 5/5/5
f 11/11/11 10/10/10 9/9/9
f 12/12/12 11/11/11 9/9/9
f 12/12/12 14/14/14 13/13/13
f 14/14/14 15/15/15 13/13/13
f 18/18/18 17/17/17 16/16/16
f 19/19/19 18/18/18 16/16/16
f 22/22/22 21/21/21 20/20/20
f 23/23/23 22/22/22 20/20/20
f 26/26/26 25/25/25 24/24/24
f 27/27/27 26/26/26 24/24/24
f 30/30/30 29/29/29 28/28/28
f 31/31/31 30/30/30 28/28/28
f 34/34/34 33/33/33 32/32/32
f 35/35/35 34/34/34 32/32/32
f 38/38/38 37/37/37 36/36/36
f 39/39/39 38/38/38 36/36/36
f 42/42/42 41/41/41 40/40/40
f 43/43/43 42/42/42 40/40/40
f 46/46/46 45/45/45 44/44/44
f 47/47/47 46/46/46 44/44/44
f 50/50/50 49/49/49 48/48/48
f 51/51/51 50/50/50 48/48/48
f 54/54/54 53/53/53 52/52/52
f 55/55/55 54/54/54 52/52/52
f 58/58/58 57/57/57 56/56/56
f 59/59/59 58/58/58 56/56/56
f 62/62/62 61/61/61 60/60/60
f 63/63/63 62/62/62 60/60/60
f 66/66/66 65/65/65 64/64/64
f 67/67/67 66/66/66 64/64/64
f 70/70/70 69/69/69 68/68/68
f 71/71/71 70/70/70 68/68/68
f 74/74/74 73/73/73 72/72/72
f 75/75/75 74/74/74 72/72/72
f 78/78/78 77/77/77 76/76/76
f 79/79/79 78/78/78 76/76/76
f 82/82/82 81/81/81 80/80/80
f 81/81/81 83/83/83 80/80/80
f 85/85/85 83/83/83 84/84/84
f 86/86/86 85/85/85 84/84/84
f 89/89/89 88/88/88 87/87/87
f 90/90/90 89/89/89 87/87/87
f 93/93/93 92/92/92 91/91/91
f 94/94/94 93/93/93 91/91/91
f 97/97/97 96/96/96 95/95/95
f 98/98/98 97/97/97 95/95/95
f 101/101/101 100/100/100 99/99/99
f 102/102/102 101/101/101 99/99/99
f 105/105/105 104/104/104 103/103/103
f 106/106/106 105/105/105 103/103/103
f 109/109/109 108/108/108 107/107/107
f 110/110/110 109/109/109 107/107/107
f 113/113/113 112/112/112 111/111/111
f 114/114/114 113/113/113 111/111/111
f 117/117/117 116/116/116 115/115/115
f 118/118/118 117/117/117 115/115/115
f 121/121/121 120/120/120 119/119/119
f 122/122/122 121/121/121 119/119/119
f 125/125/125 124/124/124 123/123/123
f 126/126/126 125/125/125 123/123/123
f 129/129/129 128/128/128 127/127/127
f 130/130/130 129/129/129 127/127/127
f 133/133/133 132/132/132 131/131/131
f 134/134/134 133/133/133 131/131/131
f 137/137/137 136/136/136 135/135/135
f 138/138/138 137/137/137 135/135/135
f 141/141/141 140/140/140 139/139/139
f 142/142/142 141/141/141 139/139/139
