g BridgeEndColider_001
v 2.731217 0.333333 0.199725
v 2.731217 1 -0.133006
v 2.731217 1 0.253338
v 2.731217 0.333333 0.586069
v 2.731217 -0.333333 0.466975
v 2.731217 -0.333333 0.853319
v 2.731217 -1 0.61686
v 2.731217 -1 1.003205
v 2.833633 0.333333 0.199725
v 2.833633 1 0.253338
v 2.833633 1 -0.133006
v 2.833633 0.333333 0.586069
v 2.833633 -0.333333 0.466975
v 2.833633 -0.333333 0.853319
v 2.833633 -1 0.61686
v 2.833633 -1 1.003205
v 2.731217 0.333333 0.199725
v 2.833633 0.333333 0.199725
v 2.833633 1 -0.133006
v 2.731217 1 -0.133006
v 2.731217 -0.333333 0.853319
v 2.833633 -0.333333 0.853319
v 2.833633 -1 1.003205
v 2.731217 -1 1.003205
v 2.434094 0.333333 2.076396
v 2.434094 1.123897 1.697106
v 2.434094 1.123897 1.838231
v 2.434094 0.333333 2.217522
v 2.434094 -0.333333 2.343647
v 2.434094 -0.333333 2.484772
v 2.434094 -1 2.493532
v 2.434094 -1 2.634657
v 2.862763 0.333333 2.076396
v 2.862763 1.123897 1.838231
v 2.862763 1.123897 1.697106
v 2.862763 0.333333 2.217522
v 2.862763 -0.333333 2.343647
v 2.862763 -0.333333 2.484772
v 2.862763 -1 2.493532
v 2.862763 -1 2.634657
v 2.434094 0.333333 2.076396
v 2.862763 0.333333 2.076396
v 2.862763 1.123897 1.697106
v 2.434094 1.123897 1.697106
v 2.434094 -0.333333 2.484772
v 2.862763 -0.333333 2.484772
v 2.862763 -1 2.634657
v 2.434094 -1 2.634657
v 2.510426 -1 0.55739
v 2.510426 1 0.139071
v 2.510426 1 1.832668
v 2.510426 -1 2.375172
v 2.783381 -1 0.55739
v 2.783381 -1 2.375172
v 2.783381 1 1.832668
v 2.783381 1 0.139071
v 2.510426 -1 0.55739
v 2.510426 -1 2.375172
v 2.783381 -1 2.375172
v 2.783381 -1 0.55739
v 2.510426 1 1.832668
v 2.510426 1 0.139071
v 2.783381 1 0.139071
v 2.783381 1 1.832668
v 2.731217 1 0.253338
v 2.833633 1 0.253338
v 2.833633 0.333333 0.586069
v 2.731217 0.333333 0.586069
v 2.731217 0.333333 0.586069
v 2.833633 0.333333 0.586069
v 2.833633 -0.333333 0.853319
v 2.731217 -0.333333 0.853319
v 2.731217 -1 0.61686
v 2.833633 -1 0.61686
v 2.833633 -0.333333 0.466975
v 2.731217 -0.333333 0.466975
v 2.731217 -0.333333 0.466975
v 2.833633 -0.333333 0.466975
v 2.833633 0.333333 0.199725
v 2.731217 0.333333 0.199725
v 2.434094 1.123897 1.838231
v 2.862763 1.123897 1.838231
v 2.862763 0.333333 2.217522
v 2.434094 0.333333 2.217522
v 2.434094 0.333333 2.217522
v 2.862763 0.333333 2.217522
v 2.862763 -0.333333 2.484772
v 2.434094 -0.333333 2.484772
v 2.434094 -1 2.493532
v 2.862763 -1 2.493532
v 2.862763 -0.333333 2.343647
v 2.434094 -0.333333 2.343647
v 2.434094 -0.333333 2.343647
v 2.862763 -0.333333 2.343647
v 2.862763 0.333333 2.076396
v 2.434094 0.333333 2.076396
v 2.434094 1.123897 1.838231
v 2.434094 1.123897 1.697106
v 2.862763 1.123897 1.697106
v 2.862763 1.123897 1.838231
v 2.731217 1 0.253338
v 2.731217 1 -0.133006
v 2.833633 1 -0.133006
v 2.833633 1 0.253338
v 2.650494 0.311796 0.275758
v 2.650494 0.977714 0.230784
v 2.650494 0.951159 0.0017
v 2.650494 0.338351 0.504842
v 2.650494 -0.332067 0.510989
v 2.650494 -0.305512 0.740073
v 2.650494 -0.983997 0.676627
v 2.650494 -0.957443 0.905712
v 2.650494 -0.983997 0.676627
v 0 -0.957443 0.905712
v 2.650494 -0.957443 0.905712
v 0 -0.983997 0.676627
v -2.650494 -0.983997 0.676627
v -2.650494 -0.957443 0.905712
v 2.650494 0.338351 0.504842
v 0 0.977714 0.230784
v 2.650494 0.977714 0.230784
v 0 0.338351 0.504842
v -2.650494 0.338351 0.504842
v -2.650494 0.977714 0.230784
v 2.650494 -0.957443 0.905712
v 0 -0.305512 0.740073
v 2.650494 -0.305512 0.740073
v 0 -0.957443 0.905712
v -2.650494 -0.957443 0.905712
v -2.650494 -0.305512 0.740073
v 2.650494 -0.332067 0.510989
v 0 -0.983997 0.676627
v 2.650494 -0.983997 0.676627
v 0 -0.332067 0.510989
v -2.650494 -0.332067 0.510989
v -2.650494 -0.983997 0.676627
v 2.650494 0.977714 0.230784
v 0 0.951159 0.0017
v 2.650494 0.951159 0.0017
v 0 0.977714 0.230784
v -2.650494 0.977714 0.230784
v -2.650494 0.951159 0.0017
v 2.650494 0.951159 0.0017
v 0 0.311796 0.275758
v 2.650494 0.311796 0.275758
v 0 0.951159 0.0017
v -2.650494 0.951159 0.0017
v -2.650494 0.311796 0.275758
v 2.650494 -0.305512 0.740073
v 0 0.338351 0.504842
v 2.650494 0.338351 0.504842
v 0 -0.305512 0.740073
v -2.650494 -0.305512 0.740073
v -2.650494 0.338351 0.504842
v 2.650494 0.311796 0.275758
v 0 -0.332067 0.510989
v 2.650494 -0.332067 0.510989
v 0 0.311796 0.275758
v -2.650494 0.311796 0.275758
v -2.650494 -0.332067 0.510989
v -2.731217 0.333333 0.199725
v -2.731217 1 0.253338
v -2.731217 1 -0.133006
v -2.731217 0.333333 0.586069
v -2.731217 -0.333333 0.466975
v -2.731217 -0.333333 0.853319
v -2.731217 -1 0.61686
v -2.731217 -1 1.003205
v -2.833633 0.333333 0.199725
v -2.833633 1 -0.133006
v -2.833633 1 0.253338
v -2.833633 0.333333 0.586069
v -2.833633 -0.333333 0.466975
v -2.833633 -0.333333 0.853319
v -2.833633 -1 0.61686
v -2.833633 -1 1.003205
v -2.731217 0.333333 0.199725
v -2.731217 1 -0.133006
v -2.833633 1 -0.133006
v -2.833633 0.333333 0.199725
v -2.731217 -0.333333 0.853319
v -2.731217 -1 1.003205
v -2.833633 -1 1.003205
v -2.833633 -0.333333 0.853319
v -2.434094 0.333333 2.076396
v -2.434094 0.333333 2.217522
v -2.434094 1.123897 1.838231
v -2.434094 1.123897 1.697106
v -2.862763 0.333333 2.076396
v -2.862763 1.123897 1.697106
v -2.862763 1.123897 1.838231
v -2.862763 0.333333 2.217522
v -2.862763 -0.333333 2.343647
v -2.862763 -0.333333 2.484772
v -2.862763 -1 2.493532
v -2.862763 -1 2.634657
v -2.434094 0.333333 2.076396
v -2.434094 1.123897 1.697106
v -2.862763 1.123897 1.697106
v -2.862763 0.333333 2.076396
v -2.434094 -0.333333 2.484772
v -2.434094 -1 2.634657
v -2.862763 -1 2.634657
v -2.862763 -0.333333 2.484772
v -2.510426 -1 0.55739
v -2.510426 -1 2.375172
v -2.510426 1 1.832668
v -2.510426 1 0.139071
v -2.783381 -1 0.55739
v -2.783381 1 0.139071
v -2.783381 1 1.832668
v -2.783381 -1 2.375172
v -2.510426 -1 0.55739
v -2.783381 -1 0.55739
v -2.783381 -1 2.375172
v -2.510426 -1 2.375172
v -2.510426 1 1.832668
v -2.783381 1 1.832668
v -2.783381 1 0.139071
v -2.510426 1 0.139071
v -2.731217 1 0.253338
v -2.731217 0.333333 0.586069
v -2.833633 0.333333 0.586069
v -2.833633 1 0.253338
v -2.731217 0.333333 0.586069
v -2.731217 -0.333333 0.853319
v -2.833633 -0.333333 0.853319
v -2.833633 0.333333 0.586069
v -2.731217 -1 0.61686
v -2.731217 -0.333333 0.466975
v -2.833633 -0.333333 0.466975
v -2.833633 -1 0.61686
v -2.731217 -0.333333 0.466975
v -2.731217 0.333333 0.199725
v -2.833633 0.333333 0.199725
v -2.833633 -0.333333 0.466975
v -2.434094 1.123897 1.838231
v -2.434094 0.333333 2.217522
v -2.862763 0.333333 2.217522
v -2.862763 1.123897 1.838231
v -2.434094 0.333333 2.217522
v -2.434094 -0.333333 2.484772
v -2.862763 -0.333333 2.484772
v -2.862763 0.333333 2.217522
v -2.434094 -1 2.493532
v -2.434094 -0.333333 2.343647
v -2.862763 -0.333333 2.343647
v -2.862763 -1 2.493532
v -2.434094 -0.333333 2.343647
v -2.434094 0.333333 2.076396
v -2.862763 0.333333 2.076396
v -2.862763 -0.333333 2.343647
v -2.434094 -1 2.493532
v -2.434094 -1 2.634657
v -2.434094 -0.333333 2.484772
v -2.434094 -0.333333 2.343647
v -2.434094 0.333333 2.217522
v -2.434094 0.333333 2.076396
v -2.434094 1.123897 1.838231
v -2.862763 1.123897 1.838231
v -2.862763 1.123897 1.697106
v -2.434094 1.123897 1.697106
v -2.731217 1 0.253338
v -2.833633 1 0.253338
v -2.833633 1 -0.133006
v -2.731217 1 -0.133006
v -2.650494 0.311796 0.275758
v -2.650494 0.951159 0.0017
v -2.650494 0.977714 0.230784
v -2.650494 0.338351 0.504842
v -2.650494 -0.332067 0.510989
v -2.650494 -0.305512 0.740073
v -2.650494 -0.983997 0.676627
v -2.650494 -0.957443 0.905712
vt 0.429937 0.961478
vt 0.429937 0.993787
vt 0.978621 0.993787
vt 0.978621 0.961478
vt 0.429937 0.92917
vt 0.978621 0.92917
vt 0.429937 0.896861
vt 0.978621 0.896861
vt 0.795727 0.896861
vt 0.978621 0.993787
vt 0.978621 0.896861
vt 0.795727 0.993787
vt 0.612832 0.896861
vt 0.612832 0.993787
vt 0.429937 0.896861
vt 0.429937 0.993787
vt 0.795727 0.896861
vt 0.795727 0.993787
vt 0.978621 0.993787
vt 0.978621 0.896861
vt 0.795727 0.896861
vt 0.795727 0.993787
vt 0.978621 0.993787
vt 0.978621 0.896861
vt 0.794641 0.993243
vt 0.980287 0.993243
vt 0.980287 0.894944
vt 0.794641 0.894944
vt 0.608995 0.993243
vt 0.608995 0.894944
vt 0.42335 0.993243
vt 0.42335 0.894944
vt 0.42335 0.92771
vt 0.980287 0.894944
vt 0.42335 0.894944
vt 0.980287 0.92771
vt 0.42335 0.960476
vt 0.980287 0.960476
vt 0.42335 0.993243
vt 0.980287 0.993243
vt 0.795727 0.896861
vt 0.795727 0.993787
vt 0.978621 0.993787
vt 0.978621 0.896861
vt 0.791203 0.896861
vt 0.791203 0.993787
vt 0.965049 0.993787
vt 0.965049 0.896861
vt 0.429937 0.896861
vt 0.429937 0.993787
vt 0.978621 0.993787
vt 0.978621 0.896861
vt 0.429937 0.896861
vt 0.429937 0.993787
vt 0.978621 0.993787
vt 0.978621 0.896861
vt 0.429937 0.896861
vt 0.429937 0.993787
vt 0.978621 0.993787
vt 0.978621 0.896861
vt 0.429937 0.896861
vt 0.429937 0.993787
vt 0.978621 0.993787
vt 0.978621 0.896861
vt 0.429937 0.896861
vt 0.429937 0.993787
vt 0.612832 0.993787
vt 0.612832 0.896861
vt 0.612832 0.896861
vt 0.612832 0.993787
vt 0.795727 0.993787
vt 0.795727 0.896861
vt 0.429937 0.896861
vt 0.429937 0.993787
vt 0.612832 0.993787
vt 0.612832 0.896861
vt 0.612832 0.896861
vt 0.612832 0.993787
vt 0.795727 0.993787
vt 0.795727 0.896861
vt 0.443509 0.896861
vt 0.443509 0.993787
vt 0.617356 0.993787
vt 0.617356 0.896861
vt 0.617356 0.896861
vt 0.617356 0.993787
vt 0.791203 0.993787
vt 0.791203 0.896861
vt 0.429937 0.896861
vt 0.429937 0.993787
vt 0.612832 0.993787
vt 0.612832 0.896861
vt 0.612832 0.896861
vt 0.612832 0.993787
vt 0.795727 0.993787
vt 0.795727 0.896861
vt 0.443509 0.896861
vt 0.978621 0.896861
vt 0.42335 0.894944
vt 0.443509 0.993787
vt 0.429937 0.896861
vt 0.978621 0.896861
vt 0.978621 0.896861
vt 0.429937 0.993787
vt 0.429937 0.961478
vt 0.978621 0.993787
vt 0.429937 0.993787
vt 0.978621 0.961478
vt 0.429937 0.92917
vt 0.978621 0.92917
vt 0.429937 0.896861
vt 0.978621 0.896861
vt 0.429937 0.896861
vt 0.978621 0.896861
vt 0.978621 0.896861
vt 0.429937 0.896861
vt 0.429937 0.896861
vt 0.978621 0.896861
vt 0.978621 0.961478
vt 0.978621 0.993787
vt 0.978621 0.993787
vt 0.978621 0.961478
vt 0.978621 0.961478
vt 0.978621 0.993787
vt 0.978621 0.896861
vt 0.978621 0.92917
vt 0.978621 0.92917
vt 0.978621 0.896861
vt 0.978621 0.896861
vt 0.978621 0.92917
vt 0.429937 0.92917
vt 0.429937 0.896861
vt 0.429937 0.896861
vt 0.429937 0.92917
vt 0.429937 0.92917
vt 0.429937 0.896861
vt 0.978621 0.993787
vt 0.429937 0.993787
vt 0.429937 0.993787
vt 0.978621 0.993787
vt 0.978621 0.993787
vt 0.429937 0.993787
vt 0.429937 0.993787
vt 0.429937 0.961478
vt 0.429937 0.961478
vt 0.429937 0.993787
vt 0.429937 0.993787
vt 0.429937 0.961478
vt 0.978621 0.92917
vt 0.978621 0.961478
vt 0.978621 0.961478
vt 0.978621 0.92917
vt 0.978621 0.92917
vt 0.978621 0.961478
vt 0.429937 0.961478
vt 0.429937 0.92917
vt 0.429937 0.92917
vt 0.429937 0.961478
vt 0.429937 0.961478
vt 0.429937 0.92917
vt 0.429937 0.961478
vt 0.978621 0.993787
vt 0.429937 0.993787
vt 0.978621 0.961478
vt 0.429937 0.92917
vt 0.978621 0.92917
vt 0.429937 0.896861
vt 0.978621 0.896861
vt 0.795727 0.896861
vt 0.978621 0.896861
vt 0.978621 0.993787
vt 0.795727 0.993787
vt 0.612832 0.896861
vt 0.612832 0.993787
vt 0.429937 0.896861
vt 0.429937 0.993787
vt 0.795727 0.896861
vt 0.978621 0.896861
vt 0.978621 0.993787
vt 0.795727 0.993787
vt 0.795727 0.896861
vt 0.978621 0.896861
vt 0.978621 0.993787
vt 0.795727 0.993787
vt 0.794641 0.993243
vt 0.794641 0.894944
vt 0.980287 0.894944
vt 0.980287 0.993243
vt 0.42335 0.92771
vt 0.42335 0.894944
vt 0.980287 0.894944
vt 0.980287 0.92771
vt 0.42335 0.960476
vt 0.980287 0.960476
vt 0.42335 0.993243
vt 0.980287 0.993243
vt 0.795727 0.896861
vt 0.978621 0.896861
vt 0.978621 0.993787
vt 0.795727 0.993787
vt 0.791203 0.896861
vt 0.965049 0.896861
vt 0.965049 0.993787
vt 0.791203 0.993787
vt 0.429937 0.896861
vt 0.978621 0.896861
vt 0.978621 0.993787
vt 0.429937 0.993787
vt 0.429937 0.896861
vt 0.978621 0.896861
vt 0.978621 0.993787
vt 0.429937 0.993787
vt 0.429937 0.896861
vt 0.978621 0.896861
vt 0.978621 0.993787
vt 0.429937 0.993787
vt 0.429937 0.896861
vt 0.978621 0.896861
vt 0.978621 0.993787
vt 0.429937 0.993787
vt 0.429937 0.896861
vt 0.612832 0.896861
vt 0.612832 0.993787
vt 0.429937 0.993787
vt 0.612832 0.896861
vt 0.795727 0.896861
vt 0.795727 0.993787
vt 0.612832 0.993787
vt 0.429937 0.896861
vt 0.612832 0.896861
vt 0.612832 0.993787
vt 0.429937 0.993787
vt 0.612832 0.896861
vt 0.795727 0.896861
vt 0.795727 0.993787
vt 0.612832 0.993787
vt 0.443509 0.896861
vt 0.617356 0.896861
vt 0.617356 0.993787
vt 0.443509 0.993787
vt 0.617356 0.896861
vt 0.791203 0.896861
vt 0.791203 0.993787
vt 0.617356 0.993787
vt 0.429937 0.896861
vt 0.612832 0.896861
vt 0.612832 0.993787
vt 0.429937 0.993787
vt 0.612832 0.896861
vt 0.795727 0.896861
vt 0.795727 0.993787
vt 0.612832 0.993787
vt 0.42335 0.993243
vt 0.42335 0.894944
vt 0.608995 0.894944
vt 0.608995 0.993243
vt 0.794641 0.894944
vt 0.794641 0.993243
vt 0.443509 0.896861
vt 0.443509 0.993787
vt 0.42335 0.894944
vt 0.978621 0.896861
vt 0.429937 0.896861
vt 0.429937 0.993787
vt 0.978621 0.896861
vt 0.978621 0.896861
vt 0.429937 0.961478
vt 0.429937 0.993787
vt 0.978621 0.993787
vt 0.978621 0.961478
vt 0.429937 0.92917
vt 0.978621 0.92917
vt 0.429937 0.896861
vt 0.978621 0.896861
vn -1 0 0
vn -1 0 0
vn -1 0 0
vn -1 0 0
vn -1 0 0
vn -1 0 0
vn -1 0 0
vn -1 0 0
vn 1 0 0
vn 1 0 0
vn 1 0 0
vn 1 0 0
vn 1 0 0
vn 1 0 0
vn 1 0 0
vn 1 0 0
vn 0 -0.4465671 -0.8947501
vn 0 -0.4465671 -0.8947501
vn 0 -0.4465671 -0.8947501
vn 0 -0.4465671 -0.8947501
vn 0 0.2193529 0.9756457
vn 0 0.2193529 0.9756457
vn 0 0.2193529 0.9756457
vn 0 0.2193529 0.9756457
vn -1 0 0
vn -1 0 0
vn -1 0 0
vn -1 0 0
vn -1 0 0
vn -1 0 0
vn -1 0 0
vn -1 0 0
vn 1 0 0
vn 1 0 0
vn 1 0 0
vn 1 0 0
vn 1 0 0
vn 1 0 0
vn 1 0 0
vn 1 0 0
vn 0 -0.4325641 -0.9016032
vn 0 -0.4325641 -0.9016032
vn 0 -0.4325641 -0.9016032
vn 0 -0.4325641 -0.9016032
vn 0 0.219352 0.9756458
vn 0 0.219352 0.9756458
vn 0 0.219352 0.9756458
vn 0 0.219352 0.9756458
vn -1 0 0
vn -1 0 0
vn -1 0 0
vn -1 0 0
vn 1 0 0
vn 1 0 0
vn 1 0 0
vn 1 0 0
vn 0 -1 0
vn 0 -1 0
vn 0 -1 0
vn 0 -1 0
vn 0 1 0
vn 0 1 0
vn 0 1 0
vn 0 1 0
vn 0 0.4465671 0.8947501
vn 0 0.4465671 0.8947501
vn 0 0.4465671 0.8947501
vn 0 0.4465671 0.8947501
vn 0 0.3720911 0.9281963
vn 0 0.3720911 0.9281963
vn 0 0.3720911 0.9281963
vn 0 0.3720911 0.9281963
vn 0 -0.2193529 -0.9756457
vn 0 -0.2193529 -0.9756457
vn 0 -0.2193529 -0.9756457
vn 0 -0.2193529 -0.9756457
vn 0 -0.3720911 -0.9281963
vn 0 -0.3720911 -0.9281963
vn 0 -0.3720911 -0.9281963
vn 0 -0.3720911 -0.9281963
vn 0 0.4325649 0.9016028
vn 0 0.4325649 0.9016028
vn 0 0.4325649 0.9016028
vn 0 0.4325649 0.9016028
vn 0 0.3720911 0.9281963
vn 0 0.3720911 0.9281963
vn 0 0.3720911 0.9281963
vn 0 0.3720911 0.9281963
vn 0 -0.219352 -0.9756458
vn 0 -0.219352 -0.9756458
vn 0 -0.219352 -0.9756458
vn 0 -0.219352 -0.9756458
vn 0 -0.3720911 -0.9281963
vn 0 -0.3720911 -0.9281963
vn 0 -0.3720911 -0.9281963
vn 0 -0.3720911 -0.9281963
vn 0 1 0
vn 0 1 0
vn 0 1 0
vn 0 1 0
vn 0 1 0
vn 0 1 0
vn 0 1 0
vn 0 1 0
vn 1 0 0
vn 1 0 0
vn 1 0 0
vn 1 0 0
vn 1 0 0
vn 1 0 0
vn 1 0 0
vn 1 0 0
vn 0 -0.9933487 0.115145
vn 0 -0.9933487 0.115145
vn 0 -0.9933487 0.115145
vn 0 -0.9933487 0.115145
vn 0 -0.9933487 0.115145
vn 0 -0.9933487 0.115145
vn 0 0.3939739 0.9191216
vn 0 0.3939739 0.9191216
vn 0 0.3939739 0.9191216
vn 0 0.3939739 0.9191216
vn 0 0.3939739 0.9191216
vn 0 0.3939739 0.9191216
vn 0 0.2462501 0.9692063
vn 0 0.2462501 0.9692063
vn 0 0.2462501 0.9692063
vn 0 0.2462501 0.9692063
vn 0 0.2462501 0.9692063
vn 0 0.2462501 0.9692063
vn 0 -0.2462501 -0.9692063
vn 0 -0.2462501 -0.9692063
vn 0 -0.2462501 -0.9692063
vn 0 -0.2462501 -0.9692063
vn 0 -0.2462501 -0.9692063
vn 0 -0.2462501 -0.9692063
vn 0 0.9933485 -0.115146
vn 0 0.9933485 -0.115146
vn 0 0.9933485 -0.115146
vn 0 0.9933485 -0.115146
vn 0 0.9933485 -0.115146
vn 0 0.9933485 -0.115146
vn 0 -0.3939739 -0.9191216
vn 0 -0.3939739 -0.9191216
vn 0 -0.3939739 -0.9191216
vn 0 -0.3939739 -0.9191216
vn 0 -0.3939739 -0.9191216
vn 0 -0.3939739 -0.9191216
vn 0 0.3431579 0.9392776
vn 0 0.3431579 0.9392776
vn 0 0.3431579 0.9392776
vn 0 0.3431579 0.9392776
vn 0 0.3431579 0.9392776
vn 0 0.3431579 0.9392776
vn 0 -0.3431579 -0.9392776
vn 0 -0.3431579 -0.9392776
vn 0 -0.3431579 -0.9392776
vn 0 -0.3431579 -0.9392776
vn 0 -0.3431579 -0.9392776
vn 0 -0.3431579 -0.9392776
vn 1 0 0
vn 1 0 0
vn 1 0 0
vn 1 0 0
vn 1 0 0
vn 1 0 0
vn 1 0 0
vn 1 0 0
vn -1 0 0
vn -1 0 0
vn -1 0 0
vn -1 0 0
vn -1 0 0
vn -1 0 0
vn -1 0 0
vn -1 0 0
vn 0 -0.4465671 -0.8947501
vn 0 -0.4465671 -0.8947501
vn 0 -0.4465671 -0.8947501
vn 0 -0.4465671 -0.8947501
vn 0 0.2193529 0.9756457
vn 0 0.2193529 0.9756457
vn 0 0.2193529 0.9756457
vn 0 0.2193529 0.9756457
vn 1 0 0
vn 1 0 0
vn 1 0 0
vn 1 0 0
vn -1 0 0
vn -1 0 0
vn -1 0 0
vn -1 0 0
vn -1 0 0
vn -1 0 0
vn -1 0 0
vn -1 0 0
vn 0 -0.4325641 -0.9016032
vn 0 -0.4325641 -0.9016032
vn 0 -0.4325641 -0.9016032
vn 0 -0.4325641 -0.9016032
vn 0 0.219352 0.9756458
vn 0 0.219352 0.9756458
vn 0 0.219352 0.9756458
vn 0 0.219352 0.9756458
vn 1 0 0
vn 1 0 0
vn 1 0 0
vn 1 0 0
vn -1 0 0
vn -1 0 0
vn -1 0 0
vn -1 0 0
vn 0 -1 0
vn 0 -1 0
vn 0 -1 0
vn 0 -1 0
vn 0 1 0
vn 0 1 0
vn 0 1 0
vn 0 1 0
vn 0 0.4465671 0.8947501
vn 0 0.4465671 0.8947501
vn 0 0.4465671 0.8947501
vn 0 0.4465671 0.8947501
vn 0 0.3720911 0.9281963
vn 0 0.3720911 0.9281963
vn 0 0.3720911 0.9281963
vn 0 0.3720911 0.9281963
vn 0 -0.2193529 -0.9756457
vn 0 -0.2193529 -0.9756457
vn 0 -0.2193529 -0.9756457
vn 0 -0.2193529 -0.9756457
vn 0 -0.3720911 -0.9281963
vn 0 -0.3720911 -0.9281963
vn 0 -0.3720911 -0.9281963
vn 0 -0.3720911 -0.9281963
vn 0 0.4325649 0.9016028
vn 0 0.4325649 0.9016028
vn 0 0.4325649 0.9016028
vn 0 0.4325649 0.9016028
vn 0 0.3720911 0.9281963
vn 0 0.3720911 0.9281963
vn 0 0.3720911 0.9281963
vn 0 0.3720911 0.9281963
vn 0 -0.219352 -0.9756458
vn 0 -0.219352 -0.9756458
vn 0 -0.219352 -0.9756458
vn 0 -0.219352 -0.9756458
vn 0 -0.3720911 -0.9281963
vn 0 -0.3720911 -0.9281963
vn 0 -0.3720911 -0.9281963
vn 0 -0.3720911 -0.9281963
vn 1 0 0
vn 1 0 0
vn 1 0 0
vn 1 0 0
vn 1 0 0
vn 1 0 0
vn 0 1 0
vn 0 1 0
vn 0 1 0
vn 0 1 0
vn 0 1 0
vn 0 1 0
vn 0 1 0
vn 0 1 0
vn -1 0 0
vn -1 0 0
vn -1 0 0
vn -1 0 0
vn -1 0 0
vn -1 0 0
vn -1 0 0
vn -1 0 0
g BridgeEndColider_001_0
f 3/3/3 2/2/2 1/1/1
f 4/4/4 3/3/3 1/1/1
f 4/4/4 1/1/1 5/5/5
f 6/6/6 4/4/4 5/5/5
f 6/6/6 5/5/5 7/7/7
f 8/8/8 6/6/6 7/7/7
f 11/11/11 10/10/10 9/9/9
f 10/10/10 12/12/12 9/9/9
f 9/9/9 12/12/12 13/13/13
f 12/12/12 14/14/14 13/13/13
f 13/13/13 14/14/14 15/15/15
f 14/14/14 16/16/16 15/15/15
f 19/19/19 18/18/18 17/17/17
f 20/20/20 19/19/19 17/17/17
f 23/23/23 22/22/22 21/21/21
f 24/24/24 23/23/23 21/21/21
f 27/27/27 26/26/26 25/25/25
f 28/28/28 27/27/27 25/25/25
f 28/28/28 25/25/25 29/29/29
f 30/30/30 28/28/28 29/29/29
f 30/30/30 29/29/29 31/31/31
f 32/32/32 30/30/30 31/31/31
f 35/35/35 34/34/34 33/33/33
f 34/34/34 36/36/36 33/33/33
f 33/33/33 36/36/36 37/37/37
f 36/36/36 38/38/38 37/37/37
f 37/37/37 38/38/38 39/39/39
f 38/38/38 40/40/40 39/39/39
f 43/43/43 42/42/42 41/41/41
f 44/44/44 43/43/43 41/41/41
f 47/47/47 46/46/46 45/45/45
f 48/48/48 47/47/47 45/45/45
f 51/51/51 50/50/50 49/49/49
f 52/52/52 51/51/51 49/49/49
f 55/55/55 54/54/54 53/53/53
f 56/56/56 55/55/55 53/53/53
f 59/59/59 58/58/58 57/57/57
f 60/60/60 59/59/59 57/57/57
f 63/63/63 62/62/62 61/61/61
f 64/64/64 63/63/63 61/61/61
f 67/67/67 66/66/66 65/65/65
f 68/68/68 67/67/67 65/65/65
f 71/71/71 70/70/70 69/69/69
f 72/72/72 71/71/71 69/69/69
f 75/75/75 74/74/74 73/73/73
f 76/76/76 75/75/75 73/73/73
f 79/79/79 78/78/78 77/77/77
f 80/80/80 79/79/79 77/77/77
f 83/83/83 82/82/82 81/81/81
f 84/84/84 83/83/83 81/81/81
f 87/87/87 86/86/86 85/85/85
f 88/88/88 87/87/87 85/85/85
f 91/91/91 90/90/90 89/89/89
f 92/92/92 91/91/91 89/89/89
f 95/95/95 94/94/94 93/93/93
f 96/96/96 95/95/95 93/93/93
f 99/99/99 98/98/98 97/97/97
f 100/100/100 99/99/99 97/97/97
f 103/103/103 102/102/102 101/101/101
f 104/104/104 103/103/103 101/101/101
f 107/107/107 106/106/106 105/105/105
f 106/106/106 108/108/108 105/105/105
f 105/105/105 108/108/108 109/109/109
f 108/108/108 110/110/110 109/109/109
f 109/109/109 110/110/110 111/111/111
f 110/110/110 112/112/112 111/111/111
f 115/115/115 114/114/114 113/113/113
f 114/114/114 116/116/116 113/113/113
f 116/116/116 114/114/114 117/117/117
f 114/114/114 118/118/118 117/117/117
f 121/121/121 120/120/120 119/119/119
f 120/120/120 122/122/122 119/119/119
f 122/122/122 120/120/120 123/123/123
f 120/120/120 124/124/124 123/123/123
f 127/127/127 126/126/126 125/125/125
f 126/126/126 128/128/128 125/125/125
f 128/128/128 126/126/126 129/129/129
f 126/126/126 130/130/130 129/129/129
f 133/133/133 132/132/132 131/131/131
f 132/132/132 134/134/134 131/131/131
f 134/134/134 132/132/132 135/135/135
f 132/132/132 136/136/136 135/135/135
f 139/139/139 138/138/138 137/137/137
f 138/138/138 140/140/140 137/137/137
f 140/140/140 138/138/138 141/141/141
f 138/138/138 142/142/142 141/141/141
f 145/145/145 144/144/144 143/143/143
f 144/144/144 146/146/146 143/143/143
f 146/146/146 144/144/144 147/147/147
f 144/144/144 148/148/148 147/147/147
f 151/151/151 150/150/150 149/149/149
f 150/150/150 152/152/152 149/149/149
f 152/152/152 150/150/150 153/153/153
f 150/150/150 154/154/154 153/153/153
f 157/157/157 156/156/156 155/155/155
f 156/156/156 158/158/158 155/155/155
f 158/158/158 156/156/156 159/159/159
f 156/156/156 160/160/160 159/159/159
f 163/163/163 162/162/162 161/161/161
f 162/162/162 164/164/164 161/161/161
f 161/161/161 164/164/164 165/165/165
f 164/164/164 166/166/166 165/165/165
f 165/165/165 166/166/166 167/167/167
f 166/166/166 168/168/168 167/167/167
f 171/171/171 170/170/170 169/169/169
f 172/172/172 171/171/171 169/169/169
f 172/172/172 169/169/169 173/173/173
f 174/174/174 172/172/172 173/173/173
f 174/174/174 173/173/173 175/175/175
f 176/176/176 174/174/174 175/175/175
f 179/179/179 178/178/178 177/177/177
f 180/180/180 179/179/179 177/177/177
f 183/183/183 182/182/182 181/181/181
f 184/184/184 183/183/183 181/181/181
f 187/187/187 186/186/186 185/185/185
f 188/188/188 187/187/187 185/185/185
f 191/191/191 190/190/190 189/189/189
f 192/192/192 191/191/191 189/189/189
f 192/192/192 189/189/189 193/193/193
f 194/194/194 192/192/192 193/193/193
f 194/194/194 193/193/193 195/195/195
f 196/196/196 194/194/194 195/195/195
f 199/199/199 198/198/198 197/197/197
f 200/200/200 199/199/199 197/197/197
f 203/203/203 202/202/202 201/201/201
f 204/204/204 203/203/203 201/201/201
f 207/207/207 206/206/206 205/205/205
f 208/208/208 207/207/207 205/205/205
f 211/211/211 210/210/210 209/209/209
f 212/212/212 211/211/211 209/209/209
f 215/215/215 214/214/214 213/213/213
f 216/216/216 215/215/215 213/213/213
f 219/219/219 218/218/218 217/217/217
f 220/220/220 219/219/219 217/217/217
f 223/223/223 222/222/222 221/221/221
f 224/224/224 223/223/223 221/221/221
f 227/227/227 226/226/226 225/225/225
f 228/228/228 227/227/227 225/225/225
f 231/231/231 230/230/230 229/229/229
f 232/232/232 231/231/231 229/229/229
f 235/235/235 234/234/234 233/233/233
f 236/236/236 235/235/235 233/233/233
f 239/239/239 238/238/238 237/237/237
f 240/240/240 239/239/239 237/237/237
f 243/243/243 242/242/242 241/241/241
f 244/244/244 243/243/243 241/241/241
f 247/247/247 246/246/246 245/245/245
f 248/248/248 247/247/247 245/245/245
f 251/251/251 250/250/250 249/249/249
f 252/252/252 251/251/251 249/249/249
f 255/255/255 254/254/254 253/253/253
f 256/256/256 255/255/255 253/253/253
f 257/257/257 255/255/255 256/256/256
f 258/258/258 257/257/257 256/256/256
f 261/261/261 260/260/260 259/259/259
f 262/262/262 261/261/261 259/259/259
f 265/265/265 264/264/264 263/263/263
f 266/266/266 265/265/265 263/263/263
f 269/269/269 268/268/268 267/267/267
f 270/270/270 269/269/269 267/267/267
f 270/270/270 267/267/267 271/271/271
f 272/272/272 270/270/270 271/271/271
f 272/272/272 271/271/271 273/273/273
f 274/274/274 272/272/272 273/273/273
