g BridgeSecondCol_001
v 2.631217 0.333333 0.754392
v 2.631217 1 0.618228
v 2.631217 1 1.004573
v 2.631217 0.333333 1.140736
v 2.631217 -0.333333 0.819451
v 2.631217 -0.333333 1.205796
v 2.631217 -1 0.819451
v 2.631217 -1 1.205796
v 2.733634 0.333333 0.754392
v 2.733634 1 1.004573
v 2.733634 1 0.618228
v 2.733634 0.333333 1.140736
v 2.733634 -0.333333 0.819451
v 2.733634 -0.333333 1.205796
v 2.733634 -1 0.819451
v 2.733634 -1 1.205796
v 2.631217 -0.334605 0.890625
v 0 -1.001117 0.904984
v 2.631217 -1.001117 0.904984
v 0 -0.334605 0.890625
v -2.631217 -0.334605 0.890625
v -2.631217 -1.001117 0.904984
v 2.631217 0.333333 0.754392
v 2.733634 0.333333 0.754392
v 2.733634 1 0.618228
v 2.631217 1 0.618228
v 2.631217 1.000391 0.953454
v 0 0.996276 0.762399
v 2.631217 0.996276 0.762399
v 0 1.000391 0.953454
v -2.631217 1.000391 0.953454
v -2.631217 0.996276 0.762399
v 2.631217 -0.333333 1.205796
v 2.733634 -0.333333 1.205796
v 2.733634 -1 1.205796
v 2.631217 -1 1.205796
v 2.631217 0.996276 0.762399
v 0 0.331214 0.844093
v 2.631217 0.331214 0.844093
v 0 0.996276 0.762399
v -2.631217 0.996276 0.762399
v -2.631217 0.331214 0.844093
v 2.631217 -0.330489 1.08168
v 0 0.33533 1.035148
v 2.631217 0.33533 1.035148
v 0 -0.330489 1.08168
v -2.631217 -0.330489 1.08168
v -2.631217 0.33533 1.035148
v 2.334095 0.333333 2.631063
v 2.334095 1 2.4949
v 2.334095 1 2.636025
v 2.334095 0.333333 2.772188
v 2.334095 -0.333333 2.696122
v 2.334095 -0.333333 2.837248
v 2.334095 -1 2.696122
v 2.334095 -1 2.837248
v 2.762764 0.333333 2.631063
v 2.762764 1 2.636025
v 2.762764 1 2.4949
v 2.762764 0.333333 2.772188
v 2.762764 -0.333333 2.696122
v 2.762764 -0.333333 2.837248
v 2.762764 -1 2.696122
v 2.762764 -1 2.837248
v 2.334095 0.333333 2.631063
v 2.762764 0.333333 2.631063
v 2.762764 1 2.4949
v 2.334095 1 2.4949
v 2.334095 -0.333333 2.837248
v 2.762764 -0.333333 2.837248
v 2.762764 -1 2.837248
v 2.334095 -1 2.837248
v 2.410426 -0.993527 1.161451
v 2.410426 1.01189 0.998293
v 2.410426 1.01189 2.545717
v 2.410426 -0.993527 2.777236
v 2.683381 -0.993527 1.161451
v 2.683381 -0.993527 2.777236
v 2.683381 1.01189 2.545717
v 2.683381 1.01189 0.998293
v 2.410426 -0.993527 1.161451
v 2.410426 -0.993527 2.777236
v 2.683381 -0.993527 2.777236
v 2.683381 -0.993527 1.161451
v 2.410426 1.01189 2.545717
v 2.410426 1.01189 0.998293
v 2.683381 1.01189 0.998293
v 2.683381 1.01189 2.545717
v 2.631217 1 1.004573
v 2.733634 1 1.004573
v 2.733634 0.333333 1.140736
v 2.631217 0.333333 1.140736
v 2.631217 0.333333 1.140736
v 2.733634 0.333333 1.140736
v 2.733634 -0.333333 1.205796
v 2.631217 -0.333333 1.205796
v 2.631217 -1 0.819451
v 2.733634 -1 0.819451
v 2.733634 -0.333333 0.819451
v 2.631217 -0.333333 0.819451
v 2.631217 -0.333333 0.819451
v 2.733634 -0.333333 0.819451
v 2.733634 0.333333 0.754392
v 2.631217 0.333333 0.754392
v 2.334095 1 2.636025
v 2.762764 1 2.636025
v 2.762764 0.333333 2.772188
v 2.334095 0.333333 2.772188
v 2.334095 0.333333 2.772188
v 2.762764 0.333333 2.772188
v 2.762764 -0.333333 2.837248
v 2.334095 -0.333333 2.837248
v 2.334095 -1 2.696122
v 2.762764 -1 2.696122
v 2.762764 -0.333333 2.696122
v 2.334095 -0.333333 2.696122
v 2.334095 -0.333333 2.696122
v 2.762764 -0.333333 2.696122
v 2.762764 0.333333 2.631063
v 2.334095 0.333333 2.631063
v 2.631217 0.331214 0.844093
v 0 -0.334605 0.890625
v 2.631217 -0.334605 0.890625
v 0 0.331214 0.844093
v -2.631217 0.331214 0.844093
v -2.631217 -0.334605 0.890625
v 2.631217 -1.001117 0.904984
v 0 -0.997001 1.096039
v 2.631217 -0.997001 1.096039
v 0 -1.001117 0.904984
v -2.631217 -1.001117 0.904984
v -2.631217 -0.997001 1.096039
v 2.631217 -1.001117 0.904984
v 2.631217 -0.997001 1.096039
v 2.631217 -0.330489 1.08168
v 2.631217 -0.334605 0.890625
v 2.631217 0.33533 1.035148
v 2.631217 0.331214 0.844093
v 2.631217 1.000391 0.953454
v 2.631217 0.996276 0.762399
v 2.631217 -0.997001 1.096039
v 0 -0.330489 1.08168
v 2.631217 -0.330489 1.08168
v 0 -0.997001 1.096039
v -2.631217 -0.997001 1.096039
v -2.631217 -0.330489 1.08168
v 2.631217 0.33533 1.035148
v 0 1.000391 0.953454
v 2.631217 1.000391 0.953454
v 0 0.33533 1.035148
v -2.631217 0.33533 1.035148
v -2.631217 1.000391 0.953454
v -2.631217 0.333333 0.754392
v -2.631217 1 1.004573
v -2.631217 1 0.618228
v -2.631217 0.333333 1.140736
v -2.631217 -0.333333 0.819451
v -2.631217 -0.333333 1.205796
v -2.631217 -1 0.819451
v -2.631217 -1 1.205796
v -2.733634 0.333333 0.754392
v -2.733634 1 0.618228
v -2.733634 1 1.004573
v -2.733634 0.333333 1.140736
v -2.733634 -0.333333 0.819451
v -2.733634 -0.333333 1.205796
v -2.733634 -1 0.819451
v -2.733634 -1 1.205796
v -2.631217 0.333333 0.754392
v -2.631217 1 0.618228
v -2.733634 1 0.618228
v -2.733634 0.333333 0.754392
v -2.631217 -0.333333 1.205796
v -2.631217 -1 1.205796
v -2.733634 -1 1.205796
v -2.733634 -0.333333 1.205796
v -2.334095 0.333333 2.631063
v -2.334095 1 2.636025
v -2.334095 1 2.4949
v -2.334095 0.333333 2.772188
v -2.334095 -0.333333 2.696122
v -2.334095 -0.333333 2.837248
v -2.334095 -1 2.696122
v -2.334095 -1 2.837248
v -2.762764 0.333333 2.631063
v -2.762764 1 2.4949
v -2.762764 1 2.636025
v -2.762764 0.333333 2.772188
v -2.762764 -0.333333 2.696122
v -2.762764 -0.333333 2.837248
v -2.762764 -1 2.696122
v -2.762764 -1 2.837248
v -2.334095 0.333333 2.631063
v -2.334095 1 2.4949
v -2.762764 1 2.4949
v -2.762764 0.333333 2.631063
v -2.334095 -0.333333 2.837248
v -2.334095 -1 2.837248
v -2.762764 -1 2.837248
v -2.762764 -0.333333 2.837248
v -2.410426 -0.993527 1.161451
v -2.410426 -0.993527 2.777236
v -2.410426 1.01189 2.545717
v -2.410426 1.01189 0.998293
v -2.683381 -0.993527 1.161451
v -2.683381 1.01189 0.998293
v -2.683381 1.01189 2.545717
v -2.683381 -0.993527 2.777236
v -2.410426 -0.993527 1.161451
v -2.683381 -0.993527 1.161451
v -2.683381 -0.993527 2.777236
v -2.410426 -0.993527 2.777236
v -2.410426 1.01189 2.545717
v -2.683381 1.01189 2.545717
v -2.683381 1.01189 0.998293
v -2.410426 1.01189 0.998293
v -2.631217 1 1.004573
v -2.631217 0.333333 1.140736
v -2.733634 0.333333 1.140736
v -2.733634 1 1.004573
v -2.631217 0.333333 1.140736
v -2.631217 -0.333333 1.205796
v -2.733634 -0.333333 1.205796
v -2.733634 0.333333 1.140736
v -2.631217 -1 0.819451
v -2.631217 -0.333333 0.819451
v -2.733634 -0.333333 0.819451
v -2.733634 -1 0.819451
v -2.631217 -0.333333 0.819451
v -2.631217 0.333333 0.754392
v -2.733634 0.333333 0.754392
v -2.733634 -0.333333 0.819451
v -2.334095 1 2.636025
v -2.334095 0.333333 2.772188
v -2.762764 0.333333 2.772188
v -2.762764 1 2.636025
v -2.334095 0.333333 2.772188
v -2.334095 -0.333333 2.837248
v -2.762764 -0.333333 2.837248
v -2.762764 0.333333 2.772188
v -2.334095 -1 2.696122
v -2.334095 -0.333333 2.696122
v -2.762764 -0.333333 2.696122
v -2.762764 -1 2.696122
v -2.334095 -0.333333 2.696122
v -2.334095 0.333333 2.631063
v -2.762764 0.333333 2.631063
v -2.762764 -0.333333 2.696122
v -2.631217 -1.001117 0.904984
v -2.631217 -0.330489 1.08168
v -2.631217 -0.997001 1.096039
v -2.631217 -0.334605 0.890625
v -2.631217 0.33533 1.035148
v -2.631217 0.331214 0.844093
v -2.631217 1.000391 0.953454
v -2.631217 0.996276 0.762399
vt 0.429937 0.961478
vt 0.429937 0.993787
vt 0.978621 0.993787
vt 0.978621 0.961478
vt 0.429937 0.92917
vt 0.978621 0.92917
vt 0.429937 0.896861
vt 0.978621 0.896861
vt 0.795727 0.896861
vt 0.978621 0.993787
vt 0.978621 0.896861
vt 0.795727 0.993787
vt 0.612832 0.896861
vt 0.612832 0.993787
vt 0.429937 0.896861
vt 0.429937 0.993787
vt 0.429937 0.92917
vt 0.429937 0.896861
vt 0.429937 0.896861
vt 0.429937 0.92917
vt 0.429937 0.92917
vt 0.429937 0.896861
vt 0.795727 0.896861
vt 0.795727 0.993787
vt 0.978621 0.993787
vt 0.978621 0.896861
vt 0.978621 0.993787
vt 0.429937 0.993787
vt 0.429937 0.993787
vt 0.978621 0.993787
vt 0.978621 0.993787
vt 0.429937 0.993787
vt 0.795727 0.896861
vt 0.795727 0.993787
vt 0.978621 0.993787
vt 0.978621 0.896861
vt 0.429937 0.993787
vt 0.429937 0.961478
vt 0.429937 0.961478
vt 0.429937 0.993787
vt 0.429937 0.993787
vt 0.429937 0.961478
vt 0.978621 0.92917
vt 0.978621 0.961478
vt 0.978621 0.961478
vt 0.978621 0.92917
vt 0.978621 0.92917
vt 0.978621 0.961478
vt 0.794641 0.993243
vt 0.980287 0.993243
vt 0.980287 0.894944
vt 0.794641 0.894944
vt 0.608995 0.993243
vt 0.608995 0.894944
vt 0.42335 0.993243
vt 0.42335 0.894944
vt 0.42335 0.92771
vt 0.980287 0.894944
vt 0.42335 0.894944
vt 0.980287 0.92771
vt 0.42335 0.960476
vt 0.980287 0.960476
vt 0.42335 0.993243
vt 0.980287 0.993243
vt 0.795727 0.896861
vt 0.795727 0.993787
vt 0.978621 0.993787
vt 0.978621 0.896861
vt 0.791203 0.896861
vt 0.791203 0.993787
vt 0.965049 0.993787
vt 0.965049 0.896861
vt 0.429937 0.896861
vt 0.429937 0.993787
vt 0.978621 0.993787
vt 0.978621 0.896861
vt 0.429937 0.896861
vt 0.429937 0.993787
vt 0.978621 0.993787
vt 0.978621 0.896861
vt 0.429937 0.896861
vt 0.429937 0.993787
vt 0.978621 0.993787
vt 0.978621 0.896861
vt 0.429937 0.896861
vt 0.429937 0.993787
vt 0.978621 0.993787
vt 0.978621 0.896861
vt 0.429937 0.896861
vt 0.429937 0.993787
vt 0.612832 0.993787
vt 0.612832 0.896861
vt 0.612832 0.896861
vt 0.612832 0.993787
vt 0.795727 0.993787
vt 0.795727 0.896861
vt 0.429937 0.896861
vt 0.429937 0.993787
vt 0.612832 0.993787
vt 0.612832 0.896861
vt 0.612832 0.896861
vt 0.612832 0.993787
vt 0.795727 0.993787
vt 0.795727 0.896861
vt 0.443509 0.896861
vt 0.443509 0.993787
vt 0.617356 0.993787
vt 0.617356 0.896861
vt 0.617356 0.896861
vt 0.617356 0.993787
vt 0.791203 0.993787
vt 0.791203 0.896861
vt 0.429937 0.896861
vt 0.429937 0.993787
vt 0.612832 0.993787
vt 0.612832 0.896861
vt 0.612832 0.896861
vt 0.612832 0.993787
vt 0.795727 0.993787
vt 0.795727 0.896861
vt 0.429937 0.961478
vt 0.429937 0.92917
vt 0.429937 0.92917
vt 0.429937 0.961478
vt 0.429937 0.961478
vt 0.429937 0.92917
vt 0.429937 0.896861
vt 0.978621 0.896861
vt 0.978621 0.896861
vt 0.429937 0.896861
vt 0.429937 0.896861
vt 0.978621 0.896861
vt 0.429937 0.896861
vt 0.978621 0.896861
vt 0.978621 0.92917
vt 0.429937 0.92917
vt 0.978621 0.961478
vt 0.429937 0.961478
vt 0.978621 0.993787
vt 0.429937 0.993787
vt 0.978621 0.896861
vt 0.978621 0.92917
vt 0.978621 0.92917
vt 0.978621 0.896861
vt 0.978621 0.896861
vt 0.978621 0.92917
vt 0.978621 0.961478
vt 0.978621 0.993787
vt 0.978621 0.993787
vt 0.978621 0.961478
vt 0.978621 0.961478
vt 0.978621 0.993787
vt 0.429937 0.961478
vt 0.978621 0.993787
vt 0.429937 0.993787
vt 0.978621 0.961478
vt 0.429937 0.92917
vt 0.978621 0.92917
vt 0.429937 0.896861
vt 0.978621 0.896861
vt 0.795727 0.896861
vt 0.978621 0.896861
vt 0.978621 0.993787
vt 0.795727 0.993787
vt 0.612832 0.896861
vt 0.612832 0.993787
vt 0.429937 0.896861
vt 0.429937 0.993787
vt 0.795727 0.896861
vt 0.978621 0.896861
vt 0.978621 0.993787
vt 0.795727 0.993787
vt 0.795727 0.896861
vt 0.978621 0.896861
vt 0.978621 0.993787
vt 0.795727 0.993787
vt 0.794641 0.993243
vt 0.980287 0.894944
vt 0.980287 0.993243
vt 0.794641 0.894944
vt 0.608995 0.993243
vt 0.608995 0.894944
vt 0.42335 0.993243
vt 0.42335 0.894944
vt 0.42335 0.92771
vt 0.42335 0.894944
vt 0.980287 0.894944
vt 0.980287 0.92771
vt 0.42335 0.960476
vt 0.980287 0.960476
vt 0.42335 0.993243
vt 0.980287 0.993243
vt 0.795727 0.896861
vt 0.978621 0.896861
vt 0.978621 0.993787
vt 0.795727 0.993787
vt 0.791203 0.896861
vt 0.965049 0.896861
vt 0.965049 0.993787
vt 0.791203 0.993787
vt 0.429937 0.896861
vt 0.978621 0.896861
vt 0.978621 0.993787
vt 0.429937 0.993787
vt 0.429937 0.896861
vt 0.978621 0.896861
vt 0.978621 0.993787
vt 0.429937 0.993787
vt 0.429937 0.896861
vt 0.978621 0.896861
vt 0.978621 0.993787
vt 0.429937 0.993787
vt 0.429937 0.896861
vt 0.978621 0.896861
vt 0.978621 0.993787
vt 0.429937 0.993787
vt 0.429937 0.896861
vt 0.612832 0.896861
vt 0.612832 0.993787
vt 0.429937 0.993787
vt 0.612832 0.896861
vt 0.795727 0.896861
vt 0.795727 0.993787
vt 0.612832 0.993787
vt 0.429937 0.896861
vt 0.612832 0.896861
vt 0.612832 0.993787
vt 0.429937 0.993787
vt 0.612832 0.896861
vt 0.795727 0.896861
vt 0.795727 0.993787
vt 0.612832 0.993787
vt 0.443509 0.896861
vt 0.617356 0.896861
vt 0.617356 0.993787
vt 0.443509 0.993787
vt 0.617356 0.896861
vt 0.791203 0.896861
vt 0.791203 0.993787
vt 0.617356 0.993787
vt 0.429937 0.896861
vt 0.612832 0.896861
vt 0.612832 0.993787
vt 0.429937 0.993787
vt 0.612832 0.896861
vt 0.795727 0.896861
vt 0.795727 0.993787
vt 0.612832 0.993787
vt 0.429937 0.896861
vt 0.978621 0.92917
vt 0.978621 0.896861
vt 0.429937 0.92917
vt 0.978621 0.961478
vt 0.429937 0.961478
vt 0.978621 0.993787
vt 0.429937 0.993787
vn -1 0 0
vn -1 0 0
vn -1 0 0
vn -1 0 0
vn -1 0 0
vn -1 0 0
vn -1 0 0
vn -1 0 0
vn 1 0 0
vn 1 0 0
vn 1 0 0
vn 1 0 0
vn 1 0 0
vn 1 0 0
vn 1 0 0
vn 1 0 0
vn 0 -0.021538 -0.9997681
vn 0 -0.021538 -0.9997681
vn 0 -0.021538 -0.9997681
vn 0 -0.021538 -0.9997681
vn 0 -0.021538 -0.9997681
vn 0 -0.021538 -0.9997681
vn 0 -0.2001139 -0.9797727
vn 0 -0.2001139 -0.9797727
vn 0 -0.2001139 -0.9797727
vn 0 -0.2001139 -0.9797727
vn 0 0.9997681 -0.021538
vn 0 0.9997681 -0.021538
vn 0 0.9997681 -0.021538
vn 0 0.9997681 -0.021538
vn 0 0.9997681 -0.021538
vn 0 0.9997681 -0.021538
vn 0 0 1
vn 0 0 1
vn 0 0 1
vn 0 0 1
vn 0 -0.12192 -0.9925399
vn 0 -0.12192 -0.9925399
vn 0 -0.12192 -0.9925399
vn 0 -0.12192 -0.9925399
vn 0 -0.12192 -0.9925399
vn 0 -0.12192 -0.9925399
vn 0 0.06971599 0.9975669
vn 0 0.06971599 0.9975669
vn 0 0.06971599 0.9975669
vn 0 0.06971599 0.9975669
vn 0 0.06971599 0.9975669
vn 0 0.06971599 0.9975669
vn -1 0 0
vn -1 0 0
vn -1 0 0
vn -1 0 0
vn -1 0 0
vn -1 0 0
vn -1 0 0
vn -1 0 0
vn 1 0 0
vn 1 0 0
vn 1 0 0
vn 1 0 0
vn 1 0 0
vn 1 0 0
vn 1 0 0
vn 1 0 0
vn 0 -0.2001139 -0.9797727
vn 0 -0.2001139 -0.9797727
vn 0 -0.2001139 -0.9797727
vn 0 -0.2001139 -0.9797727
vn 0 0 1
vn 0 0 1
vn 0 0 1
vn 0 0 1
vn -1 0 0
vn -1 0 0
vn -1 0 0
vn -1 0 0
vn 1 0 0
vn 1 0 0
vn 1 0 0
vn 1 0 0
vn 0 -1 0
vn 0 -1 0
vn 0 -1 0
vn 0 -1 0
vn 0 1 0
vn 0 1 0
vn 0 1 0
vn 0 1 0
vn 0 0.2001139 0.9797727
vn 0 0.2001139 0.9797727
vn 0 0.2001139 0.9797727
vn 0 0.2001139 0.9797727
vn 0 0.09712799 0.9952719
vn 0 0.09712799 0.9952719
vn 0 0.09712799 0.9952719
vn 0 0.09712799 0.9952719
vn 0 0 -1
vn 0 0 -1
vn 0 0 -1
vn 0 0 -1
vn 0 -0.09712799 -0.9952719
vn 0 -0.09712799 -0.9952719
vn 0 -0.09712799 -0.9952719
vn 0 -0.09712799 -0.9952719
vn 0 0.2001139 0.9797727
vn 0 0.2001139 0.9797727
vn 0 0.2001139 0.9797727
vn 0 0.2001139 0.9797727
vn 0 0.09712799 0.9952719
vn 0 0.09712799 0.9952719
vn 0 0.09712799 0.9952719
vn 0 0.09712799 0.9952719
vn 0 0 -1
vn 0 0 -1
vn 0 0 -1
vn 0 0 -1
vn 0 -0.09712799 -0.9952719
vn 0 -0.09712799 -0.9952719
vn 0 -0.09712799 -0.9952719
vn 0 -0.09712799 -0.9952719
vn 0 -0.06971599 -0.9975669
vn 0 -0.06971599 -0.9975669
vn 0 -0.06971599 -0.9975669
vn 0 -0.06971599 -0.9975669
vn 0 -0.06971599 -0.9975669
vn 0 -0.06971599 -0.9975669
vn 0 -0.9997681 0.021538
vn 0 -0.9997681 0.021538
vn 0 -0.9997681 0.021538
vn 0 -0.9997681 0.021538
vn 0 -0.9997681 0.021538
vn 0 -0.9997681 0.021538
vn 1 0 0
vn 1 0 0
vn 1 0 0
vn 1 0 0
vn 1 0 0
vn 1 0 0
vn 1 0 0
vn 1 0 0
vn 0 0.021538 0.9997681
vn 0 0.021538 0.9997681
vn 0 0.021538 0.9997681
vn 0 0.021538 0.9997681
vn 0 0.021538 0.9997681
vn 0 0.021538 0.9997681
vn 0 0.12192 0.9925399
vn 0 0.12192 0.9925399
vn 0 0.12192 0.9925399
vn 0 0.12192 0.9925399
vn 0 0.12192 0.9925399
vn 0 0.12192 0.9925399
vn 1 0 0
vn 1 0 0
vn 1 0 0
vn 1 0 0
vn 1 0 0
vn 1 0 0
vn 1 0 0
vn 1 0 0
vn -1 0 0
vn -1 0 0
vn -1 0 0
vn -1 0 0
vn -1 0 0
vn -1 0 0
vn -1 0 0
vn -1 0 0
vn 0 -0.2001139 -0.9797727
vn 0 -0.2001139 -0.9797727
vn 0 -0.2001139 -0.9797727
vn 0 -0.2001139 -0.9797727
vn 0 0 1
vn 0 0 1
vn 0 0 1
vn 0 0 1
vn 1 0 0
vn 1 0 0
vn 1 0 0
vn 1 0 0
vn 1 0 0
vn 1 0 0
vn 1 0 0
vn 1 0 0
vn -1 0 0
vn -1 0 0
vn -1 0 0
vn -1 0 0
vn -1 0 0
vn -1 0 0
vn -1 0 0
vn -1 0 0
vn 0 -0.2001139 -0.9797727
vn 0 -0.2001139 -0.9797727
vn 0 -0.2001139 -0.9797727
vn 0 -0.2001139 -0.9797727
vn 0 0 1
vn 0 0 1
vn 0 0 1
vn 0 0 1
vn 1 0 0
vn 1 0 0
vn 1 0 0
vn 1 0 0
vn -1 0 0
vn -1 0 0
vn -1 0 0
vn -1 0 0
vn 0 -1 0
vn 0 -1 0
vn 0 -1 0
vn 0 -1 0
vn 0 1 0
vn 0 1 0
vn 0 1 0
vn 0 1 0
vn 0 0.2001139 0.9797727
vn 0 0.2001139 0.9797727
vn 0 0.2001139 0.9797727
vn 0 0.2001139 0.9797727
vn 0 0.09712799 0.9952719
vn 0 0.09712799 0.9952719
vn 0 0.09712799 0.9952719
vn 0 0.09712799 0.9952719
vn 0 0 -1
vn 0 0 -1
vn 0 0 -1
vn 0 0 -1
vn 0 -0.09712799 -0.9952719
vn 0 -0.09712799 -0.9952719
vn 0 -0.09712799 -0.9952719
vn 0 -0.09712799 -0.9952719
vn 0 0.2001139 0.9797727
vn 0 0.2001139 0.9797727
vn 0 0.2001139 0.9797727
vn 0 0.2001139 0.9797727
vn 0 0.09712799 0.9952719
vn 0 0.09712799 0.9952719
vn 0 0.09712799 0.9952719
vn 0 0.09712799 0.9952719
vn 0 0 -1
vn 0 0 -1
vn 0 0 -1
vn 0 0 -1
vn 0 -0.09712799 -0.9952719
vn 0 -0.09712799 -0.9952719
vn 0 -0.09712799 -0.9952719
vn 0 -0.09712799 -0.9952719
vn -1 0 0
vn -1 0 0
vn -1 0 0
vn -1 0 0
vn -1 0 0
vn -1 0 0
vn -1 0 0
vn -1 0 0
g BridgeSecondCol_001_0
f 3/3/3 2/2/2 1/1/1
f 4/4/4 3/3/3 1/1/1
f 4/4/4 1/1/1 5/5/5
f 6/6/6 4/4/4 5/5/5
f 6/6/6 5/5/5 7/7/7
f 8/8/8 6/6/6 7/7/7
f 11/11/11 10/10/10 9/9/9
f 10/10/10 12/12/12 9/9/9
f 9/9/9 12/12/12 13/13/13
f 12/12/12 14/14/14 13/13/13
f 13/13/13 14/14/14 15/15/15
f 14/14/14 16/16/16 15/15/15
f 19/19/19 18/18/18 17/17/17
f 18/18/18 20/20/20 17/17/17
f 20/20/20 18/18/18 21/21/21
f 18/18/18 22/22/22 21/21/21
f 25/25/25 24/24/24 23/23/23
f 26/26/26 25/25/25 23/23/23
f 29/29/29 28/28/28 27/27/27
f 28/28/28 30/30/30 27/27/27
f 30/30/30 28/28/28 31/31/31
f 28/28/28 32/32/32 31/31/31
f 35/35/35 34/34/34 33/33/33
f 36/36/36 35/35/35 33/33/33
f 39/39/39 38/38/38 37/37/37
f 38/38/38 40/40/40 37/37/37
f 40/40/40 38/38/38 41/41/41
f 38/38/38 42/42/42 41/41/41
f 45/45/45 44/44/44 43/43/43
f 44/44/44 46/46/46 43/43/43
f 46/46/46 44/44/44 47/47/47
f 44/44/44 48/48/48 47/47/47
f 51/51/51 50/50/50 49/49/49
f 52/52/52 51/51/51 49/49/49
f 52/52/52 49/49/49 53/53/53
f 54/54/54 52/52/52 53/53/53
f 54/54/54 53/53/53 55/55/55
f 56/56/56 54/54/54 55/55/55
f 59/59/59 58/58/58 57/57/57
f 58/58/58 60/60/60 57/57/57
f 57/57/57 60/60/60 61/61/61
f 60/60/60 62/62/62 61/61/61
f 61/61/61 62/62/62 63/63/63
f 62/62/62 64/64/64 63/63/63
f 67/67/67 66/66/66 65/65/65
f 68/68/68 67/67/67 65/65/65
f 71/71/71 70/70/70 69/69/69
f 72/72/72 71/71/71 69/69/69
f 75/75/75 74/74/74 73/73/73
f 76/76/76 75/75/75 73/73/73
f 79/79/79 78/78/78 77/77/77
f 80/80/80 79/79/79 77/77/77
f 83/83/83 82/82/82 81/81/81
f 84/84/84 83/83/83 81/81/81
f 87/87/87 86/86/86 85/85/85
f 88/88/88 87/87/87 85/85/85
f 91/91/91 90/90/90 89/89/89
f 92/92/92 91/91/91 89/89/89
f 95/95/95 94/94/94 93/93/93
f 96/96/96 95/95/95 93/93/93
f 99/99/99 98/98/98 97/97/97
f 100/100/100 99/99/99 97/97/97
f 103/103/103 102/102/102 101/101/101
f 104/104/104 103/103/103 101/101/101
f 107/107/107 106/106/106 105/105/105
f 108/108/108 107/107/107 105/105/105
f 111/111/111 110/110/110 109/109/109
f 112/112/112 111/111/111 109/109/109
f 115/115/115 114/114/114 113/113/113
f 116/116/116 115/115/115 113/113/113
f 119/119/119 118/118/118 117/117/117
f 120/120/120 119/119/119 117/117/117
f 123/123/123 122/122/122 121/121/121
f 122/122/122 124/124/124 121/121/121
f 124/124/124 122/122/122 125/125/125
f 122/122/122 126/126/126 125/125/125
f 129/129/129 128/128/128 127/127/127
f 128/128/128 130/130/130 127/127/127
f 130/130/130 128/128/128 131/131/131
f 128/128/128 132/132/132 131/131/131
f 135/135/135 134/134/134 133/133/133
f 136/136/136 135/135/135 133/133/133
f 137/137/137 135/135/135 136/136/136
f 138/138/138 137/137/137 136/136/136
f 139/139/139 137/137/137 138/138/138
f 140/140/140 139/139/139 138/138/138
f 143/143/143 142/142/142 141/141/141
f 142/142/142 144/144/144 141/141/141
f 144/144/144 142/142/142 145/145/145
f 142/142/142 146/146/146 145/145/145
f 149/149/149 148/148/148 147/147/147
f 148/148/148 150/150/150 147/147/147
f 150/150/150 148/148/148 151/151/151
f 148/148/148 152/152/152 151/151/151
f 155/155/155 154/154/154 153/153/153
f 154/154/154 156/156/156 153/153/153
f 153/153/153 156/156/156 157/157/157
f 156/156/156 158/158/158 157/157/157
f 157/157/157 158/158/158 159/159/159
f 158/158/158 160/160/160 159/159/159
f 163/163/163 162/162/162 161/161/161
f 164/164/164 163/163/163 161/161/161
f 164/164/164 161/161/161 165/165/165
f 166/166/166 164/164/164 165/165/165
f 166/166/166 165/165/165 167/167/167
f 168/168/168 166/166/166 167/167/167
f 171/171/171 170/170/170 169/169/169
f 172/172/172 171/171/171 169/169/169
f 175/175/175 174/174/174 173/173/173
f 176/176/176 175/175/175 173/173/173
f 179/179/179 178/178/178 177/177/177
f 178/178/178 180/180/180 177/177/177
f 177/177/177 180/180/180 181/181/181
f 180/180/180 182/182/182 181/181/181
f 181/181/181 182/182/182 183/183/183
f 182/182/182 184/184/184 183/183/183
f 187/187/187 186/186/186 185/185/185
f 188/188/188 187/187/187 185/185/185
f 188/188/188 185/185/185 189/189/189
f 190/190/190 188/188/188 189/189/189
f 190/190/190 189/189/189 191/191/191
f 192/192/192 190/190/190 191/191/191
f 195/195/195 194/194/194 193/193/193
f 196/196/196 195/195/195 193/193/193
f 199/199/199 198/198/198 197/197/197
f 200/200/200 199/199/199 197/197/197
f 203/203/203 202/202/202 201/201/201
f 204/204/204 203/203/203 201/201/201
f 207/207/207 206/206/206 205/205/205
f 208/208/208 207/207/207 205/205/205
f 211/211/211 210/210/210 209/209/209
f 212/212/212 211/211/211 209/209/209
f 215/215/215 214/214/214 213/213/213
f 216/216/216 215/215/215 213/213/213
f 219/219/219 218/218/218 217/217/217
f 220/220/220 219/219/219 217/217/217
f 223/223/223 222/222/222 221/221/221
f 224/224/224 223/223/223 221/221/221
f 227/227/227 226/226/226 225/225/225
f 228/228/228 227/227/227 225/225/225
f 231/231/231 230/230/230 229/229/229
f 232/232/232 231/231/231 229/229/229
f 235/235/235 234/234/234 233/233/233
f 236/236/236 235/235/235 233/233/233
f 239/239/239 238/238/238 237/237/237
f 240/240/240 239/239/239 237/237/237
f 243/243/243 242/242/242 241/241/241
f 244/244/244 243/243/243 241/241/241
f 247/247/247 246/246/246 245/245/245
f 248/248/248 247/247/247 245/245/245
f 251/251/251 250/250/250 249/249/249
f 250/250/250 252/252/252 249/249/249
f 250/250/250 253/253/253 252/252/252
f 253/253/253 254/254/254 252/252/252
f 253/253/253 255/255/255 254/254/254
f 255/255/255 256/256/256 254/254/254
