g BridgeEndColider
v 1.931218 0.333333 0.199725
v 1.931218 1 -0.133006
v 1.931218 1 0.253338
v 1.931218 0.333333 0.586069
v 1.931218 -0.333333 0.466975
v 1.931218 -0.333333 0.853319
v 1.931218 -1 0.61686
v 1.931218 -1 1.003205
v 2.033634 0.333333 0.199725
v 2.033634 1 0.253338
v 2.033634 1 -0.133006
v 2.033634 0.333333 0.586069
v 2.033634 -0.333333 0.466975
v 2.033634 -0.333333 0.853319
v 2.033634 -1 0.61686
v 2.033634 -1 1.003205
v 1.931218 0.333333 0.199725
v 2.033634 0.333333 0.199725
v 2.033634 1 -0.133006
v 1.931218 1 -0.133006
v 1.931218 -0.333333 0.853319
v 2.033634 -0.333333 0.853319
v 2.033634 -1 1.003205
v 1.931218 -1 1.003205
v 1.634095 0.333333 2.076396
v 1.634095 1.123897 1.697106
v 1.634095 1.123897 1.838231
v 1.634095 0.333333 2.217522
v 2.062764 0.333333 2.076396
v 2.062764 1.123897 1.838231
v 2.062764 1.123897 1.697106
v 2.062764 0.333333 2.217522
v 2.062764 -0.333333 2.343647
v 2.062764 -0.333333 2.484772
v 2.062764 -1 2.493532
v 2.062764 -1 2.634657
v 1.634095 0.333333 2.076396
v 2.062764 0.333333 2.076396
v 2.062764 1.123897 1.697106
v 1.634095 1.123897 1.697106
v 1.634095 -0.333333 2.484772
v 2.062764 -0.333333 2.484772
v 2.062764 -1 2.634657
v 1.634095 -1 2.634657
v 1.710426 -1 0.55739
v 1.710426 1 0.139071
v 1.710426 1 1.832668
v 1.710426 -1 2.375172
v 1.983381 -1 0.55739
v 1.983381 -1 2.375172
v 1.983381 1 1.832668
v 1.983381 1 0.139071
v 1.710426 -1 0.55739
v 1.710426 -1 2.375172
v 1.983381 -1 2.375172
v 1.983381 -1 0.55739
v 1.710426 1 1.832668
v 1.710426 1 0.139071
v 1.983381 1 0.139071
v 1.983381 1 1.832668
v 1.931218 1 0.253338
v 2.033634 1 0.253338
v 2.033634 0.333333 0.586069
v 1.931218 0.333333 0.586069
v 1.931218 0.333333 0.586069
v 2.033634 0.333333 0.586069
v 2.033634 -0.333333 0.853319
v 1.931218 -0.333333 0.853319
v 1.931218 -1 0.61686
v 2.033634 -1 0.61686
v 2.033634 -0.333333 0.466975
v 1.931218 -0.333333 0.466975
v 1.931218 -0.333333 0.466975
v 2.033634 -0.333333 0.466975
v 2.033634 0.333333 0.199725
v 1.931218 0.333333 0.199725
v 1.634095 1.123897 1.838231
v 2.062764 1.123897 1.838231
v 2.062764 0.333333 2.217522
v 1.634095 0.333333 2.217522
v 1.634095 0.333333 2.217522
v 2.062764 0.333333 2.217522
v 2.062764 -0.333333 2.484772
v 1.634095 -0.333333 2.484772
v 1.634095 -1 2.493532
v 2.062764 -1 2.493532
v 2.062764 -0.333333 2.343647
v 1.634095 -0.333333 2.343647
v 1.634095 -0.333333 2.343647
v 2.062764 -0.333333 2.343647
v 2.062764 0.333333 2.076396
v 1.634095 0.333333 2.076396
v 1.634095 -1 2.493532
v 1.634095 -0.333333 2.484772
v 1.634095 -1 2.634657
v 1.634095 -0.333333 2.343647
v 1.634095 0.333333 2.217522
v 1.634095 0.333333 2.076396
v 1.634095 1.123897 1.838231
v 1.634095 1.123897 1.697106
v 2.062764 1.123897 1.697106
v 2.062764 1.123897 1.838231
v 1.931218 1 0.253338
v 1.931218 1 -0.133006
v 2.033634 1 -0.133006
v 2.033634 1 0.253338
v 1.850494 0.311796 0.275758
v 1.850494 0.977714 0.230784
v 1.850494 0.951159 0.0017
v 1.850494 0.338351 0.504842
v 1.850494 -0.332067 0.510989
v 1.850494 -0.305512 0.740073
v 1.850494 -0.983997 0.676627
v 1.850494 -0.957443 0.905712
v 1.850494 -0.983997 0.676627
v 0 -0.957443 0.905712
v 1.850494 -0.957443 0.905712
v 0 -0.983997 0.676627
v -1.850494 -0.983997 0.676627
v -1.850494 -0.957443 0.905712
v 1.850494 0.338351 0.504842
v 0 0.977714 0.230784
v 1.850494 0.977714 0.230784
v 0 0.338351 0.504842
v -1.850494 0.338351 0.504842
v -1.850494 0.977714 0.230784
v 1.850494 -0.957443 0.905712
v 0 -0.305512 0.740073
v 1.850494 -0.305512 0.740073
v 0 -0.957443 0.905712
v -1.850494 -0.957443 0.905712
v -1.850494 -0.305512 0.740073
v 1.850494 -0.332067 0.510989
v 0 -0.983997 0.676627
v 1.850494 -0.983997 0.676627
v 0 -0.332067 0.510989
v -1.850494 -0.332067 0.510989
v -1.850494 -0.983997 0.676627
v 1.850494 0.977714 0.230784
v 0 0.951159 0.0017
v 1.850494 0.951159 0.0017
v 0 0.977714 0.230784
v -1.850494 0.977714 0.230784
v -1.850494 0.951159 0.0017
v 1.850494 0.951159 0.0017
v 0 0.311796 0.275758
v 1.850494 0.311796 0.275758
v 0 0.951159 0.0017
v -1.850494 0.951159 0.0017
v -1.850494 0.311796 0.275758
v 1.850494 -0.305512 0.740073
v 0 0.338351 0.504842
v 1.850494 0.338351 0.504842
v 0 -0.305512 0.740073
v -1.850494 -0.305512 0.740073
v -1.850494 0.338351 0.504842
v 1.850494 0.311796 0.275758
v 0 -0.332067 0.510989
v 1.850494 -0.332067 0.510989
v 0 0.311796 0.275758
v -1.850494 0.311796 0.275758
v -1.850494 -0.332067 0.510989
v -1.931218 0.333333 0.199725
v -1.931218 1 0.253338
v -1.931218 1 -0.133006
v -1.931218 0.333333 0.586069
v -1.931218 -0.333333 0.466975
v -1.931218 -0.333333 0.853319
v -1.931218 -1 0.61686
v -1.931218 -1 1.003205
v -2.033634 0.333333 0.199725
v -2.033634 1 -0.133006
v -2.033634 1 0.253338
v -2.033634 0.333333 0.586069
v -2.033634 -0.333333 0.466975
v -2.033634 -0.333333 0.853319
v -2.033634 -1 0.61686
v -2.033634 -1 1.003205
v -1.931218 0.333333 0.199725
v -1.931218 1 -0.133006
v -2.033634 1 -0.133006
v -2.033634 0.333333 0.199725
v -1.931218 -0.333333 0.853319
v -1.931218 -1 1.003205
v -2.033634 -1 1.003205
v -2.033634 -0.333333 0.853319
v -1.634095 0.333333 2.076396
v -1.634095 0.333333 2.217522
v -1.634095 1.123897 1.838231
v -1.634095 1.123897 1.697106
v -2.062764 0.333333 2.076396
v -2.062764 1.123897 1.697106
v -2.062764 1.123897 1.838231
v -2.062764 0.333333 2.217522
v -2.062764 -0.333333 2.343647
v -2.062764 -0.333333 2.484772
v -2.062764 -1 2.493532
v -2.062764 -1 2.634657
v -1.634095 0.333333 2.076396
v -1.634095 1.123897 1.697106
v -2.062764 1.123897 1.697106
v -2.062764 0.333333 2.076396
v -1.634095 -0.333333 2.484772
v -1.634095 -1 2.634657
v -2.062764 -1 2.634657
v -2.062764 -0.333333 2.484772
v -1.710426 -1 0.55739
v -1.710426 -1 2.375172
v -1.710426 1 1.832668
v -1.710426 1 0.139071
v -1.983381 -1 0.55739
v -1.983381 1 0.139071
v -1.983381 1 1.832668
v -1.983381 -1 2.375172
v -1.710426 -1 0.55739
v -1.983381 -1 0.55739
v -1.983381 -1 2.375172
v -1.710426 -1 2.375172
v -1.710426 1 1.832668
v -1.983381 1 1.832668
v -1.983381 1 0.139071
v -1.710426 1 0.139071
v -1.931218 1 0.253338
v -1.931218 0.333333 0.586069
v -2.033634 0.333333 0.586069
v -2.033634 1 0.253338
v -1.931218 0.333333 0.586069
v -1.931218 -0.333333 0.853319
v -2.033634 -0.333333 0.853319
v -2.033634 0.333333 0.586069
v -1.931218 -1 0.61686
v -1.931218 -0.333333 0.466975
v -2.033634 -0.333333 0.466975
v -2.033634 -1 0.61686
v -1.931218 -0.333333 0.466975
v -1.931218 0.333333 0.199725
v -2.033634 0.333333 0.199725
v -2.033634 -0.333333 0.466975
v -1.634095 1.123897 1.838231
v -1.634095 0.333333 2.217522
v -2.062764 0.333333 2.217522
v -2.062764 1.123897 1.838231
v -1.634095 0.333333 2.217522
v -1.634095 -0.333333 2.484772
v -2.062764 -0.333333 2.484772
v -2.062764 0.333333 2.217522
v -1.634095 -1 2.493532
v -1.634095 -0.333333 2.343647
v -2.062764 -0.333333 2.343647
v -2.062764 -1 2.493532
v -1.634095 -0.333333 2.343647
v -1.634095 0.333333 2.076396
v -2.062764 0.333333 2.076396
v -2.062764 -0.333333 2.343647
v -1.634095 -1 2.493532
v -1.634095 -1 2.634657
v -1.634095 -0.333333 2.484772
v -1.634095 -0.333333 2.343647
v -1.634095 0.333333 2.217522
v -1.634095 0.333333 2.076396
v -1.634095 1.123897 1.838231
v -2.062764 1.123897 1.838231
v -2.062764 1.123897 1.697106
v -1.634095 1.123897 1.697106
v -1.931218 1 0.253338
v -2.033634 1 0.253338
v -2.033634 1 -0.133006
v -1.931218 1 -0.133006
v -1.850494 0.311796 0.275758
v -1.850494 0.951159 0.0017
v -1.850494 0.977714 0.230784
v -1.850494 0.338351 0.504842
v -1.850494 -0.332067 0.510989
v -1.850494 -0.305512 0.740073
v -1.850494 -0.983997 0.676627
v -1.850494 -0.957443 0.905712
vt 0.429937 0.961478
vt 0.429937 0.993787
vt 0.978621 0.993787
vt 0.978621 0.961478
vt 0.429937 0.92917
vt 0.978621 0.92917
vt 0.429937 0.896861
vt 0.978621 0.896861
vt 0.795727 0.896861
vt 0.978621 0.993787
vt 0.978621 0.896861
vt 0.795727 0.993787
vt 0.612832 0.896861
vt 0.612832 0.993787
vt 0.429937 0.896861
vt 0.429937 0.993787
vt 0.795727 0.896861
vt 0.795727 0.993787
vt 0.978621 0.993787
vt 0.978621 0.896861
vt 0.795727 0.896861
vt 0.795727 0.993787
vt 0.978621 0.993787
vt 0.978621 0.896861
vt 0.794641 0.993243
vt 0.980287 0.993243
vt 0.980287 0.894944
vt 0.794641 0.894944
vt 0.42335 0.92771
vt 0.980287 0.894944
vt 0.42335 0.894944
vt 0.980287 0.92771
vt 0.42335 0.960476
vt 0.980287 0.960476
vt 0.42335 0.993243
vt 0.980287 0.993243
vt 0.795727 0.896861
vt 0.795727 0.993787
vt 0.978621 0.993787
vt 0.978621 0.896861
vt 0.791203 0.896861
vt 0.791203 0.993787
vt 0.965049 0.993787
vt 0.965049 0.896861
vt 0.429937 0.896861
vt 0.429937 0.993787
vt 0.978621 0.993787
vt 0.978621 0.896861
vt 0.429937 0.896861
vt 0.429937 0.993787
vt 0.978621 0.993787
vt 0.978621 0.896861
vt 0.429937 0.896861
vt 0.429937 0.993787
vt 0.978621 0.993787
vt 0.978621 0.896861
vt 0.429937 0.896861
vt 0.429937 0.993787
vt 0.978621 0.993787
vt 0.978621 0.896861
vt 0.429937 0.896861
vt 0.429937 0.993787
vt 0.612832 0.993787
vt 0.612832 0.896861
vt 0.612832 0.896861
vt 0.612832 0.993787
vt 0.795727 0.993787
vt 0.795727 0.896861
vt 0.429937 0.896861
vt 0.429937 0.993787
vt 0.612832 0.993787
vt 0.612832 0.896861
vt 0.612832 0.896861
vt 0.612832 0.993787
vt 0.795727 0.993787
vt 0.795727 0.896861
vt 0.443509 0.896861
vt 0.443509 0.993787
vt 0.617356 0.993787
vt 0.617356 0.896861
vt 0.617356 0.896861
vt 0.617356 0.993787
vt 0.791203 0.993787
vt 0.791203 0.896861
vt 0.429937 0.896861
vt 0.429937 0.993787
vt 0.612832 0.993787
vt 0.612832 0.896861
vt 0.612832 0.896861
vt 0.612832 0.993787
vt 0.795727 0.993787
vt 0.795727 0.896861
vt 0.42335 0.993243
vt 0.608995 0.894944
vt 0.42335 0.894944
vt 0.608995 0.993243
vt 0.794641 0.894944
vt 0.794641 0.993243
vt 0.443509 0.896861
vt 0.978621 0.896861
vt 0.42335 0.894944
vt 0.443509 0.993787
vt 0.429937 0.896861
vt 0.978621 0.896861
vt 0.978621 0.896861
vt 0.429937 0.993787
vt 0.429937 0.961478
vt 0.978621 0.993787
vt 0.429937 0.993787
vt 0.978621 0.961478
vt 0.429937 0.92917
vt 0.978621 0.92917
vt 0.429937 0.896861
vt 0.978621 0.896861
vt 0.429937 0.896861
vt 0.978621 0.896861
vt 0.978621 0.896861
vt 0.429937 0.896861
vt 0.429937 0.896861
vt 0.978621 0.896861
vt 0.978621 0.961478
vt 0.978621 0.993787
vt 0.978621 0.993787
vt 0.978621 0.961478
vt 0.978621 0.961478
vt 0.978621 0.993787
vt 0.978621 0.896861
vt 0.978621 0.92917
vt 0.978621 0.92917
vt 0.978621 0.896861
vt 0.978621 0.896861
vt 0.978621 0.92917
vt 0.429937 0.92917
vt 0.429937 0.896861
vt 0.429937 0.896861
vt 0.429937 0.92917
vt 0.429937 0.92917
vt 0.429937 0.896861
vt 0.978621 0.993787
vt 0.429937 0.993787
vt 0.429937 0.993787
vt 0.978621 0.993787
vt 0.978621 0.993787
vt 0.429937 0.993787
vt 0.429937 0.993787
vt 0.429937 0.961478
vt 0.429937 0.961478
vt 0.429937 0.993787
vt 0.429937 0.993787
vt 0.429937 0.961478
vt 0.978621 0.92917
vt 0.978621 0.961478
vt 0.978621 0.961478
vt 0.978621 0.92917
vt 0.978621 0.92917
vt 0.978621 0.961478
vt 0.429937 0.961478
vt 0.429937 0.92917
vt 0.429937 0.92917
vt 0.429937 0.961478
vt 0.429937 0.961478
vt 0.429937 0.92917
vt 0.429937 0.961478
vt 0.978621 0.993787
vt 0.429937 0.993787
vt 0.978621 0.961478
vt 0.429937 0.92917
vt 0.978621 0.92917
vt 0.429937 0.896861
vt 0.978621 0.896861
vt 0.795727 0.896861
vt 0.978621 0.896861
vt 0.978621 0.993787
vt 0.795727 0.993787
vt 0.612832 0.896861
vt 0.612832 0.993787
vt 0.429937 0.896861
vt 0.429937 0.993787
vt 0.795727 0.896861
vt 0.978621 0.896861
vt 0.978621 0.993787
vt 0.795727 0.993787
vt 0.795727 0.896861
vt 0.978621 0.896861
vt 0.978621 0.993787
vt 0.795727 0.993787
vt 0.794641 0.993243
vt 0.794641 0.894944
vt 0.980287 0.894944
vt 0.980287 0.993243
vt 0.42335 0.92771
vt 0.42335 0.894944
vt 0.980287 0.894944
vt 0.980287 0.92771
vt 0.42335 0.960476
vt 0.980287 0.960476
vt 0.42335 0.993243
vt 0.980287 0.993243
vt 0.795727 0.896861
vt 0.978621 0.896861
vt 0.978621 0.993787
vt 0.795727 0.993787
vt 0.791203 0.896861
vt 0.965049 0.896861
vt 0.965049 0.993787
vt 0.791203 0.993787
vt 0.429937 0.896861
vt 0.978621 0.896861
vt 0.978621 0.993787
vt 0.429937 0.993787
vt 0.429937 0.896861
vt 0.978621 0.896861
vt 0.978621 0.993787
vt 0.429937 0.993787
vt 0.429937 0.896861
vt 0.978621 0.896861
vt 0.978621 0.993787
vt 0.429937 0.993787
vt 0.429937 0.896861
vt 0.978621 0.896861
vt 0.978621 0.993787
vt 0.429937 0.993787
vt 0.429937 0.896861
vt 0.612832 0.896861
vt 0.612832 0.993787
vt 0.429937 0.993787
vt 0.612832 0.896861
vt 0.795727 0.896861
vt 0.795727 0.993787
vt 0.612832 0.993787
vt 0.429937 0.896861
vt 0.612832 0.896861
vt 0.612832 0.993787
vt 0.429937 0.993787
vt 0.612832 0.896861
vt 0.795727 0.896861
vt 0.795727 0.993787
vt 0.612832 0.993787
vt 0.443509 0.896861
vt 0.617356 0.896861
vt 0.617356 0.993787
vt 0.443509 0.993787
vt 0.617356 0.896861
vt 0.791203 0.896861
vt 0.791203 0.993787
vt 0.617356 0.993787
vt 0.429937 0.896861
vt 0.612832 0.896861
vt 0.612832 0.993787
vt 0.429937 0.993787
vt 0.612832 0.896861
vt 0.795727 0.896861
vt 0.795727 0.993787
vt 0.612832 0.993787
vt 0.42335 0.993243
vt 0.42335 0.894944
vt 0.608995 0.894944
vt 0.608995 0.993243
vt 0.794641 0.894944
vt 0.794641 0.993243
vt 0.443509 0.896861
vt 0.443509 0.993787
vt 0.42335 0.894944
vt 0.978621 0.896861
vt 0.429937 0.896861
vt 0.429937 0.993787
vt 0.978621 0.896861
vt 0.978621 0.896861
vt 0.429937 0.961478
vt 0.429937 0.993787
vt 0.978621 0.993787
vt 0.978621 0.961478
vt 0.429937 0.92917
vt 0.978621 0.92917
vt 0.429937 0.896861
vt 0.978621 0.896861
vn -1 0 0
vn -1 0 0
vn -1 0 0
vn -1 0 0
vn -1 0 0
vn -1 0 0
vn -1 0 0
vn -1 0 0
vn 1 0 0
vn 1 0 0
vn 1 0 0
vn 1 0 0
vn 1 0 0
vn 1 0 0
vn 1 0 0
vn 1 0 0
vn 0 -0.4465671 -0.8947501
vn 0 -0.4465671 -0.8947501
vn 0 -0.4465671 -0.8947501
vn 0 -0.4465671 -0.8947501
vn 0 0.219352 0.9756458
vn 0 0.219352 0.9756458
vn 0 0.219352 0.9756458
vn 0 0.219352 0.9756458
vn -1 0 0
vn -1 0 0
vn -1 0 0
vn -1 0 0
vn 1 0 0
vn 1 0 0
vn 1 0 0
vn 1 0 0
vn 1 0 0
vn 1 0 0
vn 1 0 0
vn 1 0 0
vn 0 -0.4325641 -0.9016032
vn 0 -0.4325641 -0.9016032
vn 0 -0.4325641 -0.9016032
vn 0 -0.4325641 -0.9016032
vn 0 0.219352 0.9756458
vn 0 0.219352 0.9756458
vn 0 0.219352 0.9756458
vn 0 0.219352 0.9756458
vn -1 0 0
vn -1 0 0
vn -1 0 0
vn -1 0 0
vn 1 0 0
vn 1 0 0
vn 1 0 0
vn 1 0 0
vn 0 -1 0
vn 0 -1 0
vn 0 -1 0
vn 0 -1 0
vn 0 1 0
vn 0 1 0
vn 0 1 0
vn 0 1 0
vn 0 0.4465671 0.8947501
vn 0 0.4465671 0.8947501
vn 0 0.4465671 0.8947501
vn 0 0.4465671 0.8947501
vn 0 0.3720911 0.9281963
vn 0 0.3720911 0.9281963
vn 0 0.3720911 0.9281963
vn 0 0.3720911 0.9281963
vn 0 -0.219352 -0.9756458
vn 0 -0.219352 -0.9756458
vn 0 -0.219352 -0.9756458
vn 0 -0.219352 -0.9756458
vn 0 -0.3720911 -0.9281963
vn 0 -0.3720911 -0.9281963
vn 0 -0.3720911 -0.9281963
vn 0 -0.3720911 -0.9281963
vn 0 0.4325649 0.9016028
vn 0 0.4325649 0.9016028
vn 0 0.4325649 0.9016028
vn 0 0.4325649 0.9016028
vn 0 0.3720911 0.9281963
vn 0 0.3720911 0.9281963
vn 0 0.3720911 0.9281963
vn 0 0.3720911 0.9281963
vn 0 -0.219352 -0.9756458
vn 0 -0.219352 -0.9756458
vn 0 -0.219352 -0.9756458
vn 0 -0.219352 -0.9756458
vn 0 -0.3720911 -0.9281963
vn 0 -0.3720911 -0.9281963
vn 0 -0.3720911 -0.9281963
vn 0 -0.3720911 -0.9281963
vn -1 0 0
vn -1 0 0
vn -1 0 0
vn -1 0 0
vn -1 0 0
vn -1 0 0
vn 0 1 0
vn 0 1 0
vn 0 1 0
vn 0 1 0
vn 0 1 0
vn 0 1 0
vn 0 1 0
vn 0 1 0
vn 1 0 0
vn 1 0 0
vn 1 0 0
vn 1 0 0
vn 1 0 0
vn 1 0 0
vn 1 0 0
vn 1 0 0
vn 0 -0.9933485 0.115146
vn 0 -0.9933485 0.115146
vn 0 -0.9933485 0.115146
vn 0 -0.9933485 0.115146
vn 0 -0.9933485 0.115146
vn 0 -0.9933485 0.115146
vn 0 0.3939739 0.9191216
vn 0 0.3939739 0.9191216
vn 0 0.3939739 0.9191216
vn 0 0.3939739 0.9191216
vn 0 0.3939739 0.9191216
vn 0 0.3939739 0.9191216
vn 0 0.2462501 0.9692063
vn 0 0.2462501 0.9692063
vn 0 0.2462501 0.9692063
vn 0 0.2462501 0.9692063
vn 0 0.2462501 0.9692063
vn 0 0.2462501 0.9692063
vn 0 -0.2462501 -0.9692063
vn 0 -0.2462501 -0.9692063
vn 0 -0.2462501 -0.9692063
vn 0 -0.2462501 -0.9692063
vn 0 -0.2462501 -0.9692063
vn 0 -0.2462501 -0.9692063
vn 0 0.9933485 -0.115146
vn 0 0.9933485 -0.115146
vn 0 0.9933485 -0.115146
vn 0 0.9933485 -0.115146
vn 0 0.9933485 -0.115146
vn 0 0.9933485 -0.115146
vn 0 -0.3939742 -0.9191215
vn 0 -0.3939742 -0.9191215
vn 0 -0.3939742 -0.9191215
vn 0 -0.3939742 -0.9191215
vn 0 -0.3939742 -0.9191215
vn 0 -0.3939742 -0.9191215
vn 0 0.3431579 0.9392776
vn 0 0.3431579 0.9392776
vn 0 0.3431579 0.9392776
vn 0 0.3431579 0.9392776
vn 0 0.3431579 0.9392776
vn 0 0.3431579 0.9392776
vn 0 -0.3431579 -0.9392776
vn 0 -0.3431579 -0.9392776
vn 0 -0.3431579 -0.9392776
vn 0 -0.3431579 -0.9392776
vn 0 -0.3431579 -0.9392776
vn 0 -0.3431579 -0.9392776
vn 1 0 0
vn 1 0 0
vn 1 0 0
vn 1 0 0
vn 1 0 0
vn 1 0 0
vn 1 0 0
vn 1 0 0
vn -1 0 0
vn -1 0 0
vn -1 0 0
vn -1 0 0
vn -1 0 0
vn -1 0 0
vn -1 0 0
vn -1 0 0
vn 0 -0.4465671 -0.8947501
vn 0 -0.4465671 -0.8947501
vn 0 -0.4465671 -0.8947501
vn 0 -0.4465671 -0.8947501
vn 0 0.219352 0.9756458
vn 0 0.219352 0.9756458
vn 0 0.219352 0.9756458
vn 0 0.219352 0.9756458
vn 1 0 0
vn 1 0 0
vn 1 0 0
vn 1 0 0
vn -1 0 0
vn -1 0 0
vn -1 0 0
vn -1 0 0
vn -1 0 0
vn -1 0 0
vn -1 0 0
vn -1 0 0
vn 0 -0.4325641 -0.9016032
vn 0 -0.4325641 -0.9016032
vn 0 -0.4325641 -0.9016032
vn 0 -0.4325641 -0.9016032
vn 0 0.219352 0.9756458
vn 0 0.219352 0.9756458
vn 0 0.219352 0.9756458
vn 0 0.219352 0.9756458
vn 1 0 0
vn 1 0 0
vn 1 0 0
vn 1 0 0
vn -1 0 0
vn -1 0 0
vn -1 0 0
vn -1 0 0
vn 0 -1 0
vn 0 -1 0
vn 0 -1 0
vn 0 -1 0
vn 0 1 0
vn 0 1 0
vn 0 1 0
vn 0 1 0
vn 0 0.4465671 0.8947501
vn 0 0.4465671 0.8947501
vn 0 0.4465671 0.8947501
vn 0 0.4465671 0.8947501
vn 0 0.3720911 0.9281963
vn 0 0.3720911 0.9281963
vn 0 0.3720911 0.9281963
vn 0 0.3720911 0.9281963
vn 0 -0.219352 -0.9756458
vn 0 -0.219352 -0.9756458
vn 0 -0.219352 -0.9756458
vn 0 -0.219352 -0.9756458
vn 0 -0.3720911 -0.9281963
vn 0 -0.3720911 -0.9281963
vn 0 -0.3720911 -0.9281963
vn 0 -0.3720911 -0.9281963
vn 0 0.4325649 0.9016028
vn 0 0.4325649 0.9016028
vn 0 0.4325649 0.9016028
vn 0 0.4325649 0.9016028
vn 0 0.3720911 0.9281963
vn 0 0.3720911 0.9281963
vn 0 0.3720911 0.9281963
vn 0 0.3720911 0.9281963
vn 0 -0.219352 -0.9756458
vn 0 -0.219352 -0.9756458
vn 0 -0.219352 -0.9756458
vn 0 -0.219352 -0.9756458
vn 0 -0.3720911 -0.9281963
vn 0 -0.3720911 -0.9281963
vn 0 -0.3720911 -0.9281963
vn 0 -0.3720911 -0.9281963
vn 1 0 0
vn 1 0 0
vn 1 0 0
vn 1 0 0
vn 1 0 0
vn 1 0 0
vn 0 1 0
vn 0 1 0
vn 0 1 0
vn 0 1 0
vn 0 1 0
vn 0 1 0
vn 0 1 0
vn 0 1 0
vn -1 0 0
vn -1 0 0
vn -1 0 0
vn -1 0 0
vn -1 0 0
vn -1 0 0
vn -1 0 0
vn -1 0 0
g BridgeEndColider_0
f 3/3/3 2/2/2 1/1/1
f 4/4/4 3/3/3 1/1/1
f 4/4/4 1/1/1 5/5/5
f 6/6/6 4/4/4 5/5/5
f 6/6/6 5/5/5 7/7/7
f 8/8/8 6/6/6 7/7/7
f 11/11/11 10/10/10 9/9/9
f 10/10/10 12/12/12 9/9/9
f 9/9/9 12/12/12 13/13/13
f 12/12/12 14/14/14 13/13/13
f 13/13/13 14/14/14 15/15/15
f 14/14/14 16/16/16 15/15/15
f 19/19/19 18/18/18 17/17/17
f 20/20/20 19/19/19 17/17/17
f 23/23/23 22/22/22 21/21/21
f 24/24/24 23/23/23 21/21/21
f 27/27/27 26/26/26 25/25/25
f 28/28/28 27/27/27 25/25/25
f 31/31/31 30/30/30 29/29/29
f 30/30/30 32/32/32 29/29/29
f 29/29/29 32/32/32 33/33/33
f 32/32/32 34/34/34 33/33/33
f 33/33/33 34/34/34 35/35/35
f 34/34/34 36/36/36 35/35/35
f 39/39/39 38/38/38 37/37/37
f 40/40/40 39/39/39 37/37/37
f 43/43/43 42/42/42 41/41/41
f 44/44/44 43/43/43 41/41/41
f 47/47/47 46/46/46 45/45/45
f 48/48/48 47/47/47 45/45/45
f 51/51/51 50/50/50 49/49/49
f 52/52/52 51/51/51 49/49/49
f 55/55/55 54/54/54 53/53/53
f 56/56/56 55/55/55 53/53/53
f 59/59/59 58/58/58 57/57/57
f 60/60/60 59/59/59 57/57/57
f 63/63/63 62/62/62 61/61/61
f 64/64/64 63/63/63 61/61/61
f 67/67/67 66/66/66 65/65/65
f 68/68/68 67/67/67 65/65/65
f 71/71/71 70/70/70 69/69/69
f 72/72/72 71/71/71 69/69/69
f 75/75/75 74/74/74 73/73/73
f 76/76/76 75/75/75 73/73/73
f 79/79/79 78/78/78 77/77/77
f 80/80/80 79/79/79 77/77/77
f 83/83/83 82/82/82 81/81/81
f 84/84/84 83/83/83 81/81/81
f 87/87/87 86/86/86 85/85/85
f 88/88/88 87/87/87 85/85/85
f 91/91/91 90/90/90 89/89/89
f 92/92/92 91/91/91 89/89/89
f 95/95/95 94/94/94 93/93/93
f 94/94/94 96/96/96 93/93/93
f 94/94/94 97/97/97 96/96/96
f 97/97/97 98/98/98 96/96/96
f 101/101/101 100/100/100 99/99/99
f 102/102/102 101/101/101 99/99/99
f 105/105/105 104/104/104 103/103/103
f 106/106/106 105/105/105 103/103/103
f 109/109/109 108/108/108 107/107/107
f 108/108/108 110/110/110 107/107/107
f 107/107/107 110/110/110 111/111/111
f 110/110/110 112/112/112 111/111/111
f 111/111/111 112/112/112 113/113/113
f 112/112/112 114/114/114 113/113/113
f 117/117/117 116/116/116 115/115/115
f 116/116/116 118/118/118 115/115/115
f 118/118/118 116/116/116 119/119/119
f 116/116/116 120/120/120 119/119/119
f 123/123/123 122/122/122 121/121/121
f 122/122/122 124/124/124 121/121/121
f 124/124/124 122/122/122 125/125/125
f 122/122/122 126/126/126 125/125/125
f 129/129/129 128/128/128 127/127/127
f 128/128/128 130/130/130 127/127/127
f 130/130/130 128/128/128 131/131/131
f 128/128/128 132/132/132 131/131/131
f 135/135/135 134/134/134 133/133/133
f 134/134/134 136/136/136 133/133/133
f 136/136/136 134/134/134 137/137/137
f 134/134/134 138/138/138 137/137/137
f 141/141/141 140/140/140 139/139/139
f 140/140/140 142/142/142 139/139/139
f 142/142/142 140/140/140 143/143/143
f 140/140/140 144/144/144 143/143/143
f 147/147/147 146/146/146 145/145/145
f 146/146/146 148/148/148 145/145/145
f 148/148/148 146/146/146 149/149/149
f 146/146/146 150/150/150 149/149/149
f 153/153/153 152/152/152 151/151/151
f 152/152/152 154/154/154 151/151/151
f 154/154/154 152/152/152 155/155/155
f 152/152/152 156/156/156 155/155/155
f 159/159/159 158/158/158 157/157/157
f 158/158/158 160/160/160 157/157/157
f 160/160/160 158/158/158 161/161/161
f 158/158/158 162/162/162 161/161/161
f 165/165/165 164/164/164 163/163/163
f 164/164/164 166/166/166 163/163/163
f 163/163/163 166/166/166 167/167/167
f 166/166/166 168/168/168 167/167/167
f 167/167/167 168/168/168 169/169/169
f 168/168/168 170/170/170 169/169/169
f 173/173/173 172/172/172 171/171/171
f 174/174/174 173/173/173 171/171/171
f 174/174/174 171/171/171 175/175/175
f 176/176/176 174/174/174 175/175/175
f 176/176/176 175/175/175 177/177/177
f 178/178/178 176/176/176 177/177/177
f 181/181/181 180/180/180 179/179/179
f 182/182/182 181/181/181 179/179/179
f 185/185/185 184/184/184 183/183/183
f 186/186/186 185/185/185 183/183/183
f 189/189/189 188/188/188 187/187/187
f 190/190/190 189/189/189 187/187/187
f 193/193/193 192/192/192 191/191/191
f 194/194/194 193/193/193 191/191/191
f 194/194/194 191/191/191 195/195/195
f 196/196/196 194/194/194 195/195/195
f 196/196/196 195/195/195 197/197/197
f 198/198/198 196/196/196 197/197/197
f 201/201/201 200/200/200 199/199/199
f 202/202/202 201/201/201 199/199/199
f 205/205/205 204/204/204 203/203/203
f 206/206/206 205/205/205 203/203/203
f 209/209/209 208/208/208 207/207/207
f 210/210/210 209/209/209 207/207/207
f 213/213/213 212/212/212 211/211/211
f 214/214/214 213/213/213 211/211/211
f 217/217/217 216/216/216 215/215/215
f 218/218/218 217/217/217 215/215/215
f 221/221/221 220/220/220 219/219/219
f 222/222/222 221/221/221 219/219/219
f 225/225/225 224/224/224 223/223/223
f 226/226/226 225/225/225 223/223/223
f 229/229/229 228/228/228 227/227/227
f 230/230/230 229/229/229 227/227/227
f 233/233/233 232/232/232 231/231/231
f 234/234/234 233/233/233 231/231/231
f 237/237/237 236/236/236 235/235/235
f 238/238/238 237/237/237 235/235/235
f 241/241/241 240/240/240 239/239/239
f 242/242/242 241/241/241 239/239/239
f 245/245/245 244/244/244 243/243/243
f 246/246/246 245/245/245 243/243/243
f 249/249/249 248/248/248 247/247/247
f 250/250/250 249/249/249 247/247/247
f 253/253/253 252/252/252 251/251/251
f 254/254/254 253/253/253 251/251/251
f 257/257/257 256/256/256 255/255/255
f 258/258/258 257/257/257 255/255/255
f 259/259/259 257/257/257 258/258/258
f 260/260/260 259/259/259 258/258/258
f 263/263/263 262/262/262 261/261/261
f 264/264/264 263/263/263 261/261/261
f 267/267/267 266/266/266 265/265/265
f 268/268/268 267/267/267 265/265/265
f 271/271/271 270/270/270 269/269/269
f 272/272/272 271/271/271 269/269/269
f 272/272/272 269/269/269 273/273/273
f 274/274/274 272/272/272 273/273/273
f 274/274/274 273/273/273 275/275/275
f 276/276/276 274/274/274 275/275/275
