g Cabbage
v -0.293633 -0.000102 0.387818
v -0.299266 0.005531 0.38699
v -0.164499 0.005531 0.481682
v -0.158866 -0.000102 0.517243
v -0.005531 0.005531 0.514933
v 0.000102 -0.000102 0.484324
v -0.005531 0.164499 0.481682
v 0.000102 0.158866 0.520853
v -0.005531 0.299266 0.38699
v 0.000102 0.293633 0.387818
v -0.016231 0.309122 0.424651
v 0.224333 0.224128 0.438904
v 0.207804 0.2076 0.406157
v 0.309968 -0.015108 0.425809
v 0.293837 -0.000102 0.389196
v 0.299997 -0.006262 0.390208
v 0.16523 -0.006262 0.4849
v 0.159071 -0.000102 0.522231
v 0.006262 -0.006262 0.518151
v 0.006262 -0.16523 0.4849
v 0.000102 -0.159071 0.518621
v 0.006262 -0.299997 0.390208
v 0.000102 -0.293838 0.389196
v 0.006262 -0.390046 0.27384
v 0.000102 -0.383886 0.264441
v -0.224129 -0.224333 0.438904
v -0.2076 -0.207805 0.406157
v 0.015108 -0.309968 0.425809
v 0.000102 -0.383886 0.264441
v 0.015108 -0.400361 0.28355
v 0.000102 0.415302 0.097275
v -0.299266 0.299266 0.105871
v -0.293633 0.293633 0.097275
v -0.005531 0.420935 0.105871
v 0.000102 0.383681 0.264441
v -0.005531 0.389314 0.273036
v 0.000102 0.293633 0.387818
v -0.005531 0.299266 0.38699
v 0.000102 0.383681 0.264441
v -0.016231 0.309122 0.424651
v -0.016231 0.398912 0.283341
v 0.000102 0.415302 0.097275
v -0.016231 0.430442 0.116656
v -0.293633 0.293633 0.097275
v -0.309122 0.309122 0.116656
v -0.293633 0.293633 0.097275
v -0.299266 0.299266 0.105871
v -0.420935 0.005531 0.105871
v -0.415302 -0.000102 0.097275
v -0.389314 0.005531 0.273036
v -0.383681 -0.000102 0.264441
v -0.299266 0.005531 0.38699
v -0.293633 -0.000102 0.387818
v -0.309122 0.016231 0.424651
v -0.398912 0.016231 0.283341
v -0.383681 -0.000102 0.264441
v -0.430442 0.016231 0.116656
v -0.415302 -0.000102 0.097275
v -0.309122 0.309122 0.116656
v -0.293633 0.293633 0.097275
v 0.207804 0.2076 0.406157
v 0.293837 -0.000102 0.389196
v 0.159071 -0.000102 0.522231
v 0.11251 0.112305 0.539193
v 0.000102 0.293633 0.387818
v 0.000102 -0.000102 0.484324
v 0.000102 0.158866 0.520853
v 0.000102 -0.383886 0.264441
v 0.006262 -0.390046 0.27384
v 0.006262 -0.421666 0.106674
v 0.000102 -0.415507 0.097275
v 0.299997 -0.299997 0.106674
v 0.293837 -0.293838 0.097275
v 0.421666 -0.006262 0.106674
v 0.415507 -0.000102 0.097275
v 0.390046 -0.006262 0.27384
v 0.383886 -0.000102 0.264441
v 0.299997 -0.006262 0.390208
v 0.293837 -0.000102 0.389196
v 0.309968 -0.015108 0.425809
v 0.400361 -0.015108 0.28355
v 0.383886 -0.000102 0.264441
v 0.432103 -0.015108 0.115744
v 0.415507 -0.000102 0.097275
v 0.309968 -0.309968 0.115744
v 0.293837 -0.293838 0.097275
v 0.015108 -0.432103 0.115744
v 0.000102 -0.415507 0.097275
v 0.015108 -0.400361 0.28355
v 0.000102 -0.383886 0.264441
v 0.299997 -0.299997 0.106674
v 0.006262 -0.421666 0.106674
v 0.006262 -0.390046 0.27384
v 0.277638 -0.277638 0.27384
v 0.421666 -0.006262 0.106674
v 0.006262 -0.299997 0.390208
v 0.390046 -0.006262 0.27384
v 0.213964 -0.213964 0.390208
v 0.006262 -0.16523 0.4849
v 0.299997 -0.006262 0.390208
v 0.11867 -0.11867 0.4849
v 0.006262 -0.006262 0.518151
v 0.16523 -0.006262 0.4849
v -0.2076 -0.207805 0.406157
v -0.309122 0.016231 0.424651
v -0.293633 -0.000102 0.387818
v -0.224129 -0.224333 0.438904
v -0.29287 -0.293074 0.28591
v -0.398912 0.016231 0.283341
v 0.015108 -0.400361 0.28355
v 0.015108 -0.309968 0.425809
v 0.015108 -0.432103 0.115744
v -0.317008 -0.317213 0.105441
v -0.430442 0.016231 0.116656
v 0.000102 -0.414427 -0.075028
v -0.29287 -0.293074 -0.075028
v 0.293074 -0.293074 -0.075028
v 0.309968 -0.309968 0.115744
v -0.414223 -0.000102 -0.075028
v -0.309122 0.309122 0.116656
v 0.414427 -0.000102 -0.075028
v 0.432103 -0.015108 0.115744
v -0.29287 0.292869 -0.075028
v -0.016231 0.430442 0.116656
v 0.224333 -0.224333 -0.228022
v 0.000102 -0.317213 -0.228022
v -0.224129 -0.224333 -0.228022
v 0.317213 -0.000102 -0.228022
v -0.317008 -0.000102 -0.228022
v 0.293074 0.292869 -0.075028
v 0.224333 0.224128 -0.228022
v 0.317213 0.317008 0.105441
v 0.400361 -0.015108 0.28355
v 0.293074 0.292869 0.28591
v 0.309968 -0.015108 0.425809
v 0.224333 0.224128 0.438904
v -0.016231 0.398912 0.283341
v -0.016231 0.309122 0.424651
v 0.000102 0.414222 -0.075028
v 0.000102 0.317008 -0.228022
v -0.224129 0.224129 -0.228022
v 0.000102 0.171517 -0.330249
v -0.121251 0.12125 -0.330249
v 0.000102 -0.000102 -0.366146
v 0.121455 0.12125 -0.330249
v -0.171517 -0.000102 -0.330249
v 0.171721 -0.000102 -0.330249
v -0.121251 -0.121455 -0.330249
v 0.121455 -0.121455 -0.330249
v 0.000102 -0.171721 -0.330249
v -0.2076 -0.207805 0.406157
v -0.293633 -0.000102 0.387818
v -0.158866 -0.000102 0.517243
v -0.112305 -0.11251 0.535583
v 0.000102 -0.293838 0.389196
v 0.000102 -0.000102 0.484324
v 0.000102 -0.159071 0.518621
v -0.299266 0.299266 0.105871
v -0.005531 0.420935 0.105871
v -0.005531 0.389314 0.273036
v -0.276907 0.276907 0.273036
v -0.420935 0.005531 0.105871
v -0.005531 0.299266 0.38699
v -0.389314 0.005531 0.273036
v -0.213233 0.213233 0.38699
v -0.005531 0.164499 0.481682
v -0.299266 0.005531 0.38699
v -0.117938 0.117938 0.481682
v -0.005531 0.005531 0.514933
v -0.164499 0.005531 0.481682
vt 0.36309 0.946746
vt 0.36309 0.946746
vt 0.434931 0.912466
vt 0.434931 0.912466
vt 0.524192 0.8661
vt 0.524192 0.8661
vt 0.563874 0.984813
vt 0.563874 0.984813
vt 0.601347 1.080426
vt 0.601347 1.080426
vt 0.601347 1.080426
vt 0.700036 0.950956
vt 0.700036 0.950956
vt 0.700036 0.766113
vt 0.700036 0.766113
vt 0.700036 0.766113
vt 0.617285 0.814708
vt 0.617285 0.814708
vt 0.524192 0.8661
vt 0.488341 0.742361
vt 0.488341 0.742361
vt 0.461779 0.632433
vt 0.461779 0.632433
vt 0.448551 0.553053
vt 0.448551 0.553053
vt 0.36309 0.761904
vt 0.36309 0.761904
vt 0.461779 0.632433
vt 0.448551 0.553053
vt 0.448551 0.553053
vt 0.530359 0.104704
vt 0.556056 -0.081008
vt 0.556056 -0.081008
vt 0.530359 0.104704
vt 0.631177 0.1147
vt 0.631177 0.1147
vt 0.723325 0.143166
vt 0.723325 0.143166
vt 0.631177 0.1147
vt 0.723325 0.143166
vt 0.631177 0.1147
vt 0.530359 0.104704
vt 0.530359 0.104704
vt 0.556056 -0.081008
vt 0.556056 -0.081008
vt 0.25753 0.859504
vt 0.25753 0.859504
vt 0.059214 0.859504
vt 0.059214 0.859504
vt 0.066762 0.725986
vt 0.066762 0.725986
vt 0.088257 0.603952
vt 0.088257 0.603952
vt 0.088257 0.603952
vt 0.066762 0.725986
vt 0.066762 0.725986
vt 0.059214 0.859504
vt 0.059214 0.859504
vt 0.25753 0.859504
vt 0.25753 0.859504
vt 0.529747 -0.048847
vt -0.235355 0.209376
vt 0.123378 0.67761
vt 0.521697 0.529293
vt 1.278563 0.216057
vt 0.523102 1.09813
vt 0.922464 0.67631
vt 0.027285 0.511978
vt 0.027285 0.511978
vt -0.03993 0.417879
vt -0.03993 0.417879
vt 0.091984 0.346272
vt 0.091984 0.346272
vt 0.25892 0.204491
vt 0.25892 0.204491
vt 0.303387 0.314833
vt 0.303387 0.314833
vt 0.324771 0.411724
vt 0.324771 0.411724
vt 0.324771 0.411724
vt 0.303387 0.314833
vt 0.303387 0.314833
vt 0.25892 0.204491
vt 0.25892 0.204491
vt 0.091984 0.346272
vt 0.091984 0.346272
vt -0.03993 0.417879
vt -0.03993 0.417879
vt 0.027285 0.511978
vt 0.027285 0.511978
vt 0.535926 -0.009072
vt -0.030511 0.064442
vt 0.037123 0.367649
vt 0.529846 0.279233
vt 1.077055 0.077333
vt 0.159887 0.642257
vt 1.01034 0.362873
vt 0.525278 0.547345
vt 0.326965 0.881121
vt 0.892449 0.637728
vt 0.52401 0.814213
vt 0.523395 1.094817
vt 0.724527 0.883359
vt -0.080925 0.24931
vt -0.049035 0.05927
vt -0.080925 0.066542
vt -0.049035 0.256583
vt 0.086692 0.261843
vt 0.095193 0.029025
vt 0.078582 0.50753
vt -0.074764 0.462813
vt 0.235752 0.507088
vt 0.201981 0.269402
vt 0.247959 0.031238
vt 0.345959 0.425963
vt 0.2997 0.276493
vt 0.502544 0.496092
vt 0.493422 0.633585
vt 0.347892 0.126281
vt 0.512739 -0.080917
vt 0.658269 0.426387
vt 0.758202 0.52143
vt 0.503618 0.056576
vt 0.770409 0.04558
vt 0.506707 0.405231
vt 0.41418 0.368615
vt 0.378178 0.27988
vt 0.596326 0.363161
vt 0.409836 0.189507
vt 0.706461 0.276175
vt 0.627984 0.272787
vt 0.80418 0.283265
vt 0.910968 0.523643
vt 0.919469 0.290825
vt 1.055196 0.493398
vt 1.055196 0.296085
vt 0.927579 0.045138
vt 1.080925 0.089855
vt 0.660202 0.126705
vt 0.591981 0.184052
vt 0.499455 0.147437
vt 0.543643 0.230975
vt 0.499509 0.215509
vt 0.503081 0.276334
vt 0.563337 0.272876
vt 0.457747 0.236169
vt 0.548414 0.316498
vt 0.442824 0.279791
vt 0.506653 0.337159
vt 0.462518 0.321693
vt 0.532666 -0.02396
vt -0.234716 0.227409
vt 0.119815 0.698833
vt 0.519444 0.554085
vt 1.279083 0.247632
vt 0.515761 1.122911
vt 0.918881 0.704681
vt 0.546171 -0.02796
vt -0.020576 0.043114
vt 0.045752 0.34661
vt 0.53885 0.260317
vt 1.086923 0.060774
vt 0.167332 0.621744
vt 1.01898 0.346025
vt 0.533128 0.528406
vt 0.33338 0.861325
vt 0.899907 0.620369
vt 0.530711 0.795266
vt 0.528888 1.075865
vt 0.730928 0.865275
vn -0.2418308 0.3022141 0.9220545
vn -0.6926382 0.2734996 0.6674207
vn -0.4935215 0.26713 0.8276944
vn -0.587779 -0.1183102 0.8003241
vn -0.1824043 0.1544169 0.9710222
vn -0.03625428 0.001259934 0.9993418
vn -0.2796259 0.4917233 0.8246319
vn 0.1141045 0.5959089 0.7949043
vn -0.2753554 0.6922992 0.6670091
vn -0.3046134 0.2618692 0.9157703
vn 0.1977267 0.7784621 0.5957358
vn 0.5375937 0.5408841 0.6468673
vn 0.2418025 0.2453001 0.9388075
vn 0.7758201 0.1996756 0.5985255
vn 0.2807526 -0.2616494 0.9234272
vn 0.6970874 -0.2750874 0.6621148
vn 0.4941541 -0.2618661 0.8289981
vn 0.5912461 0.1312338 0.7957422
vn 0.1172761 -0.1452986 0.9824127
vn 0.2493453 -0.4958427 0.8318455
vn -0.1358016 -0.5829887 0.8010507
vn 0.2729394 -0.6974778 0.6625926
vn 0.2601524 -0.2610365 0.9296132
vn 0.3320473 -0.8812956 0.336248
vn -0.7946975 -0.5731612 0.1998552
vn -0.5408835 -0.5375947 0.646867
vn -0.2315136 -0.2280219 0.9457312
vn -0.1996772 -0.775821 0.5985239
vn 0.8452581 0.5037574 -0.1782331
vn 0.8673894 0.449212 -0.2141127
vn -0.05742683 0.817364 -0.5732524
vn -0.7003293 0.7003293 0.1381223
vn -0.5186365 0.5186365 -0.6797296
vn -0.342788 0.9324362 0.1142763
vn 0.7877401 0.5812997 0.2038535
vn -0.3353569 0.8796018 0.3373968
vn -0.3046134 0.2618692 0.9157703
vn -0.2753554 0.6922992 0.6670091
vn -0.8106734 -0.5521065 -0.1949027
vn 0.1977267 0.7784621 0.5957358
vn -0.8394686 -0.4899485 -0.2350384
vn -0.01290344 -0.7932375 0.6087757
vn -0.1147705 -0.827463 0.5496659
vn 0.4685574 -0.4685576 0.7489378
vn 0.4685575 -0.4685575 0.7489378
vn -0.5186365 0.5186365 -0.6797296
vn -0.7003293 0.7003293 0.1381223
vn -0.9324362 0.342788 0.1142763
vn -0.817364 0.0574268 -0.5732524
vn -0.8796018 0.3353569 0.3373967
vn -0.5812997 -0.7877401 0.2038535
vn -0.6926382 0.2734996 0.6674207
vn -0.2418308 0.3022141 0.9220545
vn -0.7784621 -0.1977235 0.5957367
vn 0.4899484 0.8394687 -0.2350383
vn 0.5521065 0.8106734 -0.1949027
vn 0.8274629 0.1147705 0.5496662
vn 0.7932373 0.01290349 0.6087759
vn 0.4685575 -0.4685575 0.7489378
vn 0.4685574 -0.4685576 0.7489378
vn 0.2418025 0.2453001 0.9388075
vn 0.2807526 -0.2616494 0.9234272
vn 0.5912461 0.1312338 0.7957422
vn 0.3914559 0.3952897 0.8309683
vn -0.3046134 0.2618692 0.9157703
vn -0.03625428 0.001259934 0.9993418
vn 0.1141045 0.5959089 0.7949043
vn -0.7946975 -0.5731612 0.1998552
vn 0.3320473 -0.8812956 0.336248
vn 0.3397382 -0.9341571 0.1092183
vn 0.05740191 -0.8173742 -0.5732405
vn 0.7007472 -0.7007461 0.133822
vn 0.5186231 -0.5186353 -0.6797407
vn 0.9341573 -0.3397382 0.1092164
vn 0.8173645 -0.05740245 -0.5732539
vn 0.8812958 -0.3320465 0.3362481
vn 0.5731549 0.7947024 0.1998538
vn 0.6970874 -0.2750874 0.6621148
vn 0.2807526 -0.2616494 0.9234272
vn 0.7758201 0.1996756 0.5985255
vn -0.4492078 -0.8673918 -0.2141117
vn -0.5037543 -0.8452601 -0.1782328
vn -0.7942975 -0.1557171 0.5872338
vn -0.7589003 -0.039294 0.6500203
vn -0.444947 0.4449403 0.7772068
vn -0.4449413 0.4449459 0.7772068
vn 0.155719 0.7943015 0.5872279
vn 0.03929546 0.758905 0.6500147
vn 0.8673894 0.449212 -0.2141127
vn 0.8452581 0.5037574 -0.1782331
vn 0.7007472 -0.7007461 0.133822
vn 0.3397382 -0.9341571 0.1092183
vn 0.3320473 -0.8812956 0.336248
vn 0.6612833 -0.6612833 0.3541312
vn 0.9341573 -0.3397382 0.1092164
vn 0.2729394 -0.6974778 0.6625926
vn 0.8812958 -0.3320465 0.3362481
vn 0.5122575 -0.5122575 0.6893362
vn 0.2493453 -0.4958427 0.8318455
vn 0.6970874 -0.2750874 0.6621148
vn 0.3641349 -0.3641349 0.8572115
vn 0.1172761 -0.1452986 0.9824127
vn 0.4941541 -0.2618661 0.8289981
vn -0.2315136 -0.2280219 0.9457312
vn -0.7784621 -0.1977235 0.5957367
vn -0.2418308 0.3022141 0.9220545
vn -0.5408835 -0.5375947 0.646867
vn -0.6659561 -0.6627639 0.3424128
vn -0.8993843 -0.3040543 0.3141001
vn -0.3087897 -0.8977914 0.3140371
vn -0.1996772 -0.775821 0.5985239
vn -0.09200874 -0.9955231 -0.02163503
vn -0.7083071 -0.7053736 0.02736997
vn -0.9959282 -0.08829566 -0.01818723
vn -0.003256124 -0.9543051 -0.2988162
vn -0.6761276 -0.6742493 -0.2970511
vn 0.6743402 -0.6743403 -0.3008827
vn 0.7016259 -0.7016259 -0.1242661
vn -0.9552825 -0.003517257 -0.2956737
vn -0.7020764 0.7020785 -0.1190564
vn 0.9543051 0.003256128 -0.2988165
vn 0.9955231 0.09200881 -0.02163508
vn -0.6749886 0.6749882 -0.297962
vn 0.0882962 0.9959282 -0.01818932
vn 0.5457319 -0.5457319 -0.6358878
vn 0 -0.7717815 -0.6358879
vn -0.5457323 -0.5457313 -0.635888
vn 0.7717814 0 -0.635888
vn -0.7717812 0 -0.6358882
vn 0.6742491 0.6761274 -0.2970522
vn 0.5457315 0.5457329 -0.6358874
vn 0.7053726 0.7083081 0.02736923
vn 0.8977913 0.3087903 0.3140374
vn 0.6627641 0.6659555 0.3424136
vn 0.7758201 0.1996756 0.5985255
vn 0.5375937 0.5408841 0.6468673
vn 0.3040561 0.8993832 0.3141014
vn 0.1977267 0.7784621 0.5957358
vn 0.003517505 0.9552821 -0.295675
vn 0 0.771782 -0.6358871
vn -0.5457314 0.545733 -0.6358873
vn 0 0.5149623 -0.8572128
vn -0.3641335 0.3641327 -0.857213
vn 0 0 -1
vn 0.3641333 0.3641338 -0.8572127
vn -0.5149627 0 -0.8572126
vn 0.5149615 0 -0.8572133
vn -0.3641335 -0.3641329 -0.857213
vn 0.364133 -0.364133 -0.8572131
vn 0 -0.5149615 -0.8572133
vn -0.2315136 -0.2280219 0.9457312
vn -0.2418308 0.3022141 0.9220545
vn -0.587779 -0.1183102 0.8003241
vn -0.3889356 -0.3850368 0.8369443
vn 0.2601524 -0.2610365 0.9296132
vn -0.03625428 0.001259934 0.9993418
vn -0.1358016 -0.5829887 0.8010507
vn -0.7003293 0.7003293 0.1381223
vn -0.342788 0.9324362 0.1142763
vn -0.3353569 0.8796018 0.3373968
vn -0.6607882 0.6607882 0.3559747
vn -0.9324362 0.342788 0.1142763
vn -0.2753554 0.6922992 0.6670091
vn -0.8796018 0.3353569 0.3373967
vn -0.5086026 0.5086026 0.6947278
vn -0.2796259 0.4917233 0.8246319
vn -0.6926382 0.2734996 0.6674207
vn -0.3641341 0.3641341 0.8572122
vn -0.1824043 0.1544169 0.9710222
vn -0.4935215 0.26713 0.8276944
g Cabbage_0
f 3/3/3 2/2/2 1/1/1
f 4/4/4 3/3/3 1/1/1
f 5/5/5 3/3/3 4/4/4
f 6/6/6 5/5/5 4/4/4
f 7/7/7 5/5/5 6/6/6
f 8/8/8 7/7/7 6/6/6
f 9/9/9 7/7/7 8/8/8
f 10/10/10 9/9/9 8/8/8
f 12/12/12 11/11/11 10/10/10
f 13/13/13 12/12/12 10/10/10
f 14/14/14 12/12/12 13/13/13
f 15/15/15 14/14/14 13/13/13
f 17/17/17 16/16/16 15/15/15
f 18/18/18 17/17/17 15/15/15
f 19/19/19 17/17/17 18/18/18
f 6/6/6 19/19/19 18/18/18
f 20/20/20 19/19/19 6/6/6
f 21/21/21 20/20/20 6/6/6
f 22/22/22 20/20/20 21/21/21
f 23/23/23 22/22/22 21/21/21
f 24/24/24 22/22/22 23/23/23
f 25/25/25 24/24/24 23/23/23
f 27/27/27 26/26/26 23/23/23
f 26/26/26 28/28/28 23/23/23
f 23/23/23 28/28/28 29/29/29
f 28/28/28 30/30/30 29/29/29
f 33/33/33 32/32/32 31/31/31
f 32/32/32 34/34/34 31/31/31
f 31/31/31 34/34/34 35/35/35
f 34/34/34 36/36/36 35/35/35
f 35/35/35 36/36/36 37/37/37
f 36/36/36 38/38/38 37/37/37
f 37/37/37 40/40/40 39/39/39
f 40/40/40 41/41/41 39/39/39
f 39/39/39 41/41/41 42/42/42
f 41/41/41 43/43/43 42/42/42
f 42/42/42 43/43/43 44/44/44
f 43/43/43 45/45/45 44/44/44
f 48/48/48 47/47/47 46/46/46
f 49/49/49 48/48/48 46/46/46
f 50/50/50 48/48/48 49/49/49
f 51/51/51 50/50/50 49/49/49
f 52/52/52 50/50/50 51/51/51
f 53/53/53 52/52/52 51/51/51
f 55/55/55 54/54/54 53/53/53
f 56/56/56 55/55/55 53/53/53
f 57/57/57 55/55/55 56/56/56
f 58/58/58 57/57/57 56/56/56
f 59/59/59 57/57/57 58/58/58
f 60/60/60 59/59/59 58/58/58
f 63/63/63 62/62/62 61/61/61
f 64/64/64 63/63/63 61/61/61
f 64/64/64 61/61/61 65/65/65
f 66/66/66 63/63/63 64/64/64
f 67/67/67 64/64/64 65/65/65
f 66/66/66 64/64/64 67/67/67
f 70/70/70 69/69/69 68/68/68
f 71/71/71 70/70/70 68/68/68
f 72/72/72 70/70/70 71/71/71
f 73/73/73 72/72/72 71/71/71
f 74/74/74 72/72/72 73/73/73
f 75/75/75 74/74/74 73/73/73
f 76/76/76 74/74/74 75/75/75
f 77/77/77 76/76/76 75/75/75
f 78/78/78 76/76/76 77/77/77
f 79/79/79 78/78/78 77/77/77
f 81/81/81 80/80/80 79/79/79
f 82/82/82 81/81/81 79/79/79
f 83/83/83 81/81/81 82/82/82
f 84/84/84 83/83/83 82/82/82
f 85/85/85 83/83/83 84/84/84
f 86/86/86 85/85/85 84/84/84
f 87/87/87 85/85/85 86/86/86
f 88/88/88 87/87/87 86/86/86
f 89/89/89 87/87/87 88/88/88
f 90/90/90 89/89/89 88/88/88
f 93/93/93 92/92/92 91/91/91
f 94/94/94 93/93/93 91/91/91
f 94/94/94 91/91/91 95/95/95
f 96/96/96 93/93/93 94/94/94
f 97/97/97 94/94/94 95/95/95
f 98/98/98 96/96/96 94/94/94
f 98/98/98 94/94/94 97/97/97
f 99/99/99 96/96/96 98/98/98
f 100/100/100 98/98/98 97/97/97
f 101/101/101 99/99/99 98/98/98
f 101/101/101 98/98/98 100/100/100
f 102/102/102 99/99/99 101/101/101
f 103/103/103 101/101/101 100/100/100
f 102/102/102 101/101/101 103/103/103
f 106/106/106 105/105/105 104/104/104
f 105/105/105 107/107/107 104/104/104
f 107/107/107 105/105/105 108/108/108
f 105/105/105 109/109/109 108/108/108
f 107/107/107 108/108/108 110/110/110
f 111/111/111 107/107/107 110/110/110
f 110/110/110 108/108/108 112/112/112
f 108/108/108 109/109/109 113/113/113
f 108/108/108 113/113/113 112/112/112
f 109/109/109 114/114/114 113/113/113
f 112/112/112 113/113/113 115/115/115
f 113/113/113 114/114/114 116/116/116
f 113/113/113 116/116/116 115/115/115
f 112/112/112 115/115/115 117/117/117
f 118/118/118 112/112/112 117/117/117
f 114/114/114 119/119/119 116/116/116
f 114/114/114 120/120/120 119/119/119
f 118/118/118 117/117/117 121/121/121
f 122/122/122 118/118/118 121/121/121
f 120/120/120 123/123/123 119/119/119
f 120/120/120 124/124/124 123/123/123
f 117/117/117 115/115/115 125/125/125
f 115/115/115 116/116/116 126/126/126
f 115/115/115 126/126/126 125/125/125
f 116/116/116 119/119/119 127/127/127
f 116/116/116 127/127/127 126/126/126
f 121/121/121 117/117/117 128/128/128
f 117/117/117 125/125/125 128/128/128
f 119/119/119 123/123/123 129/129/129
f 119/119/119 129/129/129 127/127/127
f 122/122/122 121/121/121 130/130/130
f 121/121/121 128/128/128 131/131/131
f 130/130/130 121/121/121 131/131/131
f 132/132/132 122/122/122 130/130/130
f 133/133/133 122/122/122 132/132/132
f 134/134/134 133/133/133 132/132/132
f 135/135/135 133/133/133 134/134/134
f 136/136/136 135/135/135 134/134/134
f 136/136/136 134/134/134 137/137/137
f 138/138/138 136/136/136 137/137/137
f 137/137/137 134/134/134 124/124/124
f 134/134/134 132/132/132 124/124/124
f 124/124/124 132/132/132 139/139/139
f 132/132/132 130/130/130 139/139/139
f 124/124/124 139/139/139 123/123/123
f 139/139/139 130/130/130 140/140/140
f 130/130/130 131/131/131 140/140/140
f 123/123/123 139/139/139 141/141/141
f 139/139/139 140/140/140 141/141/141
f 123/123/123 141/141/141 129/129/129
f 140/140/140 131/131/131 142/142/142
f 141/141/141 140/140/140 143/143/143
f 140/140/140 142/142/142 143/143/143
f 143/143/143 142/142/142 144/144/144
f 131/131/131 145/145/145 142/142/142
f 142/142/142 145/145/145 144/144/144
f 131/131/131 128/128/128 145/145/145
f 141/141/141 143/143/143 146/146/146
f 129/129/129 141/141/141 146/146/146
f 146/146/146 143/143/143 144/144/144
f 128/128/128 147/147/147 145/145/145
f 145/145/145 147/147/147 144/144/144
f 128/128/128 125/125/125 147/147/147
f 129/129/129 146/146/146 148/148/148
f 148/148/148 146/146/146 144/144/144
f 127/127/127 129/129/129 148/148/148
f 125/125/125 149/149/149 147/147/147
f 147/147/147 149/149/149 144/144/144
f 125/125/125 126/126/126 149/149/149
f 127/127/127 148/148/148 150/150/150
f 150/150/150 148/148/148 144/144/144
f 149/149/149 150/150/150 144/144/144
f 126/126/126 150/150/150 149/149/149
f 126/126/126 127/127/127 150/150/150
f 153/153/153 152/152/152 151/151/151
f 154/154/154 153/153/153 151/151/151
f 154/154/154 151/151/151 155/155/155
f 156/156/156 153/153/153 154/154/154
f 157/157/157 154/154/154 155/155/155
f 156/156/156 154/154/154 157/157/157
f 160/160/160 159/159/159 158/158/158
f 161/161/161 160/160/160 158/158/158
f 161/161/161 158/158/158 162/162/162
f 163/163/163 160/160/160 161/161/161
f 164/164/164 161/161/161 162/162/162
f 165/165/165 163/163/163 161/161/161
f 165/165/165 161/161/161 164/164/164
f 166/166/166 163/163/163 165/165/165
f 167/167/167 165/165/165 164/164/164
f 168/168/168 166/166/166 165/165/165
f 168/168/168 165/165/165 167/167/167
f 169/169/169 166/166/166 168/168/168
f 170/170/170 168/168/168 167/167/167
f 169/169/169 168/168/168 170/170/170
