g CarpetRoll
v 0.457663 -0.379964 -0.061562
v 0.457663 -0.539555 -0.14012
v -0.457663 -0.539555 -0.14012
v -0.457663 -0.379964 -0.061562
v 0.457663 -0.220372 -0.031341
v -0.457663 -0.220372 -0.031341
v 0.457663 -0.060781 -0.031341
v -0.457663 -0.060781 -0.031341
v 0.457663 0.098811 -0.061562
v -0.457663 0.098811 -0.061562
v 0.478923 0.208433 -0.125572
v 0.478923 0.308387 -0.084169
v -0.478923 0.308387 -0.084169
v -0.478923 0.208433 -0.125572
v 0.478923 0.130849 -0.125572
v -0.478923 0.130849 -0.125572
v 0.478923 0.030895 -0.084169
v -0.478923 0.030895 -0.084169
v 0.478923 0.308387 -0.084169
v -0.478923 0.34979 0.015785
v -0.478923 0.308387 -0.084169
v 0.478923 0.34979 0.015785
v 0.478923 0.34979 0.093369
v -0.478923 0.34979 0.093369
v -0.478923 0.308387 0.193323
v 0.478923 0.308387 0.193323
v -0.478923 0.208433 0.234726
v -0.478923 0.308387 0.193323
v 0.478923 0.308387 0.193323
v 0.478923 0.208433 0.234726
v -0.478923 0.130849 0.234726
v 0.478923 0.130849 0.234726
v -0.478923 0.030895 0.193323
v 0.478923 0.030895 0.193323
v -0.478923 0.030895 -0.084169
v 0.478923 -0.010508 0.015785
v 0.478923 0.030895 -0.084169
v -0.478923 -0.010508 0.015785
v -0.478923 -0.010508 0.093369
v 0.478923 -0.010508 0.093369
v 0.478923 0.030895 0.193323
v -0.478923 0.030895 0.193323
v 0.333389 0.121657 0.006594
v 0.333389 0.107736 0.040204
v 0.333389 0.107736 0.06895
v 0.333389 0.121657 0.10256
v 0.333389 0.155268 -0.007328
v 0.333389 0.155268 0.116482
v 0.333389 0.184014 -0.007328
v 0.333389 0.184014 0.116482
v 0.333389 0.217624 0.006594
v 0.333389 0.217624 0.10256
v 0.333389 0.231546 0.040204
v 0.333389 0.231546 0.06895
v -0.333389 0.121657 0.10256
v -0.333389 0.107736 0.06895
v -0.333389 0.107736 0.040204
v -0.333389 0.121657 0.006594
v -0.333389 0.155268 0.116482
v -0.333389 0.155268 -0.007328
v -0.333389 0.184014 0.116482
v -0.333389 0.184014 -0.007328
v -0.333389 0.217624 0.10256
v -0.333389 0.217624 0.006594
v -0.333389 0.231546 0.06895
v -0.333389 0.231546 0.040204
v 0.457663 -0.379964 -0.061562
v -0.457663 -0.539555 -0.14012
v 0.457663 -0.539555 -0.14012
v -0.457663 -0.379964 -0.061562
v 0.457663 -0.220372 -0.031341
v -0.457663 -0.220372 -0.031341
v 0.457663 -0.060781 -0.031341
v -0.457663 -0.060781 -0.031341
v 0.457663 0.098811 -0.061562
v -0.457663 0.098811 -0.061562
v -0.478923 0.100711 -0.014353
v -0.478923 0.130849 -0.125572
v -0.478923 0.148993 -0.034352
v -0.478923 0.030895 -0.084169
v -0.478923 0.208433 -0.125572
v -0.478923 0.080712 0.03393
v -0.478923 0.190288 -0.034352
v -0.478923 -0.010508 0.015785
v -0.478923 0.308387 -0.084169
v -0.478923 0.080712 0.075224
v -0.478923 0.23857 -0.014353
v -0.478923 -0.010508 0.093369
v -0.478923 0.34979 0.015785
v -0.478923 0.100711 0.123507
v -0.478923 0.25857 0.03393
v -0.478923 0.030895 0.193323
v -0.478923 0.34979 0.093369
v -0.478923 0.148993 0.143506
v -0.478923 0.25857 0.075224
v -0.478923 0.130849 0.234726
v -0.478923 0.308387 0.193323
v -0.478923 0.190288 0.143506
v -0.478923 0.23857 0.123507
v -0.478923 0.208433 0.234726
v 0.478923 0.100711 -0.014353
v 0.478923 -0.010508 0.015785
v 0.478923 0.080712 0.03393
v 0.478923 0.030895 -0.084169
v 0.478923 -0.010508 0.093369
v 0.478923 0.148993 -0.034352
v 0.478923 0.080712 0.075224
v 0.478923 0.130849 -0.125572
v 0.478923 0.030895 0.193323
v 0.478923 0.190288 -0.034352
v 0.478923 0.100711 0.123507
v 0.478923 0.208433 -0.125572
v 0.478923 0.130849 0.234726
v 0.478923 0.23857 -0.014353
v 0.478923 0.148993 0.143506
v 0.478923 0.308387 -0.084169
v 0.478923 0.208433 0.234726
v 0.478923 0.25857 0.03393
v 0.478923 0.190288 0.143506
v 0.478923 0.34979 0.015785
v 0.478923 0.308387 0.193323
v 0.478923 0.25857 0.075224
v 0.478923 0.23857 0.123507
v 0.478923 0.34979 0.093369
v 0.478923 0.100711 0.123507
v 0.333389 0.107736 0.06895
v 0.478923 0.080712 0.075224
v 0.333389 0.121657 0.10256
v 0.333389 0.107736 0.040204
v 0.478923 0.148993 0.143506
v 0.478923 0.080712 0.03393
v 0.333389 0.155268 0.116482
v 0.333389 0.121657 0.006594
v 0.478923 0.190288 0.143506
v 0.478923 0.100711 -0.014353
v 0.333389 0.184014 0.116482
v 0.333389 0.155268 -0.007328
v 0.478923 0.23857 0.123507
v 0.478923 0.148993 -0.034352
v 0.333389 0.217624 0.10256
v 0.333389 0.184014 -0.007328
v 0.478923 0.25857 0.075224
v 0.478923 0.190288 -0.034352
v 0.333389 0.231546 0.06895
v 0.333389 0.217624 0.006594
v 0.478923 0.25857 0.03393
v 0.478923 0.23857 -0.014353
v 0.333389 0.231546 0.040204
v -0.478923 0.080712 0.075224
v -0.333389 0.107736 0.06895
v -0.333389 0.121657 0.10256
v -0.478923 0.100711 0.123507
v -0.478923 0.080712 0.03393
v -0.333389 0.155268 0.116482
v -0.333389 0.107736 0.040204
v -0.478923 0.148993 0.143506
v -0.478923 0.100711 -0.014353
v -0.333389 0.184014 0.116482
v -0.333389 0.121657 0.006594
v -0.478923 0.190288 0.143506
v -0.478923 0.148993 -0.034352
v -0.333389 0.217624 0.10256
v -0.333389 0.155268 -0.007328
v -0.478923 0.23857 0.123507
v -0.478923 0.190288 -0.034352
v -0.333389 0.231546 0.06895
v -0.333389 0.184014 -0.007328
v -0.478923 0.25857 0.075224
v -0.478923 0.23857 -0.014353
v -0.333389 0.231546 0.040204
v -0.333389 0.217624 0.006594
v -0.478923 0.25857 0.03393
vt 0.75 0
vt 1 0
vt 1 1
vt 0.75 1
vt 0.5 0
vt 0.5 1
vt 0.25 0
vt 0.25 1
vt 0 0
vt 0 1
vt 1 0.392333
vt 1 0
vt 0 0
vt 0 0.392333
vt 1 0.607667
vt 0 0.607667
vt 1 1
vt 0 1
vt 0 1
vt 0.392333 0
vt 0 0
vt 0.392333 1
vt 0.607667 1
vt 0.607667 0
vt 1 0
vt 1 1
vt 1 0.392333
vt 1 0
vt 0 0
vt 0 0.392333
vt 1 0.607667
vt 0 0.607667
vt 1 1
vt 0 1
vt 0 1
vt 0.392333 0
vt 0 0
vt 0.392333 1
vt 0.607667 1
vt 0.607667 0
vt 1 0
vt 1 1
vt 0.308687 0.691313
vt 0.442694 0.74682
vt 0.557306 0.74682
vt 0.691313 0.691313
vt 0.25318 0.557306
vt 0.74682 0.557306
vt 0.25318 0.442694
vt 0.74682 0.442694
vt 0.308687 0.308687
vt 0.691313 0.308687
vt 0.442694 0.25318
vt 0.557306 0.25318
vt 0.691313 0.308687
vt 0.557306 0.25318
vt 0.442694 0.25318
vt 0.308687 0.308687
vt 0.74682 0.442694
vt 0.25318 0.442694
vt 0.74682 0.557306
vt 0.25318 0.557306
vt 0.691313 0.691313
vt 0.308687 0.691313
vt 0.557306 0.74682
vt 0.442694 0.74682
vt 0.75 0
vt 1 1
vt 1 0
vt 0.75 1
vt 0.5 0
vt 0.5 1
vt 0.25 0
vt 0.25 1
vt 0 0
vt 0 1
vt 0.308687 0.308687
vt 0 0.392333
vt 0.25318 0.442694
vt 0.114912 0.114912
vt 0 0.607667
vt 0.442694 0.25318
vt 0.25318 0.557306
vt 0.392333 0
vt 0.114912 0.885088
vt 0.557306 0.25318
vt 0.308687 0.691313
vt 0.607667 0
vt 0.392333 1
vt 0.691313 0.308687
vt 0.442694 0.74682
vt 0.885088 0.114912
vt 0.607667 1
vt 0.74682 0.442694
vt 0.557306 0.74682
vt 1 0.392333
vt 0.885088 0.885088
vt 0.74682 0.557306
vt 0.691313 0.691313
vt 1 0.607667
vt 0.308687 0.691313
vt 0.392333 1
vt 0.442694 0.74682
vt 0.114912 0.885088
vt 0.607667 1
vt 0.25318 0.557306
vt 0.557306 0.74682
vt 0 0.607667
vt 0.885088 0.885088
vt 0.25318 0.442694
vt 0.691313 0.691313
vt 0 0.392333
vt 1 0.607667
vt 0.308687 0.308687
vt 0.74682 0.557306
vt 0.114912 0.114912
vt 1 0.392333
vt 0.442694 0.25318
vt 0.74682 0.442694
vt 0.392333 0
vt 0.885088 0.114912
vt 0.557306 0.25318
vt 0.691313 0.308687
vt 0.607667 0
vt 0.691313 0.691313
vt 0.557306 0.74682
vt 0.557306 0.74682
vt 0.691313 0.691313
vt 0.442694 0.74682
vt 0.74682 0.557306
vt 0.442694 0.74682
vt 0.74682 0.557306
vt 0.308687 0.691313
vt 0.74682 0.442694
vt 0.308687 0.691313
vt 0.74682 0.442694
vt 0.25318 0.557306
vt 0.691313 0.308687
vt 0.25318 0.557306
vt 0.691313 0.308687
vt 0.25318 0.442694
vt 0.557306 0.25318
vt 0.25318 0.442694
vt 0.557306 0.25318
vt 0.308687 0.308687
vt 0.442694 0.25318
vt 0.308687 0.308687
vt 0.442694 0.25318
vt 0.557306 0.25318
vt 0.557306 0.25318
vt 0.691313 0.308687
vt 0.691313 0.308687
vt 0.442694 0.25318
vt 0.74682 0.442694
vt 0.442694 0.25318
vt 0.74682 0.442694
vt 0.308687 0.308687
vt 0.74682 0.557306
vt 0.308687 0.308687
vt 0.74682 0.557306
vt 0.25318 0.442694
vt 0.691313 0.691313
vt 0.25318 0.442694
vt 0.691313 0.691313
vt 0.25318 0.557306
vt 0.557306 0.74682
vt 0.25318 0.557306
vt 0.557306 0.74682
vt 0.308687 0.691313
vt 0.442694 0.74682
vt 0.308687 0.691313
vt 0.442694 0.74682
vn 0 -0.3225853 0.9465404
vn 0 -0.4416393 0.8971927
vn 0 -0.4416393 0.8971927
vn 0 -0.3225853 0.9465404
vn 0 -0.09426081 0.9955475
vn 0 -0.09426081 0.9955475
vn 0 0.0942608 0.9955475
vn 0 0.0942608 0.9955475
vn 0 0.1860576 0.9825388
vn 0 0.1860576 0.9825388
vn 0 0.2271124 -0.9738686
vn 0 0.7071067 -0.7071068
vn 0 0.7071067 -0.7071068
vn 0 0.2271124 -0.9738686
vn 0 -0.2271124 -0.9738686
vn 0 -0.2271124 -0.9738686
vn 0 -0.7071068 -0.7071068
vn 0 -0.7071068 -0.7071068
vn 0 0.7071067 -0.7071068
vn 0 0.9738686 -0.2271124
vn 0 0.7071067 -0.7071068
vn 0 0.9738686 -0.2271124
vn 0 0.9738686 0.2271124
vn 0 0.9738686 0.2271124
vn 0 0.7071067 0.7071068
vn 0 0.7071067 0.7071068
vn 0 0.2271124 0.9738686
vn 0 0.7071067 0.7071068
vn 0 0.7071067 0.7071068
vn 0 0.2271124 0.9738686
vn 0 -0.2271124 0.9738686
vn 0 -0.2271124 0.9738686
vn 0 -0.7071068 0.7071068
vn 0 -0.7071068 0.7071068
vn 0 -0.7071068 -0.7071068
vn 0 -0.9738686 -0.2271124
vn 0 -0.7071068 -0.7071068
vn 0 -0.9738686 -0.2271124
vn 0 -0.9738686 0.2271124
vn 0 -0.9738686 0.2271124
vn 0 -0.7071068 0.7071068
vn 0 -0.7071068 0.7071068
vn 1 0 0
vn 1 0 0
vn 1 0 0
vn 1 0 0
vn 1 0 0
vn 1 0 0
vn 1 0 0
vn 1 0 0
vn 1 0 0
vn 1 0 0
vn 1 0 0
vn 1 0 0
vn -1 0 0
vn -1 0 0
vn -1 0 0
vn -1 0 0
vn -1 0 0
vn -1 0 0
vn -1 0 0
vn -1 0 0
vn -1 0 0
vn -1 0 0
vn -1 0 0
vn -1 0 0
vn 0 0.3225853 -0.9465404
vn 0 0.4416393 -0.8971927
vn 0 0.4416393 -0.8971927
vn 0 0.3225853 -0.9465404
vn 0 0.09426081 -0.9955475
vn 0 0.09426081 -0.9955475
vn 0 -0.0942608 -0.9955475
vn 0 -0.0942608 -0.9955475
vn 0 -0.1860576 -0.9825388
vn 0 -0.1860576 -0.9825388
vn -1 0 0
vn -1 0 0
vn -1 0 0
vn -1 0 0
vn -1 0 0
vn -1 0 0
vn -1 0 0
vn -1 0 0
vn -1 0 0
vn -1 0 0
vn -1 0 0
vn -1 0 0
vn -1 0 0
vn -1 0 0
vn -1 0 0
vn -1 0 0
vn -1 0 0
vn -1 0 0
vn -1 0 0
vn -1 0 0
vn -1 0 0
vn -1 0 0
vn -1 0 0
vn -1 0 0
vn 1 0 0
vn 1 0 0
vn 1 0 0
vn 1 0 0
vn 1 0 0
vn 1 0 0
vn 1 0 0
vn 1 0 0
vn 1 0 0
vn 1 0 0
vn 1 0 0
vn 1 0 0
vn 1 0 0
vn 1 0 0
vn 1 0 0
vn 1 0 0
vn 1 0 0
vn 1 0 0
vn 1 0 0
vn 1 0 0
vn 1 0 0
vn 1 0 0
vn 1 0 0
vn 1 0 0
vn 0.1994568 0.6929007 -0.6928966
vn 0.1872469 0.958863 -0.2133549
vn 0.1872491 0.9585504 -0.2147531
vn 0.1994568 0.6929027 -0.6928946
vn 0.1872469 0.958863 0.213355
vn 0.1872512 0.2147584 -0.9585487
vn 0.1872491 0.9585504 0.2147531
vn 0.187249 0.2133588 -0.9588616
vn 0.1994568 0.6929027 0.6928946
vn 0.1872506 -0.214759 -0.9585487
vn 0.1994568 0.6929007 0.6928967
vn 0.1872484 -0.2133611 -0.9588614
vn 0.1872489 0.2133588 0.9588618
vn 0.1994555 -0.6928983 -0.6928993
vn 0.1872511 0.2147584 0.9585488
vn 0.1994555 -0.6928997 -0.6928979
vn 0.1872483 -0.2133611 0.9588614
vn 0.1872497 -0.9585477 -0.2147648
vn 0.1872506 -0.214759 0.9585487
vn 0.1872475 -0.9588602 -0.213367
vn 0.1994554 -0.6928997 0.6928979
vn 0.1872497 -0.9585477 0.2147648
vn 0.1994554 -0.6928983 0.6928993
vn 0.1872475 -0.9588602 0.213367
vn -0.1872491 0.9585504 -0.2147532
vn -0.1872469 0.958863 -0.2133549
vn -0.1994568 0.6929026 -0.6928946
vn -0.1994568 0.6929007 -0.6928967
vn -0.1872491 0.9585504 0.2147531
vn -0.187249 0.2133588 -0.9588616
vn -0.1872469 0.958863 0.213355
vn -0.1872512 0.2147584 -0.9585487
vn -0.1994568 0.6929007 0.6928967
vn -0.1872484 -0.2133611 -0.9588614
vn -0.1994568 0.6929027 0.6928946
vn -0.1872506 -0.214759 -0.9585487
vn -0.1872511 0.2147584 0.9585488
vn -0.1994555 -0.6928996 -0.692898
vn -0.1872489 0.2133588 0.9588618
vn -0.1994555 -0.6928982 -0.6928993
vn -0.1872506 -0.214759 0.9585487
vn -0.1872475 -0.9588602 -0.2133671
vn -0.1872484 -0.2133611 0.9588614
vn -0.1872497 -0.9585477 -0.2147649
vn -0.1994554 -0.6928983 0.6928993
vn -0.1872475 -0.9588602 0.213367
vn -0.1994555 -0.6928997 0.6928979
vn -0.1872497 -0.9585477 0.2147648
g CarpetRoll_0
f 3/3/3 2/2/2 1/1/1
f 4/4/4 3/3/3 1/1/1
f 4/4/4 1/1/1 5/5/5
f 6/6/6 4/4/4 5/5/5
f 6/6/6 5/5/5 7/7/7
f 8/8/8 6/6/6 7/7/7
f 8/8/8 7/7/7 9/9/9
f 10/10/10 8/8/8 9/9/9
f 13/13/13 12/12/12 11/11/11
f 14/14/14 13/13/13 11/11/11
f 11/11/11 15/15/15 14/14/14
f 15/15/15 16/16/16 14/14/14
f 15/15/15 17/17/17 16/16/16
f 17/17/17 18/18/18 16/16/16
f 21/21/21 20/20/20 19/19/19
f 20/20/20 22/22/22 19/19/19
f 23/23/23 22/22/22 20/20/20
f 24/24/24 23/23/23 20/20/20
f 23/23/23 24/24/24 25/25/25
f 26/26/26 23/23/23 25/25/25
f 29/29/29 28/28/28 27/27/27
f 30/30/30 29/29/29 27/27/27
f 27/27/27 31/31/31 30/30/30
f 31/31/31 32/32/32 30/30/30
f 31/31/31 33/33/33 32/32/32
f 33/33/33 34/34/34 32/32/32
f 37/37/37 36/36/36 35/35/35
f 36/36/36 38/38/38 35/35/35
f 39/39/39 38/38/38 36/36/36
f 40/40/40 39/39/39 36/36/36
f 39/39/39 40/40/40 41/41/41
f 42/42/42 39/39/39 41/41/41
f 45/45/45 44/44/44 43/43/43
f 43/43/43 46/46/46 45/45/45
f 43/43/43 47/47/47 46/46/46
f 47/47/47 48/48/48 46/46/46
f 47/47/47 49/49/49 48/48/48
f 49/49/49 50/50/50 48/48/48
f 49/49/49 51/51/51 50/50/50
f 51/51/51 52/52/52 50/50/50
f 51/51/51 53/53/53 52/52/52
f 53/53/53 54/54/54 52/52/52
f 57/57/57 56/56/56 55/55/55
f 55/55/55 58/58/58 57/57/57
f 55/55/55 59/59/59 58/58/58
f 59/59/59 60/60/60 58/58/58
f 59/59/59 61/61/61 60/60/60
f 61/61/61 62/62/62 60/60/60
f 61/61/61 63/63/63 62/62/62
f 63/63/63 64/64/64 62/62/62
f 63/63/63 65/65/65 64/64/64
f 65/65/65 66/66/66 64/64/64
f 69/69/69 68/68/68 67/67/67
f 68/68/68 70/70/70 67/67/67
f 67/67/67 70/70/70 71/71/71
f 70/70/70 72/72/72 71/71/71
f 71/71/71 72/72/72 73/73/73
f 72/72/72 74/74/74 73/73/73
f 73/73/73 74/74/74 75/75/75
f 74/74/74 76/76/76 75/75/75
f 79/79/79 78/78/78 77/77/77
f 78/78/78 80/80/80 77/77/77
f 81/81/81 78/78/78 79/79/79
f 77/77/77 80/80/80 82/82/82
f 83/83/83 81/81/81 79/79/79
f 80/80/80 84/84/84 82/82/82
f 85/85/85 81/81/81 83/83/83
f 82/82/82 84/84/84 86/86/86
f 87/87/87 85/85/85 83/83/83
f 84/84/84 88/88/88 86/86/86
f 89/89/89 85/85/85 87/87/87
f 86/86/86 88/88/88 90/90/90
f 91/91/91 89/89/89 87/87/87
f 88/88/88 92/92/92 90/90/90
f 93/93/93 89/89/89 91/91/91
f 90/90/90 92/92/92 94/94/94
f 95/95/95 93/93/93 91/91/91
f 92/92/92 96/96/96 94/94/94
f 97/97/97 93/93/93 95/95/95
f 94/94/94 96/96/96 98/98/98
f 99/99/99 97/97/97 95/95/95
f 96/96/96 100/100/100 98/98/98
f 100/100/100 97/97/97 99/99/99
f 98/98/98 100/100/100 99/99/99
f 103/103/103 102/102/102 101/101/101
f 102/102/102 104/104/104 101/101/101
f 105/105/105 102/102/102 103/103/103
f 101/101/101 104/104/104 106/106/106
f 107/107/107 105/105/105 103/103/103
f 104/104/104 108/108/108 106/106/106
f 109/109/109 105/105/105 107/107/107
f 106/106/106 108/108/108 110/110/110
f 111/111/111 109/109/109 107/107/107
f 108/108/108 112/112/112 110/110/110
f 113/113/113 109/109/109 111/111/111
f 110/110/110 112/112/112 114/114/114
f 115/115/115 113/113/113 111/111/111
f 112/112/112 116/116/116 114/114/114
f 117/117/117 113/113/113 115/115/115
f 114/114/114 116/116/116 118/118/118
f 119/119/119 117/117/117 115/115/115
f 116/116/116 120/120/120 118/118/118
f 121/121/121 117/117/117 119/119/119
f 118/118/118 120/120/120 122/122/122
f 123/123/123 121/121/121 119/119/119
f 120/120/120 124/124/124 122/122/122
f 124/124/124 121/121/121 123/123/123
f 122/122/122 124/124/124 123/123/123
f 127/127/127 126/126/126 125/125/125
f 126/126/126 128/128/128 125/125/125
f 129/129/129 126/126/126 127/127/127
f 125/125/125 128/128/128 130/130/130
f 131/131/131 129/129/129 127/127/127
f 128/128/128 132/132/132 130/130/130
f 133/133/133 129/129/129 131/131/131
f 130/130/130 132/132/132 134/134/134
f 135/135/135 133/133/133 131/131/131
f 132/132/132 136/136/136 134/134/134
f 137/137/137 133/133/133 135/135/135
f 134/134/134 136/136/136 138/138/138
f 139/139/139 137/137/137 135/135/135
f 136/136/136 140/140/140 138/138/138
f 141/141/141 137/137/137 139/139/139
f 138/138/138 140/140/140 142/142/142
f 143/143/143 141/141/141 139/139/139
f 140/140/140 144/144/144 142/142/142
f 145/145/145 141/141/141 143/143/143
f 142/142/142 144/144/144 146/146/146
f 147/147/147 145/145/145 143/143/143
f 144/144/144 148/148/148 146/146/146
f 148/148/148 145/145/145 147/147/147
f 146/146/146 148/148/148 147/147/147
f 151/151/151 150/150/150 149/149/149
f 152/152/152 151/151/151 149/149/149
f 149/149/149 150/150/150 153/153/153
f 154/154/154 151/151/151 152/152/152
f 150/150/150 155/155/155 153/153/153
f 156/156/156 154/154/154 152/152/152
f 153/153/153 155/155/155 157/157/157
f 158/158/158 154/154/154 156/156/156
f 155/155/155 159/159/159 157/157/157
f 160/160/160 158/158/158 156/156/156
f 157/157/157 159/159/159 161/161/161
f 162/162/162 158/158/158 160/160/160
f 159/159/159 163/163/163 161/161/161
f 164/164/164 162/162/162 160/160/160
f 161/161/161 163/163/163 165/165/165
f 166/166/166 162/162/162 164/164/164
f 163/163/163 167/167/167 165/165/165
f 168/168/168 166/166/166 164/164/164
f 165/165/165 167/167/167 169/169/169
f 170/170/170 166/166/166 168/168/168
f 167/167/167 171/171/171 169/169/169
f 172/172/172 170/170/170 168/168/168
f 169/169/169 171/171/171 172/172/172
f 171/171/171 170/170/170 172/172/172
