g Carrot
v -0.096891 0 -0.309042
v -0.088837 -0.088837 0.032564
v -0.072668 -0.072668 -0.309042
v 0 -0.096891 -0.309042
v -0.046371 -0.046371 -0.554356
v -0.118449 0 0.032564
v -0.088837 0.088837 0.032564
v -0.116013 0 0.17425
v 0 -0.118449 0.032564
v 0 -0.116013 0.17425
v 0.088837 -0.088837 0.032564
v -0.08701 -0.08701 0.17425
v -0.061244 -0.061244 0.197432
v -0.05589 0 -0.640215
v 0 0 -0.750607
v -0.046371 0.046371 -0.554356
v -0.072668 0.072668 -0.309042
v 0 0.096891 -0.309042
v 0 -0.05589 -0.640215
v 0.046371 -0.046371 -0.554356
v 0 0.05589 -0.640215
v 0.046371 0.046371 -0.554356
v 0.072668 -0.072668 -0.309042
v 0.096891 0 -0.309042
v 0.05589 0 -0.640215
v 0.072668 0.072668 -0.309042
v 0.088837 0.088837 0.032564
v 0.118449 0 0.032564
v 0.116013 0 0.17425
v 0 0.118449 0.032564
v 0 0.116013 0.17425
v 0.08701 -0.08701 0.17425
v 0.061244 -0.061244 0.197432
v 0.08701 0.08701 0.17425
v 0.061244 0.061244 0.197432
v -0.08701 0.08701 0.17425
v -0.061244 0.061244 0.197432
v 0 -0.079793 0.205546
v 0 0 0.215978
v 0.079793 0 0.205546
v 0 0.079793 0.205546
v -0.079793 0 0.205546
vn -0.9960505 0 -0.08878752
vn -0.7065366 -0.7065366 -0.04015089
vn -0.7040728 -0.7040728 -0.09253699
vn 0 -0.9960505 -0.08878751
vn -0.6991951 -0.6991951 -0.1491721
vn -0.99928 0 -0.03793907
vn -0.7065366 0.7065367 -0.04015088
vn -0.9857395 0 0.1682782
vn 0 -0.99928 -0.03793907
vn 0 -0.9857395 0.1682782
vn 0.7065366 -0.7065367 -0.04015089
vn -0.6977684 -0.6977684 0.1619825
vn -0.3073426 -0.3073426 0.9006003
vn -0.9481178 0 -0.3179193
vn 0 0 -1
vn -0.6991951 0.6991951 -0.1491721
vn -0.7040728 0.7040728 -0.09253699
vn 0 0.9960505 -0.08878751
vn 0 -0.9481178 -0.3179193
vn 0.6991951 -0.6991951 -0.1491721
vn 0 0.9481178 -0.3179194
vn 0.6991951 0.6991951 -0.1491721
vn 0.7040728 -0.7040728 -0.09253699
vn 0.9960505 0 -0.08878752
vn 0.9481178 0 -0.3179194
vn 0.7040728 0.7040728 -0.09253699
vn 0.7065367 0.7065366 -0.04015088
vn 0.99928 0 -0.03793907
vn 0.9857395 0 0.1682782
vn 0 0.99928 -0.03793906
vn 0 0.9857395 0.1682782
vn 0.6977684 -0.6977684 0.1619825
vn 0.3073426 -0.3073426 0.9006003
vn 0.6977684 0.6977684 0.1619825
vn 0.3073426 0.3073426 0.9006003
vn -0.6977684 0.6977684 0.1619825
vn -0.3073426 0.3073426 0.9006003
vn 0 -0.3715132 0.9284277
vn 0 0 1
vn 0.3715132 0 0.9284277
vn 0 0.3715132 0.9284277
vn -0.3715132 0 0.9284277
g Carrot_0
f 3/3/3 2/2/2 1/1/1
f 2/2/2 3/3/3 4/4/4
f 5/5/5 3/3/3 1/1/1
f 3/3/3 5/5/5 4/4/4
f 2/2/2 6/6/6 1/1/1
f 6/6/6 7/7/7 1/1/1
f 6/6/6 2/2/2 8/8/8
f 7/7/7 6/6/6 8/8/8
f 9/9/9 2/2/2 4/4/4
f 2/2/2 9/9/9 10/10/10
f 11/11/11 9/9/9 4/4/4
f 9/9/9 11/11/11 10/10/10
f 2/2/2 12/12/12 8/8/8
f 12/12/12 2/2/2 10/10/10
f 12/12/12 13/13/13 8/8/8
f 13/13/13 12/12/12 10/10/10
f 14/14/14 5/5/5 1/1/1
f 5/5/5 14/14/14 15/15/15
f 16/16/16 14/14/14 1/1/1
f 14/14/14 16/16/16 15/15/15
f 7/7/7 17/17/17 1/1/1
f 17/17/17 16/16/16 1/1/1
f 16/16/16 17/17/17 18/18/18
f 17/17/17 7/7/7 18/18/18
f 5/5/5 19/19/19 4/4/4
f 19/19/19 5/5/5 15/15/15
f 19/19/19 20/20/20 4/4/4
f 20/20/20 19/19/19 15/15/15
f 21/21/21 16/16/16 18/18/18
f 16/16/16 21/21/21 15/15/15
f 21/21/21 22/22/22 15/15/15
f 22/22/22 21/21/21 18/18/18
f 20/20/20 23/23/23 4/4/4
f 23/23/23 20/20/20 24/24/24
f 23/23/23 11/11/11 4/4/4
f 11/11/11 23/23/23 24/24/24
f 25/25/25 20/20/20 15/15/15
f 22/22/22 25/25/25 15/15/15
f 20/20/20 25/25/25 24/24/24
f 25/25/25 22/22/22 24/24/24
f 26/26/26 22/22/22 18/18/18
f 22/22/22 26/26/26 24/24/24
f 27/27/27 26/26/26 18/18/18
f 26/26/26 27/27/27 24/24/24
f 28/28/28 11/11/11 24/24/24
f 27/27/27 28/28/28 24/24/24
f 11/11/11 28/28/28 29/29/29
f 28/28/28 27/27/27 29/29/29
f 30/30/30 27/27/27 18/18/18
f 27/27/27 30/30/30 31/31/31
f 7/7/7 30/30/30 18/18/18
f 30/30/30 7/7/7 31/31/31
f 32/32/32 11/11/11 29/29/29
f 11/11/11 32/32/32 10/10/10
f 32/32/32 33/33/33 10/10/10
f 33/33/33 32/32/32 29/29/29
f 27/27/27 34/34/34 29/29/29
f 34/34/34 27/27/27 31/31/31
f 34/34/34 35/35/35 29/29/29
f 35/35/35 34/34/34 31/31/31
f 7/7/7 36/36/36 31/31/31
f 36/36/36 7/7/7 8/8/8
f 36/36/36 37/37/37 31/31/31
f 37/37/37 36/36/36 8/8/8
f 33/33/33 38/38/38 10/10/10
f 38/38/38 33/33/33 39/39/39
f 38/38/38 13/13/13 10/10/10
f 13/13/13 38/38/38 39/39/39
f 40/40/40 33/33/33 29/29/29
f 35/35/35 40/40/40 29/29/29
f 33/33/33 40/40/40 39/39/39
f 40/40/40 35/35/35 39/39/39
f 41/41/41 35/35/35 31/31/31
f 37/37/37 41/41/41 31/31/31
f 35/35/35 41/41/41 39/39/39
f 41/41/41 37/37/37 39/39/39
f 13/13/13 42/42/42 8/8/8
f 42/42/42 13/13/13 39/39/39
f 37/37/37 42/42/42 39/39/39
f 42/42/42 37/37/37 8/8/8
