g CementFencePost
v 0.212291 0.25148 0.992692
v 0.257563 0.296752 1.031469
v -0.257563 0.296752 1.031469
v -0.212291 0.25148 0.992692
v -0.25148 -0.212291 0
v -0.25148 0.212291 0
v -0.25148 0.212291 0.992692
v -0.25148 -0.212291 0.992692
v -0.212291 0.25148 0
v 0.212291 0.25148 0
v 0.212291 0.25148 0.992692
v -0.212291 0.25148 0.992692
v -0.25148 0.212291 0
v -0.25148 0.212291 0.992692
v -0.314017 0.274829 1.246852
v -0.354697 0.315508 1.27684
v -0.354697 -0.315508 1.27684
v -0.314017 -0.274829 1.246852
v 0.25148 0.212291 0
v 0.25148 -0.212291 0
v 0.25148 -0.212291 0.992692
v 0.25148 0.212291 0.992692
v 0.212291 0.25148 0
v 0.212291 0.25148 0.992692
v -0.296752 0.257563 1.031469
v -0.314017 0.274829 1.246852
v -0.314017 -0.274829 1.246852
v -0.296752 -0.257563 1.031469
v -0.212291 -0.25148 0.992692
v -0.257563 -0.296752 1.031469
v 0.257563 -0.296752 1.031469
v 0.212291 -0.25148 0.992692
v 0.296752 -0.257563 1.031469
v 0.314017 -0.274829 1.246852
v 0.314017 0.274829 1.246852
v 0.296752 0.257563 1.031469
v 0.354697 0.315508 1.438352
v 0.315508 0.354697 1.438352
v 0.315508 0.354697 1.27684
v 0.354697 0.315508 1.27684
v 0.354697 -0.315508 1.27684
v 0.354697 -0.315508 1.438352
v 0.315508 -0.354697 1.438352
v 0.315508 -0.354697 1.27684
v 0.314017 -0.274829 1.246852
v 0.354697 -0.315508 1.27684
v 0.354697 0.315508 1.27684
v 0.314017 0.274829 1.246852
v -0.315508 -0.354697 1.27684
v -0.315508 -0.354697 1.438352
v 0.315508 -0.354697 1.438352
v 0.315508 -0.354697 1.27684
v -0.354697 0.315508 1.27684
v -0.315508 0.354697 1.27684
v -0.315508 0.354697 1.438352
v -0.354697 0.315508 1.438352
v -0.354697 -0.315508 1.438352
v -0.354697 -0.315508 1.27684
v -0.315508 -0.354697 1.27684
v -0.315508 -0.354697 1.438352
v -0.212291 -0.25148 0
v -0.25148 -0.212291 0
v -0.25148 -0.212291 0.992692
v -0.212291 -0.25148 0.992692
v 0.212291 -0.25148 0
v 0.212291 -0.25148 0.992692
v 0.25148 -0.212291 0
v 0.25148 -0.212291 0.992692
v 0.25148 -0.212291 0.992692
v 0.212291 -0.25148 0.992692
v 0.257563 -0.296752 1.031469
v 0.296752 -0.257563 1.031469
v 0.296752 0.257563 1.031469
v 0.25148 0.212291 0.992692
v 0.212291 0.25148 0.992692
v 0.257563 0.296752 1.031469
v -0.296752 -0.257563 1.031469
v -0.257563 -0.296752 1.031469
v -0.212291 -0.25148 0.992692
v -0.25148 -0.212291 0.992692
v -0.25148 0.212291 0.992692
v -0.296752 0.257563 1.031469
v -0.257563 0.296752 1.031469
v -0.212291 0.25148 0.992692
v 0.257563 0.296752 1.031469
v 0.296752 0.257563 1.031469
v 0.314017 0.274829 1.246852
v 0.274829 0.314017 1.246852
v -0.274829 0.314017 1.246852
v -0.257563 0.296752 1.031469
v -0.296752 0.257563 1.031469
v -0.314017 0.274829 1.246852
v 0.274829 -0.314017 1.246852
v 0.314017 -0.274829 1.246852
v 0.296752 -0.257563 1.031469
v 0.257563 -0.296752 1.031469
v -0.257563 -0.296752 1.031469
v -0.274829 -0.314017 1.246852
v -0.314017 -0.274829 1.246852
v -0.296752 -0.257563 1.031469
v 0.274829 0.314017 1.246852
v 0.314017 0.274829 1.246852
v 0.354697 0.315508 1.27684
v 0.315508 0.354697 1.27684
v -0.315508 0.354697 1.27684
v -0.274829 0.314017 1.246852
v -0.314017 0.274829 1.246852
v -0.354697 0.315508 1.27684
v 0.315508 -0.354697 1.27684
v 0.354697 -0.315508 1.27684
v 0.314017 -0.274829 1.246852
v 0.274829 -0.314017 1.246852
v -0.274829 -0.314017 1.246852
v -0.315508 -0.354697 1.27684
v -0.354697 -0.315508 1.27684
v -0.314017 -0.274829 1.246852
v 0.315508 0.354697 1.27684
v 0.315508 0.354697 1.438352
v -0.315508 0.354697 1.438352
v -0.315508 0.354697 1.27684
v 0.212291 -0.25148 0
v 0.25148 -0.212291 0
v 0.25148 0.212291 0
v 0.212291 0.25148 0
v -0.212291 -0.25148 0
v -0.212291 0.25148 0
v -0.25148 -0.212291 0
v -0.25148 0.212291 0
v 0.338207 -0.308678 1.454841
v 0.354697 -0.315508 1.438352
v 0.315508 -0.354697 1.438352
v 0.308678 -0.338207 1.454841
v -0.315508 -0.354697 1.438352
v 0.338207 0.308678 1.454841
v 0.354697 0.315508 1.438352
v 0.308678 0.338207 1.454841
v 0.315508 0.354697 1.438352
v -0.308678 0.338207 1.454841
v -0.315508 0.354697 1.438352
v -0.308678 -0.338207 1.454841
v -0.354697 -0.315508 1.438352
v -0.338207 0.308678 1.454841
v -0.354697 0.315508 1.438352
v -0.338207 -0.308678 1.454841
vt 0.767526 0.748047
vt 0.764554 0.998047
vt 0.981539 0.998047
vt 0.978568 0.748047
vt 0.748047 0.767526
vt 0.748047 0.978568
vt 0.998047 0.978568
vt 0.998047 0.767526
vt 0.748047 0.767526
vt 0.748047 0.978568
vt 0.998047 0.978568
vt 0.998047 0.767526
vt 0.748047 0.748047
vt 0.998047 0.748047
vt 0.763647 0.748047
vt 0.761858 0.998047
vt 0.984236 0.998047
vt 0.982447 0.748047
vt 0.748047 0.767526
vt 0.748047 0.978568
vt 0.998047 0.978568
vt 0.998047 0.767526
vt 0.748047 0.748047
vt 0.998047 0.748047
vt 0.764554 0.748047
vt 0.763647 0.998047
vt 0.982447 0.998047
vt 0.981539 0.748047
vt 0.767526 0.748047
vt 0.764554 0.998047
vt 0.981539 0.998047
vt 0.978568 0.748047
vt 0.764554 0.748047
vt 0.763647 0.998047
vt 0.982447 0.998047
vt 0.981539 0.748047
vt 0.984236 0.974888
vt 0.998047 0.974888
vt 0.998047 0.748047
vt 0.984236 0.748047
vt 0.761858 0.748047
vt 0.761858 0.974888
vt 0.748047 0.974888
vt 0.748047 0.748047
vt 0.763647 0.748047
vt 0.761858 0.998047
vt 0.984236 0.998047
vt 0.982447 0.748047
vt 0.761858 0.748047
vt 0.761858 0.974888
vt 0.984236 0.974888
vt 0.984236 0.748047
vt 0.761858 0.748047
vt 0.748047 0.748047
vt 0.748047 0.974888
vt 0.761858 0.974888
vt 0.984236 0.974888
vt 0.984236 0.748047
vt 0.998047 0.748047
vt 0.998047 0.974888
vt 0.748047 0.978568
vt 0.748047 0.998047
vt 0.998047 0.998047
vt 0.998047 0.978568
vt 0.748047 0.767526
vt 0.998047 0.767526
vt 0.748047 0.748047
vt 0.998047 0.748047
vt 0.767526 0.748047
vt 0.748047 0.748047
vt 0.748047 0.918883
vt 0.764554 0.998047
vt 0.981539 0.998047
vt 0.978568 0.748047
vt 0.998047 0.748047
vt 0.998047 0.918883
vt 0.981539 0.998047
vt 0.998047 0.918883
vt 0.998047 0.748047
vt 0.978568 0.748047
vt 0.767526 0.748047
vt 0.764554 0.998047
vt 0.748047 0.918883
vt 0.748047 0.748047
vt 0.764554 0.748047
vt 0.748047 0.748047
vt 0.748047 0.994447
vt 0.763647 0.998047
vt 0.982447 0.998047
vt 0.981539 0.748047
vt 0.998047 0.748047
vt 0.998047 0.994447
vt 0.982447 0.998047
vt 0.998047 0.994447
vt 0.998047 0.748047
vt 0.981539 0.748047
vt 0.764554 0.748047
vt 0.763647 0.998047
vt 0.748047 0.994447
vt 0.748047 0.748047
vt 0.763647 0.748047
vt 0.748047 0.748047
vt 0.748047 0.903356
vt 0.761858 0.998047
vt 0.984236 0.998047
vt 0.982447 0.748047
vt 0.998047 0.748047
vt 0.998047 0.903356
vt 0.984236 0.998047
vt 0.998047 0.903356
vt 0.998047 0.748047
vt 0.982447 0.748047
vt 0.763647 0.748047
vt 0.761858 0.998047
vt 0.748047 0.903356
vt 0.748047 0.748047
vt 0.761858 0.748047
vt 0.761858 0.974888
vt 0.984236 0.974888
vt 0.984236 0.748047
vt 0.978568 0.998047
vt 0.998047 0.978568
vt 0.998047 0.767526
vt 0.978568 0.748047
vt 0.767526 0.998047
vt 0.767526 0.748047
vt 0.748047 0.978568
vt 0.748047 0.767526
vt 0.753858 0.981829
vt 0.748047 0.984236
vt 0.761858 0.998047
vt 0.764265 0.992236
vt 0.984236 0.998047
vt 0.753858 0.764265
vt 0.748047 0.761858
vt 0.764265 0.753858
vt 0.761858 0.748047
vt 0.981829 0.753858
vt 0.984236 0.748047
vt 0.981829 0.992236
vt 0.998047 0.984236
vt 0.992236 0.764265
vt 0.998047 0.761858
vt 0.992236 0.981829
vn 0.08241354 0.9942389 -0.06853577
vn 0.06914582 0.9797925 -0.1876849
vn -0.06914582 0.9797925 -0.187685
vn -0.08241354 0.9942389 -0.06853577
vn -0.9964488 -0.08420069 0
vn -0.9964488 0.08420069 0
vn -0.9942389 0.08241354 -0.06853576
vn -0.9942389 -0.08241354 -0.06853576
vn -0.08420069 0.9964488 0
vn 0.08420069 0.9964488 0
vn 0.08241354 0.9942389 -0.06853577
vn -0.08241354 0.9942389 -0.06853577
vn -0.9964488 0.08420069 0
vn -0.9942389 0.08241354 -0.06853576
vn -0.9473529 0.06334662 -0.3138626
vn -0.9883024 0.06207306 -0.1393035
vn -0.9883024 -0.06207306 -0.1393035
vn -0.9473529 -0.06334663 -0.3138626
vn 0.9964488 0.08420069 0
vn 0.9964488 -0.08420069 0
vn 0.9942389 -0.08241354 -0.06853576
vn 0.9942389 0.08241354 -0.06853576
vn 0.08420069 0.9964488 0
vn 0.08241354 0.9942389 -0.06853577
vn -0.9797925 0.06914582 -0.1876849
vn -0.9473529 0.06334662 -0.3138626
vn -0.9473529 -0.06334663 -0.3138626
vn -0.9797925 -0.06914582 -0.1876849
vn -0.08241354 -0.9942389 -0.06853577
vn -0.06914582 -0.9797925 -0.1876849
vn 0.06914582 -0.9797925 -0.187685
vn 0.08241354 -0.9942389 -0.06853577
vn 0.9797925 -0.06914582 -0.1876849
vn 0.9473529 -0.06334663 -0.3138626
vn 0.9473529 0.06334662 -0.3138626
vn 0.9797925 0.06914582 -0.1876849
vn 0.9953454 0.05772509 0.07717139
vn 0.05772509 0.9953454 0.07717139
vn 0.06207306 0.9883024 -0.1393035
vn 0.9883024 0.06207306 -0.1393035
vn 0.9883024 -0.06207306 -0.1393035
vn 0.9953454 -0.05772509 0.07717139
vn 0.05772508 -0.9953454 0.07717139
vn 0.06207306 -0.9883024 -0.1393035
vn 0.9473529 -0.06334663 -0.3138626
vn 0.9883024 -0.06207306 -0.1393035
vn 0.9883024 0.06207306 -0.1393035
vn 0.9473529 0.06334662 -0.3138626
vn -0.06207306 -0.9883024 -0.1393034
vn -0.05772509 -0.9953454 0.07717139
vn 0.05772508 -0.9953454 0.07717139
vn 0.06207306 -0.9883024 -0.1393035
vn -0.9883024 0.06207306 -0.1393035
vn -0.06207306 0.9883024 -0.1393034
vn -0.05772509 0.9953454 0.07717139
vn -0.9953454 0.05772509 0.07717139
vn -0.9953454 -0.05772509 0.07717139
vn -0.9883024 -0.06207306 -0.1393035
vn -0.06207306 -0.9883024 -0.1393034
vn -0.05772509 -0.9953454 0.07717139
vn -0.08420069 -0.9964488 0
vn -0.9964488 -0.08420069 0
vn -0.9942389 -0.08241354 -0.06853576
vn -0.08241354 -0.9942389 -0.06853577
vn 0.08420069 -0.9964488 0
vn 0.08241354 -0.9942389 -0.06853577
vn 0.9964488 -0.08420069 0
vn 0.9942389 -0.08241354 -0.06853576
vn 0.9942389 -0.08241354 -0.06853576
vn 0.08241354 -0.9942389 -0.06853577
vn 0.06914582 -0.9797925 -0.187685
vn 0.9797925 -0.06914582 -0.1876849
vn 0.9797925 0.06914582 -0.1876849
vn 0.9942389 0.08241354 -0.06853576
vn 0.08241354 0.9942389 -0.06853577
vn 0.06914582 0.9797925 -0.1876849
vn -0.9797925 -0.06914582 -0.1876849
vn -0.06914582 -0.9797925 -0.1876849
vn -0.08241354 -0.9942389 -0.06853577
vn -0.9942389 -0.08241354 -0.06853576
vn -0.9942389 0.08241354 -0.06853576
vn -0.9797925 0.06914582 -0.1876849
vn -0.06914582 0.9797925 -0.187685
vn -0.08241354 0.9942389 -0.06853577
vn 0.06914582 0.9797925 -0.1876849
vn 0.9797925 0.06914582 -0.1876849
vn 0.9473529 0.06334662 -0.3138626
vn 0.06334663 0.9473529 -0.3138626
vn -0.06334663 0.9473529 -0.3138626
vn -0.06914582 0.9797925 -0.187685
vn -0.9797925 0.06914582 -0.1876849
vn -0.9473529 0.06334662 -0.3138626
vn 0.06334662 -0.9473529 -0.3138626
vn 0.9473529 -0.06334663 -0.3138626
vn 0.9797925 -0.06914582 -0.1876849
vn 0.06914582 -0.9797925 -0.187685
vn -0.06914582 -0.9797925 -0.1876849
vn -0.06334662 -0.9473529 -0.3138626
vn -0.9473529 -0.06334663 -0.3138626
vn -0.9797925 -0.06914582 -0.1876849
vn 0.06334663 0.9473529 -0.3138626
vn 0.9473529 0.06334662 -0.3138626
vn 0.9883024 0.06207306 -0.1393035
vn 0.06207306 0.9883024 -0.1393035
vn -0.06207306 0.9883024 -0.1393034
vn -0.06334663 0.9473529 -0.3138626
vn -0.9473529 0.06334662 -0.3138626
vn -0.9883024 0.06207306 -0.1393035
vn 0.06207306 -0.9883024 -0.1393035
vn 0.9883024 -0.06207306 -0.1393035
vn 0.9473529 -0.06334663 -0.3138626
vn 0.06334662 -0.9473529 -0.3138626
vn -0.06334662 -0.9473529 -0.3138626
vn -0.06207306 -0.9883024 -0.1393034
vn -0.9883024 -0.06207306 -0.1393035
vn -0.9473529 -0.06334663 -0.3138626
vn 0.06207306 0.9883024 -0.1393035
vn 0.05772509 0.9953454 0.07717139
vn -0.05772509 0.9953454 0.07717139
vn -0.06207306 0.9883024 -0.1393034
vn 0 0 -1
vn 0 0 -1
vn 0 0 -1
vn 0 0 -1
vn 0 0 -1
vn 0 0 -1
vn 0 0 -1
vn 0 0 -1
vn 0.4156703 -0.02168752 0.9092568
vn 0.9953454 -0.05772509 0.07717139
vn 0.05772508 -0.9953454 0.07717139
vn 0.002945201 -0.05644872 0.9984011
vn -0.05772509 -0.9953454 0.07717139
vn 0.4319249 0.02253561 0.901628
vn 0.9953454 0.05772509 0.07717139
vn 0.002950525 0.05655074 0.9983954
vn 0.05772509 0.9953454 0.07717139
vn -0.002945202 0.05644872 0.9984011
vn -0.05772509 0.9953454 0.07717139
vn -0.002950525 -0.05655074 0.9983954
vn -0.9953454 -0.05772509 0.07717139
vn -0.4156704 0.02168753 0.9092568
vn -0.9953454 0.05772509 0.07717139
vn -0.4319249 -0.02253561 0.901628
g CementFencePost_0
f 3/3/3 2/2/2 1/1/1
f 4/4/4 3/3/3 1/1/1
f 7/7/7 6/6/6 5/5/5
f 8/8/8 7/7/7 5/5/5
f 11/11/11 10/10/10 9/9/9
f 12/12/12 11/11/11 9/9/9
f 9/9/9 13/13/13 12/12/12
f 13/13/13 14/14/14 12/12/12
f 17/17/17 16/16/16 15/15/15
f 18/18/18 17/17/17 15/15/15
f 21/21/21 20/20/20 19/19/19
f 22/22/22 21/21/21 19/19/19
f 19/19/19 23/23/23 22/22/22
f 23/23/23 24/24/24 22/22/22
f 27/27/27 26/26/26 25/25/25
f 28/28/28 27/27/27 25/25/25
f 31/31/31 30/30/30 29/29/29
f 32/32/32 31/31/31 29/29/29
f 35/35/35 34/34/34 33/33/33
f 36/36/36 35/35/35 33/33/33
f 39/39/39 38/38/38 37/37/37
f 40/40/40 39/39/39 37/37/37
f 40/40/40 37/37/37 41/41/41
f 37/37/37 42/42/42 41/41/41
f 42/42/42 43/43/43 41/41/41
f 43/43/43 44/44/44 41/41/41
f 47/47/47 46/46/46 45/45/45
f 48/48/48 47/47/47 45/45/45
f 51/51/51 50/50/50 49/49/49
f 52/52/52 51/51/51 49/49/49
f 55/55/55 54/54/54 53/53/53
f 56/56/56 55/55/55 53/53/53
f 57/57/57 56/56/56 53/53/53
f 58/58/58 57/57/57 53/53/53
f 58/58/58 59/59/59 57/57/57
f 59/59/59 60/60/60 57/57/57
f 63/63/63 62/62/62 61/61/61
f 64/64/64 63/63/63 61/61/61
f 64/64/64 61/61/61 65/65/65
f 66/66/66 64/64/64 65/65/65
f 65/65/65 67/67/67 66/66/66
f 67/67/67 68/68/68 66/66/66
f 71/71/71 70/70/70 69/69/69
f 72/72/72 71/71/71 69/69/69
f 73/73/73 72/72/72 69/69/69
f 74/74/74 73/73/73 69/69/69
f 74/74/74 75/75/75 73/73/73
f 75/75/75 76/76/76 73/73/73
f 79/79/79 78/78/78 77/77/77
f 80/80/80 79/79/79 77/77/77
f 80/80/80 77/77/77 81/81/81
f 77/77/77 82/82/82 81/81/81
f 82/82/82 83/83/83 81/81/81
f 83/83/83 84/84/84 81/81/81
f 87/87/87 86/86/86 85/85/85
f 88/88/88 87/87/87 85/85/85
f 89/89/89 88/88/88 85/85/85
f 90/90/90 89/89/89 85/85/85
f 90/90/90 91/91/91 89/89/89
f 91/91/91 92/92/92 89/89/89
f 95/95/95 94/94/94 93/93/93
f 96/96/96 95/95/95 93/93/93
f 96/96/96 93/93/93 97/97/97
f 93/93/93 98/98/98 97/97/97
f 98/98/98 99/99/99 97/97/97
f 99/99/99 100/100/100 97/97/97
f 103/103/103 102/102/102 101/101/101
f 104/104/104 103/103/103 101/101/101
f 105/105/105 104/104/104 101/101/101
f 106/106/106 105/105/105 101/101/101
f 106/106/106 107/107/107 105/105/105
f 107/107/107 108/108/108 105/105/105
f 111/111/111 110/110/110 109/109/109
f 112/112/112 111/111/111 109/109/109
f 112/112/112 109/109/109 113/113/113
f 109/109/109 114/114/114 113/113/113
f 114/114/114 115/115/115 113/113/113
f 115/115/115 116/116/116 113/113/113
f 119/119/119 118/118/118 117/117/117
f 120/120/120 119/119/119 117/117/117
f 123/123/123 122/122/122 121/121/121
f 121/121/121 124/124/124 123/123/123
f 121/121/121 125/125/125 124/124/124
f 125/125/125 126/126/126 124/124/124
f 125/125/125 127/127/127 126/126/126
f 127/127/127 128/128/128 126/126/126
f 131/131/131 130/130/130 129/129/129
f 132/132/132 131/131/131 129/129/129
f 133/133/133 131/131/131 132/132/132
f 129/129/129 130/130/130 134/134/134
f 130/130/130 135/135/135 134/134/134
f 129/129/129 134/134/134 136/136/136
f 134/134/134 135/135/135 136/136/136
f 136/136/136 132/132/132 129/129/129
f 135/135/135 137/137/137 136/136/136
f 136/136/136 137/137/137 138/138/138
f 136/136/136 138/138/138 132/132/132
f 137/137/137 139/139/139 138/138/138
f 140/140/140 133/133/133 132/132/132
f 138/138/138 140/140/140 132/132/132
f 141/141/141 133/133/133 140/140/140
f 138/138/138 139/139/139 142/142/142
f 138/138/138 142/142/142 140/140/140
f 139/139/139 143/143/143 142/142/142
f 144/144/144 141/141/141 140/140/140
f 142/142/142 144/144/144 140/140/140
f 143/143/143 141/141/141 144/144/144
f 142/142/142 143/143/143 144/144/144
