g CharNoseOriginal
v -0.019829 -0.102371 0.206825
v -0.140149 0.042561 0.155151
v 0.140149 0.042561 0.155151
v 0.019829 -0.102371 0.206825
v -0.019829 -0.102371 0.206825
v -0.140149 -0.042561 -0.110533
v -0.140149 0.042561 0.155151
v -0.020568 -0.210945 -0.088156
v 0.020568 -0.210945 -0.088156
v 0.019829 -0.102371 0.206825
v 0.140149 -0.042561 -0.110533
v 0.140149 0.042561 0.155151
vt 0.434722 1.554542
vt 0.020655 1.302481
vt 0.985269 1.302481
vt 0.571202 1.554542
vt 0.434722 1.554542
vt 0.020655 0.0065
vt 0.020655 1.302481
vt 0.432178 0.115653
vt 0.573745 0.115653
vt 0.571202 1.554542
vt 0.985269 0.0065
vt 0.985269 1.302481
vn -0.3505835 -0.4496571 0.8215228
vn -0.6973243 -0.3271499 0.6377395
vn 0.6973243 -0.3271498 0.6377397
vn 0.3505835 -0.4496571 0.8215228
vn -0.3505835 -0.4496571 0.8215228
vn -0.7377489 -0.5897753 -0.3284689
vn -0.6973243 -0.3271499 0.6377395
vn -0.360481 -0.8243024 -0.4365536
vn 0.3604811 -0.8243023 -0.4365536
vn 0.3505835 -0.4496571 0.8215228
vn 0.7377489 -0.5897753 -0.3284688
vn 0.6973243 -0.3271498 0.6377397
g CharNoseOriginal_0
f 3/3/3 2/2/2 1/1/1
f 4/4/4 3/3/3 1/1/1
f 7/7/7 6/6/6 5/5/5
f 6/6/6 8/8/8 5/5/5
f 5/5/5 8/8/8 9/9/9
f 8/8/8 6/6/6 9/9/9
f 10/10/10 5/5/5 9/9/9
f 6/6/6 11/11/11 9/9/9
f 10/10/10 9/9/9 12/12/12
f 9/9/9 11/11/11 12/12/12
