g CharMouth
v -0.087457 -0.30831 0.032388
v -0.158355 -0.262105 0.039458
v -0.20261 -0.279731 0.088839
v -0.11399 -0.337124 0.081545
v 0 -0.356392 0.081545
v -0.131998 -0.366324 0.173892
v 0 -0.322318 0.032388
v -0.232958 -0.308937 0.179741
v -0.250504 -0.33062 0.276187
v -0.142306 -0.386211 0.272268
v 0 -0.399448 0.272268
v 0.087457 -0.30831 0.032388
v 0 -0.382949 0.173892
v 0.131998 -0.366324 0.173892
v 0.142306 -0.386211 0.272268
v 0.250504 -0.33062 0.276187
v 0.232958 -0.308937 0.179741
v 0.20261 -0.279731 0.088839
v 0.158355 -0.262105 0.039458
v 0.11399 -0.337124 0.081545
vt 0.332547 0.189992
vt 0.172405 0.161841
vt 0.094326 0.268495
vt 0.29016 0.299562
vt 0.5 0.309903
vt 0.254729 0.477059
vt 0.5 0.200037
vt 0.03882 0.451096
vt 7.2E-05 0.636884
vt 0.228539 0.663935
vt 0.5 0.674364
vt 0.667453 0.189992
vt 0.5 0.48654
vt 0.745271 0.477059
vt 0.771461 0.663935
vt 0.999928 0.636884
vt 0.96118 0.451096
vt 0.905674 0.268495
vt 0.827595 0.161841
vt 0.70984 0.299562
vn -0.3047679 -0.7356449 -0.6049322
vn -0.4630015 -0.6259031 -0.6275945
vn -0.4858718 -0.710344 -0.5092544
vn -0.3182623 -0.8168508 -0.4811068
vn 0 -0.8990715 -0.437802
vn -0.3098345 -0.9072332 -0.2844832
vn 0 -0.8252941 -0.5647032
vn -0.4851764 -0.8157801 -0.3148122
vn -0.4693545 -0.847487 -0.2479361
vn -0.2934849 -0.9299905 -0.2213238
vn 0 -0.9823095 -0.1872644
vn 0.3047679 -0.7356449 -0.6049322
vn 0 -0.9696109 -0.2446522
vn 0.3098345 -0.9072332 -0.2844832
vn 0.293485 -0.9299905 -0.2213238
vn 0.4693545 -0.847487 -0.2479361
vn 0.4851764 -0.8157801 -0.3148122
vn 0.4858718 -0.710344 -0.5092545
vn 0.4630015 -0.6259031 -0.6275945
vn 0.3182623 -0.8168508 -0.4811068
g CharMouth_0
f 3/3/3 2/2/2 1/1/1
f 4/4/4 3/3/3 1/1/1
f 5/5/5 4/4/4 1/1/1
f 3/3/3 4/4/4 6/6/6
f 4/4/4 5/5/5 6/6/6
f 7/7/7 5/5/5 1/1/1
f 8/8/8 3/3/3 6/6/6
f 9/9/9 8/8/8 6/6/6
f 10/10/10 9/9/9 6/6/6
f 11/11/11 10/10/10 6/6/6
f 5/5/5 7/7/7 12/12/12
f 13/13/13 11/11/11 6/6/6
f 5/5/5 13/13/13 6/6/6
f 11/11/11 13/13/13 14/14/14
f 13/13/13 5/5/5 14/14/14
f 15/15/15 11/11/11 14/14/14
f 16/16/16 15/15/15 14/14/14
f 17/17/17 16/16/16 14/14/14
f 18/18/18 17/17/17 14/14/14
f 19/19/19 18/18/18 12/12/12
f 20/20/20 5/5/5 12/12/12
f 5/5/5 20/20/20 14/14/14
f 18/18/18 20/20/20 12/12/12
f 20/20/20 18/18/18 14/14/14
