g CharNoseSquare
v -0.020199 -0.180503 0.002084
v -0.080359 -0.097343 -0.099344
v -0.080174 -0.072763 -0.016429
v -0.054792 -0.210945 -0.088156
v 0.054792 -0.210945 -0.088156
v 0.020199 -0.180503 0.002084
v 0.080359 -0.097343 -0.099344
v 0.080174 -0.072763 -0.016429
v -0.080174 -0.072763 -0.016429
v 0.080174 -0.072763 -0.016429
v 0.020199 -0.180503 0.002084
v -0.020199 -0.180503 0.002084
vt 0.374321 1
vt 0 0
vt 0.001149 0.817478
vt 0.159082 0.110311
vt 0.840918 0.110311
vt 0.625679 1
vt 1 0
vt 0.998851 0.817478
vt 0.001149 0.817478
vt 0.998851 0.817478
vt 0.625679 1
vt 0.374321 1
vn -0.3561518 -0.4984266 0.7903967
vn -0.8254389 -0.353224 -0.4403219
vn -0.6656824 -0.1390653 0.7331628
vn -0.5391192 -0.7369813 -0.4076874
vn 0.5391192 -0.7369813 -0.4076874
vn 0.3561518 -0.4984266 0.7903967
vn 0.8254389 -0.353224 -0.4403219
vn 0.6656824 -0.1390653 0.7331628
vn -0.6656824 -0.1390653 0.7331628
vn 0.6656824 -0.1390653 0.7331628
vn 0.3561518 -0.4984266 0.7903967
vn -0.3561518 -0.4984266 0.7903967
g CharNoseSquare_0
f 3/3/3 2/2/2 1/1/1
f 2/2/2 4/4/4 1/1/1
f 1/1/1 4/4/4 5/5/5
f 4/4/4 2/2/2 5/5/5
f 6/6/6 1/1/1 5/5/5
f 2/2/2 7/7/7 5/5/5
f 6/6/6 5/5/5 8/8/8
f 5/5/5 7/7/7 8/8/8
f 11/11/11 10/10/10 9/9/9
f 12/12/12 11/11/11 9/9/9
