g Chemisty_TestTubeHolder
v 0.328649 0.149572 0
v 0.328649 -0.149572 0
v 0.390988 -0.149572 0
v 0.390988 0.149572 0
v 0.328649 0.149572 0.317363
v 0.328649 0.119869 0.35403
v 0.328649 -0.119869 0.35403
v 0.328649 -0.149572 0.317363
v 0.328649 0.149572 0
v 0.328649 -0.149572 0
v 0.390988 -0.149572 0
v 0.390988 0.149572 0.317363
v 0.390988 0.149572 0
v 0.390988 -0.149572 0.317363
v 0.390988 0.119869 0.35403
v 0.390988 -0.119869 0.35403
v 0.328649 -0.149572 0
v 0.390988 -0.149572 0.317363
v 0.390988 -0.149572 0
v 0.328649 -0.149572 0.317363
v 0.390988 -0.119869 0.35403
v 0.328649 -0.119869 0.35403
v 0.328649 0.119869 0.35403
v 0.390988 0.119869 0.35403
v 0.390988 0.149572 0.317363
v 0.328649 0.149572 0.317363
v 0.390988 0.149572 0
v 0.328649 0.149572 0
v -0.390988 0.149572 0.317363
v -0.390988 0.119869 0.35403
v -0.390988 -0.119869 0.35403
v -0.390988 -0.149572 0.317363
v -0.390988 0.149572 0
v -0.390988 -0.149572 0
v -0.328649 -0.149572 0
v -0.328649 0.149572 0.317363
v -0.328649 0.149572 0
v -0.328649 -0.149572 0.317363
v -0.328649 0.119869 0.35403
v -0.328649 -0.119869 0.35403
v -0.390988 -0.149572 0
v -0.328649 -0.149572 0.317363
v -0.328649 -0.149572 0
v -0.390988 -0.149572 0.317363
v -0.328649 -0.119869 0.35403
v -0.390988 -0.119869 0.35403
v -0.390988 0.119869 0.35403
v -0.328649 0.119869 0.35403
v -0.328649 0.149572 0.317363
v -0.390988 0.149572 0.317363
v -0.328649 0.149572 0
v -0.390988 0.149572 0
v -0.390988 0.149572 0
v -0.390988 -0.149572 0
v -0.328649 -0.149572 0
v -0.328649 0.149572 0
v 0.329604 -0.139509 0.269302
v -0.329604 -0.139509 0.269302
v -0.329604 -0.139509 0.291794
v 0.329604 -0.139509 0.291794
v 0.329604 0.139509 0.269302
v -0.329604 0.139509 0.269302
v -0.329604 -0.139509 0.269302
v 0.329604 -0.139509 0.269302
v 0.329604 -0.139509 0.002481
v -0.329604 -0.139509 0.002481
v -0.329604 -0.139509 0.034518
v 0.329604 -0.139509 0.034518
v 0.329604 0.139509 0.002481
v -0.329604 0.139509 0.002481
v -0.329604 -0.139509 0.002481
v 0.329604 -0.139509 0.002481
v 0.329604 0.139509 0.034518
v -0.329604 0.139509 0.034518
v -0.329604 0.139509 0.002481
v 0.329604 0.139509 0.002481
v 0.329604 -0.139509 0.034518
v -0.329604 -0.139509 0.034518
v -0.329604 0.139509 0.034518
v 0.329604 0.139509 0.034518
v 0.329604 0.139509 0.291794
v -0.329604 0.139509 0.291794
v -0.329604 0.139509 0.269302
v 0.329604 0.139509 0.269302
v 0.329604 -0.139509 0.291794
v -0.329604 -0.139509 0.291794
v -0.329604 0.139509 0.291794
v 0.329604 0.139509 0.291794
vt 0.055941 0.983333
vt 0.055941 0.522527
vt 0.465313 0.522527
vt 0.465313 0.983333
vt 0.019429 0.826493
vt 0.064936 0.871595
vt 0.432235 0.871595
vt 0.477742 0.826493
vt 0.019429 0.436126
vt 0.477742 0.436126
vt 0.01668 0.435164
vt 0.474993 0.825531
vt 0.474993 0.435164
vt 0.01668 0.825531
vt 0.429486 0.870633
vt 0.062187 0.870633
vt 0.989922 0.896147
vt 0.799232 0.989072
vt 0.989922 0.989072
vt 0.799232 0.896147
vt 0.770879 0.989072
vt 0.770879 0.896147
vt 0.62683 0.896147
vt 0.62683 0.989072
vt 0.598477 0.989072
vt 0.598477 0.896147
vt 0.407787 0.989072
vt 0.407787 0.896147
vt 0.017956 0.830223
vt 0.063463 0.875324
vt 0.430762 0.875324
vt 0.476268 0.830223
vt 0.017956 0.439856
vt 0.476268 0.439856
vt 0.017456 0.435164
vt 0.475768 0.825531
vt 0.475768 0.435165
vt 0.017455 0.825531
vt 0.430261 0.870633
vt 0.062962 0.870633
vt 0.407787 0.989734
vt 0.598477 0.89681
vt 0.407787 0.89681
vt 0.598477 0.989734
vt 0.62683 0.89681
vt 0.62683 0.989734
vt 0.770879 0.989735
vt 0.770879 0.89681
vt 0.799232 0.89681
vt 0.799232 0.989735
vt 0.989922 0.89681
vt 0.989922 0.989735
vt 0.055941 0.983333
vt 0.055941 0.522527
vt 0.465313 0.522527
vt 0.465313 0.983333
vt 0.477742 0.436126
vt 0.477742 0.436126
vt 0.477742 0.826493
vt 0.477742 0.826493
vt 0.019429 0.436126
vt 0.019429 0.436126
vt 0.477742 0.436126
vt 0.477742 0.436126
vt 0.477742 0.436126
vt 0.477742 0.436126
vt 0.477742 0.826493
vt 0.477742 0.826493
vt 0.019429 0.436126
vt 0.019429 0.436126
vt 0.477742 0.436126
vt 0.477742 0.436126
vt 0.019429 0.826493
vt 0.019429 0.826493
vt 0.019429 0.436126
vt 0.019429 0.436126
vt 0.459369 0.43763
vt 0.032819 0.43763
vt 0.032819 0.860781
vt 0.459369 0.860781
vt 0.019429 0.826493
vt 0.019429 0.826493
vt 0.019429 0.436126
vt 0.019429 0.436126
vt 0.459369 0.439166
vt 0.032819 0.439166
vt 0.032819 0.862317
vt 0.459369 0.862317
vn 0 0 -1
vn 0 0 -1
vn 0 0 -1
vn 0 0 -1
vn -1 0 0
vn -1 0 0
vn -1 0 0
vn -1 0 0
vn -1 0 0
vn -1 0 0
vn 1 0 0
vn 1 0 0
vn 1 0 0
vn 1 0 0
vn 1 0 0
vn 1 0 0
vn 0 -1 0
vn 0 -0.9964988 0.08360591
vn 0 -1 0
vn 0 -0.9964988 0.08360591
vn 0 -0.1348426 0.990867
vn 0 -0.1348426 0.990867
vn 0 0.1348426 0.990867
vn 0 0.1348426 0.990867
vn 0 0.9964988 0.08360591
vn 0 0.9964988 0.08360591
vn 0 1 0
vn 0 1 0
vn -1 0 0
vn -1 0 0
vn -1 0 0
vn -1 0 0
vn -1 0 0
vn -1 0 0
vn 1 0 0
vn 1 0 0
vn 1 0 0
vn 1 0 0
vn 1 0 0
vn 1 0 0
vn 0 -1 0
vn 0 -0.9964988 0.08360591
vn 0 -1 0
vn 0 -0.9964988 0.08360591
vn 0 -0.1348426 0.990867
vn 0 -0.1348426 0.990867
vn 0 0.1348426 0.990867
vn 0 0.1348426 0.990867
vn 0 0.9964988 0.08360591
vn 0 0.9964988 0.08360591
vn 0 1 0
vn 0 1 0
vn 0 0 -1
vn 0 0 -1
vn 0 0 -1
vn 0 0 -1
vn 0 -1 0
vn 0 -1 0
vn 0 -1 0
vn 0 -1 0
vn 0 0 -1
vn 0 0 -1
vn 0 0 -1
vn 0 0 -1
vn 0 -1 0
vn 0 -1 0
vn 0 -1 0
vn 0 -1 0
vn 0 0 -1
vn 0 0 -1
vn 0 0 -1
vn 0 0 -1
vn 0 1 0
vn 0 1 0
vn 0 1 0
vn 0 1 0
vn 0 0 1
vn 0 0 1
vn 0 0 1
vn 0 0 1
vn 0 1 0
vn 0 1 0
vn 0 1 0
vn 0 1 0
vn 0 0 1
vn 0 0 1
vn 0 0 1
vn 0 0 1
g Chemisty_TestTubeHolder_0
f 3/3/3 2/2/2 1/1/1
f 4/4/4 3/3/3 1/1/1
f 7/7/7 6/6/6 5/5/5
f 8/8/8 7/7/7 5/5/5
f 8/8/8 5/5/5 9/9/9
f 10/10/10 8/8/8 9/9/9
f 13/13/13 12/12/12 11/11/11
f 12/12/12 14/14/14 11/11/11
f 12/12/12 15/15/15 14/14/14
f 15/15/15 16/16/16 14/14/14
f 19/19/19 18/18/18 17/17/17
f 18/18/18 20/20/20 17/17/17
f 18/18/18 21/21/21 20/20/20
f 21/21/21 22/22/22 20/20/20
f 22/22/22 21/21/21 23/23/23
f 21/21/21 24/24/24 23/23/23
f 23/23/23 24/24/24 25/25/25
f 26/26/26 23/23/23 25/25/25
f 26/26/26 25/25/25 27/27/27
f 28/28/28 26/26/26 27/27/27
f 31/31/31 30/30/30 29/29/29
f 32/32/32 31/31/31 29/29/29
f 32/32/32 29/29/29 33/33/33
f 34/34/34 32/32/32 33/33/33
f 37/37/37 36/36/36 35/35/35
f 36/36/36 38/38/38 35/35/35
f 36/36/36 39/39/39 38/38/38
f 39/39/39 40/40/40 38/38/38
f 43/43/43 42/42/42 41/41/41
f 42/42/42 44/44/44 41/41/41
f 42/42/42 45/45/45 44/44/44
f 45/45/45 46/46/46 44/44/44
f 46/46/46 45/45/45 47/47/47
f 45/45/45 48/48/48 47/47/47
f 47/47/47 48/48/48 49/49/49
f 50/50/50 47/47/47 49/49/49
f 50/50/50 49/49/49 51/51/51
f 52/52/52 50/50/50 51/51/51
f 55/55/55 54/54/54 53/53/53
f 56/56/56 55/55/55 53/53/53
f 59/59/59 58/58/58 57/57/57
f 60/60/60 59/59/59 57/57/57
f 63/63/63 62/62/62 61/61/61
f 64/64/64 63/63/63 61/61/61
f 67/67/67 66/66/66 65/65/65
f 68/68/68 67/67/67 65/65/65
f 71/71/71 70/70/70 69/69/69
f 72/72/72 71/71/71 69/69/69
f 75/75/75 74/74/74 73/73/73
f 76/76/76 75/75/75 73/73/73
f 79/79/79 78/78/78 77/77/77
f 80/80/80 79/79/79 77/77/77
f 83/83/83 82/82/82 81/81/81
f 84/84/84 83/83/83 81/81/81
f 87/87/87 86/86/86 85/85/85
f 88/88/88 87/87/87 85/85/85
