g Chemisty_Flask
v 0.031129 0.021487 0.29307
v 0.037548 0.004559 0.29307
v 0.035366 -0.013413 0.29307
v 0.025082 -0.028312 0.29307
v 0.017578 0.033492 0.29307
v 0.009052 -0.036725 0.29307
v 0 0.037824 0.29307
v -0.009052 -0.036725 0.29307
v -0.017578 0.033492 0.29307
v -0.025082 -0.028312 0.29307
v -0.031129 0.021487 0.29307
v -0.035366 -0.013413 0.29307
v -0.037548 0.004559 0.29307
v 0.128627 -0.048782 0
v 0.136564 0.016582 0
v 0.113215 0.078147 0
v 0.091224 -0.10297 0
v 0.06393 0.121809 0
v 0.032922 -0.133569 0
v 0 0.137567 0
v -0.032922 -0.133569 0
v -0.06393 0.121809 0
v -0.091224 -0.10297 0
v -0.113215 0.078147 0
v -0.128627 -0.048782 0
v -0.136564 0.016582 0
v 0 0.037824 0.496103
v 0.022996 0.043815 0.496103
v 0.017578 0.033492 0.496103
v 0 0.049483 0.496103
v 0.040724 0.028109 0.496103
v -0.017578 0.033492 0.496103
v 0.031129 0.021487 0.496103
v -0.022996 0.043815 0.496103
v 0.049122 0.005964 0.496103
v -0.031129 0.021487 0.496103
v 0.037548 0.004559 0.496103
v -0.040724 0.028109 0.496103
v 0.046267 -0.017547 0.496103
v -0.037548 0.004559 0.496103
v 0.035366 -0.013413 0.496103
v -0.049122 0.005964 0.496103
v 0.032813 -0.037038 0.496103
v -0.035366 -0.013413 0.496103
v 0.025082 -0.028312 0.496103
v -0.046267 -0.017547 0.496103
v 0.011842 -0.048045 0.496103
v -0.025082 -0.028312 0.496103
v 0.009052 -0.036725 0.496103
v -0.032813 -0.037038 0.496103
v -0.011842 -0.048045 0.496103
v -0.009052 -0.036725 0.496103
v 0.037548 0.004559 0.496103
v 0.031129 0.021487 0.29307
v 0.031129 0.021487 0.496103
v 0.037548 0.004559 0.29307
v 0.017578 0.033492 0.29307
v 0.035366 -0.013413 0.496103
v 0.017578 0.033492 0.496103
v 0.035366 -0.013413 0.29307
v 0 0.037824 0.29307
v 0.025082 -0.028312 0.496103
v 0 0.037824 0.496103
v 0.025082 -0.028312 0.29307
v -0.017578 0.033492 0.29307
v 0.009052 -0.036725 0.496103
v -0.017578 0.033492 0.496103
v 0.009052 -0.036725 0.29307
v -0.031129 0.021487 0.29307
v -0.009052 -0.036725 0.496103
v -0.031129 0.021487 0.496103
v -0.009052 -0.036725 0.29307
v -0.037548 0.004559 0.29307
v -0.025082 -0.028312 0.496103
v -0.037548 0.004559 0.496103
v -0.025082 -0.028312 0.29307
v -0.035366 -0.013413 0.29307
v -0.035366 -0.013413 0.496103
v 0.022996 0.043815 0.462132
v 0.022996 0.043815 0.496103
v 0 0.049483 0.496103
v 0 0.049483 0.462132
v -0.022996 0.043815 0.496103
v 0.040724 0.028109 0.462132
v 0.040724 0.028109 0.496103
v -0.022996 0.043815 0.462132
v -0.040724 0.028109 0.496103
v 0.049122 0.005964 0.462132
v 0.049122 0.005964 0.496103
v -0.040724 0.028109 0.462132
v -0.049122 0.005964 0.496103
v 0.046267 -0.017547 0.462132
v 0.046267 -0.017547 0.496103
v -0.049122 0.005964 0.462132
v -0.046267 -0.017547 0.496103
v 0.032813 -0.037038 0.462132
v 0.032813 -0.037038 0.496103
v -0.046267 -0.017547 0.462132
v -0.032813 -0.037038 0.496103
v 0.011842 -0.048045 0.462132
v 0.011842 -0.048045 0.496103
v -0.032813 -0.037038 0.462132
v -0.011842 -0.048045 0.496103
v -0.011842 -0.048045 0.462132
v -0.036488 0.025186 0.447987
v -0.044013 0.005344 0.447987
v -0.041455 -0.015722 0.447987
v -0.029401 -0.033186 0.447987
v -0.01061 -0.043048 0.447987
v 0.01061 -0.043048 0.447987
v -0.020604 0.039258 0.447987
v 0.029401 -0.033186 0.447987
v 0 0.044337 0.447987
v 0.041455 -0.015722 0.447987
v 0.020604 0.039258 0.447987
v 0.044013 0.005344 0.447987
v 0.036488 0.025186 0.447987
v 0.029401 -0.033186 0.236899
v 0.041455 -0.015722 0.236899
v 0.044013 0.005344 0.236899
v 0.036488 0.025186 0.236899
v 0.020604 0.039258 0.236899
v 0 0.044337 0.236899
v 0.01061 -0.043048 0.236899
v -0.020604 0.039258 0.236899
v -0.01061 -0.043048 0.236899
v -0.036488 0.025186 0.236899
v -0.029401 -0.033186 0.236899
v -0.044013 0.005344 0.236899
v -0.041455 -0.015722 0.236899
v 0 0.06667 0.216573
v -0.030983 0.059033 0.216573
v -0.054868 0.037873 0.216573
v -0.066184 0.008036 0.216573
v -0.062338 -0.023642 0.216573
v -0.04421 -0.049903 0.216573
v 0.030983 0.059033 0.216573
v -0.015955 -0.064733 0.216573
v 0.054868 0.037873 0.216573
v 0.015955 -0.064733 0.216573
v 0.066184 0.008036 0.216573
v 0.04421 -0.049903 0.216573
v 0.062338 -0.023642 0.216573
v -0.105255 -0.118808 0.043949
v -0.037986 -0.154114 0.043949
v 0.037986 -0.154114 0.043949
v 0.105255 -0.118808 0.043949
v 0.148411 -0.056285 0.043949
v 0.157568 0.019132 0.043949
v -0.148411 -0.056285 0.043949
v 0.130629 0.090167 0.043949
v -0.157569 0.019132 0.043949
v 0.073764 0.140545 0.043949
v -0.130629 0.090167 0.043949
v 0 0.158726 0.043949
v -0.073764 0.140545 0.043949
v 0.136564 0.016582 0
v 0.113215 0.078147 0
v 0.128627 -0.048782 0
v 0.06393 0.121809 0
v 0 0.137567 0
v 0.091224 -0.10297 0
v -0.06393 0.121809 0
v -0.113215 0.078147 0
v 0.032922 -0.133569 0
v -0.136564 0.016582 0
v -0.032922 -0.133569 0
v -0.128627 -0.048782 0
v -0.091224 -0.10297 0
vt 0 0
vt 0 0
vt 0 0
vt 0 0
vt 0 0
vt 0 0
vt 0 0
vt 0 0
vt 0 0
vt 0 0
vt 0 0
vt 0 0
vt 0 0
vt 0 0
vt 0 0
vt 0 0
vt 0 0
vt 0 0
vt 0 0
vt 0 0
vt 0 0
vt 0 0
vt 0 0
vt 0 0
vt 0 0
vt 0 0
vt 0 0
vt 0 0
vt 0 0
vt 0 0
vt 0 0
vt 0 0
vt 0 0
vt 0 0
vt 0 0
vt 0 0
vt 0 0
vt 0 0
vt 0 0
vt 0 0
vt 0 0
vt 0 0
vt 0 0
vt 0 0
vt 0 0
vt 0 0
vt 0 0
vt 0 0
vt 0 0
vt 0 0
vt 0 0
vt 0 0
vt 0 0
vt 0 0
vt 0 0
vt 0 0
vt 0 0
vt 0 0
vt 0 0
vt 0 0
vt 0 0
vt 0 0
vt 0 0
vt 0 0
vt 0 0
vt 0 0
vt 0 0
vt 0 0
vt 0 0
vt 0 0
vt 0 0
vt 0 0
vt 0 0
vt 0 0
vt 0 0
vt 0 0
vt 0 0
vt 0 0
vt 0 0
vt 0 0
vt 0 0
vt 0 0
vt 0 0
vt 0 0
vt 0 0
vt 0 0
vt 0 0
vt 0 0
vt 0 0
vt 0 0
vt 0 0
vt 0 0
vt 0 0
vt 0 0
vt 0 0
vt 0 0
vt 0 0
vt 0 0
vt 0 0
vt 0 0
vt 0 0
vt 0 0
vt 0 0
vt 0 0
vt 0 0
vt 0 0
vt 0 0
vt 0 0
vt 0 0
vt 0 0
vt 0 0
vt 0 0
vt 0 0
vt 0 0
vt 0 0
vt 0 0
vt 0 0
vt 0 0
vt 0 0
vt 0 0
vt 0 0
vt 0 0
vt 0 0
vt 0 0
vt 0 0
vt 0 0
vt 0 0
vt 0 0
vt 0 0
vt 0 0
vt 0 0
vt 0 0
vt 0 0
vt 0 0
vt 0 0
vt 0 0
vt 0 0
vt 0 0
vt 0 0
vt 0 0
vt 0 0
vt 0 0
vt 0 0
vt 0 0
vt 0 0
vt 0 0
vt 0 0
vt 0 0
vt 0 0
vt 0 0
vt 0 0
vt 0 0
vt 0 0
vt 0 0
vt 0 0
vt 0 0
vt 0 0
vt 0 0
vt 0 0
vt 0 0
vt 0 0
vt 0 0
vt 0 0
vt 0 0
vt 0 0
vt 0 0
vt 0 0
vt 0 0
vt 0 0
vn 0 0 1
vn 0 0 1
vn 0 0 1
vn 0 0 1
vn 0 0 1
vn 0 0 1
vn 0 0 1
vn 0 0 1
vn 0 0 1
vn 0 0 1
vn 0 0 1
vn 0 0 1
vn 0 0 1
vn 0 0 -1
vn 0 0 -1
vn 0 0 -1
vn 0 0 -1
vn 0 0 -1
vn 0 0 -1
vn 0 0 -1
vn 0 0 -1
vn 0 0 -1
vn 0 0 -1
vn 0 0 -1
vn 0 0 -1
vn 0 0 -1
vn 0 0 1
vn 0 0 1
vn 0 0 1
vn 0 0 1
vn 0 0 1
vn 0 0 1
vn 0 0 1
vn 0 0 1
vn 0 0 1
vn 0 0 1
vn 0 0 1
vn 0 0 1
vn 0 0 1
vn 0 0 1
vn 0 0 1
vn 0 0 1
vn 0 0 1
vn 0 0 1
vn 0 0 1
vn 0 0 1
vn 0 0 1
vn 0 0 1
vn 0 0 1
vn 0 0 1
vn 0 0 1
vn 0 0 1
vn -0.9927111 -0.120519 0
vn -0.8229973 -0.5680454 0
vn -0.8229973 -0.5680454 0
vn -0.9927111 -0.120519 0
vn -0.4647062 -0.8854648 0
vn -0.9350193 0.3545969 0
vn -0.4647062 -0.8854648 0
vn -0.9350193 0.3545969 0
vn 0 -1 0
vn -0.66312 0.7485131 0
vn 0 -1 0
vn -0.66312 0.7485131 0
vn 0.4647062 -0.8854648 0
vn -0.2393083 0.9709436 0
vn 0.4647062 -0.8854648 0
vn -0.2393083 0.9709436 0
vn 0.8229973 -0.5680454 0
vn 0.2393083 0.9709436 0
vn 0.8229973 -0.5680454 0
vn 0.2393083 0.9709436 0
vn 0.9927111 -0.120519 0
vn 0.66312 0.7485131 0
vn 0.9927111 -0.120519 0
vn 0.66312 0.7485131 0
vn 0.9350193 0.3545969 0
vn 0.9350193 0.3545969 0
vn 0.4624676 0.8811389 -0.09857991
vn 0.46473 0.8854525 0
vn 0 1 0
vn 0 0.9951293 -0.09857801
vn -0.46473 0.8854525 0
vn 0.8189821 0.5652873 -0.09858327
vn 0.8229905 0.568055 0
vn -0.4624675 0.8811389 -0.09857989
vn -0.8229905 0.568055 0
vn 0.9878748 0.1199364 -0.09858325
vn 0.9927106 0.1205229 0
vn -0.8189821 0.5652873 -0.09858327
vn -0.9927106 0.1205229 0
vn 0.9304595 -0.3528844 -0.09857804
vn 0.9350128 -0.3546142 0
vn -0.9878748 0.1199364 -0.09858325
vn -0.9350128 -0.3546142 0
vn 0.6598926 -0.7448654 -0.09857731
vn 0.663124 -0.7485096 0
vn -0.9304595 -0.3528844 -0.09857806
vn -0.663124 -0.7485096 0
vn 0.2381607 -0.9662098 -0.09858071
vn 0.2393265 -0.9709391 0
vn -0.6598924 -0.7448654 -0.09857731
vn -0.2393265 -0.9709391 0
vn -0.2381607 -0.9662098 -0.09858072
vn -0.822723 0.5678814 -0.02524945
vn -0.9923928 0.1204949 -0.02524904
vn -0.9347219 -0.3544819 -0.02524784
vn -0.6629078 -0.7482752 -0.02524743
vn -0.2392434 -0.9706313 -0.02524859
vn 0.2392434 -0.9706313 -0.02524859
vn -0.4645865 0.8851677 -0.0252487
vn 0.6629078 -0.7482752 -0.02524742
vn 0 0.9996812 -0.02524821
vn 0.9347219 -0.3544819 -0.02524784
vn 0.4645866 0.8851677 -0.0252487
vn 0.9923928 0.120495 -0.02524904
vn 0.822723 0.5678814 -0.02524945
vn 0.657585 -0.7422674 0.1289225
vn 0.9272166 -0.3516362 0.1289238
vn 0.9844245 0.1195287 0.1289237
vn 0.8161174 0.5633222 0.1289208
vn 0.4608561 0.8780614 0.128918
vn 0 0.991655 0.1289206
vn 0.2373228 -0.9628381 0.1289219
vn -0.4608561 0.8780614 0.128918
vn -0.2373228 -0.9628381 0.1289219
vn -0.8161174 0.5633222 0.1289208
vn -0.657585 -0.7422674 0.1289225
vn -0.9844245 0.1195287 0.1289237
vn -0.9272166 -0.3516362 0.1289238
vn 0 0.8728174 0.488047
vn -0.4056176 0.7728415 0.4880475
vn -0.7183139 0.4958169 0.4880481
vn -0.8664532 0.1052083 0.4880472
vn -0.8160976 -0.3095093 0.4880458
vn -0.5787848 -0.6533137 0.4880465
vn 0.4056176 0.7728415 0.4880475
vn -0.2088826 -0.8474535 0.4880476
vn 0.718316 0.4958142 0.4880476
vn 0.2088826 -0.8474535 0.4880476
vn 0.8664547 0.1052084 0.4880446
vn 0.5787848 -0.6533137 0.4880465
vn 0.8160992 -0.3095059 0.4880452
vn -0.6389484 -0.7212225 0.2675501
vn -0.2305944 -0.9355447 0.2675489
vn 0.2305944 -0.9355447 0.2675489
vn 0.6389484 -0.7212226 0.2675501
vn 0.9009293 -0.3416764 0.2675509
vn 0.9565184 0.1161428 0.2675506
vn -0.9009283 -0.3416799 0.2675503
vn 0.7929825 0.547353 0.267551
vn -0.9565184 0.1161427 0.2675509
vn 0.4477807 0.8531761 0.2675502
vn -0.7929807 0.5473557 0.2675505
vn 0 0.9635437 0.2675513
vn -0.4477807 0.8531761 0.2675502
vn 0.8944475 0.108605 -0.4337842
vn 0.7415183 0.5118327 -0.4337947
vn 0.8424655 -0.3195025 -0.4337857
vn 0.4187184 0.7978053 -0.4337989
vn 0 0.9010111 -0.433796
vn 0.5974833 -0.6744158 -0.4337938
vn -0.4187184 0.7978053 -0.4337989
vn -0.7415153 0.511834 -0.4337984
vn 0.2156252 -0.8748274 -0.4338005
vn -0.8944431 0.1086048 -0.4337932
vn -0.2156253 -0.8748273 -0.4338005
vn -0.8424626 -0.3195047 -0.4337897
vn -0.5974834 -0.6744156 -0.4337938
g Chemisty_Flask_0
f 3/3/3 2/2/2 1/1/1
f 1/1/1 4/4/4 3/3/3
f 1/1/1 5/5/5 4/4/4
f 5/5/5 6/6/6 4/4/4
f 5/5/5 7/7/7 6/6/6
f 7/7/7 8/8/8 6/6/6
f 7/7/7 9/9/9 8/8/8
f 9/9/9 10/10/10 8/8/8
f 9/9/9 11/11/11 10/10/10
f 11/11/11 12/12/12 10/10/10
f 11/11/11 13/13/13 12/12/12
f 16/16/16 15/15/15 14/14/14
f 14/14/14 17/17/17 16/16/16
f 17/17/17 18/18/18 16/16/16
f 17/17/17 19/19/19 18/18/18
f 19/19/19 20/20/20 18/18/18
f 19/19/19 21/21/21 20/20/20
f 21/21/21 22/22/22 20/20/20
f 21/21/21 23/23/23 22/22/22
f 23/23/23 24/24/24 22/22/22
f 23/23/23 25/25/25 24/24/24
f 25/25/25 26/26/26 24/24/24
f 29/29/29 28/28/28 27/27/27
f 28/28/28 30/30/30 27/27/27
f 31/31/31 28/28/28 29/29/29
f 27/27/27 30/30/30 32/32/32
f 33/33/33 31/31/31 29/29/29
f 30/30/30 34/34/34 32/32/32
f 35/35/35 31/31/31 33/33/33
f 32/32/32 34/34/34 36/36/36
f 37/37/37 35/35/35 33/33/33
f 34/34/34 38/38/38 36/36/36
f 39/39/39 35/35/35 37/37/37
f 36/36/36 38/38/38 40/40/40
f 41/41/41 39/39/39 37/37/37
f 38/38/38 42/42/42 40/40/40
f 43/43/43 39/39/39 41/41/41
f 40/40/40 42/42/42 44/44/44
f 45/45/45 43/43/43 41/41/41
f 42/42/42 46/46/46 44/44/44
f 47/47/47 43/43/43 45/45/45
f 44/44/44 46/46/46 48/48/48
f 49/49/49 47/47/47 45/45/45
f 46/46/46 50/50/50 48/48/48
f 51/51/51 47/47/47 49/49/49
f 48/48/48 50/50/50 52/52/52
f 52/52/52 51/51/51 49/49/49
f 50/50/50 51/51/51 52/52/52
f 55/55/55 54/54/54 53/53/53
f 54/54/54 56/56/56 53/53/53
f 57/57/57 54/54/54 55/55/55
f 53/53/53 56/56/56 58/58/58
f 59/59/59 57/57/57 55/55/55
f 56/56/56 60/60/60 58/58/58
f 61/61/61 57/57/57 59/59/59
f 58/58/58 60/60/60 62/62/62
f 63/63/63 61/61/61 59/59/59
f 60/60/60 64/64/64 62/62/62
f 65/65/65 61/61/61 63/63/63
f 62/62/62 64/64/64 66/66/66
f 67/67/67 65/65/65 63/63/63
f 64/64/64 68/68/68 66/66/66
f 69/69/69 65/65/65 67/67/67
f 66/66/66 68/68/68 70/70/70
f 71/71/71 69/69/69 67/67/67
f 68/68/68 72/72/72 70/70/70
f 73/73/73 69/69/69 71/71/71
f 70/70/70 72/72/72 74/74/74
f 75/75/75 73/73/73 71/71/71
f 72/72/72 76/76/76 74/74/74
f 77/77/77 73/73/73 75/75/75
f 74/74/74 76/76/76 78/78/78
f 78/78/78 77/77/77 75/75/75
f 76/76/76 77/77/77 78/78/78
f 81/81/81 80/80/80 79/79/79
f 82/82/82 81/81/81 79/79/79
f 83/83/83 81/81/81 82/82/82
f 79/79/79 80/80/80 84/84/84
f 80/80/80 85/85/85 84/84/84
f 86/86/86 83/83/83 82/82/82
f 87/87/87 83/83/83 86/86/86
f 84/84/84 85/85/85 88/88/88
f 85/85/85 89/89/89 88/88/88
f 90/90/90 87/87/87 86/86/86
f 91/91/91 87/87/87 90/90/90
f 88/88/88 89/89/89 92/92/92
f 89/89/89 93/93/93 92/92/92
f 94/94/94 91/91/91 90/90/90
f 95/95/95 91/91/91 94/94/94
f 92/92/92 93/93/93 96/96/96
f 93/93/93 97/97/97 96/96/96
f 98/98/98 95/95/95 94/94/94
f 99/99/99 95/95/95 98/98/98
f 96/96/96 97/97/97 100/100/100
f 97/97/97 101/101/101 100/100/100
f 102/102/102 99/99/99 98/98/98
f 103/103/103 99/99/99 102/102/102
f 101/101/101 103/103/103 104/104/104
f 100/100/100 101/101/101 104/104/104
f 104/104/104 103/103/103 102/102/102
f 94/94/94 90/90/90 105/105/105
f 98/98/98 94/94/94 106/106/106
f 106/106/106 94/94/94 105/105/105
f 102/102/102 98/98/98 107/107/107
f 107/107/107 98/98/98 106/106/106
f 104/104/104 102/102/102 108/108/108
f 108/108/108 102/102/102 107/107/107
f 100/100/100 104/104/104 109/109/109
f 109/109/109 104/104/104 108/108/108
f 96/96/96 100/100/100 110/110/110
f 110/110/110 100/100/100 109/109/109
f 105/105/105 90/90/90 111/111/111
f 90/90/90 86/86/86 111/111/111
f 112/112/112 96/96/96 110/110/110
f 92/92/92 96/96/96 112/112/112
f 111/111/111 86/86/86 113/113/113
f 86/86/86 82/82/82 113/113/113
f 114/114/114 92/92/92 112/112/112
f 88/88/88 92/92/92 114/114/114
f 113/113/113 82/82/82 115/115/115
f 82/82/82 79/79/79 115/115/115
f 116/116/116 88/88/88 114/114/114
f 84/84/84 88/88/88 116/116/116
f 79/79/79 84/84/84 117/117/117
f 115/115/115 79/79/79 117/117/117
f 117/117/117 84/84/84 116/116/116
f 112/112/112 110/110/110 118/118/118
f 114/114/114 112/112/112 119/119/119
f 112/112/112 118/118/118 119/119/119
f 116/116/116 114/114/114 120/120/120
f 114/114/114 119/119/119 120/120/120
f 117/117/117 116/116/116 121/121/121
f 116/116/116 120/120/120 121/121/121
f 115/115/115 117/117/117 122/122/122
f 117/117/117 121/121/121 122/122/122
f 113/113/113 115/115/115 123/123/123
f 115/115/115 122/122/122 123/123/123
f 110/110/110 124/124/124 118/118/118
f 110/110/110 109/109/109 124/124/124
f 113/113/113 123/123/123 125/125/125
f 111/111/111 113/113/113 125/125/125
f 109/109/109 126/126/126 124/124/124
f 109/109/109 108/108/108 126/126/126
f 111/111/111 125/125/125 127/127/127
f 105/105/105 111/111/111 127/127/127
f 108/108/108 128/128/128 126/126/126
f 108/108/108 107/107/107 128/128/128
f 105/105/105 127/127/127 129/129/129
f 106/106/106 105/105/105 129/129/129
f 107/107/107 106/106/106 130/130/130
f 107/107/107 130/130/130 128/128/128
f 106/106/106 129/129/129 130/130/130
f 123/123/123 131/131/131 125/125/125
f 125/125/125 132/132/132 127/127/127
f 131/131/131 132/132/132 125/125/125
f 127/127/127 133/133/133 129/129/129
f 132/132/132 133/133/133 127/127/127
f 129/129/129 134/134/134 130/130/130
f 133/133/133 134/134/134 129/129/129
f 130/130/130 135/135/135 128/128/128
f 134/134/134 135/135/135 130/130/130
f 128/128/128 136/136/136 126/126/126
f 135/135/135 136/136/136 128/128/128
f 137/137/137 131/131/131 123/123/123
f 122/122/122 137/137/137 123/123/123
f 136/136/136 138/138/138 126/126/126
f 126/126/126 138/138/138 124/124/124
f 139/139/139 137/137/137 122/122/122
f 121/121/121 139/139/139 122/122/122
f 138/138/138 140/140/140 124/124/124
f 124/124/124 140/140/140 118/118/118
f 141/141/141 139/139/139 121/121/121
f 120/120/120 141/141/141 121/121/121
f 140/140/140 142/142/142 118/118/118
f 118/118/118 142/142/142 119/119/119
f 119/119/119 143/143/143 120/120/120
f 143/143/143 141/141/141 120/120/120
f 142/142/142 143/143/143 119/119/119
f 136/136/136 144/144/144 138/138/138
f 138/138/138 145/145/145 140/140/140
f 144/144/144 145/145/145 138/138/138
f 140/140/140 146/146/146 142/142/142
f 145/145/145 146/146/146 140/140/140
f 142/142/142 147/147/147 143/143/143
f 146/146/146 147/147/147 142/142/142
f 143/143/143 148/148/148 141/141/141
f 147/147/147 148/148/148 143/143/143
f 141/141/141 149/149/149 139/139/139
f 148/148/148 149/149/149 141/141/141
f 150/150/150 144/144/144 136/136/136
f 135/135/135 150/150/150 136/136/136
f 149/149/149 151/151/151 139/139/139
f 139/139/139 151/151/151 137/137/137
f 152/152/152 150/150/150 135/135/135
f 134/134/134 152/152/152 135/135/135
f 151/151/151 153/153/153 137/137/137
f 137/137/137 153/153/153 131/131/131
f 154/154/154 152/152/152 134/134/134
f 133/133/133 154/154/154 134/134/134
f 153/153/153 155/155/155 131/131/131
f 131/131/131 155/155/155 132/132/132
f 132/132/132 156/156/156 133/133/133
f 156/156/156 154/154/154 133/133/133
f 155/155/155 156/156/156 132/132/132
f 149/149/149 157/157/157 151/151/151
f 157/157/157 158/158/158 151/151/151
f 151/151/151 158/158/158 153/153/153
f 159/159/159 157/157/157 149/149/149
f 158/158/158 160/160/160 153/153/153
f 153/153/153 160/160/160 155/155/155
f 148/148/148 159/159/159 149/149/149
f 160/160/160 161/161/161 155/155/155
f 155/155/155 161/161/161 156/156/156
f 162/162/162 159/159/159 148/148/148
f 161/161/161 163/163/163 156/156/156
f 156/156/156 163/163/163 154/154/154
f 147/147/147 162/162/162 148/148/148
f 163/163/163 164/164/164 154/154/154
f 165/165/165 162/162/162 147/147/147
f 154/154/154 164/164/164 152/152/152
f 146/146/146 165/165/165 147/147/147
f 164/164/164 166/166/166 152/152/152
f 167/167/167 165/165/165 146/146/146
f 152/152/152 166/166/166 150/150/150
f 145/145/145 167/167/167 146/146/146
f 166/166/166 168/168/168 150/150/150
f 169/169/169 167/167/167 145/145/145
f 150/150/150 168/168/168 144/144/144
f 144/144/144 169/169/169 145/145/145
f 168/168/168 169/169/169 144/144/144
