g Chest
v -1.198246 0.523796 0.935183
v -1.078421 0.523796 0.935183
v -1.078421 0.523796 0.094292
v -1.198246 0.523796 0.094292
v 0 0.654745 0.094292
v -1.062546 0.589271 0.094292
v -1.062546 0.654745 0.094292
v 0 0.589271 0.094292
v 1.062546 0.654745 0.094292
v 1.062546 0.589271 0.094292
v 1.198246 0.523796 0.094292
v 1.078421 0.523796 0.094292
v 1.078421 0.523796 0.935183
v 1.198246 0.523796 0.935183
v 0 -0.654745 0.094292
v 1.062546 -0.589271 0.094292
v 1.062546 -0.654745 0.094292
v 0 -0.589271 0.094292
v -1.062546 -0.654745 0.094292
v -1.062546 -0.589271 0.094292
v 0 -0.654745 -0.01082
v 1.198246 -0.654745 -0.01082
v 1.198246 0.654745 -0.01082
v 0 0.654745 -0.01082
v -1.198246 -0.654745 -0.01082
v -1.198246 0.654745 -0.01082
v 1.198246 0.523796 0.935183
v 1.198246 0.654745 1.040294
v 1.198246 0.654745 -0.01082
v 1.198246 0.523796 0.094292
v 1.198246 -0.523796 0.935183
v 1.198246 -0.654745 1.040294
v 1.198246 0.654745 1.040294
v 1.198246 0.523796 0.935183
v 1.198246 -0.523796 0.094292
v 1.198246 -0.654745 -0.01082
v 1.198246 -0.654745 1.040294
v 1.198246 -0.523796 0.935183
v 1.198246 0.523796 0.094292
v 1.198246 0.654745 -0.01082
v 1.198246 -0.654745 -0.01082
v 1.198246 -0.523796 0.094292
v -1.062546 -0.654745 0.094292
v -1.198246 -0.654745 -0.01082
v -1.198246 -0.654745 1.040294
v -1.062546 -0.654745 0.935183
v 1.062546 -0.654745 0.935183
v 1.198246 -0.654745 1.040294
v 1.198246 -0.654745 -0.01082
v 1.062546 -0.654745 0.094292
v 0 -0.654745 0.935183
v 1.198246 -0.654745 1.040294
v 1.062546 -0.654745 0.935183
v 0 -0.654745 1.040294
v -1.062546 -0.654745 0.935183
v -1.198246 -0.654745 1.040294
v 0 -0.654745 0.094292
v -1.198246 -0.654745 -0.01082
v -1.062546 -0.654745 0.094292
v 0 -0.654745 -0.01082
v 1.062546 -0.654745 0.094292
v 1.198246 -0.654745 -0.01082
v -1.198246 -0.523796 0.935183
v -1.198246 -0.654745 1.040294
v -1.198246 -0.654745 -0.01082
v -1.198246 -0.523796 0.094292
v -1.198246 0.523796 0.935183
v -1.198246 0.654745 1.040294
v -1.198246 -0.654745 1.040294
v -1.198246 -0.523796 0.935183
v -1.198246 0.523796 0.094292
v -1.198246 0.654745 -0.01082
v -1.198246 0.654745 1.040294
v -1.198246 0.523796 0.935183
v -1.198246 -0.523796 0.094292
v -1.198246 -0.654745 -0.01082
v -1.198246 0.654745 -0.01082
v -1.198246 0.523796 0.094292
v -1.062546 0.654745 0.935183
v -1.198246 0.654745 1.040294
v -1.198246 0.654745 -0.01082
v -1.062546 0.654745 0.094292
v 0 0.654745 0.935183
v -1.198246 0.654745 1.040294
v -1.062546 0.654745 0.935183
v 0 0.654745 1.040294
v 1.062546 0.654745 0.935183
v 1.198246 0.654745 1.040294
v 1.062546 0.654745 0.094292
v 1.198246 0.654745 -0.01082
v 1.198246 0.654745 1.040294
v 1.062546 0.654745 0.935183
v 0 0.654745 0.094292
v 1.198246 0.654745 -0.01082
v 1.062546 0.654745 0.094292
v 0 0.654745 -0.01082
v -1.062546 0.654745 0.094292
v -1.198246 0.654745 -0.01082
v -1.078421 -0.523796 0.935183
v -1.078421 -0.523796 0.094292
v -1.078421 0.523796 0.094292
v -1.078421 0.523796 0.935183
v -1.198246 -0.523796 0.094292
v -1.078421 -0.523796 0.094292
v -1.078421 -0.523796 0.935183
v -1.198246 -0.523796 0.935183
v -1.198246 0.523796 0.094292
v -1.078421 0.523796 0.094292
v -1.078421 -0.523796 0.094292
v -1.198246 -0.523796 0.094292
v -1.198246 -0.523796 0.935183
v -1.078421 -0.523796 0.935183
v -1.078421 0.523796 0.935183
v -1.198246 0.523796 0.935183
v 0 -0.589271 0.935183
v 0 -0.589271 0.094292
v -1.062546 -0.589271 0.094292
v -1.062546 -0.589271 0.935183
v 1.062546 -0.654745 0.094292
v 1.062546 -0.589271 0.094292
v 1.062546 -0.589271 0.935183
v 1.062546 -0.654745 0.935183
v 0 -0.654745 0.935183
v -1.062546 -0.589271 0.935183
v -1.062546 -0.654745 0.935183
v 0 -0.589271 0.935183
v 1.062546 -0.654745 0.935183
v 1.062546 -0.589271 0.935183
v -1.062546 -0.654745 0.935183
v -1.062546 -0.589271 0.935183
v -1.062546 -0.589271 0.094292
v -1.062546 -0.654745 0.094292
v 1.078421 0.523796 0.935183
v 1.078421 0.523796 0.094292
v 1.078421 -0.523796 0.094292
v 1.078421 -0.523796 0.935183
v 1.198246 -0.523796 0.094292
v 1.078421 -0.523796 0.094292
v 1.078421 0.523796 0.094292
v 1.198246 0.523796 0.094292
v 1.198246 0.523796 0.935183
v 1.078421 0.523796 0.935183
v 1.078421 -0.523796 0.935183
v 1.198246 -0.523796 0.935183
v 1.198246 -0.523796 0.935183
v 1.078421 -0.523796 0.935183
v 1.078421 -0.523796 0.094292
v 1.198246 -0.523796 0.094292
v 0 0.589271 0.935183
v 0 0.589271 0.094292
v 1.062546 0.589271 0.094292
v 1.062546 0.589271 0.935183
v 0 0.654745 0.935183
v 1.062546 0.589271 0.935183
v 1.062546 0.654745 0.935183
v 0 0.589271 0.935183
v -1.062546 0.654745 0.935183
v -1.062546 0.589271 0.935183
v 1.062546 0.654745 0.935183
v 1.062546 0.589271 0.935183
v 1.062546 0.589271 0.094292
v 1.062546 0.654745 0.094292
v -1.062546 0.654745 0.094292
v -1.062546 0.589271 0.094292
v -1.062546 0.589271 0.935183
v -1.062546 0.654745 0.935183
v 0 -0.552637 1.040294
v 0 -0.552637 0.193053
v 1.011377 -0.552637 0.193053
v 1.011377 -0.552637 1.040294
v 0 0.552637 1.040294
v 0 0.552637 0.193053
v -1.011377 0.552637 0.193053
v -1.011377 0.552637 1.040294
v 1.011377 -0.552637 1.040294
v 1.011377 -0.552637 0.193053
v 1.011377 0.552637 0.193053
v 1.011377 0.552637 1.040294
v -1.011377 0.552637 1.040294
v -1.011377 0.552637 0.193053
v -1.011377 -0.552637 0.193053
v -1.011377 -0.552637 1.040294
v 0 -0.552637 0.193053
v 0 0.552637 0.193053
v 1.011377 0.552637 0.193053
v 1.011377 -0.552637 0.193053
v -1.011377 -0.552637 0.193053
v -1.011377 0.552637 0.193053
v 0 0.552637 0.193053
v 0 -0.552637 0.193053
v 1.011377 0.552637 1.040294
v 1.011377 0.552637 0.193053
v 0 0.552637 0.193053
v 0 0.552637 1.040294
v -1.011377 -0.552637 1.040294
v -1.011377 -0.552637 0.193053
v 0 -0.552637 0.193053
v 0 -0.552637 1.040294
v -1.062546 0.589271 0.935183
v -1.062546 0.589271 0.094292
v 0 0.589271 0.094292
v 0 0.589271 0.935183
v 1.062546 -0.589271 0.935183
v 1.062546 -0.589271 0.094292
v 0 -0.589271 0.094292
v 0 -0.589271 0.935183
v 1.198246 -0.654745 1.040294
v 1.011377 -0.552637 1.040294
v 1.011377 0.552637 1.040294
v 1.198246 0.654745 1.040294
v 0 -0.654745 1.040294
v 0 0.552637 1.040294
v 0 -0.552637 1.040294
v 0 0.654745 1.040294
v -1.198246 -0.654745 1.040294
v -1.011377 0.552637 1.040294
v -1.011377 -0.552637 1.040294
v -1.198246 0.654745 1.040294
vt 0.288976 0.841669
vt 0.289494 0.842144
vt 0.289494 0.83513
vt 0.289061 0.835595
vt 0.286192 0.841983
vt 0.283162 0.841159
vt 0.282728 0.841624
vt 0.28615 0.841513
vt 0.289656 0.842342
vt 0.289138 0.841866
vt 0.289524 0.835292
vt 0.289091 0.835757
vt 0.289006 0.841831
vt 0.289524 0.842306
vt 0.285899 0.835293
vt 0.288929 0.836117
vt 0.289362 0.835652
vt 0.285941 0.835763
vt 0.282435 0.834934
vt 0.282953 0.835409
vt 0.120047 0.395982
vt 0.120047 0.395982
vt 0.120047 0.395982
vt 0.120047 0.395982
vt 0.120047 0.395982
vt 0.120047 0.395982
vt 0.342654 0.952732
vt 0.277944 0.826871
vt 0.925041 0.826871
vt 0.860331 0.952732
vt 0.354213 0.957116
vt 0.29195 0.827022
vt 0.914582 0.827022
vt 0.852319 0.957117
vt 0.860331 0.952127
vt 0.925041 0.826265
vt 0.277944 0.826265
vt 0.342654 0.952127
vt 0.851686 0.950355
vt 0.914553 0.822764
vt 0.285883 0.822764
vt 0.34875 0.950355
vt 0.860331 0.952732
vt 0.925041 0.826871
vt 0.277944 0.826871
vt 0.342654 0.952732
vt 0.342654 0.95603
vt 0.277944 0.830169
vt 0.925041 0.830169
vt 0.860331 0.95603
vt 0.603266 0.958726
vt 0.914582 0.828632
vt 0.852319 0.958726
vt 0.603266 0.828632
vt 0.354213 0.958725
vt 0.29195 0.828632
vt 0.600218 0.953274
vt 0.285883 0.825683
vt 0.34875 0.953274
vt 0.600218 0.825683
vt 0.851686 0.953273
vt 0.914553 0.825683
vt 0.342654 0.953405
vt 0.277944 0.827544
vt 0.925041 0.827544
vt 0.860331 0.953405
vt 0.852319 0.958853
vt 0.914582 0.828759
vt 0.29195 0.828759
vt 0.354214 0.958854
vt 0.860331 0.952059
vt 0.925041 0.826198
vt 0.277944 0.826198
vt 0.342654 0.952059
vt 0.851686 0.954322
vt 0.914553 0.826731
vt 0.285883 0.826731
vt 0.34875 0.954322
vt 0.342654 0.952059
vt 0.277944 0.826198
vt 0.925041 0.826198
vt 0.860331 0.952059
vt 0.603266 0.957921
vt 0.29195 0.827827
vt 0.354214 0.957921
vt 0.603266 0.827827
vt 0.852319 0.957921
vt 0.914582 0.827827
vt 0.860331 0.953405
vt 0.925041 0.827544
vt 0.277944 0.827544
vt 0.342654 0.953405
vt 0.600218 0.958289
vt 0.285883 0.830698
vt 0.34875 0.958289
vt 0.600218 0.830698
vt 0.851686 0.958289
vt 0.914553 0.830698
vt 0.120081 0.396016
vt 0.120081 0.734135
vt 0.458201 0.734135
vt 0.458201 0.396015
vt 0.283085 0.834888
vt 0.282567 0.834412
vt 0.282567 0.841426
vt 0.283 0.840961
vt 0.289061 0.835595
vt 0.289494 0.83513
vt 0.282567 0.834412
vt 0.283085 0.834888
vt 0.283 0.840961
vt 0.282567 0.841426
vt 0.289494 0.842144
vt 0.288976 0.841669
vt 0.378791 0.734135
vt 0.378791 0.396015
vt 0.115903 0.396015
vt 0.115903 0.734135
vt 0.289362 0.835652
vt 0.288929 0.836117
vt 0.288844 0.84219
vt 0.289362 0.842666
vt 0.285899 0.842307
vt 0.282868 0.841483
vt 0.282435 0.841948
vt 0.285856 0.841836
vt 0.289362 0.842666
vt 0.288844 0.84219
vt 0.282435 0.841948
vt 0.282868 0.841483
vt 0.282953 0.835409
vt 0.282435 0.834934
vt 0.458201 0.734135
vt 0.458201 0.396015
vt 0.120081 0.396015
vt 0.120081 0.734135
vt 0.282597 0.834574
vt 0.283115 0.83505
vt 0.289091 0.835757
vt 0.289524 0.835292
vt 0.289524 0.842306
vt 0.289006 0.841831
vt 0.28303 0.841123
vt 0.282597 0.841588
vt 0.282597 0.841588
vt 0.28303 0.841123
vt 0.283115 0.83505
vt 0.282597 0.834574
vt 0.195868 0.396015
vt 0.195868 0.734135
vt 0.458756 0.734135
vt 0.458757 0.396015
vt 0.286192 0.834969
vt 0.289222 0.835793
vt 0.289656 0.835328
vt 0.286235 0.835439
vt 0.282728 0.83461
vt 0.283247 0.835085
vt 0.289656 0.835328
vt 0.289222 0.835793
vt 0.289138 0.841866
vt 0.289656 0.842342
vt 0.282728 0.841624
vt 0.283162 0.841159
vt 0.283247 0.835085
vt 0.282728 0.83461
vt 0.101567 0.396015
vt 0.101567 0.71891
vt 0.439688 0.71891
vt 0.439688 0.396015
vt 0.455012 0.71891
vt 0.455012 0.396015
vt 0.116891 0.396015
vt 0.116891 0.71891
vt 0.120081 0.396015
vt 0.120081 0.71891
vt 0.458201 0.71891
vt 0.458201 0.396015
vt 0.458201 0.71891
vt 0.458201 0.396015
vt 0.120081 0.396015
vt 0.120081 0.71891
vt 0.095366 0.396016
vt 0.095367 0.734135
vt 0.433486 0.734135
vt 0.433486 0.396015
vt 0.106041 0.396016
vt 0.106042 0.734135
vt 0.444161 0.734135
vt 0.444161 0.396016
vt 0.439688 0.71891
vt 0.439688 0.396015
vt 0.101567 0.396015
vt 0.101567 0.71891
vt 0.116891 0.396015
vt 0.116891 0.71891
vt 0.455012 0.71891
vt 0.455012 0.396015
vt 0.115903 0.396016
vt 0.115903 0.734135
vt 0.378791 0.734135
vt 0.378791 0.396015
vt 0.458757 0.734135
vt 0.458756 0.396015
vt 0.195868 0.396015
vt 0.195868 0.734135
vt 0.309035 0.87597
vt 0.30833 0.876675
vt 0.30833 0.884307
vt 0.309035 0.885012
vt 0.304514 0.87597
vt 0.304514 0.884307
vt 0.304514 0.876675
vt 0.304514 0.885012
vt 0.299993 0.87597
vt 0.300698 0.884307
vt 0.300698 0.876675
vt 0.299993 0.885012
vn 0 -1 0
vn 0 -1 0
vn 0 -1 0
vn 0 -1 0
vn 0 0 1
vn 0 0 1
vn 0 0 1
vn 0 0 1
vn 0 0 1
vn 0 0 1
vn 0 -1 0
vn 0 -1 0
vn 0 -1 0
vn 0 -1 0
vn 0 0 1
vn 0 0 1
vn 0 0 1
vn 0 0 1
vn 0 0 1
vn 0 0 1
vn 0 0 -1
vn 0 0 -1
vn 0 0 -1
vn 0 0 -1
vn 0 0 -1
vn 0 0 -1
vn 1 0 0
vn 1 0 0
vn 1 0 0
vn 1 0 0
vn 1 0 0
vn 1 0 0
vn 1 0 0
vn 1 0 0
vn 1 0 0
vn 1 0 0
vn 1 0 0
vn 1 0 0
vn 1 0 0
vn 1 0 0
vn 1 0 0
vn 1 0 0
vn 0 -1 0
vn 0 -1 0
vn 0 -1 0
vn 0 -1 0
vn 0 -1 0
vn 0 -1 0
vn 0 -1 0
vn 0 -1 0
vn 0 -1 0
vn 0 -1 0
vn 0 -1 0
vn 0 -1 0
vn 0 -1 0
vn 0 -1 0
vn 0 -1 0
vn 0 -1 0
vn 0 -1 0
vn 0 -1 0
vn 0 -1 0
vn 0 -1 0
vn -1 0 0
vn -1 0 0
vn -1 0 0
vn -1 0 0
vn -1 0 0
vn -1 0 0
vn -1 0 0
vn -1 0 0
vn -1 0 0
vn -1 0 0
vn -1 0 0
vn -1 0 0
vn -1 0 0
vn -1 0 0
vn -1 0 0
vn -1 0 0
vn 0 1 0
vn 0 1 0
vn 0 1 0
vn 0 1 0
vn 0 1 0
vn 0 1 0
vn 0 1 0
vn 0 1 0
vn 0 1 0
vn 0 1 0
vn 0 1 0
vn 0 1 0
vn 0 1 0
vn 0 1 0
vn 0 1 0
vn 0 1 0
vn 0 1 0
vn 0 1 0
vn 0 1 0
vn 0 1 0
vn -1 0 0
vn -1 0 0
vn -1 0 0
vn -1 0 0
vn 0 1 0
vn 0 1 0
vn 0 1 0
vn 0 1 0
vn 0 0 1
vn 0 0 1
vn 0 0 1
vn 0 0 1
vn 0 0 -1
vn 0 0 -1
vn 0 0 -1
vn 0 0 -1
vn 0 -1 0
vn 0 -1 0
vn 0 -1 0
vn 0 -1 0
vn -1 0 0
vn -1 0 0
vn -1 0 0
vn -1 0 0
vn 0 0 -1
vn 0 0 -1
vn 0 0 -1
vn 0 0 -1
vn 0 0 -1
vn 0 0 -1
vn 1 0 0
vn 1 0 0
vn 1 0 0
vn 1 0 0
vn 1 0 0
vn 1 0 0
vn 1 0 0
vn 1 0 0
vn 0 0 1
vn 0 0 1
vn 0 0 1
vn 0 0 1
vn 0 0 -1
vn 0 0 -1
vn 0 0 -1
vn 0 0 -1
vn 0 1 0
vn 0 1 0
vn 0 1 0
vn 0 1 0
vn 0 1 0
vn 0 1 0
vn 0 1 0
vn 0 1 0
vn 0 0 -1
vn 0 0 -1
vn 0 0 -1
vn 0 0 -1
vn 0 0 -1
vn 0 0 -1
vn -1 0 0
vn -1 0 0
vn -1 0 0
vn -1 0 0
vn 1 0 0
vn 1 0 0
vn 1 0 0
vn 1 0 0
vn 0 1 0
vn 0 1 0
vn 0 1 0
vn 0 1 0
vn 0 -1 0
vn 0 -1 0
vn 0 -1 0
vn 0 -1 0
vn -1 0 0
vn -1 0 0
vn -1 0 0
vn -1 0 0
vn 1 0 0
vn 1 0 0
vn 1 0 0
vn 1 0 0
vn 0 0 1
vn 0 0 1
vn 0 0 1
vn 0 0 1
vn 0 0 1
vn 0 0 1
vn 0 0 1
vn 0 0 1
vn 0 -1 0
vn 0 -1 0
vn 0 -1 0
vn 0 -1 0
vn 0 1 0
vn 0 1 0
vn 0 1 0
vn 0 1 0
vn 0 1 0
vn 0 1 0
vn 0 1 0
vn 0 1 0
vn 0 -1 0
vn 0 -1 0
vn 0 -1 0
vn 0 -1 0
vn 0 0 1
vn 0 0 1
vn 0 0 1
vn 0 0 1
vn 0 0 1
vn 0 0 1
vn 0 0 1
vn 0 0 1
vn 0 0 1
vn 0 0 1
vn 0 0 1
vn 0 0 1
g Chest_0
f 3/3/3 2/2/2 1/1/1
f 4/4/4 3/3/3 1/1/1
f 7/7/7 6/6/6 5/5/5
f 6/6/6 8/8/8 5/5/5
f 5/5/5 8/8/8 9/9/9
f 8/8/8 10/10/10 9/9/9
f 13/13/13 12/12/12 11/11/11
f 14/14/14 13/13/13 11/11/11
f 17/17/17 16/16/16 15/15/15
f 16/16/16 18/18/18 15/15/15
f 15/15/15 18/18/18 19/19/19
f 18/18/18 20/20/20 19/19/19
f 23/23/23 22/22/22 21/21/21
f 24/24/24 23/23/23 21/21/21
f 24/24/24 21/21/21 25/25/25
f 26/26/26 24/24/24 25/25/25
f 29/29/29 28/28/28 27/27/27
f 30/30/30 29/29/29 27/27/27
f 33/33/33 32/32/32 31/31/31
f 34/34/34 33/33/33 31/31/31
f 37/37/37 36/36/36 35/35/35
f 38/38/38 37/37/37 35/35/35
f 41/41/41 40/40/40 39/39/39
f 42/42/42 41/41/41 39/39/39
f 45/45/45 44/44/44 43/43/43
f 46/46/46 45/45/45 43/43/43
f 49/49/49 48/48/48 47/47/47
f 50/50/50 49/49/49 47/47/47
f 53/53/53 52/52/52 51/51/51
f 52/52/52 54/54/54 51/51/51
f 51/51/51 54/54/54 55/55/55
f 54/54/54 56/56/56 55/55/55
f 59/59/59 58/58/58 57/57/57
f 58/58/58 60/60/60 57/57/57
f 57/57/57 60/60/60 61/61/61
f 60/60/60 62/62/62 61/61/61
f 65/65/65 64/64/64 63/63/63
f 66/66/66 65/65/65 63/63/63
f 69/69/69 68/68/68 67/67/67
f 70/70/70 69/69/69 67/67/67
f 73/73/73 72/72/72 71/71/71
f 74/74/74 73/73/73 71/71/71
f 77/77/77 76/76/76 75/75/75
f 78/78/78 77/77/77 75/75/75
f 81/81/81 80/80/80 79/79/79
f 82/82/82 81/81/81 79/79/79
f 85/85/85 84/84/84 83/83/83
f 84/84/84 86/86/86 83/83/83
f 83/83/83 86/86/86 87/87/87
f 86/86/86 88/88/88 87/87/87
f 91/91/91 90/90/90 89/89/89
f 92/92/92 91/91/91 89/89/89
f 95/95/95 94/94/94 93/93/93
f 94/94/94 96/96/96 93/93/93
f 93/93/93 96/96/96 97/97/97
f 96/96/96 98/98/98 97/97/97
f 101/101/101 100/100/100 99/99/99
f 102/102/102 101/101/101 99/99/99
f 105/105/105 104/104/104 103/103/103
f 106/106/106 105/105/105 103/103/103
f 109/109/109 108/108/108 107/107/107
f 110/110/110 109/109/109 107/107/107
f 113/113/113 112/112/112 111/111/111
f 114/114/114 113/113/113 111/111/111
f 117/117/117 116/116/116 115/115/115
f 118/118/118 117/117/117 115/115/115
f 121/121/121 120/120/120 119/119/119
f 122/122/122 121/121/121 119/119/119
f 125/125/125 124/124/124 123/123/123
f 124/124/124 126/126/126 123/123/123
f 123/123/123 126/126/126 127/127/127
f 126/126/126 128/128/128 127/127/127
f 131/131/131 130/130/130 129/129/129
f 132/132/132 131/131/131 129/129/129
f 135/135/135 134/134/134 133/133/133
f 136/136/136 135/135/135 133/133/133
f 139/139/139 138/138/138 137/137/137
f 140/140/140 139/139/139 137/137/137
f 143/143/143 142/142/142 141/141/141
f 144/144/144 143/143/143 141/141/141
f 147/147/147 146/146/146 145/145/145
f 148/148/148 147/147/147 145/145/145
f 151/151/151 150/150/150 149/149/149
f 152/152/152 151/151/151 149/149/149
f 155/155/155 154/154/154 153/153/153
f 154/154/154 156/156/156 153/153/153
f 153/153/153 156/156/156 157/157/157
f 156/156/156 158/158/158 157/157/157
f 161/161/161 160/160/160 159/159/159
f 162/162/162 161/161/161 159/159/159
f 165/165/165 164/164/164 163/163/163
f 166/166/166 165/165/165 163/163/163
f 169/169/169 168/168/168 167/167/167
f 170/170/170 169/169/169 167/167/167
f 173/173/173 172/172/172 171/171/171
f 174/174/174 173/173/173 171/171/171
f 177/177/177 176/176/176 175/175/175
f 178/178/178 177/177/177 175/175/175
f 181/181/181 180/180/180 179/179/179
f 182/182/182 181/181/181 179/179/179
f 185/185/185 184/184/184 183/183/183
f 186/186/186 185/185/185 183/183/183
f 189/189/189 188/188/188 187/187/187
f 190/190/190 189/189/189 187/187/187
f 193/193/193 192/192/192 191/191/191
f 194/194/194 193/193/193 191/191/191
f 197/197/197 196/196/196 195/195/195
f 198/198/198 197/197/197 195/195/195
f 201/201/201 200/200/200 199/199/199
f 202/202/202 201/201/201 199/199/199
f 205/205/205 204/204/204 203/203/203
f 206/206/206 205/205/205 203/203/203
f 209/209/209 208/208/208 207/207/207
f 210/210/210 209/209/209 207/207/207
f 207/207/207 208/208/208 211/211/211
f 212/212/212 209/209/209 210/210/210
f 208/208/208 213/213/213 211/211/211
f 214/214/214 212/212/212 210/210/210
f 211/211/211 213/213/213 215/215/215
f 216/216/216 212/212/212 214/214/214
f 213/213/213 217/217/217 215/215/215
f 218/218/218 216/216/216 214/214/214
f 215/215/215 217/217/217 218/218/218
f 217/217/217 216/216/216 218/218/218
