g ChestHandLock
v 0 -0.59898 -0.219437
v 0 -0.59898 0.066772
v 0.167278 -0.59898 0.066772
v 0.167278 -0.59898 -0.219437
v -0.167278 -0.59898 -0.219437
v -0.167278 -0.59898 0.066772
v 0 -0.59898 0.066772
v 0 -0.59898 -0.219437
v -0.167278 -0.59898 0.066772
v 0 -0.710948 0.066772
v -0.167278 -0.710948 0.066772
v 0 -0.59898 0.066772
v 0.167278 -0.710948 0.066772
v 0.167278 -0.59898 0.066772
v -0.167278 -0.59898 -0.219437
v -0.167278 -0.59898 0.066772
v -0.167278 -0.710948 0.066772
v -0.167278 -0.710948 -0.219437
v 0.167278 -0.59898 -0.219437
v 0 -0.710948 -0.219437
v 0.167278 -0.710948 -0.219437
v 0 -0.59898 -0.219437
v -0.167278 -0.710948 -0.219437
v -0.167278 -0.59898 -0.219437
v 0.167278 -0.59898 0.066772
v 0.167278 -0.59898 -0.219437
v 0.167278 -0.710948 -0.219437
v 0.167278 -0.710948 0.066772
v 0 -0.688823 -0.149934
v 0.103808 -0.688823 -0.002732
v 0.103808 -0.688823 -0.149934
v 0 -0.688823 -0.002732
v -0.103808 -0.688823 -0.149934
v -0.103808 -0.688823 -0.002732
v 0.103808 -0.710948 -0.002732
v 0.103808 -0.710948 -0.149934
v 0.103808 -0.688823 -0.149934
v 0.103808 -0.688823 -0.002732
v -0.103808 -0.710948 -0.149934
v -0.103808 -0.710948 -0.002732
v -0.103808 -0.688823 -0.002732
v -0.103808 -0.688823 -0.149934
v 0 -0.710948 -0.149934
v 0.103808 -0.710948 -0.149934
v 0.167278 -0.710948 -0.219437
v 0 -0.710948 -0.219437
v 0.167278 -0.710948 0.066772
v -0.103808 -0.710948 -0.149934
v 0.103808 -0.710948 -0.002732
v -0.167278 -0.710948 -0.219437
v 0 -0.710948 0.066772
v -0.103808 -0.710948 -0.002732
v 0 -0.710948 -0.002732
v -0.167278 -0.710948 0.066772
vt 0.46286 0.853647
vt 0.46286 0.874215
vt 0.594016 0.874215
vt 0.594016 0.853647
vt 0.595211 0.853647
vt 0.595211 0.874215
vt 0.718985 0.874215
vt 0.718985 0.853647
vt 0.382482 0.695757
vt 0.422417 0.706038
vt 0.372857 0.706038
vt 0.422417 0.695757
vt 0.471977 0.706038
vt 0.462352 0.695757
vt 0.382482 0.610445
vt 0.382482 0.695757
vt 0.372857 0.706038
vt 0.372857 0.600164
vt 0.462352 0.610445
vt 0.422417 0.600164
vt 0.471977 0.600164
vt 0.422417 0.610445
vt 0.372857 0.600164
vt 0.382482 0.610445
vt 0.462352 0.695757
vt 0.462352 0.610445
vt 0.471977 0.600164
vt 0.471977 0.706038
vt 0.422417 0.627112
vt 0.451775 0.679089
vt 0.451775 0.627112
vt 0.422417 0.679089
vt 0.393059 0.627112
vt 0.393059 0.679089
vt 0.453173 0.680327
vt 0.453173 0.625874
vt 0.451775 0.627112
vt 0.451775 0.679089
vt 0.391661 0.625874
vt 0.391661 0.680327
vt 0.393059 0.679089
vt 0.393059 0.627112
vt 0.422417 0.625874
vt 0.453173 0.625874
vt 0.471977 0.600164
vt 0.422417 0.600164
vt 0.471977 0.706038
vt 0.391661 0.625874
vt 0.453173 0.680327
vt 0.372857 0.600164
vt 0.422417 0.706038
vt 0.391661 0.680327
vt 0.422417 0.680327
vt 0.372857 0.706038
vn 0 -1 0
vn 0 -1 0
vn 0 -1 0
vn 0 -1 0
vn 0 -1 0
vn 0 -1 0
vn 0 -1 0
vn 0 -1 0
vn 0 0 1
vn 0 0 1
vn 0 0 1
vn 0 0 1
vn 0 0 1
vn 0 0 1
vn -1 0 0
vn -1 0 0
vn -1 0 0
vn -1 0 0
vn 0 0 -1
vn 0 0 -1
vn 0 0 -1
vn 0 0 -1
vn 0 0 -1
vn 0 0 -1
vn 1 0 0
vn 1 0 0
vn 1 0 0
vn 1 0 0
vn 0 -1 0
vn 0 -1 0
vn 0 -1 0
vn 0 -1 0
vn 0 -1 0
vn 0 -1 0
vn -1 0 0
vn -1 0 0
vn -1 0 0
vn -1 0 0
vn 1 0 0
vn 1 0 0
vn 1 0 0
vn 1 0 0
vn 0 -1 0
vn 0 -1 0
vn 0 -1 0
vn 0 -1 0
vn 0 -1 0
vn 0 -1 0
vn 0 -1 0
vn 0 -1 0
vn 0 -1 0
vn 0 -1 0
vn 0 -1 0
vn 0 -1 0
g ChestHandLock_0
f 3/3/3 2/2/2 1/1/1
f 4/4/4 3/3/3 1/1/1
f 7/7/7 6/6/6 5/5/5
f 8/8/8 7/7/7 5/5/5
f 11/11/11 10/10/10 9/9/9
f 10/10/10 12/12/12 9/9/9
f 10/10/10 13/13/13 12/12/12
f 13/13/13 14/14/14 12/12/12
f 17/17/17 16/16/16 15/15/15
f 18/18/18 17/17/17 15/15/15
f 21/21/21 20/20/20 19/19/19
f 20/20/20 22/22/22 19/19/19
f 20/20/20 23/23/23 22/22/22
f 23/23/23 24/24/24 22/22/22
f 27/27/27 26/26/26 25/25/25
f 28/28/28 27/27/27 25/25/25
f 31/31/31 30/30/30 29/29/29
f 30/30/30 32/32/32 29/29/29
f 29/29/29 32/32/32 33/33/33
f 32/32/32 34/34/34 33/33/33
f 37/37/37 36/36/36 35/35/35
f 38/38/38 37/37/37 35/35/35
f 41/41/41 40/40/40 39/39/39
f 42/42/42 41/41/41 39/39/39
f 45/45/45 44/44/44 43/43/43
f 46/46/46 45/45/45 43/43/43
f 45/45/45 47/47/47 44/44/44
f 46/46/46 43/43/43 48/48/48
f 47/47/47 49/49/49 44/44/44
f 50/50/50 46/46/46 48/48/48
f 47/47/47 51/51/51 49/49/49
f 50/50/50 48/48/48 52/52/52
f 51/51/51 53/53/53 49/49/49
f 54/54/54 50/50/50 52/52/52
f 54/54/54 52/52/52 53/53/53
f 51/51/51 54/54/54 53/53/53
