g Clothes_Window_Interiro
v -1.106172 0.975547 0.52099
v -1.071429 1 3E-06
v -1.071429 1 4.000003
v -0.986156 0.734959 3.85
v -0.950287 0.850149 4.000003
v -0.821457 0.849556 3.85
v -1.5 -1 0
v 1.5 -1 0
v 1.071429 1 3E-06
v -1.071429 1 3E-06
v 1.465257 -0.854079 3.85
v 1.306281 -0.843198 3.85
v 1.306281 -0.843198 0.52099
v 1.465257 -0.854079 0.52099
v -1.465257 -0.854079 0.52099
v -1.306281 -0.843198 0.52099
v -1.306281 -0.843198 3.85
v -1.465257 -0.854079 3.85
v -0.921429 1 3.850003
v -0.821457 0.849556 3.85
v 0.821457 0.849556 3.85
v 0.921429 1 3.850003
v 1.465257 -0.854079 0.52099
v 1.306281 -0.843198 0.52099
v 0.986156 0.734959 0.52099
v 1.106172 0.975547 0.52099
v -1.106172 0.975547 3.85
v -0.986156 0.734959 3.85
v -0.986156 0.734959 0.52099
v -1.106172 0.975547 0.52099
v 0.921429 1 3.850003
v 0.821457 0.849556 3.85
v 0.821457 0.849556 0.52099
v 0.921429 1 0.520992
v 1.106172 0.975547 3.85
v 0.986156 0.734959 3.85
v 1.306281 -0.843198 3.85
v 1.465257 -0.854079 3.85
v -1.106172 0.975547 0.52099
v -0.986156 0.734959 0.52099
v -1.306281 -0.843198 0.52099
v -1.465257 -0.854079 0.52099
v -0.921429 1 0.520992
v -0.821457 0.849556 0.52099
v -0.821457 0.849556 3.85
v -0.921429 1 3.850003
v 1.106172 0.975547 0.52099
v 0.986156 0.734959 0.52099
v 0.986156 0.734959 3.85
v 1.106172 0.975547 3.85
v -1.465257 -0.854079 3.85
v -1.306281 -0.843198 3.85
v -0.986156 0.734959 3.85
v -1.106172 0.975547 3.85
v 0.921429 1 0.520992
v 0.821457 0.849556 0.52099
v -0.821457 0.849556 0.52099
v -0.921429 1 0.520992
v -0.821457 0.849556 0.52099
v -0.986156 0.734959 0.52099
v -0.986156 0.734959 3.85
v -0.821457 0.849556 3.85
v 0.821457 0.849556 3.85
v 0.986156 0.734959 0.52099
v 0.821457 0.849556 0.52099
v 0.986156 0.734959 3.85
v 0.950287 0.850149 4.000003
v 0.986156 0.734959 0.52099
v 1.306281 -0.843198 0.52099
v -1.306281 -0.843198 0.52099
v 0.821457 0.849556 0.52099
v -0.821457 0.849556 0.52099
v -0.986156 0.734959 0.52099
v 1.465257 -0.854079 3.188666
v 1.053613 0.919776 3.191124
v 0.939299 0.762366 3.191124
v 1.306281 -0.843198 3.188666
v -1.053613 0.919776 3.191124
v -1.465257 -0.854079 3.188666
v -1.306281 -0.843198 3.188666
v -0.939299 0.762366 3.191124
v 0.921429 0.963479 3.188666
v -0.921429 0.963479 3.188666
v -0.821457 0.90486 3.188666
v 0.821457 0.90486 3.188666
v 1.465257 -0.854079 3.292139
v 1.306281 -0.843198 3.292139
v 0.939299 0.762366 3.28968
v 1.053613 0.919776 3.28968
v -1.053613 0.919776 3.28968
v -0.939299 0.762366 3.28968
v -1.306281 -0.843198 3.292139
v -1.465257 -0.854079 3.292139
v 0.921429 0.963479 3.292139
v 0.821457 0.90486 3.292139
v -0.821457 0.90486 3.292139
v -0.921429 0.963479 3.292139
v -0.939299 0.762366 3.191124
v -1.053613 0.919776 3.28968
v -1.053613 0.919776 3.191124
v -0.939299 0.762366 3.28968
v -1.306281 -0.843198 3.188666
v -1.306281 -0.843198 3.292139
v 1.306281 -0.843198 3.188666
v 1.306281 -0.843198 3.292139
v 1.465257 -0.854079 3.292139
v 1.465257 -0.854079 3.188666
v -0.921429 0.963479 3.188666
v -0.921429 0.963479 3.292139
v -0.821457 0.90486 3.292139
v -0.821457 0.90486 3.188666
v 0.821457 0.90486 3.292139
v 0.821457 0.90486 3.188666
v 0.921429 0.963479 3.292139
v 0.921429 0.963479 3.188666
v -1.053613 0.919776 3.191124
v -1.053613 0.919776 3.28968
v -1.465257 -0.854079 3.292139
v -1.465257 -0.854079 3.188666
v 0.921429 0.963479 3.188666
v 0.921429 0.963479 3.292139
v -0.921429 0.963479 3.292139
v -0.921429 0.963479 3.188666
v -1.465257 -0.854079 3.188666
v -1.465257 -0.854079 3.292139
v -1.306281 -0.843198 3.292139
v -1.306281 -0.843198 3.188666
v 0.939299 0.762366 3.191124
v 1.306281 -0.843198 3.292139
v 1.306281 -0.843198 3.188666
v 0.939299 0.762366 3.28968
v 1.053613 0.919776 3.191124
v 1.053613 0.919776 3.28968
v 1.465257 -0.854079 3.188666
v 1.465257 -0.854079 3.292139
v 1.053613 0.919776 3.28968
v 1.053613 0.919776 3.191124
v -1.350725 -1.018563 4.062646
v -1.5 -1 4
v -1.071429 1 4.000003
v -0.950287 0.850149 4.000003
v 1.071429 1 4.000003
v 0.950287 0.850149 4.000003
v 1.5 -1 4
v 1.350725 -1.018563 4.062646
v -1.318242 -1 3.818242
v -1.5 -1 4
v -1.350725 -1.018563 4.062646
v -1.318242 -1 0.181758
v -1.5 -1 0
v 1.318242 -1 0.181758
v 1.5 -1 0
v 1.318242 -1 3.818242
v 1.5 -1 4
v 1.350725 -1.018563 4.062646
v -1.306281 -0.843198 3.85
v -0.950287 0.850149 4.000003
v -0.986156 0.734959 3.85
v -1.350725 -1.018563 4.062646
v -1.318242 -1 3.818242
v -1.318242 -1 0.181758
v -1.306281 -0.843198 0.52099
v -0.821457 0.849556 3.85
v -0.950287 0.850149 4.000003
v 0.950287 0.850149 4.000003
v 0.821457 0.849556 3.85
v 0.986156 0.734959 3.85
v 0.950287 0.850149 4.000003
v 1.350725 -1.018563 4.062646
v 1.306281 -0.843198 3.85
v 1.318242 -1 3.818242
v 1.306281 -0.843198 0.52099
v 1.318242 -1 0.181758
v 1.306281 -0.843198 0.52099
v 1.318242 -1 0.181758
v -1.318242 -1 0.181758
v -1.306281 -0.843198 0.52099
v -1.465257 -0.854079 0.52099
v -1.071429 1 3E-06
v -1.106172 0.975547 0.52099
v -1.5 -1 0
v -1.465257 -0.854079 3.85
v -1.5 -1 4
v -1.106172 0.975547 3.85
v -1.071429 1 4.000003
v 1.106172 0.975547 0.52099
v 1.5 -1 0
v 1.465257 -0.854079 0.52099
v 1.071429 1 3E-06
v 1.5 -1 4
v 1.106172 0.975547 3.85
v 1.465257 -0.854079 3.85
v 1.071429 1 4.000003
v -0.921429 1 0.520992
v -1.071429 1 3E-06
v 1.071429 1 3E-06
v 0.921429 1 0.520992
v -0.921429 1 3.850003
v 1.071429 1 4.000003
v -1.071429 1 4.000003
v 0.921429 1 3.850003
v 0.945802 0.945227 0.491458
v -0.945802 0.945227 0.491458
v -0.945802 0.945227 3.879531
v 0.945802 0.945227 3.879531
v 1.408646 -0.843198 0.52099
v 1.013923 0.854872 0.566491
v 1.013923 0.854872 3.803732
v 1.408646 -0.843198 3.85
v -1.045768 0.836822 0.383788
v -1.440491 -0.86176 0.333107
v -1.440491 -0.86176 3.982296
v -1.045768 0.836822 3.932382
vt 0.037563 0.130295
vt 6.9E-05 6.8E-05
vt 6.8E-05 0.999932
vt 0.604718 0.018818
vt 0.065345 0.925075
vt 0.384838 0.018818
vt 0 0
vt 0 1
vt 1 1
vt 1 0
vt 0.395282 0.481253
vt 0.395282 0.481253
vt 0.395282 0.018818
vt 0.395282 0.018818
vt 0.395282 0.481253
vt 0.395282 0.481253
vt 0.395282 0.018818
vt 0.395282 0.018818
vt 0.384838 0.018818
vt 0.384838 0.018818
vt 0.615162 0.018818
vt 0.615162 0.018818
vt 0.395282 0.018818
vt 0.395282 0.018818
vt 0.604718 0.018818
vt 0.604718 0.018818
vt 0.604718 0.018818
vt 0.604718 0.018818
vt 0.604718 0.481253
vt 0.604718 0.481253
vt 0.615162 0.018818
vt 0.615162 0.018818
vt 0.615162 0.481253
vt 0.615162 0.481253
vt 0.604718 0.481253
vt 0.604718 0.481253
vt 0.395282 0.481253
vt 0.395282 0.481253
vt 0.604718 0.481253
vt 0.604718 0.481253
vt 0.395282 0.481253
vt 0.395282 0.481253
vt 0.384838 0.481253
vt 0.384838 0.481253
vt 0.384838 0.018818
vt 0.384838 0.018818
vt 0.604718 0.018818
vt 0.604718 0.018818
vt 0.604718 0.481253
vt 0.604718 0.481253
vt 0.395282 0.018818
vt 0.395282 0.018818
vt 0.604718 0.018818
vt 0.604718 0.018818
vt 0.615162 0.481253
vt 0.615162 0.481253
vt 0.384838 0.481253
vt 0.384838 0.481253
vt 0.384838 0.481253
vt 0.604718 0.481253
vt 0.604718 0.018818
vt 0.384838 0.018818
vt 0.615162 0.018818
vt 0.604718 0.018818
vt 0.615162 0.481253
vt 0.604718 0.481253
vt 0.934655 0.925075
vt 0.877406 0.604048
vt 0.999919 8.1E-05
vt 8E-05 8E-05
vt 0.814375 0.647905
vt 0.185624 0.647904
vt 0.122594 0.604048
vt 0.395282 0.018818
vt 0.604718 0.018818
vt 0.604718 0.018818
vt 0.395282 0.018818
vt 0.604718 0.481253
vt 0.395282 0.481253
vt 0.395282 0.481253
vt 0.604718 0.481253
vt 0.615162 0.481253
vt 0.384838 0.481253
vt 0.384838 0.481253
vt 0.615162 0.481253
vt 0.395282 0.018818
vt 0.395282 0.018818
vt 0.604718 0.018818
vt 0.604718 0.018818
vt 0.604718 0.481253
vt 0.604718 0.481253
vt 0.395282 0.481253
vt 0.395282 0.481253
vt 0.615162 0.481253
vt 0.615162 0.481253
vt 0.384838 0.481253
vt 0.384838 0.481253
vt 0.604718 0.481253
vt 0.604718 0.481253
vt 0.604718 0.481253
vt 0.604718 0.481253
vt 0.395282 0.481253
vt 0.395282 0.481253
vt 0.395282 0.018818
vt 0.395282 0.018818
vt 0.395282 0.018818
vt 0.395282 0.018818
vt 0.384838 0.481253
vt 0.384838 0.481253
vt 0.384838 0.481253
vt 0.384838 0.481253
vt 0.615162 0.481253
vt 0.615162 0.481253
vt 0.615162 0.481253
vt 0.615162 0.481253
vt 0.604718 0.481253
vt 0.604718 0.481253
vt 0.395282 0.481253
vt 0.395282 0.481253
vt 0.615162 0.481253
vt 0.615162 0.481253
vt 0.384838 0.481253
vt 0.384838 0.481253
vt 0.395282 0.481253
vt 0.395282 0.481253
vt 0.395282 0.481253
vt 0.395282 0.481253
vt 0.604718 0.018818
vt 0.395282 0.018818
vt 0.395282 0.018818
vt 0.604718 0.018818
vt 0.604718 0.018818
vt 0.604718 0.018818
vt 0.395282 0.018818
vt 0.395282 0.018818
vt 0.604718 0.018818
vt 0.604718 0.018818
vt 0.050406 -0.009282
vt 0 0
vt 0 1
vt 0.065345 0.925075
vt 1 1
vt 0.934655 0.925075
vt 1 0
vt 0.949594 -0.009282
vt 0.044807 0.939555
vt 8.6E-05 0.984276
vt 0.037014 0.999889
vt 0.044809 0.044808
vt 8.7E-05 8.6E-05
vt 0.693518 0.044808
vt 0.73824 8.6E-05
vt 0.693518 0.939578
vt 0.738241 0.9843
vt 0.701312 0.999914
vt 0.048455 0.945456
vt 0.492461 0.998679
vt 0.462836 0.958944
vt 0.00014 0.998679
vt 0.008354 0.935552
vt 0.048465 0.00014
vt 0.085174 0.089133
vt 0.384838 0.018818
vt 0.065345 0.925075
vt 0.934655 0.925075
vt 0.615162 0.018818
vt 0.524252 0.937805
vt 0.492742 0.976061
vt 0.984477 0.99986
vt 0.938793 0.944364
vt 0.979325 0.936411
vt 0.94351 0.087258
vt 0.98448 0.00014
vt 0.701529 0.138931
vt 0.704519 0.045518
vt 0.045519 0.045518
vt 0.048509 0.13893
vt 0.425085 0.130297
vt 6.9E-05 6.8E-05
vt 0.037563 0.130295
vt 0.462581 6.8E-05
vt 0.425083 0.962438
vt 0.462576 0.999932
vt 0.037562 0.962438
vt 6.8E-05 0.999932
vt 0.425084 0.130297
vt 6.8E-05 6.9E-05
vt 0.037562 0.130295
vt 0.46258 6.8E-05
vt 6.8E-05 0.999932
vt 0.425083 0.962438
vt 0.037562 0.962438
vt 0.462576 0.999932
vt 0.498208 0.1303
vt 0.535702 7.3E-05
vt 7.3E-05 7.5E-05
vt 0.037567 0.1303
vt 0.498209 0.962432
vt 7.6E-05 0.999927
vt 0.535702 0.999925
vt 0.037569 0.962433
vt 0 0
vt 0 0
vt 0 0
vt 0 0
vt 0 0
vt 0 0
vt 0 0
vt 0 0
vt 0 0
vt 0 0
vt 0 0
vt 0 0
vn -0.7644615 0.6446105 -0.008712289
vn -0.617992 0.7860531 -0.01436267
vn -0.507134 0.6458451 0.5707008
vn 0.8171546 -0.5677794 0.09942289
vn 0.6088964 -0.7685936 0.1962372
vn 0.3099624 -0.9454875 0.0998829
vn 0 0 -1
vn 0 0 -1
vn 0 0 -1
vn 0 0 -1
vn 0.8755443 0.4818185 0.03568047
vn 0.06828455 0.9976659 0
vn 0.06828455 0.9976659 0
vn 0.8749363 0.4841706 -0.008084196
vn -0.8749363 0.4841706 -0.008084196
vn -0.06828455 0.9976659 0
vn -0.06828455 0.9976659 0
vn -0.8755443 0.4818185 0.03568047
vn 0 2.060197E-05 -1
vn 0 2.060196E-05 -1
vn 0 2.060196E-05 -1
vn 0 2.060197E-05 -1
vn 0 0 1
vn 0 -0.350908 0.93641
vn 0 0 1
vn 0 0 1
vn -0.8948404 -0.4463862 0
vn -0.8948404 -0.4463862 0
vn -0.8948404 -0.4463862 0
vn -0.8948404 -0.4463862 0
vn -0.2281986 0.9736146 0
vn -0.8328772 0.5534577 0
vn -0.8328773 0.5534577 0
vn -0.2282018 0.9736138 0
vn 0 0 -1
vn 0 0 -1
vn 0 0 -1
vn 0 0 -1
vn 0 0 1
vn 0 0 1
vn 0 -0.3509081 0.9364099
vn 0 0 1
vn 0.2282018 0.9736138 0
vn 0.8328773 0.5534577 0
vn 0.8328773 0.5534577 0
vn 0.2281986 0.9736146 0
vn 0.8948404 -0.4463862 0
vn 0.8948404 -0.4463862 0
vn 0.8948404 -0.4463862 0
vn 0.8948404 -0.4463862 0
vn 0 0 -1
vn 0 0 -1
vn 0 0 -1
vn 0 0 -1
vn 0 -1.307432E-05 1
vn 0 0 1
vn 0 0 1
vn 0 -1.307432E-05 1
vn 0.5711445 -0.8208495 0
vn 0.5711445 -0.8208495 0
vn 0.8171546 -0.5677794 0.09942289
vn 0.3099624 -0.9454875 0.0998829
vn -0.3099624 -0.9454875 0.0998829
vn -0.5711445 -0.8208495 0
vn -0.5711445 -0.8208495 0
vn -0.8171546 -0.5677794 0.09942285
vn -0.6088964 -0.7685936 0.1962371
vn 0 0 1
vn 0 -0.350908 0.93641
vn 0 -0.3509081 0.9364099
vn 0 0 1
vn 0 0 1
vn 0 0 1
vn -0.0006941567 0.001294667 -0.9999989
vn -0.0006941567 0.001294667 -0.9999989
vn -0.0006941567 0.001294667 -0.9999989
vn -0.0006941567 0.001294667 -0.9999989
vn 0.0006941562 0.001294666 -0.9999989
vn 0.0006941562 0.001294666 -0.9999989
vn 0.0006941562 0.001294666 -0.9999989
vn 0.0006941562 0.001294666 -0.9999989
vn 0 0 -1
vn 0 0 -1
vn 0 0 -1
vn 0 0 -1
vn -0.0006944934 0.001295294 0.9999989
vn -0.0006944934 0.001295294 0.9999989
vn -0.0006944934 0.001295295 0.9999989
vn -0.0006944934 0.001295294 0.9999989
vn 0.0006944932 0.001295294 0.9999989
vn 0.0006944933 0.001295295 0.9999989
vn 0.0006944933 0.001295295 0.9999989
vn 0.0006944932 0.001295294 0.9999989
vn 0 0 1
vn 0 0 1
vn 0 0 1
vn 0 0 1
vn 0.9797708 0.2001225 0
vn 0.8091419 0.5876133 0
vn 0.8091419 0.5876133 0
vn 0.9797708 0.2001224 0
vn 0.6494491 -0.7604052 0
vn 0.6494489 -0.7604052 0
vn -0.6494491 -0.7604052 0
vn -0.6494489 -0.7604052 0
vn -0.06828454 -0.9976659 0
vn -0.06828454 -0.9976659 0
vn -0.505814 -0.8626426 0
vn -0.505814 -0.8626426 0
vn -0.2620662 -0.9650499 0
vn -0.2620662 -0.9650499 0
vn 0.2620662 -0.9650499 0
vn 0.2620662 -0.9650499 0
vn 0.505814 -0.8626426 0
vn 0.505814 -0.8626426 0
vn -0.9741145 0.2260548 0
vn -0.9741145 0.2260548 0
vn -0.9741145 0.2260548 0
vn -0.9741145 0.2260548 0
vn 0 1 0
vn 0 1 0
vn 0 1 0
vn 0 1 0
vn 0.06828454 -0.9976659 0
vn 0.06828454 -0.9976659 0
vn 0.6494489 -0.7604052 0
vn 0.6494491 -0.7604052 0
vn -0.9797708 0.2001225 0
vn -0.6494489 -0.7604052 0
vn -0.6494491 -0.7604052 0
vn -0.9797708 0.2001224 0
vn -0.8091419 0.5876133 0
vn -0.8091419 0.5876133 0
vn 0.9741145 0.2260548 0
vn 0.9741145 0.2260548 0
vn 0.9741145 0.2260548 0
vn 0.9741145 0.2260548 0
vn -0.1915481 0.05691093 0.9798319
vn -0.7541046 0.1762181 0.6326717
vn -0.507134 0.6458451 0.5707008
vn -0.09625135 0.02859727 0.9949462
vn 0.507134 0.6458451 0.5707008
vn 0.09625134 0.02859727 0.9949462
vn 0.7541045 0.1762181 0.6326717
vn 0.1915481 0.05691092 0.9798319
vn -0.01897754 -0.9996397 -0.01897755
vn -0.05238205 -0.9972523 -0.05238209
vn -0.08692972 -0.9924145 -0.08692978
vn 0 -0.9944618 0.105098
vn 0 -1 0
vn 0 -0.9944618 0.105098
vn 0 -1 0
vn 0.01897754 -0.9996397 -0.01897755
vn 0.05238205 -0.9972523 -0.05238209
vn 0.08692972 -0.9924145 -0.08692978
vn 0.9892973 -0.1440878 0.02301211
vn 0.6088964 -0.7685936 0.1962372
vn 0.8171546 -0.5677794 0.09942289
vn 0.9858274 -0.1613324 0.04600064
vn 0.9946194 -0.08719889 0.05593374
vn 0.9971033 -0.07605986 0
vn 0.9971033 -0.07605986 0
vn 0.3099624 -0.9454875 0.0998829
vn 0.6088964 -0.7685936 0.1962372
vn -0.6088964 -0.7685936 0.1962371
vn -0.3099624 -0.9454875 0.0998829
vn -0.8171546 -0.5677794 0.09942285
vn -0.6088964 -0.7685936 0.1962371
vn -0.9858274 -0.1613324 0.04600059
vn -0.9892973 -0.1440878 0.02301206
vn -0.9946194 -0.0871989 0.05593373
vn -0.9971033 -0.07605986 0
vn -0.9971033 -0.07605986 0
vn 0 -0.350908 0.93641
vn 0 -0.9944618 0.105098
vn 0 -0.9944618 0.105098
vn 0 -0.3509081 0.9364099
vn -0.8749363 0.4841706 -0.008084196
vn -0.617992 0.7860531 -0.01436267
vn -0.7644615 0.6446105 -0.008712289
vn -0.9781894 0.2068174 -0.01929064
vn -0.8755443 0.4818185 0.03568047
vn -0.7541046 0.1762181 0.6326717
vn -0.7807123 0.6240051 0.03325418
vn -0.507134 0.6458451 0.5707008
vn 0.7644615 0.6446105 -0.008712289
vn 0.9781894 0.2068174 -0.01929064
vn 0.8749363 0.4841706 -0.008084196
vn 0.617992 0.7860531 -0.01436267
vn 0.7541045 0.1762181 0.6326717
vn 0.7807123 0.6240051 0.03325418
vn 0.8755443 0.4818185 0.03568047
vn 0.507134 0.6458451 0.5707008
vn 0.2282018 0.9736138 0
vn -0.617992 0.7860531 -0.01436267
vn 0.617992 0.7860531 -0.01436267
vn -0.2282018 0.9736138 0
vn 0.2281986 0.9736146 0
vn 0.507134 0.6458451 0.5707008
vn -0.507134 0.6458451 0.5707008
vn -0.2281986 0.9736146 0
vn 0 -1 0
vn 0 -1 0
vn 0 -1 0
vn 0 -1 0
vn -0.9740304 -0.2264172 0
vn -0.9740304 -0.2264172 0
vn -0.9740304 -0.2264172 0
vn -0.9740304 -0.2264172 0
vn 0.9740455 -0.2263524 0
vn 0.9740455 -0.2263524 0
vn 0.9740455 -0.2263524 0
vn 0.9740455 -0.2263524 0
g Clothes_Window_Interiro_0
f 3/3/3 2/2/2 1/1/1
f 6/6/6 5/5/5 4/4/4
f 9/9/9 8/8/8 7/7/7
f 10/10/10 9/9/9 7/7/7
f 13/13/13 12/12/12 11/11/11
f 14/14/14 13/13/13 11/11/11
f 17/17/17 16/16/16 15/15/15
f 18/18/18 17/17/17 15/15/15
f 21/21/21 20/20/20 19/19/19
f 22/22/22 21/21/21 19/19/19
f 25/25/25 24/24/24 23/23/23
f 26/26/26 25/25/25 23/23/23
f 29/29/29 28/28/28 27/27/27
f 30/30/30 29/29/29 27/27/27
f 33/33/33 32/32/32 31/31/31
f 34/34/34 33/33/33 31/31/31
f 37/37/37 36/36/36 35/35/35
f 38/38/38 37/37/37 35/35/35
f 41/41/41 40/40/40 39/39/39
f 42/42/42 41/41/41 39/39/39
f 45/45/45 44/44/44 43/43/43
f 46/46/46 45/45/45 43/43/43
f 49/49/49 48/48/48 47/47/47
f 50/50/50 49/49/49 47/47/47
f 53/53/53 52/52/52 51/51/51
f 54/54/54 53/53/53 51/51/51
f 57/57/57 56/56/56 55/55/55
f 58/58/58 57/57/57 55/55/55
f 61/61/61 60/60/60 59/59/59
f 62/62/62 61/61/61 59/59/59
f 65/65/65 64/64/64 63/63/63
f 64/64/64 66/66/66 63/63/63
f 67/67/67 63/63/63 66/66/66
f 70/70/70 69/69/69 68/68/68
f 68/68/68 71/71/71 70/70/70
f 71/71/71 72/72/72 70/70/70
f 72/72/72 73/73/73 70/70/70
f 76/76/76 75/75/75 74/74/74
f 77/77/77 76/76/76 74/74/74
f 80/80/80 79/79/79 78/78/78
f 81/81/81 80/80/80 78/78/78
f 84/84/84 83/83/83 82/82/82
f 85/85/85 84/84/84 82/82/82
f 88/88/88 87/87/87 86/86/86
f 89/89/89 88/88/88 86/86/86
f 92/92/92 91/91/91 90/90/90
f 93/93/93 92/92/92 90/90/90
f 96/96/96 95/95/95 94/94/94
f 97/97/97 96/96/96 94/94/94
f 100/100/100 99/99/99 98/98/98
f 99/99/99 101/101/101 98/98/98
f 98/98/98 101/101/101 102/102/102
f 101/101/101 103/103/103 102/102/102
f 106/106/106 105/105/105 104/104/104
f 107/107/107 106/106/106 104/104/104
f 110/110/110 109/109/109 108/108/108
f 111/111/111 110/110/110 108/108/108
f 112/112/112 110/110/110 111/111/111
f 113/113/113 112/112/112 111/111/111
f 114/114/114 112/112/112 113/113/113
f 115/115/115 114/114/114 113/113/113
f 118/118/118 117/117/117 116/116/116
f 119/119/119 118/118/118 116/116/116
f 122/122/122 121/121/121 120/120/120
f 123/123/123 122/122/122 120/120/120
f 126/126/126 125/125/125 124/124/124
f 127/127/127 126/126/126 124/124/124
f 130/130/130 129/129/129 128/128/128
f 129/129/129 131/131/131 128/128/128
f 128/128/128 131/131/131 132/132/132
f 131/131/131 133/133/133 132/132/132
f 136/136/136 135/135/135 134/134/134
f 137/137/137 136/136/136 134/134/134
f 140/140/140 139/139/139 138/138/138
f 141/141/141 140/140/140 138/138/138
f 142/142/142 140/140/140 141/141/141
f 143/143/143 142/142/142 141/141/141
f 144/144/144 142/142/142 143/143/143
f 145/145/145 144/144/144 143/143/143
f 148/148/148 147/147/147 146/146/146
f 146/146/146 147/147/147 149/149/149
f 147/147/147 150/150/150 149/149/149
f 149/149/149 150/150/150 151/151/151
f 150/150/150 152/152/152 151/151/151
f 151/151/151 152/152/152 153/153/153
f 152/152/152 154/154/154 153/153/153
f 155/155/155 153/153/153 154/154/154
f 158/158/158 157/157/157 156/156/156
f 157/157/157 159/159/159 156/156/156
f 156/156/156 159/159/159 160/160/160
f 160/160/160 161/161/161 156/156/156
f 161/161/161 162/162/162 156/156/156
f 165/165/165 164/164/164 163/163/163
f 166/166/166 165/165/165 163/163/163
f 169/169/169 168/168/168 167/167/167
f 170/170/170 169/169/169 167/167/167
f 169/169/169 170/170/170 171/171/171
f 171/171/171 170/170/170 172/172/172
f 173/173/173 171/171/171 172/172/172
f 176/176/176 175/175/175 174/174/174
f 177/177/177 176/176/176 174/174/174
f 180/180/180 179/179/179 178/178/178
f 179/179/179 181/181/181 178/178/178
f 178/178/178 181/181/181 182/182/182
f 181/181/181 183/183/183 182/182/182
f 182/182/182 183/183/183 184/184/184
f 184/184/184 185/185/185 180/180/180
f 183/183/183 185/185/185 184/184/184
f 188/188/188 187/187/187 186/186/186
f 187/187/187 189/189/189 186/186/186
f 190/190/190 187/187/187 188/188/188
f 186/186/186 189/189/189 191/191/191
f 192/192/192 190/190/190 188/188/188
f 189/189/189 193/193/193 191/191/191
f 193/193/193 190/190/190 192/192/192
f 191/191/191 193/193/193 192/192/192
f 196/196/196 195/195/195 194/194/194
f 197/197/197 196/196/196 194/194/194
f 194/194/194 195/195/195 198/198/198
f 199/199/199 196/196/196 197/197/197
f 195/195/195 200/200/200 198/198/198
f 201/201/201 199/199/199 197/197/197
f 198/198/198 200/200/200 201/201/201
f 200/200/200 199/199/199 201/201/201
g Clothes_Window_Interiro_1
f 204/204/204 203/203/203 202/202/202
f 205/205/205 204/204/204 202/202/202
f 208/208/208 207/207/207 206/206/206
f 209/209/209 208/208/208 206/206/206
f 212/212/212 211/211/211 210/210/210
f 213/213/213 212/212/212 210/210/210
