g ClothesShopInterior
v -4 -4 0
v -4 4 0
v 4 4 0
v 4 -4 0
v -4 -4 4
v 4 -4 4
v 4 4 4
v -4 4 4
v 4 -4 0
v 4 4 0
v 4 4 4
v 4 -4 4
v -4 4 0
v -4 -4 0
v -4 -4 4
v -4 4 4
v -4 -4 0
v 4 -4 0
v 4 -4 4
v -4 -4 4
vt -0.5 1.5
vt -0.5 -0.5
vt 1.5 -0.5
vt 1.5 1.5
vt 0 0
vt 1 0
vt 1 1
vt 0 1
vt 7.1E-05 7.1E-05
vt 0.999929 7.1E-05
vt 0.999929 0.5
vt 7.1E-05 0.5
vt 0.999929 0.5
vt 7.1E-05 0.5
vt 7.1E-05 7.1E-05
vt 0.999929 7.1E-05
vt 7.1E-05 7.1E-05
vt 0.999929 7.1E-05
vt 0.999929 0.5
vt 7.1E-05 0.5
vn 0 0 1
vn 0 0 1
vn 0 0 1
vn 0 0 1
vn 0 0 -1
vn 0 0 -1
vn 0 0 -1
vn 0 0 -1
vn -1 0 0
vn -1 0 0
vn -1 0 0
vn -1 0 0
vn 1 0 0
vn 1 0 0
vn 1 0 0
vn 1 0 0
vn 0 1 0
vn 0 1 0
vn 0 1 0
vn 0 1 0
g ClothesShopInterior_0
f 3/3/3 2/2/2 1/1/1
f 4/4/4 3/3/3 1/1/1
g ClothesShopInterior_1
f 7/7/7 6/6/6 5/5/5
f 8/8/8 7/7/7 5/5/5
f 11/11/11 10/10/10 9/9/9
f 12/12/12 11/11/11 9/9/9
f 15/15/15 14/14/14 13/13/13
f 16/16/16 15/15/15 13/13/13
f 19/19/19 18/18/18 17/17/17
f 20/20/20 19/19/19 17/17/17
