g ClownNose
v 0.080733 -0.32082 0.30512
v 0.114174 -0.401553 0.30512
v 0.087385 -0.401553 0.345213
v 0.06179 -0.339763 0.345213
v 0.047292 -0.401553 0.372002
v 0.033441 -0.368112 0.372002
v 0 -0.401553 0.381409
v 0 -0.354261 0.372002
v -0.033441 -0.368112 0.372002
v -0.047292 -0.401553 0.372002
v 0 -0.314168 0.345213
v 0.033441 -0.368112 0.372002
v 0 -0.354261 0.372002
v 0.06179 -0.339763 0.345213
v 0 -0.287379 0.30512
v 0.080733 -0.32082 0.30512
v 0.087385 -0.401553 0.345213
v 0 -0.277972 0.257828
v 0.087385 -0.314168 0.257828
v 0.114174 -0.401553 0.30512
v 0 -0.287379 0.210535
v 0.123581 -0.401553 0.257828
v 0.080733 -0.32082 0.210535
v 0 -0.314168 0.170443
v 0.114174 -0.401553 0.210535
v 0.06179 -0.339763 0.170443
v 0.087385 -0.401553 0.170443
v 0 -0.401553 0.134247
v 0.033441 -0.434994 0.143654
v 0.047292 -0.401553 0.143654
v 0 -0.448845 0.143654
v -0.033441 -0.434994 0.143654
v -0.047292 -0.401553 0.143654
v -0.087385 -0.401553 0.170443
v -0.06179 -0.463343 0.170443
v 0.114174 -0.401553 0.210535
v 0.087385 -0.488938 0.257828
v 0.123581 -0.401553 0.257828
v 0.080733 -0.482286 0.210535
v 0.087385 -0.401553 0.170443
v 0 -0.525134 0.257828
v 0 -0.515727 0.30512
v 0 -0.515727 0.210535
v 0.06179 -0.463343 0.170443
v 0.047292 -0.401553 0.143654
v 0 -0.488938 0.170443
v 0.033441 -0.434994 0.143654
v 0 -0.448845 0.143654
v 0 -0.448845 0.143654
v -0.033441 -0.434994 0.143654
v -0.06179 -0.463343 0.170443
v 0 -0.488938 0.170443
v -0.080733 -0.482286 0.210535
v 0 -0.515727 0.210535
v -0.114174 -0.401553 0.210535
v -0.087385 -0.401553 0.170443
v -0.123581 -0.401553 0.257828
v -0.087385 -0.488938 0.257828
v -0.114174 -0.401553 0.30512
v 0 -0.525134 0.257828
v -0.080733 -0.482286 0.30512
v 0 -0.515727 0.30512
v 0 -0.488938 0.345213
v -0.033441 -0.434994 0.372002
v 0 -0.448845 0.372002
v -0.06179 -0.463343 0.345213
v 0 -0.515727 0.30512
v -0.047292 -0.401553 0.372002
v -0.080733 -0.482286 0.30512
v -0.087385 -0.401553 0.345213
v -0.114174 -0.401553 0.30512
v -0.033441 -0.434994 0.372002
v -0.047292 -0.401553 0.372002
v 0 -0.401553 0.381409
v 0 -0.448845 0.372002
v 0.033441 -0.434994 0.372002
v 0.047292 -0.401553 0.372002
v 0.087385 -0.401553 0.345213
v 0.06179 -0.463343 0.345213
v 0 -0.488938 0.345213
v 0.114174 -0.401553 0.30512
v 0.080733 -0.482286 0.30512
v 0 -0.515727 0.30512
v 0.123581 -0.401553 0.257828
v 0.087385 -0.488938 0.257828
v -0.087385 -0.401553 0.345213
v -0.06179 -0.339763 0.345213
v -0.033441 -0.368112 0.372002
v -0.047292 -0.401553 0.372002
v -0.047292 -0.401553 0.143654
v -0.06179 -0.339763 0.170443
v -0.087385 -0.401553 0.170443
v -0.033441 -0.368112 0.143654
v 0 -0.314168 0.170443
v 0 -0.401553 0.134247
v 0 -0.354261 0.143654
v 0.06179 -0.339763 0.170443
v 0.033441 -0.368112 0.143654
v 0.047292 -0.401553 0.143654
v 0.087385 -0.401553 0.170443
v -0.114174 -0.401553 0.30512
v -0.06179 -0.339763 0.345213
v -0.087385 -0.401553 0.345213
v -0.080733 -0.32082 0.30512
v -0.123581 -0.401553 0.257828
v -0.087385 -0.314168 0.257828
v -0.114174 -0.401553 0.210535
v -0.080733 -0.32082 0.210535
v -0.087385 -0.401553 0.170443
v -0.06179 -0.339763 0.170443
v 0 -0.287379 0.210535
v 0 -0.314168 0.170443
v 0 -0.277972 0.257828
v 0 -0.287379 0.30512
v 0 -0.314168 0.345213
v 0 -0.354261 0.372002
v -0.033441 -0.368112 0.372002
vt 0.730399 0.952056
vt 0.748168 0.952056
vt 0.733934 0.97336
vt 0.720334 0.97336
vt 0.71263 0.987594
vt 0.705269 0.987594
vt 0.6875 0.992593
vt 0.6875 0.987594
vt 0.669731 0.987594
vt 0.66237 0.987594
vt 0.6875 0.97336
vt 0.705269 0.987594
vt 0.6875 0.987594
vt 0.720334 0.97336
vt 0.6875 0.952056
vt 0.730399 0.952056
vt 0.733934 0.97336
vt 0.6875 0.926926
vt 0.733934 0.926926
vt 0.748168 0.952056
vt 0.6875 0.901796
vt 0.753167 0.926926
vt 0.730399 0.901796
vt 0.6875 0.880493
vt 0.748168 0.901796
vt 0.720334 0.880493
vt 0.733934 0.880493
vt 0.6875 0.861259
vt 0.705269 0.866258
vt 0.71263 0.866258
vt 0.6875 0.866258
vt 0.669731 0.866258
vt 0.66237 0.866258
vt 0.641066 0.880493
vt 0.654667 0.880493
vt 0.748168 0.901796
vt 0.733934 0.926926
vt 0.753167 0.926926
vt 0.730399 0.901796
vt 0.733934 0.880493
vt 0.6875 0.926926
vt 0.6875 0.952056
vt 0.6875 0.901796
vt 0.720333 0.880493
vt 0.71263 0.866258
vt 0.6875 0.880493
vt 0.705269 0.866258
vt 0.6875 0.866258
vt 0.6875 0.866258
vt 0.669731 0.866258
vt 0.654667 0.880493
vt 0.6875 0.880493
vt 0.644601 0.901796
vt 0.6875 0.901796
vt 0.626832 0.901796
vt 0.641066 0.880493
vt 0.621833 0.926926
vt 0.641066 0.926926
vt 0.626832 0.952056
vt 0.6875 0.926926
vt 0.644601 0.952056
vt 0.6875 0.952056
vt 0.6875 0.97336
vt 0.669731 0.987594
vt 0.6875 0.987594
vt 0.654667 0.97336
vt 0.6875 0.952056
vt 0.66237 0.987594
vt 0.644601 0.952056
vt 0.641066 0.97336
vt 0.626832 0.952056
vt 0.669731 0.987594
vt 0.66237 0.987594
vt 0.6875 0.992593
vt 0.6875 0.987594
vt 0.705269 0.987594
vt 0.71263 0.987594
vt 0.733934 0.97336
vt 0.720333 0.97336
vt 0.6875 0.97336
vt 0.748168 0.952056
vt 0.730399 0.952056
vt 0.6875 0.952056
vt 0.753167 0.926926
vt 0.733934 0.926926
vt 0.641066 0.97336
vt 0.654667 0.97336
vt 0.669731 0.987594
vt 0.66237 0.987594
vt 0.66237 0.866258
vt 0.654667 0.880493
vt 0.641066 0.880493
vt 0.669731 0.866258
vt 0.6875 0.880493
vt 0.6875 0.861259
vt 0.6875 0.866258
vt 0.720334 0.880493
vt 0.705269 0.866258
vt 0.71263 0.866258
vt 0.733934 0.880493
vt 0.626832 0.952056
vt 0.654667 0.97336
vt 0.641066 0.97336
vt 0.644601 0.952056
vt 0.621833 0.926926
vt 0.641066 0.926926
vt 0.626832 0.901796
vt 0.644601 0.901796
vt 0.641066 0.880493
vt 0.654667 0.880493
vt 0.6875 0.901796
vt 0.6875 0.880493
vt 0.6875 0.926926
vt 0.6875 0.952056
vt 0.6875 0.97336
vt 0.6875 0.987594
vt 0.669731 0.987594
vn 0.6527327 0.6527327 0.3845517
vn 0.923103 0 0.3845527
vn 0.7049779 0 0.7092292
vn 0.4984954 0.4984955 0.7092282
vn 0.3806126 0 0.9247346
vn 0.2691328 0.2691328 0.9247351
vn 0 0 1
vn 0 0.3806125 0.9247346
vn -0.2691328 0.2691328 0.9247351
vn -0.3806126 0 0.9247346
vn 0 0.704978 0.7092292
vn 0.2691328 0.2691328 0.9247351
vn 0 0.3806125 0.9247346
vn 0.4984954 0.4984955 0.7092282
vn 0 0.9231031 0.3845526
vn 0.6527327 0.6527327 0.3845517
vn 0.7049779 0 0.7092292
vn 0 1 0
vn 0.7071068 0.7071067 0
vn 0.923103 0 0.3845527
vn 0 0.9231015 -0.3845562
vn 1 0 0
vn 0.6527317 0.6527317 -0.3845553
vn 0 0.7049738 -0.7092333
vn 0.9231015 0 -0.3845564
vn 0.4984925 0.4984926 -0.7092322
vn 0.7049739 0 -0.7092332
vn 0 0 -1
vn 0.2691329 -0.269133 -0.9247351
vn 0.3806126 0 -0.9247345
vn 0 -0.3806127 -0.9247345
vn -0.2691329 -0.269133 -0.9247351
vn -0.3806126 0 -0.9247345
vn -0.7049739 0 -0.7092332
vn -0.4984926 -0.4984927 -0.7092322
vn 0.9231015 0 -0.3845564
vn 0.7071068 -0.7071067 0
vn 1 0 0
vn 0.6527316 -0.6527316 -0.3845555
vn 0.7049739 0 -0.7092332
vn 0 -1 0
vn 0 -0.923103 0.384553
vn 0 -0.9231015 -0.3845566
vn 0.4984926 -0.4984927 -0.7092322
vn 0.3806126 0 -0.9247345
vn 0 -0.704974 -0.7092332
vn 0.2691329 -0.269133 -0.9247351
vn 0 -0.3806127 -0.9247345
vn 0 -0.3806127 -0.9247345
vn -0.2691329 -0.269133 -0.9247351
vn -0.4984926 -0.4984927 -0.7092322
vn 0 -0.704974 -0.7092332
vn -0.6527316 -0.6527316 -0.3845555
vn 0 -0.9231015 -0.3845566
vn -0.9231015 0 -0.3845564
vn -0.7049739 0 -0.7092332
vn -1 0 0
vn -0.7071068 -0.7071067 0
vn -0.923103 0 0.3845527
vn 0 -1 0
vn -0.6527327 -0.6527327 0.3845519
vn 0 -0.923103 0.384553
vn 0 -0.704978 0.7092292
vn -0.2691328 -0.2691329 0.9247351
vn 0 -0.3806126 0.9247345
vn -0.4984955 -0.4984955 0.7092281
vn 0 -0.923103 0.384553
vn -0.3806126 0 0.9247346
vn -0.6527327 -0.6527327 0.3845519
vn -0.7049779 0 0.7092292
vn -0.923103 0 0.3845527
vn -0.2691328 -0.2691329 0.9247351
vn -0.3806126 0 0.9247346
vn 0 0 1
vn 0 -0.3806126 0.9247345
vn 0.2691329 -0.2691329 0.9247351
vn 0.3806126 0 0.9247346
vn 0.7049779 0 0.7092292
vn 0.4984955 -0.4984955 0.7092282
vn 0 -0.704978 0.7092292
vn 0.923103 0 0.3845527
vn 0.6527327 -0.6527327 0.3845519
vn 0 -0.923103 0.384553
vn 1 0 0
vn 0.7071068 -0.7071067 0
vn -0.7049779 0 0.7092292
vn -0.4984954 0.4984955 0.7092282
vn -0.2691328 0.2691328 0.9247351
vn -0.3806126 0 0.9247346
vn -0.3806126 0 -0.9247345
vn -0.4984926 0.4984926 -0.7092322
vn -0.7049739 0 -0.7092332
vn -0.2691328 0.2691329 -0.9247351
vn 0 0.7049738 -0.7092333
vn 0 0 -1
vn 0 0.3806126 -0.9247346
vn 0.4984925 0.4984926 -0.7092322
vn 0.2691328 0.2691329 -0.9247351
vn 0.3806126 0 -0.9247345
vn 0.7049739 0 -0.7092332
vn -0.923103 0 0.3845527
vn -0.4984954 0.4984955 0.7092282
vn -0.7049779 0 0.7092292
vn -0.6527327 0.6527327 0.3845517
vn -1 0 0
vn -0.7071068 0.7071068 0
vn -0.9231015 0 -0.3845564
vn -0.6527317 0.6527317 -0.3845553
vn -0.7049739 0 -0.7092332
vn -0.4984926 0.4984926 -0.7092322
vn 0 0.9231015 -0.3845562
vn 0 0.7049738 -0.7092333
vn 0 1 0
vn 0 0.9231031 0.3845526
vn 0 0.704978 0.7092292
vn 0 0.3806125 0.9247346
vn -0.2691328 0.2691328 0.9247351
g ClownNose_0
f 3/3/3 2/2/2 1/1/1
f 5/5/5 3/3/3 4/4/4
f 6/6/6 5/5/5 4/4/4
f 7/7/7 5/5/5 6/6/6
f 7/7/7 6/6/6 8/8/8
f 7/7/7 8/8/8 9/9/9
f 7/7/7 9/9/9 10/10/10
f 13/13/13 12/12/12 11/11/11
f 12/12/12 14/14/14 11/11/11
f 11/11/11 14/14/14 15/15/15
f 14/14/14 16/16/16 15/15/15
f 14/14/14 17/17/17 16/16/16
f 15/15/15 16/16/16 18/18/18
f 16/16/16 19/19/19 18/18/18
f 16/16/16 20/20/20 19/19/19
f 18/18/18 19/19/19 21/21/21
f 20/20/20 22/22/22 19/19/19
f 19/19/19 23/23/23 21/21/21
f 19/19/19 22/22/22 23/23/23
f 21/21/21 23/23/23 24/24/24
f 22/22/22 25/25/25 23/23/23
f 23/23/23 26/26/26 24/24/24
f 23/23/23 25/25/25 26/26/26
f 25/25/25 27/27/27 26/26/26
f 30/30/30 29/29/29 28/28/28
f 29/29/29 31/31/31 28/28/28
f 31/31/31 32/32/32 28/28/28
f 32/32/32 33/33/33 28/28/28
f 34/34/34 33/33/33 32/32/32
f 35/35/35 34/34/34 32/32/32
f 38/38/38 37/37/37 36/36/36
f 37/37/37 39/39/39 36/36/36
f 36/36/36 39/39/39 40/40/40
f 37/37/37 41/41/41 39/39/39
f 42/42/42 41/41/41 37/37/37
f 41/41/41 43/43/43 39/39/39
f 39/39/39 44/44/44 40/40/40
f 39/39/39 43/43/43 44/44/44
f 40/40/40 44/44/44 45/45/45
f 43/43/43 46/46/46 44/44/44
f 44/44/44 47/47/47 45/45/45
f 44/44/44 46/46/46 47/47/47
f 46/46/46 48/48/48 47/47/47
f 51/51/51 50/50/50 49/49/49
f 52/52/52 51/51/51 49/49/49
f 53/53/53 51/51/51 52/52/52
f 54/54/54 53/53/53 52/52/52
f 53/53/53 55/55/55 51/51/51
f 55/55/55 56/56/56 51/51/51
f 57/57/57 55/55/55 53/53/53
f 58/58/58 53/53/53 54/54/54
f 58/58/58 57/57/57 53/53/53
f 59/59/59 57/57/57 58/58/58
f 60/60/60 58/58/58 54/54/54
f 61/61/61 59/59/59 58/58/58
f 61/61/61 58/58/58 60/60/60
f 62/62/62 61/61/61 60/60/60
f 65/65/65 64/64/64 63/63/63
f 64/64/64 66/66/66 63/63/63
f 63/63/63 66/66/66 67/67/67
f 64/64/64 68/68/68 66/66/66
f 66/66/66 69/69/69 67/67/67
f 68/68/68 70/70/70 66/66/66
f 66/66/66 70/70/70 69/69/69
f 70/70/70 71/71/71 69/69/69
f 74/74/74 73/73/73 72/72/72
f 74/74/74 72/72/72 75/75/75
f 74/74/74 75/75/75 76/76/76
f 74/74/74 76/76/76 77/77/77
f 77/77/77 76/76/76 78/78/78
f 76/76/76 75/75/75 79/79/79
f 76/76/76 79/79/79 78/78/78
f 75/75/75 80/80/80 79/79/79
f 78/78/78 79/79/79 81/81/81
f 79/79/79 80/80/80 82/82/82
f 79/79/79 82/82/82 81/81/81
f 80/80/80 83/83/83 82/82/82
f 81/81/81 82/82/82 84/84/84
f 82/82/82 83/83/83 85/85/85
f 82/82/82 85/85/85 84/84/84
f 88/88/88 87/87/87 86/86/86
f 89/89/89 88/88/88 86/86/86
f 92/92/92 91/91/91 90/90/90
f 91/91/91 93/93/93 90/90/90
f 91/91/91 94/94/94 93/93/93
f 90/90/90 93/93/93 95/95/95
f 94/94/94 96/96/96 93/93/93
f 93/93/93 96/96/96 95/95/95
f 94/94/94 97/97/97 96/96/96
f 96/96/96 98/98/98 95/95/95
f 97/97/97 98/98/98 96/96/96
f 98/98/98 99/99/99 95/95/95
f 97/97/97 100/100/100 98/98/98
f 100/100/100 99/99/99 98/98/98
f 103/103/103 102/102/102 101/101/101
f 102/102/102 104/104/104 101/101/101
f 101/101/101 104/104/104 105/105/105
f 104/104/104 106/106/106 105/105/105
f 105/105/105 106/106/106 107/107/107
f 106/106/106 108/108/108 107/107/107
f 107/107/107 108/108/108 109/109/109
f 108/108/108 110/110/110 109/109/109
f 108/108/108 111/111/111 110/110/110
f 111/111/111 112/112/112 110/110/110
f 113/113/113 111/111/111 108/108/108
f 106/106/106 113/113/113 108/108/108
f 114/114/114 113/113/113 106/106/106
f 104/104/104 114/114/114 106/106/106
f 115/115/115 114/114/114 104/104/104
f 102/102/102 115/115/115 104/104/104
f 116/116/116 115/115/115 102/102/102
f 117/117/117 116/116/116 102/102/102
