g Cockatoo_Frill
v 0.024235 0.085722 0.103791
v 0.003084 0.259409 0.219699
v 0.003084 0.285008 0.200088
v 0.024235 0.147387 0.08418
v 0.024235 0.026821 -0.001282
v 0.024235 0.088487 -0.020893
v -0.003084 0.259409 0.219699
v -0.003084 0.285008 0.200088
v 0.003084 0.285008 0.200088
v 0.003084 0.259409 0.219699
v 0.024235 0.147387 0.08418
v 0.003084 0.285008 0.200088
v -0.003084 0.285008 0.200088
v -0.024235 0.147387 0.08418
v 0.024235 0.088487 -0.020893
v -0.024235 0.088487 -0.020893
v -0.024235 0.085722 0.103791
v -0.003084 0.259409 0.219699
v 0.003084 0.259409 0.219699
v 0.024235 0.085722 0.103791
v -0.024235 0.026821 -0.001282
v 0.024235 0.026821 -0.001282
v -0.024235 0.147387 0.08418
v -0.003084 0.285008 0.200088
v -0.003084 0.259409 0.219699
v -0.024235 0.085722 0.103791
v -0.024235 0.088487 -0.020893
v -0.024235 0.026821 -0.001282
v -0.024235 0.033547 0.010848
v -0.003084 0.13634 0.260237
v -0.003084 0.110741 0.279848
v -0.024235 -0.028118 0.030459
v -0.024235 -0.028118 0.030459
v -0.003084 0.110741 0.279848
v 0.003084 0.110741 0.279848
v 0.024235 -0.028118 0.030459
v 0.024235 0.033547 0.010848
v 0.003084 0.13634 0.260237
v -0.003084 0.13634 0.260237
v -0.024235 0.033547 0.010848
v -0.003084 0.110741 0.279848
v -0.003084 0.13634 0.260237
v 0.003084 0.13634 0.260237
v 0.003084 0.110741 0.279848
v 0.024235 -0.028118 0.030459
v 0.003084 0.110741 0.279848
v 0.003084 0.13634 0.260237
v 0.024235 0.033547 0.010848
v -0.019881 -0.02194 0.039361
v -0.00253 0.011763 0.258063
v -0.00253 -0.012438 0.268745
v -0.019881 -0.074894 0.043066
v -0.019881 -0.074894 0.043066
v -0.00253 -0.012438 0.268745
v 0.00253 -0.012438 0.268745
v 0.019881 -0.074894 0.043066
v 0.019881 -0.02194 0.039361
v 0.00253 0.011763 0.258063
v -0.00253 0.011763 0.258063
v -0.019881 -0.02194 0.039361
v -0.00253 -0.012438 0.268745
v -0.00253 0.011763 0.258063
v 0.00253 0.011763 0.258063
v 0.00253 -0.012438 0.268745
v 0.019881 -0.074894 0.043066
v 0.00253 -0.012438 0.268745
v 0.00253 0.011763 0.258063
v 0.019881 -0.02194 0.039361
v -0.01703 -0.076298 0.039786
v -0.002167 -0.093456 0.228556
v -0.002167 -0.115781 0.232437
v -0.01703 -0.121085 0.031927
v -0.01703 -0.121085 0.031927
v -0.002167 -0.115781 0.232437
v 0.002167 -0.115781 0.232437
v 0.01703 -0.121085 0.031927
v 0.01703 -0.076298 0.039786
v 0.002167 -0.093456 0.228556
v -0.002167 -0.093456 0.228556
v -0.01703 -0.076298 0.039786
v -0.002167 -0.115781 0.232437
v -0.002167 -0.093456 0.228556
v 0.002167 -0.093456 0.228556
v 0.002167 -0.115781 0.232437
v 0.01703 -0.121085 0.031927
v 0.002167 -0.115781 0.232437
v 0.002167 -0.093456 0.228556
v 0.01703 -0.076298 0.039786
v -0.014387 -0.123489 0.02745
v -0.001831 -0.198009 0.169189
v -0.001831 -0.216685 0.164987
v -0.014387 -0.15589 0.006815
v -0.014387 -0.15589 0.006815
v -0.001831 -0.216685 0.164987
v 0.001831 -0.216685 0.164987
v 0.014387 -0.15589 0.006815
v 0.014387 -0.123489 0.02745
v 0.001831 -0.198009 0.169189
v -0.001831 -0.198009 0.169189
v -0.014387 -0.123489 0.02745
v -0.001831 -0.216685 0.164987
v -0.001831 -0.198009 0.169189
v 0.001831 -0.198009 0.169189
v 0.001831 -0.216685 0.164987
v 0.014387 -0.15589 0.006815
v 0.001831 -0.216685 0.164987
v 0.001831 -0.198009 0.169189
v 0.014387 -0.123489 0.02745
v -0.049138 0.088557 -0.078599
v -0.049138 0.12415 -0.083548
v -0.049138 0.12415 0.028646
v -0.049138 0.074648 0.03724
v -0.049138 0.12415 -0.083548
v 0.049138 0.12415 -0.083548
v 0.049138 0.12415 0.028646
v -0.049138 0.12415 0.028646
v 0.049138 0.088557 -0.078599
v 0.049138 -0.154057 -0.062189
v 0.049138 -0.154057 0.015749
v 0.049138 0.074648 0.03724
v 0.049138 -0.154057 -0.062189
v -0.049138 -0.154057 -0.062189
v -0.049138 -0.154057 0.015749
v 0.049138 -0.154057 0.015749
v -0.049138 0.088557 -0.078599
v -0.049138 -0.154057 -0.062189
v 0.049138 -0.154057 -0.062189
v 0.049138 0.088557 -0.078599
v 0.049138 0.074648 0.03724
v 0.049138 -0.154057 0.015749
v -0.049138 -0.154057 0.015749
v -0.049138 0.074648 0.03724
v 0.049138 0.12415 0.028646
v 0.049138 0.132891 0.054111
v -0.049138 0.132891 0.054111
v -0.049138 0.12415 0.028646
v -0.049138 0.12415 -0.083548
v -0.049138 0.088557 -0.078599
v 0.049138 0.088557 -0.078599
v 0.049138 0.12415 -0.083548
v 0.049138 0.12415 -0.083548
v 0.049138 0.088557 -0.078599
v 0.049138 0.074648 0.03724
v 0.049138 0.12415 0.028646
v -0.049138 -0.154057 -0.062189
v -0.049138 0.088557 -0.078599
v -0.049138 0.074648 0.03724
v -0.049138 -0.154057 0.015749
v -0.049138 0.097298 0.05906
v -0.024834 0.156731 0.096991
v 0.024834 0.156731 0.096991
v 0.049138 0.097298 0.05906
v -0.049138 0.074648 0.03724
v -0.049138 0.097298 0.05906
v 0.049138 0.097298 0.05906
v 0.049138 0.074648 0.03724
v 0.049138 0.074648 0.03724
v 0.049138 0.097298 0.05906
v 0.049138 0.132891 0.054111
v 0.049138 0.12415 0.028646
v -0.049138 0.12415 0.028646
v -0.049138 0.132891 0.054111
v -0.049138 0.097298 0.05906
v -0.049138 0.074648 0.03724
v 0.024834 0.174719 0.09449
v 0.024834 0.156731 0.096991
v -0.024834 0.156731 0.096991
v -0.024834 0.174719 0.09449
v 0.049138 0.132891 0.054111
v 0.024834 0.174719 0.09449
v -0.024834 0.174719 0.09449
v -0.049138 0.132891 0.054111
v 0.049138 0.097298 0.05906
v 0.024834 0.156731 0.096991
v 0.024834 0.174719 0.09449
v 0.049138 0.132891 0.054111
v -0.049138 0.132891 0.054111
v -0.024834 0.174719 0.09449
v -0.024834 0.156731 0.096991
v -0.049138 0.097298 0.05906
vt 0.287291 0.469087
vt 0.315363 0.532321
vt 0.318819 0.536062
vt 0.292967 0.474815
vt 0.282701 0.452511
vt 0.286141 0.45739
vt 0.316108 0.533608
vt 0.31889 0.541049
vt 0.318819 0.536062
vt 0.315363 0.532321
vt 0.292967 0.474815
vt 0.318819 0.536062
vt 0.31889 0.541049
vt 0.290817 0.475802
vt 0.286141 0.45739
vt 0.279621 0.457671
vt 0.291447 0.467019
vt 0.316108 0.533608
vt 0.315363 0.532321
vt 0.287291 0.469087
vt 0.279621 0.445636
vt 0.282701 0.452511
vt 0.290817 0.475802
vt 0.31889 0.541049
vt 0.316108 0.533608
vt 0.291447 0.467019
vt 0.279621 0.457671
vt 0.279621 0.445636
vt 0.342895 0.447766
vt 0.320871 0.512195
vt 0.320958 0.514337
vt 0.34697 0.448669
vt 0.34697 0.448669
vt 0.320958 0.514337
vt 0.318927 0.516377
vt 0.342634 0.445636
vt 0.348533 0.445636
vt 0.320192 0.5128
vt 0.320871 0.512195
vt 0.342895 0.447766
vt 0.320958 0.514337
vt 0.320871 0.512195
vt 0.320192 0.5128
vt 0.318927 0.516377
vt 0.342634 0.445636
vt 0.318927 0.516377
vt 0.320192 0.5128
vt 0.348533 0.445636
vt 0.34857 0.445636
vt 0.371847 0.500802
vt 0.372887 0.50374
vt 0.353415 0.445636
vt 0.353415 0.445636
vt 0.372887 0.50374
vt 0.371219 0.502065
vt 0.349853 0.448127
vt 0.3532 0.447386
vt 0.37129 0.500305
vt 0.371847 0.500802
vt 0.34857 0.445636
vt 0.372887 0.50374
vt 0.371847 0.500802
vt 0.37129 0.500305
vt 0.371219 0.502065
vt 0.349853 0.448127
vt 0.371219 0.502065
vt 0.37129 0.500305
vt 0.3532 0.447386
vt 0.372923 0.449802
vt 0.374901 0.496996
vt 0.375579 0.49837
vt 0.376518 0.445636
vt 0.376518 0.445636
vt 0.375579 0.49837
vt 0.374549 0.500146
vt 0.373418 0.448377
vt 0.376518 0.450703
vt 0.374548 0.497585
vt 0.374901 0.496996
vt 0.372923 0.449802
vt 0.375579 0.49837
vt 0.374901 0.496996
vt 0.374548 0.497585
vt 0.374549 0.500146
vt 0.373418 0.448377
vt 0.374549 0.500146
vt 0.374548 0.497585
vt 0.376518 0.450703
vt 0.34857 0.508151
vt 0.360839 0.550457
vt 0.36062 0.549207
vt 0.350812 0.503776
vt 0.350812 0.503776
vt 0.36062 0.549207
vt 0.360261 0.54878
vt 0.348844 0.506762
vt 0.351812 0.508151
vt 0.3608 0.548868
vt 0.360839 0.550457
vt 0.34857 0.508151
vt 0.36062 0.549207
vt 0.360839 0.550457
vt 0.3608 0.548868
vt 0.360261 0.54878
vt 0.348844 0.506762
vt 0.360261 0.54878
vt 0.3608 0.548868
vt 0.351812 0.508151
vt 0.669525 0.220306
vt 0.669525 0.295319
vt 0.744537 0.295319
vt 0.744537 0.220306
vt 0.669525 0.220306
vt 0.669525 0.295319
vt 0.744537 0.295319
vt 0.744537 0.220306
vt 0.669525 0.220306
vt 0.669525 0.295319
vt 0.744537 0.295319
vt 0.744537 0.220306
vt 0.669525 0.220306
vt 0.669525 0.295319
vt 0.744537 0.295319
vt 0.744537 0.220306
vt 0.279602 0.445618
vt 0.279602 0.550476
vt 0.38446 0.550476
vt 0.38446 0.445618
vt 0.279602 0.445618
vt 0.279602 0.550476
vt 0.38446 0.550476
vt 0.38446 0.445618
vt 0.669525 0.220306
vt 0.669525 0.295319
vt 0.744537 0.295319
vt 0.744537 0.220306
vt 0.279602 0.445618
vt 0.279602 0.550476
vt 0.38446 0.550476
vt 0.38446 0.445618
vt 0.669525 0.220306
vt 0.669525 0.295319
vt 0.744537 0.295319
vt 0.744537 0.220306
vt 0.669525 0.220306
vt 0.669525 0.295319
vt 0.744537 0.295319
vt 0.744537 0.220306
vt 0.669525 0.220306
vt 0.669525 0.295319
vt 0.744537 0.295319
vt 0.744537 0.220306
vt 0.669525 0.220306
vt 0.669525 0.295319
vt 0.744537 0.295319
vt 0.744537 0.220306
vt 0.669525 0.220306
vt 0.669525 0.295319
vt 0.744537 0.295319
vt 0.744537 0.220306
vt 0.669525 0.220306
vt 0.669525 0.295319
vt 0.744537 0.295319
vt 0.744537 0.220306
vt 0.279602 0.445618
vt 0.279602 0.550476
vt 0.38446 0.550476
vt 0.38446 0.445618
vt 0.669525 0.220306
vt 0.669525 0.295319
vt 0.744537 0.295319
vt 0.744537 0.220306
vt 0.669525 0.220306
vt 0.669525 0.295319
vt 0.744537 0.295319
vt 0.744537 0.220306
vt 0.669525 0.220306
vt 0.669525 0.295319
vt 0.744537 0.295319
vt 0.744537 0.220306
vn 0.7681572 -0.4525634 0.4529026
vn 0.8178255 -0.2293777 0.5277758
vn 0.9885603 0.06765231 0.1348025
vn 0.8704267 0.4236162 -0.2508121
vn 0.7513588 -0.5756209 0.322677
vn 0.8279927 0.4891306 -0.2741884
vn -0.8178255 -0.2293777 0.5277758
vn -0.9885603 0.06765231 0.1348025
vn 0.9885603 0.06765231 0.1348025
vn 0.8178255 -0.2293777 0.5277758
vn 0.8704267 0.4236162 -0.2508121
vn 0 0.6441898 -0.7648657
vn 0 0.6441898 -0.7648657
vn -0.8704267 0.4236162 -0.2508121
vn 0.8279927 0.4891306 -0.2741884
vn -0.8279927 0.4891306 -0.2741884
vn -0.7681572 -0.4525634 0.4529026
vn -0.8178255 -0.2293777 0.5277758
vn 0.8178255 -0.2293777 0.5277758
vn 0.7681572 -0.4525634 0.4529026
vn -0.7513588 -0.5756209 0.322677
vn 0.7513588 -0.5756209 0.322677
vn -0.8704267 0.4236162 -0.2508121
vn -0.9885603 0.06765231 0.1348025
vn -0.8178255 -0.2293777 0.5277758
vn -0.7681572 -0.4525634 0.4529026
vn -0.8279927 0.4891306 -0.2741884
vn -0.7513588 -0.5756209 0.322677
vn -0.8907983 0.4412901 -0.1083572
vn -0.8894451 0.4462848 -0.09857561
vn -0.8233309 -0.4543722 0.340106
vn -0.8371504 -0.4436553 0.3199206
vn -0.8371504 -0.4436553 0.3199206
vn -0.8233309 -0.4543722 0.340106
vn 0.8233309 -0.4543722 0.340106
vn 0.8371503 -0.4436554 0.3199206
vn 0.8907983 0.4412901 -0.1083572
vn 0.8894451 0.4462848 -0.0985756
vn -0.8894451 0.4462848 -0.09857561
vn -0.8907983 0.4412901 -0.1083572
vn -0.8233309 -0.4543722 0.340106
vn -0.8894451 0.4462848 -0.09857561
vn 0.8894451 0.4462848 -0.0985756
vn 0.8233309 -0.4543722 0.340106
vn 0.8371503 -0.4436554 0.3199206
vn 0.8233309 -0.4543722 0.340106
vn 0.8894451 0.4462848 -0.0985756
vn 0.8907983 0.4412901 -0.1083572
vn -0.8907977 0.4543985 -0.001238536
vn -0.8894461 0.4569425 0.009445584
vn -0.823329 -0.5217632 0.2233667
vn -0.8371496 -0.5065869 0.2062773
vn -0.8371496 -0.5065869 0.2062773
vn -0.823329 -0.5217632 0.2233667
vn 0.823329 -0.5217632 0.2233667
vn 0.8371496 -0.5065869 0.2062773
vn 0.8907977 0.4543985 -0.001238536
vn 0.8894461 0.4569425 0.009445584
vn -0.8894461 0.4569425 0.009445584
vn -0.8907977 0.4543985 -0.001238536
vn -0.823329 -0.5217632 0.2233667
vn -0.8894461 0.4569425 0.009445584
vn 0.8894461 0.4569425 0.009445584
vn 0.823329 -0.5217632 0.2233667
vn 0.8371496 -0.5065869 0.2062773
vn 0.823329 -0.5217632 0.2233667
vn 0.8894461 0.4569425 0.009445584
vn 0.8907977 0.4543985 -0.001238536
vn -0.8908011 0.44128 0.1083757
vn -0.8894477 0.4411764 0.1193574
vn -0.8233306 -0.5602266 0.09095594
vn -0.8371481 -0.5413818 0.07803158
vn -0.8371481 -0.5413818 0.07803158
vn -0.8233306 -0.5602266 0.09095594
vn 0.8233306 -0.5602266 0.09095594
vn 0.8371481 -0.5413818 0.07803158
vn 0.8908012 0.44128 0.1083757
vn 0.8894477 0.4411764 0.1193574
vn -0.8894477 0.4411764 0.1193574
vn -0.8908011 0.44128 0.1083757
vn -0.8233306 -0.5602266 0.09095594
vn -0.8894477 0.4411764 0.1193574
vn 0.8894477 0.4411764 0.1193574
vn 0.8233306 -0.5602266 0.09095594
vn 0.8371481 -0.5413818 0.07803158
vn 0.8233306 -0.5602266 0.09095594
vn 0.8894477 0.4411764 0.1193574
vn 0.8908012 0.44128 0.1083757
vn -0.8907936 0.3660442 0.2692551
vn -0.8894392 0.3617397 0.2793605
vn -0.8233315 -0.5522963 -0.1307434
vn -0.8371462 -0.5299404 -0.1354603
vn -0.8371462 -0.5299404 -0.1354603
vn -0.8233315 -0.5522963 -0.1307434
vn 0.8233315 -0.5522963 -0.1307434
vn 0.8371462 -0.5299403 -0.1354603
vn 0.8907937 0.3660442 0.2692551
vn 0.8894392 0.3617396 0.2793605
vn -0.8894392 0.3617397 0.2793605
vn -0.8907936 0.3660442 0.2692551
vn -0.8233315 -0.5522963 -0.1307434
vn -0.8894392 0.3617397 0.2793605
vn 0.8894392 0.3617396 0.2793605
vn 0.8233315 -0.5522963 -0.1307434
vn 0.8371462 -0.5299403 -0.1354603
vn 0.8233315 -0.5522963 -0.1307434
vn 0.8894392 0.3617396 0.2793605
vn 0.8907937 0.3660442 0.2692551
vn -0.684138 -0.05583086 -0.7272127
vn -0.3670197 0.8828605 -0.2930081
vn -0.4352968 0.8984775 -0.05705106
vn -0.7427187 -0.1137038 0.6598791
vn -0.3670197 0.8828605 -0.2930081
vn 0.3670197 0.8828605 -0.2930081
vn 0.4352968 0.8984775 -0.05705106
vn -0.4352968 0.8984775 -0.05705106
vn 0.684138 -0.05583086 -0.7272127
vn 0.6816414 -0.2651924 -0.6819369
vn 0.7028112 -0.2836253 0.6523904
vn 0.7427187 -0.1137038 0.6598791
vn 0.6816414 -0.2651924 -0.6819369
vn -0.6816414 -0.2651924 -0.6819369
vn -0.7028112 -0.2836253 0.6523904
vn 0.7028112 -0.2836253 0.6523904
vn -0.684138 -0.05583086 -0.7272127
vn -0.6816414 -0.2651924 -0.6819369
vn 0.6816414 -0.2651924 -0.6819369
vn 0.684138 -0.05583086 -0.7272127
vn 0.7427187 -0.1137038 0.6598791
vn 0.7028112 -0.2836253 0.6523904
vn -0.7028112 -0.2836253 0.6523904
vn -0.7427187 -0.1137038 0.6598791
vn 0.4352968 0.8984775 -0.05705106
vn 0.4482066 0.8099293 -0.3783194
vn -0.4482065 0.8099291 -0.3783194
vn -0.4352968 0.8984775 -0.05705106
vn -0.3670197 0.8828605 -0.2930081
vn -0.684138 -0.05583086 -0.7272127
vn 0.684138 -0.05583086 -0.7272127
vn 0.3670197 0.8828605 -0.2930081
vn 0.3670197 0.8828605 -0.2930081
vn 0.684138 -0.05583086 -0.7272127
vn 0.7427187 -0.1137038 0.6598791
vn 0.4352968 0.8984775 -0.05705106
vn -0.6816414 -0.2651924 -0.6819369
vn -0.684138 -0.05583086 -0.7272127
vn -0.7427187 -0.1137038 0.6598791
vn -0.7028112 -0.2836253 0.6523904
vn -0.2836809 -0.5589895 0.779138
vn -0.2315581 -0.3885268 0.8918675
vn 0.2315581 -0.3885268 0.8918675
vn 0.2836809 -0.5589895 0.779138
vn -0.7427187 -0.1137038 0.6598791
vn -0.2836809 -0.5589895 0.779138
vn 0.2836809 -0.5589895 0.779138
vn 0.7427187 -0.1137038 0.6598791
vn 0.7427187 -0.1137038 0.6598791
vn 0.2836809 -0.5589895 0.779138
vn 0.4482066 0.8099293 -0.3783194
vn 0.4352968 0.8984775 -0.05705106
vn -0.4352968 0.8984775 -0.05705106
vn -0.4482065 0.8099291 -0.3783194
vn -0.2836809 -0.5589895 0.779138
vn -0.7427187 -0.1137038 0.6598791
vn 0.5032099 0.1190075 0.8559306
vn 0.2315581 -0.3885268 0.8918675
vn -0.2315581 -0.3885268 0.8918675
vn -0.5032099 0.1190074 0.8559306
vn 0.4482066 0.8099293 -0.3783194
vn 0 0.6945353 -0.7194586
vn 0 0.6945353 -0.7194586
vn -0.4482065 0.8099291 -0.3783194
vn 0.2836809 -0.5589895 0.779138
vn 0.2315581 -0.3885268 0.8918675
vn 0.5032099 0.1190075 0.8559306
vn 0.4482066 0.8099293 -0.3783194
vn -0.4482065 0.8099291 -0.3783194
vn -0.5032099 0.1190074 0.8559306
vn -0.2315581 -0.3885268 0.8918675
vn -0.2836809 -0.5589895 0.779138
g Cockatoo_Frill_0
f 3/3/3 2/2/2 1/1/1
f 4/4/4 3/3/3 1/1/1
f 4/4/4 1/1/1 5/5/5
f 6/6/6 4/4/4 5/5/5
f 9/9/9 8/8/8 7/7/7
f 10/10/10 9/9/9 7/7/7
f 13/13/13 12/12/12 11/11/11
f 14/14/14 13/13/13 11/11/11
f 14/14/14 11/11/11 15/15/15
f 16/16/16 14/14/14 15/15/15
f 19/19/19 18/18/18 17/17/17
f 20/20/20 19/19/19 17/17/17
f 20/20/20 17/17/17 21/21/21
f 22/22/22 20/20/20 21/21/21
f 25/25/25 24/24/24 23/23/23
f 26/26/26 25/25/25 23/23/23
f 26/26/26 23/23/23 27/27/27
f 28/28/28 26/26/26 27/27/27
f 31/31/31 30/30/30 29/29/29
f 32/32/32 31/31/31 29/29/29
f 35/35/35 34/34/34 33/33/33
f 36/36/36 35/35/35 33/33/33
f 39/39/39 38/38/38 37/37/37
f 40/40/40 39/39/39 37/37/37
f 43/43/43 42/42/42 41/41/41
f 44/44/44 43/43/43 41/41/41
f 47/47/47 46/46/46 45/45/45
f 48/48/48 47/47/47 45/45/45
f 51/51/51 50/50/50 49/49/49
f 52/52/52 51/51/51 49/49/49
f 55/55/55 54/54/54 53/53/53
f 56/56/56 55/55/55 53/53/53
f 59/59/59 58/58/58 57/57/57
f 60/60/60 59/59/59 57/57/57
f 63/63/63 62/62/62 61/61/61
f 64/64/64 63/63/63 61/61/61
f 67/67/67 66/66/66 65/65/65
f 68/68/68 67/67/67 65/65/65
f 71/71/71 70/70/70 69/69/69
f 72/72/72 71/71/71 69/69/69
f 75/75/75 74/74/74 73/73/73
f 76/76/76 75/75/75 73/73/73
f 79/79/79 78/78/78 77/77/77
f 80/80/80 79/79/79 77/77/77
f 83/83/83 82/82/82 81/81/81
f 84/84/84 83/83/83 81/81/81
f 87/87/87 86/86/86 85/85/85
f 88/88/88 87/87/87 85/85/85
f 91/91/91 90/90/90 89/89/89
f 92/92/92 91/91/91 89/89/89
f 95/95/95 94/94/94 93/93/93
f 96/96/96 95/95/95 93/93/93
f 99/99/99 98/98/98 97/97/97
f 100/100/100 99/99/99 97/97/97
f 103/103/103 102/102/102 101/101/101
f 104/104/104 103/103/103 101/101/101
f 107/107/107 106/106/106 105/105/105
f 108/108/108 107/107/107 105/105/105
f 111/111/111 110/110/110 109/109/109
f 112/112/112 111/111/111 109/109/109
f 115/115/115 114/114/114 113/113/113
f 116/116/116 115/115/115 113/113/113
f 119/119/119 118/118/118 117/117/117
f 120/120/120 119/119/119 117/117/117
f 123/123/123 122/122/122 121/121/121
f 124/124/124 123/123/123 121/121/121
f 127/127/127 126/126/126 125/125/125
f 128/128/128 127/127/127 125/125/125
f 131/131/131 130/130/130 129/129/129
f 132/132/132 131/131/131 129/129/129
f 135/135/135 134/134/134 133/133/133
f 136/136/136 135/135/135 133/133/133
f 139/139/139 138/138/138 137/137/137
f 140/140/140 139/139/139 137/137/137
f 143/143/143 142/142/142 141/141/141
f 144/144/144 143/143/143 141/141/141
f 147/147/147 146/146/146 145/145/145
f 148/148/148 147/147/147 145/145/145
f 151/151/151 150/150/150 149/149/149
f 152/152/152 151/151/151 149/149/149
f 155/155/155 154/154/154 153/153/153
f 156/156/156 155/155/155 153/153/153
f 159/159/159 158/158/158 157/157/157
f 160/160/160 159/159/159 157/157/157
f 163/163/163 162/162/162 161/161/161
f 164/164/164 163/163/163 161/161/161
f 167/167/167 166/166/166 165/165/165
f 168/168/168 167/167/167 165/165/165
f 171/171/171 170/170/170 169/169/169
f 172/172/172 171/171/171 169/169/169
f 175/175/175 174/174/174 173/173/173
f 176/176/176 175/175/175 173/173/173
f 179/179/179 178/178/178 177/177/177
f 180/180/180 179/179/179 177/177/177
