g CoconutTree
v -0.165373 0.38343 0.565375
v -0.325211 0.488923 -0.118276
v 0.065217 0.621122 -0.104884
v 0.119509 0.479762 0.579258
v -0.043757 0.2845 1.319589
v 0.455674 0.491059 -0.104661
v 0.156458 0.352258 1.335218
v 0.001412 0.198699 2.214926
v 0.370024 0.311601 1.106411
v 0.586513 0.097084 -0.122574
v 0.158721 0.252468 2.234814
v -0.043432 0.117846 3.18488
v 0.092092 0.164898 3.210417
v -0.191854 0.033761 4.162944
v 0.317615 0.199285 2.248953
v 0.443021 0.090057 1.13152
v -0.077635 0.074057 4.1944
v -0.409025 -0.031043 5.067265
v 0.229278 0.118375 3.230851
v -0.311423 0.003988 5.103548
v -0.660117 -0.054051 5.81599
v 0.408904 -0.189718 0.553995
v 0.456733 -0.297134 -0.14481
v 0.373771 0.039004 2.246043
v 0.03831 0.034201 4.221707
v -0.297072 -0.045125 5.415911
v -0.570236 -0.021263 5.854646
v -1.14039 -0.060425 7.023417
v -1.054544 -0.031157 7.044493
v -0.945146 -0.060214 7.017084
v -0.910034 -0.149256 7.0142
v 0.278076 -0.021835 3.230942
v -0.445469 -0.151369 5.899298
v -0.919864 -0.238878 6.965351
v 0.079864 -0.085876 4.225387
v -0.472966 -0.249211 5.882967
v -0.922067 -0.273794 6.733443
v -0.176205 -0.13507 5.143473
v -0.206199 -0.23963 5.127152
v 0.044394 -0.206138 4.209424
v -0.369647 -0.280102 5.313836
v 0.049891 -0.225262 3.598594
v 0.235545 -0.162254 3.215668
v -0.4741 -0.246056 5.298126
v -1.129658 -0.237187 6.997857
v 0.323987 -0.121496 2.23177
v 0.36376 -0.118954 1.322842
v 0.165062 -0.175337 2.21182
v 0.161812 -0.186584 1.307286
v -0.688246 -0.151946 5.799416
v -1.163677 -0.148486 7.003016
v -0.660117 -0.054051 5.81599
v -1.14039 -0.060425 7.023417
v -0.409025 -0.031043 5.067265
v -0.439661 -0.135711 5.050748
v -0.191854 0.033761 4.162944
v -0.187584 -0.206808 4.150334
v -0.228231 -0.086616 4.146818
v -0.043432 0.117846 3.18488
v -0.039725 -0.162975 3.169446
v -0.087243 -0.022668 3.16948
v 0.001412 0.198699 2.214926
v 0.004553 -0.122228 2.197619
v -0.049988 0.038126 2.200591
v -0.043757 0.2845 1.319589
v -0.041475 -0.119503 1.298713
v -0.109867 0.082386 1.305117
v -0.165373 0.38343 0.565375
v -0.260281 0.096728 0.548028
v -0.325211 0.488923 -0.118276
v -0.455964 0.096112 -0.139869
v -0.16453 -0.189739 0.536592
v -0.326097 -0.296455 -0.157138
v 0.065332 -0.427926 -0.157558
v 0.12257 -0.28537 0.540441
v -1.256333 -0.021328 7.439682
v -1.383059 -0.03817 7.669047
v -1.392393 -0.055004 7.543014
v -1.291727 -0.062221 7.628994
v -1.177144 -0.049092 7.46681
v -1.148822 -0.132531 7.473385
v -1.303405 -0.120282 7.693301
v -1.288918 -0.184795 7.624568
v -1.173168 -0.21607 7.46118
v -0.910034 -0.149256 7.0142
v -0.919864 -0.238878 6.965351
v -0.945146 -0.060214 7.017084
v -1.054544 -0.031157 7.044493
v -1.14039 -0.060425 7.023417
v -1.392393 -0.055004 7.543014
v -1.383059 -0.03817 7.669047
v -1.291727 -0.062221 7.628994
v -1.303405 -0.120282 7.693301
v -1.42374 -0.116325 7.742616
v -1.459284 -0.12057 7.638536
v -1.392393 -0.055004 7.543014
v -1.379629 -0.202683 7.66279
v -1.288918 -0.184795 7.624568
v -1.359493 -0.132928 7.398267
v -1.14039 -0.060425 7.023417
v -1.163677 -0.148486 7.003016
v -1.385186 -0.19917 7.519552
v -1.129658 -0.237187 6.997857
v -1.244008 -0.246091 7.424235
v -1.173168 -0.21607 7.46118
v -0.922067 -0.273794 6.733443
v -0.919864 -0.238878 6.965351
vt 0.703997 0.502256
vt 0.703997 0.417113
vt 0.660752 0.417113
vt 0.658905 0.502256
vt 0.703997 0.595115
vt 0.614477 0.417113
vt 0.657114 0.595115
vt 0.703997 0.703408
vt 0.609677 0.566214
vt 0.562142 0.417113
vt 0.655438 0.703408
vt 0.703997 0.836114
vt 0.65382 0.836114
vt 0.703997 1.002213
vt 0.606162 0.703408
vt 0.558248 0.570202
vt 0.652201 1.002213
vt 0.703997 1.181145
vt 0.603595 0.836114
vt 0.650488 1.181103
vt 0.703997 1.352352
vt 0.505938 0.502256
vt 0.506756 0.417113
vt 0.555452 0.703408
vt 0.601027 1.002213
vt 0.597241 1.243439
vt 0.648585 1.352182
vt 0.703997 1.519697
vt 0.646588 1.519357
vt 0.592247 1.519017
vt 0.544044 1.518678
vt 0.553276 0.836114
vt 0.546483 1.351843
vt 0.498892 1.518338
vt 0.551099 1.002213
vt 0.499776 1.351673
vt 0.453705 1.517999
vt 0.548857 1.181018
vt 0.500718 1.180975
vt 0.501775 1.002213
vt 0.452685 1.230662
vt 0.452444 0.904226
vt 0.50289 0.836114
vt 0.403983 1.234825
vt 0.406451 1.517659
vt 0.504005 0.703408
vt 0.505045 0.595115
vt 0.452518 0.703408
vt 0.452402 0.595115
vt 0.35398 1.351164
vt 0.355095 1.51732
vt 0.301689 1.350994
vt 0.301689 1.516981
vt 0.301689 1.180806
vt 0.353018 1.180848
vt 0.301689 1.002213
vt 0.402709 1.002213
vt 0.35236 1.002213
vt 0.301689 0.836114
vt 0.402091 0.836114
vt 0.351855 0.836114
vt 0.301689 0.703408
vt 0.401473 0.703408
vt 0.35135 0.703408
vt 0.301689 0.595115
vt 0.400648 0.595115
vt 0.350714 0.595115
vt 0.301689 0.502256
vt 0.349814 0.502256
vt 0.301689 0.417113
vt 0.348783 0.417113
vt 0.39941 0.502256
vt 0.397965 0.417113
vt 0.451326 0.417113
vt 0.451949 0.502256
vt 0.427922 0.701559
vt 0.409243 0.744904
vt 0.415394 0.72784
vt 0.408811 0.74839
vt 0.428176 0.704037
vt 0.430223 0.702042
vt 0.411114 0.74521
vt 0.414784 0.738697
vt 0.433165 0.697811
vt 0.447967 0.663858
vt 0.453546 0.659996
vt 0.44617 0.660792
vt 0.445473 0.657308
vt 0.446088 0.655604
vt 0.418349 0.721373
vt 0.409243 0.744904
vt 0.407444 0.751723
vt 0.411114 0.74521
vt 0.412081 0.740496
vt 0.417308 0.726547
vt 0.418349 0.721373
vt 0.418819 0.72682
vt 0.418462 0.730104
vt 0.431055 0.694124
vt 0.442199 0.661799
vt 0.445781 0.654728
vt 0.425896 0.708806
vt 0.449894 0.652192
vt 0.433823 0.69358
vt 0.433165 0.697811
vt 0.458441 0.642145
vt 0.453546 0.659996
vn -0.693059 0.6799703 0.2393945
vn -0.7130867 0.648295 0.2668724
vn 0.01596439 0.9800547 0.1980854
vn 0.04088897 0.9815828 0.1866098
vn -0.7045158 0.6918492 0.1581215
vn 0.7259205 0.670899 0.1514398
vn -0.02025708 0.9908976 0.1330849
vn -0.7121851 0.6988088 0.06677313
vn 0.8140782 0.5674531 0.1235871
vn 0.993104 0.01550598 0.1162064
vn 0.007517623 0.9948547 0.1010321
vn -0.7120284 0.7021011 -0.008331507
vn -0.00429732 0.9959725 0.08955729
vn -0.7078661 0.7019129 -0.07901781
vn 0.7165363 0.6891145 0.1081523
vn 0.9885907 0.1168572 0.09504157
vn -0.006234648 0.9965237 0.08307622
vn -0.6915599 0.7053359 -0.155712
vn 0.6991394 0.6981174 0.1543895
vn 0.009801375 0.9979339 0.06349789
vn -0.6684297 0.7046235 -0.2381334
vn 0.7503583 -0.6472562 0.1342455
vn 0.720542 -0.6769128 0.1503604
vn 0.996594 0.02698957 0.07792214
vn 0.683522 0.6982067 0.2128499
vn 0.6725736 0.6943619 0.2559421
vn 0.03088986 0.9991089 0.02876394
vn -0.6519904 0.7053393 -0.2782178
vn -0.03824032 0.9991702 -0.01402188
vn 0.6069267 0.7491716 0.2652955
vn 0.9105414 0.08862537 0.4038069
vn 0.989432 0.01433461 0.1442872
vn 0.923726 0.09598855 0.3708321
vn 0.7225812 -0.6088008 0.327472
vn 0.972202 0.02957397 0.2322686
vn 0.5986705 -0.7650026 0.2374124
vn -0.05461862 -0.9984233 -0.0129428
vn 0.9557374 0.05439958 0.2891484
vn 0.5821518 -0.8002543 0.1438484
vn 0.6255079 -0.7709718 0.1197589
vn -0.1272234 -0.9903712 -0.05458216
vn 0.03099527 -0.9990233 -0.03149159
vn 0.6773756 -0.7335722 0.05508122
vn -0.4896529 -0.8556007 -0.1678919
vn -0.7833148 -0.5391282 -0.3094491
vn 0.7070872 -0.70644 0.03114887
vn 0.6930644 -0.7182314 0.06168788
vn 0.01373289 -0.9998363 -0.01177505
vn 0.004947578 -0.9971522 0.0752525
vn -0.935203 -0.01443991 -0.3538176
vn -0.9235595 0.02326745 -0.3827486
vn -0.6684297 0.7046235 -0.2381334
vn -0.6519904 0.7053393 -0.2782178
vn -0.6915599 0.7053359 -0.155712
vn -0.9675485 -0.01377008 -0.2523096
vn -0.7078661 0.7019129 -0.07901781
vn -0.6593556 -0.7338275 -0.163546
vn -0.9830385 -0.006638301 -0.1832792
vn -0.7120284 0.7021011 -0.008331507
vn -0.6771572 -0.7304688 -0.08873169
vn -0.9961352 -0.008385015 -0.08743197
vn -0.7121851 0.6988088 0.06677313
vn -0.691987 -0.7217891 -0.01321367
vn -0.9998086 -0.008917676 0.01741693
vn -0.7045158 0.6918492 0.1581215
vn -0.6972191 -0.7077597 0.1138499
vn -0.990459 -0.008985151 0.1375148
vn -0.693059 0.6799703 0.2393945
vn -0.9704505 -0.01064792 0.2410654
vn -0.7130867 0.648295 0.2668724
vn -0.9615992 -0.02346931 0.2734523
vn -0.6833439 -0.6934358 0.2284465
vn -0.6848224 -0.6793444 0.2636465
vn -0.023484 -0.9791697 0.2016814
vn 0.00143864 -0.9855435 0.1694163
vn -0.07153883 0.9968815 -0.03331209
vn -0.1863693 0.9028208 0.387532
vn -0.6633051 0.704524 -0.2523334
vn 0.5477946 0.6885296 0.4752348
vn 0.6205804 0.7044671 0.3443921
vn 0.8690171 -0.001776688 0.4947789
vn 0.6214976 -0.0123045 0.7833195
vn 0.5188809 -0.6739385 0.5258989
vn 0.6704515 -0.6062147 0.4277835
vn 0.9105414 0.08862537 0.4038069
vn 0.7225812 -0.6088008 0.327472
vn 0.6069267 0.7491716 0.2652955
vn -0.03824032 0.9991702 -0.01402188
vn -0.6519904 0.7053393 -0.2782178
vn -0.6633051 0.704524 -0.2523334
vn -0.1863693 0.9028208 0.387532
vn 0.5477946 0.6885296 0.4752348
vn 0.6214976 -0.0123045 0.7833195
vn -0.5787164 -0.04436444 0.8143212
vn -0.9974769 -0.05865246 0.0399977
vn -0.6633051 0.704524 -0.2523334
vn -0.2259025 -0.8797531 0.418333
vn 0.5188809 -0.6739385 0.5258989
vn -0.9009194 0.01949703 -0.4335483
vn -0.6519904 0.7053393 -0.2782178
vn -0.9235595 0.02326745 -0.3827486
vn -0.7121629 -0.6688622 -0.2131842
vn -0.7833148 -0.5391282 -0.3094491
vn -0.06611997 -0.9957548 0.06403482
vn 0.6704515 -0.6062147 0.4277835
vn -0.05461862 -0.9984233 -0.0129428
vn 0.7225812 -0.6088008 0.327472
g CoconutTree_0
f 3/3/3 2/2/2 1/1/1
f 4/4/4 3/3/3 1/1/1
f 4/4/4 1/1/1 5/5/5
f 3/3/3 4/4/4 6/6/6
f 7/7/7 4/4/4 5/5/5
f 7/7/7 5/5/5 8/8/8
f 4/4/4 9/9/9 6/6/6
f 9/9/9 4/4/4 7/7/7
f 10/10/10 6/6/6 9/9/9
f 11/11/11 7/7/7 8/8/8
f 7/7/7 11/11/11 9/9/9
f 11/11/11 8/8/8 12/12/12
f 13/13/13 11/11/11 12/12/12
f 13/13/13 12/12/12 14/14/14
f 11/11/11 15/15/15 9/9/9
f 11/11/11 13/13/13 15/15/15
f 16/16/16 10/10/10 9/9/9
f 16/16/16 9/9/9 15/15/15
f 17/17/17 13/13/13 14/14/14
f 17/17/17 14/14/14 18/18/18
f 13/13/13 19/19/19 15/15/15
f 13/13/13 17/17/17 19/19/19
f 20/20/20 17/17/17 18/18/18
f 20/20/20 18/18/18 21/21/21
f 16/16/16 22/22/22 10/10/10
f 22/22/22 23/23/23 10/10/10
f 24/24/24 16/16/16 15/15/15
f 24/24/24 15/15/15 19/19/19
f 17/17/17 25/25/25 19/19/19
f 17/17/17 20/20/20 25/25/25
f 20/20/20 26/26/26 25/25/25
f 27/27/27 20/20/20 21/21/21
f 26/26/26 20/20/20 27/27/27
f 27/27/27 21/21/21 28/28/28
f 29/29/29 27/27/27 28/28/28
f 27/27/27 29/29/29 30/30/30
f 26/26/26 27/27/27 30/30/30
f 26/26/26 30/30/30 31/31/31
f 32/32/32 19/19/19 25/25/25
f 32/32/32 24/24/24 19/19/19
f 33/33/33 26/26/26 31/31/31
f 33/33/33 31/31/31 34/34/34
f 35/35/35 25/25/25 26/26/26
f 35/35/35 32/32/32 25/25/25
f 36/36/36 33/33/33 34/34/34
f 36/36/36 34/34/34 37/37/37
f 38/38/38 26/26/26 33/33/33
f 38/38/38 35/35/35 26/26/26
f 33/33/33 36/36/36 38/38/38
f 35/35/35 38/38/38 39/39/39
f 36/36/36 39/39/39 38/38/38
f 35/35/35 40/40/40 32/32/32
f 40/40/40 35/35/35 39/39/39
f 39/39/39 36/36/36 41/41/41
f 41/41/41 36/36/36 37/37/37
f 40/40/40 39/39/39 41/41/41
f 42/42/42 40/40/40 41/41/41
f 40/40/40 43/43/43 32/32/32
f 24/24/24 32/32/32 43/43/43
f 43/43/43 40/40/40 42/42/42
f 41/41/41 37/37/37 44/44/44
f 42/42/42 41/41/41 44/44/44
f 37/37/37 45/45/45 44/44/44
f 46/46/46 24/24/24 43/43/43
f 46/46/46 43/43/43 42/42/42
f 24/24/24 46/46/46 16/16/16
f 46/46/46 47/47/47 16/16/16
f 47/47/47 22/22/22 16/16/16
f 46/46/46 48/48/48 47/47/47
f 48/48/48 46/46/46 42/42/42
f 22/22/22 47/47/47 49/49/49
f 48/48/48 49/49/49 47/47/47
f 50/50/50 44/44/44 45/45/45
f 51/51/51 50/50/50 45/45/45
f 50/50/50 51/51/51 52/52/52
f 51/51/51 53/53/53 52/52/52
f 50/50/50 52/52/52 54/54/54
f 55/55/55 50/50/50 54/54/54
f 44/44/44 50/50/50 55/55/55
f 55/55/55 54/54/54 56/56/56
f 57/57/57 42/42/42 44/44/44
f 57/57/57 44/44/44 55/55/55
f 58/58/58 55/55/55 56/56/56
f 58/58/58 57/57/57 55/55/55
f 58/58/58 56/56/56 59/59/59
f 60/60/60 42/42/42 57/57/57
f 48/48/48 42/42/42 60/60/60
f 57/57/57 58/58/58 60/60/60
f 61/61/61 58/58/58 59/59/59
f 58/58/58 61/61/61 60/60/60
f 61/61/61 59/59/59 62/62/62
f 63/63/63 48/48/48 60/60/60
f 63/63/63 60/60/60 61/61/61
f 48/48/48 63/63/63 49/49/49
f 64/64/64 61/61/61 62/62/62
f 64/64/64 63/63/63 61/61/61
f 64/64/64 62/62/62 65/65/65
f 63/63/63 66/66/66 49/49/49
f 63/63/63 64/64/64 66/66/66
f 67/67/67 64/64/64 65/65/65
f 64/64/64 67/67/67 66/66/66
f 67/67/67 65/65/65 68/68/68
f 69/69/69 67/67/67 68/68/68
f 67/67/67 69/69/69 66/66/66
f 69/69/69 68/68/68 70/70/70
f 71/71/71 69/69/69 70/70/70
f 69/69/69 71/71/71 72/72/72
f 69/69/69 72/72/72 66/66/66
f 71/71/71 73/73/73 72/72/72
f 72/72/72 73/73/73 74/74/74
f 75/75/75 49/49/49 66/66/66
f 72/72/72 75/75/75 66/66/66
f 75/75/75 72/72/72 74/74/74
f 75/75/75 22/22/22 49/49/49
f 75/75/75 74/74/74 23/23/23
f 22/22/22 75/75/75 23/23/23
g CoconutTree_1
f 78/78/78 77/77/77 76/76/76
f 76/76/76 77/77/77 79/79/79
f 80/80/80 76/76/76 79/79/79
f 81/81/81 80/80/80 79/79/79
f 82/82/82 81/81/81 79/79/79
f 81/81/81 82/82/82 83/83/83
f 84/84/84 81/81/81 83/83/83
f 81/81/81 84/84/84 85/85/85
f 84/84/84 86/86/86 85/85/85
f 81/81/81 85/85/85 87/87/87
f 80/80/80 81/81/81 87/87/87
f 80/80/80 87/87/87 88/88/88
f 76/76/76 80/80/80 88/88/88
f 76/76/76 88/88/88 89/89/89
f 90/90/90 76/76/76 89/89/89
f 93/93/93 92/92/92 91/91/91
f 94/94/94 93/93/93 91/91/91
f 94/94/94 91/91/91 95/95/95
f 91/91/91 96/96/96 95/95/95
f 94/94/94 97/97/97 93/93/93
f 94/94/94 95/95/95 97/97/97
f 97/97/97 98/98/98 93/93/93
f 95/95/95 96/96/96 99/99/99
f 99/99/99 96/96/96 100/100/100
f 101/101/101 99/99/99 100/100/100
f 102/102/102 95/95/95 99/99/99
f 99/99/99 101/101/101 102/102/102
f 95/95/95 102/102/102 97/97/97
f 101/101/101 103/103/103 102/102/102
f 97/97/97 104/104/104 98/98/98
f 97/97/97 102/102/102 104/104/104
f 102/102/102 103/103/103 104/104/104
f 104/104/104 105/105/105 98/98/98
f 103/103/103 106/106/106 104/104/104
f 107/107/107 105/105/105 104/104/104
f 107/107/107 104/104/104 106/106/106
