g CofeePlant_Impostor
v 1.559424 -0.1988074 0
v 1.016666 -1.532993 0
v -0.6648416 -1.532993 0
v -1.559424 -0.5451184 0
v -1.559424 0.7637451 0
v -0.6072012 1.585855 0
v 0.7216641 1.585855 0
v 1.559424 0.62214 0
vt 0 0.4277816
vt 0.1740252 0
vt 0.7131689 0
vt 1 0.3167435
vt 1 0.7364059
vt 0.6946876 1
vt 0.268612 1
vt 0 0.6910029
vn 0 0 -1
vn 0 0 -1
vn 0 0 -1
vn 0 0 -1
vn 0 0 -1
vn 0 0 -1
vn 0 0 -1
vn 0 0 -1
g CofeePlant_Impostor_0
f 4/4/4 6/6/6 8/8/8
f 8/8/8 2/2/2 4/4/4
f 6/6/6 7/7/7 8/8/8
f 4/4/4 5/5/5 6/6/6
f 2/2/2 3/3/3 4/4/4
f 8/8/8 1/1/1 2/2/2
