g CornPlant__Full_Impostor
v 0.8569774 -0.09578684 0
v 0.1243412 -1.966049 0
v -0.1244282 -1.966049 0
v -0.8482377 -0.1115851 0
v -0.5123395 1.562935 0
v -0.05722041 1.872427 0
v 0.1133361 1.872427 0
v 0.5283657 1.516204 0
vt 0.2767402 0.4872407
vt 0.4676066 0
vt 0.532416 0
vt 0.7209829 0.483125
vt 0.6334747 0.9193709
vt 0.5149071 1
vt 0.4704737 1
vt 0.3623502 0.9071966
vn 0 0 -1
vn 0 0 -1
vn 0 0 -1
vn 0 0 -1
vn 0 0 -1
vn 0 0 -1
vn 0 0 -1
vn 0 0 -1
g CornPlant__Full_Impostor_0
f 4/4/4 6/6/6 8/8/8
f 8/8/8 2/2/2 4/4/4
f 6/6/6 7/7/7 8/8/8
f 4/4/4 5/5/5 6/6/6
f 2/2/2 3/3/3 4/4/4
f 8/8/8 1/1/1 2/2/2
