g CrateHand
v 0.531623 -0.531623 1.363264
v 0.531623 -0.531623 1.29779
v 0.531623 0.531623 1.29779
v 0.531623 0.531623 1.363264
v -0.531623 -0.531623 1.363264
v -0.664528 -0.664528 1.363264
v -0.664528 0.664528 1.363264
v -0.531623 0.531623 1.363264
v -0.531623 0.531623 1.363264
v -0.664528 0.664528 1.363264
v 0.664528 0.664528 1.363264
v 0.531623 0.531623 1.363264
v 0.531623 0.531623 1.363264
v 0.664528 0.664528 1.363264
v 0.664528 -0.664528 1.363264
v 0.531623 -0.531623 1.363264
v 0.531623 -0.531623 1.363264
v 0.664528 -0.664528 1.363264
v -0.664528 -0.664528 1.363264
v -0.531623 -0.531623 1.363264
v 0.531623 -0.531623 1.29779
v -0.531623 -0.531623 1.29779
v -0.531623 0.531623 1.29779
v 0.531623 0.531623 1.29779
v -0.531623 0.531623 1.363264
v -0.531623 0.531623 1.29779
v -0.531623 -0.531623 1.29779
v -0.531623 -0.531623 1.363264
v -0.531623 -0.531623 1.363264
v -0.531623 -0.531623 1.29779
v 0.531623 -0.531623 1.29779
v 0.531623 -0.531623 1.363264
v 0.531623 0.531623 1.363264
v 0.531623 0.531623 1.29779
v -0.531623 0.531623 1.29779
v -0.531623 0.531623 1.363264
v 0.664528 0.664528 1.363264
v 0.664528 0.664528 1.276982
v 0.664528 -0.664528 1.276982
v 0.664528 -0.664528 1.363264
v -0.664528 -0.664528 1.363264
v -0.664528 -0.664528 1.276982
v -0.664528 0.664528 1.276982
v -0.664528 0.664528 1.363264
v 0.664528 -0.664528 1.363264
v 0.664528 -0.664528 1.276982
v -0.664528 -0.664528 1.276982
v -0.664528 -0.664528 1.363264
v -0.664528 0.664528 1.363264
v -0.664528 0.664528 1.276982
v 0.664528 0.664528 1.276982
v 0.664528 0.664528 1.363264
v -0.664528 -0.664528 1.276982
v 0.664528 -0.664528 1.276982
v 0.664528 0.664528 1.276982
v -0.664528 0.664528 1.276982
v -0.654745 0.523797 1.165062
v -0.589271 0.523797 1.165062
v -0.589271 0.523797 0.11747
v -0.654745 0.523797 0.11747
v 0.523796 0.654746 0.11747
v 0.523796 0.589271 0.11747
v -0.523796 0.589271 0.11747
v -0.523796 0.654746 0.11747
v 0.654745 0.523797 0.11747
v 0.589271 0.523797 0.11747
v 0.589271 0.523797 1.165062
v 0.654745 0.523797 1.165062
v -0.523796 -0.654745 0.11747
v -0.523796 -0.589271 0.11747
v 0.523796 -0.589271 0.11747
v 0.523796 -0.654745 0.11747
v -0.654745 -0.654745 -0.013479
v 0.654745 -0.654745 -0.013479
v 0.654745 0.654746 -0.013479
v -0.654745 0.654746 -0.013479
v 0.654745 0.523797 1.165062
v 0.654745 0.654746 1.296011
v 0.654745 0.654746 -0.013479
v 0.654745 0.523797 0.11747
v 0.654745 -0.523796 1.165062
v 0.654745 -0.654745 1.296011
v 0.654745 0.654746 1.296011
v 0.654745 0.523797 1.165062
v 0.654745 -0.523796 0.11747
v 0.654745 -0.654745 -0.013479
v 0.654745 -0.654745 1.296011
v 0.654745 -0.523796 1.165062
v 0.654745 0.523797 0.11747
v 0.654745 0.654746 -0.013479
v 0.654745 -0.654745 -0.013479
v 0.654745 -0.523796 0.11747
v -0.523796 -0.654745 0.11747
v -0.654745 -0.654745 -0.013479
v -0.654745 -0.654745 1.296011
v -0.523796 -0.654745 1.165062
v 0.523796 -0.654745 1.165062
v 0.654745 -0.654745 1.296011
v 0.654745 -0.654745 -0.013479
v 0.523796 -0.654745 0.11747
v -0.523796 -0.654745 1.165062
v -0.654745 -0.654745 1.296011
v 0.654745 -0.654745 1.296011
v 0.523796 -0.654745 1.165062
v 0.523796 -0.654745 0.11747
v 0.654745 -0.654745 -0.013479
v -0.654745 -0.654745 -0.013479
v -0.523796 -0.654745 0.11747
v -0.654745 -0.523796 1.165062
v -0.654745 -0.654745 1.296011
v -0.654745 -0.654745 -0.013479
v -0.654745 -0.523796 0.11747
v -0.654745 0.523797 1.165062
v -0.654745 0.654746 1.296011
v -0.654745 -0.654745 1.296011
v -0.654745 -0.523796 1.165062
v -0.654745 0.523797 0.11747
v -0.654745 0.654746 -0.013479
v -0.654745 0.654746 1.296011
v -0.654745 0.523797 1.165062
v -0.654745 -0.523796 0.11747
v -0.654745 -0.654745 -0.013479
v -0.654745 0.654746 -0.013479
v -0.654745 0.523797 0.11747
v -0.523796 0.654746 1.165062
v -0.654745 0.654746 1.296011
v -0.654745 0.654746 -0.013479
v -0.523796 0.654746 0.11747
v 0.523796 0.654746 1.165062
v 0.654745 0.654746 1.296011
v -0.654745 0.654746 1.296011
v -0.523796 0.654746 1.165062
v 0.523796 0.654746 0.11747
v 0.654745 0.654746 -0.013479
v 0.654745 0.654746 1.296011
v 0.523796 0.654746 1.165062
v -0.523796 0.654746 0.11747
v -0.654745 0.654746 -0.013479
v 0.654745 0.654746 -0.013479
v 0.523796 0.654746 0.11747
v -0.589271 -0.523796 1.165062
v -0.589271 -0.523796 0.11747
v -0.589271 0.523797 0.11747
v -0.589271 0.523797 1.165062
v -0.654745 -0.523796 0.11747
v -0.589271 -0.523796 0.11747
v -0.589271 -0.523796 1.165062
v -0.654745 -0.523796 1.165062
v -0.654745 0.523797 0.11747
v -0.589271 0.523797 0.11747
v -0.589271 -0.523796 0.11747
v -0.654745 -0.523796 0.11747
v -0.654745 -0.523796 1.165062
v -0.589271 -0.523796 1.165062
v -0.589271 0.523797 1.165062
v -0.654745 0.523797 1.165062
v 0.523796 -0.589271 1.165062
v 0.523796 -0.589271 0.11747
v -0.523796 -0.589271 0.11747
v -0.523796 -0.589271 1.165062
v 0.523796 -0.654745 0.11747
v 0.523796 -0.589271 0.11747
v 0.523796 -0.589271 1.165062
v 0.523796 -0.654745 1.165062
v 0.523796 -0.654745 1.165062
v 0.523796 -0.589271 1.165062
v -0.523796 -0.589271 1.165062
v -0.523796 -0.654745 1.165062
v -0.523796 -0.654745 1.165062
v -0.523796 -0.589271 1.165062
v -0.523796 -0.589271 0.11747
v -0.523796 -0.654745 0.11747
v 0.589271 0.523797 1.165062
v 0.589271 0.523797 0.11747
v 0.589271 -0.523796 0.11747
v 0.589271 -0.523796 1.165062
v 0.654745 -0.523796 0.11747
v 0.589271 -0.523796 0.11747
v 0.589271 0.523797 0.11747
v 0.654745 0.523797 0.11747
v 0.654745 0.523797 1.165062
v 0.589271 0.523797 1.165062
v 0.589271 -0.523796 1.165062
v 0.654745 -0.523796 1.165062
v 0.654745 -0.523796 1.165062
v 0.589271 -0.523796 1.165062
v 0.589271 -0.523796 0.11747
v 0.654745 -0.523796 0.11747
v -0.523796 0.589271 1.165062
v -0.523796 0.589271 0.11747
v 0.523796 0.589271 0.11747
v 0.523796 0.589271 1.165062
v -0.523796 0.654746 1.165062
v -0.523796 0.589271 1.165062
v 0.523796 0.589271 1.165062
v 0.523796 0.654746 1.165062
v 0.523796 0.654746 1.165062
v 0.523796 0.589271 1.165062
v 0.523796 0.589271 0.11747
v 0.523796 0.654746 0.11747
v -0.523796 0.654746 0.11747
v -0.523796 0.589271 0.11747
v -0.523796 0.589271 1.165062
v -0.523796 0.654746 1.165062
v -0.552637 -0.552637 1.296011
v -0.552637 -0.552637 0.240508
v 0.552637 -0.552637 0.240508
v 0.552637 -0.552637 1.296011
v 0.552637 0.552637 1.296011
v 0.552637 0.552637 0.240508
v -0.552637 0.552637 0.240508
v -0.552637 0.552637 1.296011
v 0.552637 -0.552637 1.296011
v 0.552637 -0.552637 0.240508
v 0.552637 0.552637 0.240508
v 0.552637 0.552637 1.296011
v -0.552637 0.552637 1.296011
v -0.552637 0.552637 0.240508
v -0.552637 -0.552637 0.240508
v -0.552637 -0.552637 1.296011
v -0.552637 -0.552637 0.240508
v -0.552637 0.552637 0.240508
v 0.552637 0.552637 0.240508
v 0.552637 -0.552637 0.240508
v -0.617854 -0.491371 1.226524
v -0.617854 0.575594 0.159559
v -0.552379 0.575594 0.159559
v -0.552379 -0.491371 1.226524
v -0.617854 -0.575594 1.142301
v -0.617854 0.491371 0.075336
v -0.617854 0.575594 0.159559
v -0.617854 -0.491371 1.226524
v -0.552379 -0.575594 1.142301
v -0.552379 0.491371 0.075336
v -0.617854 0.491371 0.075336
v -0.617854 -0.575594 1.142301
v 0.617854 -0.491371 1.226524
v 0.55238 -0.491371 1.226524
v 0.55238 0.575594 0.159559
v 0.617854 0.575594 0.159559
v 0.617854 -0.575594 1.142301
v 0.617854 -0.491371 1.226524
v 0.617854 0.575594 0.159559
v 0.617854 0.491371 0.075336
v 0.55238 -0.575594 1.142301
v 0.617854 -0.575594 1.142301
v 0.617854 0.491371 0.075336
v 0.55238 0.491371 0.075336
v 0.491371 -0.617854 1.226524
v -0.575594 -0.617854 0.159559
v -0.575594 -0.552379 0.159559
v 0.491371 -0.552379 1.226524
v 0.575594 -0.617854 1.142301
v -0.491371 -0.617854 0.075336
v -0.575594 -0.617854 0.159559
v 0.491371 -0.617854 1.226524
v 0.575594 -0.552379 1.142301
v -0.491371 -0.552379 0.075336
v -0.491371 -0.617854 0.075336
v 0.575594 -0.617854 1.142301
v 0.491371 0.617854 1.226524
v 0.491371 0.55238 1.226524
v -0.575594 0.55238 0.159559
v -0.575594 0.617854 0.159559
v 0.575594 0.617854 1.142301
v 0.491371 0.617854 1.226524
v -0.575594 0.617854 0.159559
v -0.491371 0.617854 0.075336
v 0.575594 0.55238 1.142301
v 0.575594 0.617854 1.142301
v -0.491371 0.617854 0.075336
v -0.491371 0.55238 0.075336
v 0.654745 -0.654745 1.296011
v 0.552637 -0.552637 1.296011
v 0.552637 0.552637 1.296011
v 0.654745 0.654746 1.296011
v -0.654745 -0.654745 1.296011
v -0.552637 0.552637 1.296011
v -0.552637 -0.552637 1.296011
v -0.654745 0.654746 1.296011
vt 0.11083 0.389816
vt 0.11083 0.389816
vt 0.11083 0.389816
vt 0.11083 0.389816
vt 0.352618 0.958449
vt 0.28932 0.829705
vt 0.922307 0.829705
vt 0.859008 0.958449
vt 0.352618 0.958449
vt 0.28932 0.829705
vt 0.922307 0.829705
vt 0.859008 0.958449
vt 0.859009 0.958449
vt 0.922307 0.829705
vt 0.28932 0.829705
vt 0.352619 0.958449
vt 0.859009 0.958449
vt 0.922307 0.829705
vt 0.28932 0.829705
vt 0.352619 0.958449
vt 0.464956 0.389852
vt 0.110865 0.389852
vt 0.110865 0.743942
vt 0.464956 0.743942
vt 0.11083 0.389816
vt 0.11083 0.389816
vt 0.11083 0.389816
vt 0.11083 0.389816
vt 0.11083 0.389816
vt 0.11083 0.389816
vt 0.11083 0.389816
vt 0.11083 0.389816
vt 0.11083 0.389816
vt 0.11083 0.389816
vt 0.11083 0.389816
vt 0.11083 0.389816
vt 0.301069 0.86992
vt 0.300525 0.869421
vt 0.300525 0.876531
vt 0.30098 0.876042
vt 0.307004 0.876759
vt 0.307549 0.877258
vt 0.307549 0.870148
vt 0.307093 0.870637
vt 0.30098 0.876042
vt 0.300525 0.876531
vt 0.307549 0.877258
vt 0.307004 0.876759
vt 0.307093 0.870637
vt 0.307549 0.870148
vt 0.300525 0.869421
vt 0.301069 0.86992
vt 0.110491 0.739401
vt 0.456411 0.739401
vt 0.456411 0.393481
vt 0.110491 0.393481
vt 0.288976 0.841669
vt 0.289494 0.842144
vt 0.289494 0.83513
vt 0.289061 0.835595
vt 0.289656 0.842342
vt 0.289138 0.841866
vt 0.283162 0.841159
vt 0.282728 0.841624
vt 0.289524 0.835292
vt 0.289091 0.835757
vt 0.289006 0.841831
vt 0.289524 0.842306
vt 0.282435 0.834934
vt 0.282953 0.835409
vt 0.288929 0.836117
vt 0.289362 0.835652
vt 0.120047 0.395982
vt 0.120047 0.395982
vt 0.120047 0.395982
vt 0.120047 0.395982
vt 0.342654 0.952732
vt 0.277944 0.826871
vt 0.925041 0.826871
vt 0.860331 0.952732
vt 0.354213 0.957116
vt 0.29195 0.827022
vt 0.914582 0.827022
vt 0.852319 0.957117
vt 0.860331 0.952127
vt 0.925041 0.826265
vt 0.277944 0.826265
vt 0.342654 0.952127
vt 0.851686 0.950355
vt 0.914553 0.822764
vt 0.285883 0.822764
vt 0.34875 0.950355
vt 0.860331 0.952732
vt 0.925041 0.826871
vt 0.277944 0.826871
vt 0.342654 0.952732
vt 0.342654 0.95603
vt 0.277944 0.830169
vt 0.925041 0.830169
vt 0.860331 0.95603
vt 0.354213 0.958725
vt 0.29195 0.828632
vt 0.914582 0.828632
vt 0.852319 0.958726
vt 0.851686 0.953273
vt 0.914553 0.825683
vt 0.285883 0.825683
vt 0.34875 0.953274
vt 0.342654 0.953405
vt 0.277944 0.827544
vt 0.925041 0.827544
vt 0.860331 0.953405
vt 0.852319 0.958853
vt 0.914582 0.828759
vt 0.29195 0.828759
vt 0.354214 0.958854
vt 0.860331 0.952059
vt 0.925041 0.826198
vt 0.277944 0.826198
vt 0.342654 0.952059
vt 0.851686 0.954322
vt 0.914553 0.826731
vt 0.285883 0.826731
vt 0.34875 0.954322
vt 0.342654 0.952059
vt 0.277944 0.826198
vt 0.925041 0.826198
vt 0.860331 0.952059
vt 0.852319 0.957921
vt 0.914582 0.827827
vt 0.29195 0.827827
vt 0.354214 0.957921
vt 0.860331 0.953405
vt 0.925041 0.827544
vt 0.277944 0.827544
vt 0.342654 0.953405
vt 0.851686 0.958289
vt 0.914553 0.830698
vt 0.285883 0.830698
vt 0.34875 0.958289
vt 0.120081 0.396016
vt 0.120081 0.734135
vt 0.458201 0.734135
vt 0.458201 0.396015
vt 0.283085 0.834888
vt 0.282567 0.834412
vt 0.282567 0.841426
vt 0.283 0.840961
vt 0.289061 0.835595
vt 0.289494 0.83513
vt 0.282567 0.834412
vt 0.283085 0.834888
vt 0.283 0.840961
vt 0.282567 0.841426
vt 0.289494 0.842144
vt 0.288976 0.841669
vt 0.458201 0.734135
vt 0.458201 0.396015
vt 0.120081 0.396015
vt 0.120081 0.734135
vt 0.289362 0.835652
vt 0.288929 0.836117
vt 0.288844 0.84219
vt 0.289362 0.842666
vt 0.289362 0.842666
vt 0.288844 0.84219
vt 0.282868 0.841483
vt 0.282435 0.841948
vt 0.282435 0.841948
vt 0.282868 0.841483
vt 0.282953 0.835409
vt 0.282435 0.834934
vt 0.458201 0.734135
vt 0.458201 0.396015
vt 0.120081 0.396015
vt 0.120081 0.734135
vt 0.282597 0.834574
vt 0.283115 0.83505
vt 0.289091 0.835757
vt 0.289524 0.835292
vt 0.289524 0.842306
vt 0.289006 0.841831
vt 0.28303 0.841123
vt 0.282597 0.841588
vt 0.282597 0.841588
vt 0.28303 0.841123
vt 0.283115 0.83505
vt 0.282597 0.834574
vt 0.120081 0.396016
vt 0.120081 0.734135
vt 0.458201 0.734135
vt 0.458201 0.396015
vt 0.282728 0.83461
vt 0.283247 0.835085
vt 0.289222 0.835793
vt 0.289656 0.835328
vt 0.289656 0.835328
vt 0.289222 0.835793
vt 0.289138 0.841866
vt 0.289656 0.842342
vt 0.282728 0.841624
vt 0.283162 0.841159
vt 0.283247 0.835085
vt 0.282728 0.83461
vt 0.120081 0.396015
vt 0.120081 0.71891
vt 0.458201 0.71891
vt 0.458201 0.396015
vt 0.458201 0.71891
vt 0.458201 0.396015
vt 0.120081 0.396015
vt 0.120081 0.71891
vt 0.120081 0.396015
vt 0.120081 0.71891
vt 0.458201 0.71891
vt 0.458201 0.396015
vt 0.458201 0.71891
vt 0.458201 0.396015
vt 0.120081 0.396015
vt 0.120081 0.71891
vt 0.120081 0.396016
vt 0.120081 0.734135
vt 0.458201 0.734135
vt 0.458201 0.396015
vt 0.288976 0.841669
vt 0.288976 0.841669
vt 0.289494 0.842144
vt 0.289494 0.842144
vt 0.843322 0.853885
vt 0.34683 0.853885
vt 0.34683 0.936715
vt 0.843322 0.936715
vt 0.282567 0.841426
vt 0.282567 0.841426
vt 0.283 0.840961
vt 0.283 0.840961
vt 0.288976 0.841669
vt 0.289494 0.842144
vt 0.289494 0.842144
vt 0.288976 0.841669
vt 0.843322 0.853885
vt 0.843322 0.936715
vt 0.34683 0.936715
vt 0.34683 0.853885
vt 0.282567 0.841426
vt 0.283 0.840961
vt 0.283 0.840961
vt 0.282567 0.841426
vt 0.288976 0.841669
vt 0.288976 0.841669
vt 0.289494 0.842144
vt 0.289494 0.842144
vt 0.843322 0.853885
vt 0.34683 0.853885
vt 0.34683 0.936715
vt 0.843322 0.936715
vt 0.282567 0.841426
vt 0.282567 0.841426
vt 0.283 0.840961
vt 0.283 0.840961
vt 0.288976 0.841669
vt 0.289494 0.842144
vt 0.289494 0.842144
vt 0.288976 0.841669
vt 0.843322 0.853885
vt 0.843322 0.936715
vt 0.34683 0.936715
vt 0.34683 0.853885
vt 0.282567 0.841426
vt 0.283 0.840961
vt 0.283 0.840961
vt 0.282567 0.841426
vt 0.309035 0.87597
vt 0.30833 0.876675
vt 0.30833 0.884307
vt 0.309035 0.885012
vt 0.299993 0.87597
vt 0.300698 0.884307
vt 0.300698 0.876675
vt 0.299993 0.885012
vn -1 0 0
vn -1 0 0
vn -1 0 0
vn -1 0 0
vn 0 0 1
vn 0 0 1
vn 0 0 1
vn 0 0 1
vn 0 0 1
vn 0 0 1
vn 0 0 1
vn 0 0 1
vn 0 0 1
vn 0 0 1
vn 0 0 1
vn 0 0 1
vn 0 0 1
vn 0 0 1
vn 0 0 1
vn 0 0 1
vn 0 0 1
vn 0 0 1
vn 0 0 1
vn 0 0 1
vn 1 0 0
vn 1 0 0
vn 1 0 0
vn 1 0 0
vn 0 1 0
vn 0 1 0
vn 0 1 0
vn 0 1 0
vn 0 -1 0
vn 0 -1 0
vn 0 -1 0
vn 0 -1 0
vn 1 0 0
vn 1 0 0
vn 1 0 0
vn 1 0 0
vn -1 0 0
vn -1 0 0
vn -1 0 0
vn -1 0 0
vn 0 -1 0
vn 0 -1 0
vn 0 -1 0
vn 0 -1 0
vn 0 1 0
vn 0 1 0
vn 0 1 0
vn 0 1 0
vn 0 0 -1
vn 0 0 -1
vn 0 0 -1
vn 0 0 -1
vn 0 -1 0
vn 0 -1 0
vn 0 -1 0
vn 0 -1 0
vn 0 0 1
vn 0 0 1
vn 0 0 1
vn 0 0 1
vn 0 -1 0
vn 0 -1 0
vn 0 -1 0
vn 0 -1 0
vn 0 0 1
vn 0 0 1
vn 0 0 1
vn 0 0 1
vn 0 0 -1
vn 0 0 -1
vn 0 0 -1
vn 0 0 -1
vn 1 0 0
vn 1 0 0
vn 1 0 0
vn 1 0 0
vn 1 0 0
vn 1 0 0
vn 1 0 0
vn 1 0 0
vn 1 0 0
vn 1 0 0
vn 1 0 0
vn 1 0 0
vn 1 0 0
vn 1 0 0
vn 1 0 0
vn 1 0 0
vn 0 -1 0
vn 0 -1 0
vn 0 -1 0
vn 0 -1 0
vn 0 -1 0
vn 0 -1 0
vn 0 -1 0
vn 0 -1 0
vn 0 -1 0
vn 0 -1 0
vn 0 -1 0
vn 0 -1 0
vn 0 -1 0
vn 0 -1 0
vn 0 -1 0
vn 0 -1 0
vn -1 0 0
vn -1 0 0
vn -1 0 0
vn -1 0 0
vn -1 0 0
vn -1 0 0
vn -1 0 0
vn -1 0 0
vn -1 0 0
vn -1 0 0
vn -1 0 0
vn -1 0 0
vn -1 0 0
vn -1 0 0
vn -1 0 0
vn -1 0 0
vn 0 1 0
vn 0 1 0
vn 0 1 0
vn 0 1 0
vn 0 1 0
vn 0 1 0
vn 0 1 0
vn 0 1 0
vn 0 1 0
vn 0 1 0
vn 0 1 0
vn 0 1 0
vn 0 1 0
vn 0 1 0
vn 0 1 0
vn 0 1 0
vn -1 0 0
vn -1 0 0
vn -1 0 0
vn -1 0 0
vn 0 1 0
vn 0 1 0
vn 0 1 0
vn 0 1 0
vn 0 0 1
vn 0 0 1
vn 0 0 1
vn 0 0 1
vn 0 0 -1
vn 0 0 -1
vn 0 0 -1
vn 0 0 -1
vn 0 -1 0
vn 0 -1 0
vn 0 -1 0
vn 0 -1 0
vn -1 0 0
vn -1 0 0
vn -1 0 0
vn -1 0 0
vn 0 0 -1
vn 0 0 -1
vn 0 0 -1
vn 0 0 -1
vn 1 0 0
vn 1 0 0
vn 1 0 0
vn 1 0 0
vn 1 0 0
vn 1 0 0
vn 1 0 0
vn 1 0 0
vn 0 0 1
vn 0 0 1
vn 0 0 1
vn 0 0 1
vn 0 0 -1
vn 0 0 -1
vn 0 0 -1
vn 0 0 -1
vn 0 1 0
vn 0 1 0
vn 0 1 0
vn 0 1 0
vn 0 1 0
vn 0 1 0
vn 0 1 0
vn 0 1 0
vn 0 0 -1
vn 0 0 -1
vn 0 0 -1
vn 0 0 -1
vn -1 0 0
vn -1 0 0
vn -1 0 0
vn -1 0 0
vn 1 0 0
vn 1 0 0
vn 1 0 0
vn 1 0 0
vn 0 1 0
vn 0 1 0
vn 0 1 0
vn 0 1 0
vn 0 -1 0
vn 0 -1 0
vn 0 -1 0
vn 0 -1 0
vn -1 0 0
vn -1 0 0
vn -1 0 0
vn -1 0 0
vn 1 0 0
vn 1 0 0
vn 1 0 0
vn 1 0 0
vn 0 0 1
vn 0 0 1
vn 0 0 1
vn 0 0 1
vn 0 0.7071068 0.7071068
vn 0 0.7071068 0.7071068
vn 0 0.7071068 0.7071068
vn 0 0.7071068 0.7071068
vn -1 0 0
vn -1 0 0
vn -1 0 0
vn -1 0 0
vn 0 -0.7071068 -0.7071068
vn 0 -0.7071068 -0.7071068
vn 0 -0.7071068 -0.7071068
vn 0 -0.7071068 -0.7071068
vn 0 0.7071068 0.7071068
vn 0 0.7071068 0.7071068
vn 0 0.7071068 0.7071068
vn 0 0.7071068 0.7071068
vn 1 0 0
vn 1 0 0
vn 1 0 0
vn 1 0 0
vn 0 -0.7071068 -0.7071068
vn 0 -0.7071068 -0.7071068
vn 0 -0.7071068 -0.7071068
vn 0 -0.7071068 -0.7071068
vn -0.7071068 0 0.7071068
vn -0.7071068 0 0.7071068
vn -0.7071068 0 0.7071068
vn -0.7071068 0 0.7071068
vn 0 -1 0
vn 0 -1 0
vn 0 -1 0
vn 0 -1 0
vn 0.7071068 0 -0.7071068
vn 0.7071068 0 -0.7071068
vn 0.7071068 0 -0.7071068
vn 0.7071068 0 -0.7071068
vn -0.7071068 0 0.7071068
vn -0.7071068 0 0.7071068
vn -0.7071068 0 0.7071068
vn -0.7071068 0 0.7071068
vn 0 1 0
vn 0 1 0
vn 0 1 0
vn 0 1 0
vn 0.7071068 0 -0.7071068
vn 0.7071068 0 -0.7071068
vn 0.7071068 0 -0.7071068
vn 0.7071068 0 -0.7071068
vn 0 0 1
vn 0 0 1
vn 0 0 1
vn 0 0 1
vn 0 0 1
vn 0 0 1
vn 0 0 1
vn 0 0 1
g CrateHand_0
f 3/3/3 2/2/2 1/1/1
f 4/4/4 3/3/3 1/1/1
f 7/7/7 6/6/6 5/5/5
f 8/8/8 7/7/7 5/5/5
f 11/11/11 10/10/10 9/9/9
f 12/12/12 11/11/11 9/9/9
f 15/15/15 14/14/14 13/13/13
f 16/16/16 15/15/15 13/13/13
f 19/19/19 18/18/18 17/17/17
f 20/20/20 19/19/19 17/17/17
f 23/23/23 22/22/22 21/21/21
f 24/24/24 23/23/23 21/21/21
f 27/27/27 26/26/26 25/25/25
f 28/28/28 27/27/27 25/25/25
f 31/31/31 30/30/30 29/29/29
f 32/32/32 31/31/31 29/29/29
f 35/35/35 34/34/34 33/33/33
f 36/36/36 35/35/35 33/33/33
f 39/39/39 38/38/38 37/37/37
f 40/40/40 39/39/39 37/37/37
f 43/43/43 42/42/42 41/41/41
f 44/44/44 43/43/43 41/41/41
f 47/47/47 46/46/46 45/45/45
f 48/48/48 47/47/47 45/45/45
f 51/51/51 50/50/50 49/49/49
f 52/52/52 51/51/51 49/49/49
f 55/55/55 54/54/54 53/53/53
f 56/56/56 55/55/55 53/53/53
f 59/59/59 58/58/58 57/57/57
f 60/60/60 59/59/59 57/57/57
f 63/63/63 62/62/62 61/61/61
f 64/64/64 63/63/63 61/61/61
f 67/67/67 66/66/66 65/65/65
f 68/68/68 67/67/67 65/65/65
f 71/71/71 70/70/70 69/69/69
f 72/72/72 71/71/71 69/69/69
f 75/75/75 74/74/74 73/73/73
f 76/76/76 75/75/75 73/73/73
f 79/79/79 78/78/78 77/77/77
f 80/80/80 79/79/79 77/77/77
f 83/83/83 82/82/82 81/81/81
f 84/84/84 83/83/83 81/81/81
f 87/87/87 86/86/86 85/85/85
f 88/88/88 87/87/87 85/85/85
f 91/91/91 90/90/90 89/89/89
f 92/92/92 91/91/91 89/89/89
f 95/95/95 94/94/94 93/93/93
f 96/96/96 95/95/95 93/93/93
f 99/99/99 98/98/98 97/97/97
f 100/100/100 99/99/99 97/97/97
f 103/103/103 102/102/102 101/101/101
f 104/104/104 103/103/103 101/101/101
f 107/107/107 106/106/106 105/105/105
f 108/108/108 107/107/107 105/105/105
f 111/111/111 110/110/110 109/109/109
f 112/112/112 111/111/111 109/109/109
f 115/115/115 114/114/114 113/113/113
f 116/116/116 115/115/115 113/113/113
f 119/119/119 118/118/118 117/117/117
f 120/120/120 119/119/119 117/117/117
f 123/123/123 122/122/122 121/121/121
f 124/124/124 123/123/123 121/121/121
f 127/127/127 126/126/126 125/125/125
f 128/128/128 127/127/127 125/125/125
f 131/131/131 130/130/130 129/129/129
f 132/132/132 131/131/131 129/129/129
f 135/135/135 134/134/134 133/133/133
f 136/136/136 135/135/135 133/133/133
f 139/139/139 138/138/138 137/137/137
f 140/140/140 139/139/139 137/137/137
f 143/143/143 142/142/142 141/141/141
f 144/144/144 143/143/143 141/141/141
f 147/147/147 146/146/146 145/145/145
f 148/148/148 147/147/147 145/145/145
f 151/151/151 150/150/150 149/149/149
f 152/152/152 151/151/151 149/149/149
f 155/155/155 154/154/154 153/153/153
f 156/156/156 155/155/155 153/153/153
f 159/159/159 158/158/158 157/157/157
f 160/160/160 159/159/159 157/157/157
f 163/163/163 162/162/162 161/161/161
f 164/164/164 163/163/163 161/161/161
f 167/167/167 166/166/166 165/165/165
f 168/168/168 167/167/167 165/165/165
f 171/171/171 170/170/170 169/169/169
f 172/172/172 171/171/171 169/169/169
f 175/175/175 174/174/174 173/173/173
f 176/176/176 175/175/175 173/173/173
f 179/179/179 178/178/178 177/177/177
f 180/180/180 179/179/179 177/177/177
f 183/183/183 182/182/182 181/181/181
f 184/184/184 183/183/183 181/181/181
f 187/187/187 186/186/186 185/185/185
f 188/188/188 187/187/187 185/185/185
f 191/191/191 190/190/190 189/189/189
f 192/192/192 191/191/191 189/189/189
f 195/195/195 194/194/194 193/193/193
f 196/196/196 195/195/195 193/193/193
f 199/199/199 198/198/198 197/197/197
f 200/200/200 199/199/199 197/197/197
f 203/203/203 202/202/202 201/201/201
f 204/204/204 203/203/203 201/201/201
f 207/207/207 206/206/206 205/205/205
f 208/208/208 207/207/207 205/205/205
f 211/211/211 210/210/210 209/209/209
f 212/212/212 211/211/211 209/209/209
f 215/215/215 214/214/214 213/213/213
f 216/216/216 215/215/215 213/213/213
f 219/219/219 218/218/218 217/217/217
f 220/220/220 219/219/219 217/217/217
f 223/223/223 222/222/222 221/221/221
f 224/224/224 223/223/223 221/221/221
f 227/227/227 226/226/226 225/225/225
f 228/228/228 227/227/227 225/225/225
f 231/231/231 230/230/230 229/229/229
f 232/232/232 231/231/231 229/229/229
f 235/235/235 234/234/234 233/233/233
f 236/236/236 235/235/235 233/233/233
f 239/239/239 238/238/238 237/237/237
f 240/240/240 239/239/239 237/237/237
f 243/243/243 242/242/242 241/241/241
f 244/244/244 243/243/243 241/241/241
f 247/247/247 246/246/246 245/245/245
f 248/248/248 247/247/247 245/245/245
f 251/251/251 250/250/250 249/249/249
f 252/252/252 251/251/251 249/249/249
f 255/255/255 254/254/254 253/253/253
f 256/256/256 255/255/255 253/253/253
f 259/259/259 258/258/258 257/257/257
f 260/260/260 259/259/259 257/257/257
f 263/263/263 262/262/262 261/261/261
f 264/264/264 263/263/263 261/261/261
f 267/267/267 266/266/266 265/265/265
f 268/268/268 267/267/267 265/265/265
f 271/271/271 270/270/270 269/269/269
f 272/272/272 271/271/271 269/269/269
f 275/275/275 274/274/274 273/273/273
f 276/276/276 275/275/275 273/273/273
f 273/273/273 274/274/274 277/277/277
f 278/278/278 275/275/275 276/276/276
f 274/274/274 279/279/279 277/277/277
f 280/280/280 278/278/278 276/276/276
f 277/277/277 279/279/279 280/280/280
f 279/279/279 278/278/278 280/280/280
