g CrocodileMeatCooked
v -0.389057 -0.289998 0.350386
v 0.129686 -0.289998 0.350386
v 0.389057 -0.289998 0.350386
v -0.129686 -0.289998 0.350386
v 0.129686 -0.289998 0.350386
v -0.384165 -0.286351 0.341401
v -0.365206 -0.230129 0.306581
v -0.389057 0.289998 0.350386
v 0.389057 0.289998 0.350386
v -0.129686 0.289998 0.350386
v -0.389057 0.289998 0.350386
v 0.389057 0.289998 0.350386
v 0.129686 0.289998 0.350386
v -0.129686 0.289998 0.350386
v 0.389057 0.289998 0.350386
v 0.389057 -0.289998 0.350386
v 0.389057 -0.289998 0.396089
v 0.389057 0.289998 0.396089
v 0.129686 0.289998 0.419702
v 0.129686 -0.289998 0.419702
v -0.129686 0.289998 0.419702
v -0.129686 -0.289998 0.419702
v -0.389057 0.289998 0.396089
v -0.389057 -0.289998 0.396089
v -0.389057 -0.289998 0.350386
v -0.389057 0.289998 0.350386
v 0.129686 0.289998 0.350386
v 0.389057 0.289998 0.350386
v 0.389057 0.289998 0.396089
v 0.129686 0.289998 0.419702
v -0.129686 0.289998 0.350386
v -0.129686 0.289998 0.419702
v -0.389057 0.289998 0.350386
v -0.389057 0.289998 0.396089
v -0.129686 -0.289998 0.350386
v -0.389057 -0.289998 0.350386
v -0.389057 -0.289998 0.396089
v -0.129686 -0.289998 0.419702
v 0.129686 -0.289998 0.350386
v 0.129686 -0.289998 0.419702
v 0.389057 -0.289998 0.350386
v 0.389057 -0.289998 0.396089
v 0.384165 -0.286351 0.341401
v 0.323115 -0.27222 0.306581
v -0.323115 -0.27222 0.306581
v -0.384165 -0.286351 0.341401
v -0.365206 -0.230129 0.306581
v 0.389057 -0.289998 0.350386
v 0.389057 0.289998 0.350386
v -0.389057 -0.289998 0.350386
v -0.389057 0.289998 0.350386
v 0.384165 0.286351 0.341401
v -0.389057 0.289998 0.350386
v -0.384165 0.286351 0.341401
v -0.365206 0.230129 0.306581
v -0.365206 -0.230129 0.306581
v -0.323115 0.27222 0.306581
v 0.389057 0.289998 0.350386
v 0.365206 0.230129 0.306581
v 0.365206 -0.230129 0.306581
v 0.384165 -0.286351 0.341401
v 0.323115 -0.27222 0.306581
v -0.384165 0.286351 0.341401
v -0.323115 0.27222 0.306581
v 0.323115 0.27222 0.306581
v 0.384165 0.286351 0.341401
v 0.365206 0.230129 0.306581
v 0.323115 -0.27222 0.015752
v 0.365206 -0.230129 0.015752
v 0.365206 0.230129 0.015752
v 0.323115 0.27222 0.015752
v -0.323115 -0.27222 0.015752
v -0.323115 0.27222 0.015752
v -0.365206 -0.230129 0.015752
v -0.365206 0.230129 0.015752
v -0.365206 -0.230129 0.015752
v -0.365206 0.230129 0.015752
v -0.365206 0.230129 0.306581
v -0.323115 0.27222 0.015752
v -0.365206 -0.230129 0.306581
v -0.323115 0.27222 0.306581
v -0.323115 -0.27222 0.306581
v -0.323115 -0.27222 0.015752
v 0.323115 0.27222 0.306581
v 0.323115 0.27222 0.015752
v 0.323115 -0.27222 0.015752
v 0.323115 -0.27222 0.306581
v 0.365206 0.230129 0.015752
v 0.365206 0.230129 0.306581
v 0.365206 -0.230129 0.306581
v 0.365206 -0.230129 0.015752
vt 0.043314 0.197051
vt 0.069165 0.19706
vt 0.082091 0.197064
vt 0.05624 0.197056
vt 0.069165 0.19706
vt 0.043314 0.197051
vt 0.043315 0.194861
vt 0.043324 0.168718
vt 0.082101 0.168731
vt 0.05625 0.168723
vt 0.043324 0.168718
vt 0.082101 0.168731
vt 0.069175 0.168727
vt 0.05625 0.168723
vt 0.21279 0.055801
vt 0.21652 0.103913
vt 0.21652 0.103913
vt 0.21279 0.055801
vt 0.190841 0.057503
vt 0.194571 0.105614
vt 0.168893 0.059204
vt 0.172623 0.107316
vt 0.146945 0.060906
vt 0.150674 0.109018
vt 0.150674 0.109018
vt 0.146945 0.060906
vt 0.190841 0.057503
vt 0.21279 0.055801
vt 0.21279 0.055801
vt 0.190841 0.057503
vt 0.168893 0.059204
vt 0.168893 0.059204
vt 0.146945 0.060906
vt 0.146945 0.060906
vt 0.172623 0.107316
vt 0.150674 0.109018
vt 0.150674 0.109018
vt 0.172623 0.107316
vt 0.194571 0.105614
vt 0.194571 0.105614
vt 0.21652 0.103913
vt 0.21652 0.103913
vt 0.082091 0.197064
vt 0.079856 0.197064
vt 0.045549 0.197052
vt 0.043314 0.197051
vt 0.043314 0.197051
vt 0.082091 0.197064
vt 0.082101 0.168731
vt 0.043314 0.197051
vt 0.043324 0.168718
vt 0.082101 0.168731
vt 0.043324 0.168718
vt 0.043324 0.168718
vt 0.043323 0.170909
vt 0.043315 0.194861
vt 0.043324 0.168718
vt 0.082101 0.168731
vt 0.0821 0.170922
vt 0.082091 0.194874
vt 0.082091 0.197064
vt 0.082091 0.197064
vt 0.043324 0.168718
vt 0.045559 0.168719
vt 0.079866 0.168731
vt 0.082101 0.168731
vt 0.082101 0.168731
vt 0.061195 0.24013
vt 0.069202 0.240643
vt 0.114908 0.199621
vt 0.11526 0.191606
vt 0.002439 0.174666
vt 0.056504 0.126142
vt 0.002792 0.16665
vt 0.048498 0.125629
vt 0.002792 0.16665
vt 0.048498 0.125629
vt 0.048498 0.125629
vt 0.056504 0.126142
vt 0.002792 0.16665
vt 0.056504 0.126142
vt 0.002439 0.174666
vt 0.002439 0.174666
vt 0.11526 0.191606
vt 0.11526 0.191606
vt 0.061195 0.24013
vt 0.061195 0.24013
vt 0.114908 0.199621
vt 0.114908 0.199621
vt 0.069202 0.240643
vt 0.069202 0.240643
vn 0 1 0
vn 0 1 0
vn 0 1 0
vn 0 1 0
vn 0 1 0
vn -0.5389493 -0.5768514 -0.613821
vn -0.8932747 -0.2612749 -0.3657809
vn -0.8797457 0.3395109 -0.332836
vn 0 1 0
vn 0 1 0
vn 0 1 0
vn 0 1 0
vn 0 1 0
vn 0 1 0
vn 0.8797462 0.3395099 -0.3328357
vn 0.8797457 -0.3395126 -0.3328343
vn 0.7384662 0 0.6742905
vn 0.7384662 0 0.6742905
vn 0.04537902 0 0.9989698
vn 0.04537902 0 0.9989698
vn -0.04537902 0 0.9989698
vn -0.04537902 0 0.9989698
vn -0.7384662 0 0.6742905
vn -0.7384662 0 0.6742905
vn -0.8797462 -0.3395116 -0.332834
vn -0.8797457 0.3395109 -0.332836
vn 0 1 0
vn 0 1 0
vn 0 1 0
vn 0 1 0
vn 0 1 0
vn 0 1 0
vn 0 1 0
vn 0 1 0
vn 0 -1 0
vn 0 -1 0
vn 0 -1 0
vn 0 -1 0
vn 0 -1 0
vn 0 -1 0
vn 0 -1 0
vn 0 -1 0
vn 0.5389496 -0.576851 -0.613821
vn 0.2548025 -0.9147984 -0.3134
vn -0.2548025 -0.9147984 -0.3134
vn -0.5389493 -0.5768514 -0.613821
vn -0.8932747 -0.2612749 -0.3657809
vn 0.8797457 -0.3395126 -0.3328343
vn 0.8797462 0.3395099 -0.3328357
vn -0.8797462 -0.3395116 -0.332834
vn -0.8797457 0.3395109 -0.332836
vn 0.5389544 0.5768472 -0.6138203
vn -0.8797457 0.3395109 -0.332836
vn -0.5389547 0.576847 -0.6138204
vn -0.8932752 0.2612748 -0.3657798
vn -0.8932747 -0.2612749 -0.3657809
vn -0.2548025 0.9147984 -0.3134
vn 0.8797462 0.3395099 -0.3328357
vn 0.8932752 0.2612748 -0.3657798
vn 0.8932747 -0.2612749 -0.3657809
vn 0.5389496 -0.576851 -0.613821
vn 0.2548025 -0.9147984 -0.3134
vn -0.5389547 0.576847 -0.6138204
vn -0.2548025 0.9147984 -0.3134
vn 0.2548025 0.9147984 -0.3134
vn 0.5389544 0.5768472 -0.6138203
vn 0.8932752 0.2612748 -0.3657798
vn 0 0 -1
vn 0 0 -1
vn 0 0 -1
vn 0 0 -1
vn 0 0 -1
vn 0 0 -1
vn 0 0 -1
vn 0 0 -1
vn -0.9238794 -0.3826836 0
vn -0.9238794 0.3826836 0
vn -0.8932752 0.2612748 -0.3657798
vn -0.3826833 0.9238796 0
vn -0.8932747 -0.2612749 -0.3657809
vn -0.2548025 0.9147984 -0.3134
vn -0.2548025 -0.9147984 -0.3134
vn -0.3826833 -0.9238796 0
vn 0.2548025 0.9147984 -0.3134
vn 0.3826833 0.9238796 0
vn 0.3826833 -0.9238796 0
vn 0.2548025 -0.9147984 -0.3134
vn 0.9238794 0.3826836 0
vn 0.8932752 0.2612748 -0.3657798
vn 0.8932747 -0.2612749 -0.3657809
vn 0.9238794 -0.3826836 0
g CrocodileMeatCooked_0
f 3/3/3 2/2/2 1/1/1
f 5/5/5 4/4/4 1/1/1
f 8/8/8 7/7/7 6/6/6
f 11/11/11 10/10/10 9/9/9
f 14/14/14 13/13/13 12/12/12
f 17/17/17 16/16/16 15/15/15
f 18/18/18 17/17/17 15/15/15
f 17/17/17 18/18/18 19/19/19
f 20/20/20 17/17/17 19/19/19
f 20/20/20 19/19/19 21/21/21
f 22/22/22 20/20/20 21/21/21
f 22/22/22 21/21/21 23/23/23
f 24/24/24 22/22/22 23/23/23
f 24/24/24 23/23/23 25/25/25
f 23/23/23 26/26/26 25/25/25
f 29/29/29 28/28/28 27/27/27
f 30/30/30 29/29/29 27/27/27
f 30/30/30 27/27/27 31/31/31
f 32/32/32 30/30/30 31/31/31
f 32/32/32 31/31/31 33/33/33
f 34/34/34 32/32/32 33/33/33
f 37/37/37 36/36/36 35/35/35
f 38/38/38 37/37/37 35/35/35
f 38/38/38 35/35/35 39/39/39
f 40/40/40 38/38/38 39/39/39
f 40/40/40 39/39/39 41/41/41
f 42/42/42 40/40/40 41/41/41
f 45/45/45 44/44/44 43/43/43
f 43/43/43 46/46/46 45/45/45
f 46/46/46 47/47/47 45/45/45
f 43/43/43 48/48/48 46/46/46
f 49/49/49 48/48/48 43/43/43
f 48/48/48 50/50/50 46/46/46
f 46/46/46 50/50/50 51/51/51
f 53/53/53 49/49/49 52/52/52
f 54/54/54 53/53/53 52/52/52
f 53/53/53 54/54/54 55/55/55
f 53/53/53 55/55/55 56/56/56
f 54/54/54 57/57/57 55/55/55
f 59/59/59 52/52/52 58/58/58
f 60/60/60 59/59/59 58/58/58
f 61/61/61 60/60/60 58/58/58
f 61/61/61 62/62/62 60/60/60
f 65/65/65 64/64/64 63/63/63
f 63/63/63 66/66/66 65/65/65
f 66/66/66 67/67/67 65/65/65
f 70/70/70 69/69/69 68/68/68
f 68/68/68 71/71/71 70/70/70
f 68/68/68 72/72/72 71/71/71
f 72/72/72 73/73/73 71/71/71
f 72/72/72 74/74/74 73/73/73
f 74/74/74 75/75/75 73/73/73
f 78/78/78 77/77/77 76/76/76
f 79/79/79 77/77/77 78/78/78
f 80/80/80 78/78/78 76/76/76
f 81/81/81 79/79/79 78/78/78
f 80/80/80 76/76/76 82/82/82
f 76/76/76 83/83/83 82/82/82
f 81/81/81 84/84/84 79/79/79
f 84/84/84 85/85/85 79/79/79
f 82/82/82 83/83/83 86/86/86
f 87/87/87 82/82/82 86/86/86
f 88/88/88 85/85/85 84/84/84
f 89/89/89 88/88/88 84/84/84
f 90/90/90 87/87/87 86/86/86
f 89/89/89 90/90/90 88/88/88
f 91/91/91 90/90/90 86/86/86
f 90/90/90 91/91/91 88/88/88
