g CrocoEyes
v -0.376414 0.039029 -0.079976
v -0.43738 0.154252 -0.073595
v -0.39414 0.1476 0.037649
v -0.347324 0.02989 -0.005119
v -0.260056 0.002471 0.038631
v -0.285384 0.139288 0.096799
v -0.161264 0.132539 0.121626
v -0.154825 -0.024948 0.05978
v -0.161004 -0.225247 -0.00462
v -0.236571 -0.172584 -0.020845
v -0.291765 -0.119921 -0.055227
v -0.310163 -0.102367 -0.115104
v 0.376414 0.039029 -0.079976
v 0.39414 0.1476 0.037649
v 0.43738 0.154252 -0.073595
v 0.347324 0.02989 -0.005119
v 0.260056 0.002471 0.038631
v 0.285384 0.139288 0.096799
v 0.161264 0.132539 0.121626
v 0.154825 -0.024948 0.05978
v 0.161004 -0.225247 -0.00462
v 0.236571 -0.172584 -0.020845
v 0.291765 -0.119921 -0.055227
v 0.310163 -0.102367 -0.115104
vt 0.451473 0.220703
vt 0.169532 0.02193
vt 0.03478 0.307708
vt 0.371208 0.419278
vt 0.395112 0.688365
vt -0.000724 0.6325
vt -0.003132 0.96547
vt 0.4423 0.978069
vt 0.996672 0.97807
vt 0.883602 0.759233
vt 0.792074 0.559235
vt 0.836497 0.39378
vt 0.451473 0.220703
vt 0.03478 0.307708
vt 0.169532 0.02193
vt 0.371208 0.419278
vt 0.395112 0.688365
vt -0.000724 0.6325
vt -0.003132 0.96547
vt 0.4423 0.978069
vt 0.996672 0.97807
vt 0.883602 0.759233
vt 0.792074 0.559235
vt 0.836497 0.39378
vn -0.8597813 -0.441613 0.2564259
vn -0.8438895 -0.4516015 0.2896667
vn -0.6930209 -0.4657417 0.5502787
vn -0.7314513 -0.445241 0.5164682
vn -0.4155409 -0.3853642 0.8239054
vn -0.3613413 -0.4172059 0.8338895
vn -0.2364193 -0.3886674 0.8905299
vn -0.2797987 -0.3499508 0.8940063
vn -0.3222288 -0.3100468 0.8944493
vn -0.4683328 -0.351779 0.8105035
vn -0.7674286 -0.4235337 0.4813237
vn -0.87442 -0.430981 0.2228114
vn 0.8597813 -0.441613 0.2564259
vn 0.6930209 -0.4657417 0.5502787
vn 0.8438895 -0.4516016 0.2896667
vn 0.7314513 -0.4452409 0.5164682
vn 0.4155409 -0.3853642 0.8239054
vn 0.3613413 -0.4172059 0.8338895
vn 0.2364193 -0.3886675 0.89053
vn 0.2797987 -0.3499508 0.8940063
vn 0.3222288 -0.3100468 0.8944493
vn 0.4683328 -0.351779 0.8105035
vn 0.7674287 -0.4235336 0.4813237
vn 0.8744202 -0.430981 0.2228114
g CrocoEyes_0
f 3/3/3 2/2/2 1/1/1
f 4/4/4 3/3/3 1/1/1
f 3/3/3 4/4/4 5/5/5
f 6/6/6 3/3/3 5/5/5
f 7/7/7 6/6/6 5/5/5
f 8/8/8 7/7/7 5/5/5
f 9/9/9 8/8/8 5/5/5
f 10/10/10 9/9/9 5/5/5
f 11/11/11 10/10/10 5/5/5
f 4/4/4 11/11/11 5/5/5
f 11/11/11 4/4/4 1/1/1
f 12/12/12 11/11/11 1/1/1
f 15/15/15 14/14/14 13/13/13
f 14/14/14 16/16/16 13/13/13
f 16/16/16 14/14/14 17/17/17
f 14/14/14 18/18/18 17/17/17
f 18/18/18 19/19/19 17/17/17
f 19/19/19 20/20/20 17/17/17
f 20/20/20 21/21/21 17/17/17
f 21/21/21 22/22/22 17/17/17
f 22/22/22 23/23/23 17/17/17
f 23/23/23 16/16/16 17/17/17
f 16/16/16 23/23/23 13/13/13
f 23/23/23 24/24/24 13/13/13
