g CurvedTent_Interior
v 4 -4 0
v 4 4 0
v 4 4 2.216372
v 4 -4 2.216372
v 2.666667 -4 4.267845
v 2.666667 4 4.267845
v 1.333333 -4 5.212602
v 1.333333 4 5.212602
v -4 4 0
v -4 -4 0
v -4 -4 2.216372
v -4 4 2.216372
v 3.577026 -4 0.238541
v 3.577026 -3.935184 1.906563
v 3.577026 -3.935184 0.238541
v 3.577026 -4 1.906563
v 2.356109 -3.935184 3.785071
v 2.356109 -4 3.785071
v 1.19867 -3.935184 4.605195
v 1.19867 -4 4.605195
v 2.356109 4 3.785071
v 3.577026 4 1.906563
v 3.577026 3.843431 1.906563
v 3.577026 3.843431 0.238541
v 3.577026 4 0.238541
v -1.333333 -4 5.212602
v 1.333333 -4 5.212602
v 1.333333 4 5.212602
v -1.333333 4 5.212602
v -2.666667 -4 4.267845
v -2.666667 4 4.267845
v -4 -4 2.216372
v -4 4 2.216372
v -3.577026 4 1.906563
v -1.861057 3.843431 3.210889
v -3.577026 3.843431 1.906563
v -3.577026 4 0.238541
v -3.577026 3.843431 0.238541
v 1.333333 4 0.08735
v 2.666667 4 0.042777
v 1.333333 4 0.042777
v 2.666667 4 0.08735
v 4 4 0
v 3.577026 4 0.238541
v 4 4 2.216372
v 3.577026 4 1.906563
v 2.666667 4 4.267845
v 2.356109 4 3.785071
v 1.333333 4 5.212602
v 1.19867 4 4.605195
v -1.333333 4 5.212602
v 1.861057 3.843431 3.210889
v 3.577026 3.843431 1.906563
v 3.577026 3.843431 0.238541
v 2.106361 3.843431 0.038813
v 0.946812 3.843431 4.031013
v -1.19867 4 4.605195
v -2.666667 4 4.267845
v -0.946812 3.843431 4.031013
v -2.356109 4 3.785071
v -1.861057 3.843431 3.210889
v -4 4 2.216372
v -3.577026 4 1.906563
v -4 4 0
v -3.577026 4 0.238541
v -2.666667 4 0.042777
v -2.666667 4 0.08735
v -1.333333 4 0.042777
v -1.333333 4 0.08735
v -2.106361 3.843431 0.038813
v -3.577026 3.843431 0.238541
v -3.577026 3.843431 1.906563
v -1.861057 3.843431 3.210889
v 2.666667 -3.935184 0.238541
v 3.577026 -3.935184 0.238541
v 3.577026 -3.935184 1.906563
v 2.356109 -3.935184 3.785071
v 1.333333 -3.935184 0.238541
v 1.19867 -3.935184 4.605195
v -1.333333 -3.935184 0.238541
v -1.19867 -3.935184 4.605195
v -2.666667 -3.935184 0.238541
v -2.356109 -3.935184 3.785071
v -3.577026 -3.935184 0.238541
v -3.577026 -3.935184 1.906563
v 1.861057 3.843431 3.210889
v 2.106361 3.843431 0.038813
v 2.106361 3.766301 0
v 1.861057 3.766301 3.210889
v 0.946812 3.843431 4.031013
v 0.946812 3.766301 4.031013
v -0.946812 3.843431 4.031013
v -0.946812 3.766301 4.031013
v 1.19867 -4 4.605195
v -1.19867 -3.935184 4.605195
v 1.19867 -3.935184 4.605195
v -1.19867 -4 4.605195
v -2.356109 -3.935184 3.785071
v -2.356109 -4 3.785071
v -3.577026 -3.935184 1.906563
v -3.577026 -4 1.906563
v -3.577026 -4 1.906563
v -3.577026 -4 0.238541
v -3.577026 -3.935184 0.238541
v -3.577026 -3.935184 1.906563
v -3.577026 -4 0.238541
v -2.666667 -3.935184 0.238541
v -3.577026 -3.935184 0.238541
v -2.666667 -4 0.238541
v -1.333333 -3.935184 0.238541
v -1.333333 -4 0.238541
v 1.333333 -3.935184 0.238541
v 1.333333 -4 0.238541
v 2.666667 -3.935184 0.238541
v 2.666667 -4 0.238541
v 3.577026 -3.935184 0.238541
v 3.577026 -4 0.238541
v -1.861057 3.843431 3.210889
v -0.946812 3.843431 4.031013
v -0.946812 3.766301 4.031013
v -1.861057 3.766301 3.210889
v -2.106361 3.843431 0.038813
v -2.106361 3.766301 0
v 1.925617 3.766301 0
v 2.106361 3.766301 0
v 1.861057 3.766301 3.210889
v 1.70059 3.766301 3.113197
v 0.946812 3.766301 4.031013
v 0.874021 3.766301 3.854671
v -0.946812 3.766301 4.031013
v -0.874021 3.766301 3.854671
v -1.861057 3.766301 3.210889
v -1.70059 3.766301 3.113197
v -2.106361 3.766301 0
v -1.925617 3.766301 0
v -3.577026 -4 0.238541
v -3.577026 -4 1.906563
v -4 -4 2.216372
v -4 -4 0
v -2.666667 -4 4.267845
v -2.666667 -4 0.238541
v -2.356109 -4 3.785071
v -2.666667 -4 0
v -1.333333 -4 5.212602
v -1.333333 -4 0.238541
v -1.19867 -4 4.605195
v -1.333333 -4 0
v 1.333333 -4 5.212602
v 1.333333 -4 0.238541
v 1.19867 -4 4.605195
v 1.333333 -4 0
v 2.666667 -4 4.267845
v 2.666667 -4 0.238541
v 2.356109 -4 3.785071
v 2.666667 -4 0
v 4 -4 2.216372
v 3.577026 -4 0.238541
v 3.577026 -4 1.906563
v 4 -4 0
v 2.666667 -4 0
v 4 4 0
v 4 -4 0
v 2.666667 4 0.042777
v 1.333333 -4 0
v 1.333333 4 0.042777
v -1.333333 -4 0
v -1.333333 4 0.042777
v -2.666667 -4 0
v -2.666667 4 0.042777
v -4 -4 0
v -4 4 0
vt 0.585027 0.125311
vt 0.968854 0.125311
vt 0.968854 0.230376
vt 0.585027 0.230376
vt 0.585027 0.34636
vt 0.968854 0.34636
vt 0.585027 0.423824
vt 0.968854 0.423824
vt 0.968854 0.848747
vt 0.585028 0.848747
vt 0.585028 0.743682
vt 0.968854 0.743682
vt 0.533588 0.586998
vt 0.533588 0.699124
vt 0.533588 0.586998
vt 0.533588 0.699124
vt 0.451517 0.825399
vt 0.451517 0.825399
vt 0.373713 0.880529
vt 0.373713 0.880529
vt 0.450954 0.410379
vt 0.53434 0.282081
vt 0.53434 0.282081
vt 0.53434 0.168159
vt 0.53434 0.168159
vt 0.585027 0.550235
vt 0.585027 0.423824
vt 0.968854 0.423824
vt 0.968854 0.550235
vt 0.585028 0.627699
vt 0.968854 0.627698
vt 0.585028 0.743682
vt 0.968854 0.743682
vt 0.045733 0.282081
vt 0.16293 0.371164
vt 0.045733 0.282081
vt 0.045733 0.168159
vt 0.045733 0.168159
vt 0.3811 0.157833
vt 0.472164 0.154789
vt 0.3811 0.154789
vt 0.472164 0.157833
vt 0.563228 0.151867
vt 0.53434 0.168159
vt 0.563228 0.303241
vt 0.53434 0.282081
vt 0.472164 0.443352
vt 0.450954 0.410379
vt 0.3811 0.507877
vt 0.371903 0.466392
vt 0.198973 0.507877
vt 0.417143 0.371164
vt 0.53434 0.282081
vt 0.53434 0.168159
vt 0.433897 0.154518
vt 0.354702 0.427177
vt 0.20817 0.466392
vt 0.107909 0.443352
vt 0.225372 0.427177
vt 0.129119 0.410379
vt 0.16293 0.371164
vt 0.016845 0.303241
vt 0.045733 0.282081
vt 0.016845 0.151867
vt 0.045733 0.168159
vt 0.107909 0.154789
vt 0.107909 0.157833
vt 0.198973 0.154789
vt 0.198973 0.157833
vt 0.146177 0.154518
vt 0.045733 0.168159
vt 0.045733 0.282081
vt 0.16293 0.371164
vt 0.472393 0.586998
vt 0.533588 0.586998
vt 0.533588 0.699124
vt 0.451517 0.825399
vt 0.382765 0.586998
vt 0.373713 0.880529
vt 0.203509 0.586998
vt 0.212561 0.880529
vt 0.113881 0.586998
vt 0.134757 0.825399
vt 0.052686 0.586998
vt 0.052686 0.699124
vt 0.417143 0.371164
vt 0.433897 0.154518
vt 0.433897 0.151867
vt 0.417143 0.371164
vt 0.354702 0.427177
vt 0.354702 0.427177
vt 0.225372 0.427177
vt 0.225372 0.427177
vt 0.373713 0.880529
vt 0.212561 0.880529
vt 0.373713 0.880529
vt 0.212561 0.880529
vt 0.134757 0.825399
vt 0.134757 0.825399
vt 0.052686 0.699124
vt 0.052686 0.699124
vt 0.052686 0.699124
vt 0.052686 0.586998
vt 0.052686 0.586998
vt 0.052686 0.699124
vt 0.052686 0.586998
vt 0.113881 0.586998
vt 0.052686 0.586998
vt 0.113881 0.586998
vt 0.203509 0.586998
vt 0.203509 0.586998
vt 0.382765 0.586998
vt 0.382765 0.586998
vt 0.472393 0.586998
vt 0.472393 0.586998
vt 0.533588 0.586998
vt 0.533588 0.586998
vt 0.16293 0.371164
vt 0.225372 0.427177
vt 0.225372 0.427177
vt 0.16293 0.371164
vt 0.146177 0.154518
vt 0.146177 0.151867
vt 0.421552 0.151867
vt 0.433897 0.151867
vt 0.417143 0.371164
vt 0.406183 0.364492
vt 0.354702 0.427177
vt 0.34973 0.415133
vt 0.225372 0.427177
vt 0.230343 0.415133
vt 0.16293 0.371164
vt 0.17389 0.364492
vt 0.146177 0.151867
vt 0.158521 0.151867
vt 0.052686 0.586998
vt 0.052686 0.699124
vt 0.024253 0.71995
vt 0.024253 0.570963
vt 0.113881 0.857852
vt 0.113881 0.586998
vt 0.134757 0.825399
vt 0.113881 0.570963
vt 0.203509 0.921359
vt 0.203509 0.586998
vt 0.212561 0.880529
vt 0.203509 0.570963
vt 0.382765 0.921359
vt 0.382765 0.586998
vt 0.373713 0.880529
vt 0.382765 0.570963
vt 0.472393 0.857852
vt 0.472393 0.586998
vt 0.451517 0.825399
vt 0.472393 0.570963
vt 0.562021 0.71995
vt 0.533588 0.586998
vt 0.533588 0.699124
vt 0.562021 0.570963
vt 0.725203 0.837804
vt 0.837804 0.162196
vt 0.837804 0.837804
vt 0.725203 0.162196
vt 0.612602 0.837804
vt 0.612601 0.162196
vt 0.387399 0.837804
vt 0.387398 0.162196
vt 0.274797 0.837804
vt 0.274797 0.162196
vt 0.162196 0.837804
vt 0.162196 0.162196
vn -1 0 0
vn -1 0 0
vn -0.9587666 0 -0.2841946
vn -0.9587666 0 -0.2841946
vn -0.7211482 0 -0.6927808
vn -0.7211482 0 -0.6927808
vn -0.3033691 0 -0.9528731
vn -0.3033691 0 -0.9528731
vn 1 0 0
vn 1 0 0
vn 0.9587666 0 -0.2841946
vn 0.9587666 0 -0.2841946
vn 1 0 0
vn 0.9587665 0 0.2841947
vn 1 0 0
vn 0.9587665 0 0.2841947
vn 0.7211482 0 0.6927808
vn 0.7211482 0 0.6927808
vn 0.3033693 0 0.9528731
vn 0.3033693 0 0.9528731
vn 0.09183892 -0.9911364 0.09599022
vn 0.362097 -0.9292365 0.07352173
vn 0.478691 -0.872587 0.09719545
vn 1 0 0
vn 1 0 0
vn 0.3033691 0 -0.9528731
vn -0.3033691 0 -0.9528731
vn -0.3033691 0 -0.9528731
vn 0.3033691 0 -0.9528731
vn 0.7211482 0 -0.6927808
vn 0.7211482 0 -0.6927808
vn 0.9587666 0 -0.2841946
vn 0.9587666 0 -0.2841946
vn -0.362097 -0.9292365 0.07352173
vn -0.6076261 -0.7054891 0.3647955
vn -0.478691 -0.872587 0.09719545
vn -1 0 0
vn -1 0 0
vn 0 -1 0
vn 0 -1 0
vn 0 -1 0
vn 0 -1 0
vn 0 -1 0
vn 0 -1 0
vn 0 -1 0
vn 0.362097 -0.9292365 0.07352173
vn 0 -1 0
vn 0.09183892 -0.9911364 0.09599022
vn 0 -1 0
vn 0.03051481 -0.9956722 0.08778217
vn 0 -1 0
vn 0.6076261 -0.7054891 0.3647955
vn 0.478691 -0.872587 0.09719545
vn 0 -1 0
vn 0 -1 0
vn 0.2452493 -0.6989202 0.6718358
vn -0.0305148 -0.9956722 0.08778217
vn 0 -1 0
vn -0.2452493 -0.6989201 0.6718358
vn -0.09183891 -0.9911364 0.09599022
vn -0.6076261 -0.7054891 0.3647955
vn 0 -1 0
vn -0.362097 -0.9292365 0.07352173
vn 0 -1 0
vn 0 -1 0
vn 0 -1 0
vn 0 -1 0
vn 0 -1 0
vn 0 -1 0
vn 0 -1 0
vn 0 -1 0
vn -0.478691 -0.872587 0.09719545
vn -0.6076261 -0.7054891 0.3647955
vn 0 1 0
vn 0 1 0
vn 0 1 0
vn 0 1 0
vn 0 1 0
vn 0 1 0
vn 0 1 0
vn 0 1 0
vn 0 1 0
vn 0 1 0
vn 0 1 0
vn 0 1 0
vn 0.6076261 -0.7054891 0.3647955
vn 0.9968739 -0.01927854 0.07662176
vn 0.9968739 -0.01927854 0.07662176
vn 0.896802 -0.01038615 0.4423102
vn 0.2452493 -0.6989202 0.6718358
vn 0.3575019 0 0.9339125
vn -0.2452493 -0.6989201 0.6718358
vn -0.3575019 0 0.9339125
vn 0.3033693 0 0.9528731
vn -0.3033693 0 0.9528731
vn 0.3033693 0 0.9528731
vn -0.3033693 0 0.9528731
vn -0.7211482 0 0.6927808
vn -0.7211482 0 0.6927808
vn -0.9587665 0 0.2841947
vn -0.9587665 0 0.2841947
vn -0.9587665 0 0.2841947
vn -1 0 0
vn -1 0 0
vn -0.9587665 0 0.2841947
vn 0 0 -1
vn 0 0 -1
vn 0 0 -1
vn 0 0 -1
vn 0 0 -1
vn 0 0 -1
vn 0 0 -1
vn 0 0 -1
vn 0 0 -1
vn 0 0 -1
vn 0 0 -1
vn 0 0 -1
vn -0.6076261 -0.7054891 0.3647955
vn -0.2452493 -0.6989201 0.6718358
vn -0.3575019 0 0.9339125
vn -0.896802 -0.01038621 0.4423102
vn -0.9968739 -0.01927866 0.07662176
vn -0.9968739 -0.01927866 0.07662176
vn 0 1 0
vn 0 1 0
vn 0 1 0
vn 0 1 0
vn 0 1 0
vn 0 1 0
vn 0 1 0
vn 0 1 0
vn 0 1 0
vn 0 1 0
vn 0 1 0
vn 0 1 0
vn 0 1 0
vn 0 1 0
vn 0 1 0
vn 0 1 0
vn 0 1 0
vn 0 1 0
vn 0 1 0
vn 0 1 0
vn 0 1 0
vn 0 1 0
vn 0 1 0
vn 0 1 0
vn 0 1 0
vn 0 1 0
vn 0 1 0
vn 0 1 0
vn 0 1 0
vn 0 1 0
vn 0 1 0
vn 0 1 0
vn 0 1 0
vn 0 1 0
vn 0 1 0
vn 0 1 0
vn 0.008019893 -0.004010262 0.9999598
vn 0.01603926 -0.002673209 0.9998678
vn 0.01603926 -0.002673209 0.9998678
vn 0.008019456 -0.004010335 0.9999598
vn 0 -0.005347049 0.9999857
vn 0 -0.005347049 0.9999857
vn 0 -0.005347049 0.9999857
vn 0 -0.005347049 0.9999857
vn -0.008019893 -0.004010262 0.9999598
vn -0.008019456 -0.004010335 0.9999598
vn -0.01603926 -0.002673209 0.9998678
vn -0.01603926 -0.002673209 0.9998678
g CurvedTent_Interior_0
f 3/3/3 2/2/2 1/1/1
f 4/4/4 3/3/3 1/1/1
f 3/3/3 4/4/4 5/5/5
f 6/6/6 3/3/3 5/5/5
f 6/6/6 5/5/5 7/7/7
f 8/8/8 6/6/6 7/7/7
f 11/11/11 10/10/10 9/9/9
f 12/12/12 11/11/11 9/9/9
f 15/15/15 14/14/14 13/13/13
f 14/14/14 16/16/16 13/13/13
f 14/14/14 17/17/17 16/16/16
f 17/17/17 18/18/18 16/16/16
f 17/17/17 19/19/19 18/18/18
f 19/19/19 20/20/20 18/18/18
f 23/23/23 22/22/22 21/21/21
f 23/23/23 24/24/24 22/22/22
f 24/24/24 25/25/25 22/22/22
f 28/28/28 27/27/27 26/26/26
f 29/29/29 28/28/28 26/26/26
f 29/29/29 26/26/26 30/30/30
f 31/31/31 29/29/29 30/30/30
f 31/31/31 30/30/30 32/32/32
f 33/33/33 31/31/31 32/32/32
f 36/36/36 35/35/35 34/34/34
f 36/36/36 34/34/34 37/37/37
f 38/38/38 36/36/36 37/37/37
f 41/41/41 40/40/40 39/39/39
f 40/40/40 42/42/42 39/39/39
f 40/40/40 43/43/43 42/42/42
f 43/43/43 44/44/44 42/42/42
f 43/43/43 45/45/45 44/44/44
f 45/45/45 46/46/46 44/44/44
f 45/45/45 47/47/47 46/46/46
f 47/47/47 48/48/48 46/46/46
f 47/47/47 49/49/49 48/48/48
f 49/49/49 50/50/50 48/48/48
f 49/49/49 51/51/51 50/50/50
f 52/52/52 48/48/48 50/50/50
f 52/52/52 53/53/53 48/48/48
f 53/53/53 52/52/52 54/54/54
f 52/52/52 55/55/55 54/54/54
f 56/56/56 52/52/52 50/50/50
f 51/51/51 57/57/57 50/50/50
f 56/56/56 50/50/50 57/57/57
f 51/51/51 58/58/58 57/57/57
f 59/59/59 56/56/56 57/57/57
f 58/58/58 60/60/60 57/57/57
f 59/59/59 57/57/57 60/60/60
f 61/61/61 59/59/59 60/60/60
f 58/58/58 62/62/62 60/60/60
f 61/61/61 60/60/60 63/63/63
f 62/62/62 63/63/63 60/60/60
f 62/62/62 64/64/64 63/63/63
f 64/64/64 65/65/65 63/63/63
f 64/64/64 66/66/66 65/65/65
f 66/66/66 67/67/67 65/65/65
f 66/66/66 68/68/68 67/67/67
f 68/68/68 69/69/69 67/67/67
f 72/72/72 71/71/71 70/70/70
f 73/73/73 72/72/72 70/70/70
f 76/76/76 75/75/75 74/74/74
f 77/77/77 76/76/76 74/74/74
f 77/77/77 74/74/74 78/78/78
f 79/79/79 77/77/77 78/78/78
f 79/79/79 78/78/78 80/80/80
f 81/81/81 79/79/79 80/80/80
f 81/81/81 80/80/80 82/82/82
f 83/83/83 81/81/81 82/82/82
f 83/83/83 82/82/82 84/84/84
f 85/85/85 83/83/83 84/84/84
f 88/88/88 87/87/87 86/86/86
f 89/89/89 88/88/88 86/86/86
f 89/89/89 86/86/86 90/90/90
f 91/91/91 89/89/89 90/90/90
f 91/91/91 90/90/90 92/92/92
f 93/93/93 91/91/91 92/92/92
f 96/96/96 95/95/95 94/94/94
f 95/95/95 97/97/97 94/94/94
f 95/95/95 98/98/98 97/97/97
f 98/98/98 99/99/99 97/97/97
f 98/98/98 100/100/100 99/99/99
f 100/100/100 101/101/101 99/99/99
f 104/104/104 103/103/103 102/102/102
f 105/105/105 104/104/104 102/102/102
f 108/108/108 107/107/107 106/106/106
f 107/107/107 109/109/109 106/106/106
f 107/107/107 110/110/110 109/109/109
f 110/110/110 111/111/111 109/109/109
f 110/110/110 112/112/112 111/111/111
f 112/112/112 113/113/113 111/111/111
f 112/112/112 114/114/114 113/113/113
f 114/114/114 115/115/115 113/113/113
f 114/114/114 116/116/116 115/115/115
f 116/116/116 117/117/117 115/115/115
f 120/120/120 119/119/119 118/118/118
f 121/121/121 120/120/120 118/118/118
f 121/121/121 118/118/118 122/122/122
f 123/123/123 121/121/121 122/122/122
f 126/126/126 125/125/125 124/124/124
f 127/127/127 126/126/126 124/124/124
f 128/128/128 126/126/126 127/127/127
f 129/129/129 128/128/128 127/127/127
f 130/130/130 128/128/128 129/129/129
f 131/131/131 130/130/130 129/129/129
f 132/132/132 130/130/130 131/131/131
f 133/133/133 132/132/132 131/131/131
f 134/134/134 132/132/132 133/133/133
f 135/135/135 134/134/134 133/133/133
f 138/138/138 137/137/137 136/136/136
f 139/139/139 138/138/138 136/136/136
f 138/138/138 140/140/140 137/137/137
f 139/139/139 136/136/136 141/141/141
f 140/140/140 142/142/142 137/137/137
f 143/143/143 139/139/139 141/141/141
f 140/140/140 144/144/144 142/142/142
f 143/143/143 141/141/141 145/145/145
f 144/144/144 146/146/146 142/142/142
f 147/147/147 143/143/143 145/145/145
f 144/144/144 148/148/148 146/146/146
f 147/147/147 145/145/145 149/149/149
f 148/148/148 150/150/150 146/146/146
f 151/151/151 147/147/147 149/149/149
f 148/148/148 152/152/152 150/150/150
f 151/151/151 149/149/149 153/153/153
f 152/152/152 154/154/154 150/150/150
f 155/155/155 151/151/151 153/153/153
f 152/152/152 156/156/156 154/154/154
f 155/155/155 153/153/153 157/157/157
f 156/156/156 158/158/158 154/154/154
f 159/159/159 155/155/155 157/157/157
f 159/159/159 157/157/157 158/158/158
f 156/156/156 159/159/159 158/158/158
g CurvedTent_Interior_1
f 162/162/162 161/161/161 160/160/160
f 161/161/161 163/163/163 160/160/160
f 160/160/160 163/163/163 164/164/164
f 163/163/163 165/165/165 164/164/164
f 164/164/164 165/165/165 166/166/166
f 165/165/165 167/167/167 166/166/166
f 166/166/166 167/167/167 168/168/168
f 167/167/167 169/169/169 168/168/168
f 168/168/168 169/169/169 170/170/170
f 169/169/169 171/171/171 170/170/170
