g DeadLeaf
v 0.159368 -1.08761 -0.208801
v 0.005169 -1.278643 -1.005386
v -0.148936 -1.083945 -0.210015
v 0.178356 -0.600701 0.04249
v -0.164198 -0.613728 0.015584
v -0.016103 -0.26345 0.00337
v 0.033748 -0.272689 -0.005979
v -0.016103 -0.26345 0.00337
v -0.016103 0.069575 0.00337
v 0.033748 0.060337 -0.005979
v 0.033748 -0.272689 -0.005979
v 0.159368 -1.08761 -0.208801
v -0.148936 -1.083945 -0.210015
v 0.005169 -1.278643 -1.005386
v 0.178356 -0.600701 0.04249
v -0.164198 -0.613728 0.015584
v -0.016103 -0.26345 0.00337
v 0.033748 -0.272689 -0.005979
v -0.016103 -0.26345 0.00337
v 0.033748 -0.272689 -0.005979
v 0.033748 0.060337 -0.005979
v -0.016103 0.069575 0.00337
vt 0.668494 0.776848
vt 0.689458 0.827462
vt 0.711673 0.777306
vt 0.668494 0.719538
vt 0.712902 0.721531
vt 0.694386 0.693646
vt 0.687857 0.694055
vt 0.690975 0.704852
vt 0.691339 0.697304
vt 0.689445 0.697423
vt 0.689082 0.70497
vt 0.668494 0.776848
vt 0.711673 0.777306
vt 0.689458 0.827462
vt 0.668494 0.719538
vt 0.712902 0.721531
vt 0.694386 0.693646
vt 0.687857 0.694055
vt 0.690975 0.704852
vt 0.689082 0.70497
vt 0.689445 0.697423
vt 0.691339 0.697304
vn -0.0269964 -0.7114965 0.7021709
vn -0.01247949 -0.9718018 0.2354684
vn -0.0270244 -0.7105443 0.7031332
vn -0.04221882 -0.3486826 0.9362895
vn -0.04258761 -0.3534883 0.934469
vn 0.02892509 0.06047772 0.9977503
vn 0.2012551 0.09988013 0.9744333
vn 0.02892509 0.06047772 0.9977503
vn 0.1843255 0 0.9828653
vn 0.1843255 0 0.9828653
vn 0.2012551 0.09988013 0.9744333
vn 0.0269964 0.7114965 -0.7021709
vn 0.02702439 0.7105443 -0.7031332
vn 0.01247949 0.9718018 -0.2354684
vn 0.04221882 0.3486826 -0.9362895
vn 0.0425876 0.3534883 -0.934469
vn -0.02892508 -0.06047772 -0.9977503
vn -0.2012551 -0.09988013 -0.9744333
vn -0.02892508 -0.06047772 -0.9977503
vn -0.2012551 -0.09988013 -0.9744333
vn -0.1843255 0 -0.9828653
vn -0.1843254 0 -0.9828653
g DeadLeaf_0
f 3/3/3 2/2/2 1/1/1
f 1/1/1 4/4/4 3/3/3
f 4/4/4 5/5/5 3/3/3
f 4/4/4 6/6/6 5/5/5
f 4/4/4 7/7/7 6/6/6
f 10/10/10 9/9/9 8/8/8
f 11/11/11 10/10/10 8/8/8
f 14/14/14 13/13/13 12/12/12
f 15/15/15 12/12/12 13/13/13
f 16/16/16 15/15/15 13/13/13
f 17/17/17 15/15/15 16/16/16
f 18/18/18 15/15/15 17/17/17
f 21/21/21 20/20/20 19/19/19
f 22/22/22 21/21/21 19/19/19
