g DeadSmallPlant
v -0.106139 -0.011389 0.294893
v -0.099305 0.074544 0.365101
v -0.476024 0.313278 0.483156
v -0.390231 -0.28623 0.448074
v -0.106139 -0.011389 0.361353
v -0.099305 0.074544 0.365101
v -0.865508 -0.470333 0.329991
v -0.959528 0.108599 0.333658
v -1.119285 -0.214124 0.16767
v 0.22945 -0.914186 0.400119
v -0.142574 -1.014998 0.16767
v -0.475328 -0.912075 0.396452
v 0.243278 -0.418664 0.549616
v -0.48128 -0.427589 0.514535
v -0.056519 -0.126666 0.361353
v 0.048923 -0.135904 0.365101
v 0.712061 -0.55335 0.400119
v 0.927221 -0.285327 0.16767
v 0.92312 0.007505 0.396452
v 0.240336 -0.389458 0.549616
v 0.467786 0.183221 0.514535
v 0.089161 0.040477 0.361353
v 0.066003 -0.046581 0.365101
v -0.052751 0.853572 0.400119
v 0.342329 1.011117 0.16767
v 0.626891 0.750831 0.396452
v -0.299628 0.376999 0.549616
v 0.404316 0.282091 0.514535
v 0.081084 0.036234 0.361353
v -0.016393 0.060222 0.365101
v -0.601355 0.513406 0.251242
v -0.468198 0.841045 0.055492
v -0.148199 0.8617 0.247036
v -0.457853 -0.087692 0.5143
v 0.004608 0.458201 0.47406
v 0.124859 -0.055756 0.34025
v 0.054319 -0.100379 0.34455
v -0.734617 -0.304975 0.58723
v -0.735039 -0.604398 0.320602
v -0.451552 -0.702107 0.583024
v -0.449351 0.025507 0.758709
v -0.164853 -0.389995 0.718469
v -0.041048 -0.049381 0.280006
v -0.088634 0.004225 0.284305
v 0.22945 -0.914186 0.400119
v -0.475328 -0.912075 0.396452
v -0.142574 -1.014998 0.16767
v 0.243278 -0.418664 0.549616
v -0.48128 -0.427589 0.514535
v -0.056519 -0.126666 0.361353
v 0.048923 -0.135904 0.365101
v -0.052751 0.853572 0.400119
v 0.626891 0.750831 0.396452
v 0.342329 1.011117 0.16767
v -0.299628 0.376999 0.549616
v 0.404316 0.282091 0.514535
v 0.081084 0.036234 0.361353
v -0.016393 0.060222 0.365101
v 0.712061 -0.55335 0.400119
v 0.92312 0.007505 0.396452
v 0.927221 -0.285327 0.16767
v 0.240336 -0.389458 0.549616
v 0.467786 0.183221 0.514535
v 0.089161 0.040477 0.361353
v 0.066003 -0.046581 0.365101
v -0.959528 0.108599 0.333658
v -0.865508 -0.470333 0.329991
v -1.119285 -0.214124 0.16767
v -0.476024 0.313278 0.483156
v -0.390231 -0.28623 0.448074
v -0.106139 -0.011389 0.361353
v -0.099305 0.074544 0.365101
v -0.601355 0.513406 0.251242
v -0.148199 0.8617 0.247036
v -0.468198 0.841045 0.055492
v -0.457853 -0.087692 0.5143
v 0.004608 0.458201 0.47406
v 0.124859 -0.055756 0.34025
v 0.054319 -0.100379 0.34455
v -0.734617 -0.304975 0.58723
v -0.451552 -0.702107 0.583024
v -0.735039 -0.604398 0.320602
v -0.449351 0.025507 0.758709
v -0.164853 -0.389995 0.718469
v -0.041048 -0.049381 0.280006
v -0.088634 0.004225 0.284305
vt 0.692447 0.709162
vt 0.684168 0.709553
vt 0.66624 0.723493
vt 0.709551 0.725397
vt 0.692447 0.709162
vt 0.684168 0.709553
vt 0.708351 0.778703
vt 0.66624 0.778265
vt 0.686685 0.826638
vt 0.732646 0.778265
vt 0.753092 0.826638
vt 0.774758 0.778703
vt 0.732646 0.723493
vt 0.775957 0.725397
vt 0.758854 0.709162
vt 0.750574 0.709553
vt 0.66624 0.778265
vt 0.686685 0.826638
vt 0.708351 0.778703
vt 0.66624 0.723493
vt 0.709551 0.725397
vt 0.692447 0.709162
vt 0.684168 0.709553
vt 0.732646 0.778265
vt 0.753092 0.826638
vt 0.774758 0.778703
vt 0.732646 0.723493
vt 0.775957 0.725397
vt 0.758854 0.709162
vt 0.750574 0.709553
vt 0.66624 0.778265
vt 0.686685 0.826638
vt 0.708351 0.778703
vt 0.66624 0.723493
vt 0.709551 0.725397
vt 0.692447 0.709162
vt 0.684168 0.709553
vt 0.66624 0.778265
vt 0.686685 0.826638
vt 0.708351 0.778703
vt 0.66624 0.723493
vt 0.709551 0.725397
vt 0.692447 0.709162
vt 0.684168 0.709553
vt 0.731669 0.778265
vt 0.773781 0.778703
vt 0.752115 0.826638
vt 0.731669 0.723493
vt 0.774981 0.725397
vt 0.757877 0.709162
vt 0.749598 0.709553
vt 0.733134 0.778265
vt 0.775246 0.778703
vt 0.75358 0.826638
vt 0.733134 0.723493
vt 0.776446 0.725397
vt 0.759342 0.709162
vt 0.751063 0.709553
vt 0.66624 0.778265
vt 0.708351 0.778703
vt 0.686685 0.826638
vt 0.66624 0.723493
vt 0.709551 0.725397
vt 0.692447 0.709162
vt 0.684168 0.709553
vt 0.66624 0.778265
vt 0.708351 0.778703
vt 0.686685 0.826638
vt 0.66624 0.723493
vt 0.709551 0.725397
vt 0.692447 0.709162
vt 0.684168 0.709553
vt 0.66624 0.778265
vt 0.708351 0.778703
vt 0.686685 0.826638
vt 0.66624 0.723493
vt 0.709551 0.725397
vt 0.692447 0.709162
vt 0.684168 0.709553
vt 0.66624 0.778265
vt 0.708351 0.778703
vt 0.686685 0.826638
vt 0.66624 0.723493
vt 0.709551 0.725397
vt 0.692447 0.709162
vt 0.684168 0.709553
vn -0.4117429 0.05826139 -0.9094357
vn 0.1501008 0.6183395 -0.7714441
vn 0.127764 0.06161847 -0.9898886
vn 0.1296772 0.05700655 -0.9899161
vn -0.298805 0.01754159 -0.9541529
vn -0.26197 0.06283655 -0.9630281
vn 0.2885809 0.07361994 -0.9546209
vn 0.2782806 0.07255365 -0.9577556
vn 0.6081384 0.1037483 -0.7870223
vn -0.02390213 -0.3268806 0.9447633
vn -0.004843515 -0.9145709 0.4043966
vn -0.023803 -0.332843 0.9426818
vn -0.02960007 -0.1427735 0.9893126
vn -0.02885731 -0.1697493 0.9850647
vn -0.04388433 0.5091397 0.8595644
vn 0.01912812 0.5555766 0.8312452
vn -0.3187609 0.09131788 -0.943426
vn -0.8498239 0.31705 -0.4210448
vn -0.3279384 0.09502524 -0.9399077
vn -0.1557266 0.02238384 -0.9875465
vn -0.1469569 0.0182509 -0.9889745
vn 0.4431013 -0.2242666 -0.8679664
vn 0.5301428 -0.1767238 -0.8292872
vn 0.06799088 0.2958997 0.9527962
vn 0.1129375 0.722758 0.6818108
vn 0.07118496 0.3236807 0.9434848
vn 0.0503386 0.1349416 0.9895741
vn 0.05221447 0.1502247 0.9872721
vn -0.02863963 -0.5077052 0.8610547
vn -0.1093702 -0.5715044 0.8132779
vn -0.308216 0.3666445 0.8778238
vn -0.4438103 0.5856208 0.6782925
vn -0.3153664 0.377878 0.8704897
vn -0.1312903 0.2055685 0.9697961
vn -0.1951492 0.2613918 0.9452994
vn 0.2905566 -0.1832119 0.939154
vn 0.2847753 -0.3647473 0.8864889
vn 0.3234684 0.2732163 -0.9059365
vn 0.67741 0.488663 -0.5498402
vn 0.3426811 0.2854339 -0.8950403
vn -0.08524322 0.007483545 -0.9963321
vn -0.04920952 0.03219334 -0.9982696
vn -0.7114621 -0.4548303 -0.5356782
vn -0.672469 -0.5579516 -0.4862874
vn 0.02390213 0.3268806 -0.9447633
vn 0.02380299 0.3328429 -0.9426818
vn 0.004843515 0.9145709 -0.4043966
vn 0.02960006 0.1427735 -0.9893126
vn 0.02885731 0.1697493 -0.9850647
vn 0.04388433 -0.5091397 -0.8595644
vn -0.01912812 -0.5555766 -0.8312452
vn -0.0679909 -0.2958997 -0.9527963
vn -0.07118496 -0.3236807 -0.9434848
vn -0.1129375 -0.722758 -0.6818108
vn -0.0503386 -0.1349416 -0.9895741
vn -0.05221447 -0.1502247 -0.9872721
vn 0.02863963 0.5077052 -0.8610547
vn 0.1093702 0.5715044 -0.8132779
vn 0.3187609 -0.09131788 0.943426
vn 0.3279384 -0.09502524 0.9399077
vn 0.8498239 -0.31705 0.4210448
vn 0.1557266 -0.02238384 0.9875465
vn 0.1469569 -0.0182509 0.9889745
vn -0.4431013 0.2242666 0.8679664
vn -0.5301428 0.1767238 0.8292872
vn -0.2782806 -0.07255364 0.9577556
vn -0.288581 -0.07361993 0.9546209
vn -0.6081384 -0.1037483 0.7870223
vn -0.1592943 -0.06136703 0.985322
vn -0.163145 -0.06147169 0.9846852
vn 0.298805 -0.01754159 0.9541529
vn 0.26197 -0.06283655 0.9630281
vn 0.308216 -0.3666445 -0.8778238
vn 0.3153664 -0.377878 -0.8704897
vn 0.4438103 -0.5856208 -0.6782925
vn 0.1312903 -0.2055685 -0.9697961
vn 0.1951492 -0.2613918 -0.9452994
vn -0.2905566 0.1832119 -0.939154
vn -0.2847753 0.3647473 -0.8864889
vn -0.3234684 -0.2732163 0.9059365
vn -0.3426811 -0.2854339 0.8950403
vn -0.67741 -0.488663 0.5498402
vn 0.08524322 -0.007483588 0.9963321
vn 0.04920952 -0.03219339 0.9982696
vn 0.7114621 0.4548303 0.5356782
vn 0.672469 0.5579516 0.4862874
g DeadSmallPlant_0
f 3/3/3 2/2/2 1/1/1
f 3/3/3 1/1/1 4/4/4
f 3/3/3 5/5/5 4/4/4
f 3/3/3 6/6/6 5/5/5
f 3/3/3 4/4/4 7/7/7
f 3/3/3 4/4/4 7/7/7
f 8/8/8 3/3/3 7/7/7
f 8/8/8 3/3/3 7/7/7
f 7/7/7 9/9/9 8/8/8
f 7/7/7 9/9/9 8/8/8
f 12/12/12 11/11/11 10/10/10
f 12/12/12 11/11/11 10/10/10
f 10/10/10 13/13/13 12/12/12
f 10/10/10 13/13/13 12/12/12
f 13/13/13 14/14/14 12/12/12
f 13/13/13 14/14/14 12/12/12
f 13/13/13 15/15/15 14/14/14
f 13/13/13 15/15/15 14/14/14
f 13/13/13 16/16/16 15/15/15
f 13/13/13 16/16/16 15/15/15
f 19/19/19 18/18/18 17/17/17
f 19/19/19 18/18/18 17/17/17
f 17/17/17 20/20/20 19/19/19
f 17/17/17 20/20/20 19/19/19
f 20/20/20 21/21/21 19/19/19
f 20/20/20 21/21/21 19/19/19
f 20/20/20 22/22/22 21/21/21
f 20/20/20 22/22/22 21/21/21
f 20/20/20 23/23/23 22/22/22
f 20/20/20 23/23/23 22/22/22
f 26/26/26 25/25/25 24/24/24
f 26/26/26 25/25/25 24/24/24
f 24/24/24 27/27/27 26/26/26
f 24/24/24 27/27/27 26/26/26
f 27/27/27 28/28/28 26/26/26
f 27/27/27 28/28/28 26/26/26
f 27/27/27 29/29/29 28/28/28
f 27/27/27 29/29/29 28/28/28
f 27/27/27 30/30/30 29/29/29
f 27/27/27 30/30/30 29/29/29
f 33/33/33 32/32/32 31/31/31
f 33/33/33 32/32/32 31/31/31
f 31/31/31 34/34/34 33/33/33
f 31/31/31 34/34/34 33/33/33
f 34/34/34 35/35/35 33/33/33
f 34/34/34 35/35/35 33/33/33
f 34/34/34 36/36/36 35/35/35
f 34/34/34 36/36/36 35/35/35
f 34/34/34 37/37/37 36/36/36
f 34/34/34 37/37/37 36/36/36
f 40/40/40 39/39/39 38/38/38
f 40/40/40 39/39/39 38/38/38
f 38/38/38 41/41/41 40/40/40
f 38/38/38 41/41/41 40/40/40
f 41/41/41 42/42/42 40/40/40
f 41/41/41 42/42/42 40/40/40
f 41/41/41 43/43/43 42/42/42
f 41/41/41 43/43/43 42/42/42
f 41/41/41 44/44/44 43/43/43
f 41/41/41 44/44/44 43/43/43
f 47/47/47 46/46/46 45/45/45
f 47/47/47 46/46/46 45/45/45
f 48/48/48 45/45/45 46/46/46
f 48/48/48 45/45/45 46/46/46
f 49/49/49 48/48/48 46/46/46
f 49/49/49 48/48/48 46/46/46
f 50/50/50 48/48/48 49/49/49
f 50/50/50 48/48/48 49/49/49
f 51/51/51 48/48/48 50/50/50
f 51/51/51 48/48/48 50/50/50
f 54/54/54 53/53/53 52/52/52
f 54/54/54 53/53/53 52/52/52
f 55/55/55 52/52/52 53/53/53
f 55/55/55 52/52/52 53/53/53
f 56/56/56 55/55/55 53/53/53
f 56/56/56 55/55/55 53/53/53
f 57/57/57 55/55/55 56/56/56
f 57/57/57 55/55/55 56/56/56
f 58/58/58 55/55/55 57/57/57
f 58/58/58 55/55/55 57/57/57
f 61/61/61 60/60/60 59/59/59
f 61/61/61 60/60/60 59/59/59
f 62/62/62 59/59/59 60/60/60
f 62/62/62 59/59/59 60/60/60
f 63/63/63 62/62/62 60/60/60
f 63/63/63 62/62/62 60/60/60
f 64/64/64 62/62/62 63/63/63
f 64/64/64 62/62/62 63/63/63
f 65/65/65 62/62/62 64/64/64
f 65/65/65 62/62/62 64/64/64
f 68/68/68 67/67/67 66/66/66
f 68/68/68 67/67/67 66/66/66
f 69/69/69 66/66/66 67/67/67
f 69/69/69 66/66/66 67/67/67
f 70/70/70 69/69/69 67/67/67
f 70/70/70 69/69/69 67/67/67
f 71/71/71 69/69/69 70/70/70
f 71/71/71 69/69/69 70/70/70
f 72/72/72 69/69/69 71/71/71
f 72/72/72 69/69/69 71/71/71
f 75/75/75 74/74/74 73/73/73
f 75/75/75 74/74/74 73/73/73
f 76/76/76 73/73/73 74/74/74
f 76/76/76 73/73/73 74/74/74
f 77/77/77 76/76/76 74/74/74
f 77/77/77 76/76/76 74/74/74
f 78/78/78 76/76/76 77/77/77
f 78/78/78 76/76/76 77/77/77
f 79/79/79 76/76/76 78/78/78
f 79/79/79 76/76/76 78/78/78
f 82/82/82 81/81/81 80/80/80
f 82/82/82 81/81/81 80/80/80
f 83/83/83 80/80/80 81/81/81
f 83/83/83 80/80/80 81/81/81
f 84/84/84 83/83/83 81/81/81
f 84/84/84 83/83/83 81/81/81
f 85/85/85 83/83/83 84/84/84
f 85/85/85 83/83/83 84/84/84
f 86/86/86 83/83/83 85/85/85
f 86/86/86 83/83/83 85/85/85
