g Door
v 0.770687 0.176459 0
v 0.770687 0.176459 2.907851
v -1.045014 0.176459 2.907851
v -1.045014 0.176459 0
v 0.770687 0.063015 0
v -1.045014 0.063015 0
v -1.045014 0.063015 2.907851
v 0.770687 0.063015 2.907851
v -1.045014 0.176459 2.907851
v -1.045014 0.063015 2.907851
v -1.045014 0.063015 0
v -1.045014 0.176459 0
v 0.770687 0.176459 2.907851
v 0.770687 0.063015 2.907851
v -1.045014 0.063015 2.907851
v -1.045014 0.176459 2.907851
v 0.770687 0.176459 0
v 0.770687 0.063015 0
v 0.770687 0.063015 2.907851
v 0.770687 0.176459 2.907851
v -1.045014 0.176459 0
v -1.045014 0.063015 0
v 0.770687 0.063015 0
v 0.770687 0.176459 0
v 0.464627 0.083891 1.311726
v 0.509551 0.083891 1.35665
v 0.464627 0.200256 1.35665
v 0.496393 0.064154 1.311726
v 0.496393 0.008243 1.311726
v 0.509551 0.02798 1.35665
v 0.464627 0.02798 1.311726
v 0.464627 -0.056093 1.248942
v 0.432861 0.064154 1.311726
v 0.464627 0.200256 1.35665
v 0.419703 0.083891 1.35665
v 0.432861 0.008243 1.311726
v 0.496393 0.008243 1.401574
v 0.496393 0.064154 1.401574
v 0.464627 0.200256 1.35665
v 0.464627 0.083891 1.401574
v 0.464627 0.200256 1.35665
v 0.464627 0.02798 1.401574
v 0.464627 -0.056093 1.464357
v 0.540787 -0.056093 1.432811
v 0.432861 0.008243 1.401574
v 0.432861 0.064154 1.401574
v 0.419703 0.02798 1.35665
v 0.572334 -0.056093 1.35665
v 0.388466 -0.056093 1.280489
v 0.356919 -0.056093 1.35665
v 0.518481 -0.136874 1.432811
v 0.540787 -0.056093 1.280489
v 0.540787 -0.170334 1.35665
v 0.388466 -0.056093 1.432811
v 0.410773 -0.136874 1.280489
v 0.464627 -0.170334 1.432811
v 0.518481 -0.136874 1.280489
v 0.388466 -0.170334 1.35665
v 0.410773 -0.136874 1.432811
v 0.464627 -0.217654 1.35665
v 0.464627 -0.170334 1.280489
vt 7.9E-05 7.9E-05
vt 7.9E-05 0.999921
vt 0.624394 0.999921
vt 0.624394 7.9E-05
vt 0.624394 7.9E-05
vt 7.9E-05 7.9E-05
vt 7.9E-05 0.999921
vt 0.624394 0.999921
vt 1.6E-05 0.999984
vt 0.027188 0.999984
vt 0.020596 0.279984
vt 0.004717 0.279994
vt 0 0
vt 0 0
vt 0 0
vt 0 0
vt 0.011787 1.6E-05
vt 0.011665 1.8E-05
vt 0.007287 0.288986
vt 0.018287 0.289078
vt 0 0
vt 0 0
vt 0 0
vt 0 0
vt 0 0
vt 0 0
vt 0 0
vt 0 0
vt 0 0
vt 0 0
vt 0 0
vt 0 0
vt 0 0
vt 0 0
vt 0 0
vt 0 0
vt 0 0
vt 0 0
vt 0 0
vt 0 0
vt 0 0
vt 0 0
vt 0 0
vt 0 0
vt 0 0
vt 0 0
vt 0 0
vt 0 0
vt 0 0
vt 0 0
vt 0 0
vt 0 0
vt 0 0
vt 0 0
vt 0 0
vt 0 0
vt 0 0
vt 0 0
vt 0 0
vt 0 0
vt 0 0
vn 0 1 0
vn 0 1 0
vn 0 1 0
vn 0 1 0
vn 0 -1 0
vn 0 -1 0
vn 0 -1 0
vn 0 -1 0
vn -1 0 0
vn -1 0 0
vn -1 0 0
vn -1 0 0
vn 0 0 1
vn 0 0 1
vn 0 0 1
vn 0 0 1
vn 1 0 0
vn 1 0 0
vn 1 0 0
vn 1 0 0
vn 0 0 -1
vn 0 0 -1
vn 0 0 -1
vn 0 0 -1
vn 0 0.4021931 -0.9155549
vn 0.9378164 0.3471319 0
vn 0.6568859 0.3701383 -0.6568854
vn 0.684308 0.1908308 -0.7037798
vn 0.6567763 0.5134572 -0.5522739
vn 0.9090145 0.4167646 0
vn 0 0.2090113 -0.9779132
vn 0 0.1854601 -0.9826517
vn -0.6843079 0.1908309 -0.7037799
vn -0.6568859 0.3701384 -0.6568854
vn -0.9378163 0.3471319 0
vn -0.6567724 0.5134621 -0.5522742
vn 0.6567759 0.5134564 0.5522754
vn 0.6843079 0.1908309 0.7037799
vn 0.6568859 0.3701383 0.6568854
vn 0 0.4021931 0.9155549
vn -0.6568859 0.3701383 0.6568854
vn 0 0.2090081 0.9779139
vn 0 0.1854606 0.9826517
vn 0.8076717 0.132804 0.5744818
vn -0.6567718 0.5134612 0.5522755
vn -0.684308 0.1908308 0.7037798
vn -0.9090116 0.416771 0
vn 0.9942399 0.1071773 0
vn -0.8076699 0.1328049 -0.5744841
vn -0.9942398 0.1071783 0
vn 0.6783687 -0.4347007 0.5923269
vn 0.8076726 0.1328045 -0.5744806
vn 0.8087407 -0.5881653 0
vn -0.8076691 0.1328046 0.5744854
vn -0.6783638 -0.4347043 -0.5923299
vn 0 -0.7491683 0.6623797
vn 0.6783692 -0.4347014 -0.5923259
vn -0.8087391 -0.5881675 0
vn -0.6783633 -0.4347037 0.592331
vn 0 -1 0
vn 0 -0.7491691 -0.6623788
g Door_0
f 3/3/3 2/2/2 1/1/1
f 4/4/4 3/3/3 1/1/1
f 7/7/7 6/6/6 5/5/5
f 8/8/8 7/7/7 5/5/5
f 11/11/11 10/10/10 9/9/9
f 12/12/12 11/11/11 9/9/9
f 15/15/15 14/14/14 13/13/13
f 16/16/16 15/15/15 13/13/13
f 19/19/19 18/18/18 17/17/17
f 20/20/20 19/19/19 17/17/17
f 23/23/23 22/22/22 21/21/21
f 24/24/24 23/23/23 21/21/21
g Door_1
f 27/27/27 26/26/26 25/25/25
f 26/26/26 28/28/28 25/25/25
f 25/25/25 28/28/28 29/29/29
f 28/28/28 26/26/26 30/30/30
f 29/29/29 28/28/28 30/30/30
f 31/31/31 25/25/25 29/29/29
f 31/31/31 29/29/29 32/32/32
f 33/33/33 25/25/25 31/31/31
f 34/34/34 25/25/25 33/33/33
f 35/35/35 34/34/34 33/33/33
f 36/36/36 33/33/33 31/31/31
f 36/36/36 31/31/31 32/32/32
f 35/35/35 33/33/33 36/36/36
f 30/30/30 26/26/26 37/37/37
f 26/26/26 38/38/38 37/37/37
f 38/38/38 26/26/26 39/39/39
f 40/40/40 38/38/38 39/39/39
f 40/40/40 41/41/41 35/35/35
f 37/37/37 38/38/38 42/42/42
f 38/38/38 40/40/40 42/42/42
f 43/43/43 37/37/37 42/42/42
f 37/37/37 44/44/44 30/30/30
f 43/43/43 44/44/44 37/37/37
f 42/42/42 40/40/40 45/45/45
f 43/43/43 42/42/42 45/45/45
f 46/46/46 40/40/40 35/35/35
f 40/40/40 46/46/46 45/45/45
f 46/46/46 35/35/35 47/47/47
f 47/47/47 35/35/35 36/36/36
f 45/45/45 46/46/46 47/47/47
f 44/44/44 48/48/48 30/30/30
f 30/30/30 48/48/48 29/29/29
f 47/47/47 36/36/36 49/49/49
f 49/49/49 36/36/36 32/32/32
f 45/45/45 47/47/47 50/50/50
f 50/50/50 47/47/47 49/49/49
f 43/43/43 51/51/51 44/44/44
f 44/44/44 51/51/51 48/48/48
f 48/48/48 52/52/52 29/29/29
f 29/29/29 52/52/52 32/32/32
f 51/51/51 53/53/53 48/48/48
f 48/48/48 53/53/53 52/52/52
f 54/54/54 45/45/45 50/50/50
f 43/43/43 45/45/45 54/54/54
f 50/50/50 49/49/49 55/55/55
f 55/55/55 49/49/49 32/32/32
f 43/43/43 56/56/56 51/51/51
f 51/51/51 56/56/56 53/53/53
f 53/53/53 57/57/57 52/52/52
f 52/52/52 57/57/57 32/32/32
f 54/54/54 50/50/50 58/58/58
f 58/58/58 50/50/50 55/55/55
f 43/43/43 54/54/54 59/59/59
f 43/43/43 59/59/59 56/56/56
f 59/59/59 54/54/54 58/58/58
f 56/56/56 60/60/60 53/53/53
f 56/56/56 59/59/59 60/60/60
f 53/53/53 60/60/60 57/57/57
f 59/59/59 58/58/58 60/60/60
f 57/57/57 61/61/61 32/32/32
f 61/61/61 55/55/55 32/32/32
f 60/60/60 61/61/61 57/57/57
f 58/58/58 55/55/55 61/61/61
f 60/60/60 58/58/58 61/61/61
