g DoorArrow
v -0.429043 0 0.128912
v -0.429043 0.284954 0.128912
v 0.140864 0.284954 0.128912
v 0.140864 0 0.128912
v -0.429043 -0.284954 0.128912
v 0.140864 0.569907 0.128912
v 0.140864 -0.284954 0.128912
v 0.710771 0 0.128912
v 0.140864 -0.569907 0.128912
v -0.429043 0 0.035317
v 0.140864 0.284954 0.035317
v -0.429043 0.284954 0.035317
v 0.140864 0 0.035317
v -0.429043 -0.284954 0.035317
v 0.140864 0.569907 0.035317
v 0.140864 -0.284954 0.035317
v 0.710771 0 0.035317
v 0.140864 -0.569907 0.035317
v 0.140864 -0.569907 0.035317
v 0.140864 -0.569907 0.128912
v 0.710771 0 0.128912
v 0.710771 0 0.035317
v -0.429043 -0.284954 0.035317
v -0.429043 -0.284954 0.128912
v 0.140864 -0.284954 0.128912
v 0.140864 -0.284954 0.035317
v -0.429043 0 0.035317
v -0.429043 -0.284954 0.128912
v -0.429043 -0.284954 0.035317
v -0.429043 0 0.128912
v -0.429043 0.284954 0.035317
v -0.429043 0.284954 0.128912
v 0.140864 0.569907 0.035317
v 0.140864 0.569907 0.128912
v 0.140864 0.284954 0.128912
v 0.140864 0.284954 0.035317
v 0.710771 0 0.035317
v 0.710771 0 0.128912
v 0.140864 0.569907 0.128912
v 0.140864 0.569907 0.035317
v 0.140864 -0.284954 0.035317
v 0.140864 -0.284954 0.128912
v 0.140864 -0.569907 0.128912
v 0.140864 -0.569907 0.035317
v 0.140864 0.284954 0.035317
v 0.140864 0.284954 0.128912
v -0.429043 0.284954 0.128912
v -0.429043 0.284954 0.035317
vn 0 0 1
vn 0 0 1
vn 0 0 1
vn 0 0 1
vn 0 0 1
vn 0 0 1
vn 0 0 1
vn 0 0 1
vn 0 0 1
vn 0 0 -1
vn 0 0 -1
vn 0 0 -1
vn 0 0 -1
vn 0 0 -1
vn 0 0 -1
vn 0 0 -1
vn 0 0 -1
vn 0 0 -1
vn 0.7071068 -0.7071068 0
vn 0.7071068 -0.7071068 0
vn 0.7071068 -0.7071068 0
vn 0.7071068 -0.7071068 0
vn 0 -1 0
vn 0 -1 0
vn 0 -1 0
vn 0 -1 0
vn -1 0 0
vn -1 0 0
vn -1 0 0
vn -1 0 0
vn -1 0 0
vn -1 0 0
vn -1 0 0
vn -1 0 0
vn -1 0 0
vn -1 0 0
vn 0.7071068 0.7071068 0
vn 0.7071068 0.7071068 0
vn 0.7071068 0.7071068 0
vn 0.7071068 0.7071068 0
vn -1 0 0
vn -1 0 0
vn -1 0 0
vn -1 0 0
vn 0 1 0
vn 0 1 0
vn 0 1 0
vn 0 1 0
g DoorArrow_0
f 3/3/3 2/2/2 1/1/1
f 4/4/4 3/3/3 1/1/1
f 4/4/4 1/1/1 5/5/5
f 6/6/6 3/3/3 4/4/4
f 7/7/7 4/4/4 5/5/5
f 8/8/8 6/6/6 4/4/4
f 4/4/4 7/7/7 9/9/9
f 8/8/8 4/4/4 9/9/9
f 12/12/12 11/11/11 10/10/10
f 11/11/11 13/13/13 10/10/10
f 10/10/10 13/13/13 14/14/14
f 11/11/11 15/15/15 13/13/13
f 13/13/13 16/16/16 14/14/14
f 15/15/15 17/17/17 13/13/13
f 16/16/16 13/13/13 18/18/18
f 13/13/13 17/17/17 18/18/18
f 21/21/21 20/20/20 19/19/19
f 22/22/22 21/21/21 19/19/19
f 25/25/25 24/24/24 23/23/23
f 26/26/26 25/25/25 23/23/23
f 29/29/29 28/28/28 27/27/27
f 28/28/28 30/30/30 27/27/27
f 27/27/27 30/30/30 31/31/31
f 30/30/30 32/32/32 31/31/31
f 35/35/35 34/34/34 33/33/33
f 36/36/36 35/35/35 33/33/33
f 39/39/39 38/38/38 37/37/37
f 40/40/40 39/39/39 37/37/37
f 43/43/43 42/42/42 41/41/41
f 44/44/44 43/43/43 41/41/41
f 47/47/47 46/46/46 45/45/45
f 48/48/48 47/47/47 45/45/45
