g DoorSquareWindow
v 1.020426 0.162035 0
v 1.020426 0.162035 2.907851
v -0.795275 0.162035 2.907851
v -0.795275 0.162035 0
v 1.020426 0.04859 0
v -0.795275 0.04859 0
v -0.795275 0.04859 2.907851
v 1.020426 0.04859 2.907851
v -0.795275 0.162035 2.907851
v -0.795275 0.04859 2.907851
v -0.795275 0.04859 0
v -0.795275 0.162035 0
v 1.020426 0.162035 2.907851
v 1.020426 0.04859 2.907851
v -0.795275 0.04859 2.907851
v -0.795275 0.162035 2.907851
v 1.020426 0.162035 0
v 1.020426 0.04859 0
v 1.020426 0.04859 2.907851
v 1.020426 0.162035 2.907851
v -0.795275 0.162035 0
v -0.795275 0.04859 0
v 1.020426 0.04859 0
v 1.020426 0.162035 0
v -0.547007 -0.023337 2.15484
v -0.547007 0.075733 2.610389
v -0.547007 -0.023337 2.610389
v -0.547007 0.075733 2.15484
v -0.547007 -0.023337 1.699291
v -0.547007 0.075733 1.699291
v 0.818883 0.075733 2.15484
v 0.818883 -0.023337 2.610389
v 0.818883 0.075733 2.610389
v 0.818883 -0.023337 2.15484
v 0.818883 0.075733 1.699291
v 0.818883 -0.023337 1.699291
v 0.727146 -0.019682 2.182421
v 0.727146 0.032579 2.182421
v 0.727146 0.032579 2.549197
v 0.727146 -0.019682 2.549197
v 0.135938 0.075733 1.699291
v 0.818883 -0.023337 1.699291
v 0.818883 0.075733 1.699291
v 0.135938 -0.023337 1.699291
v -0.547007 0.075733 1.699291
v -0.547007 -0.023337 1.699291
v 0.135938 0.075733 2.610389
v -0.547007 -0.023337 2.610389
v -0.547007 0.075733 2.610389
v 0.135938 -0.023337 2.610389
v 0.818883 0.075733 2.610389
v 0.818883 -0.023337 2.610389
v -0.45527 -0.019682 1.760483
v -0.45527 0.032579 1.760483
v 0.094589 0.032579 1.760483
v 0.094589 -0.019682 1.760483
v 0.094589 -0.019682 2.549197
v 0.094589 0.032579 2.549197
v -0.45527 0.032579 2.549197
v -0.45527 -0.019682 2.549197
v 0.727146 -0.019682 2.549197
v 0.727146 0.032579 2.549197
v 0.177287 0.032579 2.549197
v 0.177287 -0.019682 2.549197
v 0.727146 -0.019682 1.760483
v 0.727146 0.032579 1.760483
v 0.727146 0.032579 2.127259
v 0.727146 -0.019682 2.127259
v 0.094589 -0.019682 2.182421
v 0.094589 0.032579 2.182421
v 0.094589 0.032579 2.549197
v 0.094589 -0.019682 2.549197
v 0.094589 -0.019682 1.760483
v 0.094589 0.032579 1.760483
v 0.094589 0.032579 2.127259
v 0.094589 -0.019682 2.127259
v 0.177287 -0.019682 2.549197
v 0.177287 0.032579 2.549197
v 0.177287 0.032579 2.182421
v 0.177287 -0.019682 2.182421
v 0.177287 -0.019682 1.760483
v 0.177287 0.032579 1.760483
v 0.727146 0.032579 1.760483
v 0.727146 -0.019682 1.760483
v -0.45527 -0.019682 2.182421
v -0.45527 0.032579 2.182421
v 0.094589 0.032579 2.182421
v 0.094589 -0.019682 2.182421
v -0.45527 -0.019682 2.127259
v -0.45527 0.032579 2.127259
v -0.45527 0.032579 1.760483
v -0.45527 -0.019682 1.760483
v 0.177287 -0.019682 2.182421
v 0.177287 0.032579 2.182421
v 0.727146 0.032579 2.182421
v 0.727146 -0.019682 2.182421
v 0.177287 -0.019682 2.127259
v 0.177287 0.032579 2.127259
v 0.177287 0.032579 1.760483
v 0.177287 -0.019682 1.760483
v 0.094589 -0.019682 2.127259
v 0.094589 0.032579 2.127259
v -0.45527 0.032579 2.127259
v -0.45527 -0.019682 2.127259
v 0.727146 -0.019682 2.127259
v 0.727146 0.032579 2.127259
v 0.177287 0.032579 2.127259
v 0.177287 -0.019682 2.127259
v -0.45527 -0.019682 2.549197
v -0.45527 0.032579 2.549197
v -0.45527 0.032579 2.182421
v -0.45527 -0.019682 2.182421
v 0.727146 -0.019682 2.127259
v 0.818883 -0.023337 1.699291
v 0.727146 -0.019682 1.760483
v 0.818883 -0.023337 2.15484
v 0.135938 -0.023337 1.699291
v 0.177287 -0.019682 2.127259
v 0.177287 -0.019682 1.760483
v 0.135938 -0.019682 2.15484
v 0.727146 -0.019682 2.182421
v 0.177287 -0.019682 2.182421
v 0.727146 -0.019682 2.549197
v 0.818883 -0.023337 2.610389
v 0.177287 -0.019682 2.549197
v 0.135938 -0.023337 2.610389
v 0.094589 -0.019682 2.127259
v 0.094589 -0.019682 1.760483
v -0.547007 -0.023337 1.699291
v -0.45527 -0.019682 1.760483
v -0.547007 -0.023337 2.15484
v -0.45527 -0.019682 2.127259
v 0.094589 -0.019682 2.549197
v -0.45527 -0.019682 2.549197
v 0.094589 -0.019682 2.182421
v -0.547007 -0.023337 2.610389
v -0.45527 -0.019682 2.182421
v 0.714365 0.069466 1.311726
v 0.759289 0.069466 1.35665
v 0.714365 0.185831 1.35665
v 0.746131 0.049729 1.311726
v 0.746131 -0.006181 1.311726
v 0.759289 0.013555 1.35665
v 0.714365 0.013555 1.311726
v 0.714365 -0.070517 1.248942
v 0.682599 0.049729 1.311726
v 0.714365 0.185831 1.35665
v 0.669441 0.069466 1.35665
v 0.682599 -0.006181 1.311726
v 0.746131 -0.006181 1.401574
v 0.746131 0.049729 1.401574
v 0.714365 0.185831 1.35665
v 0.714365 0.069466 1.401574
v 0.714365 0.185831 1.35665
v 0.714365 0.013555 1.401574
v 0.714365 -0.070518 1.464357
v 0.790526 -0.070517 1.432811
v 0.682599 -0.006181 1.401574
v 0.682599 0.049729 1.401574
v 0.669441 0.013555 1.35665
v 0.822073 -0.070517 1.35665
v 0.638205 -0.070517 1.280489
v 0.606658 -0.070517 1.35665
v 0.768219 -0.151298 1.432811
v 0.790526 -0.070517 1.280489
v 0.790526 -0.184759 1.35665
v 0.638205 -0.070517 1.432811
v 0.660511 -0.151298 1.280489
v 0.714365 -0.184759 1.432811
v 0.768219 -0.151298 1.280489
v 0.638205 -0.184759 1.35665
v 0.660511 -0.151298 1.432811
v 0.714365 -0.232079 1.35665
v 0.714365 -0.184759 1.280489
v 0.094589 0.032579 2.182421
v -0.45527 0.032579 2.182421
v -0.45527 0.032579 2.549197
v 0.094589 0.032579 2.549197
v 0.727146 0.032579 2.182421
v 0.177287 0.032579 2.182421
v 0.177287 0.032579 2.549197
v 0.727146 0.032579 2.549197
v 0.727146 0.032579 1.760483
v 0.177287 0.032579 1.760483
v 0.177287 0.032579 2.127259
v 0.727146 0.032579 2.127259
v 0.094589 0.032579 1.760483
v -0.45527 0.032579 1.760483
v -0.45527 0.032579 2.127259
v 0.094589 0.032579 2.127259
vt 7.9E-05 7.9E-05
vt 7.9E-05 0.999921
vt 0.624394 0.999921
vt 0.624394 7.9E-05
vt 0.624394 7.9E-05
vt 7.9E-05 7.9E-05
vt 7.9E-05 0.999921
vt 0.624394 0.999921
vt 1.6E-05 0.999984
vt 0.027188 0.999984
vt 0.020596 0.279984
vt 0.004717 0.279994
vt 0 0
vt 0 0
vt 0 0
vt 0 0
vt 0.011787 1.6E-05
vt 0.011665 1.8E-05
vt 0.007287 0.288986
vt 0.018287 0.289078
vt 0 0
vt 0 0
vt 0 0
vt 0 0
vt 0 0
vt 0 0
vt 0 0
vt 0 0
vt 0 0
vt 0 0
vt 0 0
vt 0 0
vt 0 0
vt 0 0
vt 0 0
vt 0 0
vt 0 0
vt 0 0
vt 0 0
vt 0 0
vt 0 0
vt 0 0
vt 0 0
vt 0 0
vt 0 0
vt 0 0
vt 0 0
vt 0 0
vt 0 0
vt 0 0
vt 0 0
vt 0 0
vt 0 0
vt 0 0
vt 0 0
vt 0 0
vt 0 0
vt 0 0
vt 0 0
vt 0 0
vt 0 0
vt 0 0
vt 0 0
vt 0 0
vt 0 0
vt 0 0
vt 0 0
vt 0 0
vt 0 0
vt 0 0
vt 0 0
vt 0 0
vt 0 0
vt 0 0
vt 0 0
vt 0 0
vt 0 0
vt 0 0
vt 0 0
vt 0 0
vt 0 0
vt 0 0
vt 0 0
vt 0 0
vt 0 0
vt 0 0
vt 0 0
vt 0 0
vt 0 0
vt 0 0
vt 0 0
vt 0 0
vt 0 0
vt 0 0
vt 0 0
vt 0 0
vt 0 0
vt 0 0
vt 0 0
vt 0 0
vt 0 0
vt 0 0
vt 0 0
vt 0 0
vt 0 0
vt 0 0
vt 0 0
vt 0 0
vt 0 0
vt 0 0
vt 0 0
vt 0 0
vt 0 0
vt 0 0
vt 0 0
vt 0 0
vt 0 0
vt 0 0
vt 0 0
vt 0 0
vt 0 0
vt 0 0
vt 0 0
vt 0 0
vt 0 0
vt 0 0
vt 0 0
vt 0 0
vt 0 0
vt 0 0
vt 0 0
vt 0 0
vt 0 0
vt 0 0
vt 0 0
vt 0 0
vt 0 0
vt 0 0
vt 0 0
vt 0 0
vt 0 0
vt 0 0
vt 0 0
vt 0 0
vt 0 0
vt 0 0
vt 0 0
vt 0 0
vt 0 0
vt 0 0
vt 0 0
vt 0 0
vt 0 0
vt 0 0
vt 0 0
vt 0 0
vt 0 0
vt 0 0
vt 0 0
vt 0 0
vt 0 0
vt 0 0
vt 0 0
vt 0 0
vt 0 0
vt 0 0
vt 0 0
vt 0 0
vt 0 0
vt 0 0
vt 0 0
vt 0 0
vt 0 0
vt 0 0
vt 0 0
vt 0 0
vt 0 0
vt 0 0
vt 0 0
vt 0 0
vt 0 0
vt 0 0
vt 0 0
vt 0 0
vt 0 0
vt 0 0
vt 0 0
vt 0 0
vt 0 0
vt 0 0
vn 0 1 0
vn 0 1 0
vn 0 1 0
vn 0 1 0
vn 0 -1 0
vn 0 -1 0
vn 0 -1 0
vn 0 -1 0
vn -1 0 0
vn -1 0 0
vn -1 0 0
vn -1 0 0
vn 0 0 1
vn 0 0 1
vn 0 0 1
vn 0 0 1
vn 1 0 0
vn 1 0 0
vn 1 0 0
vn 1 0 0
vn 0 0 -1
vn 0 0 -1
vn 0 0 -1
vn 0 0 -1
vn -1 0 0
vn -1 0 0
vn -1 0 0
vn -1 0 0
vn -1 0 0
vn -1 0 0
vn 1 0 0
vn 1 0 0
vn 1 0 0
vn 1 0 0
vn 1 0 0
vn 1 0 0
vn -1 0 0
vn -1 0 0
vn -1 0 0
vn -1 0 0
vn 0 0 -1
vn 0 0 -1
vn 0 0 -1
vn 0 0 -1
vn 0 0 -1
vn 0 0 -1
vn 0 0 1
vn 0 0 1
vn 0 0 1
vn 0 0 1
vn 0 0 1
vn 0 0 1
vn 0 0 1
vn 0 0 1
vn 0 0 1
vn 0 0 1
vn 0 0 -1
vn 0 0 -1
vn 0 0 -1
vn 0 0 -1
vn 0 0 -1
vn 0 0 -1
vn 0 0 -1
vn 0 0 -1
vn -1 0 0
vn -1 0 0
vn -1 0 0
vn -1 0 0
vn -1 0 0
vn -1 0 0
vn -1 0 0
vn -1 0 0
vn -1 0 0
vn -1 0 0
vn -1 0 0
vn -1 0 0
vn 1 0 0
vn 1 0 0
vn 1 0 0
vn 1 0 0
vn 0 0 1
vn 0 0 1
vn 0 0 1
vn 0 0 1
vn 0 0 1
vn 0 0 1
vn 0 0 1
vn 0 0 1
vn 1 0 0
vn 1 0 0
vn 1 0 0
vn 1 0 0
vn 0 0 1
vn 0 0 1
vn 0 0 1
vn 0 0 1
vn 1 0 0
vn 1 0 0
vn 1 0 0
vn 1 0 0
vn 0 0 -1
vn 0 0 -1
vn 0 0 -1
vn 0 0 -1
vn 0 0 -1
vn 0 0 -1
vn 0 0 -1
vn 0 0 -1
vn 1 0 0
vn 1 0 0
vn 1 0 0
vn 1 0 0
vn -0.02478318 -0.9993572 -0.02590719
vn -0.02489783 -0.9994397 0.02237057
vn -0.01824322 -0.9993104 0.0323392
vn -0.03635798 -0.9993388 0
vn 0 -0.9988586 0.04776554
vn 0.01780336 -0.9993172 -0.03237559
vn 0.01467334 -0.9990703 0.04053764
vn 0 -1 0
vn -0.02478318 -0.9993572 0.02590719
vn 0.01780335 -0.9993172 0.03237559
vn -0.01824322 -0.9993104 -0.0323392
vn -0.02489783 -0.9994397 -0.02237057
vn 0.01467333 -0.9990703 -0.04053764
vn 0 -0.9988586 -0.04776554
vn -0.01780335 -0.9993172 -0.03237559
vn -0.01467333 -0.9990703 0.04053763
vn 0.02489782 -0.9994397 0.02237054
vn 0.01824321 -0.9993104 0.03233919
vn 0.03635796 -0.9993388 0
vn 0.02478317 -0.9993572 -0.02590718
vn -0.01467333 -0.9990703 -0.04053763
vn 0.01824321 -0.9993104 -0.03233919
vn -0.01780335 -0.9993172 0.03237559
vn 0.02489782 -0.9994397 -0.02237054
vn 0.02478317 -0.9993572 0.02590718
vn 0 0.4021938 -0.9155546
vn 0.937816 0.347133 0
vn 0.6568857 0.3701385 -0.6568857
vn 0.6843077 0.1908318 -0.7037799
vn 0.6567717 0.5134635 -0.5522737
vn 0.9090091 0.4167763 0
vn 0 0.2090172 -0.9779119
vn 0 0.1854596 -0.9826518
vn -0.6843077 0.1908318 -0.7037799
vn -0.6568857 0.3701385 -0.6568857
vn -0.937816 0.347133 0
vn -0.6567755 0.5134591 -0.5522734
vn 0.6567701 0.5134623 0.5522767
vn 0.6843077 0.1908318 0.7037799
vn 0.6568857 0.3701385 0.6568857
vn 0 0.4021938 0.9155546
vn -0.6568857 0.3701385 0.6568857
vn 0 0.209013 0.9779128
vn 0 0.1854573 0.9826523
vn 0.8076694 0.1328053 0.5744849
vn -0.6567739 0.5134578 0.5522764
vn -0.6843077 0.1908318 0.7037799
vn -0.9090118 0.4167704 0
vn 0.9942399 0.1071776 0
vn -0.8076731 0.1328042 -0.57448
vn -0.99424 0.1071766 0
vn 0.6783656 -0.4346995 0.5923312
vn 0.8076706 0.1328048 -0.5744833
vn 0.8087398 -0.5881665 0
vn -0.8076719 0.1328048 0.5744816
vn -0.6783704 -0.4346971 -0.5923275
vn 0 -0.7491671 0.6623811
vn 0.6783654 -0.4346998 -0.5923312
vn -0.8087414 -0.5881645 0
vn -0.6783707 -0.4346968 0.5923275
vn 0 -1 0
vn 0 -0.7491668 -0.6623814
vn 0 -1 0
vn 0 -1 0
vn 0 -1 0
vn 0 -1 0
vn 0 -1 0
vn 0 -1 0
vn 0 -1 0
vn 0 -1 0
vn 0 -1 0
vn 0 -1 0
vn 0 -1 0
vn 0 -1 0
vn 0 -1 0
vn 0 -1 0
vn 0 -1 0
vn 0 -1 0
g DoorSquareWindow_0
f 3/3/3 2/2/2 1/1/1
f 4/4/4 3/3/3 1/1/1
f 7/7/7 6/6/6 5/5/5
f 8/8/8 7/7/7 5/5/5
f 11/11/11 10/10/10 9/9/9
f 12/12/12 11/11/11 9/9/9
f 15/15/15 14/14/14 13/13/13
f 16/16/16 15/15/15 13/13/13
f 19/19/19 18/18/18 17/17/17
f 20/20/20 19/19/19 17/17/17
f 23/23/23 22/22/22 21/21/21
f 24/24/24 23/23/23 21/21/21
f 27/27/27 26/26/26 25/25/25
f 26/26/26 28/28/28 25/25/25
f 25/25/25 28/28/28 29/29/29
f 28/28/28 30/30/30 29/29/29
f 33/33/33 32/32/32 31/31/31
f 32/32/32 34/34/34 31/31/31
f 31/31/31 34/34/34 35/35/35
f 34/34/34 36/36/36 35/35/35
f 39/39/39 38/38/38 37/37/37
f 40/40/40 39/39/39 37/37/37
f 43/43/43 42/42/42 41/41/41
f 42/42/42 44/44/44 41/41/41
f 41/41/41 44/44/44 45/45/45
f 44/44/44 46/46/46 45/45/45
f 49/49/49 48/48/48 47/47/47
f 48/48/48 50/50/50 47/47/47
f 47/47/47 50/50/50 51/51/51
f 50/50/50 52/52/52 51/51/51
f 55/55/55 54/54/54 53/53/53
f 56/56/56 55/55/55 53/53/53
f 59/59/59 58/58/58 57/57/57
f 60/60/60 59/59/59 57/57/57
f 63/63/63 62/62/62 61/61/61
f 64/64/64 63/63/63 61/61/61
f 67/67/67 66/66/66 65/65/65
f 68/68/68 67/67/67 65/65/65
f 71/71/71 70/70/70 69/69/69
f 72/72/72 71/71/71 69/69/69
f 75/75/75 74/74/74 73/73/73
f 76/76/76 75/75/75 73/73/73
f 79/79/79 78/78/78 77/77/77
f 80/80/80 79/79/79 77/77/77
f 83/83/83 82/82/82 81/81/81
f 84/84/84 83/83/83 81/81/81
f 87/87/87 86/86/86 85/85/85
f 88/88/88 87/87/87 85/85/85
f 91/91/91 90/90/90 89/89/89
f 92/92/92 91/91/91 89/89/89
f 95/95/95 94/94/94 93/93/93
f 96/96/96 95/95/95 93/93/93
f 99/99/99 98/98/98 97/97/97
f 100/100/100 99/99/99 97/97/97
f 103/103/103 102/102/102 101/101/101
f 104/104/104 103/103/103 101/101/101
f 107/107/107 106/106/106 105/105/105
f 108/108/108 107/107/107 105/105/105
f 111/111/111 110/110/110 109/109/109
f 112/112/112 111/111/111 109/109/109
f 115/115/115 114/114/114 113/113/113
f 114/114/114 116/116/116 113/113/113
f 117/117/117 114/114/114 115/115/115
f 113/113/113 116/116/116 118/118/118
f 119/119/119 117/117/117 115/115/115
f 118/118/118 120/120/120 119/119/119
f 116/116/116 120/120/120 118/118/118
f 120/120/120 117/117/117 119/119/119
f 120/120/120 116/116/116 121/121/121
f 122/122/122 120/120/120 121/121/121
f 121/121/121 116/116/116 123/123/123
f 116/116/116 124/124/124 123/123/123
f 123/123/123 124/124/124 125/125/125
f 124/124/124 126/126/126 125/125/125
f 125/125/125 126/126/126 122/122/122
f 126/126/126 120/120/120 122/122/122
f 117/117/117 120/120/120 127/127/127
f 128/128/128 117/117/117 127/127/127
f 129/129/129 117/117/117 128/128/128
f 130/130/130 129/129/129 128/128/128
f 131/131/131 129/129/129 130/130/130
f 127/127/127 120/120/120 132/132/132
f 132/132/132 131/131/131 130/130/130
f 120/120/120 131/131/131 132/132/132
f 120/120/120 126/126/126 133/133/133
f 133/133/133 126/126/126 134/134/134
f 135/135/135 120/120/120 133/133/133
f 131/131/131 120/120/120 135/135/135
f 126/126/126 136/136/136 134/134/134
f 137/137/137 131/131/131 135/135/135
f 134/134/134 136/136/136 137/137/137
f 136/136/136 131/131/131 137/137/137
g DoorSquareWindow_1
f 140/140/140 139/139/139 138/138/138
f 139/139/139 141/141/141 138/138/138
f 138/138/138 141/141/141 142/142/142
f 141/141/141 139/139/139 143/143/143
f 142/142/142 141/141/141 143/143/143
f 144/144/144 138/138/138 142/142/142
f 144/144/144 142/142/142 145/145/145
f 146/146/146 138/138/138 144/144/144
f 147/147/147 138/138/138 146/146/146
f 148/148/148 147/147/147 146/146/146
f 149/149/149 146/146/146 144/144/144
f 149/149/149 144/144/144 145/145/145
f 148/148/148 146/146/146 149/149/149
f 143/143/143 139/139/139 150/150/150
f 139/139/139 151/151/151 150/150/150
f 151/151/151 139/139/139 152/152/152
f 153/153/153 151/151/151 152/152/152
f 153/153/153 154/154/154 148/148/148
f 150/150/150 151/151/151 155/155/155
f 151/151/151 153/153/153 155/155/155
f 156/156/156 150/150/150 155/155/155
f 150/150/150 157/157/157 143/143/143
f 156/156/156 157/157/157 150/150/150
f 155/155/155 153/153/153 158/158/158
f 156/156/156 155/155/155 158/158/158
f 159/159/159 153/153/153 148/148/148
f 153/153/153 159/159/159 158/158/158
f 159/159/159 148/148/148 160/160/160
f 160/160/160 148/148/148 149/149/149
f 158/158/158 159/159/159 160/160/160
f 157/157/157 161/161/161 143/143/143
f 143/143/143 161/161/161 142/142/142
f 160/160/160 149/149/149 162/162/162
f 162/162/162 149/149/149 145/145/145
f 158/158/158 160/160/160 163/163/163
f 163/163/163 160/160/160 162/162/162
f 156/156/156 164/164/164 157/157/157
f 157/157/157 164/164/164 161/161/161
f 161/161/161 165/165/165 142/142/142
f 142/142/142 165/165/165 145/145/145
f 164/164/164 166/166/166 161/161/161
f 161/161/161 166/166/166 165/165/165
f 167/167/167 158/158/158 163/163/163
f 156/156/156 158/158/158 167/167/167
f 163/163/163 162/162/162 168/168/168
f 168/168/168 162/162/162 145/145/145
f 156/156/156 169/169/169 164/164/164
f 164/164/164 169/169/169 166/166/166
f 166/166/166 170/170/170 165/165/165
f 165/165/165 170/170/170 145/145/145
f 167/167/167 163/163/163 171/171/171
f 171/171/171 163/163/163 168/168/168
f 156/156/156 167/167/167 172/172/172
f 156/156/156 172/172/172 169/169/169
f 172/172/172 167/167/167 171/171/171
f 169/169/169 173/173/173 166/166/166
f 169/169/169 172/172/172 173/173/173
f 166/166/166 173/173/173 170/170/170
f 172/172/172 171/171/171 173/173/173
f 170/170/170 174/174/174 145/145/145
f 174/174/174 168/168/168 145/145/145
f 173/173/173 174/174/174 170/170/170
f 171/171/171 168/168/168 174/174/174
f 173/173/173 171/171/171 174/174/174
g DoorSquareWindow_2
f 177/177/177 176/176/176 175/175/175
f 178/178/178 177/177/177 175/175/175
f 181/181/181 180/180/180 179/179/179
f 182/182/182 181/181/181 179/179/179
f 185/185/185 184/184/184 183/183/183
f 186/186/186 185/185/185 183/183/183
f 189/189/189 188/188/188 187/187/187
f 190/190/190 189/189/189 187/187/187
