g Duskhawker_wings
v 0 0.523014 -0.012102
v 0 -0.396305 -0.012102
v -0.630032 -0.396305 0.383939
v -0.630032 0.523014 0.383939
v 0 0.523014 -0.012102
v -0.630032 0.523014 0.383939
v -0.630032 -0.396305 0.383939
v 0 -0.396305 -0.012102
v 0 0.523014 -0.012102
v 0.630032 0.523014 0.383939
v 0.630032 -0.396305 0.383939
v 0 -0.396305 -0.012102
v 0 0.523014 -0.012102
v 0 -0.396305 -0.012102
v 0.630032 -0.396305 0.383939
v 0.630032 0.523014 0.383939
vt 0.597312 0.198571
vt 0.597312 0.316997
vt 0.713885 0.316997
vt 0.713885 0.198571
vt 0.597312 0.198571
vt 0.713885 0.198571
vt 0.713885 0.316997
vt 0.597312 0.316997
vt 0.597312 0.198571
vt 0.713885 0.198571
vt 0.713885 0.316997
vt 0.597312 0.316997
vt 0.597312 0.198571
vt 0.597312 0.316997
vt 0.713885 0.316997
vt 0.713885 0.198571
vn 0.5321917 0 0.8466239
vn 0.5321917 0 0.8466239
vn 0.5321917 0 0.8466239
vn 0.5321917 0 0.8466239
vn -0.5321917 0 -0.8466239
vn -0.5321917 0 -0.8466239
vn -0.5321917 0 -0.8466239
vn -0.5321917 0 -0.8466239
vn -0.5321917 0 0.8466239
vn -0.5321917 0 0.8466239
vn -0.5321917 0 0.8466239
vn -0.5321917 0 0.8466239
vn 0.5321917 0 -0.8466239
vn 0.5321917 0 -0.8466239
vn 0.5321917 0 -0.8466239
vn 0.5321917 0 -0.8466239
g Duskhawker_wings_0
f 3/3/3 2/2/2 1/1/1
f 4/4/4 3/3/3 1/1/1
f 7/7/7 6/6/6 5/5/5
f 8/8/8 7/7/7 5/5/5
f 11/11/11 10/10/10 9/9/9
f 12/12/12 11/11/11 9/9/9
f 15/15/15 14/14/14 13/13/13
f 16/16/16 15/15/15 13/13/13
