g FlagPole
v -0.251645 0 -0.214454
v -0.188733 0.188733 -0.214454
v -0.179101 0.179101 -0.128077
v 0 0.251645 -0.214454
v -0.238802 0 -0.128077
v -0.179101 -0.179101 -0.128077
v -0.213264 0 0.043685
v -0.188733 -0.188733 -0.214454
v 0 -0.251645 -0.214454
v 0 0.238802 -0.128077
v 0.179101 0.179101 -0.128077
v 0 0.213264 0.043685
v 0.188733 0.188733 -0.214454
v 0.251645 0 -0.214454
v -0.159948 0.159948 0.043685
v -0.142013 0.142013 0.213095
v 0 -0.238802 -0.128077
v 0.179101 -0.179101 -0.128077
v 0 -0.213264 0.043685
v 0.188733 -0.188733 -0.214454
v 0.238802 0 -0.128077
v 0.213264 0 0.043685
v -0.159948 -0.159948 0.043685
v -0.142013 -0.142013 0.213095
v 0.159948 0.159948 0.043685
v 0.142013 0.142013 0.213095
v 0.159948 -0.159948 0.043685
v 0.142013 -0.142013 0.213095
v -0.189351 0 0.213095
v -0.181379 0 0.292414
v 0 0.189351 0.213095
v 0 0.181379 0.292414
v 0 -0.189351 0.213095
v 0 -0.181379 0.292414
v 0.189351 0 0.213095
v 0.181379 0 0.292414
v -0.136034 0.136034 0.292414
v -0.128927 0.128927 0.318119
v -0.136034 -0.136034 0.292414
v -0.128927 -0.128927 0.318119
v 0.136034 0.136034 0.292414
v 0.128927 0.128927 0.318119
v 0.136034 -0.136034 0.292414
v 0.128927 -0.128927 0.318119
v -0.171902 0 0.318119
v 0 0.171902 0.318119
v 0.171902 0 0.318119
v 0 -0.171902 0.318119
v -0.143472 0 0.326688
v -0.107604 0.107604 0.326688
v -0.107604 -0.107604 0.326688
v 0 0.143472 0.326688
v 0.107604 0.107604 0.326688
v 0 -0.143472 0.326688
v 0.107604 -0.107604 0.326688
v 0.143472 0 0.326688
v -0.143472 0 0.326688
v -0.086281 -0.086281 0.969061
v -0.107604 -0.107604 0.326688
v 0 -0.143472 0.326688
v -0.115041 0 0.969061
v -0.086281 0.086281 0.969061
v -0.105564 0 2.896182
v -0.107604 0.107604 0.326688
v 0 0.143472 0.326688
v 0 -0.115041 0.969061
v 0.086281 -0.086281 0.969061
v 0 -0.105564 2.896182
v 0.107604 -0.107604 0.326688
v 0.143472 0 0.326688
v -0.079173 -0.079173 2.896182
v -0.079173 -0.079173 4.827278
v 0 0.115041 0.969061
v 0.086281 0.086281 0.969061
v 0 0.105564 2.896182
v 0.107604 0.107604 0.326688
v 0.115041 0 0.969061
v 0.105564 0 2.896182
v -0.079173 0.079173 2.896182
v -0.079173 0.079173 4.827278
v 0.079173 -0.079173 2.896182
v 0.079173 -0.079173 4.827278
v 0.079173 0.079173 2.896182
v 0.079173 0.079173 4.827278
v -0.105564 0 4.827277
v -0.105564 0 5.481575
v 0 -0.105564 4.827277
v 0 -0.105564 5.481575
v 0 0.105564 4.827277
v 0 0.105564 5.481575
v 0.105564 0 4.827277
v 0.105564 0 5.481575
v -0.079173 0.079173 5.481575
v -0.081134 0.081134 5.496466
v -0.079173 -0.079173 5.481575
v -0.081134 -0.081134 5.496466
v 0.079173 0.079173 5.481575
v 0.081134 0.081134 5.496466
v 0.079173 -0.079173 5.481575
v 0.081134 -0.081134 5.496466
v -0.108178 0 5.496467
v -0.11602 0 5.509342
v 0 0.108178 5.496467
v 0 0.11602 5.509342
v 0.108178 0 5.496467
v 0.11602 0 5.509342
v 0 -0.108178 5.496467
v 0 -0.11602 5.509342
v -0.087015 0.087015 5.509342
v -0.092897 0.092897 5.559036
v 0.087015 0.087015 5.509342
v 0.092897 0.092897 5.559036
v 0.087015 -0.087015 5.509342
v 0.092897 -0.092897 5.559036
v -0.087015 -0.087015 5.509342
v -0.092897 -0.092897 5.559036
v 0 0.123863 5.559036
v 0 0.126477 5.684382
v 0.123863 0 5.559036
v 0.126477 0 5.684382
v 0 -0.123863 5.559036
v 0 -0.126477 5.684382
v -0.123863 0 5.559036
v -0.126477 0 5.684382
v 0.094857 0.094857 5.684381
v 0.092897 0.092897 5.808663
v 0.094857 -0.094857 5.684381
v 0.092897 -0.092897 5.808663
v -0.094857 -0.094857 5.684381
v -0.092897 -0.092897 5.808663
v -0.094857 0.094857 5.684381
v -0.092897 0.092897 5.808663
v 0 0.123863 5.808663
v 0 0.11602 5.855165
v 0.123863 0 5.808663
v 0.11602 0 5.855165
v 0 -0.123863 5.808663
v 0 -0.11602 5.855165
v -0.123863 0 5.808663
v -0.11602 0 5.855165
v 0.087015 0.087015 5.855165
v 0.081134 0.081134 5.865921
v 0.087015 -0.087015 5.855165
v 0.081134 -0.081134 5.865921
v -0.087015 -0.087015 5.855165
v -0.081134 -0.081134 5.865921
v -0.087015 0.087015 5.855165
v -0.081134 0.081134 5.865921
v 0.108178 0 5.865921
v 0.105564 0 5.882963
v 0 -0.108178 5.865921
v 0 -0.105564 5.882963
v -0.108178 0 5.865921
v -0.105564 0 5.882963
v 0 0.108178 5.865921
v 0 0.105564 5.882963
v 0.079173 -0.079173 5.882963
v 0.079173 -0.079173 5.914778
v -0.079173 -0.079173 5.882963
v -0.079173 -0.079173 5.914778
v -0.079173 0.079173 5.882963
v -0.079173 0.079173 5.914778
v 0.079173 0.079173 5.882963
v 0.079173 0.079173 5.914778
v 0 -0.105564 5.914778
v 0 -0.105564 5.96985
v -0.105564 0 5.914778
v -0.105564 0 5.96985
v 0 0.105564 5.914778
v 0 0.105564 5.96985
v 0.105564 0 5.914778
v 0.105564 0 5.96985
v -0.079173 -0.079173 5.96985
v -0.079173 0.079173 5.96985
v 0.079173 0.079173 5.96985
v 0.079173 -0.079173 5.96985
v -0.058647 -0.058647 6.006907
v -0.058647 0.058647 6.006907
v 0.058647 0.058647 6.006907
v 0.058647 -0.058647 6.006907
v 0 -0.079173 6.019876
v 0 0 6.036551
v -0.079173 0 6.019876
v 0 0.079173 6.019876
v 0.079173 0 6.019876
v -0.251645 0 -0.214454
v -0.141246 0.141246 -0.238724
v -0.188733 0.188733 -0.214454
v 0 0.251645 -0.214454
v -0.191981 0 -0.247218
v 0 0 -0.25814
v -0.141246 -0.141246 -0.238724
v -0.188733 -0.188733 -0.214454
v 0 -0.251645 -0.214454
v 0 0.191981 -0.247218
v 0.141246 0.141246 -0.238724
v 0.188733 0.188733 -0.214454
v 0.251645 0 -0.214454
v 0 -0.191981 -0.247218
v 0.141246 -0.141246 -0.238724
v 0.188733 -0.188733 -0.214454
v 0.191981 0 -0.247218
vn -0.9891265 0 0.147067
vn -0.6984746 0.6984746 0.1557771
vn -0.6984748 0.6984748 0.1557753
vn 0 0.9891265 0.1470669
vn -0.9891267 0 0.1470651
vn -0.6984748 -0.6984747 0.1557754
vn -0.9896125 0 0.1437606
vn -0.6984746 -0.6984746 0.1557771
vn 0 -0.9891265 0.147067
vn 0 0.9891267 0.1470651
vn 0.6984748 0.6984748 0.1557753
vn 0 0.9896125 0.1437606
vn 0.6984746 0.6984746 0.1557771
vn 0.9891265 0 0.1470669
vn -0.6988536 0.6988536 0.1523393
vn -0.7005277 0.7005277 0.136095
vn 0 -0.9891267 0.1470651
vn 0.6984747 -0.6984748 0.1557753
vn 0 -0.9896125 0.1437606
vn 0.6984746 -0.6984746 0.1557771
vn 0.9891267 0 0.1470651
vn 0.9896125 0 0.1437606
vn -0.6988536 -0.6988536 0.1523393
vn -0.7005277 -0.7005277 0.136095
vn 0.6988536 0.6988536 0.1523393
vn 0.7005277 0.7005277 0.136095
vn 0.6988536 -0.6988536 0.1523393
vn 0.7005277 -0.7005277 0.136095
vn -0.9917419 0 0.1282495
vn -0.9875288 0 0.1574384
vn 0 0.9917419 0.1282495
vn 0 0.9875288 0.1574384
vn 0 -0.9917419 0.1282495
vn 0 -0.9875288 0.1574384
vn 0.9917419 0 0.1282495
vn 0.9875288 0 0.1574384
vn -0.6974691 0.6974691 0.1645408
vn -0.5262278 0.5262279 0.6679585
vn -0.6974691 -0.6974691 0.1645408
vn -0.5262279 -0.5262279 0.6679586
vn 0.6974691 0.6974691 0.1645408
vn 0.5262279 0.5262279 0.6679586
vn 0.6974691 -0.6974691 0.1645408
vn 0.5262279 -0.5262278 0.6679586
vn -0.7404167 0 0.6721481
vn 0 0.7404167 0.6721481
vn 0.7404167 0 0.6721481
vn 0 -0.7404167 0.6721481
vn -0.2885807 0 0.9574556
vn -0.1932831 0.1932831 0.9619164
vn -0.1932831 -0.1932831 0.9619164
vn 0 0.2885807 0.9574556
vn 0.1932831 0.1932831 0.9619164
vn 0 -0.2885807 0.9574556
vn 0.1932831 -0.1932831 0.9619164
vn 0.2885807 0 0.9574556
vn -0.999022 0 0.04421575
vn -0.7070039 -0.7070039 0.01705933
vn -0.7063289 -0.7063289 0.04689223
vn 0 -0.999022 0.04421575
vn -0.9998713 0 0.01604483
vn -0.7070039 0.7070039 0.01705933
vn -0.9999969 0 0.002511545
vn -0.7063289 0.7063289 0.04689221
vn 0 0.999022 0.04421575
vn 0 -0.9998713 0.01604483
vn 0.7070039 -0.7070039 0.01705934
vn 0 -0.9999969 0.002511546
vn 0.7063289 -0.7063289 0.04689223
vn 0.999022 0 0.04421576
vn -0.7071043 -0.7071042 0.002664541
vn -0.7071068 -0.7071067 0
vn 0 0.9998713 0.01604483
vn 0.7070039 0.7070039 0.01705933
vn 0 0.9999969 0.002511545
vn 0.7063289 0.7063289 0.04689223
vn 0.9998713 0 0.01604483
vn 0.9999969 0 0.002511545
vn -0.7071042 0.7071042 0.002664541
vn -0.7071068 0.7071068 0
vn 0.7071042 -0.7071042 0.002664541
vn 0.7071068 -0.7071068 0
vn 0.7071042 0.7071042 0.002664541
vn 0.7071067 0.7071068 0
vn -1 0 0
vn -0.9999917 0 -0.00408845
vn 0 -1 0
vn 0 -0.9999917 -0.004088451
vn 0 1 0
vn 0 0.9999917 -0.00408845
vn 1 0 0
vn 0.9999917 0 -0.004088451
vn -0.7070999 0.7070999 -0.004407485
vn -0.6501436 0.6501436 -0.3932259
vn -0.7070999 -0.7070999 -0.004407486
vn -0.6501436 -0.6501436 -0.393226
vn 0.7070999 0.7070999 -0.004407486
vn 0.6501436 0.6501436 -0.3932259
vn 0.7070999 -0.7070999 -0.004407486
vn 0.6501436 -0.6501436 -0.393226
vn -0.92963 0 -0.3684944
vn -0.973229 0 -0.2298377
vn 0 0.92963 -0.3684943
vn 0 0.973229 -0.2298377
vn 0.92963 0 -0.3684945
vn 0.973229 0 -0.2298377
vn 0 -0.9296299 -0.3684945
vn 0 -0.973229 -0.2298377
vn -0.6867063 0.6867064 -0.2384716
vn -0.7058139 0.7058139 -0.06044321
vn 0.6867063 0.6867064 -0.2384717
vn 0.7058139 0.7058139 -0.06044321
vn 0.6867064 -0.6867063 -0.2384717
vn 0.7058139 -0.705814 -0.0604432
vn -0.6867064 -0.6867064 -0.2384717
vn -0.7058139 -0.7058139 -0.06044321
vn 0 0.9983462 -0.0574876
vn 0 1 0
vn 0.9983462 0 -0.0574876
vn 1 0 0
vn 0 -0.9983462 -0.0574876
vn 0 -1 0
vn -0.9983462 0 -0.05748759
vn -1 0 0
vn 0.7071068 0.7071067 0
vn 0.7057562 0.7057562 0.06177698
vn 0.7071068 -0.7071068 0
vn 0.7057562 -0.7057562 0.06177697
vn -0.7071068 -0.7071068 0
vn -0.7057562 -0.7057562 0.06177698
vn -0.7071068 0.7071068 0
vn -0.7057562 0.7057562 0.06177698
vn 0 0.9982698 0.0588007
vn 0 0.9687988 0.2478485
vn 0.9982698 0 0.05880071
vn 0.9687988 0 0.2478486
vn 0 -0.9982698 0.05880071
vn 0 -0.9687987 0.2478486
vn -0.9982698 0 0.05880071
vn -0.9687988 0 0.2478486
vn 0.6835058 0.6835059 0.2562017
vn 0.6479188 0.6479188 0.4005029
vn 0.6835059 -0.6835059 0.2562018
vn 0.6479188 -0.6479187 0.400503
vn -0.6835059 -0.6835059 0.2562017
vn -0.6479187 -0.6479188 0.4005029
vn -0.6835059 0.6835059 0.2562017
vn -0.6479188 0.6479188 0.4005028
vn 0.9275848 0 0.3736127
vn 0.9984912 0 0.05491279
vn 0 -0.9275848 0.3736128
vn 0 -0.9984912 0.0549128
vn -0.9275848 0 0.3736128
vn -0.9984912 0 0.05491277
vn 0 0.9275848 0.3736127
vn 0 0.9984912 0.05491277
vn 0.7058842 -0.7058841 0.05878035
vn 0.7071068 -0.7071068 0
vn -0.7058841 -0.7058842 0.05878032
vn -0.7071067 -0.7071068 0
vn -0.7058842 0.7058842 0.05878031
vn -0.7071068 0.7071068 0
vn 0.7058842 0.7058842 0.05878033
vn 0.7071067 0.7071068 0
vn 0 -1 0
vn 0 -0.9724507 0.2331084
vn -1 0 0
vn -0.9724507 0 0.2331084
vn 0 1 0
vn 0 0.9724507 0.2331084
vn 1 0 0
vn 0.9724507 0 0.2331084
vn -0.688361 -0.688361 0.228732
vn -0.688361 0.688361 0.228732
vn 0.688361 0.688361 0.228732
vn 0.688361 -0.688361 0.228732
vn -0.4646691 -0.4646691 0.7537674
vn -0.4646691 0.4646691 0.7537674
vn 0.464669 0.4646691 0.7537674
vn 0.4646691 -0.4646691 0.7537674
vn 0 -0.5629371 0.8264998
vn 0 0 1
vn -0.562937 0 0.8264998
vn 0 0.562937 0.8264998
vn 0.562937 0 0.8264998
vn -0.4118 0 -0.9112742
vn -0.1634724 0.1634724 -0.9729097
vn -0.2889853 0.2889853 -0.9126747
vn 0 0.4118 -0.9112742
vn -0.2024203 0 -0.9792987
vn 0 0 -1
vn -0.1634724 -0.1634724 -0.9729097
vn -0.2889854 -0.2889853 -0.9126747
vn 0 -0.4118 -0.9112742
vn 0 0.2024203 -0.9792987
vn 0.1634724 0.1634724 -0.9729097
vn 0.2889853 0.2889854 -0.9126747
vn 0.4118 0 -0.9112742
vn 0 -0.2024203 -0.9792987
vn 0.1634724 -0.1634724 -0.9729097
vn 0.2889853 -0.2889853 -0.9126747
vn 0.2024203 0 -0.9792987
g FlagPole_0
f 3/3/3 2/2/2 1/1/1
f 2/2/2 3/3/3 4/4/4
f 5/5/5 3/3/3 1/1/1
f 6/6/6 5/5/5 1/1/1
f 3/3/3 5/5/5 7/7/7
f 5/5/5 6/6/6 7/7/7
f 8/8/8 6/6/6 1/1/1
f 6/6/6 8/8/8 9/9/9
f 3/3/3 10/10/10 4/4/4
f 10/10/10 11/11/11 4/4/4
f 10/10/10 3/3/3 12/12/12
f 11/11/11 10/10/10 12/12/12
f 11/11/11 13/13/13 4/4/4
f 13/13/13 11/11/11 14/14/14
f 15/15/15 3/3/3 7/7/7
f 3/3/3 15/15/15 12/12/12
f 16/16/16 15/15/15 7/7/7
f 15/15/15 16/16/16 12/12/12
f 17/17/17 6/6/6 9/9/9
f 18/18/18 17/17/17 9/9/9
f 6/6/6 17/17/17 19/19/19
f 17/17/17 18/18/18 19/19/19
f 20/20/20 18/18/18 9/9/9
f 18/18/18 20/20/20 14/14/14
f 11/11/11 21/21/21 14/14/14
f 21/21/21 18/18/18 14/14/14
f 21/21/21 11/11/11 22/22/22
f 18/18/18 21/21/21 22/22/22
f 6/6/6 23/23/23 7/7/7
f 23/23/23 6/6/6 19/19/19
f 23/23/23 24/24/24 7/7/7
f 24/24/24 23/23/23 19/19/19
f 25/25/25 11/11/11 12/12/12
f 11/11/11 25/25/25 22/22/22
f 26/26/26 25/25/25 12/12/12
f 25/25/25 26/26/26 22/22/22
f 18/18/18 27/27/27 19/19/19
f 27/27/27 18/18/18 22/22/22
f 27/27/27 28/28/28 19/19/19
f 28/28/28 27/27/27 22/22/22
f 24/24/24 29/29/29 7/7/7
f 29/29/29 24/24/24 30/30/30
f 29/29/29 16/16/16 7/7/7
f 16/16/16 29/29/29 30/30/30
f 16/16/16 31/31/31 12/12/12
f 31/31/31 26/26/26 12/12/12
f 31/31/31 16/16/16 32/32/32
f 26/26/26 31/31/31 32/32/32
f 28/28/28 33/33/33 19/19/19
f 33/33/33 24/24/24 19/19/19
f 24/24/24 33/33/33 34/34/34
f 33/33/33 28/28/28 34/34/34
f 26/26/26 35/35/35 22/22/22
f 35/35/35 28/28/28 22/22/22
f 35/35/35 26/26/26 36/36/36
f 28/28/28 35/35/35 36/36/36
f 37/37/37 16/16/16 30/30/30
f 16/16/16 37/37/37 32/32/32
f 38/38/38 37/37/37 30/30/30
f 37/37/37 38/38/38 32/32/32
f 24/24/24 39/39/39 30/30/30
f 39/39/39 24/24/24 34/34/34
f 39/39/39 40/40/40 30/30/30
f 40/40/40 39/39/39 34/34/34
f 26/26/26 41/41/41 36/36/36
f 41/41/41 26/26/26 32/32/32
f 42/42/42 41/41/41 32/32/32
f 41/41/41 42/42/42 36/36/36
f 43/43/43 28/28/28 36/36/36
f 28/28/28 43/43/43 34/34/34
f 44/44/44 43/43/43 36/36/36
f 43/43/43 44/44/44 34/34/34
f 45/45/45 38/38/38 30/30/30
f 40/40/40 45/45/45 30/30/30
f 38/38/38 46/46/46 32/32/32
f 46/46/46 42/42/42 32/32/32
f 42/42/42 47/47/47 36/36/36
f 47/47/47 44/44/44 36/36/36
f 44/44/44 48/48/48 34/34/34
f 48/48/48 40/40/40 34/34/34
f 38/38/38 45/45/45 49/49/49
f 45/45/45 40/40/40 49/49/49
f 50/50/50 38/38/38 49/49/49
f 40/40/40 51/51/51 49/49/49
f 38/38/38 50/50/50 52/52/52
f 46/46/46 38/38/38 52/52/52
f 42/42/42 46/46/46 52/52/52
f 53/53/53 42/42/42 52/52/52
f 51/51/51 40/40/40 54/54/54
f 40/40/40 48/48/48 54/54/54
f 48/48/48 44/44/44 54/54/54
f 44/44/44 55/55/55 54/54/54
f 42/42/42 53/53/53 56/56/56
f 55/55/55 44/44/44 56/56/56
f 47/47/47 42/42/42 56/56/56
f 44/44/44 47/47/47 56/56/56
f 59/59/59 58/58/58 57/57/57
f 58/58/58 59/59/59 60/60/60
f 58/58/58 61/61/61 57/57/57
f 61/61/61 62/62/62 57/57/57
f 61/61/61 58/58/58 63/63/63
f 62/62/62 61/61/61 63/63/63
f 62/62/62 64/64/64 57/57/57
f 64/64/64 62/62/62 65/65/65
f 66/66/66 58/58/58 60/60/60
f 67/67/67 66/66/66 60/60/60
f 58/58/58 66/66/66 68/68/68
f 66/66/66 67/67/67 68/68/68
f 69/69/69 67/67/67 60/60/60
f 67/67/67 69/69/69 70/70/70
f 58/58/58 71/71/71 63/63/63
f 71/71/71 58/58/58 68/68/68
f 71/71/71 72/72/72 63/63/63
f 72/72/72 71/71/71 68/68/68
f 62/62/62 73/73/73 65/65/65
f 73/73/73 74/74/74 65/65/65
f 73/73/73 62/62/62 75/75/75
f 74/74/74 73/73/73 75/75/75
f 74/74/74 76/76/76 65/65/65
f 76/76/76 74/74/74 70/70/70
f 77/77/77 67/67/67 70/70/70
f 74/74/74 77/77/77 70/70/70
f 67/67/67 77/77/77 78/78/78
f 77/77/77 74/74/74 78/78/78
f 79/79/79 62/62/62 63/63/63
f 62/62/62 79/79/79 75/75/75
f 80/80/80 79/79/79 63/63/63
f 79/79/79 80/80/80 75/75/75
f 67/67/67 81/81/81 68/68/68
f 81/81/81 67/67/67 78/78/78
f 81/81/81 82/82/82 68/68/68
f 82/82/82 81/81/81 78/78/78
f 83/83/83 74/74/74 75/75/75
f 74/74/74 83/83/83 78/78/78
f 84/84/84 83/83/83 75/75/75
f 83/83/83 84/84/84 78/78/78
f 85/85/85 80/80/80 63/63/63
f 80/80/80 85/85/85 86/86/86
f 72/72/72 85/85/85 63/63/63
f 85/85/85 72/72/72 86/86/86
f 82/82/82 87/87/87 68/68/68
f 87/87/87 72/72/72 68/68/68
f 72/72/72 87/87/87 88/88/88
f 87/87/87 82/82/82 88/88/88
f 80/80/80 89/89/89 75/75/75
f 89/89/89 84/84/84 75/75/75
f 89/89/89 80/80/80 90/90/90
f 84/84/84 89/89/89 90/90/90
f 84/84/84 91/91/91 78/78/78
f 91/91/91 82/82/82 78/78/78
f 91/91/91 84/84/84 92/92/92
f 82/82/82 91/91/91 92/92/92
f 93/93/93 80/80/80 86/86/86
f 80/80/80 93/93/93 90/90/90
f 94/94/94 93/93/93 86/86/86
f 93/93/93 94/94/94 90/90/90
f 72/72/72 95/95/95 86/86/86
f 95/95/95 72/72/72 88/88/88
f 95/95/95 96/96/96 86/86/86
f 96/96/96 95/95/95 88/88/88
f 84/84/84 97/97/97 92/92/92
f 97/97/97 84/84/84 90/90/90
f 98/98/98 97/97/97 90/90/90
f 97/97/97 98/98/98 92/92/92
f 99/99/99 82/82/82 92/92/92
f 82/82/82 99/99/99 88/88/88
f 100/100/100 99/99/99 92/92/92
f 99/99/99 100/100/100 88/88/88
f 101/101/101 94/94/94 86/86/86
f 96/96/96 101/101/101 86/86/86
f 94/94/94 101/101/101 102/102/102
f 101/101/101 96/96/96 102/102/102
f 94/94/94 103/103/103 90/90/90
f 103/103/103 98/98/98 90/90/90
f 103/103/103 94/94/94 104/104/104
f 98/98/98 103/103/103 104/104/104
f 98/98/98 105/105/105 92/92/92
f 105/105/105 100/100/100 92/92/92
f 105/105/105 98/98/98 106/106/106
f 100/100/100 105/105/105 106/106/106
f 100/100/100 107/107/107 88/88/88
f 107/107/107 96/96/96 88/88/88
f 107/107/107 100/100/100 108/108/108
f 96/96/96 107/107/107 108/108/108
f 109/109/109 94/94/94 102/102/102
f 94/94/94 109/109/109 104/104/104
f 110/110/110 109/109/109 102/102/102
f 109/109/109 110/110/110 104/104/104
f 111/111/111 98/98/98 104/104/104
f 98/98/98 111/111/111 106/106/106
f 112/112/112 111/111/111 104/104/104
f 111/111/111 112/112/112 106/106/106
f 100/100/100 113/113/113 108/108/108
f 113/113/113 100/100/100 106/106/106
f 114/114/114 113/113/113 106/106/106
f 113/113/113 114/114/114 108/108/108
f 115/115/115 96/96/96 108/108/108
f 96/96/96 115/115/115 102/102/102
f 116/116/116 115/115/115 108/108/108
f 115/115/115 116/116/116 102/102/102
f 110/110/110 117/117/117 104/104/104
f 117/117/117 112/112/112 104/104/104
f 117/117/117 110/110/110 118/118/118
f 112/112/112 117/117/117 118/118/118
f 112/112/112 119/119/119 106/106/106
f 119/119/119 114/114/114 106/106/106
f 119/119/119 112/112/112 120/120/120
f 114/114/114 119/119/119 120/120/120
f 114/114/114 121/121/121 108/108/108
f 121/121/121 116/116/116 108/108/108
f 121/121/121 114/114/114 122/122/122
f 116/116/116 121/121/121 122/122/122
f 116/116/116 123/123/123 102/102/102
f 123/123/123 110/110/110 102/102/102
f 123/123/123 116/116/116 124/124/124
f 110/110/110 123/123/123 124/124/124
f 125/125/125 112/112/112 118/118/118
f 112/112/112 125/125/125 120/120/120
f 126/126/126 125/125/125 118/118/118
f 125/125/125 126/126/126 120/120/120
f 127/127/127 114/114/114 120/120/120
f 114/114/114 127/127/127 122/122/122
f 128/128/128 127/127/127 120/120/120
f 127/127/127 128/128/128 122/122/122
f 116/116/116 129/129/129 124/124/124
f 129/129/129 116/116/116 122/122/122
f 130/130/130 129/129/129 122/122/122
f 129/129/129 130/130/130 124/124/124
f 110/110/110 131/131/131 118/118/118
f 131/131/131 110/110/110 124/124/124
f 131/131/131 132/132/132 118/118/118
f 132/132/132 131/131/131 124/124/124
f 133/133/133 126/126/126 118/118/118
f 132/132/132 133/133/133 118/118/118
f 126/126/126 133/133/133 134/134/134
f 133/133/133 132/132/132 134/134/134
f 126/126/126 135/135/135 120/120/120
f 135/135/135 128/128/128 120/120/120
f 135/135/135 126/126/126 136/136/136
f 128/128/128 135/135/135 136/136/136
f 128/128/128 137/137/137 122/122/122
f 137/137/137 130/130/130 122/122/122
f 137/137/137 128/128/128 138/138/138
f 130/130/130 137/137/137 138/138/138
f 130/130/130 139/139/139 124/124/124
f 139/139/139 132/132/132 124/124/124
f 139/139/139 130/130/130 140/140/140
f 132/132/132 139/139/139 140/140/140
f 141/141/141 126/126/126 134/134/134
f 126/126/126 141/141/141 136/136/136
f 142/142/142 141/141/141 134/134/134
f 141/141/141 142/142/142 136/136/136
f 143/143/143 128/128/128 136/136/136
f 128/128/128 143/143/143 138/138/138
f 144/144/144 143/143/143 136/136/136
f 143/143/143 144/144/144 138/138/138
f 130/130/130 145/145/145 140/140/140
f 145/145/145 130/130/130 138/138/138
f 146/146/146 145/145/145 138/138/138
f 145/145/145 146/146/146 140/140/140
f 147/147/147 132/132/132 140/140/140
f 132/132/132 147/147/147 134/134/134
f 148/148/148 147/147/147 140/140/140
f 147/147/147 148/148/148 134/134/134
f 142/142/142 149/149/149 136/136/136
f 149/149/149 144/144/144 136/136/136
f 149/149/149 142/142/142 150/150/150
f 144/144/144 149/149/149 150/150/150
f 144/144/144 151/151/151 138/138/138
f 151/151/151 146/146/146 138/138/138
f 151/151/151 144/144/144 152/152/152
f 146/146/146 151/151/151 152/152/152
f 146/146/146 153/153/153 140/140/140
f 153/153/153 148/148/148 140/140/140
f 153/153/153 146/146/146 154/154/154
f 148/148/148 153/153/153 154/154/154
f 148/148/148 155/155/155 134/134/134
f 155/155/155 142/142/142 134/134/134
f 155/155/155 148/148/148 156/156/156
f 142/142/142 155/155/155 156/156/156
f 157/157/157 144/144/144 150/150/150
f 144/144/144 157/157/157 152/152/152
f 158/158/158 157/157/157 150/150/150
f 157/157/157 158/158/158 152/152/152
f 159/159/159 146/146/146 152/152/152
f 146/146/146 159/159/159 154/154/154
f 160/160/160 159/159/159 152/152/152
f 159/159/159 160/160/160 154/154/154
f 148/148/148 161/161/161 156/156/156
f 161/161/161 148/148/148 154/154/154
f 162/162/162 161/161/161 154/154/154
f 161/161/161 162/162/162 156/156/156
f 163/163/163 142/142/142 156/156/156
f 142/142/142 163/163/163 150/150/150
f 164/164/164 163/163/163 156/156/156
f 163/163/163 164/164/164 150/150/150
f 158/158/158 165/165/165 152/152/152
f 165/165/165 160/160/160 152/152/152
f 165/165/165 158/158/158 166/166/166
f 160/160/160 165/165/165 166/166/166
f 160/160/160 167/167/167 154/154/154
f 167/167/167 162/162/162 154/154/154
f 167/167/167 160/160/160 168/168/168
f 162/162/162 167/167/167 168/168/168
f 162/162/162 169/169/169 156/156/156
f 169/169/169 164/164/164 156/156/156
f 169/169/169 162/162/162 170/170/170
f 164/164/164 169/169/169 170/170/170
f 164/164/164 171/171/171 150/150/150
f 171/171/171 158/158/158 150/150/150
f 171/171/171 164/164/164 172/172/172
f 158/158/158 171/171/171 172/172/172
f 173/173/173 160/160/160 166/166/166
f 160/160/160 173/173/173 168/168/168
f 162/162/162 174/174/174 170/170/170
f 174/174/174 162/162/162 168/168/168
f 175/175/175 164/164/164 170/170/170
f 164/164/164 175/175/175 172/172/172
f 158/158/158 176/176/176 166/166/166
f 176/176/176 158/158/158 172/172/172
f 177/177/177 173/173/173 166/166/166
f 173/173/173 177/177/177 168/168/168
f 178/178/178 174/174/174 168/168/168
f 174/174/174 178/178/178 170/170/170
f 179/179/179 175/175/175 170/170/170
f 175/175/175 179/179/179 172/172/172
f 176/176/176 180/180/180 166/166/166
f 180/180/180 176/176/176 172/172/172
f 181/181/181 177/177/177 166/166/166
f 180/180/180 181/181/181 166/166/166
f 177/177/177 181/181/181 182/182/182
f 181/181/181 180/180/180 182/182/182
f 177/177/177 183/183/183 168/168/168
f 183/183/183 178/178/178 168/168/168
f 183/183/183 177/177/177 182/182/182
f 178/178/178 183/183/183 182/182/182
f 178/178/178 184/184/184 170/170/170
f 184/184/184 179/179/179 170/170/170
f 184/184/184 178/178/178 182/182/182
f 179/179/179 184/184/184 182/182/182
f 179/179/179 185/185/185 172/172/172
f 185/185/185 180/180/180 172/172/172
f 180/180/180 185/185/185 182/182/182
f 185/185/185 179/179/179 182/182/182
f 188/188/188 187/187/187 186/186/186
f 187/187/187 188/188/188 189/189/189
f 187/187/187 190/190/190 186/186/186
f 190/190/190 187/187/187 191/191/191
f 190/190/190 192/192/192 186/186/186
f 192/192/192 190/190/190 191/191/191
f 192/192/192 193/193/193 186/186/186
f 193/193/193 192/192/192 194/194/194
f 195/195/195 187/187/187 189/189/189
f 187/187/187 195/195/195 191/191/191
f 196/196/196 195/195/195 189/189/189
f 195/195/195 196/196/196 191/191/191
f 197/197/197 196/196/196 189/189/189
f 196/196/196 197/197/197 198/198/198
f 192/192/192 199/199/199 194/194/194
f 199/199/199 192/192/192 191/191/191
f 199/199/199 200/200/200 194/194/194
f 200/200/200 199/199/199 191/191/191
f 200/200/200 201/201/201 194/194/194
f 201/201/201 200/200/200 198/198/198
f 202/202/202 196/196/196 198/198/198
f 196/196/196 202/202/202 191/191/191
f 200/200/200 202/202/202 198/198/198
f 202/202/202 200/200/200 191/191/191
