g FlowerPot
v 0 -0.460272 0.518058
v 0.302487 -0.301831 0.497077
v 0 -0.427125 0.497077
v 0.325925 -0.325269 0.518058
v 0.427781 0.000655 0.497077
v 0.460928 0.000655 0.518057
v 0.302487 0.303142 0.497077
v 0.325925 0.326581 0.518057
v 0 0.428436 0.497077
v 0 0.461583 0.518057
v -0.302487 0.303142 0.497077
v -0.325925 0.326581 0.518057
v 0.325925 -0.327509 0.664051
v 0.460928 -0.001584 0.664051
v 0.460928 0.000655 0.518057
v 0.325925 -0.325269 0.518058
v 0 -0.462512 0.664051
v 0 -0.460272 0.518058
v -0.325925 -0.327509 0.664051
v 0 -0.462512 0.664051
v 0 -0.460272 0.518058
v -0.325925 -0.32527 0.518058
v -0.460928 -0.001584 0.664051
v -0.460928 0.000655 0.518057
v 0 -0.427125 0.497077
v -0.302487 -0.301831 0.497077
v -0.427781 0.000655 0.497077
v 0 -0.311097 -0.016979
v 0.220443 -0.219787 -0.016979
v -0.220442 -0.219787 -0.016979
v -0.311753 0.000655 -0.016979
v -0.325925 0.324341 0.664051
v -0.460928 -0.001584 0.664051
v -0.460928 0.000655 0.518057
v -0.325925 0.326581 0.518057
v 0 0.459344 0.664051
v 0 0.461583 0.518057
v -0.427781 0.000655 0.497077
v -0.302487 0.303142 0.497077
v -0.311753 0.000655 -0.016979
v -0.220442 0.221098 -0.016979
v 0 0.428436 0.497077
v 0 0.312409 -0.016979
v 0.460928 -0.001584 0.664051
v 0.325925 0.326581 0.518057
v 0.460928 0.000655 0.518057
v 0.325925 0.324341 0.664051
v 0 0.461583 0.518057
v 0 0.459344 0.664051
v 0 -0.427125 0.497077
v 0.302487 -0.301831 0.497077
v 0.220443 -0.219787 -0.016979
v 0.311753 0.000655 -0.016979
v 0.427781 0.000655 0.497077
v 0.220443 -0.219787 -0.016979
v 0.311753 0.000655 -0.016979
v 0.220443 0.221098 -0.016979
v 0 -0.311097 -0.016979
v 0 0.312409 -0.016979
v -0.220442 -0.219787 -0.016979
v -0.220442 0.221098 -0.016979
v -0.311753 0.000655 -0.016979
v 0.302487 0.303142 0.497077
v 0 0.428436 0.497077
v 0 0.312409 -0.016979
v 0.220443 0.221098 -0.016979
v 0.427781 0.000655 0.497077
v 0.311753 0.000655 -0.016979
v -0.254337 0.252753 0.664051
v -0.16536 0.163776 0.161363
v -0.233854 -0.001584 0.161363
v -0.359688 -0.001584 0.664051
v -0.16536 -0.166944 0.161363
v -0.254337 -0.255922 0.664051
v 0 -0.235438 0.161363
v 0 -0.361272 0.664051
v 0.254338 -0.255921 0.664051
v 0.16536 -0.166944 0.161363
v 0.233854 -0.001584 0.161363
v 0.359688 -0.001584 0.664051
v 0.16536 0.163776 0.161363
v 0.254338 0.252753 0.664051
v 0 0.23227 0.161363
v 0 0.358104 0.664051
v 0 0.358104 0.664051
v 0 0.23227 0.161363
v -0.16536 0.163776 0.161363
v -0.254337 0.252753 0.664051
v 0 -0.361272 0.664051
v 0 -0.235438 0.161363
v 0.16536 -0.166944 0.161363
v 0.254338 -0.255921 0.664051
v 0.16536 0.163776 0.161363
v 0.233854 -0.001584 0.161363
v 0.16536 -0.166944 0.161363
v 0 0.23227 0.161363
v 0 -0.235438 0.161363
v -0.16536 0.163776 0.161363
v -0.16536 -0.166944 0.161363
v -0.233854 -0.001584 0.161363
v 0.325925 -0.327509 0.664051
v 0.254338 -0.255921 0.664051
v 0.359688 -0.001584 0.664051
v 0.460928 -0.001584 0.664051
v 0 -0.462512 0.664051
v 0.254338 0.252753 0.664051
v 0 -0.361272 0.664051
v 0.325925 0.324341 0.664051
v -0.325925 -0.327509 0.664051
v 0 0.358104 0.664051
v -0.254337 -0.255922 0.664051
v 0 0.459344 0.664051
v -0.460928 -0.001584 0.664051
v -0.254337 0.252753 0.664051
v -0.359688 -0.001584 0.664051
v -0.325925 0.324341 0.664051
vt 0.432292 0.197557
vt 0.320756 0.370571
vt 0.447907 0.259733
vt 0.267259 0.33888
vt 0.305407 0.537103
vt 0.244532 0.55215
vt 0.412791 0.665853
vt 0.380801 0.719969
vt 0.576701 0.676883
vt 0.591351 0.734999
vt 0.704365 0.571581
vt 0.758744 0.604685
vt 0.170743 0.250223
vt 0.097843 0.541663
vt 0.244532 0.55215
vt 0.267259 0.33888
vt 0.395767 0.102258
vt 0.432292 0.197557
vt 0.664844 0.102258
vt 0.395767 0.102258
vt 0.432292 0.197557
vt 0.647152 0.224346
vt 0.885123 0.306078
vt 0.782076 0.390045
vt 0.447907 0.259733
vt 0.614996 0.276989
vt 0.721398 0.404436
vt 0.463523 0.321909
vt 0.374254 0.402261
vt 0.582841 0.329631
vt 0.660721 0.418827
vt 0.900906 0.63964
vt 0.885123 0.306078
vt 0.782076 0.390045
vt 0.758744 0.604685
vt 0.639763 0.918412
vt 0.591351 0.734999
vt 0.721398 0.404436
vt 0.704365 0.571581
vt 0.660721 0.418827
vt 0.649986 0.538477
vt 0.576701 0.676883
vt 0.56205 0.618766
vt 0.097843 0.541663
vt 0.380801 0.719969
vt 0.244532 0.55215
vt 0.267385 0.830129
vt 0.591351 0.734999
vt 0.639763 0.918412
vt 0.447907 0.259733
vt 0.320756 0.370571
vt 0.374254 0.402261
vt 0.366282 0.522056
vt 0.305407 0.537103
vt 0.374254 0.402261
vt 0.366282 0.522056
vt 0.44478 0.611737
vt 0.463523 0.321909
vt 0.56205 0.618766
vt 0.582841 0.329631
vt 0.649986 0.538477
vt 0.660721 0.418827
vt 0.412791 0.665853
vt 0.576701 0.676883
vt 0.56205 0.618766
vt 0.44478 0.611737
vt 0.305407 0.537103
vt 0.366282 0.522056
vt 0.900906 0.63964
vt 0.900906 0.63964
vt 0.885123 0.306078
vt 0.885123 0.306078
vt 0.664844 0.102258
vt 0.664844 0.102258
vt 0.395767 0.102258
vt 0.395767 0.102258
vt 0.170743 0.250223
vt 0.170743 0.250223
vt 0.097843 0.541663
vt 0.097843 0.541663
vt 0.267385 0.830129
vt 0.267385 0.830129
vt 0.639763 0.918412
vt 0.639763 0.918412
vt 0.639763 0.918412
vt 0.639763 0.918412
vt 0.900906 0.63964
vt 0.900906 0.63964
vt 0.395767 0.102258
vt 0.395767 0.102258
vt 0.170743 0.250223
vt 0.170743 0.250223
vt 0.267385 0.830129
vt 0.097843 0.541663
vt 0.170743 0.250223
vt 0.639763 0.918412
vt 0.395767 0.102258
vt 0.900906 0.63964
vt 0.664844 0.102258
vt 0.885123 0.306078
vt 0.170743 0.250223
vt 0.170743 0.250223
vt 0.097843 0.541663
vt 0.097843 0.541663
vt 0.395767 0.102258
vt 0.267385 0.830129
vt 0.395767 0.102258
vt 0.267385 0.830129
vt 0.664844 0.102258
vt 0.639763 0.918412
vt 0.664844 0.102258
vt 0.639763 0.918412
vt 0.885123 0.306078
vt 0.900906 0.63964
vt 0.885123 0.306078
vt 0.900906 0.63964
vn 0 -0.8649086 -0.5019293
vn 0.5734688 -0.5734714 -0.5850334
vn 0 -0.8110098 -0.5850325
vn 0.6123536 -0.6123425 -0.5000596
vn 0.8110053 0 -0.5850388
vn 0.8685882 0 -0.4955345
vn 0.5734659 0.573465 -0.5850424
vn 0.6160148 0.6160012 -0.4909869
vn 0 0.8110023 -0.585043
vn 0 0.8722297 -0.4890965
vn -0.5734657 0.5734653 -0.5850425
vn -0.6160148 0.6160012 -0.4909869
vn 0.7070771 -0.7070532 -0.0108476
vn 1 0 0
vn 0.8685882 0 -0.4955345
vn 0.6123536 -0.6123425 -0.5000596
vn 0 -0.9998823 -0.01533951
vn 0 -0.8649086 -0.5019293
vn -0.7070769 -0.7070535 -0.01084523
vn 0 -0.9998823 -0.01533951
vn 0 -0.8649086 -0.5019293
vn -0.6123531 -0.612342 -0.5000609
vn -1 0 0
vn -0.868588 0 -0.4955348
vn 0 -0.8110098 -0.5850325
vn -0.5734677 -0.5734704 -0.5850356
vn -0.8110045 0 -0.5850399
vn 0 -0.4687919 -0.8833086
vn 0.4246605 -0.4246612 -0.7995788
vn -0.3314855 -0.3314863 -0.8833087
vn -0.789057 0 -0.6143201
vn -0.707077 0.7070532 0.01084594
vn -1 0 0
vn -0.868588 0 -0.4955348
vn -0.6160148 0.6160012 -0.4909869
vn 0 0.9998823 0.01533782
vn 0 0.8722297 -0.4890965
vn -0.8110045 0 -0.5850399
vn -0.5734657 0.5734653 -0.5850425
vn -0.789057 0 -0.6143201
vn -0.424661 0.4246608 -0.7995787
vn 0 0.8110023 -0.585043
vn 0 0.4687919 -0.8833086
vn 1 0 0
vn 0.6160148 0.6160012 -0.4909869
vn 0.8685882 0 -0.4955345
vn 0.707077 0.7070532 0.01084594
vn 0 0.8722297 -0.4890965
vn 0 0.9998823 0.01533782
vn 0 -0.8110098 -0.5850325
vn 0.5734688 -0.5734714 -0.5850334
vn 0.4246605 -0.4246612 -0.7995788
vn 0.7890576 0 -0.6143193
vn 0.8110053 0 -0.5850388
vn 0.4246605 -0.4246612 -0.7995788
vn 0.7890576 0 -0.6143193
vn 0.3314862 0.3314856 -0.8833086
vn 0 -0.4687919 -0.8833086
vn 0 0.4687919 -0.8833086
vn -0.3314855 -0.3314863 -0.8833087
vn -0.424661 0.4246608 -0.7995787
vn -0.789057 0 -0.6143201
vn 0.5734659 0.573465 -0.5850424
vn 0 0.8110023 -0.585043
vn 0 0.4687919 -0.8833086
vn 0.3314862 0.3314856 -0.8833086
vn 0.8110053 0 -0.5850388
vn 0.7890576 0 -0.6143193
vn 0.4186274 -0.4186274 0.8059169
vn 0.327071 -0.327071 0.8865941
vn 0.7786603 0 0.6274458
vn 0.5920281 0 0.8059173
vn 0.4186269 0.4186273 0.8059173
vn 0.4186269 0.4186273 0.8059173
vn 0 0.4625478 0.8865944
vn 0 0.5920281 0.8059174
vn -0.4186273 0.4186269 0.8059173
vn -0.3270709 0.3270706 0.8865944
vn -0.7786602 0 0.6274459
vn -0.5920281 0 0.8059173
vn -0.4186274 -0.4186269 0.8059173
vn -0.4186274 -0.4186269 0.8059173
vn 0 -0.4625478 0.8865944
vn 0 -0.5920281 0.8059173
vn 0 -0.5920281 0.8059173
vn 0 -0.4625478 0.8865944
vn 0.327071 -0.327071 0.8865941
vn 0.4186274 -0.4186274 0.8059169
vn 0 0.5920281 0.8059174
vn 0 0.4625478 0.8865944
vn -0.3270709 0.3270706 0.8865944
vn -0.4186273 0.4186269 0.8059173
vn -0.4186274 -0.4186269 0.8059173
vn -0.7786602 0 0.6274459
vn -0.3270709 0.3270706 0.8865944
vn 0 -0.4625478 0.8865944
vn 0 0.4625478 0.8865944
vn 0.327071 -0.327071 0.8865941
vn 0.4186269 0.4186273 0.8059173
vn 0.7786603 0 0.6274458
vn 0 0 1
vn -0.4186273 0.4186269 0.8059173
vn -0.5920281 0 0.8059173
vn 0 0 1
vn 0 0 1
vn -0.4186274 -0.4186269 0.8059173
vn 0 0.5920281 0.8059174
vn 0 0 1
vn 0 0 1
vn 0 -0.5920281 0.8059173
vn 0.4186269 0.4186273 0.8059173
vn 0 0 1
vn 0 0 1
vn 0.4186274 -0.4186274 0.8059169
vn 0.5920281 0 0.8059173
vn 0 0 1
g FlowerPot_0
f 3/3/3 2/2/2 1/1/1
f 2/2/2 4/4/4 1/1/1
f 2/2/2 5/5/5 4/4/4
f 5/5/5 6/6/6 4/4/4
f 5/5/5 7/7/7 6/6/6
f 7/7/7 8/8/8 6/6/6
f 7/7/7 9/9/9 8/8/8
f 9/9/9 10/10/10 8/8/8
f 9/9/9 11/11/11 10/10/10
f 11/11/11 12/12/12 10/10/10
f 15/15/15 14/14/14 13/13/13
f 16/16/16 15/15/15 13/13/13
f 16/16/16 13/13/13 17/17/17
f 18/18/18 16/16/16 17/17/17
f 21/21/21 20/20/20 19/19/19
f 22/22/22 21/21/21 19/19/19
f 22/22/22 19/19/19 23/23/23
f 24/24/24 22/22/22 23/23/23
f 25/25/25 21/21/21 22/22/22
f 26/26/26 22/22/22 24/24/24
f 26/26/26 25/25/25 22/22/22
f 27/27/27 26/26/26 24/24/24
f 28/28/28 25/25/25 26/26/26
f 28/28/28 29/29/29 25/25/25
f 30/30/30 28/28/28 26/26/26
f 30/30/30 26/26/26 27/27/27
f 31/31/31 30/30/30 27/27/27
f 34/34/34 33/33/33 32/32/32
f 35/35/35 34/34/34 32/32/32
f 35/35/35 32/32/32 36/36/36
f 37/37/37 35/35/35 36/36/36
f 38/38/38 34/34/34 35/35/35
f 39/39/39 38/38/38 35/35/35
f 40/40/40 38/38/38 39/39/39
f 41/41/41 40/40/40 39/39/39
f 41/41/41 39/39/39 42/42/42
f 43/43/43 41/41/41 42/42/42
f 46/46/46 45/45/45 44/44/44
f 45/45/45 47/47/47 44/44/44
f 45/45/45 48/48/48 47/47/47
f 48/48/48 49/49/49 47/47/47
f 52/52/52 51/51/51 50/50/50
f 52/52/52 53/53/53 51/51/51
f 53/53/53 54/54/54 51/51/51
f 57/57/57 56/56/56 55/55/55
f 55/55/55 58/58/58 57/57/57
f 58/58/58 59/59/59 57/57/57
f 58/58/58 60/60/60 59/59/59
f 60/60/60 61/61/61 59/59/59
f 60/60/60 62/62/62 61/61/61
f 65/65/65 64/64/64 63/63/63
f 66/66/66 65/65/65 63/63/63
f 66/66/66 63/63/63 67/67/67
f 68/68/68 66/66/66 67/67/67
f 71/71/71 70/70/70 69/69/69
f 72/72/72 71/71/71 69/69/69
f 73/73/73 71/71/71 72/72/72
f 74/74/74 73/73/73 72/72/72
f 75/75/75 73/73/73 74/74/74
f 76/76/76 75/75/75 74/74/74
f 79/79/79 78/78/78 77/77/77
f 80/80/80 79/79/79 77/77/77
f 81/81/81 79/79/79 80/80/80
f 82/82/82 81/81/81 80/80/80
f 83/83/83 81/81/81 82/82/82
f 84/84/84 83/83/83 82/82/82
f 87/87/87 86/86/86 85/85/85
f 88/88/88 87/87/87 85/85/85
f 91/91/91 90/90/90 89/89/89
f 92/92/92 91/91/91 89/89/89
f 95/95/95 94/94/94 93/93/93
f 93/93/93 96/96/96 95/95/95
f 96/96/96 97/97/97 95/95/95
f 96/96/96 98/98/98 97/97/97
f 98/98/98 99/99/99 97/97/97
f 98/98/98 100/100/100 99/99/99
f 103/103/103 102/102/102 101/101/101
f 104/104/104 103/103/103 101/101/101
f 101/101/101 102/102/102 105/105/105
f 106/106/106 103/103/103 104/104/104
f 102/102/102 107/107/107 105/105/105
f 108/108/108 106/106/106 104/104/104
f 105/105/105 107/107/107 109/109/109
f 110/110/110 106/106/106 108/108/108
f 107/107/107 111/111/111 109/109/109
f 112/112/112 110/110/110 108/108/108
f 109/109/109 111/111/111 113/113/113
f 114/114/114 110/110/110 112/112/112
f 111/111/111 115/115/115 113/113/113
f 116/116/116 114/114/114 112/112/112
f 113/113/113 115/115/115 116/116/116
f 115/115/115 114/114/114 116/116/116
