g FlyWings
v 0 0.23827 0.015117
v 0 -0.001347 0.015117
v -0.337166 0.174217 0.18343
v -0.337166 0.413834 0.18343
v 0 0.23827 0.015117
v -0.337166 0.413834 0.18343
v -0.337166 0.174217 0.18343
v 0 -0.001347 0.015117
v 0 0.23827 0.015117
v 0.337166 0.413834 0.18343
v 0.337166 0.174217 0.18343
v 0 -0.001347 0.015117
v 0 0.23827 0.015117
v 0 -0.001347 0.015117
v 0.337166 0.174217 0.18343
v 0.337166 0.413834 0.18343
vt 0.614647 0.791653
vt 0.614647 0.860902
vt 0.668556 0.860902
vt 0.668556 0.791653
vt 0.614647 0.791653
vt 0.668556 0.791653
vt 0.668556 0.860902
vt 0.614647 0.860902
vt 0.614647 0.791653
vt 0.668556 0.791653
vt 0.668556 0.860902
vt 0.614647 0.860902
vt 0.614647 0.791653
vt 0.614647 0.860902
vt 0.668556 0.860902
vt 0.668556 0.791653
vn 0.4466402 0 0.8947136
vn 0.4466402 0 0.8947136
vn 0.4466402 0 0.8947136
vn 0.4466402 0 0.8947136
vn -0.4466402 0 -0.8947136
vn -0.4466402 0 -0.8947136
vn -0.4466402 0 -0.8947136
vn -0.4466402 0 -0.8947136
vn -0.4466402 0 0.8947136
vn -0.4466402 0 0.8947136
vn -0.4466402 0 0.8947136
vn -0.4466402 0 0.8947136
vn 0.4466402 0 -0.8947136
vn 0.4466402 0 -0.8947136
vn 0.4466402 0 -0.8947136
vn 0.4466402 0 -0.8947136
g FlyWings_0
f 3/3/3 2/2/2 1/1/1
f 4/4/4 3/3/3 1/1/1
f 7/7/7 6/6/6 5/5/5
f 8/8/8 7/7/7 5/5/5
f 11/11/11 10/10/10 9/9/9
f 12/12/12 11/11/11 9/9/9
f 15/15/15 14/14/14 13/13/13
f 16/16/16 15/15/15 13/13/13
