g FountainWater
v 0.657362 0.130757 1.19937
v 0.67024 1E-06 1.19937
v 0.657362 -0.130757 1.19937
v 0.619221 0.25649 1.19937
v 0.619221 -0.25649 1.19937
v 0.557284 0.372366 1.19937
v 0.557285 -0.372366 1.19937
v 0.473932 -0.473931 1.19937
v 0.473931 0.473931 1.19937
v 0.372366 -0.557284 1.19937
v 0.372365 0.557284 1.19937
v 0.25649 -0.619221 1.19937
v 0.256489 0.619221 1.19937
v 0.130758 -0.657362 1.19937
v 0.130756 0.657362 1.19937
v 1E-06 -0.67024 1.19937
v 1E-06 0.67024 1.19937
v -0.130757 0.657361 1.19937
v -0.130757 -0.657362 1.19937
v -0.25649 0.61922 1.19937
v -0.25649 -0.619222 1.19937
v -0.372365 0.557284 1.19937
v -0.372365 -0.557285 1.19937
v -0.473931 0.473931 1.19937
v -0.473931 -0.473932 1.19937
v -0.557284 0.372365 1.19937
v -0.557284 -0.372366 1.19937
v -0.619221 0.256489 1.19937
v -0.619221 -0.25649 1.19937
v -0.657361 0.130757 1.19937
v -0.657362 -0.130758 1.19937
v -0.67024 0 1.19937
v 1E-06 0.576059 0.850801
v 0 1.868159 0.850801
v 0.364457 1.832264 0.850801
v 0.112382 0.56499 0.850801
v -0.112383 0.56499 0.850801
v 0.714911 1.725955 0.850801
v -0.36446 1.832263 0.850801
v 0.220448 0.532209 0.850801
v -0.220448 0.532209 0.850801
v 1.037892 1.553319 0.850801
v -0.714914 1.725954 0.850801
v 0.320041 0.478976 0.850801
v -0.320041 0.478975 0.850801
v 1.320987 1.320989 0.850801
v -1.037894 1.553317 0.850801
v 0.407335 0.407335 0.850801
v -0.407335 0.407335 0.850801
v 1.553317 1.037895 0.850801
v -1.320988 1.320988 0.850801
v 0.478975 0.320041 0.850801
v -0.478975 0.320041 0.850801
v 1.725954 0.714915 0.850801
v -1.553318 1.037893 0.850801
v 0.532209 0.220448 0.850801
v -0.532209 0.220448 0.850801
v 1.832263 0.364461 0.850801
v -1.725954 0.714913 0.850801
v 0.56499 0.112383 0.850801
v -0.56499 0.112383 0.850801
v 1.86816 2E-06 0.850801
v -1.832263 0.364459 0.850801
v 0.576059 0 0.850801
v -0.576059 0 0.850801
v 1.832264 -0.364459 0.850801
v -1.868159 0 0.850801
v 0.56499 -0.112383 0.850801
v -0.56499 -0.112384 0.850801
v 1.725955 -0.714913 0.850801
v -1.832263 -0.36446 0.850801
v 0.532209 -0.220448 0.850801
v -0.532209 -0.220449 0.850801
v 1.553319 -1.037893 0.850801
v -1.725954 -0.714914 0.850801
v 0.478976 -0.320042 0.850801
v -0.478975 -0.320042 0.850801
v 1.320989 -1.320988 0.850801
v -1.553318 -1.037894 0.850801
v 0.407336 -0.407335 0.850801
v -0.407335 -0.407336 0.850801
v 1.037895 -1.553318 0.850801
v -1.320988 -1.320989 0.850801
v 0.320042 -0.478976 0.850801
v -0.320041 -0.478976 0.850801
v 0.714915 -1.725954 0.850801
v -1.037894 -1.553319 0.850801
v 0.220449 -0.532209 0.850801
v -0.220448 -0.532209 0.850801
v 0.364461 -1.832264 0.850801
v -0.714913 -1.725955 0.850801
v 0.112384 -0.56499 0.850801
v -0.112383 -0.56499 0.850801
v 1E-06 -1.86816 0.850801
v -0.364459 -1.832264 0.850801
v 0 -0.576059 0.850801
vt -0.176158 0.677176
vt -0.163165 0.545266
vt -0.124688 0.418424
vt -0.163163 0.809089
vt -0.062205 0.301524
vt -0.124687 0.935933
vt 0.021884 0.199059
vt 0.124346 0.114972
vt -0.062205 1.05283
vt 0.241244 0.052489
vt 0.021887 1.155294
vt 0.368087 0.01401
vt 0.124348 1.239383
vt 0.499999 0.001016
vt 0.241247 1.301866
vt 0.631911 0.014011
vt 0.368089 1.340343
vt 0.499999 1.353334
vt 0.758755 0.052489
vt 0.631911 1.340341
vt 0.875652 0.114971
vt 0.758755 1.301865
vt 0.978116 0.199058
vt 0.875654 1.239382
vt 1.062204 0.301523
vt 0.978116 1.155291
vt 1.12469 0.41842
vt 1.062204 1.052829
vt 1.163165 0.545265
vt 1.124689 0.935931
vt 1.176159 0.677177
vt 1.163167 0.80909
vt 0.368089 1.340343
vt 0.132325 2.525619
vt -0.221224 2.418373
vt 0.241247 1.301866
vt 0.499999 1.353334
vt -0.547057 2.244211
vt 0.5 2.561832
vt 0.124348 1.239383
vt 0.631911 1.340341
vt -0.832651 2.009831
vt 0.867678 2.525619
vt 0.021887 1.155294
vt 0.758755 1.301865
vt -1.067033 1.724237
vt 1.221226 2.418371
vt -0.062205 1.05283
vt 0.875654 1.239382
vt -1.241194 1.398405
vt 1.547058 2.24421
vt -0.124687 0.935933
vt 0.978116 1.155291
vt -1.348442 1.044857
vt 1.832653 2.009829
vt -0.163163 0.809089
vt 1.062204 1.052829
vt -1.384656 0.677178
vt 2.067034 1.724235
vt -0.176158 0.677176
vt 1.124689 0.935931
vt -1.348443 0.3095
vt 2.241195 1.398403
vt -0.163165 0.545266
vt 1.163167 0.80909
vt -1.241196 -0.044048
vt 2.348443 1.044854
vt -0.124688 0.418424
vt 1.176159 0.677177
vt -1.067035 -0.369882
vt 2.384656 0.677177
vt -0.062205 0.301524
vt 1.163165 0.545265
vt -0.832654 -0.655476
vt 2.348443 0.309499
vt 0.021884 0.199059
vt 1.12469 0.41842
vt -0.54706 -0.889857
vt 2.241195 -0.04405
vt 0.124346 0.114972
vt 1.062204 0.301523
vt -0.221227 -1.064018
vt 2.067034 -0.369882
vt 0.241244 0.052489
vt 0.978116 0.199058
vt 0.132321 -1.171266
vt 1.832653 -0.655477
vt 0.368087 0.01401
vt 0.875652 0.114971
vt 0.499999 -1.20748
vt 1.547058 -0.889858
vt 0.499999 0.001016
vt 0.758755 0.052489
vt 0.867677 -1.171266
vt 1.221226 -1.064019
vt 0.631911 0.014011
vn 0 0 1
vn 0 0 1
vn 0 0 1
vn 0 0 1
vn 0 0 1
vn 0 0 1
vn 0 0 1
vn 0 0 1
vn 0 0 1
vn 0 0 1
vn 0 0 1
vn 0 0 1
vn 0 0 1
vn 0 0 1
vn 0 0 1
vn 0 0 1
vn 0 0 1
vn 0 0 1
vn 0 0 1
vn 0 0 1
vn 0 0 1
vn 0 0 1
vn 0 0 1
vn 0 0 1
vn 0 0 1
vn 0 0 1
vn 0 0 1
vn 0 0 1
vn 0 0 1
vn 0 0 1
vn 0 0 1
vn 0 0 1
vn 0 0 1
vn 0 0 1
vn 0 0 1
vn 0 0 1
vn 0 0 1
vn 0 0 1
vn 0 0 1
vn 0 0 1
vn 0 0 1
vn 0 0 1
vn 0 0 1
vn 0 0 1
vn 0 0 1
vn 0 0 1
vn 0 0 1
vn 0 0 1
vn 0 0 1
vn 0 0 1
vn 0 0 1
vn 0 0 1
vn 0 0 1
vn 0 0 1
vn 0 0 1
vn 0 0 1
vn 0 0 1
vn 0 0 1
vn 0 0 1
vn 0 0 1
vn 0 0 1
vn 0 0 1
vn 0 0 1
vn 0 0 1
vn 0 0 1
vn 0 0 1
vn 0 0 1
vn 0 0 1
vn 0 0 1
vn 0 0 1
vn 0 0 1
vn 0 0 1
vn 0 0 1
vn 0 0 1
vn 0 0 1
vn 0 0 1
vn 0 0 1
vn 0 0 1
vn 0 0 1
vn 0 0 1
vn 0 0 1
vn 0 0 1
vn 0 0 1
vn 0 0 1
vn 0 0 1
vn 0 0 1
vn 0 0 1
vn 0 0 1
vn 0 0 1
vn 0 0 1
vn 0 0 1
vn 0 0 1
vn 0 0 1
vn 0 0 1
vn 0 0 1
vn 0 0 1
g FountainWater_0
f 3/3/3 2/2/2 1/1/1
f 1/1/1 4/4/4 3/3/3
f 4/4/4 5/5/5 3/3/3
f 4/4/4 6/6/6 5/5/5
f 6/6/6 7/7/7 5/5/5
f 6/6/6 8/8/8 7/7/7
f 6/6/6 9/9/9 8/8/8
f 9/9/9 10/10/10 8/8/8
f 9/9/9 11/11/11 10/10/10
f 11/11/11 12/12/12 10/10/10
f 11/11/11 13/13/13 12/12/12
f 13/13/13 14/14/14 12/12/12
f 13/13/13 15/15/15 14/14/14
f 15/15/15 16/16/16 14/14/14
f 15/15/15 17/17/17 16/16/16
f 17/17/17 18/18/18 16/16/16
f 18/18/18 19/19/19 16/16/16
f 18/18/18 20/20/20 19/19/19
f 20/20/20 21/21/21 19/19/19
f 20/20/20 22/22/22 21/21/21
f 22/22/22 23/23/23 21/21/21
f 22/22/22 24/24/24 23/23/23
f 24/24/24 25/25/25 23/23/23
f 24/24/24 26/26/26 25/25/25
f 26/26/26 27/27/27 25/25/25
f 26/26/26 28/28/28 27/27/27
f 28/28/28 29/29/29 27/27/27
f 28/28/28 30/30/30 29/29/29
f 30/30/30 31/31/31 29/29/29
f 30/30/30 32/32/32 31/31/31
f 35/35/35 34/34/34 33/33/33
f 36/36/36 35/35/35 33/33/33
f 33/33/33 34/34/34 37/37/37
f 38/38/38 35/35/35 36/36/36
f 34/34/34 39/39/39 37/37/37
f 40/40/40 38/38/38 36/36/36
f 37/37/37 39/39/39 41/41/41
f 42/42/42 38/38/38 40/40/40
f 39/39/39 43/43/43 41/41/41
f 44/44/44 42/42/42 40/40/40
f 41/41/41 43/43/43 45/45/45
f 46/46/46 42/42/42 44/44/44
f 43/43/43 47/47/47 45/45/45
f 48/48/48 46/46/46 44/44/44
f 45/45/45 47/47/47 49/49/49
f 50/50/50 46/46/46 48/48/48
f 47/47/47 51/51/51 49/49/49
f 52/52/52 50/50/50 48/48/48
f 49/49/49 51/51/51 53/53/53
f 54/54/54 50/50/50 52/52/52
f 51/51/51 55/55/55 53/53/53
f 56/56/56 54/54/54 52/52/52
f 53/53/53 55/55/55 57/57/57
f 58/58/58 54/54/54 56/56/56
f 55/55/55 59/59/59 57/57/57
f 60/60/60 58/58/58 56/56/56
f 57/57/57 59/59/59 61/61/61
f 62/62/62 58/58/58 60/60/60
f 59/59/59 63/63/63 61/61/61
f 64/64/64 62/62/62 60/60/60
f 61/61/61 63/63/63 65/65/65
f 66/66/66 62/62/62 64/64/64
f 63/63/63 67/67/67 65/65/65
f 68/68/68 66/66/66 64/64/64
f 65/65/65 67/67/67 69/69/69
f 70/70/70 66/66/66 68/68/68
f 67/67/67 71/71/71 69/69/69
f 72/72/72 70/70/70 68/68/68
f 69/69/69 71/71/71 73/73/73
f 74/74/74 70/70/70 72/72/72
f 71/71/71 75/75/75 73/73/73
f 76/76/76 74/74/74 72/72/72
f 73/73/73 75/75/75 77/77/77
f 78/78/78 74/74/74 76/76/76
f 75/75/75 79/79/79 77/77/77
f 80/80/80 78/78/78 76/76/76
f 77/77/77 79/79/79 81/81/81
f 82/82/82 78/78/78 80/80/80
f 79/79/79 83/83/83 81/81/81
f 84/84/84 82/82/82 80/80/80
f 81/81/81 83/83/83 85/85/85
f 86/86/86 82/82/82 84/84/84
f 83/83/83 87/87/87 85/85/85
f 88/88/88 86/86/86 84/84/84
f 85/85/85 87/87/87 89/89/89
f 90/90/90 86/86/86 88/88/88
f 87/87/87 91/91/91 89/89/89
f 92/92/92 90/90/90 88/88/88
f 89/89/89 91/91/91 93/93/93
f 94/94/94 90/90/90 92/92/92
f 91/91/91 95/95/95 93/93/93
f 96/96/96 94/94/94 92/92/92
f 93/93/93 95/95/95 96/96/96
f 95/95/95 94/94/94 96/96/96
