g FurnitureShopInteriorFake
v -6.728212 2.447404 0
v -6.728212 6.08356 0
v -1.677355 6.08356 0
v -1.677355 2.447404 0
v -6.728212 0.314219 0
v 0 6.08356 0
v -1.677354 0.314219 0
v 0 2.447404 0
v 0 0.314219 0
v -6.728212 -6.134118 0.591615
v -6.728212 0.314219 0.591615
v -1.677354 0.314219 0.591615
v -1.677354 -6.134118 0.591615
v 0 0.314219 0.591615
v 0 -6.134118 0.591615
v -1.677354 0.314219 0
v -6.728212 0.314219 0.591615
v -6.728212 0.314219 0
v -1.677354 0.314219 0.591615
v 0 0.314219 0
v 0 0.314219 0.591615
v 1.677354 0.314219 0.591615
v 1.677354 0.314219 0
v 6.728212 0.314219 0.591615
v 6.728212 0.314219 0
v -1.439044 0.025773 -0.347492
v -1.439044 0.851008 -0.347492
v -1.439044 0.851008 0.244123
v -1.439044 0.025773 0.244123
v 0 0.851008 -0.347492
v -1.439044 0.851008 0.244123
v -1.439044 0.851008 -0.347492
v 0 0.851008 0.244123
v 1.439044 0.851008 0.244123
v 1.439044 0.851008 -0.347492
v 0 0.025773 -0.347492
v -1.439044 0.025773 -0.347492
v -1.439044 0.025773 0.244123
v 0 0.025773 0.244123
v 1.439044 0.025773 0.244123
v 1.439044 0.025773 -0.347492
v -1.439044 0.025773 0.244123
v -1.439044 0.851008 0.244123
v 0 0.851008 0.244123
v 0 0.025773 0.244123
v 1.439044 0.025773 0.244123
v 1.439044 0.851008 0.244123
v 6.728212 2.447404 0
v 1.677355 6.08356 0
v 6.728212 6.08356 0
v 1.677355 2.447404 0
v 6.728212 0.314219 0
v 0 6.08356 0
v 1.677354 0.314219 0
v 0 2.447404 0
v 0 0.314219 0
v 6.728212 -6.134118 0.591615
v 1.677354 0.314219 0.591615
v 6.728212 0.314219 0.591615
v 1.677354 -6.134118 0.591615
v 0 0.314219 0.591615
v 0 -6.134118 0.591615
v 1.439044 0.025773 -0.347492
v 1.439044 0.025773 0.244123
v 1.439044 0.851008 0.244123
v 1.439044 0.851008 -0.347492
v 0 -6.134118 2.667894
v 0 -6.134118 5.335789
v -1.677354 -6.134118 5.335789
v -1.677354 -6.134118 2.667894
v 0 -6.134118 0
v -6.728212 -6.134118 5.335789
v -1.677354 -6.134118 0
v -6.728212 -6.134118 2.667894
v -6.728212 -6.134118 0
v -6.728212 -6.134118 2.667894
v -6.728212 -6.134118 5.335789
v -6.728212 0.314219 5.335789
v -6.728212 0.314219 2.667894
v -6.728212 -6.134118 0
v -6.728212 2.447404 5.335789
v -6.728212 0.314219 0
v -6.728212 2.447404 2.667894
v -6.728212 6.08356 5.335789
v -6.728212 2.447404 0
v -6.728212 6.08356 2.667894
v -6.728212 6.08356 0
v -1.270946 6.08356 3.131493
v 0 6.08356 5.335789
v 0 6.08356 3.131493
v -1.677355 6.08356 5.335789
v -1.270946 6.08356 2.66789
v -1.677355 6.08356 2.66789
v -1.270946 6.08356 -0.067329
v -1.677355 6.08356 0
v -6.728212 6.08356 2.667894
v -6.728212 6.08356 5.335789
v -6.728212 6.08356 0
v -6.728212 -6.134118 0
v -6.728212 -6.134118 0.591615
v -1.677354 -6.134118 0.591615
v -1.677354 -6.134118 0
v 0 -6.134118 0.591615
v 0 -6.134118 0
v 1.677354 -6.134118 0
v 1.677354 -6.134118 0.591615
v 6.728212 -6.134118 0
v 6.728212 -6.134118 0.591615
v -6.728212 0.314219 0
v -6.728212 0.314219 0.591615
v -6.728212 -6.134118 0.591615
v -6.728212 -6.134118 0
v -1.357375 0.576728 0.007817
v -6.757522 0.576728 0.007817
v -6.757522 0.265229 0.007817
v -1.357375 0.265229 0.007817
v -1.357375 0.576728 0.007817
v -1.357375 0.265229 0.007817
v -1.357375 0.265229 0.6295
v -1.357375 0.576728 0.6295
v -6.757522 0.265229 0.007817
v -6.757522 0.265229 0.6295
v -1.357375 0.265229 0.6295
v -1.357375 0.265229 0.007817
v -6.757522 0.576728 0.007817
v -1.357375 0.576728 0.007817
v -1.357375 0.576728 0.6295
v -6.757522 0.576728 0.6295
v -6.757522 0.576728 0.6295
v -6.757522 0.265229 0.6295
v -6.757522 0.265229 0.007817
v -6.757522 0.576728 0.007817
v -1.666614 1.156231 -0.049987
v -1.666614 0.386512 -0.056828
v -1.410379 0.386512 -0.056828
v -1.410379 1.156231 -0.049987
v -1.666614 1.156231 -0.049987
v -1.410379 1.156231 -0.049987
v -1.410379 1.156231 0.229231
v -1.666614 1.156231 0.229231
v -1.666614 0.386512 0.601871
v -1.666614 1.156231 0.229231
v -1.410379 1.156231 0.229231
v -1.410379 0.386512 0.601871
v -1.410379 0.386512 -0.056828
v -1.410379 0.386512 0.601871
v -1.410379 1.156231 0.229231
v -1.410379 1.156231 -0.049987
v -1.666614 0.386512 -0.056828
v -1.666614 1.156231 -0.049987
v -1.666614 1.156231 0.229231
v -1.666614 0.386512 0.601871
v -1.666614 0.386512 0.601871
v -1.410379 0.386512 0.601871
v -1.410379 0.386512 -0.056828
v -1.666614 0.386512 -0.056828
v -6.757522 0.576728 0.6295
v -1.357375 0.576728 0.6295
v -1.357375 0.265229 0.6295
v -6.757522 0.265229 0.6295
v 0 -6.134118 2.667894
v 1.677354 -6.134118 5.335789
v 0 -6.134118 5.335789
v 1.677354 -6.134118 2.667894
v 0 -6.134118 0
v 6.728212 -6.134118 5.335789
v 1.677354 -6.134118 0
v 6.728212 -6.134118 2.667894
v 6.728212 -6.134118 0
v 6.728212 -6.134118 2.667894
v 6.728212 0.314219 5.335789
v 6.728212 -6.134118 5.335789
v 6.728212 0.314219 2.667894
v 6.728212 -6.134118 0
v 6.728212 2.447404 5.335789
v 6.728212 0.314219 0
v 6.728212 2.447404 2.667894
v 6.728212 6.08356 5.335789
v 6.728212 2.447404 0
v 6.728212 6.08356 2.667894
v 6.728212 6.08356 0
v 1.270946 6.08356 3.131493
v 0 6.08356 3.131493
v 0 6.08356 5.335789
v 1.677355 6.08356 5.335789
v 1.270946 6.08356 2.66789
v 1.677355 6.08356 2.66789
v 1.270946 6.08356 -0.067329
v 1.677355 6.08356 0
v 6.728212 6.08356 2.667894
v 6.728212 6.08356 5.335789
v 6.728212 6.08356 0
v 6.728212 0.314219 0
v 6.728212 -6.134118 0
v 6.728212 -6.134118 0.591615
v 6.728212 0.314219 0.591615
v 1.357375 0.576728 0.007817
v 1.357375 0.265229 0.007817
v 6.757522 0.265229 0.007817
v 6.757522 0.576728 0.007817
v 1.357375 0.576728 0.007817
v 1.357375 0.576728 0.6295
v 1.357375 0.265229 0.6295
v 1.357375 0.265229 0.007817
v 6.757522 0.265229 0.007817
v 1.357375 0.265229 0.007817
v 1.357375 0.265229 0.6295
v 6.757522 0.265229 0.6295
v 6.757522 0.576728 0.007817
v 6.757522 0.576728 0.6295
v 1.357375 0.576728 0.6295
v 1.357375 0.576728 0.007817
v 6.757522 0.576728 0.6295
v 6.757522 0.576728 0.007817
v 6.757522 0.265229 0.007817
v 6.757522 0.265229 0.6295
v 1.666614 1.156231 -0.049987
v 1.410379 1.156231 -0.049987
v 1.410379 0.386512 -0.056828
v 1.666614 0.386512 -0.056828
v 1.666614 1.156231 -0.049987
v 1.666614 1.156231 0.229231
v 1.410379 1.156231 0.229231
v 1.410379 1.156231 -0.049987
v 1.666614 0.386512 0.601871
v 1.410379 0.386512 0.601871
v 1.410379 1.156231 0.229231
v 1.666614 1.156231 0.229231
v 1.410379 0.386512 -0.056828
v 1.410379 1.156231 -0.049987
v 1.410379 1.156231 0.229231
v 1.410379 0.386512 0.601871
v 1.666614 0.386512 -0.056828
v 1.666614 0.386512 0.601871
v 1.666614 1.156231 0.229231
v 1.666614 1.156231 -0.049987
v 1.666614 0.386512 0.601871
v 1.666614 0.386512 -0.056828
v 1.410379 0.386512 -0.056828
v 1.410379 0.386512 0.601871
v 6.757522 0.576728 0.6295
v 6.757522 0.265229 0.6295
v 1.357375 0.265229 0.6295
v 1.357375 0.576728 0.6295
vt 0.534869 0.293931
vt 0.677589 0.293931
vt 0.677589 0.095683
vt 0.534869 0.095683
vt 0.45114 0.293931
vt 0.677589 0.029846
vt 0.45114 0.095683
vt 0.534869 0.029846
vt 0.45114 0.029846
vt 0.198041 0.293931
vt 0.45114 0.293931
vt 0.45114 0.095683
vt 0.198041 0.095683
vt 0.45114 0.029846
vt 0.198041 0.029846
vt 0.45114 0.095683
vt 0.45114 0.293931
vt 0.45114 0.293931
vt 0.45114 0.095683
vt 0.45114 0.029846
vt 0.45114 0.029846
vt 0.45114 0.095683
vt 0.45114 0.095683
vt 0.45114 0.293931
vt 0.45114 0.293931
vt 0.45114 0.095683
vt 0.45114 0.095683
vt 0.45114 0.095683
vt 0.45114 0.095683
vt 0.45114 0.029846
vt 0.45114 0.095683
vt 0.45114 0.095683
vt 0.45114 0.029846
vt 0.45114 0.095683
vt 0.45114 0.095683
vt 0.45114 0.029846
vt 0.45114 0.095683
vt 0.45114 0.095683
vt 0.45114 0.029846
vt 0.45114 0.095683
vt 0.45114 0.095683
vt 0.45114 0.095683
vt 0.45114 0.095683
vt 0.45114 0.029846
vt 0.45114 0.029846
vt 0.45114 0.095683
vt 0.45114 0.095683
vt 0.534869 0.293931
vt 0.677589 0.095683
vt 0.677589 0.293931
vt 0.534869 0.095683
vt 0.45114 0.293931
vt 0.677589 0.029846
vt 0.45114 0.095683
vt 0.534869 0.029846
vt 0.45114 0.029846
vt 0.198041 0.293931
vt 0.45114 0.095683
vt 0.45114 0.293931
vt 0.198041 0.095683
vt 0.45114 0.029846
vt 0.198041 0.029846
vt 0.45114 0.095683
vt 0.45114 0.095683
vt 0.45114 0.095683
vt 0.45114 0.095683
vt 0.80642 0.759264
vt 0.80642 0.527503
vt 0.605633 0.527503
vt 0.605633 0.759264
vt 0.80642 0.991025
vt 0.001023 0.527503
vt 0.605633 0.991025
vt 0.001023 0.759264
vt 0.001023 0.991025
vt 6E-05 0.762674
vt 6E-05 0.994075
vt 0.527784 0.994075
vt 0.527784 0.762674
vt 6E-05 0.531273
vt 0.702362 0.994075
vt 0.527784 0.531273
vt 0.702362 0.762674
vt 0.99994 0.994075
vt 0.702362 0.531273
vt 0.99994 0.762674
vt 0.99994 0.531273
vt 0.581664 0.805157
vt 0.716928 0.995816
vt 0.716928 0.805157
vt 0.538411 0.995816
vt 0.581664 0.765058
vt 0.538411 0.765058
vt 0.581664 0.528476
vt 0.538411 0.5343
vt 0.000862 0.765058
vt 0.000862 0.995816
vt 0.000862 0.5343
vt 0.001023 0.991025
vt 0.001023 0.991025
vt 0.605633 0.991025
vt 0.605633 0.991025
vt 0.80642 0.991025
vt 0.80642 0.991025
vt 0.605633 0.991025
vt 0.605633 0.991025
vt 0.001023 0.991025
vt 0.001023 0.991025
vt 0.527784 0.531273
vt 0.527784 0.531273
vt 6E-05 0.531273
vt 6E-05 0.531273
vt 0 0.460822
vt 0 0.460822
vt 0 0.460822
vt 0 0.460822
vt 0 0.460822
vt 0 0.460822
vt 0 0.519094
vt 0 0.519094
vt 0 0.460822
vt 0 0.519094
vt 0 0.519094
vt 0 0.460822
vt 3.4E-05 0.521415
vt 0.999966 0.521415
vt 0.999966 0.457983
vt 3.4E-05 0.457983
vt 0 0.519094
vt 0 0.519094
vt 0 0.460822
vt 0 0.460822
vt 0 0.460822
vt 0 0.460822
vt 0 0.460822
vt 0 0.460822
vt 0.280716 0.461281
vt 0.250099 0.461281
vt 0.250099 0.518966
vt 0.280716 0.518966
vt 4E-05 0.517223
vt 0.99996 0.517223
vt 0.99996 0.459344
vt 4E-05 0.459344
vt 0 0.460822
vt 0 0.519094
vt 0 0.519094
vt 0 0.460822
vt 0.088868 0.460753
vt 0.003245 0.460753
vt 0.003245 0.487737
vt 0.088868 0.519649
vt 0 0.519094
vt 0 0.519094
vt 0 0.460822
vt 0 0.460822
vt 1.7E-05 0.51543
vt 0.999983 0.515426
vt 0.999983 0.460211
vt 1.7E-05 0.460211
vt 0.80642 0.759264
vt 0.605633 0.527503
vt 0.80642 0.527503
vt 0.605633 0.759264
vt 0.80642 0.991025
vt 0.001023 0.527503
vt 0.605633 0.991025
vt 0.001023 0.759264
vt 0.001023 0.991025
vt 6E-05 0.762674
vt 0.527784 0.994075
vt 6E-05 0.994075
vt 0.527784 0.762674
vt 6E-05 0.531273
vt 0.702362 0.994075
vt 0.527784 0.531273
vt 0.702362 0.762674
vt 0.99994 0.994075
vt 0.702362 0.531273
vt 0.99994 0.762674
vt 0.99994 0.531273
vt 0.581664 0.805157
vt 0.716928 0.805157
vt 0.716928 0.995816
vt 0.538411 0.995816
vt 0.581664 0.765058
vt 0.538411 0.765058
vt 0.581664 0.528476
vt 0.538411 0.5343
vt 0.000862 0.765058
vt 0.000862 0.995816
vt 0.000862 0.5343
vt 0.527784 0.531273
vt 6E-05 0.531273
vt 6E-05 0.531273
vt 0.527784 0.531273
vt 0 0.460822
vt 0 0.460822
vt 0 0.460822
vt 0 0.460822
vt 0 0.460822
vt 0 0.519094
vt 0 0.519094
vt 0 0.460822
vt 0 0.460822
vt 0 0.460822
vt 0 0.519094
vt 0 0.519094
vt 3.4E-05 0.521415
vt 3.4E-05 0.457983
vt 0.999966 0.457983
vt 0.999966 0.521415
vt 0 0.519094
vt 0 0.460822
vt 0 0.460822
vt 0 0.519094
vt 0 0.460822
vt 0 0.460822
vt 0 0.460822
vt 0 0.460822
vt 0.280716 0.461281
vt 0.280716 0.518966
vt 0.250099 0.518966
vt 0.250099 0.461281
vt 4E-05 0.517223
vt 4E-05 0.459344
vt 0.99996 0.459344
vt 0.99996 0.517223
vt 0 0.460822
vt 0 0.460822
vt 0 0.519094
vt 0 0.519094
vt 0.088868 0.460753
vt 0.088868 0.519649
vt 0.003245 0.487737
vt 0.003245 0.460753
vt 0 0.519094
vt 0 0.460822
vt 0 0.460822
vt 0 0.519094
vt 1.7E-05 0.51543
vt 1.7E-05 0.460211
vt 0.999983 0.460211
vt 0.999983 0.515426
vn 0 0 1
vn 0 0 1
vn 0 0 1
vn 0 0 1
vn 0 0 1
vn 0 0 1
vn 0 0 1
vn 0 0 1
vn 0 0 1
vn 0 0 1
vn 0 0 1
vn 0 0 1
vn 0 0 1
vn 0 0 1
vn 0 0 1
vn 0 1 0
vn 0 1 0
vn 0 1 0
vn 0 1 0
vn 0 1 0
vn 0 1 0
vn 0 1 0
vn 0 1 0
vn 0 1 0
vn 0 1 0
vn -1 0 0
vn -1 0 0
vn -1 0 0
vn -1 0 0
vn 0 1 0
vn 0 1 0
vn 0 1 0
vn 0 1 0
vn 0 1 0
vn 0 1 0
vn 0 -1 0
vn 0 -1 0
vn 0 -1 0
vn 0 -1 0
vn 0 -1 0
vn 0 -1 0
vn 0 0 1
vn 0 0 1
vn 0 0 1
vn 0 0 1
vn 0 0 1
vn 0 0 1
vn 0 0 1
vn 0 0 1
vn 0 0 1
vn 0 0 1
vn 0 0 1
vn 0 0 1
vn 0 0 1
vn 0 0 1
vn 0 0 1
vn 0 0 1
vn 0 0 1
vn 0 0 1
vn 0 0 1
vn 0 0 1
vn 0 0 1
vn 1 0 0
vn 1 0 0
vn 1 0 0
vn 1 0 0
vn 0 1 0
vn 0 1 0
vn 0 1 0
vn 0 1 0
vn 0 1 0
vn 0 1 0
vn 0 1 0
vn 0 1 0
vn 0 1 0
vn 1 0 0
vn 1 0 0
vn 1 0 0
vn 1 0 0
vn 1 0 0
vn 1 0 0
vn 1 0 0
vn 1 0 0
vn 1 0 0
vn 1 0 0
vn 1 0 0
vn 1 0 0
vn 0 -1 0
vn 0 -1 0
vn 0 -1 0
vn 0 -1 0
vn 0 -1 0
vn 0 -1 0
vn 0 -1 0
vn 0 -1 0
vn 0 -1 0
vn 0 -1 0
vn 0 -1 0
vn 0 -1 0
vn 0 -1 0
vn 0 -1 0
vn 0 -1 0
vn 0 -1 0
vn 0 -1 0
vn 0 -1 0
vn 0 -1 0
vn 0 -1 0
vn 0 -1 0
vn -1 0 0
vn -1 0 0
vn -1 0 0
vn -1 0 0
vn 0 0 -1
vn 0 0 -1
vn 0 0 -1
vn 0 0 -1
vn 1 0 0
vn 1 0 0
vn 1 0 0
vn 1 0 0
vn 0 -1 0
vn 0 -1 0
vn 0 -1 0
vn 0 -1 0
vn 0 1 0
vn 0 1 0
vn 0 1 0
vn 0 1 0
vn -1 0 0
vn -1 0 0
vn -1 0 0
vn -1 0 0
vn 0 0.008887309 -0.9999605
vn 0 0.008887309 -0.9999605
vn 0 0.008887309 -0.9999605
vn 0 0.008887309 -0.9999605
vn 0 1 0
vn 0 1 0
vn 0 0.6462641 0.7631138
vn 0 0.6462641 0.7631138
vn 0 0.435746 0.9000697
vn 0 0.6462641 0.7631138
vn 0 0.6462641 0.7631138
vn 0 0.435746 0.9000697
vn 1 0 0
vn 1 0 0
vn 1 0 0
vn 1 0 0
vn -1 0 0
vn -1 0 0
vn -1 0 0
vn -1 0 0
vn 0 -1 0
vn 0 -1 0
vn 0 -1 0
vn 0 -1 0
vn 0 0 1
vn 0 0 1
vn 0 0 1
vn 0 0 1
vn 0 1 0
vn 0 1 0
vn 0 1 0
vn 0 1 0
vn 0 1 0
vn 0 1 0
vn 0 1 0
vn 0 1 0
vn 0 1 0
vn -1 0 0
vn -1 0 0
vn -1 0 0
vn -1 0 0
vn -1 0 0
vn -1 0 0
vn -1 0 0
vn -1 0 0
vn -1 0 0
vn -1 0 0
vn -1 0 0
vn -1 0 0
vn 0 -1 0
vn 0 -1 0
vn 0 -1 0
vn 0 -1 0
vn 0 -1 0
vn 0 -1 0
vn 0 -1 0
vn 0 -1 0
vn 0 -1 0
vn 0 -1 0
vn 0 -1 0
vn 1 0 0
vn 1 0 0
vn 1 0 0
vn 1 0 0
vn 0 0 -1
vn 0 0 -1
vn 0 0 -1
vn 0 0 -1
vn -1 0 0
vn -1 0 0
vn -1 0 0
vn -1 0 0
vn 0 -1 0
vn 0 -1 0
vn 0 -1 0
vn 0 -1 0
vn 0 1 0
vn 0 1 0
vn 0 1 0
vn 0 1 0
vn 1 0 0
vn 1 0 0
vn 1 0 0
vn 1 0 0
vn 0 0.008887309 -0.9999605
vn 0 0.008887309 -0.9999605
vn 0 0.008887309 -0.9999605
vn 0 0.008887309 -0.9999605
vn 0 1 0
vn 0 0.6462641 0.7631138
vn 0 0.6462641 0.7631138
vn 0 1 0
vn 0 0.435746 0.9000697
vn 0 0.435746 0.9000697
vn 0 0.6462641 0.7631138
vn 0 0.6462641 0.7631138
vn -1 0 0
vn -1 0 0
vn -1 0 0
vn -1 0 0
vn 1 0 0
vn 1 0 0
vn 1 0 0
vn 1 0 0
vn 0 -1 0
vn 0 -1 0
vn 0 -1 0
vn 0 -1 0
vn 0 0 1
vn 0 0 1
vn 0 0 1
vn 0 0 1
g FurnitureShopInteriorFake_0
f 3/3/3 2/2/2 1/1/1
f 4/4/4 3/3/3 1/1/1
f 4/4/4 1/1/1 5/5/5
f 6/6/6 3/3/3 4/4/4
f 7/7/7 4/4/4 5/5/5
f 8/8/8 6/6/6 4/4/4
f 8/8/8 4/4/4 7/7/7
f 9/9/9 8/8/8 7/7/7
f 12/12/12 11/11/11 10/10/10
f 13/13/13 12/12/12 10/10/10
f 14/14/14 12/12/12 13/13/13
f 15/15/15 14/14/14 13/13/13
f 18/18/18 17/17/17 16/16/16
f 17/17/17 19/19/19 16/16/16
f 16/16/16 19/19/19 20/20/20
f 19/19/19 21/21/21 20/20/20
f 21/21/21 22/22/22 20/20/20
f 22/22/22 23/23/23 20/20/20
f 22/22/22 24/24/24 23/23/23
f 24/24/24 25/25/25 23/23/23
f 28/28/28 27/27/27 26/26/26
f 29/29/29 28/28/28 26/26/26
f 32/32/32 31/31/31 30/30/30
f 31/31/31 33/33/33 30/30/30
f 33/33/33 34/34/34 30/30/30
f 34/34/34 35/35/35 30/30/30
f 38/38/38 37/37/37 36/36/36
f 39/39/39 38/38/38 36/36/36
f 40/40/40 39/39/39 36/36/36
f 41/41/41 40/40/40 36/36/36
f 44/44/44 43/43/43 42/42/42
f 45/45/45 44/44/44 42/42/42
f 44/44/44 45/45/45 46/46/46
f 47/47/47 44/44/44 46/46/46
f 50/50/50 49/49/49 48/48/48
f 49/49/49 51/51/51 48/48/48
f 48/48/48 51/51/51 52/52/52
f 49/49/49 53/53/53 51/51/51
f 51/51/51 54/54/54 52/52/52
f 53/53/53 55/55/55 51/51/51
f 51/51/51 55/55/55 54/54/54
f 55/55/55 56/56/56 54/54/54
f 59/59/59 58/58/58 57/57/57
f 58/58/58 60/60/60 57/57/57
f 58/58/58 61/61/61 60/60/60
f 61/61/61 62/62/62 60/60/60
f 65/65/65 64/64/64 63/63/63
f 66/66/66 65/65/65 63/63/63
g FurnitureShopInteriorFake_1
f 69/69/69 68/68/68 67/67/67
f 70/70/70 69/69/69 67/67/67
f 70/70/70 67/67/67 71/71/71
f 72/72/72 69/69/69 70/70/70
f 73/73/73 70/70/70 71/71/71
f 74/74/74 72/72/72 70/70/70
f 74/74/74 70/70/70 73/73/73
f 75/75/75 74/74/74 73/73/73
f 78/78/78 77/77/77 76/76/76
f 79/79/79 78/78/78 76/76/76
f 79/79/79 76/76/76 80/80/80
f 81/81/81 78/78/78 79/79/79
f 82/82/82 79/79/79 80/80/80
f 83/83/83 81/81/81 79/79/79
f 83/83/83 79/79/79 82/82/82
f 84/84/84 81/81/81 83/83/83
f 85/85/85 83/83/83 82/82/82
f 86/86/86 84/84/84 83/83/83
f 86/86/86 83/83/83 85/85/85
f 87/87/87 86/86/86 85/85/85
f 90/90/90 89/89/89 88/88/88
f 89/89/89 91/91/91 88/88/88
f 88/88/88 91/91/91 92/92/92
f 91/91/91 93/93/93 92/92/92
f 92/92/92 93/93/93 94/94/94
f 93/93/93 95/95/95 94/94/94
f 93/93/93 91/91/91 96/96/96
f 93/93/93 96/96/96 95/95/95
f 91/91/91 97/97/97 96/96/96
f 96/96/96 98/98/98 95/95/95
f 101/101/101 100/100/100 99/99/99
f 102/102/102 101/101/101 99/99/99
f 103/103/103 101/101/101 102/102/102
f 104/104/104 103/103/103 102/102/102
f 103/103/103 104/104/104 105/105/105
f 106/106/106 103/103/103 105/105/105
f 106/106/106 105/105/105 107/107/107
f 108/108/108 106/106/106 107/107/107
f 111/111/111 110/110/110 109/109/109
f 112/112/112 111/111/111 109/109/109
f 115/115/115 114/114/114 113/113/113
f 116/116/116 115/115/115 113/113/113
f 119/119/119 118/118/118 117/117/117
f 120/120/120 119/119/119 117/117/117
f 123/123/123 122/122/122 121/121/121
f 124/124/124 123/123/123 121/121/121
f 127/127/127 126/126/126 125/125/125
f 128/128/128 127/127/127 125/125/125
f 131/131/131 130/130/130 129/129/129
f 132/132/132 131/131/131 129/129/129
f 135/135/135 134/134/134 133/133/133
f 136/136/136 135/135/135 133/133/133
f 139/139/139 138/138/138 137/137/137
f 140/140/140 139/139/139 137/137/137
f 143/143/143 142/142/142 141/141/141
f 144/144/144 143/143/143 141/141/141
f 147/147/147 146/146/146 145/145/145
f 148/148/148 147/147/147 145/145/145
f 151/151/151 150/150/150 149/149/149
f 152/152/152 151/151/151 149/149/149
f 155/155/155 154/154/154 153/153/153
f 156/156/156 155/155/155 153/153/153
f 159/159/159 158/158/158 157/157/157
f 160/160/160 159/159/159 157/157/157
f 163/163/163 162/162/162 161/161/161
f 162/162/162 164/164/164 161/161/161
f 161/161/161 164/164/164 165/165/165
f 162/162/162 166/166/166 164/164/164
f 164/164/164 167/167/167 165/165/165
f 166/166/166 168/168/168 164/164/164
f 164/164/164 168/168/168 167/167/167
f 168/168/168 169/169/169 167/167/167
f 172/172/172 171/171/171 170/170/170
f 171/171/171 173/173/173 170/170/170
f 170/170/170 173/173/173 174/174/174
f 171/171/171 175/175/175 173/173/173
f 173/173/173 176/176/176 174/174/174
f 175/175/175 177/177/177 173/173/173
f 173/173/173 177/177/177 176/176/176
f 175/175/175 178/178/178 177/177/177
f 177/177/177 179/179/179 176/176/176
f 178/178/178 180/180/180 177/177/177
f 177/177/177 180/180/180 179/179/179
f 180/180/180 181/181/181 179/179/179
f 184/184/184 183/183/183 182/182/182
f 185/185/185 184/184/184 182/182/182
f 185/185/185 182/182/182 186/186/186
f 187/187/187 185/185/185 186/186/186
f 187/187/187 186/186/186 188/188/188
f 189/189/189 187/187/187 188/188/188
f 185/185/185 187/187/187 190/190/190
f 190/190/190 187/187/187 189/189/189
f 191/191/191 185/185/185 190/190/190
f 192/192/192 190/190/190 189/189/189
f 195/195/195 194/194/194 193/193/193
f 196/196/196 195/195/195 193/193/193
f 199/199/199 198/198/198 197/197/197
f 200/200/200 199/199/199 197/197/197
f 203/203/203 202/202/202 201/201/201
f 204/204/204 203/203/203 201/201/201
f 207/207/207 206/206/206 205/205/205
f 208/208/208 207/207/207 205/205/205
f 211/211/211 210/210/210 209/209/209
f 212/212/212 211/211/211 209/209/209
f 215/215/215 214/214/214 213/213/213
f 216/216/216 215/215/215 213/213/213
f 219/219/219 218/218/218 217/217/217
f 220/220/220 219/219/219 217/217/217
f 223/223/223 222/222/222 221/221/221
f 224/224/224 223/223/223 221/221/221
f 227/227/227 226/226/226 225/225/225
f 228/228/228 227/227/227 225/225/225
f 231/231/231 230/230/230 229/229/229
f 232/232/232 231/231/231 229/229/229
f 235/235/235 234/234/234 233/233/233
f 236/236/236 235/235/235 233/233/233
f 239/239/239 238/238/238 237/237/237
f 240/240/240 239/239/239 237/237/237
f 243/243/243 242/242/242 241/241/241
f 244/244/244 243/243/243 241/241/241
