g GliderWings
v 0 0.936368 0.008796
v 0 -0.60213 0.008796
v -1.19758 -0.60213 0.858506
v -1.19758 0.936368 0.858506
v 0 0.936368 0.008796
v -1.19758 0.936368 0.858506
v -1.19758 -0.60213 0.858506
v 0 -0.60213 0.008796
v 0 0.936368 0.008796
v 1.19758 0.936368 0.858506
v 1.19758 -0.60213 0.858506
v 0 -0.60213 0.008796
v 0 0.936368 0.008796
v 0 -0.60213 0.008796
v 1.19758 -0.60213 0.858506
v 1.19758 0.936368 0.858506
vt 0.488987 0.020415
vt 0.488987 1.002203
vt 1.253302 1.002203
vt 1.253302 0.020415
vt 0.488987 0.020415
vt 1.253302 0.020415
vt 1.253302 1.002203
vt 0.488987 1.002203
vt 0.488987 0.020415
vt 1.253302 0.020415
vt 1.253302 1.002203
vt 0.488987 1.002203
vt 0.488987 0.020415
vt 0.488987 1.002203
vt 1.253302 1.002203
vt 1.253302 0.020415
vn 0.5786631 0 0.8155667
vn 0.5786631 0 0.8155667
vn 0.5786631 0 0.8155667
vn 0.5786631 0 0.8155667
vn -0.5786631 0 -0.8155667
vn -0.5786631 0 -0.8155667
vn -0.5786631 0 -0.8155667
vn -0.5786631 0 -0.8155667
vn -0.5786631 0 0.8155667
vn -0.5786631 0 0.8155667
vn -0.5786631 0 0.8155667
vn -0.5786631 0 0.8155667
vn 0.5786631 0 -0.8155667
vn 0.5786631 0 -0.8155667
vn 0.5786631 0 -0.8155667
vn 0.5786631 0 -0.8155667
g GliderWings_0
f 3/3/3 2/2/2 1/1/1
f 4/4/4 3/3/3 1/1/1
f 7/7/7 6/6/6 5/5/5
f 8/8/8 7/7/7 5/5/5
f 11/11/11 10/10/10 9/9/9
f 12/12/12 11/11/11 9/9/9
f 15/15/15 14/14/14 13/13/13
f 16/16/16 15/15/15 13/13/13
