g GrassFlower
v 1.790575 -0.362697 0.095738
v 2.155649 0.125628 0.033108
v 2.155649 -0.362697 0.033108
v 1.790575 0.125628 0.095738
v 1.425501 -0.362697 0.078657
v 1.425501 0.125628 0.078657
v 1.060427 -0.362697 0.021721
v 1.060427 0.125628 0.021721
v 0.87789 -0.362697 -0.009594
v 0.87789 0.125628 -0.009594
v 0.605617 -0.372028 -0.017423
v 0.605617 0.116296 -0.017423
v 0.333343 -0.35011 -0.025252
v 0.333343 0.138214 -0.025252
v -0.211204 -0.226203 -0.040909
v -0.211204 0.262122 -0.040909
v 1.790575 -0.232368 -0.197929
v 2.155649 -0.053748 0.286541
v 2.155649 -0.174973 -0.213477
v 1.790575 -0.111144 0.302089
v 1.425501 -0.216715 -0.20217
v 1.425501 -0.095491 0.297848
v 1.060427 -0.164537 -0.216304
v 1.060427 -0.043313 0.283714
v 0.87789 -0.135839 -0.224077
v 0.87789 -0.014615 0.275941
v 0.605617 -0.137996 -0.247423
v 0.605617 -0.016771 0.252595
v 0.333343 -0.108903 -0.249367
v 0.333343 0.012321 0.250651
v -0.211204 0.029353 -0.253254
v -0.211204 0.150577 0.246764
v 1.790575 -0.362697 0.095738
v 2.155649 -0.362697 0.033108
v 2.155649 0.125628 0.033108
v 1.790575 0.125628 0.095738
v 1.425501 -0.362697 0.078657
v 1.425501 0.125628 0.078657
v 1.060427 -0.362697 0.021721
v 1.060427 0.125628 0.021721
v 0.87789 -0.362697 -0.009594
v 0.87789 0.125628 -0.009594
v 0.605617 -0.372028 -0.017423
v 0.605617 0.116296 -0.017423
v 0.333343 -0.35011 -0.025252
v 0.333343 0.138214 -0.025252
v -0.211204 -0.226203 -0.040909
v -0.211204 0.262122 -0.040909
v 1.790575 -0.232368 -0.197929
v 2.155649 -0.174973 -0.213477
v 2.155649 -0.053748 0.286541
v 1.790575 -0.111144 0.302089
v 1.425501 -0.216715 -0.20217
v 1.425501 -0.095491 0.297848
v 1.060427 -0.164537 -0.216304
v 1.060427 -0.043313 0.283714
v 0.87789 -0.135839 -0.224077
v 0.87789 -0.014615 0.275941
v 0.605617 -0.137996 -0.247423
v 0.605617 -0.016771 0.252595
v 0.333343 -0.108903 -0.249367
v 0.333343 0.012321 0.250651
v -0.211204 0.029353 -0.253254
v -0.211204 0.150577 0.246764
vt 0.619814 0.371595
vt 0.582503 0.395025
vt 0.619814 0.395025
vt 0.582503 0.371595
vt 0.619814 0.348166
vt 0.582503 0.348166
vt 0.619814 0.324736
vt 0.582503 0.324736
vt 0.619814 0.313021
vt 0.582503 0.313021
vt 0.619814 0.310093
vt 0.582503 0.310093
vt 0.619814 0.307164
vt 0.582503 0.307164
vt 0.619814 0.301307
vt 0.582503 0.301307
vt 0.619814 0.371595
vt 0.582503 0.395025
vt 0.619814 0.395025
vt 0.582503 0.371595
vt 0.619814 0.348166
vt 0.582503 0.348166
vt 0.619814 0.324736
vt 0.582503 0.324736
vt 0.619814 0.313021
vt 0.582503 0.313021
vt 0.619814 0.310093
vt 0.582503 0.310093
vt 0.619814 0.307164
vt 0.582503 0.307164
vt 0.619814 0.301307
vt 0.582503 0.301307
vt 0.619814 0.371595
vt 0.619814 0.395025
vt 0.582503 0.395025
vt 0.582503 0.371595
vt 0.619814 0.348166
vt 0.582503 0.348166
vt 0.619814 0.324736
vt 0.582503 0.324736
vt 0.619814 0.313021
vt 0.582503 0.313021
vt 0.619814 0.310093
vt 0.582503 0.310093
vt 0.619814 0.307164
vt 0.582503 0.307164
vt 0.619814 0.301307
vt 0.582503 0.301307
vt 0.619814 0.371595
vt 0.619814 0.395025
vt 0.582503 0.395025
vt 0.582503 0.371595
vt 0.619814 0.348166
vt 0.582503 0.348166
vt 0.619814 0.324736
vt 0.582503 0.324736
vt 0.619814 0.313021
vt 0.582503 0.313021
vt 0.619814 0.310093
vt 0.582503 0.310093
vt 0.619814 0.307164
vt 0.582503 0.307164
vt 0.619814 0.301307
vt 0.582503 0.301307
vn 0.0622622 0 0.9980598
vn 0.1690842 0 0.9856016
vn 0.1690842 0 0.9856016
vn 0.0622622 0 0.9980598
vn -0.1008557 0 0.9949011
vn -0.1008557 0 0.9949011
vn -0.1591035 0 0.9872618
vn -0.1591035 0 0.9872618
vn -0.08501948 0 0.9963793
vn -0.08649925 0 0.9962519
vn -0.0287423 0 0.9995869
vn -0.0287423 0 0.9995869
vn -0.02874114 0 0.9995869
vn -0.02874098 0 0.9995869
vn -0.02874046 0 0.9995869
vn -0.02874046 0 0.9995869
vn 0.05920728 -0.9701417 0.2352009
vn 0.1607081 -0.9592145 0.2325523
vn 0.1607081 -0.9592145 0.2325523
vn 0.05900358 -0.9701535 0.2352038
vn -0.09585489 -0.9673718 0.2345289
vn -0.09568918 -0.9673872 0.2345326
vn -0.1512146 -0.9606714 0.2329045
vn -0.1511815 -0.9606764 0.2329057
vn -0.07066814 -0.9694168 0.2350253
vn -0.07474476 -0.9691281 0.2349553
vn -0.0599302 -0.9700998 0.2351913
vn -0.05795901 -0.9702129 0.2352187
vn -0.1955153 -0.9530906 0.2310669
vn -0.1981612 -0.9525745 0.2309418
vn -0.2410974 -0.9431782 0.2286634
vn -0.2410974 -0.9431782 0.2286634
vn -0.0622622 0 -0.9980598
vn -0.1690842 0 -0.9856016
vn -0.1690842 0 -0.9856016
vn -0.0622622 0 -0.9980598
vn 0.1008557 0 -0.9949011
vn 0.1008557 0 -0.9949011
vn 0.1591035 0 -0.9872618
vn 0.1591035 0 -0.9872618
vn 0.08501948 0 -0.9963793
vn 0.08649925 0 -0.9962519
vn 0.0287423 0 -0.9995869
vn 0.0287423 0 -0.9995869
vn 0.02874114 0 -0.9995869
vn 0.02874098 0 -0.9995869
vn 0.02874046 0 -0.9995869
vn 0.02874046 0 -0.9995869
vn -0.05920729 0.9701417 -0.2352009
vn -0.1607081 0.9592145 -0.2325522
vn -0.1607081 0.9592145 -0.2325522
vn -0.05900359 0.9701535 -0.2352038
vn 0.09585489 0.9673718 -0.2345289
vn 0.09568918 0.9673872 -0.2345326
vn 0.1512146 0.9606714 -0.2329045
vn 0.1511815 0.9606764 -0.2329057
vn 0.07066814 0.9694168 -0.2350253
vn 0.07474476 0.9691281 -0.2349553
vn 0.05993021 0.9700998 -0.2351913
vn 0.05795901 0.9702129 -0.2352187
vn 0.1955153 0.9530906 -0.2310669
vn 0.1981612 0.9525745 -0.2309418
vn 0.2410974 0.9431782 -0.2286634
vn 0.2410974 0.9431782 -0.2286634
g GrassFlower_0
f 3/3/3 2/2/2 1/1/1
f 2/2/2 4/4/4 1/1/1
f 1/1/1 4/4/4 5/5/5
f 4/4/4 6/6/6 5/5/5
f 5/5/5 6/6/6 7/7/7
f 6/6/6 8/8/8 7/7/7
f 7/7/7 8/8/8 9/9/9
f 8/8/8 10/10/10 9/9/9
f 9/9/9 10/10/10 11/11/11
f 10/10/10 12/12/12 11/11/11
f 11/11/11 12/12/12 13/13/13
f 12/12/12 14/14/14 13/13/13
f 13/13/13 14/14/14 15/15/15
f 14/14/14 16/16/16 15/15/15
f 19/19/19 18/18/18 17/17/17
f 18/18/18 20/20/20 17/17/17
f 17/17/17 20/20/20 21/21/21
f 20/20/20 22/22/22 21/21/21
f 21/21/21 22/22/22 23/23/23
f 22/22/22 24/24/24 23/23/23
f 23/23/23 24/24/24 25/25/25
f 24/24/24 26/26/26 25/25/25
f 25/25/25 26/26/26 27/27/27
f 26/26/26 28/28/28 27/27/27
f 27/27/27 28/28/28 29/29/29
f 28/28/28 30/30/30 29/29/29
f 29/29/29 30/30/30 31/31/31
f 30/30/30 32/32/32 31/31/31
f 35/35/35 34/34/34 33/33/33
f 36/36/36 35/35/35 33/33/33
f 36/36/36 33/33/33 37/37/37
f 38/38/38 36/36/36 37/37/37
f 38/38/38 37/37/37 39/39/39
f 40/40/40 38/38/38 39/39/39
f 40/40/40 39/39/39 41/41/41
f 42/42/42 40/40/40 41/41/41
f 42/42/42 41/41/41 43/43/43
f 44/44/44 42/42/42 43/43/43
f 44/44/44 43/43/43 45/45/45
f 46/46/46 44/44/44 45/45/45
f 46/46/46 45/45/45 47/47/47
f 48/48/48 46/46/46 47/47/47
f 51/51/51 50/50/50 49/49/49
f 52/52/52 51/51/51 49/49/49
f 52/52/52 49/49/49 53/53/53
f 54/54/54 52/52/52 53/53/53
f 54/54/54 53/53/53 55/55/55
f 56/56/56 54/54/54 55/55/55
f 56/56/56 55/55/55 57/57/57
f 58/58/58 56/56/56 57/57/57
f 58/58/58 57/57/57 59/59/59
f 60/60/60 58/58/58 59/59/59
f 60/60/60 59/59/59 61/61/61
f 62/62/62 60/60/60 61/61/61
f 62/62/62 61/61/61 63/63/63
f 64/64/64 62/62/62 63/63/63
