g GrassYellowButterflyWings
v 0 0.161322 -0.004666
v 0 -0.116378 -0.004666
v -0.225777 -0.116378 0.170483
v -0.225777 0.161322 0.170483
v 0 0.161322 -0.004666
v -0.225777 0.161322 0.170483
v -0.225777 -0.116378 0.170483
v 0 -0.116378 -0.004666
v 0 0.161322 -0.004666
v 0.225777 0.161322 0.170483
v 0.225777 -0.116378 0.170483
v 0 -0.116378 -0.004666
v 0 0.161322 -0.004666
v 0 -0.116378 -0.004666
v 0.225777 -0.116378 0.170483
v 0.225777 0.161322 0.170483
vt 0.593362 0.380617
vt 0.593362 0.454501
vt 0.65088 0.454501
vt 0.65088 0.380617
vt 0.593362 0.380617
vt 0.65088 0.380617
vt 0.65088 0.454501
vt 0.593362 0.454501
vt 0.593362 0.380617
vt 0.65088 0.380617
vt 0.65088 0.454501
vt 0.593362 0.454501
vt 0.593362 0.380617
vt 0.593362 0.454501
vt 0.65088 0.454501
vt 0.65088 0.380617
vn 0.6129473 0 0.7901238
vn 0.6129473 0 0.7901238
vn 0.6129473 0 0.7901238
vn 0.6129473 0 0.7901238
vn -0.6129473 0 -0.7901238
vn -0.6129473 0 -0.7901238
vn -0.6129473 0 -0.7901238
vn -0.6129473 0 -0.7901238
vn -0.6129473 0 0.7901238
vn -0.6129473 0 0.7901238
vn -0.6129473 0 0.7901238
vn -0.6129473 0 0.7901238
vn 0.6129473 0 -0.7901238
vn 0.6129473 0 -0.7901238
vn 0.6129473 0 -0.7901238
vn 0.6129473 0 -0.7901238
g GrassYellowButterflyWings_0
f 3/3/3 2/2/2 1/1/1
f 4/4/4 3/3/3 1/1/1
f 7/7/7 6/6/6 5/5/5
f 8/8/8 7/7/7 5/5/5
f 11/11/11 10/10/10 9/9/9
f 12/12/12 11/11/11 9/9/9
f 15/15/15 14/14/14 13/13/13
f 16/16/16 15/15/15 13/13/13
