g GrassTree
v -0.155393 -0.017929 -0.01027
v -0.119382 -0.016297 -0.026063
v -0.084315 0.086339 -0.026363
v -0.085444 -0.118798 -0.025407
v -0.11143 -0.149108 -0.008026
v -0.129946 -0.175907 0.090486
v -0.111658 0.113312 -0.012004
v 0.019868 0.157547 -0.01192
v -0.130813 0.129371 0.084226
v 0.018412 0.121821 -0.025981
v 0.121248 0.088378 -0.025285
v -0.181239 -0.023271 0.087044
v -0.186752 -0.036033 0.347401
v -0.133522 -0.195683 0.351263
v -0.124524 -0.201654 0.60704
v 0.151462 0.114106 -0.010501
v 0.195403 -0.017683 -0.008232
v 0.175097 0.12933 0.086064
v 0.156644 -0.015763 -0.02464
v 0.123033 -0.120038 -0.02435
v 0.022123 0.18022 0.084096
v 0.025978 0.176786 0.34402
v -0.133594 0.123599 0.344202
v -0.123769 0.104575 0.600719
v -0.175251 -0.048526 0.603665
v -0.150052 -0.05306 0.688697
v -0.105323 -0.18704 0.690554
v -0.095916 -0.176212 0.71177
v 0.151646 -0.149533 -0.006473
v 0.020142 -0.193159 -0.006583
v 0.174452 -0.175831 0.092397
v 0.018849 -0.153881 -0.024721
v -0.085444 -0.118798 -0.025407
v -0.11143 -0.149108 -0.008026
v -0.129946 -0.175907 0.090486
v 0.022271 -0.226739 0.092491
v 0.026074 -0.248923 0.353435
v -0.133522 -0.195683 0.351263
v -0.124524 -0.201654 0.60704
v 0.225634 -0.023248 0.089543
v 0.238804 -0.036104 0.350054
v 0.185646 -0.195736 0.353253
v 0.182934 -0.202257 0.608286
v 0.029218 -0.25308 0.608709
v 0.02937 -0.232578 0.690775
v -0.105323 -0.18704 0.690554
v -0.095916 -0.176212 0.71177
v 0.185574 0.123546 0.346192
v 0.182026 0.105006 0.602056
v 0.233585 -0.04864 0.605386
v 0.208643 -0.053245 0.687626
v 0.164025 -0.188403 0.689689
v 0.149912 -0.177925 0.70868
v 0.027019 -0.218123 0.710478
v 0.022657 -0.24042 0.778664
v -0.116301 -0.193541 0.780652
v -0.152601 -0.222526 0.938642
v 0.029116 0.155915 0.600341
v 0.029222 0.126273 0.685548
v 0.163587 0.08196 0.68583
v 0.15021 0.069954 0.707208
v 0.191103 -0.054012 0.707437
v 0.208088 -0.055036 0.775483
v 0.161588 -0.194571 0.776475
v 0.180976 -0.222637 0.934501
v 0.014191 -0.27815 0.936641
v -0.00047 -0.309995 1.225718
v -0.190939 -0.246662 1.227183
v -0.157822 -0.203664 1.423577
v -0.013789 -0.260991 1.491686
v 0.137151 -0.203555 1.421853
v 0.189999 -0.246418 1.22418
v 0.25343 -0.056182 1.223555
v 0.191062 -0.056178 1.490705
v 0.137112 0.091199 1.421742
v 0.236548 -0.055898 0.933583
v 0.180934 0.110853 0.934055
v 0.189911 0.134057 1.223938
v -0.000469 0.19764 1.225427
v -0.013788 0.148638 1.491607
v -0.157782 0.091313 1.423487
v 0.161846 0.084535 0.77588
v 0.022551 0.130492 0.77786
v 0.014166 0.166401 0.936083
v -0.152597 0.110812 0.93825
v -0.190849 0.134314 1.226988
v -0.254368 -0.056173 1.22759
v -0.218639 -0.056175 1.492589
v -0.157822 -0.203664 1.423577
v -0.190939 -0.246662 1.227183
v -0.152601 -0.222526 0.938642
v -0.208191 -0.055851 0.939141
v -0.162881 -0.054892 0.781041
v -0.116301 -0.193541 0.780652
v -0.116718 0.083721 0.78004
v -0.09647 0.068567 0.7102
v -0.137235 -0.053796 0.711492
v 0.026849 0.110315 0.70845
v -0.105107 0.080874 0.686572
v -0.018228 -0.056176 1.580338
v -0.218639 -0.056175 1.492589
v -0.157782 0.091313 1.423487
v -0.013788 0.148638 1.491607
v -0.157822 -0.203664 1.423577
v 0.137112 0.091199 1.421742
v -0.013789 -0.260991 1.491686
v 0.191062 -0.056178 1.490705
v 0.137151 -0.203555 1.421853
vt 0.095201 0.083603
vt 0.066705 0.086545
vt 0.06509 0.23711
vt 0.068543 -0.063423
vt 0.097509 -0.07013
vt 0.161318 -0.070803
vt 0.093031 0.236886
vt 0.091137 0.389268
vt 0.15164 0.235888
vt 0.06392 0.388865
vt 0.064803 0.540467
vt 0.156178 0.082948
vt 0.282116 0.086865
vt 0.29481 -0.059405
vt 0.422479 -0.044976
vt 0.0912 0.54047
vt 0.094904 0.690215
vt 0.147379 0.537184
vt 0.069347 0.690569
vt 0.076098 0.837492
vt 0.148303 0.387207
vt 0.265369 0.38022
vt 0.271582 0.233339
vt 0.386471 0.231208
vt 0.402617 0.092317
vt 0.447285 0.096262
vt 0.468813 -0.036555
vt 0.479179 -0.033312
vt 0.100787 0.837509
vt 0.10739 0.98136
vt 0.155542 0.833398
vt 0.083605 0.979555
vt 0.09149 1.119187
vt 0.114351 1.123489
vt 0.17124 1.122638
vt 0.162914 0.978555
vt 0.281918 0.966528
vt 0.296183 1.111478
vt 0.417782 1.097013
vt 0.150078 0.686094
vt 0.264485 0.674441
vt 0.270427 0.821031
vt 0.381621 0.808293
vt 0.397427 0.952869
vt 0.442465 0.945166
vt 0.464637 1.086249
vt 0.476371 1.080171
vt 0.263122 0.527317
vt 0.374547 0.517529
vt 0.374915 0.662854
vt 0.418157 0.658932
vt 0.425302 0.803066
vt 0.438499 0.801897
vt 0.455079 0.941811
vt 0.473313 0.941198
vt 0.492608 1.079771
vt 0.541618 1.082132
vt 0.377757 0.373297
vt 0.420888 0.371429
vt 0.417771 0.51448
vt 0.430668 0.514967
vt 0.431345 0.658874
vt 0.451613 0.658879
vt 0.45824 0.801331
vt 0.513332 0.800791
vt 0.525763 0.941712
vt 0.641025 0.941742
vt 0.651675 1.084341
vt 0.792254 1.086475
vt 0.787692 0.941529
vt 0.783909 0.798322
vt 0.632581 0.799695
vt 0.628551 0.658755
vt 0.781681 0.658594
vt 0.782217 0.520954
vt 0.507751 0.658867
vt 0.507635 0.517049
vt 0.628773 0.518863
vt 0.633086 0.379961
vt 0.786721 0.384014
vt 0.793504 0.245125
vt 0.451112 0.515787
vt 0.454421 0.373999
vt 0.511602 0.376444
vt 0.520523 0.237179
vt 0.641171 0.240846
vt 0.652708 0.100315
vt 0.800876 0.101637
vt 0.808543 -0.04415
vt 0.665972 -0.040923
vt 0.552928 -0.037683
vt 0.535269 0.099381
vt 0.479288 0.099223
vt 0.498941 -0.034418
vt 0.463245 0.234737
vt 0.442118 0.233004
vt 0.458662 0.098598
vt 0.433523 0.372402
vt 0.429922 0.231462
vt 0.978501 0.994462
vt 0.978501 1.164122
vt 1.14816 1.164122
vt 1.14816 0.994462
vt 0.808841 1.164122
vt 1.14816 0.824802
vt 0.808841 0.994462
vt 0.978501 0.824802
vt 0.808841 0.824802
vn -0.909963 0 -0.4146894
vn -0.400058 -0.01057885 -0.9164287
vn -0.2593944 0.2482273 -0.9333261
vn -0.2734341 -0.2858645 -0.9184309
vn -0.6343267 -0.6296085 -0.4485785
vn -0.7053022 -0.6981022 -0.1232971
vn -0.6464186 0.648141 -0.402562
vn -0.003051945 0.9174117 -0.3979276
vn -0.7033385 0.7086724 -0.05566176
vn 0 0.3696707 -0.9291629
vn 0.2560035 0.2448454 -0.935154
vn -0.9967601 0.003232666 -0.08036711
vn -0.999933 -0.0001119156 0.01157374
vn -0.7062857 -0.7074082 -0.02709704
vn -0.7003363 -0.7105796 0.06786513
vn 0.6354337 0.643922 -0.426132
vn 0.8922702 0.0003350739 -0.4515016
vn 0.7005696 0.7093808 -0.07733768
vn 0.3896633 -0.009331636 -0.9209101
vn 0.2720039 -0.2802785 -0.9205747
vn -0.001599797 0.9988619 -0.04766798
vn -0.000260432 0.9989034 0.04681749
vn -0.7062243 0.7067277 0.04222661
vn -0.7030001 0.6982974 0.1348017
vn -0.9949662 -0.003764011 0.1001395
vn -0.9458042 0.0006325355 0.324737
vn -0.667588 -0.6708416 0.3229518
vn -0.7041841 -0.6977631 -0.1313443
vn 0.6248934 -0.623238 -0.4701943
vn -0.001086247 -0.884167 -0.4671699
vn 0.7019223 -0.6973975 -0.1447134
vn 0.001311788 -0.41656 -0.9091073
vn -0.2734341 -0.2858645 -0.9184309
vn -0.6343267 -0.6296085 -0.4485785
vn -0.7053022 -0.6981022 -0.1232971
vn -0.000943673 -0.9895217 -0.1443814
vn -5.863028E-05 -0.9987175 -0.05062753
vn -0.7062857 -0.7074082 -0.02709704
vn -0.7003363 -0.7105796 0.06786513
vn 0.9937155 0.003238147 -0.1118893
vn 0.9998828 -0.000129088 -0.01530821
vn 0.7062574 -0.706443 -0.04624846
vn 0.7032143 -0.7089452 0.05372444
vn 0.0001444955 -0.9990962 0.04250723
vn -0.003028966 -0.9512236 0.3084874
vn -0.667588 -0.6708416 0.3229518
vn -0.7041841 -0.6977631 -0.1313443
vn 0.7070135 0.7068228 0.02309847
vn 0.706543 0.697256 0.1209587
vn 0.9966854 -0.003726819 0.081267
vn 0.9321712 0.00118045 0.3620157
vn 0.6615849 -0.6653801 0.345796
vn 0.7111912 -0.7028512 -0.0143956
vn -0.004873653 -0.9966124 -0.08209781
vn -0.000566429 -0.9675935 -0.2525123
vn -0.6732341 -0.6766105 -0.2982516
vn -0.6917406 -0.6968993 -0.1892787
vn 0.000262804 0.9903928 0.1382831
vn -0.002410546 0.9264088 0.3765118
vn 0.6520097 0.6499306 0.3904786
vn 0.7044765 0.7096196 0.01236699
vn 0.9997889 0.005215683 0.01987408
vn 0.9811226 -0.0004192461 -0.1933863
vn 0.6908296 -0.686357 -0.227307
vn 0.7046775 -0.6994139 -0.1193725
vn 0.002705252 -0.9890494 -0.1475599
vn -3.853018E-05 -0.9993433 0.03623306
vn -0.7084822 -0.7057284 0.000644673
vn -0.6469579 -0.6436067 0.4089204
vn 0.0002335676 -0.7918609 0.6107014
vn 0.6286251 -0.6313444 0.4541307
vn 0.7039857 -0.7069707 0.06779809
vn 0.9963968 0.0001333099 0.08481428
vn 0.7746307 0.0002913783 0.6324138
vn 0.6286144 0.6315976 0.4537934
vn 0.9954486 -0.0001407974 -0.09529908
vn 0.7051374 0.6995429 -0.1158493
vn 0.7040678 0.7068205 0.06850728
vn 6.261997E-05 0.9993025 0.03734358
vn 0.0002817945 0.7920491 0.6104574
vn -0.6469111 0.6438257 0.4086495
vn 0.692651 0.6882201 -0.2158416
vn 0.000126367 0.9716899 -0.2362597
vn 0.00298132 0.9897774 -0.1425898
vn -0.6923884 0.6972378 -0.185628
vn -0.7086028 0.705606 0.001464237
vn -0.9999334 2.079063E-05 -0.01154544
vn -0.8092738 0.0002472388 0.5874316
vn -0.6469579 -0.6436067 0.4089204
vn -0.7084822 -0.7057284 0.000644673
vn -0.6917406 -0.6968993 -0.1892787
vn -0.9809476 -0.0003748887 -0.1942718
vn -0.9558356 -0.00100535 -0.2939
vn -0.6732341 -0.6766105 -0.2982516
vn -0.6756265 0.6792008 -0.2867318
vn -0.7008033 0.7059894 -0.1022433
vn -0.9905205 0.002986542 -0.1373329
vn -0.003484708 0.999211 -0.03956424
vn -0.6583934 0.6565737 0.368007
vn -0.001193949 0.0002445802 0.9999993
vn -0.8092738 0.0002472388 0.5874316
vn -0.6469111 0.6438257 0.4086495
vn 0.0002817945 0.7920491 0.6104574
vn -0.6469579 -0.6436067 0.4089204
vn 0.6286144 0.6315976 0.4537934
vn 0.0002335676 -0.7918609 0.6107014
vn 0.7746307 0.0002913783 0.6324138
vn 0.6286251 -0.6313444 0.4541307
g GrassTree_0
f 3/3/3 2/2/2 1/1/1
f 2/2/2 4/4/4 1/1/1
f 4/4/4 5/5/5 1/1/1
f 5/5/5 6/6/6 1/1/1
f 7/7/7 3/3/3 1/1/1
f 3/3/3 7/7/7 8/8/8
f 9/9/9 7/7/7 1/1/1
f 7/7/7 9/9/9 8/8/8
f 10/10/10 3/3/3 8/8/8
f 11/11/11 10/10/10 8/8/8
f 6/6/6 12/12/12 1/1/1
f 12/12/12 9/9/9 1/1/1
f 12/12/12 6/6/6 13/13/13
f 9/9/9 12/12/12 13/13/13
f 6/6/6 14/14/14 13/13/13
f 14/14/14 15/15/15 13/13/13
f 16/16/16 11/11/11 8/8/8
f 11/11/11 16/16/16 17/17/17
f 18/18/18 16/16/16 8/8/8
f 16/16/16 18/18/18 17/17/17
f 19/19/19 11/11/11 17/17/17
f 20/20/20 19/19/19 17/17/17
f 9/9/9 21/21/21 8/8/8
f 21/21/21 18/18/18 8/8/8
f 21/21/21 9/9/9 22/22/22
f 18/18/18 21/21/21 22/22/22
f 23/23/23 9/9/9 13/13/13
f 9/9/9 23/23/23 22/22/22
f 24/24/24 23/23/23 13/13/13
f 23/23/23 24/24/24 22/22/22
f 15/15/15 25/25/25 13/13/13
f 25/25/25 24/24/24 13/13/13
f 25/25/25 15/15/15 26/26/26
f 24/24/24 25/25/25 26/26/26
f 15/15/15 27/27/27 26/26/26
f 27/27/27 28/28/28 26/26/26
f 29/29/29 20/20/20 17/17/17
f 20/20/20 29/29/29 30/30/30
f 31/31/31 29/29/29 17/17/17
f 29/29/29 31/31/31 30/30/30
f 32/32/32 20/20/20 30/30/30
f 33/33/33 32/32/32 30/30/30
f 34/34/34 33/33/33 30/30/30
f 35/35/35 34/34/34 30/30/30
f 36/36/36 35/35/35 30/30/30
f 31/31/31 36/36/36 30/30/30
f 35/35/35 36/36/36 37/37/37
f 36/36/36 31/31/31 37/37/37
f 38/38/38 35/35/35 37/37/37
f 39/39/39 38/38/38 37/37/37
f 40/40/40 31/31/31 17/17/17
f 31/31/31 40/40/40 41/41/41
f 18/18/18 40/40/40 17/17/17
f 40/40/40 18/18/18 41/41/41
f 31/31/31 42/42/42 37/37/37
f 42/42/42 31/31/31 41/41/41
f 42/42/42 43/43/43 37/37/37
f 43/43/43 42/42/42 41/41/41
f 44/44/44 39/39/39 37/37/37
f 43/43/43 44/44/44 37/37/37
f 39/39/39 44/44/44 45/45/45
f 44/44/44 43/43/43 45/45/45
f 46/46/46 39/39/39 45/45/45
f 47/47/47 46/46/46 45/45/45
f 18/18/18 48/48/48 41/41/41
f 48/48/48 49/49/49 41/41/41
f 48/48/48 18/18/18 22/22/22
f 49/49/49 48/48/48 22/22/22
f 50/50/50 43/43/43 41/41/41
f 49/49/49 50/50/50 41/41/41
f 43/43/43 50/50/50 51/51/51
f 50/50/50 49/49/49 51/51/51
f 43/43/43 52/52/52 45/45/45
f 52/52/52 43/43/43 51/51/51
f 52/52/52 53/53/53 45/45/45
f 53/53/53 52/52/52 51/51/51
f 54/54/54 47/47/47 45/45/45
f 53/53/53 54/54/54 45/45/45
f 47/47/47 54/54/54 55/55/55
f 54/54/54 53/53/53 55/55/55
f 56/56/56 47/47/47 55/55/55
f 57/57/57 56/56/56 55/55/55
f 58/58/58 49/49/49 22/22/22
f 49/49/49 58/58/58 59/59/59
f 24/24/24 58/58/58 22/22/22
f 58/58/58 24/24/24 59/59/59
f 49/49/49 60/60/60 51/51/51
f 60/60/60 49/49/49 59/59/59
f 60/60/60 61/61/61 51/51/51
f 61/61/61 60/60/60 59/59/59
f 62/62/62 53/53/53 51/51/51
f 61/61/61 62/62/62 51/51/51
f 53/53/53 62/62/62 63/63/63
f 62/62/62 61/61/61 63/63/63
f 53/53/53 64/64/64 55/55/55
f 64/64/64 53/53/53 63/63/63
f 64/64/64 65/65/65 55/55/55
f 65/65/65 64/64/64 63/63/63
f 66/66/66 57/57/57 55/55/55
f 65/65/65 66/66/66 55/55/55
f 57/57/57 66/66/66 67/67/67
f 66/66/66 65/65/65 67/67/67
f 68/68/68 57/57/57 67/67/67
f 69/69/69 68/68/68 67/67/67
f 70/70/70 69/69/69 67/67/67
f 71/71/71 70/70/70 67/67/67
f 72/72/72 71/71/71 67/67/67
f 65/65/65 72/72/72 67/67/67
f 71/71/71 72/72/72 73/73/73
f 72/72/72 65/65/65 73/73/73
f 74/74/74 71/71/71 73/73/73
f 75/75/75 74/74/74 73/73/73
f 76/76/76 65/65/65 63/63/63
f 65/65/65 76/76/76 73/73/73
f 77/77/77 76/76/76 63/63/63
f 76/76/76 77/77/77 73/73/73
f 78/78/78 75/75/75 73/73/73
f 77/77/77 78/78/78 73/73/73
f 75/75/75 78/78/78 79/79/79
f 78/78/78 77/77/77 79/79/79
f 80/80/80 75/75/75 79/79/79
f 81/81/81 80/80/80 79/79/79
f 82/82/82 77/77/77 63/63/63
f 77/77/77 82/82/82 83/83/83
f 61/61/61 82/82/82 63/63/63
f 82/82/82 61/61/61 83/83/83
f 77/77/77 84/84/84 79/79/79
f 84/84/84 77/77/77 83/83/83
f 84/84/84 85/85/85 79/79/79
f 85/85/85 84/84/84 83/83/83
f 86/86/86 81/81/81 79/79/79
f 85/85/85 86/86/86 79/79/79
f 81/81/81 86/86/86 87/87/87
f 86/86/86 85/85/85 87/87/87
f 88/88/88 81/81/81 87/87/87
f 89/89/89 88/88/88 87/87/87
f 90/90/90 89/89/89 87/87/87
f 91/91/91 90/90/90 87/87/87
f 92/92/92 91/91/91 87/87/87
f 85/85/85 92/92/92 87/87/87
f 91/91/91 92/92/92 93/93/93
f 92/92/92 85/85/85 93/93/93
f 94/94/94 91/91/91 93/93/93
f 28/28/28 94/94/94 93/93/93
f 95/95/95 85/85/85 83/83/83
f 85/85/85 95/95/95 93/93/93
f 96/96/96 95/95/95 83/83/83
f 95/95/95 96/96/96 93/93/93
f 97/97/97 28/28/28 93/93/93
f 96/96/96 97/97/97 93/93/93
f 28/28/28 97/97/97 26/26/26
f 97/97/97 96/96/96 26/26/26
f 98/98/98 96/96/96 83/83/83
f 61/61/61 98/98/98 83/83/83
f 98/98/98 61/61/61 59/59/59
f 96/96/96 98/98/98 59/59/59
f 96/96/96 99/99/99 26/26/26
f 99/99/99 96/96/96 59/59/59
f 99/99/99 24/24/24 26/26/26
f 24/24/24 99/99/99 59/59/59
f 102/102/102 101/101/101 100/100/100
f 103/103/103 102/102/102 100/100/100
f 101/101/101 104/104/104 100/100/100
f 105/105/105 103/103/103 100/100/100
f 104/104/104 106/106/106 100/100/100
f 107/107/107 105/105/105 100/100/100
f 106/106/106 108/108/108 100/100/100
f 108/108/108 107/107/107 100/100/100
