g HairDresser_Window
v 1.26599 0.03388 1.373735
v -1.26599 0.03388 1.373735
v -1.26599 0.03388 2.697221
v 1.26599 0.03388 2.697221
v -1.26599 0.03388 4.020706
v 1.26599 0.03388 4.020706
v 1.089185 0.162964 1.324211
v 1.089185 0.162964 4.013827
v 1.089185 -0.120855 4.013827
v 1.089185 -0.120855 1.324211
v 1.373004 -0.120855 1.324211
v 1.373004 -0.120855 4.013827
v 1.373004 0.162964 4.013827
v 1.373004 0.162964 1.324211
v 1.373004 0.162964 1.324211
v 1.373004 0.162964 4.013827
v 1.089185 0.162964 4.013827
v 1.089185 0.162964 1.324211
v 1.089185 -0.120855 1.324211
v 1.089185 -0.120855 4.013827
v 1.373004 -0.120855 4.013827
v 1.373004 -0.120855 1.324211
v -1.373004 0.162964 1.324211
v -1.373004 0.162964 4.013827
v -1.373004 -0.120855 4.013827
v -1.373004 -0.120855 1.324211
v -1.089185 -0.120855 1.324211
v -1.089185 -0.120855 4.013827
v -1.089185 0.162964 4.013827
v -1.089185 0.162964 1.324211
v -1.089185 0.162964 1.324211
v -1.089185 0.162964 4.013827
v -1.373004 0.162964 4.013827
v -1.373004 0.162964 1.324211
v -1.373004 -0.120855 1.324211
v -1.373004 -0.120855 4.013827
v -1.089185 -0.120855 4.013827
v -1.089185 -0.120855 1.324211
v -1.422473 -0.213116 4.132153
v 1.422473 -0.213116 4.132153
v 1.422473 -0.213116 3.88046
v -1.422473 -0.213116 3.88046
v -1.422473 0.255225 3.88046
v 1.422473 0.255225 3.88046
v 1.422473 0.255225 4.132153
v -1.422473 0.255225 4.132153
v -1.422473 -0.213116 3.88046
v 1.422473 -0.213116 3.88046
v 1.422473 0.255225 3.88046
v -1.422473 0.255225 3.88046
v -1.422473 0.255225 4.132153
v 1.422473 0.255225 4.132153
v 1.422473 -0.213116 4.132153
v -1.422473 -0.213116 4.132153
v 1.422473 -0.213116 3.88046
v 1.422473 -0.213116 4.132153
v 1.422473 0.255225 4.132153
v 1.422473 0.255225 3.88046
v -1.422473 0.255225 4.132153
v -1.422473 -0.213116 4.132153
v -1.422473 -0.213116 3.88046
v -1.422473 0.255225 3.88046
v -1.422473 -0.213116 1.435151
v 1.422473 -0.213116 1.435151
v 1.422473 -0.213116 1.183458
v -1.422473 -0.213116 1.183458
v -1.422473 0.255225 1.183458
v 1.422473 0.255225 1.183458
v 1.422473 0.255225 1.435151
v -1.422473 0.255225 1.435151
v -1.422473 -0.213116 1.183458
v 1.422473 -0.213116 1.183458
v 1.422473 0.255225 1.183458
v -1.422473 0.255225 1.183458
v -1.422473 0.255225 1.435151
v 1.422473 0.255225 1.435151
v 1.422473 -0.213116 1.435151
v -1.422473 -0.213116 1.435151
v 1.422473 -0.213116 1.183458
v 1.422473 -0.213116 1.435151
v 1.422473 0.255225 1.435151
v 1.422473 0.255225 1.183458
v -1.422473 0.255225 1.435151
v -1.422473 -0.213116 1.435151
v -1.422473 -0.213116 1.183458
v -1.422473 0.255225 1.183458
vt 9.8E-05 9.8E-05
vt 0.956468 9.8E-05
vt 0.956468 0.5
vt 9.8E-05 0.5
vt 0.956468 0.999902
vt 9.8E-05 0.999902
vt 0.005919 0.521648
vt 0.994081 0.521648
vt 0.994081 0.459655
vt 0.005919 0.459655
vt 0.005919 0.521648
vt 0.994081 0.521648
vt 0.994081 0.459655
vt 0.005919 0.459655
vt 0.005919 0.521648
vt 0.994081 0.521648
vt 0.994081 0.459655
vt 0.005919 0.459655
vt 0.005919 0.521648
vt 0.994081 0.521648
vt 0.994081 0.459655
vt 0.005919 0.459655
vt 0.005919 0.521648
vt 0.994081 0.521648
vt 0.994081 0.459655
vt 0.005919 0.459655
vt 0.005919 0.521648
vt 0.994081 0.521648
vt 0.994081 0.459655
vt 0.005919 0.459655
vt 0.005919 0.521648
vt 0.994081 0.521648
vt 0.994081 0.459655
vt 0.005919 0.459655
vt 0.005919 0.521648
vt 0.994081 0.521648
vt 0.994081 0.459655
vt 0.005919 0.459655
vt 0.027897 0.51811
vt 0.96612 0.51811
vt 0.966119 0.467527
vt 0.027895 0.467527
vt 0.027897 0.51811
vt 0.96612 0.51811
vt 0.966119 0.467527
vt 0.027895 0.467527
vt 0.027897 0.51811
vt 0.96612 0.51811
vt 0.966119 0.467527
vt 0.027895 0.467527
vt 0.027897 0.51811
vt 0.96612 0.51811
vt 0.966119 0.467527
vt 0.027895 0.467527
vt 0.420838 0.46004
vt 0.420838 0.517745
vt 0.541767 0.517745
vt 0.541767 0.46004
vt 0.426837 0.466828
vt 0.426837 0.518809
vt 0.535769 0.518809
vt 0.535769 0.466828
vt 0.027897 0.51811
vt 0.96612 0.51811
vt 0.966119 0.467527
vt 0.027895 0.467527
vt 0.027897 0.51811
vt 0.96612 0.51811
vt 0.966119 0.467527
vt 0.027895 0.467527
vt 0.027897 0.51811
vt 0.96612 0.51811
vt 0.966119 0.467527
vt 0.027895 0.467527
vt 0.027897 0.51811
vt 0.96612 0.51811
vt 0.966119 0.467527
vt 0.027895 0.467527
vt 0.420838 0.46004
vt 0.420838 0.517745
vt 0.541767 0.517745
vt 0.541767 0.46004
vt 0.426837 0.466828
vt 0.426837 0.518809
vt 0.535769 0.518809
vt 0.535769 0.466828
vn 0 -1 0
vn 0 -1 0
vn 0 -1 0
vn 0 -1 0
vn 0 -1 0
vn 0 -1 0
vn -1 0 0
vn -1 0 0
vn -1 0 0
vn -1 0 0
vn 1 0 0
vn 1 0 0
vn 1 0 0
vn 1 0 0
vn 0 1 0
vn 0 1 0
vn 0 1 0
vn 0 1 0
vn 0 -1 0
vn 0 -1 0
vn 0 -1 0
vn 0 -1 0
vn -1 0 0
vn -1 0 0
vn -1 0 0
vn -1 0 0
vn 1 0 0
vn 1 0 0
vn 1 0 0
vn 1 0 0
vn 0 1 0
vn 0 1 0
vn 0 1 0
vn 0 1 0
vn 0 -1 0
vn 0 -1 0
vn 0 -1 0
vn 0 -1 0
vn 0 -1 0
vn 0 -1 0
vn 0 -1 0
vn 0 -1 0
vn 0 1 0
vn 0 1 0
vn 0 1 0
vn 0 1 0
vn 0 0 -1
vn 0 0 -1
vn 0 0 -1
vn 0 0 -1
vn 0 0 1
vn 0 0 1
vn 0 0 1
vn 0 0 1
vn 1 0 0
vn 1 0 0
vn 1 0 0
vn 1 0 0
vn -1 0 0
vn -1 0 0
vn -1 0 0
vn -1 0 0
vn 0 -1 0
vn 0 -1 0
vn 0 -1 0
vn 0 -1 0
vn 0 1 0
vn 0 1 0
vn 0 1 0
vn 0 1 0
vn 0 0 -1
vn 0 0 -1
vn 0 0 -1
vn 0 0 -1
vn 0 0 1
vn 0 0 1
vn 0 0 1
vn 0 0 1
vn 1 0 0
vn 1 0 0
vn 1 0 0
vn 1 0 0
vn -1 0 0
vn -1 0 0
vn -1 0 0
vn -1 0 0
g HairDresser_Window_0
f 3/3/3 2/2/2 1/1/1
f 4/4/4 3/3/3 1/1/1
f 5/5/5 3/3/3 4/4/4
f 6/6/6 5/5/5 4/4/4
g HairDresser_Window_1
f 9/9/9 8/8/8 7/7/7
f 10/10/10 9/9/9 7/7/7
f 13/13/13 12/12/12 11/11/11
f 14/14/14 13/13/13 11/11/11
f 17/17/17 16/16/16 15/15/15
f 18/18/18 17/17/17 15/15/15
f 21/21/21 20/20/20 19/19/19
f 22/22/22 21/21/21 19/19/19
f 25/25/25 24/24/24 23/23/23
f 26/26/26 25/25/25 23/23/23
f 29/29/29 28/28/28 27/27/27
f 30/30/30 29/29/29 27/27/27
f 33/33/33 32/32/32 31/31/31
f 34/34/34 33/33/33 31/31/31
f 37/37/37 36/36/36 35/35/35
f 38/38/38 37/37/37 35/35/35
f 41/41/41 40/40/40 39/39/39
f 42/42/42 41/41/41 39/39/39
f 45/45/45 44/44/44 43/43/43
f 46/46/46 45/45/45 43/43/43
f 49/49/49 48/48/48 47/47/47
f 50/50/50 49/49/49 47/47/47
f 53/53/53 52/52/52 51/51/51
f 54/54/54 53/53/53 51/51/51
f 57/57/57 56/56/56 55/55/55
f 58/58/58 57/57/57 55/55/55
f 61/61/61 60/60/60 59/59/59
f 62/62/62 61/61/61 59/59/59
f 65/65/65 64/64/64 63/63/63
f 66/66/66 65/65/65 63/63/63
f 69/69/69 68/68/68 67/67/67
f 70/70/70 69/69/69 67/67/67
f 73/73/73 72/72/72 71/71/71
f 74/74/74 73/73/73 71/71/71
f 77/77/77 76/76/76 75/75/75
f 78/78/78 77/77/77 75/75/75
f 81/81/81 80/80/80 79/79/79
f 82/82/82 81/81/81 79/79/79
f 85/85/85 84/84/84 83/83/83
f 86/86/86 85/85/85 83/83/83
