g HairDresserFrame
v -0.990711 0.064041 -0.152272
v -0.990711 -0.068693 -0.152272
v 0 -0.068693 -0.152272
v 0 0.064041 -0.152272
v -1.124782 0.067194 1.967701
v -1.124782 -0.088016 1.967701
v -1.124782 -0.088015 -0.161116
v -1.124782 0.067194 -0.161116
v -0.898004 0.067194 1.967701
v -0.898004 0.067194 -0.161116
v -0.898004 -0.088015 -0.161116
v -0.898004 -0.088016 1.967701
v -1.124782 -0.088015 -0.161116
v -0.898004 -0.088015 -0.161116
v -0.898004 0.067194 -0.161116
v -1.124782 0.067194 -0.161116
v -1.124782 0.067194 1.967701
v -0.898004 0.067194 1.967701
v -0.898004 -0.088016 1.967701
v -1.124782 -0.088016 1.967701
v -1.124782 0.067194 -0.161116
v -0.898004 0.067194 -0.161116
v -0.898004 0.067194 1.967701
v -1.124782 0.067194 1.967701
v -1.124782 -0.088016 1.967701
v -0.898004 -0.088016 1.967701
v -0.898004 -0.088015 -0.161116
v -1.124782 -0.088015 -0.161116
v -0.990711 0.06404 1.787182
v -0.990711 -0.068693 1.787182
v 0 -0.068693 1.787182
v 0 0.06404 1.787182
v -0.990711 0.06404 1.958858
v 0 0.06404 1.958858
v 0 -0.068693 1.958858
v -0.990711 -0.068693 1.958858
v 0 0.06404 1.787182
v -0.990711 0.06404 1.958858
v -0.990711 0.06404 1.787182
v 0 0.06404 1.958858
v 0.990711 0.06404 1.958858
v 0.990711 0.06404 1.787182
v -0.990711 -0.068693 1.787182
v -0.990711 -0.068693 1.958858
v 0 -0.068693 1.958858
v 0 -0.068693 1.787182
v -0.990711 0.064041 0.019404
v 0 0.064041 0.019404
v 0 -0.068693 0.019404
v -0.990711 -0.068693 0.019404
v 0 0.064041 -0.152272
v -0.990711 0.064041 0.019404
v -0.990711 0.064041 -0.152272
v 0 0.064041 0.019404
v 0.990711 0.064041 0.019404
v 0.990711 0.064041 -0.152272
v -0.990711 -0.068693 -0.152272
v -0.990711 -0.068693 0.019404
v 0 -0.068693 0.019404
v 0 -0.068693 -0.152272
v -0.922767 -0.037578 -0.019004
v -0.922767 -0.037578 1.825589
v 0 -0.037578 1.825589
v 0 -0.037578 -0.019004
v 0.990711 0.064041 -0.152272
v 0 0.064041 -0.152272
v 0 -0.068693 -0.152272
v 0.990711 -0.068693 -0.152272
v 1.124782 0.067194 1.967701
v 1.124782 0.067194 -0.161116
v 1.124782 -0.088015 -0.161116
v 1.124782 -0.088016 1.967701
v 0.898004 0.067194 1.967701
v 0.898004 -0.088016 1.967701
v 0.898004 -0.088015 -0.161116
v 0.898004 0.067194 -0.161116
v 1.124782 -0.088015 -0.161116
v 1.124782 0.067194 -0.161116
v 0.898004 0.067194 -0.161116
v 0.898004 -0.088015 -0.161116
v 1.124782 0.067194 1.967701
v 1.124782 -0.088016 1.967701
v 0.898004 -0.088016 1.967701
v 0.898004 0.067194 1.967701
v 1.124782 0.067194 -0.161116
v 1.124782 0.067194 1.967701
v 0.898004 0.067194 1.967701
v 0.898004 0.067194 -0.161116
v 1.124782 -0.088016 1.967701
v 1.124782 -0.088015 -0.161116
v 0.898004 -0.088015 -0.161116
v 0.898004 -0.088016 1.967701
v 0.990711 0.06404 1.787182
v 0 0.06404 1.787182
v 0 -0.068693 1.787182
v 0.990711 -0.068693 1.787182
v 0.990711 0.06404 1.958858
v 0.990711 -0.068693 1.958858
v 0 -0.068693 1.958858
v 0 0.06404 1.958858
v 0.990711 -0.068693 1.787182
v 0 -0.068693 1.787182
v 0 -0.068693 1.958858
v 0.990711 -0.068693 1.958858
v 0.990711 0.064041 0.019404
v 0.990711 -0.068693 0.019404
v 0 -0.068693 0.019404
v 0 0.064041 0.019404
v 0.990711 -0.068693 -0.152272
v 0 -0.068693 -0.152272
v 0 -0.068693 0.019404
v 0.990711 -0.068693 0.019404
v 0.922767 -0.037578 -0.019004
v 0 -0.037578 -0.019004
v 0 -0.037578 1.825589
v 0.922767 -0.037578 1.825589
vt 0.992727 0.89429
vt 0.992727 0.994592
vt 0.422726 0.994592
vt 0.422726 0.89429
vt 1.013447 0.89429
vt 1.013447 0.994592
vt 0.402006 0.994592
vt 0.402006 0.89429
vt 0.992727 0.89429
vt 0.422726 0.89429
vt 0.422726 0.994592
vt 0.992727 0.994592
vt 0.422726 0.994592
vt 0.422726 0.994592
vt 0.422726 0.89429
vt 0.422726 0.89429
vt 0.992727 0.89429
vt 0.992727 0.89429
vt 0.992727 0.994592
vt 0.992727 0.994592
vt 0.422726 0.89429
vt 0.422726 0.89429
vt 0.992727 0.89429
vt 0.992727 0.89429
vt 1.00464 0.998239
vt 1.00464 0.893696
vt 0.397454 0.893696
vt 0.397454 0.998242
vt 0.992727 0.89429
vt 0.992727 0.994592
vt 0.422726 0.994592
vt 0.422726 0.89429
vt 1.011869 0.89429
vt 0.714552 0.89429
vt 0.714552 0.994592
vt 1.011869 0.994592
vt 0.422726 0.89429
vt 0.992727 0.89429
vt 0.992727 0.89429
vt 0.422726 0.89429
vt 0.992727 0.89429
vt 0.992727 0.89429
vt 1.048249 0.991914
vt 1.048249 0.900021
vt 0.639485 0.900021
vt 0.639485 0.991917
vt 0.992727 0.89429
vt 0.422726 0.89429
vt 0.422726 0.994592
vt 0.992727 0.994592
vt 0.422726 0.89429
vt 0.992727 0.89429
vt 0.992727 0.89429
vt 0.422726 0.89429
vt 0.992727 0.89429
vt 0.992727 0.89429
vt 1.048249 0.991914
vt 1.048249 0.900021
vt 0.639485 0.900021
vt 0.639485 0.991917
vt 0.994065 0.457328
vt 0.994065 0.87287
vt 0.672737 0.87287
vt 0.672737 0.457328
vt 0.992727 0.89429
vt 0.422726 0.89429
vt 0.422726 0.994592
vt 0.992727 0.994592
vt 1.013447 0.89429
vt 0.402006 0.89429
vt 0.402006 0.994592
vt 1.013447 0.994592
vt 0.992727 0.89429
vt 0.992727 0.994592
vt 0.422726 0.994592
vt 0.422726 0.89429
vt 0.422726 0.994592
vt 0.422726 0.89429
vt 0.422726 0.89429
vt 0.422726 0.994592
vt 0.992727 0.89429
vt 0.992727 0.994592
vt 0.992727 0.994592
vt 0.992727 0.89429
vt 0.422726 0.89429
vt 0.992727 0.89429
vt 0.992727 0.89429
vt 0.422726 0.89429
vt 1.00464 0.998239
vt 0.397454 0.998242
vt 0.397454 0.893696
vt 1.00464 0.893696
vt 0.992727 0.89429
vt 0.422726 0.89429
vt 0.422726 0.994592
vt 0.992727 0.994592
vt 1.011869 0.89429
vt 1.011869 0.994592
vt 0.714552 0.994592
vt 0.714552 0.89429
vt 1.048249 0.991914
vt 0.639485 0.991917
vt 0.639485 0.900021
vt 1.048249 0.900021
vt 0.992727 0.89429
vt 0.992727 0.994592
vt 0.422726 0.994592
vt 0.422726 0.89429
vt 1.048249 0.991914
vt 0.639485 0.991917
vt 0.639485 0.900021
vt 1.048249 0.900021
vt 0.994065 0.457328
vt 0.672737 0.457328
vt 0.672737 0.87287
vt 0.994065 0.87287
vn 0 0 -1
vn 0 0 -1
vn 0 0 -1
vn 0 0 -1
vn -1 0 0
vn -1 0 0
vn -1 0 0
vn -1 0 0
vn 1 0 0
vn 1 0 0
vn 1 0 0
vn 1 0 0
vn 0 0 -1
vn 0 0 -1
vn 0 0 -1
vn 0 0 -1
vn 0 0 1
vn 0 0 1
vn 0 0 1
vn 0 0 1
vn 0 1 0
vn 0 1 0
vn 0 1 0
vn 0 1 0
vn 0 -1 0
vn 0 -1 0
vn 0 -1 0
vn 0 -1 0
vn 0 0 -1
vn 0 0 -1
vn 0 0 -1
vn 0 0 -1
vn 0 0 1
vn 0 0 1
vn 0 0 1
vn 0 0 1
vn 0 1 0
vn 0 1 0
vn 0 1 0
vn 0 1 0
vn 0 1 0
vn 0 1 0
vn 0 -1 0
vn 0 -1 0
vn 0 -1 0
vn 0 -1 0
vn 0 0 1
vn 0 0 1
vn 0 0 1
vn 0 0 1
vn 0 1 0
vn 0 1 0
vn 0 1 0
vn 0 1 0
vn 0 1 0
vn 0 1 0
vn 0 -1 0
vn 0 -1 0
vn 0 -1 0
vn 0 -1 0
vn 0 -1 0
vn 0 -1 0
vn 0 -1 0
vn 0 -1 0
vn 0 0 -1
vn 0 0 -1
vn 0 0 -1
vn 0 0 -1
vn 1 0 0
vn 1 0 0
vn 1 0 0
vn 1 0 0
vn -1 0 0
vn -1 0 0
vn -1 0 0
vn -1 0 0
vn 0 0 -1
vn 0 0 -1
vn 0 0 -1
vn 0 0 -1
vn 0 0 1
vn 0 0 1
vn 0 0 1
vn 0 0 1
vn 0 1 0
vn 0 1 0
vn 0 1 0
vn 0 1 0
vn 0 -1 0
vn 0 -1 0
vn 0 -1 0
vn 0 -1 0
vn 0 0 -1
vn 0 0 -1
vn 0 0 -1
vn 0 0 -1
vn 0 0 1
vn 0 0 1
vn 0 0 1
vn 0 0 1
vn 0 -1 0
vn 0 -1 0
vn 0 -1 0
vn 0 -1 0
vn 0 0 1
vn 0 0 1
vn 0 0 1
vn 0 0 1
vn 0 -1 0
vn 0 -1 0
vn 0 -1 0
vn 0 -1 0
vn 0 -1 0
vn 0 -1 0
vn 0 -1 0
vn 0 -1 0
g HairDresserFrame_0
f 3/3/3 2/2/2 1/1/1
f 4/4/4 3/3/3 1/1/1
f 7/7/7 6/6/6 5/5/5
f 8/8/8 7/7/7 5/5/5
f 11/11/11 10/10/10 9/9/9
f 12/12/12 11/11/11 9/9/9
f 15/15/15 14/14/14 13/13/13
f 16/16/16 15/15/15 13/13/13
f 19/19/19 18/18/18 17/17/17
f 20/20/20 19/19/19 17/17/17
f 23/23/23 22/22/22 21/21/21
f 24/24/24 23/23/23 21/21/21
f 27/27/27 26/26/26 25/25/25
f 28/28/28 27/27/27 25/25/25
f 31/31/31 30/30/30 29/29/29
f 32/32/32 31/31/31 29/29/29
f 35/35/35 34/34/34 33/33/33
f 36/36/36 35/35/35 33/33/33
f 39/39/39 38/38/38 37/37/37
f 38/38/38 40/40/40 37/37/37
f 40/40/40 41/41/41 37/37/37
f 41/41/41 42/42/42 37/37/37
f 45/45/45 44/44/44 43/43/43
f 46/46/46 45/45/45 43/43/43
f 49/49/49 48/48/48 47/47/47
f 50/50/50 49/49/49 47/47/47
f 53/53/53 52/52/52 51/51/51
f 52/52/52 54/54/54 51/51/51
f 54/54/54 55/55/55 51/51/51
f 55/55/55 56/56/56 51/51/51
f 59/59/59 58/58/58 57/57/57
f 60/60/60 59/59/59 57/57/57
f 63/63/63 62/62/62 61/61/61
f 64/64/64 63/63/63 61/61/61
f 67/67/67 66/66/66 65/65/65
f 68/68/68 67/67/67 65/65/65
f 71/71/71 70/70/70 69/69/69
f 72/72/72 71/71/71 69/69/69
f 75/75/75 74/74/74 73/73/73
f 76/76/76 75/75/75 73/73/73
f 79/79/79 78/78/78 77/77/77
f 80/80/80 79/79/79 77/77/77
f 83/83/83 82/82/82 81/81/81
f 84/84/84 83/83/83 81/81/81
f 87/87/87 86/86/86 85/85/85
f 88/88/88 87/87/87 85/85/85
f 91/91/91 90/90/90 89/89/89
f 92/92/92 91/91/91 89/89/89
f 95/95/95 94/94/94 93/93/93
f 96/96/96 95/95/95 93/93/93
f 99/99/99 98/98/98 97/97/97
f 100/100/100 99/99/99 97/97/97
f 103/103/103 102/102/102 101/101/101
f 104/104/104 103/103/103 101/101/101
f 107/107/107 106/106/106 105/105/105
f 108/108/108 107/107/107 105/105/105
f 111/111/111 110/110/110 109/109/109
f 112/112/112 111/111/111 109/109/109
f 115/115/115 114/114/114 113/113/113
f 116/116/116 115/115/115 113/113/113
