g HangGlider_HandleOnly
v -0.117298 -0.022656 1.496211
v -0.117389 0.022518 1.491756
v -0.085225 0.054852 1.500121
v -0.039851 -0.054809 1.52183
v -0.039761 0.054852 1.506025
v -0.007688 -0.022656 1.525918
v -0.007598 0.022518 1.514581
v -0.797825 0.056019 0.022242
v -0.830665 0.022943 0.022041
v -0.83051 -0.023186 0.021766
v 0.085225 0.054852 1.500121
v 0.117389 0.022518 1.491756
v 0.117298 -0.022656 1.496211
v 0.085135 -0.054809 1.509553
v 0.039761 0.054852 1.506025
v 0.085225 0.054852 1.500121
v 0.085135 -0.054809 1.509553
v 0.039851 -0.054809 1.52183
v 0.039761 0.054852 1.506025
v 0.83051 -0.023186 0.021766
v 0.830665 0.022943 0.022041
v 0.797825 0.056019 0.022242
v 0.751335 0.056019 0.022242
v 0.751491 -0.05595 0.021578
v 0.797669 -0.05595 0.021578
v 0.751335 0.056019 0.022242
v 0.71865 -0.023186 0.021766
v 0.751491 -0.05595 0.021578
v -0.830116 -0.023 0.1288
v -0.83051 -0.023186 0.021766
v -0.830665 0.022943 0.022041
v -0.830249 0.022794 0.129039
v -0.117298 -0.022656 1.496211
v -0.117389 0.022518 1.491756
v -0.085225 0.054852 1.500121
v -0.797645 0.05561 0.129213
v -0.797825 0.056019 0.022242
v -0.085135 -0.054809 1.509553
v -0.085225 0.054852 1.500121
v -0.039851 -0.054809 1.52183
v -0.797645 0.05561 0.129213
v -0.797825 0.056019 0.022242
v -0.751335 0.056019 0.022242
v -0.751514 0.05561 0.129213
v -0.085225 0.054852 1.500121
v -0.039761 0.054852 1.506025
v -0.007598 0.022518 1.514581
v -0.718911 0.022794 0.073587
v -0.719044 -0.023 0.073348
v -0.007688 -0.022656 1.525918
v -0.039851 -0.054809 1.52183
v -0.007598 0.022518 1.514581
v -0.039761 0.054852 1.506025
v -0.751514 0.05561 0.129213
v -0.718911 0.022794 0.073587
v -0.751335 0.056019 0.022242
v -0.718494 0.022943 0.022041
v 0 0.021643 0.074964
v 0 0.021792 0.023418
v 0.718494 0.022943 0.022041
v 0.718911 0.022794 0.073587
v 0.751335 0.056019 0.022242
v 0.751514 0.05561 0.129213
v 0.007598 0.022518 1.514581
v 0.039761 0.054852 1.506025
v -0.797669 -0.05595 0.021578
v -0.83051 -0.023186 0.021766
v -0.830116 -0.023 0.1288
v -0.797513 -0.05555 0.128637
v -0.117298 -0.022656 1.496211
v -0.085135 -0.054809 1.509553
v -0.039851 -0.054809 1.52183
v -0.751647 -0.05555 0.128637
v -0.751491 -0.05595 0.021578
v -0.71865 -0.023186 0.021766
v -0.719044 -0.023 0.073348
v 0 -0.024337 0.023143
v 0 -0.024151 0.074725
v 0.719044 -0.023 0.073348
v 0.71865 -0.023186 0.021766
v 0.751647 -0.05555 0.128637
v 0.751491 -0.05595 0.021578
v 0.797669 -0.05595 0.021578
v 0.039851 -0.054809 1.52183
v 0.797513 -0.05555 0.128637
v 0.085135 -0.054809 1.509553
v -0.71865 -0.023186 0.021766
v -0.718494 0.022943 0.022041
v -0.751335 0.056019 0.022242
v 0 0.021792 0.023418
v 0 -0.024337 0.023143
v 0.71865 -0.023186 0.021766
v 0.718494 0.022943 0.022041
v 0.751335 0.056019 0.022242
v -0.751335 0.056019 0.022242
v -0.751491 -0.05595 0.021578
v -0.71865 -0.023186 0.021766
v -0.797825 0.056019 0.022242
v -0.797669 -0.05595 0.021578
v -0.83051 -0.023186 0.021766
v -0.718911 0.022794 0.073587
v 0 -0.024151 0.074725
v -0.719044 -0.023 0.073348
v 0 0.021643 0.074964
v 0.718911 0.022794 0.073587
v 0.719044 -0.023 0.073348
v 0.117298 -0.022656 1.496211
v 0.117389 0.022518 1.491756
v 0.830249 0.022794 0.129039
v 0.830116 -0.023 0.1288
v 0.830665 0.022943 0.022041
v 0.83051 -0.023186 0.021766
v 0.797669 -0.05595 0.021578
v 0.797513 -0.05555 0.128637
v 0.085135 -0.054809 1.509553
v 0.085225 0.054852 1.500121
v 0.007598 0.022518 1.514581
v 0.719044 -0.023 0.073348
v 0.718911 0.022794 0.073587
v 0.007688 -0.022656 1.525918
v 0.039851 -0.054809 1.52183
v 0.085225 0.054852 1.500121
v 0.039761 0.054852 1.506025
v 0.751514 0.05561 0.129213
v 0.797645 0.05561 0.129213
v 0.751335 0.056019 0.022242
v 0.797825 0.056019 0.022242
v 0.830665 0.022943 0.022041
v 0.830249 0.022794 0.129039
v 0.117389 0.022518 1.491756
v 0.039851 -0.054809 1.52183
v 0.007688 -0.022656 1.525918
v 0.039761 0.054852 1.506025
v 0.007598 0.022518 1.514581
v 0.797825 0.056019 0.022242
v 0.797669 -0.05595 0.021578
v 0.83051 -0.023186 0.021766
v 0.751335 0.056019 0.022242
vt 0.694221 0.955832
vt 0.638623 0.955772
vt 0.582351 0.955711
vt 0.806352 0.955954
vt 0.526492 0.95565
vt 0.862623 0.956014
vt 0.918223 0.956074
vt 0.5824 0.509601
vt 0.638672 0.509662
vt 0.69427 0.509723
vt 0.582351 0.955711
vt 0.638623 0.955772
vt 0.694221 0.955832
vt 0.750493 0.955893
vt 0.526492 0.95565
vt 0.582351 0.955711
vt 0.750493 0.955893
vt 0.806352 0.955954
vt 0.526492 0.95565
vt 0.69427 0.509723
vt 0.638672 0.509662
vt 0.5824 0.509601
vt 0.974543 0.510026
vt 0.806401 0.509844
vt 0.750541 0.509784
vt 0.974543 0.510026
vt 0.862672 0.509905
vt 0.806401 0.509844
vt 0.694246 0.732777
vt 0.69427 0.509723
vt 0.638672 0.509662
vt 0.638647 0.732717
vt 0.694221 0.955832
vt 0.638623 0.955772
vt 0.582351 0.955711
vt 0.582376 0.732656
vt 0.5824 0.509601
vt 0.750493 0.955893
vt 0.582351 0.955711
vt 0.806352 0.955954
vt 0.582376 0.732656
vt 0.5824 0.509601
vt 0.526541 0.509541
vt 0.526516 0.732595
vt 0.582351 0.955711
vt 0.526492 0.95565
vt 0.918223 0.956074
vt 0.918247 0.73302
vt 0.862648 0.73296
vt 0.862623 0.956014
vt 0.806352 0.955954
vt 0.918223 0.956074
vt 0.974494 0.956136
vt 0.974518 0.733081
vt 0.918247 0.73302
vt 0.974543 0.510026
vt 0.918272 0.509965
vt 0.918247 0.73302
vt 0.918272 0.509965
vt 0.918272 0.509965
vt 0.918247 0.73302
vt 0.974543 0.510026
vt 0.974518 0.733081
vt 0.918223 0.956074
vt 0.974494 0.956136
vt 0.750541 0.509784
vt 0.69427 0.509723
vt 0.694246 0.732777
vt 0.750517 0.732839
vt 0.694221 0.955832
vt 0.750493 0.955893
vt 0.806352 0.955954
vt 0.806377 0.732899
vt 0.806401 0.509844
vt 0.862672 0.509905
vt 0.862648 0.73296
vt 0.862672 0.509905
vt 0.862648 0.73296
vt 0.862648 0.73296
vt 0.862672 0.509905
vt 0.806377 0.732899
vt 0.806401 0.509844
vt 0.750541 0.509784
vt 0.806352 0.955954
vt 0.750517 0.732839
vt 0.750493 0.955893
vt 0.862672 0.509905
vt 0.918272 0.509965
vt 0.974543 0.510026
vt 0.918272 0.509965
vt 0.862672 0.509905
vt 0.862672 0.509905
vt 0.918272 0.509965
vt 0.974543 0.510026
vt 0.974543 0.510026
vt 0.806401 0.509844
vt 0.862672 0.509905
vt 0.5824 0.509601
vt 0.750541 0.509784
vt 0.69427 0.509723
vt 0.918247 0.73302
vt 0.862648 0.73296
vt 0.862648 0.73296
vt 0.918247 0.73302
vt 0.918247 0.73302
vt 0.862648 0.73296
vt 0.694221 0.955832
vt 0.638623 0.955772
vt 0.638647 0.732717
vt 0.694246 0.732777
vt 0.638672 0.509662
vt 0.69427 0.509723
vt 0.750541 0.509784
vt 0.750517 0.732839
vt 0.750493 0.955893
vt 0.582351 0.955711
vt 0.918223 0.956074
vt 0.862648 0.73296
vt 0.918247 0.73302
vt 0.862623 0.956014
vt 0.806352 0.955954
vt 0.582351 0.955711
vt 0.526492 0.95565
vt 0.526516 0.732595
vt 0.582376 0.732656
vt 0.526541 0.509541
vt 0.5824 0.509601
vt 0.638672 0.509662
vt 0.638647 0.732717
vt 0.638623 0.955772
vt 0.806352 0.955954
vt 0.862623 0.956014
vt 0.526492 0.95565
vt 0.918223 0.956074
vt 0.5824 0.509601
vt 0.750541 0.509784
vt 0.69427 0.509723
vt 0.974543 0.510026
vn -0.6308247 -0.1216865 0.7663241
vn -0.7067978 0.2762069 0.6512655
vn -0.346959 0.4094997 0.8437591
vn -0.2164096 0.1209829 0.9687777
vn 0.04808111 0.6578813 0.7515854
vn -0.1375964 0.1924351 0.9716151
vn -0.01328145 0.2434188 0.9698303
vn 7.696005E-05 0.005938106 -0.9999824
vn 0.0001157838 0.005961846 -0.9999822
vn 0.0001539201 0.005946109 -0.9999824
vn 0.3636084 0.4708466 0.8037987
vn 0.7067977 0.2762075 0.6512654
vn 0.6308247 -0.121686 0.7663241
vn 0.3692161 -0.3491005 0.861283
vn 0.02146046 0.5524289 0.8332836
vn 0.3636084 0.4708466 0.8037987
vn 0.3692161 -0.3491005 0.861283
vn 0.2592946 0.1379816 0.9558909
vn 0.02146046 0.5524289 0.8332836
vn -0.0001539201 0.005946109 -0.9999824
vn -0.0001157838 0.005961846 -0.9999822
vn -0.0001026134 0.005940774 -0.9999824
vn 7.695853E-05 0.005938106 -0.9999824
vn 9.602824E-05 0.005930238 -0.9999825
vn -6.401883E-05 0.005930193 -0.9999825
vn 7.695853E-05 0.005938106 -0.9999824
vn -0.0005393248 0.005950134 -0.9999822
vn 9.602824E-05 0.005930238 -0.9999825
vn -0.9040246 -0.3612872 0.2284974
vn -0.9230734 -0.3846024 0.004077332
vn -0.9251258 0.3796384 0.004112369
vn -0.900105 0.3717805 0.227135
vn -0.6308247 -0.1216865 0.7663241
vn -0.7067978 0.2762069 0.6512655
vn -0.346959 0.4094997 0.8437591
vn -0.3835036 0.918048 0.1005621
vn -0.3842622 0.9232147 0.004136284
vn -0.4251688 -0.4892806 0.7614696
vn -0.346959 0.4094997 0.8437591
vn -0.2164096 0.1209829 0.9687777
vn -0.3835036 0.918048 0.1005621
vn -0.3842622 0.9232147 0.004136284
vn 0.3856809 0.9226194 0.004862189
vn 0.344659 0.9357584 -0.074609
vn -0.346959 0.4094997 0.8437591
vn 0.04808111 0.6578813 0.7515854
vn 0.8204297 0.4010769 -0.4074707
vn 0.6533527 0.7256541 -0.2157691
vn 0.6336114 -0.745049 -0.2084193
vn 0.7967464 -0.4580837 -0.3941502
vn 0.2962382 -0.9436238 -0.1477059
vn 0.8204297 0.4010769 -0.4074707
vn 0.04808111 0.6578813 0.7515854
vn 0.344659 0.9357584 -0.074609
vn 0.6533527 0.7256541 -0.2157691
vn 0.3856809 0.9226194 0.004862189
vn 0.3864174 0.9223138 0.004358708
vn 0 0.9999958 0.002897056
vn 0 0.9999958 0.002897056
vn -0.3864174 0.9223138 0.004358715
vn -0.6533528 0.7256541 -0.2157691
vn -0.385681 0.9226194 0.004862197
vn -0.344659 0.9357583 -0.074609
vn -0.8204297 0.4010766 -0.4074707
vn 0.02146046 0.5524289 0.8332836
vn -0.3822145 -0.9240648 0.004051842
vn -0.9230734 -0.3846024 0.004077332
vn -0.9040246 -0.3612872 0.2284974
vn -0.3858875 -0.9169434 0.1015174
vn -0.6308247 -0.1216865 0.7663241
vn -0.4251688 -0.4892806 0.7614696
vn 0.2962382 -0.9436238 -0.1477059
vn 0.3407921 -0.9373334 -0.07257277
vn 0.3836124 -0.9234818 0.004764197
vn 0.3828698 -0.9237904 0.00469187
vn 0.6336114 -0.745049 -0.2084193
vn 0 -0.9999936 0.003599744
vn 0 -0.9999936 0.003599744
vn -0.6336113 -0.7450491 -0.2084193
vn -0.3828698 -0.9237904 0.004691862
vn -0.3407921 -0.9373334 -0.0725728
vn -0.3836124 -0.9234819 0.004764189
vn 0.3822144 -0.9240648 0.004051839
vn -0.2962382 -0.9436238 -0.1477059
vn 0.3858875 -0.9169433 0.1015175
vn 0.3692161 -0.3491005 0.861283
vn 0.0005393247 0.005950134 -0.9999822
vn 0.0009050154 0.005960013 -0.9999819
vn -0.0001026114 0.005940775 -0.9999824
vn 0 0.005958181 -0.9999822
vn 0 0.005958181 -0.9999822
vn -0.0005393248 0.005950134 -0.9999822
vn -0.0009050155 0.005960013 -0.9999819
vn 7.695853E-05 0.005938106 -0.9999824
vn -0.0001026114 0.005940775 -0.9999824
vn -6.401883E-05 0.005930193 -0.9999825
vn 0.0005393247 0.005950134 -0.9999822
vn 7.696005E-05 0.005938106 -0.9999824
vn 9.602824E-05 0.005930238 -0.9999825
vn 0.0001539201 0.005946109 -0.9999824
vn -0.001923543 -0.005216145 0.9999846
vn 0 -0.005216155 0.9999864
vn -0.001923543 -0.005216145 0.9999846
vn 0 -0.005216155 0.9999864
vn 0.001923543 -0.005216145 0.9999846
vn 0.001923543 -0.005216145 0.9999846
vn 0.6308247 -0.121686 0.7663241
vn 0.7067977 0.2762075 0.6512654
vn 0.9001048 0.3717809 0.2271349
vn 0.9040247 -0.3612868 0.2284975
vn 0.9251258 0.3796384 0.004112362
vn 0.9230734 -0.3846024 0.00407733
vn 0.3822144 -0.9240648 0.004051839
vn 0.3858875 -0.9169433 0.1015175
vn 0.3692161 -0.3491005 0.861283
vn 0.3636084 0.4708466 0.8037987
vn -0.8204297 0.4010766 -0.4074707
vn -0.6336113 -0.7450491 -0.2084193
vn -0.6533528 0.7256541 -0.2157691
vn -0.7967463 -0.4580839 -0.3941502
vn -0.2962382 -0.9436238 -0.1477059
vn 0.3636084 0.4708466 0.8037987
vn 0.02146046 0.5524289 0.8332836
vn -0.344659 0.9357583 -0.074609
vn 0.3835035 0.9180481 0.1005621
vn -0.385681 0.9226194 0.004862197
vn 0.3842622 0.9232147 0.004136276
vn 0.9251258 0.3796384 0.004112362
vn 0.9001048 0.3717809 0.2271349
vn 0.7067977 0.2762075 0.6512654
vn 0.2592946 0.1379816 0.9558909
vn 0.1375964 0.1924351 0.9716151
vn 0.02146046 0.5524289 0.8332836
vn 0.01328142 0.2434188 0.9698303
vn -0.0001026134 0.005940774 -0.9999824
vn -6.401883E-05 0.005930193 -0.9999825
vn -0.0001539201 0.005946109 -0.9999824
vn 7.695853E-05 0.005938106 -0.9999824
g HangGlider_HandleOnly_0
f 3/3/3 2/2/2 1/1/1
f 5/5/5 3/3/3 4/4/4
f 5/5/5 4/4/4 6/6/6
f 6/6/6 7/7/7 5/5/5
f 10/10/10 9/9/9 8/8/8
f 13/13/13 12/12/12 11/11/11
f 16/16/16 15/15/15 14/14/14
f 19/19/19 18/18/18 17/17/17
f 22/22/22 21/21/21 20/20/20
f 25/25/25 24/24/24 23/23/23
f 28/28/28 27/27/27 26/26/26
f 31/31/31 30/30/30 29/29/29
f 32/32/32 31/31/31 29/29/29
f 32/32/32 29/29/29 33/33/33
f 34/34/34 32/32/32 33/33/33
f 32/32/32 34/34/34 35/35/35
f 36/36/36 32/32/32 35/35/35
f 31/31/31 32/32/32 36/36/36
f 37/37/37 31/31/31 36/36/36
f 39/39/39 33/33/33 38/38/38
f 39/39/39 38/38/38 40/40/40
f 43/43/43 42/42/42 41/41/41
f 44/44/44 43/43/43 41/41/41
f 44/44/44 41/41/41 45/45/45
f 46/46/46 44/44/44 45/45/45
f 49/49/49 48/48/48 47/47/47
f 50/50/50 49/49/49 47/47/47
f 49/49/49 50/50/50 51/51/51
f 54/54/54 53/53/53 52/52/52
f 55/55/55 54/54/54 52/52/52
f 56/56/56 54/54/54 55/55/55
f 57/57/57 56/56/56 55/55/55
f 55/55/55 58/58/58 57/57/57
f 58/58/58 59/59/59 57/57/57
f 59/59/59 58/58/58 60/60/60
f 58/58/58 61/61/61 60/60/60
f 62/62/62 60/60/60 61/61/61
f 63/63/63 62/62/62 61/61/61
f 63/63/63 61/61/61 64/64/64
f 65/65/65 63/63/63 64/64/64
f 68/68/68 67/67/67 66/66/66
f 69/69/69 68/68/68 66/66/66
f 70/70/70 68/68/68 69/69/69
f 71/71/71 70/70/70 69/69/69
f 71/71/71 69/69/69 72/72/72
f 69/69/69 66/66/66 73/73/73
f 69/69/69 73/73/73 72/72/72
f 66/66/66 74/74/74 73/73/73
f 74/74/74 75/75/75 73/73/73
f 73/73/73 76/76/76 72/72/72
f 75/75/75 76/76/76 73/73/73
f 75/75/75 77/77/77 76/76/76
f 77/77/77 78/78/78 76/76/76
f 78/78/78 77/77/77 79/79/79
f 77/77/77 80/80/80 79/79/79
f 79/79/79 80/80/80 81/81/81
f 80/80/80 82/82/82 81/81/81
f 82/82/82 83/83/83 81/81/81
f 79/79/79 81/81/81 84/84/84
f 83/83/83 85/85/85 81/81/81
f 81/81/81 85/85/85 84/84/84
f 85/85/85 86/86/86 84/84/84
f 89/89/89 88/88/88 87/87/87
f 88/88/88 90/90/90 87/87/87
f 90/90/90 91/91/91 87/87/87
f 91/91/91 90/90/90 92/92/92
f 90/90/90 93/93/93 92/92/92
f 92/92/92 93/93/93 94/94/94
f 97/97/97 96/96/96 95/95/95
f 96/96/96 98/98/98 95/95/95
f 96/96/96 99/99/99 98/98/98
f 99/99/99 100/100/100 98/98/98
f 103/103/103 102/102/102 101/101/101
f 102/102/102 104/104/104 101/101/101
f 104/104/104 102/102/102 105/105/105
f 102/102/102 106/106/106 105/105/105
f 109/109/109 108/108/108 107/107/107
f 110/110/110 109/109/109 107/107/107
f 111/111/111 109/109/109 110/110/110
f 112/112/112 111/111/111 110/110/110
f 112/112/112 110/110/110 113/113/113
f 110/110/110 114/114/114 113/113/113
f 110/110/110 107/107/107 114/114/114
f 107/107/107 115/115/115 114/114/114
f 116/116/116 115/115/115 107/107/107
f 119/119/119 118/118/118 117/117/117
f 118/118/118 120/120/120 117/117/117
f 120/120/120 118/118/118 121/121/121
f 124/124/124 123/123/123 122/122/122
f 125/125/125 124/124/124 122/122/122
f 126/126/126 124/124/124 125/125/125
f 127/127/127 126/126/126 125/125/125
f 128/128/128 127/127/127 125/125/125
f 129/129/129 128/128/128 125/125/125
f 129/129/129 125/125/125 122/122/122
f 130/130/130 129/129/129 122/122/122
f 133/133/133 132/132/132 131/131/131
f 133/133/133 134/134/134 132/132/132
f 137/137/137 136/136/136 135/135/135
f 136/136/136 138/138/138 135/135/135
