g HardWoodFence
v 0.180305 -0.129752 1.461955
v 0.180305 0.129752 1.461955
v 0.180305 0.129752 0.004068
v 0.180305 -0.129752 0.004068
v 0.129752 -0.180305 0.004068
v 0.180305 -0.129752 0.004068
v 0.180305 0.129752 0.004068
v 0.129752 0.180305 0.004068
v -0.129752 -0.180305 0.004068
v -0.129752 0.180305 0.004068
v -0.180305 -0.129752 0.004068
v -0.180305 0.129752 0.004068
v 0.129752 0.180305 1.461955
v 0.180305 0.129752 1.461955
v 0.180305 -0.129752 1.461955
v 0.129752 -0.180305 1.461955
v -0.129752 0.180305 1.461955
v -0.129752 -0.180305 1.461955
v -0.180305 0.129752 1.461955
v -0.180305 -0.129752 1.461955
v 0.129752 -0.180305 1.461955
v 0.180305 -0.129752 1.461955
v 0.180305 -0.129752 0.004068
v 0.129752 -0.180305 0.004068
v -0.129752 -0.180305 1.461955
v -0.129752 -0.180305 0.004068
v -0.180305 -0.129752 1.461955
v -0.180305 -0.129752 0.004068
v -0.129752 0.180305 1.461955
v -0.180305 0.129752 1.461955
v -0.180305 0.129752 0.004068
v -0.129752 0.180305 0.004068
v 0.129752 0.180305 1.461955
v 0.129752 0.180305 0.004068
v 0.180305 0.129752 1.461955
v 0.180305 0.129752 0.004068
v -0.180305 0.129752 1.461955
v -0.180305 -0.129752 1.461955
v -0.180305 -0.129752 0.004068
v -0.180305 0.129752 0.004068
vt 0.91995 0.984908
vt 0.963896 0.984908
vt 0.963896 0.73802
vt 0.91995 0.73802
vt 0.116334 0.878265
vt 0.125965 0.887896
vt 0.125965 0.937338
vt 0.116334 0.946969
vt 0.066892 0.878265
vt 0.066892 0.946969
vt 0.057261 0.887896
vt 0.057261 0.937338
vt 0.472547 0.966652
vt 0.487697 0.951502
vt 0.487697 0.873732
vt 0.472547 0.858582
vt 0.394776 0.966652
vt 0.394776 0.858582
vt 0.379626 0.951502
vt 0.379626 0.873732
vt 0.960512 0.984548
vt 0.970362 0.984548
vt 0.970362 0.729079
vt 0.960512 0.729079
vt 0.924758 0.984548
vt 0.924758 0.729079
vt 0.914909 0.984548
vt 0.914909 0.729079
vt 0.960508 0.984544
vt 0.970357 0.984548
vt 0.970426 0.729103
vt 0.960577 0.729099
vt 0.924758 0.984528
vt 0.924827 0.729083
vt 0.914909 0.984524
vt 0.914978 0.729079
vt 0.920506 0.984908
vt 0.964452 0.984908
vt 0.964452 0.73802
vt 0.920506 0.73802
vn 0.9869675 -0.1609194 0
vn 0.9869675 0.1609194 0
vn 0.9869675 0.1609194 0
vn 0.9869675 -0.1609194 0
vn 0 0 -1
vn 0 0 -1
vn 0 0 -1
vn 0 0 -1
vn 0 0 -1
vn 0 0 -1
vn 0 0 -1
vn 0 0 -1
vn 0 0 1
vn 0 0 1
vn 0 0 1
vn 0 0 1
vn 0 0 1
vn 0 0 1
vn 0 0 1
vn 0 0 1
vn 0.1609194 -0.9869675 0
vn 0.9869675 -0.1609194 0
vn 0.9869675 -0.1609194 0
vn 0.1609194 -0.9869675 0
vn -0.1609194 -0.9869675 0
vn -0.1609194 -0.9869675 0
vn -0.9869675 -0.1609194 0
vn -0.9869675 -0.1609194 0
vn -0.1609194 0.9869675 0
vn -0.9869675 0.1609194 0
vn -0.9869675 0.1609194 0
vn -0.1609194 0.9869675 0
vn 0.1609194 0.9869675 0
vn 0.1609194 0.9869675 0
vn 0.9869675 0.1609194 0
vn 0.9869675 0.1609194 0
vn -0.9869675 0.1609194 0
vn -0.9869675 -0.1609194 0
vn -0.9869675 -0.1609194 0
vn -0.9869675 0.1609194 0
g HardWoodFence_0
f 3/3/3 2/2/2 1/1/1
f 4/4/4 3/3/3 1/1/1
f 7/7/7 6/6/6 5/5/5
f 5/5/5 8/8/8 7/7/7
f 5/5/5 9/9/9 8/8/8
f 9/9/9 10/10/10 8/8/8
f 9/9/9 11/11/11 10/10/10
f 11/11/11 12/12/12 10/10/10
f 15/15/15 14/14/14 13/13/13
f 13/13/13 16/16/16 15/15/15
f 13/13/13 17/17/17 16/16/16
f 17/17/17 18/18/18 16/16/16
f 17/17/17 19/19/19 18/18/18
f 19/19/19 20/20/20 18/18/18
f 23/23/23 22/22/22 21/21/21
f 24/24/24 23/23/23 21/21/21
f 24/24/24 21/21/21 25/25/25
f 26/26/26 24/24/24 25/25/25
f 25/25/25 27/27/27 26/26/26
f 27/27/27 28/28/28 26/26/26
f 31/31/31 30/30/30 29/29/29
f 32/32/32 31/31/31 29/29/29
f 32/32/32 29/29/29 33/33/33
f 34/34/34 32/32/32 33/33/33
f 33/33/33 35/35/35 34/34/34
f 35/35/35 36/36/36 34/34/34
f 39/39/39 38/38/38 37/37/37
f 40/40/40 39/39/39 37/37/37
