g HarlequinWings
v 0 0.439933 -0.030566
v 0 -0.451996 -0.030566
v -0.733205 -0.451996 0.492316
v -0.733205 0.439933 0.492316
v 0 0.439933 -0.030566
v -0.733205 0.439933 0.492316
v -0.733205 -0.451996 0.492316
v 0 -0.451996 -0.030566
v 0 0.439933 -0.030566
v 0.733205 0.439933 0.492316
v 0.733205 -0.451996 0.492316
v 0 -0.451996 -0.030566
v 0 0.439933 -0.030566
v 0 -0.451996 -0.030566
v 0.733205 -0.451996 0.492316
v 0.733205 0.439933 0.492316
vt 0.523733 0.056488
vt 0.523733 0.15283
vt 0.586064 0.15283
vt 0.586064 0.056488
vt 0.523733 0.056488
vt 0.586064 0.056488
vt 0.586064 0.15283
vt 0.523733 0.15283
vt 0.523733 0.056488
vt 0.586064 0.056488
vt 0.586064 0.15283
vt 0.523733 0.15283
vt 0.523733 0.056488
vt 0.523733 0.15283
vt 0.586064 0.15283
vt 0.586064 0.056488
vn 0.5806234 0 0.8141723
vn 0.5806234 0 0.8141723
vn 0.5806234 0 0.8141723
vn 0.5806234 0 0.8141723
vn -0.5806234 0 -0.8141723
vn -0.5806234 0 -0.8141723
vn -0.5806234 0 -0.8141723
vn -0.5806234 0 -0.8141723
vn -0.5806234 0 0.8141723
vn -0.5806234 0 0.8141723
vn -0.5806234 0 0.8141723
vn -0.5806234 0 0.8141723
vn 0.5806234 0 -0.8141723
vn 0.5806234 0 -0.8141723
vn 0.5806234 0 -0.8141723
vn 0.5806234 0 -0.8141723
g HarlequinWings_0
f 3/3/3 2/2/2 1/1/1
f 4/4/4 3/3/3 1/1/1
f 7/7/7 6/6/6 5/5/5
f 8/8/8 7/7/7 5/5/5
f 11/11/11 10/10/10 9/9/9
f 12/12/12 11/11/11 9/9/9
f 15/15/15 14/14/14 13/13/13
f 16/16/16 15/15/15 13/13/13
