g HelicopterCollider
v 0.655356 -1.092118 -0.310171
v 0 -1.092118 -0.67901
v 0 -1.092118 -0.310171
v 0.655356 -1.092118 -0.67901
v 0 -1.092118 -1.480404
v 0.655356 -1.092118 -1.480404
v -0.655356 -1.092118 -0.67901
v -0.655357 -1.092118 -1.480404
v 0.655356 0.243332 -0.31017
v 0 0.243332 -0.310171
v 0 0.243332 -0.679009
v 0.655356 0.243332 -0.679009
v 0 0.243333 -1.480403
v 0.655356 0.243333 -1.480403
v -0.655356 0.243332 -0.679009
v -0.655356 0.243333 -1.480403
v 0.655356 -1.092118 -1.480404
v 0.655356 0.243332 -0.679009
v 0.655356 0.243333 -1.480403
v 0.655356 -1.092118 -0.67901
v 0.655356 0.243332 -0.31017
v 0.655356 -1.092118 -0.310171
v 0 -1.092118 -1.480404
v 0.655356 -1.092118 -1.480404
v 0.655356 0.243333 -1.480403
v 0 0.243333 -1.480403
v -0.655356 0.243333 -1.480403
v -0.655357 -1.092118 -1.480404
v 0.655356 -1.092118 -0.310171
v 0 0.243332 -0.310171
v 0.655356 0.243332 -0.31017
v 0 -1.092118 -0.310171
v -0.655356 -1.092118 -0.310171
v -0.655356 0.243332 -0.31017
v -0.655356 -1.092118 -0.310171
v 0 -1.092118 -0.310171
v 0 -1.092118 -0.67901
v -0.655356 -1.092118 -0.67901
v -0.655356 0.243332 -0.31017
v -0.655356 0.243332 -0.679009
v 0 0.243332 -0.679009
v 0 0.243332 -0.310171
v -0.655357 -1.092118 -1.480404
v -0.655356 0.243333 -1.480403
v -0.655356 0.243332 -0.679009
v -0.655356 -1.092118 -0.67901
v -0.655356 0.243332 -0.31017
v -0.655356 -1.092118 -0.310171
v 1.296668 -0.805066 1.340851
v 1.296668 -0.805065 -1.273972
v -1.296668 -0.805064 -1.273972
v -1.296668 -0.805066 1.34085
v 1.296668 -0.497183 1.88149
v -1.296668 -0.497183 1.881489
v 1.296668 -0.187525 1.88149
v -1.296668 -0.187525 1.881489
v 1.296668 -0.495408 1.340851
v -1.296668 -0.495406 -1.273972
v 1.296668 -0.495406 -1.273971
v -1.296668 -0.495407 1.34085
v 1.296668 -0.187525 1.88149
v -1.296668 -0.187525 1.881489
v -1.296668 -0.805064 -1.273972
v -1.296668 -0.495406 -1.273972
v -1.296668 -0.495407 1.34085
v -1.296668 -0.805066 1.34085
v -1.296668 -0.187525 1.881489
v -1.296668 -0.497183 1.881489
v 1.296668 -0.805065 -1.273972
v 1.296668 -0.495406 -1.273971
v -1.296668 -0.495406 -1.273972
v -1.296668 -0.805064 -1.273972
v 1.296668 -0.805066 1.340851
v 1.296668 -0.495406 -1.273971
v 1.296668 -0.805065 -1.273972
v 1.296668 -0.495408 1.340851
v 1.296668 -0.497183 1.88149
v 1.296668 -0.187525 1.88149
v 0 -0.402299 -0.762359
v 0.156114 0.845634 -2.014566
v 0.156113 -0.402299 -0.762359
v 0 0.845634 -2.014566
v 0.156114 0.86891 -2.415158
v 0 0.86891 -2.415158
v -0.156113 0.845634 -2.014566
v -0.156113 -0.402299 -0.762359
v -0.156113 0.86891 -2.415158
v 0 -0.842788 -1.973065
v 0.156113 -0.842788 -1.973065
v 0.156114 0.86891 -2.415158
v 0 0.86891 -2.415158
v -0.156113 0.86891 -2.415158
v -0.156113 -0.842788 -1.973065
v -0.156113 -0.402299 -0.762359
v -0.156113 -0.842788 -1.973065
v -0.156113 0.86891 -2.415158
v -0.156113 0.845634 -2.014566
v 0 -0.402299 -0.762359
v -0.156113 -0.842788 -1.973065
v -0.156113 -0.402299 -0.762359
v 0 -0.842788 -1.973065
v 0.156113 -0.402299 -0.762359
v 0.156113 -0.842788 -1.973065
v 0.156114 0.845634 -2.014566
v 0.156114 0.86891 -2.415158
v 0.156113 -0.842788 -1.973065
v 0.156113 -0.402299 -0.762359
v 0.680818 -0.580578 0.770925
v 0.680818 -0.580577 -1.273971
v -0.680819 -0.580577 -1.273972
v -0.680819 -0.580578 0.770924
v 0.199069 -0.580578 0.927646
v -0.19907 -0.580578 0.927645
v 0.199069 -0.272695 1.739488
v -0.19907 -0.272695 1.739487
v 0.199069 0.16528 1.739488
v -0.19907 0.16528 1.739487
v 0.680818 -0.27092 0.770925
v -0.680819 -0.270918 -1.273972
v 0.680818 -0.270918 -1.273971
v -0.680819 -0.270919 0.770925
v 0.199069 0.165281 0.927646
v -0.19907 0.165281 0.927646
v 0.199069 0.16528 1.739488
v -0.19907 0.16528 1.739487
v -0.19907 -0.580578 0.927645
v -0.19907 0.16528 1.739487
v -0.19907 -0.272695 1.739487
v -0.19907 0.165281 0.927646
v -0.680819 -0.580578 0.770924
v -0.680819 -0.270919 0.770925
v -0.680819 -0.580577 -1.273972
v -0.680819 -0.270918 -1.273972
v 0.680818 -0.580577 -1.273971
v 0.680818 -0.270918 -1.273971
v -0.680819 -0.270918 -1.273972
v -0.680819 -0.580577 -1.273972
v 0.680818 -0.580578 0.770925
v 0.680818 -0.270918 -1.273971
v 0.680818 -0.580577 -1.273971
v 0.680818 -0.27092 0.770925
v 0.199069 -0.580578 0.927646
v 0.199069 0.165281 0.927646
v 0.199069 -0.272695 1.739488
v 0.199069 0.16528 1.739488
vt 0.170425 0.822204
vt 0.127872 0.810274
vt 0.166931 0.829888
vt 0.132163 0.803498
vt 0.127872 0.810274
vt 0.132163 0.803498
vt 0.132163 0.803498
vt 0.132163 0.803498
vt 0.170425 0.822204
vt 0.166931 0.829888
vt 0.127872 0.810274
vt 0.132163 0.803498
vt 0.127872 0.810274
vt 0.132163 0.803498
vt 0.132163 0.803498
vt 0.132163 0.803498
vt 0.132163 0.803498
vt 0.132163 0.803498
vt 0.132163 0.803498
vt 0.132163 0.803498
vt 0.170425 0.822204
vt 0.170425 0.822204
vt 0.127872 0.810274
vt 0.132163 0.803498
vt 0.132163 0.803498
vt 0.127872 0.810274
vt 0.132163 0.803498
vt 0.132163 0.803498
vt 0.170425 0.822204
vt 0.166931 0.829888
vt 0.170425 0.822204
vt 0.166931 0.829888
vt 0.170425 0.822204
vt 0.170425 0.822204
vt 0.170425 0.822204
vt 0.166931 0.829888
vt 0.127872 0.810274
vt 0.132163 0.803498
vt 0.170425 0.822204
vt 0.132163 0.803498
vt 0.127872 0.810274
vt 0.166931 0.829888
vt 0.132163 0.803498
vt 0.132163 0.803498
vt 0.132163 0.803498
vt 0.132163 0.803498
vt 0.170425 0.822204
vt 0.170425 0.822204
vt 0.132163 0.803498
vt 0.132163 0.803498
vt 0.127872 0.810274
vt 0.127872 0.810274
vt 0.132163 0.803498
vt 0.127872 0.810274
vt 0.132163 0.803498
vt 0.127872 0.810274
vt 0.132163 0.803498
vt 0.127872 0.810274
vt 0.132163 0.803498
vt 0.127872 0.810274
vt 0.132163 0.803498
vt 0.127872 0.810274
vt 0.127872 0.810274
vt 0.127872 0.810274
vt 0.127872 0.810274
vt 0.127872 0.810274
vt 0.127872 0.810274
vt 0.127872 0.810274
vt 0.132163 0.803498
vt 0.132163 0.803498
vt 0.127872 0.810274
vt 0.127872 0.810274
vt 0.132163 0.803498
vt 0.132163 0.803498
vt 0.132163 0.803498
vt 0.132163 0.803498
vt 0.132163 0.803498
vt 0.132163 0.803498
vt 0.127872 0.810274
vt 0.132163 0.803498
vt 0.132163 0.803498
vt 0.127872 0.810274
vt 0.132163 0.803498
vt 0.127872 0.810274
vt 0.132163 0.803498
vt 0.132163 0.803498
vt 0.132163 0.803498
vt 0.127872 0.810274
vt 0.132163 0.803498
vt 0.132163 0.803498
vt 0.127872 0.810274
vt 0.132163 0.803498
vt 0.132163 0.803498
vt 0.132163 0.803498
vt 0.132163 0.803498
vt 0.132163 0.803498
vt 0.132163 0.803498
vt 0.127872 0.810274
vt 0.132163 0.803498
vt 0.132163 0.803498
vt 0.127872 0.810274
vt 0.132163 0.803498
vt 0.132163 0.803498
vt 0.132163 0.803498
vt 0.132163 0.803498
vt 0.132163 0.803498
vt 0.132163 0.803498
vt 0.132163 0.803498
vt 0.132163 0.803498
vt 0.127872 0.810274
vt 0.127872 0.810274
vt 0.132163 0.803498
vt 0.127872 0.810274
vt 0.132163 0.803498
vt 0.127872 0.810274
vt 0.132163 0.803498
vt 0.127872 0.810274
vt 0.132163 0.803498
vt 0.127872 0.810274
vt 0.132163 0.803498
vt 0.127872 0.810274
vt 0.132163 0.803498
vt 0.127872 0.810274
vt 0.132163 0.803498
vt 0.127872 0.810274
vt 0.127872 0.810274
vt 0.127872 0.810274
vt 0.127872 0.810274
vt 0.127872 0.810274
vt 0.127872 0.810274
vt 0.127872 0.810274
vt 0.127872 0.810274
vt 0.127872 0.810274
vt 0.132163 0.803498
vt 0.132163 0.803498
vt 0.127872 0.810274
vt 0.127872 0.810274
vt 0.132163 0.803498
vt 0.132163 0.803498
vt 0.132163 0.803498
vt 0.132163 0.803498
vt 0.132163 0.803498
vt 0.132163 0.803498
vt 0.132163 0.803498
vt 0.132163 0.803498
vn 0 -1 0
vn 0 -1 0
vn 0 -1 0
vn 0 -1 0
vn 0 -1 0
vn 0 -1 0
vn 0 -1 0
vn 0 -1 0
vn 0 1 0
vn 0 1 0
vn 0 1 0
vn 0 1 0
vn 0 1 0
vn 0 1 0
vn 0 1 0
vn 0 1 0
vn 1 0 0
vn 1 0 0
vn 1 0 0
vn 1 0 0
vn 1 0 0
vn 1 0 0
vn 0 0 -1
vn 0 0 -1
vn 0 0 -1
vn 0 0 -1
vn 0 0 -1
vn 0 0 -1
vn 0 0 1
vn 0 0 1
vn 0 0 1
vn 0 0 1
vn 0 0 1
vn 0 0 1
vn 0 -1 0
vn 0 -1 0
vn 0 -1 0
vn 0 -1 0
vn 0 1 0
vn 0 1 0
vn 0 1 0
vn 0 1 0
vn -1 0 0
vn -1 0 0
vn -1 0 0
vn -1 0 0
vn -1 0 0
vn -1 0 0
vn 0 -0.9952738 0.09710988
vn 0 -1 0
vn 0 -1 0
vn 0 -0.9952738 0.09710982
vn 0 -0.6587052 0.7524012
vn 0 -0.6587052 0.7524011
vn 0 0 1
vn 0 0 1
vn 0 0.9952738 -0.09710974
vn 0 1 0
vn 0 1 0
vn 0 0.9952738 -0.09710969
vn 0 0.8689721 -0.4948611
vn 0 0.8689721 -0.4948612
vn -1 0 0
vn -1 0 0
vn -1 0 0
vn -1 0 0
vn -1 0 0
vn -1 0 0
vn 0 0 -1
vn 0 0 -1
vn 0 0 -1
vn 0 0 -1
vn 1 0 0
vn 1 0 0
vn 1 0 0
vn 1 0 0
vn 1 0 0
vn 1 0 0
vn 0 0.7083145 0.7058969
vn 0 0.7926648 0.6096578
vn 0 0.7083145 0.705897
vn 0 0.7926646 0.6096579
vn 0 0.9983162 0.05800623
vn 0 0.9983162 0.05800624
vn 0 0.7926645 0.6096581
vn 0 0.7083146 0.7058969
vn 0 0.9983162 0.05800623
vn 0 -0.2500713 -0.9682274
vn 0 -0.2500713 -0.9682274
vn 0 -0.2500713 -0.9682274
vn 0 -0.2500713 -0.9682274
vn 0 -0.2500713 -0.9682274
vn 0 -0.2500713 -0.9682274
vn -1 0 0
vn -1 0 0
vn -1 0 0
vn -1 0 0
vn 0 -0.9397355 0.3419023
vn 0 -0.9397355 0.3419023
vn 0 -0.9397355 0.3419023
vn 0 -0.9397355 0.3419023
vn 0 -0.9397355 0.3419023
vn 0 -0.9397355 0.3419023
vn 1 0 0
vn 1 0 0
vn 1 0 0
vn 1 0 0
vn 0 -1 0
vn 0 -1 0
vn 0 -1 0
vn 0 -1 0
vn 0 -0.9777549 0.209751
vn 0 -0.977755 0.2097506
vn 0 -0.7363991 0.6765475
vn 0 -0.7363997 0.6765468
vn 0 0 1
vn 0 0 1
vn 0 0.9978526 -0.06549978
vn 0 1 0
vn 0 1 0
vn 0 0.9978526 -0.0654998
vn 0 0.6755224 -0.7373393
vn 0 0.6755224 -0.7373395
vn 0 1 0
vn 0 1 0
vn -0.8717449 0 0.48996
vn -1 0 0
vn -1 0 0
vn -0.9667057 0 0.255891
vn -0.942342 0 0.3346514
vn -0.8979148 0 0.4401695
vn -1 0 0
vn -1 0 0
vn 0 0 -1
vn 0 0 -1
vn 0 0 -1
vn 0 0 -1
vn 0.9423416 0 0.3346524
vn 1 0 0
vn 1 0 0
vn 0.8979149 0 0.440169
vn 0.8717455 0 0.489959
vn 0.9667057 0 0.2558906
vn 1 0 0
vn 1 0 0
g HelicopterCollider_0
f 3/3/3 2/2/2 1/1/1
f 2/2/2 4/4/4 1/1/1
f 2/2/2 5/5/5 4/4/4
f 5/5/5 6/6/6 4/4/4
f 5/5/5 2/2/2 7/7/7
f 8/8/8 5/5/5 7/7/7
f 11/11/11 10/10/10 9/9/9
f 12/12/12 11/11/11 9/9/9
f 13/13/13 11/11/11 12/12/12
f 14/14/14 13/13/13 12/12/12
f 11/11/11 13/13/13 15/15/15
f 13/13/13 16/16/16 15/15/15
f 19/19/19 18/18/18 17/17/17
f 18/18/18 20/20/20 17/17/17
f 18/18/18 21/21/21 20/20/20
f 21/21/21 22/22/22 20/20/20
f 25/25/25 24/24/24 23/23/23
f 26/26/26 25/25/25 23/23/23
f 27/27/27 26/26/26 23/23/23
f 28/28/28 27/27/27 23/23/23
f 31/31/31 30/30/30 29/29/29
f 30/30/30 32/32/32 29/29/29
f 32/32/32 30/30/30 33/33/33
f 30/30/30 34/34/34 33/33/33
f 37/37/37 36/36/36 35/35/35
f 38/38/38 37/37/37 35/35/35
f 41/41/41 40/40/40 39/39/39
f 42/42/42 41/41/41 39/39/39
f 45/45/45 44/44/44 43/43/43
f 46/46/46 45/45/45 43/43/43
f 47/47/47 45/45/45 46/46/46
f 48/48/48 47/47/47 46/46/46
f 51/51/51 50/50/50 49/49/49
f 52/52/52 51/51/51 49/49/49
f 52/52/52 49/49/49 53/53/53
f 54/54/54 52/52/52 53/53/53
f 53/53/53 55/55/55 54/54/54
f 55/55/55 56/56/56 54/54/54
f 59/59/59 58/58/58 57/57/57
f 58/58/58 60/60/60 57/57/57
f 57/57/57 60/60/60 61/61/61
f 60/60/60 62/62/62 61/61/61
f 65/65/65 64/64/64 63/63/63
f 66/66/66 65/65/65 63/63/63
f 67/67/67 65/65/65 66/66/66
f 68/68/68 67/67/67 66/66/66
f 71/71/71 70/70/70 69/69/69
f 72/72/72 71/71/71 69/69/69
f 75/75/75 74/74/74 73/73/73
f 74/74/74 76/76/76 73/73/73
f 73/73/73 76/76/76 77/77/77
f 76/76/76 78/78/78 77/77/77
f 81/81/81 80/80/80 79/79/79
f 80/80/80 82/82/82 79/79/79
f 80/80/80 83/83/83 82/82/82
f 83/83/83 84/84/84 82/82/82
f 82/82/82 85/85/85 79/79/79
f 82/82/82 84/84/84 85/85/85
f 85/85/85 86/86/86 79/79/79
f 84/84/84 87/87/87 85/85/85
f 90/90/90 89/89/89 88/88/88
f 91/91/91 90/90/90 88/88/88
f 92/92/92 91/91/91 88/88/88
f 93/93/93 92/92/92 88/88/88
f 96/96/96 95/95/95 94/94/94
f 97/97/97 96/96/96 94/94/94
f 100/100/100 99/99/99 98/98/98
f 99/99/99 101/101/101 98/98/98
f 98/98/98 101/101/101 102/102/102
f 101/101/101 103/103/103 102/102/102
f 106/106/106 105/105/105 104/104/104
f 107/107/107 106/106/106 104/104/104
f 110/110/110 109/109/109 108/108/108
f 111/111/111 110/110/110 108/108/108
f 111/111/111 108/108/108 112/112/112
f 113/113/113 111/111/111 112/112/112
f 113/113/113 112/112/112 114/114/114
f 115/115/115 113/113/113 114/114/114
f 114/114/114 116/116/116 115/115/115
f 116/116/116 117/117/117 115/115/115
f 120/120/120 119/119/119 118/118/118
f 119/119/119 121/121/121 118/118/118
f 118/118/118 121/121/121 122/122/122
f 121/121/121 123/123/123 122/122/122
f 122/122/122 123/123/123 124/124/124
f 123/123/123 125/125/125 124/124/124
f 128/128/128 127/127/127 126/126/126
f 127/127/127 129/129/129 126/126/126
f 126/126/126 129/129/129 130/130/130
f 129/129/129 131/131/131 130/130/130
f 130/130/130 131/131/131 132/132/132
f 131/131/131 133/133/133 132/132/132
f 136/136/136 135/135/135 134/134/134
f 137/137/137 136/136/136 134/134/134
f 140/140/140 139/139/139 138/138/138
f 139/139/139 141/141/141 138/138/138
f 138/138/138 141/141/141 142/142/142
f 141/141/141 143/143/143 142/142/142
f 142/142/142 143/143/143 144/144/144
f 143/143/143 145/145/145 144/144/144
