g HouseDoorMat
v -1.139703 -0.001191 -0.019622
v 1.139703 -0.001191 -0.019622
v 1.139703 -0.001191 0.162971
v -1.139703 -0.001191 0.162971
v -1.139703 -0.001191 0.162971
v 1.139703 -0.001191 0.162971
v 1.139703 -0.484645 0.162971
v 0.965856 -0.852904 0.162971
v 0.54615 -1.005442 0.162971
v -0.54615 -1.005442 0.162971
v -0.965856 -0.852904 0.162971
v -1.139703 -0.484645 0.162971
v -1.139703 -0.484645 -0.019622
v -1.139703 -0.001191 -0.019622
v -1.139703 -0.001191 0.162971
v -1.139703 -0.484645 0.162971
v -0.965856 -0.852904 -0.019622
v -0.965856 -0.852904 0.162971
v -0.54615 -1.005442 -0.019622
v -0.54615 -1.005442 0.162971
v 0.54615 -1.005442 -0.019622
v 0.54615 -1.005442 0.162971
v 0.965856 -0.852904 -0.019622
v 0.965856 -0.852904 0.162971
v 1.139703 -0.484645 -0.019622
v 1.139703 -0.484645 0.162971
v 1.139703 -0.001191 -0.019622
v 1.139703 -0.001191 0.162971
vt 0.256304 0.907979
vt 0.743696 0.907979
vt 0.743696 0.984854
vt 0.256304 0.984854
vt 0.24484 0.618066
vt 0.755118 0.618242
vt 0.75516 0.494894
vt 0.716274 0.400923
vt 0.622331 0.361973
vt 0.377804 0.361888
vt 0.283833 0.400774
vt 0.244882 0.494718
vt 0.256304 0.907979
vt 0.256304 0.907979
vt 0.256304 0.984854
vt 0.256304 0.984854
vt 0.293477 0.907979
vt 0.293477 0.984854
vt 0.38322 0.907979
vt 0.38322 0.984854
vt 0.61678 0.907979
vt 0.61678 0.984854
vt 0.706523 0.907979
vt 0.706523 0.984854
vt 0.743696 0.907979
vt 0.743696 0.984854
vt 0.743696 0.907979
vt 0.743696 0.984854
vn 0 1 0
vn 0 1 0
vn 0 1 0
vn 0 1 0
vn 0 0 1
vn 0 0 1
vn 0 0 1
vn 0 0 1
vn 0 0 1
vn 0 0 1
vn 0 0 1
vn 0 0 1
vn -0.9797977 -0.199991 0
vn -1 0 0
vn -1 0 0
vn -0.9797977 -0.199991 0
vn -0.6595355 -0.7516735 0
vn -0.6595355 -0.7516735 0
vn -0.100375 -0.9949497 0
vn -0.100375 -0.9949497 0
vn 0.100375 -0.9949497 0
vn 0.100375 -0.9949497 0
vn 0.6595355 -0.7516735 0
vn 0.6595355 -0.7516735 0
vn 0.9797977 -0.199991 0
vn 0.9797977 -0.199991 0
vn 1 0 0
vn 1 0 0
g HouseDoorMat_0
f 3/3/3 2/2/2 1/1/1
f 4/4/4 3/3/3 1/1/1
f 7/7/7 6/6/6 5/5/5
f 5/5/5 8/8/8 7/7/7
f 5/5/5 9/9/9 8/8/8
f 5/5/5 10/10/10 9/9/9
f 5/5/5 11/11/11 10/10/10
f 5/5/5 12/12/12 11/11/11
f 15/15/15 14/14/14 13/13/13
f 16/16/16 15/15/15 13/13/13
f 16/16/16 13/13/13 17/17/17
f 18/18/18 16/16/16 17/17/17
f 18/18/18 17/17/17 19/19/19
f 20/20/20 18/18/18 19/19/19
f 20/20/20 19/19/19 21/21/21
f 22/22/22 20/20/20 21/21/21
f 21/21/21 23/23/23 22/22/22
f 23/23/23 24/24/24 22/22/22
f 23/23/23 25/25/25 24/24/24
f 25/25/25 26/26/26 24/24/24
f 26/26/26 25/25/25 27/27/27
f 28/28/28 26/26/26 27/27/27
