g House_Roof_4x4
v 4.259949 4 4
v 4.259949 4 4.198703
v 0.050719 4 6.215695
v 0.050719 4 6.016992
v -4.259949 4 4.198703
v -4.259949 4 4
v -4.259949 4 4
v -4.259949 4 4.198703
v -4.259949 -4 4.198703
v -4.259949 -4 4
v 0.050719 -4 6.215695
v 0.050719 4 6.215695
v 4.259949 4 4.198703
v 4.259949 -4 4.198703
v -4.259949 -4 4.198703
v -4.259949 4 4.198703
v 0.050719 4 6.215695
v 0.050719 -4 6.215695
v 0.050719 -4 6.016992
v 4.259949 -4 4.198703
v 4.259949 -4 4
v 0.050719 -4 6.215695
v -4.259949 -4 4
v -4.259949 -4 4.198703
v 4.259949 -4 4
v 4.259949 -4 4.198703
v 4.259949 4 4.198703
v 4.259949 4 4
v 0.231401 3.98641 6.177841
v 0.231401 3.98641 5.878585
v 0.231401 -3.98641 5.878585
v 0.231401 -3.98641 6.177841
v -0.120286 -3.98641 6.177841
v -0.120286 -3.98641 5.878585
v -0.120286 3.98641 5.878585
v -0.120286 3.98641 6.177841
v -0.120286 -3.98641 6.177841
v -0.120286 3.98641 6.177841
v 0.055557 3.98641 6.289262
v 0.055557 -3.98641 6.289262
v 0.055557 -3.98641 6.289262
v 0.055557 3.98641 6.289262
v 0.231401 3.98641 6.177841
v 0.231401 -3.98641 6.177841
v 0.231401 -3.98641 6.177841
v 0.231401 -3.98641 5.878585
v -0.120286 -3.98641 5.878585
v -0.120286 -3.98641 6.177841
v 0.055557 -3.98641 6.289262
v -0.120286 3.98641 6.177841
v -0.120286 3.98641 5.878585
v 0.231401 3.98641 5.878585
v 0.231401 3.98641 6.177841
v 0.055557 3.98641 6.289262
v 0.050719 4 6.016992
v -4.259949 4 4
v 4.259949 4 4
v 0.050719 -4 6.016992
v 4.259949 -4 4
v -4.259949 -4 4
v -4.259949 4 4
v -4.259949 -4 4
v 4.259949 -4 4
v 4.259949 4 4
vt 4.3E-05 4.3E-05
vt 4.3E-05 4.3E-05
vt 0.5 0.187527
vt 0.5 0.187527
vt 0.999957 4.3E-05
vt 0.999957 4.3E-05
vt 0.999957 4.3E-05
vt 0.999957 4.3E-05
vt 4.3E-05 4.3E-05
vt 4.3E-05 4.3E-05
vt 0 0.5
vt 1 0.5
vt 1 0
vt 0 0
vt 1 0.5
vt 0 0.5
vt 0 1
vt 1 1
vt 0.5 0.187527
vt 0.999957 4.3E-05
vt 0.999957 4.3E-05
vt 0.5 0.187527
vt 4.3E-05 4.3E-05
vt 4.3E-05 4.3E-05
vt 1 0
vt 1 0
vt 4.3E-05 4.3E-05
vt 4.3E-05 4.3E-05
vt 1 0.4375
vt 1 0.4375
vt 0 0.4375
vt 0 0.4375
vt 1 0.9375
vt 1 0.9375
vt 0 0.9375
vt 0 0.9375
vt 1 0.9375
vt 0 0.9375
vt 0 1
vt 1 1
vt 0 0.5
vt 1 0.5
vt 1 0.4375
vt 0 0.4375
vt 0 0.4375
vt 0 0.4375
vt 1 0.9375
vt 1 0.9375
vt 0 0.5
vt 0 0.9375
vt 0 0.9375
vt 1 0.4375
vt 1 0.4375
vt 0 1
vt 0.506187 0.641633
vt -0.019613 0.395608
vt 1.019613 0.395608
vt 0.506187 0.641633
vt 1.019613 0.395608
vt -0.019613 0.395608
vt 0.999957 4.3E-05
vt 4.3E-05 4.3E-05
vt 1 0
vt 4.3E-05 4.3E-05
vn 0 1 0
vn 0 1 0
vn 0 1 0
vn 0 1 0
vn 0 1 0
vn 0 1 0
vn -1 0 0
vn -0.843744 0 0.5367458
vn -0.843744 0 0.5367458
vn -1 0 0
vn 0.004605273 0 0.9999894
vn 0.004605273 0 0.9999894
vn 0.846207 0 0.5328544
vn 0.846207 0 0.5328544
vn -0.843744 0 0.5367458
vn -0.843744 0 0.5367458
vn 0.004605273 0 0.9999894
vn 0.004605273 0 0.9999894
vn 0 -1 0
vn 0 -1 0
vn 0 -1 0
vn 0 -1 0
vn 0 -1 0
vn 0 -1 0
vn 1 0 0
vn 0.846207 0 0.5328544
vn 0.846207 0 0.5328544
vn 1 0 0
vn 0.8761373 0 0.4820617
vn 1 0 0
vn 1 0 0
vn 0.8761373 0 0.4820617
vn -0.8761379 0 0.4820606
vn -1 0 0
vn -1 0 0
vn -0.8761379 0 0.4820606
vn -0.8761379 0 0.4820606
vn -0.8761379 0 0.4820606
vn 0 0 1
vn 0 0 1
vn 0 0 1
vn 0 0 1
vn 0.8761373 0 0.4820617
vn 0.8761373 0 0.4820617
vn 0 -1 0
vn 0 -1 0
vn 0 -1 0
vn 0 -1 0
vn 0 -1 0
vn 0 1 0
vn 0 1 0
vn 0 1 0
vn 0 1 0
vn 0 1 0
vn 0 1 0
vn 0 1 0
vn 0 1 0
vn 0 -1 0
vn 0 -1 0
vn 0 -1 0
vn 0 0 -1
vn 0 0 -1
vn 0 0 -1
vn 0 0 -1
g House_Roof_4x4_0
f 3/3/3 2/2/2 1/1/1
f 4/4/4 3/3/3 1/1/1
f 5/5/5 3/3/3 4/4/4
f 6/6/6 5/5/5 4/4/4
f 9/9/9 8/8/8 7/7/7
f 10/10/10 9/9/9 7/7/7
f 13/13/13 12/12/12 11/11/11
f 14/14/14 13/13/13 11/11/11
f 17/17/17 16/16/16 15/15/15
f 18/18/18 17/17/17 15/15/15
f 21/21/21 20/20/20 19/19/19
f 20/20/20 22/22/22 19/19/19
f 19/19/19 22/22/22 23/23/23
f 22/22/22 24/24/24 23/23/23
f 27/27/27 26/26/26 25/25/25
f 28/28/28 27/27/27 25/25/25
f 31/31/31 30/30/30 29/29/29
f 32/32/32 31/31/31 29/29/29
f 35/35/35 34/34/34 33/33/33
f 36/36/36 35/35/35 33/33/33
f 39/39/39 38/38/38 37/37/37
f 40/40/40 39/39/39 37/37/37
f 43/43/43 42/42/42 41/41/41
f 44/44/44 43/43/43 41/41/41
f 47/47/47 46/46/46 45/45/45
f 45/45/45 48/48/48 47/47/47
f 45/45/45 49/49/49 48/48/48
f 52/52/52 51/51/51 50/50/50
f 50/50/50 53/53/53 52/52/52
f 50/50/50 54/54/54 53/53/53
g House_Roof_4x4_1
f 57/57/57 56/56/56 55/55/55
f 60/60/60 59/59/59 58/58/58
g House_Roof_4x4_2
f 63/63/63 62/62/62 61/61/61
f 64/64/64 63/63/63 61/61/61
