g JohnsShopBackWindow
v 0.828173 0.092402 -0.985503
v 0.828169 0.091826 1.036464
v 0.828169 -0.071236 1.036464
v 0.828173 -0.071813 -0.985503
v 0.960039 0.091827 1.036464
v 0.828169 0.091826 1.036464
v 0.828173 0.092402 -0.985503
v 0.960034 0.092403 -0.985503
v 0.960034 -0.071812 -0.985503
v 0.828173 -0.071813 -0.985503
v 0.828169 -0.071236 1.036464
v 0.960039 -0.071235 1.036464
v 0.960039 0.091827 1.036464
v 0.960034 0.092403 -0.985503
v 0.960034 -0.071812 -0.985503
v 0.960039 -0.071235 1.036464
v -0.962904 0.092402 -0.985503
v -0.962908 0.091826 1.036464
v -0.962908 -0.071236 1.036464
v -0.962904 -0.071813 -0.985503
v -0.831038 0.091826 1.036464
v -0.962908 0.091826 1.036464
v -0.962904 0.092402 -0.985503
v -0.831043 0.092402 -0.985503
v -0.831043 -0.071813 -0.985503
v -0.962904 -0.071813 -0.985503
v -0.962908 -0.071236 1.036464
v -0.831038 -0.071236 1.036464
v -0.831038 0.091826 1.036464
v -0.831043 0.092402 -0.985503
v -0.831043 -0.071813 -0.985503
v -0.831038 -0.071236 1.036464
v -1.003392 0.132921 1.092482
v 0.989922 0.132344 1.092489
v 0.989922 -0.049997 1.092489
v -1.003392 -0.050573 1.092482
v 0.989922 0.132344 0.857326
v 0.989922 0.132344 1.092489
v -1.003392 0.132921 1.092482
v -1.003392 0.132921 0.857335
v -1.003392 -0.050573 0.857335
v -1.003392 -0.050573 1.092482
v 0.989922 -0.049997 1.092489
v 0.989922 -0.049997 0.857326
v 0.989922 0.132344 0.857326
v -1.003392 0.132921 0.857335
v -1.003392 -0.050573 0.857335
v 0.989922 -0.049997 0.857326
v -1.003392 0.132921 -0.943434
v 0.989922 0.132344 -0.943426
v 0.989922 -0.049997 -0.943426
v -1.003392 -0.050573 -0.943434
v 0.989922 0.132344 -1.178588
v 0.989922 0.132344 -0.943426
v -1.003392 0.132921 -0.943434
v -1.003392 0.132921 -1.17858
v -1.003392 -0.050573 -1.17858
v -1.003392 -0.050573 -0.943434
v 0.989922 -0.049997 -0.943426
v 0.989922 -0.049997 -1.178588
v 0.989922 0.132344 -1.178588
v -1.003392 0.132921 -1.17858
v -1.003392 -0.050573 -1.17858
v 0.989922 -0.049997 -1.178588
v -0.005686 -0.003052 -0.985503
v -0.005688 -0.003628 1.036464
v -0.005688 -0.076936 1.036464
v -0.005686 -0.077512 -0.985503
v 0.052097 -0.003628 1.036464
v -0.005688 -0.003628 1.036464
v -0.005686 -0.003052 -0.985503
v 0.052095 -0.003052 -0.985503
v 0.052095 -0.077512 -0.985503
v -0.005686 -0.077512 -0.985503
v -0.005688 -0.076936 1.036464
v 0.052097 -0.076936 1.036464
v 0.052097 -0.003628 1.036464
v 0.052095 -0.003052 -0.985503
v 0.052095 -0.077512 -0.985503
v 0.052097 -0.076936 1.036464
v -0.878367 0.032439 0.076042
v 0.864897 0.031863 0.076045
v 0.864897 -0.090692 0.076045
v -0.878367 -0.091267 0.076042
v 0.864897 0.031863 -0.035315
v 0.864897 0.031863 0.076045
v -0.878367 0.032439 0.076042
v -0.878367 0.032439 -0.035311
v -0.878367 -0.091267 -0.035311
v -0.878367 -0.091267 0.076042
v 0.864897 -0.090692 0.076045
v 0.864897 -0.090692 -0.035315
v 0.864897 0.031863 -0.035315
v -0.878367 0.032439 -0.035311
v -0.878367 -0.091267 -0.035311
v 0.864897 -0.090692 -0.035315
v 0.989922 -0.049997 0.857326
v 0.989922 -0.049997 1.092489
v 0.989922 0.132344 1.092489
v 0.989922 0.132344 0.857326
v 0.989922 -0.049997 -1.178588
v 0.989922 -0.049997 -0.943426
v 0.989922 0.132344 -0.943426
v 0.989922 0.132344 -1.178588
v -1.003392 0.132921 -0.943434
v -1.003392 -0.050573 -0.943434
v -1.003392 -0.050573 -1.17858
v -1.003392 0.132921 -1.17858
v -1.003392 0.132921 1.092482
v -1.003392 -0.050573 1.092482
v -1.003392 -0.050573 0.857335
v -1.003392 0.132921 0.857335
v 0.881298 -0.009986 0.918934
v -0.881814 -0.009986 0.918934
v -0.881752 -0.00941 -0.961773
v 0.881237 -0.00941 -0.961773
vt 0.003556 0.697585
vt 0.988632 0.697585
vt 0.988632 0.75597
vt 0.003556 0.75597
vt 0.988632 0.697585
vt 0.988632 0.75597
vt 0.003556 0.75597
vt 0.003556 0.697585
vt 0.003556 0.75597
vt 0.003556 0.697585
vt 0.988632 0.697585
vt 0.988632 0.75597
vt 0.988632 0.75597
vt 0.003556 0.75597
vt 0.003556 0.697585
vt 0.988632 0.697585
vt 0.003556 0.697585
vt 0.988632 0.697585
vt 0.988632 0.75597
vt 0.003556 0.75597
vt 0.988632 0.697585
vt 0.988632 0.75597
vt 0.003556 0.75597
vt 0.003556 0.697585
vt 0.003556 0.75597
vt 0.003556 0.697585
vt 0.988632 0.697585
vt 0.988632 0.75597
vt 0.988632 0.75597
vt 0.003556 0.75597
vt 0.003556 0.697585
vt 0.988632 0.697585
vt 0.991562 0.756811
vt 0.004533 0.756811
vt 0.004532 0.696744
vt 0.991561 0.696744
vt 0.016217 0.758559
vt 0.016215 0.694996
vt 0.983783 0.694996
vt 0.983785 0.758559
vt 0.90697 0.753604
vt 0.022721 0.753604
vt 0.022717 0.699951
vt 0.906966 0.699951
vt 0.906966 0.699951
vt 0.90697 0.753604
vt 0.022721 0.753604
vt 0.022717 0.699951
vt 0.991562 0.756811
vt 0.004533 0.756811
vt 0.004532 0.696744
vt 0.991561 0.696744
vt 0.016217 0.758559
vt 0.016215 0.694996
vt 0.983783 0.694996
vt 0.983785 0.758559
vt 0.90697 0.753604
vt 0.022721 0.753604
vt 0.022717 0.699951
vt 0.906966 0.699951
vt 0.906966 0.699951
vt 0.90697 0.753604
vt 0.022721 0.753604
vt 0.022717 0.699951
vt 0.003556 0.697585
vt 0.988632 0.697585
vt 0.988632 0.75597
vt 0.003556 0.75597
vt 0.988632 0.697585
vt 0.988632 0.75597
vt 0.003556 0.75597
vt 0.003556 0.697585
vt 0.003556 0.75597
vt 0.003556 0.697585
vt 0.988632 0.697585
vt 0.988632 0.75597
vt 0.988632 0.75597
vt 0.003556 0.75597
vt 0.003556 0.697585
vt 0.988632 0.697585
vt 0.002162 0.755802
vt 1.001744 0.755802
vt 1.001745 0.697753
vt 0.002163 0.697753
vt 1.001744 0.755802
vt 1.001745 0.697753
vt 0.002163 0.697753
vt 0.002162 0.755802
vt 0.002163 0.697753
vt 0.002162 0.755802
vt 1.001744 0.755802
vt 1.001745 0.697753
vt 1.001745 0.697753
vt 0.002163 0.697753
vt 0.002162 0.755802
vt 1.001744 0.755802
vt 0.906966 0.699951
vt 0.022717 0.699951
vt 0.004533 0.756811
vt 0.016217 0.758559
vt 0.906966 0.699951
vt 0.022717 0.699951
vt 0.004533 0.756811
vt 0.016217 0.758559
vt 0.983783 0.694996
vt 0.022721 0.753604
vt 0.022721 0.753604
vt 0.983785 0.758559
vt 0.983783 0.694996
vt 0.022721 0.753604
vt 0.022721 0.753604
vt 0.983785 0.758559
vt 0 0
vt 0 1
vt 1 1
vt 1 0
vn -1 0 0
vn -1 0 0
vn -1 0 0
vn -1 0 0
vn 0 1 0.0002848733
vn 0 1 0.0002848733
vn 0 1 0.0002848733
vn 0 1 0.0002848733
vn 0 -1 0.0002853652
vn 0 -1 0.0002853652
vn 0 -1 0.0002853652
vn 0 -1 0.0002853652
vn 1 0 0
vn 1 0 0
vn 1 0 0
vn 1 0 0
vn -1 0 0
vn -1 0 0
vn -1 0 0
vn -1 0 0
vn 0 1 0.0002848733
vn 0 1 0.0002848733
vn 0 1 0.0002848733
vn 0 1 0.0002848733
vn 0 -1 0.0002853671
vn 0 -1 0.0002853671
vn 0 -1 0.0002853671
vn 0 -1 0.0002853671
vn 1 0 0
vn 1 0 0
vn 1 0 0
vn 1 0 0
vn 0 0 1
vn 0 0 1
vn 0 0 1
vn 0 0 1
vn 0.0002894691 1 0
vn 0.0002894691 1 0
vn 0.0002894691 1 0
vn 0.0002894691 1 0
vn 0.0002889663 -1 0
vn 0.0002889663 -1 0
vn 0.0002889663 -1 0
vn 0.0002889663 -1 0
vn 0 0 -1
vn 0 0 -1
vn 0 0 -1
vn 0 0 -1
vn 0 0 1
vn 0 0 1
vn 0 0 1
vn 0 0 1
vn 0.0002894691 1 0
vn 0.0002894691 1 0
vn 0.0002894691 1 0
vn 0.0002894691 1 0
vn 0.0002889663 -1 0
vn 0.0002889663 -1 0
vn 0.0002889663 -1 0
vn 0.0002889663 -1 0
vn 0 0 -1
vn 0 0 -1
vn 0 0 -1
vn 0 0 -1
vn -1 0 0
vn -1 0 0
vn -1 0 0
vn -1 0 0
vn 0 1 0.0002848711
vn 0 1 0.0002848711
vn 0 1 0.0002848711
vn 0 1 0.0002848711
vn 0 -1 0.0002848733
vn 0 -1 0.0002848733
vn 0 -1 0.0002848733
vn 0 -1 0.0002848733
vn 1 0 0
vn 1 0 0
vn 1 0 0
vn 1 0 0
vn 0 0 1
vn 0 0 1
vn 0 0 1
vn 0 0 1
vn 0.000330415 1 0
vn 0.000330415 1 0
vn 0.000330415 1 0
vn 0.000330415 1 0
vn 0.0003298402 -1 0
vn 0.0003298402 -1 0
vn 0.0003298402 -1 0
vn 0.0003298402 -1 0
vn 0 0 -1
vn 0 0 -1
vn 0 0 -1
vn 0 0 -1
vn 1 0 0
vn 1 0 0
vn 1 0 0
vn 1 0 0
vn 1 0 0
vn 1 0 0
vn 1 0 0
vn 1 0 0
vn -1 0 0
vn -1 0 0
vn -1 0 0
vn -1 0 0
vn -1 0 0
vn -1 0 0
vn -1 0 0
vn -1 0 0
vn 0 1 0.0003062677
vn 0 1 0.0003062677
vn 0 1 0.0003062677
vn 0 1 0.0003062677
g JohnsShopBackWindow_0
f 3/3/3 2/2/2 1/1/1
f 4/4/4 3/3/3 1/1/1
f 7/7/7 6/6/6 5/5/5
f 8/8/8 7/7/7 5/5/5
f 11/11/11 10/10/10 9/9/9
f 12/12/12 11/11/11 9/9/9
f 15/15/15 14/14/14 13/13/13
f 16/16/16 15/15/15 13/13/13
f 19/19/19 18/18/18 17/17/17
f 20/20/20 19/19/19 17/17/17
f 23/23/23 22/22/22 21/21/21
f 24/24/24 23/23/23 21/21/21
f 27/27/27 26/26/26 25/25/25
f 28/28/28 27/27/27 25/25/25
f 31/31/31 30/30/30 29/29/29
f 32/32/32 31/31/31 29/29/29
f 35/35/35 34/34/34 33/33/33
f 36/36/36 35/35/35 33/33/33
f 39/39/39 38/38/38 37/37/37
f 40/40/40 39/39/39 37/37/37
f 43/43/43 42/42/42 41/41/41
f 44/44/44 43/43/43 41/41/41
f 47/47/47 46/46/46 45/45/45
f 48/48/48 47/47/47 45/45/45
f 51/51/51 50/50/50 49/49/49
f 52/52/52 51/51/51 49/49/49
f 55/55/55 54/54/54 53/53/53
f 56/56/56 55/55/55 53/53/53
f 59/59/59 58/58/58 57/57/57
f 60/60/60 59/59/59 57/57/57
f 63/63/63 62/62/62 61/61/61
f 64/64/64 63/63/63 61/61/61
f 67/67/67 66/66/66 65/65/65
f 68/68/68 67/67/67 65/65/65
f 71/71/71 70/70/70 69/69/69
f 72/72/72 71/71/71 69/69/69
f 75/75/75 74/74/74 73/73/73
f 76/76/76 75/75/75 73/73/73
f 79/79/79 78/78/78 77/77/77
f 80/80/80 79/79/79 77/77/77
f 83/83/83 82/82/82 81/81/81
f 84/84/84 83/83/83 81/81/81
f 87/87/87 86/86/86 85/85/85
f 88/88/88 87/87/87 85/85/85
f 91/91/91 90/90/90 89/89/89
f 92/92/92 91/91/91 89/89/89
f 95/95/95 94/94/94 93/93/93
f 96/96/96 95/95/95 93/93/93
f 99/99/99 98/98/98 97/97/97
f 100/100/100 99/99/99 97/97/97
f 103/103/103 102/102/102 101/101/101
f 104/104/104 103/103/103 101/101/101
f 107/107/107 106/106/106 105/105/105
f 108/108/108 107/107/107 105/105/105
f 111/111/111 110/110/110 109/109/109
f 112/112/112 111/111/111 109/109/109
g JohnsShopBackWindow_1
f 115/115/115 114/114/114 113/113/113
f 116/116/116 115/115/115 113/113/113
