g JohnsShop_Impostor
v 5.617846 -4.850606 0
v 2.696356 -7.097754 0
v -2.022984 -7.097754 0
v -5.612648 -5.140311 0
v -5.61541 4.907199 0
v -2.272696 7.097754 0
v 2.272697 7.097754 0
v 5.61541 4.907199 0
vt 0.1042519 0.1582999
vt 0.3100557 0
vt 0.6425087 0
vt 0.895382 0.1378917
vt 0.8955765 0.8456867
vt 0.6600997 1
vt 0.3399003 1
vt 0.1044235 0.8456867
vn 0 0 -1
vn 0 0 -1
vn 0 0 -1
vn 0 0 -0.9999999
vn 0 0 -1
vn 0 0 -1
vn 0 0 -1
vn 0 0 -1
g JohnsShop_Impostor_0
f 4/4/4 6/6/6 8/8/8
f 8/8/8 2/2/2 4/4/4
f 6/6/6 7/7/7 8/8/8
f 4/4/4 5/5/5 6/6/6
f 2/2/2 3/3/3 4/4/4
f 8/8/8 1/1/1 2/2/2
