g LargeArch
v -0.803612 -0.03333 0.142999
v -0.056204 -0.03333 0.142999
v -0.056204 0.072797 0.142999
v -0.803612 0.072797 0.142999
v 0.928307 -0.036594 -0.615369
v 0.928307 -0.18248 -0.615369
v 0 -0.18248 -0.615369
v 0 -0.036594 -0.615369
v -0.928307 -0.18248 -0.615369
v -0.928307 -0.036594 -0.615369
v -0.803612 -0.03333 -0.506935
v -0.803612 -0.03333 0.142999
v -0.803612 0.072797 0.142999
v -0.803612 0.072797 -0.506935
v -0.060981 -0.036594 1.575207
v -0.060981 -0.036594 1.045335
v -0.060981 0.069532 1.045335
v -0.060981 0.069532 1.575207
v 0.060981 -0.036594 1.045335
v 0.060981 -0.036594 1.575207
v 0.060981 0.069532 1.575207
v 0.060981 0.069532 1.045335
v -0.056204 -0.03333 0.142999
v -0.056204 -0.03333 -0.506935
v -0.056204 0.072797 -0.506935
v -0.056204 0.072797 0.142999
v -0.060981 -0.036594 1.045335
v -0.825429 -0.036594 1.045335
v -0.825429 0.069532 1.045335
v -0.060981 0.069532 1.045335
v -0.056204 -0.03333 0.240748
v -0.803612 -0.03333 0.240748
v -0.803612 0.072797 0.240748
v -0.056204 0.072797 0.240748
v 0.825429 -0.036594 1.045335
v 0.060981 -0.036594 1.045335
v 0.060981 0.069532 1.045335
v 0.825429 0.069532 1.045335
v -0.056204 -0.03333 -0.506935
v -0.803612 -0.03333 -0.506935
v -0.803612 0.072797 -0.506935
v -0.056204 0.072797 -0.506935
v -0.056204 -0.03333 0.890683
v -0.056204 -0.03333 0.240748
v -0.056204 0.072797 0.240748
v -0.056204 0.072797 0.890683
v -0.803612 -0.03333 0.890683
v -0.056204 -0.03333 0.890683
v -0.056204 0.072797 0.890683
v -0.803612 0.072797 0.890683
v 0.056204 -0.03333 0.142999
v 0.803612 -0.03333 0.142999
v 0.803612 0.072797 0.142999
v 0.056204 0.072797 0.142999
v -0.803612 -0.03333 0.240748
v -0.803612 -0.03333 0.890683
v -0.803612 0.072797 0.890683
v -0.803612 0.072797 0.240748
v 0.056204 -0.03333 -0.506935
v 0.056204 -0.03333 0.142999
v 0.056204 0.072797 0.142999
v 0.056204 0.072797 -0.506935
v 0.803612 -0.03333 -0.506935
v 0.056204 -0.03333 -0.506935
v 0.056204 0.072797 -0.506935
v 0.803612 0.072797 -0.506935
v 0.803612 -0.03333 0.240748
v 0.056204 -0.03333 0.240748
v 0.056204 0.072797 0.240748
v 0.803612 0.072797 0.240748
v 0.803612 -0.03333 0.142999
v 0.803612 -0.03333 -0.506935
v 0.803612 0.072797 -0.506935
v 0.803612 0.072797 0.142999
v 0.056204 -0.03333 0.240748
v 0.056204 -0.03333 0.890683
v 0.056204 0.072797 0.890683
v 0.056204 0.072797 0.240748
v 0 -0.18248 -0.615369
v -0.928307 -0.18248 -0.721141
v -0.928307 -0.18248 -0.615369
v 0 -0.18248 -0.721141
v 0.928307 -0.18248 -0.615369
v 0.928307 -0.18248 -0.721141
v -0.928307 0.069532 -0.615369
v -0.928307 0.069532 -0.721141
v 0 0.069532 -0.721141
v 0 0.069532 -0.615369
v 0.928307 0.069532 -0.721141
v 0.928307 0.069532 -0.615369
v -0.056204 0.072797 -0.506935
v -0.803612 0.072797 -0.506935
v -0.928307 0.069532 0.191874
v -0.056204 0.072797 0.142999
v -0.803612 0.072797 0.142999
v 0 0.072797 0.191874
v 0.056204 0.072797 -0.506935
v 0.056204 0.072797 0.142999
v 0.803612 0.072797 -0.506935
v 0.803612 0.072797 0.142999
v 0.928307 0.069532 0.191874
v -0.056204 0.072797 0.240748
v -0.803612 0.072797 0.240748
v -0.928307 0.069532 0.999116
v -0.056204 0.072797 0.890683
v -0.803612 0.072797 0.890683
v 0 0.069532 0.999116
v 0.056204 0.072797 0.240748
v 0.056204 0.072797 0.890683
v 0.803612 0.072797 0.240748
v 0.803612 0.072797 0.890683
v 0.928307 0.069532 0.999116
v -0.060981 0.069532 1.045335
v -0.825429 0.069532 1.045335
v -0.928307 0.069532 1.197987
v -0.825429 0.069532 1.184443
v -0.863986 0.069532 1.438036
v -0.771748 0.069532 1.384783
v -0.688258 0.069532 1.613765
v -0.635004 0.069532 1.521527
v -0.448209 0.069532 1.678085
v -0.434665 0.069532 1.575207
v 0 0.069532 1.678085
v -0.060981 0.069532 1.575207
v 0.825429 0.069532 1.045335
v 0.060981 0.069532 1.045335
v 0.825429 0.069532 1.184443
v 0.060981 0.069532 1.575207
v 0.928307 0.069532 1.197987
v 0.448209 0.069532 1.678085
v 0.771748 0.069532 1.384783
v 0.434665 0.069532 1.575207
v 0.863986 0.069532 1.438036
v 0.688258 0.069532 1.613765
v 0.635004 0.069532 1.521527
v 0.928307 0.069532 -0.615369
v 0.928307 0.069532 -0.721141
v 0.928307 -0.036594 -0.721141
v 0.928307 -0.036594 -0.615369
v 0.928307 0.069532 0.191874
v 0.928307 -0.18248 -0.615369
v 0.928307 -0.18248 -0.721141
v 0.928307 -0.036594 0.191874
v 0.928307 0.069532 0.999116
v 0.928307 -0.036594 0.999116
v 0.928307 0.069532 1.197987
v 0.928307 -0.036594 1.197987
v 0.863986 0.069532 1.438036
v 0.863986 -0.036594 1.438036
v 0.688258 0.069532 1.613765
v 0.688258 -0.036594 1.613765
v 0.448209 0.069532 1.678085
v 0.448209 -0.036594 1.678085
v 0 0.069532 1.678085
v 0 -0.036594 1.678085
v -0.448209 0.069532 1.678085
v -0.448209 -0.036594 1.678085
v -0.688258 0.069532 1.613765
v -0.688258 -0.036594 1.613765
v -0.863986 0.069532 1.438036
v -0.863986 -0.036594 1.438036
v -0.928307 0.069532 1.197987
v -0.928307 -0.036594 1.197987
v -0.928307 0.069532 0.999116
v -0.928307 -0.036594 0.999116
v -0.928307 0.069532 0.191874
v -0.928307 -0.036594 0.191874
v -0.928307 0.069532 -0.615369
v -0.928307 -0.036594 -0.615369
v -0.928307 0.069532 -0.721141
v -0.928307 -0.036594 -0.721141
v -0.928307 -0.18248 -0.721141
v -0.928307 -0.18248 -0.615369
v -0.928307 -0.036594 -0.721141
v 0 0.069532 -0.721141
v -0.928307 0.069532 -0.721141
v 0 -0.036594 -0.721141
v 0.928307 0.069532 -0.721141
v 0.928307 -0.036594 -0.721141
v 0.928307 -0.18248 -0.721141
v 0 -0.18248 -0.721141
v -0.928307 -0.18248 -0.721141
v 0.060981 -0.036594 1.575207
v 0.434665 0.069532 1.575207
v 0.060981 0.069532 1.575207
v 0.434665 -0.036594 1.575207
v 0.635004 0.069532 1.521527
v 0.635004 -0.036594 1.521527
v 0.771748 0.069532 1.384783
v 0.771748 -0.036594 1.384783
v 0.825429 0.069532 1.184443
v 0.825429 -0.036594 1.184443
v 0.825429 0.069532 1.045335
v 0.825429 -0.036594 1.045335
v 0.056204 -0.03333 0.890683
v 0.803612 -0.03333 0.890683
v 0.803612 0.072797 0.890683
v 0.056204 0.072797 0.890683
v -0.825429 -0.036594 1.045335
v -0.825429 0.069532 1.184443
v -0.825429 0.069532 1.045335
v -0.825429 -0.036594 1.184443
v -0.771748 0.069532 1.384783
v -0.771748 -0.036594 1.384783
v -0.635004 0.069532 1.521527
v -0.635004 -0.036594 1.521527
v -0.434665 0.069532 1.575207
v -0.434665 -0.036594 1.575207
v -0.060981 0.069532 1.575207
v -0.060981 -0.036594 1.575207
v 0.803612 -0.03333 0.890683
v 0.803612 -0.03333 0.240748
v 0.803612 0.072797 0.240748
v 0.803612 0.072797 0.890683
v -0.803612 -0.03333 -0.506935
v -0.803612 -0.03333 0.142999
v -0.928307 0.069532 0.191874
v -0.928307 0.069532 -0.615369
v 0.803612 0.072797 0.240748
v 0.928307 0.069532 0.191874
v 0.928307 -0.036594 0.191874
v 0.803612 -0.03333 0.240748
v 0.928307 -0.036594 0.191874
v 0.803612 -0.03333 0.240748
v 0.803612 -0.03333 0.890683
v 0.928307 -0.036594 0.999116
v 0.825429 -0.036594 1.045335
v 0.056204 -0.03333 0.890683
v 0.825429 -0.036594 1.184443
v 0.928307 -0.036594 1.197987
v 0.771748 -0.036594 1.384783
v 0.863986 -0.036594 1.438036
v 0.635004 -0.036594 1.521527
v 0.688258 -0.036594 1.613765
v 0.434665 -0.036594 1.575207
v 0.448209 -0.036594 1.678085
v 0.060981 -0.036594 1.575207
v 0 -0.036594 1.678085
v 0.060981 -0.036594 1.045335
v -0.060981 -0.036594 1.575207
v -0.434665 -0.036594 1.575207
v -0.448209 -0.036594 1.678085
v -0.635004 -0.036594 1.521527
v -0.688258 -0.036594 1.613765
v -0.771748 -0.036594 1.384783
v -0.863986 -0.036594 1.438036
v -0.825429 -0.036594 1.184443
v -0.928307 -0.036594 1.197987
v -0.825429 -0.036594 1.045335
v -0.060981 -0.036594 1.045335
v -0.928307 -0.036594 0.999116
v -0.056204 -0.03333 0.890683
v -0.803612 -0.03333 0.890683
v -0.056204 -0.03333 0.240748
v -0.803612 -0.03333 0.240748
v -0.928307 -0.036594 0.191874
v 0.056204 -0.03333 0.240748
v -0.803612 -0.03333 0.142999
v -0.928307 -0.036594 -0.615369
v -0.803612 -0.03333 -0.506935
v -0.056204 -0.03333 0.142999
v 0 -0.036594 -0.615369
v -0.056204 -0.03333 -0.506935
v 0.056204 -0.03333 0.142999
v 0.056204 -0.03333 -0.506935
v 0.803612 -0.03333 0.142999
v 0.928307 -0.036594 -0.615369
v 0.803612 -0.03333 -0.506935
v -0.803612 0.072797 -0.506935
v -0.803612 0.072797 0.142999
v -0.056204 0.072797 0.142999
v -0.056204 0.072797 -0.506935
v 0.056204 0.072797 0.142999
v 0.803612 0.072797 0.142999
v 0.803612 0.072797 -0.506935
v 0.056204 0.072797 -0.506935
v 0.803612 0.072797 0.240748
v 0.056204 0.072797 0.240748
v 0.056204 0.072797 0.890683
v 0.803612 0.072797 0.890683
v -0.056204 0.072797 0.240748
v -0.803612 0.072797 0.240748
v -0.803612 0.072797 0.890683
v -0.056204 0.072797 0.890683
v -0.060981 0.069532 1.575207
v -0.060981 0.069532 1.045335
v -0.825429 0.069532 1.045335
v -0.825429 0.069532 1.184443
v -0.771748 0.069532 1.384783
v -0.635004 0.069532 1.521527
v -0.434665 0.069532 1.575207
v 0.825429 0.069532 1.184443
v 0.825429 0.069532 1.045335
v 0.060981 0.069532 1.045335
v 0.060981 0.069532 1.575207
v 0.771748 0.069532 1.384783
v 0.635004 0.069532 1.521527
v 0.434665 0.069532 1.575207
vn 0 0 -1
vn 0 0 -1
vn 0 0 -1
vn 0 0 -1
vn 0 0 1
vn 0 0 1
vn 0 0 1
vn 0 0 1
vn 0 0 1
vn 0 0 1
vn 1 0 0
vn 1 0 0
vn 1 0 0
vn 1 0 0
vn -1 0 0
vn -1 0 0
vn -1 0 0
vn -1 0 0
vn 1 0 0
vn 1 0 0
vn 1 0 0
vn 1 0 0
vn -1 0 0
vn -1 0 0
vn -1 0 0
vn -1 0 0
vn 0 0 1
vn 0 0 1
vn 0 0 1
vn 0 0 1
vn 0 0 1
vn 0 0 1
vn 0 0 1
vn 0 0 1
vn 0 0 1
vn 0 0 1
vn 0 0 1
vn 0 0 1
vn 0 0 1
vn 0 0 1
vn 0 0 1
vn 0 0 1
vn -1 0 0
vn -1 0 0
vn -1 0 0
vn -1 0 0
vn 0 0 -1
vn 0 0 -1
vn 0 0 -1
vn 0 0 -1
vn 0 0 -1
vn 0 0 -1
vn 0 0 -1
vn 0 0 -1
vn 1 0 0
vn 1 0 0
vn 1 0 0
vn 1 0 0
vn 1 0 0
vn 1 0 0
vn 1 0 0
vn 1 0 0
vn 0 0 1
vn 0 0 1
vn 0 0 1
vn 0 0 1
vn 0 0 1
vn 0 0 1
vn 0 0 1
vn 0 0 1
vn -1 0 0
vn -1 0 0
vn -1 0 0
vn -1 0 0
vn 1 0 0
vn 1 0 0
vn 1 0 0
vn 1 0 0
vn 0 -1 0
vn 0 -1 0
vn 0 -1 0
vn 0 -1 0
vn 0 -1 0
vn 0 -1 0
vn -0.006849982 0.9999548 -0.006594928
vn 0 1 0
vn 0 1 0
vn 0 0.9999384 -0.01110566
vn 0 1 0
vn 0.006849984 0.9999548 -0.006594928
vn 0.01028835 0.9997508 -0.01981054
vn -0.01270252 0.9997993 -0.01549703
vn -0.02318607 0.9997311 0
vn 0.01251213 0.9998031 0.01540147
vn -0.01670855 0.999782 0.0125177
vn 0 1 0
vn -0.01028835 0.9997508 -0.01981054
vn -0.01251213 0.9998031 0.01540147
vn 0.01270252 0.9997993 -0.01549703
vn 0.01670855 0.999782 0.0125177
vn 0.02318607 0.9997311 0
vn 0.01251222 0.9998031 -0.01540171
vn -0.01670863 0.999782 -0.01251785
vn -0.01134942 0.9998759 0.0109267
vn 0.01028839 0.9997508 0.01981068
vn -0.01270255 0.9997992 0.01549713
vn 0 0.9998553 0.01701532
vn -0.01251222 0.9998031 -0.01540171
vn -0.01028839 0.9997508 0.01981068
vn 0.01670863 0.999782 -0.01251785
vn 0.01270255 0.9997992 0.01549714
vn 0.01134942 0.9998759 0.0109267
vn 0 1 0
vn 0 1 0
vn 0 1 0
vn 0 1 0
vn 0 1 0
vn 0 1 0
vn 0 1 0
vn 0 1 0
vn 0 1 0
vn 0 1 0
vn 0 1 0
vn 0 1 0
vn 0 1 0
vn 0 1 0
vn 0 1 0
vn 0 1 0
vn 0 1 0
vn 0 1 0
vn 0 1 0
vn 0 1 0
vn 0 1 0
vn 0 1 0
vn 0 1 0
vn 1 0 0
vn 1 0 0
vn 1 0 0
vn 1 0 0
vn 1 0 0
vn 1 0 0
vn 1 0 0
vn 1 0 0
vn 1 0 0
vn 1 0 0
vn 0.9894323 0 0.1449952
vn 0.9894323 0 0.1449952
vn 0.8660259 0 0.4999991
vn 0.8660259 0 0.4999991
vn 0.5000001 0 0.8660254
vn 0.5000001 0 0.8660254
vn 0.09304785 0 0.9956617
vn 0.09304785 0 0.9956617
vn 0 0 1
vn 0 0 1
vn -0.09304785 0 0.9956617
vn -0.09304785 0 0.9956617
vn -0.5000001 0 0.8660254
vn -0.5000001 0 0.8660254
vn -0.8660259 0 0.4999991
vn -0.8660259 0 0.4999991
vn -0.9894323 0 0.1449952
vn -0.9894323 0 0.1449952
vn -1 0 0
vn -1 0 0
vn -1 0 0
vn -1 0 0
vn -1 0 0
vn -1 0 0
vn -1 0 0
vn -1 0 0
vn -1 0 0
vn -1 0 0
vn 0 0 -1
vn 0 0 -1
vn 0 0 -1
vn 0 0 -1
vn 0 0 -1
vn 0 0 -1
vn 0 0 -1
vn 0 0 -1
vn 0 0 -1
vn 0 0 -1
vn -0.09310909 0 -0.9956559
vn 0 0 -1
vn -0.09310909 0 -0.9956559
vn -0.4918591 0 -0.8706748
vn -0.4918591 0 -0.8706748
vn -0.8706743 0 -0.4918601
vn -0.8706743 0 -0.4918601
vn -0.9877253 0 -0.156201
vn -0.9877253 0 -0.156201
vn -1 0 0
vn -1 0 0
vn 0 0 -1
vn 0 0 -1
vn 0 0 -1
vn 0 0 -1
vn 1 0 0
vn 0.9877253 0 -0.156201
vn 1 0 0
vn 0.9877253 0 -0.156201
vn 0.8706743 0 -0.4918601
vn 0.8706743 0 -0.4918601
vn 0.4918591 0 -0.8706748
vn 0.4918591 0 -0.8706748
vn 0.09310909 0 -0.9956559
vn 0.09310909 0 -0.9956559
vn 0 0 -1
vn 0 0 -1
vn -1 0 0
vn -1 0 0
vn -1 0 0
vn -1 0 0
vn 0.6363411 0.7714078 0
vn 0.6363411 0.7714078 0
vn 0.6363411 0.7714078 0
vn 0.6363411 0.7714078 0
vn 0.3649192 0 0.9310392
vn 0.3649193 0 0.9310392
vn 0.3649193 0 0.9310392
vn 0.3649193 0 0.9310392
vn -0.0261669 -0.9996575 0
vn -0.0261669 -0.9996575 0
vn -0.0132688 -0.9998569 -0.01049053
vn -0.01975176 -0.9998034 -0.001780583
vn -0.000456734 -0.9998449 -0.01760184
vn 0 -0.9999073 -0.0136244
vn 0 -1 0
vn 0 -1 0
vn 0 -1 0
vn 0 -1 0
vn 0 -1 0
vn 0 -1 0
vn 0 -1 0
vn 0 -1 0
vn 0 -1 0
vn 0 -1 0
vn 0 -0.9998972 -0.01433828
vn 0 -1 0
vn 0 -1 0
vn 0 -1 0
vn 0 -1 0
vn 0 -1 0
vn 0 -1 0
vn 0 -1 0
vn 0 -1 0
vn 0 -1 0
vn 0.000456734 -0.9998449 -0.01760184
vn 0 -0.9998972 -0.01433828
vn 0.01975175 -0.9998034 -0.001780583
vn 0 -0.9999073 -0.0136244
vn 0.0132688 -0.9998569 -0.01049053
vn 0 -1 0
vn 0.01611681 -0.9998701 0
vn 0.02616689 -0.9996575 0
vn 0 -1 0
vn 0.01611683 -0.9998701 0
vn 0.01424479 -0.9998046 0.01371439
vn 0.01269862 -0.9997994 0.01549228
vn 0 -1 0
vn 0 -0.9995472 0.03008761
vn 0 -0.9998221 0.01886622
vn 0 -1 0
vn 0 -0.9998221 0.01886623
vn 0 -1 0
vn -0.01424479 -0.9998046 0.01371439
vn -0.01269862 -0.9997994 0.01549228
vn 0 -1 0
vn 0 -1 0
vn 0 -1 0
vn 0 -1 0
vn 0 -1 0
vn 0 -1 0
vn 0 -1 0
vn 0 -1 0
vn 0 -1 0
vn 0 -1 0
vn 0 -1 0
vn 0 -1 0
vn 0 -1 0
vn 0 -1 0
vn 0 -1 0
vn 0 -1 0
vn 0 -1 0
vn 0 -1 0
vn 0 -1 0
vn 0 -1 0
vn 0 -1 0
vn 0 -1 0
vn 0 -1 0
vn 0 -1 0
vn 0 -1 0
vn 0 -1 0
vn 0 -1 0
vn 0 -1 0
vn 0 -1 0
vn 0 -1 0
g LargeArch_0
f 3/3/3 2/2/2 1/1/1
f 4/4/4 3/3/3 1/1/1
f 7/7/7 6/6/6 5/5/5
f 8/8/8 7/7/7 5/5/5
f 9/9/9 7/7/7 8/8/8
f 10/10/10 9/9/9 8/8/8
f 13/13/13 12/12/12 11/11/11
f 14/14/14 13/13/13 11/11/11
f 17/17/17 16/16/16 15/15/15
f 18/18/18 17/17/17 15/15/15
f 21/21/21 20/20/20 19/19/19
f 22/22/22 21/21/21 19/19/19
f 25/25/25 24/24/24 23/23/23
f 26/26/26 25/25/25 23/23/23
f 29/29/29 28/28/28 27/27/27
f 30/30/30 29/29/29 27/27/27
f 33/33/33 32/32/32 31/31/31
f 34/34/34 33/33/33 31/31/31
f 37/37/37 36/36/36 35/35/35
f 38/38/38 37/37/37 35/35/35
f 41/41/41 40/40/40 39/39/39
f 42/42/42 41/41/41 39/39/39
f 45/45/45 44/44/44 43/43/43
f 46/46/46 45/45/45 43/43/43
f 49/49/49 48/48/48 47/47/47
f 50/50/50 49/49/49 47/47/47
f 53/53/53 52/52/52 51/51/51
f 54/54/54 53/53/53 51/51/51
f 57/57/57 56/56/56 55/55/55
f 58/58/58 57/57/57 55/55/55
f 61/61/61 60/60/60 59/59/59
f 62/62/62 61/61/61 59/59/59
f 65/65/65 64/64/64 63/63/63
f 66/66/66 65/65/65 63/63/63
f 69/69/69 68/68/68 67/67/67
f 70/70/70 69/69/69 67/67/67
f 73/73/73 72/72/72 71/71/71
f 74/74/74 73/73/73 71/71/71
f 77/77/77 76/76/76 75/75/75
f 78/78/78 77/77/77 75/75/75
f 81/81/81 80/80/80 79/79/79
f 80/80/80 82/82/82 79/79/79
f 79/79/79 82/82/82 83/83/83
f 82/82/82 84/84/84 83/83/83
f 87/87/87 86/86/86 85/85/85
f 88/88/88 87/87/87 85/85/85
f 89/89/89 87/87/87 88/88/88
f 90/90/90 89/89/89 88/88/88
f 88/88/88 85/85/85 91/91/91
f 85/85/85 92/92/92 91/91/91
f 85/85/85 93/93/93 92/92/92
f 88/88/88 91/91/91 94/94/94
f 93/93/93 95/95/95 92/92/92
f 96/96/96 94/94/94 95/95/95
f 96/96/96 88/88/88 94/94/94
f 93/93/93 96/96/96 95/95/95
f 88/88/88 96/96/96 97/97/97
f 96/96/96 98/98/98 97/97/97
f 88/88/88 97/97/97 99/99/99
f 90/90/90 88/88/88 99/99/99
f 90/90/90 99/99/99 100/100/100
f 101/101/101 90/90/90 100/100/100
f 101/101/101 100/100/100 98/98/98
f 96/96/96 101/101/101 98/98/98
f 96/96/96 93/93/93 102/102/102
f 93/93/93 103/103/103 102/102/102
f 93/93/93 104/104/104 103/103/103
f 96/96/96 102/102/102 105/105/105
f 104/104/104 106/106/106 103/103/103
f 107/107/107 105/105/105 106/106/106
f 107/107/107 96/96/96 105/105/105
f 104/104/104 107/107/107 106/106/106
f 96/96/96 107/107/107 108/108/108
f 107/107/107 109/109/109 108/108/108
f 96/96/96 108/108/108 110/110/110
f 101/101/101 96/96/96 110/110/110
f 101/101/101 110/110/110 111/111/111
f 112/112/112 101/101/101 111/111/111
f 112/112/112 111/111/111 109/109/109
f 107/107/107 112/112/112 109/109/109
f 107/107/107 104/104/104 113/113/113
f 104/104/104 114/114/114 113/113/113
f 104/104/104 115/115/115 114/114/114
f 115/115/115 116/116/116 114/114/114
f 115/115/115 117/117/117 116/116/116
f 117/117/117 118/118/118 116/116/116
f 117/117/117 119/119/119 118/118/118
f 119/119/119 120/120/120 118/118/118
f 119/119/119 121/121/121 120/120/120
f 121/121/121 122/122/122 120/120/120
f 121/121/121 123/123/123 122/122/122
f 107/107/107 113/113/113 124/124/124
f 123/123/123 124/124/124 122/122/122
f 123/123/123 107/107/107 124/124/124
f 112/112/112 107/107/107 125/125/125
f 107/107/107 126/126/126 125/125/125
f 107/107/107 123/123/123 126/126/126
f 112/112/112 125/125/125 127/127/127
f 123/123/123 128/128/128 126/126/126
f 129/129/129 112/112/112 127/127/127
f 123/123/123 130/130/130 128/128/128
f 129/129/129 127/127/127 131/131/131
f 130/130/130 132/132/132 128/128/128
f 133/133/133 129/129/129 131/131/131
f 130/130/130 134/134/134 132/132/132
f 133/133/133 131/131/131 135/135/135
f 134/134/134 135/135/135 132/132/132
f 134/134/134 133/133/133 135/135/135
f 138/138/138 137/137/137 136/136/136
f 139/139/139 138/138/138 136/136/136
f 136/136/136 140/140/140 139/139/139
f 139/139/139 141/141/141 138/138/138
f 141/141/141 142/142/142 138/138/138
f 140/140/140 143/143/143 139/139/139
f 140/140/140 144/144/144 143/143/143
f 144/144/144 145/145/145 143/143/143
f 144/144/144 146/146/146 145/145/145
f 146/146/146 147/147/147 145/145/145
f 146/146/146 148/148/148 147/147/147
f 148/148/148 149/149/149 147/147/147
f 148/148/148 150/150/150 149/149/149
f 150/150/150 151/151/151 149/149/149
f 150/150/150 152/152/152 151/151/151
f 152/152/152 153/153/153 151/151/151
f 152/152/152 154/154/154 153/153/153
f 154/154/154 155/155/155 153/153/153
f 154/154/154 156/156/156 155/155/155
f 156/156/156 157/157/157 155/155/155
f 156/156/156 158/158/158 157/157/157
f 158/158/158 159/159/159 157/157/157
f 158/158/158 160/160/160 159/159/159
f 160/160/160 161/161/161 159/159/159
f 160/160/160 162/162/162 161/161/161
f 162/162/162 163/163/163 161/161/161
f 162/162/162 164/164/164 163/163/163
f 164/164/164 165/165/165 163/163/163
f 164/164/164 166/166/166 165/165/165
f 166/166/166 167/167/167 165/165/165
f 166/166/166 168/168/168 167/167/167
f 168/168/168 169/169/169 167/167/167
f 168/168/168 170/170/170 169/169/169
f 170/170/170 171/171/171 169/169/169
f 171/171/171 172/172/172 169/169/169
f 172/172/172 173/173/173 169/169/169
f 176/176/176 175/175/175 174/174/174
f 175/175/175 177/177/177 174/174/174
f 175/175/175 178/178/178 177/177/177
f 178/178/178 179/179/179 177/177/177
f 179/179/179 180/180/180 177/177/177
f 180/180/180 181/181/181 177/177/177
f 177/177/177 181/181/181 174/174/174
f 181/181/181 182/182/182 174/174/174
f 185/185/185 184/184/184 183/183/183
f 184/184/184 186/186/186 183/183/183
f 184/184/184 187/187/187 186/186/186
f 187/187/187 188/188/188 186/186/186
f 187/187/187 189/189/189 188/188/188
f 189/189/189 190/190/190 188/188/188
f 189/189/189 191/191/191 190/190/190
f 191/191/191 192/192/192 190/190/190
f 191/191/191 193/193/193 192/192/192
f 193/193/193 194/194/194 192/192/192
f 197/197/197 196/196/196 195/195/195
f 198/198/198 197/197/197 195/195/195
f 201/201/201 200/200/200 199/199/199
f 200/200/200 202/202/202 199/199/199
f 200/200/200 203/203/203 202/202/202
f 203/203/203 204/204/204 202/202/202
f 203/203/203 205/205/205 204/204/204
f 205/205/205 206/206/206 204/204/204
f 205/205/205 207/207/207 206/206/206
f 207/207/207 208/208/208 206/206/206
f 207/207/207 209/209/209 208/208/208
f 209/209/209 210/210/210 208/208/208
f 213/213/213 212/212/212 211/211/211
f 214/214/214 213/213/213 211/211/211
f 217/217/217 216/216/216 215/215/215
f 218/218/218 217/217/217 215/215/215
f 221/221/221 220/220/220 219/219/219
f 219/219/219 222/222/222 221/221/221
f 225/225/225 224/224/224 223/223/223
f 226/226/226 225/225/225 223/223/223
f 225/225/225 226/226/226 227/227/227
f 225/225/225 227/227/227 228/228/228
f 229/229/229 227/227/227 226/226/226
f 230/230/230 229/229/229 226/226/226
f 231/231/231 229/229/229 230/230/230
f 232/232/232 231/231/231 230/230/230
f 233/233/233 231/231/231 232/232/232
f 234/234/234 233/233/233 232/232/232
f 235/235/235 233/233/233 234/234/234
f 236/236/236 235/235/235 234/234/234
f 237/237/237 235/235/235 236/236/236
f 238/238/238 237/237/237 236/236/236
f 227/227/227 239/239/239 228/228/228
f 237/237/237 238/238/238 240/240/240
f 237/237/237 240/240/240 239/239/239
f 241/241/241 240/240/240 238/238/238
f 242/242/242 241/241/241 238/238/238
f 243/243/243 241/241/241 242/242/242
f 244/244/244 243/243/243 242/242/242
f 245/245/245 243/243/243 244/244/244
f 246/246/246 245/245/245 244/244/244
f 247/247/247 245/245/245 246/246/246
f 248/248/248 247/247/247 246/246/246
f 249/249/249 247/247/247 248/248/248
f 240/240/240 250/250/250 239/239/239
f 251/251/251 249/249/249 248/248/248
f 250/250/250 252/252/252 239/239/239
f 252/252/252 228/228/228 239/239/239
f 250/250/250 249/249/249 253/253/253
f 252/252/252 250/250/250 253/253/253
f 249/249/249 251/251/251 253/253/253
f 228/228/228 252/252/252 254/254/254
f 255/255/255 253/253/253 251/251/251
f 256/256/256 255/255/255 251/251/251
f 257/257/257 228/228/228 254/254/254
f 256/256/256 258/258/258 255/255/255
f 258/258/258 256/256/256 259/259/259
f 260/260/260 258/258/258 259/259/259
f 258/258/258 261/261/261 255/255/255
f 261/261/261 254/254/254 255/255/255
f 259/259/259 262/262/262 260/260/260
f 262/262/262 263/263/263 260/260/260
f 254/254/254 261/261/261 264/264/264
f 257/257/257 254/254/254 264/264/264
f 264/264/264 261/261/261 263/263/263
f 262/262/262 265/265/265 263/263/263
f 265/265/265 264/264/264 263/263/263
f 264/264/264 266/266/266 257/257/257
f 266/266/266 224/224/224 257/257/257
f 265/265/265 262/262/262 267/267/267
f 223/223/223 266/266/266 267/267/267
f 268/268/268 265/265/265 267/267/267
f 266/266/266 268/268/268 267/267/267
g LargeArch_1
f 271/271/271 270/270/270 269/269/269
f 272/272/272 271/271/271 269/269/269
f 275/275/275 274/274/274 273/273/273
f 276/276/276 275/275/275 273/273/273
f 279/279/279 278/278/278 277/277/277
f 280/280/280 279/279/279 277/277/277
f 283/283/283 282/282/282 281/281/281
f 284/284/284 283/283/283 281/281/281
f 287/287/287 286/286/286 285/285/285
f 285/285/285 288/288/288 287/287/287
f 285/285/285 289/289/289 288/288/288
f 285/285/285 290/290/290 289/289/289
f 285/285/285 291/291/291 290/290/290
f 294/294/294 293/293/293 292/292/292
f 292/292/292 295/295/295 294/294/294
f 292/292/292 296/296/296 295/295/295
f 296/296/296 297/297/297 295/295/295
f 297/297/297 298/298/298 295/295/295
