g Larva_Lamp
v -0.12876 0.028271 0.193549
v -0.231197 0.130709 0.379387
v -0.231197 -0.130709 0.379387
v -0.12876 -0.028271 0.193549
v -0.028271 -0.12876 0.193549
v -0.130709 -0.231197 0.379387
v -0.242417 -0.141929 0.015558
v -0.12876 0.028271 0.193549
v -0.12876 -0.028271 0.193549
v -0.242417 0.141929 0.015558
v -0.028271 0.12876 0.193549
v -0.141929 0.242417 0.015558
v -0.028271 -0.12876 0.193549
v -0.130709 -0.231197 0.379387
v 0.130709 -0.231197 0.379387
v 0.028271 -0.12876 0.193549
v 0.141929 -0.242417 0.015558
v -0.141929 -0.242417 0.015558
v -0.12876 -0.028271 0.193549
v -0.242417 -0.141929 0.015558
v -0.141929 0.242417 0.015558
v 0.028271 0.12876 0.193549
v -0.028271 0.12876 0.193549
v 0.141929 0.242417 0.015558
v 0.12876 0.028271 0.193549
v 0.242417 0.141929 0.015558
v 0.059841 0.16033 1.261881
v -0.018879 0.119368 1.527785
v -0.059841 0.16033 1.261881
v 0.018879 0.119368 1.527785
v 0.119368 0.018879 1.527785
v 0.16033 0.059841 1.261881
v -0.16033 0.059841 1.261881
v -0.119368 -0.018879 1.527785
v -0.16033 -0.059841 1.261881
v -0.119368 0.018879 1.527785
v -0.018879 0.119368 1.527785
v -0.059841 0.16033 1.261881
v 0.16033 -0.059841 1.261881
v 0.119368 0.018879 1.527785
v 0.16033 0.059841 1.261881
v 0.119368 -0.018879 1.527785
v 0.018879 -0.119368 1.527785
v 0.059841 -0.16033 1.261881
v 0.018879 0.119368 1.527785
v 0.119368 0.018879 1.527785
v 0.119368 -0.018879 1.527785
v 0.018879 -0.119368 1.527785
v -0.018879 0.119368 1.527785
v -0.018879 -0.119368 1.527785
v -0.119368 0.018879 1.527785
v -0.119368 -0.018879 1.527785
v -0.059841 -0.16033 1.261881
v 0.018879 -0.119368 1.527785
v 0.059841 -0.16033 1.261881
v -0.018879 -0.119368 1.527785
v -0.119368 -0.018879 1.527785
v -0.16033 -0.059841 1.261881
v 0.028271 -0.12876 0.193549
v 0.242417 -0.141929 0.015558
v 0.141929 -0.242417 0.015558
v 0.12876 -0.028271 0.193549
v 0.130709 -0.231197 0.379387
v 0.242417 0.141929 0.015558
v 0.231197 -0.130709 0.379387
v 0.12876 0.028271 0.193549
v 0.231197 0.130709 0.379387
v 0.028271 0.12876 0.193549
v 0.12876 0.028271 0.193549
v 0.231197 0.130709 0.379387
v 0.130709 0.231197 0.379387
v -0.130709 0.231197 0.379387
v -0.028271 0.12876 0.193549
v -0.12876 0.028271 0.193549
v -0.231197 0.130709 0.379387
v 0.141929 -0.242417 0.015558
v 0.242417 -0.141929 0.015558
v 0.242417 0.141929 0.015558
v 0.141929 0.242417 0.015558
v -0.141929 -0.242417 0.015558
v -0.141929 0.242417 0.015558
v -0.242417 -0.141929 0.015558
v -0.242417 0.141929 0.015558
v 0.130709 0.231197 0.379387
v 0.231197 0.130709 0.379387
v 0.231197 -0.130709 0.379387
v 0.130709 -0.231197 0.379387
v -0.130709 0.231197 0.379387
v -0.130709 -0.231197 0.379387
v -0.231197 0.130709 0.379387
v -0.231197 -0.130709 0.379387
v -0.231197 0.130709 0.379387
v -0.231197 -0.130709 0.379387
v -0.130709 0.231197 0.379387
v -0.231197 -0.130709 0.379387
v 0.130709 0.231197 0.379387
v -0.130709 0.231197 0.379387
v 0.231197 0.130709 0.379387
v 0.231197 0.130709 0.379387
v -0.231197 0.130709 0.379387
v -0.231197 -0.130709 0.379387
v -0.16033 -0.059841 1.261881
v -0.16033 0.059841 1.261881
v -0.059841 0.16033 1.261881
v -0.130709 0.231197 0.379387
v -0.130709 -0.231197 0.379387
v 0.059841 -0.16033 1.261881
v -0.059841 -0.16033 1.261881
v 0.130709 -0.231197 0.379387
v 0.231197 -0.130709 0.379387
v 0.16033 -0.059841 1.261881
v 0.130709 0.231197 0.379387
v -0.130709 0.231197 0.379387
v -0.059841 0.16033 1.261881
v 0.059841 0.16033 1.261881
v 0.16033 0.059841 1.261881
v 0.231197 0.130709 0.379387
v 0.231197 -0.130709 0.379387
v 0.231197 0.130709 0.379387
v 0.16033 0.059841 1.261881
v 0.16033 -0.059841 1.261881
v -0.130709 -0.231197 0.379387
v -0.059841 -0.16033 1.261881
v -0.16033 -0.059841 1.261881
v -0.231197 -0.130709 0.379387
vn -0.9510304 0.3039877 0.05597001
vn -0.936905 0.3491825 -0.01675243
vn -0.936905 -0.3491825 -0.01675244
vn -0.9510304 -0.3039877 0.05597001
vn -0.3039877 -0.9510304 0.05597005
vn -0.3491824 -0.936905 -0.01675242
vn -0.6923072 -0.3203122 0.6466148
vn -0.9510304 0.3039877 0.05597001
vn -0.9510304 -0.3039877 0.05597001
vn -0.6923073 0.3203123 0.6466148
vn -0.3039876 0.9510304 0.05596998
vn -0.3203123 0.6923072 0.6466148
vn -0.3039877 -0.9510304 0.05597005
vn -0.3491824 -0.936905 -0.01675242
vn 0.3491824 -0.936905 -0.01675241
vn 0.3039877 -0.9510304 0.05597003
vn 0.3203123 -0.6923072 0.6466148
vn -0.3203123 -0.6923072 0.6466148
vn -0.9510304 -0.3039877 0.05597001
vn -0.6923072 -0.3203122 0.6466148
vn -0.3203123 0.6923072 0.6466148
vn 0.3039877 0.9510304 0.05596999
vn -0.3039876 0.9510304 0.05596998
vn 0.3203124 0.6923072 0.6466148
vn 0.9510304 0.3039877 0.05596999
vn 0.6923073 0.3203123 0.6466148
vn 0.3454072 0.9309455 0.118467
vn -0.4406704 0.8190829 0.3673047
vn -0.3454072 0.9309455 0.118467
vn 0.443325 0.8240171 0.352787
vn 0.8524878 0.4586424 0.250822
vn 0.9309455 0.3454072 0.118467
vn -0.9309455 0.3454073 0.118467
vn -0.8524878 -0.4586424 0.250822
vn -0.9309455 -0.3454073 0.118467
vn -0.8012536 0.4310782 0.4149266
vn -0.4406704 0.8190829 0.3673047
vn -0.3454072 0.9309455 0.118467
vn 0.9309455 -0.3454073 0.118467
vn 0.8524878 0.4586424 0.250822
vn 0.9309455 0.3454072 0.118467
vn 0.8012536 -0.4310782 0.4149267
vn 0.4406704 -0.8190829 0.3673047
vn 0.3454072 -0.9309455 0.118467
vn 0.443325 0.8240171 0.352787
vn 0.8524878 0.4586424 0.250822
vn 0.8012536 -0.4310782 0.4149267
vn 0.4406704 -0.8190829 0.3673047
vn -0.4406704 0.8190829 0.3673047
vn -0.443325 -0.8240171 0.352787
vn -0.8012536 0.4310782 0.4149266
vn -0.8524878 -0.4586424 0.250822
vn -0.3454072 -0.9309455 0.118467
vn 0.4406704 -0.8190829 0.3673047
vn 0.3454072 -0.9309455 0.118467
vn -0.443325 -0.8240171 0.352787
vn -0.8524878 -0.4586424 0.250822
vn -0.9309455 -0.3454073 0.118467
vn 0.3039877 -0.9510304 0.05597003
vn 0.6923072 -0.3203123 0.6466148
vn 0.3203123 -0.6923072 0.6466148
vn 0.9510304 -0.3039877 0.05597003
vn 0.3491824 -0.936905 -0.01675241
vn 0.6923073 0.3203123 0.6466148
vn 0.936905 -0.3491825 -0.01675242
vn 0.9510304 0.3039877 0.05596999
vn 0.936905 0.3491825 -0.01675243
vn 0.3039877 0.9510304 0.05596999
vn 0.9510304 0.3039877 0.05596999
vn 0.936905 0.3491825 -0.01675243
vn 0.3491825 0.936905 -0.01675243
vn -0.3491824 0.936905 -0.01675243
vn -0.3039876 0.9510304 0.05596998
vn -0.9510304 0.3039877 0.05597001
vn -0.936905 0.3491825 -0.01675243
vn 0 0 -1
vn 0 0 -1
vn 0 0 -1
vn 0 0 -1
vn 0 0 -1
vn 0 0 -1
vn 0 0 -1
vn 0 0 -1
vn 0 0 1
vn 0 0 1
vn 0 0 1
vn 0 0 1
vn 0 0 1
vn 0 0 1
vn 0 0 1
vn 0 0 1
vn -0.936905 0.3491825 -0.01675243
vn -0.936905 -0.3491825 -0.01675244
vn -0.3491824 0.936905 -0.01675243
vn -0.936905 -0.3491825 -0.01675244
vn 0.3491825 0.936905 -0.01675243
vn -0.3491824 0.936905 -0.01675243
vn 0.936905 0.3491825 -0.01675243
vn 0.936905 0.3491825 -0.01675243
vn 0.9368135 -0.3345988 -0.1020987
vn 0.9368135 0.3345988 -0.1020987
vn 0.9435915 0.3153016 -0.1010934
vn 0.9435915 -0.3153016 -0.1010934
vn 0.3153016 -0.9435915 -0.1010934
vn 0.3345988 -0.9368135 -0.1020987
vn 0.3345988 0.9368135 -0.1020987
vn -0.3153016 0.9435915 -0.1010934
vn 0.3153015 0.9435915 -0.1010934
vn -0.3345988 0.9368135 -0.1020987
vn -0.9368135 0.3345988 -0.1020987
vn -0.9435915 0.3153015 -0.1010934
vn -0.3345988 -0.9368135 -0.1020987
vn 0.3345988 -0.9368135 -0.1020987
vn 0.3153016 -0.9435915 -0.1010934
vn -0.3153016 -0.9435915 -0.1010934
vn -0.9435915 -0.3153015 -0.1010934
vn -0.9368135 -0.3345988 -0.1020987
vn -0.9368135 0.3345988 -0.1020987
vn -0.9368135 -0.3345988 -0.1020987
vn -0.9435915 -0.3153015 -0.1010934
vn -0.9435915 0.3153015 -0.1010934
vn 0.3345988 0.9368135 -0.1020987
vn 0.3153015 0.9435915 -0.1010934
vn 0.9435915 0.3153016 -0.1010934
vn 0.9368135 0.3345988 -0.1020987
g Larva_Lamp_0
f 3/3/3 2/2/2 1/1/1
f 4/4/4 3/3/3 1/1/1
f 3/3/3 4/4/4 5/5/5
f 6/6/6 3/3/3 5/5/5
f 9/9/9 8/8/8 7/7/7
f 8/8/8 10/10/10 7/7/7
f 10/10/10 8/8/8 11/11/11
f 12/12/12 10/10/10 11/11/11
f 15/15/15 14/14/14 13/13/13
f 16/16/16 15/15/15 13/13/13
f 16/16/16 13/13/13 17/17/17
f 13/13/13 18/18/18 17/17/17
f 13/13/13 19/19/19 18/18/18
f 19/19/19 20/20/20 18/18/18
f 23/23/23 22/22/22 21/21/21
f 22/22/22 24/24/24 21/21/21
f 24/24/24 22/22/22 25/25/25
f 26/26/26 24/24/24 25/25/25
f 29/29/29 28/28/28 27/27/27
f 28/28/28 30/30/30 27/27/27
f 27/27/27 30/30/30 31/31/31
f 32/32/32 27/27/27 31/31/31
f 35/35/35 34/34/34 33/33/33
f 34/34/34 36/36/36 33/33/33
f 36/36/36 37/37/37 33/33/33
f 37/37/37 38/38/38 33/33/33
f 41/41/41 40/40/40 39/39/39
f 40/40/40 42/42/42 39/39/39
f 42/42/42 43/43/43 39/39/39
f 43/43/43 44/44/44 39/39/39
f 47/47/47 46/46/46 45/45/45
f 45/45/45 48/48/48 47/47/47
f 45/45/45 49/49/49 48/48/48
f 49/49/49 50/50/50 48/48/48
f 49/49/49 51/51/51 50/50/50
f 51/51/51 52/52/52 50/50/50
f 55/55/55 54/54/54 53/53/53
f 54/54/54 56/56/56 53/53/53
f 53/53/53 56/56/56 57/57/57
f 58/58/58 53/53/53 57/57/57
f 61/61/61 60/60/60 59/59/59
f 60/60/60 62/62/62 59/59/59
f 59/59/59 62/62/62 63/63/63
f 62/62/62 60/60/60 64/64/64
f 62/62/62 65/65/65 63/63/63
f 66/66/66 62/62/62 64/64/64
f 67/67/67 65/65/65 62/62/62
f 66/66/66 67/67/67 62/62/62
f 70/70/70 69/69/69 68/68/68
f 71/71/71 70/70/70 68/68/68
f 72/72/72 71/71/71 68/68/68
f 73/73/73 72/72/72 68/68/68
f 73/73/73 74/74/74 72/72/72
f 74/74/74 75/75/75 72/72/72
f 78/78/78 77/77/77 76/76/76
f 76/76/76 79/79/79 78/78/78
f 76/76/76 80/80/80 79/79/79
f 80/80/80 81/81/81 79/79/79
f 80/80/80 82/82/82 81/81/81
f 82/82/82 83/83/83 81/81/81
f 86/86/86 85/85/85 84/84/84
f 84/84/84 87/87/87 86/86/86
f 84/84/84 88/88/88 87/87/87
f 88/88/88 89/89/89 87/87/87
f 88/88/88 90/90/90 89/89/89
f 90/90/90 91/91/91 89/89/89
g Larva_Lamp_1
f 93/93/93 35/35/35 92/92/92
f 35/35/35 33/33/33 92/92/92
f 92/92/92 33/33/33 38/38/38
f 94/94/94 92/92/92 38/38/38
f 15/15/15 55/55/55 14/14/14
f 55/55/55 53/53/53 14/14/14
f 53/53/53 58/58/58 14/14/14
f 58/58/58 95/95/95 14/14/14
f 97/97/97 29/29/29 96/96/96
f 29/29/29 27/27/27 96/96/96
f 96/96/96 27/27/27 32/32/32
f 98/98/98 96/96/96 32/32/32
f 99/99/99 41/41/41 65/65/65
f 41/41/41 39/39/39 65/65/65
f 39/39/39 44/44/44 65/65/65
f 44/44/44 63/63/63 65/65/65
f 102/102/102 101/101/101 100/100/100
f 103/103/103 102/102/102 100/100/100
f 103/103/103 100/100/100 104/104/104
f 100/100/100 105/105/105 104/104/104
f 108/108/108 107/107/107 106/106/106
f 107/107/107 109/109/109 106/106/106
f 109/109/109 107/107/107 110/110/110
f 107/107/107 111/111/111 110/110/110
f 114/114/114 113/113/113 112/112/112
f 115/115/115 114/114/114 112/112/112
f 115/115/115 112/112/112 116/116/116
f 112/112/112 117/117/117 116/116/116
f 120/120/120 119/119/119 118/118/118
f 121/121/121 120/120/120 118/118/118
f 124/124/124 123/123/123 122/122/122
f 125/125/125 124/124/124 122/122/122
