g LeftCornerTile
v -1 1 -0.25
v -0.75 -0.75 0
v -1 -1 -0.25
v -0.75 0.75 0
v 1 0.75 0
v 1 1 -0.25
v -1 1 -0.25
v 1 -0.75 0
v -1 -1 -0.25
v 1 -1 -0.25
v -1 -1 -0.25
v 1 -1 -0.25
v 1 -1 -20
v -1 -1 -20
v 1 1 -0.25
v -1 1 -0.25
v -1 1 -20
v 1 1 -20
v -1 1 -0.25
v -1 -1 -0.25
v -1 -1 -20
v -1 1 -20
vt 1 0
vt 0.875 0.875
vt 1 1
vt 0.875 0.125
vt 0 0.125
vt 0 0
vt 1 0
vt 0 0.875
vt 1 1
vt 0 1
vt 0 1.00002
vt 1 1.00002
vt 1 -8.87498
vt 0 -8.87498
vt 0 0.99999
vt 1 0.99999
vt 1 -8.87501
vt 0 -8.87501
vt 0 0.99999
vt 1 0.99999
vt 1 -8.87501
vt 0 -8.87501
vn -0.9576361 0 0.2879809
vn -0.3001938 -0.3001938 0.90541
vn -0.9576361 0 0.2879809
vn -0.3001938 0.3001938 0.90541
vn 0 0.3826834 0.9238795
vn 0 0.9238795 0.3826835
vn 0 0.9576361 0.2879809
vn 0 -0.3826834 0.9238795
vn 0 -0.9576361 0.2879809
vn 0 -0.9238795 0.3826835
vn 0 -0.9576361 0.2879809
vn 0 -0.9238795 0.3826835
vn 0 -1 0
vn 0 -1 0
vn 0 0.9238795 0.3826835
vn 0 0.9576361 0.2879809
vn 0 1 0
vn 0 1 0
vn -0.9576361 0 0.2879809
vn -0.9576361 0 0.2879809
vn -1 0 0
vn -1 0 0
g LeftCornerTile_0
f 3/3/3 2/2/2 1/1/1
f 2/2/2 4/4/4 1/1/1
f 5/5/5 4/4/4 2/2/2
f 4/4/4 5/5/5 6/6/6
f 7/7/7 4/4/4 6/6/6
f 8/8/8 5/5/5 2/2/2
f 8/8/8 2/2/2 9/9/9
f 10/10/10 8/8/8 9/9/9
g LeftCornerTile_1
f 13/13/13 12/12/12 11/11/11
f 14/14/14 13/13/13 11/11/11
f 17/17/17 16/16/16 15/15/15
f 18/18/18 17/17/17 15/15/15
f 21/21/21 20/20/20 19/19/19
f 22/22/22 21/21/21 19/19/19
