g LetterSign_Y
v -0.098412 0.278928 0.726686
v -0.370165 0.278928 1.372854
v -0.607697 0.278928 1.372854
v -0.00179 0.278928 0.899803
v 0.098859 0.278928 0.724674
v -0.098412 0.278928 0
v 0.098859 0.278928 0
v 0.608144 0.278928 1.372854
v 0.370612 0.278928 1.372854
v -0.098412 -0.278928 0.726686
v -0.607697 -0.278928 1.372854
v -0.370165 -0.278928 1.372854
v -0.00179 -0.278928 0.899803
v 0.098859 -0.278928 0.724674
v -0.098412 -0.278928 0
v 0.098859 -0.278928 0
v 0.608144 -0.278928 1.372854
v 0.370612 -0.278928 1.372854
v 0.608144 0.278928 1.372854
v 0.608144 -0.278928 1.372854
v 0.370612 -0.278928 1.372854
v 0.370612 0.278928 1.372854
v -0.00179 -0.278928 0.899803
v -0.00179 0.278928 0.899803
v -0.370165 0.278928 1.372854
v -0.607697 -0.278928 1.372854
v -0.607697 0.278928 1.372854
v -0.370165 -0.278928 1.372854
v -0.00179 0.278928 0.899803
v -0.00179 -0.278928 0.899803
v 0.098859 0.278928 0.724674
v 0.608144 -0.278928 1.372854
v 0.608144 0.278928 1.372854
v 0.098859 -0.278928 0.724674
v 0.098859 0.278928 0
v 0.098859 -0.278928 0
v -0.098412 0.278928 0
v -0.098412 -0.278928 0
v 0.098859 -0.278928 0
v 0.098859 0.278928 0
v -0.098412 0.278928 0.726686
v -0.098412 -0.278928 0
v -0.098412 0.278928 0
v -0.098412 -0.278928 0.726686
v -0.607697 0.278928 1.372854
v -0.607697 -0.278928 1.372854
vt 0.459436 0.514663
vt 0.347682 0.75
vt 0.25 0.75
vt 0.499172 0.577713
vt 0.540564 0.51393
vt 0.459436 0.25
vt 0.540564 0.25
vt 0.75 0.75
vt 0.652319 0.75
vt 0.459436 0.514663
vt 0.25 0.75
vt 0.347682 0.75
vt 0.499172 0.577713
vt 0.540564 0.51393
vt 0.459436 0.25
vt 0.540564 0.25
vt 0.75 0.75
vt 0.652319 0.75
vt 0.75 0.75
vt 0.25 0.75
vt 0.25 0.75
vt 0.75 0.75
vt 0.25 0.577713
vt 0.75 0.577713
vt 0.75 0.75
vt 0.25 0.75
vt 0.75 0.75
vt 0.25 0.75
vt 0.75 0.577713
vt 0.25 0.577713
vt 0.75 0.51393
vt 0.25 0.75
vt 0.75 0.75
vt 0.25 0.51393
vt 0.75 0.25
vt 0.25 0.25
vt 0.75 0.25
vt 0.25 0.25
vt 0.25 0.25
vt 0.75 0.25
vt 0.75 0.514663
vt 0.25 0.25
vt 0.75 0.25
vt 0.25 0.514663
vt 0.75 0.75
vt 0.25 0.75
vn 0 1 0
vn 0 1 0
vn 0 1 0
vn 0 1 0
vn 0 1 0
vn 0 1 0
vn 0 1 0
vn 0 1 0
vn 0 1 0
vn 0 -1 0
vn 0 -1 0
vn 0 -1 0
vn 0 -1 0
vn 0 -1 0
vn 0 -1 0
vn 0 -1 0
vn 0 -1 0
vn 0 -1 0
vn 0 0 1
vn 0 0 1
vn -0.6128566 0 0.7901941
vn -0.6128566 0 0.7901941
vn -0.7857378 0 0.6185597
vn -0.7857378 0 0.6185597
vn 0.6153905 0 0.7882224
vn 0 0 1
vn 0 0 1
vn 0.6153905 0 0.7882224
vn 0.7889913 0 0.6144044
vn 0.7889913 0 0.6144044
vn 0.937566 0 -0.3478071
vn 0.7863179 0 -0.6178221
vn 0.7863179 0 -0.6178221
vn 0.937566 0 -0.3478071
vn 1 0 0
vn 1 0 0
vn 0 0 -1
vn 0 0 -1
vn 0 0 -1
vn 0 0 -1
vn -0.937566 0 -0.3478071
vn -1 0 0
vn -1 0 0
vn -0.937566 0 -0.3478071
vn -0.7853836 0 -0.6190094
vn -0.7853836 0 -0.6190094
g LetterSign_Y_0
f 3/3/3 2/2/2 1/1/1
f 2/2/2 4/4/4 1/1/1
f 4/4/4 5/5/5 1/1/1
f 1/1/1 5/5/5 6/6/6
f 5/5/5 7/7/7 6/6/6
f 8/8/8 5/5/5 4/4/4
f 9/9/9 8/8/8 4/4/4
f 12/12/12 11/11/11 10/10/10
f 13/13/13 12/12/12 10/10/10
f 14/14/14 13/13/13 10/10/10
f 14/14/14 10/10/10 15/15/15
f 16/16/16 14/14/14 15/15/15
f 14/14/14 17/17/17 13/13/13
f 17/17/17 18/18/18 13/13/13
f 21/21/21 20/20/20 19/19/19
f 22/22/22 21/21/21 19/19/19
f 23/23/23 21/21/21 22/22/22
f 24/24/24 23/23/23 22/22/22
f 27/27/27 26/26/26 25/25/25
f 26/26/26 28/28/28 25/25/25
f 25/25/25 28/28/28 29/29/29
f 28/28/28 30/30/30 29/29/29
f 33/33/33 32/32/32 31/31/31
f 32/32/32 34/34/34 31/31/31
f 31/31/31 34/34/34 35/35/35
f 34/34/34 36/36/36 35/35/35
f 39/39/39 38/38/38 37/37/37
f 40/40/40 39/39/39 37/37/37
f 43/43/43 42/42/42 41/41/41
f 42/42/42 44/44/44 41/41/41
f 41/41/41 44/44/44 45/45/45
f 44/44/44 46/46/46 45/45/45
