g LetterSign_M
v -0.640296 0.278928 0
v -0.455102 0.278928 1.372854
v -0.640296 0.278928 1.372854
v -0.441659 0.278928 1.069436
v -0.443024 0.278928 0
v -0.000168 0.278928 0.809219
v -0.000168 0.278928 0.531812
v 0.441324 0.278928 1.069436
v 0.639961 0.278928 1.372854
v 0.456779 0.278928 1.372854
v 0.639961 0.278928 0
v 0.442688 0.278928 0
v -0.640296 -0.278928 0
v -0.640296 -0.278928 1.372854
v -0.455102 -0.278928 1.372854
v -0.441659 -0.278928 1.069436
v -0.443024 -0.278928 0
v -0.000168 -0.278928 0.809219
v -0.000168 -0.278928 0.531812
v 0.441324 -0.278928 1.069436
v 0.639961 -0.278928 1.372854
v 0.456779 -0.278928 1.372854
v 0.639961 -0.278928 0
v 0.442688 -0.278928 0
v 0.639961 0.278928 1.372854
v 0.639961 -0.278928 1.372854
v 0.456779 -0.278928 1.372854
v 0.456779 0.278928 1.372854
v -0.000168 -0.278928 0.809219
v -0.000168 0.278928 0.809219
v 0.442688 0.278928 0
v 0.442688 -0.278928 0
v 0.639961 -0.278928 0
v 0.639961 0.278928 0
v -0.443024 0.278928 0
v -0.443024 -0.278928 0
v -0.441659 -0.278928 1.069436
v -0.441659 0.278928 1.069436
v -0.640296 0.278928 0
v -0.640296 -0.278928 0
v -0.443024 -0.278928 0
v -0.443024 0.278928 0
v -0.441659 0.278928 1.069436
v -0.441659 -0.278928 1.069436
v -0.000168 -0.278928 0.531812
v -0.000168 0.278928 0.531812
v -0.455102 0.278928 1.372854
v -0.640296 -0.278928 1.372854
v -0.640296 0.278928 1.372854
v -0.455102 -0.278928 1.372854
v -0.000168 0.278928 0.809219
v -0.000168 -0.278928 0.809219
v 0.639961 0.278928 0
v 0.639961 -0.278928 0
v 0.639961 -0.278928 1.372854
v 0.639961 0.278928 1.372854
v -0.000168 0.278928 0.531812
v -0.000168 -0.278928 0.531812
v 0.441324 -0.278928 1.069436
v 0.441324 0.278928 1.069436
v -0.640296 0.278928 1.372854
v -0.640296 -0.278928 1.372854
v -0.640296 -0.278928 0
v -0.640296 0.278928 0
v 0.441324 0.278928 1.069436
v 0.441324 -0.278928 1.069436
v 0.442688 -0.278928 0
v 0.442688 0.278928 0
vt 0.25 0.25
vt 0.322327 0.749999
vt 0.25 0.749999
vt 0.327577 0.639493
vt 0.327044 0.25
vt 0.5 0.544721
vt 0.5 0.443688
vt 0.672423 0.639493
vt 0.75 0.749999
vt 0.67846 0.749999
vt 0.75 0.25
vt 0.672956 0.25
vt 0.25 0.25
vt 0.25 0.75
vt 0.322327 0.75
vt 0.327577 0.639494
vt 0.327044 0.25
vt 0.5 0.544721
vt 0.5 0.443688
vt 0.672423 0.639494
vt 0.75 0.75
vt 0.67846 0.75
vt 0.75 0.25
vt 0.672956 0.25
vt 0.75 0.75
vt 0.25 0.75
vt 0.25 0.75
vt 0.75 0.75
vt 0.25 0.544721
vt 0.75 0.544721
vt 0.75 0.25
vt 0.25 0.25
vt 0.25 0.25
vt 0.75 0.25
vt 0.75 0.25
vt 0.25 0.25
vt 0.25 0.639494
vt 0.75 0.639494
vt 0.75 0.25
vt 0.25 0.25
vt 0.25 0.25
vt 0.75 0.25
vt 0.75 0.639494
vt 0.25 0.639494
vt 0.25 0.443688
vt 0.75 0.443688
vt 0.75 0.75
vt 0.25 0.75
vt 0.75 0.75
vt 0.25 0.75
vt 0.75 0.544721
vt 0.25 0.544721
vt 0.75 0.25
vt 0.25 0.25
vt 0.25 0.75
vt 0.75 0.75
vt 0.75 0.443688
vt 0.25 0.443688
vt 0.25 0.639494
vt 0.75 0.639494
vt 0.75 0.75
vt 0.25 0.75
vt 0.25 0.25
vt 0.75 0.25
vt 0.75 0.639494
vt 0.25 0.639494
vt 0.25 0.25
vt 0.75 0.25
vn 0 1 0
vn 0 1 0
vn 0 1 0
vn 0 1 0
vn 0 1 0
vn 0 1 0
vn 0 1 0
vn 0 1 0
vn 0 1 0
vn 0 1 0
vn 0 1 0
vn 0 1 0
vn 0 -1 0
vn 0 -1 0
vn 0 -1 0
vn 0 -1 0
vn 0 -1 0
vn 0 -1 0
vn 0 -1 0
vn 0 -1 0
vn 0 -1 0
vn 0 -1 0
vn 0 -1 0
vn 0 -1 0
vn 0 0 1
vn 0 0 1
vn -0.6608403 0 0.7505266
vn -0.6608403 0 0.7505266
vn -0.7767923 0 0.6297567
vn -0.7767923 0 0.6297567
vn 0 0 -1
vn 0 0 -1
vn 0 0 -1
vn 0 0 -1
vn 0.9999992 0 -0.001276378
vn 0.9999992 0 -0.001276378
vn 0.9999992 0 -0.001276378
vn 0.9999992 0 -0.001276378
vn 0 0 -1
vn 0 0 -1
vn 0 0 -1
vn 0 0 -1
vn -0.772817 0 -0.634629
vn -0.772817 0 -0.634629
vn -0.772817 0 -0.634629
vn -0.772817 0 -0.634629
vn 0.6608409 0 0.750526
vn 0 0 1
vn 0 0 1
vn 0.6608409 0 0.750526
vn 0.7781501 0 0.6280783
vn 0.7781501 0 0.6280783
vn 1 0 0
vn 1 0 0
vn 1 0 0
vn 1 0 0
vn 0.7728162 0 -0.6346298
vn 0.7728162 0 -0.6346298
vn 0.7728162 0 -0.6346298
vn 0.7728162 0 -0.6346298
vn -1 0 0
vn -1 0 0
vn -1 0 0
vn -1 0 0
vn -0.9999992 0 -0.001275431
vn -0.9999992 0 -0.001275431
vn -0.9999992 0 -0.001275431
vn -0.9999992 0 -0.001275431
g LetterSign_M_0
f 3/3/3 2/2/2 1/1/1
f 2/2/2 4/4/4 1/1/1
f 4/4/4 5/5/5 1/1/1
f 2/2/2 6/6/6 4/4/4
f 4/4/4 6/6/6 7/7/7
f 8/8/8 7/7/7 6/6/6
f 9/9/9 8/8/8 6/6/6
f 10/10/10 9/9/9 6/6/6
f 9/9/9 11/11/11 8/8/8
f 8/8/8 11/11/11 12/12/12
f 15/15/15 14/14/14 13/13/13
f 16/16/16 15/15/15 13/13/13
f 17/17/17 16/16/16 13/13/13
f 18/18/18 15/15/15 16/16/16
f 18/18/18 16/16/16 19/19/19
f 19/19/19 20/20/20 18/18/18
f 20/20/20 21/21/21 18/18/18
f 21/21/21 22/22/22 18/18/18
f 23/23/23 21/21/21 20/20/20
f 23/23/23 20/20/20 24/24/24
f 27/27/27 26/26/26 25/25/25
f 28/28/28 27/27/27 25/25/25
f 29/29/29 27/27/27 28/28/28
f 30/30/30 29/29/29 28/28/28
f 33/33/33 32/32/32 31/31/31
f 34/34/34 33/33/33 31/31/31
f 37/37/37 36/36/36 35/35/35
f 38/38/38 37/37/37 35/35/35
f 41/41/41 40/40/40 39/39/39
f 42/42/42 41/41/41 39/39/39
f 45/45/45 44/44/44 43/43/43
f 46/46/46 45/45/45 43/43/43
f 49/49/49 48/48/48 47/47/47
f 48/48/48 50/50/50 47/47/47
f 47/47/47 50/50/50 51/51/51
f 50/50/50 52/52/52 51/51/51
f 55/55/55 54/54/54 53/53/53
f 56/56/56 55/55/55 53/53/53
f 59/59/59 58/58/58 57/57/57
f 60/60/60 59/59/59 57/57/57
f 63/63/63 62/62/62 61/61/61
f 64/64/64 63/63/63 61/61/61
f 67/67/67 66/66/66 65/65/65
f 68/68/68 67/67/67 65/65/65
