g MailBox_Door
v 0.332692 -0.003675 -0.084136
v 0.332692 -0.027183 -0.084136
v 0.332692 -0.027183 0.270289
v 0.332692 -0.003675 0.270289
v 0.332692 0.029752 -0.084136
v 0.261239 -0.027183 0.442792
v 0.332692 0.029752 0.270289
v 0.261239 -0.003675 0.442792
v 0.088737 -0.027183 0.514245
v 0.261239 0.029752 0.442792
v 0.088737 -0.003675 0.514245
v -0.088736 -0.027183 0.514245
v 0.088737 0.029752 0.514245
v -0.088736 -0.003675 0.514245
v -0.261238 -0.027183 0.442792
v -0.088736 0.029752 0.514245
v -0.261238 -0.003675 0.442792
v -0.332691 -0.027183 0.270289
v -0.261238 0.029752 0.442792
v -0.332691 -0.003675 0.270289
v -0.332691 -0.027183 -0.084136
v -0.332691 0.029752 0.270289
v -0.332691 -0.003675 -0.084136
v -0.332691 0.029752 -0.084136
v -0.299542 -0.003675 -0.050987
v -0.299542 -0.027183 -0.050987
v -0.299542 -0.027183 0.263695
v -0.299542 -0.003675 0.263695
v -0.235867 -0.027183 0.41742
v -0.235867 -0.003675 0.41742
v -0.082142 -0.027183 0.481095
v -0.082142 -0.003675 0.481095
v 0.082143 -0.027183 0.481095
v 0.082143 -0.003675 0.481095
v 0.235868 -0.027183 0.41742
v 0.235868 -0.003675 0.41742
v 0.299543 -0.027183 0.263695
v 0.299543 -0.003675 0.263695
v 0.299543 -0.027183 -0.050987
v 0.299543 -0.003675 -0.050987
v 0.299543 -0.003675 0.263695
v 0.299543 -0.003675 -0.050987
v -0.299542 -0.003675 -0.050987
v -0.299542 -0.003675 0.263695
v 0.235868 -0.003675 0.41742
v -0.235867 -0.003675 0.41742
v 0.082143 -0.003675 0.481095
v -0.082142 -0.003675 0.481095
v -0.332691 0.029752 -0.084136
v 0.332692 -0.003675 -0.084136
v 0.332692 0.029752 -0.084136
v -0.332691 -0.003675 -0.084136
v 0.332692 -0.027183 -0.084136
v -0.332691 -0.027183 -0.084136
v 0.299543 -0.003675 -0.050987
v 0.299543 -0.027183 -0.050987
v -0.299542 -0.027183 -0.050987
v -0.299542 -0.003675 -0.050987
v 0.299543 0.029752 -0.050987
v -0.299542 0.029752 -0.050987
v -0.332691 0.029752 -0.084136
v -0.332691 0.029752 0.270289
v 0.332692 0.029752 -0.084136
v -0.299542 0.029752 0.263695
v -0.261238 0.029752 0.442792
v 0.299543 0.029752 0.263695
v 0.332692 0.029752 0.270289
v -0.235867 0.029752 0.41742
v -0.088736 0.029752 0.514245
v 0.235868 0.029752 0.41742
v 0.261239 0.029752 0.442792
v -0.082142 0.029752 0.481095
v 0.088737 0.029752 0.514245
v 0.082143 0.029752 0.481095
v -0.235867 -0.027183 0.41742
v -0.261238 -0.027183 0.442792
v -0.088736 -0.027183 0.514245
v -0.082142 -0.027183 0.481095
v -0.299542 -0.027183 0.263695
v 0.088737 -0.027183 0.514245
v -0.332691 -0.027183 0.270289
v 0.082143 -0.027183 0.481095
v -0.299542 -0.027183 -0.050987
v 0.261239 -0.027183 0.442792
v -0.332691 -0.027183 -0.084136
v 0.235868 -0.027183 0.41742
v 0.299543 -0.027183 -0.050987
v 0.332692 -0.027183 0.270289
v 0.332692 -0.027183 -0.084136
v 0.299543 -0.027183 0.263695
vt 0.969586 0.634049
vt 0.969586 0.634049
vt 0.969586 0.84776
vt 0.969586 0.84776
vt 0.969586 0.634049
vt 0.918385 0.951776
vt 0.969586 0.84776
vt 0.918385 0.951776
vt 0.794786 0.994861
vt 0.918385 0.951776
vt 0.794786 0.994861
vt 0.667623 0.994861
vt 0.794786 0.994861
vt 0.667623 0.994861
vt 0.544024 0.951776
vt 0.667623 0.994861
vt 0.544024 0.951776
vt 0.492822 0.84776
vt 0.544024 0.951776
vt 0.492822 0.84776
vt 0.492822 0.634049
vt 0.492822 0.84776
vt 0.492822 0.634049
vt 0.492822 0.634049
vt 0.516574 0.654037
vt 0.516574 0.654037
vt 0.516574 0.843784
vt 0.516574 0.843784
vt 0.5622 0.936478
vt 0.5622 0.936478
vt 0.67235 0.974872
vt 0.67235 0.974872
vt 0.790064 0.974872
vt 0.790064 0.974872
vt 0.900209 0.936478
vt 0.900209 0.936478
vt 0.945835 0.843784
vt 0.945835 0.843784
vt 0.945835 0.654037
vt 0.945835 0.654037
vt 0.945835 0.843784
vt 0.945835 0.654037
vt 0.516574 0.654037
vt 0.516574 0.843784
vt 0.900209 0.936478
vt 0.5622 0.936478
vt 0.790064 0.974872
vt 0.67235 0.974872
vt 0.492822 0.634049
vt 0.969586 0.634049
vt 0.969586 0.634049
vt 0.492822 0.634049
vt 0.969586 0.634049
vt 0.492822 0.634049
vt 0.945835 0.654037
vt 0.945835 0.654037
vt 0.516574 0.654037
vt 0.516574 0.654037
vt 0.945835 0.654037
vt 0.516574 0.654037
vt 0.492822 0.634049
vt 0.492822 0.84776
vt 0.969586 0.634049
vt 0.516574 0.843784
vt 0.544024 0.951776
vt 0.945835 0.843784
vt 0.969586 0.84776
vt 0.5622 0.936478
vt 0.667623 0.994861
vt 0.900209 0.936478
vt 0.918385 0.951776
vt 0.67235 0.974872
vt 0.794786 0.994861
vt 0.790064 0.974872
vt 0.5622 0.936478
vt 0.544024 0.951776
vt 0.667623 0.994861
vt 0.67235 0.974872
vt 0.516574 0.843784
vt 0.794786 0.994861
vt 0.492822 0.84776
vt 0.790064 0.974872
vt 0.516574 0.654037
vt 0.918385 0.951776
vt 0.492822 0.634049
vt 0.900209 0.936478
vt 0.945835 0.654037
vt 0.969586 0.84776
vt 0.969586 0.634049
vt 0.945835 0.843784
vn 1 0 0
vn 1 0 0
vn 0.9909309 0 0.1343732
vn 0.9909309 0 0.1343732
vn 1 0 0
vn 0.7071082 0 0.7071053
vn 0.9909309 0 0.1343732
vn 0.7071082 0 0.7071053
vn 0.2000393 0 0.9797879
vn 0.7071082 0 0.7071053
vn 0.2000393 0 0.9797879
vn -0.2000393 0 0.9797879
vn 0.2000393 0 0.9797879
vn -0.2000393 0 0.9797879
vn -0.7071081 0 0.7071053
vn -0.2000393 0 0.9797879
vn -0.7071081 0 0.7071053
vn -0.9909309 0 0.1343732
vn -0.7071081 0 0.7071053
vn -0.9909309 0 0.1343732
vn -1 0 0
vn -0.9909309 0 0.1343732
vn -1 0 0
vn -1 0 0
vn 1 0 0
vn 1 0 0
vn 0.9908863 0 -0.1347006
vn 0.9908863 0 -0.1347006
vn 0.7071068 0 -0.7071068
vn 0.7071068 0 -0.7071068
vn 0.1963326 0 -0.9805374
vn 0.1963326 0 -0.9805374
vn -0.1963326 0 -0.9805374
vn -0.1963326 0 -0.9805374
vn -0.7071068 0 -0.7071068
vn -0.7071068 0 -0.7071068
vn -0.9908863 0 -0.1347006
vn -0.9908863 0 -0.1347006
vn -1 0 0
vn -1 0 0
vn 0 -1 0
vn 0 -1 0
vn 0 -1 0
vn 0 -1 0
vn 0 -1 0
vn 0 -1 0
vn 0 -1 0
vn 0 -1 0
vn 0 0 -1
vn 0 0 -1
vn 0 0 -1
vn 0 0 -1
vn 0 0 -1
vn 0 0 -1
vn 0 0 1
vn 0 0 1
vn 0 0 1
vn 0 0 1
vn 0 1 0
vn 0 1 0
vn 0 1 0
vn 0 1 0
vn 0 1 0
vn 0 1 0
vn 0 1 0
vn 0 1 0
vn 0 1 0
vn 0 1 0
vn 0 1 0
vn 0 1 0
vn 0 1 0
vn 0 1 0
vn 0 1 0
vn 0 1 0
vn 0 -1 0
vn 0 -1 0
vn 0 -1 0
vn 0 -1 0
vn 0 -1 0
vn 0 -1 0
vn 0 -1 0
vn 0 -1 0
vn 0 -1 0
vn 0 -1 0
vn 0 -1 0
vn 0 -1 0
vn 0 -1 0
vn 0 -1 0
vn 0 -1 0
vn 0 -1 0
g MailBox_Door_0
f 3/3/3 2/2/2 1/1/1
f 4/4/4 3/3/3 1/1/1
f 4/4/4 1/1/1 5/5/5
f 6/6/6 3/3/3 4/4/4
f 7/7/7 4/4/4 5/5/5
f 8/8/8 6/6/6 4/4/4
f 8/8/8 4/4/4 7/7/7
f 9/9/9 6/6/6 8/8/8
f 10/10/10 8/8/8 7/7/7
f 11/11/11 9/9/9 8/8/8
f 11/11/11 8/8/8 10/10/10
f 12/12/12 9/9/9 11/11/11
f 13/13/13 11/11/11 10/10/10
f 14/14/14 12/12/12 11/11/11
f 14/14/14 11/11/11 13/13/13
f 15/15/15 12/12/12 14/14/14
f 16/16/16 14/14/14 13/13/13
f 17/17/17 15/15/15 14/14/14
f 17/17/17 14/14/14 16/16/16
f 18/18/18 15/15/15 17/17/17
f 19/19/19 17/17/17 16/16/16
f 20/20/20 18/18/18 17/17/17
f 20/20/20 17/17/17 19/19/19
f 21/21/21 18/18/18 20/20/20
f 22/22/22 20/20/20 19/19/19
f 23/23/23 21/21/21 20/20/20
f 23/23/23 20/20/20 22/22/22
f 24/24/24 23/23/23 22/22/22
f 27/27/27 26/26/26 25/25/25
f 28/28/28 27/27/27 25/25/25
f 29/29/29 27/27/27 28/28/28
f 30/30/30 29/29/29 28/28/28
f 31/31/31 29/29/29 30/30/30
f 32/32/32 31/31/31 30/30/30
f 33/33/33 31/31/31 32/32/32
f 34/34/34 33/33/33 32/32/32
f 35/35/35 33/33/33 34/34/34
f 36/36/36 35/35/35 34/34/34
f 37/37/37 35/35/35 36/36/36
f 38/38/38 37/37/37 36/36/36
f 39/39/39 37/37/37 38/38/38
f 40/40/40 39/39/39 38/38/38
f 43/43/43 42/42/42 41/41/41
f 41/41/41 44/44/44 43/43/43
f 41/41/41 45/45/45 44/44/44
f 45/45/45 46/46/46 44/44/44
f 45/45/45 47/47/47 46/46/46
f 47/47/47 48/48/48 46/46/46
f 51/51/51 50/50/50 49/49/49
f 50/50/50 52/52/52 49/49/49
f 50/50/50 53/53/53 52/52/52
f 53/53/53 54/54/54 52/52/52
f 57/57/57 56/56/56 55/55/55
f 58/58/58 57/57/57 55/55/55
f 61/61/61 60/60/60 59/59/59
f 61/61/61 62/62/62 60/60/60
f 63/63/63 61/61/61 59/59/59
f 62/62/62 64/64/64 60/60/60
f 59/59/59 60/60/60 64/64/64
f 62/62/62 65/65/65 64/64/64
f 63/63/63 59/59/59 66/66/66
f 64/64/64 66/66/66 59/59/59
f 67/67/67 63/63/63 66/66/66
f 65/65/65 68/68/68 64/64/64
f 64/64/64 68/68/68 66/66/66
f 65/65/65 69/69/69 68/68/68
f 67/67/67 66/66/66 70/70/70
f 68/68/68 70/70/70 66/66/66
f 71/71/71 67/67/67 70/70/70
f 69/69/69 72/72/72 68/68/68
f 68/68/68 72/72/72 70/70/70
f 69/69/69 73/73/73 72/72/72
f 71/71/71 70/70/70 74/74/74
f 72/72/72 74/74/74 70/70/70
f 73/73/73 71/71/71 74/74/74
f 73/73/73 74/74/74 72/72/72
f 77/77/77 76/76/76 75/75/75
f 78/78/78 77/77/77 75/75/75
f 75/75/75 76/76/76 79/79/79
f 80/80/80 77/77/77 78/78/78
f 76/76/76 81/81/81 79/79/79
f 82/82/82 80/80/80 78/78/78
f 79/79/79 81/81/81 83/83/83
f 84/84/84 80/80/80 82/82/82
f 81/81/81 85/85/85 83/83/83
f 86/86/86 84/84/84 82/82/82
f 83/83/83 85/85/85 87/87/87
f 88/88/88 84/84/84 86/86/86
f 85/85/85 89/89/89 87/87/87
f 90/90/90 88/88/88 86/86/86
f 87/87/87 89/89/89 90/90/90
f 89/89/89 88/88/88 90/90/90
