g MailBox
v 0.303845 0.516524 -0.324832
v -0.303844 0.516524 -0.324832
v -0.303844 -0.487855 -0.324832
v 0.303845 -0.487855 -0.324832
v -0.303844 -0.487855 -0.324832
v -0.303844 -0.487855 -0.293604
v 0.303845 -0.487855 -0.293604
v 0.303845 -0.487855 -0.324832
v -0.303844 0.516524 -0.324832
v -0.303844 -0.487855 -0.293604
v -0.303844 -0.487855 -0.324832
v -0.303844 0.516524 -0.293604
v -0.303844 -0.487855 0.030089
v -0.303844 0.516524 0.030089
v -0.238587 -0.487855 0.187635
v -0.238587 0.516524 0.187635
v -0.081041 -0.487855 0.252892
v -0.081041 0.516524 0.252892
v 0.081042 0.516524 0.252892
v 0.081042 -0.487855 0.252892
v 0.238588 -0.487855 0.187635
v 0.238588 0.516524 0.187635
v 0.303845 -0.487855 0.030089
v 0.303845 0.516524 0.030089
v 0.303845 -0.487855 -0.293604
v 0.303845 0.516524 -0.293604
v 0.303845 -0.487855 -0.324832
v 0.303845 0.516524 -0.324832
v 0.303845 0.516524 -0.324832
v -0.303844 0.516524 -0.293604
v -0.303844 0.516524 -0.324832
v 0.303845 0.516524 -0.293604
v -0.303844 0.516524 0.030089
v 0.303845 0.516524 0.030089
v -0.238587 0.516524 0.187635
v 0.238588 0.516524 0.187635
v -0.081041 0.516524 0.252892
v 0.081042 0.516524 0.252892
v 0.27357 -0.487855 -0.263329
v 0.303845 -0.487855 -0.293604
v -0.303844 -0.487855 -0.293604
v -0.273569 -0.487855 -0.263329
v -0.215415 -0.487855 0.164463
v -0.238587 -0.487855 0.187635
v -0.081041 -0.487855 0.252892
v -0.075019 -0.487855 0.222617
v -0.273569 -0.487855 0.024067
v -0.303844 -0.487855 0.030089
v -0.238587 -0.487855 0.187635
v -0.215415 -0.487855 0.164463
v 0.215416 -0.487855 0.164463
v 0.238588 -0.487855 0.187635
v 0.303845 -0.487855 0.030089
v 0.27357 -0.487855 0.024067
v 0.07502 -0.487855 0.222617
v 0.081042 -0.487855 0.252892
v 0.238588 -0.487855 0.187635
v 0.215416 -0.487855 0.164463
v -0.075019 -0.487855 0.222617
v -0.081041 -0.487855 0.252892
v 0.081042 -0.487855 0.252892
v 0.07502 -0.487855 0.222617
v -0.273569 -0.487855 -0.263329
v -0.303844 -0.487855 -0.293604
v -0.303844 -0.487855 0.030089
v -0.273569 -0.487855 0.024067
v 0.27357 -0.487855 0.024067
v 0.303845 -0.487855 0.030089
v 0.303845 -0.487855 -0.293604
v 0.27357 -0.487855 -0.263329
v 0.27357 0.452018 0.024067
v 0.27357 0.452018 -0.263329
v -0.273569 0.452018 -0.263329
v -0.273569 0.452018 0.024067
v 0.215416 0.452018 0.164463
v -0.215415 0.452018 0.164463
v 0.07502 0.452018 0.222617
v -0.075019 0.452018 0.222617
v -0.273569 -0.487855 -0.263329
v -0.273569 0.452018 -0.263329
v 0.27357 0.452018 -0.263329
v 0.27357 -0.487855 -0.263329
v 0.27357 -0.487855 -0.263329
v 0.27357 0.452018 -0.263329
v 0.27357 0.452018 0.024067
v 0.27357 -0.487855 0.024067
v 0.215416 0.452018 0.164463
v 0.215416 -0.487855 0.164463
v 0.07502 0.452018 0.222617
v 0.07502 -0.487855 0.222617
v -0.075019 0.452018 0.222617
v -0.075019 -0.487855 0.222617
v -0.215415 0.452018 0.164463
v -0.215415 -0.487855 0.164463
v -0.273569 0.452018 0.024067
v -0.273569 -0.487855 0.024067
v -0.273569 0.452018 -0.263329
v -0.273569 -0.487855 -0.263329
vt 0.573038 0.668926
vt 0.573038 0.948396
vt 0.852508 0.948396
vt 0.852508 0.668926
vt 0.573038 0.668926
vt 0.573038 0.948396
vt 0.852508 0.948396
vt 0.852508 0.668926
vt 0.933846 0.95284
vt 0.925367 0.646453
vt 0.933754 0.64645
vt 0.92546 0.952843
vt 0.83844 0.646487
vt 0.838533 0.952877
vt 0.792645 0.646505
vt 0.792738 0.952895
vt 0.746851 0.646523
vt 0.746944 0.952913
vt 0.703417 0.95293
vt 0.703324 0.64654
vt 0.657529 0.646558
vt 0.657622 0.952948
vt 0.611735 0.646576
vt 0.611828 0.952966
vt 0.524807 0.64661
vt 0.5249 0.953
vt 0.516421 0.646613
vt 0.516514 0.953003
vt 0.491446 0.640852
vt 0.964809 0.659959
vt 0.964809 0.640853
vt 0.491446 0.65996
vt 0.96481 0.858011
vt 0.491447 0.858011
vt 0.913977 0.954405
vt 0.542279 0.954405
vt 0.791256 0.994333
vt 0.665 0.994333
vt 0.573038 0.668926
vt 0.573038 0.948396
vt 0.852508 0.948396
vt 0.852508 0.668926
vt 0.573038 0.668926
vt 0.573038 0.948396
vt 0.852508 0.948396
vt 0.852508 0.668926
vt 0.573038 0.668926
vt 0.573038 0.948396
vt 0.852508 0.948396
vt 0.852508 0.668926
vt 0.573038 0.668926
vt 0.573038 0.948396
vt 0.852508 0.948396
vt 0.852508 0.668926
vt 0.573038 0.668926
vt 0.573038 0.948396
vt 0.852508 0.948396
vt 0.852508 0.668926
vt 0.573038 0.668926
vt 0.573038 0.948396
vt 0.852508 0.948396
vt 0.852508 0.668926
vt 0.573038 0.668926
vt 0.573038 0.948396
vt 0.852508 0.948396
vt 0.852508 0.668926
vt 0.573038 0.668926
vt 0.573038 0.948396
vt 0.852508 0.948396
vt 0.852508 0.668926
vt 0.736713 0.80295
vt 0.753359 0.816835
vt 0.760755 0.766608
vt 0.738707 0.776441
vt 0.730296 0.797761
vt 0.732816 0.781807
vt 0.729461 0.792382
vt 0.730262 0.787108
vt 0.506119 0.650512
vt 0.506119 0.890952
vt 0.960548 0.890952
vt 0.960548 0.650512
vt 0.692138 0.83054
vt 0.753359 0.816835
vt 0.736713 0.80295
vt 0.687948 0.81182
vt 0.730296 0.797761
vt 0.686387 0.802556
vt 0.729461 0.792382
vt 0.685467 0.79282
vt 0.730262 0.787108
vt 0.685467 0.783558
vt 0.732816 0.781807
vt 0.686305 0.774074
vt 0.738707 0.776441
vt 0.688067 0.764029
vt 0.760755 0.766608
vt 0.693343 0.744151
vn 0 0 -1
vn 0 0 -1
vn 0 0 -1
vn 0 0 -1
vn 0 -1 0
vn 0 -1 0
vn 0 -1 0
vn 0 -1 0
vn -1 0 0
vn -1 0 0
vn -1 0 0
vn -1 0 0
vn -0.990931 0 0.1343723
vn -0.990931 0 0.1343723
vn -0.7071067 0 0.7071068
vn -0.7071067 0 0.7071068
vn -0.2000382 0 0.9797881
vn -0.2000382 0 0.9797881
vn 0.2000382 0 0.9797881
vn 0.2000382 0 0.9797881
vn 0.7071067 0 0.7071068
vn 0.7071067 0 0.7071068
vn 0.990931 0 0.1343722
vn 0.990931 0 0.1343722
vn 1 0 0
vn 1 0 0
vn 1 0 0
vn 1 0 0
vn 0 1 0
vn 0 1 0
vn 0 1 0
vn 0 1 0
vn 0 1 0
vn 0 1 0
vn 0 1 0
vn 0 1 0
vn 0 1 0
vn 0 1 0
vn 0 -1 0
vn 0 -1 0
vn 0 -1 0
vn 0 -1 0
vn 0 -1 0
vn 0 -1 0
vn 0 -1 0
vn 0 -1 0
vn 0 -1 0
vn 0 -1 0
vn 0 -1 0
vn 0 -1 0
vn 0 -1 0
vn 0 -1 0
vn 0 -1 0
vn 0 -1 0
vn 0 -1 0
vn 0 -1 0
vn 0 -1 0
vn 0 -1 0
vn 0 -1 0
vn 0 -1 0
vn 0 -1 0
vn 0 -1 0
vn 0 -1 0
vn 0 -1 0
vn 0 -1 0
vn 0 -1 0
vn 0 -1 0
vn 0 -1 0
vn 0 -1 0
vn 0 -1 0
vn 0 -1 0
vn 0 -1 0
vn 0 -1 0
vn 0 -1 0
vn 0 -1 0
vn 0 -1 0
vn 0 -1 0
vn 0 -1 0
vn 0 0 1
vn 0 0 1
vn 0 0 1
vn 0 0 1
vn -1 0 0
vn -1 0 0
vn -0.9908862 0 -0.134701
vn -0.9908862 0 -0.134701
vn -0.7071068 0 -0.7071068
vn -0.7071068 0 -0.7071068
vn -0.1963336 0 -0.9805371
vn -0.1963336 0 -0.9805371
vn 0.1963336 0 -0.9805371
vn 0.1963336 0 -0.9805371
vn 0.7071068 0 -0.7071067
vn 0.7071068 0 -0.7071067
vn 0.9908863 0 -0.1347009
vn 0.9908863 0 -0.1347009
vn 1 0 0
vn 1 0 0
g MailBox_0
f 3/3/3 2/2/2 1/1/1
f 4/4/4 3/3/3 1/1/1
f 7/7/7 6/6/6 5/5/5
f 8/8/8 7/7/7 5/5/5
f 11/11/11 10/10/10 9/9/9
f 10/10/10 12/12/12 9/9/9
f 10/10/10 13/13/13 12/12/12
f 13/13/13 14/14/14 12/12/12
f 14/14/14 13/13/13 15/15/15
f 16/16/16 14/14/14 15/15/15
f 16/16/16 15/15/15 17/17/17
f 18/18/18 16/16/16 17/17/17
f 18/18/18 17/17/17 19/19/19
f 17/17/17 20/20/20 19/19/19
f 19/19/19 20/20/20 21/21/21
f 22/22/22 19/19/19 21/21/21
f 22/22/22 21/21/21 23/23/23
f 24/24/24 22/22/22 23/23/23
f 24/24/24 23/23/23 25/25/25
f 26/26/26 24/24/24 25/25/25
f 26/26/26 25/25/25 27/27/27
f 28/28/28 26/26/26 27/27/27
f 31/31/31 30/30/30 29/29/29
f 30/30/30 32/32/32 29/29/29
f 32/32/32 30/30/30 33/33/33
f 33/33/33 34/34/34 32/32/32
f 33/33/33 35/35/35 34/34/34
f 35/35/35 36/36/36 34/34/34
f 35/35/35 37/37/37 36/36/36
f 37/37/37 38/38/38 36/36/36
f 41/41/41 40/40/40 39/39/39
f 42/42/42 41/41/41 39/39/39
f 45/45/45 44/44/44 43/43/43
f 46/46/46 45/45/45 43/43/43
f 49/49/49 48/48/48 47/47/47
f 50/50/50 49/49/49 47/47/47
f 53/53/53 52/52/52 51/51/51
f 54/54/54 53/53/53 51/51/51
f 57/57/57 56/56/56 55/55/55
f 58/58/58 57/57/57 55/55/55
f 61/61/61 60/60/60 59/59/59
f 62/62/62 61/61/61 59/59/59
f 65/65/65 64/64/64 63/63/63
f 66/66/66 65/65/65 63/63/63
f 69/69/69 68/68/68 67/67/67
f 70/70/70 69/69/69 67/67/67
f 73/73/73 72/72/72 71/71/71
f 71/71/71 74/74/74 73/73/73
f 71/71/71 75/75/75 74/74/74
f 75/75/75 76/76/76 74/74/74
f 75/75/75 77/77/77 76/76/76
f 77/77/77 78/78/78 76/76/76
f 81/81/81 80/80/80 79/79/79
f 82/82/82 81/81/81 79/79/79
f 85/85/85 84/84/84 83/83/83
f 86/86/86 85/85/85 83/83/83
f 87/87/87 85/85/85 86/86/86
f 88/88/88 87/87/87 86/86/86
f 89/89/89 87/87/87 88/88/88
f 90/90/90 89/89/89 88/88/88
f 91/91/91 89/89/89 90/90/90
f 92/92/92 91/91/91 90/90/90
f 93/93/93 91/91/91 92/92/92
f 94/94/94 93/93/93 92/92/92
f 95/95/95 93/93/93 94/94/94
f 96/96/96 95/95/95 94/94/94
f 97/97/97 95/95/95 96/96/96
f 98/98/98 97/97/97 96/96/96
