g MarketPlaceBase
v 4.000001 -4.111753 0.638694
v 3.999999 2.700639 0.638694
v 3.999999 2.700639 0.013718
v 4.000001 -4.111753 0.013718
v -0.050001 2.618287 0.509527
v -0.050001 3.881579 0.063071
v 1.924999 3.88158 0.063071
v 1.924999 2.618288 0.509527
v -0.049999 -4.035801 0.509527
v 1.925001 -4.0358 0.509527
v 3.899999 2.618289 0.509527
v 3.900001 -4.0358 0.509527
v 3.880321 -4.111753 0.638694
v 3.880321 -4.111753 0.013718
v 3.880319 2.700639 0.013718
v 3.880319 2.700639 0.638694
v 3.999999 2.700639 0.638694
v 4.000001 -4.111753 0.638694
v 3.880321 -4.111753 0.638694
v 3.880319 2.700639 0.638694
v 4.000001 -4.111753 0.638694
v 4.000001 -4.111753 0.013718
v 3.880321 -4.111753 0.013718
v 3.880321 -4.111753 0.638694
v 4.000001 -4.111753 0.013718
v 3.999999 2.700639 0.013718
v 3.880319 2.700639 0.013718
v 3.880321 -4.111753 0.013718
v 3.999999 2.700639 0.013718
v 3.999999 2.700639 0.638694
v 3.880319 2.700639 0.638694
v 3.880319 2.700639 0.013718
v 1.950529 2.67609 0.602362
v 1.950529 2.67609 0.013718
v 3.901059 2.676091 0.013718
v 3.901059 2.676091 0.602362
v 0 -3.952403 0.602362
v 0 -3.952403 0.013718
v 3.901061 -3.952402 0.013718
v 3.901061 -3.952402 0.602362
v 0 -4.072083 0.013718
v 3.901061 -4.072082 0.013718
v 3.901061 -3.952402 0.013718
v 0 -3.952403 0.013718
v -3.901061 -3.952402 0.013718
v -3.901061 -4.072082 0.013718
v 0 -4.072083 0.602362
v 3.901061 -4.072082 0.602362
v 3.901061 -4.072082 0.013718
v 0 -4.072083 0.013718
v 3.901061 -4.072082 0.602362
v 0 -3.952403 0.602362
v 3.901061 -3.952402 0.602362
v 0 -4.072083 0.602362
v -3.901061 -4.072082 0.602362
v -3.901061 -3.952402 0.602362
v 1.950529 2.55641 0.013718
v 3.901059 2.556411 0.013718
v 3.901059 2.676091 0.013718
v 1.950529 2.67609 0.013718
v 1.950529 2.55641 0.602362
v 3.901059 2.556411 0.602362
v 3.901059 2.556411 0.013718
v 1.950529 2.55641 0.013718
v 3.901059 2.556411 0.602362
v 1.950529 2.55641 0.602362
v 1.950529 2.67609 0.602362
v 3.901059 2.676091 0.602362
v 1.980114 2.784558 0.60703
v 1.980113 3.909664 0.143942
v 1.980113 3.909664 0.013718
v 1.980114 2.784558 0.013718
v 1.980114 2.53307 0.638694
v 1.980114 2.53307 0.013718
v 1.860434 2.784558 0.60703
v 1.860433 3.909664 0.013718
v 1.860433 3.909664 0.143942
v 1.860434 2.784558 0.013718
v 1.860434 2.53307 0.638694
v 1.860434 2.53307 0.013718
v 1.980114 2.784558 0.013718
v 1.980113 3.909664 0.013718
v 1.860433 3.909664 0.013718
v 1.860434 2.784558 0.013718
v 1.980114 2.53307 0.013718
v 1.860434 2.53307 0.013718
v 1.980113 3.909664 0.013718
v 1.980113 3.909664 0.143942
v 1.860433 3.909664 0.143942
v 1.860433 3.909664 0.013718
v 1.980114 2.784558 0.60703
v 1.980114 2.53307 0.638694
v 1.860434 2.53307 0.638694
v 1.860434 2.784558 0.60703
v 1.980113 3.909664 0.143942
v 1.860433 3.909664 0.143942
v 3.899999 2.618289 0.509527
v 1.924999 2.618288 0.509527
v 1.924999 2.618288 0
v 3.899999 2.618289 0
v 3.899999 2.618289 0
v 1.925001 -4.0358 0
v 3.900001 -4.0358 0
v 1.924999 2.618288 0
v -0.049999 -4.035801 0
v -0.050001 2.618287 0
v -0.050001 3.881579 0
v 1.924999 3.88158 0
v 1.924999 3.88158 0.063071
v -0.050001 3.881579 0.063071
v -0.050001 3.881579 0
v 1.924999 3.88158 0
v 1.924999 2.618288 0.509527
v 1.924999 3.88158 0.063071
v 1.924999 3.88158 0
v 1.924999 2.618288 0
v -0.050001 2.618287 0
v -0.050001 3.881579 0
v -0.050001 3.881579 0.063071
v -0.050001 2.618287 0.509527
v -4.000001 -4.111753 0.638694
v -4.000001 -4.111753 0.013718
v -3.999999 2.700639 0.013718
v -3.999999 2.700639 0.638694
v 0.050001 2.618287 0.509527
v -1.924999 3.88158 0.063071
v 0.050001 3.881579 0.063071
v -1.924999 2.618288 0.509527
v 0.049999 -4.035801 0.509527
v -1.925001 -4.0358 0.509527
v -3.899999 2.618289 0.509527
v -3.900001 -4.0358 0.509527
v -3.880321 -4.111753 0.638694
v -3.880319 2.700639 0.638694
v -3.880319 2.700639 0.013718
v -3.880321 -4.111753 0.013718
v -3.999999 2.700639 0.638694
v -3.880319 2.700639 0.638694
v -3.880321 -4.111753 0.638694
v -4.000001 -4.111753 0.638694
v -4.000001 -4.111753 0.638694
v -3.880321 -4.111753 0.638694
v -3.880321 -4.111753 0.013718
v -4.000001 -4.111753 0.013718
v -4.000001 -4.111753 0.013718
v -3.880321 -4.111753 0.013718
v -3.880319 2.700639 0.013718
v -3.999999 2.700639 0.013718
v -3.999999 2.700639 0.013718
v -3.880319 2.700639 0.013718
v -3.880319 2.700639 0.638694
v -3.999999 2.700639 0.638694
v -1.950529 2.67609 0.602362
v -3.901059 2.676091 0.602362
v -3.901059 2.676091 0.013718
v -1.950529 2.67609 0.013718
v 0 -3.952403 0.602362
v -3.901061 -3.952402 0.602362
v -3.901061 -3.952402 0.013718
v 0 -3.952403 0.013718
v 0 -4.072083 0.602362
v 0 -4.072083 0.013718
v -3.901061 -4.072082 0.013718
v -3.901061 -4.072082 0.602362
v -1.950529 2.55641 0.013718
v -1.950529 2.67609 0.013718
v -3.901059 2.676091 0.013718
v -3.901059 2.556411 0.013718
v -1.950529 2.55641 0.602362
v -1.950529 2.55641 0.013718
v -3.901059 2.556411 0.013718
v -3.901059 2.556411 0.602362
v -3.901059 2.556411 0.602362
v -3.901059 2.676091 0.602362
v -1.950529 2.67609 0.602362
v -1.950529 2.55641 0.602362
v -1.980114 2.784558 0.60703
v -1.980113 3.909664 0.013718
v -1.980113 3.909664 0.143942
v -1.980114 2.784558 0.013718
v -1.980114 2.53307 0.638694
v -1.980114 2.53307 0.013718
v -1.860434 2.784558 0.60703
v -1.860433 3.909664 0.143942
v -1.860433 3.909664 0.013718
v -1.860434 2.784558 0.013718
v -1.860434 2.53307 0.638694
v -1.860434 2.53307 0.013718
v -1.980114 2.784558 0.013718
v -1.860433 3.909664 0.013718
v -1.980113 3.909664 0.013718
v -1.860434 2.784558 0.013718
v -1.980114 2.53307 0.013718
v -1.860434 2.53307 0.013718
v -1.980113 3.909664 0.013718
v -1.860433 3.909664 0.013718
v -1.860433 3.909664 0.143942
v -1.980113 3.909664 0.143942
v -1.980114 2.784558 0.60703
v -1.860434 2.53307 0.638694
v -1.980114 2.53307 0.638694
v -1.860434 2.784558 0.60703
v -1.980113 3.909664 0.143942
v -1.860433 3.909664 0.143942
v -3.899999 2.618289 0.509527
v -3.899999 2.618289 0
v -1.924999 2.618288 0
v -1.924999 2.618288 0.509527
v -3.899999 2.618289 0
v -3.900001 -4.0358 0
v -1.925001 -4.0358 0
v -1.924999 2.618288 0
v 0.049999 -4.035801 0
v 0.050001 2.618287 0
v 0.050001 3.881579 0
v -1.924999 3.88158 0
v -1.924999 3.88158 0.063071
v -1.924999 3.88158 0
v 0.050001 3.881579 0
v 0.050001 3.881579 0.063071
v -1.924999 2.618288 0.509527
v -1.924999 2.618288 0
v -1.924999 3.88158 0
v -1.924999 3.88158 0.063071
v 0.050001 2.618287 0
v 0.050001 2.618287 0.509527
v 0.050001 3.881579 0.063071
v 0.050001 3.881579 0
vt 0.79144 0.201235
vt 0.17731 0.201234
vt 0.17731 0.247852
vt 0.79144 0.247852
vt 0.690084 0.233551
vt 0.690084 0.104596
vt 0.5 0.104596
vt 0.5 0.233551
vt 0.690084 0.873974
vt 0.5 0.873974
vt 0.309916 0.233551
vt 0.309916 0.873974
vt 0.79144 0.201235
vt 0.79144 0.247852
vt 0.17731 0.247852
vt 0.17731 0.201234
vt 0.17731 0.201234
vt 0.79144 0.201235
vt 0.79144 0.201235
vt 0.17731 0.201234
vt 0.79144 0.201235
vt 0.79144 0.247852
vt 0.79144 0.247852
vt 0.79144 0.201235
vt 0.79144 0.247852
vt 0.17731 0.247852
vt 0.17731 0.247852
vt 0.79144 0.247852
vt 0.17731 0.247852
vt 0.17731 0.201234
vt 0.17731 0.201234
vt 0.17731 0.247852
vt 0.330843 0.201234
vt 0.330843 0.247852
vt 0.17731 0.247852
vt 0.17731 0.201234
vt 0.484375 0.201234
vt 0.484375 0.247852
vt 0.17731 0.247852
vt 0.17731 0.201234
vt 0.484375 0.247852
vt 0.17731 0.247852
vt 0.17731 0.247852
vt 0.484375 0.247852
vt 0.17731 0.247852
vt 0.17731 0.247852
vt 0.484375 0.201234
vt 0.17731 0.201234
vt 0.17731 0.247852
vt 0.484375 0.247852
vt 0.17731 0.201234
vt 0.484375 0.201234
vt 0.17731 0.201234
vt 0.484375 0.201234
vt 0.17731 0.201234
vt 0.17731 0.201234
vt 0.330843 0.247852
vt 0.17731 0.247852
vt 0.17731 0.247852
vt 0.330843 0.247852
vt 0.330843 0.201234
vt 0.17731 0.201234
vt 0.17731 0.247852
vt 0.330843 0.247852
vt 0.17731 0.201234
vt 0.330843 0.201234
vt 0.330843 0.201234
vt 0.17731 0.201234
vt 0.254077 0.201234
vt 0.17731 0.201234
vt 0.17731 0.247852
vt 0.254077 0.247852
vt 0.330843 0.201234
vt 0.330843 0.247852
vt 0.254077 0.201234
vt 0.17731 0.247852
vt 0.17731 0.201234
vt 0.254077 0.247852
vt 0.330843 0.201234
vt 0.330843 0.247852
vt 0.254077 0.247852
vt 0.17731 0.247852
vt 0.17731 0.247852
vt 0.254077 0.247852
vt 0.330843 0.247852
vt 0.330843 0.247852
vt 0.17731 0.247852
vt 0.17731 0.201234
vt 0.17731 0.201234
vt 0.17731 0.247852
vt 0.254077 0.201234
vt 0.330843 0.201234
vt 0.330843 0.201234
vt 0.254077 0.201234
vt 0.17731 0.201234
vt 0.17731 0.201234
vt 0.21173 0.826787
vt 0.21173 0.655003
vt 0.167965 0.655003
vt 0.167965 0.826787
vt 0.203344 0.257213
vt 0.844276 0.364035
vt 0.844276 0.257213
vt 0.203344 0.364035
vt 0.844276 0.470857
vt 0.203344 0.470857
vt 0.203344 0.470857
vt 0.203344 0.364035
vt 0.21173 0.655003
vt 0.21173 0.483218
vt 0.167965 0.483218
vt 0.167965 0.655003
vt 0.21173 0.655003
vt 0.21173 0.655003
vt 0.167965 0.655003
vt 0.167965 0.655003
vt 0 0
vt 0 0
vt 0 0
vt 0 0
vt 0.79144 0.201235
vt 0.79144 0.247852
vt 0.17731 0.247852
vt 0.17731 0.201234
vt 0.690084 0.233551
vt 0.5 0.104596
vt 0.690084 0.104596
vt 0.5 0.233551
vt 0.690084 0.873974
vt 0.5 0.873974
vt 0.309916 0.233551
vt 0.309916 0.873974
vt 0.79144 0.201235
vt 0.17731 0.201234
vt 0.17731 0.247852
vt 0.79144 0.247852
vt 0.17731 0.201234
vt 0.17731 0.201234
vt 0.79144 0.201235
vt 0.79144 0.201235
vt 0.79144 0.201235
vt 0.79144 0.201235
vt 0.79144 0.247852
vt 0.79144 0.247852
vt 0.79144 0.247852
vt 0.79144 0.247852
vt 0.17731 0.247852
vt 0.17731 0.247852
vt 0.17731 0.247852
vt 0.17731 0.247852
vt 0.17731 0.201234
vt 0.17731 0.201234
vt 0.330843 0.201234
vt 0.17731 0.201234
vt 0.17731 0.247852
vt 0.330843 0.247852
vt 0.484375 0.201234
vt 0.17731 0.201234
vt 0.17731 0.247852
vt 0.484375 0.247852
vt 0.484375 0.201234
vt 0.484375 0.247852
vt 0.17731 0.247852
vt 0.17731 0.201234
vt 0.330843 0.247852
vt 0.330843 0.247852
vt 0.17731 0.247852
vt 0.17731 0.247852
vt 0.330843 0.201234
vt 0.330843 0.247852
vt 0.17731 0.247852
vt 0.17731 0.201234
vt 0.17731 0.201234
vt 0.17731 0.201234
vt 0.330843 0.201234
vt 0.330843 0.201234
vt 0.254077 0.201234
vt 0.17731 0.247852
vt 0.17731 0.201234
vt 0.254077 0.247852
vt 0.330843 0.201234
vt 0.330843 0.247852
vt 0.254077 0.201234
vt 0.17731 0.201234
vt 0.17731 0.247852
vt 0.254077 0.247852
vt 0.330843 0.201234
vt 0.330843 0.247852
vt 0.254077 0.247852
vt 0.17731 0.247852
vt 0.17731 0.247852
vt 0.254077 0.247852
vt 0.330843 0.247852
vt 0.330843 0.247852
vt 0.17731 0.247852
vt 0.17731 0.247852
vt 0.17731 0.201234
vt 0.17731 0.201234
vt 0.254077 0.201234
vt 0.330843 0.201234
vt 0.330843 0.201234
vt 0.254077 0.201234
vt 0.17731 0.201234
vt 0.17731 0.201234
vt 0.21173 0.826787
vt 0.167965 0.826787
vt 0.167965 0.655003
vt 0.21173 0.655003
vt 0.203344 0.257213
vt 0.844276 0.257213
vt 0.844276 0.364035
vt 0.203344 0.364035
vt 0.844276 0.470857
vt 0.203344 0.470857
vt 0.203344 0.470857
vt 0.203344 0.364035
vt 0.21173 0.655003
vt 0.167965 0.655003
vt 0.167965 0.483218
vt 0.21173 0.483218
vt 0.21173 0.655003
vt 0.167965 0.655003
vt 0.167965 0.655003
vt 0.21173 0.655003
vt 0 0
vt 0 0
vt 0 0
vt 0 0
vn 1 0 0
vn 1 0 0
vn 1 0 0
vn 1 0 0
vn 0 0.1690377 0.9856096
vn 0 0.8164589 0.5774035
vn 0 0.8164591 0.5774034
vn 0 0.1125082 0.9936509
vn 0 0 1
vn 0 0 1
vn 0 0 1
vn 0 0 1
vn -1 0 0
vn -1 0 0
vn -1 0 0
vn -1 0 0
vn 0 0 1
vn 0 0 1
vn 0 0 1
vn 0 0 1
vn 0 -1 0
vn 0 -1 0
vn 0 -1 0
vn 0 -1 0
vn 0 0 -1
vn 0 0 -1
vn 0 0 -1
vn 0 0 -1
vn 0 1 0
vn 0 1 0
vn 0 1 0
vn 0 1 0
vn 0 1 0
vn 0 1 0
vn 0 1 0
vn 0 1 0
vn 0 1 0
vn 0 1 0
vn 0 1 0
vn 0 1 0
vn 0 0 -1
vn 0 0 -1
vn 0 0 -1
vn 0 0 -1
vn 0 0 -1
vn 0 0 -1
vn 0 -1 0
vn 0 -1 0
vn 0 -1 0
vn 0 -1 0
vn 0 0 1
vn 0 0 1
vn 0 0 1
vn 0 0 1
vn 0 0 1
vn 0 0 1
vn 0 0 -1
vn 0 0 -1
vn 0 0 -1
vn 0 0 -1
vn 0 -1 0
vn 0 -1 0
vn 0 -1 0
vn 0 -1 0
vn 0 0 1
vn 0 0 1
vn 0 0 1
vn 0 0 1
vn 1 0 0
vn 1 0 0
vn 1 0 0
vn 1 0 0
vn 1 0 0
vn 1 0 0
vn -1 0 0
vn -1 0 0
vn -1 0 0
vn -1 0 0
vn -1 0 0
vn -1 0 0
vn 0 0 -1
vn 0 0 -1
vn 0 0 -1
vn 0 0 -1
vn 0 0 -1
vn 0 0 -1
vn 0 1 0
vn 0 0.8308476 0.5565001
vn 0 0.8308478 0.5564998
vn 0 1 0
vn 0 0.2550068 0.9669393
vn 0 0.1249204 0.9921668
vn 0 0.1249204 0.9921668
vn 0 0.2550069 0.9669393
vn 0 0.8308476 0.5565001
vn 0 0.8308478 0.5564998
vn 0 1 0
vn 0 1 0
vn 0 1 0
vn 0 1 0
vn 0 0 -1
vn 0 0 -1
vn 0 0 -1
vn 0 0 -1
vn 0 0 -1
vn 0 0 -1
vn 0 0 -1
vn 0 0 -1
vn 0 0.8164591 0.5774034
vn 0 0.8164589 0.5774035
vn 0 1 0
vn 0 1 0
vn 1 0 0
vn 1 0 0
vn 1 0 0
vn 1 0 0
vn -1 0 0
vn -1 0 0
vn -1 0 0
vn -1 0 0
vn -1 0 0
vn -1 0 0
vn -1 0 0
vn -1 0 0
vn 0 0.1690377 0.9856096
vn 0 0.8164591 0.5774034
vn 0 0.8164589 0.5774035
vn 0 0.1125082 0.9936509
vn 0 0 1
vn 0 0 1
vn 0 0 1
vn 0 0 1
vn 1 0 0
vn 1 0 0
vn 1 0 0
vn 1 0 0
vn 0 0 1
vn 0 0 1
vn 0 0 1
vn 0 0 1
vn 0 -1 0
vn 0 -1 0
vn 0 -1 0
vn 0 -1 0
vn 0 0 -1
vn 0 0 -1
vn 0 0 -1
vn 0 0 -1
vn 0 1 0
vn 0 1 0
vn 0 1 0
vn 0 1 0
vn 0 1 0
vn 0 1 0
vn 0 1 0
vn 0 1 0
vn 0 1 0
vn 0 1 0
vn 0 1 0
vn 0 1 0
vn 0 -1 0
vn 0 -1 0
vn 0 -1 0
vn 0 -1 0
vn 0 0 -1
vn 0 0 -1
vn 0 0 -1
vn 0 0 -1
vn 0 -1 0
vn 0 -1 0
vn 0 -1 0
vn 0 -1 0
vn 0 0 1
vn 0 0 1
vn 0 0 1
vn 0 0 1
vn -1 0 0
vn -1 0 0
vn -1 0 0
vn -1 0 0
vn -1 0 0
vn -1 0 0
vn 1 0 0
vn 1 0 0
vn 1 0 0
vn 1 0 0
vn 1 0 0
vn 1 0 0
vn 0 0 -1
vn 0 0 -1
vn 0 0 -1
vn 0 0 -1
vn 0 0 -1
vn 0 0 -1
vn 0 1 0
vn 0 1 0
vn 0 0.8308478 0.5564997
vn 0 0.8308476 0.5565
vn 0 0.2550068 0.9669393
vn 0 0.1249204 0.9921668
vn 0 0.1249204 0.9921668
vn 0 0.2550069 0.9669393
vn 0 0.8308476 0.5565
vn 0 0.8308478 0.5564997
vn 0 1 0
vn 0 1 0
vn 0 1 0
vn 0 1 0
vn 0 0 -1
vn 0 0 -1
vn 0 0 -1
vn 0 0 -1
vn 0 0 -1
vn 0 0 -1
vn 0 0 -1
vn 0 0 -1
vn 0 0.8164591 0.5774034
vn 0 1 0
vn 0 1 0
vn 0 0.8164589 0.5774035
vn -1 0 0
vn -1 0 0
vn -1 0 0
vn -1 0 0
vn 1 0 0
vn 1 0 0
vn 1 0 0
vn 1 0 0
g MarketPlaceBase_0
f 3/3/3 2/2/2 1/1/1
f 4/4/4 3/3/3 1/1/1
f 7/7/7 6/6/6 5/5/5
f 8/8/8 7/7/7 5/5/5
f 5/5/5 9/9/9 8/8/8
f 9/9/9 10/10/10 8/8/8
f 8/8/8 10/10/10 11/11/11
f 10/10/10 12/12/12 11/11/11
f 15/15/15 14/14/14 13/13/13
f 16/16/16 15/15/15 13/13/13
f 19/19/19 18/18/18 17/17/17
f 20/20/20 19/19/19 17/17/17
f 23/23/23 22/22/22 21/21/21
f 24/24/24 23/23/23 21/21/21
f 27/27/27 26/26/26 25/25/25
f 28/28/28 27/27/27 25/25/25
f 31/31/31 30/30/30 29/29/29
f 32/32/32 31/31/31 29/29/29
f 35/35/35 34/34/34 33/33/33
f 36/36/36 35/35/35 33/33/33
f 39/39/39 38/38/38 37/37/37
f 40/40/40 39/39/39 37/37/37
f 43/43/43 42/42/42 41/41/41
f 44/44/44 43/43/43 41/41/41
f 45/45/45 44/44/44 41/41/41
f 46/46/46 45/45/45 41/41/41
f 49/49/49 48/48/48 47/47/47
f 50/50/50 49/49/49 47/47/47
f 53/53/53 52/52/52 51/51/51
f 52/52/52 54/54/54 51/51/51
f 54/54/54 52/52/52 55/55/55
f 52/52/52 56/56/56 55/55/55
f 59/59/59 58/58/58 57/57/57
f 60/60/60 59/59/59 57/57/57
f 63/63/63 62/62/62 61/61/61
f 64/64/64 63/63/63 61/61/61
f 67/67/67 66/66/66 65/65/65
f 68/68/68 67/67/67 65/65/65
f 71/71/71 70/70/70 69/69/69
f 72/72/72 71/71/71 69/69/69
f 72/72/72 69/69/69 73/73/73
f 74/74/74 72/72/72 73/73/73
f 77/77/77 76/76/76 75/75/75
f 76/76/76 78/78/78 75/75/75
f 75/75/75 78/78/78 79/79/79
f 78/78/78 80/80/80 79/79/79
f 83/83/83 82/82/82 81/81/81
f 84/84/84 83/83/83 81/81/81
f 84/84/84 81/81/81 85/85/85
f 86/86/86 84/84/84 85/85/85
f 89/89/89 88/88/88 87/87/87
f 90/90/90 89/89/89 87/87/87
f 93/93/93 92/92/92 91/91/91
f 94/94/94 93/93/93 91/91/91
f 94/94/94 91/91/91 95/95/95
f 96/96/96 94/94/94 95/95/95
f 99/99/99 98/98/98 97/97/97
f 100/100/100 99/99/99 97/97/97
f 103/103/103 102/102/102 101/101/101
f 102/102/102 104/104/104 101/101/101
f 102/102/102 105/105/105 104/104/104
f 105/105/105 106/106/106 104/104/104
f 106/106/106 107/107/107 104/104/104
f 107/107/107 108/108/108 104/104/104
f 111/111/111 110/110/110 109/109/109
f 112/112/112 111/111/111 109/109/109
f 115/115/115 114/114/114 113/113/113
f 116/116/116 115/115/115 113/113/113
f 119/119/119 118/118/118 117/117/117
f 120/120/120 119/119/119 117/117/117
f 123/123/123 122/122/122 121/121/121
f 124/124/124 123/123/123 121/121/121
f 127/127/127 126/126/126 125/125/125
f 126/126/126 128/128/128 125/125/125
f 129/129/129 125/125/125 128/128/128
f 130/130/130 129/129/129 128/128/128
f 130/130/130 128/128/128 131/131/131
f 132/132/132 130/130/130 131/131/131
f 135/135/135 134/134/134 133/133/133
f 136/136/136 135/135/135 133/133/133
f 139/139/139 138/138/138 137/137/137
f 140/140/140 139/139/139 137/137/137
f 143/143/143 142/142/142 141/141/141
f 144/144/144 143/143/143 141/141/141
f 147/147/147 146/146/146 145/145/145
f 148/148/148 147/147/147 145/145/145
f 151/151/151 150/150/150 149/149/149
f 152/152/152 151/151/151 149/149/149
f 155/155/155 154/154/154 153/153/153
f 156/156/156 155/155/155 153/153/153
f 159/159/159 158/158/158 157/157/157
f 160/160/160 159/159/159 157/157/157
f 163/163/163 162/162/162 161/161/161
f 164/164/164 163/163/163 161/161/161
f 167/167/167 166/166/166 165/165/165
f 168/168/168 167/167/167 165/165/165
f 171/171/171 170/170/170 169/169/169
f 172/172/172 171/171/171 169/169/169
f 175/175/175 174/174/174 173/173/173
f 176/176/176 175/175/175 173/173/173
f 179/179/179 178/178/178 177/177/177
f 178/178/178 180/180/180 177/177/177
f 177/177/177 180/180/180 181/181/181
f 180/180/180 182/182/182 181/181/181
f 185/185/185 184/184/184 183/183/183
f 186/186/186 185/185/185 183/183/183
f 186/186/186 183/183/183 187/187/187
f 188/188/188 186/186/186 187/187/187
f 191/191/191 190/190/190 189/189/189
f 190/190/190 192/192/192 189/189/189
f 189/189/189 192/192/192 193/193/193
f 192/192/192 194/194/194 193/193/193
f 197/197/197 196/196/196 195/195/195
f 198/198/198 197/197/197 195/195/195
f 201/201/201 200/200/200 199/199/199
f 200/200/200 202/202/202 199/199/199
f 199/199/199 202/202/202 203/203/203
f 202/202/202 204/204/204 203/203/203
f 207/207/207 206/206/206 205/205/205
f 208/208/208 207/207/207 205/205/205
f 211/211/211 210/210/210 209/209/209
f 212/212/212 211/211/211 209/209/209
f 213/213/213 211/211/211 212/212/212
f 214/214/214 213/213/213 212/212/212
f 215/215/215 214/214/214 212/212/212
f 216/216/216 215/215/215 212/212/212
f 219/219/219 218/218/218 217/217/217
f 220/220/220 219/219/219 217/217/217
f 223/223/223 222/222/222 221/221/221
f 224/224/224 223/223/223 221/221/221
f 227/227/227 226/226/226 225/225/225
f 228/228/228 227/227/227 225/225/225
