g MeatOnAStick
v -0.073501 -0.047659 0.618598
v -0.073501 0.047659 0.618598
v -0.059152 0.038355 0.63822
v -0.059152 -0.038355 0.63822
v -0.038355 -0.059152 0.63822
v -0.038355 0.059152 0.63822
v -0.047659 -0.073501 0.618598
v 0.038355 -0.059152 0.63822
v 0.038355 0.059152 0.63822
v 0.047659 -0.073501 0.618598
v 0.059152 -0.038355 0.63822
v 0.059152 0.038355 0.63822
v 0.073501 0.047659 0.618598
v 0.073501 -0.047659 0.618598
v 0.073501 0.047659 0.539538
v 0.073501 -0.047659 0.539538
v 0.047659 -0.073501 0.539538
v 0.059152 -0.038355 0.519916
v 0.038355 -0.059152 0.519916
v -0.047659 -0.073501 0.539538
v -0.038355 -0.059152 0.519916
v -0.073501 -0.047659 0.539538
v -0.059152 -0.038355 0.519916
v -0.073501 0.047659 0.618598
v -0.073501 0.047659 0.539538
v -0.047659 0.073501 0.618598
v -0.038355 0.059152 0.63822
v -0.059152 0.038355 0.63822
v 0.038355 0.059152 0.63822
v 0.047659 0.073501 0.618598
v 0.059152 0.038355 0.63822
v 0.073501 0.047659 0.618598
v -0.047659 0.073501 0.539538
v 0.047659 0.073501 0.539538
v 0.073501 0.047659 0.539538
v -0.059152 0.038355 0.519916
v -0.038355 0.059152 0.519916
v -0.059152 -0.038355 0.519916
v -0.073501 -0.047659 0.539538
v -0.038355 -0.059152 0.519916
v 0.038355 0.059152 0.519916
v 0.038355 -0.059152 0.519916
v 0.059152 0.038355 0.519916
v 0.073501 -0.047659 0.539538
v 0.059152 -0.038355 0.519916
v -0.082085 -0.03566 0.447791
v -0.051572 0.04377 0.475163
v -0.066548 -0.031139 0.468179
v -0.063476 0.05742 0.456469
v -0.080674 -0.028602 0.36906
v -0.027118 0.060002 0.477056
v -0.062065 0.064478 0.377738
v -0.064437 -0.020577 0.350366
v -0.03309 0.07759 0.458822
v 0.048103 0.044964 0.477056
v -0.049461 0.054331 0.357349
v -0.048103 -0.044964 0.348472
v 0.060378 0.058904 0.458822
v 0.064437 0.020577 0.475163
v 0.080674 0.028602 0.456469
v -0.031679 0.084648 0.38009
v -0.025007 0.070563 0.359243
v 0.027118 -0.060002 0.348472
v 0.061789 0.065962 0.38009
v 0.082085 0.03566 0.377738
v 0.050214 0.055525 0.359243
v 0.051572 -0.04377 0.350366
v 0.066548 0.031139 0.357349
v -0.048103 -0.044964 0.348472
v -0.064437 -0.020577 0.350366
v -0.080674 -0.028602 0.36906
v -0.060378 -0.058904 0.366707
v 0.027118 -0.060002 0.348472
v -0.082085 -0.03566 0.447791
v 0.03309 -0.07759 0.366707
v 0.051572 -0.04377 0.350366
v -0.061789 -0.065962 0.445438
v -0.066548 -0.031139 0.468179
v 0.063476 -0.05742 0.36906
v 0.066548 0.031139 0.357349
v 0.082085 0.03566 0.377738
v -0.050214 -0.055525 0.466286
v -0.051572 0.04377 0.475163
v -0.027118 0.060002 0.477056
v 0.031679 -0.084648 0.445438
v 0.062065 -0.064478 0.447791
v 0.080674 0.028602 0.456469
v 0.025007 -0.070563 0.466286
v 0.048103 0.044964 0.477056
v 0.049461 -0.054331 0.468179
v 0.064437 0.020577 0.475163
v -0.051879 0.053001 0.305006
v -0.070933 0.031113 0.300217
v -0.082246 0.040834 0.278887
v -0.058571 0.068032 0.284837
v 0.023495 0.057304 0.318591
v -0.068532 0.045893 0.20119
v 0.035087 0.073378 0.301717
v 0.045313 0.037748 0.321169
v -0.044856 0.073091 0.20714
v -0.05041 0.038683 0.183953
v 0.062197 0.049079 0.30492
v 0.05041 -0.038683 0.317092
v 0.068531 -0.045893 0.299854
v -0.031357 0.060572 0.188741
v -0.045313 -0.037748 0.179876
v -0.023495 -0.057304 0.182454
v 0.048802 0.078437 0.22402
v 0.075912 0.054138 0.227224
v 0.082246 -0.040834 0.222158
v 0.044018 0.064874 0.202326
v 0.051879 -0.053001 0.196039
v 0.065835 0.045319 0.204904
v 0.070933 -0.031113 0.200827
v -0.045313 -0.037748 0.179876
v -0.05041 0.038683 0.183953
v -0.068532 0.045893 0.20119
v -0.062197 -0.049079 0.196125
v -0.023495 -0.057304 0.182454
v -0.082246 0.040834 0.278887
v -0.035087 -0.073378 0.199328
v 0.051879 -0.053001 0.196039
v -0.075912 -0.054138 0.273821
v -0.070933 0.031113 0.300217
v 0.058571 -0.068032 0.216208
v 0.070933 -0.031113 0.200827
v 0.082246 -0.040834 0.222158
v -0.065835 -0.045319 0.296141
v -0.051879 0.053001 0.305006
v -0.048802 -0.078437 0.277024
v 0.044856 -0.073091 0.293904
v 0.068531 -0.045893 0.299854
v -0.044018 -0.064874 0.298719
v 0.023495 0.057304 0.318591
v 0.031357 -0.060572 0.312303
v 0.05041 -0.038683 0.317092
v 0.045313 0.037748 0.321169
v 0.007489 -0.010098 -0.086805
v 0.010098 -0.007489 -0.086805
v 0.010098 0.007489 -0.086805
v 0.007489 0.010098 -0.086805
v -0.007489 -0.010098 -0.086805
v -0.007489 0.010098 -0.086805
v -0.010098 -0.007489 -0.086805
v -0.010098 0.007489 -0.086805
v 0.007489 0.010098 0.695338
v 0.010098 0.007489 0.695338
v 0.010098 -0.007489 0.695338
v 0.007489 -0.010098 0.695338
v -0.007489 0.010098 0.695338
v -0.007489 -0.010098 0.695338
v -0.010098 0.007489 0.695338
v -0.010098 -0.007489 0.695338
v 0.007489 0.010098 -0.086805
v 0.007489 0.010098 0.695338
v -0.007489 0.010098 0.695338
v -0.007489 0.010098 -0.086805
v -0.007489 -0.010098 -0.086805
v -0.007489 -0.010098 0.695338
v 0.007489 -0.010098 0.695338
v 0.007489 -0.010098 -0.086805
v 0.007489 -0.010098 -0.086805
v 0.007489 -0.010098 0.695338
v 0.010098 -0.007489 0.695338
v 0.010098 -0.007489 -0.086805
v -0.007489 0.010098 -0.086805
v -0.007489 0.010098 0.695338
v -0.010098 0.007489 0.695338
v -0.010098 0.007489 -0.086805
v 0.010098 -0.007489 -0.086805
v 0.010098 -0.007489 0.695338
v 0.010098 0.007489 0.695338
v 0.010098 0.007489 -0.086805
v -0.010098 0.007489 -0.086805
v -0.010098 0.007489 0.695338
v -0.010098 -0.007489 0.695338
v -0.010098 -0.007489 -0.086805
v 0.010098 0.007489 -0.086805
v 0.010098 0.007489 0.695338
v 0.007489 0.010098 0.695338
v 0.007489 0.010098 -0.086805
v -0.010098 -0.007489 -0.086805
v -0.010098 -0.007489 0.695338
v -0.007489 -0.010098 0.695338
v -0.007489 -0.010098 -0.086805
vt 0.530509 0.195204
vt 0.530509 0.195204
vt 0.543892 0.217418
vt 0.543892 0.217418
vt 0.563291 0.217418
vt 0.563291 0.217418
vt 0.554613 0.195204
vt 0.634841 0.217418
vt 0.634841 0.217418
vt 0.643519 0.195204
vt 0.654239 0.217418
vt 0.654239 0.217418
vt 0.667623 0.195204
vt 0.667623 0.195204
vt 0.667623 0.105705
vt 0.667623 0.105705
vt 0.643519 0.105705
vt 0.654239 0.083491
vt 0.634841 0.083491
vt 0.554613 0.105705
vt 0.563291 0.083491
vt 0.530509 0.105705
vt 0.543892 0.083491
vt 0.530509 0.195204
vt 0.530509 0.105705
vt 0.554613 0.195204
vt 0.563291 0.217418
vt 0.543892 0.217418
vt 0.634841 0.217418
vt 0.643519 0.195204
vt 0.654239 0.217418
vt 0.667623 0.195204
vt 0.554613 0.105705
vt 0.643519 0.105705
vt 0.667623 0.105705
vt 0.543892 0.083491
vt 0.563291 0.083491
vt 0.543892 0.083491
vt 0.530509 0.105705
vt 0.563291 0.083491
vt 0.634841 0.083491
vt 0.634841 0.083491
vt 0.654239 0.083491
vt 0.667623 0.105705
vt 0.654239 0.083491
vt 0.647915 0.204381
vt 0.67698 0.171545
vt 0.669895 0.1867
vt 0.656719 0.18555
vt 0.560215 0.214781
vt 0.677965 0.148216
vt 0.569019 0.19595
vt 0.538661 0.202263
vt 0.657942 0.156561
vt 0.674509 0.077322
vt 0.545747 0.187108
vt 0.535803 0.187151
vt 0.653648 0.06847
vt 0.671651 0.06221
vt 0.650097 0.049692
vt 0.570242 0.166961
vt 0.546731 0.163779
vt 0.532348 0.116257
vt 0.565949 0.07887
vt 0.562398 0.060092
vt 0.543275 0.092885
vt 0.533332 0.092927
vt 0.540418 0.077772
vt 0.535803 0.187151
vt 0.538661 0.202263
vt 0.560215 0.214781
vt 0.556664 0.196003
vt 0.532348 0.116257
vt 0.647915 0.204381
vt 0.55237 0.107912
vt 0.533332 0.092927
vt 0.644364 0.185603
vt 0.669895 0.1867
vt 0.553593 0.078923
vt 0.540418 0.077772
vt 0.562398 0.060092
vt 0.667037 0.171588
vt 0.67698 0.171545
vt 0.677965 0.148216
vt 0.64007 0.097512
vt 0.641293 0.068523
vt 0.650097 0.049692
vt 0.663582 0.100694
vt 0.674509 0.077322
vt 0.664566 0.077364
vt 0.671651 0.06221
vt 0.551177 0.183875
vt 0.534845 0.17379
vt 0.528984 0.147398
vt 0.549278 0.159929
vt 0.616899 0.217856
vt 0.557582 0.065102
vt 0.630942 0.202153
vt 0.636203 0.226197
vt 0.577876 0.077633
vt 0.577639 0.050642
vt 0.65493 0.212518
vt 0.641685 0.222982
vt 0.661741 0.208523
vt 0.593971 0.060727
vt 0.58312 0.047427
vt 0.602425 0.055769
vt 0.659541 0.119857
vt 0.683528 0.130222
vt 0.690339 0.126227
vt 0.659693 0.094708
vt 0.668147 0.08975
vt 0.678998 0.10305
vt 0.684479 0.099834
vt 0.58312 0.047427
vt 0.577639 0.050642
vt 0.557582 0.065102
vt 0.564394 0.061107
vt 0.602425 0.055769
vt 0.528984 0.147398
vt 0.588381 0.071472
vt 0.668147 0.08975
vt 0.535796 0.143403
vt 0.534845 0.17379
vt 0.670045 0.113696
vt 0.684479 0.099834
vt 0.690339 0.126227
vt 0.540326 0.170575
vt 0.551177 0.183875
vt 0.559783 0.153768
vt 0.641447 0.195992
vt 0.661741 0.208523
vt 0.559631 0.178916
vt 0.616899 0.217856
vt 0.625353 0.212898
vt 0.641685 0.222982
vt 0.636203 0.226197
vt 0.740546 0.222656
vt 0.735879 0.233926
vt 0.724609 0.238593
vt 0.71334 0.233926
vt 0.735879 0.211387
vt 0.708672 0.222656
vt 0.724609 0.206719
vt 0.71334 0.211387
vt 0.735879 0.233926
vt 0.724609 0.238593
vt 0.71334 0.233926
vt 0.708672 0.222656
vt 0.740546 0.222656
vt 0.71334 0.211387
vt 0.735879 0.211387
vt 0.724609 0.206719
vt 0.708972 0.207019
vt 0.708972 0.234387
vt 0.73634 0.234387
vt 0.73634 0.207019
vt 0.708972 0.207019
vt 0.708972 0.234387
vt 0.73634 0.234387
vt 0.73634 0.207019
vt 0.708972 0.207019
vt 0.708972 0.234387
vt 0.73634 0.234387
vt 0.73634 0.207019
vt 0.708972 0.207019
vt 0.708972 0.234387
vt 0.73634 0.234387
vt 0.73634 0.207019
vt 0.708972 0.207019
vt 0.708972 0.234387
vt 0.73634 0.234387
vt 0.73634 0.207019
vt 0.708972 0.207019
vt 0.708972 0.234387
vt 0.73634 0.234387
vt 0.73634 0.207019
vt 0.708972 0.207019
vt 0.708972 0.234387
vt 0.73634 0.234387
vt 0.73634 0.207019
vt 0.708972 0.207019
vt 0.708972 0.234387
vt 0.73634 0.234387
vt 0.73634 0.207019
vn -0.9694652 -0.2112627 0.1245203
vn -0.9694652 0.2112627 0.1245203
vn -0.5475232 0.1056809 0.8300902
vn -0.6093345 -0.1176115 0.7841423
vn -0.06561062 -0.3399226 0.938162
vn -0.06434821 0.3333822 0.9405932
vn -0.2112627 -0.9694652 0.1245203
vn 0.06434821 -0.3333822 0.9405932
vn 0.06561063 0.3399226 0.938162
vn 0.2112627 -0.9694652 0.1245203
vn 0.5475232 -0.1056809 0.8300903
vn 0.6093345 0.1176115 0.7841423
vn 0.9694652 0.2112627 0.1245203
vn 0.9694652 -0.2112627 0.1245203
vn 0.9694652 0.2112627 -0.1245203
vn 0.9694652 -0.2112627 -0.1245203
vn 0.2112627 -0.9694652 -0.1245203
vn 0.6093345 -0.1176115 -0.7841423
vn 0.06561062 -0.3399226 -0.938162
vn -0.2112627 -0.9694652 -0.1245203
vn -0.06434822 -0.3333822 -0.9405932
vn -0.9694652 -0.2112627 -0.1245203
vn -0.5475232 -0.1056809 -0.8300903
vn -0.9694652 0.2112627 0.1245203
vn -0.9694652 0.2112627 -0.1245203
vn -0.2112627 0.9694652 0.1245203
vn -0.06434821 0.3333822 0.9405932
vn -0.5475232 0.1056809 0.8300902
vn 0.06561063 0.3399226 0.938162
vn 0.2112627 0.9694652 0.1245203
vn 0.6093345 0.1176115 0.7841423
vn 0.9694652 0.2112627 0.1245203
vn -0.2112627 0.9694652 -0.1245203
vn 0.2112627 0.9694652 -0.1245203
vn 0.9694652 0.2112627 -0.1245203
vn -0.6093345 0.1176115 -0.7841423
vn -0.06561062 0.3399226 -0.938162
vn -0.5475232 -0.1056809 -0.8300903
vn -0.9694652 -0.2112627 -0.1245203
vn -0.06434822 -0.3333822 -0.9405932
vn 0.06434822 0.3333822 -0.9405932
vn 0.06561062 -0.3399226 -0.938162
vn 0.5475232 0.1056809 -0.8300902
vn 0.9694652 -0.2112627 -0.1245203
vn 0.6093345 -0.1176115 -0.7841423
vn -0.9941196 -0.02736626 0.1047723
vn -0.5310792 0.1364339 0.8362659
vn -0.6344735 -0.06540316 0.7701727
vn -0.9116296 0.3852453 0.1432392
vn -0.9896753 -0.005134135 -0.143235
vn -0.01480328 0.2541999 0.9670383
vn -0.9071846 0.4074802 -0.1047668
vn -0.606501 0.07460828 -0.7915744
vn -0.02012659 0.977005 0.2122641
vn 0.1139574 0.2353266 0.9652124
vn -0.5014606 0.2846478 -0.8170146
vn -0.1139619 -0.2353339 -0.9652102
vn 0.3942079 0.894172 0.2122651
vn 0.6064779 -0.07461122 0.7915919
vn 0.9896752 0.005135047 0.1432354
vn -0.01568089 0.9992378 -0.03574772
vn 0.01876942 0.4221421 -0.9063354
vn 0.01480653 -0.2542076 -0.9670364
vn 0.3986518 0.9164054 -0.03574791
vn 0.9941198 0.02736801 -0.1047714
vn 0.1474448 0.402835 -0.9033183
vn 0.5310993 -0.136439 -0.8362524
vn 0.6344684 0.06539783 -0.7701772
vn -0.1139619 -0.2353339 -0.9652102
vn -0.606501 0.07460828 -0.7915744
vn -0.9896753 -0.005134135 -0.143235
vn -0.394209 -0.8941712 -0.2122664
vn 0.01480653 -0.2542076 -0.9670364
vn -0.9941196 -0.02736626 0.1047723
vn 0.02012794 -0.9770048 -0.2122655
vn 0.5310993 -0.136439 -0.8362524
vn -0.3986533 -0.9164047 0.03574776
vn -0.6344735 -0.06540316 0.7701727
vn 0.91163 -0.3852445 -0.1432388
vn 0.6344684 0.06539783 -0.7701772
vn 0.9941198 0.02736801 -0.1047714
vn -0.1474463 -0.4028408 0.9033155
vn -0.5310792 0.1364339 0.8362659
vn -0.01480328 0.2541999 0.9670383
vn 0.01568257 -0.9992378 0.03574755
vn 0.9071852 -0.4074786 0.1047678
vn 0.9896752 0.005135047 0.1432354
vn -0.01876841 -0.4221474 0.9063329
vn 0.1139574 0.2353266 0.9652124
vn 0.5014637 -0.2846485 0.8170124
vn 0.6064779 -0.07461122 0.7915919
vn -0.2498047 0.2749816 0.9284303
vn -0.7425779 0.03283523 0.6689544
vn -0.9882302 0.1481569 -0.03808592
vn -0.2936121 0.9461315 0.1364819
vn -0.1220881 0.2755988 0.9534883
vn -0.9450297 0.1640911 -0.2828302
vn 0.1215621 0.9698302 0.2113102
vn 0.3869886 0.08289027 0.9183513
vn -0.2504097 0.9620676 -0.1082629
vn -0.4705328 0.1331851 -0.8722732
vn 0.9169497 0.2569091 0.3052882
vn 0.4705403 -0.1331901 0.8722685
vn 0.9450287 -0.1640927 0.2828326
vn 0.07568449 0.395043 -0.9155396
vn -0.3869776 -0.08289596 -0.9183554
vn 0.1220903 -0.2756009 -0.9534873
vn 0.1647634 0.9857662 -0.03343485
vn 0.9601513 0.2728432 0.06054878
vn 0.9882302 -0.148156 0.03809047
vn 0.2042453 0.39597 -0.8952607
vn 0.249804 -0.2749841 -0.9284297
vn 0.6749812 0.1891272 -0.7131839
vn 0.7425746 -0.03283383 -0.668958
vn -0.3869776 -0.08289596 -0.9183554
vn -0.4705328 0.1331851 -0.8722732
vn -0.9450297 0.1640911 -0.2828302
vn -0.9169495 -0.2569116 -0.3052867
vn 0.1220903 -0.2756009 -0.9534873
vn -0.9882302 0.1481569 -0.03808592
vn -0.1215627 -0.9698297 -0.2113121
vn 0.249804 -0.2749841 -0.9284297
vn -0.9601513 -0.2728445 -0.06054376
vn -0.7425779 0.03283523 0.6689544
vn 0.2936137 -0.9461309 -0.1364821
vn 0.7425746 -0.03283383 -0.668958
vn 0.9882302 -0.148156 0.03809047
vn -0.6749753 -0.1891299 0.7131889
vn -0.2498047 0.2749816 0.9284303
vn -0.164766 -0.9857658 0.03343424
vn 0.2504105 -0.9620674 0.1082634
vn 0.9450287 -0.1640927 0.2828326
vn -0.2042391 -0.3959784 0.8952584
vn -0.1220881 0.2755988 0.9534883
vn -0.07567512 -0.3950557 0.915535
vn 0.4705403 -0.1331901 0.8722685
vn 0.3869886 0.08289027 0.9183513
vn 0 0 -1
vn 0 0 -1
vn 0 0 -1
vn 0 0 -1
vn 0 0 -1
vn 0 0 -1
vn 0 0 -1
vn 0 0 -1
vn 0 0 1
vn 0 0 1
vn 0 0 1
vn 0 0 1
vn 0 0 1
vn 0 0 1
vn 0 0 1
vn 0 0 1
vn 0.1467423 0.9891747 0
vn 0.1467423 0.9891747 0
vn -0.1467423 0.9891747 0
vn -0.1467423 0.9891747 0
vn -0.1467423 -0.9891747 0
vn -0.1467423 -0.9891747 0
vn 0.1467423 -0.9891747 0
vn 0.1467423 -0.9891747 0
vn 0.1467423 -0.9891747 0
vn 0.1467423 -0.9891747 0
vn 0.9891747 -0.1467423 0
vn 0.9891747 -0.1467423 0
vn -0.1467423 0.9891747 0
vn -0.1467423 0.9891747 0
vn -0.9891747 0.1467423 0
vn -0.9891747 0.1467423 0
vn 0.9891747 -0.1467423 0
vn 0.9891747 -0.1467423 0
vn 0.9891747 0.1467423 0
vn 0.9891747 0.1467423 0
vn -0.9891747 0.1467423 0
vn -0.9891747 0.1467423 0
vn -0.9891747 -0.1467423 0
vn -0.9891747 -0.1467423 0
vn 0.9891747 0.1467423 0
vn 0.9891747 0.1467423 0
vn 0.1467423 0.9891747 0
vn 0.1467423 0.9891747 0
vn -0.9891747 -0.1467423 0
vn -0.9891747 -0.1467423 0
vn -0.1467423 -0.9891747 0
vn -0.1467423 -0.9891747 0
g MeatOnAStick_0
f 3/3/3 2/2/2 1/1/1
f 4/4/4 3/3/3 1/1/1
f 3/3/3 4/4/4 5/5/5
f 6/6/6 3/3/3 5/5/5
f 4/4/4 1/1/1 7/7/7
f 5/5/5 4/4/4 7/7/7
f 6/6/6 5/5/5 8/8/8
f 9/9/9 6/6/6 8/8/8
f 5/5/5 7/7/7 10/10/10
f 8/8/8 5/5/5 10/10/10
f 9/9/9 8/8/8 11/11/11
f 11/11/11 12/12/12 9/9/9
f 12/12/12 11/11/11 13/13/13
f 14/14/14 11/11/11 8/8/8
f 11/11/11 14/14/14 13/13/13
f 10/10/10 14/14/14 8/8/8
f 13/13/13 14/14/14 15/15/15
f 14/14/14 16/16/16 15/15/15
f 16/16/16 14/14/14 10/10/10
f 17/17/17 16/16/16 10/10/10
f 10/10/10 7/7/7 17/17/17
f 18/18/18 16/16/16 17/17/17
f 19/19/19 18/18/18 17/17/17
f 7/7/7 20/20/20 17/17/17
f 17/17/17 20/20/20 19/19/19
f 7/7/7 1/1/1 20/20/20
f 20/20/20 21/21/21 19/19/19
f 1/1/1 22/22/22 20/20/20
f 20/20/20 22/22/22 21/21/21
f 22/22/22 23/23/23 21/21/21
f 1/1/1 24/24/24 22/22/22
f 24/24/24 25/25/25 22/22/22
f 25/25/25 24/24/24 26/26/26
f 26/26/26 24/24/24 27/27/27
f 24/24/24 28/28/28 27/27/27
f 27/27/27 29/29/29 26/26/26
f 29/29/29 30/30/30 26/26/26
f 30/30/30 29/29/29 31/31/31
f 32/32/32 30/30/30 31/31/31
f 26/26/26 30/30/30 33/33/33
f 33/33/33 25/25/25 26/26/26
f 34/34/34 30/30/30 32/32/32
f 30/30/30 34/34/34 33/33/33
f 35/35/35 34/34/34 32/32/32
f 36/36/36 25/25/25 33/33/33
f 33/33/33 34/34/34 37/37/37
f 37/37/37 36/36/36 33/33/33
f 25/25/25 36/36/36 38/38/38
f 38/38/38 36/36/36 37/37/37
f 39/39/39 25/25/25 38/38/38
f 40/40/40 38/38/38 37/37/37
f 34/34/34 41/41/41 37/37/37
f 40/40/40 37/37/37 41/41/41
f 41/41/41 34/34/34 35/35/35
f 42/42/42 40/40/40 41/41/41
f 43/43/43 41/41/41 35/35/35
f 42/42/42 41/41/41 43/43/43
f 35/35/35 44/44/44 43/43/43
f 43/43/43 45/45/45 42/42/42
f 44/44/44 45/45/45 43/43/43
f 48/48/48 47/47/47 46/46/46
f 47/47/47 49/49/49 46/46/46
f 46/46/46 49/49/49 50/50/50
f 49/49/49 47/47/47 51/51/51
f 49/49/49 52/52/52 50/50/50
f 50/50/50 52/52/52 53/53/53
f 54/54/54 49/49/49 51/51/51
f 52/52/52 49/49/49 54/54/54
f 51/51/51 55/55/55 54/54/54
f 52/52/52 56/56/56 53/53/53
f 57/57/57 53/53/53 56/56/56
f 55/55/55 58/58/58 54/54/54
f 58/58/58 55/55/55 59/59/59
f 60/60/60 58/58/58 59/59/59
f 61/61/61 52/52/52 54/54/54
f 56/56/56 52/52/52 61/61/61
f 54/54/54 58/58/58 61/61/61
f 57/57/57 56/56/56 62/62/62
f 62/62/62 56/56/56 61/61/61
f 63/63/63 57/57/57 62/62/62
f 64/64/64 58/58/58 60/60/60
f 58/58/58 64/64/64 61/61/61
f 61/61/61 64/64/64 62/62/62
f 65/65/65 64/64/64 60/60/60
f 63/63/63 62/62/62 66/66/66
f 64/64/64 66/66/66 62/62/62
f 66/66/66 64/64/64 65/65/65
f 67/67/67 63/63/63 66/66/66
f 68/68/68 66/66/66 65/65/65
f 66/66/66 68/68/68 67/67/67
f 71/71/71 70/70/70 69/69/69
f 72/72/72 71/71/71 69/69/69
f 72/72/72 69/69/69 73/73/73
f 74/74/74 71/71/71 72/72/72
f 75/75/75 72/72/72 73/73/73
f 73/73/73 76/76/76 75/75/75
f 77/77/77 74/74/74 72/72/72
f 77/77/77 72/72/72 75/75/75
f 78/78/78 74/74/74 77/77/77
f 76/76/76 79/79/79 75/75/75
f 79/79/79 76/76/76 80/80/80
f 81/81/81 79/79/79 80/80/80
f 82/82/82 78/78/78 77/77/77
f 83/83/83 78/78/78 82/82/82
f 84/84/84 83/83/83 82/82/82
f 85/85/85 77/77/77 75/75/75
f 75/75/75 79/79/79 85/85/85
f 82/82/82 77/77/77 85/85/85
f 86/86/86 79/79/79 81/81/81
f 79/79/79 86/86/86 85/85/85
f 87/87/87 86/86/86 81/81/81
f 84/84/84 82/82/82 88/88/88
f 88/88/88 82/82/82 85/85/85
f 85/85/85 86/86/86 88/88/88
f 89/89/89 84/84/84 88/88/88
f 90/90/90 86/86/86 87/87/87
f 86/86/86 90/90/90 88/88/88
f 89/89/89 88/88/88 90/90/90
f 91/91/91 90/90/90 87/87/87
f 90/90/90 91/91/91 89/89/89
f 94/94/94 93/93/93 92/92/92
f 95/95/95 94/94/94 92/92/92
f 92/92/92 96/96/96 95/95/95
f 97/97/97 94/94/94 95/95/95
f 96/96/96 98/98/98 95/95/95
f 98/98/98 96/96/96 99/99/99
f 100/100/100 97/97/97 95/95/95
f 95/95/95 98/98/98 100/100/100
f 101/101/101 97/97/97 100/100/100
f 102/102/102 98/98/98 99/99/99
f 99/99/99 103/103/103 102/102/102
f 103/103/103 104/104/104 102/102/102
f 105/105/105 101/101/101 100/100/100
f 106/106/106 101/101/101 105/105/105
f 107/107/107 106/106/106 105/105/105
f 98/98/98 108/108/108 100/100/100
f 108/108/108 98/98/98 102/102/102
f 100/100/100 108/108/108 105/105/105
f 102/102/102 104/104/104 109/109/109
f 109/109/109 108/108/108 102/102/102
f 104/104/104 110/110/110 109/109/109
f 107/107/107 105/105/105 111/111/111
f 108/108/108 111/111/111 105/105/105
f 111/111/111 108/108/108 109/109/109
f 112/112/112 107/107/107 111/111/111
f 109/109/109 110/110/110 113/113/113
f 113/113/113 111/111/111 109/109/109
f 112/112/112 111/111/111 113/113/113
f 110/110/110 114/114/114 113/113/113
f 113/113/113 114/114/114 112/112/112
f 117/117/117 116/116/116 115/115/115
f 118/118/118 117/117/117 115/115/115
f 115/115/115 119/119/119 118/118/118
f 120/120/120 117/117/117 118/118/118
f 119/119/119 121/121/121 118/118/118
f 121/121/121 119/119/119 122/122/122
f 123/123/123 120/120/120 118/118/118
f 118/118/118 121/121/121 123/123/123
f 124/124/124 120/120/120 123/123/123
f 125/125/125 121/121/121 122/122/122
f 125/125/125 122/122/122 126/126/126
f 127/127/127 125/125/125 126/126/126
f 128/128/128 124/124/124 123/123/123
f 129/129/129 124/124/124 128/128/128
f 121/121/121 130/130/130 123/123/123
f 130/130/130 121/121/121 125/125/125
f 123/123/123 130/130/130 128/128/128
f 131/131/131 125/125/125 127/127/127
f 131/131/131 130/130/130 125/125/125
f 132/132/132 131/131/131 127/127/127
f 129/129/129 128/128/128 133/133/133
f 130/130/130 133/133/133 128/128/128
f 133/133/133 130/130/130 131/131/131
f 134/134/134 129/129/129 133/133/133
f 135/135/135 131/131/131 132/132/132
f 135/135/135 133/133/133 131/131/131
f 134/134/134 133/133/133 135/135/135
f 136/136/136 135/135/135 132/132/132
f 137/137/137 134/134/134 135/135/135
f 135/135/135 136/136/136 137/137/137
f 140/140/140 139/139/139 138/138/138
f 138/138/138 141/141/141 140/140/140
f 138/138/138 142/142/142 141/141/141
f 142/142/142 143/143/143 141/141/141
f 142/142/142 144/144/144 143/143/143
f 144/144/144 145/145/145 143/143/143
f 148/148/148 147/147/147 146/146/146
f 146/146/146 149/149/149 148/148/148
f 146/146/146 150/150/150 149/149/149
f 150/150/150 151/151/151 149/149/149
f 150/150/150 152/152/152 151/151/151
f 152/152/152 153/153/153 151/151/151
f 156/156/156 155/155/155 154/154/154
f 157/157/157 156/156/156 154/154/154
f 160/160/160 159/159/159 158/158/158
f 161/161/161 160/160/160 158/158/158
f 164/164/164 163/163/163 162/162/162
f 165/165/165 164/164/164 162/162/162
f 168/168/168 167/167/167 166/166/166
f 169/169/169 168/168/168 166/166/166
f 172/172/172 171/171/171 170/170/170
f 173/173/173 172/172/172 170/170/170
f 176/176/176 175/175/175 174/174/174
f 177/177/177 176/176/176 174/174/174
f 180/180/180 179/179/179 178/178/178
f 181/181/181 180/180/180 178/178/178
f 184/184/184 183/183/183 182/182/182
f 185/185/185 184/184/184 182/182/182
