g Middle_Circle_FishTankWater
v -4.142138 1.71573 1.384242
v -4.483418 0 7.199279
v -4.483418 0 1.384242
v -4.142138 1.71573 7.199279
v -3.170255 3.170255 1.384242
v -3.170255 3.170255 7.199279
v -1.71573 4.142138 1.384242
v -1.71573 4.142138 7.199279
v 0 4.483418 1.384242
v 0 4.483418 7.199279
v 1.715727 4.142138 1.384242
v 1.715727 4.142138 7.199279
v 3.170254 3.170256 1.384242
v 3.170254 3.170256 7.199279
v 4.142137 1.71573 1.384242
v 4.142137 1.71573 7.199279
v 4.483418 0 1.384242
v 4.483418 0 7.199279
v 4.142138 -1.71573 1.384242
v 4.483418 0 7.199279
v 4.483418 0 1.384242
v 4.142138 -1.71573 7.199279
v 3.170254 -3.170256 1.384242
v 3.170254 -3.170256 7.199279
v 1.715729 -4.142138 1.384242
v 1.715729 -4.142138 7.199279
v -1E-06 -4.483418 1.384242
v -1E-06 -4.483418 7.199279
v -1.71573 -4.142138 1.384242
v -1.71573 -4.142138 7.199279
v -3.170255 -3.170255 1.384242
v -3.170255 -3.170255 7.199279
v -4.142138 -1.71573 1.384242
v -4.142138 -1.71573 7.199279
v -4.483418 0 1.384242
v -4.483418 0 7.199279
v 4.142137 1.71573 7.199279
v 4.483418 0 7.199279
v 4.142138 -1.71573 7.199279
v 3.170254 -3.170256 7.199279
v 3.170254 3.170256 7.199279
v 1.715727 4.142138 7.199279
v 1.715729 -4.142138 7.199279
v -1E-06 -4.483418 7.199279
v 0 4.483418 7.199279
v -1.71573 4.142138 7.199279
v -1.71573 -4.142138 7.199279
v -3.170255 3.170255 7.199279
v -3.170255 -3.170255 7.199279
v -4.142138 1.71573 7.199279
v -4.142138 -1.71573 7.199279
v -4.483418 0 7.199279
vt -0.620858 -0.203423
vt -0.994477 1.536508
vt -0.994477 -0.203423
vt -0.620858 1.536508
vt -0.247239 -0.203424
vt -0.247239 1.536507
vt 0.12638 -0.203425
vt 0.126381 1.536507
vt 0.5 -0.203426
vt 0.5 1.536505
vt 0.873618 -0.203426
vt 0.873619 1.536504
vt 1.247238 -0.203428
vt 1.247238 1.536502
vt 1.620857 -0.20343
vt 1.620857 1.536502
vt 1.994477 -0.203431
vt 1.994477 1.5365
vt 1.621023 -0.20343
vt 1.994698 1.536502
vt 1.994698 -0.20343
vt 1.621023 1.536501
vt 1.247348 -0.20343
vt 1.247348 1.536501
vt 0.873674 -0.20343
vt 0.873674 1.536502
vt 0.499999 -0.20343
vt 0.499999 1.536502
vt 0.126325 -0.20343
vt 0.126325 1.536502
vt -0.24735 -0.203429
vt -0.24735 1.536501
vt -0.621024 -0.203429
vt -0.621024 1.536502
vt -0.994699 -0.203429
vt -0.994699 1.536502
vt 2.02616 0.196428
vt 1.793816 -0.364501
vt 1.364499 -0.793818
vt 0.803571 -1.026162
vt 2.02616 0.803573
vt 1.793815 1.364502
vt 0.196428 -1.026161
vt -0.3645 -0.793817
vt 1.364498 1.793818
vt 0.803571 2.026162
vt -0.793816 -0.364501
vt 0.196427 2.026161
vt -1.02616 0.196427
vt -0.364501 1.793817
vt -1.026161 0.803572
vt -0.793817 1.3645
vn -0.9238795 0.3826835 0
vn -1 0 0
vn -1 0 0
vn -0.9238795 0.3826835 0
vn -0.7071068 0.7071068 0
vn -0.7071068 0.7071068 0
vn -0.3826835 0.9238795 0
vn -0.3826835 0.9238795 0
vn 0 1 0
vn 0 1 0
vn 0.3826833 0.9238795 0
vn 0.3826833 0.9238795 0
vn 0.7071065 0.7071071 0
vn 0.7071065 0.7071071 0
vn 0.9238794 0.3826837 0
vn 0.9238794 0.3826837 0
vn 1 0 0
vn 1 0 0
vn 0.9238794 -0.3826837 0
vn 1 0 0
vn 1 0 0
vn 0.9238794 -0.3826837 0
vn 0.7071066 -0.7071069 0
vn 0.7071066 -0.7071069 0
vn 0.3826833 -0.9238796 0
vn 0.3826833 -0.9238796 0
vn 0 -1 0
vn 0 -1 0
vn -0.3826836 -0.9238794 0
vn -0.3826836 -0.9238794 0
vn -0.7071068 -0.7071068 0
vn -0.7071068 -0.7071068 0
vn -0.9238795 -0.3826835 0
vn -0.9238795 -0.3826835 0
vn -1 0 0
vn -1 0 0
vn 0 0 1
vn 0 0 1
vn 0 0 1
vn 0 0 1
vn 0 0 1
vn 0 0 1
vn 0 0 1
vn 0 0 1
vn 0 0 1
vn 0 0 1
vn 0 0 1
vn 0 0 1
vn 0 0 1
vn 0 0 1
vn 0 0 1
vn 0 0 1
g Middle_Circle_FishTankWater_0
f 3/3/3 2/2/2 1/1/1
f 2/2/2 4/4/4 1/1/1
f 1/1/1 4/4/4 5/5/5
f 4/4/4 6/6/6 5/5/5
f 5/5/5 6/6/6 7/7/7
f 6/6/6 8/8/8 7/7/7
f 7/7/7 8/8/8 9/9/9
f 8/8/8 10/10/10 9/9/9
f 9/9/9 10/10/10 11/11/11
f 10/10/10 12/12/12 11/11/11
f 11/11/11 12/12/12 13/13/13
f 12/12/12 14/14/14 13/13/13
f 13/13/13 14/14/14 15/15/15
f 14/14/14 16/16/16 15/15/15
f 15/15/15 16/16/16 17/17/17
f 16/16/16 18/18/18 17/17/17
f 21/21/21 20/20/20 19/19/19
f 20/20/20 22/22/22 19/19/19
f 19/19/19 22/22/22 23/23/23
f 22/22/22 24/24/24 23/23/23
f 23/23/23 24/24/24 25/25/25
f 24/24/24 26/26/26 25/25/25
f 25/25/25 26/26/26 27/27/27
f 26/26/26 28/28/28 27/27/27
f 27/27/27 28/28/28 29/29/29
f 28/28/28 30/30/30 29/29/29
f 29/29/29 30/30/30 31/31/31
f 30/30/30 32/32/32 31/31/31
f 31/31/31 32/32/32 33/33/33
f 32/32/32 34/34/34 33/33/33
f 33/33/33 34/34/34 35/35/35
f 34/34/34 36/36/36 35/35/35
f 39/39/39 38/38/38 37/37/37
f 37/37/37 40/40/40 39/39/39
f 37/37/37 41/41/41 40/40/40
f 41/41/41 42/42/42 40/40/40
f 42/42/42 43/43/43 40/40/40
f 42/42/42 44/44/44 43/43/43
f 42/42/42 45/45/45 44/44/44
f 45/45/45 46/46/46 44/44/44
f 46/46/46 47/47/47 44/44/44
f 46/46/46 48/48/48 47/47/47
f 48/48/48 49/49/49 47/47/47
f 48/48/48 50/50/50 49/49/49
f 50/50/50 51/51/51 49/49/49
f 50/50/50 52/52/52 51/51/51
