g MilkBottle_Inside
v 0.213716 0 0.820342
v 0.160287 -0.160287 0.712432
v 0.160287 -0.160287 0.820342
v 0.213716 0 0.712432
v 0.213716 0 0.440526
v 0.160287 -0.160287 0.440526
v 0.15798 -0.15798 0.170475
v 0.160287 0.160287 0.712432
v 0.160287 0.160287 0.820342
v 0.160287 0.160287 0.440526
v 0.15798 0.15798 0.170475
v 0.21064 0 0.170475
v 0.201411 0 0.068131
v 0.151058 -0.151058 0.068131
v 0.151058 0.151058 0.068131
v -0.201411 0 0.068131
v -0.15798 -0.15798 0.170475
v -0.151058 -0.151058 0.068131
v -0.21064 0 0.170475
v -0.213716 0 0.440526
v -0.160287 -0.160287 0.440526
v -0.160287 -0.160287 0.712432
v -0.15798 0.15798 0.170475
v -0.151058 0.151058 0.068131
v -0.160287 0.160287 0.440526
v -0.160287 0.160287 0.712432
v -0.213716 0 0.712432
v -0.213716 0 0.820342
v -0.160287 -0.160287 0.820342
v -0.160287 0.160287 0.820342
v 0 0.201411 0.068131
v -0.15798 0.15798 0.170475
v -0.151058 0.151058 0.068131
v 0 0.21064 0.170475
v 0 0.213716 0.440526
v -0.160287 0.160287 0.440526
v -0.160287 0.160287 0.712432
v 0.15798 0.15798 0.170475
v 0.151058 0.151058 0.068131
v 0.160287 0.160287 0.440526
v 0.160287 0.160287 0.712432
v 0 0.213716 0.712432
v 0 0.213716 0.820342
v -0.160287 0.160287 0.820342
v 0.160287 0.160287 0.820342
v 0 -0.201411 0.068131
v 0.15798 -0.15798 0.170475
v 0.151058 -0.151058 0.068131
v 0 -0.21064 0.170475
v 0 -0.213716 0.440526
v 0.160287 -0.160287 0.440526
v 0.160287 -0.160287 0.712432
v -0.15798 -0.15798 0.170475
v -0.151058 -0.151058 0.068131
v -0.160287 -0.160287 0.440526
v -0.160287 -0.160287 0.712432
v 0 -0.213716 0.712432
v 0 -0.213716 0.820342
v 0.160287 -0.160287 0.820342
v -0.160287 -0.160287 0.820342
v 0.201411 0 0.068131
v 0.151058 0.151058 0.068131
v 0.10916 0.10916 0.057859
v 0 0.201411 0.068131
v 0.144905 0 0.054264
v 0 0 0.049641
v 0.10916 -0.10916 0.057859
v 0.151058 -0.151058 0.068131
v 0 -0.201411 0.068131
v 0 0.144905 0.054264
v -0.10916 0.10916 0.057859
v -0.151058 0.151058 0.068131
v -0.201411 0 0.068131
v 0 -0.144905 0.054264
v -0.10916 -0.10916 0.057859
v -0.151058 -0.151058 0.068131
v -0.144905 0 0.054264
v 0.213716 0 0.820342
v 0.118731 0.118731 0.834737
v 0.160287 0.160287 0.820342
v 0 0.213716 0.820342
v 0.160287 0 0.839775
v 0 0 0.846253
v 0.118731 -0.118731 0.834737
v 0.160287 -0.160287 0.820342
v 0 -0.213716 0.820342
v 0 0.160287 0.839775
v -0.118731 0.118731 0.834737
v -0.160287 0.160287 0.820342
v -0.213716 0 0.820342
v 0 -0.160287 0.839775
v -0.118731 -0.118731 0.834737
v -0.160287 -0.160287 0.820342
v -0.160287 0 0.839775
vn 0.7928622 0 0.6094009
vn 0.7071068 -0.7071068 0
vn 0.550584 -0.550584 0.6274669
vn 1 0 0
vn 0.9999838 0 -0.005694965
vn 0.7070938 -0.7070938 -0.006040408
vn 0.706086 -0.706086 -0.05371211
vn 0.7071068 0.7071067 0
vn 0.550584 0.550584 0.6274669
vn 0.7070938 0.7070938 -0.006040411
vn 0.706086 0.706086 -0.05371211
vn 0.9987166 0 -0.05064841
vn 0.7350559 0 -0.6780066
vn 0.5075219 -0.5075219 -0.6963068
vn 0.5075219 0.5075219 -0.6963068
vn -0.7350558 0 -0.6780066
vn -0.706086 -0.706086 -0.05371211
vn -0.5075219 -0.5075219 -0.6963068
vn -0.9987166 0 -0.05064841
vn -0.9999838 0 -0.005694964
vn -0.7070938 -0.7070938 -0.00604041
vn -0.7071068 -0.7071067 0
vn -0.706086 0.706086 -0.05371212
vn -0.5075219 0.5075219 -0.6963068
vn -0.7070938 0.7070938 -0.006040408
vn -0.7071068 0.7071068 0
vn -1 0 0
vn -0.7928622 0 0.6094009
vn -0.550584 -0.550584 0.6274669
vn -0.550584 0.550584 0.6274669
vn 0 0.7350558 -0.6780066
vn -0.706086 0.706086 -0.05371212
vn -0.5075219 0.5075219 -0.6963068
vn 0 0.9987166 -0.0506484
vn 0 0.9999838 -0.005694963
vn -0.7070938 0.7070938 -0.006040408
vn -0.7071068 0.7071068 0
vn 0.706086 0.706086 -0.05371211
vn 0.5075219 0.5075219 -0.6963068
vn 0.7070938 0.7070938 -0.006040411
vn 0.7071068 0.7071067 0
vn 0 1 0
vn 0 0.7928622 0.6094009
vn -0.550584 0.550584 0.6274669
vn 0.550584 0.550584 0.6274669
vn 0 -0.7350559 -0.6780066
vn 0.706086 -0.706086 -0.05371211
vn 0.5075219 -0.5075219 -0.6963068
vn 0 -0.9987166 -0.0506484
vn 0 -0.9999838 -0.005694966
vn 0.7070938 -0.7070938 -0.006040408
vn 0.7071068 -0.7071068 0
vn -0.706086 -0.706086 -0.05371211
vn -0.5075219 -0.5075219 -0.6963068
vn -0.7070938 -0.7070938 -0.00604041
vn -0.7071068 -0.7071067 0
vn 0 -1 0
vn 0 -0.7928622 0.6094009
vn 0.550584 -0.550584 0.6274669
vn -0.550584 -0.550584 0.6274669
vn 0.7350559 0 -0.6780066
vn 0.5075219 0.5075219 -0.6963068
vn 0.1083849 0.1083849 -0.9881828
vn 0 0.7350558 -0.6780066
vn 0.1218269 0 -0.9925513
vn 0 0 -1
vn 0.1083849 -0.1083849 -0.9881828
vn 0.5075219 -0.5075219 -0.6963068
vn 0 -0.7350559 -0.6780066
vn 0 0.1218269 -0.9925513
vn -0.1083849 0.1083849 -0.9881828
vn -0.5075219 0.5075219 -0.6963068
vn -0.7350558 0 -0.6780066
vn 0 -0.1218269 -0.9925513
vn -0.1083849 -0.1083849 -0.9881828
vn -0.5075219 -0.5075219 -0.6963068
vn -0.1218269 0 -0.9925513
vn 0.7928622 0 0.6094009
vn 0.1521888 0.1521888 0.9765639
vn 0.550584 0.550584 0.6274669
vn 0 0.7928622 0.6094009
vn 0.1702043 0 0.9854088
vn 0 0 1
vn 0.1521888 -0.1521888 0.9765639
vn 0.550584 -0.550584 0.6274669
vn 0 -0.7928622 0.6094009
vn 0 0.1702043 0.9854088
vn -0.1521888 0.1521888 0.9765639
vn -0.550584 0.550584 0.6274669
vn -0.7928622 0 0.6094009
vn 0 -0.1702043 0.9854088
vn -0.1521888 -0.1521888 0.9765639
vn -0.550584 -0.550584 0.6274669
vn -0.1702043 0 0.9854088
g MilkBottle_Inside_0
f 3/3/3 2/2/2 1/1/1
f 2/2/2 4/4/4 1/1/1
f 4/4/4 2/2/2 5/5/5
f 2/2/2 6/6/6 5/5/5
f 6/6/6 7/7/7 5/5/5
f 4/4/4 8/8/8 1/1/1
f 8/8/8 4/4/4 5/5/5
f 8/8/8 9/9/9 1/1/1
f 10/10/10 8/8/8 5/5/5
f 11/11/11 10/10/10 5/5/5
f 7/7/7 12/12/12 5/5/5
f 12/12/12 11/11/11 5/5/5
f 12/12/12 7/7/7 13/13/13
f 11/11/11 12/12/12 13/13/13
f 7/7/7 14/14/14 13/13/13
f 15/15/15 11/11/11 13/13/13
f 18/18/18 17/17/17 16/16/16
f 17/17/17 19/19/19 16/16/16
f 19/19/19 17/17/17 20/20/20
f 17/17/17 21/21/21 20/20/20
f 21/21/21 22/22/22 20/20/20
f 19/19/19 23/23/23 16/16/16
f 23/23/23 19/19/19 20/20/20
f 23/23/23 24/24/24 16/16/16
f 25/25/25 23/23/23 20/20/20
f 26/26/26 25/25/25 20/20/20
f 22/22/22 27/27/27 20/20/20
f 27/27/27 26/26/26 20/20/20
f 27/27/27 22/22/22 28/28/28
f 26/26/26 27/27/27 28/28/28
f 22/22/22 29/29/29 28/28/28
f 30/30/30 26/26/26 28/28/28
f 33/33/33 32/32/32 31/31/31
f 32/32/32 34/34/34 31/31/31
f 34/34/34 32/32/32 35/35/35
f 32/32/32 36/36/36 35/35/35
f 36/36/36 37/37/37 35/35/35
f 34/34/34 38/38/38 31/31/31
f 38/38/38 34/34/34 35/35/35
f 38/38/38 39/39/39 31/31/31
f 40/40/40 38/38/38 35/35/35
f 41/41/41 40/40/40 35/35/35
f 37/37/37 42/42/42 35/35/35
f 42/42/42 41/41/41 35/35/35
f 42/42/42 37/37/37 43/43/43
f 41/41/41 42/42/42 43/43/43
f 37/37/37 44/44/44 43/43/43
f 45/45/45 41/41/41 43/43/43
f 48/48/48 47/47/47 46/46/46
f 47/47/47 49/49/49 46/46/46
f 49/49/49 47/47/47 50/50/50
f 47/47/47 51/51/51 50/50/50
f 51/51/51 52/52/52 50/50/50
f 49/49/49 53/53/53 46/46/46
f 53/53/53 49/49/49 50/50/50
f 53/53/53 54/54/54 46/46/46
f 55/55/55 53/53/53 50/50/50
f 56/56/56 55/55/55 50/50/50
f 52/52/52 57/57/57 50/50/50
f 57/57/57 56/56/56 50/50/50
f 57/57/57 52/52/52 58/58/58
f 56/56/56 57/57/57 58/58/58
f 52/52/52 59/59/59 58/58/58
f 60/60/60 56/56/56 58/58/58
f 63/63/63 62/62/62 61/61/61
f 62/62/62 63/63/63 64/64/64
f 65/65/65 63/63/63 61/61/61
f 63/63/63 65/65/65 66/66/66
f 67/67/67 65/65/65 61/61/61
f 65/65/65 67/67/67 66/66/66
f 68/68/68 67/67/67 61/61/61
f 67/67/67 68/68/68 69/69/69
f 63/63/63 70/70/70 64/64/64
f 70/70/70 63/63/63 66/66/66
f 70/70/70 71/71/71 64/64/64
f 71/71/71 70/70/70 66/66/66
f 71/71/71 72/72/72 64/64/64
f 72/72/72 71/71/71 73/73/73
f 74/74/74 67/67/67 69/69/69
f 67/67/67 74/74/74 66/66/66
f 75/75/75 74/74/74 69/69/69
f 74/74/74 75/75/75 66/66/66
f 76/76/76 75/75/75 69/69/69
f 75/75/75 76/76/76 73/73/73
f 77/77/77 71/71/71 66/66/66
f 71/71/71 77/77/77 73/73/73
f 75/75/75 77/77/77 66/66/66
f 77/77/77 75/75/75 73/73/73
f 80/80/80 79/79/79 78/78/78
f 79/79/79 80/80/80 81/81/81
f 79/79/79 82/82/82 78/78/78
f 82/82/82 79/79/79 83/83/83
f 82/82/82 84/84/84 78/78/78
f 84/84/84 82/82/82 83/83/83
f 84/84/84 85/85/85 78/78/78
f 85/85/85 84/84/84 86/86/86
f 87/87/87 79/79/79 81/81/81
f 79/79/79 87/87/87 83/83/83
f 88/88/88 87/87/87 81/81/81
f 87/87/87 88/88/88 83/83/83
f 89/89/89 88/88/88 81/81/81
f 88/88/88 89/89/89 90/90/90
f 84/84/84 91/91/91 86/86/86
f 91/91/91 84/84/84 83/83/83
f 91/91/91 92/92/92 86/86/86
f 92/92/92 91/91/91 83/83/83
f 92/92/92 93/93/93 86/86/86
f 93/93/93 92/92/92 90/90/90
f 94/94/94 88/88/88 90/90/90
f 88/88/88 94/94/94 83/83/83
f 92/92/92 94/94/94 90/90/90
f 94/94/94 92/92/92 83/83/83
