g Minimalist_Table
v 1.771209 0.887101 0
v 1.686146 0.887101 0.971365
v 1.686146 0.887101 0
v 1.771209 0.887101 0.971365
v 1.686146 0.887101 1.130267
v 1.771209 0.887101 1.130267
v 0 0.887101 0.971365
v 0 0.887101 1.130267
v -1.686146 0.887101 1.130267
v -1.686146 0.887101 0.971365
v -1.771209 0.887101 0.971365
v -1.771209 0.887101 1.130267
v -1.771209 0.887101 0
v -1.686146 0.887101 0
v 1.686146 0.887101 0
v 1.686146 0.887101 0.971365
v 1.686146 0.781771 0.971365
v 1.686146 0.781771 0
v 1.771209 0.781771 0
v 1.771209 0.887101 0.971365
v 1.771209 0.887101 0
v 1.771209 0.781771 0.971365
v 1.771209 0.887101 1.130267
v 1.771209 0.781771 1.130267
v 1.771209 0 1.130267
v 1.771209 0 0.971365
v 1.771209 -0.781771 0.971365
v 1.771209 -0.781771 1.130267
v 1.771209 -0.887101 1.130267
v 1.771209 -0.887101 0.971365
v 1.771209 -0.781771 0
v 1.771209 -0.887101 0
v 1.686146 0.781771 0
v 1.686146 0.781771 0.971365
v 1.771209 0.781771 0.971365
v 1.771209 0.781771 0
v 1.686146 0.781771 0.971365
v 0 0.781771 1.130267
v 1.686146 0.781771 1.130267
v 0 0.781771 0.971365
v -1.686146 0.781771 0.971365
v -1.686146 0.781771 1.130267
v 1.686146 0.781771 1.130267
v 1.686146 0 0.971365
v 1.686146 0.781771 0.971365
v 1.686146 0 1.130267
v 1.686146 -0.781771 1.130267
v 1.686146 -0.781771 0.971365
v 1.686146 0.781771 0.971365
v 1.771209 0 0.971365
v 1.771209 0.781771 0.971365
v 1.686146 0 0.971365
v 1.686146 -0.781771 0.971365
v 1.771209 -0.781771 0.971365
v 1.686146 0.887101 0.971365
v 0 0.781771 0.971365
v 0 0.887101 0.971365
v -1.686146 0.887101 0.971365
v -1.686146 0.781771 0.971365
v 1.686146 -0.887101 0.971365
v 0 -0.781771 0.971365
v 0 -0.887101 0.971365
v -1.686146 -0.887101 0.971365
v -1.686146 -0.781771 0.971365
v -1.771209 0.781771 0.971365
v -1.771209 0 0.971365
v -1.771209 -0.781771 0.971365
v -1.686146 0 0.971365
v 1.837045 0.932656 1.11417
v -1.837045 0.932656 1.11417
v -1.837045 -0.932656 1.11417
v 1.837045 -0.932656 1.11417
v -1.686146 0.887101 0
v -1.686146 0.781771 0
v -1.686146 0.781771 0.971365
v -1.686146 0.887101 0.971365
v -1.771209 0.781771 0
v -1.771209 0.887101 0
v -1.771209 0.887101 0.971365
v -1.771209 0.781771 0.971365
v -1.771209 0.887101 1.130267
v -1.771209 0.781771 1.130267
v -1.771209 0 1.130267
v -1.771209 0 0.971365
v -1.771209 -0.781771 0.971365
v -1.771209 -0.781771 1.130267
v -1.771209 -0.887101 1.130267
v -1.771209 -0.887101 0.971365
v -1.771209 -0.781771 0
v -1.771209 -0.887101 0
v -1.686146 0.781771 0
v -1.771209 0.781771 0
v -1.771209 0.781771 0.971365
v -1.686146 0.781771 0.971365
v -1.686146 0.781771 1.130267
v -1.686146 0.781771 0.971365
v -1.686146 0 0.971365
v -1.686146 0 1.130267
v -1.686146 -0.781771 1.130267
v -1.686146 -0.781771 0.971365
v 1.771209 -0.887101 0
v 1.686146 -0.887101 0
v 1.686146 -0.887101 0.971365
v 1.771209 -0.887101 0.971365
v 1.686146 -0.887101 1.130267
v 1.771209 -0.887101 1.130267
v 0 -0.887101 0.971365
v 0 -0.887101 1.130267
v -1.686146 -0.887101 1.130267
v -1.686146 -0.887101 0.971365
v -1.771209 -0.887101 0.971365
v -1.771209 -0.887101 1.130267
v -1.771209 -0.887101 0
v -1.686146 -0.887101 0
v 1.686146 -0.887101 0
v 1.686146 -0.781771 0
v 1.686146 -0.781771 0.971365
v 1.686146 -0.887101 0.971365
v 1.686146 -0.781771 0
v 1.771209 -0.781771 0
v 1.771209 -0.781771 0.971365
v 1.686146 -0.781771 0.971365
v 1.686146 -0.781771 0.971365
v 1.686146 -0.781771 1.130267
v 0 -0.781771 1.130267
v 0 -0.781771 0.971365
v -1.686146 -0.781771 0.971365
v -1.686146 -0.781771 1.130267
v 1.837045 0.932656 1.11417
v 1.837045 0.932656 1.20472
v -1.837045 0.932656 1.20472
v -1.837045 0.932656 1.11417
v -1.686146 -0.887101 0
v -1.686146 -0.887101 0.971365
v -1.686146 -0.781771 0.971365
v -1.686146 -0.781771 0
v -1.686146 -0.781771 0
v -1.686146 -0.781771 0.971365
v -1.771209 -0.781771 0.971365
v -1.771209 -0.781771 0
v 1.837045 -0.932656 1.11417
v 1.837045 -0.932656 1.20472
v 1.837045 0.932656 1.20472
v 1.837045 0.932656 1.11417
v -1.837045 -0.932656 1.11417
v -1.837045 -0.932656 1.20472
v 1.837045 -0.932656 1.20472
v 1.837045 -0.932656 1.11417
v -1.837045 0.932656 1.11417
v -1.837045 0.932656 1.20472
v -1.837045 -0.932656 1.20472
v -1.837045 -0.932656 1.11417
v 1.837045 0.932656 1.20472
v 1.837045 -0.932656 1.20472
v -1.837045 -0.932656 1.20472
v -1.837045 0.932656 1.20472
vt 0.025873 0.786332
vt 0.155479 0.689984
vt 0.025873 0.689984
vt 0.155479 0.786333
vt 0.285084 0.689985
vt 0.285084 0.786333
vt 0.155479 0.689984
vt 0.285084 0.689985
vt 0.285084 0.689985
vt 0.155479 0.689984
vt 0.155479 0.786333
vt 0.285084 0.786333
vt 0.025873 0.786332
vt 0.025873 0.689984
vt 0.390602 0.728828
vt 0.322042 0.733474
vt 0.322538 0.745342
vt 0.390602 0.742857
vt 0.550317 0.68728
vt 0.305282 0.787578
vt 0.550317 0.787578
vt 0.305282 0.68728
vt 0.060247 0.787578
vt 0.060247 0.68728
vt 0.060247 0.68728
vt 0.305282 0.68728
vt 0.305282 0.68728
vt 0.060247 0.68728
vt 0.060247 0.787578
vt 0.305282 0.787578
vt 0.550317 0.68728
vt 0.550317 0.787578
vt 0.390602 0.742857
vt 0.322538 0.745342
vt 0.322092 0.753421
vt 0.390487 0.75412
vt 0.322538 0.745342
vt 0.254474 0.747826
vt 0.254474 0.747826
vt 0.322538 0.745342
vt 0.322538 0.745342
vt 0.254474 0.747826
vt 0.254474 0.747826
vt 0.322538 0.745342
vt 0.322538 0.745342
vt 0.254474 0.747826
vt 0.254474 0.747826
vt 0.322538 0.745342
vt 0.322538 0.745342
vt 0.322092 0.753421
vt 0.322092 0.753421
vt 0.322538 0.745342
vt 0.322538 0.745342
vt 0.322092 0.753421
vt 0.322042 0.733474
vt 0.322538 0.745342
vt 0.322042 0.733474
vt 0.322042 0.733474
vt 0.322538 0.745342
vt 0.322042 0.733474
vt 0.322538 0.745342
vt 0.322042 0.733474
vt 0.322042 0.733474
vt 0.322538 0.745342
vt 0.322092 0.753421
vt 0.322092 0.753421
vt 0.322092 0.753421
vt 0.322538 0.745342
vt 0.285084 0.689985
vt 0.285084 0.689985
vt 0.254474 0.747826
vt 0.254474 0.747826
vt 0.390602 0.728828
vt 0.390602 0.742857
vt 0.322538 0.745342
vt 0.322042 0.733474
vt 0.550317 0.68728
vt 0.550317 0.787578
vt 0.305282 0.787578
vt 0.305282 0.68728
vt 0.060247 0.787578
vt 0.060247 0.68728
vt 0.060247 0.68728
vt 0.305282 0.68728
vt 0.305282 0.68728
vt 0.060247 0.68728
vt 0.060247 0.787578
vt 0.305282 0.787578
vt 0.550317 0.68728
vt 0.550317 0.787578
vt 0.390602 0.742857
vt 0.390487 0.75412
vt 0.322092 0.753421
vt 0.322538 0.745342
vt 0.254474 0.747826
vt 0.322538 0.745342
vt 0.322538 0.745342
vt 0.254474 0.747826
vt 0.254474 0.747826
vt 0.322538 0.745342
vt 0.025873 0.786332
vt 0.025873 0.689984
vt 0.155479 0.689984
vt 0.155479 0.786333
vt 0.285084 0.689985
vt 0.285084 0.786333
vt 0.155479 0.689984
vt 0.285084 0.689985
vt 0.285084 0.689985
vt 0.155479 0.689984
vt 0.155479 0.786333
vt 0.285084 0.786333
vt 0.025873 0.786332
vt 0.025873 0.689984
vt 0.390602 0.728828
vt 0.390602 0.742857
vt 0.322538 0.745342
vt 0.322042 0.733474
vt 0.390602 0.742857
vt 0.390487 0.75412
vt 0.322092 0.753421
vt 0.322538 0.745342
vt 0.322538 0.745342
vt 0.254474 0.747826
vt 0.254474 0.747826
vt 0.322538 0.745342
vt 0.322538 0.745342
vt 0.254474 0.747826
vt 0.471089 0.485177
vt 0.45626 0.467844
vt 0.080936 0.464305
vt 0.070735 0.485176
vt 0.390602 0.728828
vt 0.322042 0.733474
vt 0.322538 0.745342
vt 0.390602 0.742857
vt 0.390602 0.742857
vt 0.322538 0.745342
vt 0.322092 0.753421
vt 0.390487 0.75412
vt 0.469182 0.084225
vt 0.45898 0.105096
vt 0.45626 0.467844
vt 0.471089 0.485177
vt 0.068827 0.084224
vt 0.083656 0.101557
vt 0.45898 0.105096
vt 0.469182 0.084225
vt 0.070735 0.485176
vt 0.080936 0.464305
vt 0.083656 0.101557
vt 0.068827 0.084224
vt 0.472054 0.486638
vt 0.471695 0.083497
vt 0.069815 0.082763
vt 0.070174 0.485903
vn 0 1 0
vn 0 1 0
vn 0 1 0
vn 0 1 0
vn 0 1 0
vn 0 1 0
vn 0 1 0
vn 0 1 0
vn 0 1 0
vn 0 1 0
vn 0 1 0
vn 0 1 0
vn 0 1 0
vn 0 1 0
vn -1 0 0
vn -1 0 0
vn -1 0 0
vn -1 0 0
vn 1 0 0
vn 1 0 0
vn 1 0 0
vn 1 0 0
vn 1 0 0
vn 1 0 0
vn 1 0 0
vn 1 0 0
vn 1 0 0
vn 1 0 0
vn 1 0 0
vn 1 0 0
vn 1 0 0
vn 1 0 0
vn 0 -1 0
vn 0 -1 0
vn 0 -1 0
vn 0 -1 0
vn 0 -1 0
vn 0 -1 0
vn 0 -1 0
vn 0 -1 0
vn 0 -1 0
vn 0 -1 0
vn -1 0 0
vn -1 0 0
vn -1 0 0
vn -1 0 0
vn -1 0 0
vn -1 0 0
vn 0 0 -1
vn 0 0 -1
vn 0 0 -1
vn 0 0 -1
vn 0 0 -1
vn 0 0 -1
vn 0 0 -1
vn 0 0 -1
vn 0 0 -1
vn 0 0 -1
vn 0 0 -1
vn 0 0 -1
vn 0 0 -1
vn 0 0 -1
vn 0 0 -1
vn 0 0 -1
vn 0 0 -1
vn 0 0 -1
vn 0 0 -1
vn 0 0 -1
vn 0 0 -1
vn 0 0 -1
vn 0 0 -1
vn 0 0 -1
vn 1 0 0
vn 1 0 0
vn 1 0 0
vn 1 0 0
vn -1 0 0
vn -1 0 0
vn -1 0 0
vn -1 0 0
vn -1 0 0
vn -1 0 0
vn -1 0 0
vn -1 0 0
vn -1 0 0
vn -1 0 0
vn -1 0 0
vn -1 0 0
vn -1 0 0
vn -1 0 0
vn 0 -1 0
vn 0 -1 0
vn 0 -1 0
vn 0 -1 0
vn 1 0 0
vn 1 0 0
vn 1 0 0
vn 1 0 0
vn 1 0 0
vn 1 0 0
vn 0 -1 0
vn 0 -1 0
vn 0 -1 0
vn 0 -1 0
vn 0 -1 0
vn 0 -1 0
vn 0 -1 0
vn 0 -1 0
vn 0 -1 0
vn 0 -1 0
vn 0 -1 0
vn 0 -1 0
vn 0 -1 0
vn 0 -1 0
vn -1 0 0
vn -1 0 0
vn -1 0 0
vn -1 0 0
vn 0 1 0
vn 0 1 0
vn 0 1 0
vn 0 1 0
vn 0 1 0
vn 0 1 0
vn 0 1 0
vn 0 1 0
vn 0 1 0
vn 0 1 0
vn 0 1 0
vn 0 1 0
vn 0 1 0
vn 0 1 0
vn 1 0 0
vn 1 0 0
vn 1 0 0
vn 1 0 0
vn 0 1 0
vn 0 1 0
vn 0 1 0
vn 0 1 0
vn 1 0 0
vn 1 0 0
vn 1 0 0
vn 1 0 0
vn 0 -1 0
vn 0 -1 0
vn 0 -1 0
vn 0 -1 0
vn -1 0 0
vn -1 0 0
vn -1 0 0
vn -1 0 0
vn 0 0 1
vn 0 0 1
vn 0 0 1
vn 0 0 1
g Minimalist_Table_0
f 3/3/3 2/2/2 1/1/1
f 2/2/2 4/4/4 1/1/1
f 2/2/2 5/5/5 4/4/4
f 5/5/5 6/6/6 4/4/4
f 2/2/2 7/7/7 5/5/5
f 7/7/7 8/8/8 5/5/5
f 8/8/8 7/7/7 9/9/9
f 7/7/7 10/10/10 9/9/9
f 9/9/9 10/10/10 11/11/11
f 12/12/12 9/9/9 11/11/11
f 11/11/11 10/10/10 13/13/13
f 10/10/10 14/14/14 13/13/13
f 17/17/17 16/16/16 15/15/15
f 18/18/18 17/17/17 15/15/15
f 21/21/21 20/20/20 19/19/19
f 20/20/20 22/22/22 19/19/19
f 20/20/20 23/23/23 22/22/22
f 23/23/23 24/24/24 22/22/22
f 24/24/24 25/25/25 22/22/22
f 25/25/25 26/26/26 22/22/22
f 26/26/26 25/25/25 27/27/27
f 25/25/25 28/28/28 27/27/27
f 28/28/28 29/29/29 27/27/27
f 29/29/29 30/30/30 27/27/27
f 27/27/27 30/30/30 31/31/31
f 30/30/30 32/32/32 31/31/31
f 35/35/35 34/34/34 33/33/33
f 36/36/36 35/35/35 33/33/33
f 39/39/39 38/38/38 37/37/37
f 38/38/38 40/40/40 37/37/37
f 40/40/40 38/38/38 41/41/41
f 38/38/38 42/42/42 41/41/41
f 45/45/45 44/44/44 43/43/43
f 44/44/44 46/46/46 43/43/43
f 46/46/46 44/44/44 47/47/47
f 44/44/44 48/48/48 47/47/47
f 51/51/51 50/50/50 49/49/49
f 50/50/50 52/52/52 49/49/49
f 52/52/52 50/50/50 53/53/53
f 50/50/50 54/54/54 53/53/53
f 49/49/49 56/56/56 55/55/55
f 56/56/56 57/57/57 55/55/55
f 57/57/57 56/56/56 58/58/58
f 56/56/56 59/59/59 58/58/58
f 61/61/61 53/53/53 60/60/60
f 62/62/62 61/61/61 60/60/60
f 61/61/61 62/62/62 63/63/63
f 64/64/64 61/61/61 63/63/63
f 66/66/66 65/65/65 59/59/59
f 67/67/67 66/66/66 64/64/64
f 68/68/68 66/66/66 59/59/59
f 66/66/66 68/68/68 64/64/64
f 71/71/71 70/70/70 69/69/69
f 72/72/72 71/71/71 69/69/69
f 75/75/75 74/74/74 73/73/73
f 76/76/76 75/75/75 73/73/73
f 79/79/79 78/78/78 77/77/77
f 80/80/80 79/79/79 77/77/77
f 81/81/81 79/79/79 80/80/80
f 82/82/82 81/81/81 80/80/80
f 83/83/83 82/82/82 80/80/80
f 84/84/84 83/83/83 80/80/80
f 83/83/83 84/84/84 85/85/85
f 86/86/86 83/83/83 85/85/85
f 87/87/87 86/86/86 85/85/85
f 88/88/88 87/87/87 85/85/85
f 88/88/88 85/85/85 89/89/89
f 90/90/90 88/88/88 89/89/89
f 93/93/93 92/92/92 91/91/91
f 94/94/94 93/93/93 91/91/91
f 97/97/97 96/96/96 95/95/95
f 98/98/98 97/97/97 95/95/95
f 97/97/97 98/98/98 99/99/99
f 100/100/100 97/97/97 99/99/99
f 103/103/103 102/102/102 101/101/101
f 104/104/104 103/103/103 101/101/101
f 105/105/105 103/103/103 104/104/104
f 106/106/106 105/105/105 104/104/104
f 107/107/107 103/103/103 105/105/105
f 108/108/108 107/107/107 105/105/105
f 107/107/107 108/108/108 109/109/109
f 110/110/110 107/107/107 109/109/109
f 110/110/110 109/109/109 111/111/111
f 109/109/109 112/112/112 111/111/111
f 110/110/110 111/111/111 113/113/113
f 114/114/114 110/110/110 113/113/113
f 117/117/117 116/116/116 115/115/115
f 118/118/118 117/117/117 115/115/115
f 121/121/121 120/120/120 119/119/119
f 122/122/122 121/121/121 119/119/119
f 125/125/125 124/124/124 123/123/123
f 126/126/126 125/125/125 123/123/123
f 125/125/125 126/126/126 127/127/127
f 128/128/128 125/125/125 127/127/127
f 131/131/131 130/130/130 129/129/129
f 132/132/132 131/131/131 129/129/129
f 135/135/135 134/134/134 133/133/133
f 136/136/136 135/135/135 133/133/133
f 139/139/139 138/138/138 137/137/137
f 140/140/140 139/139/139 137/137/137
f 143/143/143 142/142/142 141/141/141
f 144/144/144 143/143/143 141/141/141
f 147/147/147 146/146/146 145/145/145
f 148/148/148 147/147/147 145/145/145
f 151/151/151 150/150/150 149/149/149
f 152/152/152 151/151/151 149/149/149
f 155/155/155 154/154/154 153/153/153
f 156/156/156 155/155/155 153/153/153
