g MuseumDesk
v -0.658593 0.702463 0.310822
v -0.689521 0.718781 0.331879
v -0.900903 1.035136 0.331879
v -0.860494 1.004628 0.310822
v 1.418389 0.015367 0.310822
v 1.484997 -0.000581 0.331879
v 1.940242 0.680741 0.331879
v 1.853215 0.66613 0.310822
v 0.860494 1.004628 0.310822
v 0.900903 1.035136 0.331879
v 0.689521 0.718781 0.331879
v 0.658593 0.702463 0.310822
v 0.767626 -0.419458 0.310822
v 0.803674 -0.455826 0.331879
v 1.484997 -0.000581 0.331879
v 1.418389 0.015367 0.310822
v -0.860494 1.004628 0.310822
v -0.900903 1.035136 0.331879
v -0.940457 1.321145 0.331879
v -0.898274 1.277808 0.310822
v 0.658593 0.702463 0.310822
v 0.689521 0.718781 0.331879
v 0.373166 0.507399 0.331879
v 0.356428 0.500563 0.310822
v 0 -0.572149 0.310822
v 0 -0.615687 0.331879
v 0.803674 -0.455826 0.331879
v 0.767626 -0.419458 0.310822
v 0.356428 0.500563 0.310822
v 0.373166 0.507399 0.331879
v 0 0.433172 0.331879
v 0 0.429665 0.310822
v -2.100103 1.325646 0.331879
v -2.100103 1.325646 0.40118
v -1.940242 0.680741 0.40118
v -1.940242 0.680741 0.331879
v -1.484997 -0.000581 0.40118
v -1.484997 -0.000581 0.331879
v -0.803675 -0.455826 0.40118
v -0.803675 -0.455826 0.331879
v 0 -0.615687 0.40118
v 0 -0.615687 0.331879
v 0.803674 -0.455826 0.40118
v 0.803674 -0.455826 0.331879
v 1.484997 -0.000581 0.40118
v 1.484997 -0.000581 0.331879
v 1.940242 0.680741 0.40118
v 1.940242 0.680741 0.331879
v 2.100103 1.325646 0.40118
v 2.100103 1.325646 0.331879
v -0.900903 1.035136 0.331879
v -0.940457 1.321145 0.40118
v -0.940457 1.321145 0.331879
v -0.900903 1.035136 0.40118
v -0.689521 0.718781 0.331879
v -0.689521 0.718781 0.40118
v -0.373166 0.507399 0.331879
v -0.373166 0.507399 0.40118
v 0 0.433172 0.331879
v 0 0.433172 0.40118
v 0.373166 0.507399 0.331879
v 0.373166 0.507399 0.40118
v 0.689521 0.718781 0.331879
v 0.689521 0.718781 0.40118
v 0.900903 1.035136 0.331879
v 0.900903 1.035136 0.40118
v 0.940457 1.321145 0.331879
v 0.940457 1.321145 0.40118
v 0.898274 1.277808 0.310822
v 0.940457 1.321145 0.331879
v 0.900903 1.035136 0.331879
v 0.860494 1.004628 0.310822
v 1.853215 0.66613 0.310822
v 1.940242 0.680741 0.331879
v 2.100103 1.325646 0.331879
v 2.005905 1.282108 0.310822
v -2.005905 1.282108 0.310822
v -2.100103 1.325646 0.331879
v -1.940242 0.680741 0.331879
v -1.853215 0.66613 0.310822
v -1.853215 0.66613 0.310822
v -1.940242 0.680741 0.331879
v -1.484997 -0.000581 0.331879
v -1.418389 0.015368 0.310822
v 2.005905 1.282108 0.310822
v 2.100103 1.325646 0.331879
v 0.940457 1.321145 0.331879
v 0.898274 1.277808 0.310822
v -0.356428 0.500563 0.310822
v -0.373166 0.507399 0.331879
v -0.689521 0.718781 0.331879
v -0.658593 0.702463 0.310822
v -0.898274 1.277808 0.310822
v -0.940457 1.321145 0.331879
v -2.100103 1.325646 0.331879
v -2.005905 1.282108 0.310822
v -1.418389 0.015368 0.310822
v -1.484997 -0.000581 0.331879
v -0.803675 -0.455826 0.331879
v -0.767627 -0.419458 0.310822
v 0 0.429665 0.310822
v 0 0.433172 0.331879
v -0.373166 0.507399 0.331879
v -0.356428 0.500563 0.310822
v -0.767627 -0.419458 0.310822
v -0.803675 -0.455826 0.331879
v 0 -0.615687 0.331879
v 0 -0.572149 0.310822
v -0.900903 1.035136 0.40118
v -2.100103 1.325646 0.40118
v -0.940457 1.321145 0.40118
v -1.940242 0.680741 0.40118
v -0.689521 0.718781 0.40118
v -1.484997 -0.000581 0.40118
v -0.373166 0.507399 0.40118
v -0.803675 -0.455826 0.40118
v 0 0.433172 0.40118
v 0 -0.615687 0.40118
v 0.373166 0.507399 0.40118
v 0.803674 -0.455826 0.40118
v 0.689521 0.718781 0.40118
v 1.484997 -0.000581 0.40118
v 0.900903 1.035136 0.40118
v 1.940242 0.680741 0.40118
v 0.940457 1.321145 0.40118
v 2.100103 1.325646 0.40118
v 2.100103 1.325646 0.331879
v 2.100103 1.325646 0.40118
v 0.940457 1.321145 0.40118
v 0.940457 1.321145 0.331879
v -0.940457 1.321145 0.331879
v -0.940457 1.321145 0.40118
v -2.100103 1.325646 0.40118
v -2.100103 1.325646 0.331879
v -0.860494 1.004628 -0.646475
v -0.898274 1.277808 -0.646475
v -2.005905 1.282108 -0.646475
v -1.853215 0.66613 -0.646475
v -0.658593 0.702463 -0.646475
v -0.860494 1.004628 -0.646475
v -1.853215 0.66613 -0.646475
v -1.418389 0.015368 -0.646475
v -0.356428 0.500563 -0.646475
v -0.658593 0.702463 -0.646475
v -1.418389 0.015368 -0.646475
v -0.767627 -0.419458 -0.646475
v 0 0.429665 -0.646475
v -0.356428 0.500563 -0.646475
v -0.767627 -0.419458 -0.646475
v 0 -0.572149 -0.646475
v 0.356428 0.500563 -0.646475
v 0 0.429665 -0.646475
v 0 -0.572149 -0.646475
v 0.767626 -0.419458 -0.646475
v 0.658593 0.702463 -0.646475
v 0.356428 0.500563 -0.646475
v 0.767626 -0.419458 -0.646475
v 1.418389 0.015367 -0.646475
v 0.860494 1.004628 -0.646475
v 0.658593 0.702463 -0.646475
v 1.418389 0.015367 -0.646475
v 1.853215 0.66613 -0.646475
v 0.898274 1.277808 -0.646475
v 0.860494 1.004628 -0.646475
v 1.853215 0.66613 -0.646475
v 2.005905 1.282108 -0.646475
v 1.853215 0.66613 -0.646475
v 2.005905 1.282108 0.310822
v 2.005905 1.282108 -0.646475
v 1.853215 0.66613 0.310822
v 1.418389 0.015367 -0.646475
v 1.418389 0.015367 0.310822
v 0.767626 -0.419458 -0.646475
v 0.767626 -0.419458 0.310822
v 0 -0.572149 -0.646475
v 0 -0.572149 0.310822
v -0.767627 -0.419458 -0.646475
v -0.767627 -0.419458 0.310822
v -1.418389 0.015368 -0.646475
v -1.418389 0.015368 0.310822
v -1.853215 0.66613 -0.646475
v -1.853215 0.66613 0.310822
v -2.005905 1.282108 -0.646475
v -2.005905 1.282108 0.310822
v 2.005905 1.282108 -0.646475
v 2.005905 1.282108 0.310822
v 0.898274 1.277808 0.310822
v 0.898274 1.277808 -0.646475
v -0.898274 1.277808 -0.646475
v -0.898274 1.277808 0.310822
v -2.005905 1.282108 0.310822
v -2.005905 1.282108 -0.646475
v 0.898274 1.277808 -0.646475
v 0.898274 1.277808 0.310822
v 0.860494 1.004628 0.310822
v 0.860494 1.004628 -0.646475
v 0.658593 0.702463 0.310822
v 0.658593 0.702463 -0.646475
v 0.356428 0.500563 0.310822
v 0.356428 0.500563 -0.646475
v 0 0.429665 0.310822
v 0 0.429665 -0.646475
v -0.356428 0.500563 0.310822
v -0.356428 0.500563 -0.646475
v -0.658593 0.702463 0.310822
v -0.658593 0.702463 -0.646475
v -0.860494 1.004628 0.310822
v -0.860494 1.004628 -0.646475
v -0.898274 1.277808 0.310822
v -0.898274 1.277808 -0.646475
vt 0.313445 0.663445
vt 0.313445 0.882918
vt 0.532918 0.882918
vt 0.532918 0.663445
vt 0.313445 0.663445
vt 0.313445 0.882918
vt 0.532918 0.882918
vt 0.532918 0.663445
vt 0.313445 0.663445
vt 0.313445 0.882918
vt 0.532918 0.882918
vt 0.532918 0.663445
vt 0.313445 0.663445
vt 0.313445 0.882918
vt 0.532918 0.882918
vt 0.532918 0.663445
vt 0.313445 0.663445
vt 0.313445 0.882918
vt 0.532918 0.882918
vt 0.532918 0.663445
vt 0.313445 0.663445
vt 0.313445 0.882918
vt 0.532918 0.882918
vt 0.532918 0.663445
vt 0.313445 0.663445
vt 0.313445 0.882918
vt 0.532918 0.882918
vt 0.532918 0.663445
vt 0.313445 0.663445
vt 0.313445 0.882918
vt 0.532918 0.882918
vt 0.532918 0.663445
vt 0.057076 0.704719
vt 0.057076 0.704719
vt 0.090792 0.568705
vt 0.090792 0.568705
vt 0.186805 0.42501
vt 0.186805 0.42501
vt 0.3305 0.328997
vt 0.3305 0.328997
vt 0.5 0.29528
vt 0.5 0.29528
vt 0.669499 0.328997
vt 0.669499 0.328997
vt 0.813195 0.42501
vt 0.813195 0.42501
vt 0.909208 0.568705
vt 0.909208 0.568705
vt 0.942924 0.704719
vt 0.942924 0.704719
vt 0.309995 0.643449
vt 0.301651 0.70377
vt 0.301651 0.70377
vt 0.309995 0.643449
vt 0.354575 0.576728
vt 0.354575 0.576728
vt 0.421296 0.532146
vt 0.421296 0.532146
vt 0.5 0.516491
vt 0.5 0.516491
vt 0.578704 0.532146
vt 0.578704 0.532146
vt 0.645424 0.576728
vt 0.645424 0.576728
vt 0.690005 0.643449
vt 0.690005 0.643449
vt 0.698349 0.70377
vt 0.698349 0.70377
vt 0.313445 0.663445
vt 0.313445 0.882918
vt 0.532918 0.882918
vt 0.532918 0.663445
vt 0.313445 0.663445
vt 0.313445 0.882918
vt 0.532918 0.882918
vt 0.532918 0.663445
vt 0.313445 0.663445
vt 0.313445 0.882918
vt 0.532918 0.882918
vt 0.532918 0.663445
vt 0.313445 0.663445
vt 0.313445 0.882918
vt 0.532918 0.882918
vt 0.532918 0.663445
vt 0.313445 0.663445
vt 0.313445 0.882918
vt 0.532918 0.882918
vt 0.532918 0.663445
vt 0.313445 0.663445
vt 0.313445 0.882918
vt 0.532918 0.882918
vt 0.532918 0.663445
vt 0.313445 0.663445
vt 0.313445 0.882918
vt 0.532918 0.882918
vt 0.532918 0.663445
vt 0.313445 0.663445
vt 0.313445 0.882918
vt 0.532918 0.882918
vt 0.532918 0.663445
vt 0.313445 0.663445
vt 0.313445 0.882918
vt 0.532918 0.882918
vt 0.532918 0.663445
vt 0.313445 0.663445
vt 0.313445 0.882918
vt 0.532918 0.882918
vt 0.532918 0.663445
vt 0.309995 0.643449
vt 0.057076 0.704719
vt 0.301651 0.70377
vt 0.090792 0.568705
vt 0.354575 0.576728
vt 0.186805 0.42501
vt 0.421296 0.532146
vt 0.3305 0.328997
vt 0.5 0.516491
vt 0.5 0.29528
vt 0.578704 0.532146
vt 0.669499 0.328997
vt 0.645424 0.576728
vt 0.813195 0.42501
vt 0.690005 0.643449
vt 0.909208 0.568705
vt 0.698349 0.70377
vt 0.942924 0.704719
vt 0.942924 0.704719
vt 0.942924 0.704719
vt 0.698349 0.70377
vt 0.698349 0.70377
vt 0.301651 0.70377
vt 0.301651 0.70377
vt 0.057076 0.704719
vt 0.057076 0.704719
vt 0.313445 0.663445
vt 0.313445 0.882918
vt 0.532918 0.882918
vt 0.532918 0.663445
vt 0.313445 0.663445
vt 0.313445 0.882918
vt 0.532918 0.882918
vt 0.532918 0.663445
vt 0.313445 0.663445
vt 0.313445 0.882918
vt 0.532918 0.882918
vt 0.532918 0.663445
vt 0.313445 0.663445
vt 0.313445 0.882918
vt 0.532918 0.882918
vt 0.532918 0.663445
vt 0.313445 0.663445
vt 0.313445 0.882918
vt 0.532918 0.882918
vt 0.532918 0.663445
vt 0.313445 0.663445
vt 0.313445 0.882918
vt 0.532918 0.882918
vt 0.532918 0.663445
vt 0.313445 0.663445
vt 0.313445 0.882918
vt 0.532918 0.882918
vt 0.532918 0.663445
vt 0.313445 0.663445
vt 0.313445 0.882918
vt 0.532918 0.882918
vt 0.532918 0.663445
vt 0.884772 0.642353
vt 0.989232 0.90031
vt 0.989232 0.642353
vt 0.884772 0.90031
vt 0.755943 0.642353
vt 0.755943 0.90031
vt 0.627114 0.642353
vt 0.627114 0.90031
vt 0.498285 0.642353
vt 0.498285 0.90031
vt 0.369456 0.642353
vt 0.369456 0.90031
vt 0.240627 0.642353
vt 0.240627 0.90031
vt 0.111798 0.642353
vt 0.111798 0.90031
vt 0.007338 0.642353
vt 0.007338 0.90031
vt 0.304613 0.629346
vt 0.304613 0.931365
vt 0.611243 0.931365
vt 0.611243 0.629346
vt 0.303571 0.628542
vt 0.303572 0.930561
vt 0.610202 0.930561
vt 0.610202 0.628542
vt 0.143684 0.631783
vt 0.143684 0.921303
vt 0.215044 0.921303
vt 0.215044 0.631783
vt 0.30908 0.921303
vt 0.30908 0.631783
vt 0.403116 0.921303
vt 0.403115 0.631783
vt 0.497151 0.921303
vt 0.497151 0.631783
vt 0.591187 0.921303
vt 0.591187 0.631783
vt 0.685222 0.921303
vt 0.685222 0.631783
vt 0.779258 0.921303
vt 0.779258 0.631783
vt 0.850618 0.921303
vt 0.850618 0.631783
vn 0.705241 0.7089308 0.007224305
vn 0.7181047 0.6796749 0.1495585
vn 0.8954712 0.3415077 0.2854889
vn 0.9217194 0.3869874 0.02596224
vn 0.2331591 -0.2624908 -0.9363415
vn 0.247726 -0.2131931 -0.9450823
vn 0.2490512 -0.09428579 -0.96389
vn 0.2543958 -0.1351732 -0.9576069
vn -0.9217194 0.3869874 0.02596224
vn -0.8954712 0.3415077 0.285489
vn -0.7181047 0.6796747 0.1495585
vn -0.7052411 0.7089308 0.007224306
vn 0.1421223 -0.3867049 -0.9111863
vn 0.171467 -0.3608302 -0.9167337
vn 0.247726 -0.2131931 -0.9450823
vn 0.2331591 -0.2624908 -0.9363415
vn 0.9217194 0.3869874 0.02596224
vn 0.8954712 0.3415077 0.2854889
vn 0.9712134 0.1343153 0.1967334
vn 0.9889436 0.136768 0.05731597
vn -0.7052411 0.7089308 0.007224306
vn -0.7181047 0.6796747 0.1495585
vn -0.4011075 0.9158496 0.01822604
vn -0.3808967 0.9246162 -0.001565507
vn 0 -0.4353949 -0.9002396
vn 0 -0.4353949 -0.9002395
vn 0.171467 -0.3608302 -0.9167337
vn 0.1421223 -0.3867049 -0.9111863
vn -0.3808967 0.9246162 -0.001565507
vn -0.4011075 0.9158496 0.01822604
vn 0 0.9992506 -0.03870721
vn 0 0.9999936 -0.003593456
vn -0.9706241 -0.240601 0
vn -0.9706241 -0.240601 0
vn -0.9071767 -0.4207498 0
vn -0.9071767 -0.4207498 0
vn -0.7071068 -0.7071068 0
vn -0.7071068 -0.7071068 0
vn -0.3826835 -0.9238795 0
vn -0.3826835 -0.9238795 0
vn 0 -1 0
vn 0 -1 0
vn 0.3826835 -0.9238795 0
vn 0.3826835 -0.9238795 0
vn 0.7071064 -0.7071071 0
vn 0.7071064 -0.7071071 0
vn 0.9071767 -0.4207498 0
vn 0.9071767 -0.4207498 0
vn 0.9706241 -0.240601 0
vn 0.9706241 -0.240601 0
vn 0.8954712 0.3415077 0.2854889
vn 0.990572 0.1369925 0
vn 0.9712134 0.1343153 0.1967334
vn 0.9231036 0.3845513 0
vn 0.7181047 0.6796749 0.1495585
vn 0.7071067 0.7071068 0
vn 0.4011075 0.9158497 0.01822603
vn 0.3826835 0.9238795 0
vn 0 0.9992506 -0.03870721
vn 0 1 0
vn -0.4011075 0.9158496 0.01822604
vn -0.3826835 0.9238795 0
vn -0.7181047 0.6796747 0.1495585
vn -0.7071067 0.7071068 0
vn -0.8954712 0.3415077 0.285489
vn -0.9231036 0.3845513 0
vn -0.9712134 0.1343153 0.1967334
vn -0.990572 0.1369925 0
vn -0.9889436 0.136768 0.05731597
vn -0.9712134 0.1343153 0.1967334
vn -0.8954712 0.3415077 0.285489
vn -0.9217194 0.3869874 0.02596224
vn 0.2543958 -0.1351732 -0.9576069
vn 0.2490512 -0.09428579 -0.96389
vn 0.1663491 0.1138093 -0.979477
vn 0.1146973 0.2203286 -0.9686587
vn -0.1146972 0.2203285 -0.9686587
vn -0.1663491 0.1138093 -0.979477
vn -0.2490508 -0.09428567 -0.9638901
vn -0.254395 -0.1351728 -0.9576072
vn -0.254395 -0.1351728 -0.9576072
vn -0.2490508 -0.09428567 -0.9638901
vn -0.2477245 -0.2131927 -0.9450827
vn -0.2331579 -0.2624884 -0.9363425
vn 0.1146973 0.2203286 -0.9686587
vn 0.1663491 0.1138093 -0.979477
vn -0.00170165 0.4383731 -0.8987915
vn -0.00170165 0.4383731 -0.8987915
vn 0.3808967 0.9246162 -0.001565509
vn 0.4011075 0.9158497 0.01822603
vn 0.7181047 0.6796749 0.1495585
vn 0.705241 0.7089308 0.007224305
vn 0.00170165 0.438373 -0.8987916
vn 0.00170165 0.4383729 -0.8987916
vn -0.1663491 0.1138093 -0.979477
vn -0.1146972 0.2203285 -0.9686587
vn -0.2331579 -0.2624884 -0.9363425
vn -0.2477245 -0.2131927 -0.9450827
vn -0.1714662 -0.3608283 -0.9167346
vn -0.1421219 -0.3867035 -0.911187
vn 0 0.9999936 -0.003593456
vn 0 0.9992506 -0.03870721
vn 0.4011075 0.9158497 0.01822603
vn 0.3808967 0.9246162 -0.001565509
vn -0.1421219 -0.3867035 -0.911187
vn -0.1714662 -0.3608283 -0.9167346
vn 0 -0.4353949 -0.9002395
vn 0 -0.4353949 -0.9002396
vn 0 0 1
vn 0 0 1
vn 0 0 1
vn 0 0 1
vn 0 0 1
vn 0 0 1
vn 0 0 1
vn 0 0 1
vn 0 0 1
vn 0 0 1
vn 0 0 1
vn 0 0 1
vn 0 0 1
vn 0 0 1
vn 0 0 1
vn 0 0 1
vn 0 0 1
vn 0 0 1
vn -0.003881315 0.9999925 0
vn -0.003881315 0.9999925 0
vn -0.003881315 0.9999925 0
vn -0.003881315 0.9999925 0
vn 0.003881315 0.9999925 0
vn 0.003881315 0.9999925 0
vn 0.003881315 0.9999925 0
vn 0.003881315 0.9999925 0
vn 0 0 -1
vn 0 0 -1
vn 0 0 -1
vn 0 0 -1
vn 0 0 -1
vn 0 0 -1
vn 0 0 -1
vn 0 0 -1
vn 0 0 -1
vn 0 0 -1
vn 0 0 -1
vn 0 0 -1
vn 0 0 -1
vn 0 0 -1
vn 0 0 -1
vn 0 0 -1
vn 0 0 -1
vn 0 0 -1
vn 0 0 -1
vn 0 0 -1
vn 0 0 -1
vn 0 0 -1
vn 0 0 -1
vn 0 0 -1
vn 0 0 -1
vn 0 0 -1
vn 0 0 -1
vn 0 0 -1
vn 0 0 -1
vn 0 0 -1
vn 0 0 -1
vn 0 0 -1
vn 0.9071767 -0.4207497 0
vn 0.9706242 -0.2406004 0
vn 0.9706242 -0.2406004 0
vn 0.9071767 -0.4207497 0
vn 0.7071064 -0.7071071 0
vn 0.7071064 -0.7071071 0
vn 0.3826835 -0.9238795 0
vn 0.3826835 -0.9238795 0
vn 0 -1 0
vn 0 -1 0
vn -0.382684 -0.9238793 0
vn -0.382684 -0.9238793 0
vn -0.7071068 -0.7071067 0
vn -0.7071068 -0.7071067 0
vn -0.9071767 -0.42075 0
vn -0.9071767 -0.42075 0
vn -0.9706242 -0.2406004 0
vn -0.9706242 -0.2406004 0
vn -0.003882129 0.9999925 0
vn -0.003882129 0.9999925 0
vn -0.003882129 0.9999925 0
vn -0.003882129 0.9999925 0
vn 0.003882129 0.9999925 0
vn 0.003882129 0.9999925 0
vn 0.003882129 0.9999925 0
vn 0.003882129 0.9999925 0
vn -0.9905719 0.1369932 0
vn -0.9889436 0.136768 0.05731597
vn -0.9217194 0.3869874 0.02596224
vn -0.9231032 0.3845524 0
vn -0.7052411 0.7089308 0.007224306
vn -0.707106 0.7071075 0
vn -0.3808967 0.9246162 -0.001565507
vn -0.3826832 0.9238796 0
vn 0 0.9999936 -0.003593456
vn 0 1 0
vn 0.3808967 0.9246162 -0.001565509
vn 0.3826832 0.9238796 0
vn 0.705241 0.7089308 0.007224305
vn 0.707106 0.7071075 0
vn 0.9217194 0.3869874 0.02596224
vn 0.9231032 0.3845524 0
vn 0.9889436 0.136768 0.05731597
vn 0.9905719 0.1369932 0
g MuseumDesk_0
f 3/3/3 2/2/2 1/1/1
f 4/4/4 3/3/3 1/1/1
f 7/7/7 6/6/6 5/5/5
f 8/8/8 7/7/7 5/5/5
f 11/11/11 10/10/10 9/9/9
f 12/12/12 11/11/11 9/9/9
f 15/15/15 14/14/14 13/13/13
f 16/16/16 15/15/15 13/13/13
f 19/19/19 18/18/18 17/17/17
f 20/20/20 19/19/19 17/17/17
f 23/23/23 22/22/22 21/21/21
f 24/24/24 23/23/23 21/21/21
f 27/27/27 26/26/26 25/25/25
f 28/28/28 27/27/27 25/25/25
f 31/31/31 30/30/30 29/29/29
f 32/32/32 31/31/31 29/29/29
f 35/35/35 34/34/34 33/33/33
f 36/36/36 35/35/35 33/33/33
f 37/37/37 35/35/35 36/36/36
f 38/38/38 37/37/37 36/36/36
f 39/39/39 37/37/37 38/38/38
f 40/40/40 39/39/39 38/38/38
f 41/41/41 39/39/39 40/40/40
f 42/42/42 41/41/41 40/40/40
f 43/43/43 41/41/41 42/42/42
f 44/44/44 43/43/43 42/42/42
f 45/45/45 43/43/43 44/44/44
f 46/46/46 45/45/45 44/44/44
f 47/47/47 45/45/45 46/46/46
f 48/48/48 47/47/47 46/46/46
f 49/49/49 47/47/47 48/48/48
f 50/50/50 49/49/49 48/48/48
f 53/53/53 52/52/52 51/51/51
f 52/52/52 54/54/54 51/51/51
f 51/51/51 54/54/54 55/55/55
f 54/54/54 56/56/56 55/55/55
f 55/55/55 56/56/56 57/57/57
f 56/56/56 58/58/58 57/57/57
f 57/57/57 58/58/58 59/59/59
f 58/58/58 60/60/60 59/59/59
f 59/59/59 60/60/60 61/61/61
f 60/60/60 62/62/62 61/61/61
f 61/61/61 62/62/62 63/63/63
f 62/62/62 64/64/64 63/63/63
f 63/63/63 64/64/64 65/65/65
f 64/64/64 66/66/66 65/65/65
f 65/65/65 66/66/66 67/67/67
f 66/66/66 68/68/68 67/67/67
f 71/71/71 70/70/70 69/69/69
f 72/72/72 71/71/71 69/69/69
f 75/75/75 74/74/74 73/73/73
f 76/76/76 75/75/75 73/73/73
f 79/79/79 78/78/78 77/77/77
f 80/80/80 79/79/79 77/77/77
f 83/83/83 82/82/82 81/81/81
f 84/84/84 83/83/83 81/81/81
f 87/87/87 86/86/86 85/85/85
f 88/88/88 87/87/87 85/85/85
f 91/91/91 90/90/90 89/89/89
f 92/92/92 91/91/91 89/89/89
f 95/95/95 94/94/94 93/93/93
f 96/96/96 95/95/95 93/93/93
f 99/99/99 98/98/98 97/97/97
f 100/100/100 99/99/99 97/97/97
f 103/103/103 102/102/102 101/101/101
f 104/104/104 103/103/103 101/101/101
f 107/107/107 106/106/106 105/105/105
f 108/108/108 107/107/107 105/105/105
f 111/111/111 110/110/110 109/109/109
f 110/110/110 112/112/112 109/109/109
f 109/109/109 112/112/112 113/113/113
f 112/112/112 114/114/114 113/113/113
f 113/113/113 114/114/114 115/115/115
f 114/114/114 116/116/116 115/115/115
f 115/115/115 116/116/116 117/117/117
f 116/116/116 118/118/118 117/117/117
f 117/117/117 118/118/118 119/119/119
f 118/118/118 120/120/120 119/119/119
f 119/119/119 120/120/120 121/121/121
f 120/120/120 122/122/122 121/121/121
f 121/121/121 122/122/122 123/123/123
f 122/122/122 124/124/124 123/123/123
f 123/123/123 124/124/124 125/125/125
f 124/124/124 126/126/126 125/125/125
f 129/129/129 128/128/128 127/127/127
f 130/130/130 129/129/129 127/127/127
f 133/133/133 132/132/132 131/131/131
f 134/134/134 133/133/133 131/131/131
g MuseumDesk_1
f 137/137/137 136/136/136 135/135/135
f 138/138/138 137/137/137 135/135/135
f 141/141/141 140/140/140 139/139/139
f 142/142/142 141/141/141 139/139/139
f 145/145/145 144/144/144 143/143/143
f 146/146/146 145/145/145 143/143/143
f 149/149/149 148/148/148 147/147/147
f 150/150/150 149/149/149 147/147/147
f 153/153/153 152/152/152 151/151/151
f 154/154/154 153/153/153 151/151/151
f 157/157/157 156/156/156 155/155/155
f 158/158/158 157/157/157 155/155/155
f 161/161/161 160/160/160 159/159/159
f 162/162/162 161/161/161 159/159/159
f 165/165/165 164/164/164 163/163/163
f 166/166/166 165/165/165 163/163/163
f 169/169/169 168/168/168 167/167/167
f 168/168/168 170/170/170 167/167/167
f 167/167/167 170/170/170 171/171/171
f 170/170/170 172/172/172 171/171/171
f 171/171/171 172/172/172 173/173/173
f 172/172/172 174/174/174 173/173/173
f 173/173/173 174/174/174 175/175/175
f 174/174/174 176/176/176 175/175/175
f 175/175/175 176/176/176 177/177/177
f 176/176/176 178/178/178 177/177/177
f 177/177/177 178/178/178 179/179/179
f 178/178/178 180/180/180 179/179/179
f 179/179/179 180/180/180 181/181/181
f 180/180/180 182/182/182 181/181/181
f 181/181/181 182/182/182 183/183/183
f 182/182/182 184/184/184 183/183/183
f 187/187/187 186/186/186 185/185/185
f 188/188/188 187/187/187 185/185/185
f 191/191/191 190/190/190 189/189/189
f 192/192/192 191/191/191 189/189/189
f 195/195/195 194/194/194 193/193/193
f 196/196/196 195/195/195 193/193/193
f 197/197/197 195/195/195 196/196/196
f 198/198/198 197/197/197 196/196/196
f 199/199/199 197/197/197 198/198/198
f 200/200/200 199/199/199 198/198/198
f 201/201/201 199/199/199 200/200/200
f 202/202/202 201/201/201 200/200/200
f 203/203/203 201/201/201 202/202/202
f 204/204/204 203/203/203 202/202/202
f 205/205/205 203/203/203 204/204/204
f 206/206/206 205/205/205 204/204/204
f 207/207/207 205/205/205 206/206/206
f 208/208/208 207/207/207 206/206/206
f 209/209/209 207/207/207 208/208/208
f 210/210/210 209/209/209 208/208/208
