g MuseumStep
v 2.295579 0.28977 0.715249
v 2.295579 -0.305286 0.715249
v 0 -0.305286 0.715249
v 0 0.28977 0.715249
v 2.295579 0.852943 1.090523
v 2.295579 0.251663 1.090523
v 0 0.251663 1.090523
v 0 0.852943 1.090523
v 2.295579 -0.267179 0.339975
v 2.295579 -0.878521 0.339975
v 0 -0.878521 0.339975
v 0 -0.267179 0.339975
v 0 -0.305286 0.715249
v 2.295579 -0.305286 0.715249
v 2.295579 -0.305286 0.650996
v 0 -0.305286 0.650996
v -2.295579 -0.305286 0.650996
v -2.295579 -0.305286 0.715249
v 0 0.251663 1.090523
v 2.295579 0.251663 1.090523
v 2.295579 0.251663 1.026271
v 0 0.251663 1.026271
v -2.295579 0.251663 1.026271
v -2.295579 0.251663 1.090523
v 0 -0.878521 0.339975
v 2.295579 -0.878521 0.339975
v 2.295579 -0.878521 0.275722
v 0 -0.878521 0.275722
v -2.295579 -0.878521 0.275722
v -2.295579 -0.878521 0.339975
v -2.295579 0.28977 0.715249
v 0 0.28977 0.715249
v 0 -0.305286 0.715249
v -2.295579 -0.305286 0.715249
v -2.295579 0.852943 1.090523
v 0 0.852943 1.090523
v 0 0.251663 1.090523
v -2.295579 0.251663 1.090523
v -2.295579 -0.267179 0.339975
v 0 -0.267179 0.339975
v 0 -0.878521 0.339975
v -2.295579 -0.878521 0.339975
v 0 0.852943 -0.035299
v 2.295579 0.457109 -0.035299
v 2.295579 0.852943 -0.035299
v 0 0.457109 -0.035299
v 2.295579 0.055407 -0.035299
v 0 0.055407 -0.035299
v 2.295579 -0.840414 -0.035299
v 0 -0.840414 -0.035299
v 0 0.28977 1.017118
v 2.295579 0.28977 1.017118
v 2.295579 0.28977 0.715249
v 0 0.28977 0.715249
v 0 -0.267179 0.641844
v 2.295579 -0.267179 0.641844
v 2.295579 -0.267179 0.339975
v 0 -0.267179 0.339975
v 0 -0.840414 0.26657
v 2.295579 -0.840414 0.26657
v 2.295579 -0.840414 -0.035299
v 0 -0.840414 -0.035299
v 0 0.251663 1.026271
v 2.295579 0.251663 1.026271
v 2.295579 0.28977 1.017118
v 0 0.28977 1.017118
v 0 -0.878521 0.275722
v 2.295579 -0.878521 0.275722
v 2.295579 -0.840414 0.26657
v 0 -0.840414 0.26657
v 0 -0.305286 0.650996
v 2.295579 -0.305286 0.650996
v 2.295579 -0.267179 0.641844
v 0 -0.267179 0.641844
v 0 0.852943 -0.035299
v -2.295579 0.852943 -0.035299
v -2.295579 0.457109 -0.035299
v 0 0.457109 -0.035299
v -2.295579 0.055407 -0.035299
v 0 0.055407 -0.035299
v -2.295579 -0.840414 -0.035299
v 0 -0.840414 -0.035299
v 0 0.28977 1.017118
v 0 0.28977 0.715249
v -2.295579 0.28977 0.715249
v -2.295579 0.28977 1.017118
v 0 -0.267179 0.641844
v 0 -0.267179 0.339975
v -2.295579 -0.267179 0.339975
v -2.295579 -0.267179 0.641844
v 0 -0.840414 0.26657
v 0 -0.840414 -0.035299
v -2.295579 -0.840414 -0.035299
v -2.295579 -0.840414 0.26657
v 0 0.251663 1.026271
v 0 0.28977 1.017118
v -2.295579 0.28977 1.017118
v -2.295579 0.251663 1.026271
v 0 -0.878521 0.275722
v 0 -0.840414 0.26657
v -2.295579 -0.840414 0.26657
v -2.295579 -0.878521 0.275722
v 0 -0.305286 0.650996
v 0 -0.267179 0.641844
v -2.295579 -0.267179 0.641844
v -2.295579 -0.305286 0.650996
vt 0.373206 0.846598
vt 0.373206 0.81535
vt 0.25266 0.81535
vt 0.25266 0.846598
vt 0.373206 0.876171
vt 0.373206 0.844597
vt 0.25266 0.844597
vt 0.25266 0.876171
vt 0.373206 0.817351
vt 0.373206 0.785248
vt 0.25266 0.785248
vt 0.25266 0.817351
vt 0.25266 0.81535
vt 0.373206 0.81535
vt 0.373206 0.81535
vt 0.25266 0.81535
vt 0.373206 0.81535
vt 0.373206 0.81535
vt 0.25266 0.844597
vt 0.373206 0.844597
vt 0.373206 0.844597
vt 0.25266 0.844597
vt 0.373206 0.844597
vt 0.373206 0.844597
vt 0.25266 0.785248
vt 0.373206 0.785248
vt 0.373206 0.785248
vt 0.25266 0.785248
vt 0.373206 0.785248
vt 0.373206 0.785248
vt 0.373206 0.846598
vt 0.25266 0.846598
vt 0.25266 0.81535
vt 0.373206 0.81535
vt 0.373206 0.876171
vt 0.25266 0.876171
vt 0.25266 0.844597
vt 0.373206 0.844597
vt 0.373206 0.817351
vt 0.25266 0.817351
vt 0.25266 0.785248
vt 0.373206 0.785248
vt 0.380022 0.565998
vt 0.492386 0.546623
vt 0.492386 0.565998
vt 0.380022 0.546623
vt 0.492386 0.52696
vt 0.380022 0.52696
vt 0.492386 0.483112
vt 0.380022 0.483112
vt 0.252496 0.923599
vt 0.774941 0.923599
vt 0.774941 0.891177
vt 0.252496 0.891177
vt 0.252496 0.793692
vt 0.774941 0.793692
vt 0.774941 0.76127
vt 0.252496 0.76127
vt 0.252496 0.858645
vt 0.774941 0.858645
vt 0.774941 0.826224
vt 0.252496 0.826224
vt 0.252496 0.939809
vt 0.774941 0.939809
vt 0.774941 0.923599
vt 0.252496 0.923599
vt 0.252496 0.874856
vt 0.774941 0.874856
vt 0.774941 0.858645
vt 0.252496 0.858645
vt 0.252496 0.809902
vt 0.774941 0.809902
vt 0.774941 0.793692
vt 0.252496 0.793692
vt 0.380022 0.565998
vt 0.492386 0.565998
vt 0.492386 0.546623
vt 0.380022 0.546623
vt 0.492386 0.52696
vt 0.380022 0.52696
vt 0.492386 0.483112
vt 0.380022 0.483112
vt 0.252496 0.923599
vt 0.252496 0.891177
vt 0.774941 0.891177
vt 0.774941 0.923599
vt 0.252496 0.793692
vt 0.252496 0.76127
vt 0.774941 0.76127
vt 0.774941 0.793692
vt 0.252496 0.858645
vt 0.252496 0.826224
vt 0.774941 0.826224
vt 0.774941 0.858645
vt 0.252496 0.939809
vt 0.252496 0.923599
vt 0.774941 0.923599
vt 0.774941 0.939809
vt 0.252496 0.874856
vt 0.252496 0.858645
vt 0.774941 0.858645
vt 0.774941 0.874856
vt 0.252496 0.809902
vt 0.252496 0.793692
vt 0.774941 0.793692
vt 0.774941 0.809902
vn 0 0 1
vn 0 0 1
vn 0 0 1
vn 0 0 1
vn 0 0 1
vn 0 0 1
vn 0 0 1
vn 0 0 1
vn 0 0 1
vn 0 0 1
vn 0 0 1
vn 0 0 1
vn 0 -1 0
vn 0 -1 0
vn 0 -1 0
vn 0 -1 0
vn 0 -1 0
vn 0 -1 0
vn 0 -1 0
vn 0 -1 0
vn 0 -1 0
vn 0 -1 0
vn 0 -1 0
vn 0 -1 0
vn 0 -1 0
vn 0 -1 0
vn 0 -1 0
vn 0 -1 0
vn 0 -1 0
vn 0 -1 0
vn 0 0 1
vn 0 0 1
vn 0 0 1
vn 0 0 1
vn 0 0 1
vn 0 0 1
vn 0 0 1
vn 0 0 1
vn 0 0 1
vn 0 0 1
vn 0 0 1
vn 0 0 1
vn 0 0 -1
vn 0 0 -1
vn 0 0 -1
vn 0 0 -1
vn 0 0 -1
vn 0 0 -1
vn 0 0 -1
vn 0 0 -1
vn 0 -1 0
vn 0 -1 0
vn 0 -1 0
vn 0 -1 0
vn 0 -1 0
vn 0 -1 0
vn 0 -1 0
vn 0 -1 0
vn 0 -1 0
vn 0 -1 0
vn 0 -1 0
vn 0 -1 0
vn 0 -0.2335497 -0.9723449
vn 0 -0.2335497 -0.9723449
vn 0 -0.2335497 -0.9723449
vn 0 -0.2335497 -0.9723449
vn 0 -0.2335251 -0.9723508
vn 0 -0.2335251 -0.9723508
vn 0 -0.2335251 -0.9723508
vn 0 -0.2335251 -0.9723508
vn 0 -0.2335269 -0.9723504
vn 0 -0.2335269 -0.9723504
vn 0 -0.2335269 -0.9723504
vn 0 -0.2335269 -0.9723504
vn 0 0 -1
vn 0 0 -1
vn 0 0 -1
vn 0 0 -1
vn 0 0 -1
vn 0 0 -1
vn 0 0 -1
vn 0 0 -1
vn 0 -1 0
vn 0 -1 0
vn 0 -1 0
vn 0 -1 0
vn 0 -1 0
vn 0 -1 0
vn 0 -1 0
vn 0 -1 0
vn 0 -1 0
vn 0 -1 0
vn 0 -1 0
vn 0 -1 0
vn 0 -0.2335497 -0.9723449
vn 0 -0.2335497 -0.9723449
vn 0 -0.2335497 -0.9723449
vn 0 -0.2335497 -0.9723449
vn 0 -0.2335251 -0.9723508
vn 0 -0.2335251 -0.9723508
vn 0 -0.2335251 -0.9723508
vn 0 -0.2335251 -0.9723508
vn 0 -0.2335269 -0.9723504
vn 0 -0.2335269 -0.9723504
vn 0 -0.2335269 -0.9723504
vn 0 -0.2335269 -0.9723504
g MuseumStep_0
f 3/3/3 2/2/2 1/1/1
f 4/4/4 3/3/3 1/1/1
f 7/7/7 6/6/6 5/5/5
f 8/8/8 7/7/7 5/5/5
f 11/11/11 10/10/10 9/9/9
f 12/12/12 11/11/11 9/9/9
f 15/15/15 14/14/14 13/13/13
f 16/16/16 15/15/15 13/13/13
f 17/17/17 16/16/16 13/13/13
f 18/18/18 17/17/17 13/13/13
f 21/21/21 20/20/20 19/19/19
f 22/22/22 21/21/21 19/19/19
f 23/23/23 22/22/22 19/19/19
f 24/24/24 23/23/23 19/19/19
f 27/27/27 26/26/26 25/25/25
f 28/28/28 27/27/27 25/25/25
f 29/29/29 28/28/28 25/25/25
f 30/30/30 29/29/29 25/25/25
f 33/33/33 32/32/32 31/31/31
f 34/34/34 33/33/33 31/31/31
f 37/37/37 36/36/36 35/35/35
f 38/38/38 37/37/37 35/35/35
f 41/41/41 40/40/40 39/39/39
f 42/42/42 41/41/41 39/39/39
g MuseumStep_1
f 45/45/45 44/44/44 43/43/43
f 44/44/44 46/46/46 43/43/43
f 44/44/44 47/47/47 46/46/46
f 47/47/47 48/48/48 46/46/46
f 47/47/47 49/49/49 48/48/48
f 49/49/49 50/50/50 48/48/48
f 53/53/53 52/52/52 51/51/51
f 54/54/54 53/53/53 51/51/51
f 57/57/57 56/56/56 55/55/55
f 58/58/58 57/57/57 55/55/55
f 61/61/61 60/60/60 59/59/59
f 62/62/62 61/61/61 59/59/59
f 65/65/65 64/64/64 63/63/63
f 66/66/66 65/65/65 63/63/63
f 69/69/69 68/68/68 67/67/67
f 70/70/70 69/69/69 67/67/67
f 73/73/73 72/72/72 71/71/71
f 74/74/74 73/73/73 71/71/71
f 77/77/77 76/76/76 75/75/75
f 78/78/78 77/77/77 75/75/75
f 79/79/79 77/77/77 78/78/78
f 80/80/80 79/79/79 78/78/78
f 81/81/81 79/79/79 80/80/80
f 82/82/82 81/81/81 80/80/80
f 85/85/85 84/84/84 83/83/83
f 86/86/86 85/85/85 83/83/83
f 89/89/89 88/88/88 87/87/87
f 90/90/90 89/89/89 87/87/87
f 93/93/93 92/92/92 91/91/91
f 94/94/94 93/93/93 91/91/91
f 97/97/97 96/96/96 95/95/95
f 98/98/98 97/97/97 95/95/95
f 101/101/101 100/100/100 99/99/99
f 102/102/102 101/101/101 99/99/99
f 105/105/105 104/104/104 103/103/103
f 106/106/106 105/105/105 103/103/103
