g Museum_BugRoomBackFishTankWater
v 2.608344 15.52601 1.489212
v 9.458887 15.52601 1.489212
v 9.458887 21.83852 1.489212
v 2.608344 21.83852 1.489212
v 0 15.52601 1.489212
v 0 21.83852 1.489212
v 2.608344 15.52601 6.040489
v 9.458887 21.83852 6.040489
v 9.458887 15.52601 6.040489
v 2.608344 21.83852 6.040489
v 0 15.52601 6.040489
v 0 21.83852 6.040489
v 0 21.83852 1.489212
v 2.608344 21.83852 6.040489
v 0 21.83852 6.040489
v 2.608344 21.83852 1.489212
v 9.458887 21.83852 6.040489
v 9.458887 21.83852 1.489212
v 2.608344 15.52601 1.489212
v 0 15.52601 1.489212
v 0 15.52601 6.040489
v 2.608344 15.52601 6.040489
v 9.458887 15.52601 1.489212
v 9.458887 15.52601 6.040489
v 9.458887 21.83852 1.489212
v 9.458887 15.52601 1.489212
v 9.458887 15.52601 6.040489
v 9.458887 21.83852 6.040489
v -2.608344 15.52601 1.489212
v -9.458887 21.83852 1.489212
v -9.458887 15.52601 1.489212
v -2.608344 21.83852 1.489212
v 0 15.52601 1.489212
v 0 21.83852 1.489212
v -2.608344 15.52601 6.040489
v -9.458887 15.52601 6.040489
v -9.458887 21.83852 6.040489
v -2.608344 21.83852 6.040489
v 0 15.52601 6.040489
v 0 21.83852 6.040489
v 0 21.83852 1.489212
v 0 21.83852 6.040489
v -2.608344 21.83852 6.040489
v -2.608344 21.83852 1.489212
v -9.458887 21.83852 6.040489
v -9.458887 21.83852 1.489212
v -2.608344 15.52601 1.489212
v 0 15.52601 6.040489
v 0 15.52601 1.489212
v -2.608344 15.52601 6.040489
v -9.458887 15.52601 1.489212
v -9.458887 15.52601 6.040489
v -9.458887 21.83852 1.489212
v -9.458887 21.83852 6.040489
v -9.458887 15.52601 6.040489
v -9.458887 15.52601 1.489212
vt -2.376359 -0.789998
vt -2.376359 3.376374
vt 0.915427 3.376373
vt 0.915426 -0.789998
vt -2.376359 -2.376344
vt 0.915426 -2.376344
vt -0.790013 -2.376344
vt 3.376359 0.915442
vt 3.376359 -2.376344
vt -0.790013 0.915442
vt -2.376359 -2.376344
vt -2.376359 0.915442
vt -2.376395 0.391656
vt -0.790029 -2.37638
vt -2.376395 -2.37638
vt -0.790029 0.391656
vt 3.376396 -2.37638
vt 3.376396 0.391656
vt -0.790029 -2.376379
vt -2.376395 -2.37638
vt -2.376395 0.391657
vt -0.79003 0.391657
vt 3.376396 -2.37638
vt 3.376396 0.391657
vt 3.376267 -2.376252
vt -2.376267 -2.376251
vt -2.376267 2.460947
vt 3.376267 2.460947
vt -2.376359 -0.789998
vt 0.915427 3.376373
vt -2.376359 3.376374
vt 0.915426 -0.789998
vt -2.376359 -2.376344
vt 0.915426 -2.376344
vt -0.790013 -2.376344
vt 3.376359 -2.376344
vt 3.376359 0.915442
vt -0.790013 0.915442
vt -2.376359 -2.376344
vt -2.376359 0.915442
vt -2.376395 0.391656
vt -2.376395 -2.37638
vt -0.790029 -2.37638
vt -0.790029 0.391656
vt 3.376396 -2.37638
vt 3.376396 0.391656
vt -0.790029 -2.376379
vt -2.376395 0.391657
vt -2.376395 -2.37638
vt -0.79003 0.391657
vt 3.376396 -2.37638
vt 3.376396 0.391657
vt 3.376267 -2.376252
vt 3.376267 2.460947
vt -2.376267 2.460947
vt -2.376267 -2.376251
vn 0 0 -1
vn 0 0 -1
vn 0 0 -1
vn 0 0 -1
vn 0 0 -1
vn 0 0 -1
vn 0 0 1
vn 0 0 1
vn 0 0 1
vn 0 0 1
vn 0 0 1
vn 0 0 1
vn 0 1 0
vn 0 1 0
vn 0 1 0
vn 0 1 0
vn 0 1 0
vn 0 1 0
vn 0 -1 0
vn 0 -1 0
vn 0 -1 0
vn 0 -1 0
vn 0 -1 0
vn 0 -1 0
vn 1 0 0
vn 1 0 0
vn 1 0 0
vn 1 0 0
vn 0 0 -1
vn 0 0 -1
vn 0 0 -1
vn 0 0 -1
vn 0 0 -1
vn 0 0 -1
vn 0 0 1
vn 0 0 1
vn 0 0 1
vn 0 0 1
vn 0 0 1
vn 0 0 1
vn 0 1 0
vn 0 1 0
vn 0 1 0
vn 0 1 0
vn 0 1 0
vn 0 1 0
vn 0 -1 0
vn 0 -1 0
vn 0 -1 0
vn 0 -1 0
vn 0 -1 0
vn 0 -1 0
vn -1 0 0
vn -1 0 0
vn -1 0 0
vn -1 0 0
g Museum_BugRoomBackFishTankWater_0
f 3/3/3 2/2/2 1/1/1
f 4/4/4 3/3/3 1/1/1
f 4/4/4 1/1/1 5/5/5
f 6/6/6 4/4/4 5/5/5
f 9/9/9 8/8/8 7/7/7
f 8/8/8 10/10/10 7/7/7
f 7/7/7 10/10/10 11/11/11
f 10/10/10 12/12/12 11/11/11
f 15/15/15 14/14/14 13/13/13
f 14/14/14 16/16/16 13/13/13
f 14/14/14 17/17/17 16/16/16
f 17/17/17 18/18/18 16/16/16
f 21/21/21 20/20/20 19/19/19
f 22/22/22 21/21/21 19/19/19
f 22/22/22 19/19/19 23/23/23
f 24/24/24 22/22/22 23/23/23
f 27/27/27 26/26/26 25/25/25
f 28/28/28 27/27/27 25/25/25
f 31/31/31 30/30/30 29/29/29
f 30/30/30 32/32/32 29/29/29
f 29/29/29 32/32/32 33/33/33
f 32/32/32 34/34/34 33/33/33
f 37/37/37 36/36/36 35/35/35
f 38/38/38 37/37/37 35/35/35
f 38/38/38 35/35/35 39/39/39
f 40/40/40 38/38/38 39/39/39
f 43/43/43 42/42/42 41/41/41
f 44/44/44 43/43/43 41/41/41
f 45/45/45 43/43/43 44/44/44
f 46/46/46 45/45/45 44/44/44
f 49/49/49 48/48/48 47/47/47
f 48/48/48 50/50/50 47/47/47
f 47/47/47 50/50/50 51/51/51
f 50/50/50 52/52/52 51/51/51
f 55/55/55 54/54/54 53/53/53
f 56/56/56 55/55/55 53/53/53
