g Museum_BugRoomSideTankBorder
v 11.49009 -7.143994 1.001469
v 11.52822 -7.143994 1.001469
v 11.52822 1.539212 1.001469
v 11.49009 1.539212 1.001469
v 11.49009 -7.143994 6.075356
v 11.52822 -7.143994 6.075356
v 11.52822 -7.143994 1.001469
v 11.49009 -7.143994 1.001469
v 11.49009 1.539212 6.075356
v 11.52822 1.539212 6.075356
v 11.52822 -7.143994 6.075356
v 11.49009 -7.143994 6.075356
v 11.49009 1.539212 1.001469
v 11.52822 1.539212 1.001469
v 11.52822 1.539212 6.075356
v 11.49009 1.539212 6.075356
v 11.49009 -6.949251 1.196213
v 11.49009 -7.143994 1.001469
v 11.49009 1.539212 1.001469
v 11.49009 1.344469 1.196213
v 11.49009 -6.949251 5.880613
v 11.49009 1.539212 6.075356
v 11.49009 -7.143994 6.075356
v 11.49009 1.344469 5.880613
vt 0.32015 0.607198
vt 0.315655 0.608593
vt 0.610542 0.608593
vt 0.605338 0.607451
vt 0.323889 0.557022
vt 0.318685 0.55588
vt 0.315655 0.608593
vt 0.32015 0.607198
vt 0.609077 0.557275
vt 0.613572 0.55588
vt 0.318685 0.55588
vt 0.323889 0.557022
vt 0.605338 0.607451
vt 0.610542 0.608593
vt 0.613572 0.55588
vt 0.609077 0.557275
vt 0.330595 0.605179
vt 0.32015 0.607198
vt 0.605338 0.607451
vt 0.596219 0.605195
vt 0.333007 0.559278
vt 0.609077 0.557275
vt 0.323889 0.557022
vt 0.598631 0.559294
vn 0 0 -1
vn 0 0 -1
vn 0 0 -1
vn 0 0 -1
vn 0 -1 0
vn 0 -1 0
vn 0 -1 0
vn 0 -1 0
vn 0 0 1
vn 0 0 1
vn 0 0 1
vn 0 0 1
vn 0 1 0
vn 0 1 0
vn 0 1 0
vn 0 1 0
vn -1 0 0
vn -1 0 0
vn -1 0 0
vn -1 0 0
vn -1 0 0
vn -1 0 0
vn -1 0 0
vn -1 0 0
g Museum_BugRoomSideTankBorder_0
f 3/3/3 2/2/2 1/1/1
f 4/4/4 3/3/3 1/1/1
f 7/7/7 6/6/6 5/5/5
f 8/8/8 7/7/7 5/5/5
f 11/11/11 10/10/10 9/9/9
f 12/12/12 11/11/11 9/9/9
f 15/15/15 14/14/14 13/13/13
f 16/16/16 15/15/15 13/13/13
f 19/19/19 18/18/18 17/17/17
f 20/20/20 19/19/19 17/17/17
f 17/17/17 18/18/18 21/21/21
f 22/22/22 19/19/19 20/20/20
f 18/18/18 23/23/23 21/21/21
f 24/24/24 22/22/22 20/20/20
f 21/21/21 23/23/23 24/24/24
f 23/23/23 22/22/22 24/24/24
