g Net
v 0.405329 -0.001703 1.713459
v 0.573221 0.461339 2.121572
v 0.573221 -0.001703 2.118787
v 0.405329 0.461339 1.716244
v 0 -0.001703 1.545566
v 0 0.461339 1.548351
v 0.387703 0.663162 2.121572
v 0.274148 0.663162 1.847424
v -0.405328 -0.001703 1.713458
v 0 0.461339 1.548351
v 0 -0.001703 1.545566
v -0.405328 0.461339 1.716243
v -0.573221 -0.001703 2.118787
v -0.573221 0.461339 2.121572
v -0.274148 0.663162 1.847424
v -0.387703 0.663162 2.121572
v -0.405328 -0.001703 2.524115
v -0.573221 0.461339 2.121572
v -0.573221 -0.001703 2.118787
v -0.405328 0.461339 2.526901
v 0 -0.001703 2.692008
v 0 0.461339 2.694793
v -0.387703 0.663162 2.121572
v -0.274148 0.663162 2.39572
v 0.405329 -0.001703 2.524115
v 0 0.461339 2.694793
v 0 -0.001703 2.692008
v 0.405329 0.461339 2.526901
v 0.573221 -0.001703 2.118787
v 0.573221 0.461339 2.121572
v 0.274148 0.663162 2.39572
v 0.387703 0.663162 2.121572
v 0 0.663162 2.509276
v -0.274148 0.663162 2.39572
v -0.405328 0.461339 2.526901
v 0 0.461339 1.548351
v 0.274148 0.663162 1.847424
v 0.405329 0.461339 1.716244
v 0 0.663162 1.733869
v -0.405328 0.461339 1.716243
v -0.274148 0.663162 1.847424
v 0.387703 0.663162 2.121572
v -0.387703 0.663162 2.121572
v 0.274148 0.663162 2.39572
v -0.274148 0.663162 2.39572
v 0 0.663162 2.509276
v 0.405329 -0.001703 1.713459
v 0.573221 -0.001703 2.118787
v 0.573221 0.461339 2.121572
v 0.405329 0.461339 1.716244
v 0 -0.001703 1.545566
v 0 0.461339 1.548351
v 0.387703 0.663162 2.121572
v 0.274148 0.663162 1.847424
v -0.405328 -0.001703 1.713458
v 0 -0.001703 1.545566
v 0 0.461339 1.548351
v -0.405328 0.461339 1.716243
v 0 0.663162 1.733869
v -0.573221 -0.001703 2.118787
v -0.573221 0.461339 2.121572
v -0.274148 0.663162 1.847424
v -0.387703 0.663162 2.121572
v -0.405328 -0.001703 2.524115
v -0.573221 -0.001703 2.118787
v -0.573221 0.461339 2.121572
v -0.405328 0.461339 2.526901
v 0 -0.001703 2.692008
v 0 0.461339 2.694793
v -0.387703 0.663162 2.121572
v -0.274148 0.663162 2.39572
v 0.405329 -0.001703 2.524115
v 0 -0.001703 2.692008
v 0 0.461339 2.694793
v 0.405329 0.461339 2.526901
v 0.573221 -0.001703 2.118787
v 0.573221 0.461339 2.121572
v 0.274148 0.663162 2.39572
v 0.387703 0.663162 2.121572
v 0 0.663162 2.509276
v -0.274148 0.663162 2.39572
v -0.405328 0.461339 2.526901
v 0 0.461339 1.548351
v 0.405329 0.461339 1.716244
v 0.274148 0.663162 1.847424
v 0 0.663162 1.733869
v -0.274148 0.663162 1.847424
v -0.405328 0.461339 1.716243
v -0.387703 0.663162 2.121572
v 0.387703 0.663162 2.121572
v -0.274148 0.663162 2.39572
v 0.274148 0.663162 2.39572
v 0 0.663162 2.509276
vt 0.662205 0.107243
vt 0.778756 0.399385
vt 0.883238 0.310703
vt 0.642592 0.233674
vt 0.392892 0.107243
vt 0.427054 0.206263
vt 0.660494 0.441131
vt 0.588015 0.345417
vt 0.168065 0.255079
vt 0.427054 0.206263
vt 0.392892 0.107243
vt 0.262246 0.346694
vt 0.095993 0.546405
vt 0.240548 0.559274
vt 0.373826 0.399332
vt 0.357759 0.516648
vt 0.26607 0.833784
vt 0.240548 0.559274
vt 0.095993 0.546405
vt 0.37797 0.725797
vt 0.637429 0.923235
vt 0.589431 0.742712
vt 0.357759 0.516648
vt 0.432466 0.610723
vt 0.900066 0.64488
vt 0.589431 0.742712
vt 0.637429 0.923235
vt 0.757098 0.614474
vt 0.883238 0.310703
vt 0.778756 0.399385
vt 0.644176 0.559192
vt 0.660494 0.441131
vt 0.550053 0.629496
vt 0.432466 0.610723
vt 0.37797 0.725797
vt 0.427054 0.206263
vt 0.588015 0.345417
vt 0.642592 0.233674
vt 0.46928 0.327324
vt 0.262246 0.346694
vt 0.373826 0.399332
vt 0.660494 0.441131
vt 0.357759 0.516648
vt 0.644176 0.559192
vt 0.432466 0.610723
vt 0.550053 0.629496
vt 0.170743 0.250223
vt 0.097843 0.541663
vt 0.244532 0.55215
vt 0.267259 0.33888
vt 0.395767 0.102258
vt 0.432292 0.197557
vt 0.366282 0.522056
vt 0.374254 0.402261
vt 0.664844 0.102258
vt 0.395767 0.102258
vt 0.432292 0.197557
vt 0.647152 0.224346
vt 0.463523 0.321909
vt 0.885123 0.306078
vt 0.782076 0.390045
vt 0.582841 0.329631
vt 0.660721 0.418827
vt 0.900906 0.63964
vt 0.885123 0.306078
vt 0.782076 0.390045
vt 0.758744 0.604685
vt 0.639763 0.918412
vt 0.591351 0.734999
vt 0.660721 0.418827
vt 0.649986 0.538477
vt 0.267385 0.830129
vt 0.639763 0.918412
vt 0.591351 0.734999
vt 0.380801 0.719969
vt 0.097843 0.541663
vt 0.244532 0.55215
vt 0.44478 0.611737
vt 0.366282 0.522056
vt 0.56205 0.618766
vt 0.649986 0.538477
vt 0.758744 0.604685
vt 0.432292 0.197557
vt 0.267259 0.33888
vt 0.374254 0.402261
vt 0.463523 0.321909
vt 0.582841 0.329631
vt 0.647152 0.224346
vt 0.660721 0.418827
vt 0.366282 0.522056
vt 0.649986 0.538477
vt 0.44478 0.611737
vt 0.56205 0.618766
vn -0.7071027 -0.004252904 0.7070981
vn -0.9292464 -0.3694606 0
vn -1 0 0
vn -0.656532 -0.3713959 0.6565295
vn 0 -0.00601458 0.999982
vn 0 -0.3721966 0.9281539
vn -0.3116178 -0.9502075 0
vn -0.2779473 -0.9195057 0.2779472
vn 0.7071018 -0.004253003 0.707099
vn 0 -0.3721966 0.9281539
vn 0 -0.00601458 0.999982
vn 0.6565313 -0.3713959 0.65653
vn 1 0 0
vn 0.9292465 -0.3694603 0
vn 0.2203469 -0.9502075 0.220347
vn 0.3116179 -0.9502074 0
vn 0.7071019 0.004253572 -0.7070987
vn 0.9292465 -0.3694603 0
vn 1 0 0
vn 0.6576206 -0.3675222 -0.6576188
vn 0 0.006015431 -0.9999819
vn 0 -0.3667187 -0.9303319
vn 0.3116179 -0.9502074 0
vn 0.2779475 -0.9195056 -0.2779474
vn -0.7071024 0.004253577 -0.7070983
vn 0 -0.3667187 -0.9303319
vn 0 0.006015431 -0.9999819
vn -0.6576207 -0.3675228 -0.6576183
vn -1 0 0
vn -0.9292464 -0.3694606 0
vn -0.2203469 -0.9502077 -0.2203468
vn -0.3116178 -0.9502075 0
vn 0 -0.8522653 -0.5231097
vn 0.2779475 -0.9195056 -0.2779474
vn 0.6576206 -0.3675222 -0.6576188
vn 0 -0.3721966 0.9281539
vn -0.2779473 -0.9195057 0.2779472
vn -0.656532 -0.3713959 0.6565295
vn 0 -0.8522655 0.5231095
vn 0.6565313 -0.3713959 0.65653
vn 0.2203469 -0.9502075 0.220347
vn -0.3116178 -0.9502075 0
vn 0.3116179 -0.9502074 0
vn -0.2203469 -0.9502077 -0.2203468
vn 0.2779475 -0.9195056 -0.2779474
vn 0 -0.8522653 -0.5231097
vn 0.7071027 0.004252904 -0.7070981
vn 1 0 0
vn 0.9292464 0.3694606 0
vn 0.6565319 0.3713959 -0.6565295
vn 0 0.006014585 -0.999982
vn 0 0.3721966 -0.9281539
vn 0.3116178 0.9502075 0
vn 0.220347 0.9502075 -0.2203469
vn -0.7071018 0.004253008 -0.707099
vn 0 0.006014585 -0.999982
vn 0 0.3721966 -0.9281539
vn -0.6565313 0.3713959 -0.65653
vn 0 0.8522655 -0.5231095
vn -1 0 0
vn -0.9292465 0.3694603 0
vn -0.2779471 0.9195057 -0.2779473
vn -0.311618 0.9502074 0
vn -0.7071019 -0.004253572 0.7070987
vn -1 0 0
vn -0.9292465 0.3694603 0
vn -0.6576206 0.3675222 0.6576188
vn 0 -0.006015431 0.9999819
vn 0 0.3667187 0.9303319
vn -0.311618 0.9502074 0
vn -0.2203472 0.9502074 0.2203471
vn 0.7071024 -0.004253577 0.7070983
vn 0 -0.006015431 0.9999819
vn 0 0.3667187 0.9303319
vn 0.6576207 0.3675228 0.6576183
vn 1 0 0
vn 0.9292464 0.3694606 0
vn 0.2779472 0.9195058 0.277947
vn 0.3116178 0.9502075 0
vn 0 0.8522653 0.5231097
vn -0.2203472 0.9502074 0.2203471
vn -0.6576206 0.3675222 0.6576188
vn 0 0.3721966 -0.9281539
vn 0.6565319 0.3713959 -0.6565295
vn 0.220347 0.9502075 -0.2203469
vn 0 0.8522655 -0.5231095
vn -0.2779471 0.9195057 -0.2779473
vn -0.6565313 0.3713959 -0.65653
vn -0.311618 0.9502074 0
vn 0.3116178 0.9502075 0
vn -0.2203472 0.9502074 0.2203471
vn 0.2779472 0.9195058 0.277947
vn 0 0.8522653 0.5231097
g Net_0
f 3/3/3 2/2/2 1/1/1
f 2/2/2 4/4/4 1/1/1
f 1/1/1 4/4/4 5/5/5
f 4/4/4 6/6/6 5/5/5
f 2/2/2 7/7/7 4/4/4
f 7/7/7 8/8/8 4/4/4
f 11/11/11 10/10/10 9/9/9
f 10/10/10 12/12/12 9/9/9
f 9/9/9 12/12/12 13/13/13
f 12/12/12 14/14/14 13/13/13
f 12/12/12 15/15/15 14/14/14
f 15/15/15 16/16/16 14/14/14
f 19/19/19 18/18/18 17/17/17
f 18/18/18 20/20/20 17/17/17
f 17/17/17 20/20/20 21/21/21
f 20/20/20 22/22/22 21/21/21
f 18/18/18 23/23/23 20/20/20
f 23/23/23 24/24/24 20/20/20
f 27/27/27 26/26/26 25/25/25
f 26/26/26 28/28/28 25/25/25
f 25/25/25 28/28/28 29/29/29
f 28/28/28 30/30/30 29/29/29
f 28/28/28 31/31/31 30/30/30
f 31/31/31 32/32/32 30/30/30
f 33/33/33 31/31/31 28/28/28
f 26/26/26 33/33/33 28/28/28
f 34/34/34 33/33/33 26/26/26
f 35/35/35 34/34/34 26/26/26
f 38/38/38 37/37/37 36/36/36
f 37/37/37 39/39/39 36/36/36
f 36/36/36 39/39/39 40/40/40
f 39/39/39 41/41/41 40/40/40
f 41/41/41 39/39/39 37/37/37
f 37/37/37 42/42/42 41/41/41
f 42/42/42 43/43/43 41/41/41
f 42/42/42 44/44/44 43/43/43
f 44/44/44 45/45/45 43/43/43
f 44/44/44 46/46/46 45/45/45
f 49/49/49 48/48/48 47/47/47
f 50/50/50 49/49/49 47/47/47
f 50/50/50 47/47/47 51/51/51
f 52/52/52 50/50/50 51/51/51
f 53/53/53 49/49/49 50/50/50
f 54/54/54 53/53/53 50/50/50
f 57/57/57 56/56/56 55/55/55
f 58/58/58 57/57/57 55/55/55
f 59/59/59 57/57/57 58/58/58
f 58/58/58 55/55/55 60/60/60
f 61/61/61 58/58/58 60/60/60
f 62/62/62 58/58/58 61/61/61
f 63/63/63 62/62/62 61/61/61
f 66/66/66 65/65/65 64/64/64
f 67/67/67 66/66/66 64/64/64
f 67/67/67 64/64/64 68/68/68
f 69/69/69 67/67/67 68/68/68
f 70/70/70 66/66/66 67/67/67
f 71/71/71 70/70/70 67/67/67
f 74/74/74 73/73/73 72/72/72
f 75/75/75 74/74/74 72/72/72
f 75/75/75 72/72/72 76/76/76
f 77/77/77 75/75/75 76/76/76
f 78/78/78 75/75/75 77/77/77
f 79/79/79 78/78/78 77/77/77
f 78/78/78 80/80/80 75/75/75
f 80/80/80 74/74/74 75/75/75
f 80/80/80 81/81/81 74/74/74
f 81/81/81 82/82/82 74/74/74
f 85/85/85 84/84/84 83/83/83
f 86/86/86 85/85/85 83/83/83
f 85/85/85 86/86/86 87/87/87
f 87/87/87 86/86/86 88/88/88
f 87/87/87 89/89/89 85/85/85
f 89/89/89 90/90/90 85/85/85
f 89/89/89 91/91/91 90/90/90
f 91/91/91 92/92/92 90/90/90
f 91/91/91 93/93/93 92/92/92
