g Office_Chair_Cushion2
v 0.368611 -0.104519 0.56612
v 0.204293 -0.098856 0.613753
v 0 -0.096905 0.630166
v 0.499014 -0.113339 0.491929
v 0.582738 -0.124453 0.398445
v 0.611587 -0.136774 0.294816
v 0.611587 -0.139078 0.275432
v 0 -0.139078 0.275432
v 0 -0.146072 0.216603
v 0.611587 -0.146072 0.216603
v 0.611587 -0.188201 -0.137757
v -0.611587 -0.136774 0.294816
v -0.611587 -0.139078 0.275432
v -0.582738 -0.124453 0.398445
v -0.499014 -0.113339 0.491929
v -0.368611 -0.104519 0.56612
v -0.204293 -0.098856 0.613753
v -0.611587 -0.146072 0.216603
v -0.611587 -0.188201 -0.137757
v 0.572454 -0.192821 -0.176617
v 0.592021 -0.192202 -0.171411
v 0.606344 -0.190511 -0.157187
v 0 -0.192821 -0.176617
v -0.572454 -0.192821 -0.176617
v -0.592021 -0.192202 -0.171411
v -0.606344 -0.190511 -0.157187
v 0.499014 -0.139749 0.495069
v 0.582738 -0.236599 0.411777
v 0.499014 -0.225485 0.505262
v 0.582738 -0.150863 0.401584
v 0.499014 -0.113339 0.491929
v 0.582738 -0.124453 0.398445
v 0.611587 -0.248919 0.308148
v 0.611587 -0.163183 0.297955
v 0.611587 -0.136774 0.294816
v 0.611587 -0.139078 0.275432
v 0.611587 -0.164945 0.283136
v 0.611587 -0.214611 -0.134617
v 0.611587 -0.255913 0.24932
v 0.611587 -0.300346 -0.124424
v 0.606344 -0.302656 -0.143854
v 0.611587 -0.188201 -0.137757
v 0.606344 -0.216921 -0.154047
v 0.606344 -0.190511 -0.157187
v 0.368611 -0.104519 0.56612
v 0.499014 -0.113339 0.491929
v 0.499014 -0.139749 0.495069
v 0.368611 -0.130929 0.569259
v 0.499014 -0.225485 0.505262
v 0.204293 -0.098856 0.613753
v 0.368611 -0.216664 0.579452
v 0.204293 -0.125266 0.616892
v 0.204293 -0.211001 0.627085
v 0 -0.096905 0.630166
v 0 -0.123314 0.633305
v 0 -0.20905 0.643498
v -0.204293 -0.211001 0.627085
v -0.204293 -0.125266 0.616892
v -0.204293 -0.098856 0.613753
v -0.368611 -0.216664 0.579452
v -0.368611 -0.130929 0.569259
v -0.368611 -0.104519 0.56612
v -0.499014 -0.225485 0.505262
v -0.499014 -0.139749 0.495069
v -0.499014 -0.113339 0.491929
v -0.582738 -0.236599 0.411777
v 0.592021 -0.304347 -0.158078
v 0.606344 -0.302656 -0.143854
v 0.606344 -0.216921 -0.154047
v 0.592021 -0.218612 -0.168271
v 0.606344 -0.190511 -0.157187
v 0.592021 -0.192202 -0.171411
v 0.572454 -0.304966 -0.163284
v 0.572454 -0.219231 -0.173477
v 0.572454 -0.192821 -0.176617
v 0 -0.192821 -0.176617
v 0 -0.219231 -0.173477
v 0 -0.304966 -0.163284
v -0.572454 -0.304966 -0.163284
v -0.572454 -0.219231 -0.173477
v -0.572454 -0.192821 -0.176617
v -0.592021 -0.192202 -0.171411
v -0.592021 -0.218612 -0.168271
v -0.606344 -0.190511 -0.157187
v -0.592021 -0.304347 -0.158078
v -0.606344 -0.216921 -0.154047
v -0.606344 -0.302656 -0.143854
v -0.606344 -0.216921 -0.154047
v -0.606344 -0.190511 -0.157187
v -0.611587 -0.188201 -0.137757
v -0.611587 -0.214611 -0.134617
v -0.606344 -0.302656 -0.143854
v -0.611587 -0.300346 -0.124424
v -0.611587 -0.255913 0.24932
v -0.611587 -0.139078 0.275432
v -0.611587 -0.248919 0.308148
v -0.611587 -0.164945 0.283136
v -0.611587 -0.163183 0.297955
v -0.611587 -0.136774 0.294816
v -0.582738 -0.124453 0.398445
v -0.582738 -0.150863 0.401584
v -0.582738 -0.236599 0.411777
v -0.499014 -0.113339 0.491929
v -0.499014 -0.139749 0.495069
v 0.204293 -0.211001 0.627085
v 0 -0.245147 0.578182
v 0 -0.20905 0.643498
v -0.204293 -0.211001 0.627085
v 0.232952 -0.246755 0.56466
v 0.368611 -0.216664 0.579452
v 0.368325 -0.25142 0.525417
v 0.499014 -0.225485 0.505262
v -0.232952 -0.246755 0.56466
v 0.475758 -0.258687 0.464296
v -0.368325 -0.25142 0.525417
v -0.368611 -0.216664 0.579452
v 0.582738 -0.236599 0.411777
v -0.499014 -0.225485 0.505262
v 0.544735 -0.267844 0.387277
v 0.611587 -0.248919 0.308148
v -0.475758 -0.258687 0.464296
v -0.582738 -0.236599 0.411777
v 0.568502 -0.277994 0.301903
v 0.611587 -0.255913 0.24932
v -0.544735 -0.267844 0.387277
v -0.611587 -0.248919 0.308148
v -0.568502 -0.277994 0.301903
v -0.611587 -0.255913 0.24932
v 0.568502 -0.283756 0.253437
v 0.611587 -0.300346 -0.124424
v 0 -0.278943 0.293918
v -0.568502 -0.283756 0.253437
v -0.611587 -0.300346 -0.124424
v 0 -0.284705 0.245452
v 0.568502 -0.320362 -0.054474
v -0.568502 -0.320362 -0.054474
v 0.606344 -0.302656 -0.143854
v -0.606344 -0.302656 -0.143854
v 0.564183 -0.322265 -0.070482
v 0.592021 -0.304347 -0.158078
v -0.564183 -0.322265 -0.070482
v -0.592021 -0.304347 -0.158078
v 0.552382 -0.323659 -0.0822
v 0.572454 -0.304966 -0.163284
v -0.552382 -0.323659 -0.0822
v -0.572454 -0.304966 -0.163284
v -0.536262 -0.324169 -0.086489
v 0 -0.304966 -0.163284
v 0 -0.324169 -0.086489
v 0.536262 -0.324169 -0.086489
vn 0.2757981 0.7811559 0.5601168
vn 0.1620568 0.5496416 0.8195313
vn 0 0.9981432 0.06091177
vn 0.4428363 0.7711325 0.4574394
vn 0.6128845 0.7507199 0.2465611
vn 0.6974874 0.7165257 0.01011833
vn 0.554703 0.8262307 -0.09822071
vn 0 0.9930075 -0.1180502
vn 0 0.9930069 -0.1180561
vn 0 0.9930069 -0.1180558
vn 0.4403456 0.882845 -0.163341
vn -0.5461949 0.8372877 -0.02491042
vn -0.7071068 0.702163 -0.0834689
vn -0.6128844 0.7507199 0.246561
vn -0.4428362 0.7711325 0.4574394
vn -0.2757981 0.7811559 0.5601168
vn -0.1620568 0.5496416 0.8195314
vn 0 0.9930069 -0.1180558
vn -0.3654934 0.9173881 -0.1575238
vn 0.07196754 0.7638653 -0.6413505
vn 0.3473818 0.6431952 -0.6823677
vn 0.7691055 0.4040605 -0.4951887
vn 0 0.7607444 -0.6490516
vn -0.09189256 0.6227617 -0.7769966
vn -0.3473819 0.6431952 -0.6823677
vn -0.7691055 0.4040604 -0.4951887
vn 0.6304213 0.09163709 0.7708252
vn 0.7631201 -0.4444896 0.4691233
vn 0.5452595 -0.4218333 0.7243954
vn 0.8783982 0.0564187 0.4745878
vn 0.4428363 0.7711325 0.4574394
vn 0.6128845 0.7507199 0.2465611
vn 0.9456391 -0.3046529 0.1138125
vn 0.9909213 0.01587011 0.1335042
vn 0.6974874 0.7165257 0.01011833
vn 0.554703 0.8262307 -0.09822071
vn 1 0 0
vn 0.996214 -0.01026361 -0.08632715
vn 0.8794173 -0.4727226 0.0562005
vn 0.8546833 -0.5169855 -0.0473544
vn 0.7162213 -0.6124665 -0.3345322
vn 0.4403456 0.882845 -0.163341
vn 0.8660346 -0.05902834 -0.4964875
vn 0.7691055 0.4040605 -0.4951887
vn 0.2757981 0.7811559 0.5601168
vn 0.4428363 0.7711325 0.4574394
vn 0.6304213 0.09163709 0.7708252
vn 0.3914042 0.1086278 0.9137849
vn 0.5452595 -0.4218333 0.7243954
vn 0.1620568 0.5496416 0.8195313
vn 0.336142 -0.4206839 0.8426349
vn 0.1813717 0.1160841 0.9765391
vn 0.153169 -0.4384497 0.8856077
vn 0 0.9981432 0.06091177
vn 0 0.1180425 0.9930085
vn 0 -0.4514495 0.8922967
vn -0.153169 -0.4384497 0.8856078
vn -0.1813717 0.116084 0.9765391
vn -0.1620568 0.5496416 0.8195314
vn -0.336142 -0.4206839 0.8426349
vn -0.3914043 0.1086278 0.9137849
vn -0.2757981 0.7811559 0.5601168
vn -0.5452595 -0.4218333 0.7243954
vn -0.6304213 0.09163713 0.7708252
vn -0.4428362 0.7711325 0.4574394
vn -0.7631201 -0.4444896 0.4691233
vn 0.4033555 -0.6700432 -0.6231745
vn 0.7162213 -0.6124665 -0.3345322
vn 0.8660346 -0.05902834 -0.4964875
vn 0.5000115 -0.1022425 -0.8599622
vn 0.7691055 0.4040605 -0.4951887
vn 0.3473818 0.6431952 -0.6823677
vn 0.1055575 -0.6684157 -0.7362595
vn 0.1305191 -0.1170505 -0.9845121
vn 0.07196754 0.7638653 -0.6413505
vn 0 0.7607444 -0.6490516
vn 0 -0.1180605 -0.9930063
vn 0 -0.6609243 -0.7504525
vn -0.1055575 -0.6684157 -0.7362596
vn -0.1305191 -0.1170505 -0.9845121
vn -0.09189256 0.6227617 -0.7769966
vn -0.3473819 0.6431952 -0.6823677
vn -0.5000116 -0.1022425 -0.8599622
vn -0.7691055 0.4040604 -0.4951887
vn -0.4033555 -0.6700432 -0.6231745
vn -0.8660346 -0.05902833 -0.4964874
vn -0.7162213 -0.6124665 -0.3345321
vn -0.8660346 -0.05902833 -0.4964874
vn -0.7691055 0.4040604 -0.4951887
vn -0.3654934 0.9173881 -0.1575238
vn -0.996214 -0.01026361 -0.08632715
vn -0.7162213 -0.6124665 -0.3345321
vn -0.8546833 -0.5169855 -0.0473544
vn -0.8794173 -0.4727226 0.0562005
vn -0.7071068 0.702163 -0.0834689
vn -0.9456391 -0.3046528 0.1138125
vn -1 0 0
vn -0.9909213 0.01587012 0.1335042
vn -0.5461949 0.8372877 -0.02491042
vn -0.6128844 0.7507199 0.246561
vn -0.8783982 0.05641874 0.4745878
vn -0.7631201 -0.4444896 0.4691233
vn -0.4428362 0.7711325 0.4574394
vn -0.6304213 0.09163713 0.7708252
vn 0.153169 -0.4384497 0.8856077
vn 0 -0.9831434 0.1828362
vn 0 -0.4514495 0.8922967
vn -0.153169 -0.4384497 0.8856078
vn 0.05228554 -0.9187174 0.391439
vn 0.336142 -0.4206839 0.8426349
vn 0.09525654 -0.9376904 0.3341601
vn 0.5452595 -0.4218333 0.7243954
vn -0.05228555 -0.9187174 0.3914391
vn 0.1623288 -0.9364588 0.3109571
vn -0.09525656 -0.9376904 0.3341601
vn -0.336142 -0.4206839 0.8426349
vn 0.7631201 -0.4444896 0.4691233
vn -0.5452595 -0.4218333 0.7243954
vn 0.2349201 -0.9421538 0.2390788
vn 0.9456391 -0.3046529 0.1138125
vn -0.1623287 -0.9364588 0.3109571
vn -0.7631201 -0.4444896 0.4691233
vn 0.2218159 -0.9642926 0.1446978
vn 0.8794173 -0.4727226 0.0562005
vn -0.2349201 -0.9421538 0.2390788
vn -0.9456391 -0.3046528 0.1138125
vn -0.2218159 -0.9642926 0.1446978
vn -0.8794173 -0.4727226 0.0562005
vn 0.2852224 -0.9517589 0.1131513
vn 0.8546833 -0.5169855 -0.0473544
vn 0 -0.9930068 0.118057
vn -0.2852224 -0.9517589 0.1131513
vn -0.8546833 -0.5169855 -0.0473544
vn 0 -0.993006 0.1180634
vn 0.2491589 -0.9646688 0.08563938
vn -0.2491588 -0.9646688 0.08563932
vn 0.7162213 -0.6124665 -0.3345322
vn -0.7162213 -0.6124665 -0.3345321
vn 0.1663276 -0.9856728 0.02800346
vn 0.4033555 -0.6700432 -0.6231745
vn -0.1663276 -0.9856728 0.02800341
vn -0.4033555 -0.6700432 -0.6231745
vn 0.06502653 -0.9978673 0.005689685
vn 0.1055575 -0.6684157 -0.7362595
vn -0.08135898 -0.9964228 -0.02285217
vn -0.1055575 -0.6684157 -0.7362596
vn -0.02160479 -0.9983399 -0.05339079
vn 0 -0.6609243 -0.7504525
vn 0 -0.9996457 -0.02661633
vn 0.02876159 -0.9934056 -0.1109872
g Office_Chair_Cushion2_0
f 3/3/3 2/2/2 1/1/1
f 3/3/3 1/1/1 4/4/4
f 3/3/3 4/4/4 5/5/5
f 3/3/3 5/5/5 6/6/6
f 3/3/3 6/6/6 7/7/7
f 7/7/7 8/8/8 3/3/3
f 8/8/8 7/7/7 9/9/9
f 7/7/7 10/10/10 9/9/9
f 9/9/9 10/10/10 11/11/11
f 12/12/12 3/3/3 8/8/8
f 8/8/8 13/13/13 12/12/12
f 13/13/13 8/8/8 9/9/9
f 12/12/12 14/14/14 3/3/3
f 14/14/14 15/15/15 3/3/3
f 15/15/15 16/16/16 3/3/3
f 16/16/16 17/17/17 3/3/3
f 18/18/18 13/13/13 9/9/9
f 19/19/19 18/18/18 9/9/9
f 9/9/9 11/11/11 20/20/20
f 20/20/20 11/11/11 21/21/21
f 21/21/21 11/11/11 22/22/22
f 20/20/20 23/23/23 9/9/9
f 19/19/19 9/9/9 23/23/23
f 23/23/23 24/24/24 19/19/19
f 19/19/19 24/24/24 25/25/25
f 19/19/19 25/25/25 26/26/26
f 29/29/29 28/28/28 27/27/27
f 28/28/28 30/30/30 27/27/27
f 27/27/27 30/30/30 31/31/31
f 30/30/30 32/32/32 31/31/31
f 28/28/28 33/33/33 30/30/30
f 30/30/30 34/34/34 32/32/32
f 33/33/33 34/34/34 30/30/30
f 34/34/34 35/35/35 32/32/32
f 35/35/35 34/34/34 36/36/36
f 37/37/37 34/34/34 33/33/33
f 34/34/34 37/37/37 36/36/36
f 38/38/38 37/37/37 33/33/33
f 36/36/36 37/37/37 38/38/38
f 38/38/38 33/33/33 39/39/39
f 39/39/39 40/40/40 38/38/38
f 38/38/38 40/40/40 41/41/41
f 42/42/42 36/36/36 38/38/38
f 43/43/43 38/38/38 41/41/41
f 42/42/42 38/38/38 43/43/43
f 44/44/44 42/42/42 43/43/43
f 47/47/47 46/46/46 45/45/45
f 48/48/48 47/47/47 45/45/45
f 49/49/49 47/47/47 48/48/48
f 48/48/48 45/45/45 50/50/50
f 51/51/51 49/49/49 48/48/48
f 52/52/52 48/48/48 50/50/50
f 51/51/51 48/48/48 52/52/52
f 53/53/53 51/51/51 52/52/52
f 52/52/52 50/50/50 54/54/54
f 53/53/53 52/52/52 55/55/55
f 55/55/55 52/52/52 54/54/54
f 56/56/56 53/53/53 55/55/55
f 57/57/57 56/56/56 55/55/55
f 58/58/58 55/55/55 54/54/54
f 58/58/58 57/57/57 55/55/55
f 59/59/59 58/58/58 54/54/54
f 60/60/60 57/57/57 58/58/58
f 61/61/61 58/58/58 59/59/59
f 61/61/61 60/60/60 58/58/58
f 62/62/62 61/61/61 59/59/59
f 63/63/63 60/60/60 61/61/61
f 64/64/64 61/61/61 62/62/62
f 64/64/64 63/63/63 61/61/61
f 65/65/65 64/64/64 62/62/62
f 66/66/66 63/63/63 64/64/64
f 69/69/69 68/68/68 67/67/67
f 70/70/70 69/69/69 67/67/67
f 71/71/71 69/69/69 70/70/70
f 72/72/72 71/71/71 70/70/70
f 70/70/70 67/67/67 73/73/73
f 72/72/72 70/70/70 74/74/74
f 74/74/74 70/70/70 73/73/73
f 75/75/75 72/72/72 74/74/74
f 75/75/75 74/74/74 76/76/76
f 74/74/74 73/73/73 77/77/77
f 74/74/74 77/77/77 76/76/76
f 73/73/73 78/78/78 77/77/77
f 78/78/78 79/79/79 77/77/77
f 77/77/77 80/80/80 76/76/76
f 79/79/79 80/80/80 77/77/77
f 80/80/80 81/81/81 76/76/76
f 82/82/82 81/81/81 80/80/80
f 83/83/83 80/80/80 79/79/79
f 83/83/83 82/82/82 80/80/80
f 84/84/84 82/82/82 83/83/83
f 85/85/85 83/83/83 79/79/79
f 86/86/86 84/84/84 83/83/83
f 86/86/86 83/83/83 85/85/85
f 87/87/87 86/86/86 85/85/85
f 90/90/90 89/89/89 88/88/88
f 91/91/91 90/90/90 88/88/88
f 91/91/91 88/88/88 92/92/92
f 93/93/93 91/91/91 92/92/92
f 91/91/91 93/93/93 94/94/94
f 95/95/95 90/90/90 91/91/91
f 94/94/94 96/96/96 91/91/91
f 97/97/97 95/95/95 91/91/91
f 96/96/96 97/97/97 91/91/91
f 97/97/97 98/98/98 95/95/95
f 96/96/96 98/98/98 97/97/97
f 98/98/98 99/99/99 95/95/95
f 99/99/99 98/98/98 100/100/100
f 98/98/98 96/96/96 101/101/101
f 98/98/98 101/101/101 100/100/100
f 96/96/96 102/102/102 101/101/101
f 100/100/100 101/101/101 103/103/103
f 101/101/101 102/102/102 104/104/104
f 101/101/101 104/104/104 103/103/103
f 107/107/107 106/106/106 105/105/105
f 106/106/106 107/107/107 108/108/108
f 106/106/106 109/109/109 105/105/105
f 105/105/105 109/109/109 110/110/110
f 109/109/109 111/111/111 110/110/110
f 111/111/111 109/109/109 106/106/106
f 110/110/110 111/111/111 112/112/112
f 113/113/113 106/106/106 108/108/108
f 114/114/114 111/111/111 106/106/106
f 111/111/111 114/114/114 112/112/112
f 106/106/106 113/113/113 115/115/115
f 113/113/113 108/108/108 116/116/116
f 115/115/115 113/113/113 116/116/116
f 112/112/112 114/114/114 117/117/117
f 115/115/115 116/116/116 118/118/118
f 114/114/114 119/119/119 117/117/117
f 119/119/119 114/114/114 106/106/106
f 117/117/117 119/119/119 120/120/120
f 121/121/121 115/115/115 118/118/118
f 106/106/106 115/115/115 121/121/121
f 121/121/121 118/118/118 122/122/122
f 119/119/119 123/123/123 120/120/120
f 123/123/123 119/119/119 106/106/106
f 120/120/120 123/123/123 124/124/124
f 125/125/125 121/121/121 122/122/122
f 106/106/106 121/121/121 125/125/125
f 125/125/125 122/122/122 126/126/126
f 127/127/127 125/125/125 126/126/126
f 106/106/106 125/125/125 127/127/127
f 127/127/127 126/126/126 128/128/128
f 123/123/123 129/129/129 124/124/124
f 124/124/124 129/129/129 130/130/130
f 106/106/106 131/131/131 123/123/123
f 127/127/127 131/131/131 106/106/106
f 123/123/123 131/131/131 129/129/129
f 132/132/132 127/127/127 128/128/128
f 131/131/131 127/127/127 132/132/132
f 132/132/132 128/128/128 133/133/133
f 131/131/131 134/134/134 129/129/129
f 134/134/134 131/131/131 132/132/132
f 135/135/135 129/129/129 134/134/134
f 129/129/129 135/135/135 130/130/130
f 134/134/134 132/132/132 136/136/136
f 136/136/136 132/132/132 133/133/133
f 130/130/130 135/135/135 137/137/137
f 136/136/136 133/133/133 138/138/138
f 135/135/135 139/139/139 137/137/137
f 139/139/139 135/135/135 134/134/134
f 137/137/137 139/139/139 140/140/140
f 141/141/141 136/136/136 138/138/138
f 134/134/134 136/136/136 141/141/141
f 141/141/141 138/138/138 142/142/142
f 139/139/139 143/143/143 140/140/140
f 143/143/143 139/139/139 134/134/134
f 140/140/140 143/143/143 144/144/144
f 145/145/145 141/141/141 142/142/142
f 134/134/134 141/141/141 145/145/145
f 145/145/145 142/142/142 146/146/146
f 147/147/147 145/145/145 146/146/146
f 134/134/134 145/145/145 147/147/147
f 147/147/147 146/146/146 148/148/148
f 147/147/147 149/149/149 134/134/134
f 143/143/143 134/134/134 149/149/149
f 149/149/149 147/147/147 148/148/148
f 144/144/144 150/150/150 148/148/148
f 143/143/143 150/150/150 144/144/144
f 150/150/150 149/149/149 148/148/148
f 149/149/149 150/150/150 143/143/143
