g OldWomanMouth
v -0.114821 -0.280131 -0.027118
v -0.14819 -0.20425 -0.028244
v -0.207902 -0.23597 -0.022936
v -0.079891 -0.23151 -0.035628
v 0 -0.23622 -0.035389
v 0 -0.293469 -0.023676
v 0.114821 -0.280131 -0.027118
v 0.079891 -0.23151 -0.035628
v 0.14819 -0.20425 -0.028244
v 0.207902 -0.23597 -0.022936
v 0.264083 -0.25038 0.002474
v -0.114821 -0.280131 -0.027118
v -0.207902 -0.23597 -0.022936
v -0.264083 -0.25038 0.002474
v -0.148487 -0.305348 0.0035
v 0 -0.323953 0.010409
v -0.168624 -0.326495 0.056631
v 0 -0.293469 -0.023676
v -0.298166 -0.270905 0.048193
v 0.114821 -0.280131 -0.027118
v -0.314727 -0.292569 0.107508
v 0.148487 -0.305348 0.0035
v 0.168624 -0.326495 0.056631
v 0.264083 -0.25038 0.002474
v 0.298166 -0.270905 0.048193
v 0.314727 -0.292569 0.107508
v 0 -0.343355 0.067057
v 0 -0.355464 0.131953
v -0.178307 -0.343661 0.120413
v -0.18061 -0.356936 0.182983
v -0.318345 -0.310394 0.173701
v -0.315992 -0.323506 0.230202
v -0.179467 -0.366276 0.233547
v 0 -0.369721 0.23651
v 0.178307 -0.343661 0.120413
v 0.18061 -0.356936 0.182983
v 0.318345 -0.310394 0.173701
v 0.315992 -0.323506 0.230202
v 0.179467 -0.366276 0.233547
v 0 -0.364071 0.190779
vt 0.354855 0.228776
vt 0.310723 0.154553
vt 0.209709 0.210575
vt 0.405361 0.160523
vt 0.5 0.163508
vt 0.5 0.237876
vt 0.645145 0.228776
vt 0.594639 0.160523
vt 0.689277 0.154553
vt 0.790291 0.210575
vt 0.873436 0.276538
vt 0.354855 0.228776
vt 0.209709 0.210575
vt 0.126564 0.276538
vt 0.313282 0.301649
vt 0.5 0.314204
vt 0.289578 0.383763
vt 0.5 0.237876
vt 0.079156 0.362384
vt 0.645145 0.228776
vt 0.053905 0.4491
vt 0.686718 0.301649
vt 0.710422 0.383763
vt 0.873436 0.276538
vt 0.920844 0.362384
vt 0.946095 0.4491
vt 0.5 0.394452
vt 0.5 0.470064
vt 0.276953 0.463076
vt 0.268615 0.527547
vt 0.037231 0.517675
vt 0.024845 0.577178
vt 0.262423 0.584596
vt 0.5 0.588305
vt 0.723048 0.463076
vt 0.731385 0.527547
vt 0.962769 0.517675
vt 0.975155 0.577178
vt 0.737577 0.584596
vt 0.5 0.532483
vn -0.1119014 -0.4004103 -0.9094777
vn -0.09652898 -0.05719436 -0.9936855
vn -0.1880185 -0.3067 -0.933051
vn -0.04785345 -0.1230039 -0.9912518
vn 0 -0.1879887 -0.9821712
vn 0 -0.4896627 -0.8719119
vn 0.1119014 -0.4004104 -0.9094777
vn 0.04785345 -0.1230039 -0.9912518
vn 0.09652898 -0.05719437 -0.9936855
vn 0.1880185 -0.3067 -0.933051
vn 0.3063832 -0.6736452 -0.6725559
vn -0.1119014 -0.4004103 -0.9094777
vn -0.1880185 -0.3067 -0.933051
vn -0.3063832 -0.6736451 -0.672556
vn -0.1932117 -0.7717438 -0.6058719
vn 0 -0.8513435 -0.5246084
vn -0.2060021 -0.9067787 -0.3678525
vn 0 -0.4896627 -0.8719119
vn -0.3318178 -0.8378168 -0.4335434
vn 0.1119014 -0.4004104 -0.9094777
vn -0.3175442 -0.9020752 -0.2922771
vn 0.1932116 -0.7717438 -0.6058718
vn 0.2060021 -0.9067787 -0.3678525
vn 0.3063832 -0.6736452 -0.6725559
vn 0.3318178 -0.8378168 -0.4335434
vn 0.3175442 -0.9020752 -0.2922771
vn 0 -0.9558016 -0.2940124
vn 0 -0.9792998 -0.2024151
vn -0.1877205 -0.9499323 -0.249779
vn -0.1697089 -0.9668787 -0.1906419
vn -0.3027651 -0.929235 -0.2117914
vn -0.2964125 -0.9366266 -0.1867358
vn -0.1620071 -0.9717216 -0.1717873
vn 0 -0.9881437 -0.1535314
vn 0.1877205 -0.9499323 -0.2497791
vn 0.1697089 -0.9668787 -0.1906419
vn 0.3027651 -0.929235 -0.2117914
vn 0.2964125 -0.9366266 -0.1867359
vn 0.1620072 -0.9717216 -0.1717873
vn 0 -0.9861492 -0.1658608
g OldWomanMouth_0
f 3/3/3 2/2/2 1/1/1
f 2/2/2 4/4/4 1/1/1
f 4/4/4 5/5/5 1/1/1
f 5/5/5 6/6/6 1/1/1
f 6/6/6 5/5/5 7/7/7
f 5/5/5 8/8/8 7/7/7
f 8/8/8 9/9/9 7/7/7
f 9/9/9 10/10/10 7/7/7
f 10/10/10 11/11/11 7/7/7
f 14/14/14 13/13/13 12/12/12
f 15/15/15 14/14/14 12/12/12
f 16/16/16 15/15/15 12/12/12
f 14/14/14 15/15/15 17/17/17
f 15/15/15 16/16/16 17/17/17
f 18/18/18 16/16/16 12/12/12
f 19/19/19 14/14/14 17/17/17
f 16/16/16 18/18/18 20/20/20
f 21/21/21 19/19/19 17/17/17
f 22/22/22 16/16/16 20/20/20
f 16/16/16 22/22/22 23/23/23
f 24/24/24 22/22/22 20/20/20
f 22/22/22 24/24/24 23/23/23
f 24/24/24 25/25/25 23/23/23
f 25/25/25 26/26/26 23/23/23
f 16/16/16 27/27/27 17/17/17
f 27/27/27 16/16/16 23/23/23
f 27/27/27 28/28/28 17/17/17
f 28/28/28 27/27/27 23/23/23
f 29/29/29 21/21/21 17/17/17
f 28/28/28 29/29/29 17/17/17
f 21/21/21 29/29/29 30/30/30
f 29/29/29 28/28/28 30/30/30
f 31/31/31 21/21/21 30/30/30
f 32/32/32 31/31/31 30/30/30
f 33/33/33 32/32/32 30/30/30
f 34/34/34 33/33/33 30/30/30
f 26/26/26 35/35/35 23/23/23
f 35/35/35 28/28/28 23/23/23
f 35/35/35 26/26/26 36/36/36
f 28/28/28 35/35/35 36/36/36
f 26/26/26 37/37/37 36/36/36
f 37/37/37 38/38/38 36/36/36
f 38/38/38 39/39/39 36/36/36
f 39/39/39 34/34/34 36/36/36
f 28/28/28 40/40/40 30/30/30
f 40/40/40 28/28/28 36/36/36
f 34/34/34 40/40/40 36/36/36
f 40/40/40 34/34/34 30/30/30
