g Opal
v 0 -0.470937 -0.36577
v 0 -0.863774 -0.287114
v 0.237327 -0.804324 -0.267353
v -0.237327 -0.804324 -0.267353
v 0.283994 -0.438298 -0.340972
v 0 0 -0.392118
v 0.407057 -0.68387 -0.227315
v 0.516055 -0.405659 -0.267353
v -0.283994 -0.438298 -0.340972
v -0.407057 -0.68387 -0.227315
v -0.516055 -0.405659 -0.267353
v 0.329258 0 -0.36577
v 0.603911 0 -0.287114
v 0.608638 0.405659 -0.267353
v -0.329258 0 -0.36577
v -0.603911 0 -0.287114
v -0.608638 0.405659 -0.267353
v 0.328882 0.438298 -0.340972
v 0.549204 0.68387 -0.227315
v 0.32991 0.804324 -0.267353
v -0.328882 0.438298 -0.340972
v -0.549204 0.68387 -0.227315
v -0.32991 0.804324 -0.267353
v 0 0.470937 -0.36577
v 0 0.863774 -0.287114
v 0 -1.100408 -0.156538
v 0.237327 -0.804324 -0.267353
v 0 -0.863774 -0.287114
v -0.237327 -0.804324 -0.267353
v 0.233494 -1.025804 -0.145688
v 0 -1.179675 0
v 0.407057 -0.68387 -0.227315
v -0.233494 -1.025804 -0.145688
v -0.407057 -0.68387 -0.227315
v 0.45293 -0.804324 -0.134839
v 0.242286 -1.100408 0
v 0.644251 -0.438298 -0.145688
v 0.516055 -0.405659 -0.267353
v 0.769355 0 -0.156538
v 0.824775 0 0
v 0.603911 0 -0.287114
v 0.608638 0.405659 -0.267353
v 0.790139 0.438298 -0.145688
v 0.549204 0.68387 -0.227315
v 0.682383 -0.470937 0
v 0.473453 -0.863774 0
v 0.45293 -0.804324 0.134838
v 0.233494 -1.025804 0.145687
v 0.644251 -0.438298 0.145687
v 0.407057 -0.68387 0.227314
v 0.671762 0.804324 -0.134839
v 0.856327 0.470937 0
v 0.379382 1.025804 -0.145688
v 0.32991 0.804324 -0.267353
v 0 1.100408 -0.156538
v 0 1.179675 0
v 0 0.863774 -0.287114
v -0.32991 0.804324 -0.267353
v -0.379382 1.025804 -0.145688
v -0.549204 0.68387 -0.227315
v 0.416229 1.100408 0
v 0.734368 0.863774 0
v 0.671762 0.804324 0.134838
v 0.790139 0.438298 0.145687
v 0.379382 1.025804 0.145687
v 0.769355 0 0.156537
v 0.549204 0.68387 0.227314
v 0.516055 -0.405659 0.267352
v 0.608638 0.405659 0.267352
v 0.603911 0 0.287113
v 0.329258 0 0.365769
v 0.283994 -0.438298 0.340971
v 0 0 0.392117
v 0.328882 0.438298 0.340971
v 0.32991 0.804324 0.267352
v 0.237327 -0.804324 0.267352
v 0 0.470937 0.365769
v 0 1.100408 0.156537
v 0 -0.470937 0.365769
v 0 -1.100408 0.156537
v 0 0.863774 0.287113
v -0.32991 0.804324 0.267352
v -0.379382 1.025804 0.145687
v -0.328882 0.438298 0.340971
v 0 -0.863774 0.287113
v -0.237327 -0.804324 0.267352
v -0.233494 -1.025804 0.145687
v -0.283994 -0.438298 0.340971
v -0.416229 1.100408 0
v -0.549204 0.68387 0.227314
v -0.329258 0 0.365769
v -0.407057 -0.68387 0.227314
v -0.242286 -1.100408 0
v -0.671762 0.804324 -0.134839
v -0.608638 0.405659 0.267352
v -0.516055 -0.405659 0.267352
v -0.45293 -0.804324 0.134838
v -0.45293 -0.804324 -0.134839
v -0.790139 0.438298 -0.145688
v -0.608638 0.405659 -0.267353
v -0.603911 0 0.287113
v -0.644251 -0.438298 0.145687
v -0.769355 0 0.156537
v -0.824774 0 0
v -0.790139 0.438298 0.145687
v -0.682383 -0.470937 0
v -0.671762 0.804324 0.134838
v -0.856327 0.470937 0
v -0.734368 0.863774 0
v -0.769355 0 -0.156538
v -0.603911 0 -0.287114
v -0.516055 -0.405659 -0.267353
v -0.644251 -0.438298 -0.145688
v -0.473453 -0.863774 0
vt 0.5 0.74995
vt 0.5 0.9999
vt 0.621539 0.9999
vt 0.37846 0.9999
vt 0.653642 0.74995
vt 0.5 0.5
vt 0.743079 0.9999
vt 0.807284 0.74995
vt 0.346358 0.74995
vt 0.256921 0.9999
vt 0.192715 0.74995
vt 0.685745 0.5
vt 0.871489 0.5
vt 0.935695 0.25005
vt 0.314255 0.5
vt 0.12851 0.5
vt 0.064305 0.25005
vt 0.717847 0.25005
vt 0.9999 0.0001
vt 0.74995 0.0001
vt 0.282152 0.25005
vt 0.0001 0.0001
vt 0.25005 0.0001
vt 0.5 0.25005
vt 0.5 0.0001
vt 0.404569 0.110925
vt 0.54192 0.069804
vt 0.405722 0.036936
vt 0.27481 0.066195
vt 0.520358 0.13742
vt 0.404733 0.185881
vt 0.667718 0.164257
vt 0.294048 0.137727
vt 0.164874 0.158122
vt 0.628304 0.216949
vt 0.501002 0.205533
vt 0.715299 0.349248
vt 0.767426 0.319754
vt 0.770084 0.508103
vt 0.710983 0.510989
vt 0.828546 0.505593
vt 0.838576 0.691072
vt 0.781401 0.667298
vt 0.785016 0.845486
vt 0.664062 0.378576
vt 0.591185 0.26932
vt 0.558654 0.321049
vt 0.486059 0.274641
vt 0.614606 0.407573
vt 0.534309 0.364517
vt 0.737991 0.800616
vt 0.723296 0.644244
vt 0.628596 0.881844
vt 0.655366 0.938135
vt 0.483575 0.910377
vt 0.481002 0.84979
vt 0.485027 0.968838
vt 0.309401 0.937414
vt 0.333287 0.885613
vt 0.16389 0.843682
vt 0.600921 0.824649
vt 0.690206 0.756183
vt 0.640902 0.712625
vt 0.663329 0.622632
vt 0.571433 0.765647
vt 0.650602 0.514628
vt 0.59776 0.675708
vt 0.56053 0.428885
vt 0.599372 0.610505
vt 0.586181 0.51943
vt 0.514956 0.525808
vt 0.495435 0.435162
vt 0.440482 0.532056
vt 0.529293 0.615911
vt 0.545701 0.698261
vt 0.482035 0.349573
vt 0.455289 0.625479
vt 0.476186 0.78495
vt 0.425984 0.4368
vt 0.407528 0.26277
vt 0.467993 0.7116
vt 0.386832 0.706783
vt 0.376424 0.773784
vt 0.379555 0.62584
vt 0.414197 0.345206
vt 0.350273 0.356244
vt 0.333765 0.27986
vt 0.35884 0.444193
vt 0.356014 0.831756
vt 0.32777 0.689549
vt 0.366317 0.536471
vt 0.305937 0.375516
vt 0.313596 0.209026
vt 0.208091 0.80695
vt 0.308337 0.627472
vt 0.296602 0.444
vt 0.275101 0.331399
vt 0.201903 0.218088
vt 0.138346 0.673785
vt 0.083895 0.687463
vt 0.296009 0.537375
vt 0.241868 0.422876
vt 0.233111 0.533093
vt 0.174752 0.524681
vt 0.247877 0.640852
vt 0.191221 0.38943
vt 0.293277 0.72735
vt 0.192954 0.658712
vt 0.251488 0.768684
vt 0.11806 0.513198
vt 0.062203 0.50018
vt 0.0916 0.313259
vt 0.141243 0.352273
vt 0.238717 0.276399
vn 0 -0.125254 -0.9921247
vn 0 -0.3315125 -0.9434509
vn 0.247929 -0.3178867 -0.9151389
vn -0.247929 -0.3178867 -0.9151389
vn 0.188708 -0.1318505 -0.9731417
vn 0 0 -1
vn 0.4670162 -0.3160453 -0.8258397
vn 0.4526424 -0.1864227 -0.871987
vn -0.188708 -0.1318505 -0.9731417
vn -0.4670162 -0.3160453 -0.8258397
vn -0.4526424 -0.1864227 -0.871987
vn 0.1741145 -0.009274673 -0.9846817
vn 0.4357634 -0.04931571 -0.8987092
vn 0.404055 0.09429839 -0.9098612
vn -0.1741144 -0.009274665 -0.9846817
vn -0.4357634 -0.04931571 -0.8987092
vn -0.404055 0.09429839 -0.9098612
vn 0.1634378 0.1147022 -0.979863
vn 0.3620976 0.2483381 -0.8984506
vn 0.1814435 0.3064568 -0.9344317
vn -0.1634377 0.1147022 -0.979863
vn -0.3620976 0.2483381 -0.8984506
vn -0.1814435 0.3064568 -0.9344317
vn 0 0.1250117 -0.9921553
vn 0 0.3296328 -0.9441093
vn 0 -0.6964484 -0.7176069
vn 0.247929 -0.3178867 -0.9151389
vn 0 -0.3315125 -0.9434509
vn -0.247929 -0.3178867 -0.9151389
vn 0.4088066 -0.6299058 -0.6603757
vn 0 -1 0
vn 0.4670162 -0.3160453 -0.8258397
vn -0.4088065 -0.6299058 -0.6603757
vn -0.4670162 -0.3160453 -0.8258397
vn 0.6896994 -0.4817902 -0.5405487
vn 0.5242221 -0.8515816 0
vn 0.7816558 -0.3057064 -0.5436521
vn 0.4526424 -0.1864227 -0.871987
vn 0.7900751 -0.1236741 -0.600405
vn 0.9857271 -0.1683508 0
vn 0.4357634 -0.04931571 -0.8987092
vn 0.404055 0.09429839 -0.9098612
vn 0.7573807 0.09381692 -0.6461987
vn 0.3620976 0.2483381 -0.8984506
vn 0.925851 -0.3778889 0
vn 0.8064684 -0.5912772 0
vn 0.6896985 -0.4817896 0.5405504
vn 0.4088058 -0.6299046 0.6603771
vn 0.7816549 -0.3057061 0.5436537
vn 0.4670161 -0.3160453 0.8258398
vn 0.5950025 0.4151418 -0.6882073
vn 0.9915843 0.1294624 0
vn 0.2811794 0.6380119 -0.7168536
vn 0.1814435 0.3064568 -0.9344317
vn 0 0.6879711 -0.7257381
vn 0 1 0
vn 0 0.3296328 -0.9441093
vn -0.1814435 0.3064568 -0.9344317
vn -0.2811794 0.6380118 -0.7168536
vn -0.3620976 0.2483381 -0.8984506
vn 0.4014583 0.9158773 0
vn 0.8099771 0.5864615 0
vn 0.5950012 0.4151408 0.688209
vn 0.7573794 0.09381681 0.6462003
vn 0.2811788 0.6380104 0.716855
vn 0.7900741 -0.1236739 0.6004063
vn 0.3620976 0.2483381 0.8984506
vn 0.4526424 -0.1864228 0.8719872
vn 0.404055 0.09429839 0.9098612
vn 0.4357634 -0.04931571 0.8987092
vn 0.1741144 -0.009274663 0.9846817
vn 0.188708 -0.1318505 0.9731417
vn 0 0 1
vn 0.1634377 0.1147022 0.979863
vn 0.1814436 0.3064567 0.9344317
vn 0.2479291 -0.3178867 0.9151389
vn 0 0.1250117 0.9921553
vn 0 0.6879697 0.7257394
vn 0 -0.125254 0.9921247
vn 0 -0.6964471 0.7176082
vn 0 0.3296328 0.9441093
vn -0.1814435 0.3064567 0.9344317
vn -0.2811788 0.6380104 0.716855
vn -0.1634377 0.1147022 0.979863
vn 0 -0.3315124 0.9434509
vn -0.247929 -0.3178867 0.9151389
vn -0.4088058 -0.6299046 0.6603771
vn -0.188708 -0.1318505 0.9731417
vn -0.4014583 0.9158773 0
vn -0.3620976 0.2483381 0.8984506
vn -0.1741144 -0.009274662 0.9846817
vn -0.4670162 -0.3160453 0.8258397
vn -0.5242221 -0.8515816 0
vn -0.5950025 0.4151418 -0.6882073
vn -0.404055 0.09429839 0.9098612
vn -0.4526424 -0.1864227 0.8719872
vn -0.6896984 -0.4817896 0.5405504
vn -0.6896994 -0.4817902 -0.5405487
vn -0.7573812 0.09381666 -0.6461982
vn -0.404055 0.09429839 -0.9098612
vn -0.4357634 -0.0493157 0.8987092
vn -0.7816554 -0.305706 0.5436531
vn -0.7900746 -0.1236739 0.6004055
vn -0.9857271 -0.168351 0
vn -0.7573799 0.09381653 0.6461998
vn -0.9258511 -0.3778885 0
vn -0.5950012 0.4151408 0.688209
vn -0.9915844 0.129462 0
vn -0.8099771 0.5864615 0
vn -0.7900757 -0.1236741 -0.600404
vn -0.4357634 -0.04931571 -0.8987092
vn -0.4526424 -0.1864227 -0.871987
vn -0.7816563 -0.3057064 -0.5436515
vn -0.8064684 -0.5912773 0
g Opal_0
f 3/3/3 2/2/2 1/1/1
f 2/2/2 4/4/4 1/1/1
f 5/5/5 3/3/3 1/1/1
f 5/5/5 1/1/1 6/6/6
f 7/7/7 3/3/3 5/5/5
f 8/8/8 7/7/7 5/5/5
f 4/4/4 9/9/9 1/1/1
f 1/1/1 9/9/9 6/6/6
f 4/4/4 10/10/10 9/9/9
f 10/10/10 11/11/11 9/9/9
f 8/8/8 5/5/5 12/12/12
f 12/12/12 5/5/5 6/6/6
f 13/13/13 8/8/8 12/12/12
f 14/14/14 13/13/13 12/12/12
f 9/9/9 11/11/11 15/15/15
f 9/9/9 15/15/15 6/6/6
f 11/11/11 16/16/16 15/15/15
f 16/16/16 17/17/17 15/15/15
f 18/18/18 14/14/14 12/12/12
f 18/18/18 12/12/12 6/6/6
f 19/19/19 14/14/14 18/18/18
f 20/20/20 19/19/19 18/18/18
f 17/17/17 21/21/21 15/15/15
f 15/15/15 21/21/21 6/6/6
f 17/17/17 22/22/22 21/21/21
f 22/22/22 23/23/23 21/21/21
f 24/24/24 18/18/18 6/6/6
f 20/20/20 18/18/18 24/24/24
f 21/21/21 24/24/24 6/6/6
f 21/21/21 23/23/23 24/24/24
f 25/25/25 20/20/20 24/24/24
f 23/23/23 25/25/25 24/24/24
f 28/28/28 27/27/27 26/26/26
f 29/29/29 28/28/28 26/26/26
f 27/27/27 30/30/30 26/26/26
f 26/26/26 30/30/30 31/31/31
f 27/27/27 32/32/32 30/30/30
f 33/33/33 29/29/29 26/26/26
f 33/33/33 26/26/26 31/31/31
f 34/34/34 29/29/29 33/33/33
f 32/32/32 35/35/35 30/30/30
f 30/30/30 36/36/36 31/31/31
f 30/30/30 35/35/35 36/36/36
f 35/35/35 32/32/32 37/37/37
f 32/32/32 38/38/38 37/37/37
f 37/37/37 38/38/38 39/39/39
f 37/37/37 39/39/39 40/40/40
f 38/38/38 41/41/41 39/39/39
f 41/41/41 42/42/42 39/39/39
f 42/42/42 43/43/43 39/39/39
f 39/39/39 43/43/43 40/40/40
f 42/42/42 44/44/44 43/43/43
f 35/35/35 37/37/37 45/45/45
f 45/45/45 37/37/37 40/40/40
f 35/35/35 46/46/46 36/36/36
f 46/46/46 35/35/35 45/45/45
f 46/46/46 47/47/47 36/36/36
f 47/47/47 46/46/46 45/45/45
f 36/36/36 48/48/48 31/31/31
f 47/47/47 48/48/48 36/36/36
f 49/49/49 47/47/47 45/45/45
f 49/49/49 45/45/45 40/40/40
f 47/47/47 50/50/50 48/48/48
f 50/50/50 47/47/47 49/49/49
f 44/44/44 51/51/51 43/43/43
f 43/43/43 52/52/52 40/40/40
f 43/43/43 51/51/51 52/52/52
f 51/51/51 44/44/44 53/53/53
f 44/44/44 54/54/54 53/53/53
f 53/53/53 54/54/54 55/55/55
f 53/53/53 55/55/55 56/56/56
f 54/54/54 57/57/57 55/55/55
f 57/57/57 58/58/58 55/55/55
f 58/58/58 59/59/59 55/55/55
f 55/55/55 59/59/59 56/56/56
f 58/58/58 60/60/60 59/59/59
f 51/51/51 53/53/53 61/61/61
f 61/61/61 53/53/53 56/56/56
f 51/51/51 62/62/62 52/52/52
f 62/62/62 51/51/51 61/61/61
f 62/62/62 63/63/63 52/52/52
f 63/63/63 62/62/62 61/61/61
f 52/52/52 64/64/64 40/40/40
f 63/63/63 64/64/64 52/52/52
f 65/65/65 63/63/63 61/61/61
f 65/65/65 61/61/61 56/56/56
f 64/64/64 66/66/66 40/40/40
f 66/66/66 49/49/49 40/40/40
f 63/63/63 67/67/67 64/64/64
f 67/67/67 63/63/63 65/65/65
f 68/68/68 49/49/49 66/66/66
f 68/68/68 50/50/50 49/49/49
f 64/64/64 69/69/69 66/66/66
f 67/67/67 69/69/69 64/64/64
f 70/70/70 68/68/68 66/66/66
f 69/69/69 70/70/70 66/66/66
f 68/68/68 70/70/70 71/71/71
f 70/70/70 69/69/69 71/71/71
f 50/50/50 68/68/68 72/72/72
f 72/72/72 68/68/68 71/71/71
f 72/72/72 71/71/71 73/73/73
f 69/69/69 74/74/74 71/71/71
f 69/69/69 67/67/67 74/74/74
f 71/71/71 74/74/74 73/73/73
f 75/75/75 67/67/67 65/65/65
f 67/67/67 75/75/75 74/74/74
f 76/76/76 50/50/50 72/72/72
f 50/50/50 76/76/76 48/48/48
f 74/74/74 77/77/77 73/73/73
f 74/74/74 75/75/75 77/77/77
f 75/75/75 65/65/65 78/78/78
f 78/78/78 65/65/65 56/56/56
f 79/79/79 72/72/72 73/73/73
f 76/76/76 72/72/72 79/79/79
f 48/48/48 76/76/76 80/80/80
f 48/48/48 80/80/80 31/31/31
f 75/75/75 81/81/81 77/77/77
f 81/81/81 75/75/75 78/78/78
f 81/81/81 82/82/82 77/77/77
f 82/82/82 81/81/81 78/78/78
f 83/83/83 78/78/78 56/56/56
f 83/83/83 82/82/82 78/78/78
f 82/82/82 84/84/84 77/77/77
f 77/77/77 84/84/84 73/73/73
f 85/85/85 76/76/76 79/79/79
f 76/76/76 85/85/85 80/80/80
f 86/86/86 85/85/85 79/79/79
f 85/85/85 86/86/86 80/80/80
f 80/80/80 87/87/87 31/31/31
f 86/86/86 87/87/87 80/80/80
f 88/88/88 79/79/79 73/73/73
f 88/88/88 86/86/86 79/79/79
f 89/89/89 83/83/83 56/56/56
f 59/59/59 89/89/89 56/56/56
f 90/90/90 82/82/82 83/83/83
f 82/82/82 90/90/90 84/84/84
f 84/84/84 91/91/91 73/73/73
f 91/91/91 88/88/88 73/73/73
f 92/92/92 86/86/86 88/88/88
f 86/86/86 92/92/92 87/87/87
f 87/87/87 93/93/93 31/31/31
f 93/93/93 33/33/33 31/31/31
f 59/59/59 94/94/94 89/89/89
f 60/60/60 94/94/94 59/59/59
f 90/90/90 95/95/95 84/84/84
f 84/84/84 95/95/95 91/91/91
f 96/96/96 88/88/88 91/91/91
f 96/96/96 92/92/92 88/88/88
f 92/92/92 97/97/97 87/87/87
f 87/87/87 97/97/97 93/93/93
f 98/98/98 33/33/33 93/93/93
f 98/98/98 34/34/34 33/33/33
f 94/94/94 60/60/60 99/99/99
f 60/60/60 100/100/100 99/99/99
f 95/95/95 101/101/101 91/91/91
f 101/101/101 96/96/96 91/91/91
f 92/92/92 96/96/96 102/102/102
f 97/97/97 92/92/92 102/102/102
f 96/96/96 101/101/101 103/103/103
f 101/101/101 95/95/95 103/103/103
f 102/102/102 96/96/96 103/103/103
f 102/102/102 103/103/103 104/104/104
f 95/95/95 105/105/105 103/103/103
f 103/103/103 105/105/105 104/104/104
f 95/95/95 90/90/90 105/105/105
f 97/97/97 102/102/102 106/106/106
f 106/106/106 102/102/102 104/104/104
f 90/90/90 107/107/107 105/105/105
f 107/107/107 90/90/90 83/83/83
f 107/107/107 83/83/83 89/89/89
f 105/105/105 107/107/107 108/108/108
f 105/105/105 108/108/108 104/104/104
f 109/109/109 107/107/107 89/89/89
f 107/107/107 109/109/109 108/108/108
f 94/94/94 109/109/109 89/89/89
f 109/109/109 94/94/94 108/108/108
f 94/94/94 99/99/99 108/108/108
f 108/108/108 99/99/99 104/104/104
f 99/99/99 110/110/110 104/104/104
f 99/99/99 100/100/100 110/110/110
f 100/100/100 111/111/111 110/110/110
f 111/111/111 112/112/112 110/110/110
f 110/110/110 113/113/113 104/104/104
f 112/112/112 113/113/113 110/110/110
f 113/113/113 106/106/106 104/104/104
f 112/112/112 34/34/34 113/113/113
f 34/34/34 98/98/98 113/113/113
f 113/113/113 98/98/98 106/106/106
f 98/98/98 114/114/114 106/106/106
f 114/114/114 97/97/97 106/106/106
f 114/114/114 98/98/98 93/93/93
f 97/97/97 114/114/114 93/93/93
