g OpenBook
v 0 0.659537 0.584287
v 0 0.642882 0.627901
v 0 -0.642882 0.627901
v 0 0.659537 0.584287
v 0 0.659537 0.624775
v 0 0.642882 0.627901
v -0.919744 0.659537 0.552749
v -0.919744 -0.659537 0.552749
v -0.032693 -0.659537 0.552749
v -0.032693 0.659537 0.552749
v -0.032693 -0.659537 0.552749
v 0 -0.659537 0.593399
v 0 0.659537 0.593399
v -0.032693 0.659537 0.552749
v -0.905378 -0.642882 0.588775
v -0.905378 -0.642882 0.658283
v -0.867307 -0.642882 0.688126
v -0.867307 -0.642882 0.588775
v -0.664604 -0.642882 0.588775
v -0.664604 -0.642882 0.720941
v -0.461901 -0.642882 0.588775
v -0.461901 -0.642882 0.735857
v -0.259199 -0.642882 0.588775
v -0.259199 -0.642882 0.720941
v -0.039174 -0.642882 0.610826
v -0.056496 -0.642882 0.588775
v 0 -0.642882 0.655467
v -0.056496 -0.642882 0.688126
v -0.905378 -0.642882 0.658283
v -0.905378 -0.614268 0.588775
v -0.905378 -0.614268 0.658283
v -0.905378 0.614268 0.658284
v -0.905378 0.614268 0.588775
v -0.905378 0.642882 0.588775
v -0.905378 0.642882 0.658284
v -0.905378 0.642882 0.658284
v -0.867307 0.642882 0.588775
v -0.867307 0.642882 0.688126
v -0.664604 0.642882 0.720941
v -0.664604 0.642882 0.588775
v -0.461901 0.642882 0.735858
v -0.461901 0.642882 0.588775
v -0.259199 0.642882 0.720941
v -0.259199 0.642882 0.588775
v -0.056496 0.642882 0.588775
v -0.039174 0.642882 0.610826
v 0 0.642882 0.655467
v -0.056496 0.642882 0.688126
v -0.905378 0.642882 0.658284
v -0.867307 0.642882 0.688126
v -0.867307 -0.642882 0.688126
v -0.905378 -0.642882 0.658283
v -0.905378 -0.642882 0.658283
v -0.905378 0.614268 0.658284
v -0.905378 0.642882 0.658284
v -0.905378 -0.614268 0.658283
v -0.664604 0.642882 0.720941
v -0.867307 -0.642882 0.688126
v -0.867307 0.642882 0.688126
v -0.664604 -0.642882 0.720941
v -0.461901 0.642882 0.735858
v -0.461901 -0.642882 0.735857
v -0.259199 0.642882 0.720941
v -0.259199 -0.642882 0.720941
v -0.056496 0.642882 0.688126
v -0.056496 -0.642882 0.688126
v 0 0.642882 0.655467
v 0 -0.642882 0.655467
v 0.919744 0.659537 0.552749
v 0.032693 0.659537 0.552749
v 0.032693 -0.659537 0.552749
v 0.919744 -0.659537 0.552749
v 0.032693 -0.659537 0.552749
v 0.032693 0.659537 0.552749
v 0 0.659537 0.593399
v 0 -0.659537 0.593399
v 0.0311 -0.659537 0.609577
v 0.032693 -0.659537 0.552749
v 0 -0.659537 0.593399
v 0.048871 -0.659537 0.586955
v 0.919744 -0.659537 0.552749
v 0.880687 -0.659537 0.586955
v 0.919744 -0.659537 0.586955
v 0.919744 -0.630182 0.586955
v 0.919744 -0.659537 0.552749
v 0.919744 0.659537 0.552749
v 0.919744 0.630182 0.586955
v 0.919744 0.659537 0.586955
v 0.880687 0.659537 0.586955
v 0.919744 0.659537 0.552749
v 0.032693 0.659537 0.552749
v 0.048871 0.659537 0.586955
v 0 0.659537 0.593399
v 0.0311 0.659537 0.609577
v 0.905378 -0.642882 0.588775
v 0.867307 -0.642882 0.688126
v 0.905378 -0.642882 0.658283
v 0.867307 -0.642882 0.588775
v 0.664604 -0.642882 0.588775
v 0.664604 -0.642882 0.720941
v 0.461901 -0.642882 0.588775
v 0.461901 -0.642882 0.735857
v 0.259199 -0.642882 0.588775
v 0.259199 -0.642882 0.720941
v 0.056496 -0.642882 0.588775
v 0.039174 -0.642882 0.610826
v 0 -0.642882 0.655467
v 0.056496 -0.642882 0.688126
v 0.905378 -0.642882 0.658283
v 0.905378 -0.614268 0.588775
v 0.905378 -0.614268 0.658283
v 0.867307 0.642882 0.688126
v 0.867307 -0.642882 0.688126
v 0.905378 0.614268 0.658284
v 0.905378 0.614268 0.588775
v 0.905378 0.642882 0.658284
v 0.905378 0.642882 0.588775
v 0.905378 0.642882 0.658284
v 0.867307 0.642882 0.588775
v 0.867307 0.642882 0.688126
v 0.664604 0.642882 0.720941
v 0.664604 0.642882 0.588775
v 0.461901 0.642882 0.735858
v 0.461901 0.642882 0.588775
v 0.259199 0.642882 0.720941
v 0.259199 0.642882 0.588775
v 0.039174 0.642882 0.610826
v 0.056496 0.642882 0.588775
v 0 0.642882 0.655467
v 0.056496 0.642882 0.688126
v 0.664604 0.642882 0.720941
v 0.867307 0.642882 0.688126
v 0.867307 -0.642882 0.688126
v 0.664604 -0.642882 0.720941
v 0.461901 0.642882 0.735858
v 0.461901 -0.642882 0.735857
v 0.259199 0.642882 0.720941
v 0.259199 -0.642882 0.720941
v 0.056496 0.642882 0.688126
v 0.056496 -0.642882 0.688126
v 0 0.642882 0.655467
v 0 -0.642882 0.655467
v 0 -0.642882 0.627901
v 0 -0.659537 0.624774
v 0 -0.659537 0.584286
v 0 0.659537 0.584287
v 0 0.659537 0.593399
v 0.0311 0.659537 0.609577
v 0 0.659537 0.624775
v 0 0.659537 0.584287
v -0.0311 0.659537 0.609577
v -0.048871 0.659537 0.586955
v -0.032693 0.659537 0.552749
v -0.880687 0.659537 0.586955
v -0.919744 0.659537 0.552749
v -0.919744 0.659537 0.586955
v -0.919744 0.630182 0.586955
v -0.919744 0.659537 0.552749
v -0.919744 -0.630182 0.586955
v -0.919744 -0.659537 0.552749
v -0.919744 -0.659537 0.586955
v -0.880687 -0.659537 0.586955
v -0.919744 -0.659537 0.552749
v -0.048871 -0.659537 0.586955
v -0.032693 -0.659537 0.552749
v -0.0311 -0.659537 0.609577
v 0 -0.659537 0.593399
v 0 -0.659537 0.584286
v 0 -0.659537 0.624774
v 0.0311 -0.659537 0.609577
v 0 -0.659537 0.593399
v 0 0.659537 0.593399
v 0 0.659537 0.584287
v 0 -0.659537 0.584286
v -0.664604 0.642882 0.588775
v -0.867307 0.642882 0.588775
v -0.880687 0.659537 0.586955
v -0.461901 0.642882 0.588775
v -0.259199 0.642882 0.588775
v -0.905378 0.642882 0.588775
v -0.056496 0.642882 0.588775
v -0.919744 0.659537 0.586955
v -0.048871 0.659537 0.586955
v -0.905378 0.614268 0.588775
v -0.919744 0.630182 0.586955
v -0.905378 -0.614268 0.588775
v -0.919744 -0.630182 0.586955
v -0.905378 -0.642882 0.588775
v -0.919744 -0.659537 0.586955
v -0.867307 -0.642882 0.588775
v -0.0311 0.659537 0.609577
v -0.039174 0.642882 0.610826
v -0.880687 -0.659537 0.586955
v 0 0.642882 0.627901
v 0 0.659537 0.624775
v -0.664604 -0.642882 0.588775
v 0.0311 0.659537 0.609577
v 0.039174 0.642882 0.610826
v 0.056496 0.642882 0.588775
v -0.461901 -0.642882 0.588775
v -0.259199 -0.642882 0.588775
v -0.056496 -0.642882 0.588775
v -0.048871 -0.659537 0.586955
v 0.048871 0.659537 0.586955
v -0.039174 -0.642882 0.610826
v -0.0311 -0.659537 0.609577
v 0.259199 0.642882 0.588775
v 0 -0.659537 0.624774
v 0 -0.642882 0.627901
v 0.461901 0.642882 0.588775
v 0.664604 0.642882 0.588775
v 0.867307 0.642882 0.588775
v 0.880687 0.659537 0.586955
v 0.905378 0.642882 0.588775
v 0.919744 0.659537 0.586955
v 0.905378 0.614268 0.588775
v 0.919744 0.630182 0.586955
v 0.905378 -0.614268 0.588775
v 0.919744 -0.630182 0.586955
v 0.905378 -0.642882 0.588775
v 0.919744 -0.659537 0.586955
v 0.039174 -0.642882 0.610826
v 0.0311 -0.659537 0.609577
v 0.867307 -0.642882 0.588775
v 0.880687 -0.659537 0.586955
v 0.048871 -0.659537 0.586955
v 0.056496 -0.642882 0.588775
v 0.664604 -0.642882 0.588775
v 0.259199 -0.642882 0.588775
v 0.461901 -0.642882 0.588775
v -0.039174 0.642882 0.610826
v 0 -0.642882 0.627901
v -0.039174 -0.642882 0.610826
v 0 0.642882 0.627901
v 0.039174 0.642882 0.610826
v 0.039174 -0.642882 0.610826
v 0 0.642882 0.655467
v 0 0.642882 0.627901
vt 0.005755 0.990564
vt 0.003884 0.987543
vt 0.014683 0.987606
vt 0.005755 0.990564
vt 0.00642 0.988957
vt 0.003884 0.987543
vt 0.151009 0.847697
vt 0.151009 0.993888
vt 0.251633 0.993888
vt 0.251633 0.847697
vt 0.112599 0.991427
vt 0.123113 0.991427
vt 0.123112 0.845236
vt 0.112599 0.845236
vt 0.311934 0.951714
vt 0.274108 0.951714
vt 0.274108 0.953582
vt 0.311934 0.953582
vt 0.311934 0.963527
vt 0.274108 0.963527
vt 0.311934 0.973472
vt 0.274108 0.973472
vt 0.311934 0.983417
vt 0.274108 0.983417
vt 0.30598 0.994212
vt 0.311934 0.993362
vt 0.279424 0.994212
vt 0.274108 0.993362
vt 0.274108 0.951714
vt 0.311934 0.95031
vt 0.274108 0.95031
vt 0.274108 0.890036
vt 0.311934 0.890036
vt 0.311934 0.888632
vt 0.274108 0.888632
vt 0.274108 0.888632
vt 0.311934 0.886764
vt 0.274108 0.886764
vt 0.274108 0.876819
vt 0.311934 0.876819
vt 0.274108 0.866874
vt 0.311934 0.866874
vt 0.274108 0.856929
vt 0.311935 0.856929
vt 0.311935 0.846984
vt 0.30598 0.846134
vt 0.279425 0.846134
vt 0.274108 0.846984
vt 0.274108 0.888632
vt 0.274108 0.886764
vt 0.274108 0.953582
vt 0.274108 0.951714
vt 0.274108 0.951714
vt 0.274108 0.890036
vt 0.274108 0.888632
vt 0.274108 0.95031
vt 0.718086 0.993979
vt 0.678876 0.809388
vt 0.678876 0.993979
vt 0.718086 0.809388
vt 0.756897 0.993979
vt 0.756897 0.809388
vt 0.795708 0.993979
vt 0.795708 0.809388
vt 0.834918 0.993979
vt 0.834918 0.809388
vt 0.847379 0.993979
vt 0.847379 0.809388
vt 0.151009 0.847697
vt 0.251633 0.847697
vt 0.251633 0.993888
vt 0.151009 0.993888
vt 0.112599 0.991427
vt 0.112599 0.845236
vt 0.123112 0.845236
vt 0.123113 0.991427
vt 0.00642 0.861494
vt 0.004081 0.861559
vt 0.005754 0.859886
vt 0.005489 0.862225
vt 0.004081 0.898075
vt 0.005489 0.896467
vt 0.005489 0.898075
vt 0.005489 0.899283
vt 0.004081 0.898075
vt 0.004081 0.952375
vt 0.005489 0.951167
vt 0.005489 0.952375
vt 0.005489 0.953983
vt 0.004081 0.952375
vt 0.004081 0.988891
vt 0.005489 0.988225
vt 0.005755 0.990564
vt 0.00642 0.988957
vt 0.311934 0.951714
vt 0.274108 0.953582
vt 0.274108 0.951714
vt 0.311934 0.953582
vt 0.311934 0.963527
vt 0.274108 0.963527
vt 0.311934 0.973472
vt 0.274108 0.973472
vt 0.311934 0.983417
vt 0.274108 0.983417
vt 0.311934 0.993362
vt 0.30598 0.994212
vt 0.279424 0.994212
vt 0.274108 0.993362
vt 0.274108 0.951714
vt 0.311934 0.95031
vt 0.274108 0.95031
vt 0.274108 0.886764
vt 0.274108 0.953582
vt 0.274108 0.890036
vt 0.311934 0.890036
vt 0.274108 0.888632
vt 0.311934 0.888632
vt 0.274108 0.888632
vt 0.311934 0.886764
vt 0.274108 0.886764
vt 0.274108 0.876819
vt 0.311934 0.876819
vt 0.274108 0.866874
vt 0.311934 0.866874
vt 0.274108 0.856929
vt 0.311935 0.856929
vt 0.30598 0.846134
vt 0.311935 0.846984
vt 0.279425 0.846134
vt 0.274108 0.846984
vt 0.718086 0.993979
vt 0.678876 0.993979
vt 0.678876 0.809388
vt 0.718086 0.809388
vt 0.756897 0.993979
vt 0.756897 0.809388
vt 0.795708 0.993979
vt 0.795708 0.809388
vt 0.834918 0.993979
vt 0.834918 0.809388
vt 0.847379 0.993979
vt 0.847379 0.809388
vt 0.014683 0.987606
vt 0.014826 0.987615
vt 0.005754 0.859886
vt 0.005755 0.990564
vt 0.005755 0.990564
vt 0.00642 0.988957
vt 0.00642 0.988957
vt 0.005755 0.990564
vt 0.00642 0.988957
vt 0.005489 0.988225
vt 0.004081 0.988891
vt 0.005489 0.953983
vt 0.004081 0.952375
vt 0.005489 0.952375
vt 0.005489 0.951167
vt 0.004081 0.952375
vt 0.005489 0.899283
vt 0.004081 0.898075
vt 0.005489 0.898075
vt 0.005489 0.896467
vt 0.004081 0.898075
vt 0.005489 0.862225
vt 0.004081 0.861559
vt 0.00642 0.861494
vt 0.005754 0.859886
vt 0.005754 0.859886
vt 0.00642 0.861494
vt 0.00642 0.861494
vt 0.123113 0.991427
vt 0.123112 0.845236
vt 0.123112 0.845236
vt 0.123113 0.991427
vt 0.004244 0.982466
vt 0.004363 0.980849
vt 0.004232 0.980731
vt 0.004126 0.984082
vt 0.004007 0.985699
vt 0.004377 0.980527
vt 0.003888 0.987316
vt 0.004236 0.980402
vt 0.003754 0.987348
vt 0.004631 0.980542
vt 0.004489 0.980402
vt 0.013784 0.980446
vt 0.013922 0.980302
vt 0.014037 0.980425
vt 0.014176 0.980295
vt 0.014058 0.980749
vt 0.003743 0.987551
vt 0.003884 0.987543
vt 0.014189 0.980626
vt 0.003884 0.987543
vt 0.003743 0.987551
vt 0.014213 0.982406
vt 0.003743 0.987551
vt 0.003884 0.987543
vt 0.003888 0.987316
vt 0.014368 0.984062
vt 0.014523 0.985719
vt 0.014678 0.987376
vt 0.014815 0.987408
vt 0.003754 0.987348
vt 0.014683 0.987606
vt 0.014826 0.987615
vt 0.004007 0.985699
vt 0.014826 0.987615
vt 0.014683 0.987606
vt 0.004126 0.984082
vt 0.004244 0.982466
vt 0.004363 0.980849
vt 0.004232 0.980731
vt 0.004377 0.980527
vt 0.004236 0.980402
vt 0.004631 0.980542
vt 0.004489 0.980402
vt 0.013784 0.980446
vt 0.013922 0.980302
vt 0.014037 0.980425
vt 0.014176 0.980295
vt 0.014683 0.987606
vt 0.014826 0.987615
vt 0.014058 0.980749
vt 0.014189 0.980626
vt 0.014815 0.987408
vt 0.014678 0.987376
vt 0.014213 0.982406
vt 0.014523 0.985719
vt 0.014368 0.984062
vt 0 0
vt 0 0
vt 0 0
vt 0 0
vt 0 0
vt 0 0
vt 0.279425 0.846134
vt 0 0
vn -1 0 0
vn -1 0 0
vn -1 0 0
vn -1 0 0
vn -1 0 0
vn -1 0 0
vn 0 0 -1
vn 0 0 -1
vn 0.04415399 0 -0.9990247
vn 0.04415399 0 -0.9990247
vn 0.04415399 0 -0.9990247
vn 0.7792485 0 -0.6267151
vn 0.7792485 0 -0.6267151
vn 0.04415399 0 -0.9990247
vn -0.4912132 -0.7867906 0.3737249
vn 0 -1 0
vn 0 -1 0
vn 0 -0.9947384 0.1024477
vn 0 -0.99791 0.06461918
vn 0 -1 0
vn 0 -0.9982489 0.05915233
vn 0 -1 0
vn 0 -0.9968492 0.07931916
vn 0 -1 0
vn -0.3902423 -0.2579067 0.8838524
vn -0.03299789 -0.4321776 0.9011846
vn 0 -1 0
vn 0 -1 0
vn -1 0 0
vn -0.9569908 0 0.2901184
vn -1 0 0
vn -1 0 0
vn -0.9569908 0 0.2901182
vn -0.4912167 0.7867896 0.3737223
vn -1 0 0
vn 0 1 0
vn 0 0.9947384 0.1024477
vn 0 1 0
vn 0 1 0
vn 0 0.99791 0.06461905
vn 0 1 0
vn 0 0.9982489 0.05915213
vn 0 1 0
vn 0 0.996795 0.07999758
vn -0.02499494 0.730345 0.6826209
vn -0.3954058 0.2040824 0.895547
vn 0 1 0
vn 0 1 0
vn -0.6169154 0 0.7870296
vn -0.2104589 0 0.9776028
vn -0.2104609 0 0.9776023
vn -0.616928 0 0.7870196
vn 0 1 0
vn 0 1 0
vn 0 1 0
vn 0 1 0
vn -0.1169298 0 0.9931402
vn -0.2104609 0 0.9776023
vn -0.2104589 0 0.9776028
vn -0.1169298 0 0.9931402
vn 0 0 1
vn 0 0 1
vn 0.1169301 0 0.9931402
vn 0.1169301 0 0.9931402
vn 0.2449087 0 0.9695461
vn 0.2449087 0 0.9695461
vn 0 0 1
vn 0 0 1
vn 0 0 -1
vn -0.04415399 0 -0.9990247
vn -0.04415399 0 -0.9990247
vn 0 0 -1
vn -0.04415399 0 -0.9990247
vn -0.04415399 0 -0.9990247
vn -0.7792485 0 -0.6267151
vn -0.7792485 0 -0.6267151
vn 0.2628911 -0.88128 0.3927263
vn 0 -1 0
vn 0 -1 0
vn 0.01039729 -0.9991167 0.04071459
vn 0 -1 0
vn 0 -0.9944767 0.104957
vn 0.5086219 -0.6830449 0.5241691
vn 0.9905978 0 0.1368065
vn 1 0 0
vn 1 0 0
vn 0.9905978 0 0.1368065
vn 0.5086219 0.6830449 0.5241691
vn 0 0.9944767 0.104957
vn 0 1 0
vn 0 1 0
vn 0.01039729 0.9991167 0.04071458
vn 0 1 0
vn 0.2628949 0.8812792 0.3927254
vn 0.4912132 -0.7867906 0.3737249
vn 0 -1 0
vn 0 -1 0
vn 0 -0.9388071 0.3444432
vn 0 -0.99791 0.06461917
vn 0 -1 0
vn 0 -0.9982489 0.0591526
vn 0 -1 0
vn 0 -0.9967951 0.07999743
vn 0 -1 0
vn 0.03569004 -0.9648094 0.2605168
vn 0.395618 -0.2015455 0.8960278
vn 0 -1 0
vn 0 -1 0
vn 0.6551125 0 0.7555313
vn 0.9569908 0 0.2901184
vn 0.9998273 0 0.01858827
vn 0.1933613 0 0.9811276
vn 0.210461 0 0.9776023
vn 0.9623522 0 0.2718057
vn 0.9569908 0 0.2901182
vn 0.9755138 0 0.2199381
vn 0.4912167 0.7867896 0.3737223
vn 0 1 0
vn 0 0.9388072 0.344443
vn 0 1 0
vn 0 1 0
vn 0 0.99791 0.06461906
vn 0 1 0
vn 0 0.9982489 0.05915238
vn 0 1 0
vn 0 0.9968492 0.07931862
vn 0.3899786 0.260341 0.8832549
vn 0.07595851 0.8287409 0.5544537
vn 0 1 0
vn 0 1 0
vn 0.1169298 0 0.9931402
vn 0.1933613 0 0.9811276
vn 0.210461 0 0.9776023
vn 0.1169298 0 0.9931402
vn 0 0 1
vn 0 0 1
vn -0.1169301 0 0.9931402
vn -0.1169301 0 0.9931402
vn -0.2449087 0 0.9695461
vn -0.2449087 0 0.9695461
vn 0 0 1
vn 0 0 1
vn -1 0 0
vn -1 0 0
vn -1 0 0
vn -1 0 0
vn 0 1 0
vn 0.2628949 0.8812792 0.3927254
vn 0 0.6275563 0.7785711
vn 0 1 0
vn -0.2628948 0.8812792 0.3927253
vn -0.01020955 0.9911613 0.1322682
vn 0 1 0
vn 0 0.9990975 0.04247686
vn 0 1 0
vn -0.5086219 0.6830449 0.5241691
vn -0.9905978 0 0.1368065
vn -1 0 0
vn -0.9905978 0 0.1368065
vn -1 0 0
vn -0.5086219 -0.6830449 0.5241691
vn 0 -0.9990975 0.04247686
vn 0 -1 0
vn -0.01020955 -0.9911613 0.1322682
vn 0 -1 0
vn -0.262891 -0.88128 0.3927263
vn 0 -1 0
vn 0 1 0
vn 0 -0.6275633 0.7785655
vn 0.2628911 -0.88128 0.3927263
vn 1 0 0
vn 1 0 0
vn 1 0 0
vn 1 0 0
vn 0 0.99791 0.06461905
vn 0 0.9947384 0.1024477
vn 0 0.9990975 0.04247686
vn 0 0.9982489 0.05915213
vn 0 0.996795 0.07999758
vn -0.4912167 0.7867896 0.3737223
vn -0.02499494 0.730345 0.6826209
vn -0.5086219 0.6830449 0.5241691
vn -0.01020955 0.9911613 0.1322682
vn -0.9569908 0 0.2901182
vn -0.9905978 0 0.1368065
vn -0.9569908 0 0.2901184
vn -0.9905978 0 0.1368065
vn -0.4912132 -0.7867906 0.3737249
vn -0.5086219 -0.6830449 0.5241691
vn 0 -0.9947384 0.1024477
vn -0.2628948 0.8812792 0.3927253
vn -0.3954058 0.2040824 0.895547
vn 0 -0.9990975 0.04247686
vn 0 0.002657488 0.9999965
vn 0 0.6275563 0.7785711
vn 0 -0.99791 0.06461918
vn 0.2628949 0.8812792 0.3927254
vn 0.3899786 0.260341 0.8832549
vn 0.07595851 0.8287409 0.5544537
vn 0 -0.9982489 0.05915233
vn 0 -0.9968492 0.07931916
vn -0.03299789 -0.4321776 0.9011846
vn -0.01020955 -0.9911613 0.1322682
vn 0.01039729 0.9991167 0.04071458
vn -0.3902423 -0.2579067 0.8838524
vn -0.262891 -0.88128 0.3927263
vn 0 0.9968492 0.07931862
vn 0 -0.6275633 0.7785655
vn 0 -0.002657742 0.9999965
vn 0 0.9982489 0.05915238
vn 0 0.99791 0.06461906
vn 0 0.9388072 0.344443
vn 0 0.9944767 0.104957
vn 0.4912167 0.7867896 0.3737223
vn 0.5086219 0.6830449 0.5241691
vn 0.9569908 0 0.2901182
vn 0.9905978 0 0.1368065
vn 0.9569908 0 0.2901184
vn 0.9905978 0 0.1368065
vn 0.4912132 -0.7867906 0.3737249
vn 0.5086219 -0.6830449 0.5241691
vn 0.395618 -0.2015455 0.8960278
vn 0.2628911 -0.88128 0.3927263
vn 0 -0.9388071 0.3444432
vn 0 -0.9944767 0.104957
vn 0.01039729 -0.9991167 0.04071459
vn 0.03569004 -0.9648094 0.2605168
vn 0 -0.99791 0.06461917
vn 0 -0.9967951 0.07999743
vn 0 -0.9982489 0.0591526
vn -0.3954058 0.2040824 0.895547
vn 0 -0.002657742 0.9999965
vn -0.3902423 -0.2579067 0.8838524
vn 0 0.002657488 0.9999965
vn 0.3899786 0.260341 0.8832549
vn 0.395618 -0.2015455 0.8960278
vn 0 1 0
vn 0 1 0
g OpenBook_0
f 3/3/3 2/2/2 1/1/1
f 6/6/6 5/5/5 4/4/4
f 9/9/9 8/8/8 7/7/7
f 10/10/10 9/9/9 7/7/7
f 13/13/13 12/12/12 11/11/11
f 14/14/14 13/13/13 11/11/11
f 17/17/17 16/16/16 15/15/15
f 18/18/18 17/17/17 15/15/15
f 18/18/18 19/19/19 17/17/17
f 19/19/19 20/20/20 17/17/17
f 19/19/19 21/21/21 20/20/20
f 21/21/21 22/22/22 20/20/20
f 21/21/21 23/23/23 22/22/22
f 23/23/23 24/24/24 22/22/22
f 25/25/25 24/24/24 23/23/23
f 23/23/23 26/26/26 25/25/25
f 25/25/25 27/27/27 24/24/24
f 27/27/27 28/28/28 24/24/24
f 30/30/30 15/15/15 29/29/29
f 31/31/31 30/30/30 29/29/29
f 31/31/31 32/32/32 30/30/30
f 32/32/32 33/33/33 30/30/30
f 33/33/33 32/32/32 34/34/34
f 32/32/32 35/35/35 34/34/34
f 37/37/37 34/34/34 36/36/36
f 38/38/38 37/37/37 36/36/36
f 38/38/38 39/39/39 37/37/37
f 39/39/39 40/40/40 37/37/37
f 39/39/39 41/41/41 40/40/40
f 41/41/41 42/42/42 40/40/40
f 41/41/41 43/43/43 42/42/42
f 43/43/43 44/44/44 42/42/42
f 45/45/45 44/44/44 43/43/43
f 43/43/43 46/46/46 45/45/45
f 43/43/43 47/47/47 46/46/46
f 43/43/43 48/48/48 47/47/47
f 51/51/51 50/50/50 49/49/49
f 49/49/49 52/52/52 51/51/51
f 55/55/55 54/54/54 53/53/53
f 54/54/54 56/56/56 53/53/53
f 59/59/59 58/58/58 57/57/57
f 58/58/58 60/60/60 57/57/57
f 57/57/57 60/60/60 61/61/61
f 60/60/60 62/62/62 61/61/61
f 61/61/61 62/62/62 63/63/63
f 62/62/62 64/64/64 63/63/63
f 65/65/65 63/63/63 64/64/64
f 66/66/66 65/65/65 64/64/64
f 65/65/65 66/66/66 67/67/67
f 66/66/66 68/68/68 67/67/67
f 71/71/71 70/70/70 69/69/69
f 72/72/72 71/71/71 69/69/69
f 75/75/75 74/74/74 73/73/73
f 76/76/76 75/75/75 73/73/73
f 79/79/79 78/78/78 77/77/77
f 78/78/78 80/80/80 77/77/77
f 78/78/78 81/81/81 80/80/80
f 81/81/81 82/82/82 80/80/80
f 81/81/81 83/83/83 82/82/82
f 85/85/85 84/84/84 83/83/83
f 85/85/85 86/86/86 84/84/84
f 86/86/86 87/87/87 84/84/84
f 86/86/86 88/88/88 87/87/87
f 90/90/90 89/89/89 88/88/88
f 90/90/90 91/91/91 89/89/89
f 91/91/91 92/92/92 89/89/89
f 91/91/91 93/93/93 92/92/92
f 93/93/93 94/94/94 92/92/92
f 97/97/97 96/96/96 95/95/95
f 96/96/96 98/98/98 95/95/95
f 99/99/99 98/98/98 96/96/96
f 100/100/100 99/99/99 96/96/96
f 101/101/101 99/99/99 100/100/100
f 102/102/102 101/101/101 100/100/100
f 103/103/103 101/101/101 102/102/102
f 104/104/104 103/103/103 102/102/102
f 105/105/105 103/103/103 104/104/104
f 104/104/104 106/106/106 105/105/105
f 104/104/104 107/107/107 106/106/106
f 104/104/104 108/108/108 107/107/107
f 95/95/95 110/110/110 109/109/109
f 110/110/110 111/111/111 109/109/109
f 112/112/112 109/109/109 111/111/111
f 112/112/112 113/113/113 109/109/109
f 114/114/114 111/111/111 110/110/110
f 112/112/112 111/111/111 114/114/114
f 115/115/115 114/114/114 110/110/110
f 114/114/114 116/116/116 112/112/112
f 114/114/114 115/115/115 117/117/117
f 116/116/116 114/114/114 117/117/117
f 117/117/117 119/119/119 118/118/118
f 119/119/119 120/120/120 118/118/118
f 121/121/121 120/120/120 119/119/119
f 122/122/122 121/121/121 119/119/119
f 123/123/123 121/121/121 122/122/122
f 124/124/124 123/123/123 122/122/122
f 125/125/125 123/123/123 124/124/124
f 126/126/126 125/125/125 124/124/124
f 127/127/127 125/125/125 126/126/126
f 126/126/126 128/128/128 127/127/127
f 127/127/127 129/129/129 125/125/125
f 129/129/129 130/130/130 125/125/125
f 133/133/133 132/132/132 131/131/131
f 134/134/134 133/133/133 131/131/131
f 134/134/134 131/131/131 135/135/135
f 136/136/136 134/134/134 135/135/135
f 136/136/136 135/135/135 137/137/137
f 138/138/138 136/136/136 137/137/137
f 137/137/137 139/139/139 138/138/138
f 139/139/139 140/140/140 138/138/138
f 140/140/140 139/139/139 141/141/141
f 142/142/142 140/140/140 141/141/141
f 145/145/145 144/144/144 143/143/143
f 143/143/143 146/146/146 145/145/145
f 149/149/149 148/148/148 147/147/147
f 149/149/149 150/150/150 147/147/147
f 150/150/150 149/149/149 147/147/147
f 151/151/151 149/149/149 147/147/147
f 151/151/151 147/147/147 152/152/152
f 147/147/147 153/153/153 152/152/152
f 152/152/152 153/153/153 154/154/154
f 153/153/153 155/155/155 154/154/154
f 154/154/154 155/155/155 156/156/156
f 156/156/156 158/158/158 157/157/157
f 157/157/157 158/158/158 159/159/159
f 158/158/158 160/160/160 159/159/159
f 159/159/159 160/160/160 161/161/161
f 161/161/161 163/163/163 162/162/162
f 162/162/162 163/163/163 164/164/164
f 163/163/163 165/165/165 164/164/164
f 164/164/164 165/165/165 166/166/166
f 165/165/165 167/167/167 166/166/166
f 167/167/167 168/168/168 166/166/166
f 168/168/168 169/169/169 166/166/166
f 168/168/168 167/167/167 170/170/170
f 169/169/169 168/168/168 170/170/170
f 173/173/173 172/172/172 171/171/171
f 174/174/174 173/173/173 171/171/171
f 177/177/177 176/176/176 175/175/175
f 177/177/177 175/175/175 178/178/178
f 177/177/177 178/178/178 179/179/179
f 180/180/180 176/176/176 177/177/177
f 177/177/177 179/179/179 181/181/181
f 182/182/182 180/180/180 177/177/177
f 181/181/181 183/183/183 177/177/177
f 184/184/184 180/180/180 182/182/182
f 185/185/185 184/184/184 182/182/182
f 186/186/186 184/184/184 185/185/185
f 187/187/187 186/186/186 185/185/185
f 188/188/188 186/186/186 187/187/187
f 189/189/189 188/188/188 187/187/187
f 190/190/190 188/188/188 189/189/189
f 183/183/183 181/181/181 191/191/191
f 181/181/181 192/192/192 191/191/191
f 193/193/193 190/190/190 189/189/189
f 192/192/192 194/194/194 191/191/191
f 194/194/194 195/195/195 191/191/191
f 196/196/196 190/190/190 193/193/193
f 195/195/195 194/194/194 197/197/197
f 194/194/194 198/198/198 197/197/197
f 198/198/198 199/199/199 197/197/197
f 200/200/200 196/196/196 193/193/193
f 201/201/201 200/200/200 193/193/193
f 202/202/202 201/201/201 193/193/193
f 193/193/193 203/203/203 202/202/202
f 199/199/199 204/204/204 197/197/197
f 205/205/205 202/202/202 203/203/203
f 206/206/206 205/205/205 203/203/203
f 204/204/204 199/199/199 207/207/207
f 206/206/206 208/208/208 205/205/205
f 208/208/208 209/209/209 205/205/205
f 204/204/204 207/207/207 210/210/210
f 204/204/204 210/210/210 211/211/211
f 204/204/204 211/211/211 212/212/212
f 212/212/212 213/213/213 204/204/204
f 212/212/212 214/214/214 213/213/213
f 214/214/214 215/215/215 213/213/213
f 214/214/214 216/216/216 215/215/215
f 216/216/216 217/217/217 215/215/215
f 216/216/216 218/218/218 217/217/217
f 218/218/218 219/219/219 217/217/217
f 218/218/218 220/220/220 219/219/219
f 220/220/220 221/221/221 219/219/219
f 209/209/209 208/208/208 222/222/222
f 208/208/208 223/223/223 222/222/222
f 220/220/220 224/224/224 221/221/221
f 224/224/224 225/225/225 221/221/221
f 222/222/222 223/223/223 226/226/226
f 226/226/226 225/225/225 224/224/224
f 227/227/227 222/222/222 226/226/226
f 224/224/224 228/228/228 226/226/226
f 229/229/229 227/227/227 226/226/226
f 228/228/228 230/230/230 226/226/226
f 230/230/230 229/229/229 226/226/226
g OpenBook_1
f 233/233/233 232/232/232 231/231/231
f 232/232/232 234/234/234 231/231/231
f 234/234/234 232/232/232 235/235/235
f 232/232/232 236/236/236 235/235/235
f 238/238/238 231/231/231 237/237/237
f 235/235/235 238/238/238 237/237/237
