g OrangePaperDaisy_Impostor
v 1.342823 -0.2351421 0
v 0.7346188 -1.268221 0
v -0.1386449 -1.268221 0
v -1.342823 -0.7234552 0
v -1.342823 0.7110994 0
v -0.5426169 1.417424 0
v 0.5156122 1.417424 0
v 1.342823 0.7263173 0
vt 0 0.384667
vt 0.2264647 0
vt 0.5516244 0
vt 1 0.2028437
vt 1 0.7370001
vt 0.7020434 1
vt 0.3080118 1
vt 0 0.7426665
vn 0 0 -0.9999999
vn 0 0 -0.9999999
vn 0 0 -1
vn 0 0 -1
vn 0 0 -1
vn 0 0 -1
vn 0 0 -1
vn 0 0 -1
g OrangePaperDaisy_Impostor_0
f 4/4/4 6/6/6 8/8/8
f 8/8/8 2/2/2 4/4/4
f 6/6/6 7/7/7 8/8/8
f 4/4/4 5/5/5 6/6/6
f 2/2/2 3/3/3 4/4/4
f 8/8/8 1/1/1 2/2/2
