g PalmTreeLog
v -0.251921 0.081089 2.28378
v -0.244011 0.214704 1.084127
v -0.216662 0.187664 2.289313
v -0.188801 0.160117 3.639936
v -0.288229 0.08105 1.077188
v -0.300332 0.081036 0.669517
v -0.242846 -0.052508 1.070539
v -0.253128 0.223718 0.676925
v -0.238231 0.208733 0.672019
v -0.282362 0.081056 0.663442
v -0.236616 -0.046523 0.659012
v -0.251883 -0.061541 0.662419
v -0.107264 -0.108898 0.660417
v -0.107429 -0.091037 0.655196
v 0.020929 -0.04622 0.659803
v -0.214933 0.081129 3.635835
v -0.20079 0.081145 4.479894
v -0.188112 0.002199 3.631906
v -0.178147 0.149584 4.483447
v -0.17661 0.148065 4.947659
v -0.198749 0.081147 4.944185
v -0.176027 0.014278 4.940856
v -0.17755 0.012755 4.47649
v -0.108181 -0.009961 4.475529
v -0.1082 -0.007933 4.939917
v -0.040786 0.014445 4.941257
v -0.215733 -0.025408 2.278479
v -0.10771 -0.060781 2.276983
v -0.108051 -0.024018 3.630798
v -0.028478 0.002396 3.63238
v -0.039234 0.012926 4.4769
v -0.017264 0.081345 4.480488
v -0.019304 0.081342 4.944765
v -0.042683 0.148191 4.948128
v -0.107375 -0.096869 1.068663
v 0.02727 -0.052174 1.07134
v -0.000345 -0.025142 2.279117
v 0.033868 0.0814 2.284705
v -0.003121 0.08136 3.636521
v -0.030717 0.160266 3.640491
v -0.041175 0.149713 4.483928
v -0.109872 0.17245 4.484853
v -0.109854 0.170422 4.949033
v -0.17661 0.148065 4.947659
v -0.178147 0.149584 4.483447
v -0.188801 0.160117 3.639936
v -0.110003 0.186507 3.641558
v -0.110344 0.223271 2.291502
v -0.216662 0.187664 2.289313
v -0.244011 0.214704 1.084127
v -0.003367 0.187865 2.290061
v 0.023481 0.214956 1.085064
v -0.110678 0.259358 1.086872
v -0.11079 0.271388 0.679855
v -0.253128 0.223718 0.676925
v -0.238231 0.208733 0.672019
v -0.110624 0.253527 0.672808
v 0.01781 0.208989 0.672889
v 0.03243 0.223986 0.677925
v 0.082278 0.081453 0.670754
v 0.064308 0.081434 0.664563
v 0.070176 0.08144 1.078347
v 0.036475 -0.061184 0.663274
v -0.109847 0.169746 5.161747
v -0.109847 0.169746 5.306544
v -0.176098 0.147558 5.305181
v -0.176098 0.147558 5.160384
v -0.109847 0.169746 5.161747
v -0.043186 0.147683 5.305646
v -0.109847 0.169746 5.306544
v -0.043186 0.147683 5.16085
v -0.042683 0.148191 4.948128
v -0.109854 0.170422 4.949033
v -0.17661 0.148065 4.947659
v -0.176098 0.147558 5.160384
v -0.198069 0.081148 5.156936
v -0.198749 0.081147 4.944185
v -0.176098 0.147558 5.305181
v -0.176027 0.014278 4.940856
v -0.198069 0.081148 5.301733
v -0.198069 0.081148 5.562161
v -0.175519 0.014786 5.298429
v -0.176098 0.147558 5.565609
v -0.158806 0.130363 5.741597
v -0.175519 0.014786 5.153633
v -0.108206 -0.007257 5.1527
v -0.1082 -0.007933 4.939917
v -0.040786 0.014445 4.941257
v -0.041304 0.014952 5.15403
v -0.019984 0.081342 5.157512
v -0.019304 0.081342 4.944765
v -0.041304 0.014952 5.298827
v -0.108206 -0.007257 5.297498
v -0.108206 -0.007257 5.557926
v -0.041304 0.014952 5.559256
v -0.058958 0.032136 5.736891
v -0.175519 0.014786 5.558858
v -0.158184 0.032019 5.736586
v -0.108411 0.014869 5.79774
v -0.109027 0.081245 5.880693
v -0.042245 0.081317 5.801348
v -0.060159 0.130461 5.741932
v -0.109642 0.147621 5.804524
v -0.175809 0.081172 5.800916
v -0.019984 0.081342 5.157512
v -0.042683 0.148191 4.948128
v -0.019304 0.081342 4.944765
v -0.043186 0.147683 5.16085
v -0.043186 0.147683 5.305646
v -0.019984 0.081342 5.302309
v -0.019984 0.081342 5.562737
v -0.041304 0.014952 5.298827
v -0.041304 0.014952 5.15403
v -0.041304 0.014952 5.559256
v -0.058958 0.032136 5.736891
v -0.042245 0.081317 5.801348
v -0.060159 0.130461 5.741932
v -0.043186 0.147683 5.566074
v -0.109847 0.169746 5.566973
v -0.109847 0.169746 5.306544
v -0.109642 0.147621 5.804524
v -0.176098 0.147558 5.305181
v -0.158806 0.130363 5.741597
v -0.176098 0.147558 5.565609
v -0.109027 0.081245 0.661523
v -0.282362 0.081056 0.663442
v -0.236616 -0.046523 0.659012
v -0.107429 -0.091037 0.655196
v -0.238231 0.208733 0.672019
v 0.020929 -0.04622 0.659803
v -0.110624 0.253527 0.672808
v 0.064308 0.081434 0.664563
v 0.01781 0.208989 0.672889
vt 0.12561 0.736745
vt -0.015578 0.190835
vt 0.005548 0.744067
vt 0.030443 1.364419
vt 0.109807 0.181338
vt 0.10433 -0.006302
vt 0.235732 0.173766
vt -0.022868 0.003909
vt -0.023242 0.000135
vt 0.104016 -0.010058
vt 0.231816 -0.018197
vt 0.232055 -0.01445
vt 0.360831 -0.018476
vt 0.360702 -0.022228
vt 0.489763 -0.022055
vt 0.144365 1.359482
vt 0.158703 1.74911
vt 0.258919 1.35558
vt 0.049045 1.752705
vt 0.064501 2.024958
vt 0.170831 2.022183
vt 0.27738 2.020072
vt 0.26883 1.746308
vt 0.379896 1.745094
vt 0.384366 2.019285
vt 0.491206 2.01978
vt 0.246286 0.730921
vt 0.368193 0.72809
vt 0.374736 1.353748
vt 0.490783 1.353986
vt 0.491044 1.745443
vt 0.601414 1.747329
vt 0.597318 2.021511
vt 0.703042 2.02341
vt 0.362736 0.170042
vt 0.489905 0.170236
vt 0.490324 0.728289
vt 0.611672 0.731556
vt 0.606027 1.356295
vt 0.720787 1.359385
vt 0.711309 1.749651
vt 0.82103 1.751307
vt 0.808719 2.024411
vt 0.914374 2.024963
vt 0.930664 1.752631
vt 0.949893 1.364293
vt 0.835381 1.361966
vt 0.853816 0.740149
vt 0.975002 0.743943
vt 0.996131 0.190732
vt 0.732687 0.736104
vt 0.74258 0.180318
vt 0.869251 0.185664
vt 0.874605 -0.001685
vt 1.003422 0.00381
vt 1.003792 3.1E-05
vt 0.874918 -0.005465
vt 0.746273 -0.011242
vt 0.746036 -0.007463
vt 0.617961 -0.013809
vt 0.618088 -0.017583
vt 0.616326 0.174418
vt 0.489765 -0.018291
vt 0.427027 0.135394
vt 0.433703 0.141887
vt 0.425491 0.159323
vt 0.427578 0.122391
vt 0.427027 0.135394
vt 0.434588 0.147335
vt 0.433703 0.141887
vt 0.431184 0.147194
vt 0.42778 0.147053
vt 0.420351 0.128901
vt 0.420836 0.108618
vt 0.427578 0.122391
vt 0.437544 0.106981
vt 0.437146 0.084074
vt 0.425491 0.159323
vt 0.455314 0.073168
vt 0.430086 0.145901
vt 0.406917 0.216847
vt 0.435477 0.142059
vt 0.402626 0.222526
vt 0.379207 0.290649
vt 0.448496 0.100062
vt 0.452007 0.112532
vt 0.461369 0.093797
vt 0.461369 0.130196
vt 0.451796 0.134696
vt 0.44149 0.140945
vt 0.444574 0.138624
vt 0.436698 0.159408
vt 0.437044 0.14823
vt 0.410881 0.217856
vt 0.410553 0.224543
vt 0.38522 0.291952
vt 0.410054 0.21426
vt 0.391607 0.265243
vt 0.385835 0.285098
vt 0.374226 0.313645
vt 0.37256 0.323484
vt 0.366238 0.337079
vt 0.369336 0.322846
vt 0.383232 0.284526
vt 0.44149 0.140945
vt 0.42778 0.147053
vt 0.444574 0.138624
vt 0.431184 0.147194
vt 0.433515 0.145938
vt 0.430946 0.165213
vt 0.405483 0.233375
vt 0.436698 0.159408
vt 0.451796 0.134696
vt 0.410553 0.224543
vt 0.378883 0.309889
vt 0.37256 0.323484
vt 0.368593 0.330122
vt 0.401957 0.237539
vt 0.401519 0.232366
vt 0.433703 0.141887
vt 0.369336 0.322846
vt 0.432817 0.136439
vt 0.372434 0.308612
vt 0.402626 0.222526
vt 0.263684 0.912318
vt 0.202808 0.93301
vt 0.234089 0.972405
vt 0.284795 0.97268
vt 0.203051 0.882797
vt 0.324535 0.94158
vt 0.242549 0.851865
vt 0.324535 0.891535
vt 0.292975 0.852166
vn -0.9995717 -0.005086754 0.02881932
vn -0.7125173 0.7009346 0.03177599
vn -0.7085508 0.7049983 0.03054913
vn -0.7064554 0.7073067 0.02525586
vn -0.9994968 -0.01041047 0.02996261
vn -0.9998721 -0.01417343 -0.007414381
vn -0.6971701 -0.7162092 0.03159382
vn -0.7161338 0.697957 -0.002869939
vn -0.04266867 0.09629736 -0.9944376
vn -0.05180219 0.05042866 -0.9973833
vn -0.04245763 0.004425484 -0.9990884
vn -0.6945389 -0.7194447 -0.003870941
vn 0.000719566 -0.9999684 -0.007915654
vn 0.003140739 -0.004191151 -0.9999863
vn 0.04882899 0.005316293 -0.998793
vn -0.999713 -0.002129758 0.02385973
vn -0.9999191 -0.001636232 0.01262289
vn -0.7027326 -0.7110067 0.02522734
vn -0.7063542 0.7077332 0.01332333
vn -0.7057809 0.7084174 0.004256395
vn -0.9999917 -0.0006810018 0.004022978
vn -0.703755 -0.71043 0.004252408
vn -0.7031308 -0.7109345 0.01338445
vn 0.001379813 -0.9999198 0.01258989
vn 0.001445987 -0.9999909 0.004002915
vn 0.7114307 -0.7027431 0.004286635
vn -0.7007307 -0.7127774 0.030411
vn 0.001187968 -0.9995897 0.02861842
vn 0.00134642 -0.9997174 0.0237315
vn 0.7102902 -0.7034495 0.02542968
vn 0.7107269 -0.7033387 0.01348776
vn 0.9997764 0.01696903 0.01261359
vn 0.9998316 0.01790812 0.004021412
vn 0.6988338 0.7152717 0.004219892
vn 0.0009019405 -0.9995573 0.02973824
vn 0.7039157 -0.7095691 0.03185217
vn 0.7080022 -0.7055444 0.03065911
vn 0.9994941 0.01345315 0.0288211
vn 0.9995797 0.01647473 0.02385395
vn 0.6993983 0.7142932 0.02504127
vn 0.6993276 0.7146794 0.01320378
vn -0.0007355702 0.9999217 0.01249404
vn -0.0006821641 0.9999918 0.003993591
vn -0.7057809 0.7084174 0.004256395
vn -0.7063542 0.7077332 0.01332333
vn -0.7064554 0.7073067 0.02525586
vn -0.0007650985 0.999719 0.02369432
vn -0.0009858903 0.9995883 0.02867465
vn -0.7085508 0.7049983 0.03054913
vn -0.7125173 0.7009346 0.03177599
vn 0.7012132 0.7123075 0.03029827
vn 0.7046655 0.7088392 0.03151758
vn -0.001379101 0.999554 0.02983252
vn -0.001675603 0.9999745 -0.006939922
vn -0.7161338 0.697957 -0.002869939
vn -0.04266867 0.09629736 -0.9944376
vn 0.003189175 0.1058572 -0.9943763
vn 0.04892494 0.09718475 -0.9940631
vn 0.7078372 0.7063693 -0.002978615
vn 0.9999644 0.004159013 -0.007359227
vn 0.05811022 0.05161514 -0.9969749
vn 0.9995186 0.00802407 0.02996892
vn 0.7008405 -0.7133086 -0.003667787
vn -0.0008069354 0.999998 0.001879175
vn -0.001143117 0.9999994 0
vn -0.7108046 0.7033895 0
vn -0.7071754 0.7070353 0.002003577
vn -0.0008069354 0.999998 0.001879175
vn 0.7032066 0.7109855 0
vn -0.001143117 0.9999994 0
vn 0.7000471 0.7140939 0.00198441
vn 0.6988338 0.7152717 0.004219892
vn -0.0006821641 0.9999918 0.003993591
vn -0.7057809 0.7084174 0.004256395
vn -0.7071754 0.7070353 0.002003577
vn -0.9999951 -0.002485468 0.001906549
vn -0.9999917 -0.0006810018 0.004022978
vn -0.7108046 0.7033895 0
vn -0.703755 -0.71043 0.004252408
vn -0.9999734 -0.007296084 0
vn -0.9989852 -0.005830209 0.04465962
vn -0.6993421 -0.7147871 0
vn -0.7073072 0.7053825 0.04638868
vn -0.7023814 0.6937154 0.1594345
vn -0.7025542 -0.7116272 0.002029966
vn 0.001342315 -0.9999973 0.00191037
vn 0.001445987 -0.9999909 0.004002915
vn 0.7114307 -0.7027431 0.004286635
vn 0.7100515 -0.7041468 0.002045711
vn 0.9998689 0.01607944 0.00190487
vn 0.9998316 0.01790812 0.004021412
vn 0.706366 -0.7078467 0
vn 0.001065587 -0.9999994 0
vn 0.001226301 -0.9990388 0.04381656
vn 0.7085562 -0.7041866 0.04549017
vn 0.6970044 -0.6995059 0.1577222
vn -0.7011803 -0.7115565 0.04509386
vn -0.6902431 -0.7064124 0.1566712
vn 0.0004579669 -0.9258056 0.3779996
vn -0.001867037 -0.03166334 0.9994968
vn 0.921566 -0.009108736 0.3881148
vn 0.6949083 0.7013739 0.1586734
vn -0.00273267 0.9193665 0.3933927
vn -0.9217132 -0.02500532 0.3870653
vn 0.9998689 0.01607944 0.00190487
vn 0.6988338 0.7152717 0.004219892
vn 0.9998316 0.01790812 0.004021412
vn 0.7000471 0.7140939 0.00198441
vn 0.7032066 0.7109855 0
vn 0.9999372 0.01121291 0
vn 0.9989196 0.01253922 0.04474872
vn 0.706366 -0.7078467 0
vn 0.7100515 -0.7041468 0.002045711
vn 0.7085562 -0.7041866 0.04549017
vn 0.6970044 -0.6995059 0.1577222
vn 0.921566 -0.009108736 0.3881148
vn 0.6949083 0.7013739 0.1586734
vn 0.7000932 0.7125604 0.04612169
vn -0.001095656 0.9989831 0.04507199
vn -0.001143117 0.9999994 0
vn -0.00273267 0.9193665 0.3933927
vn -0.7108046 0.7033895 0
vn -0.7023814 0.6937154 0.1594345
vn -0.7073072 0.7053825 0.04638868
vn 0.00317329 0.05106944 -0.9986901
vn -0.05180219 0.05042866 -0.9973833
vn -0.04245763 0.004425484 -0.9990884
vn 0.003140739 -0.004191151 -0.9999863
vn -0.04266867 0.09629736 -0.9944376
vn 0.04882899 0.005316293 -0.998793
vn 0.003189175 0.1058572 -0.9943763
vn 0.05811022 0.05161514 -0.9969749
vn 0.04892494 0.09718475 -0.9940631
g PalmTreeLog_0
f 3/3/3 2/2/2 1/1/1
f 4/4/4 3/3/3 1/1/1
f 2/2/2 5/5/5 1/1/1
f 5/5/5 2/2/2 6/6/6
f 5/5/5 7/7/7 1/1/1
f 7/7/7 5/5/5 6/6/6
f 2/2/2 8/8/8 6/6/6
f 8/8/8 9/9/9 6/6/6
f 9/9/9 10/10/10 6/6/6
f 10/10/10 11/11/11 6/6/6
f 11/11/11 12/12/12 6/6/6
f 12/12/12 7/7/7 6/6/6
f 12/12/12 11/11/11 13/13/13
f 7/7/7 12/12/12 13/13/13
f 11/11/11 14/14/14 13/13/13
f 14/14/14 15/15/15 13/13/13
f 16/16/16 4/4/4 1/1/1
f 4/4/4 16/16/16 17/17/17
f 18/18/18 16/16/16 1/1/1
f 16/16/16 18/18/18 17/17/17
f 19/19/19 4/4/4 17/17/17
f 20/20/20 19/19/19 17/17/17
f 21/21/21 20/20/20 17/17/17
f 22/22/22 21/21/21 17/17/17
f 23/23/23 22/22/22 17/17/17
f 18/18/18 23/23/23 17/17/17
f 22/22/22 23/23/23 24/24/24
f 23/23/23 18/18/18 24/24/24
f 25/25/25 22/22/22 24/24/24
f 26/26/26 25/25/25 24/24/24
f 27/27/27 18/18/18 1/1/1
f 18/18/18 27/27/27 28/28/28
f 7/7/7 27/27/27 1/1/1
f 27/27/27 7/7/7 28/28/28
f 18/18/18 29/29/29 24/24/24
f 29/29/29 18/18/18 28/28/28
f 29/29/29 30/30/30 24/24/24
f 30/30/30 29/29/29 28/28/28
f 31/31/31 26/26/26 24/24/24
f 30/30/30 31/31/31 24/24/24
f 26/26/26 31/31/31 32/32/32
f 31/31/31 30/30/30 32/32/32
f 33/33/33 26/26/26 32/32/32
f 34/34/34 33/33/33 32/32/32
f 7/7/7 35/35/35 28/28/28
f 35/35/35 36/36/36 28/28/28
f 35/35/35 7/7/7 13/13/13
f 36/36/36 35/35/35 13/13/13
f 37/37/37 30/30/30 28/28/28
f 36/36/36 37/37/37 28/28/28
f 30/30/30 37/37/37 38/38/38
f 37/37/37 36/36/36 38/38/38
f 30/30/30 39/39/39 32/32/32
f 39/39/39 30/30/30 38/38/38
f 39/39/39 40/40/40 32/32/32
f 40/40/40 39/39/39 38/38/38
f 41/41/41 34/34/34 32/32/32
f 40/40/40 41/41/41 32/32/32
f 34/34/34 41/41/41 42/42/42
f 41/41/41 40/40/40 42/42/42
f 43/43/43 34/34/34 42/42/42
f 44/44/44 43/43/43 42/42/42
f 45/45/45 44/44/44 42/42/42
f 46/46/46 45/45/45 42/42/42
f 47/47/47 46/46/46 42/42/42
f 40/40/40 47/47/47 42/42/42
f 46/46/46 47/47/47 48/48/48
f 47/47/47 40/40/40 48/48/48
f 49/49/49 46/46/46 48/48/48
f 50/50/50 49/49/49 48/48/48
f 51/51/51 40/40/40 38/38/38
f 40/40/40 51/51/51 48/48/48
f 52/52/52 51/51/51 38/38/38
f 51/51/51 52/52/52 48/48/48
f 53/53/53 50/50/50 48/48/48
f 52/52/52 53/53/53 48/48/48
f 50/50/50 53/53/53 54/54/54
f 53/53/53 52/52/52 54/54/54
f 55/55/55 50/50/50 54/54/54
f 56/56/56 55/55/55 54/54/54
f 57/57/57 56/56/56 54/54/54
f 58/58/58 57/57/57 54/54/54
f 59/59/59 58/58/58 54/54/54
f 52/52/52 59/59/59 54/54/54
f 58/58/58 59/59/59 60/60/60
f 59/59/59 52/52/52 60/60/60
f 61/61/61 58/58/58 60/60/60
f 15/15/15 61/61/61 60/60/60
f 62/62/62 52/52/52 38/38/38
f 52/52/52 62/62/62 60/60/60
f 36/36/36 62/62/62 38/38/38
f 62/62/62 36/36/36 60/60/60
f 63/63/63 15/15/15 60/60/60
f 36/36/36 63/63/63 60/60/60
f 15/15/15 63/63/63 13/13/13
f 63/63/63 36/36/36 13/13/13
g PalmTreeLog_1
f 66/66/66 65/65/65 64/64/64
f 67/67/67 66/66/66 64/64/64
f 70/70/70 69/69/69 68/68/68
f 69/69/69 71/71/71 68/68/68
f 71/71/71 72/72/72 68/68/68
f 72/72/72 73/73/73 68/68/68
f 73/73/73 74/74/74 68/68/68
f 74/74/74 75/75/75 68/68/68
f 75/75/75 74/74/74 76/76/76
f 74/74/74 77/77/77 76/76/76
f 78/78/78 75/75/75 76/76/76
f 77/77/77 79/79/79 76/76/76
f 80/80/80 78/78/78 76/76/76
f 78/78/78 80/80/80 81/81/81
f 82/82/82 80/80/80 76/76/76
f 80/80/80 82/82/82 81/81/81
f 83/83/83 78/78/78 81/81/81
f 84/84/84 83/83/83 81/81/81
f 79/79/79 85/85/85 76/76/76
f 85/85/85 82/82/82 76/76/76
f 85/85/85 79/79/79 86/86/86
f 82/82/82 85/85/85 86/86/86
f 79/79/79 87/87/87 86/86/86
f 87/87/87 88/88/88 86/86/86
f 88/88/88 89/89/89 86/86/86
f 89/89/89 88/88/88 90/90/90
f 88/88/88 91/91/91 90/90/90
f 89/89/89 92/92/92 86/86/86
f 92/92/92 93/93/93 86/86/86
f 93/93/93 82/82/82 86/86/86
f 93/93/93 92/92/92 94/94/94
f 82/82/82 93/93/93 94/94/94
f 92/92/92 95/95/95 94/94/94
f 95/95/95 96/96/96 94/94/94
f 97/97/97 82/82/82 94/94/94
f 82/82/82 97/97/97 81/81/81
f 98/98/98 97/97/97 94/94/94
f 97/97/97 98/98/98 81/81/81
f 96/96/96 99/99/99 94/94/94
f 99/99/99 98/98/98 94/94/94
f 99/99/99 96/96/96 100/100/100
f 98/98/98 99/99/99 100/100/100
f 96/96/96 101/101/101 100/100/100
f 101/101/101 102/102/102 100/100/100
f 102/102/102 103/103/103 100/100/100
f 103/103/103 84/84/84 100/100/100
f 98/98/98 104/104/104 81/81/81
f 104/104/104 98/98/98 100/100/100
f 84/84/84 104/104/104 100/100/100
f 104/104/104 84/84/84 81/81/81
f 107/107/107 106/106/106 105/105/105
f 106/106/106 108/108/108 105/105/105
f 108/108/108 109/109/109 105/105/105
f 109/109/109 110/110/110 105/105/105
f 110/110/110 109/109/109 111/111/111
f 110/110/110 112/112/112 105/105/105
f 112/112/112 110/110/110 111/111/111
f 112/112/112 113/113/113 105/105/105
f 114/114/114 112/112/112 111/111/111
f 115/115/115 114/114/114 111/111/111
f 116/116/116 115/115/115 111/111/111
f 117/117/117 116/116/116 111/111/111
f 109/109/109 118/118/118 111/111/111
f 118/118/118 117/117/117 111/111/111
f 118/118/118 109/109/109 119/119/119
f 117/117/117 118/118/118 119/119/119
f 109/109/109 120/120/120 119/119/119
f 121/121/121 117/117/117 119/119/119
f 120/120/120 122/122/122 119/119/119
f 123/123/123 121/121/121 119/119/119
f 122/122/122 124/124/124 119/119/119
f 124/124/124 123/123/123 119/119/119
g PalmTreeLog_2
f 127/127/127 126/126/126 125/125/125
f 128/128/128 127/127/127 125/125/125
f 126/126/126 129/129/129 125/125/125
f 130/130/130 128/128/128 125/125/125
f 129/129/129 131/131/131 125/125/125
f 132/132/132 130/130/130 125/125/125
f 131/131/131 133/133/133 125/125/125
f 133/133/133 132/132/132 125/125/125
