g PalmSeed
v 0.056945 0.184083 0.296016
v 0 0.257781 0.266624
v 0.043238 0.254631 0.260342
v 0.078331 0.256605 0.234199
v 0 0.184511 0.307802
v -0.056945 0.184083 0.296016
v 0 0.100646 0.33729
v -0.043238 0.254631 0.260342
v -0.078331 0.256605 0.234199
v 0.105551 0.182926 0.26411
v 0.137478 0.181164 0.215536
v 0.124239 0.098781 0.285862
v 0.104385 0.252414 0.199235
v 0.110777 0.253765 0.15592
v 0.067027 0.100143 0.323417
v 0.070388 0.00616 0.334945
v -0.105551 0.182926 0.26411
v -0.137478 0.181164 0.215536
v -0.124239 0.098781 0.285862
v -0.104385 0.252414 0.199235
v -0.110776 0.253765 0.15592
v -0.067027 0.100143 0.323417
v -0.070388 0.00616 0.334945
v 0 0.006689 0.349513
v 0 -0.087907 0.344129
v -0.149271 0.1791 0.158628
v -0.137478 0.177035 0.101721
v -0.1757 0.094277 0.161705
v -0.104385 0.249279 0.112816
v -0.078331 0.250926 0.07764
v -0.161818 0.096707 0.228688
v -0.169932 0.002552 0.235467
v -0.130468 0.00473 0.295507
v -0.124239 -0.089773 0.292702
v -0.067027 -0.08841 0.330256
v -0.056945 -0.174115 0.309009
v -0.105551 0.175273 0.053147
v -0.056945 0.174116 0.021241
v -0.124239 0.089773 0.037548
v -0.043238 0.247063 0.051709
v 0 0.24975 0.045216
v 0 0.173688 0.009455
v 0 0.087908 -0.013879
v -0.067027 0.088411 -7E-06
v -0.070388 -0.00616 -0.004695
v 0 -0.006688 -0.019263
v 0 -0.100645 -0.00704
v -0.161818 0.091847 0.094722
v -0.169932 -0.002551 0.094783
v -0.130468 -0.004729 0.034743
v -0.124239 -0.09878 0.044388
v -0.067027 -0.100142 0.006833
v -0.056945 -0.184082 0.034234
v 0 -0.18451 0.022448
v 0 -0.25778 0.063626
v -0.043238 -0.25463 0.069907
v -0.078331 -0.256604 0.09605
v -0.105551 -0.182925 0.06614
v -0.137478 -0.181163 0.114714
v -0.104385 -0.252413 0.131015
v -0.110777 -0.253765 0.17433
v -0.161818 -0.096706 0.101561
v -0.1757 -0.094276 0.168545
v -0.149271 -0.179099 0.171621
v -0.137478 -0.177034 0.228529
v -0.104385 -0.249278 0.217433
v -0.078331 -0.250925 0.252609
v -0.18451 0 0.165125
v -0.161818 -0.091846 0.235528
v -0.105551 -0.175273 0.277103
v -0.043238 -0.247062 0.27854
v 0 -0.249749 0.285034
v 0 -0.173688 0.320795
v 0.056945 -0.174115 0.309009
v 0.043238 -0.247062 0.27854
v 0.078331 -0.250925 0.252609
v 0.067027 -0.08841 0.330256
v 0.124239 -0.089773 0.292702
v 0.105551 -0.175273 0.277103
v 0.137478 -0.177034 0.228529
v 0.104385 -0.249278 0.217433
v 0.110777 -0.253765 0.17433
v 0.130468 0.00473 0.295507
v 0.169932 0.002552 0.235467
v 0.161818 -0.091846 0.235528
v 0.1757 -0.094276 0.168545
v 0.149272 -0.179099 0.171621
v 0.137478 -0.181163 0.114714
v 0.104385 -0.252413 0.131015
v 0.078331 -0.256604 0.09605
v 0.161818 0.096707 0.228688
v 0.1757 0.094277 0.161705
v 0.18451 0 0.165125
v 0.169932 -0.002551 0.094783
v 0.161818 -0.096706 0.101561
v 0.124239 -0.09878 0.044388
v 0.105551 -0.182925 0.06614
v 0.056945 -0.184082 0.034234
v 0.043238 -0.25463 0.069907
v 0 -0.25778 0.063626
v 0 -0.18451 0.022448
v 0 -0.100645 -0.00704
v 0.067027 -0.100142 0.006833
v 0.070388 -0.00616 -0.004695
v 0 -0.006688 -0.019263
v 0 0.087908 -0.013879
v 0.130468 -0.004729 0.034743
v 0.124239 0.089773 0.037548
v 0.067027 0.088411 -7E-06
v 0.056945 0.174116 0.021241
v 0 0.173688 0.009455
v 0 0.24975 0.045216
v 0.043238 0.247063 0.051709
v 0.078331 0.250926 0.07764
v 0.105551 0.175273 0.053147
v 0.137478 0.177035 0.101721
v 0.104385 0.249279 0.112816
v 0.161818 0.091847 0.094722
v 0.149271 0.1791 0.158628
v 0.070016 0.306948 0.183011
v 0.104385 0.252414 0.199235
v 0.078331 0.256605 0.234199
v 0.110777 0.253765 0.15592
v 0.046506 0.319258 0.20008
v 0 0.370111 0.1517
v 0.029002 0.308435 0.223999
v 0.043238 0.254631 0.260342
v 0 0.257781 0.266624
v 0.065769 0.317572 0.153605
v 0.070016 0.304845 0.125046
v 0.104385 0.249279 0.112816
v 0.078331 0.250926 0.07764
v 0 0.319956 0.219331
v -0.029001 0.308435 0.223999
v -0.043238 0.254631 0.260342
v -0.078331 0.256605 0.234199
v 0.046506 0.315886 0.107131
v -0.046505 0.319258 0.20008
v 0.029002 0.303359 0.084059
v 0.043238 0.247063 0.051709
v 0 0.24975 0.045216
v -0.070016 0.306948 0.183011
v -0.104385 0.252414 0.199235
v -0.110776 0.253765 0.15592
v 0 0.315188 0.08788
v -0.029001 0.303359 0.084059
v -0.043238 0.247063 0.051709
v -0.078331 0.250926 0.07764
v -0.065768 0.317572 0.153605
v -0.070016 0.304845 0.125046
v -0.104385 0.249279 0.112816
v -0.046505 0.315886 0.107131
v 0.070016 -0.304845 0.205203
v 0.078331 -0.250925 0.252609
v 0.104385 -0.249278 0.217433
v 0.110777 -0.253765 0.17433
v 0.046505 -0.315885 0.223119
v 0 -0.370111 0.17855
v 0.029002 -0.303358 0.246191
v 0.043238 -0.247062 0.27854
v 0 -0.249749 0.285034
v 0.065769 -0.317571 0.176644
v 0.070016 -0.306947 0.147238
v 0.104385 -0.252413 0.131015
v 0.078331 -0.256604 0.09605
v 0 -0.315187 0.24237
v -0.029001 -0.303358 0.24619
v -0.043238 -0.247062 0.27854
v -0.078331 -0.250925 0.252609
v 0.046505 -0.319257 0.130169
v -0.046505 -0.315885 0.223119
v 0.029002 -0.308434 0.106251
v 0.043238 -0.25463 0.069907
v 0 -0.25778 0.063626
v -0.070016 -0.304845 0.205203
v -0.104385 -0.249278 0.217433
v -0.110777 -0.253765 0.17433
v 0 -0.319955 0.110919
v -0.029001 -0.308434 0.106251
v -0.043238 -0.25463 0.069907
v -0.078331 -0.256604 0.09605
v -0.065768 -0.317571 0.176644
v -0.070016 -0.306947 0.147238
v -0.104385 -0.252413 0.131015
v -0.046505 -0.319257 0.130169
vt 0.367554 0.002559
vt 0.367297 0.002972
vt 0.367556 0.002981
vt 0.367818 0.002995
vt 0.367288 0.002557
vt 0.367023 0.002558
vt 0.367282 0.002157
vt 0.367041 0.002969
vt 0.366788 0.002971
vt 0.367825 0.002566
vt 0.3681 0.002576
vt 0.36783 0.002155
vt 0.368083 0.003015
vt 0.368352 0.003041
vt 0.367555 0.002155
vt 0.367557 0.001784
vt 0.366759 0.002565
vt 0.366494 0.002578
vt 0.366738 0.00217
vt 0.366536 0.002982
vt 0.366287 0.003003
vt 0.36701 0.002162
vt 0.367009 0.001794
vt 0.367283 0.001789
vt 0.367285 0.001421
vt 0.366226 0.002601
vt 0.365953 0.002636
vt 0.366178 0.002204
vt 0.36604 0.003038
vt 0.365798 0.003092
vt 0.366461 0.002183
vt 0.366451 0.001807
vt 0.366733 0.0018
vt 0.366736 0.001424
vt 0.367012 0.001424
vt 0.367012 0.001019
vt 0.365673 0.002691
vt 0.365384 0.00277
vt 0.365574 0.002281
vt 0.365563 0.003171
vt 0.365332 0.003263
vt 0.36509 0.002862
vt 0.364891 0.002424
vt 0.365238 0.002347
vt 0.365161 0.001881
vt 0.364779 0.001911
vt 0.364777 0.001368
vt 0.365885 0.002235
vt 0.365854 0.001833
vt 0.365525 0.001853
vt 0.365527 0.001406
vt 0.365161 0.001389
vt 0.365251 0.000891
vt 0.364908 0.000838
vt 0.365105 0.000315
vt 0.365386 0.000389
vt 0.365665 0.000455
vt 0.365583 0.000936
vt 0.365892 0.000967
vt 0.365942 0.000502
vt 0.366215 0.000537
vt 0.365858 0.001415
vt 0.366163 0.00142
vt 0.366185 0.0009869999
vt 0.366467 0.001002
vt 0.366484 0.000564
vt 0.366749 0.000583
vt 0.366159 0.001818
vt 0.366455 0.001423
vt 0.366742 0.001012
vt 0.367011 0.000597
vt 0.36727 0.000606
vt 0.367279 0.001022
vt 0.367544 0.001021
vt 0.367526 0.00061
vt 0.367779 0.000607
vt 0.367556 0.001417
vt 0.367829 0.001408
vt 0.367808 0.001014
vt 0.368073 0.001001
vt 0.36803 0.000597
vt 0.368279 0.000576
vt 0.367834 0.001779
vt 0.368116 0.001771
vt 0.368105 0.001395
vt 0.368388 0.001374
vt 0.368341 0.000978
vt 0.368614 0.000942
vt 0.368527 0.000541
vt 0.368769 0.000487
vt 0.368112 0.002156
vt 0.368403 0.002159
vt 0.368407 0.001761
vt 0.368713 0.001746
vt 0.368682 0.001344
vt 0.368993 0.001298
vt 0.368894 0.000888
vt 0.369183 0.000808
vt 0.369004 0.000407
vt 0.369234 0.000315
vt 0.369477 0.000716
vt 0.369676 0.001154
vt 0.369328 0.001231
vt 0.369406 0.001698
vt 0.369788 0.001667
vt 0.36979 0.002211
vt 0.369042 0.001725
vt 0.369039 0.002173
vt 0.369406 0.00219
vt 0.369316 0.002688
vt 0.369659 0.00274
vt 0.369462 0.003263
vt 0.369181 0.003189
vt 0.368901 0.003124
vt 0.368984 0.002643
vt 0.368675 0.002612
vt 0.368625 0.003076
vt 0.368709 0.002163
vt 0.368382 0.002591
vt 0.318298 0.699593
vt 0.330888 0.699593
vt 0.328122 0.685095
vt 0.328122 0.714092
vt 0.313307 0.691231
vt 0.29312 0.699593
vt 0.310924 0.681789
vt 0.319826 0.672887
vt 0.307618 0.664591
vt 0.313307 0.707955
vt 0.310924 0.717397
vt 0.319826 0.726299
vt 0.307618 0.734596
vt 0.301482 0.679406
vt 0.29312 0.674415
vt 0.29312 0.661825
vt 0.278621 0.664591
vt 0.301482 0.719781
vt 0.284758 0.679406
vt 0.29312 0.724772
vt 0.29312 0.737361
vt 0.278621 0.734596
vt 0.275316 0.681789
vt 0.266414 0.672887
vt 0.258117 0.685095
vt 0.284758 0.719781
vt 0.275316 0.717397
vt 0.266414 0.726299
vt 0.258117 0.714092
vt 0.272932 0.691231
vt 0.267941 0.699593
vt 0.255352 0.699593
vt 0.272932 0.707955
vt 0.309945 0.718161
vt 0.30664 0.73536
vt 0.318847 0.727063
vt 0.327144 0.714856
vt 0.300503 0.720545
vt 0.292141 0.700357
vt 0.292141 0.725536
vt 0.292141 0.738125
vt 0.277643 0.73536
vt 0.312329 0.708719
vt 0.31732 0.700357
vt 0.329909 0.700357
vt 0.327144 0.685859
vt 0.283779 0.720545
vt 0.274337 0.718161
vt 0.265435 0.727063
vt 0.257139 0.714856
vt 0.312329 0.691995
vt 0.271953 0.708719
vt 0.309945 0.682553
vt 0.318847 0.673651
vt 0.30664 0.665355
vt 0.266962 0.700357
vt 0.254373 0.700357
vt 0.257139 0.685859
vt 0.300503 0.68017
vt 0.292141 0.675179
vt 0.292141 0.662589
vt 0.277643 0.665355
vt 0.271953 0.691995
vt 0.274337 0.682553
vt 0.265435 0.673651
vt 0.283779 0.68017
vn 0.3569125 0.3917687 0.8480158
vn 0 0.5275036 0.8495529
vn 0.3330704 0.5212639 0.785715
vn 0.6138532 0.5182862 0.5954524
vn 0 0.3944753 0.9189065
vn -0.3569125 0.3917687 0.8480158
vn 0 0.2205489 0.9753759
vn -0.3330714 0.5212648 0.785714
vn -0.6138515 0.5182883 0.5954525
vn 0.6594493 0.3845732 0.6459334
vn 0.8616617 0.3734715 0.3435958
vn 0.6948945 0.210117 0.6877298
vn 0.8040963 0.5041887 0.3149965
vn 0.8681174 0.4960327 -0.01799436
vn 0.3761002 0.2174886 0.9006927
vn 0.3826828 0.03348868 0.9232727
vn -0.6594493 0.3845732 0.6459334
vn -0.8616619 0.3734726 0.3435941
vn -0.6948945 0.210117 0.6877299
vn -0.8040967 0.5041914 0.3149913
vn -0.8681161 0.4960348 -0.01799446
vn -0.3761002 0.2174886 0.9006927
vn -0.3826828 0.03348868 0.9232727
vn 0 0.03624759 0.9993429
vn 0 -0.1493034 0.9887915
vn -0.9326018 0.3606695 -0.01308451
vn -0.8616617 0.347596 -0.3697514
vn -0.9827288 0.1849297 -0.006708518
vn -0.8040972 0.4800418 -0.3506956
vn -0.6138521 0.4737812 -0.6314405
vn -0.9079853 0.198211 0.3691548
vn -0.9238792 0.01387333 0.3824326
vn -0.7071052 0.02563352 0.7066435
vn -0.6948926 -0.1597387 0.7011476
vn -0.3760973 -0.1516607 0.9140842
vn -0.3569105 -0.3292972 0.8741729
vn -0.6594512 0.3367617 -0.672098
vn -0.3569102 0.3292982 -0.8741726
vn -0.6948943 0.1597377 -0.7011461
vn -0.3330681 0.4629644 -0.8214193
vn 0 0.4645619 -0.8855405
vn 0 0.3268593 -0.945073
vn 0 0.1493028 -0.9887916
vn -0.3760973 0.1516609 -0.9140841
vn -0.382683 -0.03349192 -0.9232725
vn 0 -0.03624951 -0.9993427
vn 0 -0.2205495 -0.9753758
vn -0.9079845 0.170944 -0.3825472
vn -0.9238794 -0.01387195 -0.3824321
vn -0.7071054 -0.02563335 -0.7066434
vn -0.694893 -0.2101172 -0.6877314
vn -0.3761002 -0.2174892 -0.9006925
vn -0.3569117 -0.391766 -0.8480173
vn 0 -0.394473 -0.9189076
vn 0 -0.5275024 -0.8495535
vn -0.3330656 -0.5212623 -0.785718
vn -0.6138533 -0.5182855 -0.595453
vn -0.6594497 -0.384572 -0.6459338
vn -0.8616614 -0.3734716 -0.3435966
vn -0.804096 -0.5041885 -0.3149976
vn -0.8681163 -0.4960345 0.01799432
vn -0.9079845 -0.1982107 -0.369157
vn -0.9827288 -0.1849302 0.006709176
vn -0.9326028 -0.3606671 0.01308309
vn -0.861662 -0.3475957 0.369751
vn -0.8040959 -0.480041 0.3506998
vn -0.6138501 -0.4737854 0.6314393
vn -1 0 0
vn -0.9079849 -0.170944 0.3825462
vn -0.6594486 -0.3367655 0.6720987
vn -0.3330718 -0.4629687 0.8214152
vn 0 -0.4645662 0.8855384
vn 0 -0.3268597 0.9450729
vn 0.3569105 -0.3292972 0.8741729
vn 0.3330718 -0.4629672 0.8214162
vn 0.6138532 -0.4737837 0.6314374
vn 0.3760972 -0.1516607 0.9140842
vn 0.6948926 -0.1597387 0.7011476
vn 0.6594486 -0.3367655 0.6720987
vn 0.8616608 -0.3475951 0.3697546
vn 0.804094 -0.4800411 0.3507038
vn 0.8681154 -0.496036 0.01799442
vn 0.7071052 0.02563352 0.7066435
vn 0.9238792 0.01387332 0.3824326
vn 0.9079845 -0.1709427 0.3825478
vn 0.9827291 -0.1849281 0.006709096
vn 0.9326031 -0.3606667 0.0130831
vn 0.8616601 -0.3734712 -0.3436002
vn 0.8040943 -0.5041889 -0.3150016
vn 0.6138549 -0.5182846 -0.5954521
vn 0.9079853 0.198211 0.3691548
vn 0.9827288 0.1849297 -0.006708506
vn 1 0 0
vn 0.9238794 -0.01387194 -0.3824321
vn 0.907984 -0.1982095 -0.3691585
vn 0.694893 -0.2101172 -0.6877314
vn 0.6594497 -0.3845719 -0.6459338
vn 0.3569116 -0.391766 -0.8480173
vn 0.3330652 -0.5212619 -0.7857185
vn 0 -0.5275024 -0.8495535
vn 0 -0.394473 -0.9189076
vn 0 -0.2205495 -0.9753758
vn 0.3761002 -0.2174892 -0.9006925
vn 0.382683 -0.03349193 -0.9232725
vn 0 -0.03624951 -0.9993427
vn 0 0.1493028 -0.9887916
vn 0.7071054 -0.02563336 -0.7066434
vn 0.6948943 0.1597377 -0.7011461
vn 0.3760973 0.1516609 -0.9140842
vn 0.3569101 0.3292981 -0.8741726
vn 0 0.3268593 -0.945073
vn 0 0.4645619 -0.8855405
vn 0.3330671 0.4629634 -0.8214201
vn 0.6138539 0.4737791 -0.6314401
vn 0.6594512 0.3367617 -0.672098
vn 0.8616616 0.3475948 -0.3697531
vn 0.8040971 0.4800389 -0.3507005
vn 0.9079845 0.170944 -0.3825472
vn 0.9326026 0.3606677 -0.01308443
vn 0.7158821 0.6424615 0.2734153
vn 0.8040963 0.5041887 0.3149965
vn 0.6138532 0.5182862 0.5954524
vn 0.8681174 0.4960327 -0.01799436
vn 0.4991739 0.7259065 0.4731651
vn 0 0.9993429 -0.03624773
vn 0.2965287 0.6576648 0.692494
vn 0.3330704 0.5212639 0.785715
vn 0 0.5275036 0.8495529
vn 0.7059361 0.7078099 -0.02567925
vn 0.7158806 0.6209632 -0.3192486
vn 0.8040971 0.4800389 -0.3507005
vn 0.6138539 0.4737791 -0.6314401
vn 0 0.7334013 0.6797959
vn -0.2965302 0.657665 0.692493
vn -0.3330714 0.5212648 0.785714
vn -0.6138515 0.5182883 0.5954525
vn 0.4991713 0.689719 -0.5245147
vn -0.4991742 0.7259063 0.473165
vn 0.2965277 0.6057686 -0.7383195
vn 0.3330671 0.4629634 -0.8214201
vn 0 0.4645619 -0.8855405
vn -0.7158829 0.6424627 0.2734104
vn -0.8040967 0.5041914 0.3149913
vn -0.8681161 0.4960348 -0.01799446
vn 0 0.6822253 -0.731142
vn -0.2965291 0.6057689 -0.7383186
vn -0.3330681 0.4629644 -0.8214193
vn -0.6138521 0.4737812 -0.6314405
vn -0.7059351 0.7078108 -0.02567927
vn -0.7158814 0.6209647 -0.3192439
vn -0.8040972 0.4800418 -0.3506956
vn -0.4991716 0.6897188 -0.5245147
vn 0.715876 -0.6209646 0.3192562
vn 0.6138532 -0.4737837 0.6314374
vn 0.804094 -0.4800411 0.3507038
vn 0.8681154 -0.496036 0.01799442
vn 0.4991747 -0.689714 0.5245181
vn 0 -0.9993427 0.03625035
vn 0.2965365 -0.6057624 0.7383211
vn 0.3330718 -0.4629672 0.8214162
vn 0 -0.4645662 0.8855384
vn 0.7059352 -0.7078109 0.02567471
vn 0.7158785 -0.6424616 -0.2734248
vn 0.8040943 -0.5041889 -0.3150016
vn 0.6138549 -0.5182846 -0.5954521
vn 0 -0.6822196 0.7311473
vn -0.296535 -0.6057642 0.7383202
vn -0.3330718 -0.4629687 0.8214152
vn -0.6138501 -0.4737854 0.6314393
vn 0.4991715 -0.7259054 -0.4731694
vn -0.4991755 -0.6897126 0.5245191
vn 0.2965218 -0.6576658 -0.6924958
vn 0.3330652 -0.5212619 -0.7857185
vn 0 -0.5275024 -0.8495535
vn -0.7158783 -0.6209657 0.3192491
vn -0.8040959 -0.480041 0.3506998
vn -0.8681163 -0.4960345 0.01799432
vn 0 -0.7333977 -0.6798
vn -0.29652 -0.6576664 -0.6924961
vn -0.3330656 -0.5212623 -0.785718
vn -0.6138533 -0.5182855 -0.595453
vn -0.7059344 -0.7078117 0.02567475
vn -0.7158807 -0.6424623 -0.2734177
vn -0.804096 -0.5041885 -0.3149976
vn -0.4991731 -0.7259046 -0.4731688
g PalmSeed_0
f 3/3/3 2/2/2 1/1/1
f 4/4/4 3/3/3 1/1/1
f 2/2/2 5/5/5 1/1/1
f 5/5/5 2/2/2 6/6/6
f 5/5/5 7/7/7 1/1/1
f 7/7/7 5/5/5 6/6/6
f 2/2/2 8/8/8 6/6/6
f 8/8/8 9/9/9 6/6/6
f 10/10/10 4/4/4 1/1/1
f 4/4/4 10/10/10 11/11/11
f 12/12/12 10/10/10 1/1/1
f 10/10/10 12/12/12 11/11/11
f 13/13/13 4/4/4 11/11/11
f 14/14/14 13/13/13 11/11/11
f 7/7/7 15/15/15 1/1/1
f 15/15/15 12/12/12 1/1/1
f 15/15/15 7/7/7 16/16/16
f 12/12/12 15/15/15 16/16/16
f 9/9/9 17/17/17 6/6/6
f 17/17/17 9/9/9 18/18/18
f 17/17/17 19/19/19 6/6/6
f 19/19/19 17/17/17 18/18/18
f 9/9/9 20/20/20 18/18/18
f 20/20/20 21/21/21 18/18/18
f 22/22/22 7/7/7 6/6/6
f 19/19/19 22/22/22 6/6/6
f 7/7/7 22/22/22 23/23/23
f 22/22/22 19/19/19 23/23/23
f 7/7/7 24/24/24 16/16/16
f 24/24/24 7/7/7 23/23/23
f 24/24/24 25/25/25 16/16/16
f 25/25/25 24/24/24 23/23/23
f 21/21/21 26/26/26 18/18/18
f 26/26/26 21/21/21 27/27/27
f 26/26/26 28/28/28 18/18/18
f 28/28/28 26/26/26 27/27/27
f 21/21/21 29/29/29 27/27/27
f 29/29/29 30/30/30 27/27/27
f 31/31/31 19/19/19 18/18/18
f 28/28/28 31/31/31 18/18/18
f 19/19/19 31/31/31 32/32/32
f 31/31/31 28/28/28 32/32/32
f 19/19/19 33/33/33 23/23/23
f 33/33/33 19/19/19 32/32/32
f 33/33/33 34/34/34 23/23/23
f 34/34/34 33/33/33 32/32/32
f 35/35/35 25/25/25 23/23/23
f 34/34/34 35/35/35 23/23/23
f 25/25/25 35/35/35 36/36/36
f 35/35/35 34/34/34 36/36/36
f 30/30/30 37/37/37 27/27/27
f 37/37/37 30/30/30 38/38/38
f 37/37/37 39/39/39 27/27/27
f 39/39/39 37/37/37 38/38/38
f 30/30/30 40/40/40 38/38/38
f 40/40/40 41/41/41 38/38/38
f 41/41/41 42/42/42 38/38/38
f 42/42/42 43/43/43 38/38/38
f 43/43/43 44/44/44 38/38/38
f 44/44/44 39/39/39 38/38/38
f 44/44/44 43/43/43 45/45/45
f 39/39/39 44/44/44 45/45/45
f 43/43/43 46/46/46 45/45/45
f 46/46/46 47/47/47 45/45/45
f 39/39/39 48/48/48 27/27/27
f 48/48/48 39/39/39 49/49/49
f 48/48/48 28/28/28 27/27/27
f 28/28/28 48/48/48 49/49/49
f 50/50/50 39/39/39 45/45/45
f 39/39/39 50/50/50 49/49/49
f 51/51/51 50/50/50 45/45/45
f 50/50/50 51/51/51 49/49/49
f 47/47/47 52/52/52 45/45/45
f 52/52/52 51/51/51 45/45/45
f 52/52/52 47/47/47 53/53/53
f 51/51/51 52/52/52 53/53/53
f 47/47/47 54/54/54 53/53/53
f 54/54/54 55/55/55 53/53/53
f 55/55/55 56/56/56 53/53/53
f 56/56/56 57/57/57 53/53/53
f 57/57/57 58/58/58 53/53/53
f 58/58/58 51/51/51 53/53/53
f 58/58/58 57/57/57 59/59/59
f 51/51/51 58/58/58 59/59/59
f 57/57/57 60/60/60 59/59/59
f 60/60/60 61/61/61 59/59/59
f 51/51/51 62/62/62 49/49/49
f 62/62/62 51/51/51 59/59/59
f 62/62/62 63/63/63 49/49/49
f 63/63/63 62/62/62 59/59/59
f 61/61/61 64/64/64 59/59/59
f 64/64/64 63/63/63 59/59/59
f 64/64/64 61/61/61 65/65/65
f 63/63/63 64/64/64 65/65/65
f 61/61/61 66/66/66 65/65/65
f 66/66/66 67/67/67 65/65/65
f 63/63/63 68/68/68 49/49/49
f 68/68/68 28/28/28 49/49/49
f 28/28/28 68/68/68 32/32/32
f 68/68/68 63/63/63 32/32/32
f 63/63/63 69/69/69 32/32/32
f 69/69/69 63/63/63 65/65/65
f 69/69/69 34/34/34 32/32/32
f 34/34/34 69/69/69 65/65/65
f 70/70/70 34/34/34 65/65/65
f 67/67/67 70/70/70 65/65/65
f 34/34/34 70/70/70 36/36/36
f 70/70/70 67/67/67 36/36/36
f 67/67/67 71/71/71 36/36/36
f 71/71/71 72/72/72 36/36/36
f 72/72/72 73/73/73 36/36/36
f 73/73/73 72/72/72 74/74/74
f 73/73/73 25/25/25 36/36/36
f 25/25/25 73/73/73 74/74/74
f 72/72/72 75/75/75 74/74/74
f 75/75/75 76/76/76 74/74/74
f 77/77/77 25/25/25 74/74/74
f 78/78/78 77/77/77 74/74/74
f 25/25/25 77/77/77 16/16/16
f 77/77/77 78/78/78 16/16/16
f 76/76/76 79/79/79 74/74/74
f 79/79/79 78/78/78 74/74/74
f 79/79/79 76/76/76 80/80/80
f 78/78/78 79/79/79 80/80/80
f 76/76/76 81/81/81 80/80/80
f 81/81/81 82/82/82 80/80/80
f 78/78/78 83/83/83 16/16/16
f 83/83/83 78/78/78 84/84/84
f 83/83/83 12/12/12 16/16/16
f 12/12/12 83/83/83 84/84/84
f 85/85/85 78/78/78 80/80/80
f 78/78/78 85/85/85 84/84/84
f 86/86/86 85/85/85 80/80/80
f 85/85/85 86/86/86 84/84/84
f 82/82/82 87/87/87 80/80/80
f 87/87/87 86/86/86 80/80/80
f 87/87/87 82/82/82 88/88/88
f 86/86/86 87/87/87 88/88/88
f 82/82/82 89/89/89 88/88/88
f 89/89/89 90/90/90 88/88/88
f 91/91/91 12/12/12 84/84/84
f 92/92/92 91/91/91 84/84/84
f 12/12/12 91/91/91 11/11/11
f 91/91/91 92/92/92 11/11/11
f 86/86/86 93/93/93 84/84/84
f 93/93/93 92/92/92 84/84/84
f 93/93/93 86/86/86 94/94/94
f 92/92/92 93/93/93 94/94/94
f 95/95/95 86/86/86 88/88/88
f 86/86/86 95/95/95 94/94/94
f 96/96/96 95/95/95 88/88/88
f 95/95/95 96/96/96 94/94/94
f 90/90/90 97/97/97 88/88/88
f 97/97/97 96/96/96 88/88/88
f 97/97/97 90/90/90 98/98/98
f 96/96/96 97/97/97 98/98/98
f 90/90/90 99/99/99 98/98/98
f 99/99/99 100/100/100 98/98/98
f 100/100/100 101/101/101 98/98/98
f 101/101/101 102/102/102 98/98/98
f 102/102/102 103/103/103 98/98/98
f 103/103/103 96/96/96 98/98/98
f 103/103/103 102/102/102 104/104/104
f 96/96/96 103/103/103 104/104/104
f 102/102/102 105/105/105 104/104/104
f 105/105/105 106/106/106 104/104/104
f 96/96/96 107/107/107 94/94/94
f 107/107/107 96/96/96 104/104/104
f 107/107/107 108/108/108 94/94/94
f 108/108/108 107/107/107 104/104/104
f 106/106/106 109/109/109 104/104/104
f 109/109/109 108/108/108 104/104/104
f 109/109/109 106/106/106 110/110/110
f 108/108/108 109/109/109 110/110/110
f 106/106/106 111/111/111 110/110/110
f 111/111/111 112/112/112 110/110/110
f 112/112/112 113/113/113 110/110/110
f 113/113/113 114/114/114 110/110/110
f 114/114/114 115/115/115 110/110/110
f 115/115/115 108/108/108 110/110/110
f 115/115/115 114/114/114 116/116/116
f 108/108/108 115/115/115 116/116/116
f 114/114/114 117/117/117 116/116/116
f 117/117/117 14/14/14 116/116/116
f 108/108/108 118/118/118 94/94/94
f 118/118/118 108/108/108 116/116/116
f 118/118/118 92/92/92 94/94/94
f 92/92/92 118/118/118 116/116/116
f 14/14/14 119/119/119 116/116/116
f 119/119/119 92/92/92 116/116/116
f 119/119/119 14/14/14 11/11/11
f 92/92/92 119/119/119 11/11/11
f 122/122/122 121/121/121 120/120/120
f 121/121/121 123/123/123 120/120/120
f 124/124/124 122/122/122 120/120/120
f 125/125/125 124/124/124 120/120/120
f 122/122/122 124/124/124 126/126/126
f 124/124/124 125/125/125 126/126/126
f 127/127/127 122/122/122 126/126/126
f 128/128/128 127/127/127 126/126/126
f 123/123/123 129/129/129 120/120/120
f 129/129/129 125/125/125 120/120/120
f 129/129/129 123/123/123 130/130/130
f 125/125/125 129/129/129 130/130/130
f 123/123/123 131/131/131 130/130/130
f 131/131/131 132/132/132 130/130/130
f 133/133/133 128/128/128 126/126/126
f 125/125/125 133/133/133 126/126/126
f 128/128/128 133/133/133 134/134/134
f 133/133/133 125/125/125 134/134/134
f 135/135/135 128/128/128 134/134/134
f 136/136/136 135/135/135 134/134/134
f 137/137/137 125/125/125 130/130/130
f 132/132/132 137/137/137 130/130/130
f 125/125/125 138/138/138 134/134/134
f 138/138/138 136/136/136 134/134/134
f 125/125/125 137/137/137 139/139/139
f 137/137/137 132/132/132 139/139/139
f 132/132/132 140/140/140 139/139/139
f 140/140/140 141/141/141 139/139/139
f 136/136/136 138/138/138 142/142/142
f 138/138/138 125/125/125 142/142/142
f 143/143/143 136/136/136 142/142/142
f 144/144/144 143/143/143 142/142/142
f 141/141/141 145/145/145 139/139/139
f 145/145/145 125/125/125 139/139/139
f 145/145/145 141/141/141 146/146/146
f 125/125/125 145/145/145 146/146/146
f 141/141/141 147/147/147 146/146/146
f 147/147/147 148/148/148 146/146/146
f 149/149/149 144/144/144 142/142/142
f 125/125/125 149/149/149 142/142/142
f 144/144/144 149/149/149 150/150/150
f 149/149/149 125/125/125 150/150/150
f 151/151/151 144/144/144 150/150/150
f 148/148/148 151/151/151 150/150/150
f 152/152/152 125/125/125 146/146/146
f 125/125/125 152/152/152 150/150/150
f 148/148/148 152/152/152 146/146/146
f 152/152/152 148/148/148 150/150/150
f 155/155/155 154/154/154 153/153/153
f 156/156/156 155/155/155 153/153/153
f 154/154/154 157/157/157 153/153/153
f 157/157/157 158/158/158 153/153/153
f 157/157/157 154/154/154 159/159/159
f 158/158/158 157/157/157 159/159/159
f 154/154/154 160/160/160 159/159/159
f 160/160/160 161/161/161 159/159/159
f 162/162/162 156/156/156 153/153/153
f 158/158/158 162/162/162 153/153/153
f 156/156/156 162/162/162 163/163/163
f 162/162/162 158/158/158 163/163/163
f 164/164/164 156/156/156 163/163/163
f 165/165/165 164/164/164 163/163/163
f 161/161/161 166/166/166 159/159/159
f 166/166/166 158/158/158 159/159/159
f 166/166/166 161/161/161 167/167/167
f 158/158/158 166/166/166 167/167/167
f 161/161/161 168/168/168 167/167/167
f 168/168/168 169/169/169 167/167/167
f 158/158/158 170/170/170 163/163/163
f 170/170/170 165/165/165 163/163/163
f 171/171/171 158/158/158 167/167/167
f 169/169/169 171/171/171 167/167/167
f 170/170/170 158/158/158 172/172/172
f 165/165/165 170/170/170 172/172/172
f 173/173/173 165/165/165 172/172/172
f 174/174/174 173/173/173 172/172/172
f 171/171/171 169/169/169 175/175/175
f 158/158/158 171/171/171 175/175/175
f 169/169/169 176/176/176 175/175/175
f 176/176/176 177/177/177 175/175/175
f 178/178/178 174/174/174 172/172/172
f 158/158/158 178/178/178 172/172/172
f 174/174/174 178/178/178 179/179/179
f 178/178/178 158/158/158 179/179/179
f 180/180/180 174/174/174 179/179/179
f 181/181/181 180/180/180 179/179/179
f 177/177/177 182/182/182 175/175/175
f 182/182/182 158/158/158 175/175/175
f 182/182/182 177/177/177 183/183/183
f 158/158/158 182/182/182 183/183/183
f 177/177/177 184/184/184 183/183/183
f 184/184/184 181/181/181 183/183/183
f 158/158/158 185/185/185 179/179/179
f 185/185/185 158/158/158 183/183/183
f 185/185/185 181/181/181 179/179/179
f 181/181/181 185/185/185 183/183/183
