g PalmTree_Impostor
v 3.217608 -0.2291056 0
v 1.147976 -4.544395 0
v -1.147577 -4.544395 0
v -3.21759 -0.2484781 0
v -3.209868 4.041168 0
v -1.767829 5.089722 0
v 1.48783 5.089722 0
v 3.206801 4.159763 0
vt 0.1660194 0.4479175
vt 0.3808427 0
vt 0.6191159 0
vt 0.8339787 0.4459066
vt 0.8331772 0.8911624
vt 0.6834968 1
vt 0.3455665 1
vt 0.1671412 0.9034723
vn 0 0 -1
vn 0 0 -1
vn 0 0 -1
vn 0 0 -1
vn 0 0 -1
vn 0 0 -1
vn 0 0 -1
vn 0 0 -1
g PalmTree_Impostor_0
f 4/4/4 6/6/6 8/8/8
f 8/8/8 2/2/2 4/4/4
f 6/6/6 7/7/7 8/8/8
f 4/4/4 5/5/5 6/6/6
f 2/2/2 3/3/3 4/4/4
f 8/8/8 1/1/1 2/2/2
