g PalmLeaf_Atlas
v -0.08112 -0.420228 0.233592
v -0.08112 0.065095 -0.054648
v 0.049062 0.048058 -0.066133
v 0.049062 -0.452686 0.137916
v 0.4267 -0.947908 0.331654
v -0.020582 -0.915524 0.555208
v -0.467864 -0.975827 0.294237
v -0.46419 -1.541231 0.350959
v -0.023013 -1.570436 0.562957
v 0.418164 -1.530457 0.374678
v -0.460516 -2.119367 0.145441
v -0.025444 -2.234306 0.271907
v 0.409628 -2.124072 0.14885
v -0.025577 -2.897081 -0.43799
v -0.08112 -0.420228 0.233592
v 0.049062 0.048058 -0.066133
v -0.08112 0.065095 -0.054648
v 0.049062 -0.452686 0.137916
v 0.4267 -0.947908 0.331654
v -0.020582 -0.915524 0.555208
v -0.467864 -0.975827 0.294237
v -0.46419 -1.541231 0.350959
v -0.023013 -1.570436 0.562957
v 0.418164 -1.530457 0.374678
v -0.460516 -2.119367 0.145441
v -0.025444 -2.234306 0.271907
v 0.409628 -2.124072 0.14885
v -0.025577 -2.897081 -0.43799
vt 0.882057 0.561318
vt 0.885097 0.479235
vt 0.864534 0.480754
vt 0.861494 0.562837
vt 0.801358 0.643836
vt 0.871378 0.646198
vt 0.941397 0.64856
vt 0.940436 0.736481
vt 0.871399 0.735317
vt 0.802362 0.734153
vt 0.939475 0.824402
vt 0.871421 0.824436
vt 0.803366 0.82447
vt 0.871215 0.983264
vt 0.882057 0.561318
vt 0.864534 0.480754
vt 0.885097 0.479235
vt 0.861494 0.562837
vt 0.801358 0.643836
vt 0.871378 0.646198
vt 0.941397 0.64856
vt 0.940436 0.736481
vt 0.871399 0.735317
vt 0.802362 0.734153
vt 0.939475 0.824402
vt 0.871421 0.824436
vt 0.803366 0.82447
vt 0.871215 0.983264
vn 0.1555932 0.5311698 0.8328562
vn 0.4127517 0.4068493 0.8149292
vn 0.4127517 0.4068493 0.8149292
vn 0.4833354 0.5151741 0.7078012
vn 0.4312486 0.1556715 0.8887019
vn -0.02268574 0.2057643 0.9783386
vn -0.4839333 0.136027 0.8644682
vn -0.437244 -0.153045 0.8862251
vn -0.02018728 -0.177076 0.9839901
vn 0.4011208 -0.1656068 0.9009309
vn -0.3867342 -0.4600157 0.7992635
vn -0.008659715 -0.5419912 0.8403396
vn 0.3687194 -0.4698004 0.8020808
vn -0.007262175 -0.7309304 0.6824135
vn -0.1555932 -0.5311698 -0.8328562
vn -0.4127517 -0.4068493 -0.8149292
vn -0.4127517 -0.4068493 -0.8149292
vn -0.4833354 -0.5151741 -0.7078012
vn -0.4312486 -0.1556715 -0.8887019
vn 0.02268573 -0.2057643 -0.9783386
vn 0.4839333 -0.136027 -0.8644682
vn 0.437244 0.153045 -0.8862251
vn 0.02018728 0.177076 -0.9839901
vn -0.4011208 0.1656068 -0.9009309
vn 0.3867342 0.4600157 -0.7992635
vn 0.008659734 0.5419911 -0.8403396
vn -0.3687194 0.4698004 -0.8020808
vn 0.007262175 0.7309304 -0.6824135
g PalmLeaf_Atlas_0
f 3/3/3 2/2/2 1/1/1
f 4/4/4 3/3/3 1/1/1
f 5/5/5 4/4/4 1/1/1
f 6/6/6 5/5/5 1/1/1
f 6/6/6 1/1/1 7/7/7
f 6/6/6 7/7/7 8/8/8
f 5/5/5 6/6/6 9/9/9
f 9/9/9 6/6/6 8/8/8
f 10/10/10 5/5/5 9/9/9
f 9/9/9 8/8/8 11/11/11
f 10/10/10 9/9/9 12/12/12
f 12/12/12 9/9/9 11/11/11
f 13/13/13 10/10/10 12/12/12
f 12/12/12 11/11/11 14/14/14
f 12/12/12 14/14/14 13/13/13
f 17/17/17 16/16/16 15/15/15
f 16/16/16 18/18/18 15/15/15
f 18/18/18 19/19/19 15/15/15
f 19/19/19 20/20/20 15/15/15
f 15/15/15 20/20/20 21/21/21
f 21/21/21 20/20/20 22/22/22
f 20/20/20 19/19/19 23/23/23
f 20/20/20 23/23/23 22/22/22
f 19/19/19 24/24/24 23/23/23
f 22/22/22 23/23/23 25/25/25
f 23/23/23 24/24/24 26/26/26
f 23/23/23 26/26/26 25/25/25
f 24/24/24 27/27/27 26/26/26
f 25/25/25 26/26/26 28/28/28
f 28/28/28 26/26/26 27/27/27
