g PalmFenceSideLow
v 1.00199 0 0.906167
v 0.180516 0 0.906167
v 0.180516 0 1.185305
v 1.00199 0 1.185305
v 1.00199 0 0.422495
v 0.180516 0 0.422495
v 0.180516 0 0.701633
v 1.00199 0 0.701633
v 1.00199 0 0.906167
v 1.00199 0 1.185305
v 0.180516 0 1.185305
v 0.180516 0 0.906167
v 1.00199 0 0.422495
v 1.00199 0 0.701633
v 0.180516 0 0.701633
v 0.180516 0 0.422495
vt 0.645532 0.81553
vt 0.645532 0.984763
vt 0.715151 0.984763
vt 0.715151 0.81553
vt 0.646889 0.81553
vt 0.646889 0.984763
vt 0.716508 0.984763
vt 0.716508 0.81553
vt 0.645532 0.81553
vt 0.715151 0.81553
vt 0.715151 0.984763
vt 0.645532 0.984763
vt 0.646889 0.81553
vt 0.716508 0.81553
vt 0.716508 0.984763
vt 0.646889 0.984763
vn 0 -1 0
vn 0 -1 0
vn 0 -1 0
vn 0 -1 0
vn 0 -1 0
vn 0 -1 0
vn 0 -1 0
vn 0 -1 0
vn 0 1 0
vn 0 1 0
vn 0 1 0
vn 0 1 0
vn 0 1 0
vn 0 1 0
vn 0 1 0
vn 0 1 0
g PalmFenceSideLow_0
f 3/3/3 2/2/2 1/1/1
f 4/4/4 3/3/3 1/1/1
f 7/7/7 6/6/6 5/5/5
f 8/8/8 7/7/7 5/5/5
f 11/11/11 10/10/10 9/9/9
f 12/12/12 11/11/11 9/9/9
f 15/15/15 14/14/14 13/13/13
f 16/16/16 15/15/15 13/13/13
