g ParrotBeak
v -0.049439 0.022832 0.061711
v -0.015776 0.069561 -0.080502
v -0.015776 0.069561 -0.04895
v -0.049439 -0.012212 -0.037167
v -0.074788 -0.055816 0.111255
v -0.074788 -0.117249 -0.03832
v -0.015776 0.069561 -0.04895
v -0.015776 0.069561 -0.080502
v 0.015776 0.069561 -0.080502
v 0.015776 0.069561 -0.04895
v 0.049439 0.022832 0.061711
v -0.049439 0.022832 0.061711
v 0.074788 -0.055816 0.111255
v -0.074788 -0.055816 0.111255
v 0.049439 0.022832 0.061711
v 0.074788 -0.117249 -0.03832
v 0.074788 -0.055816 0.111255
v 0.049439 -0.012212 -0.037167
v 0.015776 0.069561 -0.04895
v 0.015776 0.069561 -0.080502
v 0.074788 -0.055816 0.111255
v 0.074788 -0.117249 -0.03832
v -0.074788 -0.117249 -0.03832
v -0.074788 -0.055816 0.111255
v -0.049439 -0.012212 -0.037167
v 0.015776 0.069561 -0.080502
v -0.015776 0.069561 -0.080502
v 0.049439 -0.012212 -0.037167
v -0.074788 -0.117249 -0.03832
v 0.074788 -0.117249 -0.03832
vn -0.6186525 0.6473226 0.4452445
vn -0.8353201 0.5425206 -0.08894787
vn -0.5726563 0.8045661 0.1572828
vn -0.7010502 0.1376053 -0.6997094
vn -0.7280118 0.5132149 0.4545429
vn -0.611093 0.1608673 -0.77504
vn -0.5726563 0.8045661 0.1572828
vn -0.8353201 0.5425206 -0.08894787
vn 0.8353201 0.5425206 -0.08894787
vn 0.5726563 0.8045661 0.1572828
vn 0.6186525 0.6473226 0.4452445
vn -0.6186525 0.6473226 0.4452445
vn 0.7280118 0.5132149 0.4545429
vn -0.7280118 0.5132149 0.4545429
vn 0.6186525 0.6473226 0.4452445
vn 0.611093 0.1608673 -0.77504
vn 0.7280118 0.5132149 0.4545429
vn 0.7010502 0.1376054 -0.6997094
vn 0.5726563 0.8045661 0.1572828
vn 0.8353201 0.5425206 -0.08894787
vn 0 -0.9250189 0.379921
vn 0 -0.9250189 0.379921
vn 0 -0.9250189 0.379921
vn 0 -0.9250189 0.379921
vn -0.7010502 0.1376053 -0.6997094
vn 0 -0.4682541 -0.8835939
vn 0 -0.4682541 -0.8835939
vn 0.7010502 0.1376054 -0.6997094
vn -0.611093 0.1608673 -0.77504
vn 0.611093 0.1608673 -0.77504
g ParrotBeak_0
f 3/3/3 2/2/2 1/1/1
f 2/2/2 4/4/4 1/1/1
f 1/1/1 4/4/4 5/5/5
f 4/4/4 6/6/6 5/5/5
f 9/9/9 8/8/8 7/7/7
f 10/10/10 9/9/9 7/7/7
f 10/10/10 7/7/7 11/11/11
f 7/7/7 12/12/12 11/11/11
f 11/11/11 12/12/12 13/13/13
f 12/12/12 14/14/14 13/13/13
f 17/17/17 16/16/16 15/15/15
f 16/16/16 18/18/18 15/15/15
f 15/15/15 18/18/18 19/19/19
f 18/18/18 20/20/20 19/19/19
f 23/23/23 22/22/22 21/21/21
f 24/24/24 23/23/23 21/21/21
f 27/27/27 26/26/26 25/25/25
f 26/26/26 28/28/28 25/25/25
f 25/25/25 28/28/28 29/29/29
f 28/28/28 30/30/30 29/29/29
