g PartyHornExpand
v -0.041872 0.041905 2E-06
v -0.041882 -0.041894 -4E-06
v -0.022677 -0.054724 0
v -0.05473 0.02267 2E-06
v -0.05472 -0.022696 -3E-06
v -0.059239 -2.3E-05 1E-06
v -0.041872 0.041905 2E-06
v -0.05473 0.02267 2E-06
v -0.041882 -0.041894 -4E-06
v -0.007069 -0.0935 1.358959
v -0.013045 -0.071579 1.358956
v -0.013042 0.071598 1.358961
v -0.01704 -0.038777 1.358956
v -0.017043 0.038733 1.358961
v -0.01704 -0.038777 1.358956
v -0.018446 -4E-05 1.358961
v -0.017043 0.038733 1.358961
v -0.013045 -0.071579 1.358956
v -0.013042 0.071598 1.358961
v -0.007069 -0.0935 1.358959
v -0.007058 0.093529 1.358957
v -1.3E-05 -0.101205 1.35896
v 0.054722 -0.022666 1E-06
v 0.059231 2E-06 1E-06
v 0.054722 0.022671 1E-06
v 0.041881 -0.041884 1E-06
v 0.041881 0.041888 1E-06
v 0.022664 -0.054725 1E-06
v 0.022661 0.05473 1E-06
v -5E-06 -0.059234 1E-06
v 8E-06 0.059239 -3E-06
v 8E-06 0.059239 -3E-06
v -0.022644 0.054741 -3E-06
v -5E-06 -0.059234 1E-06
v -0.022677 -0.054724 0
v -0.041872 0.041905 2E-06
v 0.017017 0.038734 1.35896
v 0.01842 3E-06 1.35896
v 0.017017 -0.038727 1.35896
v 0.013021 0.071569 1.35896
v 0.013021 -0.071562 1.35896
v 0.00704 0.093511 1.35896
v 0.007041 -0.093501 1.35896
v -1.3E-05 -0.101205 1.35896
v -9E-06 0.101214 1.358956
v -0.007058 0.093529 1.358957
v -5E-06 -0.059234 1E-06
v -1.3E-05 -0.101205 1.35896
v 0.007041 -0.093501 1.35896
v 0.022664 -0.054725 1E-06
v 0.013021 -0.071562 1.35896
v 0.041881 -0.041884 1E-06
v 0.017017 -0.038727 1.35896
v 0.054722 -0.022666 1E-06
v 0.01842 3E-06 1.35896
v 0.059231 2E-06 1E-06
v 0.017017 0.038734 1.35896
v 0.054722 0.022671 1E-06
v 0.013021 0.071569 1.35896
v 0.041881 0.041888 1E-06
v 0.00704 0.093511 1.35896
v 0.022661 0.05473 1E-06
v -9E-06 0.101214 1.358956
v 8E-06 0.059239 -3E-06
v 8E-06 0.059239 -3E-06
v -9E-06 0.101214 1.358956
v -0.007058 0.093529 1.358957
v -0.022644 0.054741 -3E-06
v -0.013042 0.071598 1.358961
v -0.041872 0.041905 2E-06
v -0.017043 0.038733 1.358961
v -0.05473 0.02267 2E-06
v -0.018446 -4E-05 1.358961
v -0.059239 -2.3E-05 1E-06
v -0.01704 -0.038777 1.358956
v -0.05472 -0.022696 -3E-06
v -0.013045 -0.071579 1.358956
v -0.041882 -0.041894 -4E-06
v -0.007069 -0.0935 1.358959
v -0.022677 -0.054724 0
v -1.3E-05 -0.101205 1.35896
v -5E-06 -0.059234 1E-06
vt 0.698626 0.042144
vt 0.698625 0.060215
vt 0.698626 0.062982
vt 0.698627 0.046292
vt 0.698625 0.056075
vt 0.698626 0.051186
vt 0.698626 0.042144
vt 0.698627 0.046292
vt 0.698625 0.060215
vt 0.991678 0.071343
vt 0.991677 0.066616
vt 0.991678 0.035741
vt 0.991677 0.059543
vt 0.991678 0.042828
vt 0.991677 0.059543
vt 0.991678 0.051189
vt 0.991678 0.042828
vt 0.991677 0.066616
vt 0.991678 0.035741
vt 0.991678 0.071343
vt 0.991677 0.031012
vt 0.991678 0.073005
vt 0.698626 0.056069
vt 0.698626 0.05118
vt 0.698626 0.046292
vt 0.698626 0.060213
vt 0.698626 0.042148
vt 0.698626 0.062982
vt 0.698626 0.039379
vt 0.698626 0.063954
vt 0.698625 0.038406
vt 0.698625 0.038406
vt 0.698626 0.039376
vt 0.698626 0.063954
vt 0.698626 0.062982
vt 0.698626 0.042144
vt 0.991678 0.042828
vt 0.991678 0.05118
vt 0.991678 0.059532
vt 0.991678 0.035747
vt 0.991678 0.066613
vt 0.991678 0.031016
vt 0.991678 0.071344
vt 0.991678 0.073005
vt 0.991677 0.029355
vt 0.991677 0.031012
vt 0.698626 0.063954
vt 0.991678 0.073005
vt 0.991678 0.071344
vt 0.698626 0.062982
vt 0.991678 0.066613
vt 0.698626 0.060213
vt 0.991678 0.059532
vt 0.698626 0.056069
vt 0.991678 0.05118
vt 0.698626 0.05118
vt 0.991678 0.042828
vt 0.698626 0.046292
vt 0.991678 0.035747
vt 0.698626 0.042148
vt 0.991678 0.031016
vt 0.698626 0.039379
vt 0.991677 0.029355
vt 0.698625 0.038406
vt 0.698625 0.038406
vt 0.991677 0.029355
vt 0.991677 0.031012
vt 0.698626 0.039376
vt 0.991678 0.035741
vt 0.698626 0.042144
vt 0.991678 0.042828
vt 0.698627 0.046292
vt 0.991678 0.051189
vt 0.698626 0.051186
vt 0.991677 0.059543
vt 0.698625 0.056075
vt 0.991677 0.066616
vt 0.698625 0.060215
vt 0.991678 0.071343
vt 0.698626 0.062982
vt 0.991678 0.073005
vt 0.698626 0.063954
vn 0 0 -1
vn 0 0 -1
vn 0 0 -1
vn 0 0 -1
vn 0 0 -1
vn 0 0 -1
vn 0 0 -1
vn 0 0 -1
vn 0 0 -1
vn 0 0 1
vn 0 0 1
vn 0 0 1
vn 0 0 1
vn 0 0 1
vn 0 0 1
vn 0 0 1
vn 0 0 1
vn 0 0 1
vn 0 0 1
vn 0 0 1
vn 0 0 1
vn 0 0 1
vn 0 0 -1
vn 0 0 -1
vn 0 0 -1
vn 0 0 -1
vn 0 0 -1
vn 0 0 -1
vn 0 0 -1
vn 0 0 -1
vn 0 0 -1
vn 0 0 -1
vn 0 0 -1
vn 0 0 -1
vn 0 0 -1
vn 0 0 -1
vn 0 0 1
vn 0 0 1
vn 0 0 1
vn 0 0 1
vn 0 0 1
vn 0 0 1
vn 0 0 1
vn 0 0 1
vn 0 0 1
vn 0 0 1
vn 0 -0.9996263 -0.02733818
vn 0 -0.9996263 -0.02733818
vn 0.6460815 -0.763168 -0.01238039
vn 0.652917 -0.7573346 -0.01198515
vn 0.8989407 -0.4379686 0.00944087
vn 0.9013281 -0.4330264 0.00978457
vn 0.9800214 -0.1974937 0.02354456
vn 0.9804944 -0.1951179 0.02365677
vn 0.9995993 0 0.02830791
vn 0.9995993 0 0.02830791
vn 0.9800218 0.1974921 0.02354429
vn 0.9804949 0.1951161 0.02365652
vn 0.8989301 0.4379902 0.009438415
vn 0.901318 0.4330475 0.009782187
vn 0.6462516 0.7630242 -0.01237491
vn 0.6530452 0.7572241 -0.01198192
vn 0.0005236954 0.9996259 -0.02734582
vn 0.0004737974 0.9996259 -0.02734583
vn 0.0004737974 0.9996259 -0.02734583
vn 0.0005236954 0.9996259 -0.02734582
vn -0.6458048 0.7634017 -0.01240772
vn -0.6526052 0.7576028 -0.01201496
vn -0.8988591 0.4381366 0.009416414
vn -0.9012414 0.4332075 0.009759186
vn -0.9800234 0.1974857 0.02352875
vn -0.9804971 0.1951063 0.02364113
vn -0.9995998 -0.0001050985 0.02829275
vn -0.9995998 -0.0001135428 0.02829275
vn -0.9799932 -0.1976358 0.0235257
vn -0.9804647 -0.1952697 0.02363752
vn -0.8988578 -0.438139 0.009418269
vn -0.9012507 -0.4331879 0.009762598
vn -0.6459242 -0.7633009 -0.012398
vn -0.6527886 -0.7574451 -0.01200129
vn 0 -0.9996263 -0.02733818
vn 0 -0.9996263 -0.02733818
g PartyHornExpand_0
f 3/3/3 2/2/2 1/1/1
f 2/2/2 5/5/5 4/4/4
f 5/5/5 6/6/6 4/4/4
f 9/9/9 8/8/8 7/7/7
f 12/12/12 11/11/11 10/10/10
f 14/14/14 13/13/13 11/11/11
f 17/17/17 16/16/16 15/15/15
f 19/19/19 17/17/17 18/18/18
f 21/21/21 19/19/19 20/20/20
f 21/21/21 20/20/20 22/22/22
f 25/25/25 24/24/24 23/23/23
f 23/23/23 26/26/26 25/25/25
f 26/26/26 27/27/27 25/25/25
f 26/26/26 28/28/28 27/27/27
f 28/28/28 29/29/29 27/27/27
f 28/28/28 30/30/30 29/29/29
f 30/30/30 31/31/31 29/29/29
f 34/34/34 33/33/33 32/32/32
f 34/34/34 35/35/35 33/33/33
f 35/35/35 36/36/36 33/33/33
f 39/39/39 38/38/38 37/37/37
f 37/37/37 40/40/40 39/39/39
f 40/40/40 41/41/41 39/39/39
f 40/40/40 42/42/42 41/41/41
f 42/42/42 43/43/43 41/41/41
f 42/42/42 44/44/44 43/43/43
f 42/42/42 45/45/45 44/44/44
f 45/45/45 46/46/46 44/44/44
f 49/49/49 48/48/48 47/47/47
f 50/50/50 49/49/49 47/47/47
f 51/51/51 49/49/49 50/50/50
f 52/52/52 51/51/51 50/50/50
f 53/53/53 51/51/51 52/52/52
f 54/54/54 53/53/53 52/52/52
f 55/55/55 53/53/53 54/54/54
f 56/56/56 55/55/55 54/54/54
f 57/57/57 55/55/55 56/56/56
f 58/58/58 57/57/57 56/56/56
f 59/59/59 57/57/57 58/58/58
f 60/60/60 59/59/59 58/58/58
f 61/61/61 59/59/59 60/60/60
f 62/62/62 61/61/61 60/60/60
f 63/63/63 61/61/61 62/62/62
f 64/64/64 63/63/63 62/62/62
f 67/67/67 66/66/66 65/65/65
f 68/68/68 67/67/67 65/65/65
f 69/69/69 67/67/67 68/68/68
f 70/70/70 69/69/69 68/68/68
f 71/71/71 69/69/69 70/70/70
f 72/72/72 71/71/71 70/70/70
f 73/73/73 71/71/71 72/72/72
f 74/74/74 73/73/73 72/72/72
f 75/75/75 73/73/73 74/74/74
f 76/76/76 75/75/75 74/74/74
f 77/77/77 75/75/75 76/76/76
f 78/78/78 77/77/77 76/76/76
f 79/79/79 77/77/77 78/78/78
f 80/80/80 79/79/79 78/78/78
f 81/81/81 79/79/79 80/80/80
f 82/82/82 81/81/81 80/80/80
