g Peak_Roof_4x4
v -4 -4 4
v 4 -4 4
v 4 4 4
v -4 4 4
v -1.459883 -1.459883 6.409058
v -1.459883 1.459883 6.409058
v 1.459883 1.459883 6.409058
v 1.459883 -1.459883 6.409058
v -4 4 4
v -1.459883 1.459883 6.409058
v -1.459883 -1.459883 6.409058
v -4 -4 4
v 4 4 4
v 1.459883 1.459883 6.409058
v -1.459883 1.459883 6.409058
v -4 4 4
v -4 -4 4
v -1.459883 -1.459883 6.409058
v 1.459883 -1.459883 6.409058
v 4 -4 4
v 4 -4 4
v 1.459883 -1.459883 6.409058
v 1.459883 1.459883 6.409058
v 4 4 4
vt 0 0
vt 1 0
vt 1 1
vt 0 1
vt 0.320631 0.438446
vt 0.320632 0.797183
vt 0.679369 0.797183
vt 0.679369 0.438446
vt 6.6E-05 6.6E-05
vt 0.317539 0.437611
vt 0.682461 0.437611
vt 0.999934 6.6E-05
vt 6.6E-05 6.6E-05
vt 0.317539 0.437611
vt 0.682461 0.437611
vt 0.999934 6.6E-05
vt 6.6E-05 6.6E-05
vt 0.317539 0.437611
vt 0.682461 0.437611
vt 0.999934 6.6E-05
vt 6.6E-05 6.6E-05
vt 0.317539 0.437611
vt 0.682461 0.437611
vt 0.999934 6.6E-05
vn 0 0 -1
vn 0 0 -1
vn 0 0 -1
vn 0 0 -1
vn -0.2898341 -0.2898341 0.9121361
vn -0.2898341 0.2898341 0.9121361
vn 0.2898341 0.2898341 0.9121361
vn 0.2898341 -0.2898341 0.9121361
vn -0.3938394 0.3938394 0.8305306
vn -0.2898341 0.2898341 0.9121361
vn -0.2898341 -0.2898341 0.9121361
vn -0.3938394 -0.3938394 0.8305306
vn 0.3938394 0.3938394 0.8305306
vn 0.2898341 0.2898341 0.9121361
vn -0.2898341 0.2898341 0.9121361
vn -0.3938394 0.3938394 0.8305306
vn -0.3938394 -0.3938394 0.8305306
vn -0.2898341 -0.2898341 0.9121361
vn 0.2898341 -0.2898341 0.9121361
vn 0.3938394 -0.3938394 0.8305306
vn 0.3938394 -0.3938394 0.8305306
vn 0.2898341 -0.2898341 0.9121361
vn 0.2898341 0.2898341 0.9121361
vn 0.3938394 0.3938394 0.8305306
g Peak_Roof_4x4_0
f 3/3/3 2/2/2 1/1/1
f 4/4/4 3/3/3 1/1/1
f 7/7/7 6/6/6 5/5/5
f 8/8/8 7/7/7 5/5/5
f 11/11/11 10/10/10 9/9/9
f 12/12/12 11/11/11 9/9/9
f 15/15/15 14/14/14 13/13/13
f 16/16/16 15/15/15 13/13/13
f 19/19/19 18/18/18 17/17/17
f 20/20/20 19/19/19 17/17/17
f 23/23/23 22/22/22 21/21/21
f 24/24/24 23/23/23 21/21/21
