g PhotoFrame_Black
v -0.286306 0.06688 -0.007372
v -0.286306 -0.048297 0.495175
v 0.286306 -0.048297 0.495175
v 0.286306 0.06688 -0.007372
v 0.240101 0.087895 0.036003
v 0.240101 0.077742 0.033676
v -0.240101 0.077742 0.033676
v -0.240101 0.087895 0.036003
v 0.286306 -0.048297 0.495175
v 0.286306 -0.018885 0.501916
v 0.286306 0.096292 -0.000632
v 0.286306 0.06688 -0.007372
v 0.286306 0.06688 -0.007372
v 0.286306 0.096292 -0.000632
v -0.286306 0.096291 -0.000632
v -0.286306 0.06688 -0.007372
v -0.286306 -0.048297 0.495175
v -0.286306 -0.018885 0.501916
v 0.286306 -0.018885 0.501916
v 0.286306 -0.048297 0.495175
v -0.286306 0.06688 -0.007372
v -0.286306 0.096291 -0.000632
v -0.286306 -0.018885 0.501916
v -0.286306 -0.048297 0.495175
v -0.043359 -0.107428 -0.013927
v -0.043359 0.007158 0.31655
v -0.043359 -0.008635 0.32746
v -0.043359 -0.12677 -0.009495
v -0.043359 0.007158 0.31655
v 0.043359 0.007158 0.31655
v 0.043359 -0.008635 0.32746
v -0.043359 -0.008635 0.32746
v 0.043359 -0.107428 -0.013927
v -0.043359 -0.107428 -0.013927
v -0.043359 -0.12677 -0.009495
v 0.043359 -0.12677 -0.009495
v 0.043359 0.007158 0.31655
v 0.043359 -0.107428 -0.013927
v 0.043359 -0.12677 -0.009495
v 0.043359 -0.008635 0.32746
v -0.043359 -0.12677 -0.009495
v -0.043359 -0.008635 0.32746
v 0.043359 -0.008635 0.32746
v 0.043359 -0.12677 -0.009495
v -0.043359 -0.107428 -0.013927
v 0.043359 -0.107428 -0.013927
v 0.043359 0.007158 0.31655
v -0.043359 0.007158 0.31655
v -0.240101 0.077742 0.033676
v 0.240101 0.077742 0.033676
v 0.240101 -0.020642 0.462955
v -0.240101 -0.020642 0.462955
v -0.240101 -0.010489 0.465282
v -0.240101 -0.020642 0.462955
v 0.240101 -0.020642 0.462955
v 0.240101 -0.010489 0.465282
v -0.240101 0.087895 0.036003
v -0.240101 0.077742 0.033676
v -0.240101 -0.020642 0.462955
v -0.240101 -0.010489 0.465282
v 0.240101 -0.010489 0.465282
v 0.240101 -0.020642 0.462955
v 0.240101 0.077742 0.033676
v 0.240101 0.087895 0.036003
v -0.240101 -0.010489 0.465282
v -0.286306 -0.018885 0.501916
v -0.286306 0.096291 -0.000632
v -0.240101 0.087895 0.036003
v 0.240101 -0.010489 0.465282
v 0.286306 0.096292 -0.000632
v 0.286306 -0.018885 0.501916
v 0.240101 0.087895 0.036003
vt 0.503545 0.886965
vt 0.503496 0.890662
vt 0.506849 0.891055
vt 0.506897 0.887357
vt 0.518964 0.861986
vt 0.523155 0.864268
vt 0.649906 0.865295
vt 0.652988 0.861867
vt 0.506849 0.891055
vt 0.507145 0.891329
vt 0.507145 0.887086
vt 0.506897 0.887357
vt 0.506897 0.887357
vt 0.507145 0.887086
vt 0.503249 0.886691
vt 0.503545 0.886965
vt 0.503496 0.890662
vt 0.503249 0.890933
vt 0.507145 0.891329
vt 0.506849 0.891055
vt 0.503545 0.886965
vt 0.503249 0.886691
vt 0.503249 0.890933
vt 0.503496 0.890662
vt 0.507408 0.886691
vt 0.507962 0.890647
vt 0.507782 0.890816
vt 0.507164 0.886899
vt 0.074219 0.007812
vt 0.074219 0.007812
vt 0.074219 0.007812
vt 0.074219 0.007812
vt 0.074219 0.007812
vt 0.074219 0.007812
vt 0.074219 0.007812
vt 0.074219 0.007812
vt 0.507748 0.890601
vt 0.507146 0.886925
vt 0.507421 0.886925
vt 0.507923 0.890629
vt 0.507164 0.886899
vt 0.507782 0.890816
vt 0.507923 0.890629
vt 0.507421 0.886925
vt 0.507408 0.886691
vt 0.507146 0.886925
vt 0.507748 0.890601
vt 0.507962 0.890647
vt 0.649906 0.865295
vt 0.523155 0.864268
vt 0.522656 0.971295
vt 0.649406 0.972321
vt 0.653598 0.974602
vt 0.649406 0.972321
vt 0.522656 0.971295
vt 0.519574 0.974722
vt 0.652988 0.861867
vt 0.649906 0.865295
vt 0.649406 0.972321
vt 0.653598 0.974602
vt 0.519574 0.974722
vt 0.522656 0.971295
vt 0.523155 0.864268
vt 0.518964 0.861986
vt 0.653598 0.974602
vt 0.664715 0.98334
vt 0.664716 0.852914
vt 0.652988 0.861867
vt 0.519574 0.974722
vt 0.507847 0.853249
vt 0.507847 0.983675
vt 0.518964 0.861986
vn 0 -0.974728 -0.2233945
vn 0 -0.974728 -0.2233945
vn 0 -0.974728 -0.2233945
vn 0 -0.974728 -0.2233945
vn 0 -0.2234012 0.9747266
vn 0 -0.2234012 0.9747266
vn 0 -0.2234012 0.9747266
vn 0 -0.2234012 0.9747266
vn 1 0 0
vn 1 0 0
vn 1 0 0
vn 1 0 0
vn 0 0.2233719 -0.9747332
vn 0 0.2233719 -0.9747332
vn 0 0.2233719 -0.9747332
vn 0 0.2233719 -0.9747332
vn 0 -0.2233994 0.974727
vn 0 -0.2233994 0.974727
vn 0 -0.2233994 0.974727
vn 0 -0.2233994 0.974727
vn -1 0 0
vn -1 0 0
vn -1 0 0
vn -1 0 0
vn -1 0 0
vn -1 0 0
vn -1 0 0
vn -1 0 0
vn 0 0.9605865 -0.2779814
vn 0 0.9605865 -0.2779814
vn 0 0.5683782 0.8227674
vn 0 0.5683782 0.8227674
vn 0 0.9250032 -0.3799594
vn 0 0.9250032 -0.3799594
vn 0 -0.2233501 -0.9747382
vn 0 -0.2233501 -0.9747382
vn 1 0 0
vn 1 0 0
vn 1 0 0
vn 1 0 0
vn 0 -0.9436829 0.3308513
vn 0 -0.9436829 0.3308513
vn 0 -0.9436829 0.3308513
vn 0 -0.9436829 0.3308513
vn 0 0.9250032 -0.3799594
vn 0 0.9250032 -0.3799594
vn 0 0.9605865 -0.2779814
vn 0 0.9605865 -0.2779814
vn 0 0.9747286 0.2233924
vn 0 0.9747286 0.2233924
vn 0 0.9747286 0.2233924
vn 0 0.9747286 0.2233924
vn 0 0.2234004 -0.9747268
vn 0 0.2234004 -0.9747268
vn 0 0.2234004 -0.9747268
vn 0 0.2234004 -0.9747268
vn 1 0 0
vn 1 0 0
vn 1 0 0
vn 1 0 0
vn -1 0 0
vn -1 0 0
vn -1 0 0
vn -1 0 0
vn 0 0.9747284 0.2233932
vn 0 0.9747284 0.223393
vn 0 0.9747278 0.2233959
vn 0 0.9747277 0.2233966
vn 0 0.9747283 0.2233937
vn 0 0.9747277 0.2233964
vn 0 0.9747283 0.2233936
vn 0 0.9747276 0.2233971
g PhotoFrame_Black_0
f 3/3/3 2/2/2 1/1/1
f 4/4/4 3/3/3 1/1/1
f 7/7/7 6/6/6 5/5/5
f 8/8/8 7/7/7 5/5/5
f 11/11/11 10/10/10 9/9/9
f 12/12/12 11/11/11 9/9/9
f 15/15/15 14/14/14 13/13/13
f 16/16/16 15/15/15 13/13/13
f 19/19/19 18/18/18 17/17/17
f 20/20/20 19/19/19 17/17/17
f 23/23/23 22/22/22 21/21/21
f 24/24/24 23/23/23 21/21/21
f 27/27/27 26/26/26 25/25/25
f 28/28/28 27/27/27 25/25/25
f 31/31/31 30/30/30 29/29/29
f 32/32/32 31/31/31 29/29/29
f 35/35/35 34/34/34 33/33/33
f 36/36/36 35/35/35 33/33/33
f 39/39/39 38/38/38 37/37/37
f 40/40/40 39/39/39 37/37/37
f 43/43/43 42/42/42 41/41/41
f 44/44/44 43/43/43 41/41/41
f 47/47/47 46/46/46 45/45/45
f 48/48/48 47/47/47 45/45/45
f 51/51/51 50/50/50 49/49/49
f 52/52/52 51/51/51 49/49/49
f 55/55/55 54/54/54 53/53/53
f 56/56/56 55/55/55 53/53/53
f 59/59/59 58/58/58 57/57/57
f 60/60/60 59/59/59 57/57/57
f 63/63/63 62/62/62 61/61/61
f 64/64/64 63/63/63 61/61/61
f 67/67/67 66/66/66 65/65/65
f 68/68/68 67/67/67 65/65/65
f 65/65/65 66/66/66 69/69/69
f 70/70/70 67/67/67 68/68/68
f 66/66/66 71/71/71 69/69/69
f 72/72/72 70/70/70 68/68/68
f 69/69/69 71/71/71 72/72/72
f 71/71/71 70/70/70 72/72/72
