g PicketFence_Post
v -0.059364 -0.028416 0.997513
v 1 -0.028416 0.997513
v 1 -0.028416 0.791661
v -0.059364 -0.028416 0.791661
v -0.059364 -0.028416 0.791661
v 1 -0.028416 0.791661
v 1 0.028416 0.791661
v -0.059364 0.028416 0.791661
v -0.059364 0.028416 0.997513
v 1 0.028416 0.997513
v 1 -0.028416 0.997513
v -0.059364 -0.028416 0.997513
v -0.059364 0.028416 0.791661
v 1 0.028416 0.791661
v 1 0.028416 0.997513
v -0.059364 0.028416 0.997513
v 1 0.028416 0.791661
v 1 -0.028416 0.791661
v 1 -0.028416 0.997513
v 1 0.028416 0.997513
v -0.059364 0.028416 0.791661
v -0.059364 0.028416 0.997513
v -0.059364 -0.028416 0.997513
v -0.059364 -0.028416 0.791661
v 0.696842 -0.044844 -0.002373
v 0.696842 0.044844 -0.002373
v 0.657968 0.044844 1.285748
v 0.657968 -0.044844 1.285748
v 0.787277 -0.044844 1.483151
v 0.787277 0.044844 1.483151
v 0.812723 0.044844 1.483151
v 0.812723 -0.044844 1.483151
v 0.942032 -0.044844 1.285748
v 0.942032 0.044844 1.285748
v 0.903157 0.044844 -0.002373
v 0.903157 -0.044844 -0.002373
v 0.696842 0.044844 -0.002373
v 0.903157 0.044844 -0.002373
v 0.942032 0.044844 1.285748
v 0.657968 0.044844 1.285748
v 0.787277 0.044844 1.483151
v 0.812723 0.044844 1.483151
v 0.903157 -0.044844 -0.002373
v 0.696842 -0.044844 -0.002373
v 0.657968 -0.044844 1.285748
v 0.942032 -0.044844 1.285748
v 0.812723 -0.044844 1.483151
v 0.787277 -0.044844 1.483151
v 0.696842 0.044844 -0.002373
v 0.696842 -0.044844 -0.002373
v 0.903157 -0.044844 -0.002373
v 0.903157 0.044844 -0.002373
v 0.246842 -0.044844 -0.002373
v 0.246842 0.044844 -0.002373
v 0.207968 0.044844 1.285748
v 0.207968 -0.044844 1.285748
v 0.337277 -0.044844 1.483151
v 0.337277 0.044844 1.483151
v 0.362723 0.044844 1.483151
v 0.362723 -0.044844 1.483151
v 0.492032 -0.044844 1.285748
v 0.492032 0.044844 1.285748
v 0.453157 0.044844 -0.002373
v 0.453157 -0.044844 -0.002373
v 0.246842 0.044844 -0.002373
v 0.453157 0.044844 -0.002373
v 0.492032 0.044844 1.285748
v 0.207968 0.044844 1.285748
v 0.337277 0.044844 1.483151
v 0.362723 0.044844 1.483151
v 0.453157 -0.044844 -0.002373
v 0.246842 -0.044844 -0.002373
v 0.207968 -0.044844 1.285748
v 0.492032 -0.044844 1.285748
v 0.362723 -0.044844 1.483151
v 0.337277 -0.044844 1.483151
v 0.246842 0.044844 -0.002373
v 0.246842 -0.044844 -0.002373
v 0.453157 -0.044844 -0.002373
v 0.453157 0.044844 -0.002373
v -0.059364 -0.028416 0.454286
v 1 -0.028416 0.454286
v 1 -0.028416 0.248434
v -0.059364 -0.028416 0.248434
v -0.059364 -0.028416 0.248434
v 1 -0.028416 0.248434
v 1 0.028416 0.248434
v -0.059364 0.028416 0.248434
v -0.059364 0.028416 0.454286
v 1 0.028416 0.454286
v 1 -0.028416 0.454286
v -0.059364 -0.028416 0.454286
v -0.059364 0.028416 0.248434
v 1 0.028416 0.248434
v 1 0.028416 0.454286
v -0.059364 0.028416 0.454286
v 1 0.028416 0.248434
v 1 -0.028416 0.248434
v 1 -0.028416 0.454286
v 1 0.028416 0.454286
v -0.059364 0.028416 0.248434
v -0.059364 0.028416 0.454286
v -0.059364 -0.028416 0.454286
v -0.059364 -0.028416 0.248434
vt 0.103299 0.270375
vt 0.103299 0.019258
vt 0.035493 0.019258
vt 0.035493 0.270375
vt 0.106892 0.26864
vt 0.106892 0.129797
vt 0.111858 0.129797
vt 0.111858 0.26864
vt 0.111858 0.26864
vt 0.111858 0.129797
vt 0.106892 0.129797
vt 0.106892 0.26864
vt 0.035493 0.270375
vt 0.035493 0.019258
vt 0.103299 0.019258
vt 0.103299 0.270375
vt 0 0
vt 0 0
vt 0 0
vt 0 0
vt 0 0
vt 0 0
vt 0 0
vt 0 0
vt 0.012329 0.182195
vt 0.02203 0.182195
vt 0.02203 0.182195
vt 0.012329 0.182195
vt 0.012329 0.166861
vt 0.02203 0.166861
vt 0.02203 0.158701
vt 0.012329 0.158701
vt 0.012329 0.143367
vt 0.02203 0.143367
vt 0.02203 0.143367
vt 0.012329 0.143367
vt 0.048089 0.032104
vt 0.084961 0.032104
vt 0.084961 0.230574
vt 0.048089 0.230574
vt 0.062651 0.260989
vt 0.0704 0.260989
vt 0.084961 0.032104
vt 0.048089 0.032104
vt 0.048089 0.230574
vt 0.084961 0.230574
vt 0.0704 0.260989
vt 0.062651 0.260989
vt 0.02203 0.182195
vt 0.012329 0.182195
vt 0.012329 0.143367
vt 0.02203 0.143367
vt 0.012329 0.182379
vt 0.02203 0.182379
vt 0.02203 0.182379
vt 0.012329 0.182379
vt 0.012329 0.167045
vt 0.02203 0.167045
vt 0.02203 0.158885
vt 0.012329 0.158885
vt 0.012329 0.14355
vt 0.02203 0.14355
vt 0.02203 0.14355
vt 0.012329 0.14355
vt 0.047915 0.032104
vt 0.084787 0.032104
vt 0.084787 0.230574
vt 0.047915 0.230574
vt 0.062476 0.260989
vt 0.070225 0.260989
vt 0.084787 0.032104
vt 0.047915 0.032104
vt 0.047915 0.230574
vt 0.084787 0.230574
vt 0.070225 0.260989
vt 0.062476 0.260989
vt 0.02203 0.182379
vt 0.012329 0.182379
vt 0.012329 0.14355
vt 0.02203 0.14355
vt 0.10294 0.270375
vt 0.10294 0.019258
vt 0.035134 0.019258
vt 0.035134 0.270375
vt 0.106892 0.26864
vt 0.106892 0.129797
vt 0.111858 0.129797
vt 0.111858 0.26864
vt 0.111858 0.26864
vt 0.111858 0.129797
vt 0.106892 0.129797
vt 0.106892 0.26864
vt 0.035134 0.270375
vt 0.035134 0.019258
vt 0.10294 0.019258
vt 0.10294 0.270375
vt 0 0
vt 0 0
vt 0 0
vt 0 0
vt 0 0
vt 0 0
vt 0 0
vt 0 0
vn 0 -1 0
vn 0 -1 0
vn 0 -1 0
vn 0 -1 0
vn 0 0 -1
vn 0 0 -1
vn 0 0 -1
vn 0 0 -1
vn 0 0 1
vn 0 0 1
vn 0 0 1
vn 0 0 1
vn 0 1 0
vn 0 1 0
vn 0 1 0
vn 0 1 0
vn 1 0 0
vn 1 0 0
vn 1 0 0
vn 1 0 0
vn -1 0 0
vn -1 0 0
vn -1 0 0
vn -1 0 0
vn -0.9995449 0 -0.03016514
vn -0.9995449 0 -0.03016514
vn -0.9981521 0 0.06076498
vn -0.9981521 0 0.06076498
vn -0.7869906 0 0.6169651
vn -0.7869906 0 0.6169651
vn 0.7869906 0 0.6169651
vn 0.7869906 0 0.6169651
vn 0.9981521 0 0.06076434
vn 0.9981521 0 0.06076434
vn 0.9995449 0 -0.03016587
vn 0.9995449 0 -0.03016587
vn 0 1 0
vn 0 1 0
vn 0 1 0
vn 0 1 0
vn 0 1 0
vn 0 1 0
vn 0 -1 0
vn 0 -1 0
vn 0 -1 0
vn 0 -1 0
vn 0 -1 0
vn 0 -1 0
vn 0 0 -1
vn 0 0 -1
vn 0 0 -1
vn 0 0 -1
vn -0.9995449 0 -0.03016511
vn -0.9995449 0 -0.03016511
vn -0.9981521 0 0.06076501
vn -0.9981521 0 0.06076501
vn -0.7869906 0 0.6169651
vn -0.7869906 0 0.6169651
vn 0.7869906 0 0.6169651
vn 0.7869906 0 0.6169651
vn 0.9981521 0 0.06076434
vn 0.9981521 0 0.06076434
vn 0.9995449 0 -0.03016587
vn 0.9995449 0 -0.03016587
vn 0 1 0
vn 0 1 0
vn 0 1 0
vn 0 1 0
vn 0 1 0
vn 0 1 0
vn 0 -1 0
vn 0 -1 0
vn 0 -1 0
vn 0 -1 0
vn 0 -1 0
vn 0 -1 0
vn 0 0 -1
vn 0 0 -1
vn 0 0 -1
vn 0 0 -1
vn 0 -1 0
vn 0 -1 0
vn 0 -1 0
vn 0 -1 0
vn 0 0 -1
vn 0 0 -1
vn 0 0 -1
vn 0 0 -1
vn 0 0 1
vn 0 0 1
vn 0 0 1
vn 0 0 1
vn 0 1 0
vn 0 1 0
vn 0 1 0
vn 0 1 0
vn 1 0 0
vn 1 0 0
vn 1 0 0
vn 1 0 0
vn -1 0 0
vn -1 0 0
vn -1 0 0
vn -1 0 0
g PicketFence_Post_0
f 3/3/3 2/2/2 1/1/1
f 4/4/4 3/3/3 1/1/1
f 7/7/7 6/6/6 5/5/5
f 8/8/8 7/7/7 5/5/5
f 11/11/11 10/10/10 9/9/9
f 12/12/12 11/11/11 9/9/9
f 15/15/15 14/14/14 13/13/13
f 16/16/16 15/15/15 13/13/13
f 19/19/19 18/18/18 17/17/17
f 20/20/20 19/19/19 17/17/17
f 23/23/23 22/22/22 21/21/21
f 24/24/24 23/23/23 21/21/21
f 27/27/27 26/26/26 25/25/25
f 28/28/28 27/27/27 25/25/25
f 28/28/28 29/29/29 27/27/27
f 29/29/29 30/30/30 27/27/27
f 30/30/30 29/29/29 31/31/31
f 29/29/29 32/32/32 31/31/31
f 31/31/31 32/32/32 33/33/33
f 34/34/34 31/31/31 33/33/33
f 34/34/34 33/33/33 35/35/35
f 33/33/33 36/36/36 35/35/35
f 39/39/39 38/38/38 37/37/37
f 40/40/40 39/39/39 37/37/37
f 40/40/40 41/41/41 39/39/39
f 41/41/41 42/42/42 39/39/39
f 45/45/45 44/44/44 43/43/43
f 46/46/46 45/45/45 43/43/43
f 46/46/46 47/47/47 45/45/45
f 47/47/47 48/48/48 45/45/45
f 51/51/51 50/50/50 49/49/49
f 52/52/52 51/51/51 49/49/49
f 55/55/55 54/54/54 53/53/53
f 56/56/56 55/55/55 53/53/53
f 56/56/56 57/57/57 55/55/55
f 57/57/57 58/58/58 55/55/55
f 58/58/58 57/57/57 59/59/59
f 57/57/57 60/60/60 59/59/59
f 59/59/59 60/60/60 61/61/61
f 62/62/62 59/59/59 61/61/61
f 62/62/62 61/61/61 63/63/63
f 61/61/61 64/64/64 63/63/63
f 67/67/67 66/66/66 65/65/65
f 68/68/68 67/67/67 65/65/65
f 68/68/68 69/69/69 67/67/67
f 69/69/69 70/70/70 67/67/67
f 73/73/73 72/72/72 71/71/71
f 74/74/74 73/73/73 71/71/71
f 74/74/74 75/75/75 73/73/73
f 75/75/75 76/76/76 73/73/73
f 79/79/79 78/78/78 77/77/77
f 80/80/80 79/79/79 77/77/77
f 83/83/83 82/82/82 81/81/81
f 84/84/84 83/83/83 81/81/81
f 87/87/87 86/86/86 85/85/85
f 88/88/88 87/87/87 85/85/85
f 91/91/91 90/90/90 89/89/89
f 92/92/92 91/91/91 89/89/89
f 95/95/95 94/94/94 93/93/93
f 96/96/96 95/95/95 93/93/93
f 99/99/99 98/98/98 97/97/97
f 100/100/100 99/99/99 97/97/97
f 103/103/103 102/102/102 101/101/101
f 104/104/104 103/103/103 101/101/101
