g PineTreePart
v 0.015713 0.177948 -0.037606
v 0.273254 -0.041043 0.305499
v 0.001327 -0.188417 0.005149
v 0.015713 0.177948 -0.037606
v 0.001327 -0.188417 0.005149
v 0.273254 -0.041043 0.305499
vt 0.445593 0.460247
vt 0.532682 0.68796
vt 0.62969 0.458426
vt 0.445593 0.460247
vt 0.62969 0.458426
vt 0.532682 0.68796
vn -0.7622238 0.1044815 0.6388259
vn -0.7622238 0.1044815 0.6388259
vn -0.7622238 0.1044815 0.638826
vn 0.7622238 -0.1044815 -0.6388259
vn 0.7622238 -0.1044815 -0.638826
vn 0.7622238 -0.1044815 -0.6388259
g PineTreePart_0
f 3/3/3 2/2/2 1/1/1
f 6/6/6 5/5/5 4/4/4
