g PineTreeStump
v -0.422449 0.080654 0.125621
v -0.334119 0.345844 0.137696
v -0.315476 0.294701 0.572172
v -0.386446 0.080741 0.563107
v -0.358976 0.414034 -0.427006
v -0.470452 0.080538 -0.443093
v -0.314186 -0.133006 0.555568
v -0.359927 -0.252806 -0.458941
v -0.333789 -0.184349 0.114521
v -0.067382 -0.272658 0.112009
v -0.098239 -0.204363 0.555076
v -0.026239 -0.36372 -0.464148
v 0.116835 -0.132954 0.560125
v 0.307343 -0.252353 -0.458588
v 0.198481 -0.184125 0.117276
v 0.285509 0.081401 0.129519
v 0.186477 0.081595 0.56921
v 0.417553 0.081143 -0.442135
v 0.112888 0.295929 0.576769
v 0.305762 0.414488 -0.425922
v 0.195548 0.34674 0.140787
v -0.069557 0.434714 0.143132
v -0.101731 0.366698 0.577241
v -0.026659 0.525401 -0.421081
v -0.315476 0.294701 0.572172
v -0.358976 0.414034 -0.427006
v -0.334119 0.345844 0.137696
v -0.108525 -0.181597 0.731965
v -0.108618 -0.169162 0.765268
v 0.080161 -0.10657 0.770009
v -0.298333 -0.106566 0.765095
v 0.089619 -0.115896 0.736941
v 0.153466 0.081659 0.744973
v 0.14099 0.081638 0.777661
v 0.076079 0.269634 0.783684
v 0.116835 -0.132954 0.560125
v -0.098239 -0.204363 0.555076
v 0.186477 0.081595 0.56921
v -0.314186 -0.133006 0.555568
v 0.112888 0.295929 0.576769
v -0.307651 -0.115892 0.731783
v -0.374445 0.08077 0.738135
v -0.361971 0.080791 0.771147
v -0.386446 0.080741 0.563107
v -0.299868 0.268359 0.778827
v -0.315476 0.294701 0.572172
v -0.309262 0.277654 0.746197
v 0.085334 0.278992 0.751296
v -0.112455 0.344026 0.751144
v -0.101731 0.366698 0.577241
v -0.112362 0.331591 0.78354
v -0.315476 0.294701 0.572172
v -0.299868 0.268359 0.778827
v -0.309262 0.277654 0.746197
v -0.108752 -0.151293 0.77687
v -0.108618 -0.169162 0.765268
v -0.298333 -0.106566 0.765095
v 0.080161 -0.10657 0.770009
v -0.284965 -0.093165 0.776708
v 0.066592 -0.093168 0.781274
v -0.344073 0.080821 0.782328
v -0.361971 0.080791 0.771147
v 0.123092 0.081608 0.788379
v 0.14099 0.081638 0.777661
v -0.299868 0.268359 0.778827
v -0.28639 0.255004 0.789461
v 0.076079 0.269634 0.783684
v 0.062801 0.256188 0.793972
v -0.112229 0.313723 0.793838
v -0.112362 0.331591 0.78354
v -0.108752 -0.151293 0.77687
v 0.008315 -0.035828 0.782611
v 0.066592 -0.093168 0.781274
v 0.123092 0.081608 0.788379
v -0.10939 -0.066027 0.779981
v -0.110491 0.081215 0.785354
v -0.227546 -0.035961 0.77955
v -0.284965 -0.093165 0.776708
v -0.344073 0.080821 0.782328
v 0.03747 0.081464 0.78727
v 0.006038 0.198655 0.791145
v 0.062801 0.256188 0.793972
v -0.112229 0.313723 0.793838
v -0.258452 0.080966 0.783437
v -0.228771 0.197994 0.788109
v -0.28639 0.255004 0.789461
v -0.111592 0.228457 0.790726
vt 0.131071 -0.245821
vt 0.014155 -0.245821
vt 0.014155 -0.02404
vt 0.133577 -0.02404
vt 0.014155 -0.467602
vt 0.128566 -0.467602
vt 0.255071 -0.02404
vt 0.248051 -0.467602
vt 0.251561 -0.245821
vt 0.379199 -0.245821
vt 0.380711 -0.02404
vt 0.377688 -0.467602
vt 0.508374 -0.02404
vt 0.512348 -0.467602
vt 0.510361 -0.245821
vt 0.641422 -0.245821
vt 0.635939 -0.02404
vt 0.646906 -0.467602
vt 0.760086 -0.02404
vt 0.77405 -0.467602
vt 0.767068 -0.245821
vt 0.881982 -0.245821
vt 0.877493 -0.02404
vt 0.886471 -0.467602
vt 0.991531 -0.02404
vt 0.991531 -0.467602
vt 0.991531 -0.245821
vt 0.374176 0.003306
vt 0.374176 0.024092
vt 0.499861 0.026453
vt 0.248652 0.024006
vt 0.499861 0.005668
vt 0.625122 0.00948
vt 0.625122 0.030265
vt 0.750065 0.033266
vt 0.499861 -0.015118
vt 0.374176 -0.017479
vt 0.625122 -0.011306
vt 0.248652 -0.017565
vt 0.750065 -0.008305
vt 0.248652 0.00322
vt 0.123877 0.006235
vt 0.123877 0.02702
vt 0.123877 -0.01455
vt -0.000525 0.031585
vt -0.000525 -0.009986
vt -0.000525 0.0108
vt 0.750065 0.01248
vt 0.874799 0.012408
vt 0.874799 -0.008377
vt 0.874799 0.033193
vt 0.999429 -0.009986
vt 0.999429 0.031585
vt 0.999429 0.010799
vt 0.38105 -0.02404
vt 0.380711 -0.02404
vt 0.255071 -0.02404
vt 0.508423 -0.02404
vt 0.262342 -0.02404
vt 0.504601 -0.02404
vt 0.15332 -0.02404
vt 0.133577 -0.02404
vt 0.61625 -0.02404
vt 0.635939 -0.02404
vt 0.014155 -0.02404
vt 0.049142 -0.02404
vt 0.637914 -0.02404
vt 0.615142 -0.02404
vt 0.388521 -0.02404
vt 0.388806 -0.02404
vt 0.455296 0.851787
vt 0.475872 0.891958
vt 0.495981 0.882021
vt 0.495682 0.932445
vt 0.447803 0.873962
vt 0.434864 0.912254
vt 0.414438 0.871639
vt 0.404395 0.851787
vt 0.374047 0.892063
vt 0.473388 0.925044
vt 0.45513 0.952893
vt 0.464974 0.972774
vt 0.414432 0.972721
vt 0.39634 0.899464
vt 0.394016 0.932527
vt 0.374107 0.942435
vt 0.421925 0.950546
vn -0.9965013 -0.002334526 0.08354424
vn -0.7074119 0.6975047 0.1142614
vn -0.7092092 0.6967151 0.1077515
vn -0.9968827 -0.002032214 0.07887297
vn -0.7022873 0.7024279 0.1157048
vn -0.9963474 -0.01352022 0.08431608
vn -0.704634 -0.7013059 0.107986
vn -0.6803383 -0.7234886 0.1170651
vn -0.701938 -0.7029744 0.1144992
vn -0.002945497 -0.9880148 0.1543312
vn -0.006587456 -0.9893088 0.1456869
vn 0.01490771 -0.9874955 0.1569414
vn 0.6876196 -0.6979238 0.2002042
vn 0.6895868 -0.6921662 0.2130163
vn 0.6862895 -0.6960322 0.211059
vn 0.9747311 -0.003573023 0.2233531
vn 0.9773591 0.002327836 0.2115745
vn 0.9741594 -0.01729879 0.2251985
vn 0.6861815 0.6986324 0.202652
vn 0.7119296 0.6675903 0.2178985
vn 0.690329 0.6909468 0.2145656
vn -0.005371328 0.9876458 0.1566109
vn -0.009997774 0.9890128 0.1474914
vn 0.01375917 0.9871083 0.1594615
vn -0.7092092 0.6967151 0.1077515
vn -0.7022873 0.7024279 0.1157048
vn -0.7074119 0.6975047 0.1142614
vn -0.009113065 -0.9871957 0.1592533
vn -0.0055703 -0.8545674 0.5193106
vn 0.5899795 -0.6068168 0.5326327
vn -0.5927651 -0.6101515 0.525685
vn 0.6873816 -0.6976177 0.2020797
vn 0.9777776 0.006863236 0.2095329
vn 0.8461791 -0.006467705 0.5328593
vn 0.5938116 0.5924947 0.5443691
vn 0.6876196 -0.6979238 0.2002042
vn -0.006587456 -0.9893088 0.1456869
vn 0.9773591 0.002327836 0.2115745
vn -0.704634 -0.7013059 0.107986
vn 0.6861815 0.6986324 0.202652
vn -0.7036639 -0.6980413 0.1326479
vn -0.9938266 -0.002888755 0.1109072
vn -0.8503302 -0.01915647 0.5259006
vn -0.9968827 -0.002032214 0.07887297
vn -0.6061031 0.5835224 0.5405004
vn -0.7092092 0.6967151 0.1077515
vn -0.7081633 0.6931525 0.13433
vn 0.6815441 0.702624 0.2044929
vn -0.01335415 0.9866713 0.1621774
vn -0.009997774 0.9890128 0.1474914
vn -0.008459333 0.8428296 0.5381141
vn -0.7092092 0.6967151 0.1077515
vn -0.6061031 0.5835224 0.5405004
vn -0.7081633 0.6931525 0.13433
vn -0.01265181 -0.2097638 0.9776703
vn -0.0055703 -0.8545674 0.5193106
vn -0.5927651 -0.6101515 0.525685
vn 0.5899795 -0.6068168 0.5326327
vn -0.1435959 -0.1681196 0.9752517
vn 0.1199895 -0.166772 0.9786673
vn -0.1872353 -0.03617116 0.9816489
vn -0.8503302 -0.01915647 0.5259006
vn 0.162447 -0.03327967 0.9861559
vn 0.8461791 -0.006467705 0.5328593
vn -0.6061031 0.5835224 0.5405004
vn -0.144937 0.09683292 0.9846911
vn 0.5938116 0.5924947 0.5443691
vn 0.1193375 0.0983289 0.9879726
vn -0.01296569 0.1400286 0.9900625
vn -0.008459333 0.8428296 0.5381141
vn -0.01265181 -0.2097638 0.9776703
vn -0.01292999 -0.03650783 0.9992496
vn 0.1199895 -0.166772 0.9786673
vn 0.162447 -0.03327967 0.9861559
vn -0.0129434 -0.03655691 0.9992478
vn -0.01288199 -0.03655732 0.9992484
vn -0.01293028 -0.03660553 0.9992461
vn -0.1435959 -0.1681196 0.9752517
vn -0.1872353 -0.03617116 0.9816489
vn -0.01288072 -0.03649531 0.9992508
vn -0.01283278 -0.03650934 0.9992508
vn 0.1193375 0.0983289 0.9879726
vn -0.01296569 0.1400286 0.9900625
vn -0.01288201 -0.0366189 0.9992462
vn -0.01283325 -0.03660633 0.9992474
vn -0.144937 0.09683292 0.9846911
vn -0.01282034 -0.03655801 0.9992493
g PineTreeStump_0
f 3/3/3 2/2/2 1/1/1
f 4/4/4 3/3/3 1/1/1
f 2/2/2 5/5/5 1/1/1
f 5/5/5 6/6/6 1/1/1
f 7/7/7 4/4/4 1/1/1
f 6/6/6 8/8/8 1/1/1
f 9/9/9 7/7/7 1/1/1
f 8/8/8 9/9/9 1/1/1
f 7/7/7 9/9/9 10/10/10
f 9/9/9 8/8/8 10/10/10
f 11/11/11 7/7/7 10/10/10
f 8/8/8 12/12/12 10/10/10
f 13/13/13 11/11/11 10/10/10
f 12/12/12 14/14/14 10/10/10
f 15/15/15 13/13/13 10/10/10
f 14/14/14 15/15/15 10/10/10
f 13/13/13 15/15/15 16/16/16
f 15/15/15 14/14/14 16/16/16
f 17/17/17 13/13/13 16/16/16
f 14/14/14 18/18/18 16/16/16
f 19/19/19 17/17/17 16/16/16
f 18/18/18 20/20/20 16/16/16
f 21/21/21 19/19/19 16/16/16
f 20/20/20 21/21/21 16/16/16
f 19/19/19 21/21/21 22/22/22
f 21/21/21 20/20/20 22/22/22
f 23/23/23 19/19/19 22/22/22
f 20/20/20 24/24/24 22/22/22
f 25/25/25 23/23/23 22/22/22
f 24/24/24 26/26/26 22/22/22
f 27/27/27 25/25/25 22/22/22
f 26/26/26 27/27/27 22/22/22
f 30/30/30 29/29/29 28/28/28
f 29/29/29 31/31/31 28/28/28
f 32/32/32 30/30/30 28/28/28
f 30/30/30 32/32/32 33/33/33
f 34/34/34 30/30/30 33/33/33
f 35/35/35 34/34/34 33/33/33
f 36/36/36 32/32/32 28/28/28
f 32/32/32 36/36/36 33/33/33
f 37/37/37 36/36/36 28/28/28
f 36/36/36 38/38/38 33/33/33
f 39/39/39 37/37/37 28/28/28
f 38/38/38 40/40/40 33/33/33
f 31/31/31 41/41/41 28/28/28
f 41/41/41 39/39/39 28/28/28
f 41/41/41 31/31/31 42/42/42
f 39/39/39 41/41/41 42/42/42
f 31/31/31 43/43/43 42/42/42
f 44/44/44 39/39/39 42/42/42
f 43/43/43 45/45/45 42/42/42
f 46/46/46 44/44/44 42/42/42
f 45/45/45 47/47/47 42/42/42
f 47/47/47 46/46/46 42/42/42
f 40/40/40 48/48/48 33/33/33
f 48/48/48 40/40/40 49/49/49
f 48/48/48 35/35/35 33/33/33
f 35/35/35 48/48/48 49/49/49
f 40/40/40 50/50/50 49/49/49
f 51/51/51 35/35/35 49/49/49
f 50/50/50 52/52/52 49/49/49
f 53/53/53 51/51/51 49/49/49
f 52/52/52 54/54/54 49/49/49
f 54/54/54 53/53/53 49/49/49
f 57/57/57 56/56/56 55/55/55
f 56/56/56 58/58/58 55/55/55
f 59/59/59 57/57/57 55/55/55
f 58/58/58 60/60/60 55/55/55
f 57/57/57 59/59/59 61/61/61
f 62/62/62 57/57/57 61/61/61
f 60/60/60 58/58/58 63/63/63
f 58/58/58 64/64/64 63/63/63
f 65/65/65 62/62/62 61/61/61
f 66/66/66 65/65/65 61/61/61
f 64/64/64 67/67/67 63/63/63
f 67/67/67 68/68/68 63/63/63
f 65/65/65 66/66/66 69/69/69
f 68/68/68 67/67/67 69/69/69
f 70/70/70 65/65/65 69/69/69
f 67/67/67 70/70/70 69/69/69
g PineTreeStump_1
f 73/73/73 72/72/72 71/71/71
f 72/72/72 73/73/73 74/74/74
f 72/72/72 75/75/75 71/71/71
f 75/75/75 72/72/72 76/76/76
f 75/75/75 77/77/77 71/71/71
f 77/77/77 75/75/75 76/76/76
f 77/77/77 78/78/78 71/71/71
f 78/78/78 77/77/77 79/79/79
f 80/80/80 72/72/72 74/74/74
f 72/72/72 80/80/80 76/76/76
f 81/81/81 80/80/80 74/74/74
f 80/80/80 81/81/81 76/76/76
f 82/82/82 81/81/81 74/74/74
f 81/81/81 82/82/82 83/83/83
f 77/77/77 84/84/84 79/79/79
f 84/84/84 77/77/77 76/76/76
f 84/84/84 85/85/85 79/79/79
f 85/85/85 84/84/84 76/76/76
f 85/85/85 86/86/86 79/79/79
f 86/86/86 85/85/85 83/83/83
f 81/81/81 87/87/87 76/76/76
f 87/87/87 81/81/81 83/83/83
f 87/87/87 85/85/85 76/76/76
f 85/85/85 87/87/87 83/83/83
