g PlantSpikeFloor
v 0 0.89129 0.176869
v 0.353245 0.788161 -0.017472
v 0 0.670413 -0.017472
v -0.353245 0.788161 -0.017472
v 0.187587 0.953819 0.176869
v 0.250116 1.141405 0.176869
v 0.470993 1.141405 -0.017472
v 0.353245 1.49465 -0.017472
v 0.089869 1.051536 0.284836
v -0.187587 0.953819 0.176869
v -0.250116 1.141405 0.176869
v -0.470993 1.141405 -0.017472
v -0.353245 1.49465 -0.017472
v -0.089869 1.051536 0.284836
v 0 1.064257 0.322625
v 0 1.141405 0.37121
v 0.077148 1.141405 0.322625
v 0.089869 1.231275 0.284836
v 0.187587 1.328992 0.176869
v 0 1.391521 0.176869
v 0 1.612398 -0.017472
v -0.077148 1.141405 0.322625
v 0 1.218554 0.322625
v -0.089869 1.231275 0.284836
v -0.187587 1.328992 0.176869
v 0.891289 3E-06 0.176869
v 0.788161 -0.353242 -0.017472
v 0.670412 3E-06 -0.017472
v 0.788161 0.353247 -0.017472
v 0.953818 -0.187584 0.176869
v 1.141405 -0.250113 0.176869
v 1.141405 -0.47099 -0.017472
v 1.49465 -0.353242 -0.017472
v 1.051536 -0.089867 0.284836
v 0.953818 0.18759 0.176869
v 1.141405 0.250119 0.176869
v 1.141405 0.470996 -0.017472
v 1.49465 0.353247 -0.017472
v 1.051536 0.089872 0.284836
v 1.064257 3E-06 0.322625
v 1.141405 3E-06 0.37121
v 1.141405 -0.077145 0.322625
v 1.231274 -0.089867 0.284836
v 1.328992 -0.187584 0.176869
v 1.391521 3E-06 0.176869
v 1.612398 3E-06 -0.017472
v 1.141405 0.077151 0.322625
v 1.218553 3E-06 0.322625
v 1.231274 0.089872 0.284836
v 1.328992 0.18759 0.176869
v 0 3E-06 0.626019
v 0 -0.05445 0.626019
v -0.04084 -0.040837 0.626019
v -0.054453 3E-06 0.626019
v 0.04084 -0.040837 0.626019
v -0.04084 0.040842 0.626019
v 0.054453 3E-06 0.626019
v 0 0.054456 0.626019
v 0.04084 0.040842 0.626019
v 1E-06 -0.891289 0.176869
v -0.353244 -0.78816 -0.017472
v 1E-06 -0.670412 -0.017472
v 0.353245 -0.78816 -0.017472
v -0.187586 -0.953818 0.176869
v -0.250115 -1.141405 0.176869
v -0.470992 -1.141405 -0.017472
v -0.353244 -1.49465 -0.017472
v -0.089869 -1.051535 0.284836
v 0.187587 -0.953818 0.176869
v 0.250116 -1.141405 0.176869
v 0.470993 -1.141405 -0.017472
v 0.353245 -1.494649 -0.017472
v 0.08987 -1.051535 0.284836
v 1E-06 -1.064256 0.322624
v 1E-06 -1.141405 0.37121
v -0.077148 -1.141405 0.322624
v -0.089869 -1.231274 0.284836
v -0.187586 -1.328992 0.176869
v 1E-06 -1.391521 0.176869
v 1E-06 -1.612398 -0.017472
v 0.077149 -1.141405 0.322624
v 1E-06 -1.218553 0.322624
v 0.08987 -1.231274 0.284836
v 0.187587 -1.328992 0.176869
v -0.891289 -2E-06 0.176869
v -0.78816 0.353242 -0.017472
v -0.670412 -2E-06 -0.017472
v -0.78816 -0.353247 -0.017472
v -0.953818 0.187585 0.176869
v -1.141405 0.250113 0.176869
v -1.141405 0.47099 -0.017472
v -1.494649 0.353242 -0.017472
v -1.051535 0.089867 0.284836
v -0.953818 -0.187589 0.176869
v -1.141405 -0.250118 0.176869
v -1.141405 -0.470995 -0.017472
v -1.494649 -0.353247 -0.017472
v -1.051535 -0.089872 0.284836
v -1.064256 -2E-06 0.322624
v -1.141405 -2E-06 0.37121
v -1.141405 0.077146 0.322624
v -1.231274 0.089867 0.284836
v -1.328992 0.187585 0.176869
v -1.39152 -2E-06 0.176869
v -1.612397 -2E-06 -0.017472
v -1.141405 -0.077151 0.322624
v -1.218553 -2E-06 0.322624
v -1.231274 -0.089872 0.284836
v -1.328991 -0.187589 0.176869
v -0.717003 0.529437 -0.06624
v -0.424209 0.752347 -0.198502
v -0.539317 0.398234 -0.198502
v -0.843872 0.184008 -0.198502
v -0.655876 0.717485 -0.06624
v -0.769638 0.879216 -0.06624
v -0.638434 1.056902 -0.198502
v -0.992548 1.17201 -0.198502
v -0.79253 0.696922 0.007239
v -0.878734 0.415675 -0.06624
v -1.066782 0.476802 -0.06624
v -1.197985 0.299116 -0.198502
v -1.412211 0.603671 -0.198502
v -0.899298 0.55233 0.007239
v -0.856148 0.632182 0.032956
v -0.91821 0.678009 0.066022
v -0.872383 0.740072 0.032956
v -0.937122 0.803689 0.007239
v -0.957686 0.940343 -0.06624
v -1.119417 0.826581 -0.06624
v -1.297103 0.957785 -0.198502
v -0.964037 0.615947 0.032956
v -0.980272 0.723836 0.032956
v -1.04389 0.659097 0.007239
v -1.180544 0.638533 -0.06624
v 0.529435 0.717005 -0.06624
v 0.752345 0.42421 -0.198502
v 0.398232 0.539319 -0.198502
v 0.184006 0.843874 -0.198502
v 0.717483 0.655877 -0.06624
v 0.879214 0.76964 -0.06624
v 1.0569 0.638436 -0.198502
v 1.172008 0.99255 -0.198502
v 0.696919 0.792532 0.007239
v 0.415673 0.878735 -0.06624
v 0.4768 1.066784 -0.06624
v 0.299114 1.197987 -0.198502
v 0.603669 1.412213 -0.198502
v 0.552327 0.899299 0.007239
v 0.63218 0.856149 0.032956
v 0.678007 0.918212 0.066022
v 0.740069 0.872385 0.032956
v 0.803686 0.937124 0.007239
v 0.940341 0.957688 -0.06624
v 0.826579 1.119419 -0.06624
v 0.957782 1.297104 -0.198502
v 0.615945 0.964039 0.032956
v 0.723834 0.980274 0.032956
v 0.659095 1.043891 0.007239
v 0.63853 1.180546 -0.06624
v 0.717003 -0.529436 -0.06624
v 0.424209 -0.752346 -0.198502
v 0.539318 -0.398233 -0.198502
v 0.843872 -0.184007 -0.198502
v 0.655876 -0.717485 -0.06624
v 0.769639 -0.879215 -0.06624
v 0.638435 -1.056901 -0.198502
v 0.992549 -1.172009 -0.198502
v 0.792531 -0.696921 0.007238
v 0.878734 -0.415674 -0.06624
v 1.066782 -0.476801 -0.06624
v 1.197986 -0.299116 -0.198502
v 1.412212 -0.603671 -0.198502
v 0.899298 -0.552329 0.007238
v 0.856148 -0.632181 0.032956
v 0.91821 -0.678008 0.066021
v 0.872383 -0.740071 0.032956
v 0.937123 -0.803688 0.007238
v 0.957687 -0.940342 -0.06624
v 1.119417 -0.82658 -0.06624
v 1.297103 -0.957784 -0.198502
v 0.964037 -0.615946 0.032956
v 0.980273 -0.723835 0.032956
v 1.04389 -0.659096 0.007238
v 1.180545 -0.638532 -0.06624
v -0.529435 -0.717004 -0.06624
v -0.752345 -0.42421 -0.198502
v -0.398231 -0.539318 -0.198502
v -0.184005 -0.843873 -0.198502
v -0.717483 -0.655877 -0.06624
v -0.879214 -0.769639 -0.06624
v -1.056899 -0.638435 -0.198502
v -1.172008 -0.992549 -0.198502
v -0.696919 -0.792531 0.007238
v -0.415672 -0.878735 -0.06624
v -0.476799 -1.066783 -0.06624
v -0.299114 -1.197987 -0.198502
v -0.603668 -1.412212 -0.198502
v -0.552327 -0.899299 0.007238
v -0.632179 -0.856149 0.032956
v -0.678006 -0.918211 0.066021
v -0.740069 -0.872384 0.032956
v -0.803686 -0.937123 0.007238
v -0.940341 -0.957687 -0.06624
v -0.826578 -1.119418 -0.06624
v -0.957782 -1.297104 -0.198502
v -0.615944 -0.964038 0.032956
v -0.723834 -0.980273 0.032956
v -0.659094 -1.043891 0.007238
v -0.63853 -1.180545 -0.06624
vt 0 0
vt 0 0
vt 0 0
vt 0 0
vt 0 0
vt 0 0
vt 0 0
vt 0 0
vt 0 0
vt 0 0
vt 0 0
vt 0 0
vt 0 0
vt 0 0
vt 0 0
vt 0 0
vt 0 0
vt 0 0
vt 0 0
vt 0 0
vt 0 0
vt 0 0
vt 0 0
vt 0 0
vt 0 0
vt 0 0
vt 0 0
vt 0 0
vt 0 0
vt 0 0
vt 0 0
vt 0 0
vt 0 0
vt 0 0
vt 0 0
vt 0 0
vt 0 0
vt 0 0
vt 0 0
vt 0 0
vt 0 0
vt 0 0
vt 0 0
vt 0 0
vt 0 0
vt 0 0
vt 0 0
vt 0 0
vt 0 0
vt 0 0
vt 0 0
vt 0 0
vt 0 0
vt 0 0
vt 0 0
vt 0 0
vt 0 0
vt 0 0
vt 0 0
vt 0 0
vt 0 0
vt 0 0
vt 0 0
vt 0 0
vt 0 0
vt 0 0
vt 0 0
vt 0 0
vt 0 0
vt 0 0
vt 0 0
vt 0 0
vt 0 0
vt 0 0
vt 0 0
vt 0 0
vt 0 0
vt 0 0
vt 0 0
vt 0 0
vt 0 0
vt 0 0
vt 0 0
vt 0 0
vt 0 0
vt 0 0
vt 0 0
vt 0 0
vt 0 0
vt 0 0
vt 0 0
vt 0 0
vt 0 0
vt 0 0
vt 0 0
vt 0 0
vt 0 0
vt 0 0
vt 0 0
vt 0 0
vt 0 0
vt 0 0
vt 0 0
vt 0 0
vt 0 0
vt 0 0
vt 0 0
vt 0 0
vt 0 0
vt 0 0
vt 0 0
vt 0 0
vt 0 0
vt 0 0
vt 0 0
vt 0 0
vt 0 0
vt 0 0
vt 0 0
vt 0 0
vt 0 0
vt 0 0
vt 0 0
vt 0 0
vt 0 0
vt 0 0
vt 0 0
vt 0 0
vt 0 0
vt 0 0
vt 0 0
vt 0 0
vt 0 0
vt 0 0
vt 0 0
vt 0 0
vt 0 0
vt 0 0
vt 0 0
vt 0 0
vt 0 0
vt 0 0
vt 0 0
vt 0 0
vt 0 0
vt 0 0
vt 0 0
vt 0 0
vt 0 0
vt 0 0
vt 0 0
vt 0 0
vt 0 0
vt 0 0
vt 0 0
vt 0 0
vt 0 0
vt 0 0
vt 0 0
vt 0 0
vt 0 0
vt 0 0
vt 0 0
vt 0 0
vt 0 0
vt 0 0
vt 0 0
vt 0 0
vt 0 0
vt 0 0
vt 0 0
vt 0 0
vt 0 0
vt 0 0
vt 0 0
vt 0 0
vt 0 0
vt 0 0
vt 0 0
vt 0 0
vt 0 0
vt 0 0
vt 0 0
vt 0 0
vt 0 0
vt 0 0
vt 0 0
vt 0 0
vt 0 0
vt 0 0
vt 0 0
vt 0 0
vt 0 0
vt 0 0
vt 0 0
vt 0 0
vt 0 0
vt 0 0
vt 0 0
vt 0 0
vt 0 0
vt 0 0
vt 0 0
vt 0 0
vt 0 0
vt 0 0
vt 0 0
vt 0 0
vt 0 0
vn 0 -0.6521537 0.7580868
vn 0.4514591 -0.4514594 0.7696552
vn 0 -0.6605688 0.7507655
vn -0.4514591 -0.4514595 0.7696552
vn 0.4466644 -0.4466648 0.7752299
vn 0.6521527 0 0.7580877
vn 0.6605687 0 0.7507656
vn 0.4514592 0.4514592 0.7696553
vn 0.4310673 -0.4310693 0.7926918
vn -0.4466644 -0.4466649 0.7752299
vn -0.6521527 0 0.7580876
vn -0.6605687 0 0.7507656
vn -0.4514591 0.4514591 0.7696553
vn -0.4310673 -0.4310693 0.7926918
vn 0 -0.5212986 0.8533743
vn 0 0 1
vn 0.5212978 0 0.8533748
vn 0.4310678 0.4310679 0.7926922
vn 0.4466647 0.4466644 0.77523
vn 0 0.6521536 0.7580869
vn 0 0.6605687 0.7507656
vn -0.5212978 0 0.8533748
vn 0 0.5212963 0.8533757
vn -0.4310678 0.4310679 0.7926922
vn -0.4466646 0.4466644 0.7752301
vn -0.652153 0 0.7580873
vn -0.4514593 -0.4514601 0.7696547
vn -0.6605694 0 0.7507649
vn -0.4514602 0.4514602 0.769654
vn -0.4466647 -0.4466645 0.7752299
vn 0 -0.6521534 0.7580871
vn 0 -0.6605688 0.7507654
vn 0.4514592 -0.4514592 0.7696552
vn -0.4310663 -0.4310685 0.7926927
vn -0.4466648 0.4466648 0.7752297
vn 0 0.652153 0.7580874
vn 0 0.6605695 0.7507649
vn 0.4514602 0.4514593 0.7696546
vn -0.4310675 0.4310673 0.7926928
vn -0.5212972 0 0.8533753
vn 0 0 1
vn 0 -0.5212964 0.8533756
vn 0.4310662 -0.4310685 0.7926928
vn 0.4466643 -0.4466642 0.7752303
vn 0.6521527 0 0.7580876
vn 0.6605688 0 0.7507655
vn 0 0.5212974 0.8533751
vn 0.521297 0 0.8533753
vn 0.4310675 0.4310673 0.7926928
vn 0.4466645 0.4466646 0.77523
vn 0 0 1
vn 0 0 1
vn 0 0 1
vn 0 0 1
vn 0 0 1
vn 0 0 1
vn 0 0 1
vn 0 0 1
vn 0 0 1
vn 0 0.6521533 0.7580871
vn -0.4514592 0.4514591 0.7696552
vn 0 0.6605687 0.7507657
vn 0.4514595 0.4514589 0.7696552
vn -0.4466643 0.4466643 0.7752303
vn -0.6521533 0 0.7580872
vn -0.6605687 0 0.7507656
vn -0.4514592 -0.4514592 0.7696553
vn -0.4310671 0.431067 0.7926931
vn 0.4466648 0.446664 0.7752302
vn 0.6521534 0 0.758087
vn 0.6605688 0 0.7507654
vn 0.4514604 -0.4514591 0.7696546
vn 0.4310683 0.4310665 0.7926927
vn 0 0.5212965 0.8533756
vn 0 0 1
vn -0.5212964 0 0.8533756
vn -0.4310665 -0.4310665 0.7926937
vn -0.4466637 -0.4466642 0.7752307
vn 0 -0.6521524 0.7580879
vn 0 -0.6605689 0.7507654
vn 0.5212988 0 0.8533742
vn 0 -0.5212976 0.853375
vn 0.4310678 -0.4310662 0.7926931
vn 0.4466645 -0.4466642 0.7752302
vn 0.6521534 0 0.7580871
vn 0.4514594 0.4514596 0.7696549
vn 0.6605688 0 0.7507654
vn 0.4514592 -0.4514591 0.7696553
vn 0.4466631 0.4466654 0.7752303
vn 0 0.6521537 0.7580868
vn 0 0.66057 0.7507644
vn -0.4514599 0.4514599 0.7696545
vn 0.431066 0.4310676 0.7926934
vn 0.4466643 -0.4466643 0.7752303
vn 0 -0.6521533 0.7580871
vn 0 -0.6605687 0.7507657
vn -0.4514594 -0.4514591 0.7696552
vn 0.431067 -0.4310671 0.7926931
vn 0.5212964 0 0.8533756
vn 0 0 1
vn 0 0.5212983 0.8533745
vn -0.4310665 0.4310664 0.7926939
vn -0.4466642 0.4466642 0.7752304
vn -0.6521536 0 0.7580869
vn -0.6605695 0 0.7507649
vn 0 -0.5212964 0.8533756
vn -0.5212985 0 0.8533744
vn -0.4310682 -0.4310665 0.7926928
vn -0.4466648 -0.4466639 0.7752302
vn 0.4066563 -0.300277 0.8628235
vn 0.4861484 0.0731561 0.8708087
vn 0.4132823 -0.3051685 0.8579452
vn 0.07315654 -0.4861487 0.8708086
vn 0.479857 0.07220861 0.8743702
vn 0.3002768 0.4066569 0.8628233
vn 0.3051684 0.4132814 0.8579456
vn -0.07315628 0.4861483 0.8708088
vn 0.4584334 0.06898573 0.8860474
vn 0.07220909 -0.4798566 0.8743704
vn -0.3002765 -0.4066565 0.8628235
vn -0.3051684 -0.4132822 0.8579452
vn -0.4861486 -0.07315661 0.8708087
vn 0.06898467 -0.4584332 0.8860475
vn 0.3147713 -0.2324304 0.9202691
vn 0 0 1
vn 0.2324277 0.3147725 0.9202693
vn -0.06898582 0.4584336 0.8860471
vn -0.0722091 0.4798569 0.8743702
vn -0.4066564 0.3002768 0.8628235
vn -0.4132814 0.3051684 0.8579456
vn -0.232429 -0.3147723 0.9202691
vn -0.3147726 0.2324291 0.920269
vn -0.4584334 -0.06898434 0.8860474
vn -0.4798568 -0.07220916 0.8743703
vn -0.3002776 -0.4066569 0.862823
vn 0.07315601 -0.4861479 0.870809
vn -0.3051692 -0.4132824 0.8579449
vn -0.4861487 -0.0731564 0.8708086
vn 0.07220861 -0.4798561 0.8743706
vn 0.4066566 -0.3002756 0.8628237
vn 0.4132819 -0.3051681 0.8579456
vn 0.4861485 0.07315692 0.8708086
vn 0.06898572 -0.4584324 0.8860478
vn -0.4798568 -0.07221022 0.8743701
vn -0.4066565 0.3002765 0.8628235
vn -0.4132825 0.3051683 0.8579451
vn -0.07315606 0.4861491 0.8708084
vn -0.4584332 -0.06898554 0.8860474
vn -0.2324277 -0.3147721 0.9202695
vn 0 0 1
vn 0.3147734 -0.2324283 0.9202689
vn 0.4584332 0.0689847 0.8860475
vn 0.4798566 0.07220939 0.8743703
vn 0.3002767 0.4066567 0.8628235
vn 0.305169 0.4132826 0.8579448
vn -0.3147715 0.2324302 0.9202691
vn 0.2324297 0.3147724 0.9202689
vn -0.06898445 0.458433 0.8860475
vn -0.07220987 0.4798566 0.8743703
vn -0.4066556 0.3002758 0.8628243
vn -0.4861486 -0.07315613 0.8708087
vn -0.4132826 0.3051691 0.8579447
vn -0.07315657 0.486149 0.8708083
vn -0.4798562 -0.07221027 0.8743705
vn -0.3002754 -0.4066567 0.8628238
vn -0.3051682 -0.4132824 0.8579453
vn 0.07315662 -0.4861481 0.870809
vn -0.4584325 -0.06898662 0.8860476
vn -0.07220905 0.4798566 0.8743704
vn 0.3002754 0.4066561 0.8628242
vn 0.3051692 0.4132824 0.8579449
vn 0.4861481 0.0731556 0.8708088
vn -0.06898455 0.4584325 0.8860478
vn -0.3147708 0.232429 0.9202696
vn 0 0 1
vn -0.2324279 -0.3147715 0.9202696
vn 0.06898659 -0.4584331 0.8860474
vn 0.07220966 -0.4798566 0.8743704
vn 0.4066555 -0.3002764 0.8628241
vn 0.4132814 -0.3051689 0.8579454
vn 0.2324273 0.3147721 0.9202695
vn 0.314772 -0.2324265 0.9202698
vn 0.4584318 0.06898549 0.8860482
vn 0.4798558 0.07220912 0.8743708
vn 0.3002755 0.4066559 0.8628242
vn -0.07315654 0.4861484 0.8708087
vn 0.3051681 0.413282 0.8579454
vn 0.4861484 0.07315643 0.8708088
vn -0.0722091 0.4798564 0.8743705
vn -0.4066557 0.3002758 0.8628242
vn -0.4132819 0.3051693 0.8579451
vn -0.4861484 -0.07315636 0.8708088
vn -0.06898467 0.4584325 0.8860478
vn 0.4798562 0.07220923 0.8743706
vn 0.4066557 -0.3002758 0.8628242
vn 0.4132819 -0.3051692 0.8579451
vn 0.07315658 -0.4861484 0.8708088
vn 0.4584326 0.06898534 0.8860477
vn 0.2324297 0.3147705 0.9202695
vn 0 0 1
vn -0.3147704 0.2324275 0.9202701
vn -0.4584321 -0.0689853 0.886048
vn -0.4798561 -0.07220922 0.8743706
vn -0.3002754 -0.406656 0.8628242
vn -0.305168 -0.4132819 0.8579454
vn 0.3147708 -0.2324281 0.9202698
vn -0.2324296 -0.31477 0.9202697
vn 0.06898474 -0.4584328 0.8860477
vn 0.07220915 -0.4798564 0.8743705
g PlantSpikeFloor_0
f 3/3/3 2/2/2 1/1/1
f 4/4/4 3/3/3 1/1/1
f 2/2/2 5/5/5 1/1/1
f 5/5/5 2/2/2 6/6/6
f 2/2/2 7/7/7 6/6/6
f 7/7/7 8/8/8 6/6/6
f 5/5/5 9/9/9 1/1/1
f 9/9/9 5/5/5 6/6/6
f 10/10/10 4/4/4 1/1/1
f 4/4/4 10/10/10 11/11/11
f 12/12/12 4/4/4 11/11/11
f 13/13/13 12/12/12 11/11/11
f 14/14/14 10/10/10 1/1/1
f 10/10/10 14/14/14 11/11/11
f 9/9/9 15/15/15 1/1/1
f 15/15/15 14/14/14 1/1/1
f 15/15/15 9/9/9 16/16/16
f 14/14/14 15/15/15 16/16/16
f 17/17/17 9/9/9 6/6/6
f 9/9/9 17/17/17 16/16/16
f 18/18/18 17/17/17 6/6/6
f 17/17/17 18/18/18 16/16/16
f 8/8/8 19/19/19 6/6/6
f 19/19/19 18/18/18 6/6/6
f 19/19/19 8/8/8 20/20/20
f 18/18/18 19/19/19 20/20/20
f 8/8/8 21/21/21 20/20/20
f 21/21/21 13/13/13 20/20/20
f 14/14/14 22/22/22 11/11/11
f 22/22/22 14/14/14 16/16/16
f 18/18/18 23/23/23 16/16/16
f 23/23/23 18/18/18 20/20/20
f 24/24/24 22/22/22 16/16/16
f 23/23/23 24/24/24 16/16/16
f 22/22/22 24/24/24 11/11/11
f 24/24/24 23/23/23 20/20/20
f 13/13/13 25/25/25 20/20/20
f 25/25/25 13/13/13 11/11/11
f 25/25/25 24/24/24 20/20/20
f 24/24/24 25/25/25 11/11/11
f 28/28/28 27/27/27 26/26/26
f 29/29/29 28/28/28 26/26/26
f 27/27/27 30/30/30 26/26/26
f 30/30/30 27/27/27 31/31/31
f 27/27/27 32/32/32 31/31/31
f 32/32/32 33/33/33 31/31/31
f 30/30/30 34/34/34 26/26/26
f 34/34/34 30/30/30 31/31/31
f 35/35/35 29/29/29 26/26/26
f 29/29/29 35/35/35 36/36/36
f 37/37/37 29/29/29 36/36/36
f 38/38/38 37/37/37 36/36/36
f 39/39/39 35/35/35 26/26/26
f 35/35/35 39/39/39 36/36/36
f 34/34/34 40/40/40 26/26/26
f 40/40/40 39/39/39 26/26/26
f 40/40/40 34/34/34 41/41/41
f 39/39/39 40/40/40 41/41/41
f 42/42/42 34/34/34 31/31/31
f 34/34/34 42/42/42 41/41/41
f 43/43/43 42/42/42 31/31/31
f 42/42/42 43/43/43 41/41/41
f 33/33/33 44/44/44 31/31/31
f 44/44/44 43/43/43 31/31/31
f 44/44/44 33/33/33 45/45/45
f 43/43/43 44/44/44 45/45/45
f 33/33/33 46/46/46 45/45/45
f 46/46/46 38/38/38 45/45/45
f 39/39/39 47/47/47 36/36/36
f 47/47/47 39/39/39 41/41/41
f 43/43/43 48/48/48 41/41/41
f 48/48/48 43/43/43 45/45/45
f 49/49/49 47/47/47 41/41/41
f 48/48/48 49/49/49 41/41/41
f 47/47/47 49/49/49 36/36/36
f 49/49/49 48/48/48 45/45/45
f 50/50/50 38/38/38 36/36/36
f 38/38/38 50/50/50 45/45/45
f 49/49/49 50/50/50 36/36/36
f 50/50/50 49/49/49 45/45/45
f 53/53/53 52/52/52 51/51/51
f 54/54/54 53/53/53 51/51/51
f 52/52/52 55/55/55 51/51/51
f 56/56/56 54/54/54 51/51/51
f 55/55/55 57/57/57 51/51/51
f 58/58/58 56/56/56 51/51/51
f 57/57/57 59/59/59 51/51/51
f 59/59/59 58/58/58 51/51/51
f 62/62/62 61/61/61 60/60/60
f 63/63/63 62/62/62 60/60/60
f 61/61/61 64/64/64 60/60/60
f 64/64/64 61/61/61 65/65/65
f 61/61/61 66/66/66 65/65/65
f 66/66/66 67/67/67 65/65/65
f 64/64/64 68/68/68 60/60/60
f 68/68/68 64/64/64 65/65/65
f 69/69/69 63/63/63 60/60/60
f 63/63/63 69/69/69 70/70/70
f 71/71/71 63/63/63 70/70/70
f 72/72/72 71/71/71 70/70/70
f 73/73/73 69/69/69 60/60/60
f 69/69/69 73/73/73 70/70/70
f 68/68/68 74/74/74 60/60/60
f 74/74/74 73/73/73 60/60/60
f 74/74/74 68/68/68 75/75/75
f 73/73/73 74/74/74 75/75/75
f 76/76/76 68/68/68 65/65/65
f 68/68/68 76/76/76 75/75/75
f 77/77/77 76/76/76 65/65/65
f 76/76/76 77/77/77 75/75/75
f 67/67/67 78/78/78 65/65/65
f 78/78/78 77/77/77 65/65/65
f 78/78/78 67/67/67 79/79/79
f 77/77/77 78/78/78 79/79/79
f 67/67/67 80/80/80 79/79/79
f 80/80/80 72/72/72 79/79/79
f 73/73/73 81/81/81 70/70/70
f 81/81/81 73/73/73 75/75/75
f 77/77/77 82/82/82 75/75/75
f 82/82/82 77/77/77 79/79/79
f 83/83/83 81/81/81 75/75/75
f 82/82/82 83/83/83 75/75/75
f 81/81/81 83/83/83 70/70/70
f 83/83/83 82/82/82 79/79/79
f 72/72/72 84/84/84 79/79/79
f 84/84/84 72/72/72 70/70/70
f 84/84/84 83/83/83 79/79/79
f 83/83/83 84/84/84 70/70/70
f 87/87/87 86/86/86 85/85/85
f 88/88/88 87/87/87 85/85/85
f 86/86/86 89/89/89 85/85/85
f 89/89/89 86/86/86 90/90/90
f 86/86/86 91/91/91 90/90/90
f 91/91/91 92/92/92 90/90/90
f 89/89/89 93/93/93 85/85/85
f 93/93/93 89/89/89 90/90/90
f 94/94/94 88/88/88 85/85/85
f 88/88/88 94/94/94 95/95/95
f 96/96/96 88/88/88 95/95/95
f 97/97/97 96/96/96 95/95/95
f 98/98/98 94/94/94 85/85/85
f 94/94/94 98/98/98 95/95/95
f 93/93/93 99/99/99 85/85/85
f 99/99/99 98/98/98 85/85/85
f 99/99/99 93/93/93 100/100/100
f 98/98/98 99/99/99 100/100/100
f 101/101/101 93/93/93 90/90/90
f 93/93/93 101/101/101 100/100/100
f 102/102/102 101/101/101 90/90/90
f 101/101/101 102/102/102 100/100/100
f 92/92/92 103/103/103 90/90/90
f 103/103/103 102/102/102 90/90/90
f 103/103/103 92/92/92 104/104/104
f 102/102/102 103/103/103 104/104/104
f 92/92/92 105/105/105 104/104/104
f 105/105/105 97/97/97 104/104/104
f 98/98/98 106/106/106 95/95/95
f 106/106/106 98/98/98 100/100/100
f 102/102/102 107/107/107 100/100/100
f 107/107/107 102/102/102 104/104/104
f 108/108/108 106/106/106 100/100/100
f 107/107/107 108/108/108 100/100/100
f 106/106/106 108/108/108 95/95/95
f 108/108/108 107/107/107 104/104/104
f 109/109/109 97/97/97 95/95/95
f 97/97/97 109/109/109 104/104/104
f 108/108/108 109/109/109 95/95/95
f 109/109/109 108/108/108 104/104/104
f 112/112/112 111/111/111 110/110/110
f 113/113/113 112/112/112 110/110/110
f 111/111/111 114/114/114 110/110/110
f 114/114/114 111/111/111 115/115/115
f 111/111/111 116/116/116 115/115/115
f 116/116/116 117/117/117 115/115/115
f 114/114/114 118/118/118 110/110/110
f 118/118/118 114/114/114 115/115/115
f 119/119/119 113/113/113 110/110/110
f 113/113/113 119/119/119 120/120/120
f 121/121/121 113/113/113 120/120/120
f 122/122/122 121/121/121 120/120/120
f 123/123/123 119/119/119 110/110/110
f 119/119/119 123/123/123 120/120/120
f 118/118/118 124/124/124 110/110/110
f 124/124/124 123/123/123 110/110/110
f 124/124/124 118/118/118 125/125/125
f 123/123/123 124/124/124 125/125/125
f 126/126/126 118/118/118 115/115/115
f 118/118/118 126/126/126 125/125/125
f 127/127/127 126/126/126 115/115/115
f 126/126/126 127/127/127 125/125/125
f 117/117/117 128/128/128 115/115/115
f 128/128/128 127/127/127 115/115/115
f 128/128/128 117/117/117 129/129/129
f 127/127/127 128/128/128 129/129/129
f 117/117/117 130/130/130 129/129/129
f 130/130/130 122/122/122 129/129/129
f 123/123/123 131/131/131 120/120/120
f 131/131/131 123/123/123 125/125/125
f 127/127/127 132/132/132 125/125/125
f 132/132/132 127/127/127 129/129/129
f 133/133/133 131/131/131 125/125/125
f 132/132/132 133/133/133 125/125/125
f 131/131/131 133/133/133 120/120/120
f 133/133/133 132/132/132 129/129/129
f 122/122/122 134/134/134 129/129/129
f 134/134/134 122/122/122 120/120/120
f 134/134/134 133/133/133 129/129/129
f 133/133/133 134/134/134 120/120/120
f 137/137/137 136/136/136 135/135/135
f 138/138/138 137/137/137 135/135/135
f 136/136/136 139/139/139 135/135/135
f 139/139/139 136/136/136 140/140/140
f 136/136/136 141/141/141 140/140/140
f 141/141/141 142/142/142 140/140/140
f 139/139/139 143/143/143 135/135/135
f 143/143/143 139/139/139 140/140/140
f 144/144/144 138/138/138 135/135/135
f 138/138/138 144/144/144 145/145/145
f 146/146/146 138/138/138 145/145/145
f 147/147/147 146/146/146 145/145/145
f 148/148/148 144/144/144 135/135/135
f 144/144/144 148/148/148 145/145/145
f 143/143/143 149/149/149 135/135/135
f 149/149/149 148/148/148 135/135/135
f 149/149/149 143/143/143 150/150/150
f 148/148/148 149/149/149 150/150/150
f 151/151/151 143/143/143 140/140/140
f 143/143/143 151/151/151 150/150/150
f 152/152/152 151/151/151 140/140/140
f 151/151/151 152/152/152 150/150/150
f 142/142/142 153/153/153 140/140/140
f 153/153/153 152/152/152 140/140/140
f 153/153/153 142/142/142 154/154/154
f 152/152/152 153/153/153 154/154/154
f 142/142/142 155/155/155 154/154/154
f 155/155/155 147/147/147 154/154/154
f 148/148/148 156/156/156 145/145/145
f 156/156/156 148/148/148 150/150/150
f 152/152/152 157/157/157 150/150/150
f 157/157/157 152/152/152 154/154/154
f 158/158/158 156/156/156 150/150/150
f 157/157/157 158/158/158 150/150/150
f 156/156/156 158/158/158 145/145/145
f 158/158/158 157/157/157 154/154/154
f 159/159/159 147/147/147 145/145/145
f 147/147/147 159/159/159 154/154/154
f 158/158/158 159/159/159 145/145/145
f 159/159/159 158/158/158 154/154/154
f 162/162/162 161/161/161 160/160/160
f 163/163/163 162/162/162 160/160/160
f 161/161/161 164/164/164 160/160/160
f 164/164/164 161/161/161 165/165/165
f 161/161/161 166/166/166 165/165/165
f 166/166/166 167/167/167 165/165/165
f 164/164/164 168/168/168 160/160/160
f 168/168/168 164/164/164 165/165/165
f 169/169/169 163/163/163 160/160/160
f 163/163/163 169/169/169 170/170/170
f 171/171/171 163/163/163 170/170/170
f 172/172/172 171/171/171 170/170/170
f 173/173/173 169/169/169 160/160/160
f 169/169/169 173/173/173 170/170/170
f 168/168/168 174/174/174 160/160/160
f 174/174/174 173/173/173 160/160/160
f 174/174/174 168/168/168 175/175/175
f 173/173/173 174/174/174 175/175/175
f 176/176/176 168/168/168 165/165/165
f 168/168/168 176/176/176 175/175/175
f 177/177/177 176/176/176 165/165/165
f 176/176/176 177/177/177 175/175/175
f 167/167/167 178/178/178 165/165/165
f 178/178/178 177/177/177 165/165/165
f 178/178/178 167/167/167 179/179/179
f 177/177/177 178/178/178 179/179/179
f 167/167/167 180/180/180 179/179/179
f 180/180/180 172/172/172 179/179/179
f 173/173/173 181/181/181 170/170/170
f 181/181/181 173/173/173 175/175/175
f 177/177/177 182/182/182 175/175/175
f 182/182/182 177/177/177 179/179/179
f 183/183/183 181/181/181 175/175/175
f 182/182/182 183/183/183 175/175/175
f 181/181/181 183/183/183 170/170/170
f 183/183/183 182/182/182 179/179/179
f 172/172/172 184/184/184 179/179/179
f 184/184/184 172/172/172 170/170/170
f 184/184/184 183/183/183 179/179/179
f 183/183/183 184/184/184 170/170/170
f 187/187/187 186/186/186 185/185/185
f 188/188/188 187/187/187 185/185/185
f 186/186/186 189/189/189 185/185/185
f 189/189/189 186/186/186 190/190/190
f 186/186/186 191/191/191 190/190/190
f 191/191/191 192/192/192 190/190/190
f 189/189/189 193/193/193 185/185/185
f 193/193/193 189/189/189 190/190/190
f 194/194/194 188/188/188 185/185/185
f 188/188/188 194/194/194 195/195/195
f 196/196/196 188/188/188 195/195/195
f 197/197/197 196/196/196 195/195/195
f 198/198/198 194/194/194 185/185/185
f 194/194/194 198/198/198 195/195/195
f 193/193/193 199/199/199 185/185/185
f 199/199/199 198/198/198 185/185/185
f 199/199/199 193/193/193 200/200/200
f 198/198/198 199/199/199 200/200/200
f 201/201/201 193/193/193 190/190/190
f 193/193/193 201/201/201 200/200/200
f 202/202/202 201/201/201 190/190/190
f 201/201/201 202/202/202 200/200/200
f 192/192/192 203/203/203 190/190/190
f 203/203/203 202/202/202 190/190/190
f 203/203/203 192/192/192 204/204/204
f 202/202/202 203/203/203 204/204/204
f 192/192/192 205/205/205 204/204/204
f 205/205/205 197/197/197 204/204/204
f 198/198/198 206/206/206 195/195/195
f 206/206/206 198/198/198 200/200/200
f 202/202/202 207/207/207 200/200/200
f 207/207/207 202/202/202 204/204/204
f 208/208/208 206/206/206 200/200/200
f 207/207/207 208/208/208 200/200/200
f 206/206/206 208/208/208 195/195/195
f 208/208/208 207/207/207 204/204/204
f 209/209/209 197/197/197 195/195/195
f 197/197/197 209/209/209 204/204/204
f 208/208/208 209/209/209 195/195/195
f 209/209/209 208/208/208 204/204/204
