g PlantBook_Knockoff
v 0.27478 0.305814 0.020814
v 0.27478 -0.305814 0.094952
v 0.27478 0.305814 0.094952
v 0.27478 -0.305814 0.020814
v 0.252851 -0.305814 -0.001805
v 0.252851 0.305814 -0.001805
v -0.225669 0.305814 -0.001805
v -0.225669 -0.305814 -0.001805
v 0.252851 0.305814 0.11757
v 0.27478 0.305814 0.094952
v 0.27478 -0.305814 0.094952
v 0.252851 -0.305814 0.11757
v -0.225669 -0.305814 0.11757
v -0.225669 0.305814 0.11757
v 0.249355 0.298092 0.085228
v 0.24001 0.298092 0.096183
v -0.197382 0.298092 0.096183
v 0.249355 0.298092 0.03051
v 0.24001 0.298092 0.018241
v -0.197382 0.298092 0.018241
v -0.217919 0.298092 0.096183
v -0.217919 0.298092 0.018241
v -0.217919 0.284824 0.096183
v -0.217919 0.284824 0.018241
v -0.217919 -0.284824 0.018241
v -0.217919 -0.284824 0.096183
v -0.217919 -0.298092 0.096183
v -0.217919 -0.298092 0.018241
v -0.197382 -0.298092 0.096183
v -0.197382 -0.298092 0.018241
v 0.249355 -0.298092 0.03051
v 0.24001 -0.298092 0.018241
v 0.249355 -0.298092 0.085228
v 0.24001 -0.298092 0.096183
v -0.225669 -0.292203 0.017228
v -0.225669 0.305814 -0.001805
v -0.225669 0.292203 0.017228
v -0.225669 0.305814 0.017228
v -0.225669 -0.305814 -0.001805
v -0.225669 -0.305814 0.017228
v -0.225669 0.305814 -0.001805
v -0.2046 0.305814 0.017228
v 0.252851 0.305814 -0.001805
v 0.244124 0.305814 0.017228
v 0.27478 0.305814 0.020814
v 0.25371 0.305814 0.029815
v 0.27478 0.305814 0.094952
v 0.25371 0.305814 0.08595
v 0.252851 0.305814 0.11757
v 0.244124 0.305814 0.097189
v -0.225669 0.305814 0.11757
v -0.2046 0.305814 0.097189
v -0.225669 0.305814 0.097189
v -0.225669 0.305814 0.11757
v -0.225669 0.292203 0.097189
v -0.225669 -0.305814 0.11757
v -0.225669 -0.292203 0.097189
v -0.225669 -0.305814 0.097189
v -0.225669 -0.305814 0.11757
v -0.2046 -0.305814 0.097189
v 0.252851 -0.305814 0.11757
v 0.244124 -0.305814 0.097189
v 0.27478 -0.305814 0.094952
v 0.25371 -0.305814 0.08595
v 0.27478 -0.305814 0.020814
v 0.25371 -0.305814 0.029815
v 0.252851 -0.305814 -0.001805
v 0.244124 -0.305814 0.017228
v -0.225669 -0.305814 -0.001805
v -0.2046 -0.305814 0.017228
v 0.244124 0.305814 0.097189
v 0.24001 0.298092 0.096183
v 0.249355 0.298092 0.085228
v 0.25371 0.305814 0.08595
v -0.2046 0.305814 0.097189
v 0.249355 0.298092 0.03051
v -0.197382 0.298092 0.096183
v 0.25371 0.305814 0.029815
v -0.225669 0.305814 0.097189
v 0.24001 0.298092 0.018241
v -0.217919 0.298092 0.096183
v 0.244124 0.305814 0.017228
v -0.225669 0.292203 0.097189
v -0.197382 0.298092 0.018241
v -0.217919 0.284824 0.096183
v -0.2046 0.305814 0.017228
v -0.225669 -0.292203 0.097189
v -0.217919 0.298092 0.018241
v -0.217919 -0.284824 0.096183
v -0.225669 0.305814 0.017228
v -0.225669 -0.305814 0.097189
v -0.217919 0.284824 0.018241
v -0.217919 -0.298092 0.096183
v -0.225669 0.292203 0.017228
v -0.2046 -0.305814 0.097189
v -0.217919 -0.284824 0.018241
v -0.197382 -0.298092 0.096183
v -0.225669 -0.292203 0.017228
v 0.244124 -0.305814 0.097189
v -0.217919 -0.298092 0.018241
v 0.24001 -0.298092 0.096183
v -0.225669 -0.305814 0.017228
v 0.25371 -0.305814 0.08595
v -0.197382 -0.298092 0.018241
v 0.249355 -0.298092 0.085228
v -0.2046 -0.305814 0.017228
v 0.25371 -0.305814 0.029815
v 0.24001 -0.298092 0.018241
v 0.249355 -0.298092 0.03051
v 0.244124 -0.305814 0.017228
vt 0.676788 0.645912
vt 0.701156 0.792103
vt 0.701156 0.645912
vt 0.676789 0.792103
vt 0.666275 0.792103
vt 0.666275 0.645912
vt 0.565651 0.645912
vt 0.565651 0.792103
vt 0.87289 0.645912
vt 0.862376 0.645912
vt 0.862377 0.792103
vt 0.87289 0.792103
vt 0.974491 0.792103
vt 0.974491 0.645912
vt 0.279425 0.846134
vt 0.274108 0.846984
vt 0.274108 0.886764
vt 0.30598 0.846134
vt 0.311935 0.846984
vt 0.311934 0.886764
vt 0.274108 0.888632
vt 0.311934 0.888632
vt 0.274108 0.890036
vt 0.311934 0.890036
vt 0.311934 0.95031
vt 0.274108 0.95031
vt 0.274108 0.951714
vt 0.311934 0.951714
vt 0.274108 0.953582
vt 0.311934 0.953582
vt 0.30598 0.994212
vt 0.311934 0.993362
vt 0.279424 0.994212
vt 0.274108 0.993362
vt 0.559165 0.69996
vt 0.557757 0.753052
vt 0.559165 0.751843
vt 0.559165 0.753052
vt 0.557757 0.698752
vt 0.559165 0.698752
vt 0.557757 0.753052
vt 0.559165 0.754659
vt 0.557757 0.789568
vt 0.559165 0.788902
vt 0.559431 0.791241
vt 0.560097 0.789633
vt 0.564916 0.791241
vt 0.56425 0.789633
vt 0.566589 0.789568
vt 0.565081 0.788902
vt 0.566589 0.753052
vt 0.565081 0.754659
vt 0.565081 0.753052
vt 0.566589 0.753052
vt 0.565081 0.751843
vt 0.566589 0.698752
vt 0.565081 0.69996
vt 0.565081 0.698752
vt 0.566589 0.698752
vt 0.565081 0.697144
vt 0.566589 0.662236
vt 0.565081 0.662902
vt 0.564916 0.660563
vt 0.56425 0.66217
vt 0.559431 0.660563
vt 0.560097 0.66217
vt 0.557757 0.662236
vt 0.559165 0.662902
vt 0.557757 0.698752
vt 0.559165 0.697144
vt 0.557423 0.7892
vt 0.557558 0.789235
vt 0.557557 0.789019
vt 0.55741 0.789006
vt 0.55782 0.795835
vt 0.55756 0.788219
vt 0.557952 0.795721
vt 0.557419 0.788228
vt 0.557821 0.796157
vt 0.557564 0.787992
vt 0.55796 0.796036
vt 0.55743 0.788025
vt 0.558068 0.79616
vt 0.558039 0.781526
vt 0.558208 0.796025
vt 0.557908 0.781407
vt 0.567349 0.796481
vt 0.558053 0.781204
vt 0.567214 0.796335
vt 0.557912 0.781078
vt 0.5676 0.796494
vt 0.558307 0.781219
vt 0.567466 0.796362
vt 0.558165 0.781078
vt 0.567622 0.796166
vt 0.56746 0.781123
vt 0.567494 0.79604
vt 0.567598 0.780979
vt 0.568484 0.789273
vt 0.567714 0.781102
vt 0.568344 0.789302
vt 0.567852 0.780972
vt 0.568502 0.789075
vt 0.567734 0.781425
vt 0.568354 0.789085
vt 0.567865 0.781303
vt 0.568502 0.788292
vt 0.568354 0.788053
vt 0.568359 0.788282
vt 0.568491 0.788085
vn 0.9752661 0 -0.2210342
vn 0.9752656 0 0.2210364
vn 0.9752656 0 0.2210364
vn 0.9752661 0 -0.2210342
vn 0.04515131 0 -0.9989801
vn 0.04515131 0 -0.9989801
vn 0 0 -1
vn 0 0 -1
vn 0.04514931 0 0.9989802
vn 0.9752656 0 0.2210364
vn 0.9752656 0 0.2210364
vn 0.04514931 0 0.9989802
vn 0 0 1
vn 0 0 1
vn -0.03921704 0.9992123 -0.006071181
vn -0.01205356 0.6703218 -0.7419726
vn 0 0.9633754 -0.268156
vn -0.04149582 0.9991192 0.006235272
vn -0.01059085 0.8204798 0.5715773
vn 0 0.966465 0.2567984
vn -0.5316839 0.8229971 -0.1999697
vn -0.5316871 0.8230023 0.1999394
vn -0.9897515 0 -0.1428005
vn -0.9897546 0 0.1427789
vn -0.9897546 0 0.1427789
vn -0.9897515 0 -0.1428005
vn -0.5316839 -0.8229971 -0.1999697
vn -0.5316872 -0.8230023 0.1999394
vn 0 -0.9655349 -0.2602736
vn 0 -0.9668146 0.2554794
vn -0.03765071 -0.9992749 0.005657495
vn -0.0132574 -0.698499 0.7154883
vn -0.03921704 -0.9992123 -0.006071181
vn -0.01205357 -0.6703218 -0.7419727
vn -0.9886687 0 0.1501133
vn -1 0 0
vn -0.9886687 0 0.1501133
vn -0.4796472 0.7422946 0.4679073
vn -1 0 0
vn -0.4796472 -0.7422946 0.4679073
vn 0 1 0
vn 0 0.989471 0.1447314
vn 0 1 0
vn -0.008623981 0.980627 0.1956942
vn 0 1 0
vn -0.186902 0.982091 0.02376564
vn 0 1 0
vn -0.182116 0.9830012 -0.02328658
vn 0 1 0
vn -0.007443581 0.9824119 -0.1865784
vn 0 1 0
vn 0 0.990524 -0.1373401
vn -0.4861594 0.7523848 -0.4444844
vn -1 0 0
vn -0.9897881 0 -0.1425468
vn -1 0 0
vn -0.9897881 0 -0.1425468
vn -0.4861594 -0.7523848 -0.4444844
vn 0 -1 0
vn 0 -0.990524 -0.1373401
vn 0 -1 0
vn -0.00744358 -0.9824119 -0.1865784
vn 0 -1 0
vn -0.182116 -0.9830012 -0.02328658
vn 0 -1 0
vn -0.186902 -0.982091 0.02376564
vn 0 -1 0
vn -0.008623981 -0.980627 0.1956942
vn 0 -1 0
vn 0 -0.989471 0.1447315
vn -0.007443581 0.9824119 -0.1865784
vn -0.01205356 0.6703218 -0.7419726
vn -0.03921704 0.9992123 -0.006071181
vn -0.182116 0.9830012 -0.02328658
vn 0 0.990524 -0.1373401
vn -0.04149582 0.9991192 0.006235272
vn 0 0.9633754 -0.268156
vn -0.186902 0.982091 0.02376564
vn -0.4861594 0.7523848 -0.4444844
vn -0.01059085 0.8204798 0.5715773
vn -0.5316839 0.8229971 -0.1999697
vn -0.008623981 0.980627 0.1956942
vn -0.9897881 0 -0.1425468
vn 0 0.966465 0.2567984
vn -0.9897515 0 -0.1428005
vn 0 0.989471 0.1447314
vn -0.9897881 0 -0.1425468
vn -0.5316871 0.8230023 0.1999394
vn -0.9897515 0 -0.1428005
vn -0.4796472 0.7422946 0.4679073
vn -0.4861594 -0.7523848 -0.4444844
vn -0.9897546 0 0.1427789
vn -0.5316839 -0.8229971 -0.1999697
vn -0.9886687 0 0.1501133
vn 0 -0.990524 -0.1373401
vn -0.9897546 0 0.1427789
vn 0 -0.9655349 -0.2602736
vn -0.9886687 0 0.1501133
vn -0.00744358 -0.9824119 -0.1865784
vn -0.5316872 -0.8230023 0.1999394
vn -0.01205357 -0.6703218 -0.7419727
vn -0.4796472 -0.7422946 0.4679073
vn -0.182116 -0.9830012 -0.02328658
vn 0 -0.9668146 0.2554794
vn -0.03921704 -0.9992123 -0.006071181
vn 0 -0.989471 0.1447315
vn -0.186902 -0.982091 0.02376564
vn -0.0132574 -0.698499 0.7154883
vn -0.03765071 -0.9992749 0.005657495
vn -0.008623981 -0.980627 0.1956942
g PlantBook_Knockoff_0
f 3/3/3 2/2/2 1/1/1
f 2/2/2 4/4/4 1/1/1
f 1/1/1 4/4/4 5/5/5
f 6/6/6 1/1/1 5/5/5
f 6/6/6 5/5/5 7/7/7
f 5/5/5 8/8/8 7/7/7
f 11/11/11 10/10/10 9/9/9
f 12/12/12 11/11/11 9/9/9
f 13/13/13 12/12/12 9/9/9
f 14/14/14 13/13/13 9/9/9
f 17/17/17 16/16/16 15/15/15
f 17/17/17 15/15/15 18/18/18
f 17/17/17 18/18/18 19/19/19
f 19/19/19 20/20/20 17/17/17
f 17/17/17 20/20/20 21/21/21
f 20/20/20 22/22/22 21/21/21
f 23/23/23 21/21/21 22/22/22
f 24/24/24 23/23/23 22/22/22
f 23/23/23 24/24/24 25/25/25
f 26/26/26 23/23/23 25/25/25
f 26/26/26 25/25/25 27/27/27
f 25/25/25 28/28/28 27/27/27
f 29/29/29 27/27/27 28/28/28
f 30/30/30 29/29/29 28/28/28
f 31/31/31 29/29/29 30/30/30
f 30/30/30 32/32/32 31/31/31
f 31/31/31 33/33/33 29/29/29
f 33/33/33 34/34/34 29/29/29
f 37/37/37 36/36/36 35/35/35
f 38/38/38 36/36/36 37/37/37
f 36/36/36 39/39/39 35/35/35
f 35/35/35 39/39/39 40/40/40
f 42/42/42 41/41/41 38/38/38
f 43/43/43 41/41/41 42/42/42
f 44/44/44 43/43/43 42/42/42
f 45/45/45 43/43/43 44/44/44
f 46/46/46 45/45/45 44/44/44
f 47/47/47 45/45/45 46/46/46
f 48/48/48 47/47/47 46/46/46
f 49/49/49 47/47/47 48/48/48
f 50/50/50 49/49/49 48/48/48
f 51/51/51 49/49/49 50/50/50
f 52/52/52 51/51/51 50/50/50
f 53/53/53 51/51/51 52/52/52
f 55/55/55 54/54/54 53/53/53
f 56/56/56 54/54/54 55/55/55
f 57/57/57 56/56/56 55/55/55
f 58/58/58 56/56/56 57/57/57
f 60/60/60 59/59/59 58/58/58
f 61/61/61 59/59/59 60/60/60
f 62/62/62 61/61/61 60/60/60
f 63/63/63 61/61/61 62/62/62
f 64/64/64 63/63/63 62/62/62
f 65/65/65 63/63/63 64/64/64
f 66/66/66 65/65/65 64/64/64
f 67/67/67 65/65/65 66/66/66
f 68/68/68 67/67/67 66/66/66
f 69/69/69 67/67/67 68/68/68
f 70/70/70 69/69/69 68/68/68
f 40/40/40 69/69/69 70/70/70
f 73/73/73 72/72/72 71/71/71
f 74/74/74 73/73/73 71/71/71
f 71/71/71 72/72/72 75/75/75
f 76/76/76 73/73/73 74/74/74
f 72/72/72 77/77/77 75/75/75
f 78/78/78 76/76/76 74/74/74
f 75/75/75 77/77/77 79/79/79
f 80/80/80 76/76/76 78/78/78
f 77/77/77 81/81/81 79/79/79
f 82/82/82 80/80/80 78/78/78
f 79/79/79 81/81/81 83/83/83
f 84/84/84 80/80/80 82/82/82
f 81/81/81 85/85/85 83/83/83
f 86/86/86 84/84/84 82/82/82
f 83/83/83 85/85/85 87/87/87
f 88/88/88 84/84/84 86/86/86
f 85/85/85 89/89/89 87/87/87
f 90/90/90 88/88/88 86/86/86
f 87/87/87 89/89/89 91/91/91
f 92/92/92 88/88/88 90/90/90
f 89/89/89 93/93/93 91/91/91
f 94/94/94 92/92/92 90/90/90
f 91/91/91 93/93/93 95/95/95
f 96/96/96 92/92/92 94/94/94
f 93/93/93 97/97/97 95/95/95
f 98/98/98 96/96/96 94/94/94
f 95/95/95 97/97/97 99/99/99
f 100/100/100 96/96/96 98/98/98
f 97/97/97 101/101/101 99/99/99
f 102/102/102 100/100/100 98/98/98
f 99/99/99 101/101/101 103/103/103
f 104/104/104 100/100/100 102/102/102
f 101/101/101 105/105/105 103/103/103
f 106/106/106 104/104/104 102/102/102
f 103/103/103 105/105/105 107/107/107
f 108/108/108 104/104/104 106/106/106
f 105/105/105 109/109/109 107/107/107
f 110/110/110 108/108/108 106/106/106
f 107/107/107 109/109/109 110/110/110
f 109/109/109 108/108/108 110/110/110
