g Plate
v 0.412113 0.236151 0.044937
v 0.306226 0.362342 0.044937
v 0.30864 0.360519 0.024466
v 0.414526 0.234329 0.024466
v 0.468453 0.081355 0.044937
v 0.470867 0.079533 0.024466
v 0.468453 -0.083375 0.044937
v 0.470867 -0.085197 0.024466
v 0.412112 -0.238171 0.044937
v 0.414526 -0.239993 0.024466
v 0.306226 -0.364362 0.044937
v 0.30864 -0.366184 0.024466
v 0.163565 -0.446727 0.044937
v 0.165979 -0.448549 0.024466
v 0.001338 -0.475332 0.044937
v 0.003751 -0.477154 0.024466
v -0.16089 -0.446727 0.044937
v -0.158476 -0.448549 0.024466
v -0.303551 -0.364361 0.044937
v -0.301137 -0.366184 0.024466
v 0.306226 0.362342 0.044937
v 0.165979 0.442885 0.024466
v 0.30864 0.360519 0.024466
v 0.163566 0.444707 0.044937
v 0.003751 0.47149 0.024466
v 0.001338 0.473312 0.044937
v -0.158476 0.442885 0.024466
v -0.16089 0.444707 0.044937
v -0.301137 0.360519 0.024466
v -0.303551 0.362342 0.044937
v -0.407023 0.234329 0.024466
v -0.409437 0.236151 0.044937
v -0.463364 0.079533 0.024466
v -0.465778 0.081355 0.044937
v -0.463364 -0.085197 0.024466
v -0.465778 -0.083375 0.044937
v -0.407023 -0.239993 0.024466
v -0.409437 -0.238171 0.044937
v -0.301137 -0.366184 0.024466
v -0.303551 -0.364361 0.044937
v -0.136771 0.378441 0.044937
v -0.16089 0.444707 0.044937
v 0.001338 0.473312 0.044937
v 0.001338 0.402793 0.044937
v 0.163566 0.444707 0.044937
v -0.258222 0.308321 0.044937
v -0.303551 0.362342 0.044937
v 0.139447 0.378441 0.044937
v 0.306226 0.362342 0.044937
v -0.348366 0.200892 0.044937
v -0.409437 0.236151 0.044937
v 0.260898 0.308321 0.044937
v 0.412113 0.236151 0.044937
v -0.396331 0.06911 0.044937
v -0.465778 0.081355 0.044937
v 0.351041 0.200891 0.044937
v 0.468453 0.081355 0.044937
v -0.396331 -0.07113 0.044937
v -0.465778 -0.083375 0.044937
v 0.399006 0.06911 0.044937
v 0.468453 -0.083375 0.044937
v -0.348366 -0.202911 0.044937
v -0.409437 -0.238171 0.044937
v 0.399006 -0.07113 0.044937
v 0.412112 -0.238171 0.044937
v -0.258222 -0.310341 0.044937
v -0.303551 -0.364361 0.044937
v 0.351041 -0.202912 0.044937
v 0.306226 -0.364362 0.044937
v -0.136771 -0.380461 0.044937
v -0.16089 -0.446727 0.044937
v 0.260897 -0.310341 0.044937
v 0.163565 -0.446727 0.044937
v 0.001338 -0.404813 0.044937
v 0.001338 -0.475332 0.044937
v 0.139446 -0.380461 0.044937
v -0.166119 -0.200577 0.028386
v -0.087764 -0.245815 0.028386
v 0.001338 -0.261526 0.028386
v 0.090439 -0.245815 0.028386
v 0.168794 -0.200577 0.028386
v 0.226951 -0.131268 0.028386
v -0.224276 -0.131268 0.028386
v 0.257896 -0.046248 0.028386
v 0.257896 0.044228 0.028386
v 0.226952 0.129248 0.028386
v 0.168794 0.198557 0.028386
v 0.09044 0.243795 0.028386
v 0.001338 0.259507 0.028386
v -0.087764 0.243796 0.028386
v -0.166119 0.198557 0.028386
v -0.224276 0.129248 0.028386
v -0.255221 0.044228 0.028386
v -0.255221 -0.046248 0.028386
v -0.134357 0.376619 0.024466
v 0.003751 0.47149 0.024466
v -0.158476 0.442885 0.024466
v 0.003751 0.400971 0.024466
v 0.165979 0.442885 0.024466
v -0.255808 0.306499 0.024466
v -0.301137 0.360519 0.024466
v 0.141861 0.376618 0.024466
v 0.30864 0.360519 0.024466
v -0.345952 0.199069 0.024466
v -0.407023 0.234329 0.024466
v 0.263311 0.306499 0.024466
v 0.414526 0.234329 0.024466
v -0.393917 0.067288 0.024466
v -0.463364 0.079533 0.024466
v 0.353455 0.199069 0.024466
v 0.470867 0.079533 0.024466
v -0.393917 -0.072952 0.024466
v -0.463364 -0.085197 0.024466
v 0.40142 0.067287 0.024466
v 0.470867 -0.085197 0.024466
v -0.345952 -0.204734 0.024466
v -0.407023 -0.239993 0.024466
v 0.40142 -0.072952 0.024466
v 0.414526 -0.239993 0.024466
v -0.255808 -0.312163 0.024466
v -0.301137 -0.366184 0.024466
v 0.353455 -0.204734 0.024466
v 0.30864 -0.366184 0.024466
v -0.134357 -0.382283 0.024466
v -0.158476 -0.448549 0.024466
v 0.263311 -0.312163 0.024466
v 0.165979 -0.448549 0.024466
v 0.003751 -0.406635 0.024466
v 0.003751 -0.477154 0.024466
v 0.14186 -0.382283 0.024466
v -0.163705 -0.202399 0.007915
v -0.08535 -0.247638 0.007915
v 0.003751 -0.263349 0.007915
v 0.092853 -0.247638 0.007915
v 0.171208 -0.202399 0.007915
v 0.229365 -0.13309 0.007915
v 0.003751 0.257684 0.007915
v -0.221862 -0.13309 0.007915
v -0.08535 0.241973 0.007915
v 0.26031 -0.04807 0.007915
v 0.26031 0.042406 0.007915
v 0.229365 0.127426 0.007915
v 0.171208 0.196735 0.007915
v 0.092854 0.241973 0.007915
v -0.163705 0.196735 0.007915
v -0.221862 0.127426 0.007915
v -0.252807 -0.04807 0.007915
v -0.252807 0.042406 0.007915
vt 0.193231 0.156434
vt 0.170692 0.183295
vt 0.171206 0.182907
vt 0.193745 0.156046
vt 0.205224 0.123483
vt 0.205738 0.123096
vt 0.205224 0.088419
vt 0.205738 0.088031
vt 0.193231 0.055468
vt 0.193745 0.055081
vt 0.170692 0.028607
vt 0.171206 0.028219
vt 0.140325 0.011075
vt 0.140839 0.010687
vt 0.105793 0.004986
vt 0.106307 0.004598
vt 0.071261 0.011075
vt 0.071774 0.010687
vt 0.040894 0.028607
vt 0.041407 0.028219
vt 0.170692 0.183295
vt 0.140839 0.200439
vt 0.171206 0.182907
vt 0.140325 0.200827
vt 0.106307 0.206528
vt 0.105793 0.206916
vt 0.071774 0.200439
vt 0.071261 0.200827
vt 0.041407 0.182907
vt 0.040894 0.183295
vt 0.018868 0.156046
vt 0.018354 0.156434
vt 0.006875 0.123096
vt 0.006361 0.123484
vt 0.006875 0.088031
vt 0.006361 0.088419
vt 0.018868 0.055081
vt 0.018354 0.055468
vt 0.041407 0.028219
vt 0.040894 0.028607
vt 0.076395 0.186722
vt 0.071261 0.200827
vt 0.105793 0.206916
vt 0.105793 0.191906
vt 0.140325 0.200827
vt 0.050542 0.171796
vt 0.040894 0.183295
vt 0.135191 0.186722
vt 0.170692 0.183295
vt 0.031354 0.148928
vt 0.018354 0.156434
vt 0.161043 0.171796
vt 0.193231 0.156434
vt 0.021144 0.120877
vt 0.006361 0.123484
vt 0.180231 0.148928
vt 0.205224 0.123483
vt 0.021144 0.091025
vt 0.006361 0.088419
vt 0.190441 0.120877
vt 0.205224 0.088419
vt 0.031354 0.062974
vt 0.018354 0.055468
vt 0.190441 0.091025
vt 0.193231 0.055468
vt 0.050542 0.040106
vt 0.040894 0.028607
vt 0.180231 0.062974
vt 0.170692 0.028607
vt 0.076395 0.02518
vt 0.071261 0.011075
vt 0.161043 0.040106
vt 0.140325 0.011075
vt 0.105793 0.019997
vt 0.105793 0.004986
vt 0.135191 0.02518
vt 0.070148 0.063471
vt 0.086826 0.053841
vt 0.105793 0.050497
vt 0.124759 0.053841
vt 0.141438 0.063471
vt 0.153818 0.078224
vt 0.057768 0.078224
vt 0.160404 0.096322
vt 0.160404 0.115581
vt 0.153818 0.133678
vt 0.141438 0.148431
vt 0.124759 0.158061
vt 0.105793 0.161405
vt 0.086826 0.158061
vt 0.070148 0.148431
vt 0.057768 0.133678
vt 0.051181 0.115581
vt 0.051181 0.096322
vt 0.076909 0.186334
vt 0.106307 0.206528
vt 0.071774 0.200439
vt 0.106307 0.191518
vt 0.140839 0.200439
vt 0.051056 0.171408
vt 0.041407 0.182907
vt 0.135705 0.186334
vt 0.171206 0.182907
vt 0.031868 0.14854
vt 0.018868 0.156046
vt 0.161557 0.171408
vt 0.193745 0.156046
vt 0.021658 0.120489
vt 0.006875 0.123096
vt 0.180745 0.14854
vt 0.205738 0.123096
vt 0.021658 0.090637
vt 0.006875 0.088031
vt 0.190955 0.120489
vt 0.205738 0.088031
vt 0.031868 0.062586
vt 0.018868 0.055081
vt 0.190955 0.090637
vt 0.193745 0.055081
vt 0.051056 0.039718
vt 0.041407 0.028219
vt 0.180745 0.062586
vt 0.171206 0.028219
vt 0.076909 0.024792
vt 0.071774 0.010687
vt 0.161557 0.039718
vt 0.140839 0.010687
vt 0.106307 0.019609
vt 0.106307 0.004598
vt 0.135705 0.024792
vt 0.070661 0.063083
vt 0.08734 0.053453
vt 0.106307 0.050109
vt 0.125273 0.053453
vt 0.141952 0.063083
vt 0.154331 0.077836
vt 0.106307 0.161017
vt 0.058282 0.077836
vt 0.08734 0.157673
vt 0.160918 0.095934
vt 0.160918 0.115193
vt 0.154331 0.13329
vt 0.141952 0.148043
vt 0.125273 0.157673
vt 0.070661 0.148043
vt 0.058282 0.13329
vt 0.051695 0.095934
vt 0.051695 0.115193
vn 0.8571967 0.5119916 0.05548417
vn 0.6303014 0.7763332 0.005195897
vn 0.655086 0.7554884 0.009973732
vn 0.8718866 0.4860769 0.05952396
vn 0.9778876 0.1842668 0.09890286
vn 0.9817286 0.161001 0.1014282
vn 0.9776751 -0.1650923 0.1299848
vn 0.9750162 -0.1794322 0.1309475
vn 0.8578326 -0.4930381 0.1450407
vn 0.8558618 -0.4964308 0.1451102
vn 0.6335285 -0.7605032 0.1423955
vn 0.6390041 -0.7558643 0.1426283
vn 0.3313403 -0.9355465 0.1223377
vn 0.3476969 -0.9294084 0.1237204
vn -0.01274577 -0.9961132 0.08715504
vn 0.01299447 -0.995842 0.09016565
vn -0.3561703 -0.9335168 0.04109966
vn -0.3270099 -0.9439268 0.0454633
vn -0.655086 -0.7554882 -0.009989292
vn -0.6303014 -0.7763332 -0.005210862
vn 0.6303014 0.7763332 0.005195897
vn 0.3561656 0.9335181 -0.04110892
vn 0.655086 0.7554884 0.009973732
vn 0.3270144 0.9439248 -0.04547052
vn 0.01274574 0.9961129 -0.08715737
vn -0.01299445 0.9958418 -0.09016765
vn -0.3313412 0.9355448 -0.1223477
vn -0.3476979 0.9294066 -0.1237315
vn -0.6335297 0.7604988 -0.1424135
vn -0.6389998 0.7558647 -0.142646
vn -0.8578312 0.4930383 -0.1450476
vn -0.8558605 0.4964309 -0.1451174
vn -0.9776751 0.1650923 -0.1299836
vn -0.9750165 0.1794322 -0.1309463
vn -0.9778861 -0.1842682 -0.09891392
vn -0.9817275 -0.1610022 -0.1014377
vn -0.8571945 -0.5119931 -0.05550414
vn -0.8718867 -0.4860739 -0.05954494
vn -0.6303014 -0.7763332 -0.005210862
vn -0.655086 -0.7554882 -0.009989292
vn 0.02175261 -0.05976458 0.9979754
vn 0 0 1
vn 0 0 1
vn 0 -0.06360038 0.9979754
vn 0 0 1
vn 0.0408815 -0.04872057 0.9979754
vn 0 0 1
vn -0.02175261 -0.05976448 0.9979755
vn 0 0 1
vn 0.05507938 -0.0318002 0.9979754
vn 0 0 1
vn -0.04088138 -0.04872029 0.9979755
vn 0 0 1
vn 0.06263408 -0.01104417 0.9979754
vn 0 0 1
vn -0.05507956 -0.03180017 0.9979754
vn 0 0 1
vn 0.062634 0.01104417 0.9979754
vn 0 0 1
vn -0.06263401 -0.01104403 0.9979754
vn 0 0 1
vn 0.05507959 0.03180027 0.9979754
vn 0 0 1
vn -0.06263408 0.01104417 0.9979754
vn 0 0 1
vn 0.04088145 0.04872056 0.9979754
vn 0 0 1
vn -0.05507938 0.03180019 0.9979754
vn 0 0 1
vn 0.02175244 0.05976453 0.9979755
vn 0 0 1
vn -0.04088135 0.04872056 0.9979754
vn 0 0 1
vn 0 0.06360013 0.9979754
vn 0 0 1
vn -0.0217525 0.05976443 0.9979755
vn 0.04403181 0.05247498 0.997651
vn 0.02002251 0.05501157 0.9982849
vn 0 0.05462494 0.9985068
vn -0.01912092 0.0525342 0.998436
vn -0.04028837 0.0480139 0.9980338
vn -0.06597571 0.03809116 0.9970939
vn 0.07422968 0.04285666 0.9963199
vn -0.09513378 0.01677474 0.9953232
vn -0.105812 -0.01865736 0.9942111
vn -0.07422964 -0.04285641 0.9963199
vn -0.04403181 -0.05247489 0.997651
vn -0.0200227 -0.05501148 0.9982849
vn 0 -0.05462525 0.9985068
vn 0.01912103 -0.05253442 0.998436
vn 0.04028836 -0.04801367 0.9980338
vn 0.06597573 -0.03809118 0.9970939
vn 0.09513363 -0.01677472 0.9953232
vn 0.1058116 0.01865759 0.9942111
vn -0.02175252 0.0597645 -0.9979755
vn 0 0 -1
vn 0 0 -1
vn 0 0.06360009 -0.9979755
vn 0 0 -1
vn -0.04088145 0.04872055 -0.9979754
vn 0 0 -1
vn 0.0217525 0.05976467 -0.9979754
vn 0 0 -1
vn -0.05507958 0.03180026 -0.9979754
vn 0 0 -1
vn 0.04088145 0.04872042 -0.9979755
vn 0 0 -1
vn -0.06263399 0.01104417 -0.9979754
vn 0 0 -1
vn 0.05507958 0.03180019 -0.9979754
vn 0 0 -1
vn -0.06263408 -0.01104417 -0.9979754
vn 0 0 -1
vn 0.06263405 0.01104413 -0.9979754
vn 0 0 -1
vn -0.05507938 -0.03180018 -0.9979754
vn 0 0 -1
vn 0.06263407 -0.01104419 -0.9979754
vn 0 0 -1
vn -0.0408815 -0.04872057 -0.9979754
vn 0 0 -1
vn 0.05507937 -0.03180019 -0.9979754
vn 0 0 -1
vn -0.0217527 -0.05976454 -0.9979754
vn 0 0 -1
vn 0.04088149 -0.04872057 -0.9979754
vn 0 0 -1
vn 0 -0.06360038 -0.9979754
vn 0 0 -1
vn 0.02175261 -0.05976458 -0.9979754
vn -0.04028836 -0.04801367 -0.9980338
vn -0.01912114 -0.05253445 -0.998436
vn 0 -0.05385911 -0.9985486
vn 0.01963796 -0.05395467 -0.9983503
vn 0.04403173 -0.05247485 -0.997651
vn 0.07422957 -0.04285655 -0.9963199
vn 0 0.05541303 -0.9984635
vn -0.06597573 -0.03809118 -0.9970939
vn -0.02002262 0.05501161 -0.9982849
vn 0.1058116 -0.01865757 -0.9942111
vn 0.09513367 0.01677482 -0.9953232
vn 0.0659759 0.03809124 -0.9970939
vn 0.04028854 0.04801379 -0.9980338
vn 0.01948547 0.05353608 -0.9983758
vn -0.04403181 0.05247498 -0.997651
vn -0.07422968 0.04285666 -0.9963199
vn -0.09513365 -0.01677471 -0.9953232
vn -0.1058116 0.01865758 -0.9942111
g Plate_0
f 3/3/3 2/2/2 1/1/1
f 4/4/4 3/3/3 1/1/1
f 4/4/4 1/1/1 5/5/5
f 6/6/6 4/4/4 5/5/5
f 6/6/6 5/5/5 7/7/7
f 8/8/8 6/6/6 7/7/7
f 8/8/8 7/7/7 9/9/9
f 10/10/10 8/8/8 9/9/9
f 10/10/10 9/9/9 11/11/11
f 12/12/12 10/10/10 11/11/11
f 12/12/12 11/11/11 13/13/13
f 14/14/14 12/12/12 13/13/13
f 14/14/14 13/13/13 15/15/15
f 16/16/16 14/14/14 15/15/15
f 16/16/16 15/15/15 17/17/17
f 18/18/18 16/16/16 17/17/17
f 18/18/18 17/17/17 19/19/19
f 20/20/20 18/18/18 19/19/19
f 23/23/23 22/22/22 21/21/21
f 22/22/22 24/24/24 21/21/21
f 22/22/22 25/25/25 24/24/24
f 25/25/25 26/26/26 24/24/24
f 25/25/25 27/27/27 26/26/26
f 27/27/27 28/28/28 26/26/26
f 27/27/27 29/29/29 28/28/28
f 29/29/29 30/30/30 28/28/28
f 29/29/29 31/31/31 30/30/30
f 31/31/31 32/32/32 30/30/30
f 31/31/31 33/33/33 32/32/32
f 33/33/33 34/34/34 32/32/32
f 33/33/33 35/35/35 34/34/34
f 35/35/35 36/36/36 34/34/34
f 35/35/35 37/37/37 36/36/36
f 37/37/37 38/38/38 36/36/36
f 37/37/37 39/39/39 38/38/38
f 39/39/39 40/40/40 38/38/38
f 43/43/43 42/42/42 41/41/41
f 44/44/44 43/43/43 41/41/41
f 45/45/45 43/43/43 44/44/44
f 41/41/41 42/42/42 46/46/46
f 42/42/42 47/47/47 46/46/46
f 48/48/48 45/45/45 44/44/44
f 49/49/49 45/45/45 48/48/48
f 46/46/46 47/47/47 50/50/50
f 47/47/47 51/51/51 50/50/50
f 52/52/52 49/49/49 48/48/48
f 53/53/53 49/49/49 52/52/52
f 50/50/50 51/51/51 54/54/54
f 51/51/51 55/55/55 54/54/54
f 56/56/56 53/53/53 52/52/52
f 57/57/57 53/53/53 56/56/56
f 54/54/54 55/55/55 58/58/58
f 55/55/55 59/59/59 58/58/58
f 60/60/60 57/57/57 56/56/56
f 61/61/61 57/57/57 60/60/60
f 58/58/58 59/59/59 62/62/62
f 59/59/59 63/63/63 62/62/62
f 64/64/64 61/61/61 60/60/60
f 65/65/65 61/61/61 64/64/64
f 62/62/62 63/63/63 66/66/66
f 63/63/63 67/67/67 66/66/66
f 68/68/68 65/65/65 64/64/64
f 69/69/69 65/65/65 68/68/68
f 66/66/66 67/67/67 70/70/70
f 67/67/67 71/71/71 70/70/70
f 72/72/72 69/69/69 68/68/68
f 73/73/73 69/69/69 72/72/72
f 70/70/70 71/71/71 74/74/74
f 71/71/71 75/75/75 74/74/74
f 75/75/75 73/73/73 76/76/76
f 76/76/76 73/73/73 72/72/72
f 74/74/74 75/75/75 76/76/76
f 62/62/62 66/66/66 77/77/77
f 66/66/66 70/70/70 78/78/78
f 77/77/77 66/66/66 78/78/78
f 70/70/70 74/74/74 79/79/79
f 78/78/78 70/70/70 79/79/79
f 74/74/74 76/76/76 80/80/80
f 79/79/79 74/74/74 80/80/80
f 76/76/76 72/72/72 81/81/81
f 80/80/80 76/76/76 81/81/81
f 72/72/72 68/68/68 82/82/82
f 81/81/81 72/72/72 82/82/82
f 83/83/83 62/62/62 77/77/77
f 58/58/58 62/62/62 83/83/83
f 82/82/82 68/68/68 84/84/84
f 68/68/68 64/64/64 84/84/84
f 84/84/84 64/64/64 85/85/85
f 64/64/64 60/60/60 85/85/85
f 84/84/84 85/85/85 86/86/86
f 85/85/85 60/60/60 86/86/86
f 86/86/86 82/82/82 84/84/84
f 60/60/60 56/56/56 86/86/86
f 86/86/86 87/87/87 82/82/82
f 86/86/86 56/56/56 87/87/87
f 87/87/87 81/81/81 82/82/82
f 56/56/56 52/52/52 87/87/87
f 87/87/87 88/88/88 81/81/81
f 87/87/87 52/52/52 88/88/88
f 88/88/88 80/80/80 81/81/81
f 52/52/52 48/48/48 88/88/88
f 88/88/88 89/89/89 80/80/80
f 88/88/88 48/48/48 89/89/89
f 89/89/89 79/79/79 80/80/80
f 48/48/48 44/44/44 89/89/89
f 89/89/89 90/90/90 79/79/79
f 89/89/89 44/44/44 90/90/90
f 90/90/90 78/78/78 79/79/79
f 44/44/44 41/41/41 90/90/90
f 90/90/90 91/91/91 78/78/78
f 90/90/90 41/41/41 91/91/91
f 91/91/91 77/77/77 78/78/78
f 41/41/41 46/46/46 91/91/91
f 91/91/91 92/92/92 77/77/77
f 91/91/91 46/46/46 92/92/92
f 46/46/46 50/50/50 92/92/92
f 92/92/92 83/83/83 77/77/77
f 92/92/92 50/50/50 93/93/93
f 92/92/92 93/93/93 83/83/83
f 50/50/50 54/54/54 93/93/93
f 93/93/93 94/94/94 83/83/83
f 93/93/93 54/54/54 94/94/94
f 94/94/94 58/58/58 83/83/83
f 54/54/54 58/58/58 94/94/94
f 97/97/97 96/96/96 95/95/95
f 96/96/96 98/98/98 95/95/95
f 96/96/96 99/99/99 98/98/98
f 97/97/97 95/95/95 100/100/100
f 101/101/101 97/97/97 100/100/100
f 99/99/99 102/102/102 98/98/98
f 99/99/99 103/103/103 102/102/102
f 101/101/101 100/100/100 104/104/104
f 105/105/105 101/101/101 104/104/104
f 103/103/103 106/106/106 102/102/102
f 103/103/103 107/107/107 106/106/106
f 105/105/105 104/104/104 108/108/108
f 109/109/109 105/105/105 108/108/108
f 107/107/107 110/110/110 106/106/106
f 107/107/107 111/111/111 110/110/110
f 109/109/109 108/108/108 112/112/112
f 113/113/113 109/109/109 112/112/112
f 111/111/111 114/114/114 110/110/110
f 111/111/111 115/115/115 114/114/114
f 113/113/113 112/112/112 116/116/116
f 117/117/117 113/113/113 116/116/116
f 115/115/115 118/118/118 114/114/114
f 115/115/115 119/119/119 118/118/118
f 117/117/117 116/116/116 120/120/120
f 121/121/121 117/117/117 120/120/120
f 119/119/119 122/122/122 118/118/118
f 119/119/119 123/123/123 122/122/122
f 121/121/121 120/120/120 124/124/124
f 125/125/125 121/121/121 124/124/124
f 123/123/123 126/126/126 122/122/122
f 123/123/123 127/127/127 126/126/126
f 125/125/125 124/124/124 128/128/128
f 129/129/129 125/125/125 128/128/128
f 127/127/127 129/129/129 130/130/130
f 127/127/127 130/130/130 126/126/126
f 129/129/129 128/128/128 130/130/130
f 120/120/120 116/116/116 131/131/131
f 124/124/124 120/120/120 132/132/132
f 120/120/120 131/131/131 132/132/132
f 128/128/128 124/124/124 133/133/133
f 124/124/124 132/132/132 133/133/133
f 130/130/130 128/128/128 134/134/134
f 128/128/128 133/133/133 134/134/134
f 126/126/126 130/130/130 135/135/135
f 130/130/130 134/134/134 135/135/135
f 122/122/122 126/126/126 136/136/136
f 126/126/126 135/135/135 136/136/136
f 133/133/133 132/132/132 137/137/137
f 134/134/134 133/133/133 137/137/137
f 116/116/116 138/138/138 131/131/131
f 116/116/116 112/112/112 138/138/138
f 132/132/132 131/131/131 139/139/139
f 132/132/132 139/139/139 137/137/137
f 122/122/122 136/136/136 140/140/140
f 118/118/118 122/122/122 140/140/140
f 118/118/118 140/140/140 141/141/141
f 141/141/141 140/140/140 136/136/136
f 114/114/114 118/118/118 141/141/141
f 136/136/136 142/142/142 141/141/141
f 114/114/114 141/141/141 142/142/142
f 136/136/136 135/135/135 142/142/142
f 110/110/110 114/114/114 142/142/142
f 135/135/135 143/143/143 142/142/142
f 110/110/110 142/142/142 143/143/143
f 135/135/135 134/134/134 143/143/143
f 106/106/106 110/110/110 143/143/143
f 134/134/134 144/144/144 143/143/143
f 106/106/106 143/143/143 144/144/144
f 134/134/134 137/137/137 144/144/144
f 102/102/102 106/106/106 144/144/144
f 102/102/102 144/144/144 137/137/137
f 98/98/98 102/102/102 137/137/137
f 98/98/98 137/137/137 139/139/139
f 95/95/95 98/98/98 139/139/139
f 95/95/95 139/139/139 145/145/145
f 131/131/131 145/145/145 139/139/139
f 100/100/100 95/95/95 145/145/145
f 131/131/131 138/138/138 145/145/145
f 100/100/100 145/145/145 146/146/146
f 138/138/138 146/146/146 145/145/145
f 104/104/104 100/100/100 146/146/146
f 138/138/138 147/147/147 146/146/146
f 112/112/112 147/147/147 138/138/138
f 112/112/112 108/108/108 147/147/147
f 104/104/104 146/146/146 148/148/148
f 147/147/147 148/148/148 146/146/146
f 108/108/108 104/104/104 148/148/148
f 108/108/108 148/148/148 147/147/147
