g PostBox
v -0.459306 -0.483833 1.131598
v -0.445524 -0.484133 -0.058208
v -0.541809 -0.484133 -0.058208
v -0.55857 -0.483833 1.131598
v -0.459306 -0.483833 1.465432
v -0.55857 -0.483833 1.465432
v -0.396357 -0.469075 1.44883
v -0.396357 -0.469075 1.123794
v -0.459307 -0.110471 1.696572
v -0.396357 -0.105552 1.673879
v -0.55857 -0.110471 1.696572
v -0.55857 -0.483833 1.465432
v -0.55857 0.262891 1.696572
v -0.459307 0.262891 1.696572
v -0.55857 0.636254 1.465432
v -0.396357 0.257972 1.673879
v -0.459306 0.636254 1.465432
v -0.396357 0.621496 1.44883
v -0.396357 0.621496 1.123794
v -0.459306 0.636254 1.131598
v -0.55857 0.636254 1.465432
v -0.55857 0.636254 1.131598
v -0.541809 0.636554 -0.058208
v -0.445524 0.636554 -0.058208
v -0.384464 0.621788 -0.034659
v 0.541808 0.262991 -0.058208
v 0.558571 0.636254 1.131598
v 0.541808 0.636554 -0.058208
v 0.558571 0.257972 1.123794
v 0.558571 0.636254 1.465432
v 0.541808 -0.110571 -0.058208
v 0.558571 0.262891 1.696572
v 0.558571 -0.105552 1.123794
v 0.541808 -0.484133 -0.058208
v 0.558571 -0.110471 1.696572
v 0.558571 -0.483833 1.131598
v 0.558571 -0.483833 1.465432
v -0.55857 0.636254 1.131598
v -0.55857 0.636254 1.465432
v -0.55857 0.262891 1.696572
v -0.55857 0.257972 1.123794
v -0.541809 0.636554 -0.058208
v -0.55857 -0.110471 1.696572
v -0.541809 0.262991 -0.058208
v -0.55857 -0.105552 1.123794
v -0.55857 -0.483833 1.465432
v -0.541809 -0.110571 -0.058208
v -0.55857 -0.483833 1.131598
v -0.541809 -0.484133 -0.058208
v 0.445524 -0.484133 -0.058208
v 0.541808 -0.484133 -0.058208
v 0.541808 -0.110571 -0.058208
v 0.445524 -0.110571 -0.058208
v 0.384463 -0.469368 -0.034659
v 0.384463 -0.105649 -0.034659
v -0.384464 -0.469368 -0.034659
v -0.384464 -0.105649 -0.034659
v -0.445524 -0.484133 -0.058208
v -0.445524 -0.110571 -0.058208
v -0.541809 -0.484133 -0.058208
v -0.384464 0.258069 -0.034659
v -0.541809 -0.110571 -0.058208
v -0.445524 0.262991 -0.058208
v -0.541809 0.262991 -0.058208
v 0.445524 -0.110571 -0.058208
v 0.541808 -0.110571 -0.058208
v 0.541808 0.262991 -0.058208
v 0.445524 0.262991 -0.058208
v 0.541808 0.636554 -0.058208
v 0.384463 -0.105649 -0.034659
v 0.384463 0.258069 -0.034659
v 0.445524 0.636554 -0.058208
v -0.384464 -0.105649 -0.034659
v 0.384463 0.258069 -0.034659
v -0.384464 0.258069 -0.034659
v 0.384463 0.258069 -0.034659
v 0.445524 0.262991 -0.058208
v 0.384463 0.621788 -0.034659
v -0.384464 0.258069 -0.034659
v -0.384464 0.621788 -0.034659
v 0.396358 -0.105552 1.673879
v -0.396357 -0.105552 1.673879
v -0.396357 0.257972 1.673879
v 0.396358 0.257972 1.673879
v -0.396357 0.621496 1.44883
v 0.396358 0.621496 1.44883
v 0.396358 0.621496 1.123794
v -0.396357 0.621496 1.123794
v -0.384464 0.621788 -0.034659
v 0.384463 0.621788 -0.034659
v -0.396357 -0.469075 1.123794
v -0.396357 -0.389702 1.123794
v 0.396358 -0.389702 1.123794
v 0.396358 -0.469075 1.123794
v -0.396357 -0.105552 1.673879
v -0.396357 -0.112124 1.615901
v -0.396357 -0.389702 1.390852
v -0.396357 -0.469075 1.44883
v -0.396357 -0.389702 1.123794
v -0.396357 -0.469075 1.123794
v -0.445524 0.262991 -0.058208
v -0.384464 0.258069 -0.034659
v -0.384464 0.621788 -0.034659
v -0.445524 0.636554 -0.058208
v -0.541809 0.262991 -0.058208
v -0.541809 0.636554 -0.058208
v 0.459307 -0.483833 1.131598
v 0.445524 -0.484133 -0.058208
v 0.384463 -0.469368 -0.034659
v 0.396358 -0.469075 1.123794
v 0.340641 -0.469125 0.880439
v -0.34064 -0.469125 0.880439
v 0.327834 -0.469318 0.208748
v -0.396357 -0.469075 1.123794
v -0.384464 -0.469368 -0.034659
v -0.327835 -0.469318 0.208748
v -0.445524 -0.484133 -0.058208
v -0.459306 -0.483833 1.131598
v 0.327834 -0.469318 0.208748
v 0.327834 -0.420982 0.208637
v 0.340641 -0.420789 0.880328
v 0.340641 -0.469125 0.880439
v -0.303533 -0.217601 1.530384
v -0.303533 -0.132117 1.424947
v -0.303533 -0.198741 1.370931
v -0.303533 -0.284225 1.476368
v -0.396357 -0.389702 1.123794
v 0.396358 -0.389702 1.390852
v 0.396358 -0.389702 1.123794
v -0.396357 -0.389702 1.390852
v 0.303534 -0.284225 1.476368
v -0.303533 -0.284225 1.476368
v 0.303534 -0.217601 1.530384
v -0.396357 -0.112124 1.615901
v 0.396358 -0.112124 1.615901
v -0.303533 -0.217601 1.530384
v 0.396358 -0.469075 1.44883
v 0.396358 -0.112124 1.615901
v 0.396358 -0.105552 1.673879
v 0.396358 -0.389702 1.390852
v 0.396358 -0.469075 1.123794
v 0.396358 -0.389702 1.123794
v 0.396358 -0.105552 1.673879
v 0.396358 -0.112124 1.615901
v -0.396357 -0.112124 1.615901
v -0.396357 -0.105552 1.673879
v 0.340641 -0.420789 0.880328
v 0.327834 -0.420982 0.208637
v -0.327835 -0.420982 0.208637
v -0.34064 -0.420789 0.880328
v 0.340641 -0.469125 0.880439
v 0.340641 -0.420789 0.880328
v -0.34064 -0.420789 0.880328
v -0.34064 -0.469125 0.880439
v -0.34064 -0.469125 0.880439
v -0.34064 -0.420789 0.880328
v -0.327835 -0.420982 0.208637
v -0.327835 -0.469318 0.208748
v -0.327835 -0.469318 0.208748
v -0.327835 -0.420982 0.208637
v 0.327834 -0.420982 0.208637
v 0.327834 -0.469318 0.208748
v 0.558571 -0.483833 1.131598
v 0.541808 -0.484133 -0.058208
v 0.445524 -0.484133 -0.058208
v 0.459307 -0.483833 1.131598
v 0.558571 -0.483833 1.465432
v 0.459307 -0.483833 1.465432
v 0.396358 -0.469075 1.123794
v 0.396358 -0.469075 1.44883
v 0.396358 -0.105552 1.673879
v 0.459307 -0.110471 1.696572
v 0.558571 -0.483833 1.465432
v 0.396358 0.257972 1.673879
v 0.558571 -0.110471 1.696572
v 0.459307 0.262891 1.696572
v 0.558571 0.262891 1.696572
v 0.396358 0.621496 1.44883
v 0.459307 0.636254 1.465432
v 0.558571 0.636254 1.465432
v 0.459307 0.636254 1.131598
v 0.396358 0.621496 1.123794
v 0.384463 0.621788 -0.034659
v 0.445524 0.636554 -0.058208
v 0.558571 0.636254 1.131598
v 0.558571 0.636254 1.465432
v 0.541808 0.636554 -0.058208
v 0.303534 -0.198741 1.370931
v -0.303533 -0.198741 1.370931
v -0.303533 -0.132117 1.424947
v 0.303534 -0.132117 1.424947
v 0.303534 -0.217601 1.530384
v 0.303534 -0.132117 1.424947
v -0.303533 -0.132117 1.424947
v -0.303533 -0.217601 1.530384
v 0.303534 -0.284225 1.476368
v 0.303534 -0.198741 1.370931
v 0.303534 -0.132117 1.424947
v 0.303534 -0.217601 1.530384
v -0.303533 -0.284225 1.476368
v -0.303533 -0.198741 1.370931
v 0.303534 -0.198741 1.370931
v 0.303534 -0.284225 1.476368
vt 0.512265 0.996302
vt 0.512265 0.894323
vt 0.417881 0.894323
vt 0.417881 0.996302
vt 0.512265 0.996302
vt 0.417881 0.996302
vt 0.60665 0.996302
vt 0.60665 0.996302
vt 0.512265 0.996302
vt 0.60665 0.996302
vt 0.417881 0.996302
vt 0.417881 0.996302
vt 0.417881 0.996302
vt 0.512265 0.996302
vt 0.417881 0.996302
vt 0.60665 0.996302
vt 0.512265 0.996302
vt 0.60665 0.996302
vt 0.60665 0.996302
vt 0.512265 0.996302
vt 0.417881 0.996302
vt 0.417881 0.996302
vt 0.417881 0.894323
vt 0.512265 0.894323
vt 0.60665 0.894323
vt 0.336852 0.403222
vt 0.486797 0.802143
vt 0.487012 0.403258
vt 0.334741 0.799491
vt 0.486771 0.914045
vt 0.186693 0.403187
vt 0.336673 0.991489
vt 0.188617 0.799456
vt 0.036534 0.403151
vt 0.186594 0.991453
vt 0.03656 0.802036
vt 0.036534 0.913939
vt 0.036655 0.79809
vt 0.036655 0.909992
vt 0.186733 0.987471
vt 0.188711 0.795474
vt 0.036534 0.399205
vt 0.336812 0.987471
vt 0.186693 0.399205
vt 0.334835 0.795474
vt 0.486891 0.909992
vt 0.336852 0.399205
vt 0.486891 0.79809
vt 0.487012 0.399205
vt 0.889803 0.894323
vt 0.984188 0.894323
vt 0.984188 0.894322
vt 0.889803 0.894322
vt 0.795419 0.894322
vt 0.795419 0.894322
vt 0.60665 0.894323
vt 0.60665 0.894322
vt 0.512265 0.894323
vt 0.512265 0.894323
vt 0.417881 0.894323
vt 0.60665 0.894322
vt 0.417881 0.894323
vt 0.512265 0.894322
vt 0.417881 0.894322
vt 0.889803 0.894322
vt 0.984188 0.894322
vt 0.984188 0.894323
vt 0.889803 0.894323
vt 0.984188 0.894323
vt 0.795419 0.894322
vt 0.795419 0.894323
vt 0.889803 0.894323
vt 0.60665 0.894322
vt 0.795419 0.894323
vt 0.60665 0.894322
vt 0.795419 0.894323
vt 0.889803 0.894323
vt 0.795419 0.894322
vt 0.60665 0.894322
vt 0.60665 0.894323
vt 0.517731 0.979489
vt 0.951882 0.979489
vt 0.951882 0.920432
vt 0.517731 0.920432
vt 0.951882 0.853968
vt 0.517731 0.853968
vt 0.517731 0.809934
vt 0.951882 0.809934
vt 0.945369 0.652991
vt 0.524246 0.652991
vt 0.60665 0.996302
vt 0.60665 0.996302
vt 0.795419 0.996302
vt 0.795419 0.996302
vt 0.60665 0.996302
vt 0.60665 0.996302
vt 0.60665 0.996302
vt 0.60665 0.996302
vt 0.60665 0.996302
vt 0.60665 0.996302
vt 0.512265 0.894322
vt 0.60665 0.894322
vt 0.60665 0.894323
vt 0.512265 0.894323
vt 0.417881 0.894322
vt 0.417881 0.894323
vt 0.975658 0.548228
vt 0.968695 0.110165
vt 0.937847 0.118836
vt 0.943856 0.545354
vt 0.915708 0.455756
vt 0.571527 0.455756
vt 0.909238 0.208453
vt 0.543379 0.545354
vt 0.549387 0.118836
vt 0.577996 0.208453
vt 0.51854 0.110165
vt 0.511577 0.548228
vt 0.909238 0.208453
vt 0.909238 0.208412
vt 0.915708 0.455715
vt 0.915708 0.455756
vt 0.879817 0.727741
vt 0.879817 0.727741
vt 0.879817 0.775063
vt 0.879817 0.775063
vt 0.957206 0.981024
vt 0.505421 0.849982
vt 0.505421 0.981024
vt 0.957206 0.849982
vt 0.58281 0.775063
vt 0.879817 0.775063
vt 0.58281 0.727741
vt 0.957206 0.652822
vt 0.505421 0.652822
vt 0.879817 0.727741
vt 0.795419 0.996302
vt 0.795419 0.996302
vt 0.795419 0.996302
vt 0.795419 0.996302
vt 0.795419 0.996302
vt 0.795419 0.996302
vt 0.795419 0.996302
vt 0.795419 0.996302
vt 0.60665 0.996302
vt 0.60665 0.996302
vt 0.915708 0.455715
vt 0.909238 0.208412
vt 0.577996 0.208412
vt 0.571527 0.455715
vt 0.915708 0.455756
vt 0.915708 0.455715
vt 0.571527 0.455715
vt 0.571527 0.455756
vt 0.571527 0.455756
vt 0.571527 0.455715
vt 0.577996 0.208412
vt 0.577996 0.208453
vt 0.577996 0.208453
vt 0.577996 0.208412
vt 0.909238 0.208412
vt 0.909238 0.208453
vt 0.984188 0.996302
vt 0.984188 0.894323
vt 0.889803 0.894323
vt 0.889803 0.996302
vt 0.984188 0.996302
vt 0.889803 0.996302
vt 0.795419 0.996302
vt 0.795419 0.996302
vt 0.795419 0.996302
vt 0.889803 0.996302
vt 0.984188 0.996302
vt 0.795419 0.996302
vt 0.984188 0.996302
vt 0.889803 0.996302
vt 0.984188 0.996302
vt 0.795419 0.996302
vt 0.889803 0.996302
vt 0.984188 0.996302
vt 0.889803 0.996302
vt 0.795419 0.996302
vt 0.795419 0.894322
vt 0.889803 0.894323
vt 0.984188 0.996302
vt 0.984188 0.996302
vt 0.984188 0.894323
vt 0.58281 0.775063
vt 0.879817 0.775063
vt 0.879817 0.727741
vt 0.58281 0.727741
vt 0.58281 0.727741
vt 0.58281 0.727741
vt 0.879817 0.727741
vt 0.879817 0.727741
vt 0.58281 0.775063
vt 0.58281 0.775063
vt 0.58281 0.727741
vt 0.58281 0.727741
vt 0.879817 0.775063
vt 0.879817 0.775063
vt 0.58281 0.775063
vt 0.58281 0.775063
vn 0.08783386 -0.9961348 0.0009154163
vn 0.07811311 -0.9969439 0.001105574
vn 0 -1 0.0002521587
vn 0 -1 0.000195862
vn 0.1242068 -0.8204266 0.5580974
vn 0 -1 0
vn 0.3202297 -0.8061108 0.4976327
vn 0.08950347 -0.995986 0.0009950901
vn 0.1347821 -0.2915696 0.9470063
vn 0.05598084 -0.04558457 0.9973907
vn 0 -0.2956973 0.9552817
vn 0 -0.5263728 0.8502539
vn 0 0.295697 0.9552819
vn 0.1347822 0.2915692 0.9470065
vn 0 0.5263718 0.8502545
vn 0.02890196 0.2958435 0.9547991
vn 0.1242068 0.820426 0.5580984
vn 0.02720162 0.8353426 0.5490564
vn 0.01853583 0.9998281 0.0003599414
vn 0.08783606 0.9961345 0.0009153046
vn 0 1 0
vn 0 1 0.0001958426
vn 0 1 0.0002521336
vn 0.07811575 0.9969437 0.001105441
vn 0.02118252 0.9997755 0.0004836115
vn 0.9998997 7.439832E-05 -0.0141566
vn 0.9999485 0.0001053289 -0.01014747
vn 0.9999001 0.0001467026 -0.01413344
vn 0.9999509 5.21645E-05 -0.009914817
vn 1 0 0
vn 0.9998997 -7.439841E-05 -0.0141566
vn 1 0 0
vn 0.9999509 -5.216456E-05 -0.009914815
vn 0.9999001 -0.000146703 -0.01413344
vn 1 0 0
vn 0.9999485 -0.0001053292 -0.01014747
vn 1 0 0
vn -0.9999485 0.0001053172 -0.01014628
vn -1 0 0
vn -1 0 0
vn -0.9999509 5.215868E-05 -0.009913653
vn -0.9999001 0.0001466863 -0.01413179
vn -1 0 0
vn -0.9998999 7.439004E-05 -0.01415494
vn -0.9999509 -5.215876E-05 -0.009913653
vn -1 0 0
vn -0.9998999 -7.439014E-05 -0.01415494
vn -0.9999485 -0.0001053175 -0.01014628
vn -0.9999001 -0.0001466867 -0.01413179
vn -0.1336031 0 -0.9910349
vn 0 0 -1
vn 0 0 -1
vn -0.1468427 0 -0.9891599
vn -0.03242775 0 -0.9994741
vn -0.02871618 0 -0.9995876
vn 0.03242784 0 -0.9994741
vn 0.02871622 0 -0.9995876
vn 0.1336028 0 -0.991035
vn 0.1468426 0 -0.9891599
vn 0 0 -1
vn 0.02871623 0 -0.9995876
vn 0 0 -1
vn 0.1468426 0 -0.9891599
vn 0 0 -1
vn -0.1468427 0 -0.9891599
vn 0 0 -1
vn 0 0 -1
vn -0.1468426 0 -0.9891599
vn 0 0 -1
vn -0.02871618 0 -0.9995876
vn -0.0287162 0 -0.9995876
vn -0.1336021 0 -0.991035
vn 0.02871622 0 -0.9995876
vn -0.0287162 0 -0.9995876
vn 0.02871623 0 -0.9995876
vn -0.0287162 0 -0.9995876
vn -0.1468426 0 -0.9891599
vn -0.03242803 0 -0.9994741
vn 0.02871623 0 -0.9995876
vn 0.03242812 0 -0.9994741
vn -0.05598098 -0.04558434 0.9973907
vn 0.05598084 -0.04558457 0.9973907
vn 0.02890196 0.2958435 0.9547991
vn -0.02890201 0.2958437 0.9547991
vn 0.02720162 0.8353426 0.5490564
vn -0.02720162 0.8353426 0.5490562
vn -0.01853585 0.9998281 0.0003599606
vn 0.01853583 0.9998281 0.0003599414
vn 0.02118252 0.9997755 0.0004836115
vn -0.02118242 0.9997755 0.0004836372
vn 0 0 1
vn 0 0 1
vn 0 0 1
vn 0 0 1
vn 1 0 0
vn 1 0 0
vn 1 0 0
vn 1 0 0
vn 1 0 0
vn 1 0 0
vn 0.1468426 0 -0.9891599
vn 0.02871623 0 -0.9995876
vn 0.03242812 0 -0.9994741
vn 0.1336017 0 -0.9910352
vn 0 0 -1
vn 0 0 -1
vn -0.08783388 -0.9961348 0.0009155001
vn -0.07811347 -0.9969438 0.001105677
vn -0.08609676 -0.996286 0.001165114
vn -0.08950332 -0.995986 0.0009951809
vn 0 -1 0.0002246576
vn 0 -1 0.0002246576
vn 0 -1 0.0002248587
vn 0.08950347 -0.995986 0.0009950901
vn 0.08609722 -0.996286 0.00116501
vn 0 -1 0.0002248588
vn 0.07811311 -0.9969439 0.001105574
vn 0.08783386 -0.9961348 0.0009154163
vn -0.9998183 0 0.0190633
vn -0.9998183 0 0.0190633
vn -0.9998183 0 0.0190633
vn -0.9998183 0 0.0190633
vn 1 0 0
vn 1 0 0
vn 1 0 0
vn 1 0 0
vn 0 -1 0
vn 0 -0.9798232 0.1998665
vn 0 -1 0
vn 0 -0.9798232 0.1998665
vn 0 -0.6297761 0.7767767
vn 0 -0.6297761 0.7767767
vn 0 -0.6297799 0.7767736
vn 0 -0.8392763 0.5437051
vn 0 -0.8392763 0.5437051
vn 0 -0.6297799 0.7767736
vn -1 0 0
vn -1 0 0
vn -1 0 0
vn -1 0 0
vn -1 0 0
vn -1 0 0
vn 0 -0.9936368 0.112632
vn 0 -0.8392763 0.5437051
vn 0 -0.8392763 0.5437051
vn 0 -0.9936368 0.112632
vn 0 -1 0.0002873343
vn 0 -1 0.0002873343
vn 0 -1 0.0002873343
vn 0 -1 0.0002873343
vn 0 -0.002296085 -0.9999974
vn 0 -0.002296085 -0.9999974
vn 0 -0.002296085 -0.9999974
vn 0 -0.002296085 -0.9999974
vn 0.9998184 0 0.01906037
vn 0.9998184 0 0.01906037
vn 0.9998184 0 0.01906037
vn 0.9998184 0 0.01906037
vn 0 0.002296394 0.9999974
vn 0 0.002296394 0.9999974
vn 0 0.002296394 0.9999974
vn 0 0.002296394 0.9999974
vn 0 -1 0.0001958618
vn 0 -1 0.0002521588
vn -0.07811347 -0.9969438 0.001105677
vn -0.08783388 -0.9961348 0.0009155001
vn 0 -1 0
vn -0.1242067 -0.8204266 0.5580976
vn -0.08950332 -0.995986 0.0009951809
vn -0.3202311 -0.8061116 0.4976305
vn -0.05598098 -0.04558434 0.9973907
vn -0.1347822 -0.2915696 0.9470063
vn 0 -0.5263727 0.8502539
vn -0.02890201 0.2958437 0.9547991
vn 0 -0.2956966 0.955282
vn -0.1347822 0.2915692 0.9470065
vn 0 0.2956963 0.955282
vn -0.02720162 0.8353426 0.5490562
vn -0.1242067 0.8204259 0.5580986
vn 0 0.5263718 0.8502545
vn -0.08783609 0.9961345 0.0009153884
vn -0.01853585 0.9998281 0.0003599606
vn -0.02118242 0.9997755 0.0004836372
vn -0.07811613 0.9969437 0.001105544
vn 0 1 0.0001958423
vn 0 1 0
vn 0 1 0.0002521337
vn 0 -0.6297776 0.7767755
vn 0 -0.6297776 0.7767755
vn 0 -0.6297776 0.7767755
vn 0 -0.6297776 0.7767755
vn 0 -0.7767752 -0.629778
vn 0 -0.7767752 -0.629778
vn 0 -0.7767752 -0.629778
vn 0 -0.7767752 -0.629778
vn -1 0 0
vn -1 0 0
vn -1 0 0
vn -1 0 0
vn 0 0.7767753 0.6297778
vn 0 0.7767753 0.6297778
vn 0 0.7767753 0.6297778
vn 0 0.7767753 0.6297778
g PostBox_0
f 3/3/3 2/2/2 1/1/1
f 4/4/4 3/3/3 1/1/1
f 1/1/1 5/5/5 4/4/4
f 5/5/5 6/6/6 4/4/4
f 7/7/7 5/5/5 1/1/1
f 8/8/8 7/7/7 1/1/1
f 9/9/9 5/5/5 7/7/7
f 10/10/10 9/9/9 7/7/7
f 9/9/9 11/11/11 5/5/5
f 11/11/11 12/12/12 5/5/5
f 13/13/13 11/11/11 9/9/9
f 14/14/14 9/9/9 10/10/10
f 14/14/14 13/13/13 9/9/9
f 15/15/15 13/13/13 14/14/14
f 16/16/16 14/14/14 10/10/10
f 17/17/17 15/15/15 14/14/14
f 17/17/17 14/14/14 16/16/16
f 18/18/18 17/17/17 16/16/16
f 17/17/17 18/18/18 19/19/19
f 20/20/20 17/17/17 19/19/19
f 21/21/21 17/17/17 20/20/20
f 22/22/22 21/21/21 20/20/20
f 23/23/23 22/22/22 20/20/20
f 24/24/24 23/23/23 20/20/20
f 24/24/24 20/20/20 19/19/19
f 25/25/25 24/24/24 19/19/19
f 28/28/28 27/27/27 26/26/26
f 27/27/27 29/29/29 26/26/26
f 27/27/27 30/30/30 29/29/29
f 26/26/26 29/29/29 31/31/31
f 30/30/30 32/32/32 29/29/29
f 29/29/29 33/33/33 31/31/31
f 29/29/29 32/32/32 33/33/33
f 31/31/31 33/33/33 34/34/34
f 32/32/32 35/35/35 33/33/33
f 33/33/33 36/36/36 34/34/34
f 33/33/33 35/35/35 36/36/36
f 35/35/35 37/37/37 36/36/36
f 40/40/40 39/39/39 38/38/38
f 41/41/41 40/40/40 38/38/38
f 38/38/38 42/42/42 41/41/41
f 43/43/43 40/40/40 41/41/41
f 42/42/42 44/44/44 41/41/41
f 45/45/45 43/43/43 41/41/41
f 41/41/41 44/44/44 45/45/45
f 46/46/46 43/43/43 45/45/45
f 44/44/44 47/47/47 45/45/45
f 48/48/48 46/46/46 45/45/45
f 45/45/45 47/47/47 48/48/48
f 47/47/47 49/49/49 48/48/48
f 52/52/52 51/51/51 50/50/50
f 53/53/53 52/52/52 50/50/50
f 53/53/53 50/50/50 54/54/54
f 55/55/55 53/53/53 54/54/54
f 55/55/55 54/54/54 56/56/56
f 57/57/57 55/55/55 56/56/56
f 57/57/57 56/56/56 58/58/58
f 59/59/59 57/57/57 58/58/58
f 59/59/59 58/58/58 60/60/60
f 61/61/61 57/57/57 59/59/59
f 62/62/62 59/59/59 60/60/60
f 63/63/63 61/61/61 59/59/59
f 63/63/63 59/59/59 62/62/62
f 64/64/64 63/63/63 62/62/62
f 67/67/67 66/66/66 65/65/65
f 68/68/68 67/67/67 65/65/65
f 69/69/69 67/67/67 68/68/68
f 68/68/68 65/65/65 70/70/70
f 71/71/71 68/68/68 70/70/70
f 72/72/72 69/69/69 68/68/68
f 74/74/74 70/70/70 73/73/73
f 75/75/75 74/74/74 73/73/73
f 72/72/72 77/77/77 76/76/76
f 78/78/78 72/72/72 76/76/76
f 78/78/78 76/76/76 79/79/79
f 80/80/80 78/78/78 79/79/79
f 83/83/83 82/82/82 81/81/81
f 84/84/84 83/83/83 81/81/81
f 85/85/85 83/83/83 84/84/84
f 86/86/86 85/85/85 84/84/84
f 85/85/85 86/86/86 87/87/87
f 88/88/88 85/85/85 87/87/87
f 89/89/89 88/88/88 87/87/87
f 90/90/90 89/89/89 87/87/87
f 93/93/93 92/92/92 91/91/91
f 94/94/94 93/93/93 91/91/91
f 97/97/97 96/96/96 95/95/95
f 98/98/98 97/97/97 95/95/95
f 99/99/99 97/97/97 98/98/98
f 100/100/100 99/99/99 98/98/98
f 103/103/103 102/102/102 101/101/101
f 104/104/104 103/103/103 101/101/101
f 104/104/104 101/101/101 105/105/105
f 106/106/106 104/104/104 105/105/105
f 109/109/109 108/108/108 107/107/107
f 110/110/110 109/109/109 107/107/107
f 109/109/109 110/110/110 111/111/111
f 111/111/111 110/110/110 112/112/112
f 113/113/113 109/109/109 111/111/111
f 110/110/110 114/114/114 112/112/112
f 115/115/115 109/109/109 113/113/113
f 116/116/116 115/115/115 113/113/113
f 112/112/112 114/114/114 116/116/116
f 114/114/114 115/115/115 116/116/116
f 117/117/117 115/115/115 114/114/114
f 118/118/118 117/117/117 114/114/114
f 121/121/121 120/120/120 119/119/119
f 122/122/122 121/121/121 119/119/119
f 125/125/125 124/124/124 123/123/123
f 126/126/126 125/125/125 123/123/123
f 129/129/129 128/128/128 127/127/127
f 128/128/128 130/130/130 127/127/127
f 130/130/130 128/128/128 131/131/131
f 132/132/132 130/130/130 131/131/131
f 131/131/131 128/128/128 133/133/133
f 134/134/134 130/130/130 132/132/132
f 128/128/128 135/135/135 133/133/133
f 136/136/136 134/134/134 132/132/132
f 133/133/133 135/135/135 136/136/136
f 135/135/135 134/134/134 136/136/136
f 139/139/139 138/138/138 137/137/137
f 138/138/138 140/140/140 137/137/137
f 137/137/137 140/140/140 141/141/141
f 140/140/140 142/142/142 141/141/141
f 145/145/145 144/144/144 143/143/143
f 146/146/146 145/145/145 143/143/143
f 149/149/149 148/148/148 147/147/147
f 150/150/150 149/149/149 147/147/147
f 153/153/153 152/152/152 151/151/151
f 154/154/154 153/153/153 151/151/151
f 157/157/157 156/156/156 155/155/155
f 158/158/158 157/157/157 155/155/155
f 161/161/161 160/160/160 159/159/159
f 162/162/162 161/161/161 159/159/159
f 165/165/165 164/164/164 163/163/163
f 166/166/166 165/165/165 163/163/163
f 163/163/163 167/167/167 166/166/166
f 167/167/167 168/168/168 166/166/166
f 166/166/166 168/168/168 169/169/169
f 168/168/168 170/170/170 169/169/169
f 171/171/171 170/170/170 168/168/168
f 172/172/172 171/171/171 168/168/168
f 172/172/172 168/168/168 173/173/173
f 174/174/174 171/171/171 172/172/172
f 175/175/175 172/172/172 173/173/173
f 176/176/176 174/174/174 172/172/172
f 176/176/176 172/172/172 175/175/175
f 177/177/177 176/176/176 175/175/175
f 178/178/178 174/174/174 176/176/176
f 179/179/179 176/176/176 177/177/177
f 179/179/179 178/178/178 176/176/176
f 180/180/180 179/179/179 177/177/177
f 178/178/178 179/179/179 181/181/181
f 182/182/182 178/178/178 181/181/181
f 183/183/183 182/182/182 181/181/181
f 184/184/184 183/183/183 181/181/181
f 181/181/181 179/179/179 185/185/185
f 184/184/184 181/181/181 185/185/185
f 179/179/179 186/186/186 185/185/185
f 187/187/187 184/184/184 185/185/185
f 190/190/190 189/189/189 188/188/188
f 191/191/191 190/190/190 188/188/188
f 194/194/194 193/193/193 192/192/192
f 195/195/195 194/194/194 192/192/192
f 198/198/198 197/197/197 196/196/196
f 199/199/199 198/198/198 196/196/196
f 202/202/202 201/201/201 200/200/200
f 203/203/203 202/202/202 200/200/200
