g PriceTagBorder
v -0.505384 -0.008056 -0.042953
v 0.505384 -0.025943 -0.042953
v 0.505384 -0.008056 -0.042953
v -0.505384 -0.025943 -0.042953
v 0.487623 -0.036282 -0.031794
v -0.487623 -0.036282 -0.031794
v -0.460108 -0.011616 0.009271
v -0.460108 -0.011616 0.358162
v 0.460108 -0.011616 0.358162
v 0.460108 -0.011616 0.009271
v 0.505384 -0.008056 0.410386
v -0.505384 -0.025943 0.410386
v -0.505384 -0.008056 0.410386
v 0.505384 -0.025943 0.410386
v -0.487623 -0.036282 0.399227
v 0.487623 -0.036282 0.399227
v -0.487623 0.002283 0.399227
v -0.516576 -0.008056 0.399195
v -0.505411 0.002363 0.38518
v -0.505384 -0.008056 0.410386
v 0.487623 0.002283 0.399227
v 0.505384 -0.008056 0.410386
v 0.516576 -0.008056 0.399195
v 0.505411 0.002363 0.38518
v 0.454661 0 0.369354
v 0.505411 0.002363 0.38518
v -0.454661 0 0.369354
v 0.4713 0 0.354266
v -0.4713 0 0.354266
v 0.4713 0 0.013167
v -0.505411 0.002363 0.38518
v 0.505411 0.002363 -0.017747
v 0.516576 -0.008056 0.399195
v 0.516576 -0.008056 -0.031761
v 0.487623 0.002283 -0.031794
v 0.454661 0 -0.00192
v -0.454661 0 -0.00192
v -0.505411 0.002363 -0.017747
v -0.4713 0 0.013167
v -0.516576 -0.008056 -0.031761
v -0.516576 -0.008056 0.399195
v -0.505384 -0.008056 -0.042953
v -0.487623 0.002283 -0.031794
v -0.487623 0.002283 -0.031794
v 0.505384 -0.008056 -0.042953
v -0.505384 -0.008056 -0.042953
v 0.516576 -0.008056 -0.031761
v 0.505411 0.002363 -0.017747
v -0.505411 -0.036362 0.38518
v -0.516576 -0.025943 0.399195
v -0.505384 -0.025943 0.410386
v -0.487623 -0.036282 0.399227
v -0.487623 -0.036282 -0.031794
v -0.505384 -0.025943 -0.042953
v -0.516576 -0.025943 -0.031761
v -0.505411 -0.036362 -0.017747
v 0.505411 -0.036362 -0.017747
v 0.516576 -0.025943 -0.031761
v 0.505384 -0.025943 -0.042953
v 0.487623 -0.036282 -0.031794
v 0.505411 -0.036362 0.38518
v 0.487623 -0.036282 0.399227
v 0.505384 -0.025943 0.410386
v 0.516576 -0.025943 0.399195
v -0.4713 -0.022807 0.358162
v -0.460108 -0.022807 0.369354
v -0.460108 -0.011616 0.358162
v -0.460108 -0.011616 0.009271
v -0.4713 -0.022807 0.009271
v -0.460108 -0.022807 -0.00192
v -0.482465 -0.034772 0.364385
v -0.466974 -0.034852 0.380513
v -0.460108 -0.022807 0.369354
v -0.482465 -0.034772 0.003049
v -0.505411 -0.036362 0.38518
v -0.487623 -0.036282 0.399227
v -0.505411 -0.036362 -0.017747
v 0.487623 -0.036282 0.399227
v -0.487623 -0.036282 -0.031794
v -0.466974 -0.034852 -0.013079
v -0.460108 -0.022807 -0.00192
v 0.466974 -0.034852 0.380513
v 0.466974 -0.034852 -0.013079
v 0.487623 -0.036282 -0.031794
v 0.505411 -0.036362 -0.017747
v 0.460108 -0.022807 -0.00192
v 0.482465 -0.034772 0.003049
v 0.460108 -0.011616 0.009271
v -0.460108 -0.011616 0.009271
v 0.4713 -0.022807 0.009271
v 0.4713 -0.022807 0.009271
v 0.482465 -0.034772 0.364385
v 0.505411 -0.036362 0.38518
v 0.4713 -0.022807 0.358162
v 0.460108 -0.011616 0.358162
v 0.460108 -0.011616 0.009271
v 0.460108 -0.022807 0.369354
v 0.460108 -0.022807 0.369354
v -0.460108 -0.011616 0.358162
v 0.460108 -0.011616 0.358162
v -0.516576 -0.025943 0.399195
v -0.505411 -0.036362 0.38518
v -0.505411 -0.036362 -0.017747
v -0.516576 -0.025943 -0.031761
v -0.516576 -0.008056 0.399195
v -0.505384 -0.025943 0.410386
v -0.505384 -0.008056 0.410386
v -0.516576 -0.008056 -0.031761
v -0.505384 -0.008056 -0.042953
v -0.505384 -0.025943 -0.042953
v 0.516576 -0.025943 -0.031761
v 0.505411 -0.036362 -0.017747
v 0.505411 -0.036362 0.38518
v 0.516576 -0.025943 0.399195
v 0.516576 -0.008056 -0.031761
v 0.505384 -0.025943 -0.042953
v 0.505384 -0.008056 -0.042953
v 0.516576 -0.008056 0.399195
v 0.505384 -0.008056 0.410386
v 0.505384 -0.025943 0.410386
vt 0.053169 0.707175
vt 0.454644 0.71428
vt 0.454644 0.707176
vt 0.053169 0.71428
vt 0.447589 0.718726
vt 0.060223 0.718726
vt 0.55058 0.743946
vt 0.55058 0.892201
vt 0.941608 0.892201
vt 0.941608 0.743946
vt 0.454644 0.730308
vt 0.053169 0.723203
vt 0.053169 0.730308
vt 0.454644 0.723203
vt 0.060223 0.718758
vt 0.447589 0.718758
vt 0.093295 0.782813
vt 0.087562 0.781133
vt 0.090726 0.784456
vt 0.088864 0.77958
vt 0.336496 0.783761
vt 0.341164 0.780868
vt 0.34235 0.782289
vt 0.338944 0.785272
vt 0.327649 0.791535
vt 0.340943 0.786822
vt 0.101509 0.791437
vt 0.331802 0.794691
vt 0.097386 0.794589
vt 0.332142 0.865997
vt 0.088844 0.785805
vt 0.340684 0.87478
vt 0.343945 0.783354
vt 0.34347 0.878548
vt 0.336232 0.877773
vt 0.328019 0.869149
vt 0.101879 0.86905
vt 0.088584 0.873763
vt 0.097725 0.865894
vt 0.085583 0.877231
vt 0.086058 0.782038
vt 0.087332 0.878161
vt 0.091329 0.874661
vt 0.093032 0.876825
vt 0.340664 0.881005
vt 0.088364 0.879718
vt 0.341965 0.879452
vt 0.338802 0.87613
vt 0.054488 0.756534
vt 0.059038 0.759109
vt 0.056303 0.752992
vt 0.050204 0.747471
vt 0.061574 0.909717
vt 0.064242 0.904664
vt 0.058747 0.907113
vt 0.05421 0.912314
vt 0.37504 0.904051
vt 0.37049 0.901476
vt 0.373224 0.907593
vt 0.379324 0.913115
vt 0.372713 0.756599
vt 0.37631 0.747133
vt 0.370986 0.753237
vt 0.368687 0.759611
vt 0.032304 0.737319
vt 0.032187 0.731334
vt 0.024058 0.730458
vt 0.027335 0.930123
vt 0.035943 0.923899
vt 0.036059 0.929884
vt 0.045102 0.748598
vt 0.050777 0.743186
vt 0.036477 0.731327
vt 0.048575 0.912822
vt 0.054488 0.756534
vt 0.059035 0.750859
vt 0.056815 0.903987
vt 0.367954 0.750868
vt 0.061574 0.909717
vt 0.054391 0.918187
vt 0.040349 0.929877
vt 0.375136 0.742399
vt 0.378751 0.917399
vt 0.370493 0.909727
vt 0.37504 0.904051
vt 0.393051 0.929259
vt 0.384426 0.911988
vt 0.401085 0.936532
vt 0.03193 0.936528
vt 0.39734 0.929251
vt 0.397224 0.923266
vt 0.380953 0.747764
vt 0.372713 0.756599
vt 0.393585 0.736686
vt 0.402193 0.730462
vt 0.40547 0.930128
vt 0.393468 0.730701
vt 0.389179 0.730709
vt 0.028443 0.724053
vt 0.397598 0.724057
vt 0.450553 0.772817
vt 0.436688 0.761745
vt 0.038067 0.761745
vt 0.024202 0.772817
vt 0.450553 0.790514
vt 0.461625 0.772817
vt 0.461625 0.790514
vt 0.024202 0.790514
vt 0.01313 0.790514
vt 0.01313 0.772817
vt 0.024202 0.75062
vt 0.038067 0.761692
vt 0.436688 0.761692
vt 0.450553 0.75062
vt 0.024202 0.732924
vt 0.01313 0.75062
vt 0.01313 0.732924
vt 0.450553 0.732923
vt 0.461625 0.732924
vt 0.461625 0.75062
vn -0.3588784 0.4466281 -0.8195912
vn 0.3588784 -0.4466282 -0.8195912
vn 0.3588784 0.4466281 -0.8195912
vn -0.3588784 -0.4466282 -0.8195912
vn 0.05885779 -0.9359197 -0.3472608
vn -0.05885779 -0.9359197 -0.3472608
vn 0.341568 -0.8755847 0.3415885
vn 0.3415706 -0.875591 -0.34157
vn -0.3415706 -0.875591 -0.34157
vn -0.341568 -0.8755847 0.3415885
vn 0.3588622 0.4466319 0.8195962
vn -0.3588622 -0.4466319 0.8195962
vn -0.3588622 0.4466318 0.8195962
vn 0.3588622 -0.4466319 0.8195962
vn -0.05885486 -0.9359201 0.3472602
vn 0.05885486 -0.9359201 0.3472602
vn -0.0588535 0.9359195 0.3472622
vn -0.8141862 0.4468791 0.3706749
vn -0.345791 0.9338863 0.09102131
vn -0.3588622 0.4466318 0.8195962
vn 0.05885351 0.9359195 0.3472622
vn 0.3588622 0.4466319 0.8195962
vn 0.8141862 0.4468791 0.3706748
vn 0.345791 0.9338863 0.09102131
vn -0.01315149 0.9980043 -0.06176231
vn 0.345791 0.9338863 0.09102131
vn 0.01315149 0.9980043 -0.06176231
vn -0.05463971 0.9983776 -0.01602062
vn 0.05463971 0.9983776 -0.01602062
vn -0.05463919 0.9983777 0.01602094
vn -0.345791 0.9338863 0.09102131
vn 0.3457919 0.9338858 -0.09102274
vn 0.8141862 0.4468791 0.3706748
vn 0.8141942 0.446878 -0.3706587
vn 0.05885636 0.9359192 -0.3472623
vn -0.01315113 0.9980044 0.06176087
vn 0.01315113 0.9980044 0.06176087
vn -0.3457919 0.9338858 -0.09102276
vn 0.05463919 0.9983777 0.01602094
vn -0.8141942 0.446878 -0.3706587
vn -0.8141862 0.4468791 0.3706749
vn -0.3588784 0.4466281 -0.8195912
vn -0.05885637 0.9359192 -0.3472623
vn -0.05885637 0.9359192 -0.3472623
vn 0.3588784 0.4466281 -0.8195912
vn -0.3588784 0.4466281 -0.8195912
vn 0.8141942 0.446878 -0.3706587
vn 0.3457919 0.9338858 -0.09102274
vn -0.3457896 -0.9338872 0.09101856
vn -0.8141862 -0.4468791 0.3706748
vn -0.3588622 -0.4466319 0.8195962
vn -0.05885486 -0.9359201 0.3472602
vn -0.05885779 -0.9359197 -0.3472608
vn -0.3588784 -0.4466282 -0.8195912
vn -0.8141941 -0.446878 -0.3706587
vn -0.3457906 -0.9338866 -0.09102017
vn 0.3457906 -0.9338866 -0.09102017
vn 0.8141941 -0.446878 -0.3706587
vn 0.3588784 -0.4466282 -0.8195912
vn 0.05885779 -0.9359197 -0.3472608
vn 0.3457896 -0.9338872 0.09101856
vn 0.05885486 -0.9359201 0.3472602
vn 0.3588622 -0.4466319 0.8195962
vn 0.8141862 -0.4468791 0.3706748
vn 0.6602567 -0.7112413 -0.2412403
vn 0.241741 -0.711017 -0.6603152
vn 0.3415706 -0.875591 -0.34157
vn 0.341568 -0.8755847 0.3415885
vn 0.6602533 -0.7112391 0.2412561
vn 0.2417388 -0.7110005 0.6603338
vn 0.2952127 -0.9476865 -0.1214071
vn 0.121773 -0.948217 -0.2933525
vn 0.241741 -0.711017 -0.6603152
vn 0.2952153 -0.9476857 0.1214068
vn -0.3457896 -0.9338872 0.09101856
vn -0.05885486 -0.9359201 0.3472602
vn -0.3457906 -0.9338866 -0.09102017
vn 0.05885486 -0.9359201 0.3472602
vn -0.05885779 -0.9359197 -0.3472608
vn 0.1217728 -0.9482164 0.2933547
vn 0.2417388 -0.7110005 0.6603338
vn -0.121773 -0.948217 -0.2933525
vn -0.1217728 -0.9482164 0.2933547
vn 0.05885779 -0.9359197 -0.3472608
vn 0.3457906 -0.9338866 -0.09102017
vn -0.2417387 -0.7110005 0.6603338
vn -0.2952154 -0.9476857 0.1214069
vn -0.341568 -0.8755847 0.3415885
vn 0.341568 -0.8755847 0.3415885
vn -0.6602533 -0.711239 0.2412561
vn -0.6602533 -0.711239 0.2412561
vn -0.2952127 -0.9476865 -0.1214071
vn 0.3457896 -0.9338872 0.09101856
vn -0.6602567 -0.7112413 -0.2412403
vn -0.3415706 -0.875591 -0.34157
vn -0.341568 -0.8755847 0.3415885
vn -0.241741 -0.711017 -0.6603152
vn -0.241741 -0.711017 -0.6603152
vn 0.3415706 -0.875591 -0.34157
vn -0.3415706 -0.875591 -0.34157
vn -0.8141862 -0.4468791 0.3706748
vn -0.3457896 -0.9338872 0.09101856
vn -0.3457906 -0.9338866 -0.09102017
vn -0.8141941 -0.446878 -0.3706587
vn -0.8141862 0.4468791 0.3706749
vn -0.3588622 -0.4466319 0.8195962
vn -0.3588622 0.4466318 0.8195962
vn -0.8141942 0.446878 -0.3706587
vn -0.3588784 0.4466281 -0.8195912
vn -0.3588784 -0.4466282 -0.8195912
vn 0.8141941 -0.446878 -0.3706587
vn 0.3457906 -0.9338866 -0.09102017
vn 0.3457896 -0.9338872 0.09101856
vn 0.8141862 -0.4468791 0.3706748
vn 0.8141942 0.446878 -0.3706587
vn 0.3588784 -0.4466282 -0.8195912
vn 0.3588784 0.4466281 -0.8195912
vn 0.8141862 0.4468791 0.3706748
vn 0.3588622 0.4466319 0.8195962
vn 0.3588622 -0.4466319 0.8195962
g PriceTagBorder_0
f 3/3/3 2/2/2 1/1/1
f 2/2/2 4/4/4 1/1/1
f 2/2/2 5/5/5 4/4/4
f 5/5/5 6/6/6 4/4/4
f 9/9/9 8/8/8 7/7/7
f 10/10/10 9/9/9 7/7/7
f 13/13/13 12/12/12 11/11/11
f 12/12/12 14/14/14 11/11/11
f 12/12/12 15/15/15 14/14/14
f 15/15/15 16/16/16 14/14/14
f 19/19/19 18/18/18 17/17/17
f 18/18/18 20/20/20 17/17/17
f 17/17/17 20/20/20 21/21/21
f 20/20/20 22/22/22 21/21/21
f 22/22/22 23/23/23 21/21/21
f 23/23/23 24/24/24 21/21/21
f 17/17/17 21/21/21 25/25/25
f 25/25/25 21/21/21 26/26/26
f 27/27/27 17/17/17 25/25/25
f 28/28/28 25/25/25 26/26/26
f 17/17/17 27/27/27 29/29/29
f 28/28/28 26/26/26 30/30/30
f 31/31/31 17/17/17 29/29/29
f 26/26/26 32/32/32 30/30/30
f 26/26/26 33/33/33 32/32/32
f 33/33/33 34/34/34 32/32/32
f 32/32/32 35/35/35 30/30/30
f 35/35/35 36/36/36 30/30/30
f 36/36/36 35/35/35 37/37/37
f 38/38/38 31/31/31 29/29/29
f 39/39/39 38/38/38 29/29/29
f 39/39/39 37/37/37 38/38/38
f 38/38/38 40/40/40 31/31/31
f 40/40/40 41/41/41 31/31/31
f 42/42/42 40/40/40 38/38/38
f 43/43/43 42/42/42 38/38/38
f 37/37/37 44/44/44 38/38/38
f 35/35/35 44/44/44 37/37/37
f 35/35/35 45/45/45 44/44/44
f 45/45/45 46/46/46 44/44/44
f 47/47/47 45/45/45 35/35/35
f 48/48/48 47/47/47 35/35/35
f 51/51/51 50/50/50 49/49/49
f 52/52/52 51/51/51 49/49/49
f 55/55/55 54/54/54 53/53/53
f 56/56/56 55/55/55 53/53/53
f 59/59/59 58/58/58 57/57/57
f 60/60/60 59/59/59 57/57/57
f 63/63/63 62/62/62 61/61/61
f 64/64/64 63/63/63 61/61/61
f 67/67/67 66/66/66 65/65/65
f 68/68/68 67/67/67 65/65/65
f 69/69/69 68/68/68 65/65/65
f 70/70/70 68/68/68 69/69/69
f 69/69/69 65/65/65 71/71/71
f 72/72/72 71/71/71 65/65/65
f 73/73/73 72/72/72 65/65/65
f 74/74/74 69/69/69 71/71/71
f 75/75/75 71/71/71 72/72/72
f 71/71/71 75/75/75 74/74/74
f 76/76/76 75/75/75 72/72/72
f 75/75/75 77/77/77 74/74/74
f 78/78/78 76/76/76 72/72/72
f 77/77/77 79/79/79 74/74/74
f 74/74/74 80/80/80 69/69/69
f 79/79/79 80/80/80 74/74/74
f 80/80/80 81/81/81 69/69/69
f 72/72/72 73/73/73 82/82/82
f 82/82/82 78/78/78 72/72/72
f 80/80/80 79/79/79 83/83/83
f 79/79/79 84/84/84 83/83/83
f 83/83/83 84/84/84 85/85/85
f 86/86/86 81/81/81 80/80/80
f 83/83/83 86/86/86 80/80/80
f 87/87/87 83/83/83 85/85/85
f 83/83/83 87/87/87 86/86/86
f 86/86/86 88/88/88 81/81/81
f 88/88/88 89/89/89 81/81/81
f 90/90/90 88/88/88 86/86/86
f 87/87/87 91/91/91 86/86/86
f 87/87/87 85/85/85 92/92/92
f 82/82/82 92/92/92 78/78/78
f 85/85/85 93/93/93 92/92/92
f 92/92/92 93/93/93 78/78/78
f 92/92/92 94/94/94 87/87/87
f 94/94/94 91/91/91 87/87/87
f 92/92/92 82/82/82 94/94/94
f 94/94/94 95/95/95 91/91/91
f 95/95/95 96/96/96 91/91/91
f 97/97/97 95/95/95 94/94/94
f 82/82/82 98/98/98 94/94/94
f 73/73/73 98/98/98 82/82/82
f 73/73/73 99/99/99 98/98/98
f 99/99/99 100/100/100 98/98/98
f 103/103/103 102/102/102 101/101/101
f 104/104/104 103/103/103 101/101/101
f 104/104/104 101/101/101 105/105/105
f 101/101/101 106/106/106 105/105/105
f 106/106/106 107/107/107 105/105/105
f 108/108/108 104/104/104 105/105/105
f 108/108/108 109/109/109 104/104/104
f 109/109/109 110/110/110 104/104/104
f 113/113/113 112/112/112 111/111/111
f 114/114/114 113/113/113 111/111/111
f 114/114/114 111/111/111 115/115/115
f 111/111/111 116/116/116 115/115/115
f 116/116/116 117/117/117 115/115/115
f 118/118/118 114/114/114 115/115/115
f 118/118/118 119/119/119 114/114/114
f 119/119/119 120/120/120 114/114/114
