g Pub_Stool
v 0.237576 0.26606 0.703447
v 0.201381 0.222803 0.68397
v 0.358657 0.329096 0
v 0.610039 -0.252686 0.611408
v 0.660301 0 0.611408
v 0.610039 0.252686 0.611408
v 0.466903 -0.466903 0.611408
v 0.466903 0.466903 0.611408
v 0.252686 -0.610039 0.611408
v 0.252686 0.610039 0.611408
v 0 -0.660301 0.611408
v 0 0.660301 0.611408
v -0.252686 -0.610039 0.611408
v -0.252686 0.610039 0.611408
v -0.466903 -0.466903 0.611408
v -0.466903 0.466903 0.611408
v -0.610039 -0.252686 0.611408
v -0.610039 0.252686 0.611408
v -0.660301 0 0.611408
v 0.466903 -0.466903 0.611408
v 0.252686 -0.610039 0.611408
v 0.255647 -0.617187 0.763377
v 0.472374 -0.472374 0.763377
v 0.610039 -0.252686 0.611408
v 0.439582 -0.439582 0.816317
v 0.2379 -0.574341 0.816317
v 0.574341 -0.2379 0.816317
v 0.617187 -0.255647 0.763377
v 0.660301 0 0.611408
v 0.621663 0 0.816317
v 0.668038 0 0.763377
v 0.610039 0.252686 0.611408
v 0.574341 0.2379 0.816317
v 0.617187 0.255647 0.763377
v -0.252686 -0.610039 0.611408
v -0.466903 -0.466903 0.611408
v -0.472374 -0.472374 0.763377
v -0.255647 -0.617187 0.763377
v 0 -0.660301 0.611408
v -0.2379 -0.574341 0.816317
v -0.439582 -0.439582 0.816317
v 0 -0.621663 0.816317
v 0 -0.668038 0.763377
v 0.252686 -0.610039 0.611408
v 0.2379 -0.574341 0.816317
v 0.255647 -0.617187 0.763377
v 0 0.660301 0.611408
v 0.252686 0.610039 0.611408
v 0.255647 0.617187 0.763377
v 0 0.668038 0.763377
v -0.252686 0.610039 0.611408
v 0 0.621663 0.816317
v 0.2379 0.574342 0.816317
v -0.2379 0.574341 0.816317
v -0.255647 0.617187 0.763377
v -0.466903 0.466903 0.611408
v -0.439582 0.439582 0.816317
v -0.472374 0.472374 0.763377
v -0.610039 0.252686 0.611408
v -0.574341 0.2379 0.816317
v -0.617187 0.255647 0.763377
v -0.660301 0 0.611408
v -0.610039 0.252686 0.611408
v -0.617187 0.255647 0.763377
v -0.668038 0 0.763377
v -0.610039 -0.252686 0.611408
v -0.621663 0 0.816317
v -0.574341 0.2379 0.816317
v -0.574341 -0.2379 0.816317
v -0.617187 -0.255647 0.763377
v -0.466903 -0.466903 0.611408
v -0.439582 -0.439582 0.816317
v -0.472374 -0.472374 0.763377
v 0.466903 0.466903 0.611408
v 0.610039 0.252686 0.611408
v 0.617187 0.255647 0.763377
v 0.472374 0.472374 0.763377
v 0.252686 0.610039 0.611408
v 0.255647 0.617187 0.763377
v 0.2379 0.574342 0.816317
v 0.439582 0.439582 0.816317
v 0.574341 0.2379 0.816317
v -0.359854 0.225762 0.724761
v -0.359779 0.138301 0.71302
v -0.484359 0.281257 0
v -0.479719 0.32627 0
v 0.237576 0.26606 0.703447
v 0.442999 0.362937 0
v 0.318674 0.266876 0.721604
v 0.401308 0.367018 0
v 0.358657 0.329096 0
v 0.206589 0.141588 0.677355
v 0.359159 0.278582 0
v 0.358657 0.329096 0
v 0.201381 0.222803 0.68397
v 0.317366 0.1013 0.692899
v 0.447358 0.237665 0
v 0.400241 0.237543 0
v 0.24232 0.10596 0.679931
v 0.206589 0.141588 0.677355
v 0.359159 0.278582 0
v 0.359854 -0.225762 0.724761
v 0.359779 -0.1383 0.71302
v 0.484359 -0.281257 0
v 0.479719 -0.32627 0
v -0.237576 0.26606 0.703447
v -0.318674 0.266876 0.721604
v -0.442999 0.362937 0
v -0.401308 0.367018 0
v -0.206589 0.141588 0.677355
v -0.201381 0.222803 0.68397
v -0.358657 0.329096 0
v -0.359159 0.278582 0
v -0.24232 0.10596 0.679931
v -0.400241 0.237543 0
v -0.317366 0.1013 0.692899
v -0.24232 0.10596 0.679931
v -0.400241 0.237543 0
v -0.447358 0.237665 0
v -0.359854 -0.225762 0.724761
v -0.479719 -0.32627 0
v -0.484359 -0.281257 0
v -0.359779 -0.1383 0.71302
v 0.237576 -0.26606 0.703447
v 0.318674 -0.266876 0.721604
v 0.442999 -0.362936 0
v 0.401308 -0.367018 0
v 0.206589 -0.141588 0.677355
v 0.201381 -0.222803 0.68397
v 0.358657 -0.329096 0
v 0.359159 -0.278582 0
v 0.24232 -0.105959 0.679931
v 0.400241 -0.237542 0
v 0.317366 -0.1013 0.692899
v 0.24232 -0.105959 0.679931
v 0.400241 -0.237542 0
v 0.447358 -0.237665 0
v -0.237576 -0.26606 0.703447
v -0.442999 -0.362936 0
v -0.318674 -0.266876 0.721604
v -0.401308 -0.367018 0
v -0.358657 -0.329096 0
v -0.201381 -0.222803 0.68397
v -0.206589 -0.141588 0.677355
v -0.359159 -0.278582 0
v -0.358657 -0.329096 0
v -0.201381 -0.222803 0.68397
v -0.317366 -0.1013 0.692899
v -0.400241 -0.237542 0
v -0.24232 -0.10596 0.679931
v -0.447358 -0.237665 0
v -0.484359 -0.281257 0
v -0.359779 -0.1383 0.71302
v 0.574341 0.2379 0.816317
v 0.621663 0 0.816317
v 0.574341 -0.2379 0.816317
v 0.439582 0.439582 0.816317
v 0.439582 -0.439582 0.816317
v 0.2379 0.574342 0.816317
v 0.2379 -0.574341 0.816317
v 0 0.621663 0.816317
v 0 -0.621663 0.816317
v -0.2379 0.574341 0.816317
v -0.2379 -0.574341 0.816317
v -0.439582 0.439582 0.816317
v -0.439582 -0.439582 0.816317
v -0.574341 0.2379 0.816317
v -0.574341 -0.2379 0.816317
v -0.621663 0 0.816317
v 0.317366 0.1013 0.692899
v 0.359779 0.1383 0.71302
v 0.484359 0.281257 0
v 0.447358 0.237665 0
v 0.442999 0.362937 0
v 0.479719 0.32627 0
v 0.359854 0.225762 0.724761
v 0.318674 0.266876 0.721604
v -0.201381 0.222803 0.68397
v -0.237576 0.26606 0.703447
v -0.401308 0.367018 0
v -0.358657 0.329096 0
v -0.359779 0.138301 0.71302
v -0.317366 0.1013 0.692899
v -0.447358 0.237665 0
v -0.484359 0.281257 0
v -0.479719 0.32627 0
v -0.442999 0.362937 0
v -0.318674 0.266876 0.721604
v -0.359854 0.225762 0.724761
v 0.201381 -0.222803 0.68397
v 0.237576 -0.26606 0.703447
v 0.401308 -0.367018 0
v 0.358657 -0.329096 0
v 0.359779 -0.1383 0.71302
v 0.317366 -0.1013 0.692899
v 0.447358 -0.237665 0
v 0.484359 -0.281257 0
v 0.479719 -0.32627 0
v 0.442999 -0.362936 0
v 0.318674 -0.266876 0.721604
v 0.359854 -0.225762 0.724761
v -0.400241 -0.237542 0
v -0.359159 -0.278582 0
v -0.206589 -0.141588 0.677355
v -0.24232 -0.10596 0.679931
v -0.442999 -0.362936 0
v -0.479719 -0.32627 0
v -0.359854 -0.225762 0.724761
v -0.318674 -0.266876 0.721604
v 0.359854 0.225762 0.724761
v 0.479719 0.32627 0
v 0.484359 0.281257 0
v 0.359779 0.1383 0.71302
vt 0.109305 0.500148
vt 0.019242 0.500148
vt 0.019242 0.587756
vt 0.857479 0.719034
vt 0.868956 0.777099
vt 0.857338 0.835136
vt 0.824655 0.669781
vt 0.824396 0.88431
vt 0.775482 0.636839
vt 0.775142 0.917134
vt 0.717445 0.625221
vt 0.717078 0.92861
vt 0.65938 0.636698
vt 0.659041 0.916993
vt 0.610127 0.669522
vt 0.609867 0.88405
vt 0.577184 0.718695
vt 0.577044 0.834797
vt 0.565567 0.776732
vt 0.648404 0.22304
vt 0.630073 0.204462
vt 0.62195 0.215998
vt 0.636479 0.230647
vt 0.658399 0.247196
vt 0.631795 0.233839
vt 0.61885 0.220704
vt 0.63893 0.250958
vt 0.644476 0.249753
vt 0.658541 0.273342
vt 0.639094 0.269506
vt 0.64468 0.27047
vt 0.648817 0.297583
vt 0.632348 0.286672
vt 0.637122 0.289667
vt 0.579954 0.194305
vt 0.555867 0.204391
vt 0.563585 0.216232
vt 0.582491 0.208183
vt 0.606042 0.194333
vt 0.583688 0.213675
vt 0.566823 0.220848
vt 0.60197 0.213619
vt 0.603 0.208098
vt 0.630073 0.204462
vt 0.61885 0.220704
vt 0.62195 0.215998
vt 0.580391 0.326315
vt 0.606496 0.326315
vt 0.603958 0.312441
vt 0.583411 0.312516
vt 0.556256 0.316258
vt 0.584441 0.306974
vt 0.602767 0.306948
vt 0.567443 0.299918
vt 0.564355 0.304654
vt 0.537788 0.297696
vt 0.554398 0.28684
vt 0.549722 0.290048
vt 0.527767 0.273484
vt 0.54728 0.269713
vt 0.541725 0.270919
vt 0.527634 0.247273
vt 0.527767 0.273484
vt 0.541725 0.270919
vt 0.541511 0.250189
vt 0.537488 0.223003
vt 0.547098 0.251168
vt 0.54728 0.269713
vt 0.553959 0.234014
vt 0.549183 0.230986
vt 0.555867 0.204391
vt 0.566823 0.220848
vt 0.563585 0.216232
vt 0.630552 0.316217
vt 0.648817 0.297583
vt 0.637122 0.289667
vt 0.622835 0.304414
vt 0.606496 0.326315
vt 0.603958 0.312441
vt 0.602767 0.306948
vt 0.619603 0.299819
vt 0.632348 0.286672
vt 0.019242 0.516047
vt 0.019242 0.572137
vt 0.470688 0.556889
vt 0.470688 0.530941
vt 0.109305 0.500148
vt 0.299972 0.588415
vt 0.382545 0.500148
vt 0.193677 0.588415
vt 0.019242 0.587756
vt 0.102279 0.500148
vt 0.180068 0.588415
vt 0.313446 0.588415
vt 0.389502 0.500148
vt 0.107231 0.500148
vt 0.18966 0.588415
vt 0.296728 0.588415
vt 0.38087 0.500148
vt 0.470688 0.500983
vt 0.470688 0.588415
vt 0.019242 0.516047
vt 0.019242 0.572137
vt 0.470688 0.556889
vt 0.470688 0.530941
vt 0.019242 0.517757
vt 0.019242 0.571181
vt 0.470688 0.555036
vt 0.470688 0.534253
vt 0.019242 0.516383
vt 0.019242 0.572541
vt 0.470688 0.557671
vt 0.470688 0.531593
vt 0.023434 0.500148
vt 0.470688 0.500148
vt 0.019242 0.517352
vt 0.019242 0.570853
vt 0.470688 0.554402
vt 0.470688 0.533468
vt 0.100558 0.500148
vt 0.176736 0.588415
vt 0.309448 0.588415
vt 0.387438 0.500148
vt 0.019242 0.517757
vt 0.019242 0.571181
vt 0.470688 0.555036
vt 0.470688 0.534253
vt 0.019242 0.516383
vt 0.019242 0.572541
vt 0.470688 0.557671
vt 0.470688 0.531593
vt 0.023434 0.500148
vt 0.470688 0.500148
vt 0.019242 0.517352
vt 0.019242 0.570853
vt 0.470688 0.554402
vt 0.470688 0.533468
vt 0.109305 0.500148
vt 0.299972 0.588415
vt 0.382545 0.500148
vt 0.193677 0.588415
vt 0.019242 0.587756
vt 0.019242 0.500148
vt 0.102279 0.500148
vt 0.180068 0.588415
vt 0.313446 0.588415
vt 0.389502 0.500148
vt 0.107231 0.500148
vt 0.296728 0.588415
vt 0.38087 0.500148
vt 0.18966 0.588415
vt 0.019242 0.588415
vt 0.019242 0.501021
vt 0.632348 0.286672
vt 0.639094 0.269506
vt 0.63893 0.250958
vt 0.619603 0.299819
vt 0.631795 0.233839
vt 0.602767 0.306948
vt 0.61885 0.220704
vt 0.584441 0.306974
vt 0.60197 0.213619
vt 0.567443 0.299918
vt 0.583688 0.213675
vt 0.554398 0.28684
vt 0.566823 0.220848
vt 0.54728 0.269713
vt 0.553959 0.234014
vt 0.547098 0.251168
vt 0.107231 0.500148
vt 0.019242 0.501021
vt 0.019242 0.588415
vt 0.18966 0.588415
vt 0.299972 0.588415
vt 0.470688 0.587726
vt 0.470688 0.500148
vt 0.382545 0.500148
vt 0.019242 0.572541
vt 0.02364 0.588415
vt 0.470688 0.588415
vt 0.470688 0.557671
vt 0.019242 0.572137
vt 0.019242 0.588415
vt 0.467327 0.588415
vt 0.470688 0.556889
vt 0.470688 0.530941
vt 0.467159 0.500148
vt 0.019242 0.500148
vt 0.019242 0.516047
vt 0.019242 0.572541
vt 0.02364 0.588415
vt 0.470688 0.588415
vt 0.470688 0.557671
vt 0.019242 0.572137
vt 0.019242 0.588415
vt 0.467327 0.588415
vt 0.470688 0.556889
vt 0.470688 0.530941
vt 0.467159 0.500148
vt 0.019242 0.500148
vt 0.019242 0.516047
vt 0.296728 0.588415
vt 0.470688 0.588415
vt 0.470688 0.500983
vt 0.38087 0.500148
vt 0.299972 0.588415
vt 0.470688 0.587726
vt 0.470688 0.500148
vt 0.382545 0.500148
vt 0.100558 0.500148
vt 0.176736 0.588415
vt 0.309448 0.588415
vt 0.387438 0.500148
vn -0.3634822 0.9303393 0.04847067
vn -0.9257414 0.341929 -0.161516
vn -0.9257414 0.341929 -0.161516
vn 0.7627322 -0.3159347 -0.5642915
vn 0.9775953 0 -0.2104936
vn 0.5011739 0.2075934 -0.8400772
vn 0.2472839 -0.2472839 -0.9368572
vn 0.1755273 0.1755274 -0.9687002
vn 0.07458147 -0.1800552 -0.980825
vn 0.06397278 0.1544437 -0.9859283
vn 0 -0.1551816 -0.987886
vn 0 0.1551816 -0.987886
vn -0.06397278 -0.1544436 -0.9859283
vn -0.07458147 0.1800552 -0.980825
vn -0.1755273 -0.1755273 -0.9687003
vn -0.2472839 0.2472839 -0.9368572
vn -0.5011739 -0.2075934 -0.8400772
vn -0.7627322 0.3159347 -0.5642915
vn -0.9775953 0 -0.2104936
vn 0.2472839 -0.2472839 -0.9368572
vn 0.07458147 -0.1800552 -0.980825
vn 0.3764088 -0.9087297 0.180352
vn 0.6955118 -0.6955119 0.1803511
vn 0.7627322 -0.3159347 -0.5642915
vn 0.06419481 -0.06419481 0.9958705
vn 0.02357912 -0.05692495 0.9981
vn 0.1883904 -0.07803394 0.9789891
vn 0.9087297 -0.3764088 0.180352
vn 0.9775953 0 -0.2104936
vn 0.6076909 0 0.7941736
vn 0.983602 0 0.1803527
vn 0.5011739 0.2075934 -0.8400772
vn 0.3391571 0.1404836 0.930181
vn 0.9087297 0.3764089 0.180352
vn -0.06397278 -0.1544436 -0.9859283
vn -0.1755273 -0.1755273 -0.9687003
vn -0.6955118 -0.6955119 0.1803511
vn -0.3764088 -0.9087297 0.180352
vn 0 -0.1551816 -0.987886
vn -0.02739798 -0.0661445 0.9974338
vn -0.09033758 -0.09033758 0.9918056
vn 0 -0.05729147 0.9983575
vn 0 -0.983602 0.1803527
vn 0.07458147 -0.1800552 -0.980825
vn 0.02357912 -0.05692495 0.9981
vn 0.3764088 -0.9087297 0.180352
vn 0 0.1551816 -0.987886
vn 0.06397278 0.1544437 -0.9859283
vn 0.3764089 0.90873 0.1803499
vn 0 0.9836022 0.1803515
vn -0.07458147 0.1800552 -0.980825
vn 0 0.05729148 0.9983575
vn 0.02739798 0.06614449 0.9974338
vn -0.02357913 0.05692498 0.9981
vn -0.3764088 0.9087297 0.180352
vn -0.2472839 0.2472839 -0.9368572
vn -0.06419483 0.06419482 0.9958705
vn -0.6955119 0.6955118 0.1803511
vn -0.7627322 0.3159347 -0.5642915
vn -0.1883904 0.07803393 0.9789891
vn -0.9087297 0.3764089 0.180352
vn -0.9775953 0 -0.2104936
vn -0.7627322 0.3159347 -0.5642915
vn -0.9087297 0.3764089 0.180352
vn -0.983602 0 0.1803527
vn -0.5011739 -0.2075934 -0.8400772
vn -0.6076909 0 0.7941736
vn -0.1883904 0.07803393 0.9789891
vn -0.3391571 -0.1404836 0.930181
vn -0.9087297 -0.3764089 0.180352
vn -0.1755273 -0.1755273 -0.9687003
vn -0.09033758 -0.09033758 0.9918056
vn -0.6955118 -0.6955119 0.1803511
vn 0.1755273 0.1755274 -0.9687002
vn 0.5011739 0.2075934 -0.8400772
vn 0.9087297 0.3764089 0.180352
vn 0.6955121 0.6955119 0.1803502
vn 0.06397278 0.1544437 -0.9859283
vn 0.3764089 0.90873 0.1803499
vn 0.02739798 0.06614449 0.9974338
vn 0.09033775 0.0903376 0.9918056
vn 0.3391571 0.1404836 0.930181
vn -0.9141493 0.3508446 0.2030738
vn -0.9359571 -0.3389431 0.09540401
vn -0.9359571 -0.3389431 0.09540401
vn -0.9141493 0.3508446 0.2030738
vn -0.3634822 0.9303393 0.04847067
vn 0.3527696 0.9171119 0.1856323
vn 0.3527696 0.9171119 0.1856323
vn -0.3634822 0.9303393 0.04847067
vn -0.9257414 0.341929 -0.161516
vn -0.8963287 -0.3492611 -0.2731508
vn -0.8963287 -0.3492611 -0.2731508
vn -0.9257414 0.341929 -0.161516
vn -0.9257414 0.341929 -0.161516
vn 0.3714013 -0.9214286 -0.1141513
vn 0.3714013 -0.9214286 -0.1141513
vn -0.3463682 -0.902456 -0.2561297
vn -0.3463682 -0.902456 -0.2561297
vn -0.8963287 -0.3492611 -0.2731508
vn -0.8963287 -0.3492611 -0.2731508
vn 0.9141494 -0.3508446 0.2030736
vn 0.9359571 0.3389432 0.09540372
vn 0.9359571 0.3389432 0.09540372
vn 0.9141494 -0.3508446 0.2030736
vn 0.3634822 0.9303393 0.04847069
vn -0.3527696 0.9171119 0.1856324
vn -0.3527696 0.9171119 0.1856324
vn 0.3634822 0.9303393 0.04847069
vn 0.8963288 -0.3492611 -0.2731508
vn 0.9257414 0.341929 -0.161516
vn 0.9257414 0.341929 -0.161516
vn 0.8963288 -0.3492611 -0.2731508
vn 0.3463683 -0.902456 -0.2561296
vn 0.3463683 -0.902456 -0.2561296
vn -0.371405 -0.9214272 -0.11415
vn 0.3463683 -0.902456 -0.2561296
vn 0.3463683 -0.902456 -0.2561296
vn -0.371405 -0.9214272 -0.11415
vn -0.9141494 -0.3508446 0.2030736
vn -0.9141494 -0.3508446 0.2030736
vn -0.9359571 0.3389432 0.09540372
vn -0.9359571 0.3389432 0.09540372
vn -0.3634782 -0.9303408 0.04847128
vn 0.3527696 -0.917112 0.1856319
vn 0.3527696 -0.917112 0.1856319
vn -0.3634782 -0.9303408 0.04847128
vn -0.89633 0.3492582 -0.2731506
vn -0.9257414 -0.341929 -0.161516
vn -0.9257414 -0.341929 -0.161516
vn -0.89633 0.3492582 -0.2731506
vn -0.3463681 0.9024559 -0.2561298
vn -0.3463681 0.9024559 -0.2561298
vn 0.3714088 0.9214258 -0.1141491
vn -0.3463681 0.9024559 -0.2561298
vn -0.3463681 0.9024559 -0.2561298
vn 0.3714088 0.9214258 -0.1141491
vn 0.3634783 -0.9303408 0.0484713
vn -0.3527697 -0.9171119 0.1856319
vn -0.3527697 -0.9171119 0.1856319
vn 0.3634783 -0.9303408 0.0484713
vn 0.9257414 -0.3419289 -0.161516
vn 0.9257414 -0.3419289 -0.161516
vn 0.8963295 0.3492596 -0.2731505
vn 0.8963295 0.3492596 -0.2731505
vn 0.9257414 -0.3419289 -0.161516
vn 0.9257414 -0.3419289 -0.161516
vn -0.3714049 0.9214273 -0.1141498
vn 0.3463683 0.902456 -0.2561291
vn 0.3463683 0.902456 -0.2561291
vn -0.3714049 0.9214273 -0.1141498
vn -0.9359571 0.3389432 0.09540372
vn -0.9359571 0.3389432 0.09540372
vn 0.3391571 0.1404836 0.930181
vn 0.6076909 0 0.7941736
vn 0.1883904 -0.07803394 0.9789891
vn 0.09033775 0.0903376 0.9918056
vn 0.06419481 -0.06419481 0.9958705
vn 0.02739798 0.06614449 0.9974338
vn 0.02357912 -0.05692495 0.9981
vn 0 0.05729148 0.9983575
vn 0 -0.05729147 0.9983575
vn -0.02357913 0.05692498 0.9981
vn -0.02739798 -0.0661445 0.9974338
vn -0.06419483 0.06419482 0.9958705
vn -0.09033758 -0.09033758 0.9918056
vn -0.1883904 0.07803393 0.9789891
vn -0.3391571 -0.1404836 0.930181
vn -0.6076909 0 0.7941736
vn 0.3714013 -0.9214286 -0.1141513
vn 0.9359571 -0.3389432 0.09540373
vn 0.9359571 -0.3389432 0.09540373
vn 0.3714013 -0.9214286 -0.1141513
vn 0.3527696 0.9171119 0.1856323
vn 0.91415 0.3508431 0.2030738
vn 0.91415 0.3508431 0.2030738
vn 0.3527696 0.9171119 0.1856323
vn 0.9257414 0.341929 -0.161516
vn 0.3634822 0.9303393 0.04847069
vn 0.3634822 0.9303393 0.04847069
vn 0.9257414 0.341929 -0.161516
vn -0.9359571 -0.3389431 0.09540401
vn -0.371405 -0.9214272 -0.11415
vn -0.371405 -0.9214272 -0.11415
vn -0.9359571 -0.3389431 0.09540401
vn -0.9141493 0.3508446 0.2030738
vn -0.3527696 0.9171119 0.1856324
vn -0.3527696 0.9171119 0.1856324
vn -0.9141493 0.3508446 0.2030738
vn -0.9257414 -0.341929 -0.161516
vn -0.3634782 -0.9303408 0.04847128
vn -0.3634782 -0.9303408 0.04847128
vn -0.9257414 -0.341929 -0.161516
vn 0.9359571 0.3389432 0.09540372
vn 0.3714088 0.9214258 -0.1141491
vn 0.3714088 0.9214258 -0.1141491
vn 0.9359571 0.3389432 0.09540372
vn 0.9141494 -0.3508446 0.2030736
vn 0.3527696 -0.917112 0.1856319
vn 0.3527696 -0.917112 0.1856319
vn 0.9141494 -0.3508446 0.2030736
vn 0.3463683 0.902456 -0.2561291
vn 0.8963295 0.3492596 -0.2731505
vn 0.8963295 0.3492596 -0.2731505
vn 0.3463683 0.902456 -0.2561291
vn -0.3527697 -0.9171119 0.1856319
vn -0.9141494 -0.3508446 0.2030736
vn -0.9141494 -0.3508446 0.2030736
vn -0.3527697 -0.9171119 0.1856319
vn 0.91415 0.3508431 0.2030738
vn 0.91415 0.3508431 0.2030738
vn 0.9359571 -0.3389432 0.09540373
vn 0.9359571 -0.3389432 0.09540373
g Pub_Stool_0
f 3/3/3 2/2/2 1/1/1
f 6/6/6 5/5/5 4/4/4
f 4/4/4 7/7/7 6/6/6
f 7/7/7 8/8/8 6/6/6
f 7/7/7 9/9/9 8/8/8
f 9/9/9 10/10/10 8/8/8
f 9/9/9 11/11/11 10/10/10
f 11/11/11 12/12/12 10/10/10
f 11/11/11 13/13/13 12/12/12
f 13/13/13 14/14/14 12/12/12
f 13/13/13 15/15/15 14/14/14
f 15/15/15 16/16/16 14/14/14
f 15/15/15 17/17/17 16/16/16
f 17/17/17 18/18/18 16/16/16
f 17/17/17 19/19/19 18/18/18
f 22/22/22 21/21/21 20/20/20
f 23/23/23 22/22/22 20/20/20
f 23/23/23 20/20/20 24/24/24
f 22/22/22 23/23/23 25/25/25
f 26/26/26 22/22/22 25/25/25
f 25/25/25 23/23/23 27/27/27
f 28/28/28 23/23/23 24/24/24
f 23/23/23 28/28/28 27/27/27
f 28/28/28 24/24/24 29/29/29
f 27/27/27 28/28/28 30/30/30
f 31/31/31 28/28/28 29/29/29
f 28/28/28 31/31/31 30/30/30
f 31/31/31 29/29/29 32/32/32
f 30/30/30 31/31/31 33/33/33
f 34/34/34 31/31/31 32/32/32
f 31/31/31 34/34/34 33/33/33
f 37/37/37 36/36/36 35/35/35
f 38/38/38 37/37/37 35/35/35
f 38/38/38 35/35/35 39/39/39
f 37/37/37 38/38/38 40/40/40
f 41/41/41 37/37/37 40/40/40
f 40/40/40 38/38/38 42/42/42
f 43/43/43 38/38/38 39/39/39
f 38/38/38 43/43/43 42/42/42
f 43/43/43 39/39/39 44/44/44
f 42/42/42 43/43/43 45/45/45
f 46/46/46 43/43/43 44/44/44
f 43/43/43 46/46/46 45/45/45
f 49/49/49 48/48/48 47/47/47
f 50/50/50 49/49/49 47/47/47
f 50/50/50 47/47/47 51/51/51
f 49/49/49 50/50/50 52/52/52
f 53/53/53 49/49/49 52/52/52
f 52/52/52 50/50/50 54/54/54
f 55/55/55 50/50/50 51/51/51
f 50/50/50 55/55/55 54/54/54
f 55/55/55 51/51/51 56/56/56
f 54/54/54 55/55/55 57/57/57
f 58/58/58 55/55/55 56/56/56
f 55/55/55 58/58/58 57/57/57
f 58/58/58 56/56/56 59/59/59
f 57/57/57 58/58/58 60/60/60
f 61/61/61 58/58/58 59/59/59
f 58/58/58 61/61/61 60/60/60
f 64/64/64 63/63/63 62/62/62
f 65/65/65 64/64/64 62/62/62
f 65/65/65 62/62/62 66/66/66
f 64/64/64 65/65/65 67/67/67
f 68/68/68 64/64/64 67/67/67
f 67/67/67 65/65/65 69/69/69
f 70/70/70 65/65/65 66/66/66
f 65/65/65 70/70/70 69/69/69
f 70/70/70 66/66/66 71/71/71
f 69/69/69 70/70/70 72/72/72
f 73/73/73 70/70/70 71/71/71
f 70/70/70 73/73/73 72/72/72
f 76/76/76 75/75/75 74/74/74
f 77/77/77 76/76/76 74/74/74
f 77/77/77 74/74/74 78/78/78
f 79/79/79 77/77/77 78/78/78
f 77/77/77 79/79/79 80/80/80
f 81/81/81 77/77/77 80/80/80
f 76/76/76 77/77/77 81/81/81
f 82/82/82 76/76/76 81/81/81
f 85/85/85 84/84/84 83/83/83
f 86/86/86 85/85/85 83/83/83
f 89/89/89 88/88/88 87/87/87
f 88/88/88 90/90/90 87/87/87
f 90/90/90 91/91/91 87/87/87
f 94/94/94 93/93/93 92/92/92
f 95/95/95 94/94/94 92/92/92
f 98/98/98 97/97/97 96/96/96
f 99/99/99 98/98/98 96/96/96
f 99/99/99 100/100/100 98/98/98
f 100/100/100 101/101/101 98/98/98
f 104/104/104 103/103/103 102/102/102
f 105/105/105 104/104/104 102/102/102
f 108/108/108 107/107/107 106/106/106
f 109/109/109 108/108/108 106/106/106
f 112/112/112 111/111/111 110/110/110
f 113/113/113 112/112/112 110/110/110
f 110/110/110 114/114/114 113/113/113
f 114/114/114 115/115/115 113/113/113
f 118/118/118 117/117/117 116/116/116
f 119/119/119 118/118/118 116/116/116
f 122/122/122 121/121/121 120/120/120
f 123/123/123 122/122/122 120/120/120
f 126/126/126 125/125/125 124/124/124
f 127/127/127 126/126/126 124/124/124
f 130/130/130 129/129/129 128/128/128
f 131/131/131 130/130/130 128/128/128
f 128/128/128 132/132/132 131/131/131
f 132/132/132 133/133/133 131/131/131
f 136/136/136 135/135/135 134/134/134
f 137/137/137 136/136/136 134/134/134
f 140/140/140 139/139/139 138/138/138
f 139/139/139 141/141/141 138/138/138
f 141/141/141 142/142/142 138/138/138
f 142/142/142 143/143/143 138/138/138
f 146/146/146 145/145/145 144/144/144
f 147/147/147 146/146/146 144/144/144
f 150/150/150 149/149/149 148/148/148
f 149/149/149 151/151/151 148/148/148
f 151/151/151 152/152/152 148/148/148
f 152/152/152 153/153/153 148/148/148
f 156/156/156 155/155/155 154/154/154
f 154/154/154 157/157/157 156/156/156
f 157/157/157 158/158/158 156/156/156
f 157/157/157 159/159/159 158/158/158
f 159/159/159 160/160/160 158/158/158
f 159/159/159 161/161/161 160/160/160
f 161/161/161 162/162/162 160/160/160
f 161/161/161 163/163/163 162/162/162
f 163/163/163 164/164/164 162/162/162
f 163/163/163 165/165/165 164/164/164
f 165/165/165 166/166/166 164/164/164
f 165/165/165 167/167/167 166/166/166
f 167/167/167 168/168/168 166/166/166
f 167/167/167 169/169/169 168/168/168
f 172/172/172 171/171/171 170/170/170
f 173/173/173 172/172/172 170/170/170
f 176/176/176 175/175/175 174/174/174
f 177/177/177 176/176/176 174/174/174
f 180/180/180 179/179/179 178/178/178
f 181/181/181 180/180/180 178/178/178
f 184/184/184 183/183/183 182/182/182
f 185/185/185 184/184/184 182/182/182
f 188/188/188 187/187/187 186/186/186
f 189/189/189 188/188/188 186/186/186
f 192/192/192 191/191/191 190/190/190
f 193/193/193 192/192/192 190/190/190
f 196/196/196 195/195/195 194/194/194
f 197/197/197 196/196/196 194/194/194
f 200/200/200 199/199/199 198/198/198
f 201/201/201 200/200/200 198/198/198
f 204/204/204 203/203/203 202/202/202
f 205/205/205 204/204/204 202/202/202
f 208/208/208 207/207/207 206/206/206
f 209/209/209 208/208/208 206/206/206
f 212/212/212 211/211/211 210/210/210
f 213/213/213 212/212/212 210/210/210
