g PuffyTree
v 1.59719 -0.928116 2.599414
v 1.885348 -0.477572 3.126612
v 2.115872 0.001086 2.599414
v 1.59719 0.002566 3.591658
v 1.045576 -1.066278 3.667842
v 1.041818 1.076728 3.67015
v 1.390016 0.004046 3.781696
v 1.390016 0.950558 4.284698
v 1.885348 0.48106 3.126612
v 1.59719 0.933248 2.599414
v 1.885348 0.48106 2.072216
v 1.885348 -0.477572 2.072216
v 1.59719 0.002566 1.60717
v 0.94422 -1.69903 2.599414
v -0.014528 -1.69903 3.618546
v 0.993682 -1.017918 1.61499
v 0.99401 1.021286 1.614612
v 0.948158 1.66756 2.599414
v -0.014528 1.66756 3.623066
v -0.014528 1.66756 1.575762
v 0.968112 0.004046 1.300684
v -0.021956 0.994114 1.300684
v 0.493808 1.980366 3.15104
v 0.493808 1.980366 2.047788
v -0.0071 2.23061 2.599414
v -0.021956 1.441666 3.856384
v -1.079628 1.07304 3.673994
v -0.977216 1.66756 2.599414
v -0.827924 1.441666 4.284698
v -0.982266 0.975942 4.830926
v -0.021956 1.441666 4.71301
v -0.51461 1.980366 3.15104
v -0.51461 1.980366 2.047788
v -1.032634 1.023266 1.612314
v 0.78401 1.441666 4.284698
v -0.404272 1.628974 4.48787
v -0.021956 1.77882 4.284698
v -0.404272 1.628974 4.081524
v 0.360358 1.628974 4.081524
v 0.360358 1.628974 4.48787
v 0.943914 0.98448 4.835462
v 1.390016 0.004046 4.787698
v -0.021956 0.835818 5.326602
v 0.809816 0.004046 5.326602
v 0.950924 -0.96747 4.839188
v 1.563074 0.495674 4.545962
v 1.701522 0.004046 4.284698
v 1.563074 0.495674 4.023434
v 1.563074 -0.487582 4.545962
v 1.390016 -0.942466 4.284698
v 1.563074 -0.487582 4.023434
v 0.868128 -1.353332 4.284698
v -0.021956 -1.353332 3.811682
v -1.083386 -1.06259 3.671688
v -0.973278 -1.69903 2.599414
v -0.511548 -2.033814 3.147524
v -0.0071 -2.301642 2.599414
v 0.490744 -2.033814 3.147524
v 0.490744 -2.033814 2.051304
v -0.014528 -1.69903 1.580282
v -0.511548 -2.033814 2.051304
v -1.032306 -1.019898 1.61269
v -1.608358 -0.951862 2.599414
v -1.608358 0.002566 3.619246
v -1.608358 0.002566 1.579582
v -0.021956 -0.986022 1.300684
v -1.012026 0.004046 1.300684
v -1.878322 -0.496042 3.148068
v -1.878322 -0.496042 2.05076
v -2.094292 0.001086 2.599414
v 0.503548 -0.521458 1.190536
v 0.503548 0.529552 1.190536
v -0.021956 0.004046 1.10242
v -0.547462 0.529552 1.190536
v -0.547462 -0.521458 1.190536
v -1.608358 0.956994 2.599414
v -1.878322 0.499528 2.05076
v -1.878322 0.499528 3.148068
v -1.383878 0.004046 3.836136
v -1.383878 -0.840024 4.284698
v -1.383878 0.848118 4.284698
v -0.912042 -1.353332 4.284698
v -0.989276 -0.958934 4.83465
v -1.529132 -0.407906 4.065774
v -1.529132 0.415998 4.065774
v -1.645334 0.004046 4.284698
v -1.529132 -0.407906 4.50362
v -1.529132 0.415998 4.50362
v -1.383878 0.004046 4.73326
v -0.85373 0.004046 5.326602
v -0.469698 -1.496062 4.046756
v 0.425784 -1.496062 4.046756
v -0.021956 -1.610246 4.284698
v -0.469698 -1.496062 4.522638
v -0.021956 -1.353332 4.757712
v 0.425784 -1.496062 4.522638
v -0.021956 -0.827726 5.326602
v 0.380428 0.406432 5.580538
v 0.380428 -0.39834 5.580538
v -0.424342 0.406432 5.580538
v -0.021956 0.004046 5.783688
v -0.424342 -0.39834 5.580538
vn 0.796823 -0.603871 -0.02032057
vn 0.8686701 -0.3602435 0.3400542
vn 1 -0.000335667 0
vn 0.802209 -0.0001554487 0.5970433
vn 0.6931189 -0.6713336 0.2624832
vn 0.6844994 0.6953792 0.2188798
vn 0.9528806 0.0006085249 -0.3033452
vn 0.8553149 0.5140942 0.06437125
vn 0.8691795 0.3593947 0.3396504
vn 0.7938945 0.6077017 -0.02074428
vn 0.8533422 0.3789684 -0.3580364
vn 0.853089 -0.3794693 -0.3581093
vn 0.7256057 -0.0001050685 -0.6881107
vn 0.6822187 -0.7309014 -0.01899696
vn 0.001176855 -0.7256973 0.6880131
vn 0.5223554 -0.4660272 -0.7141172
vn 0.5181102 0.4750724 -0.711244
vn 0.6622353 0.7490246 -0.02016213
vn 0.0009924115 0.791533 0.6111256
vn 0.001744437 0.6878107 -0.725888
vn 0.3568565 0.0001881907 -0.9341592
vn 0.0005129236 0.3410178 -0.9400567
vn 0.3816945 0.8510704 0.3605391
vn 0.4008295 0.8342863 -0.3785526
vn 0.001668969 0.9999987 0
vn -0.000875661 0.9467655 -0.3219228
vn -0.7096452 0.6670968 0.2266844
vn -0.6570629 0.7535898 -0.01925947
vn -0.5009401 0.8632032 0.06276273
vn -0.5553371 0.5272424 0.6431299
vn -0.00222906 0.7308386 0.6825466
vn -0.3779028 0.8534422 0.3589233
vn -0.3963688 0.837418 -0.3763281
vn -0.5155773 0.47717 -0.7116802
vn 0.4652698 0.8831134 0.0602879
vn -0.2643991 0.8481956 0.4589743
vn 0 1 0
vn -0.2415549 0.8764549 -0.4165069
vn 0.2404372 0.87775 -0.4144214
vn 0.2627074 0.8504097 0.4558378
vn 0.5031552 0.5507194 0.6659902
vn 0.7226939 0.001354759 0.6911671
vn -0.002569079 0.5784076 0.8157439
vn 0.5670941 0.001259163 0.8236521
vn 0.5001392 -0.5628693 0.6580569
vn 0.8654273 0.2442361 0.4374749
vn 1 0 0
vn 0.8938344 0.2193503 -0.3910826
vn 0.8661985 -0.2436042 0.4362994
vn 0.8541923 -0.5158753 0.06502415
vn 0.8944995 -0.2187233 -0.3899114
vn 0.413671 -0.907958 0.06699774
vn -0.0008553602 -0.9800229 -0.1988828
vn -0.7201723 -0.6393433 0.2694288
vn -0.6772772 -0.7355042 -0.01814026
vn -0.3947519 -0.8386149 0.3753612
vn 0.001731152 -0.9999986 0
vn 0.398581 -0.8360798 0.3769667
vn 0.4162657 -0.8196231 -0.3936251
vn 0.001663088 -0.67 -0.7423592
vn -0.4118339 -0.8228864 -0.3914724
vn -0.5199577 -0.4679773 -0.7145917
vn -0.8047729 -0.5932457 -0.02000521
vn -0.814753 -0.00014732 0.5798082
vn -0.7324162 -0.0001071073 -0.6808572
vn 0.0005122878 -0.3369973 -0.9415055
vn -0.3526677 0.0001896689 -0.9357487
vn -0.8801101 -0.3457598 0.3253559
vn -0.8650351 -0.3654213 -0.3437756
vn -1 -0.0003114709 0
vn 0.1927095 -0.1927095 -0.9621466
vn 0.1930656 0.1930656 -0.9620038
vn 0 0 -1
vn -0.1928604 0.1928608 -0.962086
vn -0.1925031 -0.1925035 -0.9622292
vn -0.8017727 0.5972799 -0.02042656
vn -0.8652644 0.3649454 -0.3437037
vn -0.8805854 0.3449309 0.3249492
vn -0.9716418 0.000671208 -0.2364569
vn -0.8982891 -0.4342799 0.06691538
vn -0.8964577 0.4380651 0.06680297
vn -0.455414 -0.8875403 0.06978672
vn -0.5559398 -0.5362016 0.6351526
vn -0.917595 -0.1941466 -0.3468814
vn -0.9169748 0.1948191 -0.3481418
vn -1 0 0
vn -0.8920219 -0.2198322 0.3949313
vn -0.8911651 0.2206282 0.3964188
vn -0.7831051 0.00151451 0.6218876
vn -0.5904194 0.001299071 0.8070956
vn -0.1892738 -0.9209121 -0.3407292
vn 0.1879935 -0.9220586 -0.338329
vn 0 -1 0
vn -0.2167954 -0.8939517 0.3922372
vn -0.002466847 -0.7801419 0.6255978
vn 0.2147793 -0.8960815 0.3884686
vn -0.002580724 -0.5849315 0.8110786
vn 0.3390791 0.3390791 0.8775253
vn 0.3387256 -0.3387256 0.8777984
vn -0.3410352 0.341036 0.8760077
vn 0 0 1
vn -0.3406876 -0.3406883 0.8762782
g PuffyTree_0
f 3/3/3 2/2/2 1/1/1
f 2/2/2 4/4/4 1/1/1
f 2/2/2 3/3/3 4/4/4
f 4/4/4 5/5/5 1/1/1
f 5/5/5 4/4/4 6/6/6
f 7/7/7 5/5/5 6/6/6
f 7/7/7 6/6/6 8/8/8
f 3/3/3 9/9/9 4/4/4
f 4/4/4 9/9/9 10/10/10
f 6/6/6 4/4/4 10/10/10
f 3/3/3 11/11/11 9/9/9
f 11/11/11 10/10/10 9/9/9
f 11/11/11 3/3/3 12/12/12
f 12/12/12 3/3/3 1/1/1
f 13/13/13 11/11/11 12/12/12
f 11/11/11 13/13/13 10/10/10
f 13/13/13 12/12/12 1/1/1
f 1/1/1 5/5/5 14/14/14
f 5/5/5 15/15/15 14/14/14
f 16/16/16 13/13/13 1/1/1
f 16/16/16 1/1/1 14/14/14
f 13/13/13 17/17/17 10/10/10
f 18/18/18 6/6/6 10/10/10
f 17/17/17 18/18/18 10/10/10
f 6/6/6 18/18/18 19/19/19
f 18/18/18 17/17/17 20/20/20
f 17/17/17 13/13/13 21/21/21
f 13/13/13 16/16/16 21/21/21
f 20/20/20 17/17/17 22/22/22
f 17/17/17 21/21/21 22/22/22
f 18/18/18 23/23/23 19/19/19
f 18/18/18 24/24/24 23/23/23
f 24/24/24 18/18/18 20/20/20
f 24/24/24 25/25/25 23/23/23
f 23/23/23 25/25/25 19/19/19
f 25/25/25 24/24/24 20/20/20
f 6/6/6 19/19/19 26/26/26
f 19/19/19 27/27/27 26/26/26
f 27/27/27 19/19/19 28/28/28
f 27/27/27 29/29/29 26/26/26
f 29/29/29 27/27/27 30/30/30
f 29/29/29 30/30/30 31/31/31
f 25/25/25 32/32/32 19/19/19
f 19/19/19 32/32/32 28/28/28
f 25/25/25 33/33/33 32/32/32
f 33/33/33 25/25/25 20/20/20
f 33/33/33 28/28/28 32/32/32
f 33/33/33 20/20/20 28/28/28
f 20/20/20 34/34/34 28/28/28
f 28/28/28 34/34/34 27/27/27
f 34/34/34 20/20/20 22/22/22
f 6/6/6 26/26/26 35/35/35
f 8/8/8 6/6/6 35/35/35
f 36/36/36 29/29/29 31/31/31
f 29/29/29 36/36/36 37/37/37
f 37/37/37 36/36/36 31/31/31
f 29/29/29 38/38/38 26/26/26
f 38/38/38 29/29/29 37/37/37
f 39/39/39 26/26/26 38/38/38
f 37/37/37 39/39/39 38/38/38
f 26/26/26 39/39/39 35/35/35
f 37/37/37 40/40/40 39/39/39
f 40/40/40 37/37/37 31/31/31
f 40/40/40 35/35/35 39/39/39
f 40/40/40 31/31/31 35/35/35
f 31/31/31 41/41/41 35/35/35
f 41/41/41 8/8/8 35/35/35
f 8/8/8 41/41/41 42/42/42
f 41/41/41 31/31/31 43/43/43
f 31/31/31 30/30/30 43/43/43
f 42/42/42 41/41/41 44/44/44
f 41/41/41 43/43/43 44/44/44
f 45/45/45 42/42/42 44/44/44
f 46/46/46 8/8/8 42/42/42
f 46/46/46 47/47/47 8/8/8
f 47/47/47 46/46/46 42/42/42
f 47/47/47 48/48/48 8/8/8
f 48/48/48 7/7/7 8/8/8
f 7/7/7 48/48/48 47/47/47
f 49/49/49 47/47/47 42/42/42
f 50/50/50 49/49/49 42/42/42
f 47/47/47 49/49/49 50/50/50
f 45/45/45 50/50/50 42/42/42
f 51/51/51 7/7/7 47/47/47
f 51/51/51 47/47/47 50/50/50
f 7/7/7 51/51/51 50/50/50
f 5/5/5 7/7/7 50/50/50
f 5/5/5 50/50/50 45/45/45
f 52/52/52 5/5/5 45/45/45
f 5/5/5 52/52/52 53/53/53
f 15/15/15 5/5/5 53/53/53
f 54/54/54 15/15/15 53/53/53
f 54/54/54 55/55/55 15/15/15
f 55/55/55 56/56/56 15/15/15
f 56/56/56 57/57/57 15/15/15
f 56/56/56 55/55/55 57/57/57
f 57/57/57 58/58/58 15/15/15
f 15/15/15 58/58/58 14/14/14
f 59/59/59 14/14/14 58/58/58
f 57/57/57 59/59/59 58/58/58
f 59/59/59 60/60/60 14/14/14
f 59/59/59 57/57/57 60/60/60
f 60/60/60 16/16/16 14/14/14
f 55/55/55 61/61/61 57/57/57
f 57/57/57 61/61/61 60/60/60
f 61/61/61 55/55/55 60/60/60
f 16/16/16 60/60/60 62/62/62
f 55/55/55 62/62/62 60/60/60
f 54/54/54 63/63/63 55/55/55
f 63/63/63 62/62/62 55/55/55
f 63/63/63 54/54/54 64/64/64
f 62/62/62 63/63/63 65/65/65
f 66/66/66 16/16/16 62/62/62
f 16/16/16 66/66/66 21/21/21
f 62/62/62 65/65/65 67/67/67
f 66/66/66 62/62/62 67/67/67
f 68/68/68 63/63/63 64/64/64
f 63/63/63 68/68/68 69/69/69
f 63/63/63 69/69/69 65/65/65
f 68/68/68 70/70/70 69/69/69
f 70/70/70 68/68/68 64/64/64
f 69/69/69 70/70/70 65/65/65
f 66/66/66 71/71/71 21/21/21
f 72/72/72 21/21/21 71/71/71
f 21/21/21 72/72/72 22/22/22
f 71/71/71 66/66/66 73/73/73
f 73/73/73 72/72/72 71/71/71
f 74/74/74 22/22/22 72/72/72
f 73/73/73 74/74/74 72/72/72
f 74/74/74 67/67/67 22/22/22
f 67/67/67 34/34/34 22/22/22
f 65/65/65 34/34/34 67/67/67
f 66/66/66 75/75/75 73/73/73
f 73/73/73 75/75/75 74/74/74
f 75/75/75 66/66/66 67/67/67
f 75/75/75 67/67/67 74/74/74
f 34/34/34 65/65/65 76/76/76
f 34/34/34 76/76/76 27/27/27
f 70/70/70 77/77/77 65/65/65
f 65/65/65 77/77/77 76/76/76
f 77/77/77 70/70/70 76/76/76
f 70/70/70 78/78/78 76/76/76
f 78/78/78 70/70/70 64/64/64
f 78/78/78 64/64/64 76/76/76
f 64/64/64 27/27/27 76/76/76
f 27/27/27 64/64/64 79/79/79
f 64/64/64 54/54/54 79/79/79
f 79/79/79 54/54/54 80/80/80
f 81/81/81 27/27/27 79/79/79
f 27/27/27 81/81/81 30/30/30
f 80/80/80 54/54/54 82/82/82
f 83/83/83 80/80/80 82/82/82
f 54/54/54 53/53/53 82/82/82
f 84/84/84 79/79/79 80/80/80
f 85/85/85 79/79/79 84/84/84
f 85/85/85 81/81/81 79/79/79
f 86/86/86 85/85/85 84/84/84
f 86/86/86 84/84/84 80/80/80
f 85/85/85 86/86/86 81/81/81
f 87/87/87 86/86/86 80/80/80
f 86/86/86 88/88/88 81/81/81
f 88/88/88 86/86/86 87/87/87
f 89/89/89 87/87/87 80/80/80
f 89/89/89 88/88/88 87/87/87
f 88/88/88 89/89/89 81/81/81
f 89/89/89 30/30/30 81/81/81
f 83/83/83 89/89/89 80/80/80
f 30/30/30 89/89/89 83/83/83
f 90/90/90 30/30/30 83/83/83
f 30/30/30 90/90/90 43/43/43
f 53/53/53 91/91/91 82/82/82
f 91/91/91 53/53/53 92/92/92
f 52/52/52 92/92/92 53/53/53
f 93/93/93 91/91/91 92/92/92
f 92/92/92 52/52/52 93/93/93
f 94/94/94 82/82/82 91/91/91
f 93/93/93 94/94/94 91/91/91
f 94/94/94 95/95/95 82/82/82
f 94/94/94 93/93/93 95/95/95
f 95/95/95 83/83/83 82/82/82
f 52/52/52 96/96/96 93/93/93
f 93/93/93 96/96/96 95/95/95
f 96/96/96 52/52/52 95/95/95
f 52/52/52 45/45/45 95/95/95
f 83/83/83 95/95/95 45/45/45
f 97/97/97 83/83/83 45/45/45
f 90/90/90 83/83/83 97/97/97
f 97/97/97 45/45/45 44/44/44
f 43/43/43 98/98/98 44/44/44
f 99/99/99 97/97/97 44/44/44
f 99/99/99 44/44/44 98/98/98
f 98/98/98 43/43/43 100/100/100
f 90/90/90 100/100/100 43/43/43
f 101/101/101 98/98/98 100/100/100
f 101/101/101 99/99/99 98/98/98
f 100/100/100 90/90/90 101/101/101
f 102/102/102 97/97/97 99/99/99
f 101/101/101 102/102/102 99/99/99
f 90/90/90 102/102/102 101/101/101
f 102/102/102 90/90/90 97/97/97
