g PurpleSeaUrchin
v 0.349113 0.480513 0.356908
v 0.564877 0.18354 0.356908
v 0.564877 -0.18354 0.356908
v 0.349113 -0.480513 0.356908
v 0 0.593947 0.356908
v 0 -0.593947 0.356908
v -0.349113 0.480513 0.356908
v -0.349113 -0.480513 0.356908
v -0.564877 0.18354 0.356908
v -0.564877 -0.18354 0.356908
v 0.349113 0 -0.123606
v 0 0 -0.237039
v -0.349113 0 -0.123606
v 0.564877 0 0.173368
v -0.564877 0 0.173368
v 0.564877 0 0.540447
v -0.564877 0 0.540447
v 0.349113 0 0.837421
v -0.349113 0 0.837421
v 0 0 0.950855
v 0.349113 -0.329165 0.006846
v 0 -0.40687 -0.075792
v -0.349113 -0.329165 0.006846
v 0.564877 -0.12573 0.223196
v -0.564877 -0.12573 0.223196
v 0.564877 0.12573 0.490619
v -0.564877 0.12573 0.490619
v 0.349113 0.329165 0.706969
v -0.349113 0.329165 0.706969
v 0 0.406871 0.789608
v 0.349113 -0.350062 0.686073
v 0.564877 -0.133712 0.482638
v 0.564877 0.133712 0.231178
v 0.349113 0.350062 0.027743
v 0 -0.4327 0.763778
v 0 0.4327 -0.049963
v -0.349113 -0.350062 0.686073
v -0.349113 0.350062 0.027743
v -0.564877 -0.133712 0.482638
v -0.564877 0.133712 0.231178
v 0.463186 0.337312 0.200537
v 0.562577 -0.014459 0.166983
v 0.447082 -0.360707 0.205974
v 0.186875 0.560242 0.293819
v 0.160817 -0.569178 0.302616
v -0.160817 0.569178 0.411199
v -0.186875 -0.560242 0.419996
v -0.447082 0.360707 0.507842
v -0.463187 -0.337312 0.513278
v -0.562577 0.014459 0.546832
v 0.145646 -0.34901 0.814895
v 0.045678 -0.56471 0.535204
v -0.071736 -0.56471 0.187409
v -0.16175 -0.34901 -0.095643
v 0.189981 0 0.919651
v -0.189981 0 -0.205836
v 0.16175 0.34901 0.809458
v -0.145646 0.34901 -0.10108
v 0.071736 0.56471 0.526406
v -0.045678 0.56471 0.178612
v 0.431804 0.340997 0.580604
v 0.523785 -0.009905 0.636772
v 0.415699 -0.357023 0.586041
v 0.174888 0.561649 0.438992
v 0.14883 -0.56777 0.447789
v -0.14883 0.56777 0.266026
v -0.174888 -0.561649 0.274823
v -0.415699 0.357023 0.127774
v -0.431804 -0.340997 0.133211
v -0.523785 0.009905 0.077044
v -0.099462 -0.561455 0.523187
v 0.073404 -0.567965 0.199425
v 0.218233 -0.357532 -0.064184
v -0.234338 -0.340488 0.783437
v 0.279704 -0.010534 -0.166951
v -0.279704 0.010534 0.880766
v 0.234338 0.340488 -0.069621
v -0.218233 0.357532 0.778
v 0.099462 0.561455 0.190628
v -0.073404 0.567965 0.51439
v 0.349113 -0.480513 0.356908
v 0.564877 -0.18354 0.356908
v 0.564877 0.18354 0.356908
v 0.349113 0.480513 0.356908
v 0 -0.593947 0.356908
v 0 0.593947 0.356908
v -0.349113 -0.480513 0.356908
v -0.349113 0.480513 0.356908
v -0.564877 -0.18354 0.356908
v -0.564877 0.18354 0.356908
v -0.349113 0 -0.123606
v 0 0 -0.237039
v 0.349113 0 -0.123606
v -0.564877 0 0.173368
v 0.564877 0 0.173368
v -0.564877 0 0.540447
v 0.564877 0 0.540447
v -0.349113 0 0.837421
v 0.349113 0 0.837421
v 0 0 0.950855
v -0.349113 -0.329165 0.006846
v 0 -0.40687 -0.075792
v 0.349113 -0.329165 0.006846
v -0.564877 -0.12573 0.223196
v 0.564877 -0.12573 0.223196
v -0.564877 0.12573 0.490619
v 0.564877 0.12573 0.490619
v -0.349113 0.329165 0.706969
v 0.349113 0.329165 0.706969
v 0 0.406871 0.789608
v 0.349113 0.350062 0.027743
v 0.564877 0.133712 0.231178
v 0.564877 -0.133712 0.482638
v 0.349113 -0.350062 0.686073
v 0 0.4327 -0.049963
v 0 -0.4327 0.763778
v -0.349113 0.350062 0.027743
v -0.349113 -0.350062 0.686073
v -0.564877 0.133712 0.231178
v -0.564877 -0.133712 0.482638
v 0.447082 -0.360707 0.205974
v 0.562577 -0.014459 0.166983
v 0.463186 0.337312 0.200537
v 0.186875 0.560242 0.293819
v 0.160817 -0.569178 0.302616
v -0.160817 0.569178 0.411199
v -0.186875 -0.560242 0.419996
v -0.447082 0.360707 0.507842
v -0.463187 -0.337312 0.513278
v -0.562577 0.014459 0.546832
v -0.16175 -0.34901 -0.095643
v -0.071736 -0.56471 0.187409
v 0.045678 -0.56471 0.535204
v 0.145646 -0.34901 0.814895
v -0.189981 0 -0.205836
v 0.189981 0 0.919651
v -0.145646 0.34901 -0.10108
v 0.16175 0.34901 0.809458
v -0.045678 0.56471 0.178612
v 0.071736 0.56471 0.526406
v 0.415699 -0.357023 0.586041
v 0.523785 -0.009905 0.636772
v 0.431804 0.340997 0.580604
v 0.174888 0.561649 0.438992
v 0.14883 -0.56777 0.447789
v -0.14883 0.56777 0.266026
v -0.174888 -0.561649 0.274823
v -0.415699 0.357023 0.127774
v -0.431804 -0.340997 0.133211
v -0.523785 0.009905 0.077044
v 0.218233 -0.357532 -0.064184
v 0.073404 -0.567965 0.199425
v -0.099462 -0.561455 0.523187
v -0.234338 -0.340488 0.783437
v 0.279704 -0.010534 -0.166951
v -0.279704 0.010534 0.880766
v 0.234338 0.340488 -0.069621
v -0.218233 0.357532 0.778
v 0.099462 0.561455 0.190628
v -0.073404 0.567965 0.51439
vt 0.307961 0.369633
vt 0.335856 0.331239
vt 0.335856 0.283782
vt 0.307961 0.245389
vt 0.262827 0.384298
vt 0.262827 0.230723
vt 0.217692 0.369633
vt 0.217692 0.245389
vt 0.189797 0.331239
vt 0.189797 0.283782
vt 0.307961 0.245389
vt 0.262827 0.230723
vt 0.217692 0.245389
vt 0.335856 0.283782
vt 0.189797 0.283782
vt 0.335856 0.331239
vt 0.189797 0.331239
vt 0.307961 0.369633
vt 0.217692 0.369633
vt 0.262827 0.384298
vt 0.307961 0.245389
vt 0.262827 0.230723
vt 0.217692 0.245389
vt 0.335856 0.283782
vt 0.189797 0.283782
vt 0.335856 0.331239
vt 0.189797 0.331239
vt 0.307961 0.369633
vt 0.217692 0.369633
vt 0.262827 0.384298
vt 0.307961 0.369633
vt 0.335856 0.331239
vt 0.335856 0.283782
vt 0.307961 0.245389
vt 0.262827 0.384298
vt 0.262827 0.230723
vt 0.217692 0.369633
vt 0.217692 0.245389
vt 0.189797 0.331239
vt 0.189797 0.283782
vt 0.217692 0.369633
vt 0.262827 0.384298
vt 0.307961 0.369633
vt 0.189797 0.331239
vt 0.335856 0.331239
vt 0.189797 0.283782
vt 0.335856 0.283782
vt 0.217692 0.245389
vt 0.307961 0.245389
vt 0.262827 0.230723
vt 0.307961 0.369633
vt 0.335856 0.331239
vt 0.335856 0.283782
vt 0.307961 0.245389
vt 0.262827 0.384298
vt 0.262827 0.230723
vt 0.217692 0.369633
vt 0.217692 0.245389
vt 0.189797 0.331239
vt 0.189797 0.283782
vt 0.217692 0.369633
vt 0.262827 0.384298
vt 0.307961 0.369633
vt 0.189797 0.331239
vt 0.335856 0.331239
vt 0.189797 0.283782
vt 0.335856 0.283782
vt 0.217692 0.245389
vt 0.307961 0.245389
vt 0.262827 0.230723
vt 0.335856 0.331239
vt 0.335856 0.283782
vt 0.307961 0.245389
vt 0.307961 0.369633
vt 0.262827 0.230723
vt 0.262827 0.384298
vt 0.217692 0.245389
vt 0.217692 0.369633
vt 0.189797 0.283782
vt 0.189797 0.331239
vt 0.307961 0.245389
vt 0.335856 0.283782
vt 0.335856 0.331239
vt 0.307961 0.369633
vt 0.262827 0.230723
vt 0.262827 0.384298
vt 0.217692 0.245389
vt 0.217692 0.369633
vt 0.189797 0.283782
vt 0.189797 0.331239
vt 0.217692 0.245389
vt 0.262827 0.230723
vt 0.307961 0.245389
vt 0.189797 0.283782
vt 0.335856 0.283782
vt 0.189797 0.331239
vt 0.335856 0.331239
vt 0.217692 0.369633
vt 0.307961 0.369633
vt 0.262827 0.384298
vt 0.217692 0.245389
vt 0.262827 0.230723
vt 0.307961 0.245389
vt 0.189797 0.283782
vt 0.335856 0.283782
vt 0.189797 0.331239
vt 0.335856 0.331239
vt 0.217692 0.369633
vt 0.307961 0.369633
vt 0.262827 0.384298
vt 0.307961 0.245389
vt 0.335856 0.283782
vt 0.335856 0.331239
vt 0.307961 0.369633
vt 0.262827 0.230723
vt 0.262827 0.384298
vt 0.217692 0.245389
vt 0.217692 0.369633
vt 0.189797 0.283782
vt 0.189797 0.331239
vt 0.307961 0.369633
vt 0.262827 0.384298
vt 0.217692 0.369633
vt 0.189797 0.331239
vt 0.335856 0.331239
vt 0.189797 0.283782
vt 0.335856 0.283782
vt 0.217692 0.245389
vt 0.307961 0.245389
vt 0.262827 0.230723
vt 0.307961 0.245389
vt 0.335856 0.283782
vt 0.335856 0.331239
vt 0.307961 0.369633
vt 0.262827 0.230723
vt 0.262827 0.384298
vt 0.217692 0.245389
vt 0.217692 0.369633
vt 0.189797 0.283782
vt 0.189797 0.331239
vt 0.307961 0.369633
vt 0.262827 0.384298
vt 0.217692 0.369633
vt 0.189797 0.331239
vt 0.335856 0.331239
vt 0.189797 0.283782
vt 0.335856 0.283782
vt 0.217692 0.245389
vt 0.307961 0.245389
vt 0.262827 0.230723
vt 0.307961 0.245389
vt 0.335856 0.283782
vt 0.335856 0.331239
vt 0.307961 0.369633
vt 0.262827 0.230723
vt 0.262827 0.384298
vt 0.217692 0.245389
vt 0.217692 0.369633
vt 0.189797 0.283782
vt 0.189797 0.331239
vn 0 0 1
vn 0 0 1
vn 0 0 1
vn 0 0 1
vn 0 0 1
vn 0 0 1
vn 0 0 1
vn 0 0 1
vn 0 0 1
vn 0 0 1
vn 0 -1 0
vn 0 -1 0
vn 0 -1 0
vn 0 -1 0
vn 0 -1 0
vn 0 -1 0
vn 0 -1 0
vn 0 -1 0
vn 0 -1 0
vn 0 -1 0
vn 0 -0.7285167 0.6850281
vn 0 -0.7285164 0.6850283
vn 0 -0.7285168 0.685028
vn 0 -0.7285161 0.6850287
vn 0 -0.7285161 0.6850287
vn 0 -0.728516 0.6850287
vn 0 -0.728516 0.6850287
vn 0 -0.7285167 0.685028
vn 0 -0.7285167 0.6850281
vn 0 -0.7285162 0.6850286
vn 0 -0.6850279 -0.7285169
vn 0 -0.6850278 -0.7285169
vn 0 -0.6850279 -0.7285168
vn 0 -0.6850283 -0.7285166
vn 0 -0.6850282 -0.7285166
vn 0 -0.6850283 -0.7285166
vn 0 -0.6850282 -0.7285166
vn 0 -0.6850278 -0.7285169
vn 0 -0.6850279 -0.7285168
vn 0 -0.6850277 -0.728517
vn 0.3198622 0 0.947464
vn 0.3198617 0 0.9474643
vn 0.3198609 0 0.9474645
vn 0.3198617 0 0.9474643
vn 0.3198613 0 0.9474644
vn 0.3198624 0 0.9474639
vn 0.3198615 0 0.9474644
vn 0.3198626 0 0.9474639
vn 0.3198598 0 0.9474648
vn 0.3198592 0 0.9474651
vn -0.9471834 0.02434396 0.3197671
vn -0.9471838 0.02435186 0.319765
vn -0.9471833 0.02434523 0.3197671
vn -0.9471833 0.02434364 0.3197672
vn -0.9471833 0.0243432 0.3197672
vn -0.9471833 0.02434325 0.3197672
vn -0.9471833 0.02434358 0.3197672
vn -0.9471833 0.02434369 0.3197671
vn -0.9471833 0.02434477 0.3197672
vn -0.9471837 0.02434934 0.3197658
vn -0.4709242 0.01773531 0.8819953
vn -0.4709277 0.01773538 0.8819935
vn -0.4709249 0.01773511 0.881995
vn -0.4709241 0.0177351 0.8819954
vn -0.4709244 0.01773504 0.8819953
vn -0.4709244 0.01773503 0.8819953
vn -0.4709242 0.01773512 0.8819954
vn -0.4709241 0.01773511 0.8819955
vn -0.4709234 0.01773535 0.8819959
vn -0.470921 0.01773531 0.8819972
vn -0.881872 0.01667669 -0.4711938
vn -0.8818725 0.0166799 -0.471193
vn -0.881872 0.01667612 -0.4711938
vn -0.881872 0.01667635 -0.4711938
vn -0.8818721 0.01667677 -0.4711938
vn -0.881872 0.0166768 -0.4711938
vn -0.881872 0.01667673 -0.4711938
vn -0.881872 0.01667657 -0.4711939
vn -0.881872 0.01667454 -0.4711939
vn -0.8818725 0.01667788 -0.4711929
vn 0 0 -1
vn 0 0 -1
vn 0 0 -1
vn 0 0 -1
vn 0 0 -1
vn 0 0 -1
vn 0 0 -1
vn 0 0 -1
vn 0 0 -1
vn 0 0 -1
vn 0 1 0
vn 0 1 0
vn 0 1 0
vn 0 1 0
vn 0 1 0
vn 0 1 0
vn 0 1 0
vn 0 1 0
vn 0 1 0
vn 0 1 0
vn 0 0.7285167 -0.6850281
vn 0 0.7285164 -0.6850283
vn 0 0.7285167 -0.685028
vn 0 0.728516 -0.6850287
vn 0 0.728516 -0.6850287
vn 0 0.728516 -0.6850287
vn 0 0.728516 -0.6850287
vn 0 0.7285167 -0.685028
vn 0 0.7285167 -0.6850281
vn 0 0.7285162 -0.6850286
vn 0 0.6850279 0.7285169
vn 0 0.6850277 0.728517
vn 0 0.6850279 0.7285168
vn 0 0.6850282 0.7285165
vn 0 0.6850282 0.7285166
vn 0 0.6850282 0.7285165
vn 0 0.6850282 0.7285166
vn 0 0.6850279 0.7285168
vn 0 0.6850279 0.7285168
vn 0 0.6850278 0.7285169
vn -0.3198609 0 -0.9474645
vn -0.3198617 0 -0.9474643
vn -0.3198622 0 -0.947464
vn -0.3198617 0 -0.9474643
vn -0.3198613 0 -0.9474644
vn -0.3198624 0 -0.9474639
vn -0.3198615 0 -0.9474644
vn -0.3198626 0 -0.9474639
vn -0.3198598 0 -0.9474648
vn -0.3198592 0 -0.9474651
vn 0.9471834 -0.02434383 -0.3197671
vn 0.9471842 -0.02434076 -0.3197651
vn 0.9471833 -0.02434747 -0.3197671
vn 0.9471833 -0.02434423 -0.3197671
vn 0.9471833 -0.024343 -0.3197672
vn 0.9471833 -0.02434304 -0.3197672
vn 0.9471833 -0.02434382 -0.3197671
vn 0.9471833 -0.02434383 -0.3197671
vn 0.9471833 -0.02434624 -0.3197671
vn 0.9471838 -0.02434194 -0.3197659
vn 0.4709248 -0.01773511 -0.881995
vn 0.4709277 -0.01773538 -0.8819935
vn 0.4709242 -0.01773531 -0.8819953
vn 0.4709242 -0.0177351 -0.8819954
vn 0.4709244 -0.01773503 -0.8819953
vn 0.4709244 -0.01773503 -0.8819952
vn 0.4709241 -0.01773511 -0.8819954
vn 0.470924 -0.01773511 -0.8819955
vn 0.4709234 -0.01773534 -0.8819959
vn 0.470921 -0.01773531 -0.8819972
vn 0.881872 -0.01667609 0.4711939
vn 0.8818725 -0.0166799 0.471193
vn 0.881872 -0.01667665 0.4711938
vn 0.881872 -0.01667633 0.4711938
vn 0.881872 -0.01667678 0.4711938
vn 0.881872 -0.0166768 0.4711938
vn 0.881872 -0.01667676 0.4711938
vn 0.881872 -0.01667658 0.4711939
vn 0.881872 -0.01667454 0.4711939
vn 0.8818725 -0.01667788 0.4711929
g PurpleSeaUrchin_0
f 3/3/3 2/2/2 1/1/1
f 1/1/1 4/4/4 3/3/3
f 1/1/1 5/5/5 4/4/4
f 5/5/5 6/6/6 4/4/4
f 5/5/5 7/7/7 6/6/6
f 7/7/7 8/8/8 6/6/6
f 7/7/7 9/9/9 8/8/8
f 9/9/9 10/10/10 8/8/8
f 13/13/13 12/12/12 11/11/11
f 11/11/11 14/14/14 13/13/13
f 14/14/14 15/15/15 13/13/13
f 14/14/14 16/16/16 15/15/15
f 16/16/16 17/17/17 15/15/15
f 16/16/16 18/18/18 17/17/17
f 18/18/18 19/19/19 17/17/17
f 18/18/18 20/20/20 19/19/19
f 23/23/23 22/22/22 21/21/21
f 21/21/21 24/24/24 23/23/23
f 24/24/24 25/25/25 23/23/23
f 24/24/24 26/26/26 25/25/25
f 26/26/26 27/27/27 25/25/25
f 26/26/26 28/28/28 27/27/27
f 28/28/28 29/29/29 27/27/27
f 28/28/28 30/30/30 29/29/29
f 33/33/33 32/32/32 31/31/31
f 31/31/31 34/34/34 33/33/33
f 31/31/31 35/35/35 34/34/34
f 35/35/35 36/36/36 34/34/34
f 35/35/35 37/37/37 36/36/36
f 37/37/37 38/38/38 36/36/36
f 37/37/37 39/39/39 38/38/38
f 39/39/39 40/40/40 38/38/38
f 43/43/43 42/42/42 41/41/41
f 41/41/41 44/44/44 43/43/43
f 44/44/44 45/45/45 43/43/43
f 44/44/44 46/46/46 45/45/45
f 46/46/46 47/47/47 45/45/45
f 46/46/46 48/48/48 47/47/47
f 48/48/48 49/49/49 47/47/47
f 48/48/48 50/50/50 49/49/49
f 53/53/53 52/52/52 51/51/51
f 51/51/51 54/54/54 53/53/53
f 51/51/51 55/55/55 54/54/54
f 55/55/55 56/56/56 54/54/54
f 55/55/55 57/57/57 56/56/56
f 57/57/57 58/58/58 56/56/56
f 57/57/57 59/59/59 58/58/58
f 59/59/59 60/60/60 58/58/58
f 63/63/63 62/62/62 61/61/61
f 61/61/61 64/64/64 63/63/63
f 64/64/64 65/65/65 63/63/63
f 64/64/64 66/66/66 65/65/65
f 66/66/66 67/67/67 65/65/65
f 66/66/66 68/68/68 67/67/67
f 68/68/68 69/69/69 67/67/67
f 68/68/68 70/70/70 69/69/69
f 73/73/73 72/72/72 71/71/71
f 71/71/71 74/74/74 73/73/73
f 74/74/74 75/75/75 73/73/73
f 74/74/74 76/76/76 75/75/75
f 76/76/76 77/77/77 75/75/75
f 76/76/76 78/78/78 77/77/77
f 78/78/78 79/79/79 77/77/77
f 78/78/78 80/80/80 79/79/79
f 83/83/83 82/82/82 81/81/81
f 81/81/81 84/84/84 83/83/83
f 81/81/81 85/85/85 84/84/84
f 85/85/85 86/86/86 84/84/84
f 85/85/85 87/87/87 86/86/86
f 87/87/87 88/88/88 86/86/86
f 87/87/87 89/89/89 88/88/88
f 89/89/89 90/90/90 88/88/88
f 93/93/93 92/92/92 91/91/91
f 91/91/91 94/94/94 93/93/93
f 94/94/94 95/95/95 93/93/93
f 94/94/94 96/96/96 95/95/95
f 96/96/96 97/97/97 95/95/95
f 96/96/96 98/98/98 97/97/97
f 98/98/98 99/99/99 97/97/97
f 98/98/98 100/100/100 99/99/99
f 103/103/103 102/102/102 101/101/101
f 101/101/101 104/104/104 103/103/103
f 104/104/104 105/105/105 103/103/103
f 104/104/104 106/106/106 105/105/105
f 106/106/106 107/107/107 105/105/105
f 106/106/106 108/108/108 107/107/107
f 108/108/108 109/109/109 107/107/107
f 108/108/108 110/110/110 109/109/109
f 113/113/113 112/112/112 111/111/111
f 111/111/111 114/114/114 113/113/113
f 111/111/111 115/115/115 114/114/114
f 115/115/115 116/116/116 114/114/114
f 115/115/115 117/117/117 116/116/116
f 117/117/117 118/118/118 116/116/116
f 117/117/117 119/119/119 118/118/118
f 119/119/119 120/120/120 118/118/118
f 123/123/123 122/122/122 121/121/121
f 121/121/121 124/124/124 123/123/123
f 121/121/121 125/125/125 124/124/124
f 125/125/125 126/126/126 124/124/124
f 125/125/125 127/127/127 126/126/126
f 127/127/127 128/128/128 126/126/126
f 127/127/127 129/129/129 128/128/128
f 129/129/129 130/130/130 128/128/128
f 133/133/133 132/132/132 131/131/131
f 131/131/131 134/134/134 133/133/133
f 131/131/131 135/135/135 134/134/134
f 135/135/135 136/136/136 134/134/134
f 135/135/135 137/137/137 136/136/136
f 137/137/137 138/138/138 136/136/136
f 137/137/137 139/139/139 138/138/138
f 139/139/139 140/140/140 138/138/138
f 143/143/143 142/142/142 141/141/141
f 141/141/141 144/144/144 143/143/143
f 141/141/141 145/145/145 144/144/144
f 145/145/145 146/146/146 144/144/144
f 145/145/145 147/147/147 146/146/146
f 147/147/147 148/148/148 146/146/146
f 147/147/147 149/149/149 148/148/148
f 149/149/149 150/150/150 148/148/148
f 153/153/153 152/152/152 151/151/151
f 151/151/151 154/154/154 153/153/153
f 151/151/151 155/155/155 154/154/154
f 155/155/155 156/156/156 154/154/154
f 155/155/155 157/157/157 156/156/156
f 157/157/157 158/158/158 156/156/156
f 157/157/157 159/159/159 158/158/158
f 159/159/159 160/160/160 158/158/158
