g QuandongTreePart
v 0.176425 0.186501 0.405853
v -0.031335 -0.357128 0.464875
v -0.206435 -0.164874 -0.374635
v 0.001325 0.378755 -0.433656
v 0.429592 0.064769 -0.289275
v -0.251842 0.500487 0.261472
v -0.411541 -0.073907 0.233982
v 0.269893 -0.509625 -0.316765
v 0.40538 0.031937 0.201125
v 0.239589 -0.54581 0.253003
v -0.393421 -0.044427 -0.17705
v -0.22763 0.53332 -0.228928
vt 0.178421 0.689518
vt 0.178421 0.813036
vt 0.307611 0.813036
vt 0.307611 0.689518
vt 0.307611 0.689518
vt 0.178421 0.689518
vt 0.178421 0.813036
vt 0.307611 0.813036
vt 0.178421 0.689518
vt 0.178421 0.813036
vt 0.307611 0.813036
vt 0.307611 0.689518
vn -0.4856918 -0.8027177 0.3460459
vn -0.4581062 -0.8404555 0.2894362
vn -0.571307 -0.818207 -0.064385
vn -0.6349063 -0.7631254 -0.120556
vn -0.3716778 -0.9277396 -0.03398298
vn -0.7230926 -0.6361077 0.2692659
vn -0.6358628 -0.7455918 0.1994279
vn -0.3452829 -0.9377638 -0.03713299
vn -0.3664341 -0.8994622 0.238104
vn -0.344618 -0.9170051 0.200848
vn -0.6505382 -0.7590992 0.02384301
vn -0.7541739 -0.656674 0.001034
g QuandongTreePart_0
f 3/3/3 2/2/2 1/1/1
f 4/4/4 3/3/3 1/1/1
f 7/7/7 6/6/6 5/5/5
f 8/8/8 7/7/7 5/5/5
f 11/11/11 10/10/10 9/9/9
f 12/12/12 11/11/11 9/9/9
