g Quartz
v 0.122262 -0.149219 -0.082344
v 0.26531 0.039652 0.491081
v 0.090807 0.067787 -0.082344
v -0.025473 -0.248951 -0.082344
v 0.137285 -0.292947 0.48171
v 0.122262 -0.149219 -0.082344
v -0.050577 0.090239 -0.082344
v -0.223319 0.165933 0.537409
v -0.108205 -0.06948 -0.082344
v 0.090807 0.067787 -0.082344
v 0.031955 0.289872 0.489949
v -0.050577 0.090239 -0.082344
v 0.122262 -0.149219 -0.082344
v 0.137285 -0.292947 0.48171
v 0.26531 0.039652 0.491081
v -0.025473 -0.248951 -0.082344
v -0.20812 -0.232169 0.484599
v 0.137285 -0.292947 0.48171
v -0.050577 0.090239 -0.082344
v 0.031955 0.289872 0.489949
v -0.223319 0.165933 0.537409
v 0.090807 0.067787 -0.082344
v 0.26531 0.039652 0.491081
v 0.031955 0.289872 0.489949
v 0.137285 -0.292947 0.48171
v 0.006401 -0.001672 0.724772
v 0.26531 0.039652 0.491081
v -0.20812 -0.232169 0.484599
v 0.006401 -0.001672 0.724772
v 0.137285 -0.292947 0.48171
v -0.223319 0.165933 0.537409
v 0.006401 -0.001672 0.724772
v -0.20812 -0.232169 0.484599
v -0.108205 -0.06948 -0.082344
v -0.20812 -0.232169 0.484599
v -0.025473 -0.248951 -0.082344
v -0.223319 0.165933 0.537409
v 0.031955 0.289872 0.489949
v 0.006401 -0.001672 0.724772
v -0.223319 0.165933 0.537409
v 0.26531 0.039652 0.491081
vt 0.702749 0
vt 1 0.670778
vt 0.639546 0
vt 0.405909 0
vt 0.737992 0.657576
vt 0.702749 0
vt 0.355469 0
vt 0 0.736045
vt 0.239678 0
vt 0.639546 0
vt 0.522431 0.669184
vt 0.355469 0
vt 0.702749 0
vt 0.737992 0.657576
vt 1 0.670778
vt 0.405909 0
vt 0.031105 0.661646
vt 0.737992 0.657576
vt 0.355469 0
vt 0.522431 0.669184
vt 0 0.736045
vt 0.639546 0
vt 1 0.670778
vt 0.522431 0.669184
vt 0.737992 0.657576
vt 0.470132 1
vt 1 0.670778
vt 0.031105 0.661646
vt 0.470132 1
vt 0.737992 0.657576
vt 0 0.736045
vt 0.470132 1
vt 0.031105 0.661646
vt 0.239678 0
vt 0.031105 0.661646
vt 0.405909 0
vt 0 0.736045
vt 0.522431 0.669184
vt 0.470132 1
vt 0 0.736045
vt 1 0.670778
vn 0.9721959 -0.1120527 -0.2056192
vn 0.9618518 0.1679095 -0.2159803
vn 0.872753 0.4223021 -0.2448734
vn 0.5457397 -0.8084151 -0.2205294
vn 0.7729357 -0.609608 -0.1759221
vn 0.7729357 -0.609608 -0.1759221
vn -0.7247198 0.6300535 -0.2789511
vn -0.8645934 0.4308667 -0.258519
vn -0.9655417 -0.03233839 -0.2582316
vn 0.4577051 0.8437452 -0.2803569
vn 0.1563351 0.94313 -0.2933689
vn -0.1642191 0.9385093 -0.3036977
vn 0.8966526 -0.3791929 -0.2285318
vn 0.7729357 -0.609608 -0.1759221
vn 0.9721959 -0.1120527 -0.2056192
vn -0.1734541 -0.9844789 -0.02673874
vn -0.1734541 -0.9844789 -0.02673874
vn -0.1734541 -0.9844789 -0.02673874
vn -0.4693627 0.8165643 -0.3360377
vn -0.1642191 0.9385093 -0.3036977
vn -0.7247198 0.6300535 -0.2789511
vn 0.6879548 0.6571768 -0.3079558
vn 0.872753 0.4223021 -0.2448734
vn 0.4577051 0.8437452 -0.2803569
vn 0.6678487 -0.2765398 0.6910165
vn 0.6678487 -0.2765398 0.6910165
vn 0.6678487 -0.2765398 0.6910165
vn -0.1109591 -0.6656652 0.7379552
vn -0.1109591 -0.6656652 0.7379552
vn -0.1109591 -0.6656652 0.7379552
vn -0.6792393 -0.1219367 0.7237164
vn -0.6792393 -0.1219367 0.7237164
vn -0.6792393 -0.1219367 0.7237164
vn -0.9655417 -0.03233839 -0.2582316
vn -0.9498911 -0.213204 -0.2285844
vn -0.8744781 -0.4031143 -0.2697904
vn -0.9583127 0.1580434 -0.2380314
vn 0.1986429 0.6041583 0.7717084
vn 0.1986429 0.6041583 0.7717084
vn -0.1631189 0.6275086 0.7613311
vn 0.5342782 0.5013464 0.680587
g Quartz_0
f 3/3/3 2/2/2 1/1/1
f 6/6/6 5/5/5 4/4/4
f 9/9/9 8/8/8 7/7/7
f 12/12/12 11/11/11 10/10/10
f 15/15/15 14/14/14 13/13/13
f 18/18/18 17/17/17 16/16/16
f 21/21/21 20/20/20 19/19/19
f 24/24/24 23/23/23 22/22/22
f 27/27/27 26/26/26 25/25/25
f 30/30/30 29/29/29 28/28/28
f 33/33/33 32/32/32 31/31/31
f 36/36/36 35/35/35 34/34/34
f 35/35/35 37/37/37 34/34/34
f 40/40/40 39/39/39 38/38/38
f 38/38/38 39/39/39 41/41/41
