g Regal_Drawers
v 0.662419 -0.444108 1.404368
v 0.571053 -1.335007 1.002485
v 0.571053 -1.335007 1.404368
v 0.662419 -0.444108 1.002485
v 0.662419 0.446791 1.404368
v 0.662419 0.446791 1.002485
v 0.571053 1.33769 1.404368
v 0.571053 1.33769 1.002485
v 0.00721 -0.453809 1.43862
v 0.571053 -1.364109 1.43862
v 0.00721 -1.364109 1.43862
v 0.662419 -0.453809 1.43862
v 0.00721 0.456492 1.43862
v 0.662419 0.456492 1.43862
v 0.00721 1.366792 1.43862
v 0.571053 1.366792 1.43862
v 0.00721 1.366792 0.968232
v 0.571053 1.366792 0.968232
v 0.571053 1.366792 1.43862
v 0.00721 1.366792 1.43862
v 0.00721 0.456492 0.968232
v 0.571053 1.366792 0.968232
v 0.00721 1.366792 0.968232
v 0.662419 0.456492 0.968232
v 0.00721 -0.453809 0.968232
v 0.662419 -0.453809 0.968232
v 0.00721 -1.364109 0.968232
v 0.571053 -1.364109 0.968232
v 0.00721 -1.364109 1.43862
v 0.571053 -1.364109 1.43862
v 0.571053 -1.364109 0.968232
v 0.00721 -1.364109 0.968232
v 0.722534 -0.248866 1.151364
v 0.722534 -0.276369 1.178867
v 0.722534 -0.276369 1.225226
v 0.722534 -0.248866 1.252729
v 0.722534 -0.210419 1.151364
v 0.722534 -0.210419 1.252729
v 0.722534 -0.182916 1.178867
v 0.722534 -0.182916 1.225226
v 0.735659 0.163223 1.227986
v 0.688928 0.245988 1.176108
v 0.688928 0.245988 1.227986
v 0.735659 0.163223 1.176108
v 0.749347 0.080458 1.227986
v 0.749347 0.080458 1.176108
v 0.749347 -0.085072 1.176108
v 0.749347 -0.085072 1.227986
v 0.735659 -0.167837 1.176108
v 0.735659 -0.167837 1.227986
v 0.688928 -0.250602 1.176108
v 0.688928 -0.250602 1.227986
v 0.688928 -0.250602 1.227986
v 0.721462 -0.250602 1.227986
v 0.721462 -0.250602 1.176108
v 0.688928 -0.250602 1.176108
v 0.735659 -0.167837 1.227986
v 0.721462 -0.250602 1.227986
v 0.688928 -0.250602 1.227986
v 0.768193 -0.167837 1.227986
v 0.749347 -0.085072 1.227986
v 0.781882 -0.085072 1.227986
v 0.749347 0.080458 1.227986
v 0.781882 0.080458 1.227986
v 0.735659 0.163223 1.227986
v 0.768193 0.163223 1.227986
v 0.688928 0.245988 1.227986
v 0.721462 0.245988 1.227986
v 0.688928 0.245988 1.176108
v 0.721462 0.245988 1.176108
v 0.721462 0.245988 1.227986
v 0.688928 0.245988 1.227986
v 0.735659 0.163223 1.176108
v 0.721462 0.245988 1.176108
v 0.688928 0.245988 1.176108
v 0.768193 0.163223 1.176108
v 0.749347 0.080458 1.176108
v 0.781882 0.080458 1.176108
v 0.749347 -0.085072 1.176108
v 0.781882 -0.085072 1.176108
v 0.735659 -0.167837 1.176108
v 0.768193 -0.167837 1.176108
v 0.688928 -0.250602 1.176108
v 0.721462 -0.250602 1.176108
v 0.768193 -0.167837 1.227986
v 0.721462 -0.250602 1.176108
v 0.721462 -0.250602 1.227986
v 0.768193 -0.167837 1.176108
v 0.781882 -0.085072 1.227986
v 0.781882 -0.085072 1.176108
v 0.781882 0.080458 1.227986
v 0.781882 0.080458 1.176108
v 0.768193 0.163223 1.227986
v 0.768193 0.163223 1.176108
v 0.721462 0.245988 1.227986
v 0.721462 0.245988 1.176108
v 0.722534 0.214673 1.151364
v 0.722534 0.18717 1.178867
v 0.722534 0.18717 1.225226
v 0.722534 0.214673 1.252729
v 0.722534 0.25312 1.151364
v 0.722534 0.25312 1.252729
v 0.722534 0.280623 1.178867
v 0.722534 0.280623 1.225226
v 0.00721 1.366792 0.968232
v 0.00721 1.366792 1.43862
v 0.00721 0.456492 1.43862
v 0.00721 0.456492 0.968232
v 0.00721 -0.453809 0.968232
v 0.00721 -0.453809 1.43862
v 0.00721 -1.364109 0.968232
v 0.00721 -1.364109 1.43862
v 0.722534 -0.248866 1.252729
v 0.630041 -0.276369 1.225226
v 0.630041 -0.248866 1.252729
v 0.630041 -0.210419 1.252729
v 0.722534 -0.276369 1.225226
v 0.722534 -0.210419 1.252729
v 0.722534 -0.276369 1.178867
v 0.630041 -0.276369 1.178867
v 0.722534 -0.182916 1.225226
v 0.630041 -0.182916 1.225226
v 0.630041 -0.248866 1.151364
v 0.722534 -0.248866 1.151364
v 0.630041 -0.182916 1.178867
v 0.722534 -0.182916 1.178867
v 0.722534 -0.210419 1.151364
v 0.630041 -0.210419 1.151364
v 0.630041 0.214673 1.151364
v 0.722534 0.214673 1.151364
v 0.722534 0.25312 1.151364
v 0.722534 0.18717 1.178867
v 0.630041 0.25312 1.151364
v 0.630041 0.18717 1.178867
v 0.630041 0.280623 1.178867
v 0.722534 0.280623 1.178867
v 0.630041 0.18717 1.225226
v 0.722534 0.18717 1.225226
v 0.722534 0.280623 1.225226
v 0.630041 0.280623 1.225226
v 0.722534 0.214673 1.252729
v 0.630041 0.214673 1.252729
v 0.630041 0.25312 1.252729
v 0.722534 0.25312 1.252729
v 0.571053 1.33769 1.404368
v 0.571053 1.366792 1.43862
v 0.571053 1.366792 0.968232
v 0.571053 1.33769 1.002485
v 0.662419 0.446791 1.404368
v 0.662419 0.456492 0.968232
v 0.662419 0.456492 1.43862
v 0.662419 0.446791 1.002485
v 0.662419 -0.444108 1.404368
v 0.662419 -0.453809 0.968232
v 0.662419 -0.453809 1.43862
v 0.662419 -0.444108 1.002485
v 0.571053 -1.335007 1.404368
v 0.571053 -1.364109 0.968232
v 0.571053 -1.364109 1.43862
v 0.571053 -1.335007 1.002485
vt 0.71774 0.509321
vt 0.587239 0.011888
vt 0.587239 0.509321
vt 0.71774 0.011888
vt 0.84824 0.509321
vt 0.84824 0.011888
vt 0.978741 0.509321
vt 0.978741 0.011888
vt 0.71396 0.49315
vt 0.575899 0.49315
vt 0.575899 0.49315
vt 0.71396 0.49315
vt 0.85202 0.49315
vt 0.85202 0.49315
vt 0.990081 0.49315
vt 0.990081 0.49315
vt 0.990081 0.028059
vt 0.990081 0.028059
vt 0.990081 0.49315
vt 0.990081 0.49315
vt 0.85202 0.028059
vt 0.990081 0.028059
vt 0.990081 0.028059
vt 0.85202 0.028059
vt 0.71396 0.028059
vt 0.71396 0.028059
vt 0.575899 0.028059
vt 0.575899 0.028059
vt 0.575899 0.49315
vt 0.575899 0.49315
vt 0.575899 0.028059
vt 0.575899 0.028059
vt 0.284897 0.441751
vt 0.283787 0.450129
vt 0.283768 0.464251
vt 0.284881 0.472629
vt 0.286434 0.441751
vt 0.286451 0.472629
vt 0.287545 0.450129
vt 0.287564 0.464251
vt 0.286938 0.472629
vt 0.287534 0.441751
vt 0.287575 0.472629
vt 0.286911 0.441751
vt 0.286302 0.472629
vt 0.286289 0.441751
vt 0.285043 0.441751
vt 0.28503 0.472629
vt 0.28442 0.441751
vt 0.284393 0.472629
vt 0.283798 0.441751
vt 0.283757 0.472629
vt 0.283757 0.472629
vt 0.283757 0.472629
vt 0.283798 0.441751
vt 0.283798 0.441751
vt 0.284393 0.472629
vt 0.283757 0.472629
vt 0.283757 0.472629
vt 0.284393 0.472629
vt 0.28503 0.472629
vt 0.28503 0.472629
vt 0.286302 0.472629
vt 0.286302 0.472629
vt 0.286938 0.472629
vt 0.286938 0.472629
vt 0.287575 0.472629
vt 0.287575 0.472629
vt 0.287534 0.441751
vt 0.287534 0.441751
vt 0.287575 0.472629
vt 0.287575 0.472629
vt 0.286911 0.441751
vt 0.287534 0.441751
vt 0.287534 0.441751
vt 0.286911 0.441751
vt 0.286289 0.441751
vt 0.286289 0.441751
vt 0.285043 0.441751
vt 0.285043 0.441751
vt 0.28442 0.441751
vt 0.28442 0.441751
vt 0.283798 0.441751
vt 0.283798 0.441751
vt 0.284393 0.472629
vt 0.283798 0.441751
vt 0.283757 0.472629
vt 0.28442 0.441751
vt 0.28503 0.472629
vt 0.285043 0.441751
vt 0.286302 0.472629
vt 0.286289 0.441751
vt 0.286938 0.472629
vt 0.286911 0.441751
vt 0.287575 0.472629
vt 0.287534 0.441751
vt 0.284897 0.441751
vt 0.283787 0.450129
vt 0.283768 0.464251
vt 0.284881 0.472629
vt 0.286435 0.441751
vt 0.286451 0.472629
vt 0.287545 0.450129
vt 0.287564 0.464251
vt 0.990081 0.028059
vt 0.990081 0.49315
vt 0.85202 0.49315
vt 0.85202 0.028059
vt 0.71396 0.028059
vt 0.71396 0.49315
vt 0.575899 0.028059
vt 0.575899 0.49315
vt 0.284881 0.472629
vt 0.283768 0.464251
vt 0.284881 0.472629
vt 0.286451 0.472629
vt 0.283768 0.464251
vt 0.286451 0.472629
vt 0.283787 0.450129
vt 0.283787 0.450129
vt 0.287564 0.464251
vt 0.287564 0.464251
vt 0.284897 0.441751
vt 0.284897 0.441751
vt 0.287545 0.450129
vt 0.287545 0.450129
vt 0.286434 0.441751
vt 0.286434 0.441751
vt 0.284897 0.441751
vt 0.284897 0.441751
vt 0.286434 0.441751
vt 0.283787 0.450129
vt 0.286435 0.441751
vt 0.283787 0.450129
vt 0.287545 0.450129
vt 0.287545 0.450129
vt 0.283768 0.464251
vt 0.283768 0.464251
vt 0.287564 0.464251
vt 0.287564 0.464251
vt 0.284881 0.472629
vt 0.284881 0.472629
vt 0.286451 0.472629
vt 0.286451 0.472629
vt 0.291271 0.441751
vt 0.291393 0.472629
vt 0.291393 0.04858
vt 0.291271 0.079458
vt 0.287534 0.441751
vt 0.287575 0.04858
vt 0.287575 0.472629
vt 0.287534 0.079458
vt 0.283798 0.441751
vt 0.283757 0.04858
vt 0.283757 0.472629
vt 0.283798 0.079458
vt 0.280061 0.441751
vt 0.279939 0.04858
vt 0.279939 0.472629
vt 0.280061 0.079458
vn 0.998724 -0.05046405 -0.001878354
vn 0.9952474 -0.09719164 0.006038592
vn 0.9952474 -0.09719165 -0.006038652
vn 0.998724 -0.05046405 0.001878362
vn 0.998724 0.05046405 -0.001878346
vn 0.998724 0.05046405 0.001878354
vn 0.9952474 0.09719167 -0.006038625
vn 0.9952474 0.09719165 0.006038565
vn 0 0 1
vn 0 0 1
vn 0 0 1
vn 0 0 1
vn 0 0 1
vn 0 0 1
vn 0 0 1
vn 0 0 1
vn 0 1 0
vn 0 1 0
vn 0 1 0
vn 0 1 0
vn 0 0 -1
vn 0 0 -1
vn 0 0 -1
vn 0 0 -1
vn 0 0 -1
vn 0 0 -1
vn 0 0 -1
vn 0 0 -1
vn 0 -1 0
vn 0 -1 0
vn 0 -1 0
vn 0 -1 0
vn 1 0 0
vn 1 0 0
vn 1 0 0
vn 1 0 0
vn 1 0 0
vn 1 0 0
vn 1 0 0
vn 1 0 0
vn -0.9393804 -0.3428768 0
vn -0.8707845 -0.4916647 0
vn -0.8707845 -0.4916647 0
vn -0.9393804 -0.3428768 0
vn -0.998484 -0.05504426 0
vn -0.998484 -0.05504426 0
vn -0.998484 0.05504427 0
vn -0.998484 0.05504427 0
vn -0.9393804 0.3428768 0
vn -0.9393804 0.3428768 0
vn -0.8707845 0.4916646 0
vn -0.8707845 0.4916646 0
vn 0 -1 0
vn 0 -1 0
vn 0 -1 0
vn 0 -1 0
vn 0 0 1
vn 0 0 1
vn 0 0 1
vn 0 0 1
vn 0 0 1
vn 0 0 1
vn 0 0 1
vn 0 0 1
vn 0 0 1
vn 0 0 1
vn 0 0 1
vn 0 0 1
vn 0 1 0
vn 0 1 0
vn 0 1 0
vn 0 1 0
vn 0 0 -1
vn 0 0 -1
vn 0 0 -1
vn 0 0 -1
vn 0 0 -1
vn 0 0 -1
vn 0 0 -1
vn 0 0 -1
vn 0 0 -1
vn 0 0 -1
vn 0 0 -1
vn 0 0 -1
vn 0.9393786 -0.3428819 0
vn 0.8707845 -0.4916646 0
vn 0.8707845 -0.4916646 0
vn 0.9393786 -0.3428819 0
vn 0.9984837 -0.05504834 0
vn 0.9984837 -0.05504834 0
vn 0.9984837 0.05504833 0
vn 0.9984837 0.05504833 0
vn 0.9393786 0.3428818 0
vn 0.9393786 0.3428818 0
vn 0.8707845 0.4916647 0
vn 0.8707845 0.4916647 0
vn 1 0 0
vn 1 0 0
vn 1 0 0
vn 1 0 0
vn 1 0 0
vn 1 0 0
vn 1 0 0
vn 1 0 0
vn -1 0 0
vn -1 0 0
vn -1 0 0
vn -1 0 0
vn -1 0 0
vn -1 0 0
vn -1 0 0
vn -1 0 0
vn 0 -0.3848997 0.9229584
vn 0 -0.9371412 0.3489503
vn 0 -0.3848997 0.9229584
vn 0 0.3848997 0.9229584
vn 0 -0.9371412 0.3489503
vn 0 0.3848997 0.9229584
vn 0 -0.9371412 -0.3489503
vn 0 -0.9371412 -0.3489503
vn 0 0.9371412 0.3489503
vn 0 0.9371412 0.3489503
vn 0 -0.3848997 -0.9229584
vn 0 -0.3848997 -0.9229584
vn 0 0.9371412 -0.3489503
vn 0 0.9371412 -0.3489503
vn 0 0.3848997 -0.9229584
vn 0 0.3848997 -0.9229584
vn 0 -0.3848997 -0.9229584
vn 0 -0.3848997 -0.9229584
vn 0 0.3848997 -0.9229584
vn 0 -0.9371412 -0.3489503
vn 0 0.3848997 -0.9229584
vn 0 -0.9371412 -0.3489503
vn 0 0.9371412 -0.3489501
vn 0 0.9371412 -0.3489501
vn 0 -0.9371412 0.3489503
vn 0 -0.9371412 0.3489503
vn 0 0.9371412 0.3489501
vn 0 0.9371412 0.3489501
vn 0 -0.3848997 0.9229584
vn 0 -0.3848997 0.9229584
vn 0 0.3848997 0.9229584
vn 0 0.3848997 0.9229584
vn 0.9952474 0.09719167 -0.006038625
vn 0.9961954 0.07582845 -0.04295182
vn 0.9961953 0.07582986 0.0429512
vn 0.9952474 0.09719165 0.006038565
vn 0.998724 0.05046405 -0.001878346
vn 0.9976609 0.05947916 0.03368991
vn 0.9976609 0.05947945 -0.03369119
vn 0.998724 0.05046405 0.001878354
vn 0.998724 -0.05046405 -0.001878354
vn 0.9976609 -0.05947913 0.03369002
vn 0.9976609 -0.05947941 -0.03369129
vn 0.998724 -0.05046405 0.001878362
vn 0.9952474 -0.09719165 -0.006038652
vn 0.9961953 -0.07582968 0.04295126
vn 0.9961954 -0.07582826 -0.04295187
vn 0.9952474 -0.09719164 0.006038592
g Regal_Drawers_0
f 3/3/3 2/2/2 1/1/1
f 2/2/2 4/4/4 1/1/1
f 1/1/1 4/4/4 5/5/5
f 4/4/4 6/6/6 5/5/5
f 5/5/5 6/6/6 7/7/7
f 6/6/6 8/8/8 7/7/7
f 11/11/11 10/10/10 9/9/9
f 10/10/10 12/12/12 9/9/9
f 9/9/9 12/12/12 13/13/13
f 12/12/12 14/14/14 13/13/13
f 13/13/13 14/14/14 15/15/15
f 14/14/14 16/16/16 15/15/15
f 19/19/19 18/18/18 17/17/17
f 20/20/20 19/19/19 17/17/17
f 23/23/23 22/22/22 21/21/21
f 22/22/22 24/24/24 21/21/21
f 21/21/21 24/24/24 25/25/25
f 24/24/24 26/26/26 25/25/25
f 25/25/25 26/26/26 27/27/27
f 26/26/26 28/28/28 27/27/27
f 31/31/31 30/30/30 29/29/29
f 32/32/32 31/31/31 29/29/29
f 35/35/35 34/34/34 33/33/33
f 33/33/33 36/36/36 35/35/35
f 33/33/33 37/37/37 36/36/36
f 37/37/37 38/38/38 36/36/36
f 37/37/37 39/39/39 38/38/38
f 39/39/39 40/40/40 38/38/38
f 43/43/43 42/42/42 41/41/41
f 42/42/42 44/44/44 41/41/41
f 41/41/41 44/44/44 45/45/45
f 44/44/44 46/46/46 45/45/45
f 46/46/46 47/47/47 45/45/45
f 47/47/47 48/48/48 45/45/45
f 47/47/47 49/49/49 48/48/48
f 49/49/49 50/50/50 48/48/48
f 49/49/49 51/51/51 50/50/50
f 51/51/51 52/52/52 50/50/50
f 55/55/55 54/54/54 53/53/53
f 56/56/56 55/55/55 53/53/53
f 59/59/59 58/58/58 57/57/57
f 58/58/58 60/60/60 57/57/57
f 57/57/57 60/60/60 61/61/61
f 60/60/60 62/62/62 61/61/61
f 61/61/61 62/62/62 63/63/63
f 62/62/62 64/64/64 63/63/63
f 63/63/63 64/64/64 65/65/65
f 64/64/64 66/66/66 65/65/65
f 65/65/65 66/66/66 67/67/67
f 66/66/66 68/68/68 67/67/67
f 71/71/71 70/70/70 69/69/69
f 72/72/72 71/71/71 69/69/69
f 75/75/75 74/74/74 73/73/73
f 74/74/74 76/76/76 73/73/73
f 73/73/73 76/76/76 77/77/77
f 76/76/76 78/78/78 77/77/77
f 77/77/77 78/78/78 79/79/79
f 78/78/78 80/80/80 79/79/79
f 79/79/79 80/80/80 81/81/81
f 80/80/80 82/82/82 81/81/81
f 81/81/81 82/82/82 83/83/83
f 82/82/82 84/84/84 83/83/83
f 87/87/87 86/86/86 85/85/85
f 86/86/86 88/88/88 85/85/85
f 85/85/85 88/88/88 89/89/89
f 88/88/88 90/90/90 89/89/89
f 89/89/89 90/90/90 91/91/91
f 90/90/90 92/92/92 91/91/91
f 91/91/91 92/92/92 93/93/93
f 92/92/92 94/94/94 93/93/93
f 93/93/93 94/94/94 95/95/95
f 94/94/94 96/96/96 95/95/95
f 99/99/99 98/98/98 97/97/97
f 97/97/97 100/100/100 99/99/99
f 97/97/97 101/101/101 100/100/100
f 101/101/101 102/102/102 100/100/100
f 101/101/101 103/103/103 102/102/102
f 103/103/103 104/104/104 102/102/102
f 107/107/107 106/106/106 105/105/105
f 108/108/108 107/107/107 105/105/105
f 108/108/108 109/109/109 107/107/107
f 109/109/109 110/110/110 107/107/107
f 110/110/110 109/109/109 111/111/111
f 112/112/112 110/110/110 111/111/111
f 115/115/115 114/114/114 113/113/113
f 115/115/115 113/113/113 116/116/116
f 114/114/114 117/117/117 113/113/113
f 113/113/113 118/118/118 116/116/116
f 119/119/119 117/117/117 114/114/114
f 120/120/120 119/119/119 114/114/114
f 116/116/116 118/118/118 121/121/121
f 122/122/122 116/116/116 121/121/121
f 119/119/119 120/120/120 123/123/123
f 124/124/124 119/119/119 123/123/123
f 122/122/122 121/121/121 125/125/125
f 121/121/121 126/126/126 125/125/125
f 127/127/127 124/124/124 123/123/123
f 125/125/125 126/126/126 127/127/127
f 128/128/128 127/127/127 123/123/123
f 128/128/128 125/125/125 127/127/127
f 131/131/131 130/130/130 129/129/129
f 130/130/130 132/132/132 129/129/129
f 133/133/133 131/131/131 129/129/129
f 132/132/132 134/134/134 129/129/129
f 133/133/133 135/135/135 131/131/131
f 135/135/135 136/136/136 131/131/131
f 134/134/134 132/132/132 137/137/137
f 132/132/132 138/138/138 137/137/137
f 139/139/139 136/136/136 135/135/135
f 140/140/140 139/139/139 135/135/135
f 137/137/137 138/138/138 141/141/141
f 142/142/142 137/137/137 141/141/141
f 140/140/140 143/143/143 139/139/139
f 142/142/142 141/141/141 143/143/143
f 143/143/143 144/144/144 139/139/139
f 141/141/141 144/144/144 143/143/143
f 147/147/147 146/146/146 145/145/145
f 148/148/148 147/147/147 145/145/145
f 145/145/145 146/146/146 149/149/149
f 150/150/150 147/147/147 148/148/148
f 146/146/146 151/151/151 149/149/149
f 152/152/152 150/150/150 148/148/148
f 149/149/149 151/151/151 153/153/153
f 154/154/154 150/150/150 152/152/152
f 151/151/151 155/155/155 153/153/153
f 156/156/156 154/154/154 152/152/152
f 153/153/153 155/155/155 157/157/157
f 158/158/158 154/154/154 156/156/156
f 155/155/155 159/159/159 157/157/157
f 160/160/160 158/158/158 156/156/156
f 157/157/157 159/159/159 160/160/160
f 159/159/159 158/158/158 160/160/160
