g Relic_Sign
v -0.92599 -0.131816 0.06833
v -0.92599 -0.131816 0.095029
v -0.07259 -0.985216 0.095029
v -0.07259 -0.985216 0.06833
v 0.07259 -0.985216 0.06833
v 0.07259 -0.985216 0.095029
v 0.92599 -0.131816 0.095029
v 0.92599 -0.131816 0.06833
v 0.92599 0.013364 0.06833
v 0.92599 0.013364 0.095029
v 0.07259 0.866764 0.095029
v 0.07259 0.866764 0.06833
v 0.92599 -0.131816 0.06833
v 0.956058 -0.059226 0.06833
v 0.92599 0.013364 0.06833
v 0.07259 -0.985216 0.06833
v 0.07259 0.866764 0.06833
v 0 -1.015284 0.06833
v 0 0.896831 0.06833
v -0.07259 -0.985216 0.06833
v -0.07259 0.866764 0.06833
v -0.92599 -0.131816 0.06833
v -0.92599 0.013364 0.06833
v -0.956058 -0.059226 0.06833
v 0.92599 0.013364 0.095029
v 0.956058 -0.059226 0.095029
v 0.92599 -0.131816 0.095029
v 0.07259 0.866764 0.095029
v 0.07259 -0.985216 0.095029
v 0 0.896831 0.095029
v 0 -1.015284 0.095029
v -0.07259 0.866764 0.095029
v -0.07259 -0.985216 0.095029
v -0.92599 0.013364 0.095029
v -0.92599 -0.131816 0.095029
v -0.956058 -0.059226 0.095029
v 0.07259 -0.985216 0.06833
v 0 -1.015284 0.06833
v 0 -1.015284 0.095029
v 0.07259 -0.985216 0.095029
v 0 -1.015284 0.06833
v -0.07259 -0.985216 0.06833
v -0.07259 -0.985216 0.095029
v 0 -1.015284 0.095029
v -0.92599 0.013364 0.095029
v -0.956058 -0.059226 0.095029
v -0.956058 -0.059226 0.06833
v -0.92599 0.013364 0.06833
v -0.956058 -0.059226 0.095029
v -0.92599 -0.131816 0.095029
v -0.92599 -0.131816 0.06833
v -0.956058 -0.059226 0.06833
v 0.92599 0.013364 0.06833
v 0.956058 -0.059226 0.06833
v 0.956058 -0.059226 0.095029
v 0.92599 0.013364 0.095029
v 0.956058 -0.059226 0.06833
v 0.92599 -0.131816 0.06833
v 0.92599 -0.131816 0.095029
v 0.956058 -0.059226 0.095029
v 0.07259 0.866764 0.095029
v 0 0.896831 0.095029
v 0 0.896831 0.06833
v 0.07259 0.866764 0.06833
v 0 0.896831 0.095029
v -0.07259 0.866764 0.095029
v -0.07259 0.866764 0.06833
v 0 0.896831 0.06833
v -0.07259 0.866764 0.06833
v -0.07259 0.866764 0.095029
v -0.92599 0.013364 0.095029
v -0.92599 0.013364 0.06833
vt 0.026985 0.174131
vt 0.026985 0.178613
vt 0.031467 0.178613
vt 0.031467 0.174131
vt 0.026985 0.174131
vt 0.026985 0.178613
vt 0.031467 0.178613
vt 0.031467 0.174131
vt 0.026985 0.174131
vt 0.026985 0.178613
vt 0.031467 0.178613
vt 0.031467 0.174131
vt 0.045793 0.021776
vt 0.043213 0.020707
vt 0.040633 0.021776
vt 0.076125 0.052108
vt 0.010301 0.052107
vt 0.077194 0.054688
vt 0.009232 0.054688
vt 0.076125 0.057268
vt 0.010301 0.057268
vt 0.045793 0.0876
vt 0.040633 0.0876
vt 0.043213 0.088668
vt 0.310729 0.190493
vt 0.315204 0.179688
vt 0.310729 0.168882
vt 0.183696 0.317526
vt 0.183696 0.041849
vt 0.17289 0.322001
vt 0.172891 0.037373
vt 0.162085 0.317526
vt 0.162085 0.041849
vt 0.035052 0.190493
vt 0.035052 0.168882
vt 0.030576 0.179688
vt 0.026985 0.174131
vt 0.026985 0.178613
vt 0.031467 0.178613
vt 0.031467 0.174131
vt 0.026985 0.174131
vt 0.026985 0.178613
vt 0.031467 0.178613
vt 0.031467 0.174131
vt 0.026985 0.174131
vt 0.026985 0.178613
vt 0.031467 0.178613
vt 0.031467 0.174131
vt 0.026985 0.174131
vt 0.026985 0.178613
vt 0.031467 0.178613
vt 0.031467 0.174131
vt 0.026985 0.174131
vt 0.026985 0.178613
vt 0.031467 0.178613
vt 0.031467 0.174131
vt 0.026985 0.174131
vt 0.026985 0.178613
vt 0.031467 0.178613
vt 0.031467 0.174131
vt 0.026985 0.174131
vt 0.026985 0.178613
vt 0.031467 0.178613
vt 0.031467 0.174131
vt 0.026985 0.174131
vt 0.026985 0.178613
vt 0.031467 0.178613
vt 0.031467 0.174131
vt 0.026985 0.174131
vt 0.026985 0.178613
vt 0.031467 0.178613
vt 0.031467 0.174131
vn -0.8314687 -0.5555716 0
vn -0.8314687 -0.5555716 0
vn -0.555571 -0.8314691 0
vn -0.555571 -0.8314691 0
vn 0.555571 -0.8314691 0
vn 0.555571 -0.8314691 0
vn 0.8314687 -0.5555716 0
vn 0.8314687 -0.5555716 0
vn 0.8314687 0.5555716 0
vn 0.8314687 0.5555716 0
vn 0.5555663 0.8314722 0
vn 0.5555663 0.8314722 0
vn 0 0 -1
vn 0 0 -1
vn 0 0 -1
vn 0 0 -1
vn 0 0 -1
vn 0 0 -1
vn 0 0 -1
vn 0 0 -1
vn 0 0 -1
vn 0 0 -1
vn 0 0 -1
vn 0 0 -1
vn 0 0 1
vn 0 0 1
vn 0 0 1
vn 0 0 1
vn 0 0 1
vn 0 0 1
vn 0 0 1
vn 0 0 1
vn 0 0 1
vn 0 0 1
vn 0 0 1
vn 0 0 1
vn 0.555571 -0.8314691 0
vn 0 -1 0
vn 0 -1 0
vn 0.555571 -0.8314691 0
vn 0 -1 0
vn -0.555571 -0.8314691 0
vn -0.555571 -0.8314691 0
vn 0 -1 0
vn -0.8314687 0.5555716 0
vn -1 0 0
vn -1 0 0
vn -0.8314687 0.5555716 0
vn -1 0 0
vn -0.8314687 -0.5555716 0
vn -0.8314687 -0.5555716 0
vn -1 0 0
vn 0.8314687 0.5555716 0
vn 1 0 0
vn 1 0 0
vn 0.8314687 0.5555716 0
vn 1 0 0
vn 0.8314687 -0.5555716 0
vn 0.8314687 -0.5555716 0
vn 1 0 0
vn 0.5555663 0.8314722 0
vn 0 1 0
vn 0 1 0
vn 0.5555663 0.8314722 0
vn 0 1 0
vn -0.5555663 0.8314722 0
vn -0.5555663 0.8314722 0
vn 0 1 0
vn -0.5555663 0.8314722 0
vn -0.5555663 0.8314722 0
vn -0.8314687 0.5555716 0
vn -0.8314687 0.5555716 0
g Relic_Sign_0
f 3/3/3 2/2/2 1/1/1
f 4/4/4 3/3/3 1/1/1
f 7/7/7 6/6/6 5/5/5
f 8/8/8 7/7/7 5/5/5
f 11/11/11 10/10/10 9/9/9
f 12/12/12 11/11/11 9/9/9
f 15/15/15 14/14/14 13/13/13
f 13/13/13 16/16/16 15/15/15
f 16/16/16 17/17/17 15/15/15
f 16/16/16 18/18/18 17/17/17
f 18/18/18 19/19/19 17/17/17
f 18/18/18 20/20/20 19/19/19
f 20/20/20 21/21/21 19/19/19
f 20/20/20 22/22/22 21/21/21
f 22/22/22 23/23/23 21/21/21
f 22/22/22 24/24/24 23/23/23
f 27/27/27 26/26/26 25/25/25
f 25/25/25 28/28/28 27/27/27
f 28/28/28 29/29/29 27/27/27
f 28/28/28 30/30/30 29/29/29
f 30/30/30 31/31/31 29/29/29
f 30/30/30 32/32/32 31/31/31
f 32/32/32 33/33/33 31/31/31
f 32/32/32 34/34/34 33/33/33
f 34/34/34 35/35/35 33/33/33
f 34/34/34 36/36/36 35/35/35
f 39/39/39 38/38/38 37/37/37
f 40/40/40 39/39/39 37/37/37
f 43/43/43 42/42/42 41/41/41
f 44/44/44 43/43/43 41/41/41
f 47/47/47 46/46/46 45/45/45
f 48/48/48 47/47/47 45/45/45
f 51/51/51 50/50/50 49/49/49
f 52/52/52 51/51/51 49/49/49
f 55/55/55 54/54/54 53/53/53
f 56/56/56 55/55/55 53/53/53
f 59/59/59 58/58/58 57/57/57
f 60/60/60 59/59/59 57/57/57
f 63/63/63 62/62/62 61/61/61
f 64/64/64 63/63/63 61/61/61
f 67/67/67 66/66/66 65/65/65
f 68/68/68 67/67/67 65/65/65
f 71/71/71 70/70/70 69/69/69
f 72/72/72 71/71/71 69/69/69
