g Relic_Phone
v 0.264119 -0.462135 0.041829
v 0.2867 -0.407618 0.041829
v 0.2867 0.407618 0.041829
v 0.264119 0.462135 0.041829
v 0.209602 -0.484717 0.041829
v 0.209602 0.484717 0.041829
v -0.209602 -0.484717 0.041829
v -0.209602 0.484717 0.041829
v -0.264119 -0.462135 0.041829
v -0.264119 0.462135 0.041829
v -0.2867 -0.407618 0.041829
v -0.2867 0.407618 0.041829
v -0.209602 0.484717 0.123923
v -0.209602 0.484717 0.041829
v 0.209602 0.484717 0.041829
v 0.209602 0.484717 0.123923
v 0.264119 0.462135 0.123923
v 0.2867 0.407618 0.123923
v 0.2867 -0.407618 0.123923
v 0.264119 -0.462135 0.123923
v 0.209602 0.484717 0.123923
v 0.209602 -0.484717 0.123923
v -0.209602 0.484717 0.123923
v -0.209602 -0.484717 0.123923
v -0.264119 0.462135 0.123923
v -0.264119 -0.462135 0.123923
v -0.2867 0.407618 0.123923
v -0.2867 -0.407618 0.123923
v -0.209602 0.484717 0.123923
v -0.264119 0.462135 0.041829
v -0.209602 0.484717 0.041829
v -0.264119 0.462135 0.123923
v -0.2867 0.407618 0.041829
v -0.2867 0.407618 0.123923
v -0.2867 -0.407618 0.123923
v -0.2867 -0.407618 0.041829
v -0.264119 -0.462135 0.041829
v -0.264119 -0.462135 0.123923
v -0.209602 -0.484717 0.041829
v -0.209602 -0.484717 0.123923
v 0.264119 0.462135 0.123923
v 0.209602 0.484717 0.123923
v 0.209602 0.484717 0.041829
v 0.264119 0.462135 0.041829
v 0.2867 0.407618 0.123923
v 0.2867 0.407618 0.041829
v 0.2867 -0.407618 0.041829
v 0.2867 -0.407618 0.123923
v 0.264119 -0.462135 0.123923
v 0.264119 -0.462135 0.041829
v 0.209602 -0.484717 0.123923
v 0.209602 -0.484717 0.041829
v 0.209602 -0.484717 0.123923
v 0.209602 -0.484717 0.041829
v -0.209602 -0.484717 0.041829
v -0.209602 -0.484717 0.123923
vt 0.087193 0.832241
vt 0.088732 0.828526
vt 0.088732 0.772958
vt 0.087193 0.769242
vt 0.083477 0.833781
vt 0.083477 0.767703
vt 0.054904 0.833781
vt 0.054904 0.767703
vt 0.051188 0.832241
vt 0.051188 0.769242
vt 0.049648 0.828526
vt 0.049648 0.772958
vt 0.020459 0.836744
vt 0.030724 0.836744
vt 0.030724 0.73273
vt 0.020459 0.73273
vt 0.038808 0.734477
vt 0.036315 0.740495
vt 0.036315 0.830489
vt 0.038808 0.836507
vt 0.044826 0.731984
vt 0.044826 0.839
vt 0.091102 0.731984
vt 0.091102 0.839
vt 0.09712 0.734477
vt 0.09712 0.836507
vt 0.099613 0.740495
vt 0.099613 0.830489
vt 0.019347 0.732723
vt 0.030199 0.738562
vt 0.030199 0.732723
vt 0.019347 0.738562
vt 0.030199 0.744402
vt 0.019347 0.744402
vt 0.019347 0.825072
vt 0.030199 0.825072
vt 0.030199 0.830911
vt 0.019347 0.830911
vt 0.030199 0.83675
vt 0.019347 0.83675
vt 0.030199 0.738562
vt 0.030199 0.732723
vt 0.019347 0.732723
vt 0.019347 0.738562
vt 0.030199 0.744402
vt 0.019347 0.744402
vt 0.019347 0.825072
vt 0.030199 0.825072
vt 0.030199 0.830911
vt 0.019347 0.830911
vt 0.030199 0.83675
vt 0.019347 0.83675
vt 0.030203 0.73273
vt 0.019938 0.73273
vt 0.019938 0.836744
vt 0.030203 0.836744
vn 0 0 -1
vn 0 0 -1
vn 0 0 -1
vn 0 0 -1
vn 0 0 -1
vn 0 0 -1
vn 0 0 -1
vn 0 0 -1
vn 0 0 -1
vn 0 0 -1
vn 0 0 -1
vn 0 0 -1
vn -0.1950929 0.9807848 0
vn -0.1950929 0.9807848 0
vn 0.1950929 0.9807848 0
vn 0.1950929 0.9807848 0
vn 0 0 1
vn 0 0 1
vn 0 0 1
vn 0 0 1
vn 0 0 1
vn 0 0 1
vn 0 0 1
vn 0 0 1
vn 0 0 1
vn 0 0 1
vn 0 0 1
vn 0 0 1
vn -0.1950929 0.9807848 0
vn -0.7071123 0.7071012 0
vn -0.1950929 0.9807848 0
vn -0.7071123 0.7071012 0
vn -0.9807863 0.1950852 0
vn -0.9807863 0.1950852 0
vn -0.9807863 -0.1950852 0
vn -0.9807863 -0.1950852 0
vn -0.7071123 -0.7071012 0
vn -0.7071123 -0.7071012 0
vn -0.1950929 -0.9807848 0
vn -0.1950929 -0.9807848 0
vn 0.7071123 0.7071012 0
vn 0.1950929 0.9807848 0
vn 0.1950929 0.9807848 0
vn 0.7071123 0.7071012 0
vn 0.9807863 0.1950852 0
vn 0.9807863 0.1950852 0
vn 0.9807863 -0.1950852 0
vn 0.9807863 -0.1950852 0
vn 0.7071123 -0.7071012 0
vn 0.7071123 -0.7071012 0
vn 0.1950929 -0.9807848 0
vn 0.1950929 -0.9807848 0
vn 0.1950929 -0.9807848 0
vn 0.1950929 -0.9807848 0
vn -0.1950929 -0.9807848 0
vn -0.1950929 -0.9807848 0
g Relic_Phone_0
f 3/3/3 2/2/2 1/1/1
f 1/1/1 4/4/4 3/3/3
f 1/1/1 5/5/5 4/4/4
f 5/5/5 6/6/6 4/4/4
f 5/5/5 7/7/7 6/6/6
f 7/7/7 8/8/8 6/6/6
f 7/7/7 9/9/9 8/8/8
f 9/9/9 10/10/10 8/8/8
f 9/9/9 11/11/11 10/10/10
f 11/11/11 12/12/12 10/10/10
f 15/15/15 14/14/14 13/13/13
f 16/16/16 15/15/15 13/13/13
f 19/19/19 18/18/18 17/17/17
f 17/17/17 20/20/20 19/19/19
f 17/17/17 21/21/21 20/20/20
f 21/21/21 22/22/22 20/20/20
f 21/21/21 23/23/23 22/22/22
f 23/23/23 24/24/24 22/22/22
f 23/23/23 25/25/25 24/24/24
f 25/25/25 26/26/26 24/24/24
f 25/25/25 27/27/27 26/26/26
f 27/27/27 28/28/28 26/26/26
f 31/31/31 30/30/30 29/29/29
f 30/30/30 32/32/32 29/29/29
f 30/30/30 33/33/33 32/32/32
f 33/33/33 34/34/34 32/32/32
f 34/34/34 33/33/33 35/35/35
f 33/33/33 36/36/36 35/35/35
f 35/35/35 36/36/36 37/37/37
f 38/38/38 35/35/35 37/37/37
f 38/38/38 37/37/37 39/39/39
f 40/40/40 38/38/38 39/39/39
f 43/43/43 42/42/42 41/41/41
f 44/44/44 43/43/43 41/41/41
f 44/44/44 41/41/41 45/45/45
f 46/46/46 44/44/44 45/45/45
f 47/47/47 46/46/46 45/45/45
f 48/48/48 47/47/47 45/45/45
f 47/47/47 48/48/48 49/49/49
f 50/50/50 47/47/47 49/49/49
f 50/50/50 49/49/49 51/51/51
f 52/52/52 50/50/50 51/51/51
f 55/55/55 54/54/54 53/53/53
f 56/56/56 55/55/55 53/53/53
