g RightNoSideTileBoth
v 1 0.75 0
v 0.75 1 0
v 1 1 -0.25
v 0.75 -1 0
v 1 -0.75 0
v 1 -1 -0.25
v -1 0.8 0
v -1 1 0
v 0.75 1 0
v 0.8 0.8 0
v -1 -0.798938 0
v 1 0.75 0
v 0.8 -0.8 0
v -1 -1 0
v 1 -0.75 0
v 0.75 -1 0
vt 0 0.125
vt 0.125 0
vt 0 0
vt 0.125 1
vt 0 0.875
vt 0 1
vt 1 0.1
vt 1 0
vt 0.125 0
vt 0.1 0.1
vt 1 0.899469
vt 0 0.125
vt 0.1 0.9
vt 1 1
vt 0 0.875
vt 0.125 1
vn 0.5773503 0.5773503 0.5773503
vn 0.5773503 0.5773503 0.5773503
vn 0.5773503 0.5773503 0.5773503
vn 0.5773503 -0.5773503 0.5773503
vn 0.5773503 -0.5773503 0.5773503
vn 0.5773503 -0.5773503 0.5773503
vn 0 0 1
vn 0 0 1
vn 0 0 1
vn 0 0 1
vn 0 0 1
vn 0 0 1
vn 0 0 1
vn 0 0 1
vn 0 0 1
vn 0 0 1
g RightNoSideTileBoth_0
f 3/3/3 2/2/2 1/1/1
f 6/6/6 5/5/5 4/4/4
f 9/9/9 8/8/8 7/7/7
f 10/10/10 9/9/9 7/7/7
f 10/10/10 7/7/7 11/11/11
f 12/12/12 9/9/9 10/10/10
f 13/13/13 10/10/10 11/11/11
f 12/12/12 10/10/10 13/13/13
f 13/13/13 11/11/11 14/14/14
f 15/15/15 12/12/12 13/13/13
f 16/16/16 13/13/13 14/14/14
f 16/16/16 15/15/15 13/13/13
