g RooPoo
v 0.148875 -0.117706 -0.004025
v 0.306199 -0.117706 0.176879
v 0.351128 -0.051989 -0.004025
v 0.103946 -0.051989 0.176879
v 0.023872 0.054341 -0.004025
v 0.431201 0.054341 0.176879
v 0.351128 0.160672 -0.004025
v 0.103946 0.160672 0.176879
v 0.148875 0.226389 -0.004025
v 0.250298 0.054341 0.277429
v 0.306199 0.226389 0.176879
v 0.025283 0.128484 -0.004025
v -0.041099 0.227883 0.176879
v -0.160559 0.231862 -0.004025
v 0.041289 0.022071 0.176879
v -0.015973 -0.08087 -0.004025
v -0.259412 0.189342 0.176879
v -0.316675 0.086401 -0.004025
v -0.110261 -0.153272 0.178384
v -0.22709 -0.106473 -0.004025
v -0.132037 0.026313 0.278934
v -0.296103 -0.049894 0.178384
v -0.078987 -0.200402 0.000607
v -0.039837 -0.28588 0.108715
v 0.007049 -0.293937 0.000607
v -0.054462 -0.159638 0.108715
v -0.016617 -0.089672 0.000607
v 0.084747 -0.310983 0.108715
v 0.122592 -0.241017 0.000607
v 0.061081 -0.106717 0.108715
v 0.107967 -0.114774 0.000607
v 0.039729 -0.212694 0.168804
v 0.147117 -0.200252 0.108715
v -0.012232 0.190528 0.008981
v 0.07369 0.209345 0.106046
v 0.099267 0.222457 0.001953
v -0.03573 0.247521 0.097644
v -0.077781 0.284225 -0.011642
v 0.14468 0.299181 0.086273
v 0.10263 0.335885 -0.023013
v -0.032368 0.360949 0.072678
v -0.006791 0.374061 -0.031415
v 0.045881 0.313784 0.139311
v 0.079131 0.392878 0.06565
vn -0.3629375 -0.9316806 0.01573609
vn 0.3180394 -0.8535514 0.4126754
vn 0.7591581 -0.5917923 -0.2710364
vn -0.6665037 -0.5109082 0.5429047
vn -0.9834984 0 0.1809169
vn 0.943156 0 0.3323502
vn 0.7591586 0.5917923 -0.2710352
vn -0.6665036 0.5109085 0.5429047
vn -0.3629392 0.9316798 0.01573558
vn 0 0 1
vn 0.3180405 0.8535501 0.4126771
vn 0.9091038 0.3952686 -0.1315036
vn 0.4171088 0.777342 0.4709135
vn -0.1436077 0.9808581 -0.131507
vn 0.8855502 -0.1420128 0.4423044
vn 0.6983147 -0.7026853 -0.1363449
vn -0.6110795 0.614108 0.4994529
vn -0.981515 0.1873851 -0.03892529
vn 0.16667 -0.9055598 0.3901058
vn -0.4988359 -0.8488345 -0.1750506
vn -0.0003003339 -0.01925243 0.9998147
vn -0.8068157 -0.3791785 0.4530694
vn -0.9981931 -0.0579913 0.01573619
vn -0.6435908 -0.6445857 0.4126742
vn -0.2219208 -0.936637 -0.2710395
vn -0.7420475 0.3932173 0.5429049
vn -0.4095464 0.8941706 0.1809162
vn 0.3927452 -0.8574935 0.3323494
vn 0.8541679 -0.4437742 -0.2710383
vn 0.1869608 0.8187184 0.542905
vn 0.6959265 0.7179405 0.01573558
vn 0 0 1
vn 0.9084637 0.06627947 0.4126753
vn -0.3897519 -0.8958775 0.2133003
vn 0.2932039 -0.7535315 0.5884063
vn 0.7417128 -0.6574347 -0.1328219
vn -0.6810081 -0.3632148 0.6358483
vn -0.9830863 0.06668538 0.1705706
vn 0.9427608 0.04478294 0.330449
vn 0.7759677 0.4979974 -0.387134
vn -0.6514379 0.6342938 0.4162933
vn -0.3358209 0.9231612 -0.1870768
vn 0 0.214958 0.9766233
vn 0.3426088 0.9129677 0.2216059
g RooPoo_0
f 3/3/3 2/2/2 1/1/1
f 2/2/2 4/4/4 1/1/1
f 1/1/1 4/4/4 5/5/5
f 6/6/6 2/2/2 3/3/3
f 7/7/7 6/6/6 3/3/3
f 4/4/4 8/8/8 5/5/5
f 5/5/5 8/8/8 9/9/9
f 2/2/2 10/10/10 4/4/4
f 6/6/6 10/10/10 2/2/2
f 4/4/4 10/10/10 8/8/8
f 9/9/9 11/11/11 7/7/7
f 11/11/11 6/6/6 7/7/7
f 8/8/8 11/11/11 9/9/9
f 8/8/8 10/10/10 11/11/11
f 11/11/11 10/10/10 6/6/6
f 14/14/14 13/13/13 12/12/12
f 13/13/13 15/15/15 12/12/12
f 12/12/12 15/15/15 16/16/16
f 17/17/17 13/13/13 14/14/14
f 18/18/18 17/17/17 14/14/14
f 15/15/15 19/19/19 16/16/16
f 16/16/16 19/19/19 20/20/20
f 13/13/13 21/21/21 15/15/15
f 17/17/17 21/21/21 13/13/13
f 15/15/15 21/21/21 19/19/19
f 20/20/20 22/22/22 18/18/18
f 22/22/22 17/17/17 18/18/18
f 19/19/19 22/22/22 20/20/20
f 19/19/19 21/21/21 22/22/22
f 22/22/22 21/21/21 17/17/17
f 25/25/25 24/24/24 23/23/23
f 24/24/24 26/26/26 23/23/23
f 23/23/23 26/26/26 27/27/27
f 28/28/28 24/24/24 25/25/25
f 29/29/29 28/28/28 25/25/25
f 26/26/26 30/30/30 27/27/27
f 27/27/27 30/30/30 31/31/31
f 24/24/24 32/32/32 26/26/26
f 28/28/28 32/32/32 24/24/24
f 26/26/26 32/32/32 30/30/30
f 31/31/31 33/33/33 29/29/29
f 33/33/33 28/28/28 29/29/29
f 30/30/30 33/33/33 31/31/31
f 30/30/30 32/32/32 33/33/33
f 33/33/33 32/32/32 28/28/28
f 36/36/36 35/35/35 34/34/34
f 35/35/35 37/37/37 34/34/34
f 34/34/34 37/37/37 38/38/38
f 39/39/39 35/35/35 36/36/36
f 40/40/40 39/39/39 36/36/36
f 37/37/37 41/41/41 38/38/38
f 38/38/38 41/41/41 42/42/42
f 35/35/35 43/43/43 37/37/37
f 39/39/39 43/43/43 35/35/35
f 37/37/37 43/43/43 41/41/41
f 42/42/42 44/44/44 40/40/40
f 44/44/44 39/39/39 40/40/40
f 41/41/41 44/44/44 42/42/42
f 41/41/41 43/43/43 44/44/44
f 44/44/44 43/43/43 39/39/39
