g RoundTableLegs
v 0.045881 0.02718 0.011741
v 0.0586 0.013116 0.175143
v 0.045214 0.023062 0.178915
v 0.059498 0.010993 0.015213
v 0.435533 -0.368386 0.113316
v 0.475514 -0.421576 0.224338
v 0.529311 -0.476409 0.159694
v 0.522288 -0.476887 0.22494
v 0.601838 -0.554368 -0.460957
v 0.539645 -0.48966 -0.47769
v 0.026932 -0.04627 0.011741
v 0.012984 -0.05901 0.175133
v 0.022923 -0.045569 0.178939
v 0.010692 -0.059954 0.015188
v -0.370411 -0.437387 0.123568
v -0.420312 -0.474603 0.224161
v -0.476514 -0.529708 0.159674
v -0.477 -0.522692 0.22493
v -0.554209 -0.602043 -0.459149
v -0.488061 -0.538398 -0.476122
v -0.046468 -0.027614 0.01177
v -0.059192 -0.013388 0.175094
v -0.045691 -0.023317 0.178945
v -0.059964 -0.011333 0.015198
v -0.444055 0.378723 0.108371
v -0.475302 0.420385 0.224138
v -0.529846 0.475998 0.159569
v -0.522866 0.476521 0.224878
v -0.602525 0.554111 -0.462267
v -0.539275 0.488535 -0.478932
v -0.027242 0.045982 0.011735
v -0.013506 0.058693 0.175177
v -0.023446 0.045251 0.178969
v -0.011354 0.059667 0.015225
v 0.382116 0.450807 0.12074
v 0.421746 0.476071 0.224479
v 0.476144 0.529439 0.159799
v 0.476583 0.522381 0.224994
v 0.554462 0.602361 -0.463894
v 0.489865 0.540305 -0.480386
v 0.476144 0.529439 0.159799
v 0.525814 0.472054 0.224684
v 0.476583 0.522381 0.224994
v 0.532639 0.471231 0.159291
v 0.603786 0.551706 -0.464171
v 0.554462 0.602361 -0.463894
v 0.477344 0.419323 0.223837
v 0.476583 0.522381 0.224994
v 0.525814 0.472054 0.224684
v 0.421746 0.476071 0.224479
v 0.045214 0.023062 0.178915
v -0.013506 0.058693 0.175177
v 0.022923 -0.045569 0.178939
v 0.0586 0.013116 0.175143
v 0.475514 -0.421576 0.224338
v 0.418914 -0.477327 0.223884
v 0.522288 -0.476887 0.22494
v 0.472018 -0.526172 0.22474
v 0.012984 -0.05901 0.175133
v -0.045691 -0.023317 0.178945
v -0.420312 -0.474603 0.224161
v -0.023446 0.045251 0.178969
v -0.476118 -0.418066 0.223748
v -0.477 -0.522692 0.22493
v -0.526299 -0.472436 0.22475
v -0.059192 -0.013388 0.175094
v -0.475302 0.420385 0.224138
v -0.418882 0.476328 0.223905
v -0.522866 0.476521 0.224878
v -0.47265 0.525867 0.2248
v 0.532639 0.471231 0.159291
v 0.603786 0.551706 -0.464171
v 0.540269 0.490722 -0.480497
v 0.446664 0.384558 0.120781
v 0.525814 0.472054 0.224684
v 0.477344 0.419323 0.223837
v 0.045881 0.02718 0.011741
v 0.045214 0.023062 0.178915
v 0.529311 -0.476409 0.159694
v 0.472018 -0.526172 0.22474
v 0.522288 -0.476887 0.22494
v 0.471233 -0.533036 0.159405
v 0.551314 -0.603826 -0.461109
v 0.601838 -0.554368 -0.460957
v 0.369658 -0.432826 0.113617
v 0.490121 -0.540321 -0.477862
v 0.539645 -0.48966 -0.47769
v 0.435533 -0.368386 0.113316
v -0.476514 -0.529708 0.159674
v -0.526299 -0.472436 0.22475
v -0.477 -0.522692 0.22493
v -0.533171 -0.471658 0.159426
v -0.603698 -0.551547 -0.459277
v -0.554209 -0.602043 -0.459149
v -0.43504 -0.371371 0.123927
v -0.538766 -0.488987 -0.476317
v -0.488061 -0.538398 -0.476122
v -0.370411 -0.437387 0.123568
v -0.529846 0.475998 0.159569
v -0.47265 0.525867 0.2248
v -0.522866 0.476521 0.224878
v -0.471909 0.532773 0.159531
v -0.55215 0.603726 -0.462279
v -0.602525 0.554111 -0.462267
v 0.010692 -0.059954 0.015188
v -0.43504 -0.371371 0.123927
v -0.370411 -0.437387 0.123568
v -0.046468 -0.027614 0.01177
v -0.011354 0.059667 0.015225
v 0.026932 -0.04627 0.011741
v -0.027242 0.045982 0.011735
v -0.059964 -0.011333 0.015198
v -0.378283 0.443365 0.109032
v -0.444055 0.378723 0.108371
v 0.045881 0.02718 0.011741
v 0.446664 0.384558 0.120781
v 0.382116 0.450807 0.12074
v 0.059498 0.010993 0.015213
v 0.369658 -0.432826 0.113617
v 0.435533 -0.368386 0.113316
v -0.046468 -0.027614 0.01177
v -0.045691 -0.023317 0.178945
v -0.476118 -0.418066 0.223748
v -0.43504 -0.371371 0.123927
v -0.526299 -0.472436 0.22475
v -0.533171 -0.471658 0.159426
v -0.538766 -0.488987 -0.476317
v -0.603698 -0.551547 -0.459277
v -0.488061 -0.538398 -0.476122
v -0.538766 -0.488987 -0.476317
v -0.603698 -0.551547 -0.459277
v -0.554209 -0.602043 -0.459149
v 0.026932 -0.04627 0.011741
v 0.022923 -0.045569 0.178939
v 0.418914 -0.477327 0.223884
v 0.369658 -0.432826 0.113617
v 0.472018 -0.526172 0.22474
v 0.471233 -0.533036 0.159405
v 0.490121 -0.540321 -0.477862
v 0.551314 -0.603826 -0.461109
v 0.539645 -0.48966 -0.47769
v 0.490121 -0.540321 -0.477862
v 0.551314 -0.603826 -0.461109
v 0.601838 -0.554368 -0.460957
v 0.489865 0.540305 -0.480386
v 0.540269 0.490722 -0.480497
v 0.603786 0.551706 -0.464171
v 0.554462 0.602361 -0.463894
v 0.446664 0.384558 0.120781
v 0.540269 0.490722 -0.480497
v 0.489865 0.540305 -0.480386
v 0.382116 0.450807 0.12074
v -0.027242 0.045982 0.011735
v -0.023446 0.045251 0.178969
v -0.418882 0.476328 0.223905
v -0.378283 0.443365 0.109032
v -0.47265 0.525867 0.2248
v -0.471909 0.532773 0.159531
v -0.490018 0.539344 -0.479199
v -0.55215 0.603726 -0.462279
v -0.539275 0.488535 -0.478932
v -0.490018 0.539344 -0.479199
v -0.55215 0.603726 -0.462279
v -0.602525 0.554111 -0.462267
v -0.378283 0.443365 0.109032
v -0.490018 0.539344 -0.479199
v -0.539275 0.488535 -0.478932
v -0.444055 0.378723 0.108371
vt 0.742947 0.349788
vt 0.778279 0.364976
vt 0.779074 0.353269
vt 0.742152 0.361494
vt 0.756171 0.586482
vt 0.779013 0.61305
vt 0.763497 0.632488
vt 0.779074 0.633989
vt 0.558736 0.656365
vt 0.557075 0.635272
vt 0.74238 0.656365
vt 0.777701 0.671565
vt 0.778506 0.659849
vt 0.741575 0.668081
vt 0.758932 0.894281
vt 0.778441 0.918851
vt 0.762929 0.939058
vt 0.778506 0.94056
vt 0.558798 0.962841
vt 0.557075 0.940973
vt 0.186325 0.404253
vt 0.221652 0.419441
vt 0.222451 0.407735
vt 0.185525 0.415959
vt 0.197519 0.646265
vt 0.222388 0.667084
vt 0.206874 0.686953
vt 0.222451 0.688455
vt 0.001696 0.710876
vt 0 0.689347
vt 0.520948 0.349788
vt 0.556276 0.364988
vt 0.557075 0.353271
vt 0.520149 0.361504
vt 0.535936 0.595036
vt 0.557014 0.613291
vt 0.541498 0.632479
vt 0.557075 0.633981
vt 0.335723 0.656459
vt 0.334081 0.635617
vt 0.232735 0.650289
vt 0.222616 0.669332
vt 0.2329 0.669196
vt 0.222451 0.650424
vt 0.222616 0.404388
vt 0.2329 0.404253
vt 0.018835 0.389588
vt 0 0.395442
vt 0.007281 0.404253
vt 0.011813 0.380569
vt 0.157494 0.213597
vt 0.153587 0.202069
vt 0.17652 0.213678
vt 0.166993 0.218406
vt 0.314361 0.389787
vt 0.321817 0.381295
vt 0.3268 0.404253
vt 0.334081 0.395442
vt 0.180494 0.202184
vt 0.176587 0.190656
vt 0.321686 0.024416
vt 0.157561 0.190574
vt 0.314677 0.015386
vt 0.334081 0.00881
vt 0.3268 0
vt 0.167088 0.185847
vt 0.019977 0.014764
vt 0.012517 0.02325
vt 0.007281 0
vt 0 0.00881
vt 0.541504 0.6793
vt 0.335601 0.656459
vt 0.334021 0.676946
vt 0.536061 0.716409
vt 0.557075 0.677713
vt 0.557075 0.698038
vt 0.520962 0.945643
vt 0.557075 0.941961
vt 0.253638 0.648952
vt 0.243527 0.668002
vt 0.25381 0.667859
vt 0.243356 0.649095
vt 0.243527 0.404396
vt 0.25381 0.404253
vt 0.294877 0.641285
vt 0.294877 0.40441
vt 0.284673 0.404253
vt 0.284673 0.641128
vt 0.264094 0.648275
vt 0.253977 0.66732
vt 0.264261 0.667182
vt 0.25381 0.648413
vt 0.253977 0.404391
vt 0.264261 0.404253
vt 0.284673 0.644706
vt 0.284673 0.404405
vt 0.274469 0.404253
vt 0.274469 0.644554
vt 0.243183 0.64953
vt 0.233073 0.66858
vt 0.243356 0.668437
vt 0.2329 0.649673
vt 0.233073 0.404396
vt 0.243356 0.404253
vt 0.462097 0.172701
vt 0.342071 0.00095
vt 0.334985 0.009891
vt 0.466104 0.161223
vt 0.489004 0.172926
vt 0.465972 0.184245
vt 0.48513 0.161382
vt 0.475644 0.156534
vt 0.620557 0.00858
vt 0.613171 0
vt 0.484998 0.184404
vt 0.613458 0.349788
vt 0.620557 0.340858
vt 0.475457 0.189093
vt 0.334081 0.333753
vt 0.341463 0.342339
vt 0.963887 0.945356
vt 1 0.941672
vt 1 0.698749
vt 0.980589 0.723427
vt 1 0.677424
vt 0.984429 0.679012
vt 0.778506 0.67786
vt 0.780164 0.656365
vt 0.334081 0.404253
vt 0.323857 0.404883
vt 0.323786 0.426144
vt 0.334081 0.425901
vt 0.806498 0.289084
vt 0.842611 0.285399
vt 0.842611 0.041702
vt 0.819875 0.068398
vt 0.842611 0.021133
vt 0.82704 0.022721
vt 0.620557 0.020732
vt 0.622156 0
vt 0.315375 0.425798
vt 0.305148 0.42642
vt 0.30508 0.446929
vt 0.315375 0.44668
vt 0.334081 0.426144
vt 0.323854 0.426764
vt 0.323786 0.447021
vt 0.334081 0.44677
vt 0.264261 0.404253
vt 0.264261 0.645045
vt 0.274469 0.645159
vt 0.274469 0.404367
vt 0.186396 1
vt 0.222509 0.996314
vt 0.222509 0.753041
vt 0.197729 0.773998
vt 0.222509 0.732047
vt 0.206938 0.733636
vt 0 0.732036
vt 0.001632 0.710876
vt 0.315375 0.404253
vt 0.30515 0.404878
vt 0.30508 0.425798
vt 0.315375 0.425553
vt 0.30508 0.639921
vt 0.30508 0.404431
vt 0.294877 0.404253
vt 0.294877 0.639742
vn 0.1332588 0.1913439 -0.9724348
vn 0.6228446 0.654593 0.4284536
vn -0.02774057 -0.008508702 0.9995789
vn 0.7044871 0.5749578 -0.4160788
vn 0.7262225 0.687245 0.01718382
vn 0.5091271 0.5521222 0.6602656
vn 0.9828336 0.1595279 0.0926763
vn 0.8299748 0.1856317 0.5260064
vn 0.9791796 0.1830498 0.08774999
vn 0.7425382 0.6698011 -0.001886044
vn 0.7194756 -0.6944797 0.007268254
vn 0.6478179 -0.6129042 0.4524163
vn 0.7194756 -0.6944797 0.007268254
vn 0.7011872 -0.7124447 0.02755255
vn 0.6877158 -0.7257792 0.01707182
vn 0.5415388 -0.4965852 0.6783353
vn 0.1712731 -0.9810353 0.09074825
vn 0.1670985 -0.8202223 0.5470954
vn 0.1825833 -0.9792549 0.08788133
vn 0.6708488 -0.7415913 -0.00204761
vn -0.1395927 -0.196074 -0.9706023
vn -0.6308683 -0.658077 0.411023
vn 0.03044443 0.008883876 0.9994969
vn -0.7016047 -0.5789343 -0.4154344
vn -0.546302 -0.7968463 -0.2580507
vn -0.5362749 -0.5752712 0.6176345
vn -0.9870611 -0.1273979 0.09736581
vn -0.8260313 -0.1813778 0.5336425
vn -0.9820709 -0.1651171 0.09095606
vn -0.7381778 -0.6746021 -0.002344863
vn -0.7241753 0.6895781 0.007232194
vn -0.6496525 0.614501 0.4475935
vn -0.7241753 0.6895781 0.007232194
vn -0.7023104 0.7111164 0.03276477
vn -0.6852087 0.7280514 0.02073923
vn -0.5640503 0.5220633 0.6397633
vn -0.1113728 0.9888271 0.0990808
vn -0.1337901 0.8199025 0.5566508
vn -0.1345379 0.9864483 0.09391034
vn -0.6632441 0.7484016 -0.00151239
vn -0.1113728 0.9888271 0.0990808
vn 0.8192705 -0.1757341 0.5458143
vn -0.1337901 0.8199025 0.5566508
vn 0.9831839 -0.1586939 0.09036364
vn 0.707333 0.6863349 0.1691877
vn -0.1345379 0.9864483 0.09391034
vn 0.4944287 -0.6023415 0.6266777
vn -0.1337901 0.8199025 0.5566508
vn 0.8192705 -0.1757341 0.5458143
vn -0.5640503 0.5220633 0.6397633
vn -0.02774057 -0.008508702 0.9995789
vn -0.6496525 0.614501 0.4475935
vn -0.04991835 0.06200701 0.9968266
vn 0.6228446 0.654593 0.4284536
vn 0.5091271 0.5521222 0.6602656
vn -0.5863934 -0.4786963 0.6534469
vn 0.8299748 0.1856317 0.5260064
vn -0.2215434 -0.8253363 0.5193635
vn 0.6478179 -0.6129042 0.4524163
vn 0.03044443 0.008883876 0.9994969
vn 0.5415388 -0.4965852 0.6783353
vn 0.04762956 -0.06779695 0.9965616
vn -0.4660868 0.5743926 0.6729313
vn 0.1670985 -0.8202223 0.5470954
vn -0.8161489 0.2002602 0.5420303
vn -0.6308683 -0.658077 0.411023
vn -0.5362749 -0.5752712 0.6176345
vn 0.608459 0.5007744 0.6156318
vn -0.8260313 -0.1813778 0.5336425
vn 0.2069028 0.8197417 0.5340551
vn 0.9831839 -0.1586939 0.09036364
vn 0.7051105 -0.7089747 -0.01318974
vn 0.7051105 -0.7089747 -0.01318974
vn 0.6851438 -0.7284064 0.001530284
vn 0.8192705 -0.1757341 0.5458143
vn 0.4944287 -0.6023415 0.6266777
vn 0.6699106 -0.7423773 0.009790294
vn 0.6699106 -0.7423773 0.009790294
vn 0.9828336 0.1595279 0.0926763
vn -0.2215434 -0.8253363 0.5193635
vn 0.8299748 0.1856317 0.5260064
vn -0.1997981 -0.9761716 0.08467472
vn 0.6883451 -0.7053803 0.169173
vn 0.9791796 0.1830498 0.08774999
vn -0.4112643 0.446781 -0.7945114
vn -0.6524823 0.6543447 -0.3822301
vn -0.6540435 0.6558889 -0.3768776
vn -0.4050861 0.4410633 -0.8008548
vn 0.1712731 -0.9810353 0.09074825
vn -0.8161489 0.2002602 0.5420303
vn 0.1670985 -0.8202223 0.5470954
vn -0.9742872 0.2095227 0.08285312
vn -0.704956 -0.688783 0.1691595
vn 0.1825833 -0.9792549 0.08788133
vn 0.4479977 0.4119865 -0.7934514
vn 0.6562918 0.655643 -0.3733809
vn 0.6578569 0.6572292 -0.3677962
vn 0.4421385 0.4056339 -0.7999842
vn -0.9870611 -0.1273979 0.09736581
vn 0.2069028 0.8197417 0.5340551
vn -0.8260313 -0.1813778 0.5336425
vn 0.1562207 0.9834948 0.09128484
vn 0.1908002 0.9780399 0.08386471
vn -0.9820709 -0.1651171 0.09095606
vn -0.1096331 -0.1634645 -0.9804387
vn 0.4479977 0.4119865 -0.7934514
vn 0.4421385 0.4056339 -0.7999842
vn -0.1395927 -0.196074 -0.9706023
vn 0.1017231 0.1567769 -0.9823815
vn 0.1487278 -0.100951 -0.9837118
vn -0.1437945 0.095815 -0.9849582
vn -0.7016047 -0.5789343 -0.4154344
vn 0.4149548 -0.4446492 -0.7937881
vn -0.546302 -0.7968463 -0.2580507
vn 0.1332588 0.1913439 -0.9724348
vn -0.4512303 -0.4095592 -0.7928761
vn -0.4456361 -0.4035308 -0.7991066
vn 0.7044871 0.5749578 -0.4160788
vn -0.4112643 0.446781 -0.7945114
vn -0.4050861 0.4410633 -0.8008548
vn -0.667728 0.7442021 0.01738815
vn -0.6677281 0.7442021 0.01738815
vn -0.4660868 0.5743926 0.6729313
vn -0.6854962 0.7280512 0.006025868
vn -0.8161489 0.2002602 0.5420303
vn -0.9742872 0.2095227 0.08285312
vn -0.7086709 0.7054196 -0.01299141
vn -0.7086709 0.7054196 -0.01299141
vn 0.6578569 0.6572292 -0.3677962
vn 0.6562918 0.655643 -0.3733809
vn -0.128207 -0.1317532 -0.9829568
vn -0.128207 -0.1317532 -0.9829568
vn -0.7435967 -0.6684431 0.01574145
vn -0.7435966 -0.6684431 0.01574145
vn -0.5863934 -0.4786963 0.6534469
vn -0.7281212 -0.6854312 0.004866376
vn -0.2215434 -0.8253363 0.5193635
vn -0.1997981 -0.9761716 0.08467472
vn -0.7066363 -0.7074602 -0.01285663
vn -0.7066363 -0.7074602 -0.01285663
vn -0.6540435 0.6558889 -0.3768776
vn -0.6524823 0.6543447 -0.3822301
vn 0.1324631 -0.1291889 -0.9827328
vn 0.1324631 -0.1291889 -0.9827328
vn -0.6669422 -0.6612402 -0.3434378
vn -0.6656484 -0.6599346 -0.3484227
vn 0.1269436 0.130104 -0.9833403
vn 0.1269437 0.130104 -0.9833403
vn -0.4512303 -0.4095592 -0.7928761
vn -0.6656484 -0.6599346 -0.3484227
vn -0.6669422 -0.6612402 -0.3434378
vn -0.4456361 -0.4035308 -0.7991066
vn 0.7445281 0.6672642 0.02089153
vn 0.7445281 0.6672642 0.02089153
vn 0.608459 0.5007744 0.6156318
vn 0.7256674 0.6879984 0.008065532
vn 0.2069028 0.8197417 0.5340551
vn 0.1562207 0.9834948 0.09128484
vn 0.6997991 0.7142305 -0.01249271
vn 0.1908002 0.9780399 0.08386471
vn 0.6610581 -0.6582426 -0.3601651
vn 0.6594473 -0.6566588 -0.3659627
vn -0.1312276 0.1274614 -0.983124
vn -0.1312276 0.1274614 -0.983124
vn 0.4149548 -0.4446492 -0.7937881
vn 0.6594473 -0.6566588 -0.3659627
vn 0.6610581 -0.6582426 -0.3601651
vn -0.546302 -0.7968463 -0.2580507
g RoundTableLegs_0
f 3/3/3 2/2/2 1/1/1
f 2/2/2 4/4/4 1/1/1
f 5/5/5 4/4/4 2/2/2
f 6/6/6 5/5/5 2/2/2
f 7/7/7 5/5/5 6/6/6
f 8/8/8 7/7/7 6/6/6
f 7/7/7 9/9/9 5/5/5
f 9/9/9 10/10/10 5/5/5
f 13/13/13 12/12/12 11/11/11
f 12/12/12 14/14/14 11/11/11
f 15/15/15 14/14/14 12/12/12
f 16/16/16 15/15/15 12/12/12
f 17/17/17 15/15/15 16/16/16
f 18/18/18 17/17/17 16/16/16
f 17/17/17 19/19/19 15/15/15
f 19/19/19 20/20/20 15/15/15
f 23/23/23 22/22/22 21/21/21
f 22/22/22 24/24/24 21/21/21
f 25/25/25 24/24/24 22/22/22
f 26/26/26 25/25/25 22/22/22
f 27/27/27 25/25/25 26/26/26
f 28/28/28 27/27/27 26/26/26
f 27/27/27 29/29/29 25/25/25
f 29/29/29 30/30/30 25/25/25
f 33/33/33 32/32/32 31/31/31
f 32/32/32 34/34/34 31/31/31
f 35/35/35 34/34/34 32/32/32
f 36/36/36 35/35/35 32/32/32
f 37/37/37 35/35/35 36/36/36
f 38/38/38 37/37/37 36/36/36
f 37/37/37 39/39/39 35/35/35
f 39/39/39 40/40/40 35/35/35
f 43/43/43 42/42/42 41/41/41
f 42/42/42 44/44/44 41/41/41
f 44/44/44 45/45/45 41/41/41
f 45/45/45 46/46/46 41/41/41
f 49/49/49 48/48/48 47/47/47
f 48/48/48 50/50/50 47/47/47
f 47/47/47 50/50/50 51/51/51
f 50/50/50 52/52/52 51/51/51
f 51/51/51 52/52/52 53/53/53
f 53/53/53 54/54/54 51/51/51
f 55/55/55 54/54/54 53/53/53
f 56/56/56 55/55/55 53/53/53
f 57/57/57 55/55/55 56/56/56
f 58/58/58 57/57/57 56/56/56
f 52/52/52 59/59/59 53/53/53
f 52/52/52 60/60/60 59/59/59
f 61/61/61 59/59/59 60/60/60
f 52/52/52 62/62/62 60/60/60
f 63/63/63 61/61/61 60/60/60
f 64/64/64 61/61/61 63/63/63
f 65/65/65 64/64/64 63/63/63
f 62/62/62 66/66/66 60/60/60
f 67/67/67 66/66/66 62/62/62
f 68/68/68 67/67/67 62/62/62
f 69/69/69 67/67/67 68/68/68
f 70/70/70 69/69/69 68/68/68
f 73/73/73 72/72/72 71/71/71
f 74/74/74 73/73/73 71/71/71
f 71/71/71 75/75/75 74/74/74
f 75/75/75 76/76/76 74/74/74
f 74/74/74 76/76/76 77/77/77
f 76/76/76 78/78/78 77/77/77
f 81/81/81 80/80/80 79/79/79
f 80/80/80 82/82/82 79/79/79
f 82/82/82 83/83/83 79/79/79
f 83/83/83 84/84/84 79/79/79
f 87/87/87 86/86/86 85/85/85
f 88/88/88 87/87/87 85/85/85
f 91/91/91 90/90/90 89/89/89
f 90/90/90 92/92/92 89/89/89
f 92/92/92 93/93/93 89/89/89
f 93/93/93 94/94/94 89/89/89
f 97/97/97 96/96/96 95/95/95
f 98/98/98 97/97/97 95/95/95
f 101/101/101 100/100/100 99/99/99
f 100/100/100 102/102/102 99/99/99
f 102/102/102 103/103/103 99/99/99
f 103/103/103 104/104/104 99/99/99
f 107/107/107 106/106/106 105/105/105
f 106/106/106 108/108/108 105/105/105
f 105/105/105 108/108/108 109/109/109
f 110/110/110 105/105/105 109/109/109
f 108/108/108 111/111/111 109/109/109
f 108/108/108 112/112/112 111/111/111
f 113/113/113 111/111/111 112/112/112
f 114/114/114 113/113/113 112/112/112
f 110/110/110 109/109/109 115/115/115
f 116/116/116 115/115/115 109/109/109
f 117/117/117 116/116/116 109/109/109
f 115/115/115 118/118/118 110/110/110
f 119/119/119 110/110/110 118/118/118
f 120/120/120 119/119/119 118/118/118
f 123/123/123 122/122/122 121/121/121
f 124/124/124 123/123/123 121/121/121
f 125/125/125 123/123/123 124/124/124
f 126/126/126 125/125/125 124/124/124
f 124/124/124 127/127/127 126/126/126
f 127/127/127 128/128/128 126/126/126
f 131/131/131 130/130/130 129/129/129
f 132/132/132 131/131/131 129/129/129
f 135/135/135 134/134/134 133/133/133
f 136/136/136 135/135/135 133/133/133
f 137/137/137 135/135/135 136/136/136
f 138/138/138 137/137/137 136/136/136
f 136/136/136 139/139/139 138/138/138
f 139/139/139 140/140/140 138/138/138
f 143/143/143 142/142/142 141/141/141
f 144/144/144 143/143/143 141/141/141
f 147/147/147 146/146/146 145/145/145
f 148/148/148 147/147/147 145/145/145
f 151/151/151 150/150/150 149/149/149
f 152/152/152 151/151/151 149/149/149
f 155/155/155 154/154/154 153/153/153
f 156/156/156 155/155/155 153/153/153
f 157/157/157 155/155/155 156/156/156
f 158/158/158 157/157/157 156/156/156
f 156/156/156 159/159/159 158/158/158
f 159/159/159 160/160/160 158/158/158
f 163/163/163 162/162/162 161/161/161
f 164/164/164 163/163/163 161/161/161
f 167/167/167 166/166/166 165/165/165
f 168/168/168 167/167/167 165/165/165
