g SailBoatMast
v 0 0.161336 0.487786
v 0 0.161336 10.16233
v -0.068148 0.161336 10.16233
v -0.068148 0.161336 0.487786
v -0.17413 0.062402 0.487786
v -0.17413 0.062402 10.16233
v -0.17413 -0.062402 10.16233
v -0.17413 -0.062402 0.487786
v -0.068148 -0.161336 0.487786
v 0 -0.161336 10.16233
v 0 -0.161336 0.487786
v -0.068148 -0.161336 10.16233
v -0.17413 -0.062402 10.16233
v -0.17413 -0.062402 0.487786
v -0.068148 -0.161336 0.487786
v 0 -0.161336 0.487786
v 0 0.161336 0.487786
v -0.068148 0.161336 0.487786
v -0.17413 -0.062402 0.487786
v -0.17413 0.062402 0.487786
v -0.068148 0.161336 10.16233
v 0 0.161336 10.16233
v 0 -0.161336 10.16233
v -0.068148 -0.161336 10.16233
v -0.17413 0.062402 10.16233
v -0.17413 -0.062402 10.16233
v 0 0.040319 4.727405
v -4.136425 0.040319 4.727405
v -4.136425 -0.040319 4.727405
v 0 -0.040319 4.727405
v 4.136425 -0.040319 4.727405
v 4.136425 0.040319 4.727405
v 0 -0.130694 4.81778
v -4.136425 -0.130694 4.81778
v 4.136425 0.130694 4.81778
v 0 0.130694 4.81778
v -4.136425 -0.130694 4.923324
v 0 -0.130694 4.923324
v 0 -0.040319 5.013699
v -4.136425 -0.040319 5.013699
v 0 0.130694 4.923324
v 4.136425 0.130694 4.923324
v 4.136425 0.040319 5.013699
v 0 0.040319 5.013699
v 0 -0.040319 5.013699
v 4.136425 -0.040319 5.013699
v 0 0.040319 5.013699
v 4.136425 -0.130694 4.923324
v 0 -0.130694 4.923324
v 0 -0.130694 4.81778
v 4.136425 -0.130694 4.81778
v 4.136425 -0.040319 4.727405
v 0 -0.040319 4.727405
v -4.136425 0.040319 5.013699
v -4.136425 -0.040319 5.013699
v 0 0.130694 4.923324
v -4.136425 0.130694 4.923324
v -4.136425 0.130694 4.81778
v 0 0.130694 4.81778
v 0 0.040319 4.727405
v -4.136425 0.040319 4.727405
v -4.136425 -0.040319 5.013699
v -4.136425 -0.130694 4.923324
v -4.136425 -0.130694 4.81778
v -4.136425 -0.040319 4.727405
v -4.136425 0.040319 5.013699
v -4.136425 0.040319 4.727405
v -4.136425 0.130694 4.923324
v -4.136425 0.130694 4.81778
v -4.136425 -0.040319 9.75918
v -4.136425 -0.130694 9.668806
v -4.136425 -0.130694 9.563261
v -4.136425 -0.040319 9.472887
v -4.136425 0.040319 9.75918
v -4.136425 0.040319 9.472887
v -4.136425 0.130694 9.668806
v -4.136425 0.130694 9.563261
v 0 -0.040319 9.75918
v -4.136425 -0.040319 9.75918
v -4.136425 0.040319 9.75918
v 0 0.040319 9.75918
v 0 0.130694 9.668806
v -4.136425 0.130694 9.668806
v -4.136425 0.130694 9.563261
v 0 0.130694 9.563261
v 0 0.040319 9.472887
v -4.136425 0.040319 9.472887
v 4.136425 0.040319 9.75918
v 4.136425 -0.040319 9.75918
v 4.136425 -0.130694 9.668806
v 0 -0.130694 9.668806
v 0 -0.130694 9.563261
v 4.136425 -0.130694 9.563261
v 4.136425 -0.040319 9.472887
v 0 -0.040319 9.472887
v 0 0.130694 9.668806
v 0 0.040319 9.75918
v 4.136425 0.130694 9.668806
v 4.136425 0.130694 9.563261
v 0 0.130694 9.563261
v 0 0.040319 9.472887
v 4.136425 0.040319 9.472887
v 4.136425 -0.040319 9.472887
v 0 -0.040319 9.472887
v -4.136425 -0.040319 9.472887
v -4.136425 0.040319 9.472887
v 0 -0.130694 9.563261
v -4.136425 -0.130694 9.563261
v -4.136425 -0.130694 9.668806
v 0 -0.130694 9.668806
v 0 -0.040319 9.75918
v -4.136425 -0.040319 9.75918
v 0 0.161336 0.487786
v 0.068148 0.161336 10.16233
v 0 0.161336 10.16233
v 0.068148 0.161336 0.487786
v 0.17413 0.062402 0.487786
v 0.17413 0.062402 10.16233
v 0.17413 -0.062402 10.16233
v 0.17413 -0.062402 0.487786
v 0.068148 -0.161336 0.487786
v 0 -0.161336 0.487786
v 0 -0.161336 10.16233
v 0.068148 -0.161336 10.16233
v 0.17413 -0.062402 10.16233
v 0.17413 -0.062402 0.487786
v 0.068148 -0.161336 0.487786
v 0.17413 -0.062402 0.487786
v 0.17413 0.062402 0.487786
v 0.068148 0.161336 0.487786
v 0 -0.161336 0.487786
v 0 0.161336 0.487786
v 0.068148 0.161336 10.16233
v 0.17413 0.062402 10.16233
v 0.17413 -0.062402 10.16233
v 0.068148 -0.161336 10.16233
v 0 0.161336 10.16233
v 0 -0.161336 10.16233
v 4.136425 -0.040319 4.727405
v 4.136425 -0.130694 4.81778
v 4.136425 -0.130694 4.923324
v 4.136425 -0.040319 5.013699
v 4.136425 0.040319 4.727405
v 4.136425 0.040319 5.013699
v 4.136425 0.130694 4.81778
v 4.136425 0.130694 4.923324
v 0 -0.040319 5.013699
v 0 -0.130694 4.923324
v 0 -0.130694 4.81778
v 0 -0.040319 4.727405
v 0 0.040319 5.013699
v 0 0.040319 4.727405
v 0 0.130694 4.923324
v 0 0.130694 4.81778
v 4.136425 -0.040319 9.472887
v 4.136425 -0.130694 9.563261
v 4.136425 -0.130694 9.668806
v 4.136425 -0.040319 9.75918
v 4.136425 0.040319 9.472887
v 4.136425 0.040319 9.75918
v 4.136425 0.130694 9.563261
v 4.136425 0.130694 9.668806
vt 0.095251 0.722908
vt 0.911889 0.722908
vt 0.911889 0.746285
vt 0.095251 0.746285
vt 0.095251 0.78264
vt 0.911889 0.78264
vt 0.911889 0.78264
vt 0.095251 0.78264
vt 0.095251 0.746285
vt 0.911889 0.722908
vt 0.095251 0.722908
vt 0.911889 0.746285
vt 0.911889 0.78264
vt 0.095251 0.78264
vt 0.448957 0.957015
vt 0.715869 0.957015
vt 0.715869 0.923153
vt 0.448957 0.923153
vt 0.128183 0.946633
vt 0.128183 0.933536
vt 0.448957 0.923153
vt 0.715869 0.923153
vt 0.715869 0.957015
vt 0.448957 0.957015
vt 0.128183 0.933536
vt 0.128183 0.946633
vt 0.869328 0.72158
vt 0.032949 0.72158
vt 0.032949 0.72158
vt 0.869328 0.72158
vt 0.032949 0.72158
vt 0.032949 0.72158
vt 0.869328 0.745254
vt 0.032949 0.745254
vt 0.032949 0.745254
vt 0.869328 0.745254
vt 0.032949 0.7729
vt 0.869328 0.7729
vt 0.869328 0.796574
vt 0.032949 0.796574
vt 0.869328 0.7729
vt 0.032949 0.7729
vt 0.032949 0.796574
vt 0.869328 0.796574
vt 0.869328 0.796574
vt 0.032949 0.796574
vt 0.869328 0.796574
vt 0.032949 0.7729
vt 0.869328 0.7729
vt 0.869328 0.745254
vt 0.032949 0.745254
vt 0.032949 0.72158
vt 0.869328 0.72158
vt 0.032949 0.796574
vt 0.032949 0.796574
vt 0.869328 0.7729
vt 0.032949 0.7729
vt 0.032949 0.745254
vt 0.869328 0.745254
vt 0.869328 0.72158
vt 0.032949 0.72158
vt 0.128183 0.942105
vt 0.128183 0.946633
vt 0.128183 0.946633
vt 0.128183 0.942105
vt 0.128183 0.938064
vt 0.128183 0.938064
vt 0.128183 0.933536
vt 0.128183 0.933536
vt 0.128183 0.942105
vt 0.128183 0.946633
vt 0.128183 0.946633
vt 0.128183 0.942105
vt 0.128183 0.938064
vt 0.128183 0.938064
vt 0.128183 0.933536
vt 0.128183 0.933536
vt 0.869328 0.807812
vt 0.032949 0.807812
vt 0.032949 0.807812
vt 0.869328 0.807812
vt 0.869328 0.784139
vt 0.032949 0.784139
vt 0.032949 0.756492
vt 0.869328 0.756492
vt 0.869328 0.732819
vt 0.032949 0.732819
vt 0.032949 0.807812
vt 0.032949 0.807812
vt 0.032949 0.784139
vt 0.869328 0.784139
vt 0.869328 0.756492
vt 0.032949 0.756492
vt 0.032949 0.732819
vt 0.869328 0.732819
vt 0.869328 0.784139
vt 0.869328 0.807812
vt 0.032949 0.784139
vt 0.032949 0.756492
vt 0.869328 0.756492
vt 0.869328 0.732819
vt 0.032949 0.732819
vt 0.032949 0.732819
vt 0.869328 0.732819
vt 0.032949 0.732819
vt 0.032949 0.732819
vt 0.869328 0.756492
vt 0.032949 0.756492
vt 0.032949 0.784139
vt 0.869328 0.784139
vt 0.869328 0.807812
vt 0.032949 0.807812
vt 0.095251 0.722908
vt 0.911889 0.746285
vt 0.911889 0.722908
vt 0.095251 0.746285
vt 0.095251 0.78264
vt 0.911889 0.78264
vt 0.911889 0.78264
vt 0.095251 0.78264
vt 0.095251 0.746285
vt 0.095251 0.722908
vt 0.911889 0.722908
vt 0.911889 0.746285
vt 0.911889 0.78264
vt 0.095251 0.78264
vt 0.448957 0.957015
vt 0.128183 0.946633
vt 0.128183 0.933536
vt 0.448957 0.923153
vt 0.715869 0.957015
vt 0.715869 0.923153
vt 0.448957 0.923153
vt 0.128183 0.933536
vt 0.128183 0.946633
vt 0.448957 0.957015
vt 0.715869 0.923153
vt 0.715869 0.957015
vt 0.128183 0.942105
vt 0.128183 0.946633
vt 0.128183 0.946633
vt 0.128183 0.942105
vt 0.128183 0.938064
vt 0.128183 0.938064
vt 0.128183 0.933536
vt 0.128183 0.933536
vt 0.128183 0.942105
vt 0.128183 0.946633
vt 0.128183 0.946633
vt 0.128183 0.942105
vt 0.128183 0.938064
vt 0.128183 0.938064
vt 0.128183 0.933536
vt 0.128183 0.933536
vt 0.128183 0.942105
vt 0.128183 0.946633
vt 0.128183 0.946633
vt 0.128183 0.942105
vt 0.128183 0.938064
vt 0.128183 0.938064
vt 0.128183 0.933536
vt 0.128183 0.933536
vn 0 1 0
vn 0 1 0
vn -0.4939962 0.869464 0
vn -0.4939962 0.869464 0
vn -0.9037365 0.4280891 0
vn -0.9037365 0.4280891 0
vn -0.9037365 -0.4280891 0
vn -0.9037365 -0.4280891 0
vn -0.4939962 -0.869464 0
vn 0 -1 0
vn 0 -1 0
vn -0.4939962 -0.869464 0
vn -0.9037365 -0.4280891 0
vn -0.9037365 -0.4280891 0
vn 0 0 -1
vn 0 0 -1
vn 0 0 -1
vn 0 0 -1
vn 0 0 -1
vn 0 0 -1
vn 0 0 1
vn 0 0 1
vn 0 0 1
vn 0 0 1
vn 0 0 1
vn 0 0 1
vn 0 0.467236 -0.8841326
vn 0 0.467236 -0.8841326
vn 0 -0.467236 -0.8841326
vn 0 -0.467236 -0.8841326
vn 0 -0.467236 -0.8841326
vn 0 0.467236 -0.8841326
vn 0 -0.9080461 -0.4188704
vn 0 -0.9080461 -0.4188704
vn 0 0.9080461 -0.4188704
vn 0 0.9080461 -0.4188704
vn 0 -0.9080461 0.4188704
vn 0 -0.9080461 0.4188704
vn 0 -0.467236 0.8841326
vn 0 -0.467236 0.8841326
vn 0 0.9080461 0.4188704
vn 0 0.9080461 0.4188704
vn 0 0.467236 0.8841326
vn 0 0.467236 0.8841326
vn 0 -0.467236 0.8841326
vn 0 -0.467236 0.8841326
vn 0 0.467236 0.8841326
vn 0 -0.9080461 0.4188704
vn 0 -0.9080461 0.4188704
vn 0 -0.9080461 -0.4188704
vn 0 -0.9080461 -0.4188704
vn 0 -0.467236 -0.8841326
vn 0 -0.467236 -0.8841326
vn 0 0.467236 0.8841326
vn 0 -0.467236 0.8841326
vn 0 0.9080461 0.4188704
vn 0 0.9080461 0.4188704
vn 0 0.9080461 -0.4188704
vn 0 0.9080461 -0.4188704
vn 0 0.467236 -0.8841326
vn 0 0.467236 -0.8841326
vn -1 0 0
vn -1 0 0
vn -1 0 0
vn -1 0 0
vn -1 0 0
vn -1 0 0
vn -1 0 0
vn -1 0 0
vn -1 0 0
vn -1 0 0
vn -1 0 0
vn -1 0 0
vn -1 0 0
vn -1 0 0
vn -1 0 0
vn -1 0 0
vn 0 -0.4672322 0.8841347
vn 0 -0.4672322 0.8841347
vn 0 0.4672322 0.8841347
vn 0 0.4672322 0.8841347
vn 0 0.9080461 0.4188703
vn 0 0.9080461 0.4188703
vn 0 0.9080461 -0.4188703
vn 0 0.9080461 -0.4188703
vn 0 0.4672322 -0.8841347
vn 0 0.4672322 -0.8841347
vn 0 0.4672322 0.8841347
vn 0 -0.4672322 0.8841347
vn 0 -0.9080461 0.4188703
vn 0 -0.9080461 0.4188703
vn 0 -0.9080461 -0.4188703
vn 0 -0.9080461 -0.4188703
vn 0 -0.4672322 -0.8841347
vn 0 -0.4672322 -0.8841347
vn 0 0.9080461 0.4188703
vn 0 0.4672322 0.8841347
vn 0 0.9080461 0.4188703
vn 0 0.9080461 -0.4188703
vn 0 0.9080461 -0.4188703
vn 0 0.4672322 -0.8841347
vn 0 0.4672322 -0.8841347
vn 0 -0.4672322 -0.8841347
vn 0 -0.4672322 -0.8841347
vn 0 -0.4672322 -0.8841347
vn 0 0.4672322 -0.8841347
vn 0 -0.9080461 -0.4188703
vn 0 -0.9080461 -0.4188703
vn 0 -0.9080461 0.4188703
vn 0 -0.9080461 0.4188703
vn 0 -0.4672322 0.8841347
vn 0 -0.4672322 0.8841347
vn 0 1 0
vn 0.4939962 0.869464 0
vn 0 1 0
vn 0.4939962 0.869464 0
vn 0.9037365 0.4280891 0
vn 0.9037365 0.4280891 0
vn 0.9037365 -0.4280891 0
vn 0.9037365 -0.4280891 0
vn 0.4939962 -0.869464 0
vn 0 -1 0
vn 0 -1 0
vn 0.4939962 -0.869464 0
vn 0.9037365 -0.4280891 0
vn 0.9037365 -0.4280891 0
vn 0 0 -1
vn 0 0 -1
vn 0 0 -1
vn 0 0 -1
vn 0 0 -1
vn 0 0 -1
vn 0 0 1
vn 0 0 1
vn 0 0 1
vn 0 0 1
vn 0 0 1
vn 0 0 1
vn 1 0 0
vn 1 0 0
vn 1 0 0
vn 1 0 0
vn 1 0 0
vn 1 0 0
vn 1 0 0
vn 1 0 0
vn -1 0 0
vn -1 0 0
vn -1 0 0
vn -1 0 0
vn -1 0 0
vn -1 0 0
vn -1 0 0
vn -1 0 0
vn 1 0 0
vn 1 0 0
vn 1 0 0
vn 1 0 0
vn 1 0 0
vn 1 0 0
vn 1 0 0
vn 1 0 0
g SailBoatMast_0
f 3/3/3 2/2/2 1/1/1
f 4/4/4 3/3/3 1/1/1
f 3/3/3 4/4/4 5/5/5
f 6/6/6 3/3/3 5/5/5
f 7/7/7 6/6/6 5/5/5
f 8/8/8 7/7/7 5/5/5
f 11/11/11 10/10/10 9/9/9
f 10/10/10 12/12/12 9/9/9
f 12/12/12 13/13/13 9/9/9
f 13/13/13 14/14/14 9/9/9
f 17/17/17 16/16/16 15/15/15
f 15/15/15 18/18/18 17/17/17
f 15/15/15 19/19/19 18/18/18
f 19/19/19 20/20/20 18/18/18
f 23/23/23 22/22/22 21/21/21
f 21/21/21 24/24/24 23/23/23
f 21/21/21 25/25/25 24/24/24
f 25/25/25 26/26/26 24/24/24
f 29/29/29 28/28/28 27/27/27
f 30/30/30 29/29/29 27/27/27
f 31/31/31 30/30/30 27/27/27
f 32/32/32 31/31/31 27/27/27
f 30/30/30 33/33/33 29/29/29
f 33/33/33 34/34/34 29/29/29
f 32/32/32 27/27/27 35/35/35
f 27/27/27 36/36/36 35/35/35
f 37/37/37 34/34/34 33/33/33
f 38/38/38 37/37/37 33/33/33
f 38/38/38 39/39/39 37/37/37
f 39/39/39 40/40/40 37/37/37
f 35/35/35 36/36/36 41/41/41
f 42/42/42 35/35/35 41/41/41
f 43/43/43 42/42/42 41/41/41
f 44/44/44 43/43/43 41/41/41
f 46/46/46 43/43/43 45/45/45
f 43/43/43 47/47/47 45/45/45
f 46/46/46 45/45/45 48/48/48
f 45/45/45 49/49/49 48/48/48
f 48/48/48 49/49/49 50/50/50
f 51/51/51 48/48/48 50/50/50
f 51/51/51 50/50/50 52/52/52
f 50/50/50 53/53/53 52/52/52
f 47/47/47 54/54/54 45/45/45
f 54/54/54 55/55/55 45/45/45
f 54/54/54 47/47/47 56/56/56
f 57/57/57 54/54/54 56/56/56
f 58/58/58 57/57/57 56/56/56
f 59/59/59 58/58/58 56/56/56
f 59/59/59 60/60/60 58/58/58
f 60/60/60 61/61/61 58/58/58
f 64/64/64 63/63/63 62/62/62
f 62/62/62 65/65/65 64/64/64
f 62/62/62 66/66/66 65/65/65
f 66/66/66 67/67/67 65/65/65
f 66/66/66 68/68/68 67/67/67
f 68/68/68 69/69/69 67/67/67
f 72/72/72 71/71/71 70/70/70
f 70/70/70 73/73/73 72/72/72
f 70/70/70 74/74/74 73/73/73
f 74/74/74 75/75/75 73/73/73
f 74/74/74 76/76/76 75/75/75
f 76/76/76 77/77/77 75/75/75
f 80/80/80 79/79/79 78/78/78
f 81/81/81 80/80/80 78/78/78
f 80/80/80 81/81/81 82/82/82
f 83/83/83 80/80/80 82/82/82
f 84/84/84 83/83/83 82/82/82
f 85/85/85 84/84/84 82/82/82
f 85/85/85 86/86/86 84/84/84
f 86/86/86 87/87/87 84/84/84
f 88/88/88 81/81/81 78/78/78
f 89/89/89 88/88/88 78/78/78
f 89/89/89 78/78/78 90/90/90
f 78/78/78 91/91/91 90/90/90
f 90/90/90 91/91/91 92/92/92
f 93/93/93 90/90/90 92/92/92
f 93/93/93 92/92/92 94/94/94
f 92/92/92 95/95/95 94/94/94
f 97/97/97 88/88/88 96/96/96
f 88/88/88 98/98/98 96/96/96
f 98/98/98 99/99/99 96/96/96
f 99/99/99 100/100/100 96/96/96
f 101/101/101 100/100/100 99/99/99
f 102/102/102 101/101/101 99/99/99
f 102/102/102 103/103/103 101/101/101
f 103/103/103 104/104/104 101/101/101
f 104/104/104 105/105/105 101/101/101
f 105/105/105 106/106/106 101/101/101
f 104/104/104 107/107/107 105/105/105
f 107/107/107 108/108/108 105/105/105
f 109/109/109 108/108/108 107/107/107
f 110/110/110 109/109/109 107/107/107
f 110/110/110 111/111/111 109/109/109
f 111/111/111 112/112/112 109/109/109
f 115/115/115 114/114/114 113/113/113
f 114/114/114 116/116/116 113/113/113
f 116/116/116 114/114/114 117/117/117
f 114/114/114 118/118/118 117/117/117
f 118/118/118 119/119/119 117/117/117
f 119/119/119 120/120/120 117/117/117
f 123/123/123 122/122/122 121/121/121
f 124/124/124 123/123/123 121/121/121
f 125/125/125 124/124/124 121/121/121
f 126/126/126 125/125/125 121/121/121
f 129/129/129 128/128/128 127/127/127
f 127/127/127 130/130/130 129/129/129
f 127/127/127 131/131/131 130/130/130
f 131/131/131 132/132/132 130/130/130
f 135/135/135 134/134/134 133/133/133
f 133/133/133 136/136/136 135/135/135
f 133/133/133 137/137/137 136/136/136
f 137/137/137 138/138/138 136/136/136
f 141/141/141 140/140/140 139/139/139
f 139/139/139 142/142/142 141/141/141
f 139/139/139 143/143/143 142/142/142
f 143/143/143 144/144/144 142/142/142
f 143/143/143 145/145/145 144/144/144
f 145/145/145 146/146/146 144/144/144
f 149/149/149 148/148/148 147/147/147
f 147/147/147 150/150/150 149/149/149
f 147/147/147 151/151/151 150/150/150
f 151/151/151 152/152/152 150/150/150
f 151/151/151 153/153/153 152/152/152
f 153/153/153 154/154/154 152/152/152
f 157/157/157 156/156/156 155/155/155
f 155/155/155 158/158/158 157/157/157
f 155/155/155 159/159/159 158/158/158
f 159/159/159 160/160/160 158/158/158
f 159/159/159 161/161/161 160/160/160
f 161/161/161 162/162/162 160/160/160
