g SausageRoll
v -0.131417 -0.440821 0
v -0.08156 -0.460573 -0.068221
v -0.10446 -0.456179 -0.087163
v -0.102988 -0.447995 0
v -0.072922 -0.435418 0.068221
v -0.092665 -0.425463 0.087163
v 0 -0.420344 0.116217
v -0.110022 -0.313572 0.103801
v 0 -0.431226 0.090961
v -0.131417 -0.440821 0
v 0.072922 -0.435418 0.068221
v -0.156339 -0.326708 0
v -0.164646 0 0
v -0.124487 -0.339843 -0.103801
v -0.124487 -0.339843 -0.103801
v -0.10446 -0.456179 -0.087163
v -0.131163 0 -0.109348
v -0.124487 0.339843 -0.103801
v 0 -0.461298 -0.116217
v -0.156339 0.326707 0
v -0.110022 0.313572 0.103801
v -0.115807 0 0.109348
v 0 0 0.145797
v -0.131417 0.440821 0
v -0.124487 0.339843 -0.103801
v -0.10446 0.456178 -0.087163
v -0.092665 0.425463 0.087163
v 0 0.420344 0.116217
v 0 0.461298 -0.116217
v 0 -0.309193 0.138402
v 0.110022 -0.313572 0.103801
v -0.072922 0.435418 0.068221
v -0.131417 0.440821 0
v -0.102988 0.447995 0
v -0.08156 0.460573 -0.068221
v -0.10446 0.456178 -0.087163
v 0 0.431226 0.090961
v 0.072922 0.435418 0.068221
v 0.092665 -0.425463 0.087163
v 0.131417 -0.440821 0
v 0.102988 -0.447995 0
v 0.08156 -0.460573 -0.068221
v 0.10446 -0.456179 -0.087163
v 0.131417 -0.440821 0
v 0.092665 0.425463 0.087163
v 0.110022 0.313572 0.103801
v 0.131417 0.440821 0
v 0.102988 0.447995 0
v 0.131417 0.440821 0
v 0 0.309193 0.138402
v 0.115807 0 0.109348
v 0.164646 0 0
v 0.156339 -0.326708 0
v 0.124487 -0.339843 -0.103801
v 0.124487 -0.339843 -0.103801
v 0.10446 -0.456179 -0.087163
v 0.131163 0 -0.109348
v 0.124487 0.339843 -0.103801
v 0.156339 0.326707 0
v 0.124487 0.339843 -0.103801
v 0.10446 0.456178 -0.087163
v 0 -0.344222 -0.138402
v 0 0 -0.145797
v 0.131163 0 -0.109348
v -0.131163 0 -0.109348
v 0 0.344221 -0.138402
v 0 0.461298 -0.116217
v -0.08156 0.460573 -0.068221
v -0.10446 0.456178 -0.087163
v 0 0.464765 -0.090961
v 0.08156 0.460573 -0.068221
v 0.10446 0.456178 -0.087163
v 0.131417 0.440821 0
v 0.102988 0.447995 0
v 0 -0.461298 -0.116217
v 0.08156 -0.460573 -0.068221
v 0.10446 -0.456179 -0.087163
v 0 -0.464765 -0.090961
v -0.08156 -0.460573 -0.068221
v -0.10446 -0.456179 -0.087163
v 0.08416 0.453886 0
v 0.102988 0.447995 0
v 0.072922 0.435418 0.068221
v 0.08156 0.460573 -0.068221
v 0.059977 0.44318 0.055766
v 0 0.439612 0.074355
v 0 0.431226 0.090961
v -0.072922 0.435418 0.068221
v 0.042242 0.449291 0.038579
v 0.066263 0.464591 -0.055766
v 0 0.46816 -0.074355
v 0 0.464765 -0.090961
v -0.08156 0.460573 -0.068221
v 0.045035 0.464311 -0.038579
v 0.056106 0.457822 0
v 0 0.459134 0
v 0 0.448061 0.049625
v -0.042242 0.449291 0.038579
v -0.059977 0.44318 0.055766
v -0.08416 0.453886 0
v -0.102988 0.447995 0
v 0 0.467582 -0.049625
v -0.056106 0.457822 0
v -0.045035 0.464311 -0.038579
v -0.066263 0.464591 -0.055766
v 0 -0.439612 0.074355
v 0 -0.431226 0.090961
v 0.072922 -0.435418 0.068221
v -0.072922 -0.435418 0.068221
v 0.059977 -0.44318 0.055766
v 0.08416 -0.453886 0
v 0.102988 -0.447995 0
v 0.08156 -0.460573 -0.068221
v 0.042242 -0.449291 0.038579
v -0.059977 -0.44318 0.055766
v -0.08416 -0.453886 0
v -0.102988 -0.447995 0
v -0.08156 -0.460573 -0.068221
v -0.042242 -0.449291 0.038579
v 0 -0.448061 0.049625
v 0 -0.459134 0
v 0.056106 -0.457822 0
v 0.045035 -0.464311 -0.038579
v 0.066263 -0.464591 -0.055766
v 0 -0.46816 -0.074355
v 0 -0.464765 -0.090961
v -0.056106 -0.457822 0
v 0 -0.467582 -0.049625
v -0.045035 -0.464311 -0.038579
v -0.066263 -0.464591 -0.055766
vt 0.750437 0.736984
vt 0.752923 0.73632
vt 0.750437 0.736984
vt 0.752923 0.73632
vt 0.759665 0.73632
vt 0.757801 0.736984
vt 0.779893 0.736984
vt 0.756402 0.749603
vt 0.779893 0.73632
vt 0.750437 0.736984
vt 0.80012 0.73632
vt 0.748572 0.749603
vt 0.74795 0.786133
vt 0.748572 0.749603
vt 0.748572 0.749603
vt 0.750437 0.736984
vt 0.74795 0.786133
vt 0.748572 0.822663
vt 0.779893 0.736984
vt 0.748572 0.822663
vt 0.756402 0.822663
vt 0.755936 0.786133
vt 0.779893 0.786133
vt 0.750437 0.835282
vt 0.748572 0.822663
vt 0.750437 0.835282
vt 0.757801 0.835282
vt 0.779893 0.835282
vt 0.779893 0.835282
vt 0.779893 0.749603
vt 0.803383 0.749603
vt 0.759665 0.835945
vt 0.750437 0.835282
vt 0.752923 0.835945
vt 0.752923 0.835945
vt 0.750437 0.835282
vt 0.779893 0.835945
vt 0.80012 0.835945
vt 0.801985 0.736984
vt 0.809349 0.736984
vt 0.806862 0.73632
vt 0.806862 0.73632
vt 0.809349 0.736984
vt 0.809349 0.736984
vt 0.801985 0.835282
vt 0.803383 0.822663
vt 0.809349 0.835282
vt 0.806862 0.835945
vt 0.809349 0.835282
vt 0.779893 0.822663
vt 0.803849 0.786133
vt 0.811835 0.786133
vt 0.811213 0.749603
vt 0.811213 0.749603
vt 0.811213 0.749603
vt 0.809349 0.736984
vt 0.811835 0.786133
vt 0.811213 0.822663
vt 0.811213 0.822663
vt 0.811213 0.822663
vt 0.809349 0.835282
vt 0.779893 0.749603
vt 0.779893 0.786133
vt 0.811835 0.786133
vt 0.74795 0.786133
vt 0.779893 0.822663
vt 0.779893 0.835282
vt 0.752923 0.835945
vt 0.750437 0.835282
vt 0.779893 0.835945
vt 0.806862 0.835945
vt 0.809349 0.835282
vt 0.809349 0.835282
vt 0.806862 0.835945
vt 0.779893 0.736984
vt 0.806862 0.73632
vt 0.809349 0.736984
vt 0.779893 0.73632
vt 0.752923 0.73632
vt 0.750437 0.736984
vt 0.651241 0.693848
vt 0.652815 0.693848
vt 0.648547 0.706652
vt 0.648547 0.681043
vt 0.647366 0.705472
vt 0.635742 0.709346
vt 0.635742 0.71092
vt 0.622938 0.706652
vt 0.644003 0.702108
vt 0.647366 0.682223
vt 0.635742 0.678349
vt 0.635742 0.676775
vt 0.622938 0.681043
vt 0.644003 0.685587
vt 0.646579 0.693848
vt 0.635742 0.693848
vt 0.635742 0.704685
vt 0.627481 0.702108
vt 0.624118 0.705472
vt 0.620243 0.693848
vt 0.61867 0.693848
vt 0.635742 0.68301
vt 0.624905 0.693848
vt 0.627481 0.685587
vt 0.624118 0.682224
vt 0.635742 0.709346
vt 0.635742 0.71092
vt 0.648547 0.706652
vt 0.622938 0.706652
vt 0.647366 0.705472
vt 0.651241 0.693848
vt 0.652815 0.693848
vt 0.648547 0.681043
vt 0.644003 0.702108
vt 0.624118 0.705472
vt 0.620243 0.693848
vt 0.61867 0.693848
vt 0.622938 0.681043
vt 0.627481 0.702108
vt 0.635742 0.704685
vt 0.635742 0.693848
vt 0.646579 0.693848
vt 0.644003 0.685587
vt 0.647366 0.682224
vt 0.635742 0.678349
vt 0.635742 0.676775
vt 0.624905 0.693848
vt 0.635742 0.68301
vt 0.627481 0.685587
vt 0.624118 0.682224
vn -0.2405455 -0.9533811 0.1822147
vn -0.1766483 -0.9838117 -0.03016478
vn -0.1791165 -0.9838037 -0.006888071
vn -0.2540074 -0.9493122 0.1851664
vn -0.1596674 -0.9250071 0.3447728
vn -0.624541 -0.3135732 0.7152765
vn 0 -0.3026578 0.9530993
vn -0.6709839 -0.06687531 0.73845
vn 0 -0.9100072 0.4145922
vn -0.9753411 -0.2128526 0.05833987
vn 0.1596674 -0.9250071 0.3447728
vn -0.9960932 -0.06913865 0.05493796
vn -0.997996 0 0.06327694
vn -0.6501199 -0.0703144 -0.7565713
vn -0.6501199 -0.0703144 -0.7565713
vn -0.626359 -0.2156059 -0.7491252
vn -0.6588812 0 -0.752247
vn -0.6501198 0.07031482 -0.7565712
vn 0 -0.1874789 -0.9822686
vn -0.9960932 0.0691383 0.05493805
vn -0.6709834 0.0668755 0.7384503
vn -0.6673046 0 0.744785
vn 0 0 1
vn -0.9753411 0.2128521 0.05834117
vn -0.6501198 0.07031482 -0.7565712
vn -0.6263592 0.2156059 -0.7491251
vn -0.6245422 0.3135726 0.7152756
vn 0 0.3026578 0.9530993
vn 0 0.1874789 -0.9822686
vn 0 -0.0631649 0.9980031
vn 0.6709839 -0.06687532 0.73845
vn -0.1596674 0.9250071 0.3447728
vn -0.2405526 0.9533805 0.1822091
vn -0.2540126 0.9493116 0.1851624
vn -0.1766574 0.9838097 -0.03017586
vn -0.1791289 0.9838014 -0.006901381
vn 0 0.9100072 0.4145922
vn 0.1596674 0.9250071 0.3447728
vn 0.624541 -0.3135732 0.7152765
vn 0.2405455 -0.9533811 0.1822147
vn 0.2540074 -0.9493122 0.1851664
vn 0.1766483 -0.9838117 -0.03016475
vn 0.1791165 -0.9838037 -0.006888064
vn 0.9753411 -0.2128526 0.05833987
vn 0.6245422 0.3135726 0.7152756
vn 0.6709834 0.0668755 0.7384503
vn 0.2405526 0.9533805 0.1822091
vn 0.2540125 0.9493116 0.1851624
vn 0.9753411 0.2128521 0.05834117
vn 0 0.06316489 0.9980031
vn 0.6673046 0 0.744785
vn 0.997996 0 0.06327694
vn 0.9960932 -0.06913865 0.05493795
vn 0.6501199 -0.0703144 -0.7565713
vn 0.6501199 -0.0703144 -0.7565713
vn 0.626359 -0.2156059 -0.7491252
vn 0.6588812 0 -0.752247
vn 0.6501198 0.07031482 -0.7565712
vn 0.9960932 0.06913832 0.05493807
vn 0.6501198 0.07031482 -0.7565712
vn 0.6263592 0.2156059 -0.7491251
vn 0 -0.06125192 -0.9981223
vn 0 0 -1
vn 0.6588812 0 -0.752247
vn -0.6588812 0 -0.752247
vn 0 0.06125168 -0.9981223
vn 0 0.9912985 -0.1316328
vn -0.1766574 0.9838097 -0.03017586
vn -0.1791289 0.9838014 -0.006901381
vn 0 0.988838 -0.1489951
vn 0.1766573 0.9838097 -0.03017586
vn 0.1791288 0.9838014 -0.006901392
vn 0.2405526 0.9533805 0.1822091
vn 0.2540125 0.9493116 0.1851624
vn 0 -0.9913008 -0.1316162
vn 0.1766483 -0.9838117 -0.03016475
vn 0.1791165 -0.9838037 -0.006888064
vn 0 -0.9888397 -0.1489832
vn -0.1766483 -0.9838117 -0.03016478
vn -0.1791165 -0.9838037 -0.006888071
vn 0.2252042 0.9554667 0.1906998
vn 0.2540125 0.9493116 0.1851624
vn 0.1596674 0.9250071 0.3447728
vn 0.1766573 0.9838097 -0.03017586
vn 0.1478269 0.9287435 0.3399745
vn 0 0.9178419 0.3969463
vn 0 0.9100072 0.4145922
vn -0.1596674 0.9250071 0.3447728
vn 0.05553571 0.9663669 0.251099
vn 0.1611913 0.9868928 -0.007747526
vn 0 0.9957169 -0.09245459
vn 0 0.988838 -0.1489951
vn -0.1766574 0.9838097 -0.03017586
vn 0.05753958 0.9905927 0.1241586
vn 0.07042209 0.9788004 0.1923294
vn 0 0.9814044 0.1919516
vn 0 0.9652884 0.2611863
vn -0.0555357 0.9663669 0.251099
vn -0.1478269 0.9287436 0.3399745
vn -0.2252042 0.9554667 0.1906997
vn -0.2540126 0.9493116 0.1851624
vn 0 0.9938433 0.1107949
vn -0.07042207 0.9788004 0.1923294
vn -0.05753958 0.9905927 0.1241586
vn -0.1611912 0.9868928 -0.007747532
vn 0 -0.9178419 0.3969462
vn 0 -0.9100072 0.4145922
vn 0.1596674 -0.9250071 0.3447728
vn -0.1596674 -0.9250071 0.3447728
vn 0.1478269 -0.9287435 0.3399745
vn 0.2252042 -0.9554667 0.1906998
vn 0.2540074 -0.9493122 0.1851664
vn 0.1766483 -0.9838117 -0.03016475
vn 0.05553571 -0.9663669 0.251099
vn -0.1478269 -0.9287435 0.3399745
vn -0.2252042 -0.9554667 0.1906998
vn -0.2540074 -0.9493122 0.1851664
vn -0.1766483 -0.9838117 -0.03016478
vn -0.0555357 -0.9663669 0.251099
vn 0 -0.9652884 0.2611862
vn 0 -0.9814044 0.1919516
vn 0.07042208 -0.9788004 0.1923294
vn 0.05753959 -0.9905927 0.1241586
vn 0.1611912 -0.9868928 -0.007747523
vn 0 -0.9957169 -0.09245461
vn 0 -0.9888397 -0.1489832
vn -0.07042208 -0.9788004 0.1923294
vn 0 -0.9938433 0.1107949
vn -0.05753959 -0.9905927 0.1241586
vn -0.1611913 -0.9868928 -0.007747538
g SausageRoll_0
f 3/3/3 2/2/2 1/1/1
f 2/2/2 4/4/4 1/1/1
f 4/4/4 5/5/5 1/1/1
f 5/5/5 6/6/6 1/1/1
f 6/6/6 5/5/5 7/7/7
f 8/8/8 6/6/6 7/7/7
f 5/5/5 9/9/9 7/7/7
f 6/6/6 8/8/8 10/10/10
f 9/9/9 11/11/11 7/7/7
f 8/8/8 12/12/12 10/10/10
f 12/12/12 8/8/8 13/13/13
f 12/12/12 14/14/14 10/10/10
f 15/15/15 12/12/12 13/13/13
f 14/14/14 16/16/16 10/10/10
f 17/17/17 15/15/15 13/13/13
f 18/18/18 17/17/17 13/13/13
f 16/16/16 14/14/14 19/19/19
f 20/20/20 18/18/18 13/13/13
f 21/21/21 20/20/20 13/13/13
f 8/8/8 22/22/22 13/13/13
f 22/22/22 21/21/21 13/13/13
f 22/22/22 8/8/8 23/23/23
f 21/21/21 22/22/22 23/23/23
f 20/20/20 21/21/21 24/24/24
f 25/25/25 20/20/20 24/24/24
f 26/26/26 25/25/25 24/24/24
f 21/21/21 27/27/27 24/24/24
f 27/27/27 21/21/21 28/28/28
f 25/25/25 26/26/26 29/29/29
f 8/8/8 30/30/30 23/23/23
f 30/30/30 31/31/31 23/23/23
f 30/30/30 8/8/8 7/7/7
f 31/31/31 30/30/30 7/7/7
f 32/32/32 27/27/27 28/28/28
f 27/27/27 32/32/32 33/33/33
f 32/32/32 34/34/34 33/33/33
f 34/34/34 35/35/35 33/33/33
f 35/35/35 36/36/36 33/33/33
f 37/37/37 32/32/32 28/28/28
f 38/38/38 37/37/37 28/28/28
f 39/39/39 31/31/31 7/7/7
f 11/11/11 39/39/39 7/7/7
f 39/39/39 11/11/11 40/40/40
f 11/11/11 41/41/41 40/40/40
f 41/41/41 42/42/42 40/40/40
f 42/42/42 43/43/43 40/40/40
f 31/31/31 39/39/39 44/44/44
f 45/45/45 38/38/38 28/28/28
f 46/46/46 45/45/45 28/28/28
f 38/38/38 45/45/45 47/47/47
f 48/48/48 38/38/38 47/47/47
f 45/45/45 46/46/46 49/49/49
f 50/50/50 46/46/46 28/28/28
f 21/21/21 50/50/50 28/28/28
f 50/50/50 21/21/21 23/23/23
f 46/46/46 50/50/50 23/23/23
f 31/31/31 51/51/51 23/23/23
f 51/51/51 46/46/46 23/23/23
f 51/51/51 31/31/31 52/52/52
f 46/46/46 51/51/51 52/52/52
f 53/53/53 31/31/31 44/44/44
f 31/31/31 53/53/53 52/52/52
f 54/54/54 53/53/53 44/44/44
f 53/53/53 55/55/55 52/52/52
f 56/56/56 54/54/54 44/44/44
f 55/55/55 57/57/57 52/52/52
f 57/57/57 58/58/58 52/52/52
f 58/58/58 59/59/59 52/52/52
f 59/59/59 46/46/46 52/52/52
f 46/46/46 59/59/59 49/49/49
f 59/59/59 60/60/60 49/49/49
f 60/60/60 61/61/61 49/49/49
f 54/54/54 56/56/56 19/19/19
f 61/61/61 60/60/60 29/29/29
f 62/62/62 54/54/54 19/19/19
f 54/54/54 62/62/62 63/63/63
f 14/14/14 62/62/62 19/19/19
f 62/62/62 14/14/14 63/63/63
f 64/64/64 54/54/54 63/63/63
f 60/60/60 64/64/64 63/63/63
f 14/14/14 65/65/65 63/63/63
f 65/65/65 25/25/25 63/63/63
f 60/60/60 66/66/66 29/29/29
f 66/66/66 60/60/60 63/63/63
f 25/25/25 66/66/66 63/63/63
f 66/66/66 25/25/25 29/29/29
f 69/69/69 68/68/68 67/67/67
f 68/68/68 70/70/70 67/67/67
f 70/70/70 71/71/71 67/67/67
f 71/71/71 72/72/72 67/67/67
f 72/72/72 71/71/71 73/73/73
f 71/71/71 74/74/74 73/73/73
f 77/77/77 76/76/76 75/75/75
f 76/76/76 78/78/78 75/75/75
f 78/78/78 79/79/79 75/75/75
f 79/79/79 80/80/80 75/75/75
f 83/83/83 82/82/82 81/81/81
f 82/82/82 84/84/84 81/81/81
f 85/85/85 83/83/83 81/81/81
f 83/83/83 85/85/85 86/86/86
f 87/87/87 83/83/83 86/86/86
f 88/88/88 87/87/87 86/86/86
f 89/89/89 85/85/85 81/81/81
f 85/85/85 89/89/89 86/86/86
f 84/84/84 90/90/90 81/81/81
f 90/90/90 84/84/84 91/91/91
f 84/84/84 92/92/92 91/91/91
f 92/92/92 93/93/93 91/91/91
f 90/90/90 94/94/94 81/81/81
f 94/94/94 90/90/90 91/91/91
f 95/95/95 89/89/89 81/81/81
f 94/94/94 95/95/95 81/81/81
f 89/89/89 95/95/95 96/96/96
f 95/95/95 94/94/94 96/96/96
f 89/89/89 97/97/97 86/86/86
f 97/97/97 89/89/89 96/96/96
f 97/97/97 98/98/98 86/86/86
f 98/98/98 97/97/97 96/96/96
f 99/99/99 88/88/88 86/86/86
f 98/98/98 99/99/99 86/86/86
f 88/88/88 99/99/99 100/100/100
f 99/99/99 98/98/98 100/100/100
f 101/101/101 88/88/88 100/100/100
f 93/93/93 101/101/101 100/100/100
f 102/102/102 94/94/94 91/91/91
f 94/94/94 102/102/102 96/96/96
f 103/103/103 98/98/98 96/96/96
f 98/98/98 103/103/103 100/100/100
f 102/102/102 104/104/104 96/96/96
f 104/104/104 103/103/103 96/96/96
f 104/104/104 102/102/102 91/91/91
f 103/103/103 104/104/104 100/100/100
f 93/93/93 105/105/105 91/91/91
f 105/105/105 93/93/93 100/100/100
f 105/105/105 104/104/104 91/91/91
f 104/104/104 105/105/105 100/100/100
f 108/108/108 107/107/107 106/106/106
f 107/107/107 109/109/109 106/106/106
f 110/110/110 108/108/108 106/106/106
f 108/108/108 110/110/110 111/111/111
f 112/112/112 108/108/108 111/111/111
f 113/113/113 112/112/112 111/111/111
f 114/114/114 110/110/110 106/106/106
f 110/110/110 114/114/114 111/111/111
f 109/109/109 115/115/115 106/106/106
f 115/115/115 109/109/109 116/116/116
f 109/109/109 117/117/117 116/116/116
f 117/117/117 118/118/118 116/116/116
f 115/115/115 119/119/119 106/106/106
f 119/119/119 115/115/115 116/116/116
f 120/120/120 114/114/114 106/106/106
f 119/119/119 120/120/120 106/106/106
f 114/114/114 120/120/120 121/121/121
f 120/120/120 119/119/119 121/121/121
f 114/114/114 122/122/122 111/111/111
f 122/122/122 114/114/114 121/121/121
f 122/122/122 123/123/123 111/111/111
f 123/123/123 122/122/122 121/121/121
f 124/124/124 113/113/113 111/111/111
f 123/123/123 124/124/124 111/111/111
f 113/113/113 124/124/124 125/125/125
f 124/124/124 123/123/123 125/125/125
f 126/126/126 113/113/113 125/125/125
f 118/118/118 126/126/126 125/125/125
f 127/127/127 119/119/119 116/116/116
f 119/119/119 127/127/127 121/121/121
f 128/128/128 123/123/123 121/121/121
f 123/123/123 128/128/128 125/125/125
f 127/127/127 129/129/129 121/121/121
f 129/129/129 128/128/128 121/121/121
f 129/129/129 127/127/127 116/116/116
f 128/128/128 129/129/129 125/125/125
f 130/130/130 118/118/118 125/125/125
f 118/118/118 130/130/130 116/116/116
f 129/129/129 130/130/130 125/125/125
f 130/130/130 129/129/129 116/116/116
