g SeaWeed_Impostor
v 1.70827 -1.528872 0
v 1.369166 -3.611048 0
v -1.381757 -3.611048 0
v -1.748097 -1.426791 0
v -1.641451 3.281972 0
v -0.9163876 3.611048 0
v 0.9096987 3.611048 0
v 1.698185 3.251366 0
vt 0.2634661 0.2883064
vt 0.3104198 0
vt 0.6913236 0
vt 0.7420485 0.3024408
vt 0.7272819 0.9544348
vt 0.6268867 1
vt 0.3740395 1
vt 0.2648626 0.950197
vn 0 0 -0.9999999
vn 0 0 -0.9999999
vn 0 0 -1
vn 0 0 -1
vn 0 0 -0.9999999
vn 0 0 -1
vn 0 0 -1
vn 0 0 -1
g SeaWeed_Impostor_0
f 4/4/4 6/6/6 8/8/8
f 8/8/8 2/2/2 4/4/4
f 6/6/6 7/7/7 8/8/8
f 4/4/4 5/5/5 6/6/6
f 2/2/2 3/3/3 4/4/4
f 8/8/8 1/1/1 2/2/2
