g SharkFlakeRaw_001
v -0.514214 -0.237177 0.033769
v -0.514214 0.237177 0.142458
v -0.514214 -0.237177 0.142458
v -0.514214 0.237177 0.033769
v -0.45495 0.280557 0.033769
v -0.45495 0.280557 0.174835
v -0.252865 0.280557 0.216417
v -0.252865 0.280557 0.033769
v 0.252865 0.280557 0.216417
v 0.252865 0.280557 0.033769
v 0.45495 0.280557 0.174835
v 0.45495 0.280557 0.033769
v 0.514214 0.237177 0.033769
v 0.514214 0.237177 0.142458
v 0.514214 -0.237177 0.142458
v 0.514214 -0.237177 0.033769
v 0.45495 -0.280557 0.033769
v 0.514214 -0.237177 0.142458
v 0.514214 -0.237177 0.033769
v 0.45495 -0.280557 0.174835
v 0.514214 0.237177 0.142458
v 0.45495 0.280557 0.174835
v 0.252865 -0.280557 0.216417
v 0.252865 -0.280557 0.033769
v -0.252865 -0.280557 0.216417
v -0.252865 -0.280557 0.033769
v 0.252865 -0.280557 0.216417
v 0.252865 0.280557 0.216417
v -0.252865 0.280557 0.216417
v -0.252865 -0.280557 0.216417
v -0.45495 0.280557 0.174835
v -0.45495 -0.280557 0.174835
v -0.45495 -0.280557 0.033769
v -0.514214 0.237177 0.142458
v -0.514214 -0.237177 0.033769
v -0.514214 -0.237177 0.142458
v -0.45495 -0.280557 0.033769
v -0.514214 0.237177 0.033769
v -0.514214 -0.237177 0.033769
v -0.45495 0.280557 0.033769
v -0.252865 -0.280557 0.033769
v -0.252865 0.280557 0.033769
v 0.252865 0.280557 0.033769
v 0.252865 -0.280557 0.033769
v 0.45495 0.280557 0.033769
v 0.45495 -0.280557 0.033769
v 0.514214 0.237177 0.033769
v 0.514214 -0.237177 0.033769
vt 0.057542 0.121442
vt 0.013169 0.147487
vt 0.054307 0.121121
vt 0.01797 0.146805
vt 0.017519 0.154068
vt 0.011191 0.155342
vt 0.020741 0.173753
vt 0.028325 0.170927
vt 0.049629 0.218826
vt 0.055365 0.213116
vt 0.062369 0.235193
vt 0.06617 0.229975
vt 0.072958 0.2326
vt 0.070332 0.236677
vt 0.111471 0.21031
vt 0.11253 0.207237
vt 0.11298 0.199973
vt 0.111471 0.21031
vt 0.11253 0.207237
vt 0.111612 0.203633
vt 0.070332 0.236677
vt 0.062369 0.235193
vt 0.099638 0.186774
vt 0.102175 0.183115
vt 0.07075 0.141702
vt 0.075135 0.140925
vt 0.099638 0.186774
vt 0.049629 0.218826
vt 0.020741 0.173753
vt 0.07075 0.141702
vt 0.011191 0.155342
vt 0.060433 0.123781
vt 0.064329 0.124066
vt 0.013169 0.147487
vt 0.057542 0.121442
vt 0.054307 0.121121
vt 0.064329 0.124066
vt 0.01797 0.146805
vt 0.057542 0.121442
vt 0.017519 0.154068
vt 0.075135 0.140925
vt 0.028325 0.170927
vt 0.055365 0.213116
vt 0.102175 0.183115
vt 0.06617 0.229975
vt 0.11298 0.199973
vt 0.072958 0.2326
vt 0.11253 0.207237
vn -0.8918108 -0.4524086 0
vn -0.8365043 0.3555181 0.4169743
vn -0.8365043 -0.355518 0.4169742
vn -0.8918108 0.4524086 0
vn -0.3107043 0.9505066 0
vn -0.3774088 0.690809 0.6167215
vn 0 1 0
vn 0 1 0
vn 0 1 0
vn 0 1 0
vn 0.3774088 0.690809 0.6167215
vn 0.3107043 0.9505066 0
vn 0.8918108 0.4524086 0
vn 0.8365043 0.355518 0.4169742
vn 0.8365043 -0.3555181 0.4169743
vn 0.8918108 -0.4524086 0
vn 0.3107043 -0.9505066 0
vn 0.8365043 -0.3555181 0.4169743
vn 0.8918108 -0.4524086 0
vn 0.3774088 -0.690809 0.6167215
vn 0.8365043 0.355518 0.4169742
vn 0.3774088 0.690809 0.6167215
vn 0 -1 0
vn 0 -1 0
vn 0 -1 0
vn 0 -1 0
vn 0.1012922 0 0.9948567
vn 0.1012922 0 0.9948567
vn -0.1012922 0 0.9948567
vn -0.1012922 0 0.9948567
vn -0.3774088 0.690809 0.6167215
vn -0.3774088 -0.690809 0.6167215
vn -0.3107043 -0.9505066 0
vn -0.8365043 0.3555181 0.4169743
vn -0.8918108 -0.4524086 0
vn -0.8365043 -0.355518 0.4169742
vn 0 0 -1
vn 0 0 -1
vn 0 0 -1
vn 0 0 -1
vn 0 0 -1
vn 0 0 -1
vn 0 0 -1
vn 0 0 -1
vn 0 0 -1
vn 0 0 -1
vn 0 0 -1
vn 0 0 -1
g SharkFlakeRaw_001_0
f 3/3/3 2/2/2 1/1/1
f 2/2/2 4/4/4 1/1/1
f 5/5/5 4/4/4 2/2/2
f 6/6/6 5/5/5 2/2/2
f 6/6/6 7/7/7 5/5/5
f 7/7/7 8/8/8 5/5/5
f 7/7/7 9/9/9 8/8/8
f 9/9/9 10/10/10 8/8/8
f 9/9/9 11/11/11 10/10/10
f 11/11/11 12/12/12 10/10/10
f 13/13/13 12/12/12 11/11/11
f 14/14/14 13/13/13 11/11/11
f 14/14/14 15/15/15 13/13/13
f 15/15/15 16/16/16 13/13/13
f 19/19/19 18/18/18 17/17/17
f 18/18/18 20/20/20 17/17/17
f 18/18/18 21/21/21 20/20/20
f 21/21/21 22/22/22 20/20/20
f 20/20/20 23/23/23 17/17/17
f 23/23/23 24/24/24 17/17/17
f 23/23/23 25/25/25 24/24/24
f 25/25/25 26/26/26 24/24/24
f 27/27/27 20/20/20 22/22/22
f 28/28/28 27/27/27 22/22/22
f 28/28/28 29/29/29 27/27/27
f 29/29/29 30/30/30 27/27/27
f 29/29/29 31/31/31 30/30/30
f 25/25/25 32/32/32 26/26/26
f 31/31/31 32/32/32 30/30/30
f 32/32/32 33/33/33 26/26/26
f 31/31/31 34/34/34 32/32/32
f 35/35/35 33/33/33 32/32/32
f 34/34/34 36/36/36 32/32/32
f 36/36/36 35/35/35 32/32/32
f 39/39/39 38/38/38 37/37/37
f 38/38/38 40/40/40 37/37/37
f 41/41/41 37/37/37 40/40/40
f 42/42/42 41/41/41 40/40/40
f 42/42/42 43/43/43 41/41/41
f 43/43/43 44/44/44 41/41/41
f 43/43/43 45/45/45 44/44/44
f 45/45/45 46/46/46 44/44/44
f 45/45/45 47/47/47 46/46/46
f 47/47/47 48/48/48 46/46/46
