g SharkFlakeRaw
v 0.45495 -0.350696 0.192085
v 0.514214 0.296472 0.151613
v 0.514214 -0.296472 0.151613
v 0.45495 0.350696 0.192085
v 0.252865 -0.350696 0.244062
v 0.252865 0.350696 0.244062
v -0.252865 0.350696 0.244062
v -0.252865 -0.350696 0.244062
v -0.45495 0.350696 0.192085
v -0.45495 -0.350696 0.192085
v -0.514214 0.296472 0.151613
v -0.514214 -0.296472 0.151613
v -0.45495 -0.350696 0.015752
v -0.514214 0.296472 0.015752
v -0.514214 -0.296472 0.015752
v -0.45495 0.350696 0.015752
v -0.252865 -0.350696 0.015752
v -0.252865 0.350696 0.015752
v 0.252865 0.350696 0.015752
v 0.252865 -0.350696 0.015752
v 0.45495 0.350696 0.015752
v 0.45495 -0.350696 0.015752
v 0.514214 0.296472 0.015752
v 0.514214 -0.296472 0.015752
v -0.514214 -0.296472 0.015752
v -0.514214 0.296472 0.015752
v -0.514214 0.296472 0.151613
v -0.45495 0.350696 0.015752
v -0.514214 -0.296472 0.151613
v -0.45495 0.350696 0.192085
v -0.252865 0.350696 0.244062
v -0.252865 0.350696 0.015752
v 0.252865 0.350696 0.244062
v 0.252865 0.350696 0.015752
v -0.45495 -0.350696 0.192085
v -0.45495 -0.350696 0.015752
v -0.252865 -0.350696 0.015752
v -0.252865 -0.350696 0.244062
v 0.252865 -0.350696 0.015752
v 0.252865 -0.350696 0.244062
v 0.45495 0.350696 0.192085
v 0.45495 0.350696 0.015752
v 0.45495 -0.350696 0.015752
v 0.45495 -0.350696 0.192085
v 0.514214 0.296472 0.015752
v 0.514214 0.296472 0.151613
v 0.514214 -0.296472 0.151613
v 0.514214 -0.296472 0.015752
vt 0.239102 0.199726
vt 0.202045 0.237335
vt 0.238923 0.206909
vt 0.194959 0.236147
vt 0.226584 0.183854
vt 0.181754 0.220841
vt 0.148418 0.180436
vt 0.193248 0.143449
vt 0.135899 0.164564
vt 0.180043 0.128143
vt 0.136079 0.157381
vt 0.172957 0.126955
vt 0.180411 0.130811
vt 0.138036 0.158324
vt 0.173511 0.129055
vt 0.138449 0.165432
vt 0.19288 0.145924
vt 0.150918 0.180545
vt 0.182122 0.218366
vt 0.224084 0.183745
vt 0.19459 0.233479
vt 0.236553 0.198858
vt 0.201491 0.235234
vt 0.236966 0.205966
vt 0.173511 0.129055
vt 0.138036 0.158324
vt 0.136079 0.157381
vt 0.138449 0.165432
vt 0.172957 0.126955
vt 0.135899 0.164564
vt 0.148418 0.180436
vt 0.150918 0.180545
vt 0.181754 0.220841
vt 0.182122 0.218366
vt 0.180043 0.128143
vt 0.180411 0.130811
vt 0.19288 0.145924
vt 0.193248 0.143449
vt 0.224084 0.183745
vt 0.226584 0.183854
vt 0.194959 0.236147
vt 0.19459 0.233479
vt 0.236553 0.198858
vt 0.239102 0.199726
vt 0.201491 0.235234
vt 0.202045 0.237335
vt 0.238923 0.206909
vt 0.236966 0.205966
vn 0.4291315 -0.6827483 0.5913553
vn 0.8708084 0.3119002 0.3800143
vn 0.8708084 -0.3119002 0.3800143
vn 0.4291315 0.6827483 0.5913553
vn 0.1255414 0 0.9920884
vn 0.1255414 0 0.9920884
vn -0.1255414 0 0.9920884
vn -0.1255414 0 0.9920884
vn -0.4291315 0.6827483 0.5913553
vn -0.4291315 -0.6827483 0.5913553
vn -0.8708084 0.3119002 0.3800143
vn -0.8708084 -0.3119002 0.3800143
vn 0 0 -1
vn 0 0 -1
vn 0 0 -1
vn 0 0 -1
vn 0 0 -1
vn 0 0 -1
vn 0 0 -1
vn 0 0 -1
vn 0 0 -1
vn 0 0 -1
vn 0 0 -1
vn 0 0 -1
vn -0.9151609 -0.4030888 0
vn -0.9151609 0.4030888 0
vn -0.8708084 0.3119002 0.3800143
vn -0.3620897 0.9321433 0
vn -0.8708084 -0.3119002 0.3800143
vn -0.4291315 0.6827483 0.5913553
vn 0 1 0
vn 0 1 0
vn 0 1 0
vn 0 1 0
vn -0.4291315 -0.6827483 0.5913553
vn -0.3620897 -0.9321433 0
vn 0 -1 0
vn 0 -1 0
vn 0 -1 0
vn 0 -1 0
vn 0.4291315 0.6827483 0.5913553
vn 0.3620897 0.9321433 0
vn 0.3620897 -0.9321433 0
vn 0.4291315 -0.6827483 0.5913553
vn 0.9151609 0.4030888 0
vn 0.8708084 0.3119002 0.3800143
vn 0.8708084 -0.3119002 0.3800143
vn 0.9151609 -0.4030888 0
g SharkFlakeRaw_0
f 3/3/3 2/2/2 1/1/1
f 2/2/2 4/4/4 1/1/1
f 5/5/5 1/1/1 4/4/4
f 6/6/6 5/5/5 4/4/4
f 6/6/6 7/7/7 5/5/5
f 7/7/7 8/8/8 5/5/5
f 7/7/7 9/9/9 8/8/8
f 9/9/9 10/10/10 8/8/8
f 9/9/9 11/11/11 10/10/10
f 11/11/11 12/12/12 10/10/10
f 15/15/15 14/14/14 13/13/13
f 14/14/14 16/16/16 13/13/13
f 17/17/17 13/13/13 16/16/16
f 18/18/18 17/17/17 16/16/16
f 18/18/18 19/19/19 17/17/17
f 19/19/19 20/20/20 17/17/17
f 19/19/19 21/21/21 20/20/20
f 21/21/21 22/22/22 20/20/20
f 21/21/21 23/23/23 22/22/22
f 23/23/23 24/24/24 22/22/22
f 27/27/27 26/26/26 25/25/25
f 28/28/28 26/26/26 27/27/27
f 29/29/29 27/27/27 25/25/25
f 30/30/30 28/28/28 27/27/27
f 30/30/30 31/31/31 28/28/28
f 31/31/31 32/32/32 28/28/28
f 31/31/31 33/33/33 32/32/32
f 33/33/33 34/34/34 32/32/32
f 29/29/29 25/25/25 35/35/35
f 25/25/25 36/36/36 35/35/35
f 35/35/35 36/36/36 37/37/37
f 38/38/38 35/35/35 37/37/37
f 38/38/38 37/37/37 39/39/39
f 40/40/40 38/38/38 39/39/39
f 33/33/33 41/41/41 34/34/34
f 41/41/41 42/42/42 34/34/34
f 40/40/40 39/39/39 43/43/43
f 44/44/44 40/40/40 43/43/43
f 45/45/45 42/42/42 41/41/41
f 46/46/46 45/45/45 41/41/41
f 47/47/47 44/44/44 43/43/43
f 46/46/46 47/47/47 45/45/45
f 48/48/48 47/47/47 43/43/43
f 47/47/47 48/48/48 45/45/45
