g Silo_Inside
v -1.458617 -0.072125 0.227243
v -1.458617 -0.072125 5.734259
v -1.374914 -0.546828 5.769209
v 0.992542 0.820023 0.227243
v 0.623289 -1.274115 0.227243
v 0.992542 -0.964275 0.227243
v 0.170333 1.294726 0.227243
v -0.311693 -1.438977 0.227243
v 0.170333 -1.438977 0.227243
v -0.764648 1.129863 0.227243
v -0.764649 -1.274114 0.227243
v -0.311693 -1.438977 0.227243
v -1.133901 0.820023 0.227243
v -1.374914 -0.546828 0.227243
v -1.133901 -0.964275 0.227243
v -1.133901 0.820023 0.227243
v -1.374914 0.402577 0.227243
v -1.374914 -0.546828 0.227243
v -1.374914 0.402577 0.227243
v -1.458617 -0.072125 0.227243
v -1.374914 -0.546828 0.227243
v 0.992542 -0.964275 0.227243
v 0.992542 -0.964275 5.878013
v 1.233555 -0.546829 5.878012
v 0.623289 -1.274115 0.227243
v 0.623289 -1.274115 5.859954
v 0.170333 -1.438977 0.227243
v 0.170333 -1.438977 5.885497
v -0.311693 -1.438977 0.227243
v -0.311693 -1.438977 5.885391
v 0.992542 -0.964275 0.227243
v 1.233555 -0.546829 5.878012
v 1.233555 -0.546829 0.227243
v 1.317258 -0.072126 5.799904
v 1.317258 -0.072126 0.227243
v 1.233555 0.402577 5.746183
v 1.233555 0.402577 0.227243
v 0.992542 0.820023 5.746246
v 0.992542 0.820023 0.227243
v 0.623289 1.131711 5.74228
v 0.623289 1.129863 0.227243
v 0.170333 1.300067 5.763984
v 0.170333 1.294726 0.227243
v -1.458617 -0.072125 0.227243
v -1.374914 -0.546828 5.769209
v -1.374914 -0.546828 0.227243
v -1.133901 -0.964275 5.769209
v -1.133901 -0.964275 0.227243
v -0.764649 -1.274114 5.807935
v -0.764649 -1.274114 0.227243
v -0.311693 -1.438977 5.885391
v -0.311693 -1.438977 0.227243
v 0.170333 1.294726 0.227243
v 0.170333 1.300067 5.763984
v -0.311692 1.300069 5.763997
v -0.311692 1.294726 0.227243
v -0.764648 1.131712 5.72952
v -0.764648 1.129863 0.227243
v -1.133901 0.820023 5.716913
v -1.133901 0.820023 0.227243
v -1.374914 0.402577 5.716913
v -1.374914 0.402577 0.227243
v -1.458617 -0.072125 5.734259
v -1.458617 -0.072125 0.227243
v 1.233555 -0.546829 0.227243
v 1.317258 -0.072126 0.227243
v 1.233555 0.402577 0.227243
v 0.992542 -0.964275 0.227243
v 0.992542 0.820023 0.227243
v 0.992542 0.820023 0.227243
v 0.623289 1.129863 0.227243
v 0.623289 -1.274115 0.227243
v 0.170333 -1.438977 0.227243
v 0.170333 1.294726 0.227243
v 0.170333 1.294726 0.227243
v -0.311692 1.294726 0.227243
v -0.311693 -1.438977 0.227243
v -0.764648 1.129863 0.227243
v -0.764648 1.129863 0.227243
v -1.133901 0.820023 0.227243
v -0.764649 -1.274114 0.227243
v -1.133901 -0.964275 0.227243
v 0.981235 0.30916 5.766974
v 1.233555 0.402577 5.746183
v 1.317258 -0.072126 5.799904
v 1.048744 -0.072984 5.859042
v 1.233555 -0.546829 5.878012
v 0.786849 0.646982 5.759824
v 0.992542 0.820023 5.746246
v 0.981234 -0.455148 5.941278
v 0.992542 -0.964275 5.878013
v 0.489033 0.906154 5.808323
v 0.623289 1.131711 5.74228
v 0.786848 -0.791833 5.952191
v 0.623289 -1.274115 5.859954
v 0.123706 1.039242 5.853818
v 0.170333 1.300067 5.763984
v 0.489032 -1.042423 5.961337
v 0.170333 -1.438977 5.885497
v -0.265065 1.039313 5.853101
v -0.311692 1.300069 5.763997
v 0.123706 -1.175439 5.958667
v -0.311693 -1.438977 5.885391
v -0.630391 0.906447 5.790158
v -0.764648 1.131712 5.72952
v -0.265066 -1.175266 5.960521
v -0.764649 -1.274114 5.807935
v -0.928208 0.647752 5.723289
v -1.133901 0.820023 5.716913
v -0.630392 -1.042156 5.959702
v -1.133901 -0.964275 5.769209
v -1.122594 0.309972 5.731564
v -1.374914 0.402577 5.716913
v -0.928208 -0.791976 5.922888
v -1.374914 -0.546828 5.769209
v -1.190103 -0.072769 5.838782
v -1.458617 -0.072125 5.734259
v -1.122594 -0.455309 5.911297
v -0.67155 0.425597 5.771714
v -0.807756 0.188403 5.827466
v -0.85506 -0.070299 5.980665
v -0.807756 -0.331815 6.0765
v -0.67155 -0.567039 6.14326
v -0.46287 -0.747623 6.187135
v -0.46287 0.605468 5.800262
v -0.206886 -0.850481 6.123734
v -0.206886 0.695192 5.844098
v 0.065526 -0.850627 6.125612
v 0.065527 0.69586 5.853806
v 0.321511 -0.752093 6.137682
v 0.321511 0.606884 5.826887
v 0.530191 -0.573168 6.074114
v 0.530191 0.426695 5.785538
v 0.666397 -0.337262 6.008637
v 0.666398 0.190015 5.843557
v 0.713702 -0.072598 5.950983
v 0.003117 0.33297 5.815601
v 0.14181 0.285251 5.806363
v 0.254873 0.193026 5.812818
v 0.32867 0.06896 5.853636
v 0.354299 -0.073074 5.910209
v 0.32867 -0.21713 5.96971
v 0.254873 -0.342921 6.048416
v 0.14181 -0.434693 6.123734
v 0.003117 -0.483132 6.159513
v -0.144476 0.329306 5.831778
v -0.144476 -0.479637 6.180307
v -0.283169 0.276014 5.863369
v -0.283169 -0.423259 6.193667
v -0.396232 0.182767 5.911708
v -0.396232 -0.327414 6.160056
v -0.470029 0.062737 5.977325
v -0.470029 -0.204837 6.104643
v -0.495658 -0.07007 6.047903
vt 7.478068 3.737777
vt 7.478069 -2.730716
vt 6.702728 -2.730718
vt -1.940878 5.594449
vt 4.161312 5.594448
vt 2.940875 5.594445
vt -4.381752 5.594449
vt 6.602186 5.594445
vt 5.38175 5.594445
vt -6.822628 5.594449
vt 7.822625 5.594445
vt 6.602186 5.594445
vt -8.043063 5.594449
vt 10.2635 5.594445
vt 9.043063 5.594443
vt -8.043063 5.594449
vt -9.263502 5.594445
vt 10.2635 5.594445
vt -9.263502 5.594445
vt -10.48394 5.594449
vt 10.2635 5.594445
vt 2.050682 3.737775
vt 2.050681 -2.730713
vt 1.27534 -2.730712
vt 2.826022 3.737777
vt 2.826022 -2.730713
vt 3.601363 3.737775
vt 3.601363 -2.730715
vt 4.376703 3.737775
vt 4.376703 -2.730715
vt 2.050682 3.737775
vt 1.27534 -2.730712
vt 1.275341 3.737777
vt 0.499998 -2.730712
vt 0.5 3.737777
vt -0.275341 -2.730712
vt -0.275341 3.737777
vt -1.050684 -2.730711
vt -1.050684 3.737778
vt -1.826025 -2.730711
vt -1.826023 3.737778
vt -2.601364 -2.730711
vt -2.601365 3.737778
vt 7.478068 3.737777
vt 6.702728 -2.730718
vt 6.702727 3.737775
vt 5.927386 -2.730713
vt 5.927386 3.737774
vt 5.152045 -2.730715
vt 5.152045 3.737775
vt 4.376703 -2.730715
vt 4.376703 3.737775
vt -2.601365 3.737778
vt -2.601364 -2.730711
vt -3.376707 -2.73071
vt -3.376707 3.737778
vt -4.152047 -2.730711
vt -4.152047 3.737778
vt -4.927386 -2.73071
vt -4.927386 3.737778
vt -5.702728 -2.730711
vt -5.702728 3.737775
vt -6.478069 -2.730711
vt -6.478069 3.737778
vt 1.720437 5.594448
vt 0.5 5.594448
vt -0.720438 5.594448
vt 2.940875 5.594445
vt -1.940878 5.594449
vt -1.940878 5.594449
vt -3.161314 5.594449
vt 4.161312 5.594448
vt 5.38175 5.594445
vt -4.381752 5.594449
vt -4.381752 5.594449
vt -5.602191 5.594449
vt 6.602186 5.594445
vt -6.822628 5.594449
vt -6.822628 5.594449
vt -8.043063 5.594449
vt 7.822625 5.594445
vt 9.043063 5.594443
vt 1.64298 0.949657
vt 1.917517 1.052668
vt 2.008174 0.532231
vt 1.708505 0.521658
vt 1.916019 0.004616
vt 1.430858 1.31597
vt 1.653266 1.504492
vt 1.628406 0.096923
vt 1.666461 -0.4659
vt 1.102069 1.590975
vt 1.252984 1.839551
vt 1.42449 -0.275739
vt 1.269711 -0.829909
vt 0.709818 1.724257
vt 0.763729 2.01845
vt 1.10354 -0.559858
vt 0.761798 -1.018449
vt 0.303667 1.724322
vt 0.246471 2.015022
vt 0.704687 -0.714991
vt 0.217233 -1.01845
vt -0.091275 1.592671
vt -0.240113 1.838916
vt 0.277303 -0.712678
vt -0.310586 -0.839674
vt -0.424138 1.323188
vt -0.642532 1.512631
vt -0.118923 -0.554177
vt -0.720354 -0.470509
vt -0.639497 0.961041
vt -0.91244 1.066375
vt -0.440962 -0.272298
vt -0.947778 0.019557
vt -0.699174 0.526575
vt -1.013264 0.549134
vt -0.626527 0.104513
vt -0.147972 1.078376
vt -0.290578 0.815122
vt -0.313949 0.494339
vt -0.25017 0.210724
vt -0.105101 -0.026679
vt 0.10406 -0.201467
vt 0.082837 1.266025
vt 0.351336 -0.330433
vt 0.361172 1.360146
vt 0.632611 -0.330855
vt 0.651039 1.36194
vt 0.890398 -0.219655
vt 0.924706 1.269306
vt 1.12062 -0.037412
vt 1.152541 1.076144
vt 1.27771 0.216934
vt 1.296215 0.809487
vt 1.33589 0.503704
vt 0.588649 0.972239
vt 0.737898 0.924718
vt 0.858563 0.829238
vt 0.931996 0.69073
vt 0.955474 0.530192
vt 0.924611 0.367397
vt 0.83864 0.216609
vt 0.71089 0.103358
vt 0.565425 0.048334
vt 0.429259 0.965682
vt 0.413921 0.049123
vt 0.278377 0.901944
vt 0.271975 0.097239
vt 0.15865 0.788434
vt 0.166494 0.197889
vt 0.08541 0.64172
vt 0.093986 0.334646
vt 0.063817 0.483938
vn -1 -0.0004182694 0
vn -0.999052 0.004365682 0.04331207
vn -0.9396022 -0.3395775 0.04283499
vn 0 0 -1
vn 0 0 -1
vn 0 0 -1
vn 0 0 -1
vn 0 0 -1
vn 0 0 -1
vn 0 0 -1
vn 0 0 -1
vn 0 0 -1
vn 0 0 -1
vn 0 0 -1
vn 0 0 -1
vn 0 0 -1
vn 0 0 -1
vn 0 0 -1
vn 0 0 -1
vn 0 0 -1
vn 0 0 -1
vn 0.7661347 -0.64268 0
vn 0.7653085 -0.6422679 0.04236393
vn 0.9400018 -0.3385013 0.04258466
vn 0.4999489 -0.866055 0
vn 0.499802 -0.8651084 0.04225355
vn 0.1734523 -0.9848423 0
vn 0.1740576 -0.9838307 0.04220296
vn -0.1730515 -0.9849128 0
vn -0.1752466 -0.983618 0.04223958
vn 0.7661347 -0.64268 0
vn 0.9400018 -0.3385013 0.04258466
vn 0.9394832 -0.3425949 0
vn 0.9990539 0.00612489 0.04305572
vn 0.9999995 -0.001041681 0
vn 0.9377596 0.3445327 0.04363508
vn 0.9398386 0.3416186 0
vn 0.7661311 0.6412009 0.04363947
vn 0.7664659 0.642285 -6.507889E-05
vn 0.5034193 0.8629901 0.04262654
vn 0.5019784 0.86488 -0.0003751473
vn 0.1765124 0.9834123 0.04175578
vn 0.1752537 0.9845231 -0.0008001095
vn -1 -0.0004182694 0
vn -0.9396022 -0.3395775 0.04283499
vn -0.9395974 -0.3422817 0
vn -0.7664624 -0.6408777 0.04255923
vn -0.765847 -0.6430229 0
vn -0.5024408 -0.8635731 0.04236257
vn -0.4992064 -0.8664832 0
vn -0.1752466 -0.983618 0.04223958
vn -0.1730515 -0.9849128 0
vn 0.1752537 0.9845231 -0.0008001095
vn 0.1765124 0.9834123 0.04175578
vn -0.177107 0.9833044 0.04177926
vn -0.1751468 0.984542 -0.0008006996
vn -0.5045356 0.8623339 0.04270843
vn -0.5017725 0.8649995 -0.0003762433
vn -0.7663808 0.6423865 -6.541033E-05
vn -0.7663808 0.6423865 -6.541033E-05
vn -0.9379467 0.3439933 0.04386905
vn -0.93974 0.34189 0
vn -0.999052 0.004365682 0.04331207
vn -1 -0.0004182694 0
vn 0 0 -1
vn 0 0 -1
vn 0 0 -1
vn 0 0 -1
vn 0 0 -1
vn 0 0 -1
vn 0 0 -1
vn 0 0 -1
vn 0 0 -1
vn 0 0 -1
vn 0 0 -1
vn 0 0 -1
vn 0 0 -1
vn 0 0 -1
vn 0 0 -1
vn 0 0 -1
vn 0 0 -1
vn 0 0 -1
vn 0.1091631 0.1777129 0.978009
vn 0.9377596 0.3445327 0.04363508
vn 0.9990539 0.00612489 0.04305572
vn 0.203094 0.2008951 0.9583287
vn 0.9400018 -0.3385013 0.04258466
vn 0.1041237 0.0611193 0.9926846
vn 0.7661311 0.6412009 0.04363947
vn 0.2582946 0.03438991 0.9654539
vn 0.7653085 -0.6422679 0.04236393
vn 0.1415283 0.07241756 0.9872819
vn 0.5034193 0.8629901 0.04262654
vn 0.2643333 -0.1658943 0.9500564
vn 0.499802 -0.8651084 0.04225355
vn 0.06698511 0.142048 0.9875907
vn 0.1765124 0.9834123 0.04175578
vn 0.2039063 -0.3085538 0.9290947
vn 0.1740576 -0.9838307 0.04220296
vn -0.09217637 0.1261106 0.9877245
vn -0.177107 0.9833044 0.04177926
vn 0.07004531 -0.3659245 0.9280047
vn -0.1752466 -0.983618 0.04223958
vn -0.1667273 0.04798392 0.9848348
vn -0.5045356 0.8623339 0.04270843
vn -0.08140513 -0.3970503 0.9141796
vn -0.5024408 -0.8635731 0.04236257
vn -0.120268 0.05689447 0.9911097
vn -0.09031523 0.03312791 0.9953621
vn -0.289346 -0.3877452 0.8751757
vn -0.7664624 -0.6408777 0.04255923
vn -0.1544901 0.2029494 0.9669252
vn -0.9379467 0.3439933 0.04386905
vn -0.432463 -0.2740282 0.8590019
vn -0.9396022 -0.3395775 0.04283499
vn -0.3368895 0.1922821 0.9217012
vn -0.999052 0.004365682 0.04331207
vn -0.4529586 -0.0561589 0.889761
vn -0.1552102 0.1834483 0.970699
vn -0.1871015 0.3688662 0.9104564
vn -0.2847753 0.3394621 0.8964756
vn -0.3707109 0.09908579 0.9234476
vn -0.3674595 -0.1126961 0.9231864
vn -0.1842163 -0.290407 0.9390038
vn -0.1333747 0.03727258 0.9903646
vn 0.002143949 -0.3498278 0.9368116
vn -0.05718905 -0.02199827 0.998121
vn 0.06619067 -0.3049567 0.9500633
vn 0.04297312 -0.04216898 0.9981858
vn 0.2082775 -0.1711736 0.9629747
vn 0.1021878 -0.04367936 0.9938056
vn 0.2568671 0.02542355 0.9661123
vn 0.06846667 0.07360809 0.9949343
vn 0.1743146 0.1616115 0.9713373
vn 0.04466566 0.264366 0.9633875
vn 0.1011542 0.2773048 0.9554422
vn 0.08770483 0.1779989 0.9801144
vn 0.1508924 0.1501514 0.9770803
vn 0.07771035 0.1862799 0.9794186
vn -0.07076941 0.3009147 0.9510216
vn -0.07915527 0.3233889 0.9429496
vn 0.05179676 0.3224202 0.9451784
vn 0.1972145 0.3260141 0.9245654
vn 0.1620174 0.2621144 0.9513392
vn 0.08713794 0.1919899 0.9775208
vn 0.04659894 0.2193495 0.9745328
vn 0.1246122 0.1603805 0.9791577
vn 0.01282499 0.284549 0.9585757
vn 0.06167479 0.1863732 0.9805413
vn -0.07421343 0.3667583 0.9273515
vn -0.1029013 0.2373023 0.9659705
vn -0.1279638 0.458987 0.8791792
vn -0.1673976 0.2828308 0.9444494
vn -0.168563 0.4249575 0.8893805
g Silo_Inside_0
f 3/3/3 2/2/2 1/1/1
f 6/6/6 5/5/5 4/4/4
f 9/9/9 8/8/8 7/7/7
f 12/12/12 11/11/11 10/10/10
f 15/15/15 14/14/14 13/13/13
f 18/18/18 17/17/17 16/16/16
f 21/21/21 20/20/20 19/19/19
f 24/24/24 23/23/23 22/22/22
f 22/22/22 23/23/23 25/25/25
f 23/23/23 26/26/26 25/25/25
f 25/25/25 26/26/26 27/27/27
f 26/26/26 28/28/28 27/27/27
f 27/27/27 28/28/28 29/29/29
f 28/28/28 30/30/30 29/29/29
f 33/33/33 32/32/32 31/31/31
f 34/34/34 32/32/32 33/33/33
f 35/35/35 34/34/34 33/33/33
f 36/36/36 34/34/34 35/35/35
f 37/37/37 36/36/36 35/35/35
f 38/38/38 36/36/36 37/37/37
f 39/39/39 38/38/38 37/37/37
f 40/40/40 38/38/38 39/39/39
f 41/41/41 40/40/40 39/39/39
f 42/42/42 40/40/40 41/41/41
f 43/43/43 42/42/42 41/41/41
f 46/46/46 45/45/45 44/44/44
f 47/47/47 45/45/45 46/46/46
f 48/48/48 47/47/47 46/46/46
f 49/49/49 47/47/47 48/48/48
f 50/50/50 49/49/49 48/48/48
f 51/51/51 49/49/49 50/50/50
f 52/52/52 51/51/51 50/50/50
f 55/55/55 54/54/54 53/53/53
f 56/56/56 55/55/55 53/53/53
f 57/57/57 55/55/55 56/56/56
f 58/58/58 57/57/57 56/56/56
f 59/59/59 57/57/57 58/58/58
f 60/60/60 59/59/59 58/58/58
f 61/61/61 59/59/59 60/60/60
f 62/62/62 61/61/61 60/60/60
f 63/63/63 61/61/61 62/62/62
f 64/64/64 63/63/63 62/62/62
f 67/67/67 66/66/66 65/65/65
f 65/65/65 68/68/68 67/67/67
f 68/68/68 69/69/69 67/67/67
f 72/72/72 71/71/71 70/70/70
f 72/72/72 73/73/73 71/71/71
f 73/73/73 74/74/74 71/71/71
f 77/77/77 76/76/76 75/75/75
f 77/77/77 78/78/78 76/76/76
f 81/81/81 80/80/80 79/79/79
f 81/81/81 82/82/82 80/80/80
f 85/85/85 84/84/84 83/83/83
f 86/86/86 85/85/85 83/83/83
f 87/87/87 85/85/85 86/86/86
f 83/83/83 84/84/84 88/88/88
f 84/84/84 89/89/89 88/88/88
f 90/90/90 87/87/87 86/86/86
f 91/91/91 87/87/87 90/90/90
f 88/88/88 89/89/89 92/92/92
f 89/89/89 93/93/93 92/92/92
f 94/94/94 91/91/91 90/90/90
f 95/95/95 91/91/91 94/94/94
f 92/92/92 93/93/93 96/96/96
f 93/93/93 97/97/97 96/96/96
f 98/98/98 95/95/95 94/94/94
f 99/99/99 95/95/95 98/98/98
f 96/96/96 97/97/97 100/100/100
f 97/97/97 101/101/101 100/100/100
f 102/102/102 99/99/99 98/98/98
f 103/103/103 99/99/99 102/102/102
f 100/100/100 101/101/101 104/104/104
f 101/101/101 105/105/105 104/104/104
f 106/106/106 103/103/103 102/102/102
f 107/107/107 103/103/103 106/106/106
f 104/104/104 105/105/105 108/108/108
f 105/105/105 109/109/109 108/108/108
f 110/110/110 107/107/107 106/106/106
f 111/111/111 107/107/107 110/110/110
f 108/108/108 109/109/109 112/112/112
f 109/109/109 113/113/113 112/112/112
f 114/114/114 111/111/111 110/110/110
f 115/115/115 111/111/111 114/114/114
f 112/112/112 113/113/113 116/116/116
f 113/113/113 117/117/117 116/116/116
f 117/117/117 115/115/115 118/118/118
f 118/118/118 115/115/115 114/114/114
f 116/116/116 117/117/117 118/118/118
f 104/104/104 108/108/108 119/119/119
f 108/108/108 112/112/112 120/120/120
f 119/119/119 108/108/108 120/120/120
f 112/112/112 116/116/116 121/121/121
f 120/120/120 112/112/112 121/121/121
f 116/116/116 118/118/118 122/122/122
f 121/121/121 116/116/116 122/122/122
f 118/118/118 114/114/114 123/123/123
f 122/122/122 118/118/118 123/123/123
f 114/114/114 110/110/110 124/124/124
f 123/123/123 114/114/114 124/124/124
f 125/125/125 104/104/104 119/119/119
f 100/100/100 104/104/104 125/125/125
f 124/124/124 110/110/110 126/126/126
f 110/110/110 106/106/106 126/126/126
f 127/127/127 100/100/100 125/125/125
f 96/96/96 100/100/100 127/127/127
f 126/126/126 106/106/106 128/128/128
f 106/106/106 102/102/102 128/128/128
f 129/129/129 96/96/96 127/127/127
f 92/92/92 96/96/96 129/129/129
f 128/128/128 102/102/102 130/130/130
f 102/102/102 98/98/98 130/130/130
f 131/131/131 92/92/92 129/129/129
f 88/88/88 92/92/92 131/131/131
f 130/130/130 98/98/98 132/132/132
f 98/98/98 94/94/94 132/132/132
f 133/133/133 88/88/88 131/131/131
f 83/83/83 88/88/88 133/133/133
f 132/132/132 94/94/94 134/134/134
f 94/94/94 90/90/90 134/134/134
f 135/135/135 83/83/83 133/133/133
f 86/86/86 83/83/83 135/135/135
f 90/90/90 86/86/86 136/136/136
f 134/134/134 90/90/90 136/136/136
f 136/136/136 86/86/86 135/135/135
f 131/131/131 129/129/129 137/137/137
f 133/133/133 131/131/131 138/138/138
f 138/138/138 131/131/131 137/137/137
f 135/135/135 133/133/133 139/139/139
f 139/139/139 133/133/133 138/138/138
f 136/136/136 135/135/135 140/140/140
f 140/140/140 135/135/135 139/139/139
f 134/134/134 136/136/136 141/141/141
f 141/141/141 136/136/136 140/140/140
f 142/142/142 134/134/134 141/141/141
f 142/142/142 141/141/141 140/140/140
f 140/140/140 139/139/139 142/142/142
f 132/132/132 134/134/134 142/142/142
f 139/139/139 143/143/143 142/142/142
f 143/143/143 132/132/132 142/142/142
f 139/139/139 138/138/138 143/143/143
f 130/130/130 132/132/132 143/143/143
f 138/138/138 144/144/144 143/143/143
f 144/144/144 130/130/130 143/143/143
f 138/138/138 137/137/137 144/144/144
f 128/128/128 130/130/130 144/144/144
f 145/145/145 128/128/128 144/144/144
f 137/137/137 145/145/145 144/144/144
f 126/126/126 128/128/128 145/145/145
f 137/137/137 146/146/146 145/145/145
f 137/137/137 129/129/129 146/146/146
f 129/129/129 127/127/127 146/146/146
f 147/147/147 126/126/126 145/145/145
f 146/146/146 147/147/147 145/145/145
f 124/124/124 126/126/126 147/147/147
f 146/146/146 127/127/127 148/148/148
f 146/146/146 148/148/148 147/147/147
f 127/127/127 125/125/125 148/148/148
f 149/149/149 124/124/124 147/147/147
f 148/148/148 149/149/149 147/147/147
f 123/123/123 124/124/124 149/149/149
f 148/148/148 125/125/125 150/150/150
f 148/148/148 150/150/150 149/149/149
f 125/125/125 119/119/119 150/150/150
f 151/151/151 123/123/123 149/149/149
f 150/150/150 151/151/151 149/149/149
f 122/122/122 123/123/123 151/151/151
f 150/150/150 119/119/119 152/152/152
f 150/150/150 152/152/152 151/151/151
f 119/119/119 120/120/120 152/152/152
f 153/153/153 122/122/122 151/151/151
f 152/152/152 153/153/153 151/151/151
f 121/121/121 122/122/122 153/153/153
f 120/120/120 121/121/121 154/154/154
f 152/152/152 120/120/120 154/154/154
f 152/152/152 154/154/154 153/153/153
f 154/154/154 121/121/121 153/153/153
