g SingleStrut
v 0.095509 0.073829 -0.159995
v 0.073829 0.095509 -0.159995
v 0.073829 0.073829 -0.181675
v 0.095509 -0.073829 -0.159995
v 0.073829 -0.073829 -0.181675
v 0.073829 -0.095509 -0.159995
v -0.095509 -0.073829 -0.159995
v -0.073829 -0.095509 -0.159995
v -0.073829 -0.073829 -0.181675
v -0.095509 -0.073829 4.021679
v -0.073829 -0.073829 4.043359
v -0.073829 -0.095509 4.021679
v 0.095509 0.073829 4.021679
v 0.073829 0.073829 4.043359
v 0.073829 0.095509 4.021679
v -0.095509 0.073829 4.021679
v -0.073829 0.095509 4.021679
v -0.073829 0.073829 4.043359
v 0.073829 -0.073829 -0.181675
v 0.095509 -0.073829 -0.159995
v 0.095509 0.073829 -0.159995
v -0.073829 -0.095509 -0.159995
v 0.073829 -0.095509 3.978321
v 0.073829 -0.095509 -0.159995
v -0.073829 -0.095509 3.978321
v 0.073829 -0.095509 4.021679
v -0.073829 -0.095509 4.021679
v 0.049336 0.043306 3.061556
v 0.049336 -0.928783 3.987697
v -0.049336 -0.928783 3.987697
v -0.049336 0.043306 3.061556
v 0.071015 -0.952968 3.980796
v 0.071015 0.027967 3.046227
v 0.049336 -0.928783 3.987697
v 0.049336 -0.966154 4.002213
v 0.071015 -1.153773 3.976732
v 0.049336 -1.184858 3.997787
v -0.049336 -0.966154 4.002213
v -0.049336 -1.184858 3.997787
v -0.049336 -0.928783 3.987697
v -0.071015 -0.952968 3.980796
v 0.071015 -0.076373 2.941886
v 0.071015 -1.153773 3.976732
v 0.071015 -0.952968 3.980796
v 0.071015 0.027967 3.046227
v 0.049336 -0.060738 2.926862
v 0.049336 -0.091703 2.92655
v 0.049336 0.043672 3.031272
v 0.049336 0.043306 3.061556
v 0.071015 -0.076373 2.941886
v 0.049336 -1.190897 3.98233
v 0.071015 -1.153773 3.976732
v 0.049336 -1.184858 3.997787
v 0.072059 -0.049336 3.034379
v -0.915726 0.049336 3.975475
v 0.072059 0.049336 3.034379
v -0.915726 -0.049336 3.975475
v -0.953097 0.049336 3.98999
v -0.939911 0.071015 3.968573
v -0.953097 -0.049336 3.98999
v -0.939911 -0.071015 3.968573
v -1.171801 -0.049336 3.985564
v -1.171801 0.049336 3.985564
v -0.071015 0.027967 3.046227
v -0.071015 -1.153773 3.976732
v -0.071015 -0.076373 2.941886
v -0.071015 -0.952968 3.980796
v -0.049336 -0.928783 3.987697
v -0.049336 0.043306 3.061556
v -0.049336 -1.184858 3.997787
v -0.049336 -0.966154 4.002213
v -0.071015 -1.153773 3.976732
v -0.049336 -1.190897 3.98233
v -0.049336 -0.091703 2.92655
v -0.049336 -1.190897 3.98233
v 0.049336 -1.190897 3.98233
v 0.049336 -0.091703 2.92655
v -0.049336 -0.060738 2.926862
v -0.071015 -0.076373 2.941886
v -0.047678 -0.071015 2.914643
v -1.140716 -0.071015 3.964509
v -0.939911 -0.071015 3.968573
v 0.056725 -0.071015 3.019045
v 0.056725 0.071015 3.019045
v -1.140716 0.071015 3.964509
v -0.047678 0.071015 2.914643
v -0.939911 0.071015 3.968573
v -0.915726 0.049336 3.975475
v 0.072059 0.049336 3.034379
v -1.171801 0.049336 3.985564
v -0.953097 0.049336 3.98999
v -1.140716 0.071015 3.964509
v -1.17784 0.049336 3.970107
v -0.063011 0.049336 2.89931
v -1.17784 -0.049336 3.970107
v -0.063011 -0.049336 2.89931
v -1.17784 0.049336 3.970107
v -1.140716 0.071015 3.964509
v -0.047678 0.071015 2.914643
v -0.073829 0.095509 -0.159995
v -0.095509 0.073829 -0.159995
v -0.073829 0.073829 -0.181675
v -0.073829 0.095509 3.978321
v -0.095509 0.073829 3.978321
v 0.073829 0.095509 -0.159995
v 0.073829 0.095509 3.978321
v -0.073829 0.095509 4.021679
v 0.073829 0.095509 4.021679
v 0.095509 0.073829 3.978321
v 0.095509 0.073829 -0.159995
v 0.095509 0.073829 4.021679
v 0.095509 -0.073829 4.021679
v 0.073829 -0.095509 4.021679
v 0.073829 -0.073829 4.043359
v 0.095509 -0.073829 3.978321
v 0.073829 -0.095509 3.978321
v 0.095509 0.073829 4.021679
v 0.095509 0.073829 3.978321
v 0.095509 -0.073829 -0.159995
v 0.095509 0.073829 -0.159995
v -0.095509 0.073829 3.978321
v -0.073829 0.095509 3.978321
v -0.073829 0.095509 4.021679
v -0.095509 0.073829 4.021679
v -0.049336 0.043306 3.061556
v -0.071015 0.027967 3.046227
v -0.049336 0.043672 3.031272
v -0.071015 -0.076373 2.941886
v 0.073829 -0.073829 -0.181675
v 0.095509 0.073829 -0.159995
v 0.073829 0.073829 -0.181675
v -0.073829 -0.073829 -0.181675
v 0.073829 -0.095509 -0.159995
v -0.073829 -0.095509 -0.159995
v -0.073829 0.073829 -0.181675
v -0.095509 -0.073829 -0.159995
v -0.095509 0.073829 -0.159995
v -0.073829 0.095509 -0.159995
v 0.073829 0.095509 -0.159995
v -0.073829 -0.073829 4.043359
v -0.095509 -0.073829 4.021679
v -0.095509 0.073829 4.021679
v -0.073829 0.073829 4.043359
v 0.073829 -0.073829 4.043359
v 0.073829 0.073829 4.043359
v 0.095509 -0.073829 4.021679
v 0.095509 0.073829 4.021679
v 0.073829 0.095509 4.021679
v -0.073829 0.095509 4.021679
v 0.073829 -0.073829 4.043359
v 0.073829 -0.095509 4.021679
v -0.073829 -0.095509 4.021679
v -0.073829 -0.073829 4.043359
v 0.073829 -0.095509 3.978321
v 0.095509 -0.073829 3.978321
v 0.095509 -0.073829 -0.159995
v 0.073829 -0.095509 -0.159995
v -0.095509 -0.073829 4.021679
v -0.095509 0.073829 3.978321
v -0.095509 0.073829 4.021679
v -0.095509 -0.073829 3.978321
v -0.073829 -0.095509 4.021679
v -0.095509 0.073829 -0.159995
v -0.073829 -0.095509 3.978321
v -0.095509 -0.073829 -0.159995
v -0.073829 -0.095509 -0.159995
v 0.049336 -1.184858 3.997787
v 0.049336 -1.190897 3.98233
v -0.049336 -1.190897 3.98233
v -0.049336 -1.184858 3.997787
v -0.049336 0.043306 3.061556
v 0.049336 0.043672 3.031272
v 0.049336 0.043306 3.061556
v -0.049336 0.043672 3.031272
v 0.049336 -0.060738 2.926862
v -0.049336 -0.060738 2.926862
v -0.071015 -0.076373 2.941886
v 0.049336 -0.091703 2.92655
v -0.049336 -0.091703 2.92655
v -0.071015 -0.076373 2.941886
v -0.071015 -1.153773 3.976732
v -0.049336 -1.190897 3.98233
v -1.171801 -0.049336 3.985564
v -1.17784 -0.049336 3.970107
v -1.17784 0.049336 3.970107
v -1.171801 0.049336 3.985564
v -0.047678 -0.071015 2.914643
v -0.063011 -0.049336 2.89931
v -1.17784 -0.049336 3.970107
v -1.140716 -0.071015 3.964509
v -1.171801 -0.049336 3.985564
v -0.953097 -0.049336 3.98999
v -0.939911 -0.071015 3.968573
v -0.915726 -0.049336 3.975475
v 0.072059 -0.049336 3.034379
v 0.056725 -0.071015 3.019045
vt 0.043215 0.005215
vt 0.048743 0.005215
vt 0.043215 3.1E-05
vt 0.00556 0.005215
vt 0.00556 3.1E-05
vt 3.1E-05 0.005215
vt 0.059571 0.397118
vt 0.004609 0.445949
vt 0.055858 0.39718
vt 0.871024 0.137694
vt 0.784831 0.141824
vt 0.786805 0.049073
vt 0.043215 0.999969
vt 0.043215 0.999969
vt 0.048743 0.999969
vt 0.871023 0.740653
vt 0.871023 0.82918
vt 0.871023 0.740653
vt 0.886505 0.113495
vt 0.886505 0
vt 0.113495 0
vt 0.060275 0.493982
vt 0.213118 0.052031
vt 0.45093 0.825099
vt 0.784332 0.051843
vt 0.213193 0.048436
vt 0.786805 0.049073
vt 0.174255 0.9739
vt 0.174255 0.9739
vt 0.745512 0.855249
vt 0.745512 0.855249
vt 0.058131 0.888619
vt 0.057863 0.891802
vt 0.174255 0.9739
vt 0.179054 0.899119
vt 0.119594 0.159597
vt 0.237441 0.123249
vt 0.747349 0.786803
vt 0.755921 0.117487
vt 0.745512 0.855249
vt 0.871023 0.737911
vt 0.119855 0.156505
vt 0.119594 0.159597
vt 0.058131 0.888619
vt 0.057863 0.891802
vt 0.23548 0.151453
vt 0.24224 0.048468
vt 0.181014 0.870914
vt 0.174255 0.9739
vt 0.119855 0.156505
vt 0.24224 0.048468
vt 0.119594 0.159597
vt 0.237441 0.123249
vt 0.174255 0.9739
vt 0.745512 0.855249
vt 0.745512 0.855249
vt 0.174255 0.9739
vt 0.747349 0.786802
vt 0.871023 0.737911
vt 0.179054 0.899119
vt 0.058131 0.888619
vt 0.237441 0.123249
vt 0.755921 0.117488
vt 0.871023 0.74052
vt 0.871024 0.140358
vt 0.871024 0.137824
vt 0.871023 0.737911
vt 0.745512 0.855249
vt 0.745512 0.855249
vt 0.755921 0.117487
vt 0.747349 0.786803
vt 0.871024 0.140358
vt 0.757759 0.049041
vt 0.757759 0.049041
vt 0.757759 0.049041
vt 0.24224 0.048468
vt 0.24224 0.048468
vt 0.755412 0.142587
vt 0.871024 0.137824
vt 0.119866 0.156368
vt 0.119594 0.159597
vt 0.058131 0.888619
vt 0.057852 0.891933
vt 0.871023 0.740627
vt 0.871024 0.140358
vt 0.871024 0.137711
vt 0.871023 0.737911
vt 0.745512 0.855249
vt 0.745512 0.855249
vt 0.755921 0.117488
vt 0.747349 0.786802
vt 0.871024 0.140358
vt 0.757758 0.049041
vt 0.757758 0.049041
vt 0.24224 0.048468
vt 0.24224 0.048468
vt 0.757758 0.049041
vt 0.871024 0.140358
vt 0.871024 0.137711
vt 0.091927 0.005215
vt 0.097455 0.005215
vt 0.091927 3.1E-05
vt 0.091927 0.994785
vt 0.097455 0.994785
vt 0.054272 0.005215
vt 0.054272 0.994785
vt 0.091927 0.999969
vt 0.054272 0.999969
vt 0.043215 0.994785
vt 0.043215 0.005215
vt 0.043215 0.999969
vt 0.00556 0.999969
vt 3.2E-05 0.999969
vt 0.00556 0.999969
vt 0.00556 0.994785
vt 3.2E-05 0.994785
vt 0.043215 0.999969
vt 0.043215 0.994785
vt 0.00556 0.005215
vt 0.043215 0.005215
vt 0.868253 0.73836
vt 0.869055 0.824882
vt 0.871023 0.82918
vt 0.871023 0.740653
vt 0.745512 0.855249
vt 0.871023 0.74052
vt 0.747858 0.761703
vt 0.871024 0.137824
vt 0.886505 0.113495
vt 0.113495 0
vt 0.113495 0.113495
vt 0.886505 0.886505
vt 1 0.113495
vt 1 0.886505
vt 0.113495 0.886505
vt 0.886505 1
vt 0.113495 1
vt 0 0.886505
vt 0 0.113495
vt 0.784831 0.141824
vt 0.871024 0.137694
vt 0.871023 0.740653
vt 0.779674 0.755813
vt 0.206061 0.152217
vt 0.149199 0.876804
vt 0.119868 0.156347
vt 0.057849 0.891964
vt 0.142068 0.980585
vt 0.777699 0.848564
vt 0.206061 0.152217
vt 0.213193 0.048436
vt 0.786805 0.049073
vt 0.784831 0.141824
vt 0.213118 0.052031
vt 0.130942 0.05264
vt 0.506596 0.873132
vt 0.45093 0.825099
vt 0.871024 0.137694
vt 0.868253 0.73836
vt 0.871023 0.740653
vt 0.867311 0.137756
vt 0.786805 0.049073
vt 0.43844 0.053223
vt 0.784332 0.051843
vt 0.059571 0.397118
vt 0.060275 0.493982
vt 0.237441 0.123249
vt 0.24224 0.048468
vt 0.757759 0.049041
vt 0.755921 0.117487
vt 0.745512 0.855249
vt 0.181014 0.870914
vt 0.174255 0.9739
vt 0.747858 0.761703
vt 0.23548 0.151453
vt 0.755412 0.142587
vt 0.871024 0.137824
vt 0.24224 0.048468
vt 0.757759 0.049041
vt 0.871024 0.137824
vt 0.871024 0.140358
vt 0.757759 0.049041
vt 0.237441 0.123249
vt 0.24224 0.048468
vt 0.757758 0.049041
vt 0.755921 0.117488
vt 0.119866 0.156368
vt 0.24224 0.048468
vt 0.24224 0.048468
vt 0.119594 0.159597
vt 0.237441 0.123249
vt 0.179054 0.899119
vt 0.058131 0.888619
vt 0.174255 0.9739
vt 0.174255 0.9739
vt 0.057852 0.891933
vn 0.8755786 0.341586 -0.341586
vn 0.341586 0.8755786 -0.341586
vn 0.341586 0.341586 -0.8755786
vn 0.8755786 -0.341586 -0.341586
vn 0.341586 -0.341586 -0.8755786
vn 0.341586 -0.8755786 -0.341586
vn -0.8755786 -0.341586 -0.341586
vn -0.341586 -0.8755786 -0.341586
vn -0.341586 -0.341586 -0.8755786
vn -0.8755783 -0.3415858 0.3415871
vn -0.3415851 -0.3415851 0.8755795
vn -0.3415858 -0.8755783 0.3415871
vn 0.8755783 0.3415858 0.3415871
vn 0.3415851 0.3415851 0.8755795
vn 0.3415858 0.8755783 0.3415871
vn -0.8755783 0.3415858 0.3415871
vn -0.3415858 0.8755783 0.3415871
vn -0.3415851 0.3415851 0.8755795
vn 0.341586 -0.341586 -0.8755786
vn 0.8755786 -0.341586 -0.341586
vn 0.8755786 0.341586 -0.341586
vn -0.341586 -0.8755786 -0.341586
vn 0.3826834 -0.9238795 0
vn 0.341586 -0.8755786 -0.341586
vn -0.3826834 -0.9238795 0
vn 0.3415858 -0.8755783 0.3415871
vn -0.3415858 -0.8755783 0.3415871
vn 0.3424122 0.8537126 0.3923374
vn 0.3469216 0.521467 0.7795624
vn -0.3469216 0.521467 0.7795625
vn -0.3424122 0.8537126 0.3923374
vn 0.8779324 0.1733533 0.4462996
vn 0.8768891 0.4806575 0.005821456
vn 0.3469216 0.521467 0.7795624
vn 0.3469249 0.1414662 0.9271625
vn 0.949419 -0.2924764 0.1142852
vn 0.4297577 -0.5331048 0.7287714
vn -0.3469249 0.1414662 0.9271625
vn -0.4297576 -0.5331048 0.7287713
vn -0.3469216 0.521467 0.7795625
vn -0.8779324 0.1733533 0.4462996
vn 0.8745631 0.004886949 -0.4848871
vn 0.949419 -0.2924764 0.1142852
vn 0.8779324 0.1733533 0.4462996
vn 0.8768891 0.4806575 0.005821456
vn 0.3409699 0.3825468 -0.8587186
vn 0.3409703 -0.3651692 -0.866251
vn 0.3424158 0.8629487 -0.371579
vn 0.3424122 0.8537126 0.3923374
vn 0.8745631 0.004886949 -0.4848871
vn 0.429758 -0.8859612 -0.1743013
vn 0.949419 -0.2924764 0.1142852
vn 0.4297577 -0.5331048 0.7287714
vn 0.6378781 -0.3805903 0.6695241
vn 0.521456 0.3469261 0.7795677
vn 0.6378781 0.3805903 0.6695241
vn 0.521456 -0.3469261 0.7795677
vn 0.141455 0.3469273 0.9271634
vn 0.1733472 0.8779353 0.4462962
vn 0.141455 -0.3469273 0.9271634
vn 0.1733472 -0.8779353 0.4462962
vn -0.5331048 -0.4297577 0.7287714
vn -0.5331048 0.4297577 0.7287714
vn -0.8768891 0.4806575 0.005821456
vn -0.949419 -0.2924765 0.1142851
vn -0.874563 0.004886889 -0.4848872
vn -0.8779324 0.1733533 0.4462996
vn -0.3469216 0.521467 0.7795625
vn -0.3424122 0.8537126 0.3923374
vn -0.4297576 -0.5331048 0.7287713
vn -0.3469249 0.1414662 0.9271625
vn -0.949419 -0.2924765 0.1142851
vn -0.4297579 -0.8859612 -0.1743013
vn -0.3409701 -0.3651693 -0.866251
vn -0.4297579 -0.8859612 -0.1743013
vn 0.429758 -0.8859612 -0.1743013
vn 0.3409703 -0.3651692 -0.866251
vn -0.3409699 0.3825467 -0.8587186
vn -0.874563 0.004886889 -0.4848872
vn -0.2621898 -0.9256042 -0.2729713
vn -0.2924769 -0.9494189 0.1142847
vn 0.1733472 -0.8779353 0.4462962
vn 0.2674437 -0.921778 0.2807121
vn 0.2674437 0.921778 0.2807121
vn -0.2924769 0.9494189 0.1142847
vn -0.2621898 0.9256043 -0.2729714
vn 0.1733472 0.8779353 0.4462962
vn 0.521456 0.3469261 0.7795677
vn 0.6378781 0.3805903 0.6695241
vn -0.5331048 0.4297577 0.7287714
vn 0.141455 0.3469273 0.9271634
vn -0.2924769 0.9494189 0.1142847
vn -0.8859612 0.4297578 -0.1743015
vn -0.6394923 0.3844152 -0.6657888
vn -0.8859612 -0.4297578 -0.1743015
vn -0.6394923 -0.3844151 -0.6657887
vn -0.8859612 0.4297578 -0.1743015
vn -0.2924769 0.9494189 0.1142847
vn -0.2621898 0.9256043 -0.2729714
vn -0.341586 0.8755786 -0.341586
vn -0.8755786 0.341586 -0.341586
vn -0.341586 0.341586 -0.8755786
vn -0.3826834 0.9238795 0
vn -0.9238795 0.3826834 0
vn 0.341586 0.8755786 -0.341586
vn 0.3826834 0.9238795 0
vn -0.3415858 0.8755783 0.3415871
vn 0.3415858 0.8755783 0.3415871
vn 0.9238795 0.3826834 0
vn 0.8755786 0.341586 -0.341586
vn 0.8755783 0.3415858 0.3415871
vn 0.8755783 -0.3415858 0.3415871
vn 0.3415858 -0.8755783 0.3415871
vn 0.3415851 -0.3415851 0.8755795
vn 0.9238795 -0.3826834 0
vn 0.3826834 -0.9238795 0
vn 0.8755783 0.3415858 0.3415871
vn 0.9238795 0.3826834 0
vn 0.8755786 -0.341586 -0.341586
vn 0.8755786 0.341586 -0.341586
vn -0.9238795 0.3826834 0
vn -0.3826834 0.9238795 0
vn -0.3415858 0.8755783 0.3415871
vn -0.8755783 0.3415858 0.3415871
vn -0.3424122 0.8537126 0.3923374
vn -0.8768891 0.4806575 0.005821456
vn -0.3424158 0.8629487 -0.3715789
vn -0.874563 0.004886889 -0.4848872
vn 0.341586 -0.341586 -0.8755786
vn 0.8755786 0.341586 -0.341586
vn 0.341586 0.341586 -0.8755786
vn -0.341586 -0.341586 -0.8755786
vn 0.341586 -0.8755786 -0.341586
vn -0.341586 -0.8755786 -0.341586
vn -0.341586 0.341586 -0.8755786
vn -0.8755786 -0.341586 -0.341586
vn -0.8755786 0.341586 -0.341586
vn -0.341586 0.8755786 -0.341586
vn 0.341586 0.8755786 -0.341586
vn -0.3415851 -0.3415851 0.8755795
vn -0.8755783 -0.3415858 0.3415871
vn -0.8755783 0.3415858 0.3415871
vn -0.3415851 0.3415851 0.8755795
vn 0.3415851 -0.3415851 0.8755795
vn 0.3415851 0.3415851 0.8755795
vn 0.8755783 -0.3415858 0.3415871
vn 0.8755783 0.3415858 0.3415871
vn 0.3415858 0.8755783 0.3415871
vn -0.3415858 0.8755783 0.3415871
vn 0.3415851 -0.3415851 0.8755795
vn 0.3415858 -0.8755783 0.3415871
vn -0.3415858 -0.8755783 0.3415871
vn -0.3415851 -0.3415851 0.8755795
vn 0.3826834 -0.9238795 0
vn 0.9238795 -0.3826834 0
vn 0.8755786 -0.341586 -0.341586
vn 0.341586 -0.8755786 -0.341586
vn -0.8755783 -0.3415858 0.3415871
vn -0.9238795 0.3826834 0
vn -0.8755783 0.3415858 0.3415871
vn -0.9238795 -0.3826834 0
vn -0.3415858 -0.8755783 0.3415871
vn -0.8755786 0.341586 -0.341586
vn -0.3826834 -0.9238795 0
vn -0.8755786 -0.341586 -0.341586
vn -0.341586 -0.8755786 -0.341586
vn 0.4297577 -0.5331048 0.7287714
vn 0.429758 -0.8859612 -0.1743013
vn -0.4297579 -0.8859612 -0.1743013
vn -0.4297576 -0.5331048 0.7287713
vn -0.3424122 0.8537126 0.3923374
vn 0.3424158 0.8629487 -0.371579
vn 0.3424122 0.8537126 0.3923374
vn -0.3424158 0.8629487 -0.3715789
vn 0.3409699 0.3825468 -0.8587186
vn -0.3409699 0.3825467 -0.8587186
vn -0.874563 0.004886889 -0.4848872
vn 0.3409703 -0.3651692 -0.866251
vn -0.3409701 -0.3651693 -0.866251
vn -0.874563 0.004886889 -0.4848872
vn -0.949419 -0.2924765 0.1142851
vn -0.4297579 -0.8859612 -0.1743013
vn -0.5331048 -0.4297577 0.7287714
vn -0.8859612 -0.4297578 -0.1743015
vn -0.8859612 0.4297578 -0.1743015
vn -0.5331048 0.4297577 0.7287714
vn -0.2621898 -0.9256042 -0.2729713
vn -0.6394923 -0.3844151 -0.6657887
vn -0.8859612 -0.4297578 -0.1743015
vn -0.2924769 -0.9494189 0.1142847
vn -0.5331048 -0.4297577 0.7287714
vn 0.141455 -0.3469273 0.9271634
vn 0.1733472 -0.8779353 0.4462962
vn 0.521456 -0.3469261 0.7795677
vn 0.6378781 -0.3805903 0.6695241
vn 0.2674437 -0.921778 0.2807121
g SingleStrut_0
f 3/3/3 2/2/2 1/1/1
f 6/6/6 5/5/5 4/4/4
f 9/9/9 8/8/8 7/7/7
f 12/12/12 11/11/11 10/10/10
f 15/15/15 14/14/14 13/13/13
f 18/18/18 17/17/17 16/16/16
f 21/21/21 20/20/20 19/19/19
f 24/24/24 23/23/23 22/22/22
f 23/23/23 25/25/25 22/22/22
f 25/25/25 23/23/23 26/26/26
f 27/27/27 25/25/25 26/26/26
f 30/30/30 29/29/29 28/28/28
f 31/31/31 30/30/30 28/28/28
f 33/33/33 28/28/28 32/32/32
f 28/28/28 34/34/34 32/32/32
f 34/34/34 35/35/35 32/32/32
f 36/36/36 32/32/32 35/35/35
f 37/37/37 36/36/36 35/35/35
f 35/35/35 34/34/34 38/38/38
f 37/37/37 35/35/35 38/38/38
f 39/39/39 37/37/37 38/38/38
f 34/34/34 40/40/40 38/38/38
f 41/41/41 38/38/38 40/40/40
f 44/44/44 43/43/43 42/42/42
f 45/45/45 44/44/44 42/42/42
f 42/42/42 46/46/46 45/45/45
f 46/46/46 42/42/42 47/47/47
f 46/46/46 48/48/48 45/45/45
f 45/45/45 48/48/48 49/49/49
f 51/51/51 47/47/47 50/50/50
f 52/52/52 51/51/51 50/50/50
f 53/53/53 51/51/51 52/52/52
f 56/56/56 55/55/55 54/54/54
f 55/55/55 57/57/57 54/54/54
f 57/57/57 55/55/55 58/58/58
f 59/59/59 58/58/58 55/55/55
f 60/60/60 57/57/57 58/58/58
f 57/57/57 60/60/60 61/61/61
f 62/62/62 60/60/60 58/58/58
f 63/63/63 62/62/62 58/58/58
f 66/66/66 65/65/65 64/64/64
f 65/65/65 67/67/67 64/64/64
f 64/64/64 67/67/67 68/68/68
f 69/69/69 64/64/64 68/68/68
f 71/71/71 67/67/67 70/70/70
f 67/67/67 72/72/72 70/70/70
f 70/70/70 72/72/72 73/73/73
f 76/76/76 75/75/75 74/74/74
f 77/77/77 76/76/76 74/74/74
f 74/74/74 78/78/78 77/77/77
f 79/79/79 78/78/78 74/74/74
f 82/82/82 81/81/81 80/80/80
f 83/83/83 82/82/82 80/80/80
f 86/86/86 85/85/85 84/84/84
f 85/85/85 87/87/87 84/84/84
f 84/84/84 87/87/87 88/88/88
f 89/89/89 84/84/84 88/88/88
f 91/91/91 87/87/87 90/90/90
f 87/87/87 92/92/92 90/90/90
f 90/90/90 92/92/92 93/93/93
f 96/96/96 95/95/95 94/94/94
f 95/95/95 97/97/97 94/94/94
f 97/97/97 98/98/98 94/94/94
f 98/98/98 99/99/99 94/94/94
f 102/102/102 101/101/101 100/100/100
f 100/100/100 101/101/101 103/103/103
f 101/101/101 104/104/104 103/103/103
f 100/100/100 103/103/103 105/105/105
f 103/103/103 106/106/106 105/105/105
f 106/106/106 103/103/103 107/107/107
f 108/108/108 106/106/106 107/107/107
f 106/106/106 109/109/109 105/105/105
f 106/106/106 108/108/108 109/109/109
f 109/109/109 110/110/110 105/105/105
f 108/108/108 111/111/111 109/109/109
f 114/114/114 113/113/113 112/112/112
f 112/112/112 113/113/113 115/115/115
f 113/113/113 116/116/116 115/115/115
f 112/112/112 115/115/115 117/117/117
f 115/115/115 118/118/118 117/117/117
f 118/118/118 115/115/115 119/119/119
f 120/120/120 118/118/118 119/119/119
f 123/123/123 122/122/122 121/121/121
f 124/124/124 123/123/123 121/121/121
f 127/127/127 126/126/126 125/125/125
f 126/126/126 127/127/127 128/128/128
f 131/131/131 130/130/130 129/129/129
f 129/129/129 132/132/132 131/131/131
f 129/129/129 133/133/133 132/132/132
f 133/133/133 134/134/134 132/132/132
f 132/132/132 135/135/135 131/131/131
f 132/132/132 136/136/136 135/135/135
f 136/136/136 137/137/137 135/135/135
f 135/135/135 138/138/138 131/131/131
f 138/138/138 139/139/139 131/131/131
f 142/142/142 141/141/141 140/140/140
f 143/143/143 142/142/142 140/140/140
f 140/140/140 144/144/144 143/143/143
f 144/144/144 145/145/145 143/143/143
f 144/144/144 146/146/146 145/145/145
f 146/146/146 147/147/147 145/145/145
f 145/145/145 148/148/148 143/143/143
f 148/148/148 149/149/149 143/143/143
f 152/152/152 151/151/151 150/150/150
f 153/153/153 152/152/152 150/150/150
f 156/156/156 155/155/155 154/154/154
f 157/157/157 156/156/156 154/154/154
f 160/160/160 159/159/159 158/158/158
f 159/159/159 161/161/161 158/158/158
f 162/162/162 158/158/158 161/161/161
f 161/161/161 159/159/159 163/163/163
f 164/164/164 162/162/162 161/161/161
f 165/165/165 161/161/161 163/163/163
f 164/164/164 161/161/161 166/166/166
f 161/161/161 165/165/165 166/166/166
f 169/169/169 168/168/168 167/167/167
f 170/170/170 169/169/169 167/167/167
f 173/173/173 172/172/172 171/171/171
f 172/172/172 174/174/174 171/171/171
f 172/172/172 175/175/175 174/174/174
f 175/175/175 176/176/176 174/174/174
f 174/174/174 176/176/176 177/177/177
f 176/176/176 175/175/175 178/178/178
f 181/181/181 180/180/180 179/179/179
f 182/182/182 181/181/181 179/179/179
f 185/185/185 184/184/184 183/183/183
f 186/186/186 185/185/185 183/183/183
f 189/189/189 188/188/188 187/187/187
f 190/190/190 189/189/189 187/187/187
f 191/191/191 189/189/189 190/190/190
f 191/191/191 190/190/190 192/192/192
f 190/190/190 193/193/193 192/192/192
f 195/195/195 194/194/194 193/193/193
f 196/196/196 195/195/195 193/193/193
