g Slash
v -0.855252 -0.277888 0
v -1.902112 -0.618034 0
v -1.902114 0.618034 0
v -0.855252 0.277888 0
v -1.17557 1.618034 0
v -0.528574 0.72752 0
v 0 2 0
v 0 0.899264 0
v 1.17557 1.618034 0
v 0.528574 0.72752 0
v 1.902112 0.618034 0
v 0.855252 0.277888 0
v 0.528574 0.72752 0
v 0.855252 0.277888 0
v 1.902112 0.618034 0
v 1.17557 1.618034 0
v 0 0.899264 0
v 0 2 0
v -0.528574 0.72752 0
v -1.17557 1.618034 0
v -0.855252 0.277888 0
v -1.902114 0.618034 0
v -0.855252 -0.277888 0
v -1.902112 -0.618034 0
vt 0.275215 0.000203
vt 6.9E-05 6.9E-05
vt 0.095404 0.293967
vt 0.31808 0.132349
vt 0.345281 0.4757
vt 0.430433 0.214062
vt 0.654255 0.475851
vt 0.569358 0.21413
vt 0.904309 0.294362
vt 0.68179 0.132527
vt 0.999931 0.000557
vt 0.724785 0.000423
vt 0.68884 0.452266
vt 0.822475 0.414296
vt 0.975783 0.642773
vt 0.678573 0.72722
vt 0.414338 0.477663
vt 0.499235 0.739384
vt 0.287815 0.35358
vt 0.202663 0.615218
vt 0.23437 0.172654
vt 0.011693 0.334273
vt 0.275215 0.000203
vt 6.9E-05 6.9E-05
vn 0 0 1
vn 0 0 1
vn 0 0 1
vn 0 0 1
vn 0 0 1
vn 0 0 1
vn 0 0 1
vn 0 0 1
vn 0 0 1
vn 0 0 1
vn 0 0 1
vn 0 0 1
vn 0 0 -1
vn 0 0 -1
vn 0 0 -1
vn 0 0 -1
vn 0 0 -1
vn 0 0 -1
vn 0 0 -1
vn 0 0 -1
vn 0 0 -1
vn 0 0 -1
vn 0 0 -1
vn 0 0 -1
g Slash_0
f 3/3/3 2/2/2 1/1/1
f 4/4/4 3/3/3 1/1/1
f 5/5/5 3/3/3 4/4/4
f 6/6/6 5/5/5 4/4/4
f 7/7/7 5/5/5 6/6/6
f 8/8/8 7/7/7 6/6/6
f 9/9/9 7/7/7 8/8/8
f 10/10/10 9/9/9 8/8/8
f 11/11/11 9/9/9 10/10/10
f 12/12/12 11/11/11 10/10/10
f 15/15/15 14/14/14 13/13/13
f 16/16/16 15/15/15 13/13/13
f 16/16/16 13/13/13 17/17/17
f 18/18/18 16/16/16 17/17/17
f 18/18/18 17/17/17 19/19/19
f 20/20/20 18/18/18 19/19/19
f 20/20/20 19/19/19 21/21/21
f 22/22/22 20/20/20 21/21/21
f 22/22/22 21/21/21 23/23/23
f 24/24/24 22/22/22 23/23/23
