g SouthCityFence
v 0 0 -0.133266
v -3.197258 0 -0.133266
v -3.197258 0 2.511497
v 0 0 2.511497
v -3.098445 0.133839 -0.133266
v -3.098445 0.133839 2.665569
v -3.28793 0.133839 2.665569
v -3.28793 0.133839 -0.133266
v -3.098445 -0.054309 -0.133266
v -3.28793 -0.054309 -0.133266
v -3.28793 -0.054309 2.665569
v -3.098445 -0.054309 2.665569
v -3.098445 0.133839 2.665569
v -3.098445 -0.054309 2.665569
v -3.28793 -0.054309 2.665569
v -3.28793 0.133839 2.665569
v -3.28793 0.133839 2.665569
v -3.28793 -0.054309 2.665569
v -3.28793 -0.054309 -0.133266
v -3.28793 0.133839 -0.133266
v -3.098445 0.133839 -0.133266
v -3.098445 -0.054309 -0.133266
v -3.098445 -0.054309 2.665569
v -3.098445 0.133839 2.665569
v -3.28793 0.133839 -0.133266
v -3.28793 -0.054309 -0.133266
v -3.098445 -0.054309 -0.133266
v -3.098445 0.133839 -0.133266
v 0 0.097746 2.430646
v 0 0.097746 2.541544
v -3.126789 0.097745 2.541544
v -3.126789 0.097745 2.430646
v 0 -0.018215 2.430646
v -3.126789 -0.018216 2.430646
v -3.126789 -0.018216 2.541544
v 0 -0.018215 2.541544
v 0 0.097746 2.541544
v -3.126789 -0.018216 2.541544
v -3.126789 0.097745 2.541544
v 0 -0.018215 2.541544
v 3.126789 -0.018216 2.541544
v 3.126789 0.097745 2.541544
v -3.126789 0.097745 2.430646
v -3.126789 -0.018216 2.430646
v 0 -0.018215 2.430646
v 0 0.097746 2.430646
v 3.126789 0.097745 2.430646
v 3.126789 -0.018216 2.430646
v 0 0 -0.133266
v 0 0 2.511497
v -3.197258 0 2.511497
v -3.197258 0 -0.133266
v 0 0 -0.133266
v 0 0 2.511497
v 3.197258 0 2.511497
v 3.197258 0 -0.133266
v 3.098445 0.133839 -0.133266
v 3.28793 0.133839 -0.133266
v 3.28793 0.133839 2.665569
v 3.098445 0.133839 2.665569
v 3.098445 -0.054309 -0.133266
v 3.098445 -0.054309 2.665569
v 3.28793 -0.054309 2.665569
v 3.28793 -0.054309 -0.133266
v 3.098445 0.133839 2.665569
v 3.28793 0.133839 2.665569
v 3.28793 -0.054309 2.665569
v 3.098445 -0.054309 2.665569
v 3.28793 0.133839 2.665569
v 3.28793 0.133839 -0.133266
v 3.28793 -0.054309 -0.133266
v 3.28793 -0.054309 2.665569
v 3.098445 0.133839 -0.133266
v 3.098445 0.133839 2.665569
v 3.098445 -0.054309 2.665569
v 3.098445 -0.054309 -0.133266
v 3.28793 0.133839 -0.133266
v 3.098445 0.133839 -0.133266
v 3.098445 -0.054309 -0.133266
v 3.28793 -0.054309 -0.133266
v 0 0.097746 2.430646
v 3.126789 0.097745 2.430646
v 3.126789 0.097745 2.541544
v 0 0.097746 2.541544
v 0 -0.018215 2.430646
v 0 -0.018215 2.541544
v 3.126789 -0.018216 2.541544
v 3.126789 -0.018216 2.430646
v 0 0 -0.133266
v 3.197258 0 -0.133266
v 3.197258 0 2.511497
v 0 0 2.511497
vt 0.291769 0.078232
vt 0.068522 0.078233
vt 0.068522 0.363756
vt 0.291769 0.363756
vt 0.184663 0.782987
vt 0.184663 0.861954
vt 0.122921 0.861954
vt 0.122921 0.782987
vt 0.184663 0.782987
vt 0.122921 0.782987
vt 0.122921 0.861954
vt 0.184663 0.861954
vt 0.145909 0.75344
vt 0.145909 0.75344
vt 0.084166 0.75344
vt 0.084166 0.75344
vt 0.122921 0.861954
vt 0.122921 0.861954
vt 0.122921 0.782987
vt 0.122921 0.782987
vt 0.184663 0.782987
vt 0.184663 0.782987
vt 0.184663 0.861954
vt 0.184663 0.861954
vt 0.084166 0.674473
vt 0.084166 0.674473
vt 0.145909 0.674473
vt 0.145909 0.674473
vt 0.184663 0.782987
vt 0.184663 0.861954
vt 0.122921 0.861954
vt 0.122921 0.782987
vt 0.184663 0.782987
vt 0.122921 0.782987
vt 0.122921 0.861954
vt 0.184663 0.861954
vt 0.145909 0.75344
vt 0.084166 0.75344
vt 0.084166 0.75344
vt 0.145909 0.75344
vt 0.084166 0.75344
vt 0.084166 0.75344
vt 0.122921 0.782987
vt 0.122921 0.782987
vt 0.184663 0.782987
vt 0.184663 0.782987
vt 0.122921 0.782987
vt 0.122921 0.782987
vt 0.291769 0.078232
vt 0.291769 0.363756
vt 0.068522 0.363756
vt 0.068522 0.078233
vt 0.291769 0.078232
vt 0.291769 0.363756
vt 0.068522 0.363756
vt 0.068522 0.078233
vt 0.184663 0.782987
vt 0.122921 0.782987
vt 0.122921 0.861954
vt 0.184663 0.861954
vt 0.184663 0.782987
vt 0.184663 0.861954
vt 0.122921 0.861954
vt 0.122921 0.782987
vt 0.145909 0.75344
vt 0.084166 0.75344
vt 0.084166 0.75344
vt 0.145909 0.75344
vt 0.122921 0.861954
vt 0.122921 0.782987
vt 0.122921 0.782987
vt 0.122921 0.861954
vt 0.184663 0.782987
vt 0.184663 0.861954
vt 0.184663 0.861954
vt 0.184663 0.782987
vt 0.084166 0.674473
vt 0.145909 0.674473
vt 0.145909 0.674473
vt 0.084166 0.674473
vt 0.184663 0.782987
vt 0.122921 0.782987
vt 0.122921 0.861954
vt 0.184663 0.861954
vt 0.184663 0.782987
vt 0.184663 0.861954
vt 0.122921 0.861954
vt 0.122921 0.782987
vt 0.291769 0.078232
vt 0.068522 0.078233
vt 0.068522 0.363756
vt 0.291769 0.363756
vn 0 -1 0
vn 0 -1 0
vn 0 -1 0
vn 0 -1 0
vn 0 1 0
vn 0 1 0
vn 0 1 0
vn 0 1 0
vn 0 -1 0
vn 0 -1 0
vn 0 -1 0
vn 0 -1 0
vn 0 0 1
vn 0 0 1
vn 0 0 1
vn 0 0 1
vn -1 0 0
vn -1 0 0
vn -1 0 0
vn -1 0 0
vn 1 0 0
vn 1 0 0
vn 1 0 0
vn 1 0 0
vn 0 0 -1
vn 0 0 -1
vn 0 0 -1
vn 0 0 -1
vn 0 1 0
vn 0 1 0
vn 0 1 0
vn 0 1 0
vn 0 -1 0
vn 0 -1 0
vn 0 -1 0
vn 0 -1 0
vn 0 0 1
vn 0 0 1
vn 0 0 1
vn 0 0 1
vn 0 0 1
vn 0 0 1
vn 0 0 -1
vn 0 0 -1
vn 0 0 -1
vn 0 0 -1
vn 0 0 -1
vn 0 0 -1
vn 0 1 0
vn 0 1 0
vn 0 1 0
vn 0 1 0
vn 0 -1 0
vn 0 -1 0
vn 0 -1 0
vn 0 -1 0
vn 0 1 0
vn 0 1 0
vn 0 1 0
vn 0 1 0
vn 0 -1 0
vn 0 -1 0
vn 0 -1 0
vn 0 -1 0
vn 0 0 1
vn 0 0 1
vn 0 0 1
vn 0 0 1
vn 1 0 0
vn 1 0 0
vn 1 0 0
vn 1 0 0
vn -1 0 0
vn -1 0 0
vn -1 0 0
vn -1 0 0
vn 0 0 -1
vn 0 0 -1
vn 0 0 -1
vn 0 0 -1
vn 0 1 0
vn 0 1 0
vn 0 1 0
vn 0 1 0
vn 0 -1 0
vn 0 -1 0
vn 0 -1 0
vn 0 -1 0
vn 0 1 0
vn 0 1 0
vn 0 1 0
vn 0 1 0
g SouthCityFence_0
f 3/3/3 2/2/2 1/1/1
f 4/4/4 3/3/3 1/1/1
f 7/7/7 6/6/6 5/5/5
f 8/8/8 7/7/7 5/5/5
f 11/11/11 10/10/10 9/9/9
f 12/12/12 11/11/11 9/9/9
f 15/15/15 14/14/14 13/13/13
f 16/16/16 15/15/15 13/13/13
f 19/19/19 18/18/18 17/17/17
f 20/20/20 19/19/19 17/17/17
f 23/23/23 22/22/22 21/21/21
f 24/24/24 23/23/23 21/21/21
f 27/27/27 26/26/26 25/25/25
f 28/28/28 27/27/27 25/25/25
f 31/31/31 30/30/30 29/29/29
f 32/32/32 31/31/31 29/29/29
f 35/35/35 34/34/34 33/33/33
f 36/36/36 35/35/35 33/33/33
f 39/39/39 38/38/38 37/37/37
f 38/38/38 40/40/40 37/37/37
f 40/40/40 41/41/41 37/37/37
f 41/41/41 42/42/42 37/37/37
f 45/45/45 44/44/44 43/43/43
f 46/46/46 45/45/45 43/43/43
f 45/45/45 46/46/46 47/47/47
f 48/48/48 45/45/45 47/47/47
f 51/51/51 50/50/50 49/49/49
f 52/52/52 51/51/51 49/49/49
f 55/55/55 54/54/54 53/53/53
f 56/56/56 55/55/55 53/53/53
f 59/59/59 58/58/58 57/57/57
f 60/60/60 59/59/59 57/57/57
f 63/63/63 62/62/62 61/61/61
f 64/64/64 63/63/63 61/61/61
f 67/67/67 66/66/66 65/65/65
f 68/68/68 67/67/67 65/65/65
f 71/71/71 70/70/70 69/69/69
f 72/72/72 71/71/71 69/69/69
f 75/75/75 74/74/74 73/73/73
f 76/76/76 75/75/75 73/73/73
f 79/79/79 78/78/78 77/77/77
f 80/80/80 79/79/79 77/77/77
f 83/83/83 82/82/82 81/81/81
f 84/84/84 83/83/83 81/81/81
f 87/87/87 86/86/86 85/85/85
f 88/88/88 87/87/87 85/85/85
f 91/91/91 90/90/90 89/89/89
f 92/92/92 91/91/91 89/89/89
