g StoneSign
v 0.732847 0.134411 -0.00341
v 0.732847 -0.262104 -0.00341
v 0.732847 -0.262104 1.574756
v 0.732847 0.134411 1.574756
v 0.592808 0.134411 1.893231
v 0.592808 -0.262104 1.893231
v 0.254726 0.134411 2.025148
v 0.254726 -0.262104 2.025148
v -0.254726 -0.262104 2.025148
v -0.254726 0.134411 2.025148
v -0.592808 0.134411 1.893231
v -0.592808 -0.262104 1.893231
v -0.732847 0.134411 1.574756
v -0.732847 -0.262104 1.574756
v -0.732847 -0.262104 -0.00341
v -0.732847 0.134411 -0.00341
v -0.732847 0.134411 -0.00341
v -0.732847 -0.262104 -0.00341
v 0.732847 -0.262104 -0.00341
v 0.732847 0.134411 -0.00341
v -0.732847 0.134411 1.574756
v -0.732847 0.134411 -0.00341
v 0.732847 0.134411 -0.00341
v 0.732847 0.134411 1.574756
v -0.592808 0.134411 1.893231
v 0.592808 0.134411 1.893231
v -0.254726 0.134411 2.025148
v 0.254726 0.134411 2.025148
v 0.732847 -0.262104 1.574756
v 0.732847 -0.262104 -0.00341
v -0.732847 -0.262104 -0.00341
v -0.732847 -0.262104 1.574756
v 0.592808 -0.262104 1.893231
v -0.592808 -0.262104 1.893231
v 0.254726 -0.262104 2.025148
v -0.254726 -0.262104 2.025148
vt 0.632337 0.814894
vt 0.632337 0.783347
vt 0.632337 0.783347
vt 0.632337 0.814894
vt 0.607049 0.814894
vt 0.607049 0.783347
vt 0.545998 0.814894
vt 0.545998 0.783347
vt 0.454002 0.783347
vt 0.454002 0.814894
vt 0.392952 0.814894
vt 0.392952 0.783347
vt 0.367664 0.814894
vt 0.367664 0.783347
vt 0.367664 0.783347
vt 0.367664 0.814894
vt 0.367664 0.484851
vt 0.367664 0.484851
vt 0.632337 0.484851
vt 0.632337 0.484851
vt 0.367664 0.677977
vt 0.367664 0.434405
vt 0.632337 0.434405
vt 0.632337 0.677977
vt 0.392952 0.739028
vt 0.607049 0.739028
vt 0.454002 0.764316
vt 0.545998 0.764316
vt 0.632337 0.677977
vt 0.632337 0.434405
vt 0.367664 0.434405
vt 0.367664 0.677977
vt 0.607049 0.739028
vt 0.392952 0.739028
vt 0.545998 0.764316
vt 0.454002 0.764316
vn 1 0 0
vn 1 0 0
vn 0.9972852 0 0.0736348
vn 0.9972852 0 0.0736348
vn 0.685684 0 0.7278993
vn 0.685684 0 0.7278993
vn 0.1537961 0 0.9881026
vn 0.1537961 0 0.9881026
vn -0.1537961 0 0.9881026
vn -0.1537961 0 0.9881026
vn -0.685684 0 0.7278993
vn -0.685684 0 0.7278993
vn -0.9972852 0 0.0736348
vn -0.9972852 0 0.0736348
vn -1 0 0
vn -1 0 0
vn 0 0 -1
vn 0 0 -1
vn 0 0 -1
vn 0 0 -1
vn 0 1 0
vn 0 1 0
vn 0 1 0
vn 0 1 0
vn 0 1 0
vn 0 1 0
vn 0 1 0
vn 0 1 0
vn 0 -1 0
vn 0 -1 0
vn 0 -1 0
vn 0 -1 0
vn 0 -1 0
vn 0 -1 0
vn 0 -1 0
vn 0 -1 0
g StoneSign_0
f 3/3/3 2/2/2 1/1/1
f 4/4/4 3/3/3 1/1/1
f 3/3/3 4/4/4 5/5/5
f 6/6/6 3/3/3 5/5/5
f 6/6/6 5/5/5 7/7/7
f 8/8/8 6/6/6 7/7/7
f 9/9/9 8/8/8 7/7/7
f 10/10/10 9/9/9 7/7/7
f 10/10/10 11/11/11 9/9/9
f 11/11/11 12/12/12 9/9/9
f 11/11/11 13/13/13 12/12/12
f 13/13/13 14/14/14 12/12/12
f 14/14/14 13/13/13 15/15/15
f 13/13/13 16/16/16 15/15/15
f 19/19/19 18/18/18 17/17/17
f 20/20/20 19/19/19 17/17/17
f 23/23/23 22/22/22 21/21/21
f 21/21/21 24/24/24 23/23/23
f 21/21/21 25/25/25 24/24/24
f 25/25/25 26/26/26 24/24/24
f 25/25/25 27/27/27 26/26/26
f 27/27/27 28/28/28 26/26/26
f 31/31/31 30/30/30 29/29/29
f 29/29/29 32/32/32 31/31/31
f 29/29/29 33/33/33 32/32/32
f 33/33/33 34/34/34 32/32/32
f 33/33/33 35/35/35 34/34/34
f 35/35/35 36/36/36 34/34/34
