g StoneFenceSide_001
v 0.274804 -0.251353 1.322912
v 1.00973 -0.257809 -0.012548
v 0.279217 -0.257809 -0.014902
v 1.005317 -0.251353 1.325266
v 1.00497 -0.192671 1.43059
v 0.274457 -0.192671 1.428236
v 0.279217 0.257809 -0.014902
v 1.00973 0.257809 -0.012548
v 1.005317 0.251353 1.325266
v 0.274804 0.251353 1.322912
v 0.274457 0.192671 1.428236
v 1.00497 0.192671 1.43059
v 1.00973 0.257809 -0.012548
v 1.00973 -0.257809 -0.012548
v 1.005317 -0.251353 1.325266
v 1.00497 -0.192671 1.43059
v 1.004826 -0.052017 1.474217
v 1.004826 0.052017 1.474217
v 1.00497 0.192671 1.43059
v 1.005317 0.251353 1.325266
v 0.279217 -0.257809 -0.014902
v 1.00973 -0.257809 -0.012548
v 1.00973 0.257809 -0.012548
v 0.279217 0.257809 -0.014902
v 0.274804 -0.251353 1.322912
v 0.279217 -0.257809 -0.014902
v 0.279217 0.257809 -0.014902
v 0.274457 -0.192671 1.428236
v 0.274313 -0.052017 1.471863
v 0.274313 0.052017 1.471863
v 0.274457 0.192671 1.428236
v 0.274804 0.251353 1.322912
v 1.004826 -0.052017 1.474217
v 1.00497 -0.192671 1.43059
v 0.274457 -0.192671 1.428236
v 0.274313 -0.052017 1.471863
v 0.274313 0.052017 1.471863
v 1.004826 0.052017 1.474217
v 1.00497 0.192671 1.43059
v 0.274457 0.192671 1.428236
vt 0.405752 0.881097
vt 0.497222 0.712454
vt 0.40528 0.712719
vt 0.497694 0.880832
vt 0.497747 0.89958
vt 0.405805 0.899844
vt 0.626908 0.71272
vt 0.534965 0.712454
vt 0.534492 0.880833
vt 0.626434 0.881098
vt 0.626381 0.899845
vt 0.534439 0.89958
vt 0.534965 0.712454
vt 0.497222 0.712454
vt 0.497694 0.880832
vt 0.501989 0.894089
vt 0.512285 0.89958
vt 0.5199 0.89958
vt 0.530196 0.894089
vt 0.534492 0.880833
vt 0.344713 0.000389
vt 0.344713 0.000389
vt 0.5 8.8E-05
vt 0.5 8.8E-05
vt 0.407965 0.88275
vt 0.406193 0.711995
vt 0.489861 0.711921
vt 0.417544 0.896185
vt 0.440391 0.901734
vt 0.457272 0.901718
vt 0.480072 0.89613
vt 0.489537 0.882678
vt 0.518294 0.926482
vt 0.518294 0.900999
vt 0.427563 0.900999
vt 0.427563 0.926482
vt 0.427563 0.93983
vt 0.518294 0.93983
vt 0.518294 0.965313
vt 0.427564 0.965313
vn -0.00014531 -0.9989827 0.04509328
vn -1.555056E-05 -0.9999884 0.004825688
vn -1.555056E-05 -0.9999884 0.004825688
vn -0.0001452887 -0.9989831 0.04508668
vn -0.002581324 -0.5985929 0.8010493
vn -0.002581366 -0.5985755 0.8010622
vn -1.555056E-05 0.9999884 0.004825688
vn -1.555056E-05 0.9999884 0.004825688
vn -0.0001452887 0.9989831 0.04508668
vn -0.00014531 0.9989827 0.04509328
vn -0.002581365 0.5985755 0.8010622
vn -0.002581324 0.5985929 0.8010493
vn 0.9999946 0 0.003298629
vn 0.9999946 0 0.003298654
vn 0.9999946 0 0.003297797
vn 0.9999946 0 0.003298228
vn 0.9999946 0 0.003298527
vn 0.9999946 0 0.003298391
vn 0.9999946 0 0.003298365
vn 0.9999946 0 0.003298688
vn 0.003222378 0 -0.9999949
vn 0.003222378 0 -0.9999949
vn 0.003222378 0 -0.9999949
vn 0.003222378 0 -0.9999949
vn -0.9999946 0 -0.003297735
vn -0.9999946 0 -0.003298654
vn -0.9999946 0 -0.003298626
vn -0.9999946 0 -0.003298187
vn -0.9999946 0 -0.003298508
vn -0.9999946 0 -0.003298371
vn -0.9999946 0 -0.003298346
vn -0.9999946 0 -0.00329869
vn -0.003172381 -0.1755304 0.9844689
vn -0.002581324 -0.5985929 0.8010493
vn -0.002581366 -0.5985755 0.8010622
vn -0.003172382 -0.1755283 0.9844694
vn -0.003172382 0.1755283 0.9844694
vn -0.00317238 0.1755304 0.9844689
vn -0.002581324 0.5985929 0.8010493
vn -0.002581365 0.5985755 0.8010622
g StoneFenceSide_001_0
f 3/3/3 2/2/2 1/1/1
f 2/2/2 4/4/4 1/1/1
f 1/1/1 4/4/4 5/5/5
f 6/6/6 1/1/1 5/5/5
f 9/9/9 8/8/8 7/7/7
f 10/10/10 9/9/9 7/7/7
f 9/9/9 10/10/10 11/11/11
f 12/12/12 9/9/9 11/11/11
f 15/15/15 14/14/14 13/13/13
f 13/13/13 16/16/16 15/15/15
f 13/13/13 17/17/17 16/16/16
f 13/13/13 18/18/18 17/17/17
f 13/13/13 19/19/19 18/18/18
f 13/13/13 20/20/20 19/19/19
f 23/23/23 22/22/22 21/21/21
f 24/24/24 23/23/23 21/21/21
f 27/27/27 26/26/26 25/25/25
f 25/25/25 28/28/28 27/27/27
f 28/28/28 29/29/29 27/27/27
f 29/29/29 30/30/30 27/27/27
f 30/30/30 31/31/31 27/27/27
f 31/31/31 32/32/32 27/27/27
f 35/35/35 34/34/34 33/33/33
f 36/36/36 35/35/35 33/33/33
f 36/36/36 33/33/33 37/37/37
f 33/33/33 38/38/38 37/37/37
f 38/38/38 39/39/39 37/37/37
f 39/39/39 40/40/40 37/37/37
