g SuperHeroMask
v -0.069953 -0.385949 0.326218
v -0.069953 -0.3597 0.345141
v -0.069765 -0.357836 0.333101
v -0.069953 -0.385949 0.326218
v -0.069765 -0.357836 0.333101
v -0.069765 -0.384085 0.333101
v -0.069765 -0.357836 0.333101
v -0.069816 -0.357688 0.38995
v -0.069816 -0.383936 0.38995
v 0.069953 -0.385949 0.326218
v 0.069765 -0.384085 0.333101
v 0.069765 -0.357836 0.333101
v 0.069816 -0.383936 0.38995
v 0.069816 -0.357688 0.38995
v 0.069765 -0.357836 0.333101
v 0.069953 -0.385949 0.326218
v 0.069765 -0.357836 0.333101
v 0.069953 -0.3597 0.345141
v -0.087848 -0.368455 0.506236
v -0.260206 -0.317781 0.492389
v -0.251739 -0.299353 0.502174
v -0.101446 -0.384724 0.491125
v 0 -0.379122 0.48752
v 0 -0.394666 0.480481
v -0.219562 -0.338972 0.413977
v -0.226434 -0.334956 0.404557
v -0.116139 -0.380146 0.412993
v -0.289465 -0.301759 0.452988
v -0.069816 -0.383936 0.38995
v -0.22545 -0.336106 0.353938
v 0 -0.395941 0.330784
v -0.28758 -0.303558 0.339751
v -0.069765 -0.384085 0.333101
v 0 -0.397215 0.293599
v -0.203799 -0.349885 0.307733
v -0.069953 -0.385949 0.326218
v -0.082284 -0.378662 0.244229
v -0.247664 -0.328191 0.255339
v -0.110544 -0.374879 0.304711
v -0.069953 -0.3597 0.345141
v -0.189966 -0.362703 0.227347
v -0.110544 -0.34863 0.323634
v -0.176566 -0.366859 0.294348
v -0.176566 -0.34061 0.313271
v -0.203799 -0.323637 0.326656
v -0.247622 -0.307799 0.247012
v -0.247664 -0.328191 0.255339
v -0.189966 -0.362703 0.227347
v -0.185717 -0.344828 0.216978
v -0.082284 -0.378662 0.244229
v -0.073827 -0.361951 0.235601
v 0 -0.397215 0.293599
v 0 -0.381857 0.286551
v -0.251739 -0.299353 0.502174
v -0.260206 -0.317781 0.492389
v -0.289465 -0.301759 0.452988
v -0.292473 -0.279439 0.461177
v -0.28758 -0.303558 0.339751
v -0.29045 -0.28137 0.339682
v -0.247664 -0.328191 0.255339
v -0.247622 -0.307799 0.247012
v -0.219562 -0.338972 0.413977
v -0.219562 -0.312724 0.413977
v -0.226434 -0.308707 0.404557
v -0.226434 -0.334956 0.404557
v -0.22545 -0.309857 0.353938
v -0.22545 -0.336106 0.353938
v -0.203799 -0.323637 0.326656
v -0.203799 -0.349885 0.307733
v -0.116139 -0.380146 0.412993
v -0.219562 -0.312724 0.413977
v -0.219562 -0.338972 0.413977
v -0.116139 -0.353897 0.412993
v -0.069816 -0.383936 0.38995
v -0.069816 -0.357688 0.38995
v 0.087848 -0.368455 0.506236
v 0.251739 -0.299353 0.502174
v 0.260206 -0.317781 0.492389
v 0.101446 -0.384724 0.491125
v 0 -0.379122 0.48752
v 0 -0.394666 0.480481
v 0.219562 -0.338972 0.413977
v 0.226434 -0.334956 0.404557
v 0.116139 -0.380146 0.412993
v 0.289465 -0.301759 0.452988
v 0.069816 -0.383936 0.38995
v 0.22545 -0.336106 0.353938
v 0 -0.395941 0.330784
v 0.28758 -0.303558 0.339751
v 0.069765 -0.384085 0.333101
v 0 -0.397215 0.293599
v 0.203799 -0.349885 0.307733
v 0.069953 -0.385949 0.326218
v 0.082284 -0.378662 0.244229
v 0.247664 -0.328191 0.255339
v 0.110544 -0.374879 0.304711
v 0.069953 -0.3597 0.345141
v 0.189966 -0.362703 0.227347
v 0.110544 -0.34863 0.323634
v 0.176566 -0.366859 0.294348
v 0.176566 -0.34061 0.313271
v 0.203799 -0.323637 0.326656
v 0.247622 -0.307799 0.247012
v 0.189966 -0.362703 0.227347
v 0.247664 -0.328191 0.255339
v 0.185717 -0.344828 0.216978
v 0.082284 -0.378662 0.244229
v 0.073827 -0.361951 0.235601
v 0 -0.397215 0.293599
v 0 -0.381857 0.286551
v 0.251739 -0.299353 0.502174
v 0.289465 -0.301759 0.452988
v 0.260206 -0.317781 0.492389
v 0.292473 -0.279439 0.461177
v 0.28758 -0.303558 0.339751
v 0.29045 -0.28137 0.339682
v 0.247664 -0.328191 0.255339
v 0.247622 -0.307799 0.247012
v 0.219562 -0.338972 0.413977
v 0.226434 -0.308707 0.404557
v 0.219562 -0.312724 0.413977
v 0.226434 -0.334956 0.404557
v 0.22545 -0.309857 0.353938
v 0.22545 -0.336106 0.353938
v 0.203799 -0.323637 0.326656
v 0.203799 -0.349885 0.307733
v 0.116139 -0.380146 0.412993
v 0.219562 -0.338972 0.413977
v 0.219562 -0.312724 0.413977
v 0.116139 -0.353897 0.412993
v 0.069816 -0.383936 0.38995
v 0.069816 -0.357688 0.38995
vt 0.185084 0.854085
vt 0.185084 0.854085
vt 0.184989 0.862732
vt 0.185084 0.854085
vt 0.184989 0.862732
vt 0.184989 0.862732
vt 0.184989 0.862732
vt 0.18501 0.935621
vt 0.18501 0.935621
vt 0.185084 0.854085
vt 0.184989 0.862732
vt 0.184989 0.862732
vt 0.18501 0.935621
vt 0.18501 0.935621
vt 0.184989 0.862732
vt 0.185084 0.854085
vt 0.184989 0.862732
vt 0.185084 0.854085
vt 0.154849 0.976541
vt 0.043147 0.967567
vt 0.048635 0.973909
vt 0.146036 0.966748
vt 0.211781 0.964412
vt 0.211781 0.95985
vt 0.053659 0.940644
vt 0.04725 0.932457
vt 0.143856 0.939964
vt 0.024186 0.942032
vt 0.18501 0.935621
vt 0.047578 0.875901
vt 0.211781 0.862835
vt 0.025407 0.868646
vt 0.184989 0.862732
vt 0.211781 0.838736
vt 0.067068 0.835162
vt 0.185084 0.854085
vt 0.158454 0.806741
vt 0.051276 0.813941
vt 0.14838 0.832357
vt 0.185084 0.854085
vt 0.088669 0.7958
vt 0.14838 0.832357
vt 0.092237 0.823595
vt 0.092237 0.823595
vt 0.067068 0.835162
vt 0.051303 0.808544
vt 0.051276 0.813941
vt 0.088669 0.7958
vt 0.091422 0.78908
vt 0.158454 0.806741
vt 0.163935 0.801149
vt 0.211781 0.838736
vt 0.211781 0.834169
vt 0.048635 0.973909
vt 0.043147 0.967567
vt 0.024186 0.942032
vt 0.022237 0.94734
vt 0.025407 0.868646
vt 0.023547 0.868602
vt 0.051276 0.813941
vt 0.051303 0.808544
vt 0.053659 0.940644
vt 0.053659 0.940644
vt 0.04725 0.932457
vt 0.04725 0.932457
vt 0.047578 0.875901
vt 0.047578 0.875901
vt 0.067068 0.835162
vt 0.067068 0.835162
vt 0.143856 0.939964
vt 0.053659 0.940644
vt 0.053659 0.940644
vt 0.143856 0.939964
vt 0.18501 0.935621
vt 0.18501 0.935621
vt 0.154849 0.976541
vt 0.048635 0.973909
vt 0.043147 0.967567
vt 0.146036 0.966748
vt 0.211781 0.964412
vt 0.211781 0.95985
vt 0.053659 0.940644
vt 0.04725 0.932457
vt 0.143856 0.939964
vt 0.024186 0.942032
vt 0.18501 0.935621
vt 0.047578 0.875901
vt 0.211781 0.862835
vt 0.025407 0.868646
vt 0.184989 0.862732
vt 0.211781 0.838736
vt 0.067068 0.835162
vt 0.185084 0.854085
vt 0.158454 0.806741
vt 0.051276 0.813941
vt 0.14838 0.832357
vt 0.185084 0.854085
vt 0.088669 0.7958
vt 0.14838 0.832357
vt 0.092237 0.823595
vt 0.092237 0.823595
vt 0.067068 0.835162
vt 0.051303 0.808544
vt 0.088669 0.7958
vt 0.051276 0.813941
vt 0.091422 0.78908
vt 0.158454 0.806741
vt 0.163935 0.801149
vt 0.211781 0.838736
vt 0.211781 0.834169
vt 0.048635 0.973909
vt 0.024186 0.942032
vt 0.043147 0.967567
vt 0.022237 0.94734
vt 0.025407 0.868646
vt 0.023547 0.868602
vt 0.051276 0.813941
vt 0.051303 0.808544
vt 0.053659 0.940644
vt 0.04725 0.932457
vt 0.053659 0.940644
vt 0.04725 0.932457
vt 0.047578 0.875901
vt 0.047578 0.875901
vt 0.067068 0.835162
vt 0.067068 0.835162
vt 0.143856 0.939964
vt 0.053659 0.940644
vt 0.053659 0.940644
vt 0.143856 0.939964
vt 0.18501 0.935621
vt 0.18501 0.935621
vn 0.05428791 -0.953793 0.2955192
vn 0.4701301 -0.5029184 0.7252936
vn 0.9981153 -0.02080911 0.05773065
vn 0.05428791 -0.953793 0.2955192
vn 0.9981153 -0.02080911 0.05773065
vn -0.153932 -0.985842 0.0664871
vn -0.9999996 0 -0.0008970993
vn -0.8498756 0 -0.5269834
vn -0.6160069 -0.7131921 -0.3345034
vn -0.05428794 -0.953793 0.2955192
vn 0.1539319 -0.985842 0.06648711
vn -0.9981153 -0.02080911 0.05773065
vn 0.6160069 -0.7131921 -0.3345034
vn 0.8498756 0 -0.5269834
vn 0.9999996 0 -0.0008970993
vn -0.05428794 -0.953793 0.2955192
vn -0.9981153 -0.02080911 0.05773065
vn -0.4701301 -0.5029184 0.7252935
vn -0.07488287 -0.539169 0.838862
vn -0.5417352 -0.7187624 0.4357792
vn -0.5271835 -0.342167 0.7778171
vn -0.1816022 -0.8600199 0.4768505
vn 0 -0.5888971 0.808208
vn 0 -0.9574633 0.2885548
vn -0.02374421 -0.7552912 -0.654959
vn 0.4242804 -0.8614415 -0.2791139
vn -0.3278914 -0.6712095 -0.6648045
vn -0.7846243 -0.5960597 0.1705213
vn -0.6160069 -0.7131921 -0.3345034
vn 0.3904229 -0.8786231 0.2749393
vn 0 -0.9992267 0.03932084
vn -0.8090973 -0.5787859 -0.1018258
vn -0.153932 -0.985842 0.0664871
vn 0 -0.9539242 -0.3000478
vn -0.04386039 -0.8665898 0.4970898
vn 0.05428791 -0.953793 0.2955192
vn 0.03290532 -0.8630283 -0.5040827
vn -0.7076064 -0.6355301 -0.3088601
vn -0.2954736 -0.8659011 0.4036219
vn 0.4701301 -0.5029184 0.7252936
vn -0.3409285 -0.8063072 -0.4833595
vn -0.3561677 -0.5464381 0.7579908
vn -0.2252549 -0.8558114 0.4656686
vn -0.08072412 -0.5828826 0.8085366
vn 0.473144 -0.439107 0.7637538
vn -0.7649713 -0.2335512 -0.6002272
vn -0.7076064 -0.6355301 -0.3088601
vn -0.3409285 -0.8063072 -0.4833595
vn -0.2619487 -0.4294124 -0.8642846
vn 0.03290532 -0.8630283 -0.5040827
vn 0.2279345 -0.4987646 -0.8362294
vn 0 -0.9539242 -0.3000478
vn 0 -0.5257904 -0.8506142
vn -0.5271835 -0.342167 0.7778171
vn -0.5417352 -0.7187624 0.4357792
vn -0.7846243 -0.5960597 0.1705213
vn -0.9372327 -0.154047 0.3128326
vn -0.8090973 -0.5787859 -0.1018258
vn -0.9695454 -0.1350395 -0.2043183
vn -0.7076064 -0.6355301 -0.3088601
vn -0.7649713 -0.2335512 -0.6002272
vn -0.02374421 -0.7552912 -0.654959
vn 0.4488799 0 -0.8935922
vn 0.9537234 0 -0.3006854
vn 0.4242804 -0.8614415 -0.2791139
vn 0.9484216 -0.1042434 0.2993822
vn 0.3904229 -0.8786231 0.2749393
vn 0.473144 -0.439107 0.7637538
vn -0.04386039 -0.8665898 0.4970898
vn -0.3278914 -0.6712095 -0.6648045
vn 0.4488799 0 -0.8935922
vn -0.02374421 -0.7552912 -0.654959
vn -0.2333842 0 -0.9723846
vn -0.6160069 -0.7131921 -0.3345034
vn -0.8498756 0 -0.5269834
vn 0.07488288 -0.5391689 0.8388621
vn 0.5271835 -0.342167 0.777817
vn 0.5417352 -0.7187624 0.4357792
vn 0.1816023 -0.8600199 0.4768505
vn 0 -0.5888971 0.808208
vn 0 -0.9574633 0.2885548
vn 0.0237442 -0.7552913 -0.654959
vn -0.4242805 -0.8614415 -0.2791139
vn 0.3278914 -0.6712095 -0.6648045
vn 0.7846243 -0.5960596 0.1705213
vn 0.6160069 -0.7131921 -0.3345034
vn -0.3904229 -0.8786231 0.2749393
vn 0 -0.9992267 0.03932084
vn 0.8090973 -0.5787859 -0.1018259
vn 0.1539319 -0.985842 0.06648711
vn 0 -0.9539242 -0.3000478
vn 0.04386039 -0.8665898 0.4970898
vn -0.05428794 -0.953793 0.2955192
vn -0.03290534 -0.8630283 -0.5040827
vn 0.7076064 -0.6355301 -0.3088601
vn 0.2954736 -0.8659011 0.4036219
vn -0.4701301 -0.5029184 0.7252935
vn 0.3409285 -0.8063073 -0.4833595
vn 0.3561677 -0.5464381 0.7579908
vn 0.2252549 -0.8558114 0.4656686
vn 0.08072414 -0.5828826 0.8085366
vn -0.473144 -0.439107 0.7637538
vn 0.7649713 -0.2335513 -0.6002272
vn 0.3409285 -0.8063073 -0.4833595
vn 0.7076064 -0.6355301 -0.3088601
vn 0.2619487 -0.4294124 -0.8642846
vn -0.03290534 -0.8630283 -0.5040827
vn -0.2279345 -0.4987646 -0.8362294
vn 0 -0.9539242 -0.3000478
vn 0 -0.5257904 -0.8506142
vn 0.5271835 -0.342167 0.777817
vn 0.7846243 -0.5960596 0.1705213
vn 0.5417352 -0.7187624 0.4357792
vn 0.9372327 -0.1540471 0.3128326
vn 0.8090973 -0.5787859 -0.1018259
vn 0.9695454 -0.1350396 -0.2043183
vn 0.7076064 -0.6355301 -0.3088601
vn 0.7649713 -0.2335513 -0.6002272
vn 0.0237442 -0.7552913 -0.654959
vn -0.9537234 0 -0.3006854
vn -0.4488799 0 -0.8935922
vn -0.4242805 -0.8614415 -0.2791139
vn -0.9484216 -0.1042435 0.2993822
vn -0.3904229 -0.8786231 0.2749393
vn -0.473144 -0.439107 0.7637538
vn 0.04386039 -0.8665898 0.4970898
vn 0.3278914 -0.6712095 -0.6648045
vn 0.0237442 -0.7552913 -0.654959
vn -0.4488799 0 -0.8935922
vn 0.2333842 0 -0.9723846
vn 0.6160069 -0.7131921 -0.3345034
vn 0.8498756 0 -0.5269834
g SuperHeroMask_0
f 3/3/3 2/2/2 1/1/1
f 6/6/6 5/5/5 4/4/4
f 8/8/8 7/7/7 6/6/6
f 9/9/9 8/8/8 6/6/6
f 12/12/12 11/11/11 10/10/10
f 14/14/14 13/13/13 11/11/11
f 15/15/15 14/14/14 11/11/11
f 18/18/18 17/17/17 16/16/16
f 21/21/21 20/20/20 19/19/19
f 20/20/20 22/22/22 19/19/19
f 19/19/19 22/22/22 23/23/23
f 22/22/22 24/24/24 23/23/23
f 22/22/22 20/20/20 25/25/25
f 25/25/25 20/20/20 26/26/26
f 27/27/27 22/22/22 25/25/25
f 24/24/24 22/22/22 27/27/27
f 20/20/20 28/28/28 26/26/26
f 29/29/29 24/24/24 27/27/27
f 26/26/26 28/28/28 30/30/30
f 31/31/31 24/24/24 29/29/29
f 28/28/28 32/32/32 30/30/30
f 33/33/33 31/31/31 29/29/29
f 34/34/34 31/31/31 33/33/33
f 30/30/30 32/32/32 35/35/35
f 36/36/36 34/34/34 33/33/33
f 37/37/37 34/34/34 36/36/36
f 32/32/32 38/38/38 35/35/35
f 39/39/39 37/37/37 36/36/36
f 36/36/36 40/40/40 39/39/39
f 41/41/41 37/37/37 39/39/39
f 40/40/40 42/42/42 39/39/39
f 38/38/38 41/41/41 43/43/43
f 43/43/43 41/41/41 39/39/39
f 39/39/39 42/42/42 43/43/43
f 35/35/35 38/38/38 43/43/43
f 42/42/42 44/44/44 43/43/43
f 43/43/43 44/44/44 35/35/35
f 44/44/44 45/45/45 35/35/35
f 48/48/48 47/47/47 46/46/46
f 49/49/49 48/48/48 46/46/46
f 50/50/50 48/48/48 49/49/49
f 51/51/51 50/50/50 49/49/49
f 52/52/52 50/50/50 51/51/51
f 53/53/53 52/52/52 51/51/51
f 56/56/56 55/55/55 54/54/54
f 57/57/57 56/56/56 54/54/54
f 58/58/58 56/56/56 57/57/57
f 59/59/59 58/58/58 57/57/57
f 60/60/60 58/58/58 59/59/59
f 61/61/61 60/60/60 59/59/59
f 64/64/64 63/63/63 62/62/62
f 65/65/65 64/64/64 62/62/62
f 66/66/66 64/64/64 65/65/65
f 67/67/67 66/66/66 65/65/65
f 68/68/68 66/66/66 67/67/67
f 69/69/69 68/68/68 67/67/67
f 72/72/72 71/71/71 70/70/70
f 71/71/71 73/73/73 70/70/70
f 70/70/70 73/73/73 74/74/74
f 73/73/73 75/75/75 74/74/74
f 78/78/78 77/77/77 76/76/76
f 79/79/79 78/78/78 76/76/76
f 79/79/79 76/76/76 80/80/80
f 81/81/81 79/79/79 80/80/80
f 78/78/78 79/79/79 82/82/82
f 78/78/78 82/82/82 83/83/83
f 79/79/79 84/84/84 82/82/82
f 79/79/79 81/81/81 84/84/84
f 85/85/85 78/78/78 83/83/83
f 81/81/81 86/86/86 84/84/84
f 85/85/85 83/83/83 87/87/87
f 81/81/81 88/88/88 86/86/86
f 89/89/89 85/85/85 87/87/87
f 88/88/88 90/90/90 86/86/86
f 88/88/88 91/91/91 90/90/90
f 89/89/89 87/87/87 92/92/92
f 91/91/91 93/93/93 90/90/90
f 91/91/91 94/94/94 93/93/93
f 95/95/95 89/89/89 92/92/92
f 94/94/94 96/96/96 93/93/93
f 97/97/97 93/93/93 96/96/96
f 94/94/94 98/98/98 96/96/96
f 99/99/99 97/97/97 96/96/96
f 98/98/98 95/95/95 100/100/100
f 98/98/98 100/100/100 96/96/96
f 99/99/99 96/96/96 100/100/100
f 95/95/95 92/92/92 100/100/100
f 101/101/101 99/99/99 100/100/100
f 101/101/101 100/100/100 92/92/92
f 102/102/102 101/101/101 92/92/92
f 105/105/105 104/104/104 103/103/103
f 104/104/104 106/106/106 103/103/103
f 104/104/104 107/107/107 106/106/106
f 107/107/107 108/108/108 106/106/106
f 107/107/107 109/109/109 108/108/108
f 109/109/109 110/110/110 108/108/108
f 113/113/113 112/112/112 111/111/111
f 112/112/112 114/114/114 111/111/111
f 112/112/112 115/115/115 114/114/114
f 115/115/115 116/116/116 114/114/114
f 115/115/115 117/117/117 116/116/116
f 117/117/117 118/118/118 116/116/116
f 121/121/121 120/120/120 119/119/119
f 120/120/120 122/122/122 119/119/119
f 120/120/120 123/123/123 122/122/122
f 123/123/123 124/124/124 122/122/122
f 123/123/123 125/125/125 124/124/124
f 125/125/125 126/126/126 124/124/124
f 129/129/129 128/128/128 127/127/127
f 130/130/130 129/129/129 127/127/127
f 130/130/130 127/127/127 131/131/131
f 132/132/132 130/130/130 131/131/131
