g SwallowTailWings
v 0 0.411014 0.016723
v 0 -0.164799 0.016723
v -0.655265 -0.164799 0.42844
v -0.655265 0.411014 0.42844
v 0 0.411014 0.016723
v -0.655265 0.411014 0.42844
v -0.655265 -0.164799 0.42844
v 0 -0.164799 0.016723
v 0 0.411014 0.016723
v 0.655265 0.411014 0.42844
v 0.655265 -0.164799 0.42844
v 0 -0.164799 0.016723
v 0 0.411014 0.016723
v 0 -0.164799 0.016723
v 0.655265 -0.164799 0.42844
v 0.655265 0.411014 0.42844
vt 0.261934 0.045405
vt 0.261934 0.144719
vt 0.365752 0.144719
vt 0.365752 0.045405
vt 0.261934 0.045405
vt 0.365752 0.045405
vt 0.365752 0.144719
vt 0.261934 0.144719
vt 0.261934 0.045405
vt 0.365752 0.045405
vt 0.365752 0.144719
vt 0.261934 0.144719
vt 0.261934 0.045405
vt 0.261934 0.144719
vt 0.365752 0.144719
vt 0.365752 0.045405
vn 0.5320198 0 0.846732
vn 0.5320198 0 0.846732
vn 0.5320198 0 0.846732
vn 0.5320198 0 0.846732
vn -0.5320198 0 -0.846732
vn -0.5320198 0 -0.846732
vn -0.5320198 0 -0.846732
vn -0.5320198 0 -0.846732
vn -0.5320198 0 0.846732
vn -0.5320198 0 0.846732
vn -0.5320198 0 0.846732
vn -0.5320198 0 0.846732
vn 0.5320198 0 -0.846732
vn 0.5320198 0 -0.846732
vn 0.5320198 0 -0.846732
vn 0.5320198 0 -0.846732
g SwallowTailWings_0
f 3/3/3 2/2/2 1/1/1
f 4/4/4 3/3/3 1/1/1
f 7/7/7 6/6/6 5/5/5
f 8/8/8 7/7/7 5/5/5
f 11/11/11 10/10/10 9/9/9
f 12/12/12 11/11/11 9/9/9
f 15/15/15 14/14/14 13/13/13
f 16/16/16 15/15/15 13/13/13
