g Tau_Emerald_wings
v 0 0.367002 0.037883
v -0.626646 0.367002 0.384084
v -0.626646 -0.335855 0.384084
v 0 -0.335855 0.037883
v 0 0.367002 0.037883
v 0 -0.335855 0.037883
v -0.626646 -0.335855 0.384084
v -0.626646 0.367002 0.384084
v 0 0.367002 0.037883
v 0 -0.335855 0.037883
v 0.626646 -0.335855 0.384084
v 0.626646 0.367002 0.384084
v 0 0.367002 0.037883
v 0.626646 0.367002 0.384084
v 0.626646 -0.335855 0.384084
v 0 -0.335855 0.037883
vt 0.779612 0.208995
vt 0.897348 0.208995
vt 0.897347 0.308902
vt 0.779612 0.308902
vt 0.779612 0.208995
vt 0.779612 0.308902
vt 0.897347 0.308902
vt 0.897348 0.208995
vt 0.779612 0.208995
vt 0.779612 0.308902
vt 0.897347 0.308902
vt 0.897348 0.208995
vt 0.779612 0.208995
vt 0.897348 0.208995
vt 0.897347 0.308902
vt 0.779612 0.308902
vn -0.4835755 0 -0.8753026
vn -0.4835755 0 -0.8753026
vn -0.4835755 0 -0.8753026
vn -0.4835755 0 -0.8753026
vn 0.4835755 0 0.8753026
vn 0.4835755 0 0.8753026
vn 0.4835755 0 0.8753026
vn 0.4835755 0 0.8753026
vn 0.4835755 0 -0.8753026
vn 0.4835755 0 -0.8753026
vn 0.4835755 0 -0.8753026
vn 0.4835755 0 -0.8753026
vn -0.4835755 0 0.8753026
vn -0.4835755 0 0.8753026
vn -0.4835755 0 0.8753026
vn -0.4835755 0 0.8753026
g Tau_Emerald_wings_0
f 3/3/3 2/2/2 1/1/1
f 4/4/4 3/3/3 1/1/1
f 7/7/7 6/6/6 5/5/5
f 8/8/8 7/7/7 5/5/5
f 11/11/11 10/10/10 9/9/9
f 12/12/12 11/11/11 9/9/9
f 15/15/15 14/14/14 13/13/13
f 16/16/16 15/15/15 13/13/13
