g TeleporterRepairBox_Dead
v -0.684391 -0.114286 0.137055
v -0.7005 -0.114286 0.091801
v -0.667661 -0.144649 0.049306
v -0.331904 -0.357337 0.046207
v -0.341765 -0.417861 0.090417
v -0.341765 -0.417861 0.155789
v -0.331904 -0.357337 0.20495
v -0.330686 -0.349867 0.205255
v -0.319557 -0.281557 0.049306
v -0.330686 -0.349867 0.205255
v -0.319557 -0.281557 0.137055
v -0.319557 -0.281557 0.049306
v -0.722581 -0.151757 0.047869
v -0.750679 -0.199439 0.04604
v -0.672791 -0.32534 0.046099
v -0.534946 -0.301943 -0.058968
v 0.700434 -0.301943 -0.058968
v 0.700434 0.23177 -0.058968
v -0.534946 0.23177 -0.058968
v -0.534946 -0.301943 1.333652
v -0.534946 0.23177 1.333652
v 0.700434 0.23177 1.333652
v 0.700434 -0.301943 1.333652
v 0.700434 0.23177 -0.058968
v 0.700434 0.23177 1.333652
v -0.534946 0.23177 1.333652
v -0.534946 0.23177 -0.058968
v -0.534946 -0.301943 -0.058968
v -0.534946 -0.301943 1.333652
v 0.700434 -0.301943 1.333652
v 0.700434 -0.301943 -0.058968
v 0.700434 -0.301943 -0.058968
v 0.700434 -0.301943 1.333652
v 0.700434 0.23177 1.333652
v 0.700434 0.23177 -0.058968
v -0.534946 0.23177 -0.058968
v -0.534946 0.23177 1.333652
v -0.534946 -0.301943 1.333652
v -0.534946 -0.301943 -0.058968
v -0.420449 -0.411625 0.045665
v 0.585937 -0.411625 0.045665
v 0.585937 -0.155083 0.045665
v -0.420449 -0.155083 0.045665
v -0.420449 -0.411625 0.977934
v -0.420449 -0.155083 0.977934
v 0.585937 -0.155083 0.977934
v 0.585937 -0.411625 0.977934
v 0.585937 -0.155083 0.045665
v 0.585937 -0.155083 0.977934
v -0.420449 -0.155083 0.977934
v -0.420449 -0.155083 0.045665
v 0.585937 -0.411625 0.045665
v 0.585937 -0.411625 0.977934
v 0.585937 -0.155083 0.977934
v 0.585937 -0.155083 0.045665
v -0.420449 -0.411625 0.045665
v -0.420449 -0.411625 0.977934
v -0.429675 -0.422053 0.98648
v -0.429675 -0.422053 0.037119
v -0.429675 -0.469132 0.98648
v -0.429675 -0.469132 0.037119
v -0.415289 -0.483518 0.051505
v -0.415289 -0.483518 0.972094
v -0.429675 -0.469132 0.98648
v 0.595163 -0.422053 0.98648
v 0.595163 -0.469132 0.98648
v -0.429675 -0.422053 0.98648
v 0.585937 -0.411625 0.977934
v -0.420449 -0.411625 0.977934
v -0.415289 -0.483518 0.051505
v 0.580777 -0.483518 0.972094
v 0.580777 -0.483518 0.051505
v -0.415289 -0.483518 0.972094
v 0.595163 -0.469132 0.98648
v -0.429675 -0.469132 0.98648
v -0.420449 -0.155083 0.045665
v -0.420449 -0.155083 0.977934
v -0.420449 -0.411625 0.977934
v -0.420449 -0.411625 0.045665
v 0.595163 -0.422053 0.037119
v 0.585937 -0.411625 0.977934
v 0.585937 -0.411625 0.045665
v 0.595163 -0.422053 0.98648
v 0.595163 -0.469132 0.037119
v 0.595163 -0.469132 0.98648
v 0.580777 -0.483518 0.972094
v 0.580777 -0.483518 0.051505
v -0.429675 -0.422053 0.037119
v 0.585937 -0.411625 0.045665
v -0.420449 -0.411625 0.045665
v 0.595163 -0.422053 0.037119
v -0.429675 -0.469132 0.037119
v 0.595163 -0.469132 0.037119
v 0.580777 -0.483518 0.051505
v -0.415289 -0.483518 0.051505
v -0.667661 -0.144649 0.049306
v -0.621332 -0.246925 0.049306
v -0.621332 -0.246925 0.137055
v -0.684391 -0.114286 0.137055
v -0.460642 0.024817 0.161363
v -0.658226 0.024817 0.095992
v -0.460642 0.024817 0.095992
v -0.658226 0.024817 0.161363
v -0.674733 -0.029499 0.208049
v -0.460642 -0.029499 0.208049
v -0.460642 -0.061899 0.208049
v -0.650399 -0.078811 0.208049
v -0.679697 -0.045836 0.208049
v -0.642533 -0.112294 0.175003
v -0.460642 -0.094991 0.175003
v -0.786138 -0.259612 0.155789
v -0.71078 -0.383228 0.090417
v -0.786138 -0.259612 0.090417
v -0.71078 -0.383228 0.155789
v -0.672791 -0.32534 0.204842
v -0.750679 -0.199439 0.204782
v -0.740167 -0.1816 0.205467
v -0.663803 -0.311643 0.205402
v -0.621332 -0.246925 0.137055
v -0.684391 -0.114286 0.137055
v -0.71078 -0.383228 0.155789
v -0.341765 -0.417861 0.155789
v -0.341765 -0.417861 0.090417
v -0.71078 -0.383228 0.090417
v -0.672791 -0.32534 0.046099
v -0.331904 -0.357337 0.046207
v -0.319557 -0.281557 0.049306
v -0.621332 -0.246925 0.049306
v -0.621332 -0.246925 0.049306
v -0.319557 -0.281557 0.049306
v -0.319557 -0.281557 0.137055
v -0.621332 -0.246925 0.137055
v -0.663803 -0.311643 0.205402
v -0.330686 -0.349867 0.205255
v -0.331904 -0.357337 0.20495
v -0.672791 -0.32534 0.204842
v -0.71078 -0.383228 0.155789
v -0.341765 -0.417861 0.155789
v -0.341765 -0.417861 0.155789
v -0.331904 -0.357337 0.20495
v -0.331904 -0.357337 0.046207
v -0.319557 -0.281557 0.049306
v -0.460642 -0.029499 0.049306
v -0.460642 0.024817 0.095992
v -0.658226 0.024817 0.095992
v -0.674733 -0.029499 0.049306
v -0.687378 -0.071109 0.049306
v -0.460642 -0.052437 0.049306
v -0.460642 -0.094991 0.091801
v -0.7005 -0.114286 0.091801
v -0.460642 -0.094991 0.175003
v -0.684391 -0.114286 0.137055
v -0.642533 -0.112294 0.175003
v -0.835256 -0.094161 0.155789
v -0.750679 -0.199439 0.204782
v -0.786138 -0.259612 0.155789
v -0.780065 -0.100316 0.203875
v -0.658226 0.024817 0.161363
v -0.740167 -0.1816 0.205467
v -0.674733 -0.029499 0.208049
v -0.679697 -0.045836 0.208049
v -0.71078 -0.383228 0.090417
v -0.672791 -0.32534 0.046099
v -0.750679 -0.199439 0.04604
v -0.786138 -0.259612 0.090417
v -0.672791 -0.32534 0.046099
v -0.621332 -0.246925 0.049306
v -0.667661 -0.144649 0.049306
v -0.722581 -0.151757 0.047869
v -0.687378 -0.071109 0.049306
v -0.667661 -0.144649 0.049306
v -0.7005 -0.114286 0.091801
v -0.722581 -0.151757 0.047869
v -0.780065 -0.100316 0.045132
v -0.750679 -0.199439 0.04604
v -0.674733 -0.029499 0.049306
v -0.786138 -0.259612 0.090417
v -0.835256 -0.094161 0.090417
v -0.658226 0.024817 0.095992
v -0.786138 -0.259612 0.155789
v -0.658226 0.024817 0.161363
v -0.835256 -0.094161 0.155789
v 0.720164 0.249632 1.331593
v -0.552003 0.247212 1.411016
v -0.554676 0.249632 1.331593
v 0.717491 0.247212 1.411016
v -0.536327 0.231585 1.426174
v 0.701815 0.231585 1.426174
v -0.554676 -0.319806 1.331593
v 0.717491 -0.317386 1.411016
v 0.720164 -0.319806 1.331593
v -0.552003 -0.317386 1.411016
v 0.701815 -0.301758 1.426174
v -0.536327 -0.301758 1.426174
v 0.720164 -0.319806 1.331593
v 0.717491 0.247212 1.411016
v 0.720164 0.249632 1.331593
v 0.717491 -0.317386 1.411016
v 0.701815 0.231585 1.426174
v 0.701815 -0.301758 1.426174
v -0.536327 -0.301758 1.426174
v -0.536327 0.231585 1.426174
v 0.701815 0.231585 1.426174
v 0.701815 -0.301758 1.426174
v -0.552003 0.247212 1.411016
v -0.536327 0.231585 1.426174
v -0.536327 -0.301758 1.426174
v -0.552003 -0.317386 1.411016
v -0.554676 0.249632 1.331593
v -0.554676 -0.319806 1.331593
v -0.53929 0.234196 1.31568
v -0.554676 0.249632 1.331593
v -0.554676 -0.319806 1.331593
v -0.53929 -0.304369 1.31568
v 0.704778 0.234196 1.31568
v -0.554676 0.249632 1.331593
v 0.720164 0.249632 1.331593
v 0.704778 -0.304369 1.31568
v 0.720164 0.249632 1.331593
v 0.720164 -0.319806 1.331593
v 0.720164 -0.319806 1.331593
v -0.554676 -0.319806 1.331593
vt 0.815855 0.35824
vt 0.814531 0.355919
vt 0.821964 0.361673
vt 0.981816 0.405557
vt 0.973839 0.403508
vt 0.970154 0.401312
vt 0.969327 0.404421
vt 0.973 0.398163
vt 0.998134 0.411599
vt 0.973 0.398163
vt 0.978676 0.405087
vt 0.998134 0.411599
vt 0.81134 0.359833
vt 0.815783 0.36123
vt 0.893691 0.386488
vt 0.77399 0.347522
vt 0.77399 0.571679
vt 0.998146 0.571679
vt 0.998146 0.347522
vt 0.77399 0.347522
vt 0.77399 0.571679
vt 0.998146 0.571679
vt 0.998146 0.347522
vt 0.787987 0.349522
vt 0.787987 0.609995
vt 0.968657 0.609995
vt 0.968657 0.349522
vt 0.78739 0.349522
vt 0.78739 0.609995
vt 0.96806 0.609995
vt 0.96806 0.349522
vt 0.816991 0.634097
vt 0.816991 0.774648
vt 0.962373 0.774648
vt 0.962373 0.634097
vt 0.816991 0.634097
vt 0.816991 0.774648
vt 0.962373 0.774648
vt 0.962373 0.634097
vt 0.844846 0.63342
vt 0.844846 0.775025
vt 0.939656 0.775025
vt 0.939656 0.63342
vt 0.927205 0.640178
vt 0.847084 0.640178
vt 0.847084 0.768268
vt 0.927205 0.768268
vt 0.77399 0.347522
vt 0.77399 0.571679
vt 0.998146 0.571679
vt 0.998146 0.347522
vt 0.844846 0.637577
vt 0.844846 0.768599
vt 0.939656 0.768599
vt 0.939656 0.637577
vt 0.894941 0.768737
vt 0.894956 0.770986
vt 0.895084 0.771113
vt 0.895056 0.768611
vt 0.895214 0.771241
vt 0.895214 0.768473
vt 0.895262 0.768474
vt 0.895254 0.771237
vt 0.895214 0.771241
vt 0.89266 0.771119
vt 0.892497 0.771287
vt 0.895084 0.771113
vt 0.892769 0.771008
vt 0.894956 0.770986
vt 0.819222 0.638386
vt 0.960805 0.772694
vt 0.960805 0.638386
vt 0.819222 0.772694
vt 0.96285 0.774792
vt 0.817177 0.774792
vt 0.844846 0.637577
vt 0.844846 0.768599
vt 0.939656 0.768599
vt 0.939656 0.637577
vt 0.892626 0.768659
vt 0.892769 0.771008
vt 0.892749 0.768774
vt 0.89266 0.771119
vt 0.892489 0.768503
vt 0.892497 0.771287
vt 0.892447 0.771295
vt 0.892447 0.768498
vt 0.895056 0.768611
vt 0.892749 0.768774
vt 0.894941 0.768737
vt 0.892626 0.768659
vt 0.895214 0.768473
vt 0.892489 0.768503
vt 0.892486 0.768454
vt 0.895223 0.768431
vt 0.821964 0.361673
vt 0.897585 0.383959
vt 0.89797 0.379139
vt 0.815855 0.35824
vt 0.942364 0.817897
vt 0.899854 0.817897
vt 0.942364 0.817897
vt 0.899854 0.817897
vt 0.897922 0.812191
vt 0.942364 0.812191
vt 0.942364 0.808788
vt 0.90077 0.807012
vt 0.897341 0.810475
vt 0.90169 0.803495
vt 0.942364 0.805312
vt 0.838228 0.802139
vt 0.906894 0.801944
vt 0.838228 0.802139
vt 0.906894 0.801944
vt 0.90331 0.808484
vt 0.833923 0.808682
vt 0.832647 0.810621
vt 0.902462 0.810032
vt 0.898455 0.817344
vt 0.830149 0.818963
vt 0.878357 0.805784
vt 0.949732 0.807017
vt 0.949732 0.807017
vt 0.878357 0.805784
vt 0.885449 0.810613
vt 0.951383 0.811752
vt 0.95345 0.81768
vt 0.895055 0.817154
vt 0.895055 0.817154
vt 0.95345 0.81768
vt 0.95345 0.81768
vt 0.895055 0.817154
vt 0.887127 0.811756
vt 0.951586 0.812336
vt 0.951383 0.811752
vt 0.885449 0.810613
vt 0.878357 0.805784
vt 0.949732 0.807017
vt 0.970154 0.401312
vt 0.969327 0.404421
vt 0.981816 0.405557
vt 0.998134 0.411599
vt 0.942364 0.812191
vt 0.942364 0.817897
vt 0.899854 0.817897
vt 0.897922 0.812191
vt 0.896442 0.807821
vt 0.942364 0.809782
vt 0.942364 0.805312
vt 0.894906 0.803285
vt 0.942364 0.805312
vt 0.896792 0.803285
vt 0.90169 0.803495
vt 0.864748 0.801444
vt 0.89029 0.807767
vt 0.90476 0.8053
vt 0.866318 0.805468
vt 0.8363 0.815739
vt 0.886 0.808619
vt 0.849385 0.813965
vt 0.853321 0.813555
vt 0.906894 0.801944
vt 0.90331 0.808484
vt 0.833923 0.808682
vt 0.838228 0.802139
vt 0.893691 0.386488
vt 0.897585 0.383959
vt 0.821964 0.361673
vt 0.81134 0.359833
vt 0.85941 0.81431
vt 0.877191 0.815853
vt 0.869812 0.812853
vt 0.878823 0.811435
vt 0.866318 0.806857
vt 0.89029 0.809156
vt 0.849385 0.815355
vt 0.90476 0.805872
vt 0.864748 0.802016
vt 0.8363 0.816311
vt 0.90476 0.8053
vt 0.8363 0.815739
vt 0.864748 0.801444
vt 0.858635 0.775667
vt 0.84907 0.774828
vt 0.848369 0.775639
vt 0.857624 0.774996
vt 0.849303 0.774675
vt 0.857333 0.774865
vt 0.847779 0.76933
vt 0.857344 0.770169
vt 0.858045 0.769358
vt 0.84879 0.770001
vt 0.857112 0.770321
vt 0.849081 0.770131
vt 0.858045 0.769358
vt 0.857624 0.774996
vt 0.858635 0.775667
vt 0.857344 0.770169
vt 0.857425 0.774745
vt 0.857216 0.770446
vt 0.819584 0.640268
vt 0.819584 0.768853
vt 0.959329 0.768853
vt 0.959329 0.640268
vt 0.84907 0.774828
vt 0.849198 0.774551
vt 0.848989 0.770251
vt 0.84879 0.770001
vt 0.848369 0.775639
vt 0.847779 0.76933
vt 0.99189 0.350319
vt 0.997956 0.347522
vt 0.77418 0.347522
vt 0.780246 0.350319
vt 0.99189 0.568882
vt 0.998146 0.347616
vt 0.998146 0.571585
vt 0.780246 0.568882
vt 0.997956 0.571679
vt 0.77418 0.571679
vt 0.77399 0.571585
vt 0.77399 0.347616
vn 0.7945119 0.5253294 0.3045982
vn 0.6793905 0.6353098 -0.3671648
vn 0.7039976 0.3546931 -0.6152887
vn 0.9869854 -0.1608095 0
vn 0.986986 -0.1608066 0
vn 0.986986 -0.1608066 0
vn 0.986977 -0.1608612 -2.576024E-05
vn 0.9869702 -0.1609033 -4.696024E-05
vn 0.9869851 -0.160811 0
vn 0.9869702 -0.1609033 -4.696024E-05
vn 0.9869872 -0.1607989 0
vn 0.9869851 -0.160811 0
vn 0.1726088 0.04499642 -0.9839622
vn -0.3176268 -0.1245403 -0.9400016
vn -0.1783389 -0.2924808 -0.9394946
vn 0 0 -1
vn 0 0 -1
vn 0 0 -1
vn 0 0 -1
vn 0 0 1
vn 0 0 1
vn 0 0 1
vn 0 0 1
vn 0 1 0
vn 0 1 0
vn 0 1 0
vn 0 1 0
vn 0 -1 0
vn 0 -1 0
vn 0 -1 0
vn 0 -1 0
vn 1 0 0
vn 1 0 0
vn 1 0 0
vn 1 0 0
vn -1 0 0
vn -1 0 0
vn -1 0 0
vn -1 0 0
vn 0 0.3899041 -0.9208555
vn 0 0.3899039 -0.9208556
vn 0 0 -1
vn 0 0 -1
vn 0 0.389904 0.9208555
vn 0 0 1
vn 0 0 1
vn 0 0.3899038 0.9208556
vn 0 1 0
vn 0 1 0
vn 0 1 0
vn 0 1 0
vn 0.9136644 0.4064693 0
vn 0.9136644 0.4064693 0
vn 1 0 0
vn 1 0 0
vn -0.9136636 0.406471 0
vn -0.9136637 0.406471 0
vn -0.9605456 0.2781225 0
vn -0.9605456 0.2781224 0
vn -0.6507059 -0.3913614 0.6507059
vn -0.6507059 -0.3913614 -0.650706
vn -0.3001938 -0.90541 -0.3001938
vn -0.3001938 -0.9054101 0.3001938
vn -0.6507059 -0.3913614 0.6507059
vn 0 0.2561828 0.9666284
vn 0.6507059 -0.3913614 0.6507059
vn 0 0.2561823 0.9666285
vn 0 0.3899038 0.9208556
vn 0 0.389904 0.9208555
vn -0.3001938 -0.90541 -0.3001938
vn 0.3001938 -0.9054101 0.3001938
vn 0.3001938 -0.9054101 -0.3001938
vn -0.3001938 -0.9054101 0.3001938
vn 0.6507059 -0.3913614 0.6507059
vn -0.6507059 -0.3913614 0.6507059
vn -1 0 0
vn -1 0 0
vn -0.9136637 0.406471 0
vn -0.9136636 0.406471 0
vn 0.960546 0.278121 0
vn 0.9136644 0.4064693 0
vn 0.9136644 0.4064693 0
vn 0.960546 0.278121 0
vn 0.6507059 -0.3913614 -0.650706
vn 0.6507059 -0.3913614 0.6507059
vn 0.3001938 -0.9054101 0.3001938
vn 0.3001938 -0.9054101 -0.3001938
vn 0 0.2561824 -0.9666285
vn 0 0.3899039 -0.9208556
vn 0 0.3899041 -0.9208555
vn 0 0.2561829 -0.9666284
vn -0.6507059 -0.3913614 -0.650706
vn 0.6507059 -0.3913614 -0.650706
vn 0.3001938 -0.9054101 -0.3001938
vn -0.3001938 -0.90541 -0.3001938
vn 0.7039976 0.3546931 -0.6152887
vn 0.5890347 0.8081077 0
vn 0.502889 0.715946 0.4842768
vn 0.7945119 0.5253294 0.3045982
vn 0 0.9087994 0.4172335
vn -0.245093 0.8965657 -0.3689164
vn 0 0.9087994 -0.4172335
vn -0.2497568 0.8937344 0.3726396
vn -0.1884847 0.4199246 0.8877708
vn 0 0.3475895 0.9376467
vn 0.03311554 -0.3597055 0.9324781
vn 0.02769643 -0.3008424 0.9532716
vn -0.02812843 0.006868311 0.9995807
vn 0.08981974 -0.9542811 0.2850963
vn 0.07976259 -0.9173962 0.3899
vn -0.8275014 -0.3818502 0.411621
vn -0.4793161 -0.7654052 -0.429431
vn -0.818984 -0.3786116 -0.4311826
vn -0.4835841 -0.7722385 0.4120609
vn -0.2047874 -0.3342265 0.9199754
vn -0.3694112 -0.1446755 0.9179348
vn 0.1651699 0.09892465 0.9812914
vn 0.1269857 0.1880731 0.9739112
vn 0.502889 0.715946 0.4842768
vn 0.7945119 0.5253294 0.3045982
vn -0.4835841 -0.7722385 0.4120609
vn -0.08399539 -0.8942387 0.4396385
vn -0.08276999 -0.8826456 -0.4626942
vn -0.4793161 -0.7654052 -0.429431
vn -0.1783389 -0.2924808 -0.9394946
vn -0.02546537 -0.2752178 -0.9610445
vn 0.004223433 0.03911696 -0.9992257
vn 0.0209198 0.0276441 -0.9993989
vn 0.5890347 0.8081077 0
vn 0.1140127 0.9934793 0
vn 0.105478 0.9183657 0.381417
vn 0.502889 0.715946 0.4842768
vn 0.1269857 0.1880731 0.9739112
vn 0.04275596 0.3696181 0.9281995
vn -0.03185448 -0.3367468 0.9410563
vn -0.2047874 -0.3342265 0.9199754
vn -0.4835841 -0.7722385 0.4120609
vn -0.08399539 -0.8942387 0.4396385
vn 0.986986 -0.1608066 0
vn 0.986977 -0.1608612 -2.576024E-05
vn 0.9869854 -0.1608095 0
vn 0.9869851 -0.160811 0
vn 0 0.3475895 -0.9376467
vn 0 0.9087994 -0.4172335
vn -0.245093 0.8965657 -0.3689164
vn -0.1651964 0.4235513 -0.890682
vn 0.1413211 -0.1911117 -0.9713417
vn 0.02978421 -0.3660321 -0.9301255
vn 0.07426857 -0.9187535 -0.3877836
vn 0.07804961 -0.912227 -0.4021816
vn 0.07976259 -0.9173962 0.3899
vn 0.09204075 -0.9950774 -0.03673475
vn 0.08981974 -0.9542811 0.2850963
vn -0.8842195 0.2994193 0.3584745
vn -0.3694112 -0.1446755 0.9179348
vn -0.8275014 -0.3818502 0.411621
vn -0.4455313 0.205738 0.8713058
vn -0.2497568 0.8937344 0.3726396
vn 0.1651699 0.09892465 0.9812914
vn -0.1884847 0.4199246 0.8877708
vn -0.02812843 0.006868311 0.9995807
vn -0.4793161 -0.7654052 -0.429431
vn -0.1783389 -0.2924808 -0.9394946
vn -0.3176268 -0.1245403 -0.9400016
vn -0.818984 -0.3786116 -0.4311826
vn -0.1783389 -0.2924808 -0.9394946
vn 0.0209198 0.0276441 -0.9993989
vn 0.7039976 0.3546931 -0.6152887
vn 0.1726088 0.04499642 -0.9839622
vn 0.1413211 -0.1911117 -0.9713417
vn 0.7039976 0.3546931 -0.6152887
vn 0.6793905 0.6353098 -0.3671648
vn 0.1726088 0.04499642 -0.9839622
vn -0.3908227 0.2109905 -0.8959579
vn -0.3176268 -0.1245403 -0.9400016
vn -0.1651964 0.4235513 -0.890682
vn -0.818984 -0.3786116 -0.4311826
vn -0.8754249 0.3017406 -0.377603
vn -0.245093 0.8965657 -0.3689164
vn -0.8275014 -0.3818502 0.411621
vn -0.2497568 0.8937344 0.3726396
vn -0.8842195 0.2994193 0.3584745
vn 0 0.9629098 -0.2698237
vn -0.6425011 0.6433101 0.4163465
vn 0 0.9629098 -0.2698236
vn 0.6425009 0.6433103 0.4163465
vn -0.2935386 0.2943151 0.9095129
vn 0.2935394 0.294315 0.9095126
vn 0 -0.9629057 -0.2698382
vn 0.6424978 -0.6433102 0.4163514
vn 0 -0.9629057 -0.2698383
vn -0.642498 -0.64331 0.4163515
vn 0.2935411 -0.2943006 0.9095168
vn -0.2935402 -0.2943007 0.909517
vn 0.963847 0 -0.2664565
vn 0.6425009 0.6433103 0.4163465
vn 0.9638452 0 -0.2664626
vn 0.6424978 -0.6433102 0.4163514
vn 0.2935394 0.294315 0.9095126
vn 0.2935411 -0.2943006 0.9095168
vn -0.2935402 -0.2943007 0.909517
vn -0.2935386 0.2943151 0.9095129
vn 0.2935394 0.294315 0.9095126
vn 0.2935411 -0.2943006 0.9095168
vn -0.6425011 0.6433101 0.4163465
vn -0.2935386 0.2943151 0.9095129
vn -0.2935402 -0.2943007 0.909517
vn -0.642498 -0.64331 0.4163515
vn -0.9638451 0 -0.266463
vn -0.9638469 0 -0.2664569
vn -0.3068664 0.3060676 -0.9011968
vn -0.9638451 0 -0.266463
vn -0.9638469 0 -0.2664569
vn -0.3068681 -0.306053 -0.9012011
vn 0.3068664 0.3060676 -0.9011968
vn 0 0.9629098 -0.2698236
vn 0 0.9629098 -0.2698237
vn 0.3068681 -0.306053 -0.9012011
vn 0.9638452 0 -0.2664626
vn 0.963847 0 -0.2664565
vn 0 -0.9629057 -0.2698383
vn 0 -0.9629057 -0.2698382
g TeleporterRepairBox_Dead_0
f 3/3/3 2/2/2 1/1/1
f 6/6/6 5/5/5 4/4/4
f 9/9/9 8/8/8 7/7/7
f 12/12/12 11/11/11 10/10/10
f 15/15/15 14/14/14 13/13/13
f 18/18/18 17/17/17 16/16/16
f 19/19/19 18/18/18 16/16/16
f 22/22/22 21/21/21 20/20/20
f 23/23/23 22/22/22 20/20/20
f 26/26/26 25/25/25 24/24/24
f 27/27/27 26/26/26 24/24/24
f 30/30/30 29/29/29 28/28/28
f 31/31/31 30/30/30 28/28/28
f 34/34/34 33/33/33 32/32/32
f 35/35/35 34/34/34 32/32/32
f 38/38/38 37/37/37 36/36/36
f 39/39/39 38/38/38 36/36/36
f 42/42/42 41/41/41 40/40/40
f 43/43/43 42/42/42 40/40/40
f 46/46/46 45/45/45 44/44/44
f 47/47/47 46/46/46 44/44/44
f 50/50/50 49/49/49 48/48/48
f 51/51/51 50/50/50 48/48/48
f 54/54/54 53/53/53 52/52/52
f 55/55/55 54/54/54 52/52/52
f 58/58/58 57/57/57 56/56/56
f 59/59/59 58/58/58 56/56/56
f 60/60/60 58/58/58 59/59/59
f 61/61/61 60/60/60 59/59/59
f 61/61/61 62/62/62 60/60/60
f 62/62/62 63/63/63 60/60/60
f 66/66/66 65/65/65 64/64/64
f 65/65/65 67/67/67 64/64/64
f 65/65/65 68/68/68 67/67/67
f 68/68/68 69/69/69 67/67/67
f 72/72/72 71/71/71 70/70/70
f 71/71/71 73/73/73 70/70/70
f 71/71/71 74/74/74 73/73/73
f 74/74/74 75/75/75 73/73/73
f 78/78/78 77/77/77 76/76/76
f 79/79/79 78/78/78 76/76/76
f 82/82/82 81/81/81 80/80/80
f 81/81/81 83/83/83 80/80/80
f 80/80/80 83/83/83 84/84/84
f 83/83/83 85/85/85 84/84/84
f 85/85/85 86/86/86 84/84/84
f 86/86/86 87/87/87 84/84/84
f 90/90/90 89/89/89 88/88/88
f 89/89/89 91/91/91 88/88/88
f 88/88/88 91/91/91 92/92/92
f 91/91/91 93/93/93 92/92/92
f 93/93/93 94/94/94 92/92/92
f 94/94/94 95/95/95 92/92/92
f 98/98/98 97/97/97 96/96/96
f 96/96/96 99/99/99 98/98/98
f 102/102/102 101/101/101 100/100/100
f 101/101/101 103/103/103 100/100/100
f 103/103/103 104/104/104 100/100/100
f 104/104/104 105/105/105 100/100/100
f 106/106/106 105/105/105 104/104/104
f 104/104/104 107/107/107 106/106/106
f 104/104/104 108/108/108 107/107/107
f 107/107/107 109/109/109 106/106/106
f 109/109/109 110/110/110 106/106/106
f 113/113/113 112/112/112 111/111/111
f 112/112/112 114/114/114 111/111/111
f 114/114/114 115/115/115 111/111/111
f 115/115/115 116/116/116 111/111/111
f 116/116/116 115/115/115 117/117/117
f 115/115/115 118/118/118 117/117/117
f 118/118/118 119/119/119 117/117/117
f 119/119/119 120/120/120 117/117/117
f 123/123/123 122/122/122 121/121/121
f 124/124/124 123/123/123 121/121/121
f 124/124/124 125/125/125 123/123/123
f 125/125/125 126/126/126 123/123/123
f 127/127/127 126/126/126 125/125/125
f 128/128/128 127/127/127 125/125/125
f 131/131/131 130/130/130 129/129/129
f 132/132/132 131/131/131 129/129/129
f 132/132/132 133/133/133 131/131/131
f 133/133/133 134/134/134 131/131/131
f 135/135/135 134/134/134 133/133/133
f 136/136/136 135/135/135 133/133/133
f 136/136/136 137/137/137 135/135/135
f 137/137/137 138/138/138 135/135/135
f 141/141/141 140/140/140 139/139/139
f 141/141/141 142/142/142 140/140/140
f 145/145/145 144/144/144 143/143/143
f 146/146/146 145/145/145 143/143/143
f 147/147/147 146/146/146 143/143/143
f 148/148/148 147/147/147 143/143/143
f 148/148/148 149/149/149 147/147/147
f 149/149/149 150/150/150 147/147/147
f 150/150/150 149/149/149 151/151/151
f 151/151/151 152/152/152 150/150/150
f 151/151/151 153/153/153 152/152/152
f 156/156/156 155/155/155 154/154/154
f 155/155/155 157/157/157 154/154/154
f 154/154/154 157/157/157 158/158/158
f 157/157/157 155/155/155 159/159/159
f 157/157/157 160/160/160 158/158/158
f 157/157/157 159/159/159 161/161/161
f 161/161/161 160/160/160 157/157/157
f 164/164/164 163/163/163 162/162/162
f 165/165/165 164/164/164 162/162/162
f 168/168/168 167/167/167 166/166/166
f 166/166/166 169/169/169 168/168/168
f 172/172/172 171/171/171 170/170/170
f 171/171/171 173/173/173 170/170/170
f 170/170/170 173/173/173 174/174/174
f 173/173/173 175/175/175 174/174/174
f 174/174/174 176/176/176 170/170/170
f 175/175/175 177/177/177 174/174/174
f 174/174/174 178/178/178 176/176/176
f 177/177/177 178/178/178 174/174/174
f 178/178/178 179/179/179 176/176/176
f 177/177/177 180/180/180 178/178/178
f 179/179/179 178/178/178 181/181/181
f 180/180/180 182/182/182 178/178/178
f 178/178/178 182/182/182 181/181/181
f 185/185/185 184/184/184 183/183/183
f 184/184/184 186/186/186 183/183/183
f 184/184/184 187/187/187 186/186/186
f 187/187/187 188/188/188 186/186/186
f 191/191/191 190/190/190 189/189/189
f 190/190/190 192/192/192 189/189/189
f 190/190/190 193/193/193 192/192/192
f 193/193/193 194/194/194 192/192/192
f 197/197/197 196/196/196 195/195/195
f 196/196/196 198/198/198 195/195/195
f 196/196/196 199/199/199 198/198/198
f 199/199/199 200/200/200 198/198/198
f 203/203/203 202/202/202 201/201/201
f 204/204/204 203/203/203 201/201/201
f 207/207/207 206/206/206 205/205/205
f 208/208/208 207/207/207 205/205/205
f 208/208/208 205/205/205 209/209/209
f 210/210/210 208/208/208 209/209/209
f 213/213/213 212/212/212 211/211/211
f 214/214/214 213/213/213 211/211/211
f 211/211/211 215/215/215 214/214/214
f 211/211/211 216/216/216 215/215/215
f 216/216/216 217/217/217 215/215/215
f 215/215/215 218/218/218 214/214/214
f 215/215/215 219/219/219 218/218/218
f 219/219/219 220/220/220 218/218/218
f 218/218/218 221/221/221 214/214/214
f 221/221/221 222/222/222 214/214/214
