g Tent_Interior
v -3.605209 -2.781665 2.500412
v -3.605209 2.781665 -0.095711
v -3.605209 -2.781665 -0.095711
v -3.605209 2.781665 2.500412
v -0.205028 -2.781665 5.717538
v -0.205028 2.781665 5.717538
v 3.605209 2.781665 2.500412
v 3.605209 -2.781665 -0.095711
v 3.605209 2.781665 -0.095711
v 3.605209 -2.781665 2.500412
v 0.205028 2.781665 5.717538
v 0.205028 -2.781665 5.717538
v -0.068343 -2.781665 5.717538
v -0.205028 2.781665 5.717538
v -0.205028 -2.781665 5.717538
v -0.068343 2.781665 5.717538
v 0.068343 -2.781665 5.717538
v 0.068343 2.781665 5.717538
v 0.205028 -2.781665 5.717538
v 0.205028 2.781665 5.717538
v -1.522756 -2.781665 2.090868
v -3.605209 -2.781665 -0.095711
v -1.522756 -2.781665 -0.107565
v -3.605209 -2.781665 2.500412
v -0.035461 -2.781665 4.198291
v -0.205028 -2.781665 5.717538
v -0.008191 -2.781665 4.198291
v -0.068343 -2.781665 5.717538
v 0.008191 -2.781665 4.198291
v 0.068343 -2.781665 5.717538
v 0.035461 -2.781665 4.198291
v 0.205028 -2.781665 5.717538
v 1.522756 -2.781665 2.090868
v 3.605209 -2.781665 2.500412
v 1.522756 -2.781665 -0.107565
v 3.605209 -2.781665 -0.095711
v 0.35172 -2.781665 -0.107565
v 3.605209 -2.781665 -0.095711
v 1.522756 -2.781665 -0.107565
v 1.568065 -2.781665 -0.095711
v -0.35172 -2.781665 -0.107565
v -1.568065 -2.781665 -0.095711
v -1.522756 -2.781665 -0.107565
v -3.605209 -2.781665 -0.095711
v 3.605209 2.781665 2.500412
v 0.068343 2.781665 5.717538
v 0.205028 2.781665 5.717538
v 1.201736 2.781665 2.500412
v 3.605209 2.781665 -0.095711
v -0.068343 2.781665 5.717538
v 1.201736 2.781665 -0.095711
v -1.201736 2.781665 2.500412
v -0.205028 2.781665 5.717538
v -1.201736 2.781665 -0.095711
v -3.605209 2.781665 2.500412
v -3.605209 2.781665 -0.095711
v 1.568065 -2.781665 -0.095711
v 3.605209 2.781665 -0.095711
v 3.605209 -2.781665 -0.095711
v 1.201736 2.781665 -0.095711
v -1.568065 -2.781665 -0.095711
v -1.201736 2.781665 -0.095711
v -3.605209 -2.781665 -0.095711
v -3.605209 2.781665 -0.095711
v -1.568065 -2.781665 -0.095711
v 1.568065 -2.781665 -0.095711
v 1.568065 -4.087217 -0.095711
v -1.568065 -4.087217 -0.095711
vt 0.54357 0.660371
vt 0.973577 0.577703
vt 0.54357 0.577703
vt 0.973577 0.660371
vt 0.54357 0.964512
vt 0.973577 0.964512
vt 0.541966 0.661287
vt 0.971973 0.578537
vt 0.541966 0.578537
vt 0.971973 0.661287
vt 0.541966 0.965428
vt 0.971973 0.965428
vt 0.87538 0.965755
vt 0.631465 0.971748
vt 0.87538 0.971748
vt 0.631465 0.965755
vt 0.87538 0.959763
vt 0.631465 0.959763
vt 0.87538 0.95377
vt 0.631465 0.95377
vt 0.810384 0.22115
vt 0.967709 0.065525
vt 0.810355 0.068088
vt 0.96747 0.216456
vt 0.698035 0.345069
vt 0.707183 0.430965
vt 0.696288 0.345119
vt 0.699504 0.43091
vt 0.694966 0.345136
vt 0.691804 0.430743
vt 0.693627 0.345106
vt 0.68415 0.430764
vt 0.583752 0.222155
vt 0.426029 0.216456
vt 0.584731 0.067491
vt 0.426016 0.06409
vt 0.671816 0.067734
vt 0.426016 0.06409
vt 0.584731 0.067491
vt 0.581376 0.064401
vt 0.725322 0.067914
vt 0.813672 0.065069
vt 0.810355 0.068088
vt 0.967709 0.065525
vt 0.579871 0.451541
vt 0.314208 0.702734
vt 0.321585 0.702734
vt 0.400304 0.451541
vt 0.579871 0.348421
vt 0.306831 0.702734
vt 0.400304 0.348421
vt 0.220736 0.451541
vt 0.299454 0.702734
vt 0.220736 0.348421
vt 0.041168 0.451541
vt 0.041168 0.348421
vt 0.66675 0.249932
vt 0.883383 0.841545
vt 0.883383 0.249932
vt 0.627794 0.841545
vt 0.33325 0.249932
vt 0.372206 0.841544
vt 0.116617 0.249932
vt 0.116617 0.841544
vt 0.33325 0.249932
vt 0.66675 0.249932
vt 0.66675 0.111098
vt 0.33325 0.111098
vn 0.9184996 0 -0.3954219
vn 1 0 0
vn 1 0 0
vn 0.9184996 0 -0.3954219
vn 0.3698718 0 -0.9290828
vn 0.3698718 0 -0.9290828
vn -0.9184996 0 -0.3954219
vn -1 0 0
vn -1 0 0
vn -0.9184996 0 -0.3954219
vn -0.3698718 0 -0.9290828
vn -0.3698718 0 -0.9290828
vn 0 0 -1
vn 0.3698718 0 -0.9290828
vn 0.3698718 0 -0.9290828
vn 0 0 -1
vn 0 0 -1
vn 0 0 -1
vn -0.3698718 0 -0.9290828
vn -0.3698718 0 -0.9290828
vn 0 1 0
vn 0 1 0
vn 0 1 0
vn 0 1 0
vn 0 1 0
vn 0 1 0
vn 0 1 0
vn 0 1 0
vn 0 1 0
vn 0 1 0
vn 0 1 0
vn 0 1 0
vn 0 1 0
vn 0 1 0
vn 0 1 0
vn 0 1 0
vn 0 -1 0
vn 0 -1 0
vn 0 -1 0
vn 0 -1 0
vn 0 -1 0
vn 0 -1 0
vn 0 -1 0
vn 0 -1 0
vn 0 -1 0
vn 0 -1 0
vn 0 -1 0
vn 0 -1 0
vn 0 -1 0
vn 0 -1 0
vn 0 -1 0
vn 0 -1 0
vn 0 -1 0
vn 0 -1 0
vn 0 -1 0
vn 0 -1 0
vn 0 0 1
vn 0 0 1
vn 0 0 1
vn 0 0 1
vn 0 0 1
vn 0 0 1
vn 0 0 1
vn 0 0 1
vn 0 0 1
vn 0 0 1
vn 0 0 1
vn 0 0 1
g Tent_Interior_0
f 3/3/3 2/2/2 1/1/1
f 2/2/2 4/4/4 1/1/1
f 5/5/5 1/1/1 4/4/4
f 6/6/6 5/5/5 4/4/4
f 9/9/9 8/8/8 7/7/7
f 8/8/8 10/10/10 7/7/7
f 11/11/11 7/7/7 10/10/10
f 12/12/12 11/11/11 10/10/10
f 15/15/15 14/14/14 13/13/13
f 14/14/14 16/16/16 13/13/13
f 13/13/13 16/16/16 17/17/17
f 16/16/16 18/18/18 17/17/17
f 17/17/17 18/18/18 19/19/19
f 18/18/18 20/20/20 19/19/19
f 23/23/23 22/22/22 21/21/21
f 22/22/22 24/24/24 21/21/21
f 21/21/21 24/24/24 25/25/25
f 24/24/24 26/26/26 25/25/25
f 25/25/25 26/26/26 27/27/27
f 26/26/26 28/28/28 27/27/27
f 27/27/27 28/28/28 29/29/29
f 28/28/28 30/30/30 29/29/29
f 29/29/29 30/30/30 31/31/31
f 30/30/30 32/32/32 31/31/31
f 31/31/31 32/32/32 33/33/33
f 32/32/32 34/34/34 33/33/33
f 33/33/33 34/34/34 35/35/35
f 34/34/34 36/36/36 35/35/35
f 39/39/39 38/38/38 37/37/37
f 38/38/38 40/40/40 37/37/37
f 37/37/37 40/40/40 41/41/41
f 40/40/40 42/42/42 41/41/41
f 41/41/41 42/42/42 43/43/43
f 42/42/42 44/44/44 43/43/43
f 47/47/47 46/46/46 45/45/45
f 46/46/46 48/48/48 45/45/45
f 49/49/49 45/45/45 48/48/48
f 46/46/46 50/50/50 48/48/48
f 51/51/51 49/49/49 48/48/48
f 50/50/50 52/52/52 48/48/48
f 51/51/51 48/48/48 52/52/52
f 50/50/50 53/53/53 52/52/52
f 54/54/54 51/51/51 52/52/52
f 53/53/53 55/55/55 52/52/52
f 54/54/54 52/52/52 55/55/55
f 56/56/56 54/54/54 55/55/55
g Tent_Interior_1
f 59/59/59 58/58/58 57/57/57
f 58/58/58 60/60/60 57/57/57
f 57/57/57 60/60/60 61/61/61
f 60/60/60 62/62/62 61/61/61
f 61/61/61 62/62/62 63/63/63
f 62/62/62 64/64/64 63/63/63
f 67/67/67 66/66/66 65/65/65
f 68/68/68 67/67/67 65/65/65
