g Tent_Door
v -1.067109 -2.810827 2.091068
v -1.067109 -2.810827 -0.093709
v -1.253516 -2.810827 -0.069443
v -1.152466 -2.810827 2.500412
v -0.02485 -2.810827 4.222357
v -0.071287 -2.810827 4.496852
v 0.02485 -2.810827 4.222357
v 0.071287 -2.810827 4.496852
v 1.067109 -2.810827 2.091068
v 1.152466 -2.810827 2.500412
v 1.067109 -2.810827 -0.093709
v 1.253516 -2.810827 -0.069443
v -1.067109 -2.810827 2.091068
v -1.067109 -2.810827 -0.093709
v 1.067109 -2.810827 -0.093709
v 1.067109 -2.810827 2.091068
v -0.02485 -2.810827 4.222357
v 0.02485 -2.810827 4.222357
vt 0.646312 0.303288
vt 0.646312 0.007374
vt 0.99991 9E-05
vt 0.99991 0.360077
vt 0.503407 0.59551
vt 0.528429 0.806173
vt 0.496592 0.59551
vt 0.47157 0.806173
vt 0.353688 0.303288
vt 9E-05 0.360076
vt 0.353688 0.007375
vt 9E-05 9E-05
vt 0.646312 0.303288
vt 0.646312 0.007374
vt 0.353688 0.007375
vt 0.353688 0.303288
vt 0.503407 0.59551
vt 0.496592 0.59551
vn 0 -1 0
vn 0 -1 0
vn 0 -1 0
vn 0 -1 0
vn 0 -1 0
vn 0 -1 0
vn 0 -1 0
vn 0 -1 0
vn 0 -1 0
vn 0 -1 0
vn 0 -1 0
vn 0 -1 0
vn 0 1 0
vn 0 1 0
vn 0 1 0
vn 0 1 0
vn 0 1 0
vn 0 1 0
g Tent_Door_0
f 3/3/3 2/2/2 1/1/1
f 4/4/4 3/3/3 1/1/1
f 4/4/4 1/1/1 5/5/5
f 6/6/6 4/4/4 5/5/5
f 6/6/6 5/5/5 7/7/7
f 8/8/8 6/6/6 7/7/7
f 8/8/8 7/7/7 9/9/9
f 10/10/10 8/8/8 9/9/9
f 10/10/10 9/9/9 11/11/11
f 12/12/12 10/10/10 11/11/11
g Tent_Door_1
f 15/15/15 14/14/14 13/13/13
f 13/13/13 16/16/16 15/15/15
f 13/13/13 17/17/17 16/16/16
f 17/17/17 18/18/18 16/16/16
