g TinOre
v -0.025473 -0.248951 -0.082344
v -0.050577 0.090239 -0.082344
v -0.108205 -0.06948 -0.082344
v 0.122262 -0.149219 -0.082344
v 0.377265 0.058702 0.512868
v 0.090807 0.067787 -0.082344
v -0.025473 -0.248951 -0.082344
v 0.194892 -0.415091 0.492831
v 0.122262 -0.149219 -0.082344
v -0.050577 0.090239 -0.082344
v -0.318795 0.238591 0.611926
v -0.108205 -0.06948 -0.082344
v 0.090807 0.067787 -0.082344
v 0.044848 0.415144 0.510449
v -0.050577 0.090239 -0.082344
v 0.122262 -0.149219 -0.082344
v 0.194892 -0.415091 0.492831
v 0.377265 0.058702 0.512868
v -0.025473 -0.248951 -0.082344
v -0.297144 -0.328511 0.499009
v 0.194892 -0.415091 0.492831
v -0.050577 0.090239 -0.082344
v 0.044848 0.415144 0.510449
v -0.318795 0.238591 0.611926
v 0.090807 0.067787 -0.082344
v 0.377265 0.058702 0.512868
v 0.044848 0.415144 0.510449
v 0.194892 -0.415091 0.492831
v 0.008445 -0.000165 1.012538
v 0.377265 0.058702 0.512868
v -0.297144 -0.328511 0.499009
v 0.008445 -0.000165 1.012538
v 0.194892 -0.415091 0.492831
v -0.318795 0.238591 0.611926
v 0.008445 -0.000165 1.012538
v -0.297144 -0.328511 0.499009
v 0.044848 0.415144 0.510449
v 0.008445 -0.000165 1.012538
v -0.318795 0.238591 0.611926
v 0.377265 0.058702 0.512868
v 0.008445 -0.000165 1.012538
v 0.044848 0.415144 0.510449
v -0.012099 0.047982 -0.079339
v 0.050475 0.197146 -0.079339
v -0.025608 0.20772 -0.079339
v 0.067403 0.09495 -0.079339
v 0.204628 0.413514 0.143879
v 0.050475 0.197146 -0.079339
v -0.012099 0.047982 -0.079339
v 0.106487 0.18517 0.257817
v 0.067403 0.09495 -0.079339
v 0.106487 0.18517 0.257817
v 0.204628 0.413514 0.143879
v -0.05662 0.132502 -0.079339
v -0.158294 0.227552 0.238181
v -0.012099 0.047982 -0.079339
v -0.05662 0.132502 -0.079339
v -0.169945 0.524025 0.143686
v -0.025608 0.20772 -0.079339
v -0.169945 0.524025 0.143686
v -0.05662 0.132502 -0.079339
v -0.012099 0.047982 -0.079339
v -0.158294 0.227552 0.238181
v 0.106487 0.18517 0.257817
v -0.025608 0.20772 -0.079339
v 0.025743 0.531265 0.090089
v -0.169945 0.524025 0.143686
v 0.050475 0.197146 -0.079339
v 0.204628 0.413514 0.143879
v 0.025743 0.531265 0.090089
v 0.106487 0.18517 0.257817
v 0.006154 0.515904 0.394521
v 0.204628 0.413514 0.143879
v -0.158294 0.227552 0.238181
v 0.006154 0.515904 0.394521
v 0.106487 0.18517 0.257817
v -0.169945 0.524025 0.143686
v 0.006154 0.515904 0.394521
v -0.158294 0.227552 0.238181
v 0.025743 0.531265 0.090089
v 0.006154 0.515904 0.394521
v -0.169945 0.524025 0.143686
v 0.204628 0.413514 0.143879
v 0.006154 0.515904 0.394521
v 0.025743 0.531265 0.090089
v 0.090807 0.067787 -0.082344
v -0.025473 -0.248951 -0.082344
v 0.122262 -0.149219 -0.082344
v -0.050577 0.090239 -0.082344
v -0.108205 -0.06948 -0.082344
v -0.297144 -0.328511 0.499009
v -0.025473 -0.248951 -0.082344
v -0.318795 0.238591 0.611926
v -0.012099 0.047982 -0.079339
v -0.025608 0.20772 -0.079339
v -0.05662 0.132502 -0.079339
v 0.050475 0.197146 -0.079339
v 0.067403 0.09495 -0.079339
v 0.025743 0.531265 0.090089
vt 0.437416 0.62534
vt 0.443433 0.647617
vt 0.440262 0.63588
vt 0.439937 0.634675
vt 0.423805 0.67661
vt 0.443712 0.648651
vt 0.437416 0.62534
vt 0.415057 0.6408
vt 0.439937 0.634675
vt 0.443433 0.647617
vt 0.420168 0.680065
vt 0.440262 0.63588
vt 0.443712 0.648651
vt 0.42873 0.69443
vt 0.443433 0.647617
vt 0.439937 0.634675
vt 0.415057 0.6408
vt 0.423805 0.67661
vt 0.437416 0.62534
vt 0.414018 0.638011
vt 0.415057 0.6408
vt 0.443433 0.647617
vt 0.42873 0.69443
vt 0.420168 0.680065
vt 0.443712 0.648651
vt 0.423805 0.67661
vt 0.42873 0.69443
vt 0.415057 0.6408
vt 0.403211 0.685708
vt 0.423805 0.67661
vt 0.414018 0.638011
vt 0.403211 0.685708
vt 0.415057 0.6408
vt 0.420168 0.680065
vt 0.403211 0.685708
vt 0.414018 0.638011
vt 0.42873 0.69443
vt 0.403211 0.685708
vt 0.420168 0.680065
vt 0.423805 0.67661
vt 0.403211 0.685708
vt 0.42873 0.69443
vt 0.447777 0.618127
vt 0.442385 0.647297
vt 0.442704 0.645572
vt 0.445559 0.630128
vt 0.42313 0.682545
vt 0.442385 0.647297
vt 0.447777 0.618127
vt 0.42585 0.632651
vt 0.445559 0.630128
vt 0.42585 0.632651
vt 0.42313 0.682545
vt 0.445418 0.630888
vt 0.427735 0.628513
vt 0.447777 0.618127
vt 0.445418 0.630888
vt 0.42281 0.684336
vt 0.442704 0.645572
vt 0.42281 0.684336
vt 0.445418 0.630888
vt 0.447777 0.618127
vt 0.427735 0.628513
vt 0.42585 0.632651
vt 0.442704 0.645572
vt 0.423484 0.69724
vt 0.42281 0.684336
vt 0.442385 0.647297
vt 0.42313 0.682545
vt 0.423484 0.69724
vt 0.42585 0.632651
vt 0.409312 0.679911
vt 0.42313 0.682545
vt 0.427735 0.628513
vt 0.409312 0.679911
vt 0.42585 0.632651
vt 0.42281 0.684336
vt 0.409312 0.679911
vt 0.427735 0.628513
vt 0.423484 0.69724
vt 0.409312 0.679911
vt 0.42281 0.684336
vt 0.42313 0.682545
vt 0.409312 0.679911
vt 0.423484 0.69724
vt 0.443712 0.648651
vt 0.437416 0.62534
vt 0.439937 0.634675
vt 0.443433 0.647617
vt 0.440262 0.63588
vt 0.414018 0.638011
vt 0.437416 0.62534
vt 0.420168 0.680065
vt 0.447777 0.618127
vt 0.442704 0.645572
vt 0.445418 0.630888
vt 0.442385 0.647297
vt 0.445559 0.630128
vt 0.423484 0.69724
vn 0 0 -1
vn 0 0 -1
vn 0 0 -1
vn 0.926892 -0.1064722 -0.3599095
vn 0.9131771 0.1605454 -0.3746103
vn 0.8269998 0.4031366 -0.3918574
vn 0.509512 -0.7547504 -0.4132183
vn 0.7391536 -0.5709749 -0.3572669
vn 0.7391536 -0.5709749 -0.3572669
vn -0.7088962 0.5821159 -0.3982554
vn -0.8298506 0.4075795 -0.3810866
vn -0.9185085 -0.01492448 -0.3951196
vn 0.4362596 0.7907001 -0.4295009
vn 0.1315413 0.8828012 -0.4509531
vn -0.1849024 0.8740419 -0.4492905
vn 0.8434393 -0.3515027 -0.4062707
vn 0.7391536 -0.5709749 -0.3572669
vn 0.926892 -0.1064722 -0.3599095
vn -0.1719423 -0.9620236 -0.212006
vn -0.1719423 -0.9620236 -0.212006
vn -0.1719423 -0.9620236 -0.212006
vn -0.4614805 0.7486177 -0.4760328
vn -0.1849024 0.8740419 -0.4492905
vn -0.7088962 0.5821159 -0.3982554
vn 0.6429252 0.6090974 -0.4643785
vn 0.8269998 0.4031366 -0.3918574
vn 0.4362596 0.7907001 -0.4295009
vn 0.7792897 -0.3226837 0.537199
vn 0.7792897 -0.3226837 0.537199
vn 0.7792897 -0.3226837 0.537199
vn -0.1328931 -0.7972515 0.5888373
vn -0.1328931 -0.7972515 0.5888373
vn -0.1328931 -0.7972515 0.5888373
vn -0.8068377 -0.1448437 0.5727419
vn -0.8068377 -0.1448437 0.5727419
vn -0.8068377 -0.1448437 0.5727419
vn -0.1981526 0.7622833 0.6161653
vn -0.1981526 0.7622833 0.6161653
vn -0.1981526 0.7622833 0.6161653
vn 0.6200823 0.5818587 0.5262494
vn 0.6200823 0.5818587 0.5262494
vn 0.6200823 0.5818587 0.5262494
vn 0 0 -1
vn 0.1495715 0.2309532 -0.9613994
vn -0.1690241 0.252294 -0.9527742
vn 0.755519 0.1251461 -0.6430625
vn 0.642765 0.2783551 -0.7137027
vn 0.642765 0.2783551 -0.7137027
vn 0.1756669 -0.9318811 0.3173939
vn 0.4905935 -0.8397344 0.2327318
vn 0.749257 -0.6563038 0.08876533
vn 0.749257 -0.6563038 0.08876533
vn 0.9186034 -0.39518 -0.0007401588
vn -0.9315354 -0.2974094 -0.2092598
vn -0.9315354 -0.2974094 -0.2092598
vn -0.8757513 -0.4613029 -0.1423353
vn -0.8960302 -0.1222673 -0.4268262
vn -0.8357347 0.06846406 -0.5448488
vn -0.1690241 0.252294 -0.9527742
vn -0.6793758 0.2278673 -0.6975134
vn -0.6116512 0.05010696 -0.7895392
vn 0.1756669 -0.9318811 0.3173939
vn -0.1629022 -0.6918045 0.7034696
vn 0.07416895 -0.8192007 0.5686908
vn -0.1690241 0.252294 -0.9527742
vn -0.09365984 0.4734903 -0.8758053
vn -0.4397364 0.3748195 -0.8161755
vn 0.2877251 0.217664 -0.9326504
vn 0.642765 0.2783551 -0.7137027
vn 0.2912501 0.4497189 -0.8443496
vn 0.7792906 -0.02244633 0.6262606
vn 0.7792906 -0.02244633 0.6262606
vn 0.7792906 -0.02244633 0.6262606
vn -0.1629022 -0.6918045 0.7034696
vn -0.1328936 -0.4127673 0.9010896
vn -0.1629022 -0.6918045 0.7034696
vn -0.8068383 0.1503865 0.5713106
vn -0.8068383 0.1503865 0.5713106
vn -0.8068383 0.1503865 0.5713106
vn 0.2655262 0.9618679 0.06561943
vn 0.2655262 0.9618679 0.06561943
vn -0.02355879 0.9985274 0.04886771
vn 0.5319897 0.8432624 0.07678073
vn 0.2655262 0.9618679 0.06561943
vn 0.2655262 0.9618679 0.06561943
vn 0 0 -1
vn 0 0 -1
vn 0 0 -1
vn 0 0 -1
vn -0.9185085 -0.01492448 -0.3951196
vn -0.908609 -0.1814797 -0.3761579
vn -0.8181844 -0.3771642 -0.4339603
vn -0.9197406 0.1693375 -0.3541217
vn 0 0 -1
vn -0.1690241 0.252294 -0.9527742
vn -0.3259147 0.134373 -0.935801
vn 0.1495715 0.2309532 -0.9613994
vn 0 0 -1
vn 0.1118596 0.4758391 -0.8723902
g TinOre_0
f 3/3/3 2/2/2 1/1/1
f 6/6/6 5/5/5 4/4/4
f 9/9/9 8/8/8 7/7/7
f 12/12/12 11/11/11 10/10/10
f 15/15/15 14/14/14 13/13/13
f 18/18/18 17/17/17 16/16/16
f 21/21/21 20/20/20 19/19/19
f 24/24/24 23/23/23 22/22/22
f 27/27/27 26/26/26 25/25/25
f 30/30/30 29/29/29 28/28/28
f 33/33/33 32/32/32 31/31/31
f 36/36/36 35/35/35 34/34/34
f 39/39/39 38/38/38 37/37/37
f 42/42/42 41/41/41 40/40/40
f 45/45/45 44/44/44 43/43/43
f 48/48/48 47/47/47 46/46/46
f 51/51/51 50/50/50 49/49/49
f 53/53/53 52/52/52 51/51/51
f 56/56/56 55/55/55 54/54/54
f 55/55/55 58/58/58 57/57/57
f 61/61/61 60/60/60 59/59/59
f 64/64/64 63/63/63 62/62/62
f 67/67/67 66/66/66 65/65/65
f 70/70/70 69/69/69 68/68/68
f 73/73/73 72/72/72 71/71/71
f 76/76/76 75/75/75 74/74/74
f 79/79/79 78/78/78 77/77/77
f 82/82/82 81/81/81 80/80/80
f 85/85/85 84/84/84 83/83/83
f 88/88/88 87/87/87 86/86/86
f 89/89/89 86/86/86 87/87/87
f 92/92/92 91/91/91 90/90/90
f 91/91/91 93/93/93 90/90/90
f 96/96/96 95/95/95 94/94/94
f 98/98/98 94/94/94 97/97/97
f 95/95/95 99/99/99 97/97/97
