g TrapSide
v -0.897154 -0.090666 -0.897154
v -0.897154 -0.090666 0.897154
v -0.897154 0.040601 0.897154
v -0.897154 0.040601 -0.897154
v 1 -0.090666 1
v -1 -0.090666 1
v -1 0.040601 1
v 1 0.040601 1
v 1 -0.090666 -1
v 1 -0.090666 1
v 1 0.040601 1
v 1 0.040601 -1
v -0.897154 -0.090666 0.897154
v 0.897154 -0.090666 0.897154
v 0.897154 0.040601 0.897154
v -0.897154 0.040601 0.897154
v 0.897154 -0.090666 0.897154
v 0.897154 -0.090666 -0.897154
v 0.897154 0.040601 -0.897154
v 0.897154 0.040601 0.897154
v -1 -0.090666 -1
v 1 -0.090666 -1
v 1 0.040601 -1
v -1 0.040601 -1
v -1 -0.090666 1
v -1 -0.090666 -1
v -1 0.040601 -1
v -1 0.040601 1
v 0.897154 -0.090666 -0.897154
v -0.897154 -0.090666 -0.897154
v -0.897154 0.040601 -0.897154
v 0.897154 0.040601 -0.897154
v 0.012669 -0.067447 -0.920958
v -0.012669 -0.067447 0.91689
v 0.012669 -0.067447 0.91689
v -0.012669 -0.067447 -0.920958
v -0.036045 -0.044071 0.91689
v -0.036045 -0.044071 -0.920958
v 0.036045 -0.018733 -0.920958
v 0.036045 -0.044071 -0.920958
v 0.036045 -0.044071 0.91689
v 0.036045 -0.018733 0.91689
v 0.012669 0.004643 -0.920958
v 0.012669 0.004643 0.91689
v -0.012669 0.004643 -0.920958
v 0.012669 0.004643 -0.920958
v 0.012669 0.004643 0.91689
v -0.012669 0.004643 0.91689
v -0.036045 -0.018733 -0.920958
v -0.036045 -0.018733 0.91689
v 0.012669 -0.067447 0.91689
v 0.036045 -0.044071 0.91689
v 0.036045 -0.044071 -0.920958
v 0.012669 -0.067447 -0.920958
v -0.036045 -0.044071 -0.920958
v -0.036045 -0.018733 -0.920958
v -0.036045 -0.018733 0.91689
v -0.036045 -0.044071 0.91689
v -0.287331 -0.067447 -0.920958
v -0.312669 -0.067447 -0.920958
v -0.312669 -0.067447 0.91689
v -0.287331 -0.067447 0.91689
v -0.263955 -0.044071 -0.920958
v -0.263955 -0.044071 0.91689
v -0.263955 -0.018733 -0.920958
v -0.263955 -0.044071 -0.920958
v -0.263955 -0.044071 0.91689
v -0.263955 -0.018733 0.91689
v -0.312669 0.004643 -0.920958
v -0.287331 0.004643 0.91689
v -0.312669 0.004643 0.91689
v -0.287331 0.004643 -0.920958
v -0.263955 -0.018733 0.91689
v -0.263955 -0.018733 -0.920958
v -0.312669 -0.067447 -0.920958
v -0.336045 -0.044071 -0.920958
v -0.336045 -0.044071 0.91689
v -0.312669 -0.067447 0.91689
v -0.312669 0.004643 0.91689
v -0.336045 -0.018733 -0.920958
v -0.312669 0.004643 -0.920958
v -0.336045 -0.018733 0.91689
v -0.336045 -0.044071 -0.920958
v -0.336045 -0.044071 0.91689
v 0.312669 -0.067447 -0.920958
v 0.287331 -0.067447 0.91689
v 0.312669 -0.067447 0.91689
v 0.287331 -0.067447 -0.920958
v 0.263955 -0.044071 0.91689
v 0.263955 -0.044071 -0.920958
v 0.336045 -0.018733 -0.920958
v 0.336045 -0.044071 -0.920958
v 0.336045 -0.044071 0.91689
v 0.336045 -0.018733 0.91689
v 0.312669 0.004643 -0.920958
v 0.312669 0.004643 0.91689
v 0.287331 0.004643 -0.920958
v 0.312669 0.004643 -0.920958
v 0.312669 0.004643 0.91689
v 0.287331 0.004643 0.91689
v 0.263955 -0.018733 -0.920958
v 0.263955 -0.018733 0.91689
v 0.312669 -0.067447 0.91689
v 0.336045 -0.044071 0.91689
v 0.336045 -0.044071 -0.920958
v 0.312669 -0.067447 -0.920958
v 0.263955 -0.044071 -0.920958
v 0.263955 -0.018733 -0.920958
v 0.263955 -0.018733 0.91689
v 0.263955 -0.044071 0.91689
v 0.612669 -0.067447 -0.920958
v 0.587331 -0.067447 0.91689
v 0.612669 -0.067447 0.91689
v 0.587331 -0.067447 -0.920958
v 0.563955 -0.044071 0.91689
v 0.563955 -0.044071 -0.920958
v 0.636045 -0.018733 -0.920958
v 0.636045 -0.044071 -0.920958
v 0.636045 -0.044071 0.91689
v 0.636045 -0.018733 0.91689
v 0.612669 0.004643 -0.920958
v 0.612669 0.004643 0.91689
v 0.587331 0.004643 -0.920958
v 0.612669 0.004643 -0.920958
v 0.612669 0.004643 0.91689
v 0.587331 0.004643 0.91689
v 0.587331 0.004643 0.91689
v 0.563955 -0.018733 -0.920958
v 0.587331 0.004643 -0.920958
v 0.563955 -0.018733 0.91689
v 0.563955 -0.044071 -0.920958
v 0.563955 -0.044071 0.91689
v 0.612669 -0.067447 0.91689
v 0.636045 -0.044071 0.91689
v 0.636045 -0.044071 -0.920958
v 0.612669 -0.067447 -0.920958
v -0.587331 -0.067447 -0.920958
v -0.612669 -0.067447 0.91689
v -0.587331 -0.067447 0.91689
v -0.612669 -0.067447 -0.920958
v -0.636045 -0.044071 0.91689
v -0.636045 -0.044071 -0.920958
v -0.563955 -0.018733 -0.920958
v -0.563955 -0.044071 -0.920958
v -0.563955 -0.044071 0.91689
v -0.563955 -0.018733 0.91689
v -0.587331 0.004643 -0.920958
v -0.587331 0.004643 0.91689
v -0.612669 0.004643 -0.920958
v -0.587331 0.004643 -0.920958
v -0.587331 0.004643 0.91689
v -0.612669 0.004643 0.91689
v -0.612669 0.004643 0.91689
v -0.636045 -0.018733 -0.920958
v -0.612669 0.004643 -0.920958
v -0.636045 -0.018733 0.91689
v -0.636045 -0.044071 -0.920958
v -0.636045 -0.044071 0.91689
v -0.587331 -0.067447 0.91689
v -0.563955 -0.044071 0.91689
v -0.563955 -0.044071 -0.920958
v -0.587331 -0.067447 -0.920958
v -0.897154 -0.090666 -0.897154
v -1 -0.090666 -1
v -1 -0.090666 1
v -0.897154 -0.090666 0.897154
v 0.897154 -0.090666 -0.897154
v 1 -0.090666 1
v 1 -0.090666 -1
v 0.897154 -0.090666 0.897154
v -0.897154 0.040601 -0.897154
v -0.897154 0.040601 0.897154
v -1 0.040601 1
v -1 0.040601 -1
v 1 0.040601 1
v 0.897154 0.040601 -0.897154
v 0.897154 0.040601 0.897154
v 1 0.040601 -1
vn 1 0 0
vn 1 0 0
vn 1 0 0
vn 1 0 0
vn 0 0 1
vn 0 0 1
vn 0 0 1
vn 0 0 1
vn 1 0 0
vn 1 0 0
vn 1 0 0
vn 1 0 0
vn 0 0 -1
vn 0 0 -1
vn 0 0 -1
vn 0 0 -1
vn -1 0 0
vn -1 0 0
vn -1 0 0
vn -1 0 0
vn 0 0 -1
vn 0 0 -1
vn 0 0 -1
vn 0 0 -1
vn -1 0 0
vn -1 0 0
vn -1 0 0
vn -1 0 0
vn 0 0 1
vn 0 0 1
vn 0 0 1
vn 0 0 1
vn 0.3826834 -0.9238795 0
vn -0.3826834 -0.9238795 0
vn 0.3826834 -0.9238795 0
vn -0.3826834 -0.9238795 0
vn -0.9238795 -0.3826834 0
vn -0.9238795 -0.3826834 0
vn 0.9238795 0.3826834 0
vn 0.9238795 -0.3826834 0
vn 0.9238795 -0.3826834 0
vn 0.9238795 0.3826834 0
vn 0.3826835 0.9238795 0
vn 0.3826835 0.9238795 0
vn -0.3826835 0.9238795 0
vn 0.3826835 0.9238795 0
vn 0.3826835 0.9238795 0
vn -0.3826835 0.9238795 0
vn -0.9238795 0.3826834 0
vn -0.9238795 0.3826834 0
vn 0.3826834 -0.9238795 0
vn 0.9238795 -0.3826834 0
vn 0.9238795 -0.3826834 0
vn 0.3826834 -0.9238795 0
vn -0.9238795 -0.3826834 0
vn -0.9238795 0.3826834 0
vn -0.9238795 0.3826834 0
vn -0.9238795 -0.3826834 0
vn 0.3826832 -0.9238796 0
vn -0.3826835 -0.9238795 0
vn -0.3826835 -0.9238795 0
vn 0.3826832 -0.9238796 0
vn 0.9238794 -0.3826836 0
vn 0.9238794 -0.3826836 0
vn 0.9238794 0.3826836 0
vn 0.9238794 -0.3826836 0
vn 0.9238794 -0.3826836 0
vn 0.9238794 0.3826836 0
vn -0.3826835 0.9238794 0
vn 0.3826832 0.9238796 0
vn -0.3826835 0.9238794 0
vn 0.3826832 0.9238796 0
vn 0.9238794 0.3826836 0
vn 0.9238794 0.3826836 0
vn -0.3826835 -0.9238795 0
vn -0.9238795 -0.3826833 0
vn -0.9238795 -0.3826833 0
vn -0.3826835 -0.9238795 0
vn -0.3826835 0.9238794 0
vn -0.9238795 0.3826833 0
vn -0.3826835 0.9238794 0
vn -0.9238795 0.3826833 0
vn -0.9238795 -0.3826833 0
vn -0.9238795 -0.3826833 0
vn 0.3826835 -0.9238795 0
vn -0.3826832 -0.9238796 0
vn 0.3826835 -0.9238795 0
vn -0.3826832 -0.9238796 0
vn -0.9238794 -0.3826836 0
vn -0.9238794 -0.3826836 0
vn 0.9238795 0.3826833 0
vn 0.9238795 -0.3826833 0
vn 0.9238795 -0.3826833 0
vn 0.9238795 0.3826833 0
vn 0.3826835 0.9238794 0
vn 0.3826835 0.9238794 0
vn -0.3826832 0.9238796 0
vn 0.3826835 0.9238794 0
vn 0.3826835 0.9238794 0
vn -0.3826832 0.9238796 0
vn -0.9238794 0.3826836 0
vn -0.9238794 0.3826836 0
vn 0.3826835 -0.9238795 0
vn 0.9238795 -0.3826833 0
vn 0.9238795 -0.3826833 0
vn 0.3826835 -0.9238795 0
vn -0.9238794 -0.3826836 0
vn -0.9238794 0.3826836 0
vn -0.9238794 0.3826836 0
vn -0.9238794 -0.3826836 0
vn 0.3826835 -0.9238795 0
vn -0.3826835 -0.9238795 0
vn 0.3826835 -0.9238795 0
vn -0.3826835 -0.9238795 0
vn -0.9238795 -0.3826833 0
vn -0.9238795 -0.3826833 0
vn 0.9238795 0.3826833 0
vn 0.9238795 -0.3826833 0
vn 0.9238795 -0.3826833 0
vn 0.9238795 0.3826833 0
vn 0.3826835 0.9238794 0
vn 0.3826835 0.9238794 0
vn -0.3826835 0.9238794 0
vn 0.3826835 0.9238794 0
vn 0.3826835 0.9238794 0
vn -0.3826835 0.9238794 0
vn -0.3826835 0.9238794 0
vn -0.9238795 0.3826833 0
vn -0.3826835 0.9238794 0
vn -0.9238795 0.3826833 0
vn -0.9238795 -0.3826833 0
vn -0.9238795 -0.3826833 0
vn 0.3826835 -0.9238795 0
vn 0.9238795 -0.3826833 0
vn 0.9238795 -0.3826833 0
vn 0.3826835 -0.9238795 0
vn 0.3826835 -0.9238795 0
vn -0.3826835 -0.9238795 0
vn 0.3826835 -0.9238795 0
vn -0.3826835 -0.9238795 0
vn -0.9238795 -0.3826833 0
vn -0.9238795 -0.3826833 0
vn 0.9238795 0.3826833 0
vn 0.9238795 -0.3826833 0
vn 0.9238795 -0.3826833 0
vn 0.9238795 0.3826833 0
vn 0.3826835 0.9238794 0
vn 0.3826835 0.9238794 0
vn -0.3826835 0.9238794 0
vn 0.3826835 0.9238794 0
vn 0.3826835 0.9238794 0
vn -0.3826835 0.9238794 0
vn -0.3826835 0.9238794 0
vn -0.9238795 0.3826833 0
vn -0.3826835 0.9238794 0
vn -0.9238795 0.3826833 0
vn -0.9238795 -0.3826833 0
vn -0.9238795 -0.3826833 0
vn 0.3826835 -0.9238795 0
vn 0.9238795 -0.3826833 0
vn 0.9238795 -0.3826833 0
vn 0.3826835 -0.9238795 0
vn 0 -1 0
vn 0 -1 0
vn 0 -1 0
vn 0 -1 0
vn 0 -1 0
vn 0 -1 0
vn 0 -1 0
vn 0 -1 0
vn 0 1 0
vn 0 1 0
vn 0 1 0
vn 0 1 0
vn 0 1 0
vn 0 1 0
vn 0 1 0
vn 0 1 0
g TrapSide_0
f 3/3/3 2/2/2 1/1/1
f 4/4/4 3/3/3 1/1/1
f 7/7/7 6/6/6 5/5/5
f 8/8/8 7/7/7 5/5/5
f 11/11/11 10/10/10 9/9/9
f 12/12/12 11/11/11 9/9/9
f 15/15/15 14/14/14 13/13/13
f 16/16/16 15/15/15 13/13/13
f 19/19/19 18/18/18 17/17/17
f 20/20/20 19/19/19 17/17/17
f 23/23/23 22/22/22 21/21/21
f 24/24/24 23/23/23 21/21/21
f 27/27/27 26/26/26 25/25/25
f 28/28/28 27/27/27 25/25/25
f 31/31/31 30/30/30 29/29/29
f 32/32/32 31/31/31 29/29/29
f 35/35/35 34/34/34 33/33/33
f 34/34/34 36/36/36 33/33/33
f 34/34/34 37/37/37 36/36/36
f 37/37/37 38/38/38 36/36/36
f 41/41/41 40/40/40 39/39/39
f 42/42/42 41/41/41 39/39/39
f 39/39/39 43/43/43 42/42/42
f 43/43/43 44/44/44 42/42/42
f 47/47/47 46/46/46 45/45/45
f 48/48/48 47/47/47 45/45/45
f 45/45/45 49/49/49 48/48/48
f 49/49/49 50/50/50 48/48/48
f 53/53/53 52/52/52 51/51/51
f 54/54/54 53/53/53 51/51/51
f 57/57/57 56/56/56 55/55/55
f 58/58/58 57/57/57 55/55/55
f 61/61/61 60/60/60 59/59/59
f 62/62/62 61/61/61 59/59/59
f 59/59/59 63/63/63 62/62/62
f 63/63/63 64/64/64 62/62/62
f 67/67/67 66/66/66 65/65/65
f 68/68/68 67/67/67 65/65/65
f 71/71/71 70/70/70 69/69/69
f 70/70/70 72/72/72 69/69/69
f 72/72/72 70/70/70 73/73/73
f 74/74/74 72/72/72 73/73/73
f 77/77/77 76/76/76 75/75/75
f 78/78/78 77/77/77 75/75/75
f 81/81/81 80/80/80 79/79/79
f 80/80/80 82/82/82 79/79/79
f 82/82/82 80/80/80 83/83/83
f 84/84/84 82/82/82 83/83/83
f 87/87/87 86/86/86 85/85/85
f 86/86/86 88/88/88 85/85/85
f 86/86/86 89/89/89 88/88/88
f 89/89/89 90/90/90 88/88/88
f 93/93/93 92/92/92 91/91/91
f 94/94/94 93/93/93 91/91/91
f 91/91/91 95/95/95 94/94/94
f 95/95/95 96/96/96 94/94/94
f 99/99/99 98/98/98 97/97/97
f 100/100/100 99/99/99 97/97/97
f 97/97/97 101/101/101 100/100/100
f 101/101/101 102/102/102 100/100/100
f 105/105/105 104/104/104 103/103/103
f 106/106/106 105/105/105 103/103/103
f 109/109/109 108/108/108 107/107/107
f 110/110/110 109/109/109 107/107/107
f 113/113/113 112/112/112 111/111/111
f 112/112/112 114/114/114 111/111/111
f 112/112/112 115/115/115 114/114/114
f 115/115/115 116/116/116 114/114/114
f 119/119/119 118/118/118 117/117/117
f 120/120/120 119/119/119 117/117/117
f 117/117/117 121/121/121 120/120/120
f 121/121/121 122/122/122 120/120/120
f 125/125/125 124/124/124 123/123/123
f 126/126/126 125/125/125 123/123/123
f 129/129/129 128/128/128 127/127/127
f 128/128/128 130/130/130 127/127/127
f 130/130/130 128/128/128 131/131/131
f 132/132/132 130/130/130 131/131/131
f 135/135/135 134/134/134 133/133/133
f 136/136/136 135/135/135 133/133/133
f 139/139/139 138/138/138 137/137/137
f 138/138/138 140/140/140 137/137/137
f 138/138/138 141/141/141 140/140/140
f 141/141/141 142/142/142 140/140/140
f 145/145/145 144/144/144 143/143/143
f 146/146/146 145/145/145 143/143/143
f 143/143/143 147/147/147 146/146/146
f 147/147/147 148/148/148 146/146/146
f 151/151/151 150/150/150 149/149/149
f 152/152/152 151/151/151 149/149/149
f 155/155/155 154/154/154 153/153/153
f 154/154/154 156/156/156 153/153/153
f 156/156/156 154/154/154 157/157/157
f 158/158/158 156/156/156 157/157/157
f 161/161/161 160/160/160 159/159/159
f 162/162/162 161/161/161 159/159/159
f 165/165/165 164/164/164 163/163/163
f 166/166/166 165/165/165 163/163/163
f 163/163/163 164/164/164 167/167/167
f 168/168/168 165/165/165 166/166/166
f 164/164/164 169/169/169 167/167/167
f 170/170/170 168/168/168 166/166/166
f 167/167/167 169/169/169 170/170/170
f 169/169/169 168/168/168 170/170/170
f 173/173/173 172/172/172 171/171/171
f 174/174/174 173/173/173 171/171/171
f 173/173/173 175/175/175 172/172/172
f 174/174/174 171/171/171 176/176/176
f 175/175/175 177/177/177 172/172/172
f 178/178/178 174/174/174 176/176/176
f 178/178/178 176/176/176 177/177/177
f 175/175/175 178/178/178 177/177/177
