g TreeBauble_Blue
v 0.244058 0 -0.063092
v 0.093397 -0.093397 0.011104
v 0.132083 0 0.011104
v 0.172575 -0.172575 -0.063092
v 0.318877 0 -0.174134
v 0 -0.132083 0.011104
v 0.22548 -0.22548 -0.174134
v 0.34515 0 -0.305117
v 0 -0.244058 -0.063092
v -0.093397 -0.093397 0.011104
v 0.244058 -0.244058 -0.305117
v 0.318877 0 -0.4361
v 0 -0.318877 -0.174134
v -0.172575 -0.172575 -0.063092
v -0.132083 0 0.011104
v -0.244058 0 -0.063092
v -0.22548 -0.22548 -0.174134
v -0.318877 0 -0.174134
v 0.22548 -0.22548 -0.4361
v 0.244058 0 -0.547142
v 0 -0.34515 -0.305117
v -0.244058 -0.244058 -0.305117
v -0.34515 0 -0.305117
v 0.172575 -0.172575 -0.547142
v 0.132083 0 -0.621338
v 0 -0.318877 -0.4361
v -0.22548 -0.22548 -0.4361
v -0.318877 0 -0.4361
v 0.093397 -0.093397 -0.621338
v 0 0 -0.647392
v 0 -0.244058 -0.547142
v -0.172575 -0.172575 -0.547142
v -0.244058 0 -0.547142
v 0 -0.132083 -0.621338
v -0.093397 -0.093397 -0.621338
v -0.132083 0 -0.621338
v -0.244058 0 -0.063092
v -0.093397 0.093397 0.011104
v -0.132083 0 0.011104
v -0.172575 0.172575 -0.063092
v -0.318877 0 -0.174134
v 0 0.132083 0.011104
v -0.22548 0.22548 -0.174134
v -0.34515 0 -0.305117
v 0 0.244058 -0.063092
v 0.093397 0.093397 0.011104
v -0.244058 0.244058 -0.305117
v -0.318877 0 -0.4361
v 0.172575 0.172575 -0.063092
v 0.132083 0 0.011104
v 0.244058 0 -0.063092
v 0 0.318877 -0.174134
v 0.22548 0.22548 -0.174134
v 0.318877 0 -0.174134
v -0.22548 0.22548 -0.4361
v -0.244058 0 -0.547142
v 0 0.34515 -0.305117
v 0.244058 0.244058 -0.305117
v 0.34515 0 -0.305117
v -0.172575 0.172575 -0.547142
v -0.132083 0 -0.621338
v 0 0.318877 -0.4361
v 0.22548 0.22548 -0.4361
v 0.318877 0 -0.4361
v -0.093397 0.093397 -0.621338
v 0 0 -0.647392
v 0 0.244058 -0.547142
v 0.172575 0.172575 -0.547142
v 0.244058 0 -0.547142
v 0 0.132083 -0.621338
v 0.093397 0.093397 -0.621338
v 0.132083 0 -0.621338
v 0.132083 0 0.011104
v 0.132083 0 0.046209
v 0.093397 0.093397 0.046209
v 0.093397 0.093397 0.011104
v 0 0.132083 0.046209
v 0 0.132083 0.011104
v -0.093397 0.093397 0.046209
v -0.093397 0.093397 0.011104
v -0.132083 0 0.046209
v -0.132083 0 0.011104
v 0.093397 -0.093397 0.011104
v 0.132083 0 0.046209
v 0.132083 0 0.011104
v 0.093397 -0.093397 0.046209
v 0 -0.132083 0.011104
v 0 -0.132083 0.046209
v -0.093397 -0.093397 0.011104
v -0.093397 -0.093397 0.046209
v -0.132083 0 0.011104
v -0.132083 0 0.046209
v 0.043838 -0.043838 0.062406
v 0.061996 0 0.155849
v 0.061996 0 0.062406
v 0.043838 -0.043838 0.155849
v 0 -0.061996 0.062406
v 0 0 0.199103
v 0 -0.061996 0.155849
v -0.043838 -0.043838 0.062406
v -0.043838 -0.043838 0.155849
v -0.061996 0 0.155849
v -0.061996 0 0.062406
v -0.043838 0.043838 0.062406
v -0.061996 0 0.155849
v -0.061996 0 0.062406
v -0.043838 0.043838 0.155849
v 0 0 0.199103
v 0 0.061996 0.062406
v 0 0.061996 0.155849
v 0.043838 0.043838 0.062406
v 0.043838 0.043838 0.155849
v 0.061996 0 0.062406
v 0 0 0.199103
v 0.061996 0 0.155849
v 0.043838 0.043838 0.062406
v 0.132083 0 0.046209
v 0.061996 0 0.062406
v 0.093397 0.093397 0.046209
v 0 0.061996 0.062406
v 0 0.132083 0.046209
v -0.043838 0.043838 0.062406
v -0.093397 0.093397 0.046209
v -0.061996 0 0.062406
v -0.132083 0 0.046209
v 0.061996 0 0.062406
v 0.132083 0 0.046209
v 0.093397 -0.093397 0.046209
v 0.043838 -0.043838 0.062406
v 0 -0.132083 0.046209
v 0 -0.061996 0.062406
v -0.093397 -0.093397 0.046209
v -0.043838 -0.043838 0.062406
v -0.132083 0 0.046209
v -0.061996 0 0.062406
vt 0.60524 0.981007
vt 0.580573 0.993839
vt 0.586907 0.993839
vt 0.593536 0.981007
vt 0.617489 0.961804
vt 0.565282 0.993839
vt 0.602198 0.961804
vt 0.621791 0.939151
vt 0.565282 0.981007
vt 0.549991 0.993839
vt 0.60524 0.939151
vt 0.617489 0.916499
vt 0.565282 0.961804
vt 0.537028 0.981007
vt 0.543657 0.993839
vt 0.525325 0.981007
vt 0.528366 0.961804
vt 0.513075 0.961804
vt 0.602198 0.916499
vt 0.60524 0.897296
vt 0.565282 0.939151
vt 0.525325 0.939151
vt 0.508774 0.939151
vt 0.593536 0.897296
vt 0.586907 0.884464
vt 0.565282 0.916499
vt 0.528366 0.916499
vt 0.513075 0.916499
vt 0.580573 0.884464
vt 0.565282 0.879959
vt 0.565282 0.897296
vt 0.537028 0.897296
vt 0.525325 0.897296
vt 0.565282 0.884464
vt 0.549991 0.884464
vt 0.543657 0.884464
vt 0.525325 0.981007
vt 0.549991 0.993839
vt 0.543657 0.993839
vt 0.537028 0.981007
vt 0.513075 0.961804
vt 0.565282 0.993839
vt 0.528366 0.961804
vt 0.508774 0.939151
vt 0.565282 0.981007
vt 0.580573 0.993839
vt 0.525325 0.939151
vt 0.513075 0.916499
vt 0.593536 0.981007
vt 0.586907 0.993839
vt 0.60524 0.981007
vt 0.565282 0.961804
vt 0.602198 0.961804
vt 0.617489 0.961804
vt 0.528366 0.916499
vt 0.525325 0.897296
vt 0.565282 0.939151
vt 0.60524 0.939151
vt 0.621791 0.939151
vt 0.537028 0.897296
vt 0.543657 0.884464
vt 0.565282 0.916499
vt 0.602198 0.916499
vt 0.617489 0.916499
vt 0.549991 0.884464
vt 0.565282 0.879959
vt 0.565282 0.897296
vt 0.593536 0.897296
vt 0.60524 0.897296
vt 0.565282 0.884464
vt 0.580573 0.884464
vt 0.586907 0.884464
vt 0.743321 0.889608
vt 0.743321 0.909709
vt 0.726993 0.909709
vt 0.726993 0.889608
vt 0.687574 0.909709
vt 0.687574 0.889608
vt 0.648154 0.909709
vt 0.648154 0.889608
vt 0.631826 0.909709
vt 0.631826 0.889608
vt 0.726993 0.889608
vt 0.743321 0.909709
vt 0.743321 0.889608
vt 0.726993 0.909709
vt 0.687574 0.889608
vt 0.687574 0.909709
vt 0.648154 0.889608
vt 0.648154 0.909709
vt 0.631826 0.889608
vt 0.631826 0.909709
vt 0.706076 0.918984
vt 0.71374 0.97249
vt 0.71374 0.918984
vt 0.706076 0.97249
vt 0.687574 0.918984
vt 0.687574 0.997258
vt 0.687574 0.97249
vt 0.669071 0.918984
vt 0.669071 0.97249
vt 0.661407 0.97249
vt 0.661407 0.918984
vt 0.669071 0.918984
vt 0.661407 0.97249
vt 0.661407 0.918984
vt 0.669071 0.97249
vt 0.687574 0.997258
vt 0.687574 0.918984
vt 0.687574 0.97249
vt 0.706076 0.918984
vt 0.706076 0.97249
vt 0.71374 0.918984
vt 0.687574 0.997258
vt 0.71374 0.97249
vt 0.706076 0.918984
vt 0.743321 0.909709
vt 0.71374 0.918984
vt 0.726993 0.909709
vt 0.687574 0.918984
vt 0.687574 0.909709
vt 0.669071 0.918984
vt 0.648154 0.909709
vt 0.661407 0.918984
vt 0.631826 0.909709
vt 0.71374 0.918984
vt 0.743321 0.909709
vt 0.726993 0.909709
vt 0.706076 0.918984
vt 0.687574 0.909709
vt 0.687574 0.918984
vt 0.648154 0.909709
vt 0.669071 0.918984
vt 0.631826 0.909709
vt 0.661407 0.918984
vn 0.753628 0 0.6573011
vn 0.456411 -0.4564109 0.7637919
vn 0.6454632 0 0.7637913
vn 0.5328955 -0.5328955 0.6573011
vn 0.9358676 0 0.3523519
vn 0 -0.645463 0.7637915
vn 0.6617584 -0.6617583 0.3523518
vn 1 0 0
vn 0 -0.753628 0.6573011
vn -0.456411 -0.456411 0.7637919
vn 0.7071068 -0.7071068 0
vn 0.9358676 0 -0.3523519
vn 0 -0.9358676 0.3523518
vn -0.5328955 -0.5328955 0.6573011
vn -0.6454632 0 0.7637914
vn -0.753628 0 0.6573011
vn -0.6617584 -0.6617583 0.3523518
vn -0.9358676 0 0.3523519
vn 0.6617583 -0.6617583 -0.3523518
vn 0.7536281 0 -0.657301
vn 0 -1 0
vn -0.7071068 -0.7071068 0
vn -1 0 0
vn 0.5328955 -0.5328955 -0.6573011
vn 0.4931232 0 -0.8699594
vn 0 -0.9358676 -0.3523518
vn -0.6617583 -0.6617584 -0.3523518
vn -0.9358676 0 -0.3523519
vn 0.3486908 -0.3486908 -0.8699594
vn 0 0 -1
vn 0 -0.7536281 -0.657301
vn -0.5328955 -0.5328955 -0.6573011
vn -0.7536281 0 -0.657301
vn 0 -0.4931231 -0.8699595
vn -0.3486909 -0.3486908 -0.8699594
vn -0.4931232 0 -0.8699595
vn -0.753628 0 0.6573011
vn -0.456411 0.456411 0.7637919
vn -0.6454632 0 0.7637914
vn -0.5328955 0.5328955 0.6573011
vn -0.9358676 0 0.3523519
vn 0 0.6454632 0.7637913
vn -0.6617584 0.6617583 0.3523518
vn -1 0 0
vn 0 0.7536281 0.6573011
vn 0.456411 0.456411 0.7637919
vn -0.7071068 0.7071068 0
vn -0.9358676 0 -0.3523519
vn 0.5328955 0.5328955 0.6573011
vn 0.6454632 0 0.7637913
vn 0.753628 0 0.6573011
vn 0 0.9358676 0.3523519
vn 0.6617584 0.6617583 0.3523518
vn 0.9358676 0 0.3523519
vn -0.6617583 0.6617584 -0.3523518
vn -0.7536281 0 -0.657301
vn 0 1 0
vn 0.7071068 0.7071068 0
vn 1 0 0
vn -0.5328955 0.5328955 -0.6573011
vn -0.4931232 0 -0.8699595
vn 0 0.9358676 -0.3523519
vn 0.6617583 0.6617583 -0.3523518
vn 0.9358676 0 -0.3523519
vn -0.3486908 0.3486909 -0.8699594
vn 0 0 -1
vn 0 0.7536281 -0.657301
vn 0.5328955 0.5328955 -0.6573011
vn 0.7536281 0 -0.657301
vn 0 0.4931232 -0.8699594
vn 0.3486908 0.3486908 -0.8699594
vn 0.4931232 0 -0.8699594
vn 0.6454632 0 0.7637913
vn 1 0 0
vn 0.7071068 0.7071068 0
vn 0.456411 0.456411 0.7637919
vn 0 1 0
vn 0 0.6454632 0.7637913
vn -0.7071068 0.7071068 0
vn -0.456411 0.456411 0.7637919
vn -1 0 0
vn -0.6454632 0 0.7637914
vn 0.456411 -0.4564109 0.7637919
vn 1 0 0
vn 0.6454632 0 0.7637913
vn 0.7071068 -0.7071068 0
vn 0 -0.645463 0.7637915
vn 0 -1 0
vn -0.456411 -0.456411 0.7637919
vn -0.7071068 -0.7071068 0
vn -0.6454632 0 0.7637914
vn -1 0 0
vn 0.7071068 -0.7071068 0
vn 0.9759927 0 0.2178028
vn 1 0 0
vn 0.6901312 -0.6901312 0.2178025
vn 0 -1 0
vn 0 0 1
vn 0 -0.9759927 0.2178028
vn -0.7071068 -0.7071068 0
vn -0.6901312 -0.6901312 0.2178025
vn -0.9759927 0 0.2178028
vn -1 0 0
vn -0.7071068 0.7071068 0
vn -0.9759927 0 0.2178028
vn -1 0 0
vn -0.6901312 0.6901312 0.2178025
vn 0 0 1
vn 0 1 0
vn 0 0.9759927 0.2178028
vn 0.7071068 0.7071068 0
vn 0.6901312 0.6901312 0.2178025
vn 1 0 0
vn 0 0 1
vn 0.9759927 0 0.2178028
vn 0.1592148 0.1592148 0.9743209
vn 0.2251644 0 0.9743208
vn 0.2251644 0 0.9743208
vn 0.1592148 0.1592148 0.9743209
vn 0 0.2251644 0.9743208
vn 0 0.2251644 0.9743208
vn -0.1592148 0.1592148 0.9743209
vn -0.1592148 0.1592148 0.9743209
vn -0.2251644 0 0.9743208
vn -0.2251644 0 0.9743208
vn 0.2251644 0 0.9743208
vn 0.2251644 0 0.9743208
vn 0.1592148 -0.1592148 0.9743209
vn 0.1592148 -0.1592148 0.9743209
vn 0 -0.2251644 0.9743208
vn 0 -0.2251644 0.9743208
vn -0.1592148 -0.1592148 0.9743209
vn -0.1592148 -0.1592148 0.9743209
vn -0.2251644 0 0.9743208
vn -0.2251644 0 0.9743208
g TreeBauble_Blue_0
f 3/3/3 2/2/2 1/1/1
f 2/2/2 4/4/4 1/1/1
f 1/1/1 4/4/4 5/5/5
f 2/2/2 6/6/6 4/4/4
f 4/4/4 7/7/7 5/5/5
f 5/5/5 7/7/7 8/8/8
f 6/6/6 9/9/9 4/4/4
f 4/4/4 9/9/9 7/7/7
f 6/6/6 10/10/10 9/9/9
f 7/7/7 11/11/11 8/8/8
f 8/8/8 11/11/11 12/12/12
f 9/9/9 13/13/13 7/7/7
f 7/7/7 13/13/13 11/11/11
f 10/10/10 14/14/14 9/9/9
f 9/9/9 14/14/14 13/13/13
f 10/10/10 15/15/15 14/14/14
f 15/15/15 16/16/16 14/14/14
f 14/14/14 16/16/16 17/17/17
f 14/14/14 17/17/17 13/13/13
f 16/16/16 18/18/18 17/17/17
f 11/11/11 19/19/19 12/12/12
f 12/12/12 19/19/19 20/20/20
f 13/13/13 21/21/21 11/11/11
f 13/13/13 17/17/17 21/21/21
f 11/11/11 21/21/21 19/19/19
f 17/17/17 18/18/18 22/22/22
f 17/17/17 22/22/22 21/21/21
f 18/18/18 23/23/23 22/22/22
f 19/19/19 24/24/24 20/20/20
f 20/20/20 24/24/24 25/25/25
f 21/21/21 26/26/26 19/19/19
f 21/21/21 22/22/22 26/26/26
f 19/19/19 26/26/26 24/24/24
f 22/22/22 23/23/23 27/27/27
f 22/22/22 27/27/27 26/26/26
f 23/23/23 28/28/28 27/27/27
f 24/24/24 29/29/29 25/25/25
f 25/25/25 29/29/29 30/30/30
f 26/26/26 31/31/31 24/24/24
f 26/26/26 27/27/27 31/31/31
f 24/24/24 31/31/31 29/29/29
f 27/27/27 28/28/28 32/32/32
f 27/27/27 32/32/32 31/31/31
f 28/28/28 33/33/33 32/32/32
f 31/31/31 34/34/34 29/29/29
f 29/29/29 34/34/34 30/30/30
f 31/31/31 32/32/32 34/34/34
f 32/32/32 33/33/33 35/35/35
f 32/32/32 35/35/35 34/34/34
f 34/34/34 35/35/35 30/30/30
f 33/33/33 36/36/36 35/35/35
f 35/35/35 36/36/36 30/30/30
f 39/39/39 38/38/38 37/37/37
f 38/38/38 40/40/40 37/37/37
f 37/37/37 40/40/40 41/41/41
f 38/38/38 42/42/42 40/40/40
f 40/40/40 43/43/43 41/41/41
f 41/41/41 43/43/43 44/44/44
f 42/42/42 45/45/45 40/40/40
f 40/40/40 45/45/45 43/43/43
f 42/42/42 46/46/46 45/45/45
f 43/43/43 47/47/47 44/44/44
f 44/44/44 47/47/47 48/48/48
f 46/46/46 49/49/49 45/45/45
f 46/46/46 50/50/50 49/49/49
f 50/50/50 51/51/51 49/49/49
f 45/45/45 52/52/52 43/43/43
f 45/45/45 49/49/49 52/52/52
f 43/43/43 52/52/52 47/47/47
f 49/49/49 51/51/51 53/53/53
f 49/49/49 53/53/53 52/52/52
f 51/51/51 54/54/54 53/53/53
f 47/47/47 55/55/55 48/48/48
f 48/48/48 55/55/55 56/56/56
f 52/52/52 57/57/57 47/47/47
f 52/52/52 53/53/53 57/57/57
f 47/47/47 57/57/57 55/55/55
f 53/53/53 54/54/54 58/58/58
f 53/53/53 58/58/58 57/57/57
f 54/54/54 59/59/59 58/58/58
f 55/55/55 60/60/60 56/56/56
f 56/56/56 60/60/60 61/61/61
f 57/57/57 62/62/62 55/55/55
f 57/57/57 58/58/58 62/62/62
f 55/55/55 62/62/62 60/60/60
f 58/58/58 59/59/59 63/63/63
f 58/58/58 63/63/63 62/62/62
f 59/59/59 64/64/64 63/63/63
f 60/60/60 65/65/65 61/61/61
f 61/61/61 65/65/65 66/66/66
f 62/62/62 67/67/67 60/60/60
f 62/62/62 63/63/63 67/67/67
f 60/60/60 67/67/67 65/65/65
f 63/63/63 64/64/64 68/68/68
f 63/63/63 68/68/68 67/67/67
f 64/64/64 69/69/69 68/68/68
f 67/67/67 70/70/70 65/65/65
f 65/65/65 70/70/70 66/66/66
f 67/67/67 68/68/68 70/70/70
f 68/68/68 69/69/69 71/71/71
f 68/68/68 71/71/71 70/70/70
f 70/70/70 71/71/71 66/66/66
f 69/69/69 72/72/72 71/71/71
f 71/71/71 72/72/72 66/66/66
f 75/75/75 74/74/74 73/73/73
f 76/76/76 75/75/75 73/73/73
f 77/77/77 75/75/75 76/76/76
f 78/78/78 77/77/77 76/76/76
f 79/79/79 77/77/77 78/78/78
f 80/80/80 79/79/79 78/78/78
f 81/81/81 79/79/79 80/80/80
f 82/82/82 81/81/81 80/80/80
f 85/85/85 84/84/84 83/83/83
f 84/84/84 86/86/86 83/83/83
f 83/83/83 86/86/86 87/87/87
f 86/86/86 88/88/88 87/87/87
f 87/87/87 88/88/88 89/89/89
f 88/88/88 90/90/90 89/89/89
f 89/89/89 90/90/90 91/91/91
f 90/90/90 92/92/92 91/91/91
f 95/95/95 94/94/94 93/93/93
f 94/94/94 96/96/96 93/93/93
f 93/93/93 96/96/96 97/97/97
f 98/98/98 96/96/96 94/94/94
f 96/96/96 99/99/99 97/97/97
f 98/98/98 99/99/99 96/96/96
f 97/97/97 99/99/99 100/100/100
f 98/98/98 101/101/101 99/99/99
f 99/99/99 101/101/101 100/100/100
f 98/98/98 102/102/102 101/101/101
f 100/100/100 101/101/101 103/103/103
f 101/101/101 102/102/102 103/103/103
f 106/106/106 105/105/105 104/104/104
f 105/105/105 107/107/107 104/104/104
f 108/108/108 107/107/107 105/105/105
f 104/104/104 107/107/107 109/109/109
f 108/108/108 110/110/110 107/107/107
f 107/107/107 110/110/110 109/109/109
f 109/109/109 110/110/110 111/111/111
f 110/110/110 112/112/112 111/111/111
f 111/111/111 112/112/112 113/113/113
f 114/114/114 112/112/112 110/110/110
f 112/112/112 115/115/115 113/113/113
f 114/114/114 115/115/115 112/112/112
f 118/118/118 117/117/117 116/116/116
f 117/117/117 119/119/119 116/116/116
f 116/116/116 119/119/119 120/120/120
f 119/119/119 121/121/121 120/120/120
f 120/120/120 121/121/121 122/122/122
f 121/121/121 123/123/123 122/122/122
f 122/122/122 123/123/123 124/124/124
f 123/123/123 125/125/125 124/124/124
f 128/128/128 127/127/127 126/126/126
f 129/129/129 128/128/128 126/126/126
f 130/130/130 128/128/128 129/129/129
f 131/131/131 130/130/130 129/129/129
f 132/132/132 130/130/130 131/131/131
f 133/133/133 132/132/132 131/131/131
f 134/134/134 132/132/132 133/133/133
f 135/135/135 134/134/134 133/133/133
