g UndergroundVinePart
v 0.257455 0 -2.281767
v -0.257455 0 -2.281767
v -0.257455 0 0.64633
v 0.257455 0 0.64633
v 0.257455 0 -2.281767
v 0.257455 0 0.64633
v -0.257455 0 0.64633
v -0.257455 0 -2.281767
v 0 0.257455 -2.281767
v 0 -0.257455 -2.281767
v 0 -0.257455 0.64633
v 0 0.257455 0.64633
v 0 0.257455 -2.281767
v 0 0.257455 0.64633
v 0 -0.257455 0.64633
v 0 -0.257455 -2.281767
vt 0.042611 0.617335
vt 0.094384 0.617335
vt 0.094384 0.805922
vt 0.042611 0.805922
vt 0.042611 0.617335
vt 0.042611 0.805922
vt 0.094384 0.805922
vt 0.094384 0.617335
vt 0.042611 0.617335
vt 0.094384 0.617335
vt 0.094384 0.805922
vt 0.042611 0.805922
vt 0.042611 0.617335
vt 0.042611 0.805922
vt 0.094384 0.805922
vt 0.094384 0.617335
vn 0.9987883 -0.01950901 0.04518202
vn -0.9986832 -0.022337 0.04618501
vn -0.5472378 -0.010307 0.8369137
vn 0.5853961 -0.009971002 0.8106861
vn -0.04518202 0.01951 -0.9987883
vn 0.8106861 0.009971002 0.5853961
vn -0.8369137 0.010306 0.5472378
vn 0.04618501 0.022337 -0.9986832
vn 0.01950901 0.9987883 0.04518202
vn 0.022337 -0.9986832 0.04618501
vn 0.010307 -0.5472378 0.8369137
vn 0.009971002 0.5853961 0.8106861
vn -0.01951 -0.04518202 -0.9987883
vn -0.009971002 0.8106861 0.5853961
vn -0.010306 -0.8369137 0.5472378
vn -0.022337 0.04618501 -0.9986832
g UndergroundVinePart_0
f 3/3/3 2/2/2 1/1/1
f 4/4/4 3/3/3 1/1/1
f 7/7/7 6/6/6 5/5/5
f 8/8/8 7/7/7 5/5/5
f 11/11/11 10/10/10 9/9/9
f 12/12/12 11/11/11 9/9/9
f 15/15/15 14/14/14 13/13/13
f 16/16/16 15/15/15 13/13/13
