g UnderwaterFog
v 0 1.896814 -1
v 0 1.896814 1
v 0.37005 1.860367 1
v 0.37005 1.860367 -1
v 0.725879 1.752427 1
v 0.725879 1.752427 -1
v 1.053813 1.577143 1
v 1.053813 1.577143 -1
v 1.34125 1.34125 1
v 1.34125 1.34125 -1
v 1.577143 1.053813 1
v 1.577143 1.053813 -1
v 1.752427 0.725879 1
v 1.752427 0.725879 -1
v 1.860367 0.37005 1
v 1.860367 0.37005 -1
v 1.896814 0 1
v 1.896814 0 -1
v 1.860367 -0.37005 1
v 1.860367 -0.37005 -1
v 1.752428 -0.725879 1
v 1.752428 -0.725879 -1
v 1.577143 -1.053813 1
v 1.577143 -1.053813 -1
v 1.34125 -1.34125 1
v 1.34125 -1.34125 -1
v 1.053813 -1.577144 1
v 1.053813 -1.577144 -1
v 0.725879 -1.752428 1
v 0.725879 -1.752428 -1
v 0.37005 -1.860367 1
v 0.37005 -1.860367 -1
v -1E-06 -1.896814 1
v -1E-06 -1.896814 -1
v -0.370051 -1.860367 1
v -0.370051 -1.860367 -1
v -0.72588 -1.752427 1
v -0.72588 -1.752427 -1
v -1.053814 -1.577143 1
v -1.053814 -1.577143 -1
v -1.341251 -1.341249 1
v -1.341251 -1.341249 -1
v -1.577144 -1.053813 1
v -1.577144 -1.053813 -1
v -1.752428 -0.725878 1
v -1.752428 -0.725878 -1
v -1.860367 -0.370049 1
v -1.860367 -0.370049 -1
v -1.896814 2E-06 1
v -1.896814 2E-06 -1
v -1.860367 0.370052 1
v -1.860367 0.370052 -1
v -1.752427 0.725881 1
v -1.752427 0.725881 -1
v -1.577142 1.053815 1
v -1.577142 1.053815 -1
v -1.341248 1.341251 1
v -1.341248 1.341251 -1
v -1.053811 1.577144 1
v -1.053811 1.577144 -1
v -0.725877 1.752428 1
v -0.725877 1.752428 -1
v -0.370047 1.860367 1
v -0.370047 1.860367 -1
v 0 1.896814 1
v 0 1.896814 -1
vt 0.75 0.25
vt 0.75 0.75
vt 0.734375 0.75
vt 0.734375 0.25
vt 0.71875 0.75
vt 0.71875 0.25
vt 0.703125 0.75
vt 0.703125 0.25
vt 0.6875 0.75
vt 0.6875 0.25
vt 0.671875 0.75
vt 0.671875 0.25
vt 0.65625 0.75
vt 0.65625 0.25
vt 0.640625 0.75
vt 0.640625 0.25
vt 0.625 0.75
vt 0.625 0.25
vt 0.609375 0.75
vt 0.609375 0.25
vt 0.59375 0.75
vt 0.59375 0.25
vt 0.578125 0.75
vt 0.578125 0.25
vt 0.5625 0.75
vt 0.5625 0.25
vt 0.546875 0.75
vt 0.546875 0.25
vt 0.53125 0.75
vt 0.53125 0.25
vt 0.515625 0.75
vt 0.515625 0.25
vt 0.5 0.75
vt 0.5 0.25
vt 0.484375 0.75
vt 0.484375 0.25
vt 0.46875 0.75
vt 0.46875 0.25
vt 0.453125 0.75
vt 0.453125 0.25
vt 0.4375 0.75
vt 0.4375 0.25
vt 0.421875 0.75
vt 0.421875 0.25
vt 0.40625 0.75
vt 0.40625 0.25
vt 0.390625 0.75
vt 0.390625 0.25
vt 0.375 0.75
vt 0.375 0.25
vt 0.359375 0.75
vt 0.359375 0.25
vt 0.34375 0.75
vt 0.34375 0.25
vt 0.328125 0.75
vt 0.328125 0.25
vt 0.3125 0.75
vt 0.3125 0.25
vt 0.296875 0.75
vt 0.296875 0.25
vt 0.28125 0.75
vt 0.28125 0.25
vt 0.265625 0.75
vt 0.265625 0.25
vt 0.25 0.75
vt 0.25 0.25
vn 0 -1 0
vn 0 -1 0
vn -0.1950912 -0.9807851 0
vn -0.1950912 -0.9807851 0
vn -0.3826835 -0.9238794 0
vn -0.3826835 -0.9238794 0
vn -0.5555696 -0.8314701 0
vn -0.5555696 -0.8314701 0
vn -0.7071068 -0.7071068 0
vn -0.7071068 -0.7071068 0
vn -0.8314701 -0.5555696 0
vn -0.8314701 -0.5555696 0
vn -0.9238794 -0.3826835 0
vn -0.9238794 -0.3826835 0
vn -0.9807851 -0.1950912 0
vn -0.9807851 -0.1950912 0
vn -1 0 0
vn -1 0 0
vn -0.9807854 0.1950899 0
vn -0.9807854 0.1950899 0
vn -0.9238795 0.3826835 0
vn -0.9238795 0.3826835 0
vn -0.8314694 0.5555707 0
vn -0.8314694 0.5555707 0
vn -0.7071075 0.7071059 0
vn -0.7071075 0.7071059 0
vn -0.5555705 0.8314695 0
vn -0.5555705 0.8314695 0
vn -0.3826823 0.92388 0
vn -0.3826823 0.92388 0
vn -0.1950898 0.9807854 0
vn -0.1950898 0.9807854 0
vn 0 1 0
vn 0 1 0
vn 0.1950912 0.9807851 0
vn 0.1950912 0.9807851 0
vn 0.3826835 0.9238795 0
vn 0.3826835 0.9238795 0
vn 0.5555704 0.8314695 0
vn 0.5555704 0.8314695 0
vn 0.7071069 0.7071066 0
vn 0.7071069 0.7071066 0
vn 0.83147 0.5555697 0
vn 0.83147 0.5555697 0
vn 0.9238802 0.3826817 0
vn 0.9238802 0.3826817 0
vn 0.9807854 0.1950898 0
vn 0.9807854 0.1950898 0
vn 1 0 0
vn 1 0 0
vn 0.9807851 -0.1950913 0
vn 0.9807851 -0.1950913 0
vn 0.923879 -0.3826846 0
vn 0.923879 -0.3826846 0
vn 0.8314685 -0.5555719 0
vn 0.8314685 -0.5555719 0
vn 0.7071055 -0.7071081 0
vn 0.7071055 -0.7071081 0
vn 0.5555695 -0.8314701 0
vn 0.5555695 -0.8314701 0
vn 0.3826819 -0.9238801 0
vn 0.3826819 -0.9238801 0
vn 0.1950899 -0.9807854 0
vn 0.1950899 -0.9807854 0
vn 0 -1 0
vn 0 -1 0
g UnderwaterFog_0
f 3/3/3 2/2/2 1/1/1
f 4/4/4 3/3/3 1/1/1
f 5/5/5 3/3/3 4/4/4
f 6/6/6 5/5/5 4/4/4
f 7/7/7 5/5/5 6/6/6
f 8/8/8 7/7/7 6/6/6
f 9/9/9 7/7/7 8/8/8
f 10/10/10 9/9/9 8/8/8
f 11/11/11 9/9/9 10/10/10
f 12/12/12 11/11/11 10/10/10
f 13/13/13 11/11/11 12/12/12
f 14/14/14 13/13/13 12/12/12
f 15/15/15 13/13/13 14/14/14
f 16/16/16 15/15/15 14/14/14
f 17/17/17 15/15/15 16/16/16
f 18/18/18 17/17/17 16/16/16
f 19/19/19 17/17/17 18/18/18
f 20/20/20 19/19/19 18/18/18
f 21/21/21 19/19/19 20/20/20
f 22/22/22 21/21/21 20/20/20
f 23/23/23 21/21/21 22/22/22
f 24/24/24 23/23/23 22/22/22
f 25/25/25 23/23/23 24/24/24
f 26/26/26 25/25/25 24/24/24
f 27/27/27 25/25/25 26/26/26
f 28/28/28 27/27/27 26/26/26
f 29/29/29 27/27/27 28/28/28
f 30/30/30 29/29/29 28/28/28
f 31/31/31 29/29/29 30/30/30
f 32/32/32 31/31/31 30/30/30
f 33/33/33 31/31/31 32/32/32
f 34/34/34 33/33/33 32/32/32
f 35/35/35 33/33/33 34/34/34
f 36/36/36 35/35/35 34/34/34
f 37/37/37 35/35/35 36/36/36
f 38/38/38 37/37/37 36/36/36
f 39/39/39 37/37/37 38/38/38
f 40/40/40 39/39/39 38/38/38
f 41/41/41 39/39/39 40/40/40
f 42/42/42 41/41/41 40/40/40
f 43/43/43 41/41/41 42/42/42
f 44/44/44 43/43/43 42/42/42
f 45/45/45 43/43/43 44/44/44
f 46/46/46 45/45/45 44/44/44
f 47/47/47 45/45/45 46/46/46
f 48/48/48 47/47/47 46/46/46
f 49/49/49 47/47/47 48/48/48
f 50/50/50 49/49/49 48/48/48
f 51/51/51 49/49/49 50/50/50
f 52/52/52 51/51/51 50/50/50
f 53/53/53 51/51/51 52/52/52
f 54/54/54 53/53/53 52/52/52
f 55/55/55 53/53/53 54/54/54
f 56/56/56 55/55/55 54/54/54
f 57/57/57 55/55/55 56/56/56
f 58/58/58 57/57/57 56/56/56
f 59/59/59 57/57/57 58/58/58
f 60/60/60 59/59/59 58/58/58
f 61/61/61 59/59/59 60/60/60
f 62/62/62 61/61/61 60/60/60
f 63/63/63 61/61/61 62/62/62
f 64/64/64 63/63/63 62/62/62
f 65/65/65 63/63/63 64/64/64
f 66/66/66 65/65/65 64/64/64
