g VerandahStrut_2x1
v -2.180341 1.13611 0.047244
v -2.180341 0 0.052756
v -2.180341 0 0.047244
v -2.180341 1.13611 0.052756
v -2.130344 0 0.102131
v -2.130344 1.065406 0.102131
v 0 1.18611 0.047244
v 0 1.18611 0.052756
v -2.130341 1.18611 0.052756
v -2.130341 1.18611 0.047244
v -2.180341 1.13611 0.047244
v -2.180341 1.13611 0.052756
v -2.130344 1.065406 -0.002131
v -2.059637 1.136114 -0.002131
v -2.130341 1.18611 0.047244
v -2.180341 1.13611 0.047244
v -2.180341 0 0.047244
v -2.130344 0 -0.002131
v -2.009826 0.944887 -0.000625
v -2.059637 1.136114 -0.002131
v -2.130344 -1.065406 -0.002131
v -2.180341 -1.13611 0.047244
v -2.130341 -1.18611 0.047244
v -2.059637 -1.136114 -0.002131
v -2.009826 -0.944887 -0.000625
v -2.059637 -1.136114 -0.002131
v -2.009826 0 -0.000625
v -1.95983 0.915599 0.05
v -1.95983 0 0.05
v -1.90983 0.965599 0.05
v -1.939118 1.015595 -0.000625
v 0 0.965599 0.05
v 0 1.015595 -0.000625
v 0 1.136114 -0.002131
v -2.130341 1.18611 0.047244
v 0 1.18611 0.047244
v 2.130341 1.18611 0.047244
v 2.059637 1.136114 -0.002131
v 1.939118 1.015595 -0.000625
v 2.009826 0.944887 -0.000625
v 2.130344 1.065406 -0.002131
v 1.90983 0.965599 0.05
v 0 0.965599 0.05
v 0 1.015595 -0.000625
v 1.95983 0.915599 0.05
v 2.009826 0 -0.000625
v 1.95983 0 0.05
v 2.130344 0 -0.002131
v 2.009826 -0.944887 -0.000625
v 2.180341 0 0.047244
v 2.180341 1.13611 0.047244
v 2.130341 1.18611 0.047244
v 2.059637 1.136114 -0.002131
v 2.130344 -1.065406 -0.002131
v 2.180341 -1.13611 0.047244
v 2.130341 -1.18611 0.047244
v 2.059637 -1.136114 -0.002131
v 2.059637 -1.136114 -0.002131
v 1.939118 -1.015595 -0.000625
v 1.90983 -0.965599 0.05
v 1.95983 -0.915599 0.05
v 2.009826 0 -0.000625
v 1.95983 0 0.05
v 0 -0.965599 0.05
v 0 -1.015595 -0.000625
v 0 -1.015595 -0.000625
v 0 -1.136114 -0.002131
v 2.130341 -1.18611 0.047244
v 0 -1.18611 0.047244
v -2.130341 -1.18611 0.047244
v -1.939118 -1.015595 -0.000625
v 0 -0.965599 0.05
v -1.90983 -0.965599 0.05
v -1.95983 -0.915599 0.05
v -2.009826 0 -0.000625
v -1.95983 0 0.05
v -2.059637 1.136114 0.102131
v -2.130344 1.065406 0.102131
v -2.180341 1.13611 0.052756
v -2.130341 1.18611 0.052756
v 0 1.015595 0.100625
v 0 0.965599 0.05
v -1.90983 0.965599 0.05
v -1.939118 1.015595 0.100625
v 0 1.136114 0.102131
v 1.939118 1.015595 0.100625
v -2.059637 1.136114 0.102131
v 2.059637 1.136114 0.102131
v -2.130344 1.065406 0.102131
v 2.130344 1.065406 0.102131
v -2.009826 0.944887 0.100625
v -1.95983 0.915599 0.05
v -1.95983 0 0.05
v -2.009826 0 0.100625
v -2.130344 0 0.102131
v -2.130344 -1.065406 0.102131
v -2.009826 -0.944887 0.100625
v -1.939118 -1.015595 0.100625
v -2.059637 -1.136114 0.102131
v 0 -1.136114 0.102131
v 2.009826 0.944887 0.100625
v 1.90983 0.965599 0.05
v 0 1.015595 0.100625
v 0 0.965599 0.05
v 1.95983 0.915599 0.05
v 1.95983 0 0.05
v 2.009826 0 0.100625
v 2.130344 0 0.102131
v 2.130344 -1.065406 0.102131
v 2.009826 -0.944887 0.100625
v 1.939118 -1.015595 0.100625
v 2.059637 -1.136114 0.102131
v 0 -1.015595 0.100625
v -1.90983 -0.965599 0.05
v 0 -0.965599 0.05
v -1.95983 -0.915599 0.05
v -1.95983 0 0.05
v -2.009826 0 0.100625
v 1.90983 -0.965599 0.05
v 0 -1.015595 0.100625
v 0 -0.965599 0.05
v 1.95983 -0.915599 0.05
v 1.95983 0 0.05
v 2.009826 0 0.100625
v 0 1.18611 0.052756
v 0 1.136114 0.102131
v -2.059637 1.136114 0.102131
v -2.130341 1.18611 0.052756
v 2.180341 1.13611 0.047244
v 2.180341 0 0.047244
v 2.180341 0 0.052756
v 2.180341 1.13611 0.052756
v 2.130344 0 0.102131
v 2.130344 1.065406 0.102131
v 0 1.18611 0.047244
v 2.130341 1.18611 0.052756
v 0 1.18611 0.052756
v 2.130341 1.18611 0.047244
v 2.180341 1.13611 0.047244
v 2.180341 1.13611 0.052756
v 2.059637 1.136114 0.102131
v 2.130341 1.18611 0.052756
v 2.180341 1.13611 0.052756
v 2.130344 1.065406 0.102131
v 0 1.18611 0.052756
v 2.130341 1.18611 0.052756
v 2.059637 1.136114 0.102131
v 0 1.136114 0.102131
v -2.180341 -1.13611 0.047244
v -2.180341 0 0.047244
v -2.180341 0 0.052756
v -2.180341 -1.13611 0.052756
v -2.130344 0 0.102131
v -2.130344 -1.065406 0.102131
v -2.059637 -1.136114 0.102131
v -2.130341 -1.18611 0.052756
v -2.180341 -1.13611 0.052756
v -2.130344 -1.065406 0.102131
v 0 -1.18611 0.052756
v -2.059637 -1.136114 0.102131
v 0 -1.136114 0.102131
v -2.130341 -1.18611 0.052756
v 0 -1.18611 0.047244
v -2.130341 -1.18611 0.047244
v -2.180341 -1.13611 0.047244
v -2.180341 -1.13611 0.052756
v 2.180341 -1.13611 0.047244
v 2.180341 0 0.052756
v 2.180341 0 0.047244
v 2.180341 -1.13611 0.052756
v 2.130344 0 0.102131
v 2.130344 -1.065406 0.102131
v 2.059637 -1.136114 0.102131
v 2.130344 -1.065406 0.102131
v 2.180341 -1.13611 0.052756
v 2.130341 -1.18611 0.052756
v 0 -1.18611 0.052756
v 0 -1.136114 0.102131
v 2.059637 -1.136114 0.102131
v 2.130341 -1.18611 0.052756
v 0 -1.18611 0.047244
v 2.130341 -1.18611 0.047244
v 2.180341 -1.13611 0.047244
v 2.180341 -1.13611 0.052756
vt 0.010539 0.473876
vt 0.25 0.526124
vt 0.25 0.473876
vt 0.010539 0.526124
vt 0.25 1
vt 0.025441 1
vt 0.5 0.473876
vt 0.5 0.526124
vt 0.988534 0.526124
vt 0.988534 0.473876
vt 1 0.473876
vt 1 0.526124
vt 0.984784 0
vt 1 0
vt 1 0
vt 0.989461 0
vt 0.75 0
vt 0.75 0
vt 0.983954 0
vt 1 0.016392
vt 0.984784 0
vt 0.989461 0
vt 1 0
vt 1 0
vt 0.983954 0
vt 1 0.016392
vt 0.75 0
vt 0.416072 0.568977
vt 0.297545 0.413728
vt 0.430899 0.583833
vt 1 0.016815
vt 0.75 0.827455
vt 1 0.5
vt 1 0.5
vt 1 0.011466
vt 1 0.5
vt 1 0.011466
vt 1 0.016392
vt 1 0.016815
vt 0.983954 0
vt 0.984784 0
vt 0.430899 0.583833
vt 0.75 0.827455
vt 1 0.5
vt 0.416072 0.568977
vt 0.75 0
vt 0.297545 0.413728
vt 0.75 0
vt 0.983954 0
vt 0.75 0
vt 0.989461 0
vt 1 0
vt 1 0
vt 0.984784 0
vt 0.989461 0
vt 1 0
vt 1 0
vt 1 0.016392
vt 1 0.016815
vt 0.430899 0.583833
vt 0.416072 0.568977
vt 0.75 0
vt 0.297545 0.413728
vt 0.75 0.827455
vt 1 0.5
vt 1 0.5
vt 1 0.5
vt 1 0.011466
vt 1 0.5
vt 1 0.011466
vt 1 0.016815
vt 0.75 0.827455
vt 0.430899 0.583833
vt 0.416072 0.568977
vt 0.75 0
vt 0.297545 0.413728
vt -0.13344 1.154911
vt -0.154911 1.154911
vt -0.154911 1.154911
vt -0.139892 1.154911
vt 0.5 1.154911
vt 0.75 0.827455
vt 0.430899 0.583834
vt -0.132886 1.154911
vt 0.5 1.154911
vt -0.132886 1.154911
vt -0.13344 1.154911
vt -0.13344 1.154911
vt -0.154911 1.13498
vt -0.154911 1.13498
vt -0.154911 1.133894
vt 0.416072 0.568977
vt 0.297545 0.413728
vt -0.154911 0.827455
vt -0.154911 0.827455
vt -0.154911 1.13498
vt -0.154911 1.133894
vt -0.132886 1.154911
vt -0.13344 1.154911
vt 0.5 1.154911
vt -0.154911 1.133894
vt 0.430899 0.583834
vt 0.5 1.154911
vt 0.75 0.827455
vt 0.416072 0.568977
vt 0.297545 0.413728
vt -0.154911 0.827455
vt -0.154911 0.827455
vt -0.154911 1.13498
vt -0.154911 1.133894
vt -0.132886 1.154911
vt -0.13344 1.154911
vt 0.5 1.154911
vt 0.430899 0.583834
vt 0.75 0.827455
vt 0.416072 0.568977
vt 0.297545 0.413728
vt -0.154911 0.827455
vt 0.430899 0.583834
vt 0.5 1.154911
vt 0.75 0.827455
vt 0.416072 0.568977
vt 0.297545 0.413728
vt -0.154911 0.827455
vt 0.5 0.526124
vt 0.5 1
vt 0.97232 1
vt 0.988534 0.526124
vt 0.010539 0.473876
vt 0.25 0.473876
vt 0.25 0.526124
vt 0.010539 0.526124
vt 0.25 1
vt 0.025441 1
vt 0.5 0.473876
vt 0.988534 0.526124
vt 0.5 0.526124
vt 0.988534 0.473876
vt 1 0.473876
vt 1 0.526124
vt -0.13344 1.154911
vt -0.139892 1.154911
vt -0.154911 1.154911
vt -0.154911 1.154911
vt 0.5 0.526124
vt 0.988534 0.526124
vt 0.97232 1
vt 0.5 1
vt 0.010539 0.473876
vt 0.25 0.473876
vt 0.25 0.526124
vt 0.010539 0.526124
vt 0.25 1
vt 0.025441 1
vt -0.13344 1.154911
vt -0.139892 1.154911
vt -0.154911 1.154911
vt -0.154911 1.154911
vt 0.5 0.526124
vt 0.97232 1
vt 0.5 1
vt 0.988534 0.526124
vt 0.5 0.473876
vt 0.988534 0.473876
vt 1 0.473876
vt 1 0.526124
vt 0.010539 0.473876
vt 0.25 0.526124
vt 0.25 0.473876
vt 0.010539 0.526124
vt 0.25 1
vt 0.025441 1
vt -0.13344 1.154911
vt -0.154911 1.154911
vt -0.154911 1.154911
vt -0.139892 1.154911
vt 0.5 0.526124
vt 0.5 1
vt 0.97232 1
vt 0.988534 0.526124
vt 0.5 0.473876
vt 0.988534 0.473876
vt 1 0.473876
vt 1 0.526124
vn -0.820935 0.3675575 -0.4369979
vn -0.9226772 0 0.3855734
vn -0.9226772 0 -0.3855734
vn -0.820935 0.3675575 0.4369979
vn -0.3740028 0 0.9274275
vn -0.37534 0.08658793 0.9228339
vn 0 0.9226792 -0.3855684
vn 0 0.9226792 0.3855684
vn -0.3675601 0.8209343 0.4369971
vn -0.3675601 0.8209343 -0.4369972
vn -0.820935 0.3675575 -0.4369979
vn -0.820935 0.3675575 0.4369979
vn -0.37534 0.08658794 -0.9228339
vn -0.08658955 0.3753444 -0.922832
vn -0.3675601 0.8209343 -0.4369972
vn -0.820935 0.3675575 -0.4369979
vn -0.9226772 0 -0.3855734
vn -0.3740028 0 -0.9274275
vn 0.2547636 -0.1102812 -0.9606943
vn -0.08658955 0.3753444 -0.922832
vn -0.37534 -0.08658794 -0.9228339
vn -0.820935 -0.3675575 -0.4369978
vn -0.3675601 -0.8209343 -0.4369972
vn -0.08658952 -0.3753444 -0.922832
vn 0.2547636 0.1102812 -0.9606943
vn -0.08658952 -0.3753444 -0.922832
vn 0.3913267 0 -0.9202518
vn 0.6213446 -0.2326307 -0.748207
vn 0.7115138 0 -0.7026721
vn 0.2326306 -0.6213444 -0.7482073
vn 0.1102811 -0.2547634 -0.9606943
vn 0 -0.7115134 -0.7026725
vn 0 -0.3913264 -0.9202519
vn 0 0.3740078 -0.9274256
vn -0.3675601 0.8209343 -0.4369972
vn 0 0.9226792 -0.3855684
vn 0.3675601 0.8209343 -0.4369971
vn 0.08658952 0.3753444 -0.922832
vn -0.1102811 -0.2547634 -0.9606943
vn -0.2547636 -0.1102812 -0.9606943
vn 0.37534 0.08658794 -0.9228339
vn -0.2326306 -0.6213445 -0.7482073
vn 0 -0.7115134 -0.7026725
vn 0 -0.3913264 -0.9202519
vn -0.6213446 -0.2326307 -0.748207
vn -0.3913267 0 -0.9202518
vn -0.7115138 0 -0.7026721
vn 0.3740028 0 -0.9274275
vn -0.2547636 0.1102812 -0.9606943
vn 0.9226772 0 -0.3855734
vn 0.820935 0.3675575 -0.4369979
vn 0.3675601 0.8209343 -0.4369971
vn 0.08658952 0.3753444 -0.922832
vn 0.37534 -0.08658795 -0.9228339
vn 0.820935 -0.3675575 -0.4369978
vn 0.3675601 -0.8209343 -0.4369971
vn 0.08658954 -0.3753444 -0.922832
vn 0.08658954 -0.3753444 -0.922832
vn -0.1102811 0.2547634 -0.9606943
vn -0.2326306 0.6213445 -0.7482073
vn -0.6213446 0.2326307 -0.748207
vn -0.3913267 0 -0.9202518
vn -0.7115138 0 -0.7026721
vn 0 0.7115134 -0.7026725
vn 0 0.3913264 -0.9202519
vn 0 0.3913264 -0.9202519
vn 0 -0.3740078 -0.9274256
vn 0.3675601 -0.8209343 -0.4369971
vn 0 -0.9226792 -0.3855684
vn -0.3675601 -0.8209343 -0.4369972
vn 0.1102811 0.2547634 -0.9606943
vn 0 0.7115134 -0.7026725
vn 0.2326306 0.6213444 -0.7482073
vn 0.6213446 0.2326307 -0.748207
vn 0.3913267 0 -0.9202518
vn 0.7115138 0 -0.7026721
vn -0.08658952 0.3753444 0.922832
vn -0.37534 0.08658793 0.9228339
vn -0.820935 0.3675575 0.4369979
vn -0.3675601 0.8209343 0.4369971
vn 0 -0.3913264 0.9202519
vn 0 -0.7115134 0.7026725
vn 0.2326306 -0.6213444 0.7482073
vn 0.1102811 -0.2547634 0.9606943
vn 0 0.3740078 0.9274256
vn -0.1102811 -0.2547634 0.9606943
vn -0.08658952 0.3753444 0.922832
vn 0.08658952 0.3753444 0.922832
vn -0.37534 0.08658793 0.9228339
vn 0.37534 0.08658794 0.9228339
vn 0.2547636 -0.1102812 0.9606943
vn 0.6213446 -0.2326307 0.748207
vn 0.7115138 0 0.7026721
vn 0.3913267 0 0.9202518
vn -0.3740028 0 0.9274275
vn -0.37534 -0.08658794 0.9228339
vn 0.2547636 0.1102812 0.9606943
vn 0.1102811 0.2547634 0.9606943
vn -0.08658955 -0.3753444 0.922832
vn 0 -0.3740078 0.9274256
vn -0.2547636 -0.1102812 0.9606943
vn -0.2326306 -0.6213445 0.7482073
vn 0 -0.3913264 0.9202519
vn 0 -0.7115134 0.7026725
vn -0.6213446 -0.2326307 0.748207
vn -0.7115138 0 0.7026721
vn -0.3913268 0 0.9202518
vn 0.3740028 0 0.9274276
vn 0.3753401 -0.08658794 0.9228339
vn -0.2547636 0.1102812 0.9606943
vn -0.1102811 0.2547634 0.9606943
vn 0.08658954 -0.3753444 0.922832
vn 0 0.3913264 0.9202519
vn 0.2326306 0.6213444 0.7482073
vn 0 0.7115134 0.7026725
vn 0.6213446 0.2326307 0.748207
vn 0.7115138 0 0.7026721
vn 0.3913267 0 0.9202518
vn -0.2326306 0.6213444 0.7482073
vn 0 0.3913264 0.9202519
vn 0 0.7115134 0.7026725
vn -0.6213446 0.2326307 0.748207
vn -0.7115138 0 0.7026721
vn -0.3913268 0 0.9202518
vn 0 0.9226792 0.3855684
vn 0 0.3740078 0.9274256
vn -0.08658952 0.3753444 0.922832
vn -0.3675601 0.8209343 0.4369971
vn 0.820935 0.3675575 -0.4369979
vn 0.9226772 0 -0.3855734
vn 0.9226772 0 0.3855734
vn 0.820935 0.3675575 0.4369978
vn 0.3740028 0 0.9274276
vn 0.37534 0.08658794 0.9228339
vn 0 0.9226792 -0.3855684
vn 0.3675601 0.8209343 0.4369971
vn 0 0.9226792 0.3855684
vn 0.3675601 0.8209343 -0.4369971
vn 0.820935 0.3675575 -0.4369979
vn 0.820935 0.3675575 0.4369978
vn 0.08658952 0.3753444 0.922832
vn 0.3675601 0.8209343 0.4369971
vn 0.820935 0.3675575 0.4369978
vn 0.37534 0.08658794 0.9228339
vn 0 0.9226792 0.3855684
vn 0.3675601 0.8209343 0.4369971
vn 0.08658952 0.3753444 0.922832
vn 0 0.3740078 0.9274256
vn -0.820935 -0.3675575 -0.4369978
vn -0.9226772 0 -0.3855734
vn -0.9226772 0 0.3855734
vn -0.820935 -0.3675575 0.4369978
vn -0.3740028 0 0.9274275
vn -0.37534 -0.08658794 0.9228339
vn -0.08658955 -0.3753444 0.922832
vn -0.3675601 -0.8209343 0.4369972
vn -0.820935 -0.3675575 0.4369978
vn -0.37534 -0.08658794 0.9228339
vn 0 -0.9226792 0.3855684
vn -0.08658955 -0.3753444 0.922832
vn 0 -0.3740078 0.9274256
vn -0.3675601 -0.8209343 0.4369972
vn 0 -0.9226792 -0.3855684
vn -0.3675601 -0.8209343 -0.4369972
vn -0.820935 -0.3675575 -0.4369978
vn -0.820935 -0.3675575 0.4369978
vn 0.820935 -0.3675575 -0.4369978
vn 0.9226772 0 0.3855734
vn 0.9226772 0 -0.3855734
vn 0.820935 -0.3675575 0.4369978
vn 0.3740028 0 0.9274276
vn 0.3753401 -0.08658794 0.9228339
vn 0.08658954 -0.3753444 0.922832
vn 0.3753401 -0.08658794 0.9228339
vn 0.820935 -0.3675575 0.4369978
vn 0.3675601 -0.8209343 0.4369971
vn 0 -0.9226792 0.3855684
vn 0 -0.3740078 0.9274256
vn 0.08658954 -0.3753444 0.922832
vn 0.3675601 -0.8209343 0.4369971
vn 0 -0.9226792 -0.3855684
vn 0.3675601 -0.8209343 -0.4369971
vn 0.820935 -0.3675575 -0.4369978
vn 0.820935 -0.3675575 0.4369978
g VerandahStrut_2x1_0
f 3/3/3 2/2/2 1/1/1
f 2/2/2 4/4/4 1/1/1
f 2/2/2 5/5/5 4/4/4
f 5/5/5 6/6/6 4/4/4
f 9/9/9 8/8/8 7/7/7
f 10/10/10 9/9/9 7/7/7
f 10/10/10 11/11/11 9/9/9
f 11/11/11 12/12/12 9/9/9
f 15/15/15 14/14/14 13/13/13
f 16/16/16 15/15/15 13/13/13
f 17/17/17 16/16/16 13/13/13
f 18/18/18 17/17/17 13/13/13
f 18/18/18 13/13/13 19/19/19
f 13/13/13 20/20/20 19/19/19
f 17/17/17 18/18/18 21/21/21
f 22/22/22 17/17/17 21/21/21
f 23/23/23 22/22/22 21/21/21
f 24/24/24 23/23/23 21/21/21
f 21/21/21 18/18/18 25/25/25
f 26/26/26 21/21/21 25/25/25
f 27/27/27 18/18/18 19/19/19
f 18/18/18 27/27/27 25/25/25
f 27/27/27 19/19/19 28/28/28
f 29/29/29 27/27/27 28/28/28
f 28/28/28 19/19/19 30/30/30
f 19/19/19 31/31/31 30/30/30
f 20/20/20 31/31/31 19/19/19
f 30/30/30 31/31/31 32/32/32
f 31/31/31 33/33/33 32/32/32
f 31/31/31 20/20/20 33/33/33
f 20/20/20 34/34/34 33/33/33
f 20/20/20 35/35/35 34/34/34
f 35/35/35 36/36/36 34/34/34
f 36/36/36 37/37/37 34/34/34
f 37/37/37 38/38/38 34/34/34
f 34/34/34 38/38/38 33/33/33
f 38/38/38 39/39/39 33/33/33
f 39/39/39 38/38/38 40/40/40
f 38/38/38 41/41/41 40/40/40
f 39/39/39 40/40/40 42/42/42
f 39/39/39 42/42/42 43/43/43
f 44/44/44 39/39/39 43/43/43
f 40/40/40 45/45/45 42/42/42
f 40/40/40 46/46/46 45/45/45
f 46/46/46 47/47/47 45/45/45
f 48/48/48 46/46/46 40/40/40
f 41/41/41 48/48/48 40/40/40
f 46/46/46 48/48/48 49/49/49
f 50/50/50 48/48/48 41/41/41
f 51/51/51 50/50/50 41/41/41
f 52/52/52 51/51/51 41/41/41
f 53/53/53 52/52/52 41/41/41
f 48/48/48 50/50/50 54/54/54
f 48/48/48 54/54/54 49/49/49
f 50/50/50 55/55/55 54/54/54
f 55/55/55 56/56/56 54/54/54
f 56/56/56 57/57/57 54/54/54
f 54/54/54 58/58/58 49/49/49
f 58/58/58 59/59/59 49/49/49
f 49/49/49 59/59/59 60/60/60
f 61/61/61 49/49/49 60/60/60
f 62/62/62 49/49/49 61/61/61
f 63/63/63 62/62/62 61/61/61
f 60/60/60 59/59/59 64/64/64
f 59/59/59 65/65/65 64/64/64
f 59/59/59 58/58/58 66/66/66
f 58/58/58 67/67/67 66/66/66
f 58/58/58 68/68/68 67/67/67
f 68/68/68 69/69/69 67/67/67
f 69/69/69 70/70/70 67/67/67
f 70/70/70 26/26/26 67/67/67
f 67/67/67 26/26/26 66/66/66
f 26/26/26 71/71/71 66/66/66
f 66/66/66 71/71/71 72/72/72
f 71/71/71 73/73/73 72/72/72
f 71/71/71 26/26/26 25/25/25
f 71/71/71 25/25/25 73/73/73
f 25/25/25 74/74/74 73/73/73
f 25/25/25 75/75/75 74/74/74
f 75/75/75 76/76/76 74/74/74
f 79/79/79 78/78/78 77/77/77
f 80/80/80 79/79/79 77/77/77
f 83/83/83 82/82/82 81/81/81
f 84/84/84 83/83/83 81/81/81
f 81/81/81 85/85/85 84/84/84
f 85/85/85 81/81/81 86/86/86
f 85/85/85 87/87/87 84/84/84
f 88/88/88 85/85/85 86/86/86
f 87/87/87 89/89/89 84/84/84
f 90/90/90 88/88/88 86/86/86
f 84/84/84 91/91/91 83/83/83
f 89/89/89 91/91/91 84/84/84
f 91/91/91 92/92/92 83/83/83
f 93/93/93 92/92/92 91/91/91
f 94/94/94 93/93/93 91/91/91
f 91/91/91 89/89/89 94/94/94
f 89/89/89 95/95/95 94/94/94
f 95/95/95 96/96/96 94/94/94
f 96/96/96 97/97/97 94/94/94
f 97/97/97 96/96/96 98/98/98
f 96/96/96 99/99/99 98/98/98
f 99/99/99 100/100/100 98/98/98
f 101/101/101 90/90/90 86/86/86
f 101/101/101 86/86/86 102/102/102
f 102/102/102 86/86/86 103/103/103
f 104/104/104 102/102/102 103/103/103
f 105/105/105 101/101/101 102/102/102
f 105/105/105 106/106/106 101/101/101
f 106/106/106 107/107/107 101/101/101
f 90/90/90 101/101/101 107/107/107
f 108/108/108 90/90/90 107/107/107
f 109/109/109 108/108/108 107/107/107
f 110/110/110 109/109/109 107/107/107
f 109/109/109 110/110/110 111/111/111
f 112/112/112 109/109/109 111/111/111
f 100/100/100 112/112/112 111/111/111
f 113/113/113 100/100/100 111/111/111
f 100/100/100 113/113/113 98/98/98
f 114/114/114 98/98/98 113/113/113
f 115/115/115 114/114/114 113/113/113
f 97/97/97 98/98/98 114/114/114
f 116/116/116 97/97/97 114/114/114
f 116/116/116 117/117/117 97/97/97
f 117/117/117 118/118/118 97/97/97
f 111/111/111 110/110/110 119/119/119
f 111/111/111 119/119/119 120/120/120
f 119/119/119 121/121/121 120/120/120
f 110/110/110 122/122/122 119/119/119
f 123/123/123 122/122/122 110/110/110
f 124/124/124 123/123/123 110/110/110
f 127/127/127 126/126/126 125/125/125
f 128/128/128 127/127/127 125/125/125
f 131/131/131 130/130/130 129/129/129
f 132/132/132 131/131/131 129/129/129
f 133/133/133 131/131/131 132/132/132
f 134/134/134 133/133/133 132/132/132
f 137/137/137 136/136/136 135/135/135
f 136/136/136 138/138/138 135/135/135
f 139/139/139 138/138/138 136/136/136
f 140/140/140 139/139/139 136/136/136
f 143/143/143 142/142/142 141/141/141
f 144/144/144 143/143/143 141/141/141
f 147/147/147 146/146/146 145/145/145
f 148/148/148 147/147/147 145/145/145
f 151/151/151 150/150/150 149/149/149
f 152/152/152 151/151/151 149/149/149
f 153/153/153 151/151/151 152/152/152
f 154/154/154 153/153/153 152/152/152
f 157/157/157 156/156/156 155/155/155
f 158/158/158 157/157/157 155/155/155
f 161/161/161 160/160/160 159/159/159
f 160/160/160 162/162/162 159/159/159
f 159/159/159 162/162/162 163/163/163
f 162/162/162 164/164/164 163/163/163
f 165/165/165 164/164/164 162/162/162
f 166/166/166 165/165/165 162/162/162
f 169/169/169 168/168/168 167/167/167
f 168/168/168 170/170/170 167/167/167
f 168/168/168 171/171/171 170/170/170
f 171/171/171 172/172/172 170/170/170
f 175/175/175 174/174/174 173/173/173
f 176/176/176 175/175/175 173/173/173
f 179/179/179 178/178/178 177/177/177
f 180/180/180 179/179/179 177/177/177
f 180/180/180 177/177/177 181/181/181
f 182/182/182 180/180/180 181/181/181
f 182/182/182 183/183/183 180/180/180
f 183/183/183 184/184/184 180/180/180
