g WeatherStationTop
v 0.137411 -0.035407 4.01797
v 0.424941 0.035407 4.101389
v 0.137411 0.035407 4.01797
v 0.424941 -0.035407 4.101389
v 0.71247 0.035407 4.260559
v 0.425437 -0.063443 4.132794
v 0.138157 -0.063443 4.049447
v 0.139657 -0.06337 4.11279
v 0.71247 -0.035407 4.260559
v 1 0.035407 4.377757
v 1 -0.035407 4.377757
v 1 -0.063443 4.408924
v 0.712717 -0.063443 4.291826
v 0.426439 -0.06337 4.196282
v 0.713221 -0.06337 4.355591
v 1 -0.06337 4.47289
v 1 -0.035262 4.504077
v 0.426935 -0.035262 4.227709
v 0.140403 -0.035262 4.14429
v 0.140403 0.035262 4.14429
v 0.713468 -0.035262 4.386879
v 0.426935 0.035262 4.227709
v 0.713468 0.035262 4.386879
v 1 0.035262 4.504077
v 1 0.063369 4.473574
v 0.42645 0.063369 4.196972
v 0.139673 0.063369 4.113482
v 0.138157 0.063443 4.049448
v 0.713226 0.063369 4.356277
v 0.425437 0.063443 4.132795
v 0.712717 0.063443 4.291827
v 1 0.063443 4.408924
v 1 0.035407 4.377757
v 0.71247 0.035407 4.260559
v 0.424941 0.035407 4.101389
v 0.137411 0.035407 4.01797
v 1 -0.035407 4.377757
v 1 -0.063443 4.408924
v 1 -0.06337 4.47289
v 1 -0.035262 4.504077
v 1 0.035407 4.377757
v 1 0.035262 4.504077
v 1 0.063369 4.473574
v 1 0.063443 4.408924
v -0.71247 0.035407 4.260559
v -1 0.035407 4.377757
v -1 -0.035407 4.377757
v -0.71247 -0.035407 4.260559
v -0.424941 0.035407 4.101389
v -0.712712 -0.063444 4.291145
v -1 -0.063444 4.408245
v -1 -0.06337 4.47289
v -0.424941 -0.035407 4.101389
v -0.137411 0.035407 4.01797
v -0.137411 -0.035407 4.01797
v -0.13814 -0.063444 4.048762
v -0.425426 -0.063444 4.13211
v -0.713221 -0.06337 4.355592
v -0.426439 -0.06337 4.196284
v -0.139657 -0.06337 4.112792
v -0.140403 -0.035262 4.14429
v -0.713468 -0.035262 4.386879
v -1 -0.035262 4.504077
v -1 0.035262 4.504077
v -0.426935 -0.035262 4.22771
v -0.713468 0.035262 4.386879
v -0.426935 0.035262 4.22771
v -0.140403 0.035262 4.14429
v -0.139657 0.06337 4.112792
v -0.713221 0.06337 4.355592
v -1 0.06337 4.47289
v -1 0.063443 4.408924
v -0.426439 0.06337 4.196284
v -0.712717 0.063443 4.291826
v -0.425437 0.063443 4.132794
v -0.138157 0.063443 4.049447
v -0.137411 0.035407 4.01797
v -0.424941 0.035407 4.101389
v -0.71247 0.035407 4.260559
v -1 0.035407 4.377757
v -1 -0.06337 4.47289
v -1 -0.063444 4.408245
v -1 -0.035407 4.377757
v -1 -0.035262 4.504077
v -1 0.035407 4.377757
v -1 0.035262 4.504077
v -1 0.06337 4.47289
v -1 0.063443 4.408924
v 0.120565 0.083196 4.144362
v 0.140403 0.035262 4.14429
v 0.140403 -0.035262 4.14429
v 0.120565 -0.083196 4.144362
v 0.063111 0.140718 4.144573
v 0.063111 -0.140718 4.144573
v -0.063111 0.140718 4.144573
v -0.063111 -0.140718 4.144573
v -0.120565 0.083196 4.144363
v -0.120565 -0.083196 4.144363
v -0.140403 0.035262 4.14429
v -0.140403 -0.035262 4.14429
v -0.13814 -0.063444 4.048762
v -0.11755 -0.083318 4.018043
v -0.137411 -0.035407 4.01797
v -0.120565 -0.083196 4.144363
v -0.139657 -0.06337 4.112792
v -0.140403 -0.035262 4.14429
v -0.063111 -0.140718 4.144573
v -0.059942 -0.14086 4.018255
v 0.063111 -0.140718 4.144573
v 0.059942 -0.14086 4.018255
v 0.11755 -0.083318 4.018043
v 0.120565 -0.083196 4.144362
v 0.138157 -0.063443 4.049447
v 0.137411 -0.035407 4.01797
v 0.139657 -0.06337 4.11279
v 0.140403 -0.035262 4.14429
v -0.137411 0.035407 4.01797
v -0.11755 0.083318 4.018043
v -0.138157 0.063443 4.049447
v -0.120565 0.083196 4.144363
v -0.139657 0.06337 4.112792
v -0.140403 0.035262 4.14429
v -0.063111 0.140718 4.144573
v -0.059942 0.14086 4.018255
v 0.063111 0.140718 4.144573
v 0.059942 0.14086 4.018255
v 0.11755 0.083318 4.018043
v 0.120565 0.083196 4.144362
v 0.138157 0.063443 4.049448
v 0.137411 0.035407 4.01797
v 0.139673 0.063369 4.113482
v 0.140403 0.035262 4.14429
v 0.11755 -0.083318 4.018043
v 0.137411 -0.035407 4.01797
v 0.137411 0.035407 4.01797
v 0.11755 0.083318 4.018043
v 0.059942 -0.14086 4.018255
v 0.059942 0.14086 4.018255
v -0.059942 -0.14086 4.018255
v -0.059942 0.14086 4.018255
v -0.11755 -0.083318 4.018043
v -0.11755 0.083318 4.018043
v -0.137411 -0.035407 4.01797
v -0.137411 0.035407 4.01797
vt 0.158054 0.18909
vt 0.18924 0.396388
vt 0.187722 0.188307
vt 0.160057 0.395902
vt 0.186064 0.631287
vt 0.143429 0.404438
vt 0.140938 0.196384
vt 0.116251 0.210631
vt 0.156313 0.631179
vt 0.187601 0.849203
vt 0.158251 0.849796
vt 0.141766 0.858379
vt 0.139531 0.64099
vt 0.118685 0.422795
vt 0.115928 0.660734
vt 0.117281 0.875757
vt 0.100491 0.884251
vt 0.101132 0.432171
vt 0.099528 0.217697
vt 0.071411 0.21747
vt 0.099786 0.670165
vt 0.069378 0.432665
vt 0.07169 0.670007
vt 0.070872 0.884251
vt 0.054263 0.875867
vt 0.051986 0.423488
vt 0.05484 0.210454
vt 0.029859 0.195881
vt 0.055734 0.660923
vt 0.026822 0.404888
vt 0.031949 0.641294
vt 0.029504 0.858157
vt 0.013042 0.84949
vt 0.015222 0.631762
vt 0.009979 0.396225
vt 0.013133 0.188567
vt 0.984188 0.894323
vt 0.984188 0.919484
vt 0.984188 0.971125
vt 0.984188 0.996302
vt 0.984188 0.894323
vt 0.984188 0.996302
vt 0.984188 0.971677
vt 0.984188 0.919484
vt 0.011117 0.630436
vt 0.009576 0.848654
vt 0.038689 0.849309
vt 0.041161 0.630325
vt 0.008302 0.395843
vt 0.057728 0.640012
vt 0.055006 0.857818
vt 0.079779 0.875542
vt 0.03766 0.395806
vt 0.010864 0.18749
vt 0.039968 0.188517
vt 0.056912 0.195746
vt 0.054084 0.404209
vt 0.081524 0.660065
vt 0.079055 0.422889
vt 0.081902 0.210271
vt 0.09865 0.217428
vt 0.097639 0.669544
vt 0.096598 0.884146
vt 0.126259 0.884146
vt 0.096581 0.432389
vt 0.125729 0.67
vt 0.128324 0.432132
vt 0.126749 0.217635
vt 0.143471 0.210566
vt 0.141882 0.660746
vt 0.143068 0.875655
vt 0.167584 0.858244
vt 0.145919 0.422882
vt 0.165467 0.64136
vt 0.170808 0.404652
vt 0.168131 0.196285
vt 0.184814 0.189068
vt 0.187645 0.396069
vt 0.182218 0.631872
vt 0.184061 0.849649
vt 0.417881 0.971125
vt 0.417881 0.918936
vt 0.417881 0.894323
vt 0.417881 0.996302
vt 0.417881 0.894323
vt 0.417881 0.996302
vt 0.417881 0.971125
vt 0.417881 0.919484
vt 0.254852 0.714558
vt 0.244583 0.710308
vt 0.229475 0.710308
vt 0.219205 0.714558
vt 0.267176 0.726866
vt 0.206882 0.726866
vt 0.267176 0.753908
vt 0.206882 0.753908
vt 0.254852 0.766216
vt 0.219206 0.766216
vt 0.244583 0.770466
vt 0.229475 0.770466
vt 0.40481 0.628483
vt 0.407922 0.60572
vt 0.40492 0.605666
vt 0.407467 0.699325
vt 0.404581 0.67593
vt 0.404468 0.699271
vt 0.416151 0.69948
vt 0.41663 0.605877
vt 0.435231 0.69948
vt 0.434752 0.605877
vt 0.443459 0.60572
vt 0.443915 0.699324
vt 0.446574 0.628991
vt 0.446462 0.605666
vt 0.446801 0.675929
vt 0.446914 0.69927
vt 0.40492 0.605666
vt 0.407922 0.60572
vt 0.404807 0.628991
vt 0.407467 0.699325
vt 0.404581 0.67593
vt 0.404468 0.699271
vt 0.416151 0.69948
vt 0.41663 0.605877
vt 0.435231 0.69948
vt 0.434752 0.605877
vt 0.443459 0.60572
vt 0.443915 0.699324
vt 0.446574 0.628992
vt 0.446462 0.605666
vt 0.446804 0.676441
vt 0.446914 0.69927
vt 0.21921 0.766036
vt 0.229474 0.770291
vt 0.244645 0.770291
vt 0.254909 0.766036
vt 0.206882 0.753694
vt 0.267237 0.753694
vt 0.206882 0.728011
vt 0.267237 0.728011
vt 0.21921 0.715669
vt 0.254909 0.715669
vt 0.229474 0.711414
vt 0.244645 0.711414
vn 0.2702549 -0.2549212 -0.9284274
vn 0.3687232 0.2703319 -0.8893615
vn 0.2579002 0.2434418 -0.9349992
vn 0.368724 -0.2703236 -0.8893636
vn 0.4192073 0.2774575 -0.864455
vn 0.1353971 -0.9431356 -0.3035833
vn 0.1764341 -0.9283133 -0.3272697
vn -0.01306504 -0.9738224 0.2269345
vn 0.4192084 -0.2774492 -0.8644572
vn 0.3586619 0.3115817 -0.879931
vn 0.3586633 -0.3115752 -0.8799327
vn 0.08649884 -0.9733874 -0.2122142
vn 0.1256585 -0.9544962 -0.2704567
vn -0.1045438 -0.9589801 0.2634913
vn -0.145787 -0.9448835 0.2931573
vn -0.1475602 -0.92091 0.360764
vn -0.367041 -0.2449959 0.8973616
vn -0.3785821 -0.288331 0.8795118
vn -0.2453531 -0.2943047 0.923681
vn -0.2566118 0.30059 0.9185837
vn -0.415176 -0.2694247 0.8689299
vn -0.3792233 0.282424 0.8811505
vn -0.4158586 0.2639794 0.8702738
vn -0.3674836 0.2403223 0.8984436
vn -0.1478785 0.9205538 0.3615421
vn -0.104578 0.959006 0.2633841
vn -0.01310337 0.9738517 0.2268063
vn 0.1755755 0.9290653 -0.3255929
vn -0.1457791 0.9448617 0.2932316
vn 0.1345605 0.9438576 -0.3017056
vn 0.1248146 0.9551193 -0.2686421
vn 0.08583444 0.9737999 -0.2105855
vn 0.3586619 0.3115817 -0.879931
vn 0.4192073 0.2774575 -0.864455
vn 0.3687232 0.2703319 -0.8893615
vn 0.2579002 0.2434418 -0.9349992
vn 1 0 0
vn 1 0 0
vn 1 0 0
vn 1 0 0
vn 1 0 0
vn 1 0 0
vn 1 0 0
vn 1 0 0
vn -0.4192084 0.2774492 -0.8644572
vn -0.3586633 0.3115753 -0.8799326
vn -0.3594519 -0.3051301 -0.8818673
vn -0.4198802 -0.2718098 -0.8659216
vn -0.3687241 0.2703236 -0.8893636
vn -0.1256747 -0.9545118 -0.2703946
vn -0.08641292 -0.9734409 -0.2120035
vn 0.1468111 -0.9217444 0.3589341
vn -0.3693526 -0.264951 -0.8907185
vn -0.2702549 0.2549211 -0.9284274
vn -0.2578279 -0.238713 -0.9362376
vn -0.1764502 -0.9280677 -0.3279566
vn -0.1353946 -0.9430868 -0.303736
vn 0.1448821 -0.9455846 0.2913401
vn 0.103833 -0.9595483 0.2616982
vn 0.01263971 -0.9742241 0.225228
vn 0.2560716 -0.306943 0.9166315
vn 0.4151753 -0.2694197 0.8689318
vn 0.3670411 -0.2449924 0.8973626
vn 0.3670411 0.2449924 0.8973626
vn 0.3785829 -0.288321 0.8795146
vn 0.4151754 0.2694197 0.8689318
vn 0.3785829 0.288321 0.8795146
vn 0.2453528 0.2942922 0.9236851
vn 0.01306503 0.9738227 0.2269331
vn 0.1457862 0.9448836 0.2931573
vn 0.1475597 0.92091 0.3607642
vn -0.08649836 0.9733878 -0.212213
vn 0.1045435 0.9589805 0.2634904
vn -0.1256571 0.9544973 -0.2704537
vn -0.135395 0.9431375 -0.3035785
vn -0.1764321 0.9283154 -0.3272648
vn -0.2702549 0.2549211 -0.9284274
vn -0.3687241 0.2703236 -0.8893636
vn -0.4192084 0.2774492 -0.8644572
vn -0.3586633 0.3115753 -0.8799326
vn -1 0 0
vn -1 0 0
vn -1 0 0
vn -1 0 0
vn -1 0 0
vn -1 0 0
vn -1 0 0
vn -1 0 0
vn 0.003674895 0 0.9999933
vn -0.2566118 0.30059 0.9185837
vn -0.2453531 -0.2943047 0.923681
vn 0.003675019 0 0.9999933
vn 0.000518585 0 0.9999999
vn 0.000681224 0 0.9999998
vn -0.0006781485 0 0.9999998
vn -0.0005162439 0 0.9999999
vn -0.003660639 0 0.9999933
vn -0.003660686 0 0.9999933
vn 0.2453528 0.2942922 0.9236851
vn 0.2560716 -0.306943 0.9166315
vn -0.1764502 -0.9280677 -0.3279566
vn -0.7251824 -0.6872922 -0.04171235
vn -0.2578279 -0.238713 -0.9362376
vn -0.7281404 -0.6853585 0.009762929
vn 0.01263971 -0.9742241 0.225228
vn -0.8804556 -0.3639236 0.3039037
vn -0.1900075 -0.9817763 -0.003534785
vn -0.1823814 -0.9832218 -0.003470141
vn 0.1900057 -0.9817767 -0.00353476
vn 0.1823814 -0.9832218 -0.00347014
vn 0.7257815 -0.6866431 -0.04197955
vn 0.7281465 -0.6853518 0.009770663
vn 0.1764341 -0.9283133 -0.3272697
vn 0.2702549 -0.2549212 -0.9284274
vn -0.01306504 -0.9738224 0.2269345
vn 0.8804572 -0.3639303 0.3038912
vn -0.2702549 0.2549211 -0.9284274
vn -0.7257815 0.6866432 -0.04197942
vn -0.1764321 0.9283154 -0.3272648
vn -0.7281455 0.685353 0.009769928
vn 0.01306503 0.9738227 0.2269331
vn -0.8804556 0.3639236 0.3039037
vn -0.1900075 0.9817763 -0.003534785
vn -0.1823814 0.9832218 -0.00347014
vn 0.1900057 0.9817767 -0.003534762
vn 0.1823814 0.9832218 -0.003470144
vn 0.7257825 0.6866423 -0.04197988
vn 0.7275038 0.6860377 0.009523612
vn 0.1755755 0.9290653 -0.3255929
vn 0.2579002 0.2434418 -0.9349992
vn -0.01310337 0.9738517 0.2268063
vn 0.8785015 0.363111 0.3104602
vn -0.00368299 0 -0.9999932
vn 0.2702549 -0.2549212 -0.9284274
vn 0.2579002 0.2434418 -0.9349992
vn -0.003683016 0 -0.9999932
vn -0.0005449937 0 -0.9999999
vn -0.0007139719 0 -0.9999998
vn 0.0007139718 0 -0.9999998
vn 0.0005449937 0 -0.9999999
vn 0.003683016 0 -0.9999932
vn 0.00368299 0 -0.9999932
vn -0.2578279 -0.238713 -0.9362376
vn -0.2702549 0.2549211 -0.9284274
g WeatherStationTop_0
f 3/3/3 2/2/2 1/1/1
f 2/2/2 4/4/4 1/1/1
f 2/2/2 5/5/5 4/4/4
f 1/1/1 4/4/4 6/6/6
f 7/7/7 1/1/1 6/6/6
f 7/7/7 6/6/6 8/8/8
f 5/5/5 9/9/9 4/4/4
f 5/5/5 10/10/10 9/9/9
f 10/10/10 11/11/11 9/9/9
f 9/9/9 11/11/11 12/12/12
f 4/4/4 9/9/9 13/13/13
f 6/6/6 4/4/4 13/13/13
f 13/13/13 9/9/9 12/12/12
f 6/6/6 14/14/14 8/8/8
f 6/6/6 13/13/13 14/14/14
f 13/13/13 12/12/12 15/15/15
f 13/13/13 15/15/15 14/14/14
f 12/12/12 16/16/16 15/15/15
f 15/15/15 16/16/16 17/17/17
f 8/8/8 14/14/14 18/18/18
f 19/19/19 8/8/8 18/18/18
f 19/19/19 18/18/18 20/20/20
f 14/14/14 15/15/15 21/21/21
f 21/21/21 15/15/15 17/17/17
f 18/18/18 14/14/14 21/21/21
f 18/18/18 22/22/22 20/20/20
f 18/18/18 21/21/21 22/22/22
f 21/21/21 17/17/17 23/23/23
f 21/21/21 23/23/23 22/22/22
f 17/17/17 24/24/24 23/23/23
f 24/24/24 25/25/25 23/23/23
f 22/22/22 26/26/26 20/20/20
f 26/26/26 27/27/27 20/20/20
f 27/27/27 26/26/26 28/28/28
f 23/23/23 29/29/29 22/22/22
f 25/25/25 29/29/29 23/23/23
f 29/29/29 26/26/26 22/22/22
f 26/26/26 30/30/30 28/28/28
f 26/26/26 29/29/29 30/30/30
f 29/29/29 25/25/25 31/31/31
f 29/29/29 31/31/31 30/30/30
f 25/25/25 32/32/32 31/31/31
f 31/31/31 32/32/32 33/33/33
f 34/34/34 31/31/31 33/33/33
f 30/30/30 31/31/31 34/34/34
f 35/35/35 30/30/30 34/34/34
f 28/28/28 30/30/30 35/35/35
f 36/36/36 28/28/28 35/35/35
f 39/39/39 38/38/38 37/37/37
f 37/37/37 40/40/40 39/39/39
f 37/37/37 41/41/41 40/40/40
f 41/41/41 42/42/42 40/40/40
f 41/41/41 43/43/43 42/42/42
f 41/41/41 44/44/44 43/43/43
f 47/47/47 46/46/46 45/45/45
f 48/48/48 47/47/47 45/45/45
f 48/48/48 45/45/45 49/49/49
f 47/47/47 48/48/48 50/50/50
f 51/51/51 47/47/47 50/50/50
f 52/52/52 51/51/51 50/50/50
f 53/53/53 48/48/48 49/49/49
f 53/53/53 49/49/49 54/54/54
f 55/55/55 53/53/53 54/54/54
f 53/53/53 55/55/55 56/56/56
f 48/48/48 53/53/53 57/57/57
f 50/50/50 48/48/48 57/57/57
f 57/57/57 53/53/53 56/56/56
f 58/58/58 52/52/52 50/50/50
f 58/58/58 50/50/50 57/57/57
f 59/59/59 57/57/57 56/56/56
f 59/59/59 58/58/58 57/57/57
f 60/60/60 59/59/59 56/56/56
f 60/60/60 61/61/61 59/59/59
f 58/58/58 62/62/62 52/52/52
f 62/62/62 63/63/63 52/52/52
f 64/64/64 63/63/63 62/62/62
f 59/59/59 65/65/65 58/58/58
f 61/61/61 65/65/65 59/59/59
f 65/65/65 62/62/62 58/58/58
f 66/66/66 64/64/64 62/62/62
f 66/66/66 62/62/62 65/65/65
f 67/67/67 65/65/65 61/61/61
f 67/67/67 66/66/66 65/65/65
f 68/68/68 67/67/67 61/61/61
f 68/68/68 69/69/69 67/67/67
f 66/66/66 70/70/70 64/64/64
f 70/70/70 71/71/71 64/64/64
f 72/72/72 71/71/71 70/70/70
f 67/67/67 73/73/73 66/66/66
f 69/69/69 73/73/73 67/67/67
f 73/73/73 70/70/70 66/66/66
f 74/74/74 72/72/72 70/70/70
f 74/74/74 70/70/70 73/73/73
f 75/75/75 73/73/73 69/69/69
f 75/75/75 74/74/74 73/73/73
f 76/76/76 75/75/75 69/69/69
f 76/76/76 77/77/77 75/75/75
f 77/77/77 78/78/78 75/75/75
f 75/75/75 78/78/78 74/74/74
f 78/78/78 79/79/79 74/74/74
f 74/74/74 79/79/79 72/72/72
f 79/79/79 80/80/80 72/72/72
f 83/83/83 82/82/82 81/81/81
f 81/81/81 84/84/84 83/83/83
f 84/84/84 85/85/85 83/83/83
f 84/84/84 86/86/86 85/85/85
f 86/86/86 87/87/87 85/85/85
f 87/87/87 88/88/88 85/85/85
f 91/91/91 90/90/90 89/89/89
f 89/89/89 92/92/92 91/91/91
f 89/89/89 93/93/93 92/92/92
f 93/93/93 94/94/94 92/92/92
f 93/93/93 95/95/95 94/94/94
f 95/95/95 96/96/96 94/94/94
f 95/95/95 97/97/97 96/96/96
f 97/97/97 98/98/98 96/96/96
f 97/97/97 99/99/99 98/98/98
f 99/99/99 100/100/100 98/98/98
f 103/103/103 102/102/102 101/101/101
f 104/104/104 101/101/101 102/102/102
f 104/104/104 105/105/105 101/101/101
f 105/105/105 104/104/104 106/106/106
f 107/107/107 104/104/104 102/102/102
f 102/102/102 108/108/108 107/107/107
f 107/107/107 108/108/108 109/109/109
f 108/108/108 110/110/110 109/109/109
f 109/109/109 110/110/110 111/111/111
f 111/111/111 112/112/112 109/109/109
f 111/111/111 113/113/113 112/112/112
f 113/113/113 111/111/111 114/114/114
f 113/113/113 115/115/115 112/112/112
f 116/116/116 112/112/112 115/115/115
f 119/119/119 118/118/118 117/117/117
f 120/120/120 118/118/118 119/119/119
f 119/119/119 121/121/121 120/120/120
f 122/122/122 120/120/120 121/121/121
f 120/120/120 123/123/123 118/118/118
f 123/123/123 124/124/124 118/118/118
f 124/124/124 123/123/123 125/125/125
f 126/126/126 124/124/124 125/125/125
f 127/127/127 126/126/126 125/125/125
f 127/127/127 125/125/125 128/128/128
f 129/129/129 127/127/127 128/128/128
f 130/130/130 127/127/127 129/129/129
f 128/128/128 131/131/131 129/129/129
f 131/131/131 128/128/128 132/132/132
f 135/135/135 134/134/134 133/133/133
f 133/133/133 136/136/136 135/135/135
f 133/133/133 137/137/137 136/136/136
f 137/137/137 138/138/138 136/136/136
f 137/137/137 139/139/139 138/138/138
f 139/139/139 140/140/140 138/138/138
f 139/139/139 141/141/141 140/140/140
f 141/141/141 142/142/142 140/140/140
f 141/141/141 143/143/143 142/142/142
f 143/143/143 144/144/144 142/142/142
