g WellWater
v 0.844153 0.167912 0.708587
v 0.860691 1E-06 0.708587
v 0.844153 -0.167912 0.708587
v 0.795174 0.329372 0.708587
v 0.795175 -0.329372 0.708587
v 0.715639 -0.478175 0.708587
v 0.715638 0.478174 0.708587
v 0.608601 -0.6086 0.708587
v 0.6086 0.6086 0.708587
v 0.478175 -0.715638 0.708587
v 0.478173 0.715638 0.708587
v 0.329373 -0.795175 0.708587
v 0.329371 0.795174 0.708587
v 0.167913 -0.844153 0.708587
v 0.16791 0.844153 0.708587
v 1E-06 -0.860691 0.708587
v 1E-06 0.86069 0.708587
v -0.167912 0.844152 0.708587
v -0.167912 -0.844153 0.708587
v -0.329372 0.795174 0.708587
v -0.329372 -0.795175 0.708587
v -0.478174 0.715638 0.708587
v -0.478174 -0.715639 0.708587
v -0.6086 0.608599 0.708587
v -0.6086 -0.608601 0.708587
v -0.715638 0.478173 0.708587
v -0.715638 -0.478175 0.708587
v -0.795174 0.329371 0.708587
v -0.795174 -0.329372 0.708587
v -0.844152 0.167912 0.708587
v -0.844153 -0.167913 0.708587
v -0.86069 0 0.708587
vt -0.176158 0.677176
vt -0.163165 0.545266
vt -0.124688 0.418424
vt -0.163163 0.809089
vt -0.062205 0.301524
vt 0.021884 0.199059
vt -0.124687 0.935933
vt 0.124346 0.114972
vt -0.062205 1.05283
vt 0.241244 0.052489
vt 0.021887 1.155294
vt 0.368087 0.01401
vt 0.124348 1.239383
vt 0.499999 0.001016
vt 0.241247 1.301866
vt 0.631911 0.014011
vt 0.368089 1.340343
vt 0.499999 1.353334
vt 0.758755 0.052489
vt 0.631911 1.340341
vt 0.875652 0.114971
vt 0.758755 1.301865
vt 0.978116 0.199058
vt 0.875654 1.239382
vt 1.062204 0.301523
vt 0.978116 1.155291
vt 1.12469 0.41842
vt 1.062204 1.052829
vt 1.163165 0.545265
vt 1.124689 0.935931
vt 1.176159 0.677177
vt 1.163167 0.80909
vn 0 0 1
vn 0 0 1
vn 0 0 1
vn 0 0 1
vn 0 0 1
vn 0 0 1
vn 0 0 1
vn 0 0 1
vn 0 0 1
vn 0 0 1
vn 0 0 1
vn 0 0 1
vn 0 0 1
vn 0 0 1
vn 0 0 1
vn 0 0 1
vn 0 0 1
vn 0 0 1
vn 0 0 1
vn 0 0 1
vn 0 0 1
vn 0 0 1
vn 0 0 1
vn 0 0 1
vn 0 0 1
vn 0 0 1
vn 0 0 1
vn 0 0 1
vn 0 0 1
vn 0 0 1
vn 0 0 1
vn 0 0 1
g WellWater_0
f 3/3/3 2/2/2 1/1/1
f 1/1/1 4/4/4 3/3/3
f 4/4/4 5/5/5 3/3/3
f 4/4/4 6/6/6 5/5/5
f 4/4/4 7/7/7 6/6/6
f 7/7/7 8/8/8 6/6/6
f 7/7/7 9/9/9 8/8/8
f 9/9/9 10/10/10 8/8/8
f 9/9/9 11/11/11 10/10/10
f 11/11/11 12/12/12 10/10/10
f 11/11/11 13/13/13 12/12/12
f 13/13/13 14/14/14 12/12/12
f 13/13/13 15/15/15 14/14/14
f 15/15/15 16/16/16 14/14/14
f 15/15/15 17/17/17 16/16/16
f 17/17/17 18/18/18 16/16/16
f 18/18/18 19/19/19 16/16/16
f 18/18/18 20/20/20 19/19/19
f 20/20/20 21/21/21 19/19/19
f 20/20/20 22/22/22 21/21/21
f 22/22/22 23/23/23 21/21/21
f 22/22/22 24/24/24 23/23/23
f 24/24/24 25/25/25 23/23/23
f 24/24/24 26/26/26 25/25/25
f 26/26/26 27/27/27 25/25/25
f 26/26/26 28/28/28 27/27/27
f 28/28/28 29/29/29 27/27/27
f 28/28/28 30/30/30 29/29/29
f 30/30/30 31/31/31 29/29/29
f 30/30/30 32/32/32 31/31/31
