g WheatPlant_Ready_Impostor
v 1.45021 0.2228154 0
v 1.444546 -1.622163 0
v 0.2652364 -2.261374 0
v -0.2467025 -2.261374 0
v -1.4444 -1.632299 0
v -1.45025 0.111628 0
v -0.9922872 2.078637 0
v 0.9859679 2.078637 0
vt 0.1658509 0.5723925
vt 0.1671562 0.1472832
vt 0.4388858 0
vt 0.5568438 0
vt 0.8328103 0.1449479
vt 0.8341581 0.5467733
vt 0.728637 1
vt 0.272819 1
vn 0 0 -1
vn 0 0 -1
vn 0 0 -1
vn 0 0 -1
vn 0 0 -1
vn 0 0 -1
vn 0 0 -1
vn 0 0 -1
g WheatPlant_Ready_Impostor_0
f 4/4/4 6/6/6 8/8/8
f 8/8/8 2/2/2 4/4/4
f 6/6/6 7/7/7 8/8/8
f 4/4/4 5/5/5 6/6/6
f 2/2/2 3/3/3 4/4/4
f 8/8/8 1/1/1 2/2/2
