g WheatPlant_Stage7_Impostor
v 1.433364 0.04498256 0
v 1.427806 -1.601642 0
v 0.2656486 -2.261374 0
v -0.3216593 -2.261374 0
v -1.428269 -1.567919 0
v -1.433328 0.2091367 0
v -1.024588 2.078637 0
v 1.02592 2.078637 0
vt 0.1697326 0.5314173
vt 0.1710132 0.1520115
vt 0.4387908 0
vt 0.5741149 0
vt 0.8290935 0.1597818
vt 0.8302591 0.5692407
vt 0.7360796 1
vt 0.2636135 1
vn 0 0 -1
vn 0 0 -0.9999999
vn 0 0 -1
vn 0 0 -1
vn 0 0 -1
vn 0 0 -1
vn 0 0 -1
vn 0 0 -1
g WheatPlant_Stage7_Impostor_0
f 4/4/4 6/6/6 8/8/8
f 8/8/8 2/2/2 4/4/4
f 6/6/6 7/7/7 8/8/8
f 4/4/4 5/5/5 6/6/6
f 2/2/2 3/3/3 4/4/4
f 8/8/8 1/1/1 2/2/2
