g WhiteDinnerTable
v 0 -1.643834 1.207942
v 0 -1.643834 1.279011
v 1.245371 -1.643834 1.279011
v 1.245371 -1.643834 1.207942
v 1.512348 -1.529221 1.207942
v 1.512348 -1.529221 1.279011
v 1.645206 -1.389376 1.279011
v 1.645206 -1.389376 1.207942
v 0 -1.274763 1.207942
v 1.403461 0 1.207942
v 0 0 1.207942
v 1.403461 -1.274763 1.207942
v 1.245371 -1.643834 1.207942
v 0 -1.643834 1.207942
v 1.403461 -1.485743 1.207942
v 1.512348 -1.529221 1.207942
v 1.596003 -1.274763 1.207942
v 1.754094 0 1.207942
v 1.645206 -1.389376 1.207942
v 1.754094 -1.116673 1.207942
v 1.754094 -1.116673 1.207942
v 1.754094 0 1.279011
v 1.754094 0 1.207942
v 1.754094 -1.116673 1.279011
v 1.645206 -1.389376 1.279011
v 1.645206 -1.389376 1.207942
v 1.403461 0 1.279011
v 1.754094 0 1.279011
v 1.754094 -1.116673 1.279011
v 1.596003 -1.274763 1.279011
v 1.645206 -1.389376 1.279011
v 1.512348 -1.529221 1.279011
v 1.403461 -1.274763 1.279011
v 0 -1.274763 1.279011
v 0 0 1.279011
v 1.403461 -1.485743 1.279011
v 1.245371 -1.643834 1.279011
v 0 -1.643834 1.279011
v 1.446383 -1.345586 1.230356
v 1.603292 -1.429792 0.00013
v 1.603292 -1.380418 0.00013
v 1.446383 -1.236469 1.230356
v 1.446383 -1.236469 1.230356
v 1.603292 -1.380418 0.00013
v 1.652666 -1.380418 0.00013
v 1.5555 -1.236469 1.230356
v 1.5555 -1.236469 1.230356
v 1.652666 -1.380418 0.00013
v 1.652666 -1.429792 0.00013
v 1.5555 -1.345586 1.230356
v 1.5555 -1.345586 1.230356
v 1.652666 -1.429792 0.00013
v 1.603292 -1.429792 0.00013
v 1.446383 -1.345586 1.230356
v 1.603292 -1.429792 0.00013
v 1.652666 -1.429792 0.00013
v 1.652666 -1.380418 0.00013
v 1.603292 -1.380418 0.00013
v 1.5555 -1.345586 1.230356
v 1.446383 -1.345586 1.230356
v 1.446383 -1.236469 1.230356
v 1.5555 -1.236469 1.230356
v 0 -1.643834 1.207942
v -1.245371 -1.643834 1.207942
v -1.245371 -1.643834 1.279011
v 0 -1.643834 1.279011
v 0 -1.274763 1.207942
v 0 0 1.207942
v -1.403461 0 1.207942
v -1.403461 -1.274763 1.207942
v -1.245371 -1.643834 1.207942
v 0 -1.643834 1.207942
v -1.403461 -1.485743 1.207942
v -1.512348 -1.529221 1.207942
v -1.596003 -1.274763 1.207942
v -1.754094 0 1.207942
v -1.645206 -1.389376 1.207942
v -1.754094 -1.116673 1.207942
v -1.754094 -1.116673 1.207942
v -1.754094 0 1.207942
v -1.754094 0 1.279011
v -1.754094 -1.116673 1.279011
v -1.645206 -1.389376 1.279011
v -1.645206 -1.389376 1.207942
v -1.512348 -1.529221 1.207942
v -1.512348 -1.529221 1.279011
v -1.245371 -1.643834 1.279011
v -1.245371 -1.643834 1.207942
v 0 -1.274763 1.279011
v -1.403461 0 1.279011
v 0 0 1.279011
v -1.403461 -1.274763 1.279011
v 0 -1.643834 1.279011
v -1.754094 0 1.279011
v -1.245371 -1.643834 1.279011
v -1.596003 -1.274763 1.279011
v -1.754094 -1.116673 1.279011
v -1.645206 -1.389376 1.279011
v -1.512348 -1.529221 1.279011
v -1.403461 -1.485743 1.279011
v -1.446383 -1.345586 1.230356
v -1.446383 -1.236469 1.230356
v -1.603292 -1.380418 0.00013
v -1.603292 -1.429792 0.00013
v -1.446383 -1.236469 1.230356
v -1.5555 -1.236469 1.230356
v -1.652666 -1.380418 0.00013
v -1.603292 -1.380418 0.00013
v -1.5555 -1.236469 1.230356
v -1.5555 -1.345586 1.230356
v -1.652666 -1.429792 0.00013
v -1.652666 -1.380418 0.00013
v -1.5555 -1.345586 1.230356
v -1.446383 -1.345586 1.230356
v -1.603292 -1.429792 0.00013
v -1.652666 -1.429792 0.00013
v -1.603292 -1.429792 0.00013
v -1.603292 -1.380418 0.00013
v -1.652666 -1.380418 0.00013
v -1.652666 -1.429792 0.00013
v -1.5555 -1.345586 1.230356
v -1.5555 -1.236469 1.230356
v -1.446383 -1.236469 1.230356
v -1.446383 -1.345586 1.230356
v 0 1.643834 1.207942
v 1.245371 1.643834 1.207942
v 1.245371 1.643834 1.279011
v 0 1.643834 1.279011
v 0 1.274763 1.207942
v 0 0 1.207942
v 1.403461 0 1.207942
v 1.403461 1.274763 1.207942
v 1.403461 1.485743 1.207942
v 1.245371 1.643834 1.207942
v 0 1.643834 1.207942
v 1.512348 1.529221 1.207942
v 1.596003 1.274763 1.207942
v 1.645206 1.389376 1.207942
v 1.754094 1.116673 1.207942
v 1.754094 0 1.207942
v 1.754094 1.116673 1.207942
v 1.754094 0 1.207942
v 1.754094 0 1.279011
v 1.754094 1.116673 1.279011
v 1.645206 1.389376 1.279011
v 1.645206 1.389376 1.207942
v 1.512348 1.529221 1.207942
v 1.512348 1.529221 1.279011
v 1.245371 1.643834 1.279011
v 1.245371 1.643834 1.207942
v 0 1.274763 1.279011
v 1.403461 0 1.279011
v 0 0 1.279011
v 1.403461 1.274763 1.279011
v 1.245371 1.643834 1.279011
v 0 1.643834 1.279011
v 1.403461 1.485743 1.279011
v 1.512348 1.529221 1.279011
v 1.596003 1.274763 1.279011
v 1.754094 0 1.279011
v 1.645206 1.389376 1.279011
v 1.754094 1.116673 1.279011
v 1.446383 1.345586 1.230356
v 1.446383 1.236469 1.230356
v 1.603292 1.380418 0.00013
v 1.603292 1.429792 0.00013
v 1.446383 1.236469 1.230356
v 1.5555 1.236469 1.230356
v 1.652666 1.380418 0.00013
v 1.603292 1.380418 0.00013
v 1.5555 1.236469 1.230356
v 1.5555 1.345586 1.230356
v 1.652666 1.429792 0.00013
v 1.652666 1.380418 0.00013
v 1.5555 1.345586 1.230356
v 1.446383 1.345586 1.230356
v 1.603292 1.429792 0.00013
v 1.652666 1.429792 0.00013
v 1.603292 1.429792 0.00013
v 1.603292 1.380418 0.00013
v 1.652666 1.380418 0.00013
v 1.652666 1.429792 0.00013
v 1.5555 1.345586 1.230356
v 1.5555 1.236469 1.230356
v 1.446383 1.236469 1.230356
v 1.446383 1.345586 1.230356
v 0 1.643834 1.207942
v 0 1.643834 1.279011
v -1.245371 1.643834 1.279011
v -1.245371 1.643834 1.207942
v -1.512348 1.529221 1.207942
v -1.512348 1.529221 1.279011
v -1.645206 1.389376 1.279011
v -1.512348 1.529221 1.207942
v -1.645206 1.389376 1.279011
v -1.645206 1.389376 1.207942
v -1.754094 1.116673 1.207942
v -1.754094 1.116673 1.279011
v -1.754094 0 1.279011
v -1.754094 0 1.207942
v 0 1.274763 1.207942
v -1.403461 0 1.207942
v 0 0 1.207942
v -1.403461 1.274763 1.207942
v 0 1.643834 1.207942
v -1.754094 0 1.207942
v -1.245371 1.643834 1.207942
v -1.596003 1.274763 1.207942
v -1.754094 1.116673 1.207942
v -1.645206 1.389376 1.207942
v -1.512348 1.529221 1.207942
v -1.403461 1.485743 1.207942
v 0 1.274763 1.279011
v 0 0 1.279011
v -1.403461 0 1.279011
v -1.403461 1.274763 1.279011
v -1.245371 1.643834 1.279011
v 0 1.643834 1.279011
v -1.403461 1.485743 1.279011
v -1.512348 1.529221 1.279011
v -1.596003 1.274763 1.279011
v -1.754094 0 1.279011
v -1.645206 1.389376 1.279011
v -1.754094 1.116673 1.279011
v -1.446383 1.345586 1.230356
v -1.603292 1.429792 0.00013
v -1.603292 1.380418 0.00013
v -1.446383 1.236469 1.230356
v -1.446383 1.236469 1.230356
v -1.603292 1.380418 0.00013
v -1.652666 1.380418 0.00013
v -1.5555 1.236469 1.230356
v -1.5555 1.236469 1.230356
v -1.652666 1.380418 0.00013
v -1.652666 1.429792 0.00013
v -1.5555 1.345586 1.230356
v -1.5555 1.345586 1.230356
v -1.652666 1.429792 0.00013
v -1.603292 1.429792 0.00013
v -1.446383 1.345586 1.230356
v -1.603292 1.429792 0.00013
v -1.652666 1.429792 0.00013
v -1.652666 1.380418 0.00013
v -1.603292 1.380418 0.00013
v -1.5555 1.345586 1.230356
v -1.446383 1.345586 1.230356
v -1.446383 1.236469 1.230356
v -1.5555 1.236469 1.230356
vt 0.396994 0.579791
vt 0.409044 0.579791
vt 0.409044 0.36865
vt 0.396995 0.36865
vt 0.396995 0.319392
vt 0.409044 0.319392
vt 0.409044 0.286688
vt 0.396995 0.286689
vt 0.454566 0.300167
vt 0.678683 0.546911
vt 0.678683 0.300167
vt 0.454566 0.546911
vt 0.389679 0.519117
vt 0.389679 0.300167
vt 0.417473 0.546911
vt 0.40983 0.566055
vt 0.454566 0.580762
vt 0.678683 0.608556
vt 0.434416 0.589413
vt 0.48236 0.608557
vt 0.396995 0.236904
vt 0.409044 0.047582
vt 0.396995 0.047582
vt 0.409044 0.236904
vt 0.409044 0.286688
vt 0.396995 0.286689
vt 0.930555 0.334918
vt 0.98175 0.334918
vt 0.98175 0.117354
vt 0.958668 0.086553
vt 0.965851 0.064222
vt 0.946453 0.036976
vt 0.930555 0.086553
vt 0.725639 0.086553
vt 0.725639 0.334918
vt 0.930555 0.045447
vt 0.907473 0.014646
vt 0.725639 0.014646
vt 0.644828 0.641975
vt 0.644828 0.985548
vt 0.9884 0.985548
vt 0.9884 0.641975
vt 0.644828 0.641975
vt 0.644828 0.985548
vt 0.9884 0.985548
vt 0.9884 0.641975
vt 0.644828 0.641975
vt 0.644828 0.985548
vt 0.9884 0.985548
vt 0.9884 0.641975
vt 0.644828 0.641975
vt 0.644828 0.985548
vt 0.9884 0.985548
vt 0.9884 0.641975
vt 0.65424 0.665649
vt 0.65424 0.984693
vt 0.973283 0.984693
vt 0.973283 0.665649
vt 0.454911 0.118331
vt 0.454911 0.596432
vt 0.933012 0.596432
vt 0.933012 0.118331
vt 0.396994 0.579791
vt 0.396995 0.36865
vt 0.409044 0.36865
vt 0.409044 0.579791
vt 0.454566 0.300167
vt 0.678683 0.300167
vt 0.678683 0.546911
vt 0.454566 0.546911
vt 0.389679 0.519117
vt 0.389679 0.300167
vt 0.417473 0.546911
vt 0.40983 0.566055
vt 0.454566 0.580762
vt 0.678683 0.608556
vt 0.434416 0.589413
vt 0.48236 0.608557
vt 0.396995 0.236904
vt 0.396995 0.047582
vt 0.409044 0.047582
vt 0.409044 0.236904
vt 0.409044 0.286688
vt 0.396995 0.286689
vt 0.396995 0.319392
vt 0.409044 0.319392
vt 0.409044 0.36865
vt 0.396995 0.36865
vt 0.725639 0.086553
vt 0.930555 0.334918
vt 0.725639 0.334918
vt 0.930555 0.086553
vt 0.725639 0.014646
vt 0.98175 0.334918
vt 0.907473 0.014646
vt 0.958668 0.086553
vt 0.98175 0.117354
vt 0.965851 0.064222
vt 0.946453 0.036976
vt 0.930555 0.045447
vt 0.644828 0.641975
vt 0.9884 0.641975
vt 0.9884 0.985548
vt 0.644828 0.985548
vt 0.644828 0.641975
vt 0.9884 0.641975
vt 0.9884 0.985548
vt 0.644828 0.985548
vt 0.644828 0.641975
vt 0.9884 0.641975
vt 0.9884 0.985548
vt 0.644828 0.985548
vt 0.644828 0.641975
vt 0.9884 0.641975
vt 0.9884 0.985548
vt 0.644828 0.985548
vt 0.65424 0.665649
vt 0.973283 0.665649
vt 0.973283 0.984693
vt 0.65424 0.984693
vt 0.454911 0.118331
vt 0.933012 0.118331
vt 0.933012 0.596432
vt 0.454911 0.596432
vt 0.396994 0.579791
vt 0.396995 0.36865
vt 0.409044 0.36865
vt 0.409044 0.579791
vt 0.454566 0.300167
vt 0.678683 0.300167
vt 0.678683 0.546911
vt 0.454566 0.546911
vt 0.417473 0.546911
vt 0.389679 0.519117
vt 0.389679 0.300167
vt 0.40983 0.566055
vt 0.454566 0.580762
vt 0.434416 0.589413
vt 0.48236 0.608557
vt 0.678683 0.608556
vt 0.396995 0.236904
vt 0.396995 0.047582
vt 0.409044 0.047582
vt 0.409044 0.236904
vt 0.409044 0.286688
vt 0.396995 0.286689
vt 0.396995 0.319392
vt 0.409044 0.319392
vt 0.409044 0.36865
vt 0.396995 0.36865
vt 0.725639 0.086553
vt 0.930555 0.334918
vt 0.725639 0.334918
vt 0.930555 0.086553
vt 0.907473 0.014646
vt 0.725639 0.014646
vt 0.930555 0.045447
vt 0.946453 0.036976
vt 0.958668 0.086553
vt 0.98175 0.334918
vt 0.965851 0.064222
vt 0.98175 0.117354
vt 0.644828 0.641975
vt 0.9884 0.641975
vt 0.9884 0.985548
vt 0.644828 0.985548
vt 0.644828 0.641975
vt 0.9884 0.641975
vt 0.9884 0.985548
vt 0.644828 0.985548
vt 0.644828 0.641975
vt 0.9884 0.641975
vt 0.9884 0.985548
vt 0.644828 0.985548
vt 0.644828 0.641975
vt 0.9884 0.641975
vt 0.9884 0.985548
vt 0.644828 0.985548
vt 0.65424 0.665649
vt 0.973283 0.665649
vt 0.973283 0.984693
vt 0.65424 0.984693
vt 0.454911 0.118331
vt 0.933012 0.118331
vt 0.933012 0.596432
vt 0.454911 0.596432
vt 0.396994 0.579791
vt 0.409044 0.579791
vt 0.409044 0.36865
vt 0.396995 0.36865
vt 0.396995 0.319392
vt 0.409044 0.319392
vt 0.409044 0.286688
vt 0.396995 0.319392
vt 0.409044 0.286688
vt 0.396995 0.286689
vt 0.396995 0.236904
vt 0.409044 0.236904
vt 0.409044 0.047582
vt 0.396995 0.047582
vt 0.454566 0.300167
vt 0.678683 0.546911
vt 0.678683 0.300167
vt 0.454566 0.546911
vt 0.389679 0.300167
vt 0.678683 0.608556
vt 0.389679 0.519117
vt 0.454566 0.580762
vt 0.48236 0.608557
vt 0.434416 0.589413
vt 0.40983 0.566055
vt 0.417473 0.546911
vt 0.725639 0.086553
vt 0.725639 0.334918
vt 0.930555 0.334918
vt 0.930555 0.086553
vt 0.907473 0.014646
vt 0.725639 0.014646
vt 0.930555 0.045447
vt 0.946453 0.036976
vt 0.958668 0.086553
vt 0.98175 0.334918
vt 0.965851 0.064222
vt 0.98175 0.117354
vt 0.644828 0.641975
vt 0.644828 0.985548
vt 0.9884 0.985548
vt 0.9884 0.641975
vt 0.644828 0.641975
vt 0.644828 0.985548
vt 0.9884 0.985548
vt 0.9884 0.641975
vt 0.644828 0.641975
vt 0.644828 0.985548
vt 0.9884 0.985548
vt 0.9884 0.641975
vt 0.644828 0.641975
vt 0.644828 0.985548
vt 0.9884 0.985548
vt 0.9884 0.641975
vt 0.65424 0.665649
vt 0.65424 0.984693
vt 0.973283 0.984693
vt 0.973283 0.665649
vt 0.454911 0.118331
vt 0.454911 0.596432
vt 0.933012 0.596432
vt 0.933012 0.118331
vn 0 -1 0
vn 0 -1 0
vn 0.07556807 -0.9971406 0
vn 0.07556807 -0.9971406 0
vn 0.5369018 -0.8436448 0
vn 0.5369018 -0.8436448 0
vn 0.8627824 -0.5055755 0
vn 0.8627824 -0.5055755 0
vn 0 0 -1
vn 0 0 -1
vn 0 0 -1
vn 0 0 -1
vn 0 0 -1
vn 0 0 -1
vn 0 0 -1
vn 0 0 -1
vn 0 0 -1
vn 0 0 -1
vn 0 0 -1
vn 0 0 -1
vn 0.9969429 -0.07813232 0
vn 1 0 0
vn 1 0 0
vn 0.9969429 -0.07813232 0
vn 0.8627824 -0.5055755 0
vn 0.8627824 -0.5055755 0
vn 0 0 1
vn 0 0 1
vn 0 0 1
vn 0 0 1
vn 0 0 1
vn 0 0 1
vn 0 0 1
vn 0 0 1
vn 0 0 1
vn 0 0 1
vn 0 0 1
vn 0 0 1
vn -0.9919641 0 -0.1265199
vn -0.9883966 0 -0.1518952
vn -0.6926146 0.6969093 -0.1860174
vn -0.9919641 0 -0.1265199
vn 0 0.9932238 -0.1162173
vn -0.6926146 0.6969093 -0.1860174
vn 0 0.9898843 -0.1418775
vn 0 0.9932238 -0.1162173
vn 0.9784834 0 0.2063252
vn 0.9968954 0 0.078737
vn 0.9968954 0 0.078737
vn 0.6928682 -0.6973096 0.1835564
vn 0.6928682 -0.6973096 0.1835564
vn 0 -0.9976656 0.0682879
vn 0 -0.9976656 0.06828789
vn 0 -0.9803383 0.197324
vn -0.9883966 0 -0.1518952
vn 0 0 -1
vn 0 0.9898843 -0.1418775
vn -0.6926146 0.6969093 -0.1860174
vn 0.6928682 -0.6973096 0.1835564
vn 0 -0.9803383 0.197324
vn 0 0 1
vn 0.9784834 0 0.2063252
vn 0 -1 0
vn -0.07556807 -0.9971406 0
vn -0.07556807 -0.9971406 0
vn 0 -1 0
vn 0 0 -1
vn 0 0 -1
vn 0 0 -1
vn 0 0 -1
vn 0 0 -1
vn 0 0 -1
vn 0 0 -1
vn 0 0 -1
vn 0 0 -1
vn 0 0 -1
vn 0 0 -1
vn 0 0 -1
vn -0.9969429 -0.07813232 0
vn -1 0 0
vn -1 0 0
vn -0.9969429 -0.07813232 0
vn -0.8627824 -0.5055755 0
vn -0.8627824 -0.5055755 0
vn -0.5369018 -0.8436448 0
vn -0.5369018 -0.8436448 0
vn -0.07556807 -0.9971406 0
vn -0.07556807 -0.9971406 0
vn 0 0 1
vn 0 0 1
vn 0 0 1
vn 0 0 1
vn 0 0 1
vn 0 0 1
vn 0 0 1
vn 0 0 1
vn 0 0 1
vn 0 0 1
vn 0 0 1
vn 0 0 1
vn 0.9919641 0 -0.1265199
vn 0.9919641 0 -0.1265199
vn 0.6926146 0.6969093 -0.1860174
vn 0.9883966 0 -0.1518952
vn 0 0.9932238 -0.1162173
vn 0 0.9932238 -0.1162173
vn 0 0.9898843 -0.1418775
vn 0.6926146 0.6969093 -0.1860174
vn -0.9784834 0 0.2063252
vn -0.6928682 -0.6973096 0.1835564
vn -0.9968954 0 0.078737
vn -0.9968954 0 0.078737
vn -0.6928682 -0.6973096 0.1835564
vn 0 -0.9803383 0.197324
vn 0 -0.9976656 0.06828789
vn 0 -0.9976656 0.0682879
vn 0.9883966 0 -0.1518952
vn 0.6926146 0.6969093 -0.1860174
vn 0 0.9898843 -0.1418775
vn 0 0 -1
vn -0.6928682 -0.6973096 0.1835564
vn -0.9784834 0 0.2063252
vn 0 0 1
vn 0 -0.9803383 0.197324
vn 0 1 0
vn 0.07556807 0.9971406 0
vn 0.07556807 0.9971406 0
vn 0 1 0
vn 0 0 -1
vn 0 0 -1
vn 0 0 -1
vn 0 0 -1
vn 0 0 -1
vn 0 0 -1
vn 0 0 -1
vn 0 0 -1
vn 0 0 -1
vn 0 0 -1
vn 0 0 -1
vn 0 0 -1
vn 0.9969429 0.07813232 0
vn 1 0 0
vn 1 0 0
vn 0.9969429 0.07813232 0
vn 0.8627824 0.5055755 0
vn 0.8627824 0.5055755 0
vn 0.5369018 0.8436448 0
vn 0.5369018 0.8436448 0
vn 0.07556807 0.9971406 0
vn 0.07556807 0.9971406 0
vn 0 0 1
vn 0 0 1
vn 0 0 1
vn 0 0 1
vn 0 0 1
vn 0 0 1
vn 0 0 1
vn 0 0 1
vn 0 0 1
vn 0 0 1
vn 0 0 1
vn 0 0 1
vn -0.9919641 0 -0.1265199
vn -0.9919641 0 -0.1265199
vn -0.6926146 -0.6969093 -0.1860174
vn -0.9883966 0 -0.1518952
vn 0 -0.9932238 -0.1162172
vn 0 -0.9932238 -0.1162172
vn 0 -0.9898843 -0.1418775
vn -0.6926146 -0.6969093 -0.1860174
vn 0.9784834 0 0.2063252
vn 0.6928682 0.6973096 0.1835564
vn 0.9968954 0 0.07873698
vn 0.9968954 0 0.07873698
vn 0.6928682 0.6973096 0.1835564
vn 0 0.9803383 0.197324
vn 0 0.9976656 0.06828789
vn 0 0.9976656 0.0682879
vn -0.9883966 0 -0.1518952
vn -0.6926146 -0.6969093 -0.1860174
vn 0 -0.9898843 -0.1418775
vn 0 0 -1
vn 0.6928682 0.6973096 0.1835564
vn 0.9784834 0 0.2063252
vn 0 0 1
vn 0 0.9803383 0.197324
vn 0 1 0
vn 0 1 0
vn -0.07556807 0.9971406 0
vn -0.07556807 0.9971406 0
vn -0.5369018 0.8436448 0
vn -0.5369018 0.8436448 0
vn -0.8627824 0.5055755 0
vn -0.5369018 0.8436448 0
vn -0.8627824 0.5055755 0
vn -0.8627824 0.5055755 0
vn -0.9969429 0.07813232 0
vn -0.9969429 0.07813232 0
vn -1 0 0
vn -1 0 0
vn 0 0 -1
vn 0 0 -1
vn 0 0 -1
vn 0 0 -1
vn 0 0 -1
vn 0 0 -1
vn 0 0 -1
vn 0 0 -1
vn 0 0 -1
vn 0 0 -1
vn 0 0 -1
vn 0 0 -1
vn 0 0 1
vn 0 0 1
vn 0 0 1
vn 0 0 1
vn 0 0 1
vn 0 0 1
vn 0 0 1
vn 0 0 1
vn 0 0 1
vn 0 0 1
vn 0 0 1
vn 0 0 1
vn 0.9919641 0 -0.1265199
vn 0.9883966 0 -0.1518952
vn 0.6926146 -0.6969093 -0.1860174
vn 0.9919641 0 -0.1265199
vn 0 -0.9932238 -0.1162173
vn 0.6926146 -0.6969093 -0.1860174
vn 0 -0.9898843 -0.1418775
vn 0 -0.9932238 -0.1162173
vn -0.9784834 0 0.2063252
vn -0.9968954 0 0.07873698
vn -0.9968954 0 0.07873698
vn -0.6928682 0.6973096 0.1835564
vn -0.6928682 0.6973096 0.1835564
vn 0 0.9976656 0.0682879
vn 0 0.9976656 0.06828789
vn 0 0.9803383 0.197324
vn 0.9883966 0 -0.1518952
vn 0 0 -1
vn 0 -0.9898843 -0.1418775
vn 0.6926146 -0.6969093 -0.1860174
vn -0.6928682 0.6973096 0.1835564
vn 0 0.9803383 0.197324
vn 0 0 1
vn -0.9784834 0 0.2063252
g WhiteDinnerTable_0
f 3/3/3 2/2/2 1/1/1
f 4/4/4 3/3/3 1/1/1
f 4/4/4 5/5/5 3/3/3
f 5/5/5 6/6/6 3/3/3
f 7/7/7 6/6/6 5/5/5
f 8/8/8 7/7/7 5/5/5
f 11/11/11 10/10/10 9/9/9
f 10/10/10 12/12/12 9/9/9
f 13/13/13 9/9/9 12/12/12
f 13/13/13 14/14/14 9/9/9
f 12/12/12 15/15/15 13/13/13
f 13/13/13 15/15/15 16/16/16
f 16/16/16 15/15/15 12/12/12
f 17/17/17 12/12/12 10/10/10
f 16/16/16 12/12/12 17/17/17
f 17/17/17 10/10/10 18/18/18
f 17/17/17 19/19/19 16/16/16
f 18/18/18 20/20/20 17/17/17
f 19/19/19 17/17/17 20/20/20
f 23/23/23 22/22/22 21/21/21
f 22/22/22 24/24/24 21/21/21
f 24/24/24 25/25/25 21/21/21
f 25/25/25 26/26/26 21/21/21
f 29/29/29 28/28/28 27/27/27
f 27/27/27 30/30/30 29/29/29
f 29/29/29 30/30/30 31/31/31
f 32/32/32 31/31/31 30/30/30
f 27/27/27 33/33/33 30/30/30
f 30/30/30 33/33/33 32/32/32
f 33/33/33 27/27/27 34/34/34
f 27/27/27 35/35/35 34/34/34
f 33/33/33 36/36/36 32/32/32
f 36/36/36 33/33/33 34/34/34
f 32/32/32 36/36/36 37/37/37
f 34/34/34 37/37/37 36/36/36
f 34/34/34 38/38/38 37/37/37
f 41/41/41 40/40/40 39/39/39
f 42/42/42 41/41/41 39/39/39
f 45/45/45 44/44/44 43/43/43
f 46/46/46 45/45/45 43/43/43
f 49/49/49 48/48/48 47/47/47
f 50/50/50 49/49/49 47/47/47
f 53/53/53 52/52/52 51/51/51
f 54/54/54 53/53/53 51/51/51
f 57/57/57 56/56/56 55/55/55
f 58/58/58 57/57/57 55/55/55
f 61/61/61 60/60/60 59/59/59
f 62/62/62 61/61/61 59/59/59
f 65/65/65 64/64/64 63/63/63
f 66/66/66 65/65/65 63/63/63
f 69/69/69 68/68/68 67/67/67
f 70/70/70 69/69/69 67/67/67
f 71/71/71 70/70/70 67/67/67
f 67/67/67 72/72/72 71/71/71
f 71/71/71 73/73/73 70/70/70
f 73/73/73 71/71/71 74/74/74
f 70/70/70 73/73/73 74/74/74
f 69/69/69 70/70/70 75/75/75
f 74/74/74 75/75/75 70/70/70
f 75/75/75 76/76/76 69/69/69
f 74/74/74 77/77/77 75/75/75
f 75/75/75 78/78/78 76/76/76
f 75/75/75 77/77/77 78/78/78
f 81/81/81 80/80/80 79/79/79
f 82/82/82 81/81/81 79/79/79
f 83/83/83 82/82/82 79/79/79
f 84/84/84 83/83/83 79/79/79
f 83/83/83 84/84/84 85/85/85
f 86/86/86 83/83/83 85/85/85
f 86/86/86 85/85/85 87/87/87
f 85/85/85 88/88/88 87/87/87
f 91/91/91 90/90/90 89/89/89
f 90/90/90 92/92/92 89/89/89
f 93/93/93 89/89/89 92/92/92
f 92/92/92 90/90/90 94/94/94
f 92/92/92 95/95/95 93/93/93
f 94/94/94 96/96/96 92/92/92
f 94/94/94 97/97/97 96/96/96
f 96/96/96 97/97/97 98/98/98
f 96/96/96 98/98/98 99/99/99
f 92/92/92 100/100/100 95/95/95
f 100/100/100 99/99/99 95/95/95
f 100/100/100 92/92/92 96/96/96
f 96/96/96 99/99/99 100/100/100
f 103/103/103 102/102/102 101/101/101
f 104/104/104 103/103/103 101/101/101
f 107/107/107 106/106/106 105/105/105
f 108/108/108 107/107/107 105/105/105
f 111/111/111 110/110/110 109/109/109
f 112/112/112 111/111/111 109/109/109
f 115/115/115 114/114/114 113/113/113
f 116/116/116 115/115/115 113/113/113
f 119/119/119 118/118/118 117/117/117
f 120/120/120 119/119/119 117/117/117
f 123/123/123 122/122/122 121/121/121
f 124/124/124 123/123/123 121/121/121
f 127/127/127 126/126/126 125/125/125
f 128/128/128 127/127/127 125/125/125
f 131/131/131 130/130/130 129/129/129
f 132/132/132 131/131/131 129/129/129
f 133/133/133 132/132/132 129/129/129
f 129/129/129 134/134/134 133/133/133
f 129/129/129 135/135/135 134/134/134
f 133/133/133 134/134/134 136/136/136
f 132/132/132 133/133/133 136/136/136
f 137/137/137 132/132/132 136/136/136
f 131/131/131 132/132/132 137/137/137
f 136/136/136 138/138/138 137/137/137
f 137/137/137 138/138/138 139/139/139
f 131/131/131 137/137/137 139/139/139
f 139/139/139 140/140/140 131/131/131
f 143/143/143 142/142/142 141/141/141
f 144/144/144 143/143/143 141/141/141
f 145/145/145 144/144/144 141/141/141
f 146/146/146 145/145/145 141/141/141
f 145/145/145 146/146/146 147/147/147
f 148/148/148 145/145/145 147/147/147
f 148/148/148 147/147/147 149/149/149
f 147/147/147 150/150/150 149/149/149
f 153/153/153 152/152/152 151/151/151
f 152/152/152 154/154/154 151/151/151
f 155/155/155 151/151/151 154/154/154
f 155/155/155 156/156/156 151/151/151
f 154/154/154 157/157/157 155/155/155
f 157/157/157 158/158/158 155/155/155
f 158/158/158 157/157/157 154/154/154
f 159/159/159 154/154/154 152/152/152
f 158/158/158 154/154/154 159/159/159
f 159/159/159 152/152/152 160/160/160
f 159/159/159 161/161/161 158/158/158
f 160/160/160 162/162/162 159/159/159
f 159/159/159 162/162/162 161/161/161
f 165/165/165 164/164/164 163/163/163
f 166/166/166 165/165/165 163/163/163
f 169/169/169 168/168/168 167/167/167
f 170/170/170 169/169/169 167/167/167
f 173/173/173 172/172/172 171/171/171
f 174/174/174 173/173/173 171/171/171
f 177/177/177 176/176/176 175/175/175
f 178/178/178 177/177/177 175/175/175
f 181/181/181 180/180/180 179/179/179
f 182/182/182 181/181/181 179/179/179
f 185/185/185 184/184/184 183/183/183
f 186/186/186 185/185/185 183/183/183
f 189/189/189 188/188/188 187/187/187
f 190/190/190 189/189/189 187/187/187
f 190/190/190 191/191/191 189/189/189
f 191/191/191 192/192/192 189/189/189
f 193/193/193 192/192/192 191/191/191
f 196/196/196 195/195/195 194/194/194
f 195/195/195 196/196/196 197/197/197
f 198/198/198 195/195/195 197/197/197
f 199/199/199 198/198/198 197/197/197
f 200/200/200 199/199/199 197/197/197
f 203/203/203 202/202/202 201/201/201
f 202/202/202 204/204/204 201/201/201
f 205/205/205 201/201/201 204/204/204
f 204/204/204 202/202/202 206/206/206
f 204/204/204 207/207/207 205/205/205
f 206/206/206 208/208/208 204/204/204
f 206/206/206 209/209/209 208/208/208
f 210/210/210 208/208/208 209/209/209
f 208/208/208 210/210/210 211/211/211
f 204/204/204 212/212/212 207/207/207
f 207/207/207 212/212/212 211/211/211
f 212/212/212 204/204/204 208/208/208
f 208/208/208 211/211/211 212/212/212
f 215/215/215 214/214/214 213/213/213
f 216/216/216 215/215/215 213/213/213
f 217/217/217 216/216/216 213/213/213
f 213/213/213 218/218/218 217/217/217
f 217/217/217 219/219/219 216/216/216
f 220/220/220 219/219/219 217/217/217
f 216/216/216 219/219/219 220/220/220
f 215/215/215 216/216/216 221/221/221
f 220/220/220 221/221/221 216/216/216
f 221/221/221 222/222/222 215/215/215
f 220/220/220 223/223/223 221/221/221
f 221/221/221 224/224/224 222/222/222
f 224/224/224 221/221/221 223/223/223
f 227/227/227 226/226/226 225/225/225
f 228/228/228 227/227/227 225/225/225
f 231/231/231 230/230/230 229/229/229
f 232/232/232 231/231/231 229/229/229
f 235/235/235 234/234/234 233/233/233
f 236/236/236 235/235/235 233/233/233
f 239/239/239 238/238/238 237/237/237
f 240/240/240 239/239/239 237/237/237
f 243/243/243 242/242/242 241/241/241
f 244/244/244 243/243/243 241/241/241
f 247/247/247 246/246/246 245/245/245
f 248/248/248 247/247/247 245/245/245
