g WideBridgeSecondNavMesh
v 2.731217 -0.347116 1.08168
v 0 0.351994 1.035148
v 2.731217 0.351994 1.035148
v 0 -0.347116 1.08168
v 2.731217 -1.046954 1.096039
v 0 -1.046954 1.096039
v -2.731217 -1.046954 1.096039
v -2.731217 -0.347116 1.08168
v -2.731217 0.351994 1.035148
v 2.731217 0.351994 1.035148
v 0 1.050308 0.953454
v 2.731217 1.050308 0.953454
v 0 0.351994 1.035148
v -2.731217 0.351994 1.035148
v -2.731217 1.050308 0.953454
vt 0.978621 0.92917
vt 0.978621 0.961478
vt 0.978621 0.961478
vt 0.978621 0.92917
vt 0.978621 0.896861
vt 0.978621 0.896861
vt 0.978621 0.896861
vt 0.978621 0.92917
vt 0.978621 0.961478
vt 0.978621 0.961478
vt 0.978621 0.993787
vt 0.978621 0.993787
vt 0.978621 0.961478
vt 0.978621 0.961478
vt 0.978621 0.993787
vn 0 0.06641202 0.9977924
vn 0 0.06641202 0.9977924
vn 0 0.06641202 0.9977924
vn 0 0.06641202 0.9977924
vn 0 0.02051299 0.9997897
vn 0 0.02051299 0.9997897
vn 0 0.02051299 0.9997897
vn 0 0.06641202 0.9977924
vn 0 0.06641202 0.9977924
vn 0 0.1161951 0.9932265
vn 0 0.1161951 0.9932265
vn 0 0.1161951 0.9932265
vn 0 0.1161951 0.9932265
vn 0 0.1161951 0.9932265
vn 0 0.1161951 0.9932265
g WideBridgeSecondNavMesh_0
f 3/3/3 2/2/2 1/1/1
f 2/2/2 4/4/4 1/1/1
f 1/1/1 4/4/4 5/5/5
f 4/4/4 6/6/6 5/5/5
f 6/6/6 4/4/4 7/7/7
f 4/4/4 8/8/8 7/7/7
f 4/4/4 2/2/2 8/8/8
f 2/2/2 9/9/9 8/8/8
f 12/12/12 11/11/11 10/10/10
f 11/11/11 13/13/13 10/10/10
f 13/13/13 11/11/11 14/14/14
f 11/11/11 15/15/15 14/14/14
