g Window2
v -0.88989 -0.046493 0
v -0.88989 0.082525 0.88989
v -0.88989 -0.046493 0.88989
v -0.88989 0.082525 0
v -0.88989 -0.046493 -0.88989
v -0.88989 0.082525 -0.88989
v 0.88989 0.082525 0
v 0.88989 -0.046493 0.88989
v 0.88989 0.082525 0.88989
v 0.88989 -0.046493 0
v 0.88989 0.082525 -0.88989
v 0.88989 -0.046493 -0.88989
v 0.770355 -0.041734 0.053878
v 0.770355 0.026326 0.053878
v 0.770355 0.026326 0.770355
v 0.770355 -0.041734 0.770355
v 0 0.082525 -0.88989
v 0.88989 -0.046493 -0.88989
v 0.88989 0.082525 -0.88989
v 0 -0.046493 -0.88989
v -0.88989 0.082525 -0.88989
v -0.88989 -0.046493 -0.88989
v 0 0.082525 0.88989
v -0.88989 -0.046493 0.88989
v -0.88989 0.082525 0.88989
v 0 -0.046493 0.88989
v 0.88989 0.082525 0.88989
v 0.88989 -0.046493 0.88989
v -0.770355 -0.041734 -0.770355
v -0.770355 0.026326 -0.770355
v -0.053878 0.026326 -0.770355
v -0.053878 -0.041734 -0.770355
v -0.053878 -0.041734 0.770355
v -0.053878 0.026326 0.770355
v -0.770355 0.026326 0.770355
v -0.770355 -0.041734 0.770355
v 0.770355 -0.041734 0.770355
v 0.770355 0.026326 0.770355
v 0.053878 0.026326 0.770355
v 0.053878 -0.041734 0.770355
v 0.770355 -0.041734 -0.770355
v 0.770355 0.026326 -0.770355
v 0.770355 0.026326 -0.053878
v 0.770355 -0.041734 -0.053878
v -0.053878 -0.041734 0.053878
v -0.053878 0.026326 0.053878
v -0.053878 0.026326 0.770355
v -0.053878 -0.041734 0.770355
v -0.053878 -0.041734 -0.770355
v -0.053878 0.026326 -0.770355
v -0.053878 0.026326 -0.053878
v -0.053878 -0.041734 -0.053878
v 0.053878 -0.041734 0.770355
v 0.053878 0.026326 0.770355
v 0.053878 0.026326 0.053878
v 0.053878 -0.041734 0.053878
v 0.053878 -0.041734 -0.770355
v 0.053878 0.026326 -0.770355
v 0.770355 0.026326 -0.770355
v 0.770355 -0.041734 -0.770355
v -0.770355 -0.041734 0.053878
v -0.770355 0.026326 0.053878
v -0.053878 0.026326 0.053878
v -0.053878 -0.041734 0.053878
v -0.770355 -0.041734 -0.053878
v -0.770355 0.026326 -0.053878
v -0.770355 0.026326 -0.770355
v -0.770355 -0.041734 -0.770355
v 0.053878 -0.041734 0.053878
v 0.053878 0.026326 0.053878
v 0.770355 0.026326 0.053878
v 0.770355 -0.041734 0.053878
v 0.053878 -0.041734 -0.053878
v 0.053878 0.026326 -0.053878
v 0.053878 0.026326 -0.770355
v 0.053878 -0.041734 -0.770355
v -0.053878 -0.041734 -0.053878
v -0.053878 0.026326 -0.053878
v -0.770355 0.026326 -0.053878
v -0.770355 -0.041734 -0.053878
v 0.770355 -0.041734 -0.053878
v 0.770355 0.026326 -0.053878
v 0.053878 0.026326 -0.053878
v 0.053878 -0.041734 -0.053878
v -0.770355 -0.041734 0.770355
v -0.770355 0.026326 0.770355
v -0.770355 0.026326 0.053878
v -0.770355 -0.041734 0.053878
v -0.904394 -0.32185 0.828504
v -0.904394 0.062377 0.828504
v -0.904394 0.062377 0.954633
v -0.904394 -0.32185 0.954633
v -0.904394 0.062377 0.828504
v 0.904394 0.062377 0.828504
v 0.904394 0.062377 0.954633
v -0.904394 0.062377 0.954633
v 0.904394 0.062377 0.828504
v 0.904394 -0.32185 0.828504
v 0.904394 -0.32185 0.954633
v 0.904394 0.062377 0.954633
v 0.904394 -0.32185 0.828504
v -0.904394 -0.32185 0.828504
v -0.904394 -0.32185 0.954633
v 0.904394 -0.32185 0.954633
v -0.904394 0.062377 0.828504
v -0.904394 -0.32185 0.828504
v 0.904394 -0.32185 0.828504
v 0.904394 0.062377 0.828504
v 0.904394 0.062377 0.954633
v 0.904394 -0.32185 0.954633
v -0.904394 -0.32185 0.954633
v -0.904394 0.062377 0.954633
v 0.770355 -0.041734 -0.053878
v 0.88989 -0.046493 -0.88989
v 0.770355 -0.041734 -0.770355
v 0.88989 -0.046493 0
v 0 -0.046493 -0.88989
v 0.053878 -0.041734 -0.053878
v 0.053878 -0.041734 -0.770355
v 0 -0.041734 0
v 0.770355 -0.041734 0.053878
v 0.053878 -0.041734 0.053878
v 0.770355 -0.041734 0.770355
v 0.88989 -0.046493 0.88989
v 0.053878 -0.041734 0.770355
v 0 -0.046493 0.88989
v -0.053878 -0.041734 -0.053878
v -0.053878 -0.041734 -0.770355
v -0.88989 -0.046493 -0.88989
v -0.770355 -0.041734 -0.770355
v -0.88989 -0.046493 0
v -0.770355 -0.041734 -0.053878
v -0.053878 -0.041734 0.770355
v -0.770355 -0.041734 0.770355
v -0.053878 -0.041734 0.053878
v -0.88989 -0.046493 0.88989
v -0.770355 -0.041734 0.053878
v -0.053878 0.026326 0.053878
v -0.770355 0.026326 0.053878
v -0.770355 0.026326 0.770355
v -0.053878 0.026326 0.770355
v 0.770355 0.026326 0.053878
v 0.053878 0.026326 0.053878
v 0.053878 0.026326 0.770355
v 0.770355 0.026326 0.770355
v 0.770355 0.026326 -0.770355
v 0.053878 0.026326 -0.770355
v 0.053878 0.026326 -0.053878
v 0.770355 0.026326 -0.053878
v -0.053878 0.026326 -0.770355
v -0.770355 0.026326 -0.770355
v -0.770355 0.026326 -0.053878
v -0.053878 0.026326 -0.053878
vn -1 0 0
vn -1 0 0
vn -1 0 0
vn -1 0 0
vn -1 0 0
vn -1 0 0
vn 1 0 0
vn 1 0 0
vn 1 0 0
vn 1 0 0
vn 1 0 0
vn 1 0 0
vn -1 0 0
vn -1 0 0
vn -1 0 0
vn -1 0 0
vn 0 0 -1
vn 0 0 -1
vn 0 0 -1
vn 0 0 -1
vn 0 0 -1
vn 0 0 -1
vn 0 0 1
vn 0 0 1
vn 0 0 1
vn 0 0 1
vn 0 0 1
vn 0 0 1
vn 0 0 1
vn 0 0 1
vn 0 0 1
vn 0 0 1
vn 0 0 -1
vn 0 0 -1
vn 0 0 -1
vn 0 0 -1
vn 0 0 -1
vn 0 0 -1
vn 0 0 -1
vn 0 0 -1
vn -1 0 0
vn -1 0 0
vn -1 0 0
vn -1 0 0
vn -1 0 0
vn -1 0 0
vn -1 0 0
vn -1 0 0
vn -1 0 0
vn -1 0 0
vn -1 0 0
vn -1 0 0
vn 1 0 0
vn 1 0 0
vn 1 0 0
vn 1 0 0
vn 0 0 1
vn 0 0 1
vn 0 0 1
vn 0 0 1
vn 0 0 1
vn 0 0 1
vn 0 0 1
vn 0 0 1
vn 1 0 0
vn 1 0 0
vn 1 0 0
vn 1 0 0
vn 0 0 1
vn 0 0 1
vn 0 0 1
vn 0 0 1
vn 1 0 0
vn 1 0 0
vn 1 0 0
vn 1 0 0
vn 0 0 -1
vn 0 0 -1
vn 0 0 -1
vn 0 0 -1
vn 0 0 -1
vn 0 0 -1
vn 0 0 -1
vn 0 0 -1
vn 1 0 0
vn 1 0 0
vn 1 0 0
vn 1 0 0
vn -1 0 0
vn -1 0 0
vn -1 0 0
vn -1 0 0
vn 0 1 0
vn 0 1 0
vn 0 1 0
vn 0 1 0
vn 1 0 0
vn 1 0 0
vn 1 0 0
vn 1 0 0
vn 0 -1 0
vn 0 -1 0
vn 0 -1 0
vn 0 -1 0
vn 0 0 -1
vn 0 0 -1
vn 0 0 -1
vn 0 0 -1
vn 0 0 1
vn 0 0 1
vn 0 0 1
vn 0 0 1
vn -0.02578078 -0.9995378 -0.01610859
vn -0.01989843 -0.999604 0.01989843
vn -0.01989843 -0.999604 0.01989843
vn -0.03452647 -0.9994037 0
vn 0 -0.9994037 0.03452647
vn 0.01969081 -0.9996123 -0.01969081
vn 0.01610858 -0.9995378 0.02578078
vn 0 -1 0
vn -0.02578078 -0.9995378 0.01610859
vn 0.01969081 -0.9996123 0.01969081
vn -0.01989843 -0.999604 -0.01989843
vn -0.01989843 -0.999604 -0.01989843
vn 0.01610858 -0.9995378 -0.02578078
vn 0 -0.9994037 -0.03452647
vn -0.01969081 -0.9996123 -0.01969081
vn -0.01610858 -0.9995378 0.02578078
vn 0.01989843 -0.999604 0.01989843
vn 0.01989843 -0.999604 0.01989843
vn 0.03452647 -0.9994037 0
vn 0.02578078 -0.9995378 -0.01610859
vn -0.01610858 -0.9995378 -0.02578078
vn 0.01989843 -0.999604 -0.01989843
vn -0.01969081 -0.9996123 0.01969081
vn 0.01989843 -0.999604 -0.01989843
vn 0.02578078 -0.9995378 0.01610859
vn 0 -1 0
vn 0 -1 0
vn 0 -1 0
vn 0 -1 0
vn 0 -1 0
vn 0 -1 0
vn 0 -1 0
vn 0 -1 0
vn 0 -1 0
vn 0 -1 0
vn 0 -1 0
vn 0 -1 0
vn 0 -1 0
vn 0 -1 0
vn 0 -1 0
vn 0 -1 0
g Window2_0
f 3/3/3 2/2/2 1/1/1
f 2/2/2 4/4/4 1/1/1
f 1/1/1 4/4/4 5/5/5
f 4/4/4 6/6/6 5/5/5
f 9/9/9 8/8/8 7/7/7
f 8/8/8 10/10/10 7/7/7
f 7/7/7 10/10/10 11/11/11
f 10/10/10 12/12/12 11/11/11
f 15/15/15 14/14/14 13/13/13
f 16/16/16 15/15/15 13/13/13
f 19/19/19 18/18/18 17/17/17
f 18/18/18 20/20/20 17/17/17
f 17/17/17 20/20/20 21/21/21
f 20/20/20 22/22/22 21/21/21
f 25/25/25 24/24/24 23/23/23
f 24/24/24 26/26/26 23/23/23
f 23/23/23 26/26/26 27/27/27
f 26/26/26 28/28/28 27/27/27
f 31/31/31 30/30/30 29/29/29
f 32/32/32 31/31/31 29/29/29
f 35/35/35 34/34/34 33/33/33
f 36/36/36 35/35/35 33/33/33
f 39/39/39 38/38/38 37/37/37
f 40/40/40 39/39/39 37/37/37
f 43/43/43 42/42/42 41/41/41
f 44/44/44 43/43/43 41/41/41
f 47/47/47 46/46/46 45/45/45
f 48/48/48 47/47/47 45/45/45
f 51/51/51 50/50/50 49/49/49
f 52/52/52 51/51/51 49/49/49
f 55/55/55 54/54/54 53/53/53
f 56/56/56 55/55/55 53/53/53
f 59/59/59 58/58/58 57/57/57
f 60/60/60 59/59/59 57/57/57
f 63/63/63 62/62/62 61/61/61
f 64/64/64 63/63/63 61/61/61
f 67/67/67 66/66/66 65/65/65
f 68/68/68 67/67/67 65/65/65
f 71/71/71 70/70/70 69/69/69
f 72/72/72 71/71/71 69/69/69
f 75/75/75 74/74/74 73/73/73
f 76/76/76 75/75/75 73/73/73
f 79/79/79 78/78/78 77/77/77
f 80/80/80 79/79/79 77/77/77
f 83/83/83 82/82/82 81/81/81
f 84/84/84 83/83/83 81/81/81
f 87/87/87 86/86/86 85/85/85
f 88/88/88 87/87/87 85/85/85
f 91/91/91 90/90/90 89/89/89
f 92/92/92 91/91/91 89/89/89
f 95/95/95 94/94/94 93/93/93
f 96/96/96 95/95/95 93/93/93
f 99/99/99 98/98/98 97/97/97
f 100/100/100 99/99/99 97/97/97
f 103/103/103 102/102/102 101/101/101
f 104/104/104 103/103/103 101/101/101
f 107/107/107 106/106/106 105/105/105
f 108/108/108 107/107/107 105/105/105
f 111/111/111 110/110/110 109/109/109
f 112/112/112 111/111/111 109/109/109
f 115/115/115 114/114/114 113/113/113
f 114/114/114 116/116/116 113/113/113
f 117/117/117 114/114/114 115/115/115
f 113/113/113 116/116/116 118/118/118
f 119/119/119 117/117/117 115/115/115
f 118/118/118 120/120/120 119/119/119
f 116/116/116 120/120/120 118/118/118
f 120/120/120 117/117/117 119/119/119
f 120/120/120 116/116/116 121/121/121
f 122/122/122 120/120/120 121/121/121
f 121/121/121 116/116/116 123/123/123
f 116/116/116 124/124/124 123/123/123
f 123/123/123 124/124/124 125/125/125
f 124/124/124 126/126/126 125/125/125
f 125/125/125 126/126/126 122/122/122
f 126/126/126 120/120/120 122/122/122
f 117/117/117 120/120/120 127/127/127
f 128/128/128 117/117/117 127/127/127
f 129/129/129 117/117/117 128/128/128
f 130/130/130 129/129/129 128/128/128
f 131/131/131 129/129/129 130/130/130
f 127/127/127 120/120/120 132/132/132
f 132/132/132 131/131/131 130/130/130
f 120/120/120 131/131/131 132/132/132
f 120/120/120 126/126/126 133/133/133
f 133/133/133 126/126/126 134/134/134
f 135/135/135 120/120/120 133/133/133
f 131/131/131 120/120/120 135/135/135
f 126/126/126 136/136/136 134/134/134
f 137/137/137 131/131/131 135/135/135
f 134/134/134 136/136/136 137/137/137
f 136/136/136 131/131/131 137/137/137
g Window2_1
f 140/140/140 139/139/139 138/138/138
f 141/141/141 140/140/140 138/138/138
f 144/144/144 143/143/143 142/142/142
f 145/145/145 144/144/144 142/142/142
f 148/148/148 147/147/147 146/146/146
f 149/149/149 148/148/148 146/146/146
f 152/152/152 151/151/151 150/150/150
f 153/153/153 152/152/152 150/150/150
