g WombatEyes
v 0.445913 -2.026086 1.472626
v 0.318315 -2.071183 1.486977
v 0.350215 -2.007819 1.588589
v 0.445913 -1.943862 1.612892
v 0.350215 -2.104929 1.37819
v 0.541611 -1.866028 1.567062
v 0.445913 -2.070922 1.33236
v 0.57351 -1.913229 1.458274
v 0.541611 -1.989365 1.356663
v -0.445913 -2.026086 1.472626
v -0.350215 -2.007819 1.588589
v -0.318315 -2.071183 1.486977
v -0.445913 -1.943862 1.612892
v -0.350215 -2.104929 1.37819
v -0.541611 -1.866027 1.567062
v -0.445913 -2.070922 1.33236
v -0.57351 -1.913229 1.458274
v -0.541611 -1.989365 1.356663
vt 0.5 0.5
vt 0 0.5
vt 0.125 0.875
vt 0.5 1
vt 0.125 0.125
vt 0.875 0.875
vt 0.5 0
vt 1 0.5
vt 0.875 0.125
vt 0.5 0.5
vt 0.875 0.875
vt 1 0.5
vt 0.5 1
vt 0.875 0.125
vt 0.125 0.875
vt 0.5 0
vt 0 0.5
vt 0.125 0.125
vn 0.5263228 -0.7665078 0.3680353
vn 0.3858761 -0.8397529 0.381988
vn 0.3780941 -0.8143575 0.4403029
vn 0.563046 -0.7068256 0.4282251
vn 0.3920737 -0.8617 0.3221047
vn 0.6531899 -0.6344187 0.4133474
vn 0.5178406 -0.799561 0.3042094
vn 0.6439506 -0.6716599 0.3663341
vn 0.6226453 -0.7296168 0.2827937
vn -0.5263234 -0.7665072 0.3680357
vn -0.378094 -0.8143576 0.4403029
vn -0.3858761 -0.8397529 0.381988
vn -0.5630473 -0.706824 0.428226
vn -0.3920737 -0.8617 0.3221047
vn -0.6531911 -0.6344163 0.4133487
vn -0.5178406 -0.799561 0.3042094
vn -0.6439515 -0.6716583 0.3663353
vn -0.6226454 -0.7296166 0.2827937
g WombatEyes_0
f 3/3/3 2/2/2 1/1/1
f 4/4/4 3/3/3 1/1/1
f 2/2/2 5/5/5 1/1/1
f 6/6/6 4/4/4 1/1/1
f 5/5/5 7/7/7 1/1/1
f 8/8/8 6/6/6 1/1/1
f 7/7/7 9/9/9 1/1/1
f 9/9/9 8/8/8 1/1/1
f 12/12/12 11/11/11 10/10/10
f 11/11/11 13/13/13 10/10/10
f 14/14/14 12/12/12 10/10/10
f 13/13/13 15/15/15 10/10/10
f 16/16/16 14/14/14 10/10/10
f 15/15/15 17/17/17 10/10/10
f 18/18/18 16/16/16 10/10/10
f 17/17/17 18/18/18 10/10/10
