g AnimalShopSideWindows
v 0.592635 -0.06858 0.711832
v 0.608051 -0.068519 -0.700578
v 0.608051 0.05629 -0.700578
v 0.592635 0.05635 0.711832
v 0.784035 -0.06858 0.711832
v 0.768627 -0.068519 -0.700578
v 0.608051 -0.068519 -0.700578
v 0.592635 -0.06858 0.711832
v 0.784035 0.05635 0.711832
v 0.768627 0.05629 -0.700578
v 0.768627 -0.068519 -0.700578
v 0.784035 -0.06858 0.711832
v 0.592635 0.05635 0.711832
v 0.608051 0.05629 -0.700578
v 0.768627 0.05629 -0.700578
v 0.784035 0.05635 0.711832
v -0.864246 0.098966 0.829802
v 0.844712 0.085051 0.82974
v 0.844829 -0.072787 0.825306
v -0.864128 -0.08677 0.825306
v -0.864246 0.098966 0.67974
v 0.844712 0.085051 0.679803
v 0.844712 0.085051 0.82974
v -0.864246 0.098966 0.829802
v -0.864128 -0.08677 0.684236
v 0.844829 -0.072787 0.684236
v 0.844712 0.085051 0.679803
v -0.864246 0.098966 0.67974
v -0.786498 -0.068579 0.711832
v -0.771083 -0.068519 -0.700578
v -0.771083 0.05629 -0.700578
v -0.786498 0.05635 0.711832
v -0.5951 -0.068579 0.711832
v -0.610507 -0.068519 -0.700578
v -0.771083 -0.068519 -0.700578
v -0.786498 -0.068579 0.711832
v -0.595099 0.05635 0.711832
v -0.610507 0.05629 -0.700578
v -0.610507 -0.068519 -0.700578
v -0.5951 -0.068579 0.711832
v -0.786498 0.05635 0.711832
v -0.771083 0.05629 -0.700578
v -0.610507 0.05629 -0.700578
v -0.595099 0.05635 0.711832
v -0.842249 -0.08677 -0.754263
v 0.866708 -0.072787 -0.754263
v 0.86659 0.085051 -0.758697
v -0.842367 0.098966 -0.75876
v -0.842367 0.098966 -0.75876
v 0.86659 0.085051 -0.758697
v 0.86659 0.085051 -0.60876
v -0.842367 0.098966 -0.608697
v -0.842367 0.098966 -0.608697
v 0.86659 0.085051 -0.60876
v 0.866708 -0.072787 -0.613193
v -0.842249 -0.08677 -0.613193
v 0.866708 -0.072787 -0.613193
v 0.866708 -0.072787 -0.754263
v -0.842249 -0.08677 -0.754263
v -0.842249 -0.08677 -0.613193
v -0.864128 -0.08677 0.684236
v -0.864128 -0.08677 0.825306
v 0.844829 -0.072787 0.825306
v 0.844829 -0.072787 0.684236
v -0.864246 0.098966 0.829802
v -0.864128 -0.08677 0.825306
v -0.864128 -0.08677 0.684236
v -0.864246 0.098966 0.67974
v -0.842249 -0.08677 -0.613193
v -0.842249 -0.08677 -0.754263
v -0.842367 0.098966 -0.75876
v -0.842367 0.098966 -0.608697
v 0.866708 -0.072787 -0.613193
v 0.86659 0.085051 -0.60876
v 0.86659 0.085051 -0.758697
v 0.866708 -0.072787 -0.754263
v 0.844712 0.085051 0.82974
v 0.844712 0.085051 0.679803
v 0.844829 -0.072787 0.684236
v 0.844829 -0.072787 0.825306
v -0.593796 0 -0.701795
v 0.593796 0 -0.701213
v 0.593796 0 0.694038
v -0.593796 0 0.694621
vt 0.987927 0.458736
vt 0.007284 0.458737
vt 0.007284 0.521718
vt 0.987927 0.521719
vt 0.999985 0.458713
vt 1.5E-05 0.463143
vt 1.5E-05 0.517184
vt 0.999985 0.521673
vt 0.999979 0.45658
vt 2.1E-05 0.456581
vt 2.1E-05 0.520678
vt 0.999979 0.520678
vt 0.999985 0.458713
vt 1.5E-05 0.46317
vt 1.5E-05 0.517212
vt 0.999985 0.521673
vt 0.864876 0.458713
vt 0.009698 0.463143
vt 0.009697 0.517184
vt 0.864876 0.521673
vt 0.864871 0.45658
vt 0.009702 0.456581
vt 0.009702 0.520678
vt 0.864871 0.520678
vt 0.864876 0.458713
vt 0.009697 0.46317
vt 0.009697 0.517212
vt 0.864876 0.521673
vt 0.987927 0.458736
vt 0.007284 0.458737
vt 0.007284 0.521718
vt 0.987927 0.521719
vt 0.999985 0.458713
vt 1.5E-05 0.463143
vt 1.5E-05 0.517184
vt 0.999985 0.521673
vt 0.999979 0.45658
vt 2.1E-05 0.456581
vt 2.1E-05 0.520678
vt 0.999979 0.520678
vt 0.999985 0.458713
vt 1.5E-05 0.46317
vt 1.5E-05 0.517212
vt 0.999985 0.521673
vt 0.864876 0.458713
vt 0.009697 0.46317
vt 0.009697 0.517212
vt 0.864876 0.521673
vt 0.864871 0.45658
vt 0.009702 0.456581
vt 0.009702 0.520678
vt 0.864871 0.520678
vt 0.864876 0.458713
vt 0.009698 0.463143
vt 0.009697 0.517184
vt 0.864876 0.521673
vt 0.999936 0.523202
vt 0.999936 0.457933
vt 6.4E-05 0.457933
vt 6.4E-05 0.523201
vt 6.4E-05 0.458106
vt 6.4E-05 0.523375
vt 0.999936 0.523375
vt 0.999936 0.458106
vt 0.864876 0.458713
vt 0.864876 0.521673
vt 6.4E-05 0.458106
vt 0.864876 0.521673
vt 6.4E-05 0.523201
vt 6.4E-05 0.457933
vt 0.864876 0.521673
vt 0.864871 0.520678
vt 0.009697 0.517184
vt 0.009698 0.463143
vt 0.009702 0.456581
vt 0.009697 0.46317
vt 0.009698 0.463143
vt 0.009697 0.517212
vt 0.999936 0.458106
vt 0.009697 0.517184
vt 0.558498 0.295545
vt 0.234321 0.295715
vt 0.234321 0.704285
vt 0.558498 0.704455
vn -0.9999405 0 -0.01091405
vn -0.9999405 0 -0.01091405
vn -0.9999405 0 -0.01091405
vn -0.9999405 0 -0.01091405
vn 0 -1 -4.31871E-05
vn 0 -1 -4.31871E-05
vn 0 -1 -4.31871E-05
vn 0 -1 -4.31871E-05
vn 0.9999405 0 -0.01090839
vn 0.9999405 0 -0.01090839
vn 0.9999405 0 -0.01090839
vn 0.9999405 0 -0.01090839
vn 0 1 -4.248025E-05
vn 0 1 -4.248025E-05
vn 0 1 -4.248025E-05
vn 0 1 -4.248025E-05
vn 1.864725E-05 -0.02598261 0.9996624
vn 1.864725E-05 -0.02598261 0.9996624
vn 0.005140859 -0.646391 0.762989
vn 0.005140859 -0.646391 0.762989
vn 0.00814212 0.9999669 0
vn 0.00814212 0.9999669 0
vn 0.00814212 0.9999669 0
vn 0.00814212 0.9999669 0
vn 0.005141092 -0.6463897 -0.7629901
vn 0.005141092 -0.6463897 -0.7629901
vn 1.894367E-05 -0.02597966 -0.9996624
vn 1.894367E-05 -0.02597966 -0.9996624
vn -0.9999405 0 -0.01091333
vn -0.9999405 0 -0.01091333
vn -0.9999405 0 -0.01091333
vn -0.9999405 0 -0.01091333
vn 0 -1 -4.248025E-05
vn 0 -1 -4.248025E-05
vn 0 -1 -4.248025E-05
vn 0 -1 -4.248025E-05
vn 0.9999405 0 -0.01090803
vn 0.9999405 0 -0.01090803
vn 0.9999405 0 -0.01090803
vn 0.9999405 0 -0.01090803
vn 0 1 -4.248025E-05
vn 0 1 -4.248025E-05
vn 0 1 -4.248025E-05
vn 0 1 -4.248025E-05
vn 0.005141079 -0.6463925 -0.7629879
vn 0.005141079 -0.6463925 -0.7629879
vn 1.894367E-05 -0.02598556 -0.9996623
vn 1.894367E-05 -0.02598556 -0.9996623
vn 0.008142126 0.9999669 0
vn 0.008142126 0.9999669 0
vn 0.008142126 0.9999669 0
vn 0.008142126 0.9999669 0
vn 1.894353E-05 -0.02597966 0.9996624
vn 1.894353E-05 -0.02597966 0.9996624
vn 0.005141094 -0.6463898 0.7629901
vn 0.005141094 -0.6463898 0.7629901
vn 0.005141094 -0.6463898 0.7629901
vn 0.005141079 -0.6463925 -0.7629879
vn 0.005141079 -0.6463925 -0.7629879
vn 0.005141094 -0.6463898 0.7629901
vn 0.005141092 -0.6463897 -0.7629901
vn 0.005140859 -0.646391 0.762989
vn 0.005140859 -0.646391 0.762989
vn 0.005141092 -0.6463897 -0.7629901
vn -0.9999999 -0.0006354029 0
vn -0.9999999 -0.0006354029 0
vn -0.9999999 -0.0006354029 0
vn -0.9999999 -0.0006354029 0
vn -0.9999999 -0.0006354029 0
vn -0.9999999 -0.0006354029 0
vn -0.9999999 -0.0006354029 0
vn -0.9999999 -0.0006354029 0
vn 0.9999998 0.000747333 0
vn 0.9999998 0.000747333 0
vn 0.9999998 0.000747333 0
vn 0.9999998 0.000747333 0
vn 0.9999998 0.000741291 0
vn 0.9999998 0.000741291 0
vn 0.9999998 0.000741291 0
vn 0.9999998 0.000741291 0
vn 0 1 0
vn 0 1 0
vn 0 1 0
vn 0 1 0
g AnimalShopSideWindows_0
f 3/3/3 2/2/2 1/1/1
f 4/4/4 3/3/3 1/1/1
f 7/7/7 6/6/6 5/5/5
f 8/8/8 7/7/7 5/5/5
f 11/11/11 10/10/10 9/9/9
f 12/12/12 11/11/11 9/9/9
f 15/15/15 14/14/14 13/13/13
f 16/16/16 15/15/15 13/13/13
f 19/19/19 18/18/18 17/17/17
f 20/20/20 19/19/19 17/17/17
f 23/23/23 22/22/22 21/21/21
f 24/24/24 23/23/23 21/21/21
f 27/27/27 26/26/26 25/25/25
f 28/28/28 27/27/27 25/25/25
f 31/31/31 30/30/30 29/29/29
f 32/32/32 31/31/31 29/29/29
f 35/35/35 34/34/34 33/33/33
f 36/36/36 35/35/35 33/33/33
f 39/39/39 38/38/38 37/37/37
f 40/40/40 39/39/39 37/37/37
f 43/43/43 42/42/42 41/41/41
f 44/44/44 43/43/43 41/41/41
f 47/47/47 46/46/46 45/45/45
f 48/48/48 47/47/47 45/45/45
f 51/51/51 50/50/50 49/49/49
f 52/52/52 51/51/51 49/49/49
f 55/55/55 54/54/54 53/53/53
f 56/56/56 55/55/55 53/53/53
f 59/59/59 58/58/58 57/57/57
f 60/60/60 59/59/59 57/57/57
f 63/63/63 62/62/62 61/61/61
f 64/64/64 63/63/63 61/61/61
f 67/67/67 66/66/66 65/65/65
f 68/68/68 67/67/67 65/65/65
f 71/71/71 70/70/70 69/69/69
f 72/72/72 71/71/71 69/69/69
f 75/75/75 74/74/74 73/73/73
f 76/76/76 75/75/75 73/73/73
f 79/79/79 78/78/78 77/77/77
f 80/80/80 79/79/79 77/77/77
g AnimalShopSideWindows_1
f 83/83/83 82/82/82 81/81/81
f 84/84/84 83/83/83 81/81/81
