g AnimalShopFakeInterior
v -3.527558 -0.200185 0
v -3.527558 2.003546 0
v -0.658103 2.003546 0
v -0.658103 -0.200185 0
v 0 2.003546 0
v -3.527558 -1.357081 0
v 0 -0.200185 0
v -0.658103 -1.357081 0
v -3.527558 -3.560812 0
v 0 -1.357081 0
v -0.658103 -3.560812 0
v 0 -3.560812 0
v 3.527558 -0.200185 0
v 0.658103 2.003546 0
v 3.527558 2.003546 0
v 0.658103 -0.200185 0
v 0 2.003546 0
v 3.527558 -1.357081 0
v 0 -0.200185 0
v 0.658103 -1.357081 0
v 3.527558 -3.560812 0
v 0 -1.357081 0
v 0.658103 -3.560812 0
v 0 -3.560812 0
v 0 -3.560812 2.167895
v 0 -3.560812 3.165151
v -0.658103 -3.560812 3.165151
v -0.658103 -3.560812 2.167895
v 0 -3.560812 0
v -3.527558 -3.560812 3.165151
v -0.658103 -3.560812 0
v -3.527558 -3.560812 2.167895
v -3.527558 -3.560812 0
v -3.527558 -3.560812 2.167895
v -3.527558 -3.560812 3.165151
v -3.527558 -1.357081 3.165151
v -3.527558 -1.357081 2.167895
v -3.527558 -3.560812 0
v -3.527558 -0.200185 3.165151
v -3.527558 -1.357081 0
v -3.527558 -0.200185 2.167895
v -3.527558 2.003546 3.165151
v -3.527558 -0.200185 0
v -3.527558 2.003546 2.167895
v -3.527558 2.003546 0
v -0.453634 2.003546 3.131493
v 0 2.003546 3.165151
v 0 2.003546 3.131493
v -0.658103 2.003546 3.165151
v -0.453634 2.003546 2.16789
v -0.658103 2.003546 2.16789
v -0.453634 2.003546 -0.067329
v -0.658103 2.003546 0
v -3.527558 2.003546 2.167895
v -3.527558 2.003546 3.165151
v -3.527558 2.003546 0
v 0 -3.560812 2.167895
v 0.658103 -3.560812 3.165151
v 0 -3.560812 3.165151
v 0.658103 -3.560812 2.167895
v 0 -3.560812 0
v 3.527558 -3.560812 3.165151
v 0.658103 -3.560812 0
v 3.527558 -3.560812 2.167895
v 3.527558 -3.560812 0
v 3.527558 -3.560812 2.167895
v 3.527558 -1.357081 3.165151
v 3.527558 -3.560812 3.165151
v 3.527558 -1.357081 2.167895
v 3.527558 -3.560812 0
v 3.527558 -0.200185 3.165151
v 3.527558 -1.357081 0
v 3.527558 -0.200185 2.167895
v 3.527558 2.003546 3.165151
v 3.527558 -0.200185 0
v 3.527558 2.003546 2.167895
v 3.527558 2.003546 0
v 0.453634 2.003546 3.131493
v 0 2.003546 3.131493
v 0 2.003546 3.165151
v 0.658103 2.003546 3.165151
v 0.453634 2.003546 2.16789
v 0.658103 2.003546 2.16789
v 0.453634 2.003546 -0.067329
v 0.658103 2.003546 0
v 3.527558 2.003546 2.167895
v 3.527558 2.003546 3.165151
v 3.527558 2.003546 0
vt 7.5E-05 0.525816
vt 7.5E-05 0.870571
vt 0.448474 0.870571
vt 0.448474 0.525816
vt 0.558212 0.870571
vt 7.5E-05 0.34483
vt 0.558212 0.525816
vt 0.448474 0.34483
vt 7.5E-05 7.5E-05
vt 0.558212 0.34483
vt 0.448474 7.5E-05
vt 0.558212 7.5E-05
vt 7.5E-05 0.525816
vt 0.448474 0.870571
vt 7.5E-05 0.870571
vt 0.448474 0.525816
vt 0.558212 0.870571
vt 7.5E-05 0.34483
vt 0.558212 0.525816
vt 0.448474 0.34483
vt 7.5E-05 7.5E-05
vt 0.558212 0.34483
vt 0.448474 7.5E-05
vt 0.558212 7.5E-05
vt 0.76867 0.762317
vt 0.76867 0.534881
vt 0.618699 0.534881
vt 0.618699 0.762318
vt 0.76867 0.989754
vt 0.005904 0.534881
vt 0.618699 0.989754
vt 0.005904 0.762318
vt 0.005904 0.989754
vt 5.7E-05 0.762666
vt 5.7E-05 0.993236
vt 0.396056 0.993236
vt 0.396056 0.762666
vt 5.7E-05 0.532097
vt 0.603944 0.993236
vt 0.396056 0.532097
vt 0.603944 0.762666
vt 0.999943 0.993236
vt 0.603944 0.532097
vt 0.999943 0.762666
vt 0.999943 0.532096
vt 0.654209 0.864426
vt 0.767843 0.99077
vt 0.767843 0.864426
vt 0.617872 0.99077
vt 0.654209 0.763333
vt 0.617872 0.763333
vt 0.654209 0.528834
vt 0.617872 0.535898
vt 0.005078 0.763334
vt 0.005078 0.99077
vt 0.005078 0.535898
vt 0.76867 0.762317
vt 0.618699 0.534881
vt 0.76867 0.534881
vt 0.618699 0.762318
vt 0.76867 0.989754
vt 0.005904 0.534881
vt 0.618699 0.989754
vt 0.005904 0.762318
vt 0.005904 0.989754
vt 5.7E-05 0.762666
vt 0.396056 0.993236
vt 5.7E-05 0.993236
vt 0.396056 0.762666
vt 5.7E-05 0.532097
vt 0.603944 0.993236
vt 0.396056 0.532097
vt 0.603944 0.762666
vt 0.999943 0.993236
vt 0.603944 0.532097
vt 0.999943 0.762666
vt 0.999943 0.532096
vt 0.654209 0.864426
vt 0.767843 0.864426
vt 0.767843 0.99077
vt 0.617872 0.99077
vt 0.654209 0.763333
vt 0.617872 0.763333
vt 0.654209 0.528834
vt 0.617872 0.535898
vt 0.005078 0.763334
vt 0.005078 0.99077
vt 0.005078 0.535898
vn 0 0 1
vn 0 0 1
vn 0 0 1
vn 0 0 1
vn 0 0 1
vn 0 0 1
vn 0 0 1
vn 0 0 1
vn 0 0 1
vn 0 0 1
vn 0 0 1
vn 0 0 1
vn 0 0 1
vn 0 0 1
vn 0 0 1
vn 0 0 1
vn 0 0 1
vn 0 0 1
vn 0 0 1
vn 0 0 1
vn 0 0 1
vn 0 0 1
vn 0 0 1
vn 0 0 1
vn 0 1 0
vn 0 1 0
vn 0 1 0
vn 0 1 0
vn 0 1 0
vn 0 1 0
vn 0 1 0
vn 0 1 0
vn 0 1 0
vn 1 0 0
vn 1 0 0
vn 1 0 0
vn 1 0 0
vn 1 0 0
vn 1 0 0
vn 1 0 0
vn 1 0 0
vn 1 0 0
vn 1 0 0
vn 1 0 0
vn 1 0 0
vn 0 -1 0
vn 0 -1 0
vn 0 -1 0
vn 0 -1 0
vn 0 -1 0
vn 0 -1 0
vn 0 -1 0
vn 0 -1 0
vn 0 -1 0
vn 0 -1 0
vn 0 -1 0
vn 0 1 0
vn 0 1 0
vn 0 1 0
vn 0 1 0
vn 0 1 0
vn 0 1 0
vn 0 1 0
vn 0 1 0
vn 0 1 0
vn -1 0 0
vn -1 0 0
vn -1 0 0
vn -1 0 0
vn -1 0 0
vn -1 0 0
vn -1 0 0
vn -1 0 0
vn -1 0 0
vn -1 0 0
vn -1 0 0
vn -1 0 0
vn 0 -1 0
vn 0 -1 0
vn 0 -1 0
vn 0 -1 0
vn 0 -1 0
vn 0 -1 0
vn 0 -1 0
vn 0 -1 0
vn 0 -1 0
vn 0 -1 0
vn 0 -1 0
g AnimalShopFakeInterior_0
f 3/3/3 2/2/2 1/1/1
f 4/4/4 3/3/3 1/1/1
f 5/5/5 3/3/3 4/4/4
f 4/4/4 1/1/1 6/6/6
f 7/7/7 5/5/5 4/4/4
f 8/8/8 4/4/4 6/6/6
f 7/7/7 4/4/4 8/8/8
f 8/8/8 6/6/6 9/9/9
f 10/10/10 7/7/7 8/8/8
f 11/11/11 8/8/8 9/9/9
f 10/10/10 8/8/8 11/11/11
f 12/12/12 10/10/10 11/11/11
f 15/15/15 14/14/14 13/13/13
f 14/14/14 16/16/16 13/13/13
f 14/14/14 17/17/17 16/16/16
f 13/13/13 16/16/16 18/18/18
f 17/17/17 19/19/19 16/16/16
f 16/16/16 20/20/20 18/18/18
f 16/16/16 19/19/19 20/20/20
f 18/18/18 20/20/20 21/21/21
f 19/19/19 22/22/22 20/20/20
f 20/20/20 23/23/23 21/21/21
f 20/20/20 22/22/22 23/23/23
f 22/22/22 24/24/24 23/23/23
g AnimalShopFakeInterior_1
f 27/27/27 26/26/26 25/25/25
f 28/28/28 27/27/27 25/25/25
f 28/28/28 25/25/25 29/29/29
f 30/30/30 27/27/27 28/28/28
f 31/31/31 28/28/28 29/29/29
f 32/32/32 30/30/30 28/28/28
f 32/32/32 28/28/28 31/31/31
f 33/33/33 32/32/32 31/31/31
f 36/36/36 35/35/35 34/34/34
f 37/37/37 36/36/36 34/34/34
f 37/37/37 34/34/34 38/38/38
f 39/39/39 36/36/36 37/37/37
f 40/40/40 37/37/37 38/38/38
f 41/41/41 39/39/39 37/37/37
f 41/41/41 37/37/37 40/40/40
f 42/42/42 39/39/39 41/41/41
f 43/43/43 41/41/41 40/40/40
f 44/44/44 42/42/42 41/41/41
f 44/44/44 41/41/41 43/43/43
f 45/45/45 44/44/44 43/43/43
f 48/48/48 47/47/47 46/46/46
f 47/47/47 49/49/49 46/46/46
f 46/46/46 49/49/49 50/50/50
f 49/49/49 51/51/51 50/50/50
f 50/50/50 51/51/51 52/52/52
f 51/51/51 53/53/53 52/52/52
f 51/51/51 49/49/49 54/54/54
f 51/51/51 54/54/54 53/53/53
f 49/49/49 55/55/55 54/54/54
f 54/54/54 56/56/56 53/53/53
f 59/59/59 58/58/58 57/57/57
f 58/58/58 60/60/60 57/57/57
f 57/57/57 60/60/60 61/61/61
f 58/58/58 62/62/62 60/60/60
f 60/60/60 63/63/63 61/61/61
f 62/62/62 64/64/64 60/60/60
f 60/60/60 64/64/64 63/63/63
f 64/64/64 65/65/65 63/63/63
f 68/68/68 67/67/67 66/66/66
f 67/67/67 69/69/69 66/66/66
f 66/66/66 69/69/69 70/70/70
f 67/67/67 71/71/71 69/69/69
f 69/69/69 72/72/72 70/70/70
f 71/71/71 73/73/73 69/69/69
f 69/69/69 73/73/73 72/72/72
f 71/71/71 74/74/74 73/73/73
f 73/73/73 75/75/75 72/72/72
f 74/74/74 76/76/76 73/73/73
f 73/73/73 76/76/76 75/75/75
f 76/76/76 77/77/77 75/75/75
f 80/80/80 79/79/79 78/78/78
f 81/81/81 80/80/80 78/78/78
f 81/81/81 78/78/78 82/82/82
f 83/83/83 81/81/81 82/82/82
f 83/83/83 82/82/82 84/84/84
f 85/85/85 83/83/83 84/84/84
f 81/81/81 83/83/83 86/86/86
f 86/86/86 83/83/83 85/85/85
f 87/87/87 81/81/81 86/86/86
f 88/88/88 86/86/86 85/85/85
