g BackNoSideBoth
v 1 0.75 0
v 0.75 1 0
v 1 1 -0.25
v -1 1 -0.25
v -0.75 1 0
v -1 0.75 0
v 0.8 -1 0
v 1 0.75 0
v 1 -1 0
v 0.8 0.8 0
v -0.798818 -1 0
v 0.75 1 0
v -0.8 0.8 0
v -1 -1 0
v -0.75 1 0
v -1 0.75 0
vt 0 0.125
vt 0.125 0
vt 0 0
vt 1 0
vt 0.875 0
vt 1 0.125
vt 0.1 1
vt 0 0.125
vt 0 1
vt 0.1 0.1
vt 0.899409 1
vt 0.125 0
vt 0.9 0.1
vt 1 1
vt 0.875 0
vt 1 0.125
vn 0.5773503 0.5773503 0.5773503
vn 0.5773503 0.5773503 0.5773503
vn 0.5773503 0.5773503 0.5773503
vn -0.5773503 0.5773503 0.5773503
vn -0.5773503 0.5773503 0.5773503
vn -0.5773503 0.5773503 0.5773503
vn 0 0 1
vn 0 0 1
vn 0 0 1
vn 0 0 1
vn 0 0 1
vn 0 0 1
vn 0 0 1
vn 0 0 1
vn 0 0 1
vn 0 0 1
g BackNoSideBoth_0
f 3/3/3 2/2/2 1/1/1
f 6/6/6 5/5/5 4/4/4
f 9/9/9 8/8/8 7/7/7
f 8/8/8 10/10/10 7/7/7
f 7/7/7 10/10/10 11/11/11
f 8/8/8 12/12/12 10/10/10
f 10/10/10 13/13/13 11/11/11
f 10/10/10 12/12/12 13/13/13
f 11/11/11 13/13/13 14/14/14
f 12/12/12 15/15/15 13/13/13
f 13/13/13 16/16/16 14/14/14
f 13/13/13 15/15/15 16/16/16
