g BarnDoor
v -0.909091 0 2.989754
v 0 0 2.989754
v 0.909091 0 2.989754
v 0 0.140784 0.08677
v -0.822321 0.140784 1.494877
v -0.822321 0.140784 0.08677
v 0 0.140784 1.494877
v 0.822321 0.140784 0.08677
v -0.822321 0.140784 2.902983
v 0.822321 0.140784 1.494877
v 0 0.140784 2.902983
v 0.822321 0.140784 2.902983
v -0.824349 0.166245 2.91951
v -0.681759 0.166245 2.91951
v -0.681759 0.140784 2.91951
v -0.824349 0.12237 2.91951
v 0.676171 0.166245 0.062061
v 0.676171 0.12237 0.062061
v 0.818761 0.140784 0.062061
v 0.818761 0.166245 0.062061
v 0.909091 0 1.494877
v 0.909091 0 0
v 0 0 0
v -0.909091 0 0
v -0.909091 0 1.494877
v 0.909091 0 2.989754
v -0.909091 0 2.989754
v -0.71095 0.211083 1.444554
v -0.71095 0.328159 1.444554
v -0.791521 0.269621 1.383003
v -0.822296 0.174904 1.444554
v -0.891114 0.269621 1.444554
v -0.760747 0.174904 1.544147
v -0.791521 0.269621 1.383003
v -0.822296 0.364338 1.444554
v -0.891114 0.269621 1.444554
v -0.71095 0.328159 1.444554
v -0.71095 0.211083 1.444554
v -0.691929 0.269621 1.544147
v -0.71095 0.328159 1.444554
v -0.760747 0.174904 1.544147
v -0.891114 0.269621 1.444554
v -0.872092 0.211083 1.544147
v -0.822296 0.174904 1.444554
v -0.760747 0.174904 1.544147
v -0.822296 0.364338 1.444554
v -0.872092 0.328159 1.544147
v -0.891114 0.269621 1.444554
v -0.872092 0.211083 1.544147
v -0.71095 0.328159 1.444554
v -0.760747 0.364338 1.544147
v -0.822296 0.364338 1.444554
v -0.691929 0.269621 1.544147
v -0.822296 0.364338 1.444554
v -0.760747 0.364338 1.544147
v -0.872092 0.328159 1.544147
v -0.791521 0.269621 1.605699
v -0.691929 0.269621 1.544147
v -0.872092 0.211083 1.544147
v -0.760747 0.174904 1.544147
v -0.791521 0.269621 1.605699
v -0.691929 0.269621 1.544147
v -0.872092 0.211083 1.544147
v -0.767565 0.125706 1.472949
v -0.767565 0.227844 1.472949
v -0.819396 0.227844 1.472949
v -0.819396 0.125706 1.472949
v -0.767565 0.125706 1.527051
v -0.767565 0.227844 1.527051
v -0.767565 0.227844 1.472949
v -0.767565 0.125706 1.472949
v -0.819396 0.125706 1.527051
v -0.819396 0.227844 1.527051
v -0.767565 0.227844 1.527051
v -0.767565 0.125706 1.527051
v -0.819396 0.125706 1.472949
v -0.819396 0.227844 1.472949
v -0.819396 0.227844 1.527051
v -0.819396 0.125706 1.527051
v 0.822321 0.193701 1.494877
v 0.822321 0.140784 0.08677
v 0.822321 0.193701 0.08677
v 0.822321 0.140784 1.494877
v 0.822321 0.193701 2.902983
v 0.822321 0.140784 2.902983
v 0.822321 0.193701 0.08677
v 0.822321 0.140784 0.08677
v 0 0.140784 0.08677
v 0 0.193701 0.08677
v -0.822321 0.140784 0.08677
v -0.822321 0.193701 0.08677
v -0.822321 0.193701 2.902983
v -0.822321 0.140784 2.902983
v 0 0.140784 2.902983
v 0 0.193701 2.902983
v 0.822321 0.140784 2.902983
v 0.822321 0.193701 2.902983
v -0.822321 0.193701 0.08677
v -0.822321 0.140784 0.08677
v -0.822321 0.140784 1.494877
v -0.822321 0.193701 1.494877
v -0.822321 0.140784 2.902983
v -0.822321 0.193701 2.902983
v 0 0 0
v 0.909091 0 0
v 0.909091 0.193701 0
v 0 0.193701 0
v -0.909091 0 0
v -0.909091 0.193701 0
v -0.909091 0 1.494877
v -0.909091 0 0
v -0.909091 0.193701 0
v -0.909091 0.193701 1.494877
v -0.909091 0 2.989754
v -0.909091 0.193701 2.989754
v 0 0 2.989754
v -0.909091 0 2.989754
v -0.909091 0.193701 2.989754
v 0 0.193701 2.989754
v 0.909091 0 2.989754
v 0.909091 0.193701 2.989754
v 0.909091 0 0
v 0.909091 0.193701 1.494877
v 0.909091 0.193701 0
v 0.909091 0 1.494877
v 0.909091 0.193701 2.989754
v 0.909091 0 2.989754
v -0.824349 0.166245 2.91951
v 0.676171 0.166245 0.062061
v 0.818761 0.166245 0.062061
v -0.681759 0.166245 2.91951
v -0.824349 0.12237 2.91951
v 0.676171 0.12237 0.062061
v 0.676171 0.166245 0.062061
v -0.824349 0.166245 2.91951
v -0.681759 0.140784 2.91951
v 0.818761 0.140784 0.062061
v 0.676171 0.12237 0.062061
v -0.824349 0.12237 2.91951
v -0.681759 0.166245 2.91951
v 0.818761 0.166245 0.062061
v 0.818761 0.140784 0.062061
v -0.681759 0.140784 2.91951
v 0.818761 0.158621 2.91951
v 0.676171 0.158621 2.91951
v -0.824349 0.158621 0.062061
v -0.681759 0.158621 0.062061
v 0.818761 0.12237 2.91951
v 0.818761 0.158621 2.91951
v -0.681759 0.158621 0.062061
v -0.681759 0.12237 0.062061
v 0.676171 0.140784 2.91951
v 0.818761 0.12237 2.91951
v -0.681759 0.12237 0.062061
v -0.824349 0.140784 0.062061
v 0.676171 0.158621 2.91951
v 0.676171 0.140784 2.91951
v -0.824349 0.140784 0.062061
v -0.824349 0.158621 0.062061
v 0.822321 0.193701 1.494877
v 0.909091 0.193701 2.989754
v 0.822321 0.193701 2.902983
v 0.909091 0.193701 1.494877
v 0 0.193701 2.989754
v 0.822321 0.193701 0.08677
v 0 0.193701 2.902983
v 0.909091 0.193701 0
v -0.909091 0.193701 2.989754
v 0 0.193701 0.08677
v -0.822321 0.193701 2.902983
v 0 0.193701 0
v -0.909091 0.193701 1.494877
v -0.822321 0.193701 0.08677
v -0.822321 0.193701 1.494877
v -0.909091 0.193701 0
vt 1 1
vt 0.5 1
vt 0 1
vt 0.5 0.029023
vt 0.952276 0.5
vt 0.952276 0.029023
vt 0.5 0.5
vt 0.047724 0.029023
vt 0.952276 0.970977
vt 0.047724 0.5
vt 0.5 0.970977
vt 0.047724 0.970977
vt 0.952276 0.970977
vt 0.5 0.970977
vt 0.5 0.970977
vt 0.952276 0.970977
vt 0.952276 0.970977
vt 0.952276 0.970977
vt 0.5 0.970977
vt 0.5 0.970977
vt 0 0.5
vt 0 0
vt 0.5 0
vt 1 0
vt 1 0.5
vt 0 1
vt 1 1
vt 0 0
vt 0 0
vt 0 0
vt 0 0
vt 0 0
vt 0 0
vt 0 0
vt 0 0
vt 0 0
vt 0 0
vt 0 0
vt 0 0
vt 0 0
vt 0 0
vt 0 0
vt 0 0
vt 0 0
vt 0 0
vt 0 0
vt 0 0
vt 0 0
vt 0 0
vt 0 0
vt 0 0
vt 0 0
vt 0 0
vt 0 0
vt 0 0
vt 0 0
vt 0 0
vt 0 0
vt 0 0
vt 0 0
vt 0 0
vt 0 0
vt 0 0
vt 0.5 0.5
vt 0.5 0.5
vt 1 0.5
vt 1 0.5
vt 0.5825 0.550171
vt 0.5825 0.550171
vt 0.5 0.5
vt 0.5 0.5
vt 0.9175 0.550171
vt 0.9175 0.550171
vt 0.5825 0.550171
vt 0.5825 0.550171
vt 1 0.5
vt 1 0.5
vt 0.9175 0.550171
vt 0.9175 0.550171
vt 0.047724 0.5
vt 0.047724 0.029023
vt 0.047724 0.029023
vt 0.047724 0.5
vt 0.047724 0.970977
vt 0.047724 0.970977
vt 0.047724 0.029023
vt 0.047724 0.029023
vt 0.5 0.029023
vt 0.5 0.029023
vt 0.952276 0.029023
vt 0.952276 0.029023
vt 0.952276 0.970977
vt 0.952276 0.970977
vt 0.5 0.970977
vt 0.5 0.970977
vt 0.047724 0.970977
vt 0.047724 0.970977
vt 0.952276 0.029023
vt 0.952276 0.029023
vt 0.952276 0.5
vt 0.952276 0.5
vt 0.952276 0.970977
vt 0.952276 0.970977
vt 0.5 0
vt 0 0
vt 0 0
vt 0.5 0
vt 1 0
vt 1 0
vt 1 0.5
vt 1 0
vt 1 0
vt 1 0.5
vt 1 1
vt 1 1
vt 0.5 1
vt 1 1
vt 1 1
vt 0.5 1
vt 0 1
vt 0 1
vt 0 0
vt 0 0.5
vt 0 0
vt 0 0.5
vt 0 1
vt 0 1
vt 0.076766 0.999951
vt 0.076766 0.020164
vt 0.038443 3.9E-05
vt 0.038442 0.979826
vt 0.952276 0.970977
vt 0.952276 0.970977
vt 0.952276 0.970977
vt 0.952276 0.970977
vt 0.5 0.970977
vt 0.5 0.970977
vt 0.952276 0.970977
vt 0.952276 0.970977
vt 0.5 0.970977
vt 0.5 0.970977
vt 0.5 0.970977
vt 0.5 0.970977
vt 3.9E-05 0.999961
vt 0.038362 0.979837
vt 0.038364 3.9E-05
vt 3.9E-05 0.020164
vt 0.952276 0.970977
vt 0.952276 0.970977
vt 0.952276 0.970977
vt 0.952276 0.970977
vt 0.5 0.970977
vt 0.952276 0.970977
vt 0.952276 0.970977
vt 0.5 0.970977
vt 0.5 0.970977
vt 0.5 0.970977
vt 0.5 0.970977
vt 0.5 0.970977
vt 0.047724 0.5
vt 0 1
vt 0.047724 0.970977
vt 0 0.5
vt 0.5 1
vt 0.047724 0.029023
vt 0.5 0.970977
vt 0 0
vt 1 1
vt 0.5 0.029023
vt 0.952276 0.970977
vt 0.5 0
vt 1 0.5
vt 0.952276 0.029023
vt 0.952276 0.5
vt 1 0
vn 0 1 0
vn 0 1 0
vn 0 1 0
vn 0 1 0
vn 0 1 0
vn 0 1 0
vn 0 1 0
vn 0 1 0
vn 0 1 0
vn 0 1 0
vn 0 1 0
vn 0 1 0
vn 0 0 1
vn 0.5172421 0 0.8558391
vn 0.4967877 0 0.8678721
vn 0 0 1
vn -0.5172421 0 -0.8558391
vn -0.5391095 0 -0.8422357
vn 0 0 -1
vn 0 0 -1
vn 0 -1 0
vn 0 -1 0
vn 0 -1 0
vn 0 -1 0
vn 0 -1 0
vn 0 -1 0
vn 0 -1 0
vn 0.7236064 -0.5257316 -0.4472136
vn 0.7236064 0.5257316 -0.4472136
vn 0 0 -1
vn -0.2763872 -0.850653 -0.4472133
vn -0.8944291 0 -0.4472098
vn 0.2763846 -0.8506546 0.4472118
vn 0 0 -1
vn -0.2763872 0.850653 -0.4472131
vn -0.8944291 0 -0.4472098
vn 0.7236064 0.5257316 -0.4472136
vn 0.7236064 -0.5257316 -0.4472136
vn 0.8944287 0 0.4472105
vn 0.7236064 0.5257316 -0.4472136
vn 0.2763846 -0.8506546 0.4472118
vn -0.8944291 0 -0.4472098
vn -0.7236059 -0.5257315 0.4472147
vn -0.2763872 -0.850653 -0.4472133
vn 0.2763846 -0.8506546 0.4472118
vn -0.2763872 0.850653 -0.4472131
vn -0.7236059 0.5257314 0.4472147
vn -0.8944291 0 -0.4472098
vn -0.7236059 -0.5257315 0.4472147
vn 0.7236064 0.5257316 -0.4472136
vn 0.2763846 0.8506545 0.4472117
vn -0.2763872 0.850653 -0.4472131
vn 0.8944287 0 0.4472105
vn -0.2763872 0.850653 -0.4472131
vn 0.2763846 0.8506545 0.4472117
vn -0.7236059 0.5257314 0.4472147
vn 0 0 1
vn 0.8944287 0 0.4472105
vn -0.7236059 -0.5257315 0.4472147
vn 0.2763846 -0.8506546 0.4472118
vn 0 0 1
vn 0.8944287 0 0.4472105
vn -0.7236059 -0.5257315 0.4472147
vn 0 0 -1
vn 0 0 -1
vn 0 0 -1
vn 0 0 -1
vn 1 0 0
vn 1 0 0
vn 1 0 0
vn 1 0 0
vn 0 0 1
vn 0 0 1
vn 0 0 1
vn 0 0 1
vn -1 0 0
vn -1 0 0
vn -1 0 0
vn -1 0 0
vn -1 0 0
vn -1 0 0
vn -1 0 0
vn -1 0 0
vn -1 0 0
vn -1 0 0
vn 0 0 1
vn 0 0 1
vn 0 0 1
vn 0 0 1
vn 0 0 1
vn 0 0 1
vn 0 0 -1
vn 0 0 -1
vn 0 0 -1
vn 0 0 -1
vn 0 0 -1
vn 0 0 -1
vn 1 0 0
vn 1 0 0
vn 1 0 0
vn 1 0 0
vn 1 0 0
vn 1 0 0
vn 0 0 -1
vn 0 0 -1
vn 0 0 -1
vn 0 0 -1
vn 0 0 -1
vn 0 0 -1
vn -1 0 0
vn -1 0 0
vn -1 0 0
vn -1 0 0
vn -1 0 0
vn -1 0 0
vn 0 0 1
vn 0 0 1
vn 0 0 1
vn 0 0 1
vn 0 0 1
vn 0 0 1
vn 1 0 0
vn 1 0 0
vn 1 0 0
vn 1 0 0
vn 1 0 0
vn 1 0 0
vn 0 1 0
vn 0 1 0
vn 0 1 0
vn 0 1 0
vn -0.8853521 0 -0.4649212
vn -0.5391095 0 -0.8422357
vn -0.5172421 0 -0.8558391
vn -0.8853521 0 -0.4649212
vn 0.1277872 -0.989529 0.06710437
vn 0.1277872 -0.989529 0.06710437
vn 0.1277872 -0.989529 0.06710437
vn 0.1277872 -0.989529 0.06710437
vn 0.5172421 0 0.8558391
vn 0.8853521 0 0.4649212
vn 0.8853521 0 0.4649212
vn 0.4967877 0 0.8678721
vn 0 1 0
vn 0 1 0
vn 0 1 0
vn 0 1 0
vn 0.8853521 0 -0.4649212
vn 0.8853521 0 -0.4649212
vn 0.8853521 0 -0.4649212
vn 0.8853521 0 -0.4649212
vn -0.1277872 -0.989529 0.06710438
vn -0.1277872 -0.989529 0.06710438
vn -0.1277872 -0.989529 0.06710438
vn -0.1277872 -0.989529 0.06710438
vn -0.8853521 0 0.4649212
vn -0.8853521 0 0.4649212
vn -0.8853521 0 0.4649212
vn -0.8853521 0 0.4649212
vn 0 1 0
vn 0 1 0
vn 0 1 0
vn 0 1 0
vn 0 1 0
vn 0 1 0
vn 0 1 0
vn 0 1 0
vn 0 1 0
vn 0 1 0
vn 0 1 0
vn 0 1 0
vn 0 1 0
vn 0 1 0
vn 0 1 0
vn 0 1 0
g BarnDoor_0
f 3/3/3 2/2/2 1/1/1
f 6/6/6 5/5/5 4/4/4
f 5/5/5 7/7/7 4/4/4
f 4/4/4 7/7/7 8/8/8
f 5/5/5 9/9/9 7/7/7
f 7/7/7 10/10/10 8/8/8
f 9/9/9 11/11/11 7/7/7
f 7/7/7 11/11/11 10/10/10
f 11/11/11 12/12/12 10/10/10
f 15/15/15 14/14/14 13/13/13
f 16/16/16 15/15/15 13/13/13
f 19/19/19 18/18/18 17/17/17
f 20/20/20 19/19/19 17/17/17
f 23/23/23 22/22/22 21/21/21
f 21/21/21 24/24/24 23/23/23
f 21/21/21 25/25/25 24/24/24
f 21/21/21 26/26/26 25/25/25
f 26/26/26 27/27/27 25/25/25
g BarnDoor_1
f 30/30/30 29/29/29 28/28/28
f 28/28/28 31/31/31 30/30/30
f 31/31/31 32/32/32 30/30/30
f 28/28/28 33/33/33 31/31/31
f 36/36/36 35/35/35 34/34/34
f 35/35/35 37/37/37 34/34/34
f 40/40/40 39/39/39 38/38/38
f 39/39/39 41/41/41 38/38/38
f 44/44/44 43/43/43 42/42/42
f 45/45/45 43/43/43 44/44/44
f 48/48/48 47/47/47 46/46/46
f 49/49/49 47/47/47 48/48/48
f 52/52/52 51/51/51 50/50/50
f 51/51/51 53/53/53 50/50/50
f 56/56/56 55/55/55 54/54/54
f 56/56/56 57/57/57 55/55/55
f 55/55/55 57/57/57 58/58/58
f 59/59/59 57/57/57 56/56/56
f 62/62/62 61/61/61 60/60/60
f 60/60/60 61/61/61 63/63/63
f 66/66/66 65/65/65 64/64/64
f 67/67/67 66/66/66 64/64/64
f 70/70/70 69/69/69 68/68/68
f 71/71/71 70/70/70 68/68/68
f 74/74/74 73/73/73 72/72/72
f 75/75/75 74/74/74 72/72/72
f 78/78/78 77/77/77 76/76/76
f 79/79/79 78/78/78 76/76/76
g BarnDoor_2
f 82/82/82 81/81/81 80/80/80
f 81/81/81 83/83/83 80/80/80
f 80/80/80 83/83/83 84/84/84
f 83/83/83 85/85/85 84/84/84
f 88/88/88 87/87/87 86/86/86
f 89/89/89 88/88/88 86/86/86
f 90/90/90 88/88/88 89/89/89
f 91/91/91 90/90/90 89/89/89
f 94/94/94 93/93/93 92/92/92
f 95/95/95 94/94/94 92/92/92
f 96/96/96 94/94/94 95/95/95
f 97/97/97 96/96/96 95/95/95
f 100/100/100 99/99/99 98/98/98
f 101/101/101 100/100/100 98/98/98
f 102/102/102 100/100/100 101/101/101
f 103/103/103 102/102/102 101/101/101
f 106/106/106 105/105/105 104/104/104
f 107/107/107 106/106/106 104/104/104
f 107/107/107 104/104/104 108/108/108
f 109/109/109 107/107/107 108/108/108
f 112/112/112 111/111/111 110/110/110
f 113/113/113 112/112/112 110/110/110
f 113/113/113 110/110/110 114/114/114
f 115/115/115 113/113/113 114/114/114
f 118/118/118 117/117/117 116/116/116
f 119/119/119 118/118/118 116/116/116
f 119/119/119 116/116/116 120/120/120
f 121/121/121 119/119/119 120/120/120
f 124/124/124 123/123/123 122/122/122
f 123/123/123 125/125/125 122/122/122
f 123/123/123 126/126/126 125/125/125
f 126/126/126 127/127/127 125/125/125
f 130/130/130 129/129/129 128/128/128
f 131/131/131 130/130/130 128/128/128
f 134/134/134 133/133/133 132/132/132
f 135/135/135 134/134/134 132/132/132
f 138/138/138 137/137/137 136/136/136
f 139/139/139 138/138/138 136/136/136
f 142/142/142 141/141/141 140/140/140
f 143/143/143 142/142/142 140/140/140
f 146/146/146 145/145/145 144/144/144
f 147/147/147 146/146/146 144/144/144
f 150/150/150 149/149/149 148/148/148
f 151/151/151 150/150/150 148/148/148
f 154/154/154 153/153/153 152/152/152
f 155/155/155 154/154/154 152/152/152
f 158/158/158 157/157/157 156/156/156
f 159/159/159 158/158/158 156/156/156
f 162/162/162 161/161/161 160/160/160
f 161/161/161 163/163/163 160/160/160
f 164/164/164 161/161/161 162/162/162
f 160/160/160 163/163/163 165/165/165
f 166/166/166 164/164/164 162/162/162
f 163/163/163 167/167/167 165/165/165
f 168/168/168 164/164/164 166/166/166
f 165/165/165 167/167/167 169/169/169
f 170/170/170 168/168/168 166/166/166
f 167/167/167 171/171/171 169/169/169
f 172/172/172 168/168/168 170/170/170
f 169/169/169 171/171/171 173/173/173
f 174/174/174 172/172/172 170/170/170
f 171/171/171 175/175/175 173/173/173
f 175/175/175 172/172/172 174/174/174
f 173/173/173 175/175/175 174/174/174
