g BatZapperInside
v -0.110099 -0.052657 0.03304
v -0.120438 -0.057602 0.028582
v -0.057602 -0.120438 0.028582
v -0.052657 -0.110099 0.03304
v 0.057602 -0.120438 0.028582
v 0.052657 -0.110099 0.03304
v 0.120438 -0.057602 0.028582
v 0.110099 -0.052657 0.03304
v 0.110099 0.052657 0.07751
v 0.120438 -0.057602 0.07414
v 0.110099 -0.052657 0.07751
v 0.120438 0.057602 0.07414
v 0.052657 0.110099 0.07751
v 0.057602 0.120438 0.07414
v -0.052657 0.110099 0.07751
v -0.057602 0.120438 0.07414
v -0.110099 0.052657 0.07751
v -0.120438 0.057602 0.07414
v 0.057602 0.120438 0.028582
v -0.057602 0.120438 0.028582
v 0.120438 0.057602 0.028582
v -0.120438 0.057602 0.028582
v -0.120438 -0.057602 0.028582
v 0.120438 -0.057602 0.07414
v -0.120438 -0.057602 0.07414
v 0.120438 -0.057602 0.028582
v -0.057602 -0.120438 0.028582
v 0.057602 -0.120438 0.07414
v 0.110099 -0.052657 0.07751
v 0.057602 -0.120438 0.028582
v 0.052657 -0.110099 0.07751
v -0.057602 -0.120438 0.07414
v -0.052657 -0.110099 0.07751
v -0.110099 -0.052657 0.07751
v -0.120438 0.057602 0.07414
v -0.110099 0.052657 0.07751
v 0.057602 -0.120438 0.479424
v 0.120438 -0.057602 0.479424
v 0.120438 -0.057602 0.391685
v 0.057602 -0.120438 0.391685
v -0.057602 -0.120438 0.479424
v 0.052657 -0.110099 0.388573
v 0.110099 -0.052657 0.388573
v -0.052657 -0.110099 0.388573
v -0.057602 -0.120438 0.391685
v -0.110099 -0.052657 0.388573
v -0.120438 -0.057602 0.479424
v -0.120438 -0.057602 0.391685
v -0.120438 0.057602 0.479424
v -0.120438 0.057602 0.391685
v -0.057602 0.120438 0.479424
v -0.057602 0.120438 0.391685
v 0.057602 0.120438 0.479424
v 0.057602 0.120438 0.391685
v 0.120438 0.057602 0.479424
v 0.120438 0.057602 0.391685
v 0.120438 -0.057602 0.479424
v 0.120438 -0.057602 0.391685
v 0.110099 -0.052657 0.388573
v 0.110099 0.052657 0.388573
v 0.052657 0.110099 0.388573
v -0.052657 0.110099 0.388573
v -0.110099 0.052657 0.388573
v -0.120438 -0.057602 0.391685
v -0.110099 -0.052657 0.388573
v -0.052657 -0.110099 0.474679
v -0.120438 -0.057602 0.479424
v -0.110099 -0.052657 0.474679
v -0.057602 -0.120438 0.479424
v 0.052657 -0.110099 0.474679
v 0.057602 -0.120438 0.479424
v 0.110099 -0.052657 0.474679
v 0.120438 -0.057602 0.479424
v -0.110099 -0.052657 0.474679
v -0.120438 -0.057602 0.479424
v -0.120438 0.057602 0.479424
v -0.110099 0.052657 0.474679
v -0.052657 -0.110099 0.474679
v -0.057602 0.120438 0.479424
v -0.052657 0.110099 0.474679
v 0.052657 -0.110099 0.474679
v 0.057602 0.120438 0.479424
v 0.052657 0.110099 0.474679
v 0.110099 -0.052657 0.474679
v 0.120438 0.057602 0.479424
v 0.110099 0.052657 0.474679
v 0.120438 -0.057602 0.479424
v 0.110099 -0.052657 0.03304
v 0.120438 -0.057602 0.028582
v 0.120438 0.057602 0.028582
v 0.110099 0.052657 0.03304
v 0.052657 -0.110099 0.03304
v 0.057602 0.120438 0.028582
v 0.052657 0.110099 0.03304
v -0.052657 -0.110099 0.03304
v -0.057602 0.120438 0.028582
v -0.052657 0.110099 0.03304
v -0.110099 -0.052657 0.03304
v -0.120438 0.057602 0.028582
v -0.110099 0.052657 0.03304
v -0.120438 -0.057602 0.028582
v 0.052657 -0.110099 0.07751
v -0.052657 -0.110099 0.388573
v 0.052657 -0.110099 0.388573
v -0.052657 -0.110099 0.07751
v -0.110099 -0.052657 0.388573
v -0.110099 -0.052657 0.07751
v -0.110099 0.052657 0.388573
v -0.110099 0.052657 0.07751
v -0.052657 0.110099 0.388573
v -0.052657 0.110099 0.07751
v 0.052657 0.110099 0.388573
v 0.052657 0.110099 0.07751
v 0.110099 0.052657 0.388573
v 0.110099 0.052657 0.07751
v 0.110099 -0.052657 0.388573
v 0.110099 -0.052657 0.07751
v 0.052657 -0.110099 0.388573
v 0.052657 -0.110099 0.07751
v 0.051435 -0.107543 0.08112
v 0.051435 -0.107543 0.384963
v -0.051435 -0.107543 0.384963
v -0.051435 -0.107543 0.08112
v -0.107543 -0.051435 0.384963
v -0.107543 -0.051435 0.08112
v -0.107543 0.051435 0.384963
v -0.107543 0.051435 0.08112
v -0.051435 0.107543 0.384963
v -0.051435 0.107543 0.08112
v 0.051435 0.107543 0.384963
v 0.051435 0.107543 0.08112
v 0.107543 0.051435 0.384963
v 0.107543 0.051435 0.08112
v 0.107543 -0.051435 0.384963
v 0.107543 -0.051435 0.08112
v 0.051435 -0.107543 0.384963
v 0.051435 -0.107543 0.08112
vt 0.40075 0.93112
vt 0.396088 0.926484
vt 0.424421 0.926484
vt 0.426651 0.93112
vt 0.476367 0.926484
vt 0.474137 0.93112
vt 0.504699 0.926484
vt 0.500037 0.93112
vt 0.500037 0.977364
vt 0.504699 0.97386
vt 0.500037 0.977364
vt 0.504699 0.97386
vt 0.474137 0.977364
vt 0.476367 0.97386
vt 0.426651 0.977364
vt 0.424421 0.97386
vt 0.40075 0.977364
vt 0.396088 0.97386
vt 0.476367 0.926484
vt 0.424421 0.926484
vt 0.504699 0.926484
vt 0.396088 0.926484
vt 0.396088 0.926484
vt 0.504699 0.97386
vt 0.396088 0.97386
vt 0.504699 0.926484
vt 0.424421 0.926484
vt 0.476367 0.97386
vt 0.500037 0.977364
vt 0.476367 0.926484
vt 0.474137 0.977364
vt 0.424421 0.97386
vt 0.426651 0.977364
vt 0.40075 0.977364
vt 0.396088 0.97386
vt 0.40075 0.977364
vt 0.476367 0.977376
vt 0.504699 0.977376
vt 0.504699 0.926203
vt 0.476367 0.926203
vt 0.424421 0.977376
vt 0.474137 0.924388
vt 0.500037 0.924388
vt 0.426651 0.924388
vt 0.424421 0.926203
vt 0.40075 0.924388
vt 0.396088 0.977376
vt 0.396088 0.926203
vt 0.396088 0.977376
vt 0.396088 0.926203
vt 0.424421 0.977376
vt 0.424421 0.926203
vt 0.476367 0.977376
vt 0.476367 0.926203
vt 0.504699 0.977376
vt 0.504699 0.926203
vt 0.504699 0.977376
vt 0.504699 0.926203
vt 0.500037 0.924388
vt 0.500037 0.924388
vt 0.474137 0.924388
vt 0.426651 0.924388
vt 0.40075 0.924388
vt 0.396088 0.926203
vt 0.40075 0.924388
vt 0.426651 0.974608
vt 0.396088 0.977376
vt 0.40075 0.974608
vt 0.424421 0.977376
vt 0.474137 0.974608
vt 0.476367 0.977376
vt 0.500037 0.974608
vt 0.504699 0.977376
vt 0.40075 0.974608
vt 0.396088 0.977376
vt 0.396088 0.977376
vt 0.40075 0.974608
vt 0.426651 0.974608
vt 0.424421 0.977376
vt 0.426651 0.974608
vt 0.474137 0.974608
vt 0.476367 0.977376
vt 0.474137 0.974608
vt 0.500037 0.974608
vt 0.504699 0.977376
vt 0.500037 0.974608
vt 0.504699 0.977376
vt 0.500037 0.93112
vt 0.504699 0.926484
vt 0.504699 0.926484
vt 0.500037 0.931119
vt 0.474137 0.93112
vt 0.476367 0.926484
vt 0.474137 0.931119
vt 0.426651 0.93112
vt 0.424421 0.926484
vt 0.426651 0.931119
vt 0.40075 0.93112
vt 0.396088 0.926484
vt 0.40075 0.931119
vt 0.396088 0.926484
vt 0.999935 6.5E-05
vt 0.858819 0.416876
vt 0.999935 0.416876
vt 0.858819 6.5E-05
vt 0.749968 0.416876
vt 0.749968 6.5E-05
vt 0.608851 0.416876
vt 0.608851 6.5E-05
vt 0.5 0.416876
vt 0.5 6.5E-05
vt 0.358884 0.416876
vt 0.358884 6.5E-05
vt 0.250032 0.416876
vt 0.250032 6.5E-05
vt 0.108916 0.416876
vt 0.108916 6.5E-05
vt 6.5E-05 0.416876
vt 6.5E-05 6.5E-05
vt 0.999935 6.5E-05
vt 0.999935 0.416876
vt 0.858819 0.416876
vt 0.858819 6.5E-05
vt 0.749968 0.416876
vt 0.749968 6.5E-05
vt 0.608851 0.416876
vt 0.608851 6.5E-05
vt 0.5 0.416876
vt 0.5 6.5E-05
vt 0.358884 0.416876
vt 0.358884 6.5E-05
vt 0.250032 0.416876
vt 0.250032 6.5E-05
vt 0.108916 0.416876
vt 0.108916 6.5E-05
vt 6.5E-05 0.416876
vt 6.5E-05 6.5E-05
vn 0.2127742 0.08360192 -0.9735184
vn 0.3339304 0.1419019 -0.9318553
vn 0.1419019 0.3339304 -0.9318553
vn 0.08360191 0.2127742 -0.9735184
vn -0.1419019 0.3339304 -0.9318553
vn -0.08360194 0.2127743 -0.9735184
vn -0.3339304 0.1419019 -0.9318553
vn -0.2127743 0.08360194 -0.9735184
vn 0.6785874 0.2769233 0.6803181
vn 0.7785268 -0.3240732 0.5374687
vn 0.6785874 -0.2769233 0.680318
vn 0.7785268 0.3240732 0.5374687
vn 0.2769233 0.6785874 0.6803181
vn 0.3240732 0.7785268 0.5374688
vn -0.2769232 0.6785874 0.6803181
vn -0.3240732 0.7785268 0.5374688
vn -0.6785874 0.2769233 0.6803181
vn -0.7785268 0.3240732 0.5374687
vn 0.3826834 0.9238795 0
vn -0.3826834 0.9238795 0
vn 0.9238795 0.3826834 0
vn -0.9238795 0.3826834 0
vn -0.9238795 -0.3826834 0
vn 0.7785268 -0.3240732 0.5374687
vn -0.7785268 -0.3240732 0.5374687
vn 0.9238795 -0.3826834 0
vn -0.3826834 -0.9238795 0
vn 0.3240732 -0.7785268 0.5374687
vn 0.6785874 -0.2769233 0.680318
vn 0.3826834 -0.9238795 0
vn 0.2769233 -0.6785874 0.6803181
vn -0.3240732 -0.7785268 0.5374688
vn -0.2769232 -0.6785874 0.6803181
vn -0.6785874 -0.2769233 0.6803181
vn -0.7785268 0.3240732 0.5374687
vn -0.6785874 0.2769233 0.6803181
vn 0.3826835 -0.9238795 0
vn 0.9238795 -0.3826835 0
vn 0.7743586 -0.3222505 -0.5445396
vn 0.3222505 -0.7743586 -0.5445396
vn -0.3826835 -0.9238795 0
vn 0.273566 -0.6699346 -0.6901808
vn 0.6699345 -0.273566 -0.6901807
vn -0.2735659 -0.6699345 -0.6901808
vn -0.3222505 -0.7743586 -0.5445396
vn -0.6699346 -0.273566 -0.6901808
vn -0.9238795 -0.3826835 0
vn -0.7743586 -0.3222505 -0.5445396
vn -0.9238795 0.3826835 0
vn -0.7743586 0.3222505 -0.5445396
vn -0.3826835 0.9238795 0
vn -0.3222505 0.7743586 -0.5445396
vn 0.3826835 0.9238795 0
vn 0.3222505 0.7743586 -0.5445396
vn 0.9238795 0.3826835 0
vn 0.7743586 0.3222505 -0.5445396
vn 0.9238795 -0.3826835 0
vn 0.7743586 -0.3222505 -0.5445396
vn 0.6699345 -0.273566 -0.6901807
vn 0.6699345 0.273566 -0.6901807
vn 0.273566 0.6699346 -0.6901808
vn -0.2735659 0.6699345 -0.6901808
vn -0.6699346 0.273566 -0.6901808
vn -0.7743586 -0.3222505 -0.5445396
vn -0.6699346 -0.273566 -0.6901808
vn 0.08834152 0.2246791 0.9704201
vn 0.3523695 0.1497127 0.9238084
vn 0.2246791 0.08834152 0.9704201
vn 0.1497127 0.3523695 0.9238083
vn -0.08834153 0.2246792 0.9704201
vn -0.1497128 0.3523696 0.9238083
vn -0.2246792 0.08834154 0.9704201
vn -0.3523695 0.1497127 0.9238083
vn 0.2246791 0.08834152 0.9704201
vn 0.3523695 0.1497127 0.9238084
vn 0.3523695 -0.1497127 0.9238084
vn 0.2246791 -0.08834151 0.9704201
vn 0.08834152 0.2246791 0.9704201
vn 0.1497127 -0.3523695 0.9238083
vn 0.08834151 -0.2246791 0.9704201
vn -0.08834153 0.2246792 0.9704201
vn -0.1497127 -0.3523695 0.9238083
vn -0.08834152 -0.2246792 0.9704201
vn -0.2246792 0.08834154 0.9704201
vn -0.3523695 -0.1497127 0.9238083
vn -0.2246791 -0.08834153 0.9704201
vn -0.3523695 0.1497127 0.9238083
vn -0.2127743 0.08360194 -0.9735184
vn -0.3339304 0.1419019 -0.9318553
vn -0.3339304 -0.1419019 -0.9318553
vn -0.2127742 -0.08360193 -0.9735184
vn -0.08360194 0.2127743 -0.9735184
vn -0.1419019 -0.3339304 -0.9318553
vn -0.08360193 -0.2127743 -0.9735184
vn 0.08360191 0.2127742 -0.9735184
vn 0.1419019 -0.3339304 -0.9318553
vn 0.08360191 -0.2127742 -0.9735184
vn 0.2127742 0.08360192 -0.9735184
vn 0.3339304 -0.1419019 -0.9318553
vn 0.2127742 -0.08360192 -0.9735184
vn 0.3339304 0.1419019 -0.9318553
vn 0.2769233 -0.6785874 0.6803181
vn -0.2735659 -0.6699345 -0.6901808
vn 0.273566 -0.6699346 -0.6901808
vn -0.2769232 -0.6785874 0.6803181
vn -0.6699346 -0.273566 -0.6901808
vn -0.6785874 -0.2769233 0.6803181
vn -0.6699346 0.273566 -0.6901808
vn -0.6785874 0.2769233 0.6803181
vn -0.2735659 0.6699345 -0.6901808
vn -0.2769232 0.6785874 0.6803181
vn 0.273566 0.6699346 -0.6901808
vn 0.2769233 0.6785874 0.6803181
vn 0.6699345 0.273566 -0.6901807
vn 0.6785874 0.2769233 0.6803181
vn 0.6699345 -0.273566 -0.6901807
vn 0.6785874 -0.2769233 0.680318
vn 0.273566 -0.6699346 -0.6901808
vn 0.2769233 -0.6785874 0.6803181
vn -0.3826834 0.9238795 0
vn -0.3826834 0.9238795 0
vn 0.3826834 0.9238795 0
vn 0.3826834 0.9238795 0
vn 0.9238795 0.3826834 0
vn 0.9238795 0.3826834 0
vn 0.9238795 -0.3826834 0
vn 0.9238795 -0.3826834 0
vn 0.3826834 -0.9238795 0
vn 0.3826834 -0.9238795 0
vn -0.3826834 -0.9238795 0
vn -0.3826834 -0.9238795 0
vn -0.9238795 -0.3826834 0
vn -0.9238795 -0.3826834 0
vn -0.9238795 0.3826834 0
vn -0.9238795 0.3826834 0
vn -0.3826834 0.9238795 0
vn -0.3826834 0.9238795 0
g BatZapperInside_0
f 3/3/3 2/2/2 1/1/1
f 4/4/4 3/3/3 1/1/1
f 5/5/5 3/3/3 4/4/4
f 6/6/6 5/5/5 4/4/4
f 7/7/7 5/5/5 6/6/6
f 8/8/8 7/7/7 6/6/6
f 11/11/11 10/10/10 9/9/9
f 10/10/10 12/12/12 9/9/9
f 9/9/9 12/12/12 13/13/13
f 12/12/12 14/14/14 13/13/13
f 13/13/13 14/14/14 15/15/15
f 14/14/14 16/16/16 15/15/15
f 15/15/15 16/16/16 17/17/17
f 16/16/16 18/18/18 17/17/17
f 14/14/14 12/12/12 19/19/19
f 14/14/14 19/19/19 20/20/20
f 16/16/16 14/14/14 20/20/20
f 12/12/12 21/21/21 19/19/19
f 20/20/20 22/22/22 16/16/16
f 22/22/22 18/18/18 16/16/16
f 18/18/18 22/22/22 23/23/23
f 12/12/12 24/24/24 21/21/21
f 25/25/25 18/18/18 23/23/23
f 24/24/24 26/26/26 21/21/21
f 25/25/25 23/23/23 27/27/27
f 26/26/26 24/24/24 28/28/28
f 28/28/28 24/24/24 29/29/29
f 30/30/30 26/26/26 28/28/28
f 31/31/31 28/28/28 29/29/29
f 32/32/32 27/27/27 30/30/30
f 28/28/28 32/32/32 30/30/30
f 32/32/32 28/28/28 31/31/31
f 32/32/32 25/25/25 27/27/27
f 33/33/33 32/32/32 31/31/31
f 25/25/25 32/32/32 33/33/33
f 34/34/34 25/25/25 33/33/33
f 35/35/35 25/25/25 34/34/34
f 36/36/36 35/35/35 34/34/34
f 39/39/39 38/38/38 37/37/37
f 40/40/40 39/39/39 37/37/37
f 37/37/37 41/41/41 40/40/40
f 39/39/39 40/40/40 42/42/42
f 43/43/43 39/39/39 42/42/42
f 42/42/42 40/40/40 44/44/44
f 41/41/41 45/45/45 40/40/40
f 40/40/40 45/45/45 44/44/44
f 44/44/44 45/45/45 46/46/46
f 41/41/41 47/47/47 45/45/45
f 45/45/45 48/48/48 46/46/46
f 47/47/47 48/48/48 45/45/45
f 47/47/47 49/49/49 48/48/48
f 49/49/49 50/50/50 48/48/48
f 50/50/50 49/49/49 51/51/51
f 52/52/52 50/50/50 51/51/51
f 51/51/51 53/53/53 52/52/52
f 53/53/53 54/54/54 52/52/52
f 53/53/53 55/55/55 54/54/54
f 55/55/55 56/56/56 54/54/54
f 55/55/55 57/57/57 56/56/56
f 57/57/57 58/58/58 56/56/56
f 56/56/56 58/58/58 59/59/59
f 60/60/60 56/56/56 59/59/59
f 54/54/54 56/56/56 60/60/60
f 61/61/61 54/54/54 60/60/60
f 52/52/52 54/54/54 61/61/61
f 62/62/62 52/52/52 61/61/61
f 50/50/50 52/52/52 62/62/62
f 63/63/63 50/50/50 62/62/62
f 64/64/64 50/50/50 63/63/63
f 65/65/65 64/64/64 63/63/63
f 68/68/68 67/67/67 66/66/66
f 67/67/67 69/69/69 66/66/66
f 66/66/66 69/69/69 70/70/70
f 69/69/69 71/71/71 70/70/70
f 70/70/70 71/71/71 72/72/72
f 71/71/71 73/73/73 72/72/72
f 76/76/76 75/75/75 74/74/74
f 77/77/77 76/76/76 74/74/74
f 77/77/77 74/74/74 78/78/78
f 79/79/79 76/76/76 77/77/77
f 80/80/80 77/77/77 78/78/78
f 80/80/80 79/79/79 77/77/77
f 80/80/80 78/78/78 81/81/81
f 82/82/82 79/79/79 80/80/80
f 83/83/83 80/80/80 81/81/81
f 83/83/83 82/82/82 80/80/80
f 83/83/83 81/81/81 84/84/84
f 85/85/85 82/82/82 83/83/83
f 84/84/84 86/86/86 83/83/83
f 86/86/86 85/85/85 83/83/83
f 84/84/84 87/87/87 86/86/86
f 87/87/87 85/85/85 86/86/86
f 90/90/90 89/89/89 88/88/88
f 91/91/91 90/90/90 88/88/88
f 91/91/91 88/88/88 92/92/92
f 93/93/93 90/90/90 91/91/91
f 92/92/92 94/94/94 91/91/91
f 94/94/94 93/93/93 91/91/91
f 92/92/92 95/95/95 94/94/94
f 96/96/96 93/93/93 94/94/94
f 95/95/95 97/97/97 94/94/94
f 97/97/97 96/96/96 94/94/94
f 95/95/95 98/98/98 97/97/97
f 99/99/99 96/96/96 97/97/97
f 98/98/98 100/100/100 97/97/97
f 100/100/100 99/99/99 97/97/97
f 98/98/98 101/101/101 100/100/100
f 101/101/101 99/99/99 100/100/100
g BatZapperInside_1
f 104/104/104 103/103/103 102/102/102
f 103/103/103 105/105/105 102/102/102
f 103/103/103 106/106/106 105/105/105
f 106/106/106 107/107/107 105/105/105
f 106/106/106 108/108/108 107/107/107
f 108/108/108 109/109/109 107/107/107
f 109/109/109 108/108/108 110/110/110
f 111/111/111 109/109/109 110/110/110
f 110/110/110 112/112/112 111/111/111
f 112/112/112 113/113/113 111/111/111
f 112/112/112 114/114/114 113/113/113
f 114/114/114 115/115/115 113/113/113
f 114/114/114 116/116/116 115/115/115
f 116/116/116 117/117/117 115/115/115
f 117/117/117 116/116/116 118/118/118
f 119/119/119 117/117/117 118/118/118
f 122/122/122 121/121/121 120/120/120
f 123/123/123 122/122/122 120/120/120
f 124/124/124 122/122/122 123/123/123
f 125/125/125 124/124/124 123/123/123
f 126/126/126 124/124/124 125/125/125
f 127/127/127 126/126/126 125/125/125
f 126/126/126 127/127/127 128/128/128
f 127/127/127 129/129/129 128/128/128
f 130/130/130 128/128/128 129/129/129
f 131/131/131 130/130/130 129/129/129
f 132/132/132 130/130/130 131/131/131
f 133/133/133 132/132/132 131/131/131
f 134/134/134 132/132/132 133/133/133
f 135/135/135 134/134/134 133/133/133
f 134/134/134 135/135/135 136/136/136
f 135/135/135 137/137/137 136/136/136
