g BBQ
v -0.570706 -0.042493 -0.035274
v -0.35541 -0.05415 0.754044
v -0.237874 -0.055411 0.754044
v -0.45317 -0.043754 -0.035274
v 0.45181 0.438827 -0.035274
v 0.263374 0.232667 0.754044
v 0.303913 0.318429 0.754044
v 0.492349 0.524589 -0.035274
v 0.375199 0.579964 -0.035274
v 0.186763 0.373804 0.754044
v 0.146225 0.288042 0.754044
v 0.334661 0.494202 -0.035274
v 0.263374 0.232667 0.754044
v 0.146225 0.288042 0.754044
v 0.186763 0.373804 0.754044
v 0.303913 0.318429 0.754044
v 0.298708 -0.377175 0.754044
v 0.169138 -0.375784 0.754044
v 0.170156 -0.28093 0.754044
v 0.299726 -0.28232 0.754044
v -0.237874 -0.055411 0.754044
v -0.35541 -0.05415 0.754044
v -0.354177 0.060773 0.754044
v -0.236641 0.059512 0.754044
v 0.492349 0.524589 -0.035274
v 0.303913 0.318429 0.754044
v 0.186763 0.373804 0.754044
v 0.375199 0.579964 -0.035274
v -0.451936 0.071169 -0.035274
v -0.236641 0.059512 0.754044
v -0.354177 0.060773 0.754044
v -0.569472 0.07243 -0.035274
v 0.243493 -0.481261 -0.035274
v 0.170156 -0.28093 0.754044
v 0.169138 -0.375784 0.754044
v 0.242475 -0.576116 -0.035274
v 0.373063 -0.482652 -0.035274
v 0.299726 -0.28232 0.754044
v 0.170156 -0.28093 0.754044
v 0.243493 -0.481261 -0.035274
v -0.569472 0.07243 -0.035274
v -0.354177 0.060773 0.754044
v -0.35541 -0.05415 0.754044
v -0.570706 -0.042493 -0.035274
v 0.242475 -0.576116 -0.035274
v 0.169138 -0.375784 0.754044
v 0.298708 -0.377175 0.754044
v 0.372045 -0.577506 -0.035274
v 0.372045 -0.577506 -0.035274
v 0.298708 -0.377175 0.754044
v 0.299726 -0.28232 0.754044
v 0.373063 -0.482652 -0.035274
v 0.334661 0.494202 -0.035274
v 0.146225 0.288042 0.754044
v 0.263374 0.232667 0.754044
v 0.45181 0.438827 -0.035274
v -0.45317 -0.043754 -0.035274
v -0.237874 -0.055411 0.754044
v -0.236641 0.059512 0.754044
v -0.451936 0.071169 -0.035274
v 0.523304 -0.438308 0.72013
v 0.657528 -0.114263 0.72013
v 0.657528 0.112815 0.72013
v 0.523304 0.43686 0.72013
v 0.199259 -0.572532 0.72013
v 0.199259 0.571084 0.72013
v -0.027819 -0.572532 0.72013
v -0.027819 0.571084 0.72013
v -0.351864 -0.438308 0.72013
v -0.351864 0.43686 0.72013
v -0.486088 -0.114263 0.72013
v -0.486088 0.112815 0.72013
v 0.577337 -0.492341 1.202673
v 0.423793 -0.338797 0.845288
v 0.503944 -0.145295 0.845288
v 0.693891 -0.210955 1.202673
v 0.503944 0.143847 0.845288
v 0.693891 0.209507 1.202673
v 0.423793 0.337349 0.845288
v 0.577337 0.490893 1.202673
v -0.027819 -0.572532 0.72013
v -0.351864 -0.438308 0.72013
v -0.44758 -0.534024 1.202673
v -0.123535 -0.668248 1.202673
v 0.294975 -0.668248 1.202673
v 0.199259 -0.572532 0.72013
v 0.523304 -0.438308 0.72013
v 0.61902 -0.534024 1.202673
v -0.351864 -0.438308 0.72013
v -0.581804 -0.209979 1.202673
v -0.44758 -0.534024 1.202673
v -0.486088 -0.114263 0.72013
v -0.486088 0.112815 0.72013
v -0.581804 0.208531 1.202673
v -0.44758 0.532576 1.202673
v -0.351864 0.43686 0.72013
v -0.123535 0.6668 1.202673
v -0.44758 0.532576 1.202673
v -0.351864 0.43686 0.72013
v -0.027819 0.571084 0.72013
v 0.199259 0.571084 0.72013
v 0.294975 0.6668 1.202673
v 0.61902 0.532576 1.202673
v 0.523304 0.43686 0.72013
v 0.753244 0.208531 1.202673
v 0.61902 0.532576 1.202673
v 0.523304 0.43686 0.72013
v 0.657528 0.112815 0.72013
v 0.657528 -0.114263 0.72013
v 0.753244 -0.209979 1.202673
v 0.61902 -0.534024 1.202673
v 0.523304 -0.438308 0.72013
v 0.423793 0.337349 0.845288
v 0.503944 0.143847 0.845288
v 0.503944 -0.145295 0.845288
v 0.423793 -0.338797 0.845288
v 0.230291 0.4175 0.845288
v 0.230291 -0.418948 0.845288
v -0.058851 0.4175 0.845288
v -0.058851 -0.418948 0.845288
v -0.252353 0.337349 0.845288
v -0.252353 -0.338797 0.845288
v -0.332504 0.143847 0.845288
v -0.332504 -0.145295 0.845288
v -0.52245 -0.210955 1.202673
v -0.252353 -0.338797 0.845288
v -0.405897 -0.492341 1.202673
v -0.332504 -0.145295 0.845288
v -0.52245 0.209507 1.202673
v -0.332504 0.143847 0.845288
v -0.405897 0.490893 1.202673
v -0.252353 0.337349 0.845288
v 0.577337 0.490893 1.202673
v 0.423793 0.337349 0.845288
v 0.230291 0.4175 0.845288
v 0.295951 0.607446 1.202673
v -0.058851 0.4175 0.845288
v -0.124511 0.607446 1.202673
v -0.252353 0.337349 0.845288
v -0.405897 0.490893 1.202673
v 0.295951 -0.608895 1.202673
v 0.423793 -0.338797 0.845288
v 0.577337 -0.492341 1.202673
v 0.230291 -0.418948 0.845288
v -0.124511 -0.608895 1.202673
v -0.058851 -0.418948 0.845288
v -0.405897 -0.492341 1.202673
v -0.252353 -0.338797 0.845288
v 0.511961 0.425516 0.978467
v 0.613015 0.18155 0.978467
v 0.613015 -0.182998 0.978467
v 0.511961 -0.426965 0.978467
v 0.267994 0.52657 0.978467
v 0.267994 -0.528019 0.978467
v -0.096554 0.52657 0.978467
v -0.096554 -0.528019 0.978467
v -0.34052 0.425516 0.978467
v -0.34052 -0.426965 0.978467
v -0.441574 0.18155 0.978467
v -0.441574 -0.182998 0.978467
v 0.577337 0.490893 1.105361
v 0.693891 0.209507 1.105361
v 0.693891 -0.210955 1.105361
v 0.577337 -0.492341 1.105361
v 0.295951 0.607446 1.105361
v 0.295951 -0.608895 1.105361
v -0.124511 0.607446 1.105361
v -0.124511 -0.608895 1.105361
v -0.405897 0.490893 1.105361
v -0.405897 -0.492341 1.105361
v -0.52245 0.209507 1.105361
v -0.52245 -0.210955 1.105361
v -0.124511 -0.608895 1.202673
v -0.123535 -0.668248 1.202673
v -0.44758 -0.534024 1.202673
v -0.405897 -0.492341 1.202673
v 0.295951 -0.608895 1.202673
v -0.581804 -0.209979 1.202673
v 0.294975 -0.668248 1.202673
v -0.52245 -0.210955 1.202673
v 0.577337 -0.492341 1.202673
v -0.581804 0.208531 1.202673
v 0.61902 -0.534024 1.202673
v -0.52245 0.209507 1.202673
v 0.693891 -0.210955 1.202673
v -0.44758 0.532576 1.202673
v 0.753244 -0.209979 1.202673
v -0.405897 0.490893 1.202673
v 0.693891 0.209507 1.202673
v -0.123535 0.6668 1.202673
v 0.753244 0.208531 1.202673
v -0.124511 0.607446 1.202673
v 0.577337 0.490893 1.202673
v 0.294975 0.6668 1.202673
v 0.61902 0.532576 1.202673
v 0.295951 0.607446 1.202673
vt 0.558824 0.05036
vt 0.558824 0.447377
vt 0.955841 0.447377
vt 0.955841 0.05036
vt 0.558824 0.05036
vt 0.558824 0.447377
vt 0.955841 0.447377
vt 0.955841 0.05036
vt 0.558824 0.05036
vt 0.558824 0.447377
vt 0.955841 0.447377
vt 0.955841 0.05036
vt 0 0
vt 0 0
vt 0 0
vt 0 0
vt 0 0
vt 0 0
vt 0 0
vt 0 0
vt 0 0
vt 0 0
vt 0 0
vt 0 0
vt 0.558824 0.05036
vt 0.558824 0.447377
vt 0.955841 0.447377
vt 0.955841 0.05036
vt 0.558824 0.05036
vt 0.558824 0.447377
vt 0.955841 0.447377
vt 0.955841 0.05036
vt 0.558824 0.05036
vt 0.558824 0.447377
vt 0.955841 0.447377
vt 0.955841 0.05036
vt 0.558824 0.05036
vt 0.558824 0.447377
vt 0.955841 0.447377
vt 0.955841 0.05036
vt 0.558824 0.05036
vt 0.558824 0.447377
vt 0.955841 0.447377
vt 0.955841 0.05036
vt 0.558824 0.05036
vt 0.558824 0.447377
vt 0.955841 0.447377
vt 0.955841 0.05036
vt 0.558824 0.05036
vt 0.558824 0.447377
vt 0.955841 0.447377
vt 0.955841 0.05036
vt 0.558824 0.05036
vt 0.558824 0.447377
vt 0.955841 0.447377
vt 0.955841 0.05036
vt 0.558824 0.05036
vt 0.558824 0.447377
vt 0.955841 0.447377
vt 0.955841 0.05036
vt 0.585419 0.348122
vt 0.558824 0.248868
vt 0.585419 0.149614
vt 0.658078 0.076955
vt 0.658078 0.420781
vt 0.757333 0.05036
vt 0.757333 0.447377
vt 0.856587 0.076955
vt 0.856587 0.420782
vt 0.929246 0.149614
vt 0.929246 0.348122
vt 0.955841 0.248868
vt 0.323108 0.71602
vt 0.29948 0.733846
vt 0.30264 0.746531
vt 0.333004 0.741117
vt 0.300028 0.764123
vt 0.328225 0.777021
vt 0.293711 0.774995
vt 0.311448 0.798147
vt 0.271119 0.578118
vt 0.166118 0.602575
vt 0.231949 0.691275
vt 0.26455 0.678418
vt 0.308054 0.685187
vt 0.332739 0.578256
vt 0.424636 0.640696
vt 0.335863 0.706472
vt 0.166118 0.602575
vt 0.210736 0.719167
vt 0.231949 0.691275
vt 0.103659 0.69455
vt 0.103505 0.756263
vt 0.203962 0.762866
vt 0.216837 0.79561
vt 0.127965 0.861434
vt 0.244738 0.816891
vt 0.216837 0.79561
vt 0.127965 0.861434
vt 0.220015 0.924009
vt 0.281757 0.924146
vt 0.288329 0.823695
vt 0.320999 0.810835
vt 0.386925 0.899581
vt 0.342189 0.782916
vt 0.320999 0.810835
vt 0.386925 0.899581
vt 0.449266 0.807386
vt 0.449266 0.745672
vt 0.348767 0.739235
vt 0.335863 0.706472
vt 0.424636 0.640696
vt 0.293711 0.774995
vt 0.300028 0.764123
vt 0.30264 0.746531
vt 0.29948 0.733846
vt 0.281271 0.777927
vt 0.288749 0.727044
vt 0.26405 0.77459
vt 0.271697 0.72401
vt 0.252917 0.768252
vt 0.259347 0.727141
vt 0.249836 0.755755
vt 0.253144 0.738231
vt 0.224705 0.725098
vt 0.259347 0.727141
vt 0.241501 0.70396
vt 0.253144 0.738231
vt 0.219712 0.761022
vt 0.249836 0.755755
vt 0.229574 0.786055
vt 0.252917 0.768252
vt 0.311448 0.798147
vt 0.293711 0.774995
vt 0.281271 0.777927
vt 0.286492 0.807982
vt 0.26405 0.77459
vt 0.250703 0.802943
vt 0.252917 0.768252
vt 0.229574 0.786055
vt 0.302091 0.699093
vt 0.29948 0.733846
vt 0.323108 0.71602
vt 0.288749 0.727044
vt 0.266396 0.694099
vt 0.271697 0.72401
vt 0.241501 0.70396
vt 0.259347 0.727141
vt 0.385519 0.453618
vt 0.432874 0.372121
vt 0.452458 0.240244
vt 0.428771 0.145149
vt 0.292261 0.475602
vt 0.348322 0.094159
vt 0.163169 0.450583
vt 0.22049 0.071415
vt 0.079709 0.403074
vt 0.127912 0.09488
vt 0.056614 0.30939
vt 0.081413 0.178019
vt 0.94248 0.914577
vt 0.984905 0.812153
vt 0.984905 0.659106
vt 0.94248 0.556683
vt 0.840057 0.957002
vt 0.840057 0.514258
vt 0.68701 0.957002
vt 0.68701 0.514258
vt 0.584586 0.914577
vt 0.584586 0.556683
vt 0.542161 0.812153
vt 0.542161 0.659106
vt 0.266396 0.694099
vt 0.26455 0.678418
vt 0.231949 0.691275
vt 0.241501 0.70396
vt 0.302091 0.699093
vt 0.210736 0.719167
vt 0.308054 0.685187
vt 0.224705 0.725098
vt 0.323108 0.71602
vt 0.203962 0.762866
vt 0.335863 0.706472
vt 0.219712 0.761022
vt 0.333004 0.741117
vt 0.216837 0.79561
vt 0.348767 0.739235
vt 0.229574 0.786055
vt 0.328225 0.777021
vt 0.244738 0.816891
vt 0.342189 0.782916
vt 0.250703 0.802943
vt 0.311448 0.798147
vt 0.288329 0.823695
vt 0.320999 0.810835
vt 0.286492 0.807982
vn -0.01072725 -0.9998723 -0.01184057
vn -0.01072725 -0.9998723 -0.01184057
vn -0.01072725 -0.9998723 -0.01184057
vn -0.01072725 -0.9998723 -0.01184057
vn 0.8992147 -0.4250515 0.1036538
vn 0.6052461 -0.2860949 0.7428505
vn 0.6591136 0.2180427 0.7197406
vn 0.8992147 -0.4250515 0.1036538
vn -0.8992185 0.4250427 -0.103657
vn -0.8992185 0.4250427 -0.103657
vn -0.8992185 0.4250427 -0.103657
vn -0.8992185 0.4250427 -0.103657
vn 0.6052461 -0.2860949 0.7428505
vn 0 0 1
vn 0.2491226 0.5270377 0.812508
vn 0.6591136 0.2180427 0.7197406
vn 0.5102026 -0.5076811 0.6942285
vn -0.006592833 -0.6143415 0.7890127
vn 0 0 1
vn 0.6725697 -0.007218172 0.7399986
vn 0 0 1
vn -0.6068933 0.006513963 0.7947567
vn -0.6068933 0.006513963 0.7947567
vn 0 0 1
vn 0.4048282 0.8564447 0.3203384
vn 0.6591136 0.2180427 0.7197406
vn 0.2491226 0.5270377 0.812508
vn 0.4048282 0.8564447 0.3203384
vn 0.01072727 0.9998723 0.01184058
vn 0.01072727 0.9998723 0.01184058
vn 0.01072727 0.9998723 0.01184058
vn 0.01072727 0.9998723 0.01184058
vn -0.9954013 0.0106829 -0.09519595
vn -0.9954013 0.0106829 -0.09519595
vn -0.9954013 0.0106829 -0.09519595
vn -0.9954013 0.0106829 -0.09519595
vn 0.01040375 0.9694465 -0.2450821
vn 0.01040375 0.9694465 -0.2450821
vn 0.01040375 0.9694465 -0.2450821
vn 0.01040375 0.9694465 -0.2450821
vn -0.964665 0.01035403 0.2632763
vn -0.6068933 0.006513963 0.7947567
vn -0.6068933 0.006513963 0.7947567
vn -0.964665 0.01035403 0.2632763
vn -0.01040366 -0.9694465 0.2450821
vn -0.006592833 -0.6143415 0.7890127
vn 0.5102026 -0.5076811 0.6942285
vn -0.01040366 -0.9694465 0.2450821
vn 0.9954013 -0.01068288 0.09519595
vn 0.5102026 -0.5076811 0.6942285
vn 0.6725697 -0.007218172 0.7399986
vn 0.9954013 -0.01068288 0.09519595
vn -0.4048309 -0.8564432 -0.3203386
vn -0.4048309 -0.8564432 -0.3203386
vn -0.4048309 -0.8564432 -0.3203386
vn -0.4048309 -0.8564432 -0.3203386
vn 0.964665 -0.01035403 -0.2632763
vn 0.964665 -0.01035403 -0.2632763
vn 0.964665 -0.01035403 -0.2632763
vn 0.964665 -0.01035403 -0.2632763
vn 0.3216523 -0.3216523 -0.8905502
vn 0.7824982 -0.1545804 -0.6031596
vn 0.6041599 0.1193502 -0.7878745
vn 0.3216523 0.3216523 -0.8905501
vn 0.09401803 -0.4759265 -0.8744452
vn 0.09401804 0.4759265 -0.8744452
vn -0.09401804 -0.4759265 -0.8744452
vn -0.09401803 0.4759265 -0.8744452
vn -0.3216523 -0.3216523 -0.8905502
vn -0.3216523 0.3216523 -0.8905502
vn -0.6041599 -0.1193502 -0.7878746
vn -0.7824982 0.1545804 -0.6031595
vn -0.3364021 0.3364021 0.8795836
vn -0.2654027 0.2654027 0.9268888
vn -0.4933144 0.0974859 0.8643711
vn -0.4933144 0.0974859 0.8643711
vn -0.6475763 -0.1279702 0.7511782
vn -0.4933144 -0.0974859 0.8643712
vn -0.2654024 -0.265403 0.9268887
vn -0.3364018 -0.3364025 0.8795836
vn -0.09401804 -0.4759265 -0.8744452
vn -0.3216523 -0.3216523 -0.8905502
vn -0.6808264 -0.6808264 -0.270094
vn -0.1887447 -0.95544 -0.2269576
vn 0.1887447 -0.95544 -0.2269576
vn 0.09401803 -0.4759265 -0.8744452
vn 0.3216523 -0.3216523 -0.8905502
vn 0.6808264 -0.6808264 -0.270094
vn -0.3216523 -0.3216523 -0.8905502
vn -0.95544 -0.1887446 -0.2269576
vn -0.6808264 -0.6808264 -0.270094
vn -0.6041599 -0.1193502 -0.7878746
vn -0.7824982 0.1545804 -0.6031595
vn -0.95544 0.1887446 -0.2269576
vn -0.6808264 0.6808264 -0.270094
vn -0.3216523 0.3216523 -0.8905502
vn -0.1887447 0.95544 -0.2269576
vn -0.6808264 0.6808264 -0.270094
vn -0.3216523 0.3216523 -0.8905502
vn -0.09401803 0.4759265 -0.8744452
vn 0.09401804 0.4759265 -0.8744452
vn 0.1887447 0.95544 -0.2269576
vn 0.6808264 0.6808264 -0.270094
vn 0.3216523 0.3216523 -0.8905501
vn 0.95544 0.1887447 -0.2269576
vn 0.6808264 0.6808264 -0.270094
vn 0.3216523 0.3216523 -0.8905501
vn 0.6041599 0.1193502 -0.7878745
vn 0.7824982 -0.1545804 -0.6031596
vn 0.95544 -0.1887447 -0.2269576
vn 0.6808264 -0.6808264 -0.270094
vn 0.3216523 -0.3216523 -0.8905502
vn -0.2654024 -0.265403 0.9268887
vn -0.6475763 -0.1279702 0.7511782
vn -0.4933144 0.0974859 0.8643711
vn -0.2654027 0.2654027 0.9268888
vn -0.07730219 -0.3911793 0.9170623
vn -0.07730242 0.3911786 0.9170625
vn 0.07730219 -0.3911793 0.9170623
vn 0.07730244 0.3911786 0.9170625
vn 0.2654028 -0.2654028 0.9268887
vn 0.265403 0.2654024 0.9268887
vn 0.4933153 -0.09748559 0.8643706
vn 0.6475774 0.1279698 0.7511773
vn 0.4933153 0.09748559 0.8643706
vn 0.265403 0.2654024 0.9268887
vn 0.3364025 0.3364018 0.8795835
vn 0.6475774 0.1279698 0.7511773
vn 0.4933153 -0.09748559 0.8643706
vn 0.4933153 -0.09748559 0.8643706
vn 0.3364022 -0.3364022 0.8795835
vn 0.2654028 -0.2654028 0.9268887
vn -0.3364018 -0.3364025 0.8795836
vn -0.2654024 -0.265403 0.9268887
vn -0.07730219 -0.3911793 0.9170623
vn -0.09748559 -0.4933152 0.8643706
vn 0.07730219 -0.3911793 0.9170623
vn 0.09748559 -0.4933152 0.8643706
vn 0.2654028 -0.2654028 0.9268887
vn 0.3364022 -0.3364022 0.8795835
vn -0.09748591 0.4933144 0.8643711
vn -0.2654027 0.2654027 0.9268888
vn -0.3364021 0.3364021 0.8795836
vn -0.07730242 0.3911786 0.9170625
vn 0.09748592 0.4933144 0.8643711
vn 0.07730244 0.3911786 0.9170625
vn 0.3364025 0.3364018 0.8795835
vn 0.265403 0.2654024 0.9268887
vn 0 0 1
vn 0 0 1
vn 0 0 1
vn 0 0 1
vn 0 0 1
vn 0 0 1
vn 0 0 1
vn 0 0 1
vn 0 0 1
vn 0 0 1
vn 0 0 1
vn 0 0 1
vn 0 0 1
vn 0 0 1
vn 0 0 1
vn 0 0 1
vn 0 0 1
vn 0 0 1
vn 0 0 1
vn 0 0 1
vn 0 0 1
vn 0 0 1
vn 0 0 1
vn 0 0 1
vn 0.09748592 0.4933144 0.8643711
vn 0 0 1
vn 0 0 1
vn 0.3364025 0.3364018 0.8795835
vn -0.09748591 0.4933144 0.8643711
vn 0 0 1
vn 0 0 1
vn 0.4933153 0.09748559 0.8643706
vn -0.3364021 0.3364021 0.8795836
vn 0 0 1
vn 0 0 1
vn 0.4933153 -0.09748559 0.8643706
vn -0.4933144 0.0974859 0.8643711
vn 0 0 1
vn 0 0 1
vn 0.3364022 -0.3364022 0.8795835
vn -0.4933144 -0.0974859 0.8643712
vn 0 0 1
vn 0 0 1
vn 0.09748559 -0.4933152 0.8643706
vn -0.3364018 -0.3364025 0.8795836
vn 0 0 1
vn 0 0 1
vn -0.09748559 -0.4933152 0.8643706
g BBQ_0
f 3/3/3 2/2/2 1/1/1
f 4/4/4 3/3/3 1/1/1
f 7/7/7 6/6/6 5/5/5
f 8/8/8 7/7/7 5/5/5
f 11/11/11 10/10/10 9/9/9
f 12/12/12 11/11/11 9/9/9
f 15/15/15 14/14/14 13/13/13
f 16/16/16 15/15/15 13/13/13
f 19/19/19 18/18/18 17/17/17
f 20/20/20 19/19/19 17/17/17
f 23/23/23 22/22/22 21/21/21
f 24/24/24 23/23/23 21/21/21
f 27/27/27 26/26/26 25/25/25
f 28/28/28 27/27/27 25/25/25
f 31/31/31 30/30/30 29/29/29
f 32/32/32 31/31/31 29/29/29
f 35/35/35 34/34/34 33/33/33
f 36/36/36 35/35/35 33/33/33
f 39/39/39 38/38/38 37/37/37
f 40/40/40 39/39/39 37/37/37
f 43/43/43 42/42/42 41/41/41
f 44/44/44 43/43/43 41/41/41
f 47/47/47 46/46/46 45/45/45
f 48/48/48 47/47/47 45/45/45
f 51/51/51 50/50/50 49/49/49
f 52/52/52 51/51/51 49/49/49
f 55/55/55 54/54/54 53/53/53
f 56/56/56 55/55/55 53/53/53
f 59/59/59 58/58/58 57/57/57
f 60/60/60 59/59/59 57/57/57
f 63/63/63 62/62/62 61/61/61
f 61/61/61 64/64/64 63/63/63
f 61/61/61 65/65/65 64/64/64
f 65/65/65 66/66/66 64/64/64
f 65/65/65 67/67/67 66/66/66
f 67/67/67 68/68/68 66/66/66
f 67/67/67 69/69/69 68/68/68
f 69/69/69 70/70/70 68/68/68
f 69/69/69 71/71/71 70/70/70
f 71/71/71 72/72/72 70/70/70
f 75/75/75 74/74/74 73/73/73
f 76/76/76 75/75/75 73/73/73
f 77/77/77 75/75/75 76/76/76
f 78/78/78 77/77/77 76/76/76
f 79/79/79 77/77/77 78/78/78
f 80/80/80 79/79/79 78/78/78
f 83/83/83 82/82/82 81/81/81
f 84/84/84 83/83/83 81/81/81
f 84/84/84 81/81/81 85/85/85
f 81/81/81 86/86/86 85/85/85
f 86/86/86 87/87/87 85/85/85
f 87/87/87 88/88/88 85/85/85
f 91/91/91 90/90/90 89/89/89
f 90/90/90 92/92/92 89/89/89
f 93/93/93 92/92/92 90/90/90
f 94/94/94 93/93/93 90/90/90
f 93/93/93 94/94/94 95/95/95
f 96/96/96 93/93/93 95/95/95
f 99/99/99 98/98/98 97/97/97
f 100/100/100 99/99/99 97/97/97
f 101/101/101 100/100/100 97/97/97
f 102/102/102 101/101/101 97/97/97
f 101/101/101 102/102/102 103/103/103
f 104/104/104 101/101/101 103/103/103
f 107/107/107 106/106/106 105/105/105
f 108/108/108 107/107/107 105/105/105
f 109/109/109 108/108/108 105/105/105
f 110/110/110 109/109/109 105/105/105
f 109/109/109 110/110/110 111/111/111
f 112/112/112 109/109/109 111/111/111
f 115/115/115 114/114/114 113/113/113
f 113/113/113 116/116/116 115/115/115
f 113/113/113 117/117/117 116/116/116
f 117/117/117 118/118/118 116/116/116
f 117/117/117 119/119/119 118/118/118
f 119/119/119 120/120/120 118/118/118
f 119/119/119 121/121/121 120/120/120
f 121/121/121 122/122/122 120/120/120
f 121/121/121 123/123/123 122/122/122
f 123/123/123 124/124/124 122/122/122
f 127/127/127 126/126/126 125/125/125
f 126/126/126 128/128/128 125/125/125
f 125/125/125 128/128/128 129/129/129
f 128/128/128 130/130/130 129/129/129
f 129/129/129 130/130/130 131/131/131
f 130/130/130 132/132/132 131/131/131
f 135/135/135 134/134/134 133/133/133
f 136/136/136 135/135/135 133/133/133
f 137/137/137 135/135/135 136/136/136
f 138/138/138 137/137/137 136/136/136
f 139/139/139 137/137/137 138/138/138
f 140/140/140 139/139/139 138/138/138
f 143/143/143 142/142/142 141/141/141
f 142/142/142 144/144/144 141/141/141
f 141/141/141 144/144/144 145/145/145
f 144/144/144 146/146/146 145/145/145
f 145/145/145 146/146/146 147/147/147
f 146/146/146 148/148/148 147/147/147
f 151/151/151 150/150/150 149/149/149
f 149/149/149 152/152/152 151/151/151
f 149/149/149 153/153/153 152/152/152
f 153/153/153 154/154/154 152/152/152
f 153/153/153 155/155/155 154/154/154
f 155/155/155 156/156/156 154/154/154
f 155/155/155 157/157/157 156/156/156
f 157/157/157 158/158/158 156/156/156
f 157/157/157 159/159/159 158/158/158
f 159/159/159 160/160/160 158/158/158
f 163/163/163 162/162/162 161/161/161
f 161/161/161 164/164/164 163/163/163
f 161/161/161 165/165/165 164/164/164
f 165/165/165 166/166/166 164/164/164
f 165/165/165 167/167/167 166/166/166
f 167/167/167 168/168/168 166/166/166
f 167/167/167 169/169/169 168/168/168
f 169/169/169 170/170/170 168/168/168
f 169/169/169 171/171/171 170/170/170
f 171/171/171 172/172/172 170/170/170
f 175/175/175 174/174/174 173/173/173
f 176/176/176 175/175/175 173/173/173
f 173/173/173 174/174/174 177/177/177
f 178/178/178 175/175/175 176/176/176
f 174/174/174 179/179/179 177/177/177
f 180/180/180 178/178/178 176/176/176
f 177/177/177 179/179/179 181/181/181
f 182/182/182 178/178/178 180/180/180
f 179/179/179 183/183/183 181/181/181
f 184/184/184 182/182/182 180/180/180
f 181/181/181 183/183/183 185/185/185
f 186/186/186 182/182/182 184/184/184
f 183/183/183 187/187/187 185/185/185
f 188/188/188 186/186/186 184/184/184
f 185/185/185 187/187/187 189/189/189
f 190/190/190 186/186/186 188/188/188
f 187/187/187 191/191/191 189/189/189
f 192/192/192 190/190/190 188/188/188
f 189/189/189 191/191/191 193/193/193
f 194/194/194 190/190/190 192/192/192
f 191/191/191 195/195/195 193/193/193
f 196/196/196 194/194/194 192/192/192
f 193/193/193 195/195/195 196/196/196
f 195/195/195 194/194/194 196/196/196
