g BBQLid
v 0.299149 0.667524 -0.036879
v -0.023644 0.571808 0.300169
v -0.11936 0.667524 -0.036879
v 0.203433 0.571808 0.300169
v 0.527479 0.437584 0.300169
v 0.623195 0.5333 -0.036879
v 0.661703 0.113539 0.300169
v -0.023644 0.571808 0.300169
v -0.443405 0.5333 -0.036879
v -0.11936 0.667524 -0.036879
v -0.347689 0.437584 0.300169
v -0.577629 0.209255 -0.036879
v -0.481913 0.113539 0.300169
v -0.481913 -0.113539 0.300169
v -0.577629 -0.209255 -0.036879
v -0.443405 -0.5333 -0.036879
v -0.347689 -0.437584 0.30017
v -0.11936 -0.667524 -0.036879
v -0.443405 -0.5333 -0.036879
v -0.347689 -0.437584 0.30017
v -0.023644 -0.571808 0.30017
v 0.203433 -0.571808 0.30017
v 0.299149 -0.667524 -0.036879
v 0.623195 -0.5333 -0.036879
v 0.527479 -0.437584 0.30017
v 0.757419 -0.209255 -0.036879
v 0.661703 -0.113539 0.300169
v 0.661703 0.113539 0.300169
v 0.757419 0.209255 -0.036879
v 0.623195 0.5333 -0.036879
v -0.143456 0.234285 0.419806
v -0.347689 0.437584 0.300169
v -0.023644 0.571808 0.300169
v -0.21509 0.060654 0.419806
v -0.481913 0.113539 0.300169
v -0.21509 -0.060654 0.419806
v -0.481913 -0.113539 0.300169
v -0.143456 -0.234285 0.419807
v -0.347689 -0.437584 0.30017
v 0.029483 -0.306205 0.419807
v -0.023644 -0.571808 0.30017
v -0.143456 0.234285 0.419806
v -0.023644 0.571808 0.300169
v 0.029483 0.306205 0.419806
v 0.203433 0.571808 0.300169
v 0.150306 0.306205 0.419806
v 0.527479 0.437584 0.300169
v 0.150306 0.306205 0.419806
v 0.527479 0.437584 0.300169
v 0.323246 0.234285 0.419806
v 0.661703 0.113539 0.300169
v 0.394879 0.060654 0.419806
v 0.661703 -0.113539 0.300169
v 0.394879 -0.060654 0.419806
v 0.527479 -0.437584 0.30017
v 0.323246 -0.234285 0.419807
v 0.203433 -0.571808 0.30017
v 0.150307 -0.306205 0.419807
v -0.023644 -0.571808 0.30017
v 0.029483 -0.306205 0.419807
v -0.04813 0.050395 0.501005
v -0.04813 -0.050395 0.501005
v 0.227919 -0.050395 0.501005
v 0.227919 0.050395 0.501005
v 0.029483 -0.306205 0.419807
v 0.041967 -0.065865 0.429264
v 0.137822 -0.065865 0.429264
v -0.143456 -0.234285 0.419807
v -0.04813 -0.050395 0.426723
v -0.21509 -0.060654 0.419806
v -0.0905 -0.013047 0.426723
v -0.21509 0.060654 0.419806
v -0.0905 0.013047 0.426723
v -0.143456 0.234285 0.419806
v -0.04813 0.050395 0.426723
v 0.029483 0.306205 0.419806
v 0.041967 0.065865 0.429264
v 0.029483 -0.306205 0.419807
v 0.137822 -0.065865 0.429264
v 0.150307 -0.306205 0.419807
v 0.227919 -0.050395 0.426723
v 0.323246 -0.234285 0.419807
v 0.137822 0.065865 0.429264
v 0.270289 -0.013047 0.426723
v 0.394879 -0.060654 0.419806
v 0.270289 0.013047 0.426723
v 0.394879 0.060654 0.419806
v 0.227919 0.050395 0.426723
v 0.323246 0.234285 0.419806
v 0.150306 0.306205 0.419806
v 0.041967 0.065865 0.429264
v 0.029483 0.306205 0.419806
v 0.270289 0.013047 0.473466
v 0.270289 0.013047 0.532227
v 0.227919 0.050395 0.559767
v 0.227919 0.050395 0.501005
v 0.270289 0.013047 0.426723
v 0.227919 0.050395 0.426723
v 0.137822 -0.065865 0.429264
v 0.041967 0.065865 0.429264
v 0.137822 0.065865 0.429264
v 0.041967 -0.065865 0.429264
v -0.04813 0.050395 0.426723
v -0.04813 -0.050395 0.426723
v 0.227919 0.050395 0.559767
v 0.270289 0.013047 0.532227
v 0.270289 -0.013046 0.532227
v 0.227919 -0.050395 0.559767
v -0.04813 0.050395 0.559767
v -0.04813 -0.050395 0.559767
v -0.0905 -0.013046 0.532227
v -0.0905 0.013047 0.532227
v -0.0905 0.013047 0.473466
v -0.0905 -0.013046 0.473465
v -0.0905 0.013047 0.426723
v -0.0905 -0.013047 0.426723
v -0.0905 -0.013046 0.473465
v -0.0905 -0.013046 0.532227
v -0.04813 -0.050395 0.559767
v -0.04813 -0.050395 0.501005
v -0.04813 0.050395 0.501005
v -0.04813 0.050395 0.559767
v -0.0905 0.013047 0.532227
v -0.0905 0.013047 0.473466
v 0.227919 -0.050395 0.501005
v 0.227919 -0.050395 0.559767
v 0.270289 -0.013046 0.532227
v 0.270289 -0.013046 0.473466
v 0.227919 -0.050395 0.426723
v 0.270289 0.013047 0.532227
v 0.270289 -0.013047 0.426723
v 0.270289 0.013047 0.473466
v 0.270289 0.013047 0.426723
v -0.04813 -0.050395 0.426723
v -0.04813 -0.050395 0.501005
v -0.04813 0.050395 0.501005
v -0.04813 0.050395 0.426723
v -0.04813 0.050395 0.426723
v -0.04813 0.050395 0.501005
v -0.0905 0.013047 0.473466
v -0.0905 0.013047 0.426723
v -0.0905 -0.013047 0.426723
v -0.0905 -0.013046 0.473465
v -0.04813 -0.050395 0.501005
v -0.04813 -0.050395 0.426723
v 0.227919 0.050395 0.426723
v 0.227919 0.050395 0.501005
v 0.227919 -0.050395 0.501005
v 0.227919 -0.050395 0.426723
v 0.227919 -0.050395 0.559767
v 0.227919 -0.050395 0.501005
v -0.04813 -0.050395 0.501005
v -0.04813 -0.050395 0.559767
v 0.227919 0.050395 0.501005
v 0.227919 0.050395 0.559767
v -0.04813 0.050395 0.559767
v -0.04813 0.050395 0.501005
v -0.04813 0.050395 0.559767
v 0.227919 0.050395 0.559767
v 0.227919 -0.050395 0.559767
v -0.04813 -0.050395 0.559767
v 0.300126 -0.60817 -0.036879
v 0.241694 -0.439134 0.296618
v -0.061904 -0.439134 0.296618
v -0.120337 -0.60817 -0.036879
v -0.265081 -0.354975 0.296618
v -0.401722 -0.491617 -0.036879
v -0.518276 0.210231 -0.036879
v -0.265081 0.354975 0.296618
v -0.401722 0.491617 -0.036879
v -0.349239 0.151799 0.296618
v -0.518276 -0.210231 -0.036879
v -0.349239 -0.151799 0.296618
v -0.401722 -0.491617 -0.036879
v -0.265081 -0.354975 0.296618
v 0.581511 -0.491617 -0.036879
v 0.241694 -0.439134 0.296618
v 0.300126 -0.60817 -0.036879
v 0.44487 -0.354975 0.296618
v 0.698065 -0.210231 -0.036879
v 0.529028 -0.151799 0.296618
v 0.698065 0.210231 -0.036879
v 0.529028 0.151799 0.296618
v -0.401722 0.491617 -0.036879
v -0.265081 0.354975 0.296618
v -0.061904 0.439134 0.296618
v -0.120337 0.608171 -0.036879
v 0.241694 0.439134 0.296618
v 0.300126 0.608171 -0.036879
v 0.44487 0.354975 0.296618
v 0.581511 0.491617 -0.036879
v 0.529028 0.151799 0.296618
v 0.698065 0.210231 -0.036879
v 0.44487 -0.354975 0.296618
v 0.529028 -0.151799 0.296618
v 0.529028 0.151799 0.296618
v 0.44487 0.354975 0.296618
v 0.241694 -0.439134 0.296618
v 0.241694 0.439134 0.296618
v -0.061904 -0.439134 0.296618
v -0.061904 0.439134 0.296618
v -0.265081 -0.354975 0.296618
v -0.265081 0.354975 0.296618
v -0.349239 -0.151799 0.296618
v -0.349239 0.151799 0.296618
v -0.401722 0.491617 -0.036879
v -0.577629 0.209255 -0.036879
v -0.518276 0.210231 -0.036879
v -0.443405 0.5333 -0.036879
v -0.577629 -0.209255 -0.036879
v -0.120337 0.608171 -0.036879
v -0.518276 -0.210231 -0.036879
v -0.11936 0.667524 -0.036879
v -0.443405 -0.5333 -0.036879
v 0.300126 0.608171 -0.036879
v -0.401722 -0.491617 -0.036879
v 0.299149 0.667524 -0.036879
v -0.11936 -0.667524 -0.036879
v 0.581511 0.491617 -0.036879
v -0.120337 -0.60817 -0.036879
v 0.623195 0.5333 -0.036879
v 0.299149 -0.667524 -0.036879
v 0.698065 0.210231 -0.036879
v 0.300126 -0.60817 -0.036879
v 0.757419 0.209255 -0.036879
v 0.623195 -0.5333 -0.036879
v 0.698065 -0.210231 -0.036879
v 0.581511 -0.491617 -0.036879
v 0.757419 -0.209255 -0.036879
vt 0.308054 0.685187
vt 0.271119 0.578118
vt 0.26455 0.678418
vt 0.332739 0.578256
vt 0.424636 0.640696
vt 0.335863 0.706472
vt 0.449266 0.745672
vt 0.271119 0.578118
vt 0.231949 0.691275
vt 0.26455 0.678418
vt 0.166118 0.602575
vt 0.210736 0.719167
vt 0.103659 0.69455
vt 0.103505 0.756263
vt 0.203962 0.762866
vt 0.216837 0.79561
vt 0.127965 0.861434
vt 0.244738 0.816891
vt 0.216837 0.79561
vt 0.127965 0.861434
vt 0.220015 0.924009
vt 0.281757 0.924146
vt 0.288329 0.823695
vt 0.320999 0.810835
vt 0.386925 0.899581
vt 0.342189 0.782916
vt 0.449266 0.807386
vt 0.449266 0.745672
vt 0.348767 0.739235
vt 0.335863 0.706472
vt 0.239504 0.840685
vt 0.281862 0.914052
vt 0.206117 0.934348
vt 0.262348 0.810762
vt 0.337311 0.858603
vt 0.268766 0.786807
vt 0.357607 0.782858
vt 0.263944 0.749472
vt 0.337311 0.707113
vt 0.234021 0.726628
vt 0.281862 0.651664
vt 0.239504 0.840685
vt 0.206117 0.934348
vt 0.202168 0.845507
vt 0.130372 0.914052
vt 0.178213 0.839089
vt 0.074923 0.858603
vt 0.178213 0.839089
vt 0.074923 0.858603
vt 0.14829 0.816244
vt 0.054627 0.782858
vt 0.143468 0.778909
vt 0.074923 0.707113
vt 0.149887 0.754954
vt 0.130372 0.651664
vt 0.172731 0.725031
vt 0.206117 0.631368
vt 0.210067 0.720209
vt 0.281862 0.651664
vt 0.234021 0.726628
vt 0.757049 0.238991
vt 0.757037 0.238866
vt 0.756947 0.239223
vt 0.757178 0.238906
vt 0.0902 0.866185
vt 0.161217 0.862486
vt 0.161218 0.83419
vt 0.111452 0.917274
vt 0.165777 0.889096
vt 0.162739 0.938437
vt 0.176806 0.901603
vt 0.198581 0.938437
vt 0.184508 0.901603
vt 0.249866 0.917274
vt 0.19554 0.889097
vt 0.271119 0.866186
vt 0.200101 0.86249
vt 0.0902 0.866185
vt 0.161218 0.83419
vt 0.0902 0.830494
vt 0.16578 0.807584
vt 0.111454 0.779406
vt 0.200102 0.834195
vt 0.176811 0.795077
vt 0.162738 0.758243
vt 0.184513 0.795077
vt 0.19858 0.758243
vt 0.195542 0.807584
vt 0.249868 0.779407
vt 0.271119 0.830496
vt 0.200101 0.86249
vt 0.271119 0.866186
vt 0.757416 0.238459
vt 0.757087 0.238928
vt 0.757095 0.238961
vt 0.757178 0.238906
vt 0.82857 0.263774
vt 0.709881 0.336407
vt 0.161218 0.83419
vt 0.200101 0.86249
vt 0.200102 0.834195
vt 0.161217 0.862486
vt 0.19554 0.889097
vt 0.165777 0.889096
vt 0.757095 0.238961
vt 0.757087 0.238928
vt 0.75707 0.238999
vt 0.757069 0.239016
vt 0.757051 0.238991
vt 0.757087 0.238989
vt 0.757025 0.238973
vt 0.757041 0.238979
vt 0.757038 0.238983
vt 0.757033 0.23898
vt 0.757038 0.238984
vt 0.757037 0.238983
vt 0.757033 0.23898
vt 0.757025 0.238973
vt 0.757087 0.238989
vt 0.757037 0.238866
vt 0.757049 0.238991
vt 0.757051 0.238991
vt 0.757041 0.238979
vt 0.757038 0.238983
vt 0.756947 0.239223
vt 0.757069 0.239016
vt 0.75707 0.238999
vt 0.756751 0.238408
vt 0.709881 0.148928
vt 0.757087 0.238928
vt 0.815318 0.209838
vt 0.757416 0.238459
vt 0.82857 0.263774
vt 0.757037 0.238983
vt 0.757037 0.238866
vt 0.757049 0.238991
vt 0.757041 0.238984
vt 0.757041 0.238984
vt 0.757049 0.238991
vt 0.757038 0.238983
vt 0.757038 0.238984
vt 0.757037 0.238983
vt 0.757033 0.23898
vt 0.757037 0.238866
vt 0.757037 0.238983
vt 0.709881 0.336407
vt 0.757178 0.238906
vt 0.756947 0.239223
vt 0.709881 0.148928
vt 0.757069 0.239016
vt 0.756947 0.239223
vt 0.757037 0.238866
vt 0.757087 0.238989
vt 0.757178 0.238906
vt 0.757095 0.238961
vt 0.757051 0.238991
vt 0.757049 0.238991
vt 0.757051 0.238991
vt 0.757095 0.238961
vt 0.757069 0.239016
vt 0.757087 0.238989
vt 0.789061 0.4003
vt 0.76019 0.316172
vt 0.699599 0.314253
vt 0.672861 0.400563
vt 0.659818 0.297856
vt 0.597711 0.359962
vt 0.559858 0.170245
vt 0.662444 0.155908
vt 0.599098 0.094553
vt 0.646834 0.196928
vt 0.559803 0.285239
vt 0.644067 0.257284
vt 0.597711 0.359962
vt 0.659818 0.297856
vt 0.863838 0.361323
vt 0.76019 0.316172
vt 0.789061 0.4003
vt 0.800446 0.2991
vt 0.904319 0.285358
vt 0.817036 0.258169
vt 0.904323 0.168665
vt 0.819599 0.197494
vt 0.599098 0.094553
vt 0.662444 0.155908
vt 0.70281 0.138818
vt 0.673213 0.054963
vt 0.762582 0.139733
vt 0.78905 0.053143
vt 0.802767 0.156692
vt 0.865174 0.093424
vt 0.819599 0.197494
vt 0.904323 0.168665
vt 0.800446 0.2991
vt 0.817036 0.258169
vt 0.819599 0.197494
vt 0.802767 0.156692
vt 0.76019 0.316172
vt 0.762582 0.139733
vt 0.699599 0.314253
vt 0.70281 0.138818
vt 0.659818 0.297856
vt 0.662444 0.155908
vt 0.644067 0.257284
vt 0.646834 0.196928
vt 0.241501 0.70396
vt 0.210736 0.719167
vt 0.224705 0.725098
vt 0.231949 0.691275
vt 0.203962 0.762866
vt 0.266396 0.694099
vt 0.219712 0.761022
vt 0.26455 0.678418
vt 0.216837 0.79561
vt 0.302091 0.699093
vt 0.229574 0.786055
vt 0.308054 0.685187
vt 0.244738 0.816891
vt 0.323108 0.71602
vt 0.250703 0.802943
vt 0.335863 0.706472
vt 0.288329 0.823695
vt 0.333004 0.741117
vt 0.286492 0.807982
vt 0.348767 0.739235
vt 0.320999 0.810835
vt 0.328225 0.777021
vt 0.311448 0.798147
vt 0.342189 0.782916
vn 0.1826974 0.9309182 0.3162482
vn -0.1425874 0.723394 0.6755516
vn -0.182698 0.9309181 0.3162484
vn 0.142587 0.7233943 0.6755515
vn 0.4969699 0.496967 0.7113683
vn 0.6561661 0.656167 0.3726807
vn 0.7229607 0.142423 0.6760499
vn -0.1425874 0.723394 0.6755516
vn -0.6561665 0.6561666 0.3726807
vn -0.182698 0.9309181 0.3162484
vn -0.4969702 0.4969669 0.7113681
vn -0.9309181 0.182698 0.3162484
vn -0.7229609 0.1424233 0.6760496
vn -0.7229615 -0.1424223 0.6760493
vn -0.9309182 -0.1826977 0.3162481
vn -0.6561669 -0.6561666 0.3726799
vn -0.4969711 -0.4969662 0.711368
vn -0.182698 -0.9309184 0.3162474
vn -0.6561669 -0.6561666 0.3726799
vn -0.4969711 -0.4969662 0.711368
vn -0.1425875 -0.7233943 0.6755513
vn 0.1425871 -0.7233945 0.6755511
vn 0.1826975 -0.9309185 0.3162474
vn 0.6561666 -0.656167 0.3726799
vn 0.4969708 -0.4969662 0.7113681
vn 0.9309182 -0.1826977 0.316248
vn 0.7229612 -0.1424221 0.6760496
vn 0.7229607 0.142423 0.6760499
vn 0.9309181 0.182698 0.3162484
vn 0.6561661 0.656167 0.3726807
vn -0.1523756 0.1508841 0.9767372
vn -0.4969702 0.4969669 0.7113681
vn -0.1425874 0.723394 0.6755516
vn -0.2248424 0.0453619 0.9733386
vn -0.7229609 0.1424233 0.6760496
vn -0.2248428 -0.04535999 0.9733386
vn -0.7229615 -0.1424223 0.6760493
vn -0.1523757 -0.1508811 0.9767377
vn -0.4969711 -0.4969662 0.711368
vn -0.04536698 -0.2198627 0.9744754
vn -0.1425875 -0.7233943 0.6755513
vn -0.1523756 0.1508841 0.9767372
vn -0.1425874 0.723394 0.6755516
vn -0.04536733 0.2198648 0.9744748
vn 0.142587 0.7233943 0.6755515
vn 0.04536717 0.2198649 0.9744748
vn 0.4969699 0.496967 0.7113683
vn 0.04536717 0.2198649 0.9744748
vn 0.4969699 0.496967 0.7113683
vn 0.1523754 0.1508839 0.9767373
vn 0.7229607 0.142423 0.6760499
vn 0.224842 0.04536164 0.9733387
vn 0.7229612 -0.1424221 0.6760496
vn 0.2248425 -0.04535973 0.9733387
vn 0.4969708 -0.4969662 0.7113681
vn 0.1523756 -0.150881 0.9767378
vn 0.1425871 -0.7233945 0.6755511
vn 0.04536693 -0.2198628 0.9744753
vn -0.1425875 -0.7233943 0.6755513
vn -0.04536698 -0.2198627 0.9744754
vn 0 0 -1
vn 0 0 -1
vn 0 0 -1
vn 0 0 -1
vn -0.04536698 -0.2198627 0.9744754
vn -0.01542376 -0.01452722 0.9997755
vn 0.009783936 -0.01452708 0.9998466
vn -0.1523757 -0.1508811 0.9767377
vn -0.2349283 -0.2521134 0.9387479
vn -0.2248428 -0.04535999 0.9733386
vn -0.6342594 -0.2786524 0.7211573
vn -0.2248424 0.0453619 0.9733386
vn -0.6342585 0.2786566 0.7211565
vn -0.1523756 0.1508841 0.9767372
vn -0.1875093 0.1939426 0.962926
vn -0.04536733 0.2198648 0.9744748
vn -0.009784224 0.01452877 0.9998466
vn -0.04536698 -0.2198627 0.9744754
vn 0.009783936 -0.01452708 0.9998466
vn 0.04536693 -0.2198628 0.9744753
vn 0.1875103 -0.1939389 0.9629266
vn 0.1523756 -0.150881 0.9767378
vn 0.01542402 0.01452888 0.9997755
vn 0.6342594 -0.2786524 0.7211573
vn 0.2248425 -0.04535973 0.9733387
vn 0.6342585 0.2786566 0.7211565
vn 0.224842 0.04536164 0.9733387
vn 0.2349269 0.2521181 0.9387469
vn 0.1523754 0.1508839 0.9767373
vn 0.04536717 0.2198649 0.9744748
vn -0.009784224 0.01452877 0.9998466
vn -0.04536733 0.2198648 0.9744748
vn 0.9113864 0.4115518 0
vn 0.890856 0.3029098 0.3385575
vn 0.4292134 0.6227611 0.6541747
vn 0.4675553 0.8839638 0
vn 0.6342585 0.2786566 0.7211565
vn 0.2349269 0.2521181 0.9387469
vn 0.009783936 -0.01452708 0.9998466
vn -0.009784224 0.01452877 0.9998466
vn 0.01542402 0.01452888 0.9997755
vn -0.01542376 -0.01452722 0.9997755
vn -0.1875093 0.1939426 0.962926
vn -0.2349283 -0.2521134 0.9387479
vn 0.4292134 0.6227611 0.6541747
vn 0.890856 0.3029098 0.3385575
vn 0.8908579 -0.3029055 0.3385567
vn 0.4292171 -0.6227582 0.654175
vn -0.4292135 0.6227611 0.6541747
vn -0.4292171 -0.6227583 0.654175
vn -0.8908579 -0.3029055 0.3385567
vn -0.8908561 0.3029098 0.3385575
vn -0.9113865 0.4115517 0
vn -0.9113886 -0.4115468 0
vn -0.6342585 0.2786566 0.7211565
vn -0.6342594 -0.2786524 0.7211573
vn -0.9113886 -0.4115468 0
vn -0.8908579 -0.3029055 0.3385567
vn -0.4292171 -0.6227583 0.654175
vn -0.4675618 -0.8839604 0
vn -0.4675554 0.8839638 0
vn -0.4292135 0.6227611 0.6541747
vn -0.8908561 0.3029098 0.3385575
vn -0.9113865 0.4115517 0
vn 0.4675618 -0.8839605 0
vn 0.4292171 -0.6227582 0.654175
vn 0.8908579 -0.3029055 0.3385567
vn 0.9113886 -0.4115469 0
vn 0.1875103 -0.1939389 0.9629266
vn 0.890856 0.3029098 0.3385575
vn 0.6342594 -0.2786524 0.7211573
vn 0.9113864 0.4115518 0
vn 0.6342585 0.2786566 0.7211565
vn 1 0 0
vn 1 0 0
vn 1 0 0
vn 1 0 0
vn -0.1875093 0.1939426 0.962926
vn -0.4675554 0.8839638 0
vn -0.9113865 0.4115517 0
vn -0.6342585 0.2786566 0.7211565
vn -0.6342594 -0.2786524 0.7211573
vn -0.9113886 -0.4115468 0
vn -0.4675618 -0.8839604 0
vn -0.2349283 -0.2521134 0.9387479
vn -1 0 0
vn -1 0 0
vn -1 0 0
vn -1 0 0
vn 0.4292171 -0.6227582 0.654175
vn 0.4675618 -0.8839605 0
vn -0.4675618 -0.8839604 0
vn -0.4292171 -0.6227583 0.654175
vn 0.4675553 0.8839638 0
vn 0.4292134 0.6227611 0.6541747
vn -0.4292135 0.6227611 0.6541747
vn -0.4675554 0.8839638 0
vn -0.4292135 0.6227611 0.6541747
vn 0.4292134 0.6227611 0.6541747
vn 0.4292171 -0.6227582 0.654175
vn -0.4292171 -0.6227583 0.654175
vn -0.09916143 0.5015581 -0.8594221
vn -0.07860113 0.3975642 -0.9142016
vn 0.07860098 0.3975643 -0.9142016
vn 0.09916124 0.5015582 -0.8594221
vn 0.2699474 0.2699474 -0.9242601
vn 0.3423595 0.3423595 -0.8749743
vn 0.5015576 -0.09916119 -0.8594225
vn 0.2699476 -0.2699471 -0.9242602
vn 0.3423598 -0.3423591 -0.8749743
vn 0.6579012 -0.1300713 -0.7417866
vn 0.5015577 0.0991612 -0.8594225
vn 0.5015577 0.0991612 -0.8594225
vn 0.3423595 0.3423595 -0.8749743
vn 0.2699474 0.2699474 -0.9242601
vn -0.3423597 0.3423595 -0.8749741
vn -0.07860113 0.3975642 -0.9142016
vn -0.09916143 0.5015581 -0.8594221
vn -0.2699475 0.2699474 -0.9242601
vn -0.5015576 0.0991612 -0.8594225
vn -0.6579013 0.1300713 -0.7417866
vn -0.5015576 -0.09916118 -0.8594225
vn -0.5015577 -0.0991612 -0.8594225
vn 0.3423598 -0.3423591 -0.8749743
vn 0.2699476 -0.2699471 -0.9242602
vn 0.07860123 -0.3975635 -0.9142019
vn 0.09916154 -0.5015572 -0.8594227
vn -0.07860138 -0.3975635 -0.9142018
vn -0.09916175 -0.5015573 -0.8594227
vn -0.2699477 -0.2699471 -0.9242601
vn -0.34236 -0.3423591 -0.8749743
vn -0.5015577 -0.0991612 -0.8594225
vn -0.5015576 -0.09916118 -0.8594225
vn -0.2699475 0.2699474 -0.9242601
vn -0.6579013 0.1300713 -0.7417866
vn -0.5015577 -0.0991612 -0.8594225
vn -0.2699477 -0.2699471 -0.9242601
vn -0.07860113 0.3975642 -0.9142016
vn -0.07860138 -0.3975635 -0.9142018
vn 0.07860098 0.3975643 -0.9142016
vn 0.07860123 -0.3975635 -0.9142019
vn 0.2699474 0.2699474 -0.9242601
vn 0.2699476 -0.2699471 -0.9242602
vn 0.5015577 0.0991612 -0.8594225
vn 0.6579012 -0.1300713 -0.7417866
vn 0.3423598 -0.3423591 -0.8749743
vn 0 0 -1
vn 0.5015576 -0.09916119 -0.8594225
vn 0 0 -1
vn 0 0 -1
vn 0.09916154 -0.5015572 -0.8594227
vn 0.5015577 0.0991612 -0.8594225
vn 0 0 -1
vn 0 0 -1
vn -0.09916175 -0.5015573 -0.8594227
vn 0.3423595 0.3423595 -0.8749743
vn 0 0 -1
vn 0 0 -1
vn -0.34236 -0.3423591 -0.8749743
vn 0.09916124 0.5015582 -0.8594221
vn 0 0 -1
vn 0 0 -1
vn -0.5015576 -0.09916118 -0.8594225
vn -0.09916143 0.5015581 -0.8594221
vn 0 0 -1
vn 0 0 -1
vn -0.5015576 0.0991612 -0.8594225
vn -0.3423597 0.3423595 -0.8749741
vn 0 0 -1
g BBQLid_0
f 3/3/3 2/2/2 1/1/1
f 2/2/2 4/4/4 1/1/1
f 4/4/4 5/5/5 1/1/1
f 5/5/5 6/6/6 1/1/1
f 5/5/5 7/7/7 6/6/6
f 10/10/10 9/9/9 8/8/8
f 9/9/9 11/11/11 8/8/8
f 9/9/9 12/12/12 11/11/11
f 12/12/12 13/13/13 11/11/11
f 14/14/14 13/13/13 12/12/12
f 15/15/15 14/14/14 12/12/12
f 14/14/14 15/15/15 16/16/16
f 17/17/17 14/14/14 16/16/16
f 20/20/20 19/19/19 18/18/18
f 21/21/21 20/20/20 18/18/18
f 22/22/22 21/21/21 18/18/18
f 23/23/23 22/22/22 18/18/18
f 22/22/22 23/23/23 24/24/24
f 25/25/25 22/22/22 24/24/24
f 25/25/25 24/24/24 26/26/26
f 27/27/27 25/25/25 26/26/26
f 28/28/28 27/27/27 26/26/26
f 29/29/29 28/28/28 26/26/26
f 28/28/28 29/29/29 30/30/30
f 33/33/33 32/32/32 31/31/31
f 31/31/31 32/32/32 34/34/34
f 32/32/32 35/35/35 34/34/34
f 34/34/34 35/35/35 36/36/36
f 35/35/35 37/37/37 36/36/36
f 36/36/36 37/37/37 38/38/38
f 37/37/37 39/39/39 38/38/38
f 38/38/38 39/39/39 40/40/40
f 39/39/39 41/41/41 40/40/40
f 44/44/44 43/43/43 42/42/42
f 45/45/45 43/43/43 44/44/44
f 46/46/46 45/45/45 44/44/44
f 47/47/47 45/45/45 46/46/46
f 50/50/50 49/49/49 48/48/48
f 51/51/51 49/49/49 50/50/50
f 52/52/52 51/51/51 50/50/50
f 53/53/53 51/51/51 52/52/52
f 54/54/54 53/53/53 52/52/52
f 55/55/55 53/53/53 54/54/54
f 56/56/56 55/55/55 54/54/54
f 57/57/57 55/55/55 56/56/56
f 58/58/58 57/57/57 56/56/56
f 59/59/59 57/57/57 58/58/58
f 60/60/60 59/59/59 58/58/58
f 63/63/63 62/62/62 61/61/61
f 64/64/64 63/63/63 61/61/61
f 67/67/67 66/66/66 65/65/65
f 65/65/65 66/66/66 68/68/68
f 66/66/66 69/69/69 68/68/68
f 68/68/68 69/69/69 70/70/70
f 69/69/69 71/71/71 70/70/70
f 70/70/70 71/71/71 72/72/72
f 71/71/71 73/73/73 72/72/72
f 72/72/72 73/73/73 74/74/74
f 73/73/73 75/75/75 74/74/74
f 74/74/74 75/75/75 76/76/76
f 75/75/75 77/77/77 76/76/76
f 80/80/80 79/79/79 78/78/78
f 81/81/81 79/79/79 80/80/80
f 82/82/82 81/81/81 80/80/80
f 83/83/83 79/79/79 81/81/81
f 84/84/84 81/81/81 82/82/82
f 85/85/85 84/84/84 82/82/82
f 86/86/86 84/84/84 85/85/85
f 87/87/87 86/86/86 85/85/85
f 88/88/88 86/86/86 87/87/87
f 81/81/81 88/88/88 83/83/83
f 89/89/89 88/88/88 87/87/87
f 83/83/83 88/88/88 89/89/89
f 90/90/90 83/83/83 89/89/89
f 91/91/91 83/83/83 90/90/90
f 92/92/92 91/91/91 90/90/90
f 95/95/95 94/94/94 93/93/93
f 96/96/96 95/95/95 93/93/93
f 96/96/96 93/93/93 97/97/97
f 98/98/98 96/96/96 97/97/97
f 101/101/101 100/100/100 99/99/99
f 100/100/100 102/102/102 99/99/99
f 100/100/100 103/103/103 102/102/102
f 103/103/103 104/104/104 102/102/102
f 107/107/107 106/106/106 105/105/105
f 108/108/108 107/107/107 105/105/105
f 111/111/111 110/110/110 109/109/109
f 112/112/112 111/111/111 109/109/109
f 111/111/111 112/112/112 113/113/113
f 114/114/114 111/111/111 113/113/113
f 114/114/114 113/113/113 115/115/115
f 116/116/116 114/114/114 115/115/115
f 119/119/119 118/118/118 117/117/117
f 120/120/120 119/119/119 117/117/117
f 123/123/123 122/122/122 121/121/121
f 124/124/124 123/123/123 121/121/121
f 127/127/127 126/126/126 125/125/125
f 128/128/128 127/127/127 125/125/125
f 128/128/128 125/125/125 129/129/129
f 130/130/130 127/127/127 128/128/128
f 131/131/131 128/128/128 129/129/129
f 132/132/132 130/130/130 128/128/128
f 132/132/132 128/128/128 131/131/131
f 133/133/133 132/132/132 131/131/131
f 136/136/136 135/135/135 134/134/134
f 137/137/137 136/136/136 134/134/134
f 140/140/140 139/139/139 138/138/138
f 141/141/141 140/140/140 138/138/138
f 144/144/144 143/143/143 142/142/142
f 145/145/145 144/144/144 142/142/142
f 148/148/148 147/147/147 146/146/146
f 149/149/149 148/148/148 146/146/146
f 152/152/152 151/151/151 150/150/150
f 153/153/153 152/152/152 150/150/150
f 156/156/156 155/155/155 154/154/154
f 157/157/157 156/156/156 154/154/154
f 160/160/160 159/159/159 158/158/158
f 161/161/161 160/160/160 158/158/158
f 164/164/164 163/163/163 162/162/162
f 165/165/165 164/164/164 162/162/162
f 166/166/166 164/164/164 165/165/165
f 167/167/167 166/166/166 165/165/165
f 170/170/170 169/169/169 168/168/168
f 169/169/169 171/171/171 168/168/168
f 168/168/168 171/171/171 172/172/172
f 171/171/171 173/173/173 172/172/172
f 172/172/172 173/173/173 174/174/174
f 173/173/173 175/175/175 174/174/174
f 178/178/178 177/177/177 176/176/176
f 177/177/177 179/179/179 176/176/176
f 176/176/176 179/179/179 180/180/180
f 179/179/179 181/181/181 180/180/180
f 180/180/180 181/181/181 182/182/182
f 181/181/181 183/183/183 182/182/182
f 186/186/186 185/185/185 184/184/184
f 187/187/187 186/186/186 184/184/184
f 188/188/188 186/186/186 187/187/187
f 189/189/189 188/188/188 187/187/187
f 190/190/190 188/188/188 189/189/189
f 191/191/191 190/190/190 189/189/189
f 192/192/192 190/190/190 191/191/191
f 193/193/193 192/192/192 191/191/191
f 196/196/196 195/195/195 194/194/194
f 194/194/194 197/197/197 196/196/196
f 194/194/194 198/198/198 197/197/197
f 198/198/198 199/199/199 197/197/197
f 198/198/198 200/200/200 199/199/199
f 200/200/200 201/201/201 199/199/199
f 200/200/200 202/202/202 201/201/201
f 202/202/202 203/203/203 201/201/201
f 202/202/202 204/204/204 203/203/203
f 204/204/204 205/205/205 203/203/203
f 208/208/208 207/207/207 206/206/206
f 207/207/207 209/209/209 206/206/206
f 210/210/210 207/207/207 208/208/208
f 206/206/206 209/209/209 211/211/211
f 212/212/212 210/210/210 208/208/208
f 209/209/209 213/213/213 211/211/211
f 214/214/214 210/210/210 212/212/212
f 211/211/211 213/213/213 215/215/215
f 216/216/216 214/214/214 212/212/212
f 213/213/213 217/217/217 215/215/215
f 218/218/218 214/214/214 216/216/216
f 215/215/215 217/217/217 219/219/219
f 220/220/220 218/218/218 216/216/216
f 217/217/217 221/221/221 219/219/219
f 222/222/222 218/218/218 220/220/220
f 219/219/219 221/221/221 223/223/223
f 224/224/224 222/222/222 220/220/220
f 221/221/221 225/225/225 223/223/223
f 226/226/226 222/222/222 224/224/224
f 223/223/223 225/225/225 227/227/227
f 228/228/228 226/226/226 224/224/224
f 225/225/225 229/229/229 227/227/227
f 229/229/229 226/226/226 228/228/228
f 227/227/227 229/229/229 228/228/228
