g BeeHiveBroken2
v -0.169404 -0.175405 0.341861
v -0.224968 0 0.331182
v -0.252009 0.001593 0.258786
v -0.224968 0 0.331182
v -0.193297 0.088812 0.338025
v -0.252009 0.001593 0.258786
v -0.274568 0 0.33749
v -0.298466 0 0.277199
v -0.240857 0.104215 0.337206
v -0.213838 0.213838 0.399309
v -0.283345 0 0.400675
v -0.244267 0 0.454659
v -0.185706 0.185706 0.453074
v -0.236257 0 0.51789
v -0.17938 0.17938 0.516642
v 0 0.236257 0.51789
v -0.146937 0.146937 0.544922
v -0.192409 0 0.546074
v -0.132861 0.132861 0.590644
v -0.175173 0 0.59096
v -0.074989 0 0.61905
v 0 0.244267 0.454659
v 0 0.192409 0.546074
v -0.056242 0.056242 0.61905
v -0.056242 -0.056242 0.61905
v 0 -0.074989 0.61905
v 0 0.074989 0.61905
v 0 0.175173 0.59096
v 0.132861 0.132861 0.590644
v 0.056242 0.056242 0.61905
v 0.074989 0 0.61905
v 0.175173 0 0.59096
v 0.192409 0 0.546074
v 0.146937 0.146937 0.544922
v 0.236257 0 0.51789
v 0.17938 0.17938 0.516642
v 0.185706 0.185706 0.453074
v 0.244267 0 0.454659
v 0.213838 0.213838 0.399309
v 0.283345 0 0.400675
v 0.274568 0 0.33749
v 0 0.283345 0.400675
v 0.207459 0.207459 0.336924
v 0.114877 0.237407 0.337177
v 0.224168 0.224168 0.277619
v 0.189229 0.193543 0.259146
v 0.09949 0.189908 0.339833
v 0.224683 0 0.340864
v 0.000764 0.237481 0.38078
v 0.189333 -0.193429 0.259143
v 0.224168 -0.224168 0.277619
v 0.17239 -0.172392 0.330574
v 0.096676 -0.190822 0.339901
v -0.076342 0.249873 0.337282
v -0.06092 0.202328 0.338548
v -0.207459 0.207459 0.336924
v -0.152644 0.247874 0.277485
v -0.138035 0.203155 0.260553
v -0.224168 0.224168 0.277619
v -0.194991 0.188047 0.259077
v -0.193297 0.088812 0.338025
v -0.298466 0 0.277199
v -0.252009 0.001593 0.258786
v -0.207459 -0.207459 0.336924
v -0.274568 0 0.33749
v -0.169404 -0.175405 0.341861
v -0.213838 -0.213838 0.399309
v -0.283345 0 0.400675
v -0.244267 0 0.454659
v 0 -0.283345 0.400675
v -0.000958 -0.23865 0.378282
v -0.185706 -0.185706 0.453074
v -0.236257 0 0.51789
v 0 -0.244267 0.454659
v 0 -0.236257 0.51789
v 0.112062 -0.238318 0.337185
v 0.096676 -0.190822 0.339901
v -0.17938 -0.17938 0.516642
v -0.146937 -0.146937 0.544922
v -0.192409 0 0.546074
v -0.132861 -0.132861 0.590644
v -0.175173 0 0.59096
v -0.074989 0 0.61905
v -0.056242 -0.056242 0.61905
v 0 -0.074989 0.61905
v 0.213838 -0.213838 0.399309
v 0 -0.192409 0.546074
v 0 -0.175173 0.59096
v 0.132861 -0.132861 0.590644
v 0.185706 -0.185706 0.453074
v 0.146937 -0.146937 0.544922
v 0.056242 -0.056242 0.61905
v 0 0.074989 0.61905
v 0.056242 0.056242 0.61905
v 0.074989 0 0.61905
v 0.175173 0 0.59096
v 0.192409 0 0.546074
v 0.236257 0 0.51789
v 0.17938 -0.17938 0.516642
v 0.244267 0 0.454659
v 0.283345 0 0.400675
v 0.207459 -0.207459 0.336924
v 0.274568 0 0.33749
v 0.224168 -0.224168 0.277619
v 0.189333 -0.193429 0.259143
v -0.17237 0.172422 0.330516
v -0.06092 0.202328 0.338548
v -0.138035 0.203155 0.260553
v -0.194991 0.188047 0.259077
v -0.193297 0.088812 0.338025
v 0.17239 0.172392 0.330574
v 0.224683 0 0.340864
v 0.189229 0.193543 0.259146
v 0.09949 0.189908 0.339833
v -0.179382 0.179384 0.388098
v -0.17237 0.172422 0.330516
v -0.193297 0.088812 0.338025
v -0.234613 0 0.389489
v -0.224968 0 0.331182
v -0.198007 0 0.435686
v -0.153503 0.153503 0.432437
v -0.192951 0 0.492899
v -0.148684 0.148684 0.491833
v -0.121829 0.121829 0.509721
v -0.179382 -0.17939 0.38808
v -0.169404 -0.175405 0.341861
v -0.153503 -0.153503 0.432437
v -0.148684 -0.148684 0.491833
v -0.121829 -0.121829 0.509721
v -0.154911 0 0.513003
v -0.10746 0.10746 0.555866
v -0.10746 -0.10746 0.555866
v -0.139573 0 0.555852
v 0.179382 -0.179385 0.388095
v 0.096676 -0.190822 0.339901
v 0.17239 -0.172392 0.330574
v -0.000958 -0.23865 0.378282
v 0 -0.198007 0.435686
v 0.153503 -0.153503 0.432437
v 0 -0.192951 0.492899
v 0.148684 -0.148684 0.491833
v 0.121829 -0.121829 0.509721
v -0.179382 -0.17939 0.38808
v -0.169404 -0.175405 0.341861
v -0.153503 -0.153503 0.432437
v -0.148684 -0.148684 0.491833
v -0.121829 -0.121829 0.509721
v 0 -0.154911 0.513003
v 0.10746 -0.10746 0.555866
v -0.10746 -0.10746 0.555866
v 0 -0.139573 0.555852
v 0.179382 0.179385 0.388095
v 0.224683 0 0.340864
v 0.17239 0.172392 0.330574
v 0.234613 0 0.389489
v 0.17239 -0.172392 0.330574
v 0.179382 -0.179385 0.388095
v 0.198007 0 0.435686
v 0.153503 0.153503 0.432437
v 0.192951 0 0.492899
v 0.153503 -0.153503 0.432437
v 0.148684 0.148684 0.491833
v 0.148684 -0.148684 0.491833
v 0.121829 0.121829 0.509721
v 0.121829 -0.121829 0.509721
v 0.154911 0 0.513003
v 0.10746 0.10746 0.555866
v 0.10746 -0.10746 0.555866
v 0.139573 0 0.555852
v -0.179382 0.179384 0.388098
v -0.06092 0.202328 0.338548
v -0.17237 0.172422 0.330516
v 0.000764 0.237481 0.38078
v 0 0.198007 0.435686
v 0.179382 0.179385 0.388095
v -0.153503 0.153503 0.432437
v 0 0.192951 0.492899
v 0.153503 0.153503 0.432437
v -0.148684 0.148684 0.491833
v 0.148684 0.148684 0.491833
v -0.121829 0.121829 0.509721
v 0.121829 0.121829 0.509721
v 0 0.154911 0.513003
v -0.10746 0.10746 0.555866
v 0.10746 0.10746 0.555866
v 0 0.139573 0.555852
v 0.09949 0.189908 0.339833
v 0.000764 0.237481 0.38078
v 0.179382 0.179385 0.388095
v 0.17239 0.172392 0.330574
v -0.066837 0 0.569719
v -0.10746 0.10746 0.555866
v -0.139573 0 0.555852
v -0.10746 -0.10746 0.555866
v -0.050413 0.050413 0.569735
v -0.050413 -0.050413 0.569735
v 0 0.066837 0.569719
v 0 0.139573 0.555852
v 0.10746 0.10746 0.555866
v 0.050413 0.050413 0.569735
v 0 -0.066837 0.569719
v 0 -0.139573 0.555852
v 0.10746 -0.10746 0.555866
v 0.050413 -0.050413 0.569735
v 0.066837 0 0.569719
v 0.10746 0.10746 0.555866
v 0.139573 0 0.555852
vt 0.157159 0.707546
vt 0.103789 0.707996
vt 0.084785 0.660049
vt 0.103789 0.707996
vt 0.130599 0.70777
vt 0.084785 0.660049
vt 0.103789 0.707996
vt 0.084785 0.660049
vt 0.130599 0.70777
vt 0.152086 0.757157
vt 0.09681 0.758244
vt 0.127887 0.801175
vt 0.174458 0.799914
vt 0.134256 0.85146
vt 0.179489 0.850467
vt 0.322141 0.85146
vt 0.20529 0.872957
vt 0.169128 0.873873
vt 0.216483 0.909317
vt 0.182834 0.909569
vt 0.262506 0.931907
vt 0.322141 0.801175
vt 0.322141 0.873873
vt 0.277415 0.931907
vt 0.277415 0.931907
vt 0.322141 0.931907
vt 0.322141 0.931907
vt 0.322141 0.909569
vt 0.427799 0.909317
vt 0.366868 0.931907
vt 0.381777 0.931907
vt 0.461448 0.909569
vt 0.475155 0.873873
vt 0.438993 0.872957
vt 0.510026 0.85146
vt 0.464793 0.850467
vt 0.469824 0.799914
vt 0.516396 0.801175
vt 0.492196 0.757157
vt 0.547472 0.758244
vt 0.540493 0.707996
vt 0.322141 0.758244
vt 0.487123 0.707546
vt 0.413497 0.707747
vt 0.500412 0.660383
vt 0.500412 0.660383
vt 0.413497 0.707747
vt 0.540493 0.707996
vt 0.322141 0.758244
vt 0.500412 0.660383
vt 0.500412 0.660383
vt 0.487123 0.707546
vt 0.411258 0.707753
vt 0.261429 0.70783
vt 0.261429 0.70783
vt 0.157159 0.707546
vt 0.20075 0.660276
vt 0.20075 0.660276
vt 0.14387 0.660383
vt 0.14387 0.660383
vt 0.130599 0.70777
vt 0.084785 0.660049
vt 0.084785 0.660049
vt 0.157159 0.707546
vt 0.103789 0.707996
vt 0.157159 0.707546
vt 0.152086 0.757158
vt 0.09681 0.758244
vt 0.127887 0.801175
vt 0.322141 0.758244
vt 0.322141 0.758244
vt 0.174458 0.799914
vt 0.134256 0.85146
vt 0.322141 0.801175
vt 0.322141 0.85146
vt 0.411258 0.707753
vt 0.411258 0.707753
vt 0.179489 0.850467
vt 0.20529 0.872957
vt 0.169128 0.873873
vt 0.216483 0.909317
vt 0.182834 0.909569
vt 0.262506 0.931907
vt 0.277415 0.931907
vt 0.322141 0.931907
vt 0.492196 0.757158
vt 0.322141 0.873873
vt 0.322141 0.909569
vt 0.427799 0.909317
vt 0.469824 0.799914
vt 0.438993 0.872957
vt 0.366868 0.931907
vt 0.322141 0.931907
vt 0.366868 0.931907
vt 0.381777 0.931907
vt 0.461448 0.909569
vt 0.475155 0.873873
vt 0.510026 0.85146
vt 0.464793 0.850467
vt 0.516396 0.801175
vt 0.547472 0.758244
vt 0.487123 0.707546
vt 0.540493 0.707996
vt 0.500412 0.660383
vt 0.500412 0.660383
vt 0.157159 0.707546
vt 0.261429 0.70783
vt 0.20075 0.660276
vt 0.14387 0.660383
vt 0.130599 0.70777
vt 0.487123 0.707546
vt 0.540493 0.707996
vt 0.500412 0.660383
vt 0.413497 0.707747
vt 0.696288 0.115546
vt 0.699663 0.041815
vt 0.594996 0.037646
vt 0.480776 0.087716
vt 0.483736 0.021309
vt 0.477535 0.153562
vt 0.664687 0.180644
vt 0.474109 0.219786
vt 0.649873 0.247968
vt 0.619566 0.290782
vt 0.265886 0.093532
vt 0.265886 0.034448
vt 0.289907 0.160934
vt 0.297205 0.229143
vt 0.322546 0.274725
vt 0.471584 0.267343
vt 0.598453 0.344243
vt 0.33765 0.329958
vt 0.468649 0.321453
vt 0.693922 0.241603
vt 0.609099 0.31385
vt 0.699665 0.308815
vt 0.478778 0.286055
vt 0.47989 0.204472
vt 0.664826 0.181859
vt 0.479892 0.137871
vt 0.65235 0.116287
vt 0.624526 0.073783
vt 0.265884 0.241588
vt 0.266956 0.296395
vt 0.294966 0.181853
vt 0.307442 0.116284
vt 0.335264 0.073781
vt 0.479893 0.090899
vt 0.606261 0.021307
vt 0.353529 0.021307
vt 0.479893 0.037958
vt 0.699664 0.258501
vt 0.482774 0.330494
vt 0.698713 0.328346
vt 0.482774 0.272115
vt 0.266836 0.328346
vt 0.265885 0.258501
vt 0.482774 0.206332
vt 0.672284 0.190662
vt 0.482774 0.139714
vt 0.293265 0.190662
vt 0.661587 0.121675
vt 0.303962 0.121675
vt 0.633564 0.07663
vt 0.331985 0.07663
vt 0.482774 0.091621
vt 0.615375 0.021308
vt 0.350174 0.021308
vt 0.482774 0.03675
vt 0.271206 0.100469
vt 0.397299 0.021307
vt 0.265884 0.033998
vt 0.483497 0.059518
vt 0.482624 0.13697
vt 0.694016 0.100466
vt 0.299975 0.159449
vt 0.482627 0.202773
vt 0.665266 0.159431
vt 0.312329 0.22416
vt 0.652921 0.224141
vt 0.339819 0.266117
vt 0.625438 0.2661
vt 0.482629 0.249166
vt 0.35787 0.317922
vt 0.607394 0.317905
vt 0.482633 0.301445
vt 0.801517 0.019286
vt 0.501665 0.088156
vt 0.986898 0.182538
vt 0.999917 0.029601
vt 0.422643 0.222885
vt 0.314834 0.172514
vt 0.367728 0.275633
vt 0.468691 0.332653
vt 0.398973 0.17408
vt 0.470468 0.24853
vt 0.424611 0.126155
vt 0.371529 0.071434
vt 0.473948 0.017701
vt 0.473607 0.102118
vt 0.519298 0.224877
vt 0.571934 0.279938
vt 0.629214 0.179235
vt 0.545101 0.177155
vt 0.52162 0.1282
vt 0.476884 0.017701
vt 0.576984 0.075814
vn 0.5765148 0.001135646 -0.8170859
vn 0.9890075 0.1277977 -0.07437783
vn 0.2722838 0.04947445 -0.9609442
vn 0.9890075 0.1277977 -0.07437783
vn 0.7417813 -0.1999733 -0.6401337
vn 0.2722838 0.04947445 -0.9609442
vn -0.992673 -0.1136022 0.04116907
vn -0.588586 -0.06781856 -0.8055851
vn -0.7276052 0.2498984 -0.6388595
vn -0.5919331 0.7338793 0.3332213
vn -0.9611853 -0.05069928 0.2712055
vn -0.9200602 0 0.3917771
vn -0.6399984 0.6399984 0.4252107
vn -0.9031731 0 0.4292764
vn -0.6399929 0.6399929 0.4252274
vn 0 0.9031731 0.4292764
vn -0.4881704 0.4881704 0.7234495
vn -0.7306343 0 0.6827689
vn -0.4663824 0.4663823 0.7516482
vn -0.6512142 0 0.758894
vn -0.2521148 0 0.9676973
vn 0 0.9200602 0.391777
vn 0 0.7306343 0.6827689
vn -0.1506426 0.1506425 0.9770433
vn -0.1556671 -0.1556671 0.9754668
vn 0 -0.2151962 0.9765708
vn 0 0.2151962 0.9765708
vn 0 0.6512142 0.758894
vn 0.4663823 0.4663824 0.7516482
vn 0.1556671 0.1556671 0.9754668
vn 0.2521148 0 0.9676973
vn 0.6512142 0 0.758894
vn 0.7306343 0 0.6827689
vn 0.4881704 0.4881704 0.7234495
vn 0.9031731 0 0.4292764
vn 0.6399929 0.6399929 0.4252273
vn 0.6399984 0.6399984 0.4252107
vn 0.9200602 0 0.391777
vn 0.7151071 0.6534905 0.2481368
vn 0.9759068 0 0.2181876
vn 0.8662459 0 -0.499618
vn -0.01672061 0.972658 0.2316394
vn 0.7830432 0.6218181 0.01362645
vn 0.01868582 0.8750667 -0.4836415
vn 0.4936043 0.2796521 -0.8234982
vn -0.2198486 -0.1309804 -0.966701
vn -0.5933198 -0.6822703 -0.4271753
vn -0.6859722 -0.0001494267 -0.7276278
vn 0.02159269 -0.5857154 -0.8102292
vn -0.2185702 0.1317602 -0.9668849
vn 0.4921612 -0.2858547 -0.8222314
vn -0.8042976 0.5942252 -0.001347009
vn -0.5954275 0.6823105 -0.4241682
vn -0.02213104 0.9296962 -0.3676617
vn 0.5646104 -0.7888768 -0.2426698
vn -0.5283296 0.8456341 0.07596575
vn -0.01488506 0.9697353 -0.2437042
vn 0.4361638 -0.5108573 -0.7408009
vn -0.7102546 0.6083226 -0.3542342
vn -0.0724256 -0.5395836 -0.8388112
vn 0.7417813 -0.1999733 -0.6401337
vn -0.588586 -0.06781856 -0.8055851
vn 0.2722838 0.04947445 -0.9609442
vn -0.5849646 -0.5616106 -0.585158
vn -0.992673 -0.1136022 0.04116907
vn 0.5765148 0.001135646 -0.8170859
vn -0.7364854 -0.617956 0.2751721
vn -0.9611853 -0.05069928 0.2712055
vn -0.9200602 0 0.3917771
vn 0.009163936 -0.9917037 0.1282176
vn -0.03580732 0.3859061 -0.9218429
vn -0.6399984 -0.6399984 0.4252107
vn -0.9031731 0 0.4292764
vn 0 -0.9200602 0.3917772
vn 0 -0.9031731 0.4292764
vn 0.02602604 -0.8766327 -0.4804557
vn -0.5954275 0.6823105 -0.4241682
vn -0.6399929 -0.6399929 0.4252273
vn -0.4881705 -0.4881704 0.7234495
vn -0.7306343 0 0.6827689
vn -0.4663823 -0.4663823 0.7516482
vn -0.6512142 0 0.758894
vn -0.2521148 0 0.9676973
vn -0.1556671 -0.1556671 0.9754668
vn 0 -0.2151962 0.9765708
vn 0.7144726 -0.6544788 0.2473588
vn 0 -0.7306343 0.6827689
vn 0 -0.6512142 0.758894
vn 0.4663823 -0.4663823 0.7516482
vn 0.6399984 -0.6399983 0.4252107
vn 0.4881705 -0.4881704 0.7234495
vn 0.1506426 -0.1506425 0.9770433
vn 0 0.2151962 0.9765708
vn 0.1556671 0.1556671 0.9754668
vn 0.2521148 0 0.9676973
vn 0.6512142 0 0.758894
vn 0.7306343 0 0.6827689
vn 0.9031731 0 0.4292764
vn 0.6399929 -0.6399928 0.4252274
vn 0.9200602 0 0.391777
vn 0.9759068 0 0.2181876
vn 0.7809301 -0.6244561 0.01423976
vn 0.8662459 0 -0.499618
vn 0.4921612 -0.2858547 -0.8222314
vn -0.2185702 0.1317602 -0.9668849
vn 0.5276389 -0.8472416 -0.06147233
vn 0.5646104 -0.7888768 -0.2426698
vn 0.4361638 -0.5108573 -0.7408009
vn -0.0724256 -0.5395836 -0.8388112
vn 0.7417813 -0.1999733 -0.6401337
vn -0.8058053 -0.5921777 -0.001834608
vn -0.6859722 -0.0001494267 -0.7276278
vn -0.2198486 -0.1309804 -0.966701
vn -0.5933198 -0.6822703 -0.4271753
vn 0.5916105 -0.734503 -0.3324189
vn 0.5276389 -0.8472416 -0.06147233
vn 0.7417813 -0.1999733 -0.6401337
vn 0.9525534 0.06669682 -0.2969739
vn 0.9890075 0.1277977 -0.07437783
vn 0.9195266 0 -0.3930275
vn 0.6249416 -0.6463574 -0.4378015
vn 0.9114096 0 -0.4115004
vn 0.6480817 -0.6480816 -0.3999754
vn 0.4658554 -0.4658554 -0.7523015
vn 0.7337247 0.6104842 -0.2982568
vn 0.5765148 0.001135646 -0.8170859
vn 0.6224703 0.6480485 -0.4388212
vn 0.6480817 0.6480817 -0.3999754
vn 0.4658554 0.4658554 -0.7523015
vn 0.721929 0 -0.6919672
vn 0.4884162 -0.4884163 -0.7231176
vn 0.4884163 0.4884163 -0.7231177
vn 0.6787601 0 -0.73436
vn -0.7104741 0.656525 -0.2533801
vn -0.5954275 0.6823105 -0.4241682
vn -0.8042976 0.5942252 -0.001347009
vn -0.03580732 0.3859061 -0.9218429
vn -0.001071207 0.9212714 -0.3889188
vn -0.6220137 0.6490787 -0.4379449
vn 0 0.9114096 -0.4115004
vn -0.6480817 0.6480815 -0.3999754
vn -0.4658554 0.4658553 -0.7523016
vn 0.7337247 0.6104842 -0.2982568
vn 0.5765148 0.001135646 -0.8170859
vn 0.6224703 0.6480485 -0.4388212
vn 0.6480817 0.6480817 -0.3999754
vn 0.4658554 0.4658554 -0.7523015
vn 0 0.721929 -0.6919672
vn -0.4884162 0.4884162 -0.7231177
vn 0.4884163 0.4884163 -0.7231177
vn 0 0.6787601 -0.73436
vn -0.7138629 -0.6532409 -0.2523413
vn -0.6859722 -0.0001494267 -0.7276278
vn -0.8058053 -0.5921777 -0.001834608
vn -0.974741 0 -0.2233383
vn -0.8042976 0.5942252 -0.001347009
vn -0.7104741 0.656525 -0.2533801
vn -0.9195238 0 -0.3930342
vn -0.6252996 -0.6455263 -0.4385158
vn -0.9114096 0 -0.4115004
vn -0.6220137 0.6490787 -0.4379449
vn -0.6480816 -0.6480817 -0.3999754
vn -0.6480817 0.6480815 -0.3999754
vn -0.4658553 -0.4658554 -0.7523015
vn -0.4658554 0.4658553 -0.7523016
vn -0.721929 0 -0.6919672
vn -0.4884163 -0.4884163 -0.7231176
vn -0.4884162 0.4884162 -0.7231177
vn -0.6787601 0 -0.73436
vn 0.5916105 -0.734503 -0.3324189
vn 0.5646104 -0.7888768 -0.2426698
vn 0.5276389 -0.8472416 -0.06147233
vn 0.02159269 -0.5857154 -0.8102292
vn 0.0008911578 -0.9214233 -0.3885593
vn -0.7138629 -0.6532409 -0.2523413
vn 0.6249416 -0.6463574 -0.4378015
vn 0 -0.9114096 -0.4115004
vn -0.6252996 -0.6455263 -0.4385158
vn 0.6480817 -0.6480816 -0.3999754
vn -0.6480816 -0.6480817 -0.3999754
vn 0.4658554 -0.4658554 -0.7523015
vn -0.4658553 -0.4658554 -0.7523015
vn 0 -0.721929 -0.6919672
vn 0.4884162 -0.4884163 -0.7231176
vn -0.4884163 -0.4884163 -0.7231176
vn 0 -0.6787602 -0.73436
vn -0.5933198 -0.6822703 -0.4271753
vn 0.02159269 -0.5857154 -0.8102292
vn -0.7138629 -0.6532409 -0.2523413
vn -0.8058053 -0.5921777 -0.001834608
vn 0.1695751 0 -0.9855173
vn 0.4884162 -0.4884163 -0.7231176
vn 0.6787601 0 -0.73436
vn 0.4884163 0.4884163 -0.7231177
vn 0.1003009 -0.1003445 -0.9898841
vn 0.09626026 0.09631499 -0.9906853
vn 0 -0.137683 -0.9904764
vn 0 -0.6787602 -0.73436
vn -0.4884163 -0.4884163 -0.7231176
vn -0.09626026 -0.09631498 -0.9906853
vn 0 0.137683 -0.9904764
vn 0 0.6787601 -0.73436
vn -0.4884162 0.4884162 -0.7231177
vn -0.1003009 0.1003445 -0.9898841
vn -0.1695751 0 -0.9855173
vn -0.4884163 -0.4884163 -0.7231176
vn -0.6787601 0 -0.73436
g BeeHiveBroken2_0
f 3/3/3 2/2/2 1/1/1
f 6/6/6 5/5/5 4/4/4
f 9/9/9 8/8/8 7/7/7
f 10/10/10 9/9/9 7/7/7
f 7/7/7 11/11/11 10/10/10
f 10/10/10 11/11/11 12/12/12
f 13/13/13 10/10/10 12/12/12
f 13/13/13 12/12/12 14/14/14
f 15/15/15 13/13/13 14/14/14
f 13/13/13 15/15/15 16/16/16
f 17/17/17 15/15/15 14/14/14
f 15/15/15 17/17/17 16/16/16
f 18/18/18 17/17/17 14/14/14
f 19/19/19 17/17/17 18/18/18
f 20/20/20 19/19/19 18/18/18
f 19/19/19 20/20/20 21/21/21
f 10/10/10 13/13/13 22/22/22
f 22/22/22 13/13/13 16/16/16
f 17/17/17 19/19/19 23/23/23
f 17/17/17 23/23/23 16/16/16
f 24/24/24 19/19/19 21/21/21
f 24/24/24 21/21/21 25/25/25
f 24/24/24 25/25/25 26/26/26
f 27/27/27 24/24/24 26/26/26
f 19/19/19 24/24/24 27/27/27
f 28/28/28 19/19/19 27/27/27
f 19/19/19 28/28/28 23/23/23
f 29/29/29 28/28/28 27/27/27
f 28/28/28 29/29/29 23/23/23
f 30/30/30 29/29/29 27/27/27
f 29/29/29 30/30/30 31/31/31
f 32/32/32 29/29/29 31/31/31
f 29/29/29 32/32/32 33/33/33
f 29/29/29 34/34/34 23/23/23
f 34/34/34 29/29/29 33/33/33
f 23/23/23 34/34/34 16/16/16
f 34/34/34 33/33/33 35/35/35
f 34/34/34 36/36/36 16/16/16
f 36/36/36 34/34/34 35/35/35
f 36/36/36 37/37/37 16/16/16
f 37/37/37 36/36/36 35/35/35
f 38/38/38 37/37/37 35/35/35
f 39/39/39 37/37/37 38/38/38
f 37/37/37 22/22/22 16/16/16
f 37/37/37 39/39/39 22/22/22
f 40/40/40 39/39/39 38/38/38
f 40/40/40 41/41/41 39/39/39
f 39/39/39 42/42/42 22/22/22
f 42/42/42 10/10/10 22/22/22
f 41/41/41 43/43/43 39/39/39
f 39/39/39 43/43/43 44/44/44
f 42/42/42 39/39/39 44/44/44
f 41/41/41 45/45/45 43/43/43
f 44/44/44 43/43/43 45/45/45
f 45/45/45 46/46/46 44/44/44
f 46/46/46 47/47/47 44/44/44
f 44/44/44 47/47/47 42/42/42
f 48/48/48 46/46/46 45/45/45
f 41/41/41 48/48/48 45/45/45
f 47/47/47 49/49/49 42/42/42
f 50/50/50 48/48/48 41/41/41
f 51/51/51 50/50/50 41/41/41
f 50/50/50 52/52/52 48/48/48
f 50/50/50 53/53/53 52/52/52
f 42/42/42 49/49/49 54/54/54
f 42/42/42 54/54/54 10/10/10
f 49/49/49 55/55/55 54/54/54
f 54/54/54 56/56/56 10/10/10
f 10/10/10 56/56/56 9/9/9
f 54/54/54 55/55/55 57/57/57
f 54/54/54 57/57/57 56/56/56
f 55/55/55 58/58/58 57/57/57
f 57/57/57 59/59/59 56/56/56
f 57/57/57 58/58/58 59/59/59
f 9/9/9 56/56/56 59/59/59
f 58/58/58 60/60/60 59/59/59
f 59/59/59 60/60/60 9/9/9
f 60/60/60 61/61/61 9/9/9
f 9/9/9 61/61/61 62/62/62
f 61/61/61 63/63/63 62/62/62
f 62/62/62 63/63/63 64/64/64
f 65/65/65 62/62/62 64/64/64
f 63/63/63 66/66/66 64/64/64
f 65/65/65 64/64/64 67/67/67
f 68/68/68 65/65/65 67/67/67
f 68/68/68 67/67/67 69/69/69
f 64/64/64 66/66/66 70/70/70
f 70/70/70 67/67/67 64/64/64
f 66/66/66 71/71/71 70/70/70
f 67/67/67 72/72/72 69/69/69
f 69/69/69 72/72/72 73/73/73
f 67/67/67 70/70/70 74/74/74
f 72/72/72 67/67/67 74/74/74
f 72/72/72 74/74/74 75/75/75
f 70/70/70 71/71/71 76/76/76
f 71/71/71 77/77/77 76/76/76
f 72/72/72 78/78/78 73/73/73
f 78/78/78 72/72/72 75/75/75
f 78/78/78 79/79/79 73/73/73
f 79/79/79 78/78/78 75/75/75
f 79/79/79 80/80/80 73/73/73
f 79/79/79 81/81/81 80/80/80
f 81/81/81 82/82/82 80/80/80
f 82/82/82 81/81/81 83/83/83
f 81/81/81 84/84/84 83/83/83
f 84/84/84 81/81/81 85/85/85
f 70/70/70 86/86/86 74/74/74
f 70/70/70 76/76/76 86/86/86
f 81/81/81 79/79/79 87/87/87
f 87/87/87 79/79/79 75/75/75
f 81/81/81 88/88/88 85/85/85
f 88/88/88 81/81/81 87/87/87
f 88/88/88 89/89/89 85/85/85
f 89/89/89 88/88/88 87/87/87
f 86/86/86 90/90/90 74/74/74
f 74/74/74 90/90/90 75/75/75
f 91/91/91 87/87/87 75/75/75
f 91/91/91 89/89/89 87/87/87
f 89/89/89 92/92/92 85/85/85
f 93/93/93 85/85/85 92/92/92
f 94/94/94 93/93/93 92/92/92
f 92/92/92 95/95/95 94/94/94
f 92/92/92 89/89/89 95/95/95
f 89/89/89 96/96/96 95/95/95
f 96/96/96 89/89/89 97/97/97
f 89/89/89 91/91/91 97/97/97
f 97/97/97 91/91/91 98/98/98
f 99/99/99 91/91/91 75/75/75
f 91/91/91 99/99/99 98/98/98
f 90/90/90 99/99/99 75/75/75
f 99/99/99 90/90/90 98/98/98
f 90/90/90 100/100/100 98/98/98
f 90/90/90 86/86/86 100/100/100
f 86/86/86 101/101/101 100/100/100
f 86/86/86 102/102/102 101/101/101
f 102/102/102 103/103/103 101/101/101
f 76/76/76 102/102/102 86/86/86
f 102/102/102 104/104/104 103/103/103
f 76/76/76 104/104/104 102/102/102
f 76/76/76 77/77/77 104/104/104
f 77/77/77 105/105/105 104/104/104
f 108/108/108 107/107/107 106/106/106
f 109/109/109 108/108/108 106/106/106
f 106/106/106 110/110/110 109/109/109
f 113/113/113 112/112/112 111/111/111
f 111/111/111 114/114/114 113/113/113
f 117/117/117 116/116/116 115/115/115
f 117/117/117 115/115/115 118/118/118
f 118/118/118 119/119/119 117/117/117
f 118/118/118 115/115/115 120/120/120
f 115/115/115 121/121/121 120/120/120
f 120/120/120 121/121/121 122/122/122
f 121/121/121 123/123/123 122/122/122
f 123/123/123 124/124/124 122/122/122
f 119/119/119 118/118/118 125/125/125
f 125/125/125 118/118/118 120/120/120
f 126/126/126 119/119/119 125/125/125
f 127/127/127 125/125/125 120/120/120
f 127/127/127 120/120/120 122/122/122
f 128/128/128 127/127/127 122/122/122
f 129/129/129 128/128/128 122/122/122
f 124/124/124 130/130/130 122/122/122
f 130/130/130 129/129/129 122/122/122
f 124/124/124 131/131/131 130/130/130
f 132/132/132 129/129/129 130/130/130
f 131/131/131 133/133/133 130/130/130
f 133/133/133 132/132/132 130/130/130
f 136/136/136 135/135/135 134/134/134
f 135/135/135 137/137/137 134/134/134
f 134/134/134 137/137/137 138/138/138
f 139/139/139 134/134/134 138/138/138
f 139/139/139 138/138/138 140/140/140
f 141/141/141 139/139/139 140/140/140
f 142/142/142 141/141/141 140/140/140
f 137/137/137 143/143/143 138/138/138
f 143/143/143 137/137/137 144/144/144
f 143/143/143 145/145/145 138/138/138
f 138/138/138 145/145/145 140/140/140
f 145/145/145 146/146/146 140/140/140
f 146/146/146 147/147/147 140/140/140
f 148/148/148 142/142/142 140/140/140
f 147/147/147 148/148/148 140/140/140
f 149/149/149 142/142/142 148/148/148
f 147/147/147 150/150/150 148/148/148
f 151/151/151 149/149/149 148/148/148
f 150/150/150 151/151/151 148/148/148
f 154/154/154 153/153/153 152/152/152
f 153/153/153 155/155/155 152/152/152
f 153/153/153 156/156/156 155/155/155
f 156/156/156 157/157/157 155/155/155
f 152/152/152 155/155/155 158/158/158
f 155/155/155 157/157/157 158/158/158
f 159/159/159 152/152/152 158/158/158
f 159/159/159 158/158/158 160/160/160
f 157/157/157 161/161/161 158/158/158
f 158/158/158 161/161/161 160/160/160
f 162/162/162 159/159/159 160/160/160
f 161/161/161 163/163/163 160/160/160
f 164/164/164 162/162/162 160/160/160
f 163/163/163 165/165/165 160/160/160
f 166/166/166 164/164/164 160/160/160
f 165/165/165 166/166/166 160/160/160
f 167/167/167 164/164/164 166/166/166
f 165/165/165 168/168/168 166/166/166
f 169/169/169 167/167/167 166/166/166
f 168/168/168 169/169/169 166/166/166
f 172/172/172 171/171/171 170/170/170
f 171/171/171 173/173/173 170/170/170
f 170/170/170 173/173/173 174/174/174
f 173/173/173 175/175/175 174/174/174
f 176/176/176 170/170/170 174/174/174
f 176/176/176 174/174/174 177/177/177
f 175/175/175 178/178/178 174/174/174
f 174/174/174 178/178/178 177/177/177
f 179/179/179 176/176/176 177/177/177
f 178/178/178 180/180/180 177/177/177
f 181/181/181 179/179/179 177/177/177
f 180/180/180 182/182/182 177/177/177
f 183/183/183 181/181/181 177/177/177
f 182/182/182 183/183/183 177/177/177
f 184/184/184 181/181/181 183/183/183
f 182/182/182 185/185/185 183/183/183
f 186/186/186 184/184/184 183/183/183
f 185/185/185 186/186/186 183/183/183
f 189/189/189 188/188/188 187/187/187
f 190/190/190 189/189/189 187/187/187
f 193/193/193 192/192/192 191/191/191
f 194/194/194 193/193/193 191/191/191
f 192/192/192 195/195/195 191/191/191
f 196/196/196 194/194/194 191/191/191
f 196/196/196 191/191/191 195/195/195
f 195/195/195 192/192/192 197/197/197
f 196/196/196 195/195/195 197/197/197
f 192/192/192 198/198/198 197/197/197
f 198/198/198 199/199/199 197/197/197
f 199/199/199 200/200/200 197/197/197
f 194/194/194 196/196/196 201/201/201
f 201/201/201 196/196/196 197/197/197
f 201/201/201 197/197/197 200/200/200
f 202/202/202 194/194/194 201/201/201
f 203/203/203 202/202/202 201/201/201
f 204/204/204 201/201/201 200/200/200
f 204/204/204 203/203/203 201/201/201
f 200/200/200 205/205/205 204/204/204
f 203/203/203 204/204/204 205/205/205
f 200/200/200 206/206/206 205/205/205
f 207/207/207 203/203/203 205/205/205
f 206/206/206 207/207/207 205/205/205
