g BirdWingButterflyWings
v 0 1.063251 -0.03377
v 0 -0.917432 -0.03377
v -1.954743 -0.917432 1.060159
v -1.954743 1.063251 1.060159
v 0 1.063251 -0.03377
v -1.954743 1.063251 1.060159
v -1.954743 -0.917432 1.060159
v 0 -0.917432 -0.03377
v 0 1.063251 -0.03377
v 1.954743 1.063251 1.060159
v 1.954743 -0.917432 1.060159
v 0 -0.917432 -0.03377
v 0 1.063251 -0.03377
v 0 -0.917432 -0.03377
v 1.954743 -0.917432 1.060159
v 1.954743 1.063251 1.060159
vt 0.629998 0.047291
vt 0.629998 0.165718
vt 0.716034 0.165718
vt 0.716034 0.047291
vt 0.629998 0.047291
vt 0.716034 0.047291
vt 0.716034 0.165718
vt 0.629998 0.165718
vt 0.629998 0.047291
vt 0.716034 0.047291
vt 0.716034 0.165718
vt 0.629998 0.165718
vt 0.629998 0.047291
vt 0.629998 0.165718
vt 0.716034 0.165718
vt 0.716034 0.047291
vn 0.4883562 0 0.8726444
vn 0.4883562 0 0.8726444
vn 0.4883562 0 0.8726444
vn 0.4883562 0 0.8726444
vn -0.4883562 0 -0.8726444
vn -0.4883562 0 -0.8726444
vn -0.4883562 0 -0.8726444
vn -0.4883562 0 -0.8726444
vn -0.4883562 0 0.8726444
vn -0.4883562 0 0.8726444
vn -0.4883562 0 0.8726444
vn -0.4883562 0 0.8726444
vn 0.4883562 0 -0.8726444
vn 0.4883562 0 -0.8726444
vn 0.4883562 0 -0.8726444
vn 0.4883562 0 -0.8726444
g BirdWingButterflyWings_0
f 3/3/3 2/2/2 1/1/1
f 4/4/4 3/3/3 1/1/1
f 7/7/7 6/6/6 5/5/5
f 8/8/8 7/7/7 5/5/5
f 11/11/11 10/10/10 9/9/9
f 12/12/12 11/11/11 9/9/9
f 15/15/15 14/14/14 13/13/13
f 16/16/16 15/15/15 13/13/13
