g BottleTreeLog
v 0 -0.42441 0.726973
v 0.269381 -0.17405 0.63756
v 0.269095 -0.42441 0.637274
v 0 -0.17405 0.727354
v 0 0.258524 0.731209
v 0.272273 0.258524 0.640452
v 0.271148 0.416811 0.639328
v -0.269381 -0.17405 0.63756
v -0.269095 -0.42441 0.637274
v -0.272273 0.258524 0.640452
v -0.271149 0.416811 0.639328
v 0 0.416811 0.72971
v 0.219788 0.416811 0.587967
v 0 0.416811 0.66123
v -0.219788 0.416811 0.587967
v -0.358794 -0.42441 0.368179
v -0.269381 -0.17405 0.63756
v -0.269095 -0.42441 0.637274
v -0.359175 -0.17405 0.368179
v -0.269381 -0.17405 0.098798
v -0.269095 -0.42441 0.099084
v 0.358793 -0.42441 0.368179
v 0.269381 -0.17405 0.098798
v 0.269095 -0.42441 0.099084
v 0.359175 -0.17405 0.368179
v 0.36303 0.258524 0.368179
v 0.272272 0.258524 0.095906
v 0.271148 0.416811 0.097031
v 0.269381 -0.17405 0.63756
v 0.269095 -0.42441 0.637274
v 0.272273 0.258524 0.640452
v 0.271148 0.416811 0.639328
v 0.361531 0.416811 0.368179
v 0.219788 0.416811 0.148391
v 0.293051 0.416811 0.368179
v 0.219788 0.416811 0.587967
v 0 -0.42441 0.009386
v -0.269381 -0.17405 0.098798
v -0.269095 -0.42441 0.099084
v 0 -0.17405 0.009004
v 0 0.258524 0.005149
v -0.272273 0.258524 0.095907
v -0.271149 0.416811 0.097031
v 0.269381 -0.17405 0.098798
v 0.269095 -0.42441 0.099084
v 0.272272 0.258524 0.095906
v 0.271148 0.416811 0.097031
v 0 0.416811 0.006648
v -0.219788 0.416811 0.148391
v 0 0.416811 0.075128
v 0.219788 0.416811 0.148391
v 0 -0.42441 0.009386
v -0.269095 -0.42441 0.099084
v -0.197659 -0.410508 0.170521
v 0 -0.410508 0.104635
v 0 -0.204236 0.026963
v 0.255912 -0.204236 0.112267
v 0.197658 -0.410508 0.170521
v -0.255913 -0.204236 0.112267
v -0.263545 -0.410508 0.368179
v -0.341217 -0.204236 0.368179
v -0.197658 -0.410508 0.565838
v -0.255913 -0.204236 0.624092
v 0 -0.410508 0.631724
v 0 0.121059 0.075128
v -0.219788 0.121059 0.148391
v 0.219788 0.121059 0.148391
v -0.293051 0.121059 0.368179
v 0 0.416811 0.075128
v -0.219788 0.416811 0.148391
v 0.219788 0.416811 0.148391
v -0.293051 0.416811 0.368179
v 0.293051 0.416811 0.368179
v -0.219788 0.121059 0.587967
v -0.219788 0.416811 0.587967
v 0.293051 0.121059 0.368179
v 0.219788 0.416811 0.587967
v 0 -0.204236 0.709396
v 0 0.121059 0.66123
v 0 0.416811 0.66123
v 0.219788 0.121059 0.587967
v 0.341216 -0.204236 0.368179
v 0.255912 -0.204236 0.624092
v 0.197658 -0.410508 0.565837
v 0 -0.42441 0.726973
v 0.269095 -0.42441 0.637274
v 0.263544 -0.410508 0.368179
v 0.358793 -0.42441 0.368179
v 0.269095 -0.42441 0.099084
v 0.269095 -0.42441 0.099084
v 0 -0.42441 0.009386
v 0 -0.410508 0.104635
v 0.197658 -0.410508 0.170521
v -0.269095 -0.42441 0.637274
v 0 -0.42441 0.726973
v 0 -0.410508 0.631724
v -0.197658 -0.410508 0.565838
v -0.358794 -0.42441 0.368179
v -0.263545 -0.410508 0.368179
v -0.269095 -0.42441 0.099084
v -0.197659 -0.410508 0.170521
v -0.271149 0.416811 0.097031
v -0.219788 0.416811 0.148391
v -0.293051 0.416811 0.368179
v -0.361531 0.416811 0.368179
v -0.36303 0.258524 0.368179
v -0.219788 0.416811 0.587967
v -0.271149 0.416811 0.639328
v -0.272273 0.258524 0.095907
v -0.272273 0.258524 0.640452
v -0.269381 -0.17405 0.098798
v -0.269381 -0.17405 0.63756
v -0.359175 -0.17405 0.368179
vt 0.555229 0.587039
vt 0.682534 0.498578
vt 0.64267 0.587039
vt 0.555229 0.498578
vt 0.555229 0.349543
vt 0.718637 0.349543
vt 0.735748 0.259881
vt 0.427925 0.498578
vt 0.467789 0.587039
vt 0.391822 0.349543
vt 0.374711 0.259881
vt 0.555229 0.259881
vt 0.735748 0.259881
vt 0.555229 0.259881
vt 0.374711 0.259881
vt 0.679421 0.587039
vt 0.550235 0.528866
vt 0.59198 0.587039
vt 0.679421 0.528866
vt 0.808606 0.528866
vt 0.766861 0.587039
vt 0.679421 0.587039
vt 0.806725 0.498578
vt 0.766861 0.587039
vt 0.679421 0.498578
vt 0.679421 0.349543
vt 0.842828 0.349543
vt 0.859939 0.259881
vt 0.552116 0.498578
vt 0.59198 0.587039
vt 0.516013 0.349543
vt 0.498902 0.259881
vt 0.679421 0.259881
vt 0.859939 0.259881
vt 0.679421 0.259881
vt 0.498902 0.259881
vt 0.555229 0.587039
vt 0.427925 0.498578
vt 0.467789 0.587039
vt 0.555229 0.498578
vt 0.555229 0.349543
vt 0.391822 0.349543
vt 0.374711 0.259881
vt 0.682534 0.498578
vt 0.64267 0.587039
vt 0.718637 0.349543
vt 0.735748 0.259881
vt 0.555229 0.259881
vt 0.374711 0.259881
vt 0.555229 0.259881
vt 0.735748 0.259881
vt 0.555229 0.587039
vt 0.766861 0.587039
vt 0.663722 0.322711
vt 0.669184 0.316859
vt 0.680414 0.32241
vt 0.682802 0.30485
vt 0.670426 0.309131
vt 0.667905 0.335118
vt 0.655817 0.321128
vt 0.650207 0.332579
vt 0.649826 0.315869
vt 0.637449 0.320151
vt 0.651068 0.308141
vt 0.702793 0.333422
vt 0.675677 0.358024
vt 0.705685 0.297029
vt 0.639182 0.355045
vt 0.800641 0.370512
vt 0.71899 0.453024
vt 0.800641 0.253671
vt 0.602094 0.452914
vt 0.718158 0.172086
vt 0.614567 0.327971
vt 0.519611 0.371329
vt 0.68107 0.269955
vt 0.601262 0.171976
vt 0.639838 0.30259
vt 0.617458 0.291578
vt 0.519611 0.254488
vt 0.644574 0.266976
vt 0.670045 0.292421
vt 0.652346 0.289882
vt 0.65653 0.302289
vt 0.555229 0.587039
vt 0.64267 0.587039
vt 0.664435 0.303872
vt 0.679421 0.587039
vt 0.766861 0.587039
vt 0.766861 0.587039
vt 0.555229 0.587039
vt 0.669184 0.316859
vt 0.670426 0.309131
vt 0.59198 0.587039
vt 0.555229 0.587039
vt 0.651068 0.308141
vt 0.649826 0.315869
vt 0.679421 0.587039
vt 0.655817 0.321128
vt 0.766861 0.587039
vt 0.663722 0.322711
vt 0.312071 0.259881
vt 0.312071 0.259881
vt 0.131553 0.259881
vt 0.131553 0.259881
vt 0.131553 0.349543
vt -0.048966 0.259881
vt -0.048966 0.259881
vt 0.29496 0.349543
vt -0.031855 0.349543
vt 0.260738 0.528866
vt 0.002367 0.528866
vt 0.131553 0.528866
vn 0 -0.2651112 0.9642179
vn 0.7070916 -0.006596592 0.7070912
vn 0.6847104 -0.249689 0.6847094
vn 0 -0.006217172 0.9999807
vn 0 -0.003976994 0.9999921
vn 0.7071007 -0.004218011 0.7071002
vn 0.6770219 0.2885832 0.6770236
vn -0.7070913 -0.006596201 0.7070914
vn -0.68471 -0.2496877 0.6847102
vn -0.7071005 -0.004218617 0.7071005
vn -0.677023 0.2885824 0.6770229
vn 0 0.3044909 0.9525152
vn -0.6663113 0.3347518 -0.6663111
vn 0 0.2974675 -0.9547319
vn 0.6663109 0.3347534 -0.6663107
vn -0.9642179 -0.2651111 0
vn -0.7070913 -0.006596201 0.7070914
vn -0.68471 -0.2496877 0.6847102
vn -0.9999807 -0.006217053 0
vn -0.707091 -0.006596063 -0.7070917
vn -0.6847097 -0.2496883 -0.6847104
vn 0.9642171 -0.2651139 0
vn 0.7070916 -0.006596453 -0.7070911
vn 0.6847098 -0.2496897 -0.6847098
vn 0.9999807 -0.006217546 0
vn 0.9999921 -0.003976168 0
vn 0.7071 -0.004217423 -0.7071009
vn 0.6770239 0.2885823 -0.6770221
vn 0.7070916 -0.006596592 0.7070912
vn 0.6847104 -0.249689 0.6847094
vn 0.7071007 -0.004218011 0.7071002
vn 0.6770219 0.2885832 0.6770236
vn 0.9525157 0.3044897 0
vn -0.6663116 0.3347502 0.6663116
vn -0.9547325 0.2974657 0
vn -0.6663113 0.3347518 -0.6663111
vn 0 -0.2651139 -0.9642171
vn -0.707091 -0.006596063 -0.7070917
vn -0.6847097 -0.2496883 -0.6847104
vn 0 -0.006217423 -0.9999807
vn 0 -0.003976171 -0.9999921
vn -0.7071007 -0.004218034 -0.7071002
vn -0.6770232 0.2885816 -0.6770232
vn 0.7070916 -0.006596453 -0.7070911
vn 0.6847098 -0.2496897 -0.6847098
vn 0.7071 -0.004217423 -0.7071009
vn 0.6770239 0.2885823 -0.6770221
vn 0 0.3044896 -0.9525157
vn 0.6663112 0.3347518 0.6663112
vn 0 0.2974657 0.9547326
vn -0.6663116 0.3347502 0.6663116
vn 0 -0.2651139 -0.9642171
vn -0.6847097 -0.2496883 -0.6847104
vn 0.6964942 -0.1725934 0.6964965
vn 0 -0.1441195 0.9895602
vn 0 0.04419743 0.9990228
vn -0.706425 0.04390258 0.706425
vn -0.6964951 -0.1725954 0.6964951
vn 0.7064246 0.04390157 0.7064255
vn 0.9895605 -0.144118 0
vn 0.999023 0.04419603 0
vn 0.6964949 -0.172591 -0.6964963
vn 0.7064252 0.043901 -0.7064248
vn 0 -0.1441182 -0.9895605
vn 0 -0.08126174 0.9966928
vn 0.7044436 -0.08670112 0.7044446
vn -0.7044441 -0.08669998 0.7044441
vn 0.9966927 -0.08126343 0
vn 0 0.2974657 0.9547326
vn 0.6663112 0.3347518 0.6663112
vn -0.6663116 0.3347502 0.6663116
vn 0.9547319 0.2974675 0
vn -0.9547325 0.2974657 0
vn 0.704444 -0.0867022 -0.704444
vn 0.6663109 0.3347534 -0.6663107
vn -0.9966928 -0.08126172 0
vn -0.6663113 0.3347518 -0.6663111
vn 0 0.04419609 -0.999023
vn 0 -0.08126342 -0.9966927
vn 0 0.2974675 -0.9547319
vn -0.7044446 -0.0867011 -0.7044435
vn -0.9990228 0.04419746 0
vn -0.7064252 0.04390197 -0.7064248
vn -0.6964973 -0.1725929 -0.6964936
vn 0 -0.2651112 0.9642179
vn 0.6847104 -0.249689 0.6847094
vn -0.9895602 -0.1441197 0
vn 0.9642171 -0.2651139 0
vn 0.6847098 -0.2496897 -0.6847098
vn 0.6847098 -0.2496897 -0.6847098
vn 0 -0.2651139 -0.9642171
vn 0 -0.1441195 0.9895602
vn -0.6964951 -0.1725954 0.6964951
vn -0.68471 -0.2496877 0.6847102
vn 0 -0.2651112 0.9642179
vn 0 -0.1441182 -0.9895605
vn 0.6964949 -0.172591 -0.6964963
vn -0.9642179 -0.2651111 0
vn 0.9895605 -0.144118 0
vn -0.6847097 -0.2496883 -0.6847104
vn 0.6964942 -0.1725934 0.6964965
vn -0.6770232 0.2885816 -0.6770232
vn 0.6663112 0.3347518 0.6663112
vn 0.9547319 0.2974675 0
vn -0.9525153 0.3044907 0
vn -0.9999921 -0.003977028 0
vn 0.6663109 0.3347534 -0.6663107
vn -0.677023 0.2885824 0.6770229
vn -0.7071007 -0.004218034 -0.7071002
vn -0.7071005 -0.004218617 0.7071005
vn -0.707091 -0.006596063 -0.7070917
vn -0.7070913 -0.006596201 0.7070914
vn -0.9999807 -0.006217053 0
g BottleTreeLog_0
f 3/3/3 2/2/2 1/1/1
f 2/2/2 4/4/4 1/1/1
f 4/4/4 2/2/2 5/5/5
f 2/2/2 6/6/6 5/5/5
f 6/6/6 7/7/7 5/5/5
f 4/4/4 8/8/8 1/1/1
f 8/8/8 4/4/4 5/5/5
f 8/8/8 9/9/9 1/1/1
f 10/10/10 8/8/8 5/5/5
f 11/11/11 10/10/10 5/5/5
f 7/7/7 12/12/12 5/5/5
f 12/12/12 11/11/11 5/5/5
f 7/7/7 13/13/13 12/12/12
f 13/13/13 14/14/14 12/12/12
f 12/12/12 14/14/14 11/11/11
f 14/14/14 15/15/15 11/11/11
f 18/18/18 17/17/17 16/16/16
f 17/17/17 19/19/19 16/16/16
f 19/19/19 20/20/20 16/16/16
f 20/20/20 21/21/21 16/16/16
f 24/24/24 23/23/23 22/22/22
f 23/23/23 25/25/25 22/22/22
f 25/25/25 23/23/23 26/26/26
f 23/23/23 27/27/27 26/26/26
f 27/27/27 28/28/28 26/26/26
f 25/25/25 29/29/29 22/22/22
f 29/29/29 25/25/25 26/26/26
f 29/29/29 30/30/30 22/22/22
f 31/31/31 29/29/29 26/26/26
f 32/32/32 31/31/31 26/26/26
f 28/28/28 33/33/33 26/26/26
f 33/33/33 32/32/32 26/26/26
f 28/28/28 34/34/34 33/33/33
f 34/34/34 35/35/35 33/33/33
f 33/33/33 35/35/35 32/32/32
f 35/35/35 36/36/36 32/32/32
f 39/39/39 38/38/38 37/37/37
f 38/38/38 40/40/40 37/37/37
f 40/40/40 38/38/38 41/41/41
f 38/38/38 42/42/42 41/41/41
f 42/42/42 43/43/43 41/41/41
f 40/40/40 44/44/44 37/37/37
f 44/44/44 40/40/40 41/41/41
f 44/44/44 45/45/45 37/37/37
f 46/46/46 44/44/44 41/41/41
f 47/47/47 46/46/46 41/41/41
f 43/43/43 48/48/48 41/41/41
f 48/48/48 47/47/47 41/41/41
f 43/43/43 49/49/49 48/48/48
f 49/49/49 50/50/50 48/48/48
f 48/48/48 50/50/50 47/47/47
f 50/50/50 51/51/51 47/47/47
f 54/54/54 53/53/53 52/52/52
f 55/55/55 54/54/54 52/52/52
f 54/54/54 55/55/55 56/56/56
f 56/56/56 55/55/55 57/57/57
f 55/55/55 58/58/58 57/57/57
f 59/59/59 54/54/54 56/56/56
f 60/60/60 54/54/54 59/59/59
f 61/61/61 60/60/60 59/59/59
f 62/62/62 60/60/60 61/61/61
f 63/63/63 62/62/62 61/61/61
f 64/64/64 62/62/62 63/63/63
f 59/59/59 56/56/56 65/65/65
f 61/61/61 59/59/59 66/66/66
f 66/66/66 59/59/59 65/65/65
f 56/56/56 57/57/57 67/67/67
f 65/65/65 56/56/56 67/67/67
f 63/63/63 61/61/61 68/68/68
f 68/68/68 61/61/61 66/66/66
f 66/66/66 65/65/65 69/69/69
f 70/70/70 66/66/66 69/69/69
f 68/68/68 66/66/66 70/70/70
f 69/69/69 65/65/65 71/71/71
f 65/65/65 67/67/67 71/71/71
f 72/72/72 68/68/68 70/70/70
f 71/71/71 67/67/67 73/73/73
f 74/74/74 68/68/68 72/72/72
f 74/74/74 63/63/63 68/68/68
f 75/75/75 74/74/74 72/72/72
f 67/67/67 76/76/76 73/73/73
f 67/67/67 57/57/57 76/76/76
f 73/73/73 76/76/76 77/77/77
f 78/78/78 63/63/63 74/74/74
f 78/78/78 64/64/64 63/63/63
f 79/79/79 74/74/74 75/75/75
f 79/79/79 78/78/78 74/74/74
f 80/80/80 79/79/79 75/75/75
f 77/77/77 81/81/81 80/80/80
f 76/76/76 81/81/81 77/77/77
f 81/81/81 79/79/79 80/80/80
f 57/57/57 82/82/82 76/76/76
f 76/76/76 82/82/82 81/81/81
f 57/57/57 58/58/58 82/82/82
f 81/81/81 83/83/83 79/79/79
f 83/83/83 78/78/78 79/79/79
f 82/82/82 83/83/83 81/81/81
f 84/84/84 64/64/64 78/78/78
f 83/83/83 84/84/84 78/78/78
f 64/64/64 84/84/84 85/85/85
f 84/84/84 86/86/86 85/85/85
f 82/82/82 87/87/87 83/83/83
f 87/87/87 84/84/84 83/83/83
f 84/84/84 87/87/87 86/86/86
f 58/58/58 87/87/87 82/82/82
f 87/87/87 88/88/88 86/86/86
f 87/87/87 58/58/58 88/88/88
f 58/58/58 89/89/89 88/88/88
f 92/92/92 91/91/91 90/90/90
f 93/93/93 92/92/92 90/90/90
f 96/96/96 95/95/95 94/94/94
f 97/97/97 96/96/96 94/94/94
f 97/97/97 94/94/94 98/98/98
f 99/99/99 97/97/97 98/98/98
f 99/99/99 98/98/98 100/100/100
f 101/101/101 99/99/99 100/100/100
f 104/104/104 103/103/103 102/102/102
f 105/105/105 104/104/104 102/102/102
f 105/105/105 102/102/102 106/106/106
f 107/107/107 104/104/104 105/105/105
f 108/108/108 107/107/107 105/105/105
f 108/108/108 105/105/105 106/106/106
f 102/102/102 109/109/109 106/106/106
f 110/110/110 108/108/108 106/106/106
f 109/109/109 111/111/111 106/106/106
f 112/112/112 110/110/110 106/106/106
f 111/111/111 113/113/113 106/106/106
f 113/113/113 112/112/112 106/106/106
