g BottleBrushDrop
v 0.228722 0.474617 0.194686
v 0.228722 -0.0388 0.194686
v -0.281954 -0.0388 0.253082
v -0.281954 0.474617 0.253082
v 0.249265 0.474617 0.374339
v 0.249265 -0.0388 0.374339
v -0.261411 -0.0388 0.432735
v -0.261411 0.474617 0.432735
v 0.264972 0.474617 0.511701
v 0.264972 -0.0388 0.511701
v -0.245703 -0.0388 0.570097
v -0.245703 0.474617 0.570097
v -0.09263 0.157853 0.175985
v -0.009327 0.157853 0.904474
v 0.110183 0.157853 0.890809
v 0.026879 0.157853 0.162319
v -0.09263 0.277964 0.175985
v -0.009327 0.277964 0.904474
v -0.009327 0.157853 0.904474
v -0.09263 0.157853 0.175985
v 0.026879 0.157853 0.162319
v 0.110183 0.157853 0.890809
v 0.110183 0.277964 0.890809
v 0.026879 0.277964 0.162319
v 0.026879 0.277964 0.162319
v 0.110183 0.277964 0.890809
v -0.009327 0.277964 0.904474
v -0.09263 0.277964 0.175985
v 0.285516 0.474617 0.691354
v 0.285516 -0.0388 0.691354
v -0.22516 -0.0388 0.74975
v -0.22516 0.474617 0.74975
v 0.302052 0.474617 0.835961
v 0.302052 -0.0388 0.835961
v -0.208624 -0.0388 0.894357
v -0.208624 0.474617 0.894357
v 0.293069 0.367878 0.107433
v 0.113739 -0.112765 0.12794
v -0.364337 0.067939 0.182608
v -0.185008 0.548582 0.162101
v 0.328319 0.324683 0.273504
v 0.095551 -0.127575 0.34336
v -0.358501 0.111134 0.375842
v -0.125733 0.563391 0.305986
v 0.300654 0.422367 0.45092
v 0.200704 -0.078452 0.398121
v -0.299421 0.013449 0.47315
v -0.199471 0.514268 0.52595
v 0.364098 0.326395 0.590956
v 0.133316 -0.127159 0.658976
v -0.321778 0.109422 0.692421
v -0.090997 0.562975 0.6244
v 0.366399 0.367878 0.748708
v 0.187069 -0.112765 0.769215
v -0.291008 0.067939 0.823883
v -0.111678 0.548582 0.803376
v 0.228722 0.474617 0.194686
v -0.281954 0.474617 0.253082
v -0.281954 -0.0388 0.253082
v 0.228722 -0.0388 0.194686
v 0.249265 0.474617 0.374339
v -0.261411 0.474617 0.432735
v -0.261411 -0.0388 0.432735
v 0.249265 -0.0388 0.374339
v 0.264972 0.474617 0.511701
v -0.245703 0.474617 0.570097
v -0.245703 -0.0388 0.570097
v 0.264972 -0.0388 0.511701
v 0.285516 0.474617 0.691354
v -0.22516 0.474617 0.74975
v -0.22516 -0.0388 0.74975
v 0.285516 -0.0388 0.691354
v 0.302052 0.474617 0.835961
v -0.208624 0.474617 0.894357
v -0.208624 -0.0388 0.894357
v 0.302052 -0.0388 0.835961
v 0.293069 0.367878 0.107433
v -0.185008 0.548582 0.162101
v -0.364337 0.067939 0.182608
v 0.113739 -0.112765 0.12794
v 0.329798 0.319106 0.272138
v -0.12081 0.564655 0.30144
v -0.35998 0.11671 0.377208
v 0.090628 -0.128838 0.347906
v 0.30098 0.421871 0.450619
v -0.198997 0.514682 0.525512
v -0.299747 0.013946 0.473451
v 0.20023 -0.078865 0.398559
v 0.365508 0.321184 0.589653
v -0.086391 0.5642 0.620147
v -0.323189 0.114633 0.693724
v 0.128711 -0.128383 0.663229
v 0.340597 0.417936 0.772536
v -0.15817 0.517882 0.846311
v -0.265206 0.017881 0.800055
v 0.233561 -0.082065 0.72628
v 0.337061 0.423382 0.775801
v 0.238753 -0.077599 0.721485
v -0.26167 0.012434 0.79679
v -0.163362 0.513416 0.851106
v -0.111481 -0.219763 -0.144793
v 0.175719 -0.089152 0.942681
v 0.125325 0.511658 0.88714
v -0.094729 0.384693 -0.144793
v -0.31355 0.164383 -0.144793
v 0.067797 0.307354 0.837993
v 0.407946 0.188641 0.696699
v 0.317459 0.055247 -0.144793
v -0.179843 -0.17112 -0.144793
v 0.079231 -0.047953 0.962101
v 0.282228 0.445015 0.781377
v 0.221435 0.332101 -0.144793
v -0.111481 -0.219763 -0.144793
v -0.094729 0.384693 -0.144793
v 0.125325 0.511658 0.88714
v 0.175719 -0.089152 0.942681
v -0.31355 0.164383 -0.144793
v 0.317459 0.055247 -0.144793
v 0.407946 0.188641 0.696699
v 0.067797 0.307354 0.837993
v -0.179843 -0.17112 -0.144793
v 0.221435 0.332101 -0.144793
v 0.282228 0.445015 0.781377
v 0.079231 -0.047953 0.962101
vt 0.246338 0.552681
vt 0.194008 0.552681
vt 0.194008 0.60507
vt 0.246338 0.60507
vt 0.246338 0.552681
vt 0.194008 0.552681
vt 0.194008 0.60507
vt 0.246338 0.60507
vt 0.246338 0.552681
vt 0.194008 0.552681
vt 0.194008 0.60507
vt 0.246338 0.60507
vt 0.210733 0.588326
vt 0.210733 0.588326
vt 0.210733 0.569425
vt 0.210733 0.569425
vt 0.229613 0.588326
vt 0.229613 0.588326
vt 0.210733 0.588326
vt 0.210733 0.588326
vt 0.210733 0.569425
vt 0.210733 0.569425
vt 0.229613 0.569425
vt 0.229613 0.569425
vt 0.229613 0.569425
vt 0.229613 0.569425
vt 0.229613 0.588326
vt 0.229613 0.588326
vt 0.246338 0.552681
vt 0.194008 0.552681
vt 0.194008 0.60507
vt 0.246338 0.60507
vt 0.246338 0.552681
vt 0.194008 0.552681
vt 0.194008 0.60507
vt 0.246338 0.60507
vt 0.246338 0.552681
vt 0.194008 0.552681
vt 0.194008 0.60507
vt 0.246338 0.60507
vt 0.246338 0.552681
vt 0.194008 0.552681
vt 0.194008 0.60507
vt 0.246338 0.60507
vt 0.246338 0.552681
vt 0.194008 0.552681
vt 0.194008 0.60507
vt 0.246338 0.60507
vt 0.246338 0.552681
vt 0.194008 0.552681
vt 0.194008 0.60507
vt 0.246338 0.60507
vt 0.246338 0.552681
vt 0.194008 0.552681
vt 0.194008 0.60507
vt 0.246338 0.60507
vt 0.246338 0.552681
vt 0.246338 0.60507
vt 0.194008 0.60507
vt 0.194008 0.552681
vt 0.246338 0.552681
vt 0.246338 0.60507
vt 0.194008 0.60507
vt 0.194008 0.552681
vt 0.246338 0.552681
vt 0.246338 0.60507
vt 0.194008 0.60507
vt 0.194008 0.552681
vt 0.246338 0.552681
vt 0.246338 0.60507
vt 0.194008 0.60507
vt 0.194008 0.552681
vt 0.246338 0.552681
vt 0.246338 0.60507
vt 0.194008 0.60507
vt 0.194008 0.552681
vt 0.246338 0.552681
vt 0.246338 0.60507
vt 0.194008 0.60507
vt 0.194008 0.552681
vt 0.246338 0.552681
vt 0.246338 0.60507
vt 0.194008 0.60507
vt 0.194008 0.552681
vt 0.246338 0.552681
vt 0.246338 0.60507
vt 0.194008 0.60507
vt 0.194008 0.552681
vt 0.246338 0.552681
vt 0.246338 0.60507
vt 0.194008 0.60507
vt 0.194008 0.552681
vt 0.246338 0.552681
vt 0.246338 0.60507
vt 0.194008 0.60507
vt 0.194008 0.552681
vt 0.246338 0.552681
vt 0.194008 0.552681
vt 0.194008 0.60507
vt 0.246338 0.60507
vt 0.145163 0.496827
vt 0.146238 0.540774
vt 0.188794 0.542794
vt 0.194174 0.499154
vt 0.143072 0.491303
vt 0.149683 0.534402
vt 0.194809 0.542226
vt 0.195043 0.500314
vt 0.142739 0.491618
vt 0.146193 0.535534
vt 0.192247 0.542509
vt 0.195779 0.499651
vt 0.145163 0.496827
vt 0.194174 0.499154
vt 0.188794 0.542794
vt 0.146238 0.540774
vt 0.143072 0.491303
vt 0.195043 0.500314
vt 0.194809 0.542226
vt 0.149683 0.534402
vt 0.142739 0.491618
vt 0.195779 0.499651
vt 0.192247 0.542509
vt 0.146193 0.535534
vn 0.11361 0 0.9935254
vn 0.11361 0 0.9935254
vn 0.11361 0 0.9935254
vn 0.11361 0 0.9935254
vn 0.11361 0 0.9935254
vn 0.11361 0 0.9935254
vn 0.11361 0 0.9935254
vn 0.11361 0 0.9935254
vn 0.11361 0 0.9935254
vn 0.11361 0 0.9935254
vn 0.11361 0 0.9935254
vn 0.11361 0 0.9935254
vn 0 -1 0
vn 0 -1 0
vn 0 -1 0
vn 0 -1 0
vn -0.9935254 0 0.11361
vn -0.9935254 0 0.11361
vn -0.9935254 0 0.11361
vn -0.9935254 0 0.11361
vn 0.9935253 0 -0.113611
vn 0.9935253 0 -0.113611
vn 0.9935253 0 -0.113611
vn 0.9935253 0 -0.113611
vn 0 1 0
vn 0 1 0
vn 0 1 0
vn 0 1 0
vn 0.11361 0 0.9935254
vn 0.11361 0 0.9935254
vn 0.11361 0 0.9935254
vn 0.11361 0 0.9935254
vn 0.1136099 0 0.9935255
vn 0.1136099 0 0.9935255
vn 0.1136099 0 0.9935255
vn 0.1136099 0 0.9935255
vn 0.11361 0 0.9935254
vn 0.11361 0 0.9935254
vn 0.11361 0 0.9935254
vn 0.11361 0 0.9935254
vn 0.118854 0.09154001 0.988683
vn 0.118854 0.09154001 0.988683
vn 0.118854 0.09154001 0.988683
vn 0.118854 0.09154001 0.988683
vn 0.124002 -0.128479 0.9839292
vn 0.124002 -0.128479 0.9839292
vn 0.124002 -0.128479 0.9839292
vn 0.124002 -0.128479 0.9839292
vn 0.11846 0.08805498 0.9890468
vn 0.11846 0.08805498 0.9890468
vn 0.11846 0.08805498 0.9890468
vn 0.11846 0.08805498 0.9890468
vn 0.11361 0 0.9935254
vn 0.11361 0 0.9935254
vn 0.11361 0 0.9935254
vn 0.11361 0 0.9935254
vn -0.11361 0 -0.9935254
vn -0.11361 0 -0.9935254
vn -0.11361 0 -0.9935254
vn -0.11361 0 -0.9935254
vn -0.11361 0 -0.9935254
vn -0.11361 0 -0.9935254
vn -0.11361 0 -0.9935254
vn -0.11361 0 -0.9935254
vn -0.11361 0 -0.9935254
vn -0.11361 0 -0.9935254
vn -0.11361 0 -0.9935254
vn -0.11361 0 -0.9935254
vn -0.11361 0 -0.9935254
vn -0.11361 0 -0.9935254
vn -0.11361 0 -0.9935254
vn -0.11361 0 -0.9935254
vn -0.1136099 0 -0.9935255
vn -0.1136099 0 -0.9935255
vn -0.1136099 0 -0.9935255
vn -0.1136099 0 -0.9935255
vn -0.11361 0 -0.9935254
vn -0.11361 0 -0.9935254
vn -0.11361 0 -0.9935254
vn -0.11361 0 -0.9935254
vn -0.1202359 -0.1028179 -0.9874066
vn -0.1202359 -0.1028179 -0.9874066
vn -0.1202359 -0.1028179 -0.9874066
vn -0.1202359 -0.1028179 -0.9874066
vn -0.123797 0.127225 -0.9841179
vn -0.123797 0.127225 -0.9841179
vn -0.123797 0.127225 -0.9841179
vn -0.123797 0.127225 -0.9841179
vn -0.1197031 -0.09862905 -0.9878985
vn -0.1197031 -0.09862905 -0.9878985
vn -0.1197031 -0.09862905 -0.9878985
vn -0.1197031 -0.09862905 -0.9878985
vn -0.1222611 0.117346 -0.9855364
vn -0.1222611 0.117346 -0.9855364
vn -0.1222611 0.117346 -0.9855364
vn -0.1222611 0.117346 -0.9855364
vn 0.1244271 -0.1310491 0.9835365
vn 0.1244271 -0.1310491 0.9835365
vn 0.1244271 -0.1310491 0.9835365
vn 0.1244271 -0.1310491 0.9835365
vn 0.9719532 0.016318 -0.234608
vn 0.9719532 0.016318 -0.234608
vn 0.9719532 0.016318 -0.234608
vn 0.9719532 0.016318 -0.234608
vn -0.1967871 -0.9605702 0.196417
vn -0.1967871 -0.9605702 0.196417
vn -0.1967871 -0.9605702 0.196417
vn -0.1967871 -0.9605702 0.196417
vn 0.846923 -0.526808 -0.072075
vn 0.846923 -0.526808 -0.072075
vn 0.846923 -0.526808 -0.072075
vn 0.846923 -0.526808 -0.072075
vn -0.9719532 -0.016318 0.234608
vn -0.9719532 -0.016318 0.234608
vn -0.9719532 -0.016318 0.234608
vn -0.9719532 -0.016318 0.234608
vn 0.1967871 0.9605702 -0.196417
vn 0.1967871 0.9605702 -0.196417
vn 0.1967871 0.9605702 -0.196417
vn 0.1967871 0.9605702 -0.196417
vn -0.846923 0.526808 0.072075
vn -0.846923 0.526808 0.072075
vn -0.846923 0.526808 0.072075
vn -0.846923 0.526808 0.072075
g BottleBrushDrop_0
f 3/3/3 2/2/2 1/1/1
f 4/4/4 3/3/3 1/1/1
f 7/7/7 6/6/6 5/5/5
f 8/8/8 7/7/7 5/5/5
f 11/11/11 10/10/10 9/9/9
f 12/12/12 11/11/11 9/9/9
f 15/15/15 14/14/14 13/13/13
f 16/16/16 15/15/15 13/13/13
f 19/19/19 18/18/18 17/17/17
f 20/20/20 19/19/19 17/17/17
f 23/23/23 22/22/22 21/21/21
f 24/24/24 23/23/23 21/21/21
f 27/27/27 26/26/26 25/25/25
f 28/28/28 27/27/27 25/25/25
f 31/31/31 30/30/30 29/29/29
f 32/32/32 31/31/31 29/29/29
f 35/35/35 34/34/34 33/33/33
f 36/36/36 35/35/35 33/33/33
f 39/39/39 38/38/38 37/37/37
f 40/40/40 39/39/39 37/37/37
f 43/43/43 42/42/42 41/41/41
f 44/44/44 43/43/43 41/41/41
f 47/47/47 46/46/46 45/45/45
f 48/48/48 47/47/47 45/45/45
f 51/51/51 50/50/50 49/49/49
f 52/52/52 51/51/51 49/49/49
f 55/55/55 54/54/54 53/53/53
f 56/56/56 55/55/55 53/53/53
f 59/59/59 58/58/58 57/57/57
f 60/60/60 59/59/59 57/57/57
f 63/63/63 62/62/62 61/61/61
f 64/64/64 63/63/63 61/61/61
f 67/67/67 66/66/66 65/65/65
f 68/68/68 67/67/67 65/65/65
f 71/71/71 70/70/70 69/69/69
f 72/72/72 71/71/71 69/69/69
f 75/75/75 74/74/74 73/73/73
f 76/76/76 75/75/75 73/73/73
f 79/79/79 78/78/78 77/77/77
f 80/80/80 79/79/79 77/77/77
f 83/83/83 82/82/82 81/81/81
f 84/84/84 83/83/83 81/81/81
f 87/87/87 86/86/86 85/85/85
f 88/88/88 87/87/87 85/85/85
f 91/91/91 90/90/90 89/89/89
f 92/92/92 91/91/91 89/89/89
f 95/95/95 94/94/94 93/93/93
f 96/96/96 95/95/95 93/93/93
f 99/99/99 98/98/98 97/97/97
f 100/100/100 99/99/99 97/97/97
f 103/103/103 102/102/102 101/101/101
f 104/104/104 103/103/103 101/101/101
f 107/107/107 106/106/106 105/105/105
f 108/108/108 107/107/107 105/105/105
f 111/111/111 110/110/110 109/109/109
f 112/112/112 111/111/111 109/109/109
f 115/115/115 114/114/114 113/113/113
f 116/116/116 115/115/115 113/113/113
f 119/119/119 118/118/118 117/117/117
f 120/120/120 119/119/119 117/117/117
f 123/123/123 122/122/122 121/121/121
f 124/124/124 123/123/123 121/121/121
