g BreadSlice
v -0.233182 0.137602 0.125553
v -0.241063 0.156911 0.047741
v -0.241063 0.156911 0.125553
v -0.233182 0.137602 0.047741
v -0.241063 -0.206096 0.125553
v -0.241063 -0.206096 0.047741
v -0.223618 -0.248211 0.047741
v -0.223618 -0.248211 0.125553
v -0.15499 -0.265655 0.047741
v -0.15499 -0.265655 0.125553
v -0.060501 -0.265655 0.047741
v -0.060501 -0.265655 0.125553
v 0.060501 -0.265655 0.047741
v 0.060501 -0.265655 0.125553
v 0.15499 -0.265655 0.047741
v 0.154991 -0.265655 0.125553
v 0.223618 -0.248211 0.047741
v 0.223618 -0.248211 0.125553
v 0.241063 -0.206096 0.047741
v 0.241063 -0.206096 0.125553
v 0.233182 0.137602 0.125553
v 0.233182 0.137602 0.047741
v 0.241063 0.156911 0.125553
v 0.241063 0.156911 0.047741
v -0.241063 0.156911 0.047741
v -0.223619 0.156911 0.042549
v -0.21589 0.191298 0.042549
v -0.223618 0.199026 0.047741
v -0.154991 0.216471 0.047741
v -0.15499 0.199026 0.042549
v -0.060501 0.184189 0.042549
v -0.060501 0.201633 0.047741
v 0.060501 0.184189 0.042549
v 0.060501 0.201633 0.047741
v 0.15499 0.199026 0.042549
v 0.15499 0.216471 0.047741
v 0.21589 0.191298 0.042549
v 0.223618 0.199026 0.047741
v 0.241063 0.156911 0.047741
v 0.223618 0.156911 0.042549
v 0.15499 -0.265655 0.047741
v 0.223618 -0.248211 0.047741
v 0.21589 -0.240482 0.042549
v 0.15499 -0.248211 0.042549
v 0.060501 -0.248211 0.042549
v 0.060501 -0.265655 0.047741
v -0.060501 -0.248211 0.042549
v -0.060501 -0.265655 0.047741
v -0.15499 -0.248211 0.042549
v -0.15499 -0.265655 0.047741
v -0.21589 -0.240482 0.042549
v -0.223618 -0.248211 0.047741
v -0.241063 -0.206096 0.047741
v -0.223618 -0.206096 0.042549
v -0.216308 0.137602 0.042549
v -0.233182 0.137602 0.047741
v -0.223619 0.156911 0.042549
v -0.241063 0.156911 0.047741
v 0.241063 -0.206096 0.047741
v 0.223618 -0.248211 0.047741
v 0.223618 -0.206096 0.042549
v 0.233182 0.137602 0.047741
v 0.216308 0.137602 0.042549
v 0.241063 0.156911 0.047741
v 0.223618 0.156911 0.042549
v -0.241063 0.156911 0.125553
v -0.21589 0.191298 0.12873
v -0.223618 0.156911 0.12873
v -0.223618 0.199026 0.125553
v -0.15499 0.216471 0.125553
v -0.15499 0.199026 0.12873
v -0.060501 0.201633 0.125553
v -0.060501 0.184189 0.12873
v 0.060501 0.201633 0.125553
v 0.060501 0.184189 0.12873
v 0.15499 0.216471 0.125553
v 0.15499 0.199026 0.12873
v 0.21589 0.191298 0.12873
v 0.223618 0.199026 0.125553
v 0.241063 0.156911 0.125553
v 0.223618 0.156911 0.12873
v 0.223618 0.199026 0.047741
v 0.241063 0.156911 0.047741
v 0.241063 0.156911 0.125553
v 0.223618 0.199026 0.125553
v 0.15499 0.216471 0.047741
v 0.15499 0.216471 0.125553
v 0.060501 0.201633 0.047741
v 0.060501 0.201633 0.125553
v -0.060501 0.201633 0.047741
v -0.060501 0.201633 0.125553
v -0.154991 0.216471 0.047741
v -0.15499 0.216471 0.125553
v -0.223618 0.199026 0.047741
v -0.223618 0.199026 0.125553
v -0.241063 0.156911 0.047741
v -0.241063 0.156911 0.125553
v -0.241063 0.156911 0.125553
v -0.223618 0.156911 0.12873
v -0.216308 0.137602 0.12873
v -0.233182 0.137602 0.125553
v -0.223618 -0.206096 0.12873
v -0.241063 -0.206096 0.125553
v -0.21589 -0.240482 0.12873
v -0.223618 -0.248211 0.125553
v -0.15499 -0.265655 0.125553
v -0.15499 -0.248211 0.12873
v -0.060501 -0.248211 0.12873
v -0.060501 -0.265655 0.125553
v 0.060501 -0.248211 0.12873
v 0.060501 -0.265655 0.125553
v 0.15499 -0.248211 0.12873
v 0.154991 -0.265655 0.125553
v 0.21589 -0.240482 0.12873
v 0.223618 -0.248211 0.125553
v 0.241063 -0.206096 0.125553
v 0.223619 -0.206096 0.12873
v 0.216308 0.137602 0.12873
v 0.233182 0.137602 0.125553
v 0.223618 0.156911 0.12873
v 0.241063 0.156911 0.125553
v 0.15499 -0.206096 0.042549
v 0.21589 -0.240482 0.042549
v 0.223618 -0.206096 0.042549
v 0.15499 -0.248211 0.042549
v 0.216308 0.137602 0.042549
v 0.060501 -0.206096 0.042549
v 0.060501 -0.248211 0.042549
v 0.149923 0.137602 0.042549
v 0.223618 0.156911 0.042549
v -0.060501 -0.206096 0.042549
v -0.060501 -0.248211 0.042549
v 0.15499 0.156911 0.042549
v 0.21589 0.191298 0.042549
v 0.15499 0.199026 0.042549
v 0.060501 0.184189 0.042549
v 0.058523 0.123554 0.042549
v 0.060501 0.142074 0.042549
v -0.060501 0.184189 0.042549
v -0.15499 -0.206096 0.042549
v -0.15499 -0.248211 0.042549
v -0.21589 -0.240482 0.042549
v -0.223618 -0.206096 0.042549
v -0.058523 0.123554 0.042549
v -0.060501 0.142074 0.042549
v -0.15499 0.199026 0.042549
v -0.149923 0.137602 0.042549
v -0.216308 0.137602 0.042549
v -0.15499 0.156911 0.042549
v -0.21589 0.191298 0.042549
v -0.223619 0.156911 0.042549
v -0.15499 -0.206096 0.12873
v -0.21589 -0.240482 0.12873
v -0.223618 -0.206096 0.12873
v -0.15499 -0.248211 0.12873
v -0.216308 0.137602 0.12873
v -0.060501 -0.206096 0.12873
v -0.060501 -0.248211 0.12873
v -0.149923 0.137602 0.12873
v -0.223618 0.156911 0.12873
v 0.060501 -0.206096 0.12873
v 0.060501 -0.248211 0.12873
v -0.15499 0.156911 0.12873
v -0.21589 0.191298 0.12873
v -0.15499 0.199026 0.12873
v -0.060501 0.184189 0.12873
v -0.058523 0.123554 0.12873
v -0.060501 0.142074 0.12873
v 0.060501 0.184189 0.12873
v 0.15499 -0.206096 0.12873
v 0.15499 -0.248211 0.12873
v 0.21589 -0.240482 0.12873
v 0.223619 -0.206096 0.12873
v 0.058523 0.123554 0.12873
v 0.060501 0.142074 0.12873
v 0.15499 0.199026 0.12873
v 0.149923 0.137602 0.12873
v 0.216308 0.137602 0.12873
v 0.15499 0.156911 0.12873
v 0.21589 0.191298 0.12873
v 0.223618 0.156911 0.12873
vt 0.361594 0.887341
vt 0.447 0.86333
vt 0.361594 0.86333
vt 0.447 0.887341
vt 0.361594 0.911351
vt 0.447 0.911351
vt 0.447 0.916922
vt 0.361594 0.916923
vt 0.447 0.91923
vt 0.361594 0.91923
vt 0.447 0.91923
vt 0.361594 0.91923
vt 0.447 0.91923
vt 0.361594 0.91923
vt 0.447 0.91923
vt 0.361594 0.91923
vt 0.447 0.916922
vt 0.361594 0.916923
vt 0.447 0.910736
vt 0.361594 0.910736
vt 0.361594 0.886725
vt 0.447 0.886725
vt 0.361594 0.862715
vt 0.447 0.862715
vt 0.669083 0.886991
vt 0.666804 0.881923
vt 0.665795 0.882853
vt 0.666804 0.886991
vt 0.657841 0.886991
vt 0.657841 0.881923
vt 0.645501 0.881923
vt 0.645501 0.886991
vt 0.629697 0.881923
vt 0.629697 0.886991
vt 0.617356 0.881923
vt 0.617356 0.886991
vt 0.609403 0.882853
vt 0.608393 0.886991
vt 0.606115 0.886991
vt 0.608393 0.881923
vt 0.447 0.91923
vt 0.447 0.916922
vt 0.451077 0.9159
vt 0.451993 0.916922
vt 0.451993 0.916922
vt 0.447 0.91923
vt 0.451993 0.916922
vt 0.447 0.91923
vt 0.451993 0.916922
vt 0.447 0.91923
vt 0.451077 0.9159
vt 0.447 0.916922
vt 0.447 0.911351
vt 0.451993 0.911351
vt 0.451993 0.887341
vt 0.447 0.887341
vt 0.451993 0.86333
vt 0.447 0.86333
vt 0.447 0.910736
vt 0.447 0.916307
vt 0.451993 0.910736
vt 0.447 0.886725
vt 0.451993 0.886725
vt 0.447 0.862715
vt 0.451993 0.862715
vt 0.669083 0.973687
vt 0.665795 0.977826
vt 0.666804 0.978756
vt 0.666804 0.973687
vt 0.657841 0.973687
vt 0.657841 0.978756
vt 0.645501 0.973687
vt 0.645501 0.978756
vt 0.629697 0.973687
vt 0.629697 0.978756
vt 0.617356 0.973687
vt 0.617356 0.978756
vt 0.609403 0.977826
vt 0.608393 0.973687
vt 0.606115 0.973687
vt 0.608393 0.978756
vt 0.608393 0.886991
vt 0.606115 0.886991
vt 0.606115 0.973687
vt 0.608393 0.973687
vt 0.617356 0.886991
vt 0.617356 0.973687
vt 0.629697 0.886991
vt 0.629697 0.973687
vt 0.645501 0.886991
vt 0.645501 0.973687
vt 0.657841 0.886991
vt 0.657841 0.973687
vt 0.666804 0.886991
vt 0.666804 0.973687
vt 0.669083 0.886991
vt 0.669083 0.973687
vt 0.361594 0.86333
vt 0.356601 0.86333
vt 0.356601 0.887341
vt 0.361594 0.887341
vt 0.356601 0.911351
vt 0.361594 0.911351
vt 0.357517 0.9159
vt 0.361594 0.916923
vt 0.361594 0.91923
vt 0.356601 0.916923
vt 0.356601 0.916923
vt 0.361594 0.91923
vt 0.356601 0.916923
vt 0.361594 0.91923
vt 0.356601 0.916923
vt 0.361594 0.91923
vt 0.357517 0.9159
vt 0.361594 0.916923
vt 0.361594 0.910736
vt 0.356601 0.910736
vt 0.356601 0.886725
vt 0.361594 0.886725
vt 0.356601 0.862715
vt 0.361594 0.862715
vt 0.148282 0.741653
vt 0.138697 0.735497
vt 0.137481 0.741653
vt 0.148282 0.734114
vt 0.138631 0.803176
vt 0.163153 0.741653
vt 0.163153 0.734114
vt 0.149079 0.803176
vt 0.137481 0.806633
vt 0.182196 0.741653
vt 0.182196 0.734114
vt 0.148282 0.806633
vt 0.138697 0.812788
vt 0.148282 0.814172
vt 0.163153 0.811516
vt 0.163464 0.800662
vt 0.163153 0.803977
vt 0.182196 0.811516
vt 0.197067 0.741653
vt 0.197067 0.734114
vt 0.206652 0.735497
vt 0.207868 0.741653
vt 0.181885 0.800662
vt 0.182196 0.803977
vt 0.197067 0.814172
vt 0.19627 0.803176
vt 0.206718 0.803176
vt 0.197067 0.806633
vt 0.206652 0.812788
vt 0.207868 0.806633
vt 0.197067 0.741653
vt 0.206652 0.735497
vt 0.207868 0.741653
vt 0.197067 0.734114
vt 0.206718 0.803176
vt 0.182196 0.741653
vt 0.182196 0.734114
vt 0.19627 0.803176
vt 0.207868 0.806633
vt 0.163153 0.741653
vt 0.163153 0.734114
vt 0.197067 0.806633
vt 0.206652 0.812788
vt 0.197067 0.814172
vt 0.182196 0.811516
vt 0.181885 0.800662
vt 0.182196 0.803977
vt 0.163153 0.811516
vt 0.148282 0.741653
vt 0.148282 0.734114
vt 0.138697 0.735497
vt 0.137481 0.741653
vt 0.163464 0.800662
vt 0.163153 0.803977
vt 0.148282 0.814172
vt 0.149079 0.803176
vt 0.138631 0.803176
vt 0.148282 0.806633
vt 0.138697 0.812788
vt 0.137481 0.806633
vn -1 0 0
vn -0.988094 0.1538507 0
vn -0.988094 0.1538507 0
vn -1 0 0
vn -0.9996929 -0.02478158 0
vn -0.9996929 -0.02478158 0
vn -0.5690163 -0.8223262 0
vn -0.5690163 -0.8223262 0
vn -0.1063354 -0.9943303 0
vn -0.1063354 -0.9943303 0
vn 0 -1 0
vn 0 -1 0
vn 0 -1 0
vn 0 -1 0
vn 0.1063344 -0.9943304 0
vn 0.1063364 -0.9943302 0
vn 0.5690185 -0.8223248 0
vn 0.5690185 -0.8223248 0
vn 0.9996929 -0.02478158 0
vn 0.9996929 -0.02478158 0
vn 1 0 0
vn 1 0 0
vn 0.988094 0.1538507 0
vn 0.988094 0.1538507 0
vn -0.3275862 0.02818692 -0.9444007
vn -0.08400109 0.00628808 -0.9964458
vn -0.07132432 0.1110272 -0.9912546
vn -0.1865253 0.2658989 -0.9457833
vn 0.006100346 0.3115029 -0.9502257
vn 0.001619514 0.1041927 -0.9945558
vn 0.005315243 0.08174597 -0.996639
vn 0.02064343 0.2852067 -0.9582437
vn -0.005315243 0.08174578 -0.996639
vn -0.02064345 0.2852062 -0.9582439
vn -0.001618947 0.1041926 -0.9945558
vn -0.006102307 0.3115017 -0.9502261
vn 0.07132541 0.1110282 -0.9912545
vn 0.1865233 0.2658955 -0.9457847
vn 0.3275772 0.02818615 -0.9444039
vn 0.08399823 0.00628802 -0.9964461
vn 0.02213057 -0.3097319 -0.9505663
vn 0.1865157 -0.2659006 -0.9457847
vn 0.07132597 -0.1110265 -0.9912546
vn 0.007940336 -0.09620427 -0.99533
vn 0 -0.08684469 -0.9962218
vn 0 -0.2852702 -0.9584471
vn 0 -0.08684469 -0.9962218
vn 0 -0.2852702 -0.9584471
vn -0.007940337 -0.09620427 -0.99533
vn -0.02213057 -0.3097319 -0.9505663
vn -0.07132599 -0.1110265 -0.9912546
vn -0.1865157 -0.2659006 -0.9457847
vn -0.2936977 -0.001666419 -0.9558969
vn -0.0642447 -0.001081083 -0.9979336
vn -0.05886015 0.0002609494 -0.9982663
vn -0.2896067 -0.001307861 -0.9571449
vn -0.08400109 0.00628808 -0.9964458
vn -0.3275862 0.02818692 -0.9444007
vn 0.2936977 -0.001666419 -0.9558969
vn 0.1865157 -0.2659006 -0.9457847
vn 0.0642447 -0.001081083 -0.9979336
vn 0.2896062 -0.001307382 -0.957145
vn 0.0588603 0.0002609797 -0.9982663
vn 0.3275772 0.02818615 -0.9444039
vn 0.08399823 0.00628802 -0.9964461
vn -0.2075859 0.01785609 0.9780538
vn -0.04433579 0.06912515 0.9966223
vn -0.05166057 0.003852032 0.9986572
vn -0.118596 0.1679128 0.978642
vn 0.003885896 0.1966501 0.9804659
vn 0.0009976876 0.06406613 0.9979451
vn 0.01298398 0.179161 0.9837341
vn 0.003251182 0.05008383 0.9987398
vn -0.01298398 0.179161 0.9837341
vn -0.003251182 0.05008383 0.9987398
vn -0.003885896 0.1966501 0.9804659
vn -0.0009976876 0.06406613 0.9979451
vn 0.04433579 0.06912515 0.9966223
vn 0.118596 0.1679128 0.978642
vn 0.2075859 0.01785609 0.9780538
vn 0.05166057 0.003852033 0.9986572
vn 0.5690227 0.8223218 0
vn 0.988094 0.1538507 0
vn 0.988094 0.1538507 0
vn 0.5690227 0.8223218 0
vn 0.01598039 0.9998723 0
vn 0.01598039 0.9998723 0
vn -0.06869403 0.9976379 0
vn -0.06869403 0.9976379 0
vn 0.06869388 0.9976379 0
vn 0.06869388 0.9976379 0
vn -0.01598197 0.9998723 0
vn -0.01597876 0.9998723 0
vn -0.5690249 0.8223203 0
vn -0.5690249 0.8223203 0
vn -0.988094 0.1538507 0
vn -0.988094 0.1538507 0
vn -0.2075859 0.01785609 0.9780538
vn -0.05166057 0.003852032 0.9986572
vn -0.03603542 0.0001646079 0.9993505
vn -0.1820513 -0.0008456483 0.9832886
vn -0.03938325 -0.0006666139 0.9992239
vn -0.1847477 -0.00100864 0.9827854
vn -0.04433614 -0.06912393 0.9966224
vn -0.1185908 -0.1679165 0.9786421
vn -0.01392302 -0.19546 0.9806128
vn -0.004881221 -0.05907575 0.9982415
vn 0 -0.05326635 0.9985803
vn 0 -0.1791782 0.9838166
vn 0 -0.05326644 0.9985803
vn 0 -0.1791782 0.9838166
vn 0.00488103 -0.05907577 0.9982415
vn 0.0139237 -0.1954603 0.9806128
vn 0.04433544 -0.06912331 0.9966224
vn 0.1185921 -0.1679189 0.9786415
vn 0.1847529 -0.001008612 0.9827845
vn 0.03938347 -0.0006666417 0.9992239
vn 0.03603531 0.0001646565 0.9993505
vn 0.1820561 -0.0008454226 0.9832878
vn 0.05166057 0.003852033 0.9986572
vn 0.2075859 0.01785609 0.9780538
vn 0 0 -1
vn 0.07132597 -0.1110265 -0.9912546
vn 0.0642447 -0.001081083 -0.9979336
vn 0.007940336 -0.09620427 -0.99533
vn 0.0588603 0.0002609797 -0.9982663
vn 0 0 -1
vn 0 -0.08684469 -0.9962218
vn 0 0 -1
vn 0.08399823 0.00628802 -0.9964461
vn 0 0 -1
vn 0 -0.08684469 -0.9962218
vn 0 0 -1
vn 0.07132541 0.1110282 -0.9912545
vn -0.001618947 0.1041926 -0.9945558
vn -0.005315243 0.08174578 -0.996639
vn 0 0 -1
vn 0 0 -1
vn 0.005315243 0.08174597 -0.996639
vn 0 0 -1
vn -0.007940337 -0.09620427 -0.99533
vn -0.07132599 -0.1110265 -0.9912546
vn -0.0642447 -0.001081083 -0.9979336
vn 0 0 -1
vn 0 0 -1
vn 0.001619514 0.1041927 -0.9945558
vn 0 0 -1
vn -0.05886015 0.0002609494 -0.9982663
vn 0 0 -1
vn -0.07132432 0.1110272 -0.9912546
vn -0.08400109 0.00628808 -0.9964458
vn 0 0 1
vn -0.04433614 -0.06912393 0.9966224
vn -0.03938325 -0.0006666139 0.9992239
vn -0.004881221 -0.05907575 0.9982415
vn -0.03603542 0.0001646079 0.9993505
vn 0 0 1
vn 0 -0.05326635 0.9985803
vn 0 0 1
vn -0.05166057 0.003852032 0.9986572
vn 0 0 1
vn 0 -0.05326644 0.9985803
vn 0 0 1
vn -0.04433579 0.06912515 0.9966223
vn 0.0009976876 0.06406613 0.9979451
vn 0.003251182 0.05008383 0.9987398
vn 0 0 1
vn 0 0 1
vn -0.003251182 0.05008383 0.9987398
vn 0 0 1
vn 0.00488103 -0.05907577 0.9982415
vn 0.04433544 -0.06912331 0.9966224
vn 0.03938347 -0.0006666417 0.9992239
vn 0 0 1
vn 0 0 1
vn -0.0009976876 0.06406613 0.9979451
vn 0 0 1
vn 0.03603531 0.0001646565 0.9993505
vn 0 0 1
vn 0.04433579 0.06912515 0.9966223
vn 0.05166057 0.003852033 0.9986572
g BreadSlice_0
f 3/3/3 2/2/2 1/1/1
f 2/2/2 4/4/4 1/1/1
f 1/1/1 4/4/4 5/5/5
f 4/4/4 6/6/6 5/5/5
f 5/5/5 6/6/6 7/7/7
f 8/8/8 5/5/5 7/7/7
f 8/8/8 7/7/7 9/9/9
f 10/10/10 8/8/8 9/9/9
f 10/10/10 9/9/9 11/11/11
f 12/12/12 10/10/10 11/11/11
f 12/12/12 11/11/11 13/13/13
f 14/14/14 12/12/12 13/13/13
f 14/14/14 13/13/13 15/15/15
f 16/16/16 14/14/14 15/15/15
f 15/15/15 17/17/17 16/16/16
f 17/17/17 18/18/18 16/16/16
f 17/17/17 19/19/19 18/18/18
f 19/19/19 20/20/20 18/18/18
f 21/21/21 20/20/20 19/19/19
f 22/22/22 21/21/21 19/19/19
f 23/23/23 21/21/21 22/22/22
f 24/24/24 23/23/23 22/22/22
f 27/27/27 26/26/26 25/25/25
f 28/28/28 27/27/27 25/25/25
f 27/27/27 28/28/28 29/29/29
f 30/30/30 27/27/27 29/29/29
f 31/31/31 30/30/30 29/29/29
f 32/32/32 31/31/31 29/29/29
f 33/33/33 31/31/31 32/32/32
f 34/34/34 33/33/33 32/32/32
f 35/35/35 33/33/33 34/34/34
f 36/36/36 35/35/35 34/34/34
f 37/37/37 35/35/35 36/36/36
f 38/38/38 37/37/37 36/36/36
f 37/37/37 38/38/38 39/39/39
f 40/40/40 37/37/37 39/39/39
f 43/43/43 42/42/42 41/41/41
f 44/44/44 43/43/43 41/41/41
f 45/45/45 44/44/44 41/41/41
f 46/46/46 45/45/45 41/41/41
f 47/47/47 45/45/45 46/46/46
f 48/48/48 47/47/47 46/46/46
f 49/49/49 47/47/47 48/48/48
f 50/50/50 49/49/49 48/48/48
f 51/51/51 49/49/49 50/50/50
f 52/52/52 51/51/51 50/50/50
f 51/51/51 52/52/52 53/53/53
f 54/54/54 51/51/51 53/53/53
f 55/55/55 54/54/54 53/53/53
f 56/56/56 55/55/55 53/53/53
f 57/57/57 55/55/55 56/56/56
f 58/58/58 57/57/57 56/56/56
f 60/60/60 43/43/43 59/59/59
f 43/43/43 61/61/61 59/59/59
f 59/59/59 61/61/61 62/62/62
f 61/61/61 63/63/63 62/62/62
f 62/62/62 63/63/63 64/64/64
f 63/63/63 65/65/65 64/64/64
f 68/68/68 67/67/67 66/66/66
f 67/67/67 69/69/69 66/66/66
f 69/69/69 67/67/67 70/70/70
f 67/67/67 71/71/71 70/70/70
f 70/70/70 71/71/71 72/72/72
f 71/71/71 73/73/73 72/72/72
f 72/72/72 73/73/73 74/74/74
f 73/73/73 75/75/75 74/74/74
f 74/74/74 75/75/75 76/76/76
f 75/75/75 77/77/77 76/76/76
f 77/77/77 78/78/78 76/76/76
f 78/78/78 79/79/79 76/76/76
f 79/79/79 78/78/78 80/80/80
f 78/78/78 81/81/81 80/80/80
f 84/84/84 83/83/83 82/82/82
f 85/85/85 84/84/84 82/82/82
f 85/85/85 82/82/82 86/86/86
f 87/87/87 85/85/85 86/86/86
f 86/86/86 88/88/88 87/87/87
f 88/88/88 89/89/89 87/87/87
f 88/88/88 90/90/90 89/89/89
f 90/90/90 91/91/91 89/89/89
f 90/90/90 92/92/92 91/91/91
f 92/92/92 93/93/93 91/91/91
f 92/92/92 94/94/94 93/93/93
f 94/94/94 95/95/95 93/93/93
f 94/94/94 96/96/96 95/95/95
f 96/96/96 97/97/97 95/95/95
f 100/100/100 99/99/99 98/98/98
f 101/101/101 100/100/100 98/98/98
f 102/102/102 100/100/100 101/101/101
f 103/103/103 102/102/102 101/101/101
f 104/104/104 102/102/102 103/103/103
f 105/105/105 104/104/104 103/103/103
f 104/104/104 105/105/105 106/106/106
f 107/107/107 104/104/104 106/106/106
f 108/108/108 107/107/107 106/106/106
f 109/109/109 108/108/108 106/106/106
f 110/110/110 108/108/108 109/109/109
f 111/111/111 110/110/110 109/109/109
f 112/112/112 110/110/110 111/111/111
f 113/113/113 112/112/112 111/111/111
f 114/114/114 112/112/112 113/113/113
f 115/115/115 114/114/114 113/113/113
f 114/114/114 115/115/115 116/116/116
f 117/117/117 114/114/114 116/116/116
f 117/117/117 116/116/116 118/118/118
f 116/116/116 119/119/119 118/118/118
f 118/118/118 119/119/119 120/120/120
f 119/119/119 121/121/121 120/120/120
f 124/124/124 123/123/123 122/122/122
f 123/123/123 125/125/125 122/122/122
f 124/124/124 122/122/122 126/126/126
f 127/127/127 122/122/122 125/125/125
f 128/128/128 127/127/127 125/125/125
f 122/122/122 129/129/129 126/126/126
f 129/129/129 122/122/122 127/127/127
f 126/126/126 129/129/129 130/130/130
f 131/131/131 127/127/127 128/128/128
f 132/132/132 131/131/131 128/128/128
f 129/129/129 133/133/133 130/130/130
f 134/134/134 130/130/130 133/133/133
f 135/135/135 134/134/134 133/133/133
f 135/135/135 133/133/133 136/136/136
f 137/137/137 129/129/129 127/127/127
f 133/133/133 129/129/129 137/137/137
f 137/137/137 127/127/127 131/131/131
f 133/133/133 138/138/138 136/136/136
f 138/138/138 133/133/133 137/137/137
f 136/136/136 138/138/138 139/139/139
f 140/140/140 131/131/131 132/132/132
f 141/141/141 140/140/140 132/132/132
f 141/141/141 142/142/142 140/140/140
f 142/142/142 143/143/143 140/140/140
f 144/144/144 137/137/137 131/131/131
f 138/138/138 137/137/137 144/144/144
f 144/144/144 131/131/131 140/140/140
f 138/138/138 145/145/145 139/139/139
f 145/145/145 138/138/138 144/144/144
f 139/139/139 145/145/145 146/146/146
f 147/147/147 140/140/140 143/143/143
f 147/147/147 144/144/144 140/140/140
f 145/145/145 144/144/144 147/147/147
f 148/148/148 147/147/147 143/143/143
f 145/145/145 149/149/149 146/146/146
f 149/149/149 145/145/145 147/147/147
f 149/149/149 147/147/147 148/148/148
f 150/150/150 146/146/146 149/149/149
f 151/151/151 149/149/149 148/148/148
f 151/151/151 150/150/150 149/149/149
f 154/154/154 153/153/153 152/152/152
f 153/153/153 155/155/155 152/152/152
f 154/154/154 152/152/152 156/156/156
f 157/157/157 152/152/152 155/155/155
f 158/158/158 157/157/157 155/155/155
f 152/152/152 159/159/159 156/156/156
f 159/159/159 152/152/152 157/157/157
f 156/156/156 159/159/159 160/160/160
f 161/161/161 157/157/157 158/158/158
f 162/162/162 161/161/161 158/158/158
f 159/159/159 163/163/163 160/160/160
f 164/164/164 160/160/160 163/163/163
f 165/165/165 164/164/164 163/163/163
f 165/165/165 163/163/163 166/166/166
f 167/167/167 159/159/159 157/157/157
f 163/163/163 159/159/159 167/167/167
f 167/167/167 157/157/157 161/161/161
f 163/163/163 168/168/168 166/166/166
f 168/168/168 163/163/163 167/167/167
f 166/166/166 168/168/168 169/169/169
f 170/170/170 161/161/161 162/162/162
f 171/171/171 170/170/170 162/162/162
f 171/171/171 172/172/172 170/170/170
f 172/172/172 173/173/173 170/170/170
f 174/174/174 167/167/167 161/161/161
f 168/168/168 167/167/167 174/174/174
f 174/174/174 161/161/161 170/170/170
f 168/168/168 175/175/175 169/169/169
f 175/175/175 168/168/168 174/174/174
f 169/169/169 175/175/175 176/176/176
f 170/170/170 173/173/173 177/177/177
f 177/177/177 174/174/174 170/170/170
f 175/175/175 174/174/174 177/177/177
f 173/173/173 178/178/178 177/177/177
f 175/175/175 179/179/179 176/176/176
f 179/179/179 175/175/175 177/177/177
f 177/177/177 178/178/178 179/179/179
f 180/180/180 176/176/176 179/179/179
f 178/178/178 181/181/181 179/179/179
f 181/181/181 180/180/180 179/179/179
