g BrickSteps
v -1 -0.99731 0.232952
v 1 -0.99731 0.116658
v -1 -0.99731 0.114304
v 1 -0.99731 0.235306
v 1 -0.956968 0.331025
v -1 -0.956968 0.328975
v -1 -0.289659 0.66
v -1 -0.33 0.564129
v -1 -0.33 0.445481
v -1 0.406076 0.445481
v -1 0.406076 0.66
v 1 -0.253924 0.115481
v 1 -0.99731 0.116658
v 1 -0.99731 0.235306
v 1 -0.956968 0.331025
v 1 -0.253924 0.33
v -1 0.370341 1
v -1 0.33 0.904129
v -1 0.33 0.785481
v -1 1.076077 0.785481
v -1 1.076077 1
v -1 -0.33 0.564129
v 1 -0.33 0.445481
v -1 -0.33 0.445481
v 1 -0.33 0.564129
v 1 -0.289659 0.66
v -1 -0.289659 0.66
v 1 1.076077 0.785481
v 1 0.33 0.785481
v 1 0.33 0.904129
v 1 0.370341 1
v 1 1.076077 1
v -1 0.33 0.904129
v 1 0.33 0.785481
v -1 0.33 0.785481
v 1 0.33 0.904129
v 1 0.370341 1
v -1 0.370341 1
v -1 -0.253923 0.33
v 1 -0.253924 0.33
v 1 -0.956968 0.331025
v -1 -0.956968 0.328975
v -1 -0.289659 0.66
v -1 0.406076 0.66
v 1 0.406077 0.66
v 1 -0.289659 0.66
v 1 0.406077 0.445481
v 1 -0.33 0.445481
v 1 -0.33 0.564129
v 1 -0.289659 0.66
v 1 0.406077 0.66
v -1 0.370341 1
v -1 1.076077 1
v 1 1.076077 1
v 1 0.370341 1
v 1 0.406077 0.66
v -1 0.406076 0.66
v -1 0.406076 0.445481
v 1 0.406077 0.445481
v 1 -0.253924 0.33
v -1 -0.253923 0.33
v -1 -0.253923 0.115481
v 1 -0.253924 0.115481
v 1 1.076077 1
v -1 1.076077 1
v -1 1.076077 0.785481
v 1 1.076077 0.785481
v -1 0.33 0.785481
v 1 0.33 0.785481
v 1 1.076077 0.785481
v -1 1.076077 0.785481
v -1 -0.33 0.445481
v 1 -0.33 0.445481
v 1 0.406077 0.445481
v -1 0.406076 0.445481
v -1 -0.253923 0.115481
v -1 -0.99731 0.114304
v 1 -0.99731 0.116658
v 1 -0.253924 0.115481
v -0.99 -0.258938 0
v -0.99 0.399358 0.473013
v -0.99 -0.258938 0.473013
v -0.99 0.399358 0
v -0.99 1 0.473013
v -0.99 1 0
v -0.99 1 0.788355
v -0.99 0.399358 0.788355
v -0.99 -0.955115 0
v -0.99 -0.258938 0.136848
v -0.99 -0.955115 0.136848
v 0.99 -0.258938 0
v -0.99 -0.258938 0
v -0.99 -0.258938 0.473013
v 0.99 -0.258938 0.473013
v 0.99 -0.955115 0
v -0.99 -0.955115 0
v -0.99 -0.955115 0.136848
v 0.99 -0.955115 0.136848
v -0.99 1 0.473013
v 0.99 1 0.788355
v -0.99 1 0.788355
v 0.99 1 0.473013
v -0.99 1 0
v 0.99 1 0
v -0.99 -0.258938 0.473013
v -0.99 0.399358 0.473013
v 0.99 0.399358 0.473013
v 0.99 -0.258938 0.473013
v -0.99 0.399358 0.788355
v -0.99 1 0.788355
v 0.99 1 0.788355
v 0.99 0.399358 0.788355
v 0.99 0.399358 0.473013
v -0.99 0.399358 0.473013
v -0.99 0.399358 0.788355
v 0.99 0.399358 0.788355
v 0.99 1 0.473013
v 0.99 0.399358 0.788355
v 0.99 1 0.788355
v 0.99 0.399358 0.473013
v 0.99 1 0
v 0.99 0.399358 0
v 0.99 -0.258938 0.473013
v 0.99 -0.258938 0
v 0.99 -0.955115 0
v 0.99 -0.955115 0.136848
v 0.99 -0.258938 0.136848
v -0.99 -0.955115 0.136848
v -0.99 -0.258938 0.136848
v 0.99 -0.258938 0.136848
v 0.99 -0.955115 0.136848
v -0.99 -0.258938 0
v 0.99 -0.258938 0
v 0.99 -0.258938 0.136848
v -0.99 -0.258938 0.136848
v -1 -0.956968 0.328975
v -1 -0.99731 0.232952
v -1 -0.99731 0.114304
v -1 -0.253923 0.115481
v -1 -0.253923 0.33
vt 0.375 0.235925
vt 0.625 0.235925
vt 0.375 0.235925
vt 0.625 0.235925
vt 0.625 0.247485
vt 0.375 0.247485
vt 0.375 0.304693
vt 0.375 0.293134
vt 0.375 0.293134
vt 0.375 0.381887
vt 0.375 0.381887
vt 0.625 0.32556
vt 0.625 0.235925
vt 0.625 0.235925
vt 0.625 0.247485
vt 0.625 0.32556
vt 0.375 0.367221
vt 0.375 0.355661
vt 0.375 0.355661
vt 0.375 0.44562
vt 0.375 0.44562
vt 0.375 0.293134
vt 0.625 0.293134
vt 0.375 0.293134
vt 0.625 0.293134
vt 0.625 0.304693
vt 0.375 0.304693
vt 0.625 0.44562
vt 0.625 0.355661
vt 0.625 0.355661
vt 0.625 0.367221
vt 0.625 0.44562
vt 0.375 0.355661
vt 0.625 0.355661
vt 0.375 0.355661
vt 0.625 0.355661
vt 0.625 0.367221
vt 0.375 0.367221
vt 0.375 0.32556
vt 0.625 0.32556
vt 0.625 0.247485
vt 0.375 0.247485
vt 0.375 0.304693
vt 0.375 0.381887
vt 0.625 0.381887
vt 0.625 0.304693
vt 0.625 0.381887
vt 0.625 0.293134
vt 0.625 0.293134
vt 0.625 0.304693
vt 0.625 0.381887
vt 0.375 0.367221
vt 0.375 0.44562
vt 0.625 0.44562
vt 0.625 0.367221
vt 0.594786 0.627706
vt 0.348617 0.627707
vt 0.348617 0.627707
vt 0.594786 0.627706
vt 0.594785 0.627587
vt 0.348616 0.627587
vt 0.348616 0.627587
vt 0.594785 0.627587
vt 0.625 0.821863
vt 0.375 0.821863
vt 0.375 0.821863
vt 0.625 0.821863
vt 0.348616 0.900498
vt 0.594785 0.900498
vt 0.594786 0.963764
vt 0.348617 0.963763
vt 0.348616 0.900379
vt 0.594785 0.900378
vt 0.594786 0.963643
vt 0.348617 0.963645
vt 0.348616 0.963524
vt 0.348616 0.899315
vt 0.594785 0.899314
vt 0.594785 0.963524
vt 0.46402 0.648438
vt 0.548196 0.798438
vt 0.46402 0.798438
vt 0.548196 0.648438
vt 0.625 0.798438
vt 0.625 0.648438
vt 0.625 0.898438
vt 0.548196 0.898438
vt 0.375 0.648438
vt 0.46402 0.691834
vt 0.375 0.691834
vt 0.625 0.65625
vt 0.375 0.65625
vt 0.375 0.80625
vt 0.625 0.80625
vt 0.625 0.65625
vt 0.375 0.65625
vt 0.375 0.699647
vt 0.625 0.699647
vt 0.375 0.80625
vt 0.625 0.90625
vt 0.375 0.90625
vt 0.625 0.80625
vt 0.375 0.65625
vt 0.625 0.65625
vt 0.348616 0.916314
vt 0.348616 0.932131
vt 0.594785 0.932131
vt 0.594785 0.916314
vt 0.348616 0.932131
vt 0.348617 0.963763
vt 0.594786 0.963764
vt 0.594785 0.932131
vt 0.625 0.80625
vt 0.375 0.80625
vt 0.375 0.90625
vt 0.625 0.90625
vt 0.625 0.798438
vt 0.548196 0.898438
vt 0.625 0.898438
vt 0.548196 0.798438
vt 0.625 0.648438
vt 0.548196 0.648438
vt 0.46402 0.798438
vt 0.46402 0.648438
vt 0.375 0.648438
vt 0.375 0.691834
vt 0.46402 0.691834
vt 0.348616 0.900498
vt 0.348616 0.916314
vt 0.594785 0.916314
vt 0.594785 0.900498
vt 0.348616 0.916314
vt 0.594785 0.916314
vt 0.594785 0.916314
vt 0.348616 0.916314
vt 0.375 0.247485
vt 0.375 0.235925
vt 0.375 0.235925
vt 0.375 0.32556
vt 0.375 0.32556
vn -0.0002033287 -0.9827995 0.1846759
vn 0 -1 0
vn 0 -1 0
vn -0.0002036418 -0.982746 0.1849602
vn -0.0004270292 -0.9217204 0.3878548
vn -0.0004270293 -0.9217204 0.3878547
vn -1 0 0
vn -1 0 0
vn -1 0 0
vn -1 0 0
vn -1 0 0
vn 1 0 0
vn 1 0 0
vn 1 0 0
vn 1 0 0
vn 1 0 0
vn -1 0 0
vn -1 0 0
vn -1 0 0
vn -1 0 0
vn -1 0 0
vn 0 -0.9827735 0.1848138
vn 0 -1 0
vn 0 -1 0
vn 0 -0.9827735 0.1848138
vn 0 -0.9217238 0.3878468
vn 0 -0.9217238 0.3878468
vn 1 0 0
vn 1 0 0
vn 1 0 0
vn 1 0 0
vn 1 0 0
vn 0 -0.9827735 0.1848137
vn 0 -1 0
vn 0 -1 0
vn 0 -0.9827735 0.1848137
vn 0 -0.9217238 0.3878468
vn 0 -0.9217238 0.3878468
vn -0.000512503 0 0.9999999
vn -0.000512503 0 0.9999999
vn -0.000512503 0 0.9999999
vn -0.000512503 0 0.9999999
vn 0 0 1
vn 0 0 1
vn 0 0 1
vn 0 0 1
vn 1 0 0
vn 1 0 0
vn 1 0 0
vn 1 0 0
vn 1 0 0
vn 0 0 1
vn 0 0 1
vn 0 0 1
vn 0 0 1
vn 0 1 0
vn 0 1 0
vn 0 1 0
vn 0 1 0
vn 0 1 0
vn 0 1 0
vn 0 1 0
vn 0 1 0
vn 0 1 0
vn 0 1 0
vn 0 1 0
vn 0 1 0
vn 0 0 -1
vn 0 0 -1
vn 0 0 -1
vn 0 0 -1
vn 0 0 -1
vn 0 0 -1
vn 0 0 -1
vn 0 0 -1
vn 0.0005885008 0 -0.9999999
vn 0.0005885008 0 -0.9999999
vn 0.0005885008 0 -0.9999999
vn 0.0005885009 0 -0.9999999
vn -1 0 0
vn -1 0 0
vn -1 0 0
vn -1 0 0
vn -1 0 0
vn -1 0 0
vn -1 0 0
vn -1 0 0
vn -1 0 0
vn -1 0 0
vn -1 0 0
vn 0 -1 0
vn 0 -1 0
vn 0 -1 0
vn 0 -1 0
vn 0 -1 0
vn 0 -1 0
vn 0 -1 0
vn 0 -1 0
vn 0 1 0
vn 0 1 0
vn 0 1 0
vn 0 1 0
vn 0 1 0
vn 0 1 0
vn 0 0 1
vn 0 0 1
vn 0 0 1
vn 0 0 1
vn 0 0 1
vn 0 0 1
vn 0 0 1
vn 0 0 1
vn 0 -1 0
vn 0 -1 0
vn 0 -1 0
vn 0 -1 0
vn 1 0 0
vn 1 0 0
vn 1 0 0
vn 1 0 0
vn 1 0 0
vn 1 0 0
vn 1 0 0
vn 1 0 0
vn 1 0 0
vn 1 0 0
vn 1 0 0
vn 0 0 1
vn 0 0 1
vn 0 0 1
vn 0 0 1
vn 0 1 0
vn 0 1 0
vn 0 1 0
vn 0 1 0
vn -1 0 0
vn -1 0 0
vn -1 0 0
vn -1 0 0
vn -1 0 0
g BrickSteps_0
f 3/3/3 2/2/2 1/1/1
f 2/2/2 4/4/4 1/1/1
f 1/1/1 4/4/4 5/5/5
f 6/6/6 1/1/1 5/5/5
f 9/9/9 8/8/8 7/7/7
f 7/7/7 10/10/10 9/9/9
f 7/7/7 11/11/11 10/10/10
f 14/14/14 13/13/13 12/12/12
f 12/12/12 15/15/15 14/14/14
f 12/12/12 16/16/16 15/15/15
f 19/19/19 18/18/18 17/17/17
f 17/17/17 20/20/20 19/19/19
f 17/17/17 21/21/21 20/20/20
f 24/24/24 23/23/23 22/22/22
f 23/23/23 25/25/25 22/22/22
f 25/25/25 26/26/26 22/22/22
f 26/26/26 27/27/27 22/22/22
f 30/30/30 29/29/29 28/28/28
f 28/28/28 31/31/31 30/30/30
f 28/28/28 32/32/32 31/31/31
f 35/35/35 34/34/34 33/33/33
f 34/34/34 36/36/36 33/33/33
f 33/33/33 36/36/36 37/37/37
f 38/38/38 33/33/33 37/37/37
f 41/41/41 40/40/40 39/39/39
f 42/42/42 41/41/41 39/39/39
f 45/45/45 44/44/44 43/43/43
f 46/46/46 45/45/45 43/43/43
f 49/49/49 48/48/48 47/47/47
f 47/47/47 50/50/50 49/49/49
f 47/47/47 51/51/51 50/50/50
f 54/54/54 53/53/53 52/52/52
f 55/55/55 54/54/54 52/52/52
f 58/58/58 57/57/57 56/56/56
f 59/59/59 58/58/58 56/56/56
f 62/62/62 61/61/61 60/60/60
f 63/63/63 62/62/62 60/60/60
f 66/66/66 65/65/65 64/64/64
f 67/67/67 66/66/66 64/64/64
f 70/70/70 69/69/69 68/68/68
f 71/71/71 70/70/70 68/68/68
f 74/74/74 73/73/73 72/72/72
f 75/75/75 74/74/74 72/72/72
f 78/78/78 77/77/77 76/76/76
f 79/79/79 78/78/78 76/76/76
f 82/82/82 81/81/81 80/80/80
f 81/81/81 83/83/83 80/80/80
f 81/81/81 84/84/84 83/83/83
f 84/84/84 85/85/85 83/83/83
f 86/86/86 84/84/84 81/81/81
f 87/87/87 86/86/86 81/81/81
f 89/89/89 80/80/80 88/88/88
f 90/90/90 89/89/89 88/88/88
f 93/93/93 92/92/92 91/91/91
f 94/94/94 93/93/93 91/91/91
f 97/97/97 96/96/96 95/95/95
f 98/98/98 97/97/97 95/95/95
f 101/101/101 100/100/100 99/99/99
f 100/100/100 102/102/102 99/99/99
f 99/99/99 102/102/102 103/103/103
f 102/102/102 104/104/104 103/103/103
f 107/107/107 106/106/106 105/105/105
f 108/108/108 107/107/107 105/105/105
f 111/111/111 110/110/110 109/109/109
f 112/112/112 111/111/111 109/109/109
f 115/115/115 114/114/114 113/113/113
f 116/116/116 115/115/115 113/113/113
f 119/119/119 118/118/118 117/117/117
f 118/118/118 120/120/120 117/117/117
f 117/117/117 120/120/120 121/121/121
f 120/120/120 122/122/122 121/121/121
f 120/120/120 123/123/123 122/122/122
f 123/123/123 124/124/124 122/122/122
f 126/126/126 125/125/125 124/124/124
f 127/127/127 126/126/126 124/124/124
f 130/130/130 129/129/129 128/128/128
f 131/131/131 130/130/130 128/128/128
f 134/134/134 133/133/133 132/132/132
f 135/135/135 134/134/134 132/132/132
f 138/138/138 137/137/137 136/136/136
f 136/136/136 139/139/139 138/138/138
f 136/136/136 140/140/140 139/139/139
