g BrokenFenceSide
v 0.477935 0.12536 1.302369
v 0.464501 -0.001082 -0.021771
v 0.704031 0.051692 -0.029435
v 0.717465 0.178135 1.294706
v 0.486633 -0.100208 -0.01253
v 0.500067 0.026235 1.31161
v 0.739597 0.079009 1.303946
v 0.726163 -0.047433 -0.020194
v 0.477935 0.12536 1.302369
v 0.500067 0.026235 1.31161
v 0.486633 -0.100208 -0.01253
v 0.464501 -0.001082 -0.021771
v 0.704031 0.051692 -0.029435
v 0.726163 -0.047433 -0.020194
v 0.739597 0.079009 1.303946
v 0.717465 0.178135 1.294706
v 0.138504 0.052969 1.277678
v 0.192561 0.087032 -0.021171
v 0.435631 0.053358 -0.021171
v 0.381573 0.019295 1.277678
v 0.178585 -0.013849 -0.026533
v 0.124528 -0.047912 1.272316
v 0.367597 -0.081586 1.272316
v 0.421655 -0.047523 -0.026533
v 0.138504 0.052969 1.277678
v 0.124528 -0.047912 1.272316
v 0.178585 -0.013849 -0.026533
v 0.192561 0.087032 -0.021171
v 0.435631 0.053358 -0.021171
v 0.421655 -0.047523 -0.026533
v 0.367597 -0.081586 1.272316
v 0.381573 0.019295 1.277678
v 0.138504 0.052969 1.277678
v 0.381573 0.019295 1.277678
v 0.367597 -0.081586 1.272316
v 0.124528 -0.047912 1.272316
v 0.477935 0.12536 1.302369
v 0.717465 0.178135 1.294706
v 0.739597 0.079009 1.303946
v 0.500067 0.026235 1.31161
v 0.773009 -0.057295 1.222651
v 0.82935 0.080237 -0.023045
v 1.074264 0.070664 -0.010966
v 1.017923 -0.066868 1.234729
v 0.825571 -0.021601 -0.027026
v 0.769231 -0.159133 1.218669
v 1.014145 -0.168706 1.230748
v 1.070485 -0.031174 -0.014948
v 0.773009 -0.057295 1.222651
v 0.769231 -0.159133 1.218669
v 0.825571 -0.021601 -0.027026
v 0.82935 0.080237 -0.023045
v 1.074264 0.070664 -0.010966
v 1.070485 -0.031174 -0.014948
v 1.014145 -0.168706 1.230748
v 1.017923 -0.066868 1.234729
v 0.773009 -0.057295 1.222651
v 1.017923 -0.066868 1.234729
v 1.014145 -0.168706 1.230748
v 0.769231 -0.159133 1.218669
vt 0.645532 0.984763
vt 0.645532 0.81553
vt 0.715151 0.81553
vt 0.715151 0.984763
vt 0.645532 0.81553
vt 0.645532 0.984763
vt 0.715151 0.984763
vt 0.715151 0.81553
vt 0.645532 0.984763
vt 0.645532 0.984763
vt 0.645532 0.81553
vt 0.645532 0.81553
vt 0.715151 0.81553
vt 0.715151 0.81553
vt 0.715151 0.984763
vt 0.715151 0.984763
vt 0.646889 0.984763
vt 0.646889 0.81553
vt 0.716508 0.81553
vt 0.716508 0.984763
vt 0.646889 0.81553
vt 0.646889 0.984763
vt 0.716508 0.984763
vt 0.716508 0.81553
vt 0.646889 0.984763
vt 0.646889 0.984763
vt 0.646889 0.81553
vt 0.646889 0.81553
vt 0.716508 0.81553
vt 0.716508 0.81553
vt 0.716508 0.984763
vt 0.716508 0.984763
vt 0.646889 0.984763
vt 0.716508 0.984763
vt 0.716508 0.984763
vt 0.646889 0.984763
vt 0.645532 0.984763
vt 0.715151 0.984763
vt 0.715151 0.984763
vt 0.645532 0.984763
vt 0.645532 0.984763
vt 0.645532 0.81553
vt 0.715151 0.81553
vt 0.715151 0.984763
vt 0.645532 0.81553
vt 0.645532 0.984763
vt 0.715151 0.984763
vt 0.715151 0.81553
vt 0.645532 0.984763
vt 0.645532 0.984763
vt 0.645532 0.81553
vt 0.645532 0.81553
vt 0.715151 0.81553
vt 0.715151 0.81553
vt 0.715151 0.984763
vt 0.715151 0.984763
vt 0.645532 0.984763
vt 0.715151 0.984763
vt 0.715151 0.984763
vt 0.645532 0.984763
vn -0.2170435 0.9719476 -0.09060949
vn -0.2170435 0.9719476 -0.09060949
vn -0.2170435 0.9719476 -0.09060949
vn -0.2170435 0.9719476 -0.09060948
vn 0.2170437 -0.9719476 0.09060954
vn 0.2170437 -0.9719476 0.09060954
vn 0.2170437 -0.9719476 0.09060954
vn 0.2170437 -0.9719476 0.09060954
vn -0.9761169 -0.2151021 0.03044331
vn -0.9761169 -0.2151021 0.0304433
vn -0.9761169 -0.215102 0.0304433
vn -0.9761169 -0.2151021 0.0304433
vn 0.9761168 0.2151025 -0.03044333
vn 0.9761168 0.2151025 -0.03044333
vn 0.9761168 0.2151025 -0.03044333
vn 0.9761168 0.2151025 -0.03044333
vn 0.1371571 0.9900428 0.03167281
vn 0.1371571 0.9900428 0.03167281
vn 0.1371571 0.9900428 0.03167281
vn 0.1371571 0.9900428 0.03167281
vn -0.1371571 -0.9900428 -0.03167281
vn -0.1371571 -0.9900428 -0.03167281
vn -0.1371571 -0.9900428 -0.03167281
vn -0.1371571 -0.9900428 -0.03167281
vn -0.9895682 0.1390895 -0.0375373
vn -0.9895682 0.1390895 -0.03753729
vn -0.9895682 0.1390895 -0.0375373
vn -0.9895682 0.1390895 -0.03753729
vn 0.9895682 -0.1390894 0.03753807
vn 0.9895682 -0.1390894 0.03753807
vn 0.9895682 -0.1390894 0.03753807
vn 0.9895682 -0.1390894 0.03753806
vn -0.007214861 -0.05207901 0.9986169
vn -0.007214861 -0.05207901 0.9986169
vn -0.007214861 -0.05207901 0.9986169
vn -0.007214861 -0.05207901 0.9986169
vn 0.01086774 0.09521766 0.9953972
vn 0.01086774 0.09521767 0.9953972
vn 0.01086774 0.09521766 0.9953972
vn 0.01086774 0.09521766 0.9953972
vn 0.03334056 0.9932422 0.1111676
vn 0.03334056 0.9932422 0.1111676
vn 0.03334056 0.9932422 0.1111676
vn 0.03334056 0.9932422 0.1111676
vn -0.03334055 -0.9932422 -0.1111676
vn -0.03334055 -0.9932422 -0.1111676
vn -0.03334054 -0.9932422 -0.1111676
vn -0.03334054 -0.9932422 -0.1111676
vn -0.9984161 0.03864281 -0.04089011
vn -0.9984162 0.03864281 -0.04089011
vn -0.9984162 0.03864281 -0.04089011
vn -0.9984161 0.03864281 -0.04089011
vn 0.9984161 -0.03864308 0.04089009
vn 0.9984161 -0.03864308 0.04089009
vn 0.9984161 -0.03864308 0.0408901
vn 0.9984161 -0.03864308 0.0408901
vn -0.05067165 -0.03713908 0.9980246
vn -0.05067165 -0.03713908 0.9980246
vn -0.05067165 -0.03713908 0.9980246
vn -0.05067165 -0.03713908 0.9980246
g BrokenFenceSide_0
f 3/3/3 2/2/2 1/1/1
f 4/4/4 3/3/3 1/1/1
f 7/7/7 6/6/6 5/5/5
f 8/8/8 7/7/7 5/5/5
f 11/11/11 10/10/10 9/9/9
f 12/12/12 11/11/11 9/9/9
f 15/15/15 14/14/14 13/13/13
f 16/16/16 15/15/15 13/13/13
f 19/19/19 18/18/18 17/17/17
f 20/20/20 19/19/19 17/17/17
f 23/23/23 22/22/22 21/21/21
f 24/24/24 23/23/23 21/21/21
f 27/27/27 26/26/26 25/25/25
f 28/28/28 27/27/27 25/25/25
f 31/31/31 30/30/30 29/29/29
f 32/32/32 31/31/31 29/29/29
f 35/35/35 34/34/34 33/33/33
f 36/36/36 35/35/35 33/33/33
f 39/39/39 38/38/38 37/37/37
f 40/40/40 39/39/39 37/37/37
f 43/43/43 42/42/42 41/41/41
f 44/44/44 43/43/43 41/41/41
f 47/47/47 46/46/46 45/45/45
f 48/48/48 47/47/47 45/45/45
f 51/51/51 50/50/50 49/49/49
f 52/52/52 51/51/51 49/49/49
f 55/55/55 54/54/54 53/53/53
f 56/56/56 55/55/55 53/53/53
f 59/59/59 58/58/58 57/57/57
f 60/60/60 59/59/59 57/57/57
