g BuildingDropBox
v -0.547701 -0.575799 1.130089
v -0.531267 -0.576156 -0.053055
v -0.646082 -0.576156 -0.053055
v -0.666069 -0.575799 1.130089
v -0.547701 -0.575799 1.462053
v -0.666069 -0.575799 1.462053
v -0.472637 -0.5582 1.445544
v -0.472637 -0.5582 1.122328
v 0.646081 0.314755 -0.053055
v 0.666069 0.759852 1.130089
v 0.646081 0.76021 -0.053055
v 0.666069 0.308769 1.122328
v 0.666069 0.759852 1.462053
v 0.646081 -0.130701 -0.053055
v 0.666069 0.314635 1.691898
v 0.666069 -0.124715 1.122328
v 0.646081 -0.576156 -0.053055
v 0.666069 -0.130582 1.691898
v 0.666069 -0.575799 1.130089
v 0.666069 -0.575799 1.462053
v -0.666069 0.759852 1.130089
v -0.666069 0.759852 1.462053
v -0.666069 0.314635 1.691898
v -0.666069 0.308769 1.122328
v -0.646082 0.76021 -0.053055
v -0.666069 -0.130582 1.691898
v -0.646082 0.314755 -0.053055
v -0.666069 -0.124715 1.122328
v -0.666069 -0.575799 1.462053
v -0.646082 -0.130701 -0.053055
v -0.666069 -0.575799 1.130089
v -0.646082 -0.576156 -0.053055
v -0.547701 -0.575799 1.462053
v -0.666069 -0.575799 1.462053
v -0.666069 -0.130582 1.691898
v -0.547702 -0.130582 1.691898
v -0.472637 -0.5582 1.445544
v -0.666069 0.314635 1.691898
v -0.472637 -0.124715 1.669333
v -0.547702 0.314635 1.691898
v -0.666069 0.759852 1.462053
v -0.472637 0.308769 1.669333
v -0.547701 0.759852 1.462053
v -0.472637 0.742254 1.445544
v 0.531266 -0.576156 -0.053055
v 0.646081 -0.576156 -0.053055
v 0.646081 -0.130701 -0.053055
v 0.531266 -0.130701 -0.053055
v 0.458454 -0.558549 -0.029638
v 0.458454 -0.124832 -0.029638
v -0.458455 -0.558549 -0.029638
v -0.458455 -0.124832 -0.029638
v -0.531267 -0.576156 -0.053055
v -0.531267 -0.130701 -0.053055
v -0.646082 -0.576156 -0.053055
v -0.458455 0.308885 -0.029638
v -0.646082 -0.130701 -0.053055
v -0.531267 0.314755 -0.053055
v -0.646082 0.314755 -0.053055
v 0.531266 -0.130701 -0.053055
v 0.646081 -0.130701 -0.053055
v 0.646081 0.314755 -0.053055
v 0.531266 0.314755 -0.053055
v 0.646081 0.76021 -0.053055
v 0.458454 -0.124832 -0.029638
v 0.458454 0.308885 -0.029638
v 0.531266 0.76021 -0.053055
v -0.458455 -0.124832 -0.029638
v 0.458454 0.308885 -0.029638
v -0.458455 0.308885 -0.029638
v 0.458454 0.308885 -0.029638
v 0.531266 0.314755 -0.053055
v 0.458454 0.742603 -0.029638
v -0.458455 0.308885 -0.029638
v -0.458455 0.742603 -0.029638
v 0.472638 -0.124715 1.669333
v -0.472637 -0.124715 1.669333
v -0.472637 0.308769 1.669333
v 0.472638 0.308769 1.669333
v -0.472637 0.742254 1.445544
v 0.472638 0.742254 1.445544
v 0.547702 -0.575799 1.462053
v 0.472638 -0.5582 1.445544
v 0.472638 -0.124715 1.669333
v 0.547702 -0.130582 1.691898
v 0.666069 -0.575799 1.462053
v 0.472638 0.308769 1.669333
v 0.666069 -0.130582 1.691898
v 0.547702 0.314635 1.691898
v 0.472638 0.742254 1.445544
v 0.666069 0.314635 1.691898
v 0.547702 0.759852 1.462053
v 0.666069 0.759852 1.462053
v -0.472637 -0.5582 1.122328
v -0.472637 -0.463552 1.122328
v 0.472638 -0.463552 1.122328
v 0.472638 -0.5582 1.122328
v -0.472637 -0.124715 1.669333
v -0.472637 -0.132553 1.611679
v -0.472637 -0.463552 1.387891
v -0.472637 -0.5582 1.445544
v -0.472637 -0.463552 1.122328
v -0.472637 -0.5582 1.122328
v 0.472638 0.742254 1.122328
v 0.472638 0.742254 1.445544
v -0.472637 0.742254 1.445544
v -0.472637 0.742254 1.122328
v -0.458455 0.742603 -0.029638
v 0.458454 0.742603 -0.029638
v -0.531267 0.314755 -0.053055
v -0.458455 0.308885 -0.029638
v -0.458455 0.742603 -0.029638
v -0.531267 0.76021 -0.053055
v -0.646082 0.314755 -0.053055
v -0.646082 0.76021 -0.053055
v 0.547702 -0.575799 1.130089
v 0.531266 -0.576156 -0.053055
v 0.458454 -0.558549 -0.029638
v 0.472638 -0.5582 1.122328
v 0.406198 -0.558259 0.880336
v -0.406197 -0.558259 0.880336
v 0.390926 -0.55849 0.212406
v -0.472637 -0.5582 1.122328
v -0.458455 -0.558549 -0.029638
v -0.390928 -0.55849 0.212406
v -0.531267 -0.576156 -0.053055
v -0.547701 -0.575799 1.130089
v 0.390926 -0.55849 0.212406
v 0.390926 -0.500852 0.212296
v 0.406198 -0.500621 0.880226
v 0.406198 -0.558259 0.880336
v 0.472638 -0.463552 1.387891
v -0.472637 -0.132553 1.611679
v 0.472638 -0.132553 1.611679
v -0.472637 -0.463552 1.387891
v -0.472637 -0.463552 1.122328
v 0.472638 -0.463552 1.122328
v 0.472638 -0.5582 1.445544
v 0.472638 -0.132553 1.611679
v 0.472638 -0.124715 1.669333
v 0.472638 -0.463552 1.387891
v 0.472638 -0.5582 1.122328
v 0.472638 -0.463552 1.122328
v 0.472638 -0.124715 1.669333
v 0.472638 -0.132553 1.611679
v -0.472637 -0.132553 1.611679
v -0.472637 -0.124715 1.669333
v 0.406198 -0.500621 0.880226
v 0.390926 -0.500852 0.212296
v -0.390928 -0.500852 0.212296
v -0.406197 -0.500621 0.880226
v 0.406198 -0.558259 0.880336
v 0.406198 -0.500621 0.880226
v -0.406197 -0.500621 0.880226
v -0.406197 -0.558259 0.880336
v -0.406197 -0.558259 0.880336
v -0.406197 -0.500621 0.880226
v -0.390928 -0.500852 0.212296
v -0.390928 -0.55849 0.212406
v -0.390928 -0.55849 0.212406
v -0.390928 -0.500852 0.212296
v 0.390926 -0.500852 0.212296
v 0.390926 -0.55849 0.212406
v -0.472637 0.742254 1.122328
v -0.472637 0.742254 1.445544
v -0.547701 0.759852 1.462053
v -0.547701 0.759852 1.130089
v -0.666069 0.759852 1.462053
v -0.666069 0.759852 1.130089
v -0.646082 0.76021 -0.053055
v -0.531267 0.76021 -0.053055
v -0.458455 0.742603 -0.029638
v 0.666069 -0.575799 1.130089
v 0.646081 -0.576156 -0.053055
v 0.531266 -0.576156 -0.053055
v 0.547702 -0.575799 1.130089
v 0.666069 -0.575799 1.462053
v 0.547702 -0.575799 1.462053
v 0.472638 -0.5582 1.122328
v 0.472638 -0.5582 1.445544
v 0.666069 0.759852 1.130089
v 0.531266 0.76021 -0.053055
v 0.646081 0.76021 -0.053055
v 0.547702 0.759852 1.130089
v 0.458454 0.742603 -0.029638
v 0.472638 0.742254 1.122328
v 0.472638 0.742254 1.445544
v 0.547702 0.759852 1.462053
v 0.666069 0.759852 1.462053
vt 0.512265 0.996302
vt 0.512265 0.894323
vt 0.417881 0.894323
vt 0.417881 0.996302
vt 0.512265 0.996302
vt 0.417881 0.996302
vt 0.60665 0.996302
vt 0.60665 0.996302
vt 0.336852 0.403222
vt 0.486797 0.802143
vt 0.487012 0.403258
vt 0.334741 0.799491
vt 0.486771 0.914045
vt 0.186693 0.403187
vt 0.336673 0.991489
vt 0.188617 0.799456
vt 0.036534 0.403151
vt 0.186594 0.991453
vt 0.03656 0.802036
vt 0.036534 0.913939
vt 0.036655 0.79809
vt 0.036655 0.909992
vt 0.186733 0.987471
vt 0.188711 0.795474
vt 0.036534 0.399205
vt 0.336812 0.987471
vt 0.186693 0.399205
vt 0.334835 0.795474
vt 0.486891 0.909992
vt 0.336852 0.399205
vt 0.486891 0.79809
vt 0.487012 0.399205
vt 0.512265 0.996302
vt 0.417881 0.996302
vt 0.417881 0.996302
vt 0.512265 0.996302
vt 0.60665 0.996302
vt 0.417881 0.996302
vt 0.60665 0.996302
vt 0.512265 0.996302
vt 0.417881 0.996302
vt 0.60665 0.996302
vt 0.512265 0.996302
vt 0.60665 0.996302
vt 0.889803 0.894323
vt 0.984188 0.894323
vt 0.984188 0.894322
vt 0.889803 0.894322
vt 0.795419 0.894322
vt 0.795419 0.894322
vt 0.60665 0.894323
vt 0.60665 0.894322
vt 0.512265 0.894323
vt 0.512265 0.894323
vt 0.417881 0.894323
vt 0.60665 0.894322
vt 0.417881 0.894323
vt 0.512265 0.894322
vt 0.417881 0.894322
vt 0.889803 0.894322
vt 0.984188 0.894322
vt 0.984188 0.894323
vt 0.889803 0.894323
vt 0.984188 0.894323
vt 0.795419 0.894322
vt 0.795419 0.894323
vt 0.889803 0.894323
vt 0.60665 0.894322
vt 0.795419 0.894323
vt 0.60665 0.894322
vt 0.795419 0.894323
vt 0.889803 0.894323
vt 0.795419 0.894322
vt 0.60665 0.894322
vt 0.60665 0.894323
vt 0.517731 0.979489
vt 0.951882 0.979489
vt 0.951882 0.920432
vt 0.517731 0.920432
vt 0.951882 0.853968
vt 0.517731 0.853968
vt 0.889803 0.996302
vt 0.795419 0.996302
vt 0.795419 0.996302
vt 0.889803 0.996302
vt 0.984188 0.996302
vt 0.795419 0.996302
vt 0.984188 0.996302
vt 0.889803 0.996302
vt 0.795419 0.996302
vt 0.984188 0.996302
vt 0.889803 0.996302
vt 0.984188 0.996302
vt 0.60665 0.996302
vt 0.60665 0.996302
vt 0.795419 0.996302
vt 0.795419 0.996302
vt 0.60665 0.996302
vt 0.60665 0.996302
vt 0.60665 0.996302
vt 0.60665 0.996302
vt 0.60665 0.996302
vt 0.60665 0.996302
vt 0.517731 0.809934
vt 0.517731 0.853968
vt 0.951882 0.853968
vt 0.951882 0.809934
vt 0.945369 0.652991
vt 0.524246 0.652991
vt 0.512265 0.894322
vt 0.60665 0.894322
vt 0.60665 0.894323
vt 0.512265 0.894323
vt 0.417881 0.894322
vt 0.417881 0.894323
vt 0.975658 0.548228
vt 0.968695 0.110165
vt 0.937847 0.118836
vt 0.943856 0.545354
vt 0.915708 0.455756
vt 0.571527 0.455756
vt 0.909238 0.208453
vt 0.543379 0.545354
vt 0.549387 0.118836
vt 0.577996 0.208453
vt 0.51854 0.110165
vt 0.511577 0.548228
vt 0.909238 0.208453
vt 0.909238 0.208412
vt 0.915708 0.455715
vt 0.915708 0.455756
vt 0.505421 0.849982
vt 0.957206 0.652822
vt 0.505421 0.652822
vt 0.957206 0.849982
vt 0.957206 0.981024
vt 0.505421 0.981024
vt 0.795419 0.996302
vt 0.795419 0.996302
vt 0.795419 0.996302
vt 0.795419 0.996302
vt 0.795419 0.996302
vt 0.795419 0.996302
vt 0.795419 0.996302
vt 0.795419 0.996302
vt 0.60665 0.996302
vt 0.60665 0.996302
vt 0.915708 0.455715
vt 0.909238 0.208412
vt 0.577996 0.208412
vt 0.571527 0.455715
vt 0.915708 0.455756
vt 0.915708 0.455715
vt 0.571527 0.455715
vt 0.571527 0.455756
vt 0.571527 0.455756
vt 0.571527 0.455715
vt 0.577996 0.208412
vt 0.577996 0.208453
vt 0.577996 0.208453
vt 0.577996 0.208412
vt 0.909238 0.208412
vt 0.909238 0.208453
vt 0.60665 0.996302
vt 0.60665 0.996302
vt 0.512265 0.996302
vt 0.512265 0.996302
vt 0.417881 0.996302
vt 0.417881 0.996302
vt 0.417881 0.894323
vt 0.512265 0.894323
vt 0.60665 0.894323
vt 0.984188 0.996302
vt 0.984188 0.894323
vt 0.889803 0.894323
vt 0.889803 0.996302
vt 0.984188 0.996302
vt 0.889803 0.996302
vt 0.795419 0.996302
vt 0.795419 0.996302
vt 0.984188 0.996302
vt 0.889803 0.894323
vt 0.984188 0.894323
vt 0.889803 0.996302
vt 0.795419 0.894322
vt 0.795419 0.996302
vt 0.795419 0.996302
vt 0.889803 0.996302
vt 0.984188 0.996302
vn 0.0881192 -0.9961093 0.001105757
vn 0.08061906 -0.996744 0.00135799
vn 0 -1 0.0003017653
vn 0 -1 0.0002342991
vn 0.08210686 -0.9966235 0
vn 0 -1 0
vn 0.2282634 -0.9735995 0
vn 0.09041985 -0.995903 0.001196779
vn 0.9998559 7.443583E-05 -0.01697448
vn 0.9999259 0.0001054588 -0.01218266
vn 0.9998564 0.0001466988 -0.01694673
vn 0.9999294 5.2047E-05 -0.01188085
vn 1 0 0
vn 0.9998559 -7.443579E-05 -0.01697448
vn 1 0 0
vn 0.9999294 -5.204696E-05 -0.01188085
vn 0.9998564 -0.0001466986 -0.01694673
vn 1 0 0
vn 0.9999259 -0.0001054586 -0.01218266
vn 1 0 0
vn -0.9999259 0.0001054565 -0.01218205
vn -1 0 0
vn -1 0 0
vn -0.9999294 5.20459E-05 -0.01188025
vn -0.9998564 0.0001466957 -0.01694587
vn -1 0 0
vn -0.9998559 7.443425E-05 -0.01697362
vn -0.9999294 -5.204586E-05 -0.01188025
vn -1 0 0
vn -0.9998559 -7.443421E-05 -0.01697362
vn -0.9999259 -0.0001054564 -0.01218204
vn -0.9998564 -0.0001466955 -0.01694587
vn 0.1111282 -0.4558893 0.8830716
vn 0 -0.4587306 0.8885754
vn 0 -0.2499352 0.9682625
vn 0.1154579 -0.2485332 0.9617176
vn 0.2899554 -0.4390237 0.8504023
vn 0 0.2499352 0.9682625
vn 0.04608664 -0.03698618 0.9982525
vn 0.1154567 0.2485325 0.9617178
vn 0 0.4587306 0.8885754
vn 0.02407753 0.2498118 0.967995
vn 0.1111264 0.4558895 0.8830718
vn 0.02391656 0.4586003 0.8883208
vn -0.1114838 0 -0.9937663
vn 0 0 -1
vn 0 0 -1
vn -0.1228569 0 -0.9924244
vn -0.02710636 0 -0.9996326
vn -0.02394966 0 -0.9997131
vn 0.02710636 0 -0.9996326
vn 0.02394966 0 -0.9997131
vn 0.1114838 0 -0.9937663
vn 0.1228568 0 -0.9924244
vn 0 0 -1
vn 0.02394965 0 -0.9997131
vn 0 0 -1
vn 0.1228569 0 -0.9924244
vn 0 0 -1
vn -0.1228569 0 -0.9924244
vn 0 0 -1
vn 0 0 -1
vn -0.1228569 0 -0.9924244
vn 0 0 -1
vn -0.02394966 0 -0.9997131
vn -0.02394965 0 -0.9997131
vn -0.1114839 0 -0.9937663
vn 0.02394966 0 -0.9997131
vn -0.02394965 0 -0.9997131
vn 0.02394965 0 -0.9997131
vn -0.02394965 0 -0.9997131
vn -0.1228569 0 -0.9924244
vn -0.02710632 0 -0.9996326
vn 0.02394965 0 -0.9997131
vn 0.02710632 0 -0.9996326
vn -0.04608672 -0.03698602 0.9982525
vn 0.04608664 -0.03698618 0.9982525
vn 0.02407753 0.2498118 0.967995
vn -0.02407756 0.2498118 0.967995
vn 0.02391656 0.4586003 0.8883208
vn -0.02391658 0.4586003 0.8883207
vn -0.1111286 -0.4558893 0.8830715
vn -0.2899572 -0.4390238 0.8504016
vn -0.04608672 -0.03698602 0.9982525
vn -0.1154586 -0.2485332 0.9617175
vn 0 -0.4587306 0.8885754
vn -0.02407756 0.2498118 0.967995
vn 0 -0.2499348 0.9682627
vn -0.1154573 0.2485326 0.9617178
vn -0.02391658 0.4586003 0.8883207
vn 0 0.2499348 0.9682627
vn -0.1111268 0.4558895 0.8830717
vn 0 0.4587306 0.8885754
vn 0 0 1
vn 0 0 1
vn 0 0 1
vn 0 0 1
vn 1 0 0
vn 1 0 0
vn 1 0 0
vn 1 0 0
vn 1 0 0
vn 1 0 0
vn -0.01845321 0.9998296 0.0004302257
vn -0.01960835 0.9998078 0
vn 0.01960836 0.9998078 0
vn 0.01845318 0.9998296 0.0004302
vn 0.02057683 0.9997881 0.0005726531
vn -0.02057679 0.9997881 0.0005726879
vn 0.1228569 0 -0.9924244
vn 0.02394965 0 -0.9997131
vn 0.02710632 0 -0.9996326
vn 0.1114839 0 -0.9937663
vn 0 0 -1
vn 0 0 -1
vn -0.0881194 -0.9961093 0.001105873
vn -0.08061941 -0.996744 0.001358134
vn -0.08560859 -0.9963278 0.001389465
vn -0.09041989 -0.995903 0.001196905
vn 0 -1 0.0002671197
vn 0 -1 0.0002671196
vn 0 -1 0.0002673133
vn 0.09041985 -0.995903 0.001196779
vn 0.08560856 -0.9963278 0.001389317
vn 0 -1 0.0002673133
vn 0.08061906 -0.996744 0.00135799
vn 0.0881192 -0.9961093 0.001105757
vn -0.9997388 0 0.02285867
vn -0.9997388 0 0.02285867
vn -0.9997388 0 0.02285867
vn -0.9997388 0 0.02285867
vn 0 -0.828309 0.5602717
vn 0 -0.638948 0.76925
vn 0 -0.638948 0.76925
vn 0 -0.828309 0.5602717
vn 0 -1 0
vn 0 -1 0
vn -1 0 0
vn -1 0 0
vn -1 0 0
vn -1 0 0
vn -1 0 0
vn -1 0 0
vn 0 -0.9908851 0.1347096
vn 0 -0.638948 0.76925
vn 0 -0.638948 0.76925
vn 0 -0.9908851 0.1347096
vn 0 -1 0.0003457967
vn 0 -1 0.0003457967
vn 0 -1 0.0003457967
vn 0 -1 0.0003457967
vn 0 -0.001907949 -0.9999982
vn 0 -0.001907949 -0.9999982
vn 0 -0.001907949 -0.9999982
vn 0 -0.001907949 -0.9999982
vn 0.9997388 0 0.02285421
vn 0.9997388 0 0.02285421
vn 0.9997388 0 0.02285421
vn 0.9997388 0 0.02285421
vn 0 0.001908467 0.9999982
vn 0 0.001908467 0.9999982
vn 0 0.001908467 0.9999982
vn 0 0.001908467 0.9999982
vn 0.01845318 0.9998296 0.0004302
vn 0.01960836 0.9998078 0
vn 0.08210215 0.996624 0
vn 0.08811595 0.9961095 0.001106237
vn 0 1 0
vn 0 1 0.0002349249
vn 0 1 0.0003025714
vn 0.08061659 0.9967443 0.001358627
vn 0.02057683 0.9997881 0.0005726531
vn 0 -1 0.0002342993
vn 0 -1 0.0003017653
vn -0.08061941 -0.996744 0.001358134
vn -0.0881194 -0.9961093 0.001105873
vn 0 -1 0
vn -0.08210732 -0.9966235 0
vn -0.09041989 -0.995903 0.001196905
vn -0.2282634 -0.9735995 0
vn 0 1 0.0002349251
vn -0.08061693 0.9967442 0.00135877
vn 0 1 0.0003025713
vn -0.08811614 0.9961095 0.001106354
vn -0.02057679 0.9997881 0.0005726879
vn -0.01845321 0.9998296 0.0004302257
vn -0.01960835 0.9998078 0
vn -0.08210259 0.9966239 0
vn 0 1 0
g BuildingDropBox_0
f 3/3/3 2/2/2 1/1/1
f 4/4/4 3/3/3 1/1/1
f 1/1/1 5/5/5 4/4/4
f 5/5/5 6/6/6 4/4/4
f 7/7/7 5/5/5 1/1/1
f 8/8/8 7/7/7 1/1/1
f 11/11/11 10/10/10 9/9/9
f 10/10/10 12/12/12 9/9/9
f 10/10/10 13/13/13 12/12/12
f 9/9/9 12/12/12 14/14/14
f 13/13/13 15/15/15 12/12/12
f 12/12/12 16/16/16 14/14/14
f 12/12/12 15/15/15 16/16/16
f 14/14/14 16/16/16 17/17/17
f 15/15/15 18/18/18 16/16/16
f 16/16/16 19/19/19 17/17/17
f 16/16/16 18/18/18 19/19/19
f 18/18/18 20/20/20 19/19/19
f 23/23/23 22/22/22 21/21/21
f 24/24/24 23/23/23 21/21/21
f 21/21/21 25/25/25 24/24/24
f 26/26/26 23/23/23 24/24/24
f 25/25/25 27/27/27 24/24/24
f 28/28/28 26/26/26 24/24/24
f 24/24/24 27/27/27 28/28/28
f 29/29/29 26/26/26 28/28/28
f 27/27/27 30/30/30 28/28/28
f 31/31/31 29/29/29 28/28/28
f 28/28/28 30/30/30 31/31/31
f 30/30/30 32/32/32 31/31/31
f 35/35/35 34/34/34 33/33/33
f 36/36/36 35/35/35 33/33/33
f 36/36/36 33/33/33 37/37/37
f 38/38/38 35/35/35 36/36/36
f 39/39/39 36/36/36 37/37/37
f 40/40/40 38/38/38 36/36/36
f 40/40/40 36/36/36 39/39/39
f 41/41/41 38/38/38 40/40/40
f 42/42/42 40/40/40 39/39/39
f 43/43/43 41/41/41 40/40/40
f 43/43/43 40/40/40 42/42/42
f 44/44/44 43/43/43 42/42/42
f 47/47/47 46/46/46 45/45/45
f 48/48/48 47/47/47 45/45/45
f 48/48/48 45/45/45 49/49/49
f 50/50/50 48/48/48 49/49/49
f 50/50/50 49/49/49 51/51/51
f 52/52/52 50/50/50 51/51/51
f 52/52/52 51/51/51 53/53/53
f 54/54/54 52/52/52 53/53/53
f 54/54/54 53/53/53 55/55/55
f 56/56/56 52/52/52 54/54/54
f 57/57/57 54/54/54 55/55/55
f 58/58/58 56/56/56 54/54/54
f 58/58/58 54/54/54 57/57/57
f 59/59/59 58/58/58 57/57/57
f 62/62/62 61/61/61 60/60/60
f 63/63/63 62/62/62 60/60/60
f 64/64/64 62/62/62 63/63/63
f 63/63/63 60/60/60 65/65/65
f 66/66/66 63/63/63 65/65/65
f 67/67/67 64/64/64 63/63/63
f 69/69/69 65/65/65 68/68/68
f 70/70/70 69/69/69 68/68/68
f 67/67/67 72/72/72 71/71/71
f 73/73/73 67/67/67 71/71/71
f 73/73/73 71/71/71 74/74/74
f 75/75/75 73/73/73 74/74/74
f 78/78/78 77/77/77 76/76/76
f 79/79/79 78/78/78 76/76/76
f 80/80/80 78/78/78 79/79/79
f 81/81/81 80/80/80 79/79/79
f 84/84/84 83/83/83 82/82/82
f 85/85/85 84/84/84 82/82/82
f 85/85/85 82/82/82 86/86/86
f 87/87/87 84/84/84 85/85/85
f 88/88/88 85/85/85 86/86/86
f 89/89/89 87/87/87 85/85/85
f 89/89/89 85/85/85 88/88/88
f 90/90/90 87/87/87 89/89/89
f 91/91/91 89/89/89 88/88/88
f 92/92/92 90/90/90 89/89/89
f 92/92/92 89/89/89 91/91/91
f 93/93/93 92/92/92 91/91/91
f 96/96/96 95/95/95 94/94/94
f 97/97/97 96/96/96 94/94/94
f 100/100/100 99/99/99 98/98/98
f 101/101/101 100/100/100 98/98/98
f 102/102/102 100/100/100 101/101/101
f 103/103/103 102/102/102 101/101/101
f 106/106/106 105/105/105 104/104/104
f 107/107/107 106/106/106 104/104/104
f 108/108/108 107/107/107 104/104/104
f 109/109/109 108/108/108 104/104/104
f 112/112/112 111/111/111 110/110/110
f 113/113/113 112/112/112 110/110/110
f 113/113/113 110/110/110 114/114/114
f 115/115/115 113/113/113 114/114/114
f 118/118/118 117/117/117 116/116/116
f 119/119/119 118/118/118 116/116/116
f 118/118/118 119/119/119 120/120/120
f 120/120/120 119/119/119 121/121/121
f 122/122/122 118/118/118 120/120/120
f 119/119/119 123/123/123 121/121/121
f 124/124/124 118/118/118 122/122/122
f 125/125/125 124/124/124 122/122/122
f 121/121/121 123/123/123 125/125/125
f 123/123/123 124/124/124 125/125/125
f 126/126/126 124/124/124 123/123/123
f 127/127/127 126/126/126 123/123/123
f 130/130/130 129/129/129 128/128/128
f 131/131/131 130/130/130 128/128/128
f 134/134/134 133/133/133 132/132/132
f 133/133/133 135/135/135 132/132/132
f 132/132/132 135/135/135 136/136/136
f 137/137/137 132/132/132 136/136/136
f 140/140/140 139/139/139 138/138/138
f 139/139/139 141/141/141 138/138/138
f 138/138/138 141/141/141 142/142/142
f 141/141/141 143/143/143 142/142/142
f 146/146/146 145/145/145 144/144/144
f 147/147/147 146/146/146 144/144/144
f 150/150/150 149/149/149 148/148/148
f 151/151/151 150/150/150 148/148/148
f 154/154/154 153/153/153 152/152/152
f 155/155/155 154/154/154 152/152/152
f 158/158/158 157/157/157 156/156/156
f 159/159/159 158/158/158 156/156/156
f 162/162/162 161/161/161 160/160/160
f 163/163/163 162/162/162 160/160/160
f 166/166/166 165/165/165 164/164/164
f 167/167/167 166/166/166 164/164/164
f 168/168/168 166/166/166 167/167/167
f 169/169/169 168/168/168 167/167/167
f 170/170/170 169/169/169 167/167/167
f 171/171/171 170/170/170 167/167/167
f 171/171/171 167/167/167 164/164/164
f 172/172/172 171/171/171 164/164/164
f 175/175/175 174/174/174 173/173/173
f 176/176/176 175/175/175 173/173/173
f 173/173/173 177/177/177 176/176/176
f 177/177/177 178/178/178 176/176/176
f 176/176/176 178/178/178 179/179/179
f 178/178/178 180/180/180 179/179/179
f 183/183/183 182/182/182 181/181/181
f 182/182/182 184/184/184 181/181/181
f 182/182/182 185/185/185 184/184/184
f 185/185/185 186/186/186 184/184/184
f 186/186/186 187/187/187 184/184/184
f 187/187/187 188/188/188 184/184/184
f 184/184/184 188/188/188 181/181/181
f 188/188/188 189/189/189 181/181/181
