g BushLime
v 0 0.164479 -0.470254
v 0.123359 0.123359 -0.470254
v 0.14038 0.14038 -0.343395
v 0.084737 0.084737 -0.538291
v 0 0.108419 -0.562104
v -0.084737 0.084737 -0.538291
v 0 0.187173 -0.343394
v 0 0.195498 -0.207749
v -0.14038 0.14038 -0.343395
v 0.146624 0.146624 -0.207749
v 0.140941 0.140941 -0.082275
v -0.123359 0.123359 -0.470254
v -0.164479 0 -0.470254
v 0 0.187922 -0.082275
v 0 0.162912 0.014072
v -0.140941 0.140941 -0.082275
v 0.122184 0.122184 0.014072
v 0.093841 0.093841 0.063791
v -0.146624 0.146624 -0.207749
v -0.195498 0 -0.207749
v -0.187173 0 -0.343394
v -0.14038 -0.14038 -0.343395
v -0.108419 0 -0.562104
v 0 0 -0.592721
v 0 0.108419 -0.562104
v 0.084737 0.084737 -0.538291
v 0.108419 0 -0.562104
v 0.084737 -0.084737 -0.538291
v 0 -0.108419 -0.562104
v -0.084737 -0.084737 -0.538291
v -0.123359 -0.123359 -0.470254
v 0 -0.164479 -0.470254
v 0 -0.108419 -0.562104
v 0.084737 -0.084737 -0.538291
v 0.123359 -0.123359 -0.470254
v 0.164479 0 -0.470254
v 0.14038 -0.14038 -0.343395
v 0.108419 0 -0.562104
v 0.084737 0.084737 -0.538291
v 0.123359 0.123359 -0.470254
v 0.14038 0.14038 -0.343395
v 0.187173 0 -0.343394
v 0.195498 0 -0.207749
v 0.146624 0.146624 -0.207749
v 0.140941 0.140941 -0.082275
v 0 -0.187173 -0.343394
v 0 -0.195498 -0.207749
v 0.146624 -0.146624 -0.207749
v 0.140941 -0.140941 -0.082275
v 0.187922 0 -0.082275
v 0.162912 0 0.014072
v 0.122184 0.122184 0.014072
v 0.093841 0.093841 0.063791
v -0.146624 -0.146624 -0.207749
v -0.140941 -0.140941 -0.082275
v 0 -0.187922 -0.082275
v 0 -0.162912 0.014072
v 0.122184 -0.122184 0.014072
v 0.093841 -0.093841 0.063791
v 0.125121 0 0.063791
v 0.079199 0 0.049384
v 0.059399 0.059399 0.049384
v 0.030234 0.030234 0.039297
v 0.040312 0 0.039297
v 0.030234 -0.030234 0.039297
v 0.059399 -0.059399 0.049384
v 0 -0.079199 0.049384
v 0 -0.040312 0.039297
v -0.030234 -0.030234 0.039297
v 0 -0.125121 0.063791
v -0.093841 -0.093841 0.063791
v -0.059399 -0.059399 0.049384
v -0.079199 0 0.049384
v -0.040312 0 0.039297
v -0.030234 0.030234 0.039297
v -0.122184 -0.122184 0.014072
v -0.162912 0 0.014072
v -0.125121 0 0.063791
v -0.093841 0.093841 0.063791
v -0.059399 0.059399 0.049384
v 0 0.079199 0.049384
v 0 0.040312 0.039297
v 0.030234 0.030234 0.039297
v 0.059399 0.059399 0.049384
v 0 0.125121 0.063791
v -0.122184 0.122184 0.014072
v -0.187922 0 -0.082275
v 0 0.023623 0.101979
v 0 0.040312 0.039297
v 0.030234 0.030234 0.039297
v 0.017717 0.017717 0.101979
v 0.011882 0.011882 0.157015
v 0 0.014922 0.176278
v -0.030234 0.030234 0.039297
v -0.011882 0.011882 0.157015
v -0.017717 0.017717 0.101979
v -0.023623 0 0.101979
v -0.040312 0 0.039297
v -0.014922 0 0.176278
v -0.030234 -0.030234 0.039297
v -0.011882 -0.011882 0.157015
v -0.017717 -0.017717 0.101979
v 0 -0.023623 0.101979
v 0 -0.040312 0.039297
v 0 -0.014922 0.176278
v 0.030234 -0.030234 0.039297
v 0.011882 -0.011882 0.157015
v 0.017717 -0.017717 0.101979
v 0.023623 0 0.101979
v 0.040312 0 0.039297
v 0.014922 0 0.176278
v 0.030234 0.030234 0.039297
v 0.011882 0.011882 0.157015
v 0.017717 0.017717 0.101979
v 0 0 0.201045
v -0.014922 0 0.176278
v -0.011882 0.011882 0.157015
v 0 0.014922 0.176278
v -0.011882 -0.011882 0.157015
v 0.011882 0.011882 0.157015
v 0 -0.014922 0.176278
v 0.014922 0 0.176278
v 0.011882 -0.011882 0.157015
vt 0.558721 0.813394
vt 0.532431 0.811115
vt 0.52595 0.829234
vt 0.541245 0.794192
vt 0.564426 0.797372
vt 0.582248 0.795048
vt 0.554677 0.829743
vt 0.553956 0.846743
vt 0.581732 0.830501
vt 0.524137 0.849746
vt 0.527709 0.869206
vt 0.584124 0.815492
vt 0.607752 0.817226
vt 0.556596 0.862456
vt 0.562637 0.874943
vt 0.58307 0.857524
vt 0.537384 0.88417
vt 0.551714 0.895165
vt 0.581532 0.844765
vt 0.604624 0.844839
vt 0.605442 0.831757
vt 0.627338 0.834049
vt 0.610479 0.801074
vt 0.612552 0.783131
vt 0.589352 0.781715
vt 0.591097 0.762877
vt 0.614297 0.764294
vt 0.637497 0.765711
vt 0.635752 0.784548
vt 0.640467 0.799537
vt 0.630534 0.819411
vt 0.653401 0.822864
vt 0.658102 0.806829
vt 0.682631 0.810636
vt 0.677442 0.827767
vt 0.703747 0.834306
vt 0.671912 0.84385
vt 0.70803 0.815173
vt 0.733863 0.820075
vt 0.731183 0.841662
vt 0.72528 0.862175
vt 0.697851 0.852368
vt 0.68873 0.868288
vt 0.712928 0.88054
vt 0.697459 0.894511
vt 0.648951 0.837912
vt 0.645003 0.850987
vt 0.665699 0.857837
vt 0.659174 0.869234
vt 0.678061 0.880806
vt 0.66752 0.88866
vt 0.6822 0.901841
vt 0.667128 0.904984
vt 0.625144 0.846925
vt 0.623485 0.857912
vt 0.64131 0.861925
vt 0.637624 0.870563
vt 0.652706 0.877546
vt 0.645343 0.88467
vt 0.65652 0.893959
vt 0.644474 0.898811
vt 0.652217 0.906395
vt 0.637386 0.90694
vt 0.631905 0.90344
vt 0.626001 0.900685
vt 0.636134 0.892501
vt 0.626597 0.888737
vt 0.619251 0.899424
vt 0.612179 0.89945
vt 0.633027 0.878851
vt 0.619713 0.875933
vt 0.616262 0.887149
vt 0.605527 0.887365
vt 0.605307 0.900562
vt 0.59896 0.902595
vt 0.621898 0.866884
vt 0.60515 0.865682
vt 0.605543 0.875346
vt 0.589691 0.878185
vt 0.594158 0.889983
vt 0.581921 0.895601
vt 0.593462 0.905385
vt 0.588388 0.908555
vt 0.569249 0.90272
vt 0.571329 0.885545
vt 0.585892 0.868015
vt 0.604719 0.856227
vt 0.701137 0.97642
vt 0.697068 0.964926
vt 0.693205 0.967339
vt 0.698112 0.977882
vt 0.703019 0.988425
vt 0.705206 0.987913
vt 0.701254 0.962801
vt 0.707429 0.987483
vt 0.704342 0.975142
vt 0.707906 0.974234
vt 0.706087 0.961253
vt 0.709725 0.987215
vt 0.711319 0.960406
vt 0.712065 0.987119
vt 0.711692 0.973763
vt 0.715561 0.973795
vt 0.716704 0.960386
vt 0.714419 0.987203
vt 0.721843 0.961347
vt 0.716822 0.987465
vt 0.719333 0.974406
vt 0.722826 0.975673
vt 0.726339 0.963444
vt 0.719313 0.987902
vt 0.730512 0.96611
vt 0.721846 0.988425
vt 0.726179 0.977267
vt 0.718477 0.975132
vt 0.716417 0.975132
vt 0.716417 0.976805
vt 0.718477 0.976805
vt 0.716417 0.973459
vt 0.720537 0.976805
vt 0.718477 0.973459
vt 0.720537 0.975132
vt 0.720537 0.973459
vn 0 0.9500746 -0.3120228
vn 0.670886 0.6708859 -0.3159497
vn 0.7020319 0.7020319 -0.1195927
vn 0.5001442 0.5001442 -0.7069026
vn 0 0.6082095 -0.7937766
vn -0.5001443 0.5001444 -0.7069026
vn 0 0.9935333 -0.1135419
vn 0 0.9999961 -0.002800986
vn -0.7020319 0.7020319 -0.1195927
vn 0.7071036 0.7071036 -0.002967679
vn 0.6996565 0.6996565 0.1447803
vn -0.670886 0.6708859 -0.3159497
vn -0.9500746 0 -0.3120227
vn 0 0.990408 0.138174
vn 0 0.9315326 0.3636581
vn -0.6996565 0.6996565 0.1447803
vn 0.6554459 0.6554459 0.3752083
vn 0.4102331 0.4102331 0.8145045
vn -0.7071036 0.7071036 -0.002967677
vn -0.9999961 0 -0.002800987
vn -0.9935333 0 -0.1135419
vn -0.7020319 -0.7020319 -0.1195927
vn -0.6082095 0 -0.7937765
vn 0 0 -1
vn 0 0.6082095 -0.7937766
vn 0.5001442 0.5001442 -0.7069026
vn 0.6082095 0 -0.7937766
vn 0.5001443 -0.5001444 -0.7069026
vn 0 -0.6082095 -0.7937766
vn -0.5001444 -0.5001443 -0.7069026
vn -0.6708859 -0.6708859 -0.3159497
vn 0 -0.9500746 -0.3120228
vn 0 -0.6082095 -0.7937766
vn 0.5001443 -0.5001444 -0.7069026
vn 0.6708859 -0.6708859 -0.3159497
vn 0.9500746 0 -0.3120227
vn 0.7020319 -0.7020319 -0.1195927
vn 0.6082095 0 -0.7937766
vn 0.5001442 0.5001442 -0.7069026
vn 0.670886 0.6708859 -0.3159497
vn 0.7020319 0.7020319 -0.1195927
vn 0.9935333 0 -0.1135419
vn 0.9999961 0 -0.00280099
vn 0.7071036 0.7071036 -0.002967679
vn 0.6996565 0.6996565 0.1447803
vn 0 -0.9935333 -0.1135419
vn 0 -0.9999961 -0.002800982
vn 0.7071036 -0.7071036 -0.00296767
vn 0.6996565 -0.6996565 0.1447803
vn 0.990408 0 0.138174
vn 0.9315326 0 0.3636581
vn 0.6554459 0.6554459 0.3752083
vn 0.4102331 0.4102331 0.8145045
vn -0.7071036 -0.7071036 -0.002967673
vn -0.6996565 -0.6996565 0.1447803
vn 0 -0.990408 0.138174
vn 0 -0.9315326 0.3636581
vn 0.6554459 -0.6554459 0.3752084
vn 0.4102331 -0.4102331 0.8145045
vn 0.5697451 0 0.8218215
vn -0.2874991 0 0.9577809
vn -0.1936255 -0.1936255 0.9617787
vn 0.1973807 0.1973807 0.9602508
vn 0.3370571 0 0.9414842
vn 0.1973807 -0.1973807 0.9602508
vn -0.1936255 0.1936255 0.9617787
vn 0 0.2874991 0.9577809
vn 0 -0.3370571 0.9414842
vn -0.1973807 -0.1973807 0.9602508
vn 0 -0.5697451 0.8218215
vn -0.4102331 -0.4102331 0.8145045
vn 0.1936255 0.1936255 0.9617787
vn 0.2874991 0 0.9577809
vn -0.3370571 0 0.9414842
vn -0.1973807 0.1973807 0.9602508
vn -0.6554459 -0.6554459 0.3752084
vn -0.9315326 0 0.3636581
vn -0.5697451 0 0.8218215
vn -0.4102332 0.4102331 0.8145045
vn 0.1936255 -0.1936255 0.9617787
vn 0 -0.2874992 0.9577809
vn 0 0.3370571 0.9414842
vn 0.1973807 0.1973807 0.9602508
vn -0.1936255 -0.1936255 0.9617787
vn 0 0.5697451 0.8218215
vn -0.6554459 0.6554459 0.3752083
vn -0.990408 0 0.138174
vn 0 0.9773546 0.2116081
vn 0 0.3370571 0.9414842
vn 0.1973807 0.1973807 0.9602508
vn 0.6894353 0.6894354 0.2221662
vn 0.6989097 0.6989098 0.1518233
vn 0 0.9396505 0.3421359
vn -0.1973807 0.1973807 0.9602508
vn -0.6989097 0.6989098 0.1518233
vn -0.6894354 0.6894354 0.2221662
vn -0.9773546 0 0.2116081
vn -0.3370571 0 0.9414842
vn -0.9396505 0 0.3421359
vn -0.1973807 -0.1973807 0.9602508
vn -0.6989098 -0.6989098 0.1518233
vn -0.6894354 -0.6894354 0.2221662
vn 0 -0.9773546 0.2116081
vn 0 -0.3370571 0.9414842
vn 0 -0.9396505 0.3421359
vn 0.1973807 -0.1973807 0.9602508
vn 0.6989098 -0.6989097 0.1518233
vn 0.6894354 -0.6894354 0.2221662
vn 0.9773546 0 0.2116081
vn 0.3370571 0 0.9414842
vn 0.9396505 0 0.3421359
vn 0.1973807 0.1973807 0.9602508
vn 0.6989097 0.6989098 0.1518233
vn 0.6894353 0.6894354 0.2221662
vn 0 0 1
vn -0.9396505 0 0.3421359
vn -0.6989097 0.6989098 0.1518233
vn 0 0.9396505 0.3421359
vn -0.6989098 -0.6989098 0.1518233
vn 0.6989097 0.6989098 0.1518233
vn 0 -0.9396505 0.3421359
vn 0.9396505 0 0.3421359
vn 0.6989098 -0.6989097 0.1518233
g BushLime_0
f 3/3/3 2/2/2 1/1/1
f 2/2/2 4/4/4 1/1/1
f 4/4/4 5/5/5 1/1/1
f 5/5/5 6/6/6 1/1/1
f 7/7/7 3/3/3 1/1/1
f 3/3/3 7/7/7 8/8/8
f 9/9/9 7/7/7 1/1/1
f 7/7/7 9/9/9 8/8/8
f 10/10/10 3/3/3 8/8/8
f 11/11/11 10/10/10 8/8/8
f 6/6/6 12/12/12 1/1/1
f 12/12/12 9/9/9 1/1/1
f 12/12/12 6/6/6 13/13/13
f 9/9/9 12/12/12 13/13/13
f 14/14/14 11/11/11 8/8/8
f 11/11/11 14/14/14 15/15/15
f 16/16/16 14/14/14 8/8/8
f 14/14/14 16/16/16 15/15/15
f 17/17/17 11/11/11 15/15/15
f 18/18/18 17/17/17 15/15/15
f 9/9/9 19/19/19 8/8/8
f 19/19/19 16/16/16 8/8/8
f 19/19/19 9/9/9 20/20/20
f 16/16/16 19/19/19 20/20/20
f 21/21/21 9/9/9 13/13/13
f 9/9/9 21/21/21 20/20/20
f 22/22/22 21/21/21 13/13/13
f 21/21/21 22/22/22 20/20/20
f 6/6/6 23/23/23 13/13/13
f 23/23/23 6/6/6 24/24/24
f 6/6/6 25/25/25 24/24/24
f 25/25/25 26/26/26 24/24/24
f 26/26/26 27/27/27 24/24/24
f 27/27/27 28/28/28 24/24/24
f 28/28/28 29/29/29 24/24/24
f 29/29/29 30/30/30 24/24/24
f 30/30/30 23/23/23 24/24/24
f 23/23/23 30/30/30 13/13/13
f 30/30/30 31/31/31 13/13/13
f 31/31/31 22/22/22 13/13/13
f 31/31/31 30/30/30 32/32/32
f 22/22/22 31/31/31 32/32/32
f 30/30/30 33/33/33 32/32/32
f 33/33/33 34/34/34 32/32/32
f 34/34/34 35/35/35 32/32/32
f 35/35/35 34/34/34 36/36/36
f 35/35/35 37/37/37 32/32/32
f 37/37/37 35/35/35 36/36/36
f 34/34/34 38/38/38 36/36/36
f 38/38/38 39/39/39 36/36/36
f 39/39/39 40/40/40 36/36/36
f 40/40/40 41/41/41 36/36/36
f 41/41/41 42/42/42 36/36/36
f 42/42/42 37/37/37 36/36/36
f 42/42/42 41/41/41 43/43/43
f 37/37/37 42/42/42 43/43/43
f 41/41/41 44/44/44 43/43/43
f 44/44/44 45/45/45 43/43/43
f 46/46/46 22/22/22 32/32/32
f 37/37/37 46/46/46 32/32/32
f 22/22/22 46/46/46 47/47/47
f 46/46/46 37/37/37 47/47/47
f 48/48/48 37/37/37 43/43/43
f 37/37/37 48/48/48 47/47/47
f 49/49/49 48/48/48 43/43/43
f 48/48/48 49/49/49 47/47/47
f 45/45/45 50/50/50 43/43/43
f 50/50/50 49/49/49 43/43/43
f 50/50/50 45/45/45 51/51/51
f 49/49/49 50/50/50 51/51/51
f 45/45/45 52/52/52 51/51/51
f 52/52/52 53/53/53 51/51/51
f 54/54/54 22/22/22 47/47/47
f 55/55/55 54/54/54 47/47/47
f 22/22/22 54/54/54 20/20/20
f 54/54/54 55/55/55 20/20/20
f 49/49/49 56/56/56 47/47/47
f 56/56/56 55/55/55 47/47/47
f 56/56/56 49/49/49 57/57/57
f 55/55/55 56/56/56 57/57/57
f 58/58/58 49/49/49 51/51/51
f 49/49/49 58/58/58 57/57/57
f 59/59/59 58/58/58 51/51/51
f 58/58/58 59/59/59 57/57/57
f 53/53/53 60/60/60 51/51/51
f 60/60/60 59/59/59 51/51/51
f 60/60/60 53/53/53 61/61/61
f 59/59/59 60/60/60 61/61/61
f 53/53/53 62/62/62 61/61/61
f 62/62/62 63/63/63 61/61/61
f 63/63/63 64/64/64 61/61/61
f 64/64/64 65/65/65 61/61/61
f 65/65/65 66/66/66 61/61/61
f 66/66/66 59/59/59 61/61/61
f 66/66/66 65/65/65 67/67/67
f 59/59/59 66/66/66 67/67/67
f 65/65/65 68/68/68 67/67/67
f 68/68/68 69/69/69 67/67/67
f 59/59/59 70/70/70 57/57/57
f 70/70/70 59/59/59 67/67/67
f 70/70/70 71/71/71 57/57/57
f 71/71/71 70/70/70 67/67/67
f 69/69/69 72/72/72 67/67/67
f 72/72/72 71/71/71 67/67/67
f 72/72/72 69/69/69 73/73/73
f 71/71/71 72/72/72 73/73/73
f 69/69/69 74/74/74 73/73/73
f 74/74/74 75/75/75 73/73/73
f 71/71/71 76/76/76 57/57/57
f 76/76/76 71/71/71 77/77/77
f 76/76/76 55/55/55 57/57/57
f 55/55/55 76/76/76 77/77/77
f 78/78/78 71/71/71 73/73/73
f 71/71/71 78/78/78 77/77/77
f 79/79/79 78/78/78 73/73/73
f 78/78/78 79/79/79 77/77/77
f 75/75/75 80/80/80 73/73/73
f 80/80/80 79/79/79 73/73/73
f 80/80/80 75/75/75 81/81/81
f 79/79/79 80/80/80 81/81/81
f 75/75/75 82/82/82 81/81/81
f 82/82/82 83/83/83 81/81/81
f 83/83/83 84/84/84 81/81/81
f 84/84/84 18/18/18 81/81/81
f 18/18/18 85/85/85 81/81/81
f 85/85/85 79/79/79 81/81/81
f 85/85/85 18/18/18 15/15/15
f 79/79/79 85/85/85 15/15/15
f 86/86/86 79/79/79 15/15/15
f 79/79/79 86/86/86 77/77/77
f 16/16/16 86/86/86 15/15/15
f 86/86/86 16/16/16 77/77/77
f 16/16/16 87/87/87 77/77/77
f 87/87/87 55/55/55 77/77/77
f 87/87/87 16/16/16 20/20/20
f 55/55/55 87/87/87 20/20/20
f 90/90/90 89/89/89 88/88/88
f 91/91/91 90/90/90 88/88/88
f 92/92/92 91/91/91 88/88/88
f 93/93/93 92/92/92 88/88/88
f 89/89/89 94/94/94 88/88/88
f 95/95/95 93/93/93 88/88/88
f 94/94/94 96/96/96 88/88/88
f 96/96/96 95/95/95 88/88/88
f 96/96/96 94/94/94 97/97/97
f 95/95/95 96/96/96 97/97/97
f 94/94/94 98/98/98 97/97/97
f 99/99/99 95/95/95 97/97/97
f 98/98/98 100/100/100 97/97/97
f 101/101/101 99/99/99 97/97/97
f 100/100/100 102/102/102 97/97/97
f 102/102/102 101/101/101 97/97/97
f 102/102/102 100/100/100 103/103/103
f 101/101/101 102/102/102 103/103/103
f 100/100/100 104/104/104 103/103/103
f 105/105/105 101/101/101 103/103/103
f 104/104/104 106/106/106 103/103/103
f 107/107/107 105/105/105 103/103/103
f 106/106/106 108/108/108 103/103/103
f 108/108/108 107/107/107 103/103/103
f 108/108/108 106/106/106 109/109/109
f 107/107/107 108/108/108 109/109/109
f 106/106/106 110/110/110 109/109/109
f 111/111/111 107/107/107 109/109/109
f 110/110/110 112/112/112 109/109/109
f 113/113/113 111/111/111 109/109/109
f 112/112/112 114/114/114 109/109/109
f 114/114/114 113/113/113 109/109/109
f 117/117/117 116/116/116 115/115/115
f 118/118/118 117/117/117 115/115/115
f 116/116/116 119/119/119 115/115/115
f 120/120/120 118/118/118 115/115/115
f 119/119/119 121/121/121 115/115/115
f 122/122/122 120/120/120 115/115/115
f 121/121/121 123/123/123 115/115/115
f 123/123/123 122/122/122 115/115/115
