g CactusFig
v 0 -0.284906 0.331719
v -0.07205 -0.213679 0.331719
v -0.070866 -0.236106 0.496416
v -0.068637 -0.15465 0.179597
v 0 -0.314808 0.496416
v 0 -0.263381 0.628568
v -0.069517 -0.197536 0.628568
v -0.05107 -0.125858 0.692946
v 0.070866 -0.236106 0.496416
v 0.07205 -0.213679 0.331719
v 0.069517 -0.197536 0.628568
v 0.068637 -0.15465 0.179597
v 0.05107 -0.125858 0.692946
v 0 -0.206201 0.179597
v 0 -0.111217 0.085171
v -0.056194 -0.083413 0.085171
v 0.056194 -0.083413 0.085171
v -0.043475 -0.039067 0.01859
v 0.043475 -0.039067 0.01859
v 0 -0.151491 0.715478
v 0 0 0.744447
v -0.069517 0 0.715478
v 0.069517 0 0.715478
v -0.053614 0.125858 0.692946
v 0.053614 0.125858 0.692946
v 0 -0.052089 0.01859
v 0 -0.08095 -0.049999
v -0.039236 -0.060713 -0.049999
v 0.039236 -0.060713 -0.049999
v -0.029063 -0.061163 -0.088661
v 0.029063 -0.061163 -0.088661
v 0 0.151491 0.715478
v 0 0.263381 0.628568
v -0.075241 0.197536 0.628568
v 0.075241 0.197536 0.628568
v -0.079452 0.236106 0.496416
v 0.079452 0.236106 0.496416
v 0 -0.097141 -0.102192
v 0 0 -0.11959
v -0.039236 0 -0.102192
v 0.039236 0 -0.102192
v -0.029063 0.061163 -0.088661
v 0.029063 0.061163 -0.088661
v 0 0.314808 0.496416
v 0 0.284906 0.331719
v -0.077775 0.213679 0.331719
v 0.077775 0.213679 0.331719
v -0.070069 0.15465 0.179597
v 0.070069 0.15465 0.179597
v 0 0.097141 -0.102192
v 0 0.08095 -0.049999
v -0.039236 0.060713 -0.049999
v 0.039236 0.060713 -0.049999
v -0.043475 0.039067 0.01859
v 0.043475 0.039067 0.01859
v 0 0.206201 0.179597
v 0 0.111217 0.085171
v -0.056194 0.083413 0.085171
v 0.056194 0.083413 0.085171
v 0 0.052089 0.01859
v 0.096505 0 0.628568
v 0.053614 0.125858 0.692946
v 0.075241 0.197536 0.628568
v 0.069517 0 0.715478
v 0.05107 -0.125858 0.692946
v 0.069517 -0.197536 0.628568
v 0.079452 0.236106 0.496416
v 0.070866 -0.236106 0.496416
v 0.100212 0 0.496416
v 0.099883 0 0.331719
v 0.077775 0.213679 0.331719
v 0.07205 -0.213679 0.331719
v 0.070069 0.15465 0.179597
v 0.068637 -0.15465 0.179597
v 0.092471 0 0.179597
v 0.074925 0 0.085171
v 0.056194 0.083413 0.085171
v 0.056194 -0.083413 0.085171
v 0.043475 0.039067 0.01859
v 0.043475 -0.039067 0.01859
v 0.057967 0 0.01859
v 0.052314 0 -0.049999
v 0.039236 0.060713 -0.049999
v 0.039236 -0.060713 -0.049999
v 0.029063 0.061163 -0.088661
v 0.029063 -0.061163 -0.088661
v 0.039236 0 -0.102192
v -0.096505 0 0.628568
v -0.069517 0 0.715478
v -0.05107 -0.125858 0.692946
v -0.069517 -0.197536 0.628568
v -0.053614 0.125858 0.692946
v -0.075241 0.197536 0.628568
v -0.070866 -0.236106 0.496416
v -0.079452 0.236106 0.496416
v -0.100212 0 0.496416
v -0.099883 0 0.331719
v -0.07205 -0.213679 0.331719
v -0.077775 0.213679 0.331719
v -0.068637 -0.15465 0.179597
v -0.070069 0.15465 0.179597
v -0.092471 0 0.179597
v -0.074925 0 0.085171
v -0.056194 -0.083413 0.085171
v -0.056194 0.083413 0.085171
v -0.043475 -0.039067 0.01859
v -0.043475 0.039067 0.01859
v -0.057967 0 0.01859
v -0.052314 0 -0.049999
v -0.039236 -0.060713 -0.049999
v -0.039236 0.060713 -0.049999
v -0.029063 -0.061163 -0.088661
v -0.029063 0.061163 -0.088661
v -0.039236 0 -0.102192
vt 0.165549 0.290536
vt 0.165454 0.286441
vt 0.149198 0.288632
vt 0.180693 0.288584
vt 0.150906 0.292721
vt 0.139256 0.299821
vt 0.135784 0.296607
vt 0.127444 0.309237
vt 0.152614 0.296811
vt 0.165644 0.294631
vt 0.142728 0.303034
vt 0.178284 0.296077
vt 0.136795 0.312655
vt 0.179489 0.292331
vt 0.189029 0.29717
vt 0.191058 0.29361
vt 0.187001 0.30073
vt 0.198332 0.299511
vt 0.193332 0.30605
vt 0.132119 0.310946
vt 0.131015 0.325208
vt 0.126412 0.325388
vt 0.135619 0.325029
vt 0.131416 0.341154
vt 0.138986 0.337085
vt 0.195832 0.30278
vt 0.201559 0.306887
vt 0.204299 0.304279
vt 0.198818 0.309494
vt 0.208643 0.30909
vt 0.202651 0.312378
vt 0.135201 0.339119
vt 0.143931 0.34919
vt 0.141185 0.352626
vt 0.146678 0.345754
vt 0.155136 0.359123
vt 0.15794 0.350606
vt 0.205647 0.310734
vt 0.207535 0.315569
vt 0.211047 0.315122
vt 0.204024 0.316017
vt 0.211236 0.32195
vt 0.203142 0.320535
vt 0.156538 0.354865
vt 0.17235 0.355589
vt 0.172688 0.359965
vt 0.172011 0.351213
vt 0.188871 0.355796
vt 0.184715 0.347873
vt 0.207189 0.321242
vt 0.204574 0.327603
vt 0.208936 0.329152
vt 0.200212 0.326055
vt 0.204609 0.337373
vt 0.19615 0.332774
vt 0.186793 0.351834
vt 0.195295 0.344073
vt 0.198716 0.34726
vt 0.191873 0.340887
vt 0.200379 0.335074
vt 0.150481 0.344451
vt 0.157925 0.362563
vt 0.171135 0.360301
vt 0.144492 0.352254
vt 0.131059 0.341946
vt 0.129826 0.3286
vt 0.18353 0.355365
vt 0.131388 0.31535
vt 0.157459 0.335358
vt 0.166415 0.323688
vt 0.194291 0.345081
vt 0.138539 0.302295
vt 0.200299 0.3328
vt 0.148847 0.293315
vt 0.174573 0.313057
vt 0.179157 0.307084
vt 0.198431 0.321875
vt 0.159883 0.292292
vt 0.194377 0.312559
vt 0.169931 0.293798
vt 0.182154 0.303179
vt 0.185551 0.298752
vt 0.193825 0.305102
vt 0.177277 0.292403
vt 0.195023 0.298575
vt 0.183272 0.289557
vt 0.189148 0.294066
vt 0.150481 0.344451
vt 0.144492 0.352254
vt 0.157925 0.362563
vt 0.171135 0.360301
vt 0.131059 0.341946
vt 0.129826 0.3286
vt 0.18353 0.355365
vt 0.131388 0.31535
vt 0.157459 0.335358
vt 0.166415 0.323688
vt 0.194291 0.345081
vt 0.138539 0.302295
vt 0.200299 0.3328
vt 0.148847 0.293315
vt 0.174573 0.313057
vt 0.179157 0.307084
vt 0.198431 0.321875
vt 0.159883 0.292292
vt 0.194377 0.312559
vt 0.169931 0.293798
vt 0.182154 0.303179
vt 0.185551 0.298752
vt 0.193825 0.305102
vt 0.177277 0.292403
vt 0.195023 0.298575
vt 0.183272 0.289557
vt 0.189147 0.294066
vn 0 -0.9634815 -0.2677749
vn -0.9317634 -0.3490521 -0.09989832
vn -0.9364057 -0.3498612 0.02723055
vn -0.8967568 -0.3716752 -0.2401765
vn 0 -0.9985915 0.05305683
vn 0 -0.8755305 0.4831628
vn -0.9160591 -0.3252361 0.2346428
vn -0.7372423 -0.2622932 0.6226364
vn 0.9364057 -0.3498612 0.02723056
vn 0.9317634 -0.3490521 -0.09989832
vn 0.9160591 -0.3252361 0.2346428
vn 0.8967568 -0.3716752 -0.2401765
vn 0.7372423 -0.2622932 0.6226364
vn 0 -0.8656964 -0.5005695
vn 0 -0.7458965 -0.6660619
vn -0.800369 -0.427533 -0.4202678
vn 0.800369 -0.427533 -0.4202678
vn -0.7893768 -0.5657789 -0.2382822
vn 0.789377 -0.5657788 -0.2382823
vn 0 -0.4337685 0.9010243
vn 0 0 1
vn -0.7675332 -0.006754577 0.6409737
vn 0.7675332 -0.006754577 0.6409737
vn -0.7272823 0.256411 0.6366425
vn 0.7272823 0.256411 0.6366425
vn 0 -0.9605361 -0.2781552
vn 0 -0.9697491 0.2441039
vn -0.8038811 -0.5931295 0.04441301
vn 0.8038811 -0.5931295 0.04441302
vn -0.7649894 -0.3921131 -0.5109192
vn 0.7649894 -0.3921132 -0.5109192
vn 0 0.4331572 0.9013184
vn 0 0.8717604 0.4899324
vn -0.9125059 0.3228427 0.2512083
vn 0.9125059 0.3228427 0.2512083
vn -0.9354216 0.3524356 0.02784931
vn 0.9354216 0.3524356 0.02784931
vn 0 -0.7278225 -0.6857656
vn 0 0 -1
vn -0.7801055 0 -0.625648
vn 0.7801055 0 -0.625648
vn -0.7649894 0.3921131 -0.5109192
vn 0.7649894 0.3921131 -0.5109192
vn 0 0.9985924 0.05303761
vn 0 0.9616511 -0.2742756
vn -0.930639 0.3483094 -0.1122124
vn 0.930639 0.3483094 -0.1122124
vn -0.8940607 0.3694296 -0.2533322
vn 0.8940607 0.3694296 -0.2533322
vn 0 0.7278225 -0.6857657
vn 0 0.9697491 0.244104
vn -0.8038811 0.5931295 0.04441302
vn 0.8038811 0.5931295 0.04441301
vn -0.789377 0.5657788 -0.2382823
vn 0.789377 0.5657788 -0.2382823
vn 0 0.8631055 -0.5050237
vn 0 0.7446515 -0.6674535
vn -0.7980187 0.4264714 -0.4257798
vn 0.7980187 0.4264714 -0.4257798
vn 0 0.9605361 -0.2781552
vn 0.9902962 -0.01509222 0.1381512
vn 0.7272823 0.256411 0.6366425
vn 0.9125059 0.3228427 0.2512083
vn 0.7675332 -0.006754577 0.6409737
vn 0.7372423 -0.2622932 0.6226364
vn 0.9160591 -0.3252361 0.2346428
vn 0.9354216 0.3524356 0.02784931
vn 0.9364057 -0.3498612 0.02723056
vn 0.9997897 -0.01614565 0.01264544
vn 0.9993173 -0.01321646 -0.03449869
vn 0.930639 0.3483094 -0.1122124
vn 0.9317634 -0.3490521 -0.09989832
vn 0.8940607 0.3694296 -0.2533322
vn 0.8967568 -0.3716752 -0.2401765
vn 0.9936098 -0.007761535 -0.1126028
vn 0.9700579 -0.002174733 -0.2428642
vn 0.7980187 0.4264714 -0.4257798
vn 0.800369 -0.427533 -0.4202678
vn 0.789377 0.5657788 -0.2382823
vn 0.789377 -0.5657788 -0.2382823
vn 0.9827229 0 -0.1850832
vn 0.9919958 0 -0.1262715
vn 0.8038811 0.5931295 0.04441301
vn 0.8038811 -0.5931295 0.04441302
vn 0.7649894 0.3921131 -0.5109192
vn 0.7649894 -0.3921132 -0.5109192
vn 0.7801055 0 -0.625648
vn -0.9902962 -0.01509222 0.1381512
vn -0.7675332 -0.006754577 0.6409737
vn -0.7372423 -0.2622932 0.6226364
vn -0.9160591 -0.3252361 0.2346428
vn -0.7272823 0.256411 0.6366425
vn -0.9125059 0.3228427 0.2512083
vn -0.9364057 -0.3498612 0.02723055
vn -0.9354216 0.3524356 0.02784931
vn -0.9997897 -0.01614564 0.01264543
vn -0.9993173 -0.01321646 -0.0344987
vn -0.9317634 -0.3490521 -0.09989832
vn -0.930639 0.3483094 -0.1122124
vn -0.8967568 -0.3716752 -0.2401765
vn -0.8940607 0.3694296 -0.2533322
vn -0.9936098 -0.007761535 -0.1126028
vn -0.9700579 -0.002174733 -0.2428642
vn -0.800369 -0.427533 -0.4202678
vn -0.7980187 0.4264714 -0.4257798
vn -0.7893768 -0.5657789 -0.2382822
vn -0.789377 0.5657788 -0.2382823
vn -0.9827229 0 -0.1850832
vn -0.9919958 0 -0.1262715
vn -0.8038811 -0.5931295 0.04441301
vn -0.8038811 0.5931295 0.04441302
vn -0.7649894 -0.3921131 -0.5109192
vn -0.7649894 0.3921131 -0.5109192
vn -0.7801055 0 -0.625648
g CactusFig_0
f 3/3/3 2/2/2 1/1/1
f 2/2/2 4/4/4 1/1/1
f 5/5/5 3/3/3 1/1/1
f 3/3/3 5/5/5 6/6/6
f 7/7/7 3/3/3 6/6/6
f 8/8/8 7/7/7 6/6/6
f 9/9/9 5/5/5 1/1/1
f 5/5/5 9/9/9 6/6/6
f 10/10/10 9/9/9 1/1/1
f 9/9/9 11/11/11 6/6/6
f 12/12/12 10/10/10 1/1/1
f 11/11/11 13/13/13 6/6/6
f 4/4/4 14/14/14 1/1/1
f 14/14/14 12/12/12 1/1/1
f 14/14/14 4/4/4 15/15/15
f 12/12/12 14/14/14 15/15/15
f 4/4/4 16/16/16 15/15/15
f 17/17/17 12/12/12 15/15/15
f 16/16/16 18/18/18 15/15/15
f 19/19/19 17/17/17 15/15/15
f 20/20/20 8/8/8 6/6/6
f 13/13/13 20/20/20 6/6/6
f 8/8/8 20/20/20 21/21/21
f 20/20/20 13/13/13 21/21/21
f 22/22/22 8/8/8 21/21/21
f 13/13/13 23/23/23 21/21/21
f 24/24/24 22/22/22 21/21/21
f 23/23/23 25/25/25 21/21/21
f 18/18/18 26/26/26 15/15/15
f 26/26/26 19/19/19 15/15/15
f 26/26/26 18/18/18 27/27/27
f 19/19/19 26/26/26 27/27/27
f 18/18/18 28/28/28 27/27/27
f 29/29/29 19/19/19 27/27/27
f 28/28/28 30/30/30 27/27/27
f 31/31/31 29/29/29 27/27/27
f 32/32/32 24/24/24 21/21/21
f 25/25/25 32/32/32 21/21/21
f 24/24/24 32/32/32 33/33/33
f 32/32/32 25/25/25 33/33/33
f 34/34/34 24/24/24 33/33/33
f 25/25/25 35/35/35 33/33/33
f 36/36/36 34/34/34 33/33/33
f 35/35/35 37/37/37 33/33/33
f 30/30/30 38/38/38 27/27/27
f 38/38/38 31/31/31 27/27/27
f 38/38/38 30/30/30 39/39/39
f 31/31/31 38/38/38 39/39/39
f 30/30/30 40/40/40 39/39/39
f 41/41/41 31/31/31 39/39/39
f 40/40/40 42/42/42 39/39/39
f 43/43/43 41/41/41 39/39/39
f 44/44/44 36/36/36 33/33/33
f 37/37/37 44/44/44 33/33/33
f 36/36/36 44/44/44 45/45/45
f 44/44/44 37/37/37 45/45/45
f 46/46/46 36/36/36 45/45/45
f 37/37/37 47/47/47 45/45/45
f 48/48/48 46/46/46 45/45/45
f 47/47/47 49/49/49 45/45/45
f 42/42/42 50/50/50 39/39/39
f 50/50/50 43/43/43 39/39/39
f 50/50/50 42/42/42 51/51/51
f 43/43/43 50/50/50 51/51/51
f 42/42/42 52/52/52 51/51/51
f 53/53/53 43/43/43 51/51/51
f 52/52/52 54/54/54 51/51/51
f 55/55/55 53/53/53 51/51/51
f 56/56/56 48/48/48 45/45/45
f 49/49/49 56/56/56 45/45/45
f 48/48/48 56/56/56 57/57/57
f 56/56/56 49/49/49 57/57/57
f 58/58/58 48/48/48 57/57/57
f 54/54/54 58/58/58 57/57/57
f 49/49/49 59/59/59 57/57/57
f 59/59/59 55/55/55 57/57/57
f 54/54/54 60/60/60 51/51/51
f 60/60/60 54/54/54 57/57/57
f 55/55/55 60/60/60 57/57/57
f 60/60/60 55/55/55 51/51/51
f 63/63/63 62/62/62 61/61/61
f 62/62/62 64/64/64 61/61/61
f 64/64/64 65/65/65 61/61/61
f 65/65/65 66/66/66 61/61/61
f 67/67/67 63/63/63 61/61/61
f 66/66/66 68/68/68 61/61/61
f 69/69/69 67/67/67 61/61/61
f 68/68/68 69/69/69 61/61/61
f 67/67/67 69/69/69 70/70/70
f 69/69/69 68/68/68 70/70/70
f 71/71/71 67/67/67 70/70/70
f 68/68/68 72/72/72 70/70/70
f 73/73/73 71/71/71 70/70/70
f 72/72/72 74/74/74 70/70/70
f 75/75/75 73/73/73 70/70/70
f 74/74/74 75/75/75 70/70/70
f 73/73/73 75/75/75 76/76/76
f 75/75/75 74/74/74 76/76/76
f 77/77/77 73/73/73 76/76/76
f 74/74/74 78/78/78 76/76/76
f 79/79/79 77/77/77 76/76/76
f 78/78/78 80/80/80 76/76/76
f 81/81/81 79/79/79 76/76/76
f 80/80/80 81/81/81 76/76/76
f 79/79/79 81/81/81 82/82/82
f 81/81/81 80/80/80 82/82/82
f 83/83/83 79/79/79 82/82/82
f 80/80/80 84/84/84 82/82/82
f 85/85/85 83/83/83 82/82/82
f 84/84/84 86/86/86 82/82/82
f 87/87/87 85/85/85 82/82/82
f 86/86/86 87/87/87 82/82/82
f 90/90/90 89/89/89 88/88/88
f 91/91/91 90/90/90 88/88/88
f 89/89/89 92/92/92 88/88/88
f 92/92/92 93/93/93 88/88/88
f 94/94/94 91/91/91 88/88/88
f 93/93/93 95/95/95 88/88/88
f 96/96/96 94/94/94 88/88/88
f 95/95/95 96/96/96 88/88/88
f 94/94/94 96/96/96 97/97/97
f 96/96/96 95/95/95 97/97/97
f 98/98/98 94/94/94 97/97/97
f 95/95/95 99/99/99 97/97/97
f 100/100/100 98/98/98 97/97/97
f 99/99/99 101/101/101 97/97/97
f 102/102/102 100/100/100 97/97/97
f 101/101/101 102/102/102 97/97/97
f 100/100/100 102/102/102 103/103/103
f 102/102/102 101/101/101 103/103/103
f 104/104/104 100/100/100 103/103/103
f 101/101/101 105/105/105 103/103/103
f 106/106/106 104/104/104 103/103/103
f 105/105/105 107/107/107 103/103/103
f 108/108/108 106/106/106 103/103/103
f 107/107/107 108/108/108 103/103/103
f 106/106/106 108/108/108 109/109/109
f 108/108/108 107/107/107 109/109/109
f 110/110/110 106/106/106 109/109/109
f 107/107/107 111/111/111 109/109/109
f 112/112/112 110/110/110 109/109/109
f 111/111/111 113/113/113 109/109/109
f 114/114/114 112/112/112 109/109/109
f 113/113/113 114/114/114 109/109/109
