g CarrotTop
v 0.008051 0.35325 0.964152
v -0.627023 0.35325 0.964152
v -0.639114 0.18352 0.660089
v 0.006982 0.18352 0.660089
v 0.653077 0.18352 0.660089
v 0.643125 0.35325 0.964152
v 0.008051 0.35325 0.964152
v -0.468255 0.503893 1.174566
v -0.627023 0.35325 0.964152
v 0.008051 0.554108 1.244704
v 0.484357 0.503893 1.174566
v 0.643125 0.35325 0.964152
v 0.003773 0.076046 0.309005
v -0.675385 0.076046 0.309005
v -0.530846 0.018787 0.028059
v -0.000505 -0.0003 -0.06559
v 0.531975 0.018787 0.028059
v 0.682931 0.076046 0.309005
v 0.003773 0.076046 0.309005
v -0.639114 0.18352 0.660089
v -0.675385 0.076046 0.309005
v 0.006982 0.18352 0.660089
v 0.653077 0.18352 0.660089
v 0.682931 0.076046 0.309005
v -0.597387 -0.012922 0.938004
v -0.623481 -0.668368 0.943674
v -0.363923 -0.649869 0.659359
v -0.3574 0.001223 0.657941
v -0.350876 0.652316 0.656524
v -0.571293 0.642523 0.932334
v -0.597387 -0.012922 0.938004
v -0.829001 -0.52997 1.132339
v -0.623481 -0.668368 0.943674
v -0.862715 -0.033294 1.187667
v -0.763766 0.473569 1.118164
v -0.571293 0.642523 0.932334
v -0.168094 0.002919 0.31708
v -0.168094 -0.675859 0.31708
v -0.045121 -0.531414 0.038634
v -0.00413 -0.001611 -0.054181
v -0.045121 0.530457 0.038634
v -0.168094 0.681697 0.31708
v -0.168094 0.002919 0.31708
v -0.363923 -0.649869 0.659359
v -0.168094 -0.675859 0.31708
v -0.3574 0.001223 0.657941
v -0.350876 0.652316 0.656524
v -0.168094 0.681697 0.31708
v 0.568354 0.007449 0.932334
v 0.345471 -0.639658 0.656563
v 0.568354 -0.627625 0.932334
v 0.345471 0.006316 0.656563
v 0.345472 0.65229 0.656563
v 0.568354 0.642523 0.932334
v 0.568354 0.007449 0.932334
v 0.747779 0.483754 1.115329
v 0.568354 0.642523 0.932334
v 0.807588 0.007449 1.176327
v 0.747779 -0.468857 1.115329
v 0.568354 -0.627625 0.932334
v 0.155294 0.002918 0.317235
v 0.024925 -0.531286 0.038906
v 0.155294 -0.675756 0.317235
v -0.018531 -0.001613 -0.053871
v 0.024925 0.530325 0.038906
v 0.155294 0.681591 0.317235
v 0.155294 0.002918 0.317235
v 0.345472 0.65229 0.656563
v 0.155294 0.681591 0.317235
v 0.345471 0.006316 0.656563
v 0.345471 -0.639658 0.656563
v 0.155294 -0.675756 0.317235
v 0.008051 -0.411515 0.984029
v 0.643125 -0.411515 0.984029
v 0.652956 -0.246941 0.674345
v 0.006982 -0.246941 0.674345
v -0.638992 -0.246941 0.674345
v -0.627023 -0.411515 0.984029
v 0.008051 -0.411515 0.984029
v 0.484357 -0.549474 1.202969
v 0.643125 -0.411515 0.984029
v 0.008051 -0.59546 1.275949
v -0.468255 -0.549474 1.202969
v -0.627023 -0.411515 0.984029
v 0.003775 -0.121111 0.329133
v 0.682449 -0.121111 0.329133
v 0.531373 -0.041267 0.056902
v -0.000502 -0.014652 -0.033842
v -0.530238 -0.041267 0.056902
v -0.674899 -0.121111 0.329133
v 0.003775 -0.121111 0.329133
v 0.652956 -0.246941 0.674345
v 0.682449 -0.121111 0.329133
v 0.006982 -0.246941 0.674345
v -0.638992 -0.246941 0.674345
v -0.674899 -0.121111 0.329133
v -0.043763 0.034034 1.045248
v -0.425499 -0.525048 0.674386
v -0.457974 -0.478963 1.035347
v 0.003525 0.005445 0.688317
v 0.432548 0.535938 0.702249
v 0.370447 0.54703 1.055149
v -0.043763 0.034034 1.045248
v 0.212629 0.436952 1.314833
v 0.370447 0.54703 1.055149
v -0.10587 0.07088 1.393404
v -0.393315 -0.313614 1.297898
v -0.457974 -0.478963 1.035347
v 0.008051 0.35325 0.964152
v -0.639114 0.18352 0.660089
v -0.627023 0.35325 0.964152
v 0.006982 0.18352 0.660089
v 0.653077 0.18352 0.660089
v 0.643125 0.35325 0.964152
v 0.008051 0.35325 0.964152
v 0.484357 0.503893 1.174566
v 0.643125 0.35325 0.964152
v 0.008051 0.554108 1.244704
v -0.468255 0.503893 1.174566
v -0.627023 0.35325 0.964152
v 0.003773 0.076046 0.309005
v -0.530846 0.018787 0.028059
v -0.675385 0.076046 0.309005
v -0.000505 -0.0003 -0.06559
v 0.531975 0.018787 0.028059
v 0.682931 0.076046 0.309005
v 0.003773 0.076046 0.309005
v 0.653077 0.18352 0.660089
v 0.682931 0.076046 0.309005
v 0.006982 0.18352 0.660089
v -0.639114 0.18352 0.660089
v -0.675385 0.076046 0.309005
v -0.597387 -0.012922 0.938004
v -0.363923 -0.649869 0.659359
v -0.623481 -0.668368 0.943674
v -0.3574 0.001223 0.657941
v -0.350876 0.652316 0.656524
v -0.571293 0.642523 0.932334
v -0.597387 -0.012922 0.938004
v -0.763766 0.473569 1.118164
v -0.571293 0.642523 0.932334
v -0.862715 -0.033294 1.187667
v -0.829001 -0.52997 1.132339
v -0.623481 -0.668368 0.943674
v -0.168094 0.002919 0.31708
v -0.045121 -0.531414 0.038634
v -0.168094 -0.675859 0.31708
v -0.00413 -0.001611 -0.054181
v -0.045121 0.530457 0.038634
v -0.168094 0.681697 0.31708
v -0.168094 0.002919 0.31708
v -0.350876 0.652316 0.656524
v -0.168094 0.681697 0.31708
v -0.3574 0.001223 0.657941
v -0.363923 -0.649869 0.659359
v -0.168094 -0.675859 0.31708
v 0.568354 0.007449 0.932334
v 0.568354 -0.627625 0.932334
v 0.345471 -0.639658 0.656563
v 0.345471 0.006316 0.656563
v 0.345472 0.65229 0.656563
v 0.568354 0.642523 0.932334
v 0.568354 0.007449 0.932334
v 0.747779 -0.468857 1.115329
v 0.568354 -0.627625 0.932334
v 0.807588 0.007449 1.176327
v 0.747779 0.483754 1.115329
v 0.568354 0.642523 0.932334
v 0.155294 0.002918 0.317235
v 0.155294 -0.675756 0.317235
v 0.024925 -0.531286 0.038906
v -0.018531 -0.001613 -0.053871
v 0.024925 0.530325 0.038906
v 0.155294 0.681591 0.317235
v 0.155294 0.002918 0.317235
v 0.345471 -0.639658 0.656563
v 0.155294 -0.675756 0.317235
v 0.345471 0.006316 0.656563
v 0.345472 0.65229 0.656563
v 0.155294 0.681591 0.317235
v 0.008051 -0.411515 0.984029
v 0.652956 -0.246941 0.674345
v 0.643125 -0.411515 0.984029
v 0.006982 -0.246941 0.674345
v -0.638992 -0.246941 0.674345
v -0.627023 -0.411515 0.984029
v 0.008051 -0.411515 0.984029
v -0.468255 -0.549474 1.202969
v -0.627023 -0.411515 0.984029
v 0.008051 -0.59546 1.275949
v 0.484357 -0.549474 1.202969
v 0.643125 -0.411515 0.984029
v 0.003775 -0.121111 0.329133
v 0.531373 -0.041267 0.056902
v 0.682449 -0.121111 0.329133
v -0.000502 -0.014652 -0.033842
v -0.530238 -0.041267 0.056902
v -0.674899 -0.121111 0.329133
v 0.003775 -0.121111 0.329133
v -0.638992 -0.246941 0.674345
v -0.674899 -0.121111 0.329133
v 0.006982 -0.246941 0.674345
v 0.652956 -0.246941 0.674345
v 0.682449 -0.121111 0.329133
v -0.043763 0.034034 1.045248
v -0.457974 -0.478963 1.035347
v -0.425499 -0.525048 0.674386
v 0.003525 0.005445 0.688317
v 0.432548 0.535938 0.702249
v 0.370447 0.54703 1.055149
v -0.043763 0.034034 1.045248
v -0.393315 -0.313614 1.297898
v -0.457974 -0.478963 1.035347
v -0.10587 0.07088 1.393404
v 0.212629 0.436952 1.314833
v 0.370447 0.54703 1.055149
v 0.021176 -0.006628 0.313839
v -0.315309 -0.424936 -0.007429
v -0.421545 -0.551755 0.283649
v 0.024009 -0.010444 -0.069414
v 0.361912 0.405956 0.060228
v 0.463897 0.538498 0.344028
v 0.021176 -0.006628 0.313839
v -0.425499 -0.525048 0.674386
v 0.432548 0.535938 0.702249
v 0.003525 0.005445 0.688317
v 0.021176 -0.006628 0.313839
v -0.421545 -0.551755 0.283649
v -0.315309 -0.424936 -0.007429
v 0.024009 -0.010444 -0.069414
v -0.425499 -0.525048 0.674386
v 0.003525 0.005445 0.688317
v 0.021176 -0.006628 0.313839
v 0.361912 0.405956 0.060228
v 0.432548 0.535938 0.702249
v 0.463897 0.538498 0.344028
vt 0.066071 0.966589
vt 0.008463 0.966589
vt 0.008463 0.93365
vt 0.066071 0.93365
vt 0.123679 0.93365
vt 0.123679 0.966589
vt 0.066071 0.966589
vt 0.022865 0.991294
vt 0.008463 0.966589
vt 0.066071 0.999529
vt 0.109277 0.991294
vt 0.123679 0.966589
vt 0.066071 0.90071
vt 0.008463 0.90071
vt 0.022865 0.876006
vt 0.066071 0.867771
vt 0.109277 0.876006
vt 0.123679 0.90071
vt 0.066071 0.90071
vt 0.008463 0.93365
vt 0.008463 0.90071
vt 0.066071 0.93365
vt 0.123679 0.93365
vt 0.123679 0.90071
vt 0.066071 0.966589
vt 0.008463 0.966589
vt 0.008463 0.93365
vt 0.066071 0.93365
vt 0.123679 0.93365
vt 0.123679 0.966589
vt 0.066071 0.966589
vt 0.022865 0.991294
vt 0.008463 0.966589
vt 0.066071 0.999529
vt 0.109277 0.991294
vt 0.123679 0.966589
vt 0.066071 0.90071
vt 0.008463 0.90071
vt 0.022865 0.876006
vt 0.066071 0.867771
vt 0.109277 0.876006
vt 0.123679 0.90071
vt 0.066071 0.90071
vt 0.008463 0.93365
vt 0.008463 0.90071
vt 0.066071 0.93365
vt 0.123679 0.93365
vt 0.123679 0.90071
vt 0.066071 0.966589
vt 0.008463 0.93365
vt 0.008463 0.966589
vt 0.066071 0.93365
vt 0.123679 0.93365
vt 0.123679 0.966589
vt 0.066071 0.966589
vt 0.109277 0.991294
vt 0.123679 0.966589
vt 0.066071 0.999529
vt 0.022865 0.991294
vt 0.008463 0.966589
vt 0.066071 0.90071
vt 0.022865 0.876006
vt 0.008463 0.90071
vt 0.066071 0.867771
vt 0.109277 0.876006
vt 0.123679 0.90071
vt 0.066071 0.90071
vt 0.123679 0.93365
vt 0.123679 0.90071
vt 0.066071 0.93365
vt 0.008463 0.93365
vt 0.008463 0.90071
vt 0.066071 0.966589
vt 0.008463 0.966589
vt 0.008463 0.93365
vt 0.066071 0.93365
vt 0.123679 0.93365
vt 0.123679 0.966589
vt 0.066071 0.966589
vt 0.022865 0.991294
vt 0.008463 0.966589
vt 0.066071 0.999529
vt 0.109277 0.991294
vt 0.123679 0.966589
vt 0.066071 0.90071
vt 0.008463 0.90071
vt 0.022865 0.876006
vt 0.066071 0.867771
vt 0.109277 0.876006
vt 0.123679 0.90071
vt 0.066071 0.90071
vt 0.008463 0.93365
vt 0.008463 0.90071
vt 0.066071 0.93365
vt 0.123679 0.93365
vt 0.123679 0.90071
vt 0.066071 0.966589
vt 0.008463 0.93365
vt 0.008463 0.966589
vt 0.066071 0.93365
vt 0.123679 0.93365
vt 0.123679 0.966589
vt 0.066071 0.966589
vt 0.109277 0.991294
vt 0.123679 0.966589
vt 0.066071 0.999529
vt 0.022865 0.991294
vt 0.008463 0.966589
vt 0.066071 0.966589
vt 0.008463 0.93365
vt 0.008463 0.966589
vt 0.066071 0.93365
vt 0.123679 0.93365
vt 0.123679 0.966589
vt 0.066071 0.966589
vt 0.109277 0.991294
vt 0.123679 0.966589
vt 0.066071 0.999529
vt 0.022865 0.991294
vt 0.008463 0.966589
vt 0.066071 0.90071
vt 0.022865 0.876006
vt 0.008463 0.90071
vt 0.066071 0.867771
vt 0.109277 0.876006
vt 0.123679 0.90071
vt 0.066071 0.90071
vt 0.123679 0.93365
vt 0.123679 0.90071
vt 0.066071 0.93365
vt 0.008463 0.93365
vt 0.008463 0.90071
vt 0.066071 0.966589
vt 0.008463 0.93365
vt 0.008463 0.966589
vt 0.066071 0.93365
vt 0.123679 0.93365
vt 0.123679 0.966589
vt 0.066071 0.966589
vt 0.109277 0.991294
vt 0.123679 0.966589
vt 0.066071 0.999529
vt 0.022865 0.991294
vt 0.008463 0.966589
vt 0.066071 0.90071
vt 0.022865 0.876006
vt 0.008463 0.90071
vt 0.066071 0.867771
vt 0.109277 0.876006
vt 0.123679 0.90071
vt 0.066071 0.90071
vt 0.123679 0.93365
vt 0.123679 0.90071
vt 0.066071 0.93365
vt 0.008463 0.93365
vt 0.008463 0.90071
vt 0.066071 0.966589
vt 0.008463 0.966589
vt 0.008463 0.93365
vt 0.066071 0.93365
vt 0.123679 0.93365
vt 0.123679 0.966589
vt 0.066071 0.966589
vt 0.022865 0.991294
vt 0.008463 0.966589
vt 0.066071 0.999529
vt 0.109277 0.991294
vt 0.123679 0.966589
vt 0.066071 0.90071
vt 0.008463 0.90071
vt 0.022865 0.876006
vt 0.066071 0.867771
vt 0.109277 0.876006
vt 0.123679 0.90071
vt 0.066071 0.90071
vt 0.008463 0.93365
vt 0.008463 0.90071
vt 0.066071 0.93365
vt 0.123679 0.93365
vt 0.123679 0.90071
vt 0.066071 0.966589
vt 0.008463 0.93365
vt 0.008463 0.966589
vt 0.066071 0.93365
vt 0.123679 0.93365
vt 0.123679 0.966589
vt 0.066071 0.966589
vt 0.109277 0.991294
vt 0.123679 0.966589
vt 0.066071 0.999529
vt 0.022865 0.991294
vt 0.008463 0.966589
vt 0.066071 0.90071
vt 0.022865 0.876006
vt 0.008463 0.90071
vt 0.066071 0.867771
vt 0.109277 0.876006
vt 0.123679 0.90071
vt 0.066071 0.90071
vt 0.123679 0.93365
vt 0.123679 0.90071
vt 0.066071 0.93365
vt 0.008463 0.93365
vt 0.008463 0.90071
vt 0.066071 0.966589
vt 0.008463 0.966589
vt 0.008463 0.93365
vt 0.066071 0.93365
vt 0.123679 0.93365
vt 0.123679 0.966589
vt 0.066071 0.966589
vt 0.022865 0.991294
vt 0.008463 0.966589
vt 0.066071 0.999529
vt 0.109277 0.991294
vt 0.123679 0.966589
vt 0.066071 0.90071
vt 0.022865 0.876006
vt 0.008463 0.90071
vt 0.066071 0.867771
vt 0.109277 0.876006
vt 0.123679 0.90071
vt 0.066071 0.90071
vt 0.008463 0.93365
vt 0.123679 0.93365
vt 0.066071 0.93365
vt 0.066071 0.90071
vt 0.008463 0.90071
vt 0.022865 0.876006
vt 0.066071 0.867771
vt 0.008463 0.93365
vt 0.066071 0.93365
vt 0.066071 0.90071
vt 0.109277 0.876006
vt 0.123679 0.93365
vt 0.123679 0.90071
vn 0 0.8731728 -0.4874109
vn 0 0.8731728 -0.4874109
vn 0 0.8731728 -0.4874109
vn 0 0.8731728 -0.4874109
vn 0 0.8731728 -0.4874109
vn 0 0.8731728 -0.4874109
vn 0 0.8130971 -0.582128
vn 0 0.8130971 -0.582128
vn 0 0.8130971 -0.582128
vn 0 0.8130971 -0.582128
vn 0 0.8130971 -0.582128
vn 0 0.8130971 -0.582128
vn 0 0.9798565 -0.1997031
vn 0 0.9798565 -0.1997031
vn 0 0.9798565 -0.1997031
vn 0 0.9798565 -0.1997031
vn 0 0.9798565 -0.1997031
vn 0 0.9798565 -0.1997031
vn 0 0.9562007 -0.2927119
vn 0 0.9562007 -0.2927119
vn 0 0.9562007 -0.2927119
vn 0 0.9562007 -0.2927119
vn 0 0.9562007 -0.2927119
vn 0 0.9562007 -0.2927119
vn -0.7491552 0.01511 -0.6622222
vn -0.7491552 0.01511 -0.6622222
vn -0.7491552 0.01511 -0.6622222
vn -0.7491552 0.01511 -0.6622222
vn -0.770379 0.015775 -0.637391
vn -0.770379 0.015775 -0.637391
vn -0.6774654 0.02720102 -0.7350515
vn -0.6774654 0.02720102 -0.7350515
vn -0.6774654 0.02720102 -0.7350515
vn -0.6774654 0.02720102 -0.7350515
vn -0.6950798 0.02831599 -0.7183748
vn -0.6950798 0.02831599 -0.7183748
vn -0.9147603 0 -0.4039971
vn -0.9147603 0 -0.4039971
vn -0.9147603 0 -0.4039971
vn -0.9147603 0 -0.4039971
vn -0.9147603 0 -0.4039971
vn -0.9147603 0 -0.4039971
vn -0.8710393 0.003749001 -0.4911991
vn -0.8710393 0.003749001 -0.4911991
vn -0.8710393 0.003749001 -0.4911991
vn -0.8710393 0.003749001 -0.4911991
vn -0.8774129 0.003793 -0.479721
vn -0.8774129 0.003793 -0.479721
vn 0.7777432 0 -0.6285821
vn 0.7777432 0 -0.6285821
vn 0.7777432 0 -0.6285821
vn 0.7777432 0 -0.6285821
vn 0.7777432 0 -0.6285821
vn 0.7777432 0 -0.6285821
vn 0.7140355 0 -0.7001095
vn 0.7140355 0 -0.7001095
vn 0.7140355 0 -0.7001095
vn 0.7140355 0 -0.7001095
vn 0.714036 0 -0.7001091
vn 0.714036 0 -0.7001091
vn 0.9055811 0 -0.4241731
vn 0.9055811 0 -0.4241731
vn 0.9055811 0 -0.4241731
vn 0.9055811 0 -0.4241731
vn 0.9055811 0 -0.4241731
vn 0.9055811 0 -0.4241731
vn 0.872337 0 -0.488905
vn 0.872337 0 -0.488905
vn 0.872337 0 -0.488905
vn 0.872337 0 -0.488905
vn 0.872337 0 -0.488905
vn 0.872337 0 -0.488905
vn 0 -0.8830521 -0.4692751
vn 0 -0.8830521 -0.4692751
vn 0 -0.8830521 -0.4692751
vn 0 -0.8830521 -0.4692751
vn 0 -0.8830521 -0.4692751
vn 0 -0.8830521 -0.4692751
vn 0 -0.8460459 -0.53311
vn 0 -0.8460459 -0.53311
vn 0 -0.8460459 -0.53311
vn 0 -0.8460459 -0.53311
vn 0 -0.8460453 -0.5331112
vn 0 -0.8460453 -0.5331112
vn 0 -0.9595788 -0.28144
vn 0 -0.9595788 -0.28144
vn 0 -0.9595788 -0.28144
vn 0 -0.9595788 -0.28144
vn 0 -0.9595788 -0.28144
vn 0 -0.9595788 -0.28144
vn 0 -0.9395317 -0.3424619
vn 0 -0.9395317 -0.3424619
vn 0 -0.9395317 -0.3424619
vn 0 -0.9395317 -0.3424619
vn 0 -0.9395317 -0.3424619
vn 0 -0.9395317 -0.3424619
vn 0.7672988 -0.6234749 0.150105
vn 0.7672988 -0.6234749 0.150105
vn 0.7672988 -0.6234749 0.150105
vn 0.7672988 -0.6234749 0.150105
vn 0.7669172 -0.6232341 0.153027
vn 0.7669172 -0.6232341 0.153027
vn 0.7601922 -0.6179552 0.200597
vn 0.7601922 -0.6179552 0.200597
vn 0.7601922 -0.6179552 0.200597
vn 0.7601922 -0.6179552 0.200597
vn 0.7600581 -0.6178631 0.201387
vn 0.7600581 -0.6178631 0.201387
vn 0 -0.8731728 0.4874109
vn 0 -0.8731728 0.4874109
vn 0 -0.8731728 0.4874109
vn 0 -0.8731728 0.4874109
vn 0 -0.8731728 0.4874109
vn 0 -0.8731728 0.4874109
vn 0 -0.8130971 0.582128
vn 0 -0.8130971 0.582128
vn 0 -0.8130971 0.582128
vn 0 -0.8130971 0.582128
vn 0 -0.8130971 0.582128
vn 0 -0.8130971 0.582128
vn 0 -0.9798565 0.1997031
vn 0 -0.9798565 0.1997031
vn 0 -0.9798565 0.1997031
vn 0 -0.9798565 0.1997031
vn 0 -0.9798565 0.1997031
vn 0 -0.9798565 0.1997031
vn 0 -0.9562007 0.2927119
vn 0 -0.9562007 0.2927119
vn 0 -0.9562007 0.2927119
vn 0 -0.9562007 0.2927119
vn 0 -0.9562007 0.2927119
vn 0 -0.9562007 0.2927119
vn 0.7491552 -0.01511 0.6622222
vn 0.7491552 -0.01511 0.6622222
vn 0.7491552 -0.01511 0.6622222
vn 0.7491552 -0.01511 0.6622222
vn 0.770379 -0.015775 0.637391
vn 0.770379 -0.015775 0.637391
vn 0.6950798 -0.02831599 0.7183748
vn 0.6950798 -0.02831599 0.7183748
vn 0.6950798 -0.02831599 0.7183748
vn 0.6950798 -0.02831599 0.7183748
vn 0.6774654 -0.02720102 0.7350515
vn 0.6774654 -0.02720102 0.7350515
vn 0.9147603 0 0.4039971
vn 0.9147603 0 0.4039971
vn 0.9147603 0 0.4039971
vn 0.9147603 0 0.4039971
vn 0.9147603 0 0.4039971
vn 0.9147603 0 0.4039971
vn 0.8774129 -0.003793 0.479721
vn 0.8774129 -0.003793 0.479721
vn 0.8774129 -0.003793 0.479721
vn 0.8774129 -0.003793 0.479721
vn 0.8710393 -0.003749001 0.4911991
vn 0.8710393 -0.003749001 0.4911991
vn -0.7777427 0 0.6285828
vn -0.7777427 0 0.6285828
vn -0.7777427 0 0.6285828
vn -0.7777427 0 0.6285828
vn -0.7777427 0 0.6285828
vn -0.7777427 0 0.6285828
vn -0.714036 0 0.7001091
vn -0.714036 0 0.7001091
vn -0.714036 0 0.7001091
vn -0.714036 0 0.7001091
vn -0.714036 0 0.7001091
vn -0.714036 0 0.7001091
vn -0.9055811 0 0.4241731
vn -0.9055811 0 0.4241731
vn -0.9055811 0 0.4241731
vn -0.9055811 0 0.4241731
vn -0.9055811 0 0.4241731
vn -0.9055811 0 0.4241731
vn -0.872337 0 0.488905
vn -0.872337 0 0.488905
vn -0.872337 0 0.488905
vn -0.872337 0 0.488905
vn -0.872337 0 0.488905
vn -0.872337 0 0.488905
vn 0 0.8830521 0.4692751
vn 0 0.8830521 0.4692751
vn 0 0.8830521 0.4692751
vn 0 0.8830521 0.4692751
vn 0 0.8830521 0.4692751
vn 0 0.8830521 0.4692751
vn 0 0.8460453 0.5331112
vn 0 0.8460453 0.5331112
vn 0 0.8460453 0.5331112
vn 0 0.8460453 0.5331112
vn 0 0.8460459 0.53311
vn 0 0.8460459 0.53311
vn 0 0.9595788 0.28144
vn 0 0.9595788 0.28144
vn 0 0.9595788 0.28144
vn 0 0.9595788 0.28144
vn 0 0.9595788 0.28144
vn 0 0.9595788 0.28144
vn 0 0.9395317 0.3424619
vn 0 0.9395317 0.3424619
vn 0 0.9395317 0.3424619
vn 0 0.9395317 0.3424619
vn 0 0.9395317 0.3424619
vn 0 0.9395317 0.3424619
vn -0.7672988 0.6234749 -0.150105
vn -0.7672988 0.6234749 -0.150105
vn -0.7672988 0.6234749 -0.150105
vn -0.7672988 0.6234749 -0.150105
vn -0.7669172 0.6232341 -0.153027
vn -0.7669172 0.6232341 -0.153027
vn -0.7600581 0.6178631 -0.201387
vn -0.7600581 0.6178631 -0.201387
vn -0.7600581 0.6178631 -0.201387
vn -0.7600581 0.6178631 -0.201387
vn -0.7601922 0.6179552 -0.200597
vn -0.7601922 0.6179552 -0.200597
vn 0.7753093 -0.6314992 0.010211
vn 0.7753093 -0.6314992 0.010211
vn 0.7753093 -0.6314992 0.010211
vn 0.7753093 -0.6314992 0.010211
vn 0.7751511 -0.6316231 0.013895
vn 0.7751511 -0.6316231 0.013895
vn 0.7742873 -0.6299872 0.05996102
vn 0.7746838 -0.6300558 0.05380298
vn 0.7742873 -0.6299872 0.05996102
vn 0.7742873 -0.6299872 0.05996102
vn -0.7753093 0.6314992 -0.010211
vn -0.7753093 0.6314992 -0.010211
vn -0.7753093 0.6314992 -0.010211
vn -0.7753093 0.6314992 -0.010211
vn -0.7746838 0.6300558 -0.05380298
vn -0.7746838 0.6300558 -0.05380298
vn -0.7742873 0.6299872 -0.05996102
vn -0.7751511 0.6316231 -0.013895
vn -0.7742873 0.6299872 -0.05996102
vn -0.7742873 0.6299872 -0.05996102
g CarrotTop_0
f 3/3/3 2/2/2 1/1/1
f 4/4/4 3/3/3 1/1/1
f 5/5/5 4/4/4 1/1/1
f 6/6/6 5/5/5 1/1/1
f 9/9/9 8/8/8 7/7/7
f 8/8/8 10/10/10 7/7/7
f 10/10/10 11/11/11 7/7/7
f 11/11/11 12/12/12 7/7/7
f 15/15/15 14/14/14 13/13/13
f 16/16/16 15/15/15 13/13/13
f 17/17/17 16/16/16 13/13/13
f 18/18/18 17/17/17 13/13/13
f 21/21/21 20/20/20 19/19/19
f 20/20/20 22/22/22 19/19/19
f 22/22/22 23/23/23 19/19/19
f 23/23/23 24/24/24 19/19/19
f 27/27/27 26/26/26 25/25/25
f 28/28/28 27/27/27 25/25/25
f 29/29/29 28/28/28 25/25/25
f 30/30/30 29/29/29 25/25/25
f 33/33/33 32/32/32 31/31/31
f 32/32/32 34/34/34 31/31/31
f 34/34/34 35/35/35 31/31/31
f 35/35/35 36/36/36 31/31/31
f 39/39/39 38/38/38 37/37/37
f 40/40/40 39/39/39 37/37/37
f 41/41/41 40/40/40 37/37/37
f 42/42/42 41/41/41 37/37/37
f 45/45/45 44/44/44 43/43/43
f 44/44/44 46/46/46 43/43/43
f 46/46/46 47/47/47 43/43/43
f 47/47/47 48/48/48 43/43/43
f 51/51/51 50/50/50 49/49/49
f 50/50/50 52/52/52 49/49/49
f 52/52/52 53/53/53 49/49/49
f 53/53/53 54/54/54 49/49/49
f 57/57/57 56/56/56 55/55/55
f 56/56/56 58/58/58 55/55/55
f 58/58/58 59/59/59 55/55/55
f 59/59/59 60/60/60 55/55/55
f 63/63/63 62/62/62 61/61/61
f 62/62/62 64/64/64 61/61/61
f 64/64/64 65/65/65 61/61/61
f 65/65/65 66/66/66 61/61/61
f 69/69/69 68/68/68 67/67/67
f 68/68/68 70/70/70 67/67/67
f 70/70/70 71/71/71 67/67/67
f 71/71/71 72/72/72 67/67/67
f 75/75/75 74/74/74 73/73/73
f 76/76/76 75/75/75 73/73/73
f 77/77/77 76/76/76 73/73/73
f 78/78/78 77/77/77 73/73/73
f 81/81/81 80/80/80 79/79/79
f 80/80/80 82/82/82 79/79/79
f 82/82/82 83/83/83 79/79/79
f 83/83/83 84/84/84 79/79/79
f 87/87/87 86/86/86 85/85/85
f 88/88/88 87/87/87 85/85/85
f 89/89/89 88/88/88 85/85/85
f 90/90/90 89/89/89 85/85/85
f 93/93/93 92/92/92 91/91/91
f 92/92/92 94/94/94 91/91/91
f 94/94/94 95/95/95 91/91/91
f 95/95/95 96/96/96 91/91/91
f 99/99/99 98/98/98 97/97/97
f 98/98/98 100/100/100 97/97/97
f 100/100/100 101/101/101 97/97/97
f 101/101/101 102/102/102 97/97/97
f 105/105/105 104/104/104 103/103/103
f 104/104/104 106/106/106 103/103/103
f 106/106/106 107/107/107 103/103/103
f 107/107/107 108/108/108 103/103/103
f 111/111/111 110/110/110 109/109/109
f 110/110/110 112/112/112 109/109/109
f 112/112/112 113/113/113 109/109/109
f 113/113/113 114/114/114 109/109/109
f 117/117/117 116/116/116 115/115/115
f 116/116/116 118/118/118 115/115/115
f 118/118/118 119/119/119 115/115/115
f 119/119/119 120/120/120 115/115/115
f 123/123/123 122/122/122 121/121/121
f 122/122/122 124/124/124 121/121/121
f 124/124/124 125/125/125 121/121/121
f 125/125/125 126/126/126 121/121/121
f 129/129/129 128/128/128 127/127/127
f 128/128/128 130/130/130 127/127/127
f 130/130/130 131/131/131 127/127/127
f 131/131/131 132/132/132 127/127/127
f 135/135/135 134/134/134 133/133/133
f 134/134/134 136/136/136 133/133/133
f 136/136/136 137/137/137 133/133/133
f 137/137/137 138/138/138 133/133/133
f 141/141/141 140/140/140 139/139/139
f 140/140/140 142/142/142 139/139/139
f 142/142/142 143/143/143 139/139/139
f 143/143/143 144/144/144 139/139/139
f 147/147/147 146/146/146 145/145/145
f 146/146/146 148/148/148 145/145/145
f 148/148/148 149/149/149 145/145/145
f 149/149/149 150/150/150 145/145/145
f 153/153/153 152/152/152 151/151/151
f 152/152/152 154/154/154 151/151/151
f 154/154/154 155/155/155 151/151/151
f 155/155/155 156/156/156 151/151/151
f 159/159/159 158/158/158 157/157/157
f 160/160/160 159/159/159 157/157/157
f 161/161/161 160/160/160 157/157/157
f 162/162/162 161/161/161 157/157/157
f 165/165/165 164/164/164 163/163/163
f 164/164/164 166/166/166 163/163/163
f 166/166/166 167/167/167 163/163/163
f 167/167/167 168/168/168 163/163/163
f 171/171/171 170/170/170 169/169/169
f 172/172/172 171/171/171 169/169/169
f 173/173/173 172/172/172 169/169/169
f 174/174/174 173/173/173 169/169/169
f 177/177/177 176/176/176 175/175/175
f 176/176/176 178/178/178 175/175/175
f 178/178/178 179/179/179 175/175/175
f 179/179/179 180/180/180 175/175/175
f 183/183/183 182/182/182 181/181/181
f 182/182/182 184/184/184 181/181/181
f 184/184/184 185/185/185 181/181/181
f 185/185/185 186/186/186 181/181/181
f 189/189/189 188/188/188 187/187/187
f 188/188/188 190/190/190 187/187/187
f 190/190/190 191/191/191 187/187/187
f 191/191/191 192/192/192 187/187/187
f 195/195/195 194/194/194 193/193/193
f 194/194/194 196/196/196 193/193/193
f 196/196/196 197/197/197 193/193/193
f 197/197/197 198/198/198 193/193/193
f 201/201/201 200/200/200 199/199/199
f 200/200/200 202/202/202 199/199/199
f 202/202/202 203/203/203 199/199/199
f 203/203/203 204/204/204 199/199/199
f 207/207/207 206/206/206 205/205/205
f 208/208/208 207/207/207 205/205/205
f 209/209/209 208/208/208 205/205/205
f 210/210/210 209/209/209 205/205/205
f 213/213/213 212/212/212 211/211/211
f 212/212/212 214/214/214 211/211/211
f 214/214/214 215/215/215 211/211/211
f 215/215/215 216/216/216 211/211/211
f 219/219/219 218/218/218 217/217/217
f 218/218/218 220/220/220 217/217/217
f 220/220/220 221/221/221 217/217/217
f 221/221/221 222/222/222 217/217/217
f 224/224/224 219/219/219 223/223/223
f 222/222/222 225/225/225 223/223/223
f 226/226/226 224/224/224 223/223/223
f 225/225/225 226/226/226 223/223/223
f 229/229/229 228/228/228 227/227/227
f 230/230/230 229/229/229 227/227/227
f 228/228/228 231/231/231 227/227/227
f 231/231/231 232/232/232 227/227/227
f 234/234/234 230/230/230 233/233/233
f 232/232/232 235/235/235 233/233/233
f 236/236/236 234/234/234 233/233/233
f 235/235/235 236/236/236 233/233/233
