g CassowaryEggBroken_001
v 0.124822 0.124822 0.26809
v 0.133993 0 0.421116
v 0.176585 0 0.337913
v 0.094711 0.094711 0.421215
v 0 0.176585 0.337913
v 0.078849 0 0.496002
v 0 0.133993 0.421116
v -0.124822 0.124822 0.26809
v 0.055755 0.055755 0.496002
v 0.038136 0 0.525613
v -0.094711 0.094711 0.421215
v -0.176585 0 0.337913
v -0.133993 0 0.421116
v 0 0.078849 0.496002
v 0.026966 0.026966 0.525613
v 0 0 0.533089
v -0.055755 0.055755 0.496002
v -0.078849 0 0.496002
v 0 0.038136 0.525613
v -0.026966 0.026966 0.525613
v -0.038136 0 0.525613
v -0.124822 -0.124822 0.26809
v -0.133993 0 0.421116
v -0.176585 0 0.337913
v -0.094711 -0.094711 0.421215
v 0 -0.176585 0.337913
v -0.078849 0 0.496002
v 0 -0.133993 0.421116
v 0.124822 -0.124822 0.26809
v -0.055755 -0.055755 0.496002
v -0.038136 0 0.525613
v 0.094711 -0.094711 0.421215
v 0.176585 0 0.337913
v 0.133993 0 0.421116
v 0 -0.078849 0.496002
v -0.026966 -0.026966 0.525613
v 0 0 0.533089
v 0.055755 -0.055755 0.496002
v 0.078849 0 0.496002
v 0 -0.038135 0.525613
v 0.026966 -0.026966 0.525613
v 0.038136 0 0.525613
v 0.041243 0 0.531885
v 0.029163 -0.029163 0.531885
v 0 0 0.540089
v 0.083912 0 0.500837
v 0.059335 -0.059334 0.500837
v 0.140193 0 0.424365
v 0 -0.041243 0.531885
v 0.099131 -0.099131 0.424365
v 0.183138 0 0.340374
v 0.129498 -0.129498 0.270387
v -0.029163 -0.029163 0.531885
v -0.041243 0 0.531885
v 0 -0.083912 0.500837
v -0.059335 -0.059334 0.500837
v -0.083912 0 0.500837
v 0 -0.140193 0.424365
v -0.099131 -0.099131 0.424365
v -0.140193 0 0.424365
v 0 -0.183137 0.340374
v -0.129498 -0.129498 0.270387
v -0.183138 0 0.340374
v 0 -0.176585 0.337913
v 0.124822 -0.124822 0.26809
v -0.124822 -0.124822 0.26809
v -0.176585 0 0.337913
v -0.124822 0.124822 0.26809
v 0.183138 0 0.340374
v -0.129498 0.129498 0.270387
v 0.176585 0 0.337913
v 0 0.176585 0.337913
v 0.129498 0.129498 0.270387
v 0.140193 0 0.424365
v 0.124822 0.124822 0.26809
v 0 0.183138 0.340374
v 0.099131 0.099131 0.424365
v 0.083912 0 0.500837
v 0 0.140193 0.424365
v 0.059335 0.059335 0.500837
v 0.041243 0 0.531885
v -0.099131 0.099131 0.424365
v -0.183138 0 0.340374
v -0.140193 0 0.424365
v 0 0.083912 0.500837
v 0.029163 0.029164 0.531885
v 0 0 0.540089
v -0.059335 0.059335 0.500837
v -0.083912 0 0.500837
v 0 0.041243 0.531885
v -0.029163 0.029164 0.531885
v -0.041243 0 0.531885
vt 0.347505 0.757699
vt 0.348048 0.875944
vt 0.394422 0.757699
vt 0.314713 0.875944
vt 0.234235 0.757699
vt 0.302357 0.943375
vt 0.234235 0.875944
vt 0.120966 0.757699
vt 0.282405 0.943375
vt 0.267718 0.970753
vt 0.153758 0.875944
vt 0.074048 0.757699
vt 0.120423 0.875944
vt 0.234235 0.943375
vt 0.257911 0.970753
vt 0.234235 0.977987
vt 0.186066 0.943375
vt 0.166113 0.943375
vt 0.234235 0.970753
vt 0.21056 0.970753
vt 0.200753 0.970753
vt 0.120966 0.757699
vt 0.120423 0.875944
vt 0.074048 0.757699
vt 0.153758 0.875944
vt 0.234235 0.757699
vt 0.166113 0.943375
vt 0.234235 0.875944
vt 0.347505 0.757699
vt 0.186066 0.943375
vt 0.200753 0.970753
vt 0.314713 0.875944
vt 0.394422 0.757699
vt 0.348048 0.875944
vt 0.234235 0.943375
vt 0.21056 0.970753
vt 0.234235 0.977987
vt 0.282405 0.943375
vt 0.302357 0.943375
vt 0.234235 0.970753
vt 0.257911 0.970753
vt 0.267718 0.970753
vt 0.267718 0.970753
vt 0.257911 0.970753
vt 0.234235 0.977987
vt 0.302357 0.943375
vt 0.282405 0.943375
vt 0.348048 0.875944
vt 0.234235 0.970753
vt 0.314713 0.875944
vt 0.394422 0.757699
vt 0.347505 0.757699
vt 0.21056 0.970753
vt 0.200753 0.970753
vt 0.234235 0.943375
vt 0.186066 0.943375
vt 0.166113 0.943375
vt 0.234235 0.875944
vt 0.153758 0.875944
vt 0.120423 0.875944
vt 0.234235 0.757699
vt 0.120966 0.757699
vt 0.074048 0.757699
vt 0.234235 0.757699
vt 0.347505 0.757699
vt 0.120966 0.757699
vt 0.074048 0.757699
vt 0.120966 0.757699
vt 0.394422 0.757699
vt 0.120966 0.757699
vt 0.394422 0.757699
vt 0.234235 0.757699
vt 0.347505 0.757699
vt 0.348048 0.875944
vt 0.347505 0.757699
vt 0.234235 0.757699
vt 0.314713 0.875944
vt 0.302357 0.943375
vt 0.234235 0.875944
vt 0.282405 0.943375
vt 0.267718 0.970753
vt 0.153758 0.875944
vt 0.074048 0.757699
vt 0.120423 0.875944
vt 0.234235 0.943375
vt 0.257911 0.970753
vt 0.234235 0.977987
vt 0.186066 0.943375
vt 0.166113 0.943375
vt 0.234235 0.970753
vt 0.21056 0.970753
vt 0.200753 0.970753
vn -0.6419694 -0.6419694 -0.4192263
vn -0.9054866 0 -0.4243749
vn -0.9043368 0 -0.4268197
vn -0.6462138 -0.6462139 -0.4059745
vn 0 -0.9043368 -0.4268196
vn -0.7730317 0 -0.6343675
vn 0 -0.9054866 -0.4243749
vn 0.6419694 -0.6419694 -0.4192263
vn -0.5465972 -0.5465971 -0.6343999
vn -0.5400771 0 -0.8416155
vn 0.6462139 -0.6462138 -0.4059745
vn 0.9043368 0 -0.4268197
vn 0.9054866 0 -0.4243749
vn 0 -0.7730317 -0.6343674
vn -0.3818913 -0.3818912 -0.8416164
vn 0 0 -1
vn 0.5465971 -0.5465971 -0.6344
vn 0.7730317 0 -0.6343675
vn 0 -0.5400771 -0.8416155
vn 0.3818913 -0.3818913 -0.8416163
vn 0.5400771 0 -0.8416155
vn 0.6419692 0.6419712 -0.4192236
vn 0.9054866 0 -0.4243749
vn 0.9043368 0 -0.4268197
vn 0.6462138 0.6462138 -0.4059745
vn 0 0.9043386 -0.4268157
vn 0.7730317 0 -0.6343675
vn 0 0.9054866 -0.4243749
vn -0.6419692 0.6419712 -0.4192235
vn 0.5465965 0.5465971 -0.6344004
vn 0.5400771 0 -0.8416155
vn -0.6462138 0.6462139 -0.4059745
vn -0.9043368 0 -0.4268197
vn -0.9054866 0 -0.4243749
vn 0 0.7730312 -0.6343681
vn 0.3818876 0.3818929 -0.8416173
vn 0 0 -1
vn -0.5465965 0.5465971 -0.6344004
vn -0.7730317 0 -0.6343675
vn 0 0.5400746 -0.8416172
vn -0.3818876 0.3818929 -0.8416173
vn -0.5400771 0 -0.8416155
vn 0.5386876 0 0.8425056
vn 0.38091 -0.3809122 0.8425043
vn 0 0 1
vn 0.7720588 0 0.6355509
vn 0.5459295 -0.545927 0.6355508
vn 0.904928 0 0.4255647
vn 0 -0.5386897 0.8425043
vn 0.6456034 -0.645606 0.4079084
vn 0.9494098 0 0.3140397
vn 0.6838515 -0.6838519 0.2543495
vn -0.3809101 -0.3809122 0.8425043
vn -0.5386876 0 0.8425056
vn 0 -0.7720575 0.6355528
vn -0.5459295 -0.5459269 0.6355508
vn -0.7720588 0 0.6355509
vn 0 -0.9049286 0.4255636
vn -0.6456034 -0.645606 0.4079085
vn -0.904928 0 0.4255647
vn 0 -0.9494102 0.3140386
vn -0.6838515 -0.6838519 0.2543495
vn -0.9494099 0 0.3140397
vn 0 0.9043386 -0.4268157
vn -0.6419692 0.6419712 -0.4192235
vn 0.6419692 0.6419712 -0.4192236
vn 0.9043368 0 -0.4268197
vn 0.6419694 -0.6419694 -0.4192263
vn 0.9494098 0 0.3140397
vn -0.6838518 0.6838519 0.2543485
vn -0.9043368 0 -0.4268197
vn 0 -0.9043368 -0.4268196
vn 0.6838519 0.6838519 0.2543486
vn 0.904928 0 0.4255647
vn -0.6419694 -0.6419694 -0.4192263
vn 0 0.9494098 0.3140397
vn 0.6456046 0.6456046 0.4079086
vn 0.7720588 0 0.6355509
vn 0 0.9049281 0.4255646
vn 0.5459292 0.5459285 0.6355496
vn 0.5386876 0 0.8425056
vn -0.6456046 0.6456046 0.4079086
vn -0.9494099 0 0.3140397
vn -0.904928 0 0.4255647
vn 0 0.7720602 0.6355494
vn 0.3809083 0.3809115 0.8425054
vn 0 0 1
vn -0.5459292 0.5459285 0.6355496
vn -0.7720588 0 0.6355509
vn 0 0.5386906 0.8425037
vn -0.3809083 0.3809115 0.8425054
vn -0.5386876 0 0.8425056
g CassowaryEggBroken_001_0
f 3/3/3 2/2/2 1/1/1
f 2/2/2 4/4/4 1/1/1
f 1/1/1 4/4/4 5/5/5
f 2/2/2 6/6/6 4/4/4
f 4/4/4 7/7/7 5/5/5
f 5/5/5 7/7/7 8/8/8
f 6/6/6 9/9/9 4/4/4
f 4/4/4 9/9/9 7/7/7
f 6/6/6 10/10/10 9/9/9
f 7/7/7 11/11/11 8/8/8
f 8/8/8 11/11/11 12/12/12
f 11/11/11 13/13/13 12/12/12
f 9/9/9 14/14/14 7/7/7
f 7/7/7 14/14/14 11/11/11
f 10/10/10 15/15/15 9/9/9
f 9/9/9 15/15/15 14/14/14
f 10/10/10 16/16/16 15/15/15
f 11/11/11 17/17/17 13/13/13
f 14/14/14 17/17/17 11/11/11
f 17/17/17 18/18/18 13/13/13
f 15/15/15 19/19/19 14/14/14
f 15/15/15 16/16/16 19/19/19
f 14/14/14 19/19/19 17/17/17
f 17/17/17 20/20/20 18/18/18
f 19/19/19 20/20/20 17/17/17
f 19/19/19 16/16/16 20/20/20
f 20/20/20 21/21/21 18/18/18
f 20/20/20 16/16/16 21/21/21
f 24/24/24 23/23/23 22/22/22
f 23/23/23 25/25/25 22/22/22
f 22/22/22 25/25/25 26/26/26
f 23/23/23 27/27/27 25/25/25
f 25/25/25 28/28/28 26/26/26
f 26/26/26 28/28/28 29/29/29
f 27/27/27 30/30/30 25/25/25
f 25/25/25 30/30/30 28/28/28
f 27/27/27 31/31/31 30/30/30
f 28/28/28 32/32/32 29/29/29
f 29/29/29 32/32/32 33/33/33
f 32/32/32 34/34/34 33/33/33
f 30/30/30 35/35/35 28/28/28
f 28/28/28 35/35/35 32/32/32
f 31/31/31 36/36/36 30/30/30
f 30/30/30 36/36/36 35/35/35
f 31/31/31 37/37/37 36/36/36
f 32/32/32 38/38/38 34/34/34
f 35/35/35 38/38/38 32/32/32
f 38/38/38 39/39/39 34/34/34
f 36/36/36 40/40/40 35/35/35
f 36/36/36 37/37/37 40/40/40
f 35/35/35 40/40/40 38/38/38
f 38/38/38 41/41/41 39/39/39
f 40/40/40 41/41/41 38/38/38
f 40/40/40 37/37/37 41/41/41
f 41/41/41 42/42/42 39/39/39
f 41/41/41 37/37/37 42/42/42
f 45/45/45 44/44/44 43/43/43
f 43/43/43 44/44/44 46/46/46
f 44/44/44 47/47/47 46/46/46
f 46/46/46 47/47/47 48/48/48
f 45/45/45 49/49/49 44/44/44
f 44/44/44 49/49/49 47/47/47
f 47/47/47 50/50/50 48/48/48
f 48/48/48 50/50/50 51/51/51
f 50/50/50 52/52/52 51/51/51
f 45/45/45 53/53/53 49/49/49
f 45/45/45 54/54/54 53/53/53
f 49/49/49 55/55/55 47/47/47
f 47/47/47 55/55/55 50/50/50
f 49/49/49 53/53/53 55/55/55
f 53/53/53 54/54/54 56/56/56
f 53/53/53 56/56/56 55/55/55
f 54/54/54 57/57/57 56/56/56
f 55/55/55 58/58/58 50/50/50
f 55/55/55 56/56/56 58/58/58
f 50/50/50 58/58/58 52/52/52
f 56/56/56 57/57/57 59/59/59
f 56/56/56 59/59/59 58/58/58
f 57/57/57 60/60/60 59/59/59
f 58/58/58 59/59/59 61/61/61
f 58/58/58 61/61/61 52/52/52
f 59/59/59 60/60/60 62/62/62
f 59/59/59 62/62/62 61/61/61
f 60/60/60 63/63/63 62/62/62
f 61/61/61 64/64/64 52/52/52
f 64/64/64 65/65/65 52/52/52
f 66/66/66 64/64/64 61/61/61
f 62/62/62 66/66/66 61/61/61
f 67/67/67 66/66/66 62/62/62
f 63/63/63 67/67/67 62/62/62
f 68/68/68 67/67/67 63/63/63
f 52/52/52 65/65/65 69/69/69
f 70/70/70 68/68/68 63/63/63
f 65/65/65 71/71/71 69/69/69
f 72/72/72 68/68/68 70/70/70
f 69/69/69 71/71/71 73/73/73
f 74/74/74 69/69/69 73/73/73
f 71/71/71 75/75/75 73/73/73
f 75/75/75 72/72/72 76/76/76
f 73/73/73 75/75/75 76/76/76
f 76/76/76 72/72/72 70/70/70
f 77/77/77 74/74/74 73/73/73
f 77/77/77 73/73/73 76/76/76
f 78/78/78 74/74/74 77/77/77
f 79/79/79 76/76/76 70/70/70
f 79/79/79 77/77/77 76/76/76
f 80/80/80 78/78/78 77/77/77
f 80/80/80 77/77/77 79/79/79
f 81/81/81 78/78/78 80/80/80
f 82/82/82 79/79/79 70/70/70
f 82/82/82 70/70/70 83/83/83
f 84/84/84 82/82/82 83/83/83
f 85/85/85 80/80/80 79/79/79
f 85/85/85 79/79/79 82/82/82
f 86/86/86 81/81/81 80/80/80
f 86/86/86 80/80/80 85/85/85
f 87/87/87 81/81/81 86/86/86
f 88/88/88 82/82/82 84/84/84
f 88/88/88 85/85/85 82/82/82
f 89/89/89 88/88/88 84/84/84
f 90/90/90 86/86/86 85/85/85
f 87/87/87 86/86/86 90/90/90
f 90/90/90 85/85/85 88/88/88
f 91/91/91 88/88/88 89/89/89
f 91/91/91 90/90/90 88/88/88
f 87/87/87 90/90/90 91/91/91
f 92/92/92 91/91/91 89/89/89
f 87/87/87 91/91/91 92/92/92
