g CelebrationBalloon_Green
v -0.039601 0.012867 0.016337
v -0.106872 0.034725 -0.11273
v -0.066051 0.09091 -0.11273
v -0.024475 0.033686 0.016337
v 0 0.112372 -0.11273
v -0.084251 0.027374 0.050302
v 0 0.041638 0.016337
v 0.066051 0.09091 -0.11273
v -0.05207 0.071668 0.050302
v 0.024475 0.033686 0.016337
v 0.106872 0.034725 -0.11273
v -0.192623 0.265123 0.17776
v -0.311671 0.101268 0.17776
v 0 0.088586 0.050302
v 0.039601 0.012867 0.016337
v 0.106872 -0.034725 -0.11273
v 0.039601 -0.012867 0.016337
v 0.05207 0.071668 0.050302
v 0.084251 0.027374 0.050302
v 0.084251 -0.027375 0.050302
v 0.311671 -0.101268 0.17776
v 0.311671 0.101268 0.17776
v 0.449266 -0.145976 0.35826
v 0 0.32771 0.17776
v 0.192623 0.265123 0.17776
v 0.449266 0.145975 0.35826
v 0.553981 -0.18 0.596039
v 0.277661 0.382168 0.35826
v 0.553981 0.179999 0.596039
v 0.596809 -0.193915 0.843374
v 0 0.472386 0.35826
v 0.342379 0.471244 0.596039
v 0.596809 0.193915 0.843374
v 0.568165 -0.184608 1.055619
v -0.277661 0.382168 0.35826
v -0.449266 0.145975 0.35826
v 0 0.58249 0.596039
v -0.342379 0.471245 0.596039
v -0.553981 0.179999 0.596039
v 0.368848 0.507676 0.843374
v 0.568165 0.184608 1.055619
v 0.48331 -0.157037 1.23133
v -0.368849 0.507676 0.843374
v -0.596809 0.193915 0.843374
v 0 0.627522 0.843374
v 0.351145 0.48331 1.055619
v 0.48331 0.157037 1.23133
v 0.351145 -0.114094 1.370296
v -0.351145 0.483309 1.055619
v -0.568165 0.184608 1.055619
v 0 0.597403 1.055619
v 0.298702 0.411128 1.23133
v 0.351145 0.114094 1.370296
v 0.184608 -0.059983 1.459517
v -0.298702 0.411128 1.23133
v -0.48331 0.157037 1.23133
v 0 0.508182 1.23133
v 0.21702 0.298702 1.370296
v 0.184608 0.059982 1.459517
v 0 0 1.490261
v -0.21702 0.298702 1.370296
v -0.351145 0.114094 1.370296
v 0 0.369216 1.370296
v 0.114094 0.157037 1.459517
v 0 0.194108 1.459517
v -0.114094 0.157037 1.459517
v -0.184608 0.059982 1.459517
v -0.184608 -0.059983 1.459517
v 0.039601 -0.012867 0.016337
v 0.106872 -0.034725 -0.11273
v 0.066051 -0.090911 -0.11273
v 0.024475 -0.033687 0.016337
v 0 -0.112372 -0.11273
v 0.084251 -0.027375 0.050302
v 0 -0.041639 0.016337
v -0.066051 -0.090911 -0.11273
v 0.05207 -0.071668 0.050302
v -0.024475 -0.033687 0.016337
v -0.106872 -0.034725 -0.11273
v 0.192623 -0.265124 0.17776
v 0.311671 -0.101268 0.17776
v 0 -0.088587 0.050302
v -0.039601 -0.012867 0.016337
v -0.106872 0.034725 -0.11273
v -0.039601 0.012867 0.016337
v -0.05207 -0.071668 0.050302
v -0.084251 -0.027375 0.050302
v -0.084251 0.027374 0.050302
v -0.311671 0.101268 0.17776
v -0.311671 -0.101268 0.17776
v -0.449266 0.145975 0.35826
v 0 -0.327711 0.17776
v -0.192623 -0.265124 0.17776
v -0.449266 -0.145976 0.35826
v -0.553981 0.179999 0.596039
v -0.277661 -0.382168 0.35826
v -0.553981 -0.18 0.596039
v -0.596809 0.193915 0.843374
v 0 -0.472386 0.35826
v -0.342379 -0.471245 0.596039
v -0.596809 -0.193916 0.843374
v -0.568165 0.184608 1.055619
v 0.277661 -0.382168 0.35826
v 0.449266 -0.145976 0.35826
v 0 -0.582491 0.596039
v 0.342379 -0.471245 0.596039
v 0.553981 -0.18 0.596039
v -0.368848 -0.507677 0.843374
v -0.568165 -0.184608 1.055619
v -0.48331 0.157037 1.23133
v 0.368848 -0.507677 0.843374
v 0.596809 -0.193915 0.843374
v 0 -0.627523 0.843374
v -0.351145 -0.48331 1.055619
v -0.48331 -0.157037 1.23133
v -0.351145 0.114094 1.370296
v 0.351145 -0.48331 1.055619
v 0.568165 -0.184608 1.055619
v 0 -0.597404 1.055619
v -0.298702 -0.411128 1.23133
v -0.351145 -0.114094 1.370296
v -0.184608 0.059982 1.459517
v -0.184608 -0.059983 1.459517
v 0.298702 -0.411128 1.23133
v 0.48331 -0.157037 1.23133
v 0 -0.508182 1.23133
v -0.21702 -0.298702 1.370296
v 0.21702 -0.298702 1.370296
v 0.351145 -0.114094 1.370296
v 0 -0.369216 1.370296
v -0.114094 -0.157037 1.459517
v 0 0 1.490261
v 0 -0.194109 1.459517
v 0.114094 -0.157037 1.459517
v 0.184608 -0.059983 1.459517
v 0 0 -0.063231
v 0.106872 -0.034725 -0.11273
v 0.106872 0.034725 -0.11273
v 0.066051 0.09091 -0.11273
v 0 0.112372 -0.11273
v -0.066051 0.09091 -0.11273
v -0.106872 0.034725 -0.11273
v -0.106872 -0.034725 -0.11273
v 0 0 -0.063231
v 0.066051 -0.090911 -0.11273
v 0.106872 -0.034725 -0.11273
v 0 -0.112372 -0.11273
v -0.066051 -0.090911 -0.11273
v -0.106872 -0.034725 -0.11273
vt 0.112779 0.781663
vt 0.103072 0.763039
vt 0.108963 0.763039
vt 0.114962 0.781663
vt 0.118493 0.763039
vt 0.106336 0.786565
vt 0.118493 0.781663
vt 0.128024 0.763039
vt 0.11098 0.786565
vt 0.122025 0.781663
vt 0.133915 0.763039
vt 0.090699 0.804956
vt 0.07352 0.804956
vt 0.118493 0.786565
vt 0.124208 0.781663
vt 0.133915 0.763039
vt 0.124208 0.781663
vt 0.126007 0.786565
vt 0.130651 0.786565
vt 0.130651 0.786565
vt 0.163466 0.804956
vt 0.163466 0.804956
vt 0.183321 0.831002
vt 0.118493 0.804956
vt 0.146288 0.804956
vt 0.183321 0.831002
vt 0.198431 0.865312
vt 0.158559 0.831002
vt 0.198431 0.865312
vt 0.204611 0.901002
vt 0.118493 0.831002
vt 0.167897 0.865312
vt 0.204611 0.901002
vt 0.200478 0.931628
vt 0.078428 0.831002
vt 0.053666 0.831002
vt 0.118493 0.865312
vt 0.069089 0.865312
vt 0.038556 0.865312
vt 0.171717 0.901002
vt 0.200478 0.931628
vt 0.188234 0.956983
vt 0.06527 0.901002
vt 0.032376 0.901002
vt 0.118493 0.901002
vt 0.169162 0.931628
vt 0.188234 0.956983
vt 0.169162 0.977035
vt 0.067824 0.931628
vt 0.036509 0.931628
vt 0.118493 0.931628
vt 0.161595 0.956983
vt 0.169162 0.977035
vt 0.145132 0.989909
vt 0.075392 0.956983
vt 0.048753 0.956983
vt 0.118493 0.956983
vt 0.149809 0.977035
vt 0.145132 0.989909
vt 0.118493 0.994346
vt 0.087178 0.977035
vt 0.067824 0.977035
vt 0.118493 0.977035
vt 0.134957 0.989909
vt 0.118493 0.989909
vt 0.10203 0.989909
vt 0.091855 0.989909
vt 0.091855 0.989909
vt 0.124208 0.781663
vt 0.133915 0.763039
vt 0.128024 0.763039
vt 0.122025 0.781663
vt 0.118493 0.763039
vt 0.130651 0.786565
vt 0.118493 0.781663
vt 0.108963 0.763039
vt 0.126007 0.786565
vt 0.114962 0.781663
vt 0.103072 0.763039
vt 0.146288 0.804956
vt 0.163466 0.804956
vt 0.118493 0.786565
vt 0.112779 0.781663
vt 0.103072 0.763039
vt 0.112779 0.781663
vt 0.11098 0.786565
vt 0.106336 0.786565
vt 0.106336 0.786565
vt 0.07352 0.804956
vt 0.07352 0.804956
vt 0.053666 0.831002
vt 0.118493 0.804956
vt 0.090699 0.804956
vt 0.053666 0.831002
vt 0.038556 0.865312
vt 0.078428 0.831002
vt 0.038556 0.865312
vt 0.032376 0.901002
vt 0.118493 0.831002
vt 0.069089 0.865312
vt 0.032376 0.901002
vt 0.036509 0.931628
vt 0.158559 0.831002
vt 0.183321 0.831002
vt 0.118493 0.865312
vt 0.167897 0.865312
vt 0.198431 0.865312
vt 0.06527 0.901002
vt 0.036509 0.931628
vt 0.048753 0.956983
vt 0.171717 0.901002
vt 0.204611 0.901002
vt 0.118493 0.901002
vt 0.067824 0.931628
vt 0.048753 0.956983
vt 0.067824 0.977035
vt 0.169162 0.931628
vt 0.200478 0.931628
vt 0.118493 0.931628
vt 0.075392 0.956983
vt 0.067824 0.977035
vt 0.091855 0.989909
vt 0.091855 0.989909
vt 0.161595 0.956983
vt 0.188234 0.956983
vt 0.118493 0.956983
vt 0.087178 0.977035
vt 0.149809 0.977035
vt 0.169162 0.977035
vt 0.118493 0.977035
vt 0.10203 0.989909
vt 0.118493 0.994346
vt 0.118493 0.989909
vt 0.134957 0.989909
vt 0.145132 0.989909
vt 0.118493 0.770182
vt 0.133915 0.763039
vt 0.133915 0.763039
vt 0.128024 0.763039
vt 0.118493 0.763039
vt 0.108963 0.763039
vt 0.103072 0.763039
vt 0.103072 0.763039
vt 0.118493 0.770182
vt 0.128024 0.763039
vt 0.133915 0.763039
vt 0.118493 0.763039
vt 0.108963 0.763039
vt 0.103072 0.763039
vn -0.9360948 0.3041547 0.1766818
vn -0.8340228 0.2709894 0.4805941
vn -0.5154513 0.7094635 0.480595
vn -0.5785345 0.7962923 0.1766818
vn 0 0.8769417 0.4805966
vn -0.4525514 0.1470426 -0.8795316
vn 0 0.9842672 0.1766866
vn 0.5154513 0.7094636 0.480595
vn -0.2796916 0.384963 -0.8795317
vn 0.5785344 0.7962924 0.1766818
vn 0.8340228 0.2709895 0.4805941
vn -0.4095197 0.5636557 -0.7173465
vn -0.6626167 0.2152981 -0.7173465
vn 0 0.4758407 -0.8795315
vn 0.9360948 0.3041547 0.1766818
vn 0.834024 -0.2709871 0.4805934
vn 0.9360957 -0.3041504 0.1766844
vn 0.2796916 0.384963 -0.8795317
vn 0.4525514 0.1470426 -0.8795316
vn 0.4525511 -0.1470433 -0.8795316
vn 0.6626167 -0.2152975 -0.7173466
vn 0.6626166 0.2152981 -0.7173465
vn 0.8260349 -0.2683959 -0.4956108
vn 0 0.6967165 -0.7173466
vn 0.4095198 0.5636557 -0.7173464
vn 0.8260352 0.2683955 -0.4956104
vn 0.9104957 -0.2958385 -0.2889241
vn 0.5105179 0.7026677 -0.4956103
vn 0.9104958 0.2958382 -0.2889242
vn 0.9506049 -0.30887 -0.03081596
vn 0 0.8685447 -0.4956109
vn 0.5627177 0.7745137 -0.2889244
vn 0.9506047 0.3088706 -0.03081659
vn 0.913994 -0.2969748 0.2764437
vn -0.5105178 0.7026672 -0.4956111
vn -0.8260351 0.2683954 -0.4956107
vn 0 0.957352 -0.2889244
vn -0.562717 0.7745141 -0.2889248
vn -0.9104959 0.2958375 -0.2889246
vn 0.5875059 0.808633 -0.03081623
vn 0.913994 0.2969749 0.2764434
vn 0.7898049 -0.2566232 0.5570931
vn -0.5875065 0.8086327 -0.03081465
vn -0.950605 0.3088698 -0.03081601
vn 0 0.9995251 -0.03081471
vn 0.5648788 0.7774903 0.2764435
vn 0.7898049 0.2566232 0.5570931
vn 0.6027197 -0.1958351 0.7735487
vn -0.5648787 0.7774898 0.2764443
vn -0.913994 0.2969746 0.2764439
vn 0 0.96103 0.2764439
vn 0.4881262 0.6718488 0.5570924
vn 0.6027195 0.1958351 0.7735488
vn 0.3808315 -0.1237396 0.9163273
vn -0.4881264 0.6718495 0.5570914
vn -0.7898051 0.2566234 0.5570928
vn 0 0.8304513 0.5570914
vn 0.3725014 0.5127037 0.7735488
vn 0.3808315 0.1237389 0.9163275
vn 0 0 1
vn -0.3725014 0.5127036 0.7735488
vn -0.6027195 0.1958352 0.7735488
vn 0 0.6337371 0.7735485
vn 0.2353666 0.323954 0.9163277
vn 0 0.4004294 0.9163276
vn -0.2353666 0.323954 0.9163277
vn -0.3808316 0.1237389 0.9163274
vn -0.3808316 -0.1237396 0.9163273
vn 0.9360957 -0.3041504 0.1766844
vn 0.834024 -0.2709871 0.4805934
vn 0.5154545 -0.7094611 0.480595
vn 0.5785385 -0.796289 0.1766832
vn 0 -0.8769438 0.4805928
vn 0.4525511 -0.1470433 -0.8795316
vn 0 -0.9842678 0.1766837
vn -0.5154545 -0.709461 0.4805951
vn 0.2796927 -0.3849622 -0.8795317
vn -0.5785385 -0.796289 0.1766832
vn -0.834024 -0.270987 0.4805934
vn 0.4095201 -0.5636562 -0.7173458
vn 0.6626167 -0.2152975 -0.7173466
vn 0 -0.4758395 -0.8795321
vn -0.9360957 -0.3041503 0.1766845
vn -0.8340228 0.2709894 0.4805941
vn -0.9360948 0.3041547 0.1766818
vn -0.2796927 -0.3849622 -0.8795317
vn -0.4525512 -0.1470433 -0.8795316
vn -0.4525514 0.1470426 -0.8795316
vn -0.6626167 0.2152981 -0.7173465
vn -0.6626167 -0.2152975 -0.7173467
vn -0.8260351 0.2683954 -0.4956107
vn 0 -0.6967175 -0.7173455
vn -0.4095201 -0.5636562 -0.7173457
vn -0.8260349 -0.2683959 -0.4956108
vn -0.9104959 0.2958375 -0.2889246
vn -0.5105177 -0.7026674 -0.495611
vn -0.9104957 -0.2958381 -0.2889244
vn -0.950605 0.3088698 -0.03081601
vn 0 -0.8685445 -0.4956112
vn -0.5627171 -0.7745137 -0.2889253
vn -0.9506047 -0.3088708 -0.03081596
vn -0.913994 0.2969746 0.2764439
vn 0.5105177 -0.7026674 -0.495611
vn 0.8260349 -0.2683959 -0.4956108
vn 0 -0.9573514 -0.2889259
vn 0.5627174 -0.7745137 -0.288925
vn 0.9104957 -0.2958385 -0.2889241
vn -0.5875058 -0.808633 -0.03081508
vn -0.913994 -0.2969743 0.2764441
vn -0.7898051 0.2566234 0.5570928
vn 0.5875062 -0.8086327 -0.03081509
vn 0.9506049 -0.30887 -0.03081596
vn 0 -0.9995251 -0.03081476
vn -0.5648792 -0.7774893 0.2764453
vn -0.7898049 -0.2566232 0.5570931
vn -0.6027195 0.1958352 0.7735488
vn 0.5648795 -0.7774892 0.2764449
vn 0.913994 -0.2969748 0.2764437
vn 0 -0.9610295 0.2764459
vn -0.4881263 -0.6718483 0.5570929
vn -0.6027197 -0.1958351 0.7735487
vn -0.3808316 0.1237389 0.9163274
vn -0.3808316 -0.1237396 0.9163273
vn 0.4881263 -0.6718483 0.557093
vn 0.7898049 -0.2566232 0.5570931
vn 0 -0.8304501 0.557093
vn -0.3725016 -0.512704 0.7735485
vn 0.3725016 -0.512704 0.7735485
vn 0.6027197 -0.1958351 0.7735487
vn 0 -0.6337373 0.7735482
vn -0.235367 -0.3239543 0.9163275
vn 0 0 1
vn 0 -0.4004301 0.9163273
vn 0.235367 -0.3239543 0.9163275
vn 0.3808315 -0.1237396 0.9163273
vn 0 0 -1
vn -0.3833867 0.1245685 -0.9151488
vn -0.3833866 -0.1245691 -0.9151488
vn -0.2369466 -0.3261287 -0.9151483
vn 0 -0.403116 -0.9151489
vn 0.2369466 -0.3261287 -0.9151483
vn 0.3833866 -0.1245691 -0.9151488
vn 0.3833867 0.1245685 -0.9151488
vn 0 0 -1
vn -0.236945 0.3261269 -0.9151494
vn -0.3833867 0.1245685 -0.9151488
vn 0 0.403116 -0.9151489
vn 0.236945 0.3261269 -0.9151494
vn 0.3833867 0.1245685 -0.9151488
g CelebrationBalloon_Green_0
f 3/3/3 2/2/2 1/1/1
f 4/4/4 3/3/3 1/1/1
f 5/5/5 3/3/3 4/4/4
f 4/4/4 1/1/1 6/6/6
f 7/7/7 5/5/5 4/4/4
f 8/8/8 5/5/5 7/7/7
f 9/9/9 4/4/4 6/6/6
f 7/7/7 4/4/4 9/9/9
f 10/10/10 8/8/8 7/7/7
f 11/11/11 8/8/8 10/10/10
f 12/12/12 9/9/9 6/6/6
f 13/13/13 12/12/12 6/6/6
f 14/14/14 7/7/7 9/9/9
f 10/10/10 7/7/7 14/14/14
f 15/15/15 11/11/11 10/10/10
f 16/16/16 11/11/11 15/15/15
f 17/17/17 16/16/16 15/15/15
f 15/15/15 10/10/10 18/18/18
f 18/18/18 10/10/10 14/14/14
f 17/17/17 15/15/15 19/19/19
f 19/19/19 15/15/15 18/18/18
f 20/20/20 17/17/17 19/19/19
f 21/21/21 20/20/20 19/19/19
f 22/22/22 21/21/21 19/19/19
f 22/22/22 19/19/19 18/18/18
f 23/23/23 21/21/21 22/22/22
f 24/24/24 14/14/14 9/9/9
f 12/12/12 24/24/24 9/9/9
f 25/25/25 18/18/18 14/14/14
f 25/25/25 22/22/22 18/18/18
f 24/24/24 25/25/25 14/14/14
f 26/26/26 23/23/23 22/22/22
f 26/26/26 22/22/22 25/25/25
f 27/27/27 23/23/23 26/26/26
f 28/28/28 25/25/25 24/24/24
f 28/28/28 26/26/26 25/25/25
f 29/29/29 27/27/27 26/26/26
f 29/29/29 26/26/26 28/28/28
f 30/30/30 27/27/27 29/29/29
f 31/31/31 24/24/24 12/12/12
f 31/31/31 28/28/28 24/24/24
f 32/32/32 29/29/29 28/28/28
f 32/32/32 28/28/28 31/31/31
f 33/33/33 30/30/30 29/29/29
f 33/33/33 29/29/29 32/32/32
f 34/34/34 30/30/30 33/33/33
f 35/35/35 31/31/31 12/12/12
f 35/35/35 12/12/12 13/13/13
f 36/36/36 35/35/35 13/13/13
f 37/37/37 32/32/32 31/31/31
f 37/37/37 31/31/31 35/35/35
f 38/38/38 35/35/35 36/36/36
f 38/38/38 37/37/37 35/35/35
f 39/39/39 38/38/38 36/36/36
f 40/40/40 33/33/33 32/32/32
f 40/40/40 32/32/32 37/37/37
f 41/41/41 34/34/34 33/33/33
f 41/41/41 33/33/33 40/40/40
f 42/42/42 34/34/34 41/41/41
f 43/43/43 38/38/38 39/39/39
f 44/44/44 43/43/43 39/39/39
f 45/45/45 37/37/37 38/38/38
f 45/45/45 40/40/40 37/37/37
f 43/43/43 45/45/45 38/38/38
f 46/46/46 41/41/41 40/40/40
f 46/46/46 40/40/40 45/45/45
f 47/47/47 42/42/42 41/41/41
f 47/47/47 41/41/41 46/46/46
f 48/48/48 42/42/42 47/47/47
f 49/49/49 43/43/43 44/44/44
f 50/50/50 49/49/49 44/44/44
f 51/51/51 45/45/45 43/43/43
f 51/51/51 46/46/46 45/45/45
f 49/49/49 51/51/51 43/43/43
f 52/52/52 47/47/47 46/46/46
f 52/52/52 46/46/46 51/51/51
f 53/53/53 48/48/48 47/47/47
f 53/53/53 47/47/47 52/52/52
f 54/54/54 48/48/48 53/53/53
f 55/55/55 49/49/49 50/50/50
f 56/56/56 55/55/55 50/50/50
f 57/57/57 51/51/51 49/49/49
f 57/57/57 52/52/52 51/51/51
f 55/55/55 57/57/57 49/49/49
f 58/58/58 53/53/53 52/52/52
f 58/58/58 52/52/52 57/57/57
f 59/59/59 54/54/54 53/53/53
f 59/59/59 53/53/53 58/58/58
f 60/60/60 54/54/54 59/59/59
f 61/61/61 55/55/55 56/56/56
f 62/62/62 61/61/61 56/56/56
f 63/63/63 57/57/57 55/55/55
f 63/63/63 58/58/58 57/57/57
f 61/61/61 63/63/63 55/55/55
f 64/64/64 59/59/59 58/58/58
f 64/64/64 58/58/58 63/63/63
f 60/60/60 59/59/59 64/64/64
f 65/65/65 64/64/64 63/63/63
f 65/65/65 63/63/63 61/61/61
f 60/60/60 64/64/64 65/65/65
f 66/66/66 61/61/61 62/62/62
f 66/66/66 65/65/65 61/61/61
f 60/60/60 65/65/65 66/66/66
f 67/67/67 66/66/66 62/62/62
f 60/60/60 66/66/66 67/67/67
f 60/60/60 67/67/67 68/68/68
f 71/71/71 70/70/70 69/69/69
f 72/72/72 71/71/71 69/69/69
f 73/73/73 71/71/71 72/72/72
f 72/72/72 69/69/69 74/74/74
f 75/75/75 73/73/73 72/72/72
f 76/76/76 73/73/73 75/75/75
f 77/77/77 72/72/72 74/74/74
f 75/75/75 72/72/72 77/77/77
f 78/78/78 76/76/76 75/75/75
f 79/79/79 76/76/76 78/78/78
f 80/80/80 77/77/77 74/74/74
f 81/81/81 80/80/80 74/74/74
f 82/82/82 75/75/75 77/77/77
f 78/78/78 75/75/75 82/82/82
f 83/83/83 79/79/79 78/78/78
f 84/84/84 79/79/79 83/83/83
f 85/85/85 84/84/84 83/83/83
f 83/83/83 78/78/78 86/86/86
f 86/86/86 78/78/78 82/82/82
f 85/85/85 83/83/83 87/87/87
f 87/87/87 83/83/83 86/86/86
f 88/88/88 85/85/85 87/87/87
f 89/89/89 88/88/88 87/87/87
f 90/90/90 89/89/89 87/87/87
f 90/90/90 87/87/87 86/86/86
f 91/91/91 89/89/89 90/90/90
f 92/92/92 82/82/82 77/77/77
f 80/80/80 92/92/92 77/77/77
f 93/93/93 86/86/86 82/82/82
f 93/93/93 90/90/90 86/86/86
f 92/92/92 93/93/93 82/82/82
f 94/94/94 91/91/91 90/90/90
f 94/94/94 90/90/90 93/93/93
f 95/95/95 91/91/91 94/94/94
f 96/96/96 93/93/93 92/92/92
f 96/96/96 94/94/94 93/93/93
f 97/97/97 95/95/95 94/94/94
f 97/97/97 94/94/94 96/96/96
f 98/98/98 95/95/95 97/97/97
f 99/99/99 92/92/92 80/80/80
f 99/99/99 96/96/96 92/92/92
f 100/100/100 97/97/97 96/96/96
f 100/100/100 96/96/96 99/99/99
f 101/101/101 98/98/98 97/97/97
f 101/101/101 97/97/97 100/100/100
f 102/102/102 98/98/98 101/101/101
f 103/103/103 99/99/99 80/80/80
f 103/103/103 80/80/80 81/81/81
f 104/104/104 103/103/103 81/81/81
f 105/105/105 100/100/100 99/99/99
f 105/105/105 99/99/99 103/103/103
f 106/106/106 103/103/103 104/104/104
f 106/106/106 105/105/105 103/103/103
f 107/107/107 106/106/106 104/104/104
f 108/108/108 101/101/101 100/100/100
f 108/108/108 100/100/100 105/105/105
f 109/109/109 102/102/102 101/101/101
f 109/109/109 101/101/101 108/108/108
f 110/110/110 102/102/102 109/109/109
f 111/111/111 106/106/106 107/107/107
f 112/112/112 111/111/111 107/107/107
f 113/113/113 105/105/105 106/106/106
f 113/113/113 108/108/108 105/105/105
f 111/111/111 113/113/113 106/106/106
f 114/114/114 109/109/109 108/108/108
f 114/114/114 108/108/108 113/113/113
f 115/115/115 110/110/110 109/109/109
f 115/115/115 109/109/109 114/114/114
f 116/116/116 110/110/110 115/115/115
f 117/117/117 111/111/111 112/112/112
f 118/118/118 117/117/117 112/112/112
f 119/119/119 113/113/113 111/111/111
f 119/119/119 114/114/114 113/113/113
f 117/117/117 119/119/119 111/111/111
f 120/120/120 115/115/115 114/114/114
f 120/120/120 114/114/114 119/119/119
f 121/121/121 116/116/116 115/115/115
f 121/121/121 115/115/115 120/120/120
f 122/122/122 116/116/116 121/121/121
f 123/123/123 122/122/122 121/121/121
f 124/124/124 117/117/117 118/118/118
f 125/125/125 124/124/124 118/118/118
f 126/126/126 119/119/119 117/117/117
f 126/126/126 120/120/120 119/119/119
f 124/124/124 126/126/126 117/117/117
f 127/127/127 121/121/121 120/120/120
f 123/123/123 121/121/121 127/127/127
f 127/127/127 120/120/120 126/126/126
f 128/128/128 124/124/124 125/125/125
f 129/129/129 128/128/128 125/125/125
f 130/130/130 126/126/126 124/124/124
f 130/130/130 127/127/127 126/126/126
f 128/128/128 130/130/130 124/124/124
f 131/131/131 123/123/123 127/127/127
f 131/131/131 127/127/127 130/130/130
f 132/132/132 123/123/123 131/131/131
f 133/133/133 131/131/131 130/130/130
f 133/133/133 130/130/130 128/128/128
f 132/132/132 131/131/131 133/133/133
f 134/134/134 128/128/128 129/129/129
f 134/134/134 133/133/133 128/128/128
f 132/132/132 133/133/133 134/134/134
f 135/135/135 134/134/134 129/129/129
f 132/132/132 134/134/134 135/135/135
f 138/138/138 137/137/137 136/136/136
f 139/139/139 138/138/138 136/136/136
f 140/140/140 139/139/139 136/136/136
f 141/141/141 140/140/140 136/136/136
f 142/142/142 141/141/141 136/136/136
f 143/143/143 142/142/142 136/136/136
f 146/146/146 145/145/145 144/144/144
f 145/145/145 147/147/147 144/144/144
f 147/147/147 148/148/148 144/144/144
f 148/148/148 149/149/149 144/144/144
