g Cheese
v 0.188416 -0.208078 0.337993
v -0.188572 -0.208078 0.337993
v 0.000152 0.384244 0.337993
v 0.214587 -0.209233 0.313402
v 0.00763 0.441903 0.313402
v 0.214587 -0.209233 0.018922
v 0.214587 -0.209233 0.313402
v 0.00763 0.441903 0.313402
v 0.00763 0.441903 0.018922
v 0.188416 -0.208078 -0.00567
v 0.000152 0.384244 -0.00567
v -0.214751 -0.209238 0.018922
v -0.197625 -0.23267 0.018922
v -0.188572 -0.208078 -0.00567
v -0.214751 -0.209238 0.313402
v -0.197625 -0.23267 0.313402
v -0.007285 0.441908 0.018922
v -0.007285 0.441908 0.313402
v -0.188572 -0.208078 0.337993
v 0.000152 0.384244 0.337993
v 0.00763 0.441903 0.313402
v 0.00763 0.441903 0.018922
v 0.000152 0.384244 -0.00567
v 0.197444 -0.23267 0.018922
v 0.214587 -0.209233 0.018922
v 0.188416 -0.208078 -0.00567
v 0.197444 -0.23267 0.313402
v -0.197625 -0.23267 0.018922
v 0.214587 -0.209233 0.313402
v 0.188416 -0.208078 0.337993
v -0.197625 -0.23267 0.313402
v -0.188572 -0.208078 0.337993
v -0.214751 -0.209238 0.313402
v 0.000152 0.384244 -0.00567
v -0.007285 0.441908 0.018922
v -0.214751 -0.209238 0.018922
v -0.188572 -0.208078 -0.00567
v 0.188416 -0.208078 -0.00567
v 0.197444 -0.23267 0.018922
v -0.197625 -0.23267 0.018922
vt 0.437553 0.023954
vt 0.437553 0.102774
vt 0.313712 0.063316
vt 0.437795 0.018482
vt 0.301657 0.061752
vt 0.293238 0.163456
vt 0.293238 0.232006
vt 0.458223 0.232006
vt 0.458223 0.163456
vt 0.295418 0.157732
vt 0.445501 0.157732
vt 0.460297 0.15015
vt 0.466384 0.15015
vt 0.458057 0.144283
vt 0.460297 0.220408
vt 0.466384 0.220408
vt 0.291163 0.15015
vt 0.291163 0.220408
vt 0.458057 0.226275
vt 0.304202 0.226275
vt 0.285077 0.220408
vt 0.285077 0.15015
vt 0.304202 0.144283
vt 0.409822 0.144317
vt 0.416515 0.144319
vt 0.407367 0.137755
vt 0.409794 0.222885
vt 0.302294 0.14428
vt 0.416487 0.222887
vt 0.407335 0.229445
vt 0.302267 0.222849
vt 0.304728 0.229411
vt 0.295573 0.222846
vt 0.313712 0.063417
vt 0.301656 0.061862
vt 0.437796 0.018486
vt 0.437553 0.023959
vt 0.437553 0.102779
vt 0.442695 0.104666
vt 0.442695 0.022066
vn 0.3540987 -0.2590053 0.8986269
vn -0.3540825 -0.2587987 0.8986929
vn 8.780049E-05 0.2582287 0.9660838
vn 0.9218692 -0.1440435 0.3597342
vn 0.5027186 0.7288157 0.4648673
vn 0.9218721 -0.144044 -0.3597264
vn 0.9218692 -0.1440435 0.3597342
vn 0.5027186 0.7288157 0.4648673
vn 0.5027197 0.7288182 -0.4648622
vn 0.3541075 -0.2590117 -0.8986217
vn 8.793137E-05 0.2582378 -0.9660813
vn -0.9219205 -0.1435815 -0.3597873
vn -0.4166985 -0.8348135 -0.3597901
vn -0.3540912 -0.2588051 -0.8986876
vn -0.9219176 -0.143581 0.3597951
vn -0.4166971 -0.8348107 0.359798
vn -0.5022169 0.7291647 -0.4648623
vn -0.5022159 0.7291622 0.4648674
vn -0.3540825 -0.2587987 0.8986929
vn 8.780049E-05 0.2582287 0.9660838
vn 0.5027186 0.7288157 0.4648673
vn 0.5027197 0.7288182 -0.4648622
vn 8.793137E-05 0.2582378 -0.9660813
vn 0.416521 -0.8349291 -0.3597272
vn 0.9218721 -0.144044 -0.3597264
vn 0.3541075 -0.2590117 -0.8986217
vn 0.4165196 -0.8349264 0.359735
vn -0.4166985 -0.8348135 -0.3597901
vn 0.9218692 -0.1440435 0.3597342
vn 0.3540987 -0.2590053 0.8986269
vn -0.4166971 -0.8348107 0.359798
vn -0.3540825 -0.2587987 0.8986929
vn -0.9219176 -0.143581 0.3597951
vn 8.793137E-05 0.2582378 -0.9660813
vn -0.5022169 0.7291647 -0.4648623
vn -0.9219205 -0.1435815 -0.3597873
vn -0.3540912 -0.2588051 -0.8986876
vn 0.3541075 -0.2590117 -0.8986217
vn 0.416521 -0.8349291 -0.3597272
vn -0.4166985 -0.8348135 -0.3597901
g Cheese_0
f 3/3/3 2/2/2 1/1/1
f 1/1/1 4/4/4 3/3/3
f 4/4/4 5/5/5 3/3/3
f 8/8/8 7/7/7 6/6/6
f 9/9/9 8/8/8 6/6/6
f 6/6/6 10/10/10 9/9/9
f 10/10/10 11/11/11 9/9/9
f 14/14/14 13/13/13 12/12/12
f 12/12/12 13/13/13 15/15/15
f 13/13/13 16/16/16 15/15/15
f 12/12/12 15/15/15 17/17/17
f 15/15/15 18/18/18 17/17/17
f 15/15/15 19/19/19 18/18/18
f 19/19/19 20/20/20 18/18/18
f 20/20/20 21/21/21 18/18/18
f 18/18/18 21/21/21 17/17/17
f 21/21/21 22/22/22 17/17/17
f 22/22/22 23/23/23 17/17/17
f 26/26/26 25/25/25 24/24/24
f 24/24/24 25/25/25 27/27/27
f 24/24/24 27/27/27 28/28/28
f 25/25/25 29/29/29 27/27/27
f 29/29/29 30/30/30 27/27/27
f 27/27/27 31/31/31 28/28/28
f 27/27/27 30/30/30 31/31/31
f 30/30/30 32/32/32 31/31/31
f 32/32/32 33/33/33 31/31/31
f 36/36/36 35/35/35 34/34/34
f 37/37/37 36/36/36 34/34/34
f 37/37/37 34/34/34 38/38/38
f 38/38/38 39/39/39 37/37/37
f 39/39/39 40/40/40 37/37/37
