g Chemisty_Holder
v 0.07351 0.100681 0.619104
v 0.075555 0.110731 0.619104
v 0.07351 0.10667 0.624282
v 0.07351 0.107827 0.632211
v 0.07351 0.10667 0.624282
v 0.075139 0.113556 0.637389
v 0.07351 0.10335 0.637389
v 0.083558 0.129585 0.619104
v 0.083558 0.139253 0.637389
v 0.125324 0.179084 0.637389
v 0.125324 0.160324 0.619104
v 0.235581 0.179084 0.637389
v 0.235581 0.160324 0.619104
v 0.264557 0.159088 0.637389
v 0.264557 0.144892 0.619104
v 0.235581 0.033454 0.619104
v 0.264557 0.048886 0.619104
v 0.125324 0.033454 0.619104
v 0.235581 0.014695 0.637389
v 0.264557 0.03469 0.637389
v 0.125324 0.014695 0.637389
v 0.083558 0.054525 0.637389
v 0.083558 0.064194 0.619104
v 0.075139 0.080223 0.637389
v 0.075555 0.083048 0.619104
v 0.075555 0.110731 0.619104
v 0.07351 0.093097 0.619104
v 0.075555 0.083048 0.619104
v 0.07351 0.100681 0.619104
v 0.07351 0.085951 0.632211
v 0.07351 0.087109 0.624282
v 0.07351 0.093097 0.619104
v -0.142606 0.093785 0.620152
v 0.07351 0.087109 0.624282
v -0.142606 0.099994 0.620152
v -0.142606 0.105927 0.625337
v 0.07351 0.10667 0.624282
v 0.07351 0.107827 0.632211
v -0.14751 0.086726 0.620152
v -0.142606 0.087853 0.625337
v -0.142606 0.087853 0.625337
v -0.14751 0.107053 0.620152
v -0.142606 0.099994 0.620152
v -0.17599 0.076119 0.620152
v -0.17599 0.076119 0.620152
v -0.17599 0.11766 0.620152
v -0.220164 0.076119 0.620152
v -0.220164 0.11766 0.620152
v -0.234697 0.088283 0.617543
v -0.234697 0.107167 0.617543
v -0.271879 0.091809 0.617543
v -0.271879 0.103642 0.617543
v -0.142606 0.086786 0.633251
v 0.07351 0.085951 0.632211
v 0.07351 0.090428 0.637389
v -0.17599 0.069977 0.638437
v -0.220164 0.069977 0.638437
v -0.147319 0.083812 0.638437
v -0.142606 0.091319 0.638437
v -0.220164 0.076119 0.620152
v -0.234697 0.085491 0.635828
v -0.234697 0.088283 0.617543
v -0.271879 0.090059 0.635828
v -0.271879 0.091809 0.617543
v -0.142606 0.091319 0.638437
v -0.142606 0.10246 0.638437
v -0.147319 0.109967 0.638437
v -0.147319 0.083812 0.638437
v -0.17599 0.123802 0.638437
v -0.17599 0.069977 0.638437
v -0.220164 0.123802 0.638437
v -0.220164 0.069977 0.638437
v -0.234697 0.109959 0.635828
v -0.234697 0.085491 0.635828
v -0.271879 0.105392 0.635828
v -0.271879 0.090059 0.635828
v 0.07351 0.10335 0.637389
v 0.075139 0.080223 0.637389
v 0.075139 0.113556 0.637389
v 0.083558 0.054525 0.637389
v 0.083558 0.139253 0.637389
v 0.125324 0.014695 0.637389
v 0.125324 0.179084 0.637389
v 0.235581 0.014695 0.637389
v 0.235581 0.179084 0.637389
v 0.264557 0.03469 0.637389
v 0.264557 0.159088 0.637389
v -0.142606 0.106994 0.633251
v -0.17599 0.123802 0.638437
v -0.147319 0.109967 0.638437
v -0.142606 0.106994 0.633251
v -0.17599 0.11766 0.620152
v -0.220164 0.11766 0.620152
v -0.220164 0.123802 0.638437
v -0.234697 0.107167 0.617543
v -0.234697 0.109959 0.635828
v -0.271879 0.103642 0.617543
v -0.271879 0.105392 0.635828
v 0.07351 0.090428 0.637389
v 0.07351 0.085951 0.632211
v -0.268231 0.2406 0.002998
v -0.268231 -0.046821 0.002998
v 0.334241 -0.046821 0.002998
v 0.334241 0.2406 0.002998
v -0.268231 0.2406 0.064889
v 0.334241 0.2406 0.064889
v 0.334241 -0.046821 0.064889
v -0.268231 -0.046821 0.064889
v -0.268231 0.2406 0.002998
v -0.268231 0.2406 0.064889
v -0.268231 -0.046821 0.064889
v -0.268231 -0.046821 0.002998
v 0.334241 -0.046821 0.002998
v 0.334241 -0.046821 0.064889
v 0.334241 0.2406 0.064889
v 0.334241 0.2406 0.002998
v -0.268231 -0.046821 0.002998
v -0.268231 -0.046821 0.064889
v 0.334241 -0.046821 0.064889
v 0.334241 -0.046821 0.002998
v 0.334241 0.2406 0.002998
v 0.334241 0.2406 0.064889
v -0.268231 0.2406 0.064889
v -0.268231 0.2406 0.002998
v -0.19171 0.107693 0.863246
v -0.183832 0.099815 0.863246
v -0.183832 0.093964 0.863246
v -0.19171 0.086086 0.863246
v -0.208468 0.107693 0.863246
v -0.208468 0.086086 0.863246
v -0.216346 0.099815 0.863246
v -0.216346 0.093964 0.863246
v -0.194176 0.088552 0.064889
v -0.186298 0.09643 0.064889
v -0.186298 0.097349 0.064889
v -0.194176 0.105227 0.064889
v -0.206003 0.088552 0.064889
v -0.206003 0.105227 0.064889
v -0.213881 0.09643 0.064889
v -0.213881 0.097349 0.064889
v 0.264557 0.048886 0.619104
v 0.264557 0.03469 0.637389
v 0.264557 0.159088 0.637389
v 0.264557 0.144892 0.619104
v -0.271879 0.091809 0.617543
v -0.271879 0.103642 0.617543
v -0.271879 0.105392 0.635828
v -0.271879 0.090059 0.635828
v -0.213881 0.097349 0.064889
v -0.216346 0.093964 0.863246
v -0.213881 0.09643 0.064889
v -0.206003 0.088552 0.064889
v -0.216346 0.099815 0.863246
v -0.208468 0.086086 0.863246
v -0.208468 0.107693 0.863246
v -0.206003 0.105227 0.064889
v -0.19171 0.086086 0.863246
v -0.194176 0.088552 0.064889
v -0.194176 0.105227 0.064889
v -0.19171 0.107693 0.863246
v -0.186298 0.09643 0.064889
v -0.183832 0.093964 0.863246
v -0.183832 0.099815 0.863246
v -0.186298 0.097349 0.064889
vt 0.893157 0.497328
vt 0.893157 0.527331
vt 0.893157 0.531692
vt 0.893157 0.527331
vt 0.893157 0.527331
vt 0.893157 0.527331
vt 0.893157 0.527331
vt 0.893157 0.527331
vt 0.893157 0.527331
vt 0.893157 0.527331
vt 0.893157 0.527331
vt 0.893157 0.527331
vt 0.893157 0.527331
vt 0.893157 0.527331
vt 0.893157 0.527331
vt 0.893157 0.423841
vt 0.893157 0.423841
vt 0.893157 0.423841
vt 0.893157 0.423841
vt 0.893157 0.423841
vt 0.893157 0.423841
vt 0.893157 0.423841
vt 0.893157 0.423841
vt 0.893157 0.423841
vt 0.893157 0.423841
vt 0.893157 0.527331
vt 0.893157 0.453844
vt 0.893157 0.423841
vt 0.893157 0.497328
vt 0.893157 0.423841
vt 0.893157 0.423841
vt 0.893157 0.423841
vt 0.893157 0.456317
vt 0.893157 0.423841
vt 0.893157 0.494855
vt 0.893157 0.527331
vt 0.893157 0.527331
vt 0.893157 0.527331
vt 0.893157 0.423841
vt 0.893157 0.419529
vt 0.893157 0.423841
vt 0.893157 0.527331
vt 0.893157 0.527331
vt 0.893157 0.423841
vt 0.893157 0.423841
vt 0.893157 0.527331
vt 0.893157 0.423841
vt 0.893157 0.527331
vt 0.893157 0.423841
vt 0.893157 0.527331
vt 0.893157 0.423841
vt 0.893157 0.527331
vt 0.893157 0.423841
vt 0.893157 0.423841
vt 0.893157 0.446996
vt 0.893157 0.423841
vt 0.893157 0.423841
vt 0.893157 0.423841
vt 0.893157 0.423841
vt 0.893157 0.423841
vt 0.893157 0.423841
vt 0.893157 0.423841
vt 0.893157 0.423841
vt 0.893157 0.423841
vt 0.893157 0.448905
vt 0.893157 0.502267
vt 0.893157 0.527331
vt 0.893157 0.423841
vt 0.893157 0.527331
vt 0.893157 0.423841
vt 0.893157 0.527331
vt 0.893157 0.423841
vt 0.893157 0.527331
vt 0.893157 0.423841
vt 0.893157 0.527331
vt 0.893157 0.423841
vt 0.893157 0.504176
vt 0.893157 0.423841
vt 0.893157 0.527331
vt 0.893157 0.423841
vt 0.893157 0.527331
vt 0.893157 0.423841
vt 0.893157 0.527331
vt 0.893157 0.423841
vt 0.893157 0.527331
vt 0.893157 0.423841
vt 0.893157 0.527331
vt 0.893157 0.527331
vt 0.893157 0.527331
vt 0.893157 0.527331
vt 0.893157 0.523981
vt 0.893157 0.527331
vt 0.893157 0.527331
vt 0.893157 0.527331
vt 0.893157 0.527331
vt 0.893157 0.527331
vt 0.893157 0.527331
vt 0.893157 0.527331
vt 0.893157 0.446996
vt 0.893157 0.427185
vt 0.013407 0.983333
vt 0.013407 0.522527
vt 0.470935 0.522527
vt 0.470935 0.983333
vt 0.013407 0.983333
vt 0.470935 0.983333
vt 0.470935 0.522527
vt 0.013407 0.522527
vt 0.013407 0.983333
vt 0.013407 0.983333
vt 0.013407 0.522527
vt 0.013407 0.522527
vt 0.470935 0.522527
vt 0.470935 0.522527
vt 0.470935 0.983333
vt 0.470935 0.983333
vt 0.013407 0.522527
vt 0.013407 0.522527
vt 0.470935 0.522527
vt 0.470935 0.522527
vt 0.470935 0.983333
vt 0.470935 0.983333
vt 0.013407 0.983333
vt 0.013407 0.983333
vt 0.86826 0.527331
vt 0.893157 0.489597
vt 0.893157 0.461575
vt 0.86826 0.423841
vt 0.8153 0.527331
vt 0.8153 0.423841
vt 0.790404 0.489597
vt 0.790404 0.461575
vt 0.340259 0.522527
vt 0.470935 0.740228
vt 0.470935 0.765631
vt 0.340259 0.983333
vt 0.144083 0.522527
vt 0.144083 0.983333
vt 0.013407 0.740228
vt 0.013407 0.765631
vt 0.893157 0.423841
vt 0.893157 0.423841
vt 0.893157 0.527331
vt 0.893157 0.527331
vt 0.893157 0.423841
vt 0.893157 0.527331
vt 0.893157 0.527331
vt 0.893157 0.423841
vt 0.790404 0.478438
vt 0.790404 0.461575
vt 0.790404 0.472733
vt 0.819751 0.423841
vt 0.790404 0.489597
vt 0.8153 0.423841
vt 0.8153 0.527331
vt 0.819751 0.527331
vt 0.86826 0.423841
vt 0.863809 0.423841
vt 0.863809 0.527331
vt 0.86826 0.527331
vt 0.893157 0.472733
vt 0.893157 0.461575
vt 0.893157 0.489597
vt 0.893157 0.478438
vn -1 0 0
vn -0.9235961 0.372475 -0.09073356
vn -0.9437023 0.3013994 -0.1363249
vn -0.9575039 0.2884205 0
vn -0.9437023 0.3013994 -0.1363249
vn -0.9352605 0.3366387 -0.1093719
vn -1 0 0
vn -0.1270306 0.114939 -0.9852169
vn -0.6096551 0.6300205 -0.4810354
vn -0.1216312 0.7104718 -0.6931347
vn -0.04241036 0.1538071 -0.9871903
vn 0.0694776 0.7033509 -0.7074394
vn 0.0207161 0.1397017 -0.9899769
vn 0.4134929 0.6763788 -0.6095369
vn 0.05667503 0.09270724 -0.9940791
vn 0.02071556 -0.1397025 -0.9899768
vn 0.05667358 -0.0927075 -0.9940792
vn -0.04241063 -0.1538082 -0.9871902
vn 0.06947874 -0.7033685 -0.7074217
vn 0.4134879 -0.6763896 -0.6095283
vn -0.1216359 -0.7104871 -0.6931182
vn -0.6096547 -0.6300196 -0.481037
vn -0.1265906 -0.1145389 -0.98532
vn -0.9352598 -0.3366384 -0.1093787
vn 0 0 -1
vn 0 0 -1
vn -0.005652963 -0.3681855 -0.9297352
vn -0.9235939 -0.3724805 -0.09073316
vn -0.005715792 0.3723661 -0.9280683
vn -0.9574901 -0.288466 0
vn -0.9437035 -0.3013928 -0.1363306
vn -1 0 0
vn -0.002206039 -0.3718577 -0.9282871
vn -0.00540722 -0.8797015 -0.4754956
vn -0.002172758 0.3664379 -0.9304399
vn 0.02460733 0.8875588 -0.4600367
vn -0.005401999 0.8796871 -0.4755222
vn -0.002458084 0.9684336 0.2492592
vn 0.1276573 -0.2850897 -0.9499619
vn 0.02755409 -0.887835 -0.4593362
vn 0.02755409 -0.887835 -0.4593362
vn 0.1486724 0.3249265 -0.9339803
vn -0.002172758 0.3664379 -0.9304399
vn 0 0 -1
vn 0.1043427 -0.9431289 -0.3156271
vn 0 0 -1
vn 0.02125155 0 -0.9997742
vn 0.02275065 0 -0.9997411
vn 0.09660712 0 -0.9953226
vn 0.09519578 0 -0.9954586
vn 0 0 -1
vn 0 0 -1
vn 0.03056057 -0.9720901 0.2326086
vn -0.002465216 -0.9684516 0.2491894
vn 0.003403666 -0.2988263 0.9543015
vn 0.08829051 -0.9455094 -0.3133953
vn -0.1732522 -0.938756 -0.2978606
vn 0.4767014 -0.8763276 -0.06932345
vn 0.006501915 -0.2919364 0.9564157
vn -0.2405617 -0.9271763 -0.2871831
vn -0.3335806 -0.9306347 -0.1504763
vn -0.2905158 -0.9457225 -0.1456348
vn -0.1073884 -0.9866366 -0.1225402
vn -0.1073884 -0.9866365 -0.1225402
vn 0.006501915 -0.2919364 0.9564157
vn 0.006589671 0.2957921 0.9552296
vn 0 0 1
vn 0 0 1
vn 0 0 1
vn 0 0 1
vn -0.01987836 0 0.9998024
vn -0.01863801 0 0.9998264
vn -0.09865983 0 0.9951212
vn -0.09971806 0 0.9950157
vn 0 0 1
vn 0 0 1
vn 0.00337936 0.2964979 0.9550275
vn 0 0 1
vn 0 0 1
vn 0 0 1
vn 0 0 1
vn 0 0 1
vn 0 0 1
vn 0 0 1
vn 0 0 1
vn 0 0 1
vn 0 0 1
vn 0.03056546 0.9720739 0.2326757
vn 0.07064822 0.9473747 -0.3122339
vn 0.4767125 0.8763354 -0.06914777
vn 0.03056546 0.9720739 0.2326757
vn 0.09023222 0.9440828 -0.3171212
vn -0.2107004 0.933754 -0.2893247
vn -0.1525026 0.9420428 -0.2988284
vn -0.2655985 0.9528496 -0.1467483
vn -0.3034532 0.9406277 -0.1521046
vn -0.1073622 0.9866393 -0.1225405
vn -0.1073622 0.9866393 -0.1225405
vn -1 0 0
vn -0.9574901 -0.288466 0
vn 0 0 -1
vn 0 0 -1
vn 0 0 -1
vn 0 0 -1
vn 0 0 1
vn 0 0 1
vn 0 0 1
vn 0 0 1
vn -1 0 0
vn -1 0 0
vn -1 0 0
vn -1 0 0
vn 1 0 0
vn 1 0 0
vn 1 0 0
vn 1 0 0
vn 0 -1 0
vn 0 -1 0
vn 0 -1 0
vn 0 -1 0
vn 0 1 0
vn 0 1 0
vn 0 1 0
vn 0 1 0
vn 0 0 1
vn 0 0 1
vn 0 0 1
vn 0 0 1
vn 0 0 1
vn 0 0 1
vn 0 0 1
vn 0 0 1
vn 0 0 -1
vn 0 0 -1
vn 0 0 -1
vn 0 0 -1
vn 0 0 -1
vn 0 0 -1
vn 0 0 -1
vn 0 0 -1
vn 1 0 0
vn 1 0 0
vn 1 0 0
vn 1 0 0
vn -1 0 0
vn -1 0 0
vn -1 0 0
vn -1 0 0
vn -0.8195919 0.5729316 -0.004300261
vn -0.8192738 -0.5733864 -0.004300684
vn -0.819592 -0.5729315 -0.004300261
vn -0.3344483 -0.9424059 -0.003943585
vn -0.8192736 0.5733866 -0.004300683
vn -0.3352015 -0.9421382 -0.003945084
vn -0.3352012 0.9421383 -0.003945083
vn -0.334448 0.9424059 -0.003943584
vn 0.3352017 -0.9421381 -0.003945504
vn 0.334448 -0.9424059 -0.003944003
vn 0.3344478 0.9424061 -0.003944003
vn 0.3352015 0.9421382 -0.003945503
vn 0.8195919 -0.5729315 -0.004301285
vn 0.8192738 -0.5733864 -0.004301708
vn 0.8192736 0.5733866 -0.004301708
vn 0.8195918 0.5729317 -0.004301286
g Chemisty_Holder_0
f 3/3/3 2/2/2 1/1/1
f 2/2/2 5/5/5 4/4/4
f 4/4/4 6/6/6 2/2/2
f 7/7/7 6/6/6 4/4/4
f 6/6/6 8/8/8 2/2/2
f 6/6/6 9/9/9 8/8/8
f 9/9/9 10/10/10 8/8/8
f 10/10/10 11/11/11 8/8/8
f 10/10/10 12/12/12 11/11/11
f 12/12/12 13/13/13 11/11/11
f 12/12/12 14/14/14 13/13/13
f 14/14/14 15/15/15 13/13/13
f 13/13/13 15/15/15 16/16/16
f 15/15/15 17/17/17 16/16/16
f 11/11/11 13/13/13 18/18/18
f 13/13/13 16/16/16 18/18/18
f 16/16/16 17/17/17 19/19/19
f 17/17/17 20/20/20 19/19/19
f 16/16/16 19/19/19 21/21/21
f 18/18/18 16/16/16 21/21/21
f 18/18/18 21/21/21 22/22/22
f 11/11/11 18/18/18 23/23/23
f 23/23/23 18/18/18 22/22/22
f 8/8/8 11/11/11 23/23/23
f 23/23/23 22/22/22 24/24/24
f 8/8/8 23/23/23 25/25/25
f 25/25/25 26/26/26 8/8/8
f 25/25/25 27/27/27 26/26/26
f 24/24/24 28/28/28 23/23/23
f 27/27/27 29/29/29 26/26/26
f 24/24/24 30/30/30 28/28/28
f 30/30/30 31/31/31 28/28/28
f 32/32/32 28/28/28 31/31/31
f 29/29/29 27/27/27 33/33/33
f 27/27/27 34/34/34 33/33/33
f 35/35/35 29/29/29 33/33/33
f 35/35/35 36/36/36 29/29/29
f 36/36/36 37/37/37 29/29/29
f 38/38/38 37/37/37 36/36/36
f 35/35/35 33/33/33 39/39/39
f 40/40/40 39/39/39 33/33/33
f 34/34/34 41/41/41 33/33/33
f 39/39/39 42/42/42 35/35/35
f 43/43/43 42/42/42 36/36/36
f 39/39/39 44/44/44 42/42/42
f 45/45/45 39/39/39 41/41/41
f 44/44/44 46/46/46 42/42/42
f 44/44/44 47/47/47 46/46/46
f 47/47/47 48/48/48 46/46/46
f 47/47/47 49/49/49 48/48/48
f 49/49/49 50/50/50 48/48/48
f 49/49/49 51/51/51 50/50/50
f 51/51/51 52/52/52 50/50/50
f 41/41/41 34/34/34 53/53/53
f 34/34/34 54/54/54 53/53/53
f 54/54/54 55/55/55 53/53/53
f 41/41/41 56/56/56 45/45/45
f 41/41/41 53/53/53 56/56/56
f 56/56/56 57/57/57 45/45/45
f 53/53/53 58/58/58 56/56/56
f 59/59/59 58/58/58 53/53/53
f 57/57/57 60/60/60 45/45/45
f 57/57/57 61/61/61 60/60/60
f 61/61/61 62/62/62 60/60/60
f 61/61/61 63/63/63 62/62/62
f 63/63/63 64/64/64 62/62/62
f 55/55/55 65/65/65 53/53/53
f 65/65/65 55/55/55 66/66/66
f 65/65/65 66/66/66 67/67/67
f 67/67/67 68/68/68 65/65/65
f 67/67/67 69/69/69 68/68/68
f 69/69/69 70/70/70 68/68/68
f 69/69/69 71/71/71 70/70/70
f 71/71/71 72/72/72 70/70/70
f 71/71/71 73/73/73 72/72/72
f 73/73/73 74/74/74 72/72/72
f 73/73/73 75/75/75 74/74/74
f 75/75/75 76/76/76 74/74/74
f 55/55/55 77/77/77 66/66/66
f 77/77/77 55/55/55 78/78/78
f 79/79/79 77/77/77 78/78/78
f 79/79/79 78/78/78 80/80/80
f 80/80/80 81/81/81 79/79/79
f 80/80/80 82/82/82 81/81/81
f 82/82/82 83/83/83 81/81/81
f 82/82/82 84/84/84 83/83/83
f 84/84/84 85/85/85 83/83/83
f 84/84/84 86/86/86 85/85/85
f 86/86/86 87/87/87 85/85/85
f 77/77/77 38/38/38 66/66/66
f 38/38/38 88/88/88 66/66/66
f 88/88/88 38/38/38 36/36/36
f 89/89/89 88/88/88 36/36/36
f 89/89/89 36/36/36 42/42/42
f 89/89/89 90/90/90 88/88/88
f 91/91/91 90/90/90 66/66/66
f 42/42/42 92/92/92 89/89/89
f 92/92/92 93/93/93 89/89/89
f 93/93/93 94/94/94 89/89/89
f 93/93/93 95/95/95 94/94/94
f 95/95/95 96/96/96 94/94/94
f 95/95/95 97/97/97 96/96/96
f 97/97/97 98/98/98 96/96/96
f 100/100/100 24/24/24 99/99/99
f 103/103/103 102/102/102 101/101/101
f 104/104/104 103/103/103 101/101/101
f 107/107/107 106/106/106 105/105/105
f 108/108/108 107/107/107 105/105/105
f 111/111/111 110/110/110 109/109/109
f 112/112/112 111/111/111 109/109/109
f 115/115/115 114/114/114 113/113/113
f 116/116/116 115/115/115 113/113/113
f 119/119/119 118/118/118 117/117/117
f 120/120/120 119/119/119 117/117/117
f 123/123/123 122/122/122 121/121/121
f 124/124/124 123/123/123 121/121/121
f 127/127/127 126/126/126 125/125/125
f 125/125/125 128/128/128 127/127/127
f 125/125/125 129/129/129 128/128/128
f 129/129/129 130/130/130 128/128/128
f 129/129/129 131/131/131 130/130/130
f 131/131/131 132/132/132 130/130/130
f 135/135/135 134/134/134 133/133/133
f 133/133/133 136/136/136 135/135/135
f 133/133/133 137/137/137 136/136/136
f 137/137/137 138/138/138 136/136/136
f 137/137/137 139/139/139 138/138/138
f 139/139/139 140/140/140 138/138/138
f 143/143/143 142/142/142 141/141/141
f 144/144/144 143/143/143 141/141/141
f 147/147/147 146/146/146 145/145/145
f 148/148/148 147/147/147 145/145/145
f 151/151/151 150/150/150 149/149/149
f 151/151/151 152/152/152 150/150/150
f 150/150/150 153/153/153 149/149/149
f 152/152/152 154/154/154 150/150/150
f 153/153/153 155/155/155 149/149/149
f 155/155/155 156/156/156 149/149/149
f 157/157/157 154/154/154 152/152/152
f 158/158/158 157/157/157 152/152/152
f 156/156/156 155/155/155 159/159/159
f 155/155/155 160/160/160 159/159/159
f 157/157/157 158/158/158 161/161/161
f 162/162/162 157/157/157 161/161/161
f 159/159/159 160/160/160 163/163/163
f 163/163/163 162/162/162 161/161/161
f 164/164/164 159/159/159 163/163/163
f 164/164/164 163/163/163 161/161/161
