g ChickenCoopFloorNav
v 1.071077 1.094133 0.84832
v 1.069176 -0.478725 0.84832
v -1.069176 -0.479273 0.84832
v -1.071077 1.093585 0.84832
v 1.071891 2.616598 0
v -1.071891 2.615961 0
v 1.072098 3.10637 0
v -1.072098 3.10571 0
vt 0.999903 0.39279
vt 0.999903 0.000503
vt 0.5 9.7E-05
vt 0.5 0.392384
vt 0.999903 0.490862
vt 0.5 0.490456
vt 0.999903 0.539898
vt 0.5 0.539492
vn -6.950017E-05 0.2514557 0.9678688
vn 0 0 1
vn 0 0 1
vn -6.950017E-05 0.2514557 0.9678688
vn -6.950017E-05 0.2514557 0.9678688
vn -6.950017E-05 0.2514557 0.9678688
vn 0 0 1
vn 0 0 1
g ChickenCoopFloorNav_0
f 3/3/3 2/2/2 1/1/1
f 4/4/4 3/3/3 1/1/1
f 4/4/4 1/1/1 5/5/5
f 6/6/6 4/4/4 5/5/5
f 6/6/6 5/5/5 7/7/7
f 8/8/8 6/6/6 7/7/7
