g ChickenFoodInFeeder
v 0.615633 0.003393 0.523503
v 0.749374 0.03745 0.270002
v 0.746574 -0.756922 0.233771
v 0.564974 0.621431 0.398122
v 0.746574 0.784984 0.238543
v 0.073424 0.594344 0.474079
v 0.004742 0.820936 0.277922
v 0.746574 0.784984 0.238543
v 0.564974 0.621431 0.398122
v -0.521583 0.52897 0.449205
v -0.743669 0.757095 0.252189
v -0.574368 -0.056937 0.327731
v -0.749181 0.019583 0.228914
v -0.608545 -0.511858 0.429183
v -0.742562 -0.755703 0.255948
v 0.062316 -0.636753 0.43416
v 0.002998 -0.776853 0.249078
v 0.556228 -0.59944 0.38606
v 0.746574 -0.756922 0.233771
v 0.615633 0.003393 0.523503
v 0.16368 0.233922 0.555635
v -0.043971 0.229917 0.589513
v -0.254192 -0.025459 0.624536
v -0.2588 -0.244024 0.592767
v -0.014132 -0.312589 0.601007
v 0.002521 -0.027889 0.657659
v 0.339681 0.239884 0.573097
v 0.229932 -0.079076 0.55014
v 0.214179 -0.381149 0.484051
vt 0.853065 0.168414
vt 1.052442 0.02902
vt 0.558076 -0.458723
vt 1.182561 0.549344
vt 1.439786 0.561912
vt 0.849472 0.802613
vt 0.980055 1.040753
vt 1.439786 0.561912
vt 1.182561 0.549344
vt 0.441402 1.077013
vt 0.413783 1.402064
vt 0.044735 0.783211
vt -0.05446 0.943117
vt -0.156649 0.466931
vt -0.425244 0.393236
vt 0.191902 0.045293
vt 0.024397 -0.079079
vt 0.525421 -0.207023
vt 0.558076 -0.458723
vt 0.853065 0.168414
vt 0.706026 0.531699
vt 0.576136 0.635971
vt 0.327546 0.589584
vt 0.210569 0.464805
vt 0.327129 0.305502
vt 0.469889 0.463301
vt 0.81172 0.443779
vt 0.586667 0.309732
vt 0.424559 0.125752
vn 0.509246 -0.03983007 0.8596989
vn 0.7672744 -0.005343452 0.6412967
vn 0.467463 -0.4790369 0.7429683
vn 0.3147416 0.3172231 0.894599
vn 0.470233 0.4265552 0.7726135
vn 0.009517313 0.4848742 0.8745321
vn -0.007147416 0.641551 0.7670471
vn 0.470233 0.4265552 0.7726135
vn 0.3147416 0.3172231 0.894599
vn -0.3216635 0.248187 0.9137482
vn -0.3954648 0.3107277 0.864324
vn -0.5975534 0.05147461 0.8001751
vn -0.6574943 0.01663288 0.7532759
vn -0.4063681 -0.2513812 0.8784488
vn -0.4310792 -0.3273105 0.8408558
vn 0.02422581 -0.551571 0.8337761
vn 0.0006338373 -0.7011456 0.7130179
vn 0.3126415 -0.3739843 0.87315
vn 0.467463 -0.4790369 0.7429683
vn 0.509246 -0.03983007 0.8596989
vn 0.06907155 0.2293079 0.9709001
vn -0.1652535 0.2121124 0.9631717
vn -0.3057955 0.06791486 0.9496719
vn -0.286263 -0.1760838 0.9418322
vn 0.09669814 -0.2894475 0.9522971
vn 0.1308578 -0.02379147 0.9911157
vn 0.1814298 0.1463659 0.9724506
vn 0.2490458 -0.08056229 0.9651351
vn 0.2385406 -0.2476798 0.9390171
g ChickenFoodInFeeder_0
f 3/3/3 2/2/2 1/1/1
f 1/1/1 2/2/2 4/4/4
f 2/2/2 5/5/5 4/4/4
f 8/8/8 7/7/7 6/6/6
f 9/9/9 8/8/8 6/6/6
f 6/6/6 7/7/7 10/10/10
f 7/7/7 11/11/11 10/10/10
f 10/10/10 11/11/11 12/12/12
f 11/11/11 13/13/13 12/12/12
f 12/12/12 13/13/13 14/14/14
f 13/13/13 15/15/15 14/14/14
f 14/14/14 15/15/15 16/16/16
f 15/15/15 17/17/17 16/16/16
f 16/16/16 17/17/17 18/18/18
f 17/17/17 19/19/19 18/18/18
f 18/18/18 19/19/19 20/20/20
f 9/9/9 6/6/6 21/21/21
f 6/6/6 10/10/10 22/22/22
f 21/21/21 6/6/6 22/22/22
f 22/22/22 10/10/10 23/23/23
f 10/10/10 12/12/12 23/23/23
f 21/21/21 22/22/22 23/23/23
f 12/12/12 14/14/14 24/24/24
f 23/23/23 12/12/12 24/24/24
f 14/14/14 16/16/16 25/25/25
f 24/24/24 14/14/14 25/25/25
f 26/26/26 23/23/23 24/24/24
f 26/26/26 21/21/21 23/23/23
f 25/25/25 26/26/26 24/24/24
f 27/27/27 9/9/9 21/21/21
f 20/20/20 9/9/9 27/27/27
f 27/27/27 21/21/21 26/26/26
f 28/28/28 20/20/20 27/27/27
f 28/28/28 27/27/27 26/26/26
f 18/18/18 20/20/20 28/28/28
f 28/28/28 26/26/26 25/25/25
f 16/16/16 18/18/18 29/29/29
f 25/25/25 16/16/16 29/29/29
f 29/29/29 18/18/18 28/28/28
f 29/29/29 28/28/28 25/25/25
