g Clock_Swinger
v -0.028178 -0.023268 0.00303
v 0.028178 -0.023268 0.00303
v 0.028178 -0.004812 -0.00303
v -0.028178 -0.004812 -0.00303
v -0.028178 -0.004812 -0.00303
v -0.047362 -0.007989 -1.238661
v -0.047362 -0.03352 -1.230278
v -0.028178 -0.023268 0.00303
v 0.028178 -0.004812 -0.00303
v -0.047362 -0.007989 -1.238661
v -0.028178 -0.004812 -0.00303
v 0.047362 -0.007989 -1.238661
v -0.08256 0.001973 -1.260878
v 0.08256 0.001973 -1.260878
v -0.107066 0.005792 -1.308841
v 0.107066 0.005792 -1.308841
v -0.107066 0.000622 -1.393831
v 0.107066 0.000622 -1.393831
v -0.083375 -0.008225 -1.438713
v 0.083375 -0.008225 -1.438713
v -0.058014 -0.015842 -1.449312
v 0.058014 -0.015842 -1.449312
v 0.028178 -0.023268 0.00303
v 0.047362 -0.007989 -1.238661
v 0.028178 -0.004812 -0.00303
v 0.047362 -0.03352 -1.230278
v 0.08256 0.001973 -1.260878
v 0.08256 -0.042533 -1.246264
v 0.107066 0.005792 -1.308841
v 0.107066 -0.051923 -1.289889
v 0.107066 0.000622 -1.393831
v 0.107066 -0.057093 -1.374879
v 0.083375 -0.008225 -1.438713
v 0.083375 -0.05317 -1.423955
v -0.028178 -0.023268 0.00303
v 0.047362 -0.03352 -1.230278
v 0.028178 -0.023268 0.00303
v -0.047362 -0.03352 -1.230278
v 0.08256 -0.042533 -1.246264
v -0.08256 -0.042533 -1.246264
v 0.107066 -0.051923 -1.289889
v -0.107066 -0.051923 -1.289889
v 0.107066 -0.057093 -1.374879
v -0.107066 -0.057093 -1.374879
v 0.083375 -0.05317 -1.423955
v -0.083375 -0.05317 -1.423955
v 0.058014 -0.047115 -1.439043
v -0.058014 -0.047115 -1.439043
v -0.047362 -0.007989 -1.238661
v -0.08256 0.001973 -1.260878
v -0.08256 -0.042533 -1.246264
v -0.047362 -0.03352 -1.230278
v -0.08256 0.001973 -1.260878
v -0.107066 -0.051923 -1.289889
v -0.08256 -0.042533 -1.246264
v -0.107066 0.005792 -1.308841
v -0.107066 -0.057093 -1.374879
v -0.107066 0.000622 -1.393831
v -0.083375 -0.05317 -1.423955
v -0.083375 -0.008225 -1.438713
v 0.083375 -0.05317 -1.423955
v 0.058014 -0.015842 -1.449312
v 0.083375 -0.008225 -1.438713
v 0.058014 -0.047115 -1.439043
v -0.058014 -0.047115 -1.439043
v -0.058014 -0.015842 -1.449312
v -0.083375 -0.008225 -1.438713
v -0.083375 -0.05317 -1.423955
vt 0.945999 0.883499
vt 0.78247 0.883499
vt 0.78247 0.883499
vt 0.945999 0.883499
vt 0.945999 0.883499
vt 0.945999 0.883499
vt 0.945999 0.883499
vt 0.945999 0.883499
vt 0.78247 0.883499
vt 0.945999 0.883499
vt 0.945999 0.883499
vt 0.78247 0.883499
vt 0.945999 0.883499
vt 0.78247 0.883499
vt 0.945999 0.883499
vt 0.78247 0.883499
vt 0.945999 0.883499
vt 0.78247 0.883499
vt 0.945999 0.883499
vt 0.78247 0.883499
vt 0.945999 0.883499
vt 0.78247 0.883499
vt 0.78247 0.883499
vt 0.78247 0.883499
vt 0.78247 0.883499
vt 0.78247 0.883499
vt 0.78247 0.883499
vt 0.78247 0.883499
vt 0.78247 0.883499
vt 0.78247 0.883499
vt 0.78247 0.883499
vt 0.78247 0.883499
vt 0.78247 0.883499
vt 0.78247 0.883499
vt 0.945999 0.883499
vt 0.78247 0.883499
vt 0.78247 0.883499
vt 0.945999 0.883499
vt 0.78247 0.883499
vt 0.945999 0.883499
vt 0.78247 0.883499
vt 0.945999 0.883499
vt 0.78247 0.883499
vt 0.945999 0.883499
vt 0.78247 0.883499
vt 0.945999 0.883499
vt 0.78247 0.883499
vt 0.945999 0.883499
vt 0.945999 0.883499
vt 0.945999 0.883499
vt 0.945999 0.883499
vt 0.945999 0.883499
vt 0.945999 0.883499
vt 0.945999 0.883499
vt 0.945999 0.883499
vt 0.945999 0.883499
vt 0.945999 0.883499
vt 0.945999 0.883499
vt 0.945999 0.883499
vt 0.945999 0.883499
vt 0.78247 0.883499
vt 0.78247 0.883499
vt 0.78247 0.883499
vt 0.78247 0.883499
vt 0.945999 0.883499
vt 0.945999 0.883499
vt 0.945999 0.883499
vt 0.945999 0.883499
vn 0 -0.3119622 -0.9500945
vn 0 -0.3119622 -0.9500945
vn 0 -0.9999645 -0.008432195
vn 0 -0.9999645 -0.008432195
vn 0.9998667 -0.005092829 -0.01551051
vn 0.2250366 -0.9736406 -0.03718159
vn 0.3294917 0.9430771 -0.04517602
vn 0.9998667 -0.00509283 -0.01551051
vn 0 -0.9999645 -0.008432195
vn 0.2250366 -0.9736406 -0.03718159
vn 0 -0.9999645 -0.008432195
vn -0.2250366 -0.9736406 -0.03718159
vn 0.2327894 -0.9356321 -0.265333
vn -0.2327894 -0.9356321 -0.265333
vn 0.2946219 -0.955507 -0.01428943
vn -0.2946219 -0.955507 -0.01428943
vn 0 -0.9955741 0.09397988
vn 0 -0.9955741 0.09397988
vn 0.2252652 -0.8999881 0.3731983
vn -0.2252652 -0.8999881 0.3731983
vn 0.08219839 -0.1523857 0.984897
vn -0.08219839 -0.1523857 0.984897
vn -0.9998667 -0.005092852 -0.01551051
vn -0.2250366 -0.9736406 -0.03718159
vn -0.9998667 -0.005092851 -0.01551051
vn -0.3294917 0.9430771 -0.04517602
vn -0.2327894 -0.9356321 -0.265333
vn -0.2345074 0.8804015 -0.4121887
vn -0.2946219 -0.955507 -0.01428943
vn -0.9790661 -0.06350067 -0.1933832
vn -0.9803909 0.06147885 0.1872269
vn -0.2929473 0.956027 0.01394028
vn -0.2252652 -0.8999881 0.3731983
vn -0.236121 0.940546 0.244172
vn 0 0.9999654 -0.008312314
vn -0.3294917 0.9430771 -0.04517602
vn 0 0.9999654 -0.008312314
vn 0.3294917 0.9430771 -0.04517602
vn -0.2345074 0.8804015 -0.4121887
vn 0.2345074 0.8804015 -0.4121887
vn 0 0.9952996 -0.09684412
vn 0 0.9952996 -0.09684412
vn -0.2929473 0.956027 0.01394028
vn 0.2929473 0.956027 0.01394027
vn -0.236121 0.940546 0.244172
vn 0.236121 0.940546 0.244172
vn -0.07605768 0.6305155 0.7724412
vn 0.07605768 0.6305155 0.7724412
vn 0.2250366 -0.9736406 -0.03718159
vn 0.2327894 -0.9356321 -0.265333
vn 0.2345074 0.8804015 -0.4121887
vn 0.3294917 0.9430771 -0.04517602
vn 0.2327894 -0.9356321 -0.265333
vn 0.9790661 -0.06350066 -0.1933832
vn 0.2345074 0.8804015 -0.4121887
vn 0.2946219 -0.955507 -0.01428943
vn 0.2929473 0.956027 0.01394027
vn 0.9803909 0.06147883 0.1872269
vn 0.236121 0.940546 0.244172
vn 0.2252652 -0.8999881 0.3731983
vn -0.236121 0.940546 0.244172
vn -0.08219839 -0.1523857 0.984897
vn -0.2252652 -0.8999881 0.3731983
vn -0.07605768 0.6305155 0.7724412
vn 0.07605768 0.6305155 0.7724412
vn 0.08219839 -0.1523857 0.984897
vn 0.2252652 -0.8999881 0.3731983
vn 0.236121 0.940546 0.244172
g Clock_Swinger_0
f 3/3/3 2/2/2 1/1/1
f 4/4/4 3/3/3 1/1/1
f 7/7/7 6/6/6 5/5/5
f 8/8/8 7/7/7 5/5/5
f 11/11/11 10/10/10 9/9/9
f 10/10/10 12/12/12 9/9/9
f 10/10/10 13/13/13 12/12/12
f 13/13/13 14/14/14 12/12/12
f 13/13/13 15/15/15 14/14/14
f 15/15/15 16/16/16 14/14/14
f 15/15/15 17/17/17 16/16/16
f 17/17/17 18/18/18 16/16/16
f 17/17/17 19/19/19 18/18/18
f 19/19/19 20/20/20 18/18/18
f 19/19/19 21/21/21 20/20/20
f 21/21/21 22/22/22 20/20/20
f 25/25/25 24/24/24 23/23/23
f 24/24/24 26/26/26 23/23/23
f 24/24/24 27/27/27 26/26/26
f 27/27/27 28/28/28 26/26/26
f 27/27/27 29/29/29 28/28/28
f 29/29/29 30/30/30 28/28/28
f 29/29/29 31/31/31 30/30/30
f 31/31/31 32/32/32 30/30/30
f 31/31/31 33/33/33 32/32/32
f 33/33/33 34/34/34 32/32/32
f 37/37/37 36/36/36 35/35/35
f 36/36/36 38/38/38 35/35/35
f 36/36/36 39/39/39 38/38/38
f 39/39/39 40/40/40 38/38/38
f 39/39/39 41/41/41 40/40/40
f 41/41/41 42/42/42 40/40/40
f 41/41/41 43/43/43 42/42/42
f 43/43/43 44/44/44 42/42/42
f 43/43/43 45/45/45 44/44/44
f 45/45/45 46/46/46 44/44/44
f 45/45/45 47/47/47 46/46/46
f 47/47/47 48/48/48 46/46/46
f 51/51/51 50/50/50 49/49/49
f 52/52/52 51/51/51 49/49/49
f 55/55/55 54/54/54 53/53/53
f 54/54/54 56/56/56 53/53/53
f 54/54/54 57/57/57 56/56/56
f 57/57/57 58/58/58 56/56/56
f 57/57/57 59/59/59 58/58/58
f 59/59/59 60/60/60 58/58/58
f 63/63/63 62/62/62 61/61/61
f 62/62/62 64/64/64 61/61/61
f 64/64/64 62/62/62 65/65/65
f 62/62/62 66/66/66 65/65/65
f 65/65/65 66/66/66 67/67/67
f 68/68/68 65/65/65 67/67/67
