g CoffeeTable
v -1.145511 -0.749256 0.713976
v -1.363818 -0.749256 0.617151
v -1.363818 -0.749256 0.713976
v -1.145511 -0.749256 0.617151
v 0 -0.749256 0.713976
v 0 -0.749256 0.617151
v 1.145511 -0.749256 0.617151
v 1.145511 -0.749256 0.713976
v 1.363818 -0.749256 0.617151
v 1.363818 -0.749256 0.713976
v -1.145511 -0.749256 0.713976
v -1.363818 -0.749256 0.713976
v -1.363818 -0.374628 0.713976
v -1.145511 -0.374628 0.713976
v 0 -0.749256 0.713976
v -1.363818 0 0.713976
v 0 -0.374628 0.713976
v -1.145511 0 0.713976
v 1.145511 -0.374628 0.713976
v 1.145511 -0.749256 0.713976
v 1.363818 -0.374628 0.713976
v 1.363818 -0.749256 0.713976
v 1.363818 0 0.713976
v 1.145511 0 0.713976
v -1.145511 0.374628 0.713976
v -1.363818 0.374628 0.713976
v 0 0 0.713976
v 0 0.374628 0.713976
v 1.145511 0.374628 0.713976
v 1.363818 0.374628 0.713976
v -1.145511 0.749256 0.713976
v -1.363818 0.749256 0.713976
v 0 0.749256 0.713976
v 1.145511 0.749256 0.713976
v 1.363818 0.749256 0.713976
v -1.363818 -0.749256 0.713976
v -1.363818 -0.749256 0.617151
v -1.363818 -0.374628 0.617151
v -1.363818 -0.374628 0.713976
v -1.363818 0 0.617151
v -1.363818 0 0.713976
v -1.363818 0.374628 0.713976
v -1.363818 0.374628 0.617151
v -1.363818 0.749256 0.713976
v -1.363818 0.749256 0.617151
v -1.200156 -0.502341 0.617151
v -1.206102 -0.615039 0.185718
v -1.200156 -0.621543 0.617151
v -1.206102 -0.508842 0.185718
v -1.206102 -0.615039 0.112836
v -1.206102 -0.508842 0.112836
v -1.231911 -0.586821 -0.018699
v -1.231911 -0.537063 -0.018699
v -1.309173 -0.621543 0.617151
v -1.303227 -0.508842 0.185718
v -1.309173 -0.502341 0.617151
v -1.303227 -0.615039 0.185718
v -1.303227 -0.508842 0.112836
v -1.303227 -0.615039 0.112836
v -1.277418 -0.537063 -0.018699
v -1.277418 -0.586821 -0.018699
v -1.309173 -0.502341 0.617151
v -1.206102 -0.508842 0.185718
v -1.200156 -0.502341 0.617151
v -1.303227 -0.508842 0.185718
v -1.206102 -0.508842 0.112836
v -1.303227 -0.508842 0.112836
v -1.231911 -0.537063 -0.018699
v -1.277418 -0.537063 -0.018699
v -1.200156 -0.621543 0.617151
v -1.303227 -0.615039 0.185718
v -1.309173 -0.621543 0.617151
v -1.206102 -0.615039 0.185718
v -1.303227 -0.615039 0.112836
v -1.206102 -0.615039 0.112836
v -1.277418 -0.586821 -0.018699
v -1.231911 -0.586821 -0.018699
v -1.277418 -0.586821 -0.018699
v -1.231911 -0.586821 -0.018699
v -1.231911 -0.537063 -0.018699
v -1.277418 -0.537063 -0.018699
v 1.363818 -0.749256 0.713976
v 1.363818 -0.374628 0.617151
v 1.363818 -0.749256 0.617151
v 1.363818 -0.374628 0.713976
v 1.363818 0 0.617151
v 1.363818 0 0.713976
v 1.363818 0.374628 0.713976
v 1.363818 0.374628 0.617151
v 1.363818 0.749256 0.713976
v 1.363818 0.749256 0.617151
v 1.200156 -0.502341 0.617151
v 1.200156 -0.621543 0.617151
v 1.206102 -0.615039 0.185718
v 1.206102 -0.508842 0.185718
v 1.206102 -0.615039 0.112836
v 1.206102 -0.508842 0.112836
v 1.231911 -0.586821 -0.018699
v 1.231911 -0.537063 -0.018699
v 1.309173 -0.621543 0.617151
v 1.309173 -0.502341 0.617151
v 1.303227 -0.508842 0.185718
v 1.303227 -0.615039 0.185718
v 1.303227 -0.508842 0.112836
v 1.303227 -0.615039 0.112836
v 1.277418 -0.537063 -0.018699
v 1.277418 -0.586821 -0.018699
v 1.309173 -0.502341 0.617151
v 1.200156 -0.502341 0.617151
v 1.206102 -0.508842 0.185718
v 1.303227 -0.508842 0.185718
v 1.206102 -0.508842 0.112836
v 1.303227 -0.508842 0.112836
v 1.231911 -0.537063 -0.018699
v 1.277418 -0.537063 -0.018699
v 1.200156 -0.621543 0.617151
v 1.309173 -0.621543 0.617151
v 1.303227 -0.615039 0.185718
v 1.206102 -0.615039 0.185718
v 1.303227 -0.615039 0.112836
v 1.206102 -0.615039 0.112836
v 1.277418 -0.586821 -0.018699
v 1.231911 -0.586821 -0.018699
v 1.277418 -0.586821 -0.018699
v 1.277418 -0.537063 -0.018699
v 1.231911 -0.537063 -0.018699
v 1.231911 -0.586821 -0.018699
v -1.145511 0.749256 0.713976
v -1.363818 0.749256 0.713976
v -1.363818 0.749256 0.617151
v -1.145511 0.749256 0.617151
v 0 0.749256 0.713976
v 0 0.749256 0.617151
v 1.145511 0.749256 0.617151
v 1.145511 0.749256 0.713976
v 1.363818 0.749256 0.617151
v 1.363818 0.749256 0.713976
v -1.200156 0.502341 0.617151
v -1.200156 0.621543 0.617151
v -1.206102 0.615039 0.185718
v -1.206102 0.508842 0.185718
v -1.206102 0.615039 0.112836
v -1.206102 0.508842 0.112836
v -1.231911 0.586821 -0.018699
v -1.231911 0.537063 -0.018699
v -1.309173 0.621543 0.617151
v -1.309173 0.502341 0.617151
v -1.303227 0.508842 0.185718
v -1.303227 0.615039 0.185718
v -1.303227 0.508842 0.112836
v -1.303227 0.615039 0.112836
v -1.277418 0.537063 -0.018699
v -1.277418 0.586821 -0.018699
v -1.309173 0.502341 0.617151
v -1.200156 0.502341 0.617151
v -1.206102 0.508842 0.185718
v -1.303227 0.508842 0.185718
v -1.206102 0.508842 0.112836
v -1.303227 0.508842 0.112836
v -1.231911 0.537063 -0.018699
v -1.277418 0.537063 -0.018699
v -1.200156 0.621543 0.617151
v -1.309173 0.621543 0.617151
v -1.303227 0.615039 0.185718
v -1.206102 0.615039 0.185718
v -1.303227 0.615039 0.112836
v -1.206102 0.615039 0.112836
v -1.277418 0.586821 -0.018699
v -1.231911 0.586821 -0.018699
v -1.277418 0.586821 -0.018699
v -1.277418 0.537063 -0.018699
v -1.231911 0.537063 -0.018699
v -1.231911 0.586821 -0.018699
v 1.200156 0.502341 0.617151
v 1.206102 0.615039 0.185718
v 1.200156 0.621543 0.617151
v 1.206102 0.508842 0.185718
v 1.206102 0.615039 0.112836
v 1.206102 0.508842 0.112836
v 1.231911 0.586821 -0.018699
v 1.231911 0.537063 -0.018699
v 1.309173 0.621543 0.617151
v 1.303227 0.508842 0.185718
v 1.309173 0.502341 0.617151
v 1.303227 0.615039 0.185718
v 1.303227 0.508842 0.112836
v 1.303227 0.615039 0.112836
v 1.277418 0.537063 -0.018699
v 1.277418 0.586821 -0.018699
v 1.309173 0.502341 0.617151
v 1.206102 0.508842 0.185718
v 1.200156 0.502341 0.617151
v 1.303227 0.508842 0.185718
v 1.206102 0.508842 0.112836
v 1.303227 0.508842 0.112836
v 1.231911 0.537063 -0.018699
v 1.277418 0.537063 -0.018699
v 1.200156 0.621543 0.617151
v 1.303227 0.615039 0.185718
v 1.309173 0.621543 0.617151
v 1.206102 0.615039 0.185718
v 1.303227 0.615039 0.112836
v 1.206102 0.615039 0.112836
v 1.277418 0.586821 -0.018699
v 1.231911 0.586821 -0.018699
v 1.277418 0.586821 -0.018699
v 1.231911 0.586821 -0.018699
v 1.231911 0.537063 -0.018699
v 1.277418 0.537063 -0.018699
v -1.145511 -0.749256 0.617151
v 0 -0.749256 0.617151
v 0 -0.374628 0.617151
v 1.145511 -0.749256 0.617151
v -1.145511 -0.374628 0.617151
v 0 0 0.617151
v 1.145511 -0.374628 0.617151
v -1.200156 -0.621543 0.617151
v -1.309173 -0.621543 0.617151
v -1.363818 -0.749256 0.617151
v -1.309173 -0.502341 0.617151
v -1.363818 -0.374628 0.617151
v -1.200156 -0.502341 0.617151
v -1.145511 0 0.617151
v -1.363818 0 0.617151
v -1.363818 0.374628 0.617151
v -1.145511 0.374628 0.617151
v 1.200156 -0.621543 0.617151
v 1.309173 -0.621543 0.617151
v 1.363818 -0.749256 0.617151
v 1.309173 -0.502341 0.617151
v 1.363818 -0.374628 0.617151
v 1.200156 -0.502341 0.617151
v 1.145511 0 0.617151
v 1.363818 0 0.617151
v 1.363818 0.374628 0.617151
v 1.145511 0.374628 0.617151
v 0 0.374628 0.617151
v 1.200156 0.502341 0.617151
v 1.309173 0.502341 0.617151
v 1.363818 0.749256 0.617151
v 1.309173 0.621543 0.617151
v 1.145511 0.749256 0.617151
v 1.200156 0.621543 0.617151
v 0 0.749256 0.617151
v -1.145511 0.749256 0.617151
v -1.200156 0.621543 0.617151
v -1.309173 0.621543 0.617151
v -1.200156 0.502341 0.617151
v -1.363818 0.749256 0.617151
v -1.309173 0.502341 0.617151
vn 0 -1 0
vn 0 -1 0
vn 0 -1 0
vn 0 -1 0
vn 0 -1 0
vn 0 -1 0
vn 0 -1 0
vn 0 -1 0
vn 0 -1 0
vn 0 -1 0
vn 0 0 1
vn 0 0 1
vn 0 0 1
vn 0 0 1
vn 0 0 1
vn 0 0 1
vn 0 0 1
vn 0 0 1
vn 0 0 1
vn 0 0 1
vn 0 0 1
vn 0 0 1
vn 0 0 1
vn 0 0 1
vn 0 0 1
vn 0 0 1
vn 0 0 1
vn 0 0 1
vn 0 0 1
vn 0 0 1
vn 0 0 1
vn 0 0 1
vn 0 0 1
vn 0 0 1
vn 0 0 1
vn -1 0 0
vn -1 0 0
vn -1 0 0
vn -1 0 0
vn -1 0 0
vn -1 0 0
vn -1 0 0
vn -1 0 0
vn -1 0 0
vn -1 0 0
vn 0.9999051 0 -0.01378069
vn 0.9999292 0 -0.0119041
vn 0.9999051 0 -0.01378069
vn 0.9999292 0 -0.0119041
vn 0.9945371 0 -0.1043842
vn 0.9945372 0 -0.1043835
vn 0.6800374 -0.6156682 -0.3981228
vn 0.6800377 0.6156607 -0.3981338
vn -0.9999051 0 -0.01378069
vn -0.9999292 0 -0.0119041
vn -0.9999051 0 -0.01378069
vn -0.9999292 0 -0.0119041
vn -0.9945371 0 -0.1043838
vn -0.9945371 0 -0.1043846
vn -0.6800375 0.6156608 -0.3981341
vn -0.6800372 -0.6156682 -0.3981231
vn 0 0.9998865 -0.01506669
vn 0 0.9999154 -0.01301358
vn 0 0.9998865 -0.01506669
vn 0 0.9999154 -0.01301358
vn 0 0.9934 -0.1147021
vn 0 0.9934 -0.114702
vn 0.6800377 0.6156607 -0.3981338
vn -0.6800375 0.6156608 -0.3981341
vn 0 -0.9998864 -0.01507363
vn 0 -0.9999152 -0.01301957
vn 0 -0.9998864 -0.01507363
vn 0 -0.9999152 -0.01301957
vn 0 -0.9934013 -0.11469
vn 0 -0.9934013 -0.11469
vn -0.6800372 -0.6156682 -0.3981231
vn 0.6800374 -0.6156682 -0.3981228
vn -0.6800372 -0.6156682 -0.3981231
vn 0.6800374 -0.6156682 -0.3981228
vn 0.6800377 0.6156607 -0.3981338
vn -0.6800375 0.6156608 -0.3981341
vn 1 0 0
vn 1 0 0
vn 1 0 0
vn 1 0 0
vn 1 0 0
vn 1 0 0
vn 1 0 0
vn 1 0 0
vn 1 0 0
vn 1 0 0
vn -0.9999051 0 -0.01378069
vn -0.9999051 0 -0.01378069
vn -0.9999292 0 -0.0119041
vn -0.9999292 0 -0.0119041
vn -0.9945371 0 -0.1043842
vn -0.9945372 0 -0.1043835
vn -0.6800374 -0.6156682 -0.3981228
vn -0.6800377 0.6156607 -0.3981338
vn 0.9999051 0 -0.01378069
vn 0.9999051 0 -0.01378069
vn 0.9999292 0 -0.0119041
vn 0.9999292 0 -0.0119041
vn 0.9945371 0 -0.1043838
vn 0.9945371 0 -0.1043846
vn 0.6800375 0.6156608 -0.3981341
vn 0.6800372 -0.6156682 -0.3981231
vn 0 0.9998865 -0.01506669
vn 0 0.9998865 -0.01506669
vn 0 0.9999154 -0.01301358
vn 0 0.9999154 -0.01301358
vn 0 0.9934 -0.1147021
vn 0 0.9934 -0.114702
vn -0.6800377 0.6156607 -0.3981338
vn 0.6800375 0.6156608 -0.3981341
vn 0 -0.9998864 -0.01507363
vn 0 -0.9998864 -0.01507363
vn 0 -0.9999152 -0.01301957
vn 0 -0.9999152 -0.01301957
vn 0 -0.9934013 -0.11469
vn 0 -0.9934013 -0.11469
vn 0.6800372 -0.6156682 -0.3981231
vn -0.6800374 -0.6156682 -0.3981228
vn 0.6800372 -0.6156682 -0.3981231
vn 0.6800375 0.6156608 -0.3981341
vn -0.6800377 0.6156607 -0.3981338
vn -0.6800374 -0.6156682 -0.3981228
vn 0 1 0
vn 0 1 0
vn 0 1 0
vn 0 1 0
vn 0 1 0
vn 0 1 0
vn 0 1 0
vn 0 1 0
vn 0 1 0
vn 0 1 0
vn 0.9999051 0 -0.01378069
vn 0.9999051 0 -0.01378069
vn 0.9999292 0 -0.0119041
vn 0.9999292 0 -0.0119041
vn 0.9945371 0 -0.1043842
vn 0.9945372 0 -0.1043835
vn 0.6800374 0.6156682 -0.3981228
vn 0.6800377 -0.6156607 -0.3981338
vn -0.9999051 0 -0.01378069
vn -0.9999051 0 -0.01378069
vn -0.9999292 0 -0.0119041
vn -0.9999292 0 -0.0119041
vn -0.9945371 0 -0.1043838
vn -0.9945371 0 -0.1043846
vn -0.6800375 -0.6156608 -0.3981341
vn -0.6800372 0.6156682 -0.3981231
vn 0 -0.9998865 -0.01506669
vn 0 -0.9998865 -0.01506669
vn 0 -0.9999154 -0.01301358
vn 0 -0.9999154 -0.01301358
vn 0 -0.9934 -0.1147021
vn 0 -0.9934 -0.114702
vn 0.6800377 -0.6156607 -0.3981338
vn -0.6800375 -0.6156608 -0.3981341
vn 0 0.9998864 -0.01507363
vn 0 0.9998864 -0.01507363
vn 0 0.9999152 -0.01301957
vn 0 0.9999152 -0.01301957
vn 0 0.9934013 -0.11469
vn 0 0.9934013 -0.11469
vn -0.6800372 0.6156682 -0.3981231
vn 0.6800374 0.6156682 -0.3981228
vn -0.6800372 0.6156682 -0.3981231
vn -0.6800375 -0.6156608 -0.3981341
vn 0.6800377 -0.6156607 -0.3981338
vn 0.6800374 0.6156682 -0.3981228
vn -0.9999051 0 -0.01378069
vn -0.9999292 0 -0.0119041
vn -0.9999051 0 -0.01378069
vn -0.9999292 0 -0.0119041
vn -0.9945371 0 -0.1043842
vn -0.9945372 0 -0.1043835
vn -0.6800374 0.6156682 -0.3981228
vn -0.6800377 -0.6156607 -0.3981337
vn 0.9999051 0 -0.01378069
vn 0.9999292 0 -0.0119041
vn 0.9999051 0 -0.01378069
vn 0.9999292 0 -0.0119041
vn 0.9945371 0 -0.1043838
vn 0.9945371 0 -0.1043846
vn 0.6800375 -0.6156608 -0.3981341
vn 0.6800372 0.6156682 -0.3981231
vn 0 -0.9998865 -0.01506669
vn 0 -0.9999154 -0.01301358
vn 0 -0.9998865 -0.01506669
vn 0 -0.9999154 -0.01301358
vn 0 -0.9934 -0.1147021
vn 0 -0.9934 -0.114702
vn -0.6800377 -0.6156607 -0.3981337
vn 0.6800375 -0.6156608 -0.3981341
vn 0 0.9998864 -0.01507363
vn 0 0.9999152 -0.01301957
vn 0 0.9998864 -0.01507363
vn 0 0.9999152 -0.01301957
vn 0 0.9934013 -0.11469
vn 0 0.9934013 -0.11469
vn 0.6800372 0.6156682 -0.3981231
vn -0.6800374 0.6156682 -0.3981228
vn 0.6800372 0.6156682 -0.3981231
vn -0.6800374 0.6156682 -0.3981228
vn -0.6800377 -0.6156607 -0.3981337
vn 0.6800375 -0.6156608 -0.3981341
vn 0 0 -1
vn 0 0 -1
vn 0 0 -1
vn 0 0 -1
vn 0 0 -1
vn 0 0 -1
vn 0 0 -1
vn 0 0 -1
vn 0 0 -1
vn 0 0 -1
vn 0 0 -1
vn 0 0 -1
vn 0 0 -1
vn 0 0 -1
vn 0 0 -1
vn 0 0 -1
vn 0 0 -1
vn 0 0 -1
vn 0 0 -1
vn 0 0 -1
vn 0 0 -1
vn 0 0 -1
vn 0 0 -1
vn 0 0 -1
vn 0 0 -1
vn 0 0 -1
vn 0 0 -1
vn 0 0 -1
vn 0 0 -1
vn 0 0 -1
vn 0 0 -1
vn 0 0 -1
vn 0 0 -1
vn 0 0 -1
vn 0 0 -1
vn 0 0 -1
vn 0 0 -1
vn 0 0 -1
vn 0 0 -1
vn 0 0 -1
vn 0 0 -1
g CoffeeTable_0
f 3/3/3 2/2/2 1/1/1
f 2/2/2 4/4/4 1/1/1
f 1/1/1 4/4/4 5/5/5
f 4/4/4 6/6/6 5/5/5
f 6/6/6 7/7/7 5/5/5
f 7/7/7 8/8/8 5/5/5
f 7/7/7 9/9/9 8/8/8
f 9/9/9 10/10/10 8/8/8
f 13/13/13 12/12/12 11/11/11
f 14/14/14 13/13/13 11/11/11
f 14/14/14 11/11/11 15/15/15
f 16/16/16 13/13/13 14/14/14
f 17/17/17 14/14/14 15/15/15
f 18/18/18 16/16/16 14/14/14
f 18/18/18 14/14/14 17/17/17
f 19/19/19 17/17/17 15/15/15
f 20/20/20 19/19/19 15/15/15
f 21/21/21 19/19/19 20/20/20
f 22/22/22 21/21/21 20/20/20
f 21/21/21 23/23/23 19/19/19
f 19/19/19 24/24/24 17/17/17
f 23/23/23 24/24/24 19/19/19
f 16/16/16 18/18/18 25/25/25
f 26/26/26 16/16/16 25/25/25
f 27/27/27 18/18/18 17/17/17
f 24/24/24 27/27/27 17/17/17
f 18/18/18 27/27/27 28/28/28
f 27/27/27 24/24/24 28/28/28
f 25/25/25 18/18/18 28/28/28
f 24/24/24 23/23/23 29/29/29
f 24/24/24 29/29/29 28/28/28
f 23/23/23 30/30/30 29/29/29
f 26/26/26 25/25/25 31/31/31
f 32/32/32 26/26/26 31/31/31
f 31/31/31 25/25/25 33/33/33
f 25/25/25 28/28/28 33/33/33
f 28/28/28 29/29/29 33/33/33
f 29/29/29 34/34/34 33/33/33
f 29/29/29 30/30/30 34/34/34
f 30/30/30 35/35/35 34/34/34
f 38/38/38 37/37/37 36/36/36
f 39/39/39 38/38/38 36/36/36
f 40/40/40 38/38/38 39/39/39
f 41/41/41 40/40/40 39/39/39
f 40/40/40 41/41/41 42/42/42
f 43/43/43 40/40/40 42/42/42
f 43/43/43 42/42/42 44/44/44
f 45/45/45 43/43/43 44/44/44
f 48/48/48 47/47/47 46/46/46
f 47/47/47 49/49/49 46/46/46
f 47/47/47 50/50/50 49/49/49
f 50/50/50 51/51/51 49/49/49
f 50/50/50 52/52/52 51/51/51
f 52/52/52 53/53/53 51/51/51
f 56/56/56 55/55/55 54/54/54
f 55/55/55 57/57/57 54/54/54
f 55/55/55 58/58/58 57/57/57
f 58/58/58 59/59/59 57/57/57
f 58/58/58 60/60/60 59/59/59
f 60/60/60 61/61/61 59/59/59
f 64/64/64 63/63/63 62/62/62
f 63/63/63 65/65/65 62/62/62
f 63/63/63 66/66/66 65/65/65
f 66/66/66 67/67/67 65/65/65
f 66/66/66 68/68/68 67/67/67
f 68/68/68 69/69/69 67/67/67
f 72/72/72 71/71/71 70/70/70
f 71/71/71 73/73/73 70/70/70
f 71/71/71 74/74/74 73/73/73
f 74/74/74 75/75/75 73/73/73
f 74/74/74 76/76/76 75/75/75
f 76/76/76 77/77/77 75/75/75
f 80/80/80 79/79/79 78/78/78
f 81/81/81 80/80/80 78/78/78
f 84/84/84 83/83/83 82/82/82
f 83/83/83 85/85/85 82/82/82
f 83/83/83 86/86/86 85/85/85
f 86/86/86 87/87/87 85/85/85
f 87/87/87 86/86/86 88/88/88
f 86/86/86 89/89/89 88/88/88
f 88/88/88 89/89/89 90/90/90
f 89/89/89 91/91/91 90/90/90
f 94/94/94 93/93/93 92/92/92
f 95/95/95 94/94/94 92/92/92
f 96/96/96 94/94/94 95/95/95
f 97/97/97 96/96/96 95/95/95
f 98/98/98 96/96/96 97/97/97
f 99/99/99 98/98/98 97/97/97
f 102/102/102 101/101/101 100/100/100
f 103/103/103 102/102/102 100/100/100
f 104/104/104 102/102/102 103/103/103
f 105/105/105 104/104/104 103/103/103
f 106/106/106 104/104/104 105/105/105
f 107/107/107 106/106/106 105/105/105
f 110/110/110 109/109/109 108/108/108
f 111/111/111 110/110/110 108/108/108
f 112/112/112 110/110/110 111/111/111
f 113/113/113 112/112/112 111/111/111
f 114/114/114 112/112/112 113/113/113
f 115/115/115 114/114/114 113/113/113
f 118/118/118 117/117/117 116/116/116
f 119/119/119 118/118/118 116/116/116
f 120/120/120 118/118/118 119/119/119
f 121/121/121 120/120/120 119/119/119
f 122/122/122 120/120/120 121/121/121
f 123/123/123 122/122/122 121/121/121
f 126/126/126 125/125/125 124/124/124
f 127/127/127 126/126/126 124/124/124
f 130/130/130 129/129/129 128/128/128
f 131/131/131 130/130/130 128/128/128
f 131/131/131 128/128/128 132/132/132
f 133/133/133 131/131/131 132/132/132
f 134/134/134 133/133/133 132/132/132
f 135/135/135 134/134/134 132/132/132
f 136/136/136 134/134/134 135/135/135
f 137/137/137 136/136/136 135/135/135
f 140/140/140 139/139/139 138/138/138
f 141/141/141 140/140/140 138/138/138
f 142/142/142 140/140/140 141/141/141
f 143/143/143 142/142/142 141/141/141
f 144/144/144 142/142/142 143/143/143
f 145/145/145 144/144/144 143/143/143
f 148/148/148 147/147/147 146/146/146
f 149/149/149 148/148/148 146/146/146
f 150/150/150 148/148/148 149/149/149
f 151/151/151 150/150/150 149/149/149
f 152/152/152 150/150/150 151/151/151
f 153/153/153 152/152/152 151/151/151
f 156/156/156 155/155/155 154/154/154
f 157/157/157 156/156/156 154/154/154
f 158/158/158 156/156/156 157/157/157
f 159/159/159 158/158/158 157/157/157
f 160/160/160 158/158/158 159/159/159
f 161/161/161 160/160/160 159/159/159
f 164/164/164 163/163/163 162/162/162
f 165/165/165 164/164/164 162/162/162
f 166/166/166 164/164/164 165/165/165
f 167/167/167 166/166/166 165/165/165
f 168/168/168 166/166/166 167/167/167
f 169/169/169 168/168/168 167/167/167
f 172/172/172 171/171/171 170/170/170
f 173/173/173 172/172/172 170/170/170
f 176/176/176 175/175/175 174/174/174
f 175/175/175 177/177/177 174/174/174
f 175/175/175 178/178/178 177/177/177
f 178/178/178 179/179/179 177/177/177
f 178/178/178 180/180/180 179/179/179
f 180/180/180 181/181/181 179/179/179
f 184/184/184 183/183/183 182/182/182
f 183/183/183 185/185/185 182/182/182
f 183/183/183 186/186/186 185/185/185
f 186/186/186 187/187/187 185/185/185
f 186/186/186 188/188/188 187/187/187
f 188/188/188 189/189/189 187/187/187
f 192/192/192 191/191/191 190/190/190
f 191/191/191 193/193/193 190/190/190
f 191/191/191 194/194/194 193/193/193
f 194/194/194 195/195/195 193/193/193
f 194/194/194 196/196/196 195/195/195
f 196/196/196 197/197/197 195/195/195
f 200/200/200 199/199/199 198/198/198
f 199/199/199 201/201/201 198/198/198
f 199/199/199 202/202/202 201/201/201
f 202/202/202 203/203/203 201/201/201
f 202/202/202 204/204/204 203/203/203
f 204/204/204 205/205/205 203/203/203
f 208/208/208 207/207/207 206/206/206
f 209/209/209 208/208/208 206/206/206
f 212/212/212 211/211/211 210/210/210
f 211/211/211 212/212/212 213/213/213
f 214/214/214 212/212/212 210/210/210
f 215/215/215 212/212/212 214/214/214
f 212/212/212 216/216/216 213/213/213
f 212/212/212 215/215/215 216/216/216
f 214/214/214 210/210/210 217/217/217
f 217/217/217 210/210/210 218/218/218
f 210/210/210 219/219/219 218/218/218
f 218/218/218 219/219/219 220/220/220
f 219/219/219 221/221/221 220/220/220
f 222/222/222 214/214/214 217/217/217
f 220/220/220 221/221/221 222/222/222
f 221/221/221 214/214/214 222/222/222
f 223/223/223 214/214/214 221/221/221
f 223/223/223 215/215/215 214/214/214
f 224/224/224 223/223/223 221/221/221
f 223/223/223 224/224/224 225/225/225
f 215/215/215 223/223/223 226/226/226
f 226/226/226 223/223/223 225/225/225
f 213/213/213 216/216/216 227/227/227
f 213/213/213 227/227/227 228/228/228
f 229/229/229 213/213/213 228/228/228
f 229/229/229 228/228/228 230/230/230
f 231/231/231 229/229/229 230/230/230
f 216/216/216 232/232/232 227/227/227
f 231/231/231 230/230/230 232/232/232
f 216/216/216 231/231/231 232/232/232
f 216/216/216 233/233/233 231/231/231
f 215/215/215 233/233/233 216/216/216
f 233/233/233 234/234/234 231/231/231
f 234/234/234 233/233/233 235/235/235
f 233/233/233 215/215/215 236/236/236
f 233/233/233 236/236/236 235/235/235
f 237/237/237 215/215/215 226/226/226
f 215/215/215 237/237/237 236/236/236
f 235/235/235 236/236/236 238/238/238
f 239/239/239 235/235/235 238/238/238
f 240/240/240 235/235/235 239/239/239
f 241/241/241 240/240/240 239/239/239
f 242/242/242 240/240/240 241/241/241
f 236/236/236 237/237/237 242/242/242
f 238/238/238 236/236/236 243/243/243
f 243/243/243 242/242/242 241/241/241
f 236/236/236 242/242/242 243/243/243
f 237/237/237 244/244/244 242/242/242
f 244/244/244 237/237/237 245/245/245
f 237/237/237 226/226/226 245/245/245
f 245/245/245 226/226/226 246/246/246
f 245/245/245 246/246/246 247/247/247
f 226/226/226 248/248/248 246/246/246
f 249/249/249 245/245/245 247/247/247
f 226/226/226 225/225/225 248/248/248
f 249/249/249 247/247/247 250/250/250
f 225/225/225 250/250/250 248/248/248
f 225/225/225 249/249/249 250/250/250
