g CoffeeMug_Inside
v 0.251633 -0.040476 0.012823
v 0.213371 0.131128 0.070877
v 0.213371 0.131128 0.012823
v 0.251633 -0.040476 0.070877
v 0.251633 -0.040476 0.199439
v 0.213371 0.131128 0.199439
v 0.212982 0.130607 0.322494
v 0.179279 -0.200716 0.070877
v 0.179279 -0.200716 0.012823
v 0.179279 -0.200716 0.199439
v 0.17889 -0.201237 0.322494
v 0.251244 -0.040997 0.322494
v 0.250076 -0.04256 0.364028
v 0.211815 0.129044 0.364028
v 0.177723 -0.2028 0.364028
v -0.192383 0.002897 0.364028
v -0.118862 0.164699 0.322494
v -0.120029 0.163136 0.364028
v -0.191215 0.004459 0.322494
v -0.190826 0.00498 0.199439
v -0.118473 0.16522 0.199439
v -0.118473 0.16522 0.070877
v -0.152954 -0.167145 0.322494
v -0.154121 -0.168707 0.364028
v -0.152565 -0.166624 0.199439
v -0.152565 -0.166624 0.070877
v -0.190826 0.00498 0.070877
v -0.190826 0.00498 0.012823
v -0.118473 0.16522 0.012823
v -0.152565 -0.166624 0.012823
v 0.006119 -0.241061 0.364028
v -0.152954 -0.167145 0.322494
v -0.154121 -0.168707 0.364028
v 0.007286 -0.239498 0.322494
v 0.007675 -0.238977 0.199439
v -0.152565 -0.166624 0.199439
v -0.152565 -0.166624 0.070877
v 0.17889 -0.201237 0.322494
v 0.177723 -0.2028 0.364028
v 0.179279 -0.200716 0.199439
v 0.179279 -0.200716 0.070877
v 0.007675 -0.238977 0.070877
v 0.007675 -0.238977 0.012823
v -0.152565 -0.166624 0.012823
v 0.179279 -0.200716 0.012823
v 0.051575 0.201398 0.364028
v 0.212982 0.130607 0.322494
v 0.211815 0.129044 0.364028
v 0.052742 0.20296 0.322494
v 0.053131 0.203481 0.199439
v 0.213371 0.131128 0.199439
v 0.213371 0.131128 0.070877
v -0.118862 0.164699 0.322494
v -0.120029 0.163136 0.364028
v -0.118473 0.16522 0.199439
v -0.118473 0.16522 0.070877
v 0.053131 0.203481 0.070877
v 0.053131 0.203481 0.012823
v 0.213371 0.131128 0.012823
v -0.118473 0.16522 0.012823
v 0.251633 -0.040476 0.012823
v 0.140682 -0.15328 0.000156
v 0.179279 -0.200716 0.012823
v 0.007675 -0.238977 0.012823
v 0.196325 -0.034794 -0.004277
v 0.030403 -0.017748 -0.009977
v 0.165935 0.092531 0.000156
v 0.213371 0.131128 0.012823
v 0.053131 0.203481 0.012823
v 0.013357 -0.18367 -0.004277
v -0.105129 -0.128026 0.000156
v -0.152565 -0.166624 0.012823
v -0.190826 0.00498 0.012823
v 0.047449 0.148174 -0.004277
v -0.079875 0.117784 0.000156
v -0.118473 0.16522 0.012823
v -0.135519 -0.000702 -0.004277
v 0.250076 -0.04256 0.364028
v 0.163514 0.089289 0.364458
v 0.211815 0.129044 0.364028
v 0.051575 0.201398 0.364028
v 0.193602 -0.03844 0.364608
v 0.027291 -0.021915 0.364802
v 0.138261 -0.156521 0.364458
v 0.177723 -0.2028 0.364028
v 0.006119 -0.241061 0.364028
v 0.044726 0.144528 0.364608
v -0.082296 0.114543 0.364458
v -0.120029 0.163136 0.364028
v -0.192383 0.002897 0.364028
v 0.010634 -0.187316 0.364608
v -0.10755 -0.131268 0.364458
v -0.154121 -0.168707 0.364028
v -0.138243 -0.004348 0.364608
vt 0.5 1
vt 0.75 1
vt 0.75 1
vt 0.5 1
vt 0.5 1
vt 0.75 1
vt 0.75 1
vt 0.125 1
vt 0.125 1
vt 0.125 1
vt 0.125 1
vt 0.5 1
vt 0.5 1
vt 0.75 1
vt 0.125 1
vt 0 1
vt 0.125 1
vt 0.125 1
vt 0 1
vt 0 1
vt 0.125 1
vt 0.125 1
vt 0 1
vt 0 1
vt 0 1
vt 0 1
vt 0 1
vt 0 1
vt 0.125 1
vt 0 1
vt 0 1
vt 0 1
vt 0 1
vt 0 1
vt 0 1
vt 0 1
vt 0 1
vt 0.125 1
vt 0.125 1
vt 0.125 1
vt 0.125 1
vt 0 1
vt 0 1
vt 0 1
vt 0.125 1
vt 0.5 1
vt 0.75 1
vt 0.75 1
vt 0.5 1
vt 0.5 1
vt 0.75 1
vt 0.75 1
vt 0.125 1
vt 0.125 1
vt 0.125 1
vt 0.125 1
vt 0.5 1
vt 0.5 1
vt 0.75 1
vt 0.125 1
vt 0.5 1
vt 0.194444 1
vt 0.125 1
vt 0 1
vt 0.4375 1
vt 0.25 1
vt 0.583333 1
vt 0.75 1
vt 0.5 1
vt 0.0625 1
vt 0.027778 1
vt 0 1
vt 0 1
vt 0.4375 1
vt 0.194444 1
vt 0.125 1
vt 0.0625 1
vt 0.5 1
vt 0.583333 1
vt 0.75 1
vt 0.5 1
vt 0.4375 1
vt 0.25 1
vt 0.194444 1
vt 0.125 1
vt 0 1
vt 0.4375 1
vt 0.194444 1
vt 0.125 1
vt 0 1
vt 0.0625 1
vt 0.027778 1
vt 0 1
vt 0.0625 1
vn 0.8153949 -0.08376949 -0.572812
vn 0.7756673 0.631142 0
vn 0.6251164 0.5086421 -0.592041
vn 0.9947642 -0.1021971 0
vn 0.9947633 -0.102197 0.001326243
vn 0.7756649 0.6311401 0.002506001
vn 0.7755767 0.6310675 0.01532276
vn 0.6311386 -0.7756701 0
vn 0.5086396 -0.6251186 -0.5920409
vn 0.6311384 -0.7756699 -0.0006303939
vn 0.6311341 -0.7756642 -0.003853164
vn 0.9947314 -0.1021938 0.008113066
vn 0.6308428 -0.06480966 0.7731993
vn 0.4664609 0.3795463 0.7989736
vn 0.3984593 -0.4897059 0.7755116
vn -0.9944749 0.1021675 -0.02410945
vn -0.6311352 0.7756633 0.003850762
vn -0.3907096 0.4801818 0.785348
vn -0.9947314 0.1021938 -0.008113084
vn -0.9947633 0.1021971 -0.001326284
vn -0.6311399 0.7756687 0.0006303735
vn -0.6311401 0.7756689 0
vn -0.7755778 -0.631066 -0.01532205
vn -0.7748656 -0.6304867 -0.04549569
vn -0.7756664 -0.6311381 -0.002506014
vn -0.7756689 -0.6311401 0
vn -0.9947642 0.1021971 0
vn -0.8153964 0.08376996 -0.5728101
vn -0.5086405 0.6251172 -0.5920417
vn -0.6251172 -0.5086405 -0.5920416
vn -0.1021157 -0.9939572 -0.04026787
vn -0.7755778 -0.631066 -0.01532205
vn -0.7748656 -0.6304867 -0.04549569
vn -0.1021881 -0.9946727 -0.01355901
vn -0.1021969 -0.9947618 -0.002217754
vn -0.7756664 -0.6311381 -0.002506014
vn -0.7756689 -0.6311401 0
vn 0.6311341 -0.7756642 -0.003853164
vn 0.3984593 -0.4897059 0.7755116
vn 0.6311384 -0.7756699 -0.0006303939
vn 0.6311386 -0.7756701 0
vn -0.1021971 -0.9947642 0
vn -0.08376995 -0.8153963 -0.5728101
vn -0.6251172 -0.5086405 -0.5920416
vn 0.5086396 -0.6251186 -0.5920409
vn 0.06393165 0.6222963 0.7801667
vn 0.7755767 0.6310675 0.01532276
vn 0.4664609 0.3795463 0.7989736
vn 0.1021878 0.9946727 0.01355744
vn 0.1021969 0.9947618 0.002217766
vn 0.7756649 0.6311401 0.002506001
vn 0.7756673 0.631142 0
vn -0.6311352 0.7756633 0.003850762
vn -0.3907096 0.4801818 0.785348
vn -0.6311399 0.7756687 0.0006303735
vn -0.6311401 0.7756689 0
vn 0.1021971 0.9947642 0
vn 0.08376984 0.8153977 -0.5728081
vn 0.6251164 0.5086421 -0.592041
vn -0.5086405 0.6251172 -0.5920417
vn 0.8153949 -0.08376949 -0.572812
vn 0.09055973 -0.1112978 -0.9896523
vn 0.5086396 -0.6251186 -0.5920409
vn -0.08376995 -0.8153963 -0.5728101
vn 0.1014521 -0.01042263 -0.9947858
vn 0 0 -1
vn 0.1112975 0.09055994 -0.9896523
vn 0.6251164 0.5086421 -0.592041
vn 0.08376984 0.8153977 -0.5728081
vn -0.01042281 -0.1014524 -0.9947858
vn -0.1112978 -0.09055992 -0.9896523
vn -0.6251172 -0.5086405 -0.5920416
vn -0.8153964 0.08376996 -0.5728101
vn 0.01042268 0.1014524 -0.9947858
vn -0.09055992 0.1112978 -0.9896523
vn -0.5086405 0.6251172 -0.5920417
vn -0.1014524 0.01042282 -0.9947858
vn 0.6308428 -0.06480966 0.7731993
vn 0.003755796 0.003055981 0.9999883
vn 0.4664609 0.3795463 0.7989736
vn 0.06393165 0.6222963 0.7801667
vn 0.00344031 -0.0003534387 0.999994
vn 0 0 1
vn 0.003117546 -0.003831452 0.9999878
vn 0.3984593 -0.4897059 0.7755116
vn -0.0009116289 -0.00887353 0.9999602
vn 0.0003520326 0.003426576 0.999994
vn -0.003092513 0.003800704 0.9999881
vn -0.3907096 0.4801818 0.785348
vn -0.00878277 0.00090231 0.999961
vn -0.0003591669 -0.003496035 0.9999938
vn -0.00387821 -0.003155604 0.9999875
vn -0.006869809 -0.00558979 0.9999608
vn -0.003481849 0.000357711 0.9999939
g CoffeeMug_Inside_0
f 3/3/3 2/2/2 1/1/1
f 2/2/2 4/4/4 1/1/1
f 4/4/4 2/2/2 5/5/5
f 2/2/2 6/6/6 5/5/5
f 6/6/6 7/7/7 5/5/5
f 4/4/4 8/8/8 1/1/1
f 8/8/8 4/4/4 5/5/5
f 8/8/8 9/9/9 1/1/1
f 10/10/10 8/8/8 5/5/5
f 11/11/11 10/10/10 5/5/5
f 7/7/7 12/12/12 5/5/5
f 12/12/12 11/11/11 5/5/5
f 12/12/12 7/7/7 13/13/13
f 11/11/11 12/12/12 13/13/13
f 7/7/7 14/14/14 13/13/13
f 15/15/15 11/11/11 13/13/13
f 18/18/18 17/17/17 16/16/16
f 17/17/17 19/19/19 16/16/16
f 19/19/19 17/17/17 20/20/20
f 17/17/17 21/21/21 20/20/20
f 21/21/21 22/22/22 20/20/20
f 19/19/19 23/23/23 16/16/16
f 23/23/23 19/19/19 20/20/20
f 23/23/23 24/24/24 16/16/16
f 25/25/25 23/23/23 20/20/20
f 26/26/26 25/25/25 20/20/20
f 22/22/22 27/27/27 20/20/20
f 27/27/27 26/26/26 20/20/20
f 27/27/27 22/22/22 28/28/28
f 26/26/26 27/27/27 28/28/28
f 22/22/22 29/29/29 28/28/28
f 30/30/30 26/26/26 28/28/28
f 33/33/33 32/32/32 31/31/31
f 32/32/32 34/34/34 31/31/31
f 34/34/34 32/32/32 35/35/35
f 32/32/32 36/36/36 35/35/35
f 36/36/36 37/37/37 35/35/35
f 34/34/34 38/38/38 31/31/31
f 38/38/38 34/34/34 35/35/35
f 38/38/38 39/39/39 31/31/31
f 40/40/40 38/38/38 35/35/35
f 41/41/41 40/40/40 35/35/35
f 37/37/37 42/42/42 35/35/35
f 42/42/42 41/41/41 35/35/35
f 42/42/42 37/37/37 43/43/43
f 41/41/41 42/42/42 43/43/43
f 37/37/37 44/44/44 43/43/43
f 45/45/45 41/41/41 43/43/43
f 48/48/48 47/47/47 46/46/46
f 47/47/47 49/49/49 46/46/46
f 49/49/49 47/47/47 50/50/50
f 47/47/47 51/51/51 50/50/50
f 51/51/51 52/52/52 50/50/50
f 49/49/49 53/53/53 46/46/46
f 53/53/53 49/49/49 50/50/50
f 53/53/53 54/54/54 46/46/46
f 55/55/55 53/53/53 50/50/50
f 56/56/56 55/55/55 50/50/50
f 52/52/52 57/57/57 50/50/50
f 57/57/57 56/56/56 50/50/50
f 57/57/57 52/52/52 58/58/58
f 56/56/56 57/57/57 58/58/58
f 52/52/52 59/59/59 58/58/58
f 60/60/60 56/56/56 58/58/58
f 63/63/63 62/62/62 61/61/61
f 62/62/62 63/63/63 64/64/64
f 62/62/62 65/65/65 61/61/61
f 65/65/65 62/62/62 66/66/66
f 65/65/65 67/67/67 61/61/61
f 67/67/67 65/65/65 66/66/66
f 67/67/67 68/68/68 61/61/61
f 68/68/68 67/67/67 69/69/69
f 70/70/70 62/62/62 64/64/64
f 62/62/62 70/70/70 66/66/66
f 71/71/71 70/70/70 64/64/64
f 70/70/70 71/71/71 66/66/66
f 72/72/72 71/71/71 64/64/64
f 71/71/71 72/72/72 73/73/73
f 67/67/67 74/74/74 69/69/69
f 74/74/74 67/67/67 66/66/66
f 74/74/74 75/75/75 69/69/69
f 75/75/75 74/74/74 66/66/66
f 75/75/75 76/76/76 69/69/69
f 76/76/76 75/75/75 73/73/73
f 71/71/71 77/77/77 66/66/66
f 77/77/77 71/71/71 73/73/73
f 77/77/77 75/75/75 66/66/66
f 75/75/75 77/77/77 73/73/73
f 80/80/80 79/79/79 78/78/78
f 79/79/79 80/80/80 81/81/81
f 79/79/79 82/82/82 78/78/78
f 82/82/82 79/79/79 83/83/83
f 82/82/82 84/84/84 78/78/78
f 84/84/84 82/82/82 83/83/83
f 84/84/84 85/85/85 78/78/78
f 85/85/85 84/84/84 86/86/86
f 87/87/87 79/79/79 81/81/81
f 79/79/79 87/87/87 83/83/83
f 88/88/88 87/87/87 81/81/81
f 87/87/87 88/88/88 83/83/83
f 89/89/89 88/88/88 81/81/81
f 88/88/88 89/89/89 90/90/90
f 84/84/84 91/91/91 86/86/86
f 91/91/91 84/84/84 83/83/83
f 91/91/91 92/92/92 86/86/86
f 92/92/92 91/91/91 83/83/83
f 92/92/92 93/93/93 86/86/86
f 93/93/93 92/92/92 90/90/90
f 94/94/94 88/88/88 90/90/90
f 88/88/88 94/94/94 83/83/83
f 92/92/92 94/94/94 90/90/90
f 94/94/94 92/92/92 83/83/83
