g CoffeePlant
v 0 -0.036407 1.229687
v -0.027305 -0.027305 1.229687
v -0.023786 -0.023786 1.821015
v -0.028774 -0.028774 0.397315
v -0.036407 0 1.229687
v 0 -0.035314 2.027979
v 0 0 2.294076
v -0.035314 0 2.027979
v 0.023786 -0.023786 1.821015
v -0.023786 0.023786 1.821015
v 0 -0.038365 0.397315
v 0.028774 -0.028774 0.397315
v 0 -0.076277 0.028978
v 0.027305 -0.027305 1.229687
v 0.036407 0 1.229687
v 0.035314 0 2.027979
v 0.023786 0.023786 1.821015
v 0 0.035314 2.027979
v 0 0.036407 1.229687
v -0.027305 0.027305 1.229687
v -0.028774 0.028774 0.397315
v 0.027305 0.027305 1.229687
v 0.028774 0.028774 0.397315
v 0.038365 0 0.397315
v 0.076277 0 0.028978
v -0.038365 0 0.397315
v -0.076277 0 0.028978
v 0 0.038365 0.397315
v 0 0.076277 0.028978
v 0.057208 -0.057208 0.028978
v -0.057208 -0.057208 0.028978
v 0.057208 0.057208 0.028978
v -0.057208 0.057208 0.028978
v 0.054796 -0.054796 -0.046755
v -0.054796 -0.054796 -0.046755
v 0.054796 0.054796 -0.046755
v -0.054796 0.054796 -0.046755
v 0.085152 0 -0.073262
v 0 0 -0.107342
v 0 -0.085152 -0.073262
v -0.085152 0 -0.073262
v 0 0.085152 -0.073262
vn 0 -0.9999949 0.003225695
vn -0.7071028 -0.7071028 0.003325781
vn -0.7070936 -0.7070936 0.006093033
vn -0.7063462 -0.7063462 0.04636878
vn -0.9999949 0 0.003225696
vn 0 -0.9957517 0.09207837
vn 0 0 1
vn -0.9957517 0 0.09207838
vn 0.7070936 -0.7070936 0.006093032
vn -0.7070936 0.7070936 0.006093032
vn 0 -0.9990546 0.04347269
vn 0.7063462 -0.7063462 0.04636878
vn 0 -0.9963977 0.08480249
vn 0.7071028 -0.7071028 0.003325781
vn 0.9999949 0 0.003225696
vn 0.9957517 0 0.09207837
vn 0.7070936 0.7070936 0.006093032
vn 0 0.9957517 0.09207837
vn 0 0.9999949 0.003225696
vn -0.7071029 0.7071028 0.003325781
vn -0.7063462 0.7063462 0.04636879
vn 0.7071028 0.7071029 0.003325781
vn 0.7063462 0.7063462 0.04636879
vn 0.9990546 0 0.04347268
vn 0.9963977 0 0.08480249
vn -0.9990546 0 0.04347268
vn -0.9963977 0 0.08480249
vn 0 0.9990546 0.04347268
vn 0 0.9963977 0.08480248
vn 0.7043276 -0.7043276 0.08857345
vn -0.7043276 -0.7043276 0.08857345
vn 0.7043276 0.7043276 0.08857345
vn -0.7043276 0.7043276 0.08857345
vn 0.6690695 -0.6690695 -0.3235617
vn -0.6690695 -0.6690695 -0.3235617
vn 0.6690695 0.6690695 -0.3235618
vn -0.6690695 0.6690694 -0.3235617
vn 0.8358343 0 -0.5489818
vn 0 0 -1
vn 0 -0.8358343 -0.5489818
vn -0.8358343 0 -0.5489818
vn 0 0.8358343 -0.5489818
g CoffeePlant_0
f 3/3/3 2/2/2 1/1/1
f 2/2/2 4/4/4 1/1/1
f 2/2/2 3/3/3 5/5/5
f 4/4/4 2/2/2 5/5/5
f 6/6/6 3/3/3 1/1/1
f 3/3/3 6/6/6 7/7/7
f 3/3/3 8/8/8 5/5/5
f 8/8/8 3/3/3 7/7/7
f 9/9/9 6/6/6 1/1/1
f 6/6/6 9/9/9 7/7/7
f 8/8/8 10/10/10 5/5/5
f 10/10/10 8/8/8 7/7/7
f 4/4/4 11/11/11 1/1/1
f 11/11/11 12/12/12 1/1/1
f 11/11/11 4/4/4 13/13/13
f 12/12/12 11/11/11 13/13/13
f 14/14/14 9/9/9 1/1/1
f 12/12/12 14/14/14 1/1/1
f 9/9/9 14/14/14 15/15/15
f 14/14/14 12/12/12 15/15/15
f 9/9/9 16/16/16 7/7/7
f 16/16/16 9/9/9 15/15/15
f 16/16/16 17/17/17 7/7/7
f 17/17/17 16/16/16 15/15/15
f 18/18/18 10/10/10 7/7/7
f 17/17/17 18/18/18 7/7/7
f 10/10/10 18/18/18 19/19/19
f 18/18/18 17/17/17 19/19/19
f 10/10/10 20/20/20 5/5/5
f 20/20/20 10/10/10 19/19/19
f 20/20/20 21/21/21 5/5/5
f 21/21/21 20/20/20 19/19/19
f 22/22/22 17/17/17 15/15/15
f 17/17/17 22/22/22 19/19/19
f 23/23/23 22/22/22 15/15/15
f 22/22/22 23/23/23 19/19/19
f 12/12/12 24/24/24 15/15/15
f 24/24/24 23/23/23 15/15/15
f 24/24/24 12/12/12 25/25/25
f 23/23/23 24/24/24 25/25/25
f 21/21/21 26/26/26 5/5/5
f 26/26/26 21/21/21 27/27/27
f 26/26/26 4/4/4 5/5/5
f 4/4/4 26/26/26 27/27/27
f 23/23/23 28/28/28 19/19/19
f 28/28/28 21/21/21 19/19/19
f 28/28/28 23/23/23 29/29/29
f 21/21/21 28/28/28 29/29/29
f 12/12/12 30/30/30 25/25/25
f 30/30/30 12/12/12 13/13/13
f 31/31/31 4/4/4 27/27/27
f 4/4/4 31/31/31 13/13/13
f 23/23/23 32/32/32 29/29/29
f 32/32/32 23/23/23 25/25/25
f 21/21/21 33/33/33 27/27/27
f 33/33/33 21/21/21 29/29/29
f 30/30/30 34/34/34 25/25/25
f 34/34/34 30/30/30 13/13/13
f 31/31/31 35/35/35 13/13/13
f 35/35/35 31/31/31 27/27/27
f 36/36/36 32/32/32 25/25/25
f 32/32/32 36/36/36 29/29/29
f 33/33/33 37/37/37 27/27/27
f 37/37/37 33/33/33 29/29/29
f 34/34/34 38/38/38 25/25/25
f 38/38/38 36/36/36 25/25/25
f 38/38/38 34/34/34 39/39/39
f 36/36/36 38/38/38 39/39/39
f 40/40/40 34/34/34 13/13/13
f 35/35/35 40/40/40 13/13/13
f 34/34/34 40/40/40 39/39/39
f 40/40/40 35/35/35 39/39/39
f 41/41/41 35/35/35 27/27/27
f 37/37/37 41/41/41 27/27/27
f 35/35/35 41/41/41 39/39/39
f 41/41/41 37/37/37 39/39/39
f 36/36/36 42/42/42 29/29/29
f 42/42/42 36/36/36 39/39/39
f 42/42/42 37/37/37 29/29/29
f 37/37/37 42/42/42 39/39/39
