g CopperFencePost
v 0.151104 0.168256 1.814326
v 0.225174 0.250735 1.839848
v -0.250735 0.225174 1.839848
v -0.168256 0.151104 1.814326
v -0.225174 -0.250735 1.839848
v -0.225174 -0.250735 1.980311
v 0.250735 -0.225174 1.980311
v 0.250735 -0.225174 1.839848
v 0.168256 -0.151104 1.814326
v 0.250735 -0.225174 1.839848
v 0.225174 0.250735 1.839848
v 0.151104 0.168256 1.814326
v -0.168256 0.151104 1.814326
v -0.250735 0.225174 1.839848
v -0.225174 -0.250735 1.839848
v -0.151104 -0.168256 1.814326
v -0.151104 -0.168256 1.814326
v -0.225174 -0.250735 1.839848
v 0.250735 -0.225174 1.839848
v 0.168256 -0.151104 1.814326
v -0.225174 -0.250735 1.980311
v -0.250735 0.225174 1.980311
v 0.225174 0.250735 1.980311
v 0.250735 -0.225174 1.980311
v 0.225174 0.250735 1.839848
v 0.225174 0.250735 1.980311
v -0.250735 0.225174 1.980311
v -0.250735 0.225174 1.839848
v 0.250735 -0.225174 1.839848
v 0.250735 -0.225174 1.980311
v 0.225174 0.250735 1.980311
v 0.225174 0.250735 1.839848
v -0.250735 0.225174 1.839848
v -0.250735 0.225174 1.980311
v -0.225174 -0.250735 1.980311
v -0.225174 -0.250735 1.839848
v 0.151104 -0.168256 -0.014902
v -0.168256 -0.151104 -0.014902
v -0.151104 -0.168256 1.814326
v 0.168256 -0.151104 1.814326
v -0.151104 0.168256 -0.014902
v 0.168256 0.151104 -0.014902
v 0.151104 0.168256 1.814326
v -0.168256 0.151104 1.814326
v -0.168256 -0.151104 -0.014902
v -0.151104 0.168256 -0.014902
v -0.168256 0.151104 1.814326
v -0.151104 -0.168256 1.814326
v 0.168256 0.151104 -0.014902
v 0.151104 -0.168256 -0.014902
v 0.168256 -0.151104 1.814326
v 0.151104 0.168256 1.814326
vt 0.456759 0.604714
vt 0.465993 0.619392
vt 0.380245 0.619392
vt 0.390527 0.604714
vt 0.38485 0.619392
vt 0.38485 0.700175
vt 0.470598 0.700175
vt 0.470598 0.619392
vt 0.394601 0.611136
vt 0.385413 0.624812
vt 0.470733 0.624812
vt 0.460502 0.611136
vt 0.456962 0.611136
vt 0.46615 0.624812
vt 0.38083 0.624812
vt 0.391061 0.611136
vt 0.394084 0.604714
vt 0.38485 0.619392
vt 0.470598 0.619392
vt 0.460316 0.604714
vt 0.381908 0.609916
vt 0.381908 0.694771
vt 0.466763 0.694771
vt 0.466763 0.609916
vt 0.465993 0.619392
vt 0.465993 0.700175
vt 0.380245 0.700175
vt 0.380245 0.619392
vt 0.385413 0.624812
vt 0.385413 0.700077
vt 0.470733 0.700077
vt 0.470733 0.624812
vt 0.46615 0.624812
vt 0.46615 0.700077
vt 0.38083 0.700077
vt 0.38083 0.624812
vt 0.8523 0.738089
vt 0.777498 0.738089
vt 0.777498 0.980363
vt 0.8523 0.980363
vt 0.777498 0.738089
vt 0.8523 0.738089
vt 0.8523 0.980363
vt 0.777498 0.980363
vt 0.775756 0.732389
vt 0.857524 0.732389
vt 0.852794 0.980936
vt 0.771026 0.980936
vt 0.852794 0.732389
vt 0.771026 0.732389
vt 0.775756 0.980936
vt 0.857524 0.980936
vn 0.1499079 0.1669236 -0.9745072
vn 0.1499064 0.1669249 -0.9745072
vn -0.1669249 0.1499064 -0.9745072
vn -0.1669236 0.1499079 -0.9745072
vn 0.05363259 -0.9985607 0
vn 0.05363259 -0.9985607 0
vn 0.05363259 -0.9985607 0
vn 0.05363259 -0.9985607 0
vn 0.1669236 -0.1499079 -0.9745072
vn 0.1669249 -0.1499064 -0.9745072
vn 0.1499064 0.1669249 -0.9745072
vn 0.1499079 0.1669236 -0.9745072
vn -0.1669236 0.1499079 -0.9745072
vn -0.1669249 0.1499064 -0.9745072
vn -0.1499064 -0.1669249 -0.9745072
vn -0.1499079 -0.1669236 -0.9745072
vn -0.1499079 -0.1669236 -0.9745072
vn -0.1499064 -0.1669249 -0.9745072
vn 0.1669249 -0.1499064 -0.9745072
vn 0.1669236 -0.1499079 -0.9745072
vn 0 0 1
vn 0 0 1
vn 0 0 1
vn 0 0 1
vn -0.05363259 0.9985607 0
vn -0.05363259 0.9985607 0
vn -0.05363259 0.9985607 0
vn -0.05363259 0.9985607 0
vn 0.9985607 0.05363259 0
vn 0.9985607 0.05363259 0
vn 0.9985607 0.05363259 0
vn 0.9985607 0.05363259 0
vn -0.9985607 -0.05363259 0
vn -0.9985607 -0.05363259 0
vn -0.9985607 -0.05363259 0
vn -0.9985607 -0.05363259 0
vn 0 -1 0
vn 0 -1 0
vn 0 -1 0
vn 0 -1 0
vn 0 1 0
vn 0 1 0
vn 0 1 0
vn 0 1 0
vn -1 0 0
vn -1 0 0
vn -1 0 0
vn -1 0 0
vn 1 0 0
vn 1 0 0
vn 1 0 0
vn 1 0 0
g CopperFencePost_0
f 3/3/3 2/2/2 1/1/1
f 4/4/4 3/3/3 1/1/1
f 7/7/7 6/6/6 5/5/5
f 8/8/8 7/7/7 5/5/5
f 11/11/11 10/10/10 9/9/9
f 12/12/12 11/11/11 9/9/9
f 15/15/15 14/14/14 13/13/13
f 16/16/16 15/15/15 13/13/13
f 19/19/19 18/18/18 17/17/17
f 20/20/20 19/19/19 17/17/17
f 23/23/23 22/22/22 21/21/21
f 24/24/24 23/23/23 21/21/21
f 27/27/27 26/26/26 25/25/25
f 28/28/28 27/27/27 25/25/25
f 31/31/31 30/30/30 29/29/29
f 32/32/32 31/31/31 29/29/29
f 35/35/35 34/34/34 33/33/33
f 36/36/36 35/35/35 33/33/33
g CopperFencePost_1
f 39/39/39 38/38/38 37/37/37
f 40/40/40 39/39/39 37/37/37
f 43/43/43 42/42/42 41/41/41
f 44/44/44 43/43/43 41/41/41
f 47/47/47 46/46/46 45/45/45
f 48/48/48 47/47/47 45/45/45
f 51/51/51 50/50/50 49/49/49
f 52/52/52 51/51/51 49/49/49
