g Coral
v -0.561843 0.465491 0.162349
v -0.365591 0.370086 -0.01903
v -0.407146 0.631199 0.164373
v -0.38227 0.140153 -0.028536
v -0.13828 0.385017 -0.024554
v -0.577064 0.674401 0.266839
v -0.388715 0.679462 0.256201
v -0.544589 0.665476 0.337152
v -0.246535 0.466296 0.138002
v -0.576386 0.475156 0.254107
v -0.401232 0.300587 0.135977
v -0.386593 0.478071 0.239059
v -0.160069 0.168621 0.032423
v -0.519357 0.251542 0.397343
v -0.177713 0.529721 0.364222
v -0.67425 0.05499 0.364648
v -0.38117 -0.132854 -0.030558
v 0.045991 0.724642 0.352217
v 0.140743 0.383558 -0.026942
v 0.013997 0.343375 0.375378
v 0.192153 0.168173 0.033917
v 0.237702 0.538296 0.363373
v -0.071332 0.803972 0.580171
v -0.100375 0.562088 0.609095
v 0.0555 0.807569 0.779107
v 0.162096 0.567168 0.608891
v 0.186267 0.810719 0.579942
v 0.376341 0.439854 0.231515
v 0.49746 0.605831 0.242193
v 0.376651 0.36658 -0.020481
v 0.662515 0.405156 0.24415
v 0.401571 0.144033 -0.022768
v 0.554549 0.639501 0.390262
v 0.71996 0.607692 0.391407
v 0.762651 0.576896 0.51234
v 0.589673 0.406693 0.387623
v 0.754027 0.379227 0.392056
v 0.541396 0.239179 0.233472
v 0.644203 0.20929 0.35828
v 0.748161 0.001877 0.366011
v 0.400677 -0.130873 -0.024428
v 0.902137 0.126361 0.585566
v 0.933217 -0.012277 0.76611
v 0.840293 -0.136024 0.584892
v 0.562463 -0.220194 0.35781
v 0.180982 -0.172577 0.026918
v 0.466022 -0.255557 0.154308
v 0.592129 -0.398476 0.177866
v 0.377101 -0.360439 -0.020763
v 0.437373 -0.565338 0.17691
v 0.143351 -0.378428 -0.026984
v 0.733841 0.12518 0.584152
v 0.670137 -0.152492 0.58438
v 0.458505 -0.012782 0.350078
v 0.199445 0.002109 0.482357
v 0.006668 0.182439 0.482202
v 0.617881 -0.576039 0.289055
v 0.628119 -0.55673 0.368261
v 0.457642 -0.594331 0.279001
v 0.642138 -0.38864 0.279766
v 0.311267 -0.422419 0.153353
v 0.481178 -0.407852 0.264953
v 0.242011 -0.473043 0.323337
v 0.046954 -0.296798 0.328829
v 0.049265 -0.647798 0.318031
v -0.136067 -0.380447 -0.024379
v 0.004158 -0.17715 0.482307
v 0.190983 -0.699933 0.52175
v 0.193738 -0.478625 0.541505
v 0.093099 -0.682554 0.697974
v -0.042892 -0.700192 0.52189
v -0.145792 -0.471553 0.323523
v -0.049414 -0.477677 0.540895
v -0.156872 -0.162452 0.035481
v -0.173626 -0.48028 0.237886
v -0.350338 -0.619178 0.245784
v -0.360922 -0.3621 -0.023974
v -0.534037 -0.418509 0.242754
v -0.28964 -0.68192 0.397511
v -0.511654 -0.632538 0.394856
v -0.444757 -0.635727 0.519425
v -0.293855 -0.473216 0.394561
v -0.357325 -0.27961 0.234857
v -0.522234 -0.423976 0.394586
v -0.520377 -0.134847 0.395781
v -0.365484 0.061704 0.428476
v -0.758619 -0.029576 0.616329
v -0.572965 -0.028054 0.676055
v -0.782197 0.116587 0.84671
v -0.758563 0.204235 0.617275
v -0.572276 0.216207 0.676917
v -0.188619 0.00318 0.482151
v -0.114676 -0.100954 0.792287
v -0.113923 0.114075 0.792392
v 0.124198 -0.102542 0.792477
v 0.004987 0.009163 1.040464
v 0.125105 0.114485 0.792327
vn -0.8363159 0.04790931 -0.5461504
vn -0.3995519 0.3745495 -0.8367025
vn -0.06553222 0.7144706 -0.6965897
vn -0.8112878 0.2452348 -0.5307277
vn -0.2375457 0.7566307 -0.609165
vn -0.6349502 0.5602066 -0.5319839
vn 0.6333473 0.4480153 0.6309941
vn -0.05286811 0.1363038 0.9892554
vn 0.5876356 0.1376367 0.7973334
vn -0.367339 -0.5051181 0.7809723
vn -0.08743342 -0.4248357 0.9010383
vn 0.312492 -0.2992464 0.9015543
vn -0.355962 0.3991505 0.8449674
vn -0.02634391 0.9993647 -0.02400563
vn -0.9880452 0.137167 0.0703705
vn -0.8835911 0.002161726 -0.4682544
vn -0.9047382 -0.1584991 -0.3953818
vn -0.003192177 0.847189 -0.5312821
vn 0.179177 0.8008468 -0.5714367
vn 0.002775129 -0.7284157 0.6851298
vn 0.245826 0.1181024 0.9620922
vn 0.9975726 -0.007147103 0.06926601
vn -0.6802551 0.7328243 -0.01488069
vn -0.5330947 -0.4514566 0.7155396
vn 0.04092138 0.2945444 0.9547613
vn 0.5120183 -0.5249302 0.6799158
vn 0.7371968 0.6755037 -0.01535236
vn -0.6231939 -0.01229131 0.7819708
vn 0.07576238 0.8722138 -0.4832216
vn 0.4360363 0.4630199 -0.7716768
vn 0.7534406 0.09509857 -0.6506024
vn 0.7513859 0.05836298 -0.6572769
vn -0.5531293 0.3687677 0.7470329
vn 0.6534288 0.5605151 -0.5087766
vn 0.1939387 0.02484583 0.980699
vn -0.4165417 -0.3392888 0.8434312
vn 0.7186575 -0.6078203 0.3377661
vn 0.04762188 -0.7609497 0.6470607
vn 0.08482583 0.9871517 0.1354107
vn 0.7973353 -0.1356688 -0.5880905
vn 0.7585936 -0.2008496 -0.6198348
vn 0.8582209 0.4582832 -0.2311566
vn 0.2910869 0.01867944 0.9565142
vn 0.7116987 -0.6653771 -0.2252959
vn 0.09272807 -0.9923837 0.08109384
vn 0.374029 -0.2091226 0.903532
vn 0.06390398 0.5597757 0.8261764
vn 0.7806129 -0.114009 -0.6145285
vn 0.4318201 -0.4411969 -0.7866871
vn 0.09407815 -0.8359702 -0.5406507
vn 0.2202067 -0.8021469 -0.5550399
vn -0.5207683 0.4596805 0.7193707
vn -0.5669488 -0.2757545 0.7762271
vn -0.6470705 0.1253879 0.752049
vn 0.9670101 -0.0134242 0.254384
vn -0.003716228 0.9792555 0.2025955
vn 0.6185815 -0.5986052 -0.5089487
vn 0.1045637 -0.007624958 0.994489
vn -0.5518053 -0.3342662 0.764053
vn 0.4962528 0.5929655 0.6341333
vn -0.5423445 -0.009526572 0.8401021
vn -0.3644324 0.3356932 0.8686191
vn 0.9981358 -0.06035701 -0.009048146
vn 0.009235303 0.7408038 0.671658
vn 0.0006028556 -0.8929609 -0.4501337
vn -0.104965 -0.8185304 -0.5647923
vn -0.001909254 -0.9813626 0.1921556
vn 0.7036767 -0.7098852 -0.03003349
vn 0.5400862 0.5457587 0.6406672
vn 0.03956274 -0.225371 0.9734694
vn -0.6913486 -0.7097377 0.1353128
vn -0.9736866 -0.09127583 0.2088134
vn -0.5052608 0.4887148 0.7112449
vn -0.1410041 -0.2673689 0.9532218
vn 0.9068287 -0.1528835 0.3927957
vn -0.1365474 -0.8302949 -0.540338
vn -0.5461426 -0.4992926 -0.6726331
vn -0.9632625 -0.01849021 -0.2679243
vn 0.6276118 -0.7117398 0.3154836
vn -0.7455333 -0.6280341 -0.2230541
vn -0.04451119 -0.1800247 0.9826545
vn 0.4646693 0.41976 0.7796692
vn 0.03588343 0.6898789 0.7230349
vn -0.4179229 0.5774688 0.7013346
vn -0.05341253 -0.9713969 0.2313768
vn 0.7751518 0.004440229 0.6317594
vn -0.7602888 -0.6489795 0.02804661
vn 0.4783114 -0.5369927 0.6948791
vn -0.3211691 0.04638881 0.9458851
vn -0.7519155 0.6442014 -0.1400987
vn 0.5337304 0.5804391 0.6149977
vn -0.9775832 0.006156932 0.2104592
vn -0.6393015 -0.683916 0.3515001
vn -0.6380848 0.6910629 0.339529
vn 0.6329557 -0.6872205 0.356504
vn 0.004343874 0.006920305 0.9999666
vn 0.6403555 0.6855514 0.3463582
g Coral_0
f 3/3/3 2/2/2 1/1/1
f 4/4/4 1/1/1 2/2/2
f 2/2/2 3/3/3 5/5/5
f 6/6/6 3/3/3 1/1/1
f 3/3/3 6/6/6 7/7/7
f 6/6/6 8/8/8 7/7/7
f 8/8/8 6/6/6 1/1/1
f 3/3/3 7/7/7 9/9/9
f 5/5/5 3/3/3 9/9/9
f 7/7/7 8/8/8 9/9/9
f 10/10/10 8/8/8 1/1/1
f 11/11/11 10/10/10 1/1/1
f 4/4/4 11/11/11 1/1/1
f 8/8/8 10/10/10 12/12/12
f 8/8/8 12/12/12 9/9/9
f 10/10/10 11/11/11 12/12/12
f 12/12/12 11/11/11 9/9/9
f 11/11/11 13/13/13 9/9/9
f 5/5/5 9/9/9 13/13/13
f 14/14/14 13/13/13 11/11/11
f 4/4/4 14/14/14 11/11/11
f 15/15/15 5/5/5 13/13/13
f 14/14/14 4/4/4 16/16/16
f 17/17/17 16/16/16 4/4/4
f 18/18/18 5/5/5 15/15/15
f 5/5/5 18/18/18 19/19/19
f 13/13/13 20/20/20 15/15/15
f 20/20/20 13/13/13 21/21/21
f 19/19/19 22/22/22 21/21/21
f 20/20/20 21/21/21 22/22/22
f 22/22/22 19/19/19 18/18/18
f 23/23/23 18/18/18 15/15/15
f 23/23/23 15/15/15 24/24/24
f 20/20/20 24/24/24 15/15/15
f 25/25/25 23/23/23 24/24/24
f 23/23/23 25/25/25 18/18/18
f 24/24/24 20/20/20 25/25/25
f 26/26/26 20/20/20 22/22/22
f 20/20/20 26/26/26 25/25/25
f 25/25/25 26/26/26 22/22/22
f 25/25/25 27/27/27 18/18/18
f 27/27/27 25/25/25 22/22/22
f 27/27/27 22/22/22 18/18/18
f 28/28/28 19/19/19 21/21/21
f 29/29/29 19/19/19 28/28/28
f 19/19/19 29/29/29 30/30/30
f 30/30/30 29/29/29 31/31/31
f 30/30/30 31/31/31 32/32/32
f 33/33/33 29/29/29 28/28/28
f 29/29/29 34/34/34 31/31/31
f 29/29/29 33/33/33 34/34/34
f 33/33/33 35/35/35 34/34/34
f 34/34/34 35/35/35 31/31/31
f 33/33/33 28/28/28 36/36/36
f 35/35/35 33/33/33 36/36/36
f 35/35/35 37/37/37 31/31/31
f 35/35/35 36/36/36 37/37/37
f 36/36/36 28/28/28 38/38/38
f 36/36/36 38/38/38 37/37/37
f 31/31/31 37/37/37 38/38/38
f 28/28/28 21/21/21 38/38/38
f 32/32/32 31/31/31 38/38/38
f 39/39/39 32/32/32 38/38/38
f 21/21/21 39/39/39 38/38/38
f 40/40/40 32/32/32 39/39/39
f 32/32/32 40/40/40 41/41/41
f 42/42/42 40/40/40 39/39/39
f 43/43/43 42/42/42 39/39/39
f 42/42/42 43/43/43 40/40/40
f 43/43/43 44/44/44 40/40/40
f 44/44/44 45/45/45 40/40/40
f 45/45/45 41/41/41 40/40/40
f 45/45/45 44/44/44 43/43/43
f 45/45/45 46/46/46 41/41/41
f 46/46/46 47/47/47 41/41/41
f 48/48/48 41/41/41 47/47/47
f 41/41/41 48/48/48 49/49/49
f 50/50/50 49/49/49 48/48/48
f 49/49/49 50/50/50 51/51/51
f 52/52/52 43/43/43 39/39/39
f 53/53/53 45/45/45 43/43/43
f 43/43/43 52/52/52 53/53/53
f 54/54/54 52/52/52 39/39/39
f 52/52/52 54/54/54 53/53/53
f 45/45/45 53/53/53 54/54/54
f 46/46/46 45/45/45 54/54/54
f 55/55/55 46/46/46 54/54/54
f 21/21/21 54/54/54 39/39/39
f 21/21/21 55/55/55 54/54/54
f 21/21/21 56/56/56 55/55/55
f 13/13/13 56/56/56 21/21/21
f 57/57/57 50/50/50 48/48/48
f 58/58/58 57/57/57 48/48/48
f 50/50/50 57/57/57 59/59/59
f 57/57/57 58/58/58 59/59/59
f 60/60/60 58/58/58 48/48/48
f 60/60/60 48/48/48 47/47/47
f 58/58/58 60/60/60 47/47/47
f 50/50/50 59/59/59 61/61/61
f 46/46/46 61/61/61 47/47/47
f 51/51/51 50/50/50 61/61/61
f 58/58/58 62/62/62 59/59/59
f 62/62/62 58/58/58 47/47/47
f 62/62/62 61/61/61 59/59/59
f 61/61/61 62/62/62 47/47/47
f 63/63/63 51/51/51 61/61/61
f 46/46/46 63/63/63 61/61/61
f 63/63/63 46/46/46 64/64/64
f 51/51/51 63/63/63 65/65/65
f 51/51/51 65/65/65 66/66/66
f 64/64/64 46/46/46 67/67/67
f 46/46/46 55/55/55 67/67/67
f 63/63/63 68/68/68 65/65/65
f 63/63/63 69/69/69 68/68/68
f 69/69/69 63/63/63 64/64/64
f 69/69/69 70/70/70 68/68/68
f 68/68/68 70/70/70 65/65/65
f 70/70/70 69/69/69 64/64/64
f 70/70/70 71/71/71 65/65/65
f 71/71/71 72/72/72 65/65/65
f 72/72/72 66/66/66 65/65/65
f 70/70/70 73/73/73 71/71/71
f 73/73/73 70/70/70 64/64/64
f 73/73/73 72/72/72 71/71/71
f 72/72/72 73/73/73 64/64/64
f 74/74/74 72/72/72 64/64/64
f 74/74/74 64/64/64 67/67/67
f 72/72/72 74/74/74 66/66/66
f 74/74/74 75/75/75 66/66/66
f 76/76/76 66/66/66 75/75/75
f 66/66/66 76/76/76 77/77/77
f 77/77/77 76/76/76 78/78/78
f 77/77/77 78/78/78 17/17/17
f 79/79/79 76/76/76 75/75/75
f 76/76/76 79/79/79 80/80/80
f 76/76/76 80/80/80 78/78/78
f 79/79/79 81/81/81 80/80/80
f 81/81/81 79/79/79 75/75/75
f 80/80/80 81/81/81 78/78/78
f 82/82/82 81/81/81 75/75/75
f 82/82/82 75/75/75 83/83/83
f 81/81/81 82/82/82 83/83/83
f 75/75/75 74/74/74 83/83/83
f 83/83/83 17/17/17 78/78/78
f 17/17/17 83/83/83 74/74/74
f 84/84/84 81/81/81 83/83/83
f 81/81/81 84/84/84 78/78/78
f 84/84/84 83/83/83 78/78/78
f 85/85/85 17/17/17 74/74/74
f 17/17/17 85/85/85 16/16/16
f 85/85/85 74/74/74 86/86/86
f 85/85/85 87/87/87 16/16/16
f 87/87/87 85/85/85 88/88/88
f 88/88/88 85/85/85 86/86/86
f 89/89/89 87/87/87 88/88/88
f 87/87/87 89/89/89 16/16/16
f 89/89/89 88/88/88 86/86/86
f 89/89/89 90/90/90 16/16/16
f 90/90/90 14/14/14 16/16/16
f 90/90/90 89/89/89 91/91/91
f 14/14/14 90/90/90 91/91/91
f 91/91/91 89/89/89 86/86/86
f 14/14/14 91/91/91 86/86/86
f 13/13/13 14/14/14 86/86/86
f 13/13/13 86/86/86 74/74/74
f 92/92/92 13/13/13 74/74/74
f 92/92/92 74/74/74 67/67/67
f 56/56/56 13/13/13 92/92/92
f 93/93/93 92/92/92 67/67/67
f 94/94/94 56/56/56 92/92/92
f 94/94/94 92/92/92 93/93/93
f 93/93/93 67/67/67 95/95/95
f 55/55/55 95/95/95 67/67/67
f 96/96/96 93/93/93 95/95/95
f 96/96/96 94/94/94 93/93/93
f 96/96/96 95/95/95 55/55/55
f 56/56/56 94/94/94 97/97/97
f 56/56/56 97/97/97 55/55/55
f 94/94/94 96/96/96 97/97/97
f 97/97/97 96/96/96 55/55/55
