g CornPlant Combined Mesh
v 0.176284 1.862249 0.3818896
v 0.02112478 1.145975 0.2111245
v 0.2074392 1.13485 0.02899863
v 0.3652469 1.865633 0.2134078
v 0.4448167 2.388865 0.4928671
v 0.04057563 0.7865172 0.06387888
v 0.07250027 0.7952055 0.04276882
v 0.008805067 0.4544037 -0.02865152
v -0.02311938 0.4457165 -0.007541248
v 0.176284 1.862249 0.3818896
v 0.3652469 1.865633 0.2134078
v 0.2074392 1.13485 0.02899863
v 0.02112478 1.145975 0.2111245
v 0.4448167 2.388865 0.4928671
v 0.04057563 0.7865172 0.06387888
v 0.07250027 0.7952055 0.04276882
v 0.008805067 0.4544037 -0.02865152
v -0.02311938 0.4457165 -0.007541248
v -0.575101 1.789276 0.2239101
v -0.2638906 1.1267 0.02131793
v -0.09738345 1.123894 0.2236895
v -0.4370152 1.793364 0.4361065
v -0.9670606 2.193888 0.6263186
v -0.09356603 0.7772809 0.0455986
v -0.08363776 0.7828989 0.08424415
v 0.02965206 0.4550086 0.01142237
v 0.01972344 0.4493915 -0.02722295
v -0.575101 1.789276 0.2239101
v -0.4370152 1.793364 0.4361065
v -0.09738345 1.123894 0.2236895
v -0.2638906 1.1267 0.02131793
v -0.9670606 2.193888 0.6263186
v -0.09356603 0.7772809 0.0455986
v -0.08363776 0.7828989 0.08424415
v 0.02965206 0.4550086 0.01142237
v 0.01972344 0.4493915 -0.02722295
v 0.006221269 0.4514103 0.03689574
v 0.03565234 0.4583746 0.0115056
v -0.07204691 0.7668036 -0.1058354
v -0.04261609 0.7737689 -0.131226
v -0.01122577 1.097713 -0.3007321
v -0.2517122 1.100035 -0.1991383
v -0.4361542 1.747673 -0.5430389
v -0.2111292 1.754625 -0.658884
v -0.5284992 2.178054 -0.9864388
v 0.03565234 0.4583746 0.0115056
v 0.006221269 0.4514103 0.03689574
v -0.07204691 0.7668036 -0.1058354
v -0.04261609 0.7737689 -0.131226
v -0.01122577 1.097713 -0.3007321
v -0.2517122 1.100035 -0.1991383
v -0.4361542 1.747673 -0.5430389
v -0.2111292 1.754625 -0.658884
v -0.5284992 2.178054 -0.9864388
v -0.03140394 0.4581621 0.009347955
v -0.007041141 0.4652364 0.03346661
v 0.0859253 0.7394034 -0.07611556
v 0.1102884 0.7464786 -0.05199716
v 0.2712508 1.030865 -0.04859356
v 0.1498848 1.035422 -0.2469109
v 0.4190852 1.621303 -0.4396926
v 0.5475807 1.627241 -0.2541506
v 0.7470675 2.037242 -0.5354118
v -0.007041141 0.4652364 0.03346661
v -0.03140394 0.4581621 0.009347955
v 0.0859253 0.7394034 -0.07611556
v 0.1102884 0.7464786 -0.05199716
v 0.2712508 1.030865 -0.04859356
v 0.1498848 1.035422 -0.2469109
v 0.4190852 1.621303 -0.4396926
v 0.5475807 1.627241 -0.2541506
v 0.7470675 2.037242 -0.5354118
v 0.2759757 2.864083 0.09368402
v 0.114922 2.154963 0.08500783
v 0.1166676 2.143949 -0.0773268
v 0.2857811 2.867434 -0.06371529
v 0.463354 3.385439 0.02635045
v 0.05163172 1.799096 0.0108455
v 0.05692859 1.807697 -0.01246519
v -0.009839118 1.470299 -0.01661527
v -0.01513579 1.461699 0.006695436
v 0.2759757 2.864083 0.09368402
v 0.2857811 2.867434 -0.06371529
v 0.1166676 2.143949 -0.0773268
v 0.114922 2.154963 0.08500783
v 0.463354 3.385439 0.02635045
v 0.05163172 1.799096 0.0108455
v 0.05692859 1.807697 -0.01246519
v -0.009839118 1.470299 -0.01661527
v -0.01513579 1.461699 0.006695436
v -0.1728216 2.791839 0.3501554
v -0.119605 2.135881 0.1243415
v 0.06269044 2.133103 0.142182
v 0.0003188094 2.795886 0.3847468
v -0.1669603 3.19241 0.7002611
v -0.02357845 1.789952 0.06105981
v 0.0004472474 1.795514 0.07398257
v 0.02027895 1.470898 -0.007806386
v -0.003746808 1.465337 -0.0207289
v -0.1728216 2.791839 0.3501554
v 0.0003188094 2.795886 0.3847468
v 0.06269044 2.133103 0.142182
v -0.119605 2.135881 0.1243415
v -0.1669603 3.19241 0.7002611
v -0.02357845 1.789952 0.06105981
v 0.0004472474 1.795514 0.07398257
v 0.02027895 1.470898 -0.007806386
v -0.003746808 1.465337 -0.0207289
v 0.02133119 1.467336 0.01375511
v 0.02327961 1.474231 -0.01038022
v -0.08792181 1.779579 -0.01587132
v -0.08597371 1.786475 -0.04000675
v -0.1543937 2.107183 -0.1292967
v -0.2227201 2.109482 0.02067842
v -0.4839157 2.750652 -0.05250565
v -0.4302693 2.757534 -0.2021116
v -0.7489372 3.176733 -0.2101599
v 0.02327961 1.474231 -0.01038022
v 0.02133119 1.467336 0.01375511
v -0.08792181 1.779579 -0.01587132
v -0.08597371 1.786475 -0.04000675
v -0.1543937 2.107183 -0.1292967
v -0.2227201 2.109482 0.02067842
v -0.4839157 2.750652 -0.05250565
v -0.4302693 2.757534 -0.2021116
v -0.7489372 3.176733 -0.2101599
v -0.01086208 1.47402 0.01783606
v 0.01309251 1.481024 0.01799612
v 0.004704528 1.752452 -0.07135115
v 0.02865916 1.759457 -0.07119136
v 0.1097342 2.041003 -0.1397142
v -0.04828975 2.045515 -0.1753885
v -0.0109373 2.625543 -0.3785448
v 0.1442795 2.631423 -0.3516729
v 0.1034518 3.037329 -0.5639718
v 0.01309251 1.481024 0.01799612
v -0.01086208 1.47402 0.01783606
v 0.004704528 1.752452 -0.07135115
v 0.02865916 1.759457 -0.07119136
v 0.1097342 2.041003 -0.1397142
v -0.04828975 2.045515 -0.1753885
v -0.0109373 2.625543 -0.3785448
v 0.1442795 2.631423 -0.3516729
v 0.1034518 3.037329 -0.5639718
v 0.1457222 3.263112 0.1636882
v 0.04361196 2.943218 0.09824499
v 0.1049985 2.938249 -0.007275905
v 0.2105484 3.264624 0.06438621
v 0.2932574 3.498303 0.1891896
v 0.02974253 2.782681 0.02625422
v 0.04185768 2.786561 0.01297449
v -0.0002686588 2.634356 -0.01451799
v -0.01238369 2.630476 -0.001238178
v 0.1457222 3.263112 0.1636882
v 0.2105484 3.264624 0.06438621
v 0.1049985 2.938249 -0.007275905
v 0.04361196 2.943218 0.09824499
v 0.2932574 3.498303 0.1891896
v 0.02974253 2.782681 0.02625422
v 0.04185768 2.786561 0.01297449
v -0.0002686588 2.634356 -0.01451799
v -0.01238369 2.630476 -0.001238178
v -0.2429746 3.230522 0.1648695
v -0.1243675 2.93461 0.03693399
v -0.01176602 2.933356 0.1162538
v -0.1425771 3.232347 0.2517471
v -0.3690709 3.411225 0.3960178
v -0.0380807 2.778556 0.03118357
v -0.02716359 2.781065 0.04855143
v 0.01615963 2.634626 0.002420289
v 0.005242385 2.632118 -0.01494742
v -0.2429746 3.230522 0.1648695
v -0.1425771 3.232347 0.2517471
v -0.01176602 2.933356 0.1162538
v -0.1243675 2.93461 0.03693399
v -0.3690709 3.411225 0.3960178
v -0.0380807 2.778556 0.03118357
v -0.02716359 2.781065 0.04855143
v 0.01615963 2.634626 0.002420289
v 0.005242385 2.632118 -0.01494742
v 0.008845993 2.633019 0.01691226
v 0.01907728 2.63613 0.001850554
v -0.05161131 2.773877 -0.04300884
v -0.04138021 2.776988 -0.05807073
v -0.05299041 2.921664 -0.1418588
v -0.1533344 2.922701 -0.06913012
v -0.2969981 3.211941 -0.2139261
v -0.206392 3.215046 -0.2918613
v -0.4118159 3.404153 -0.4153864
v 0.01907728 2.63613 0.001850554
v 0.008845993 2.633019 0.01691226
v -0.05161131 2.773877 -0.04300884
v -0.04138021 2.776988 -0.05807073
v -0.05299041 2.921664 -0.1418588
v -0.1533344 2.922701 -0.06913012
v -0.2969981 3.211941 -0.2139261
v -0.206392 3.215046 -0.2918613
v -0.4118159 3.404153 -0.4153864
v -0.01372311 2.636035 0.007633945
v 0.001883939 2.639194 0.01662846
v 0.02955632 2.76164 -0.04491856
v 0.0451635 2.764799 -0.03592421
v 0.123617 2.891809 -0.05065101
v 0.03350764 2.893844 -0.132627
v 0.1333309 3.155503 -0.2516316
v 0.224871 3.158156 -0.1764542
v 0.2769569 3.341266 -0.3304518
v 0.001883939 2.639194 0.01662846
v -0.01372311 2.636035 0.007633945
v 0.02955632 2.76164 -0.04491856
v 0.0451635 2.764799 -0.03592421
v 0.123617 2.891809 -0.05065101
v 0.03350764 2.893844 -0.132627
v 0.1333309 3.155503 -0.2516316
v 0.224871 3.158156 -0.1764542
v 0.2769569 3.341266 -0.3304518
vt 0.631202 0.691
vt 0.638896 0.3421
vt 0.361104 0.329636
vt 0.361104 0.688131
vt 0.49224 1.004742
vt 0.523065 0.167666
vt 0.482225 0.170226
vt 0.490069 0.007407
vt 0.530909 0.004847
vt 0.631202 0.691
vt 0.361104 0.688131
vt 0.361104 0.329636
vt 0.638896 0.3421
vt 0.49224 1.004742
vt 0.523065 0.167666
vt 0.482225 0.170226
vt 0.490069 0.007407
vt 0.530909 0.004847
vt 0.631202 0.691
vt 0.638896 0.3421
vt 0.361104 0.329636
vt 0.361104 0.688131
vt 0.49224 1.004742
vt 0.523065 0.167666
vt 0.482225 0.170226
vt 0.490069 0.007407
vt 0.530909 0.004847
vt 0.631202 0.691
vt 0.361104 0.688131
vt 0.361104 0.329636
vt 0.638896 0.3421
vt 0.49224 1.004742
vt 0.523065 0.167666
vt 0.482225 0.170226
vt 0.490069 0.007407
vt 0.530909 0.004847
vt 0.530909 0.004847
vt 0.490069 0.007407
vt 0.523065 0.167666
vt 0.482225 0.170226
vt 0.361104 0.329636
vt 0.638896 0.3421
vt 0.631202 0.691
vt 0.361104 0.688131
vt 0.49224 1.004742
vt 0.490069 0.007407
vt 0.530909 0.004847
vt 0.523065 0.167666
vt 0.482225 0.170226
vt 0.361104 0.329636
vt 0.638896 0.3421
vt 0.631202 0.691
vt 0.361104 0.688131
vt 0.49224 1.004742
vt 0.530909 0.004847
vt 0.490069 0.007407
vt 0.523065 0.167666
vt 0.482225 0.170226
vt 0.361104 0.329636
vt 0.638896 0.3421
vt 0.631202 0.691
vt 0.361104 0.688131
vt 0.49224 1.004742
vt 0.490069 0.007407
vt 0.530909 0.004847
vt 0.523065 0.167666
vt 0.482225 0.170226
vt 0.361104 0.329636
vt 0.638896 0.3421
vt 0.631202 0.691
vt 0.361104 0.688131
vt 0.49224 1.004742
vt 0.631202 0.691
vt 0.638896 0.3421
vt 0.361104 0.329636
vt 0.361104 0.688131
vt 0.49224 1.004742
vt 0.523065 0.167666
vt 0.482225 0.170226
vt 0.490069 0.007407
vt 0.530909 0.004847
vt 0.631202 0.691
vt 0.361104 0.688131
vt 0.361104 0.329636
vt 0.638896 0.3421
vt 0.49224 1.004742
vt 0.523065 0.167666
vt 0.482225 0.170226
vt 0.490069 0.007407
vt 0.530909 0.004847
vt 0.631202 0.691
vt 0.638896 0.3421
vt 0.361104 0.329636
vt 0.361104 0.688131
vt 0.49224 1.004742
vt 0.523065 0.167666
vt 0.482225 0.170226
vt 0.490069 0.007407
vt 0.530909 0.004847
vt 0.631202 0.691
vt 0.361104 0.688131
vt 0.361104 0.329636
vt 0.638896 0.3421
vt 0.49224 1.004742
vt 0.523065 0.167666
vt 0.482225 0.170226
vt 0.490069 0.007407
vt 0.530909 0.004847
vt 0.530909 0.004847
vt 0.490069 0.007407
vt 0.523065 0.167666
vt 0.482225 0.170226
vt 0.361104 0.329636
vt 0.638896 0.3421
vt 0.631202 0.691
vt 0.361104 0.688131
vt 0.49224 1.004742
vt 0.490069 0.007407
vt 0.530909 0.004847
vt 0.523065 0.167666
vt 0.482225 0.170226
vt 0.361104 0.329636
vt 0.638896 0.3421
vt 0.631202 0.691
vt 0.361104 0.688131
vt 0.49224 1.004742
vt 0.530909 0.004847
vt 0.490069 0.007407
vt 0.523065 0.167666
vt 0.482225 0.170226
vt 0.361104 0.329636
vt 0.638896 0.3421
vt 0.631202 0.691
vt 0.361104 0.688131
vt 0.49224 1.004742
vt 0.490069 0.007407
vt 0.530909 0.004847
vt 0.523065 0.167666
vt 0.482225 0.170226
vt 0.361104 0.329636
vt 0.638896 0.3421
vt 0.631202 0.691
vt 0.361104 0.688131
vt 0.49224 1.004742
vt 0.631202 0.691
vt 0.638896 0.3421
vt 0.361104 0.329636
vt 0.361104 0.688131
vt 0.49224 1.004742
vt 0.523065 0.167666
vt 0.482225 0.170226
vt 0.490069 0.007407
vt 0.530909 0.004847
vt 0.631202 0.691
vt 0.361104 0.688131
vt 0.361104 0.329636
vt 0.638896 0.3421
vt 0.49224 1.004742
vt 0.523065 0.167666
vt 0.482225 0.170226
vt 0.490069 0.007407
vt 0.530909 0.004847
vt 0.631202 0.691
vt 0.638896 0.3421
vt 0.361104 0.329636
vt 0.361104 0.688131
vt 0.49224 1.004742
vt 0.523065 0.167666
vt 0.482225 0.170226
vt 0.490069 0.007407
vt 0.530909 0.004847
vt 0.631202 0.691
vt 0.361104 0.688131
vt 0.361104 0.329636
vt 0.638896 0.3421
vt 0.49224 1.004742
vt 0.523065 0.167666
vt 0.482225 0.170226
vt 0.490069 0.007407
vt 0.530909 0.004847
vt 0.530909 0.004847
vt 0.490069 0.007407
vt 0.523065 0.167666
vt 0.482225 0.170226
vt 0.361104 0.329636
vt 0.638896 0.3421
vt 0.631202 0.691
vt 0.361104 0.688131
vt 0.49224 1.004742
vt 0.490069 0.007407
vt 0.530909 0.004847
vt 0.523065 0.167666
vt 0.482225 0.170226
vt 0.361104 0.329636
vt 0.638896 0.3421
vt 0.631202 0.691
vt 0.361104 0.688131
vt 0.49224 1.004742
vt 0.530909 0.004847
vt 0.490069 0.007407
vt 0.523065 0.167666
vt 0.482225 0.170226
vt 0.361104 0.329636
vt 0.638896 0.3421
vt 0.631202 0.691
vt 0.361104 0.688131
vt 0.49224 1.004742
vt 0.490069 0.007407
vt 0.530909 0.004847
vt 0.523065 0.167666
vt 0.482225 0.170226
vt 0.361104 0.329636
vt 0.638896 0.3421
vt 0.631202 0.691
vt 0.361104 0.688131
vt 0.49224 1.004742
vn -0.626076 0.3745053 -0.6839404
vn -0.6576177 0.2807185 -0.6990966
vn -0.6331765 0.2542939 -0.7310418
vn -0.626076 0.3745053 -0.6839404
vn -0.6000969 0.4459496 -0.6640878
vn -0.6110855 0.2401253 -0.7542642
vn -0.5797719 0.2342281 -0.7803856
vn -0.5811172 0.2695331 -0.7678897
vn -0.5811172 0.2695331 -0.7678897
vn 0.6260761 -0.3745053 0.6839404
vn 0.6260761 -0.3745053 0.6839404
vn 0.6331765 -0.2542939 0.7310418
vn 0.6576177 -0.2807185 0.6990966
vn 0.6000969 -0.4459496 0.6640878
vn 0.6110855 -0.2401253 0.7542642
vn 0.5797719 -0.2342281 0.7803856
vn 0.5811172 -0.2695331 0.7678897
vn 0.5811172 -0.2695331 0.7678897
vn 0.6064332 0.6666606 -0.4333617
vn 0.7196617 0.4106848 -0.5598437
vn 0.8176218 0.3296835 -0.4720206
vn 0.6064332 0.6666606 -0.4333617
vn 0.4891153 0.805814 -0.3338115
vn 0.8763613 0.2830976 -0.3896751
vn 0.9255642 0.259644 -0.2755283
vn 0.8860369 0.3685904 -0.2812113
vn 0.8860369 0.3685904 -0.2812113
vn -0.6064332 -0.6666606 0.4333617
vn -0.6064332 -0.6666606 0.4333617
vn -0.8176218 -0.3296835 0.4720206
vn -0.7196617 -0.4106848 0.5598437
vn -0.4891153 -0.805814 0.3338115
vn -0.8763613 -0.2830976 0.3896751
vn -0.9255642 -0.259644 0.2755283
vn -0.8860369 -0.3685904 0.2812113
vn -0.8860369 -0.3685904 0.2812113
vn -0.5169787 -0.4561041 -0.7243632
vn -0.5169787 -0.4561041 -0.7243632
vn -0.4822782 -0.4095379 -0.7743942
vn -0.5431749 -0.3986229 -0.7389593
vn -0.4289007 -0.4327129 -0.7929714
vn -0.3567954 -0.4741448 -0.8049122
vn -0.3336689 -0.6177353 -0.7120872
vn -0.3336689 -0.6177353 -0.7120872
vn -0.3025866 -0.7146502 -0.6306477
vn 0.5169787 0.4561041 0.7243632
vn 0.5169787 0.4561041 0.7243632
vn 0.4822782 0.4095379 0.7743942
vn 0.5431749 0.3986229 0.7389593
vn 0.4289007 0.4327129 0.7929714
vn 0.3567954 0.4741448 0.8049122
vn 0.3336689 0.6177353 0.7120872
vn 0.3336689 0.6177353 0.7120872
vn 0.3025866 0.7146502 0.6306477
vn 0.6890067 -0.4581051 -0.5616132
vn 0.6890067 -0.4581051 -0.5616132
vn 0.7195858 -0.4307208 -0.5446797
vn 0.6961275 -0.4251938 -0.5784607
vn 0.7334547 -0.4436985 -0.5149523
vn 0.7456652 -0.467623 -0.4746706
vn 0.6968477 -0.5534761 -0.4561442
vn 0.6968477 -0.5534761 -0.4561442
vn 0.6559336 -0.6172168 -0.4345049
vn -0.6890067 0.4581051 0.5616132
vn -0.6890067 0.4581051 0.5616132
vn -0.7195858 0.4307208 0.5446797
vn -0.6961275 0.4251938 0.5784607
vn -0.7334547 0.4436985 0.5149523
vn -0.7456652 0.467623 0.4746706
vn -0.6968477 0.5534761 0.4561442
vn -0.6968477 0.5534761 0.4561442
vn -0.6559336 0.6172168 0.4345049
vn -0.9605724 0.2742512 -0.04568309
vn -0.9788271 0.2022329 -0.03161363
vn -0.980183 0.1825352 -0.07695621
vn -0.9605724 0.2742512 -0.04568309
vn -0.9419144 0.3318631 -0.05161319
vn -0.978563 0.1720088 -0.1132586
vn -0.9729171 0.1675428 -0.1592536
vn -0.9696964 0.1937244 -0.148861
vn -0.9696964 0.1937244 -0.148861
vn 0.9605724 -0.2742512 0.04568308
vn 0.9605724 -0.2742512 0.04568308
vn 0.980183 -0.1825352 0.07695621
vn 0.9788271 -0.2022329 0.03161363
vn 0.9419144 -0.3318631 0.05161319
vn 0.978563 -0.1720088 0.1132586
vn 0.9729171 -0.1675428 0.1592536
vn 0.9696964 -0.1937244 0.148861
vn 0.9696964 -0.1937244 0.148861
vn 0.1372848 0.490889 -0.8603377
vn 0.1170192 0.2727894 -0.9549306
vn 0.2368841 0.2154827 -0.94734
vn 0.1372848 0.490889 -0.8603377
vn 0.1340498 0.6510333 -0.7471187
vn 0.3278013 0.1843179 -0.9265922
vn 0.4360157 0.1699032 -0.8837551
vn 0.4143306 0.2460836 -0.8762265
vn 0.4143306 0.2460836 -0.8762265
vn -0.1372848 -0.490889 0.8603377
vn -0.1372848 -0.490889 0.8603377
vn -0.2368841 -0.2154827 0.94734
vn -0.1170192 -0.2727894 0.9549306
vn -0.1340498 -0.6510333 0.7471187
vn -0.3278013 -0.1843179 0.9265922
vn -0.4360157 -0.1699032 0.8837551
vn -0.4143306 -0.2460836 0.8762265
vn -0.4143306 -0.2460836 0.8762265
vn -0.9246737 -0.3398348 -0.1717288
vn -0.9246737 -0.3398348 -0.1717288
vn -0.9230337 -0.3011293 -0.2394366
vn -0.9426323 -0.293089 -0.1598226
vn -0.8991117 -0.3190133 -0.299714
vn -0.8591567 -0.351712 -0.3716834
vn -0.8123583 -0.4811602 -0.3294826
vn -0.8123583 -0.4811602 -0.3294826
vn -0.7571002 -0.5812593 -0.2982229
vn 0.9246737 0.3398348 0.1717288
vn 0.9246737 0.3398348 0.1717288
vn 0.9230337 0.3011293 0.2394366
vn 0.9426323 0.293089 0.1598226
vn 0.8991117 0.3190133 0.299714
vn 0.8591567 0.351712 0.3716834
vn 0.8123583 0.4811602 0.3294826
vn 0.8123583 0.4811602 0.3294826
vn 0.7571002 0.5812593 0.2982229
vn 0.09652479 -0.3085174 -0.9463087
vn 0.09652479 -0.3085174 -0.9463087
vn 0.1276816 -0.2877857 -0.9491453
vn 0.08926532 -0.2834969 -0.9548095
vn 0.1574427 -0.2978022 -0.9415549
vn 0.1941792 -0.3165923 -0.9284739
vn 0.1785113 -0.3865179 -0.9048412
vn 0.1785113 -0.3865179 -0.9048412
vn 0.1691841 -0.443365 -0.8802296
vn -0.09652478 0.3085174 0.9463087
vn -0.09652478 0.3085174 0.9463087
vn -0.1276816 0.2877857 0.9491453
vn -0.08926532 0.2834969 0.9548095
vn -0.1574427 0.2978022 0.9415549
vn -0.1941792 0.3165923 0.9284739
vn -0.1785113 0.3865179 0.9048412
vn -0.1785113 0.3865179 0.9048412
vn -0.1691841 0.443365 0.8802296
vn -0.7634338 0.4293341 -0.482536
vn -0.8068837 0.3254725 -0.4929567
vn -0.7914048 0.2956344 -0.5350502
vn -0.7634338 0.4293341 -0.482536
vn -0.7258304 0.505854 -0.4661351
vn -0.7750605 0.2794628 -0.566729
vn -0.7491101 0.2725563 -0.6037775
vn -0.7454336 0.3126535 -0.5887074
vn -0.7454336 0.3126535 -0.5887074
vn 0.7634338 -0.4293341 0.482536
vn 0.7634338 -0.4293341 0.482536
vn 0.7914048 -0.2956344 0.5350502
vn 0.8068837 -0.3254725 0.4929567
vn 0.7258304 -0.505854 0.4661351
vn 0.7750605 -0.2794628 0.566729
vn 0.7491101 -0.2725563 0.6037775
vn 0.7454336 -0.3126535 0.5887074
vn 0.7454336 -0.3126535 0.5887074
vn 0.4551388 0.6846086 -0.5693504
vn 0.5385266 0.4273169 -0.7262158
vn 0.6473612 0.345219 -0.6795199
vn 0.4551388 0.6846086 -0.5693504
vn 0.3664563 0.8194457 -0.4407023
vn 0.7209352 0.2983602 -0.6254869
vn 0.7952145 0.2762118 -0.5397602
vn 0.7532686 0.3897475 -0.5297956
vn 0.7532686 0.3897475 -0.5297956
vn -0.4551388 -0.6846086 0.5693504
vn -0.4551388 -0.6846086 0.5693504
vn -0.6473612 -0.345219 0.6795199
vn -0.5385266 -0.4273169 0.7262158
vn -0.3664563 -0.8194457 0.4407023
vn -0.7209352 -0.2983602 0.6254869
vn -0.7952145 -0.2762118 0.5397602
vn -0.7532685 -0.3897474 0.5297956
vn -0.7532685 -0.3897474 0.5297956
vn -0.6553068 -0.5159549 -0.5516915
vn -0.6553068 -0.5159549 -0.5516915
vn -0.6353086 -0.465795 -0.6159691
vn -0.6901165 -0.4550258 -0.562753
vn -0.5834621 -0.4893202 -0.6481802
vn -0.5104411 -0.5307811 -0.676551
vn -0.4577836 -0.6750233 -0.5785998
vn -0.4577836 -0.6750233 -0.5785998
vn -0.4040998 -0.7657669 -0.5003043
vn 0.6553068 0.5159549 0.5516915
vn 0.6553068 0.5159549 0.5516915
vn 0.6353086 0.465795 0.6159691
vn 0.6901165 0.4550258 0.562753
vn 0.5834621 0.4893202 0.6481802
vn 0.5104411 0.5307811 0.676551
vn 0.4577836 0.6750233 0.5785998
vn 0.4577836 0.6750233 0.5785998
vn 0.4040998 0.7657669 0.5003043
vn 0.5095329 -0.4755886 -0.7170717
vn 0.5095329 -0.4755886 -0.7170717
vn 0.5409982 -0.4478609 -0.7118578
vn 0.5133904 -0.4420269 -0.7355559
vn 0.5591302 -0.4613561 -0.6888571
vn 0.5777244 -0.4861734 -0.6556446
vn 0.534931 -0.5726836 -0.6211942
vn 0.534931 -0.5726836 -0.6211942
vn 0.5005972 -0.6361628 -0.587111
vn -0.5095329 0.4755886 0.7170717
vn -0.5095329 0.4755886 0.7170717
vn -0.5409982 0.4478609 0.7118578
vn -0.5133904 0.4420269 0.7355559
vn -0.5591302 0.4613561 0.6888571
vn -0.5777244 0.4861734 0.6556446
vn -0.534931 0.5726836 0.6211942
vn -0.534931 0.5726836 0.6211942
vn -0.5005972 0.6361628 0.587111
g CornPlant Combined Mesh_0
f 3/3/3 2/2/2 1/1/1
f 4/4/4 3/3/3 1/1/1
f 1/1/1 5/5/5 4/4/4
f 3/3/3 6/6/6 2/2/2
f 3/3/3 7/7/7 6/6/6
f 7/7/7 8/8/8 6/6/6
f 8/8/8 9/9/9 6/6/6
f 12/12/12 11/11/11 10/10/10
f 13/13/13 12/12/12 10/10/10
f 14/14/14 10/10/10 11/11/11
f 15/15/15 12/12/12 13/13/13
f 16/16/16 12/12/12 15/15/15
f 17/17/17 16/16/16 15/15/15
f 18/18/18 17/17/17 15/15/15
f 21/21/21 20/20/20 19/19/19
f 22/22/22 21/21/21 19/19/19
f 19/19/19 23/23/23 22/22/22
f 21/21/21 24/24/24 20/20/20
f 21/21/21 25/25/25 24/24/24
f 25/25/25 26/26/26 24/24/24
f 26/26/26 27/27/27 24/24/24
f 30/30/30 29/29/29 28/28/28
f 31/31/31 30/30/30 28/28/28
f 32/32/32 28/28/28 29/29/29
f 33/33/33 30/30/30 31/31/31
f 34/34/34 30/30/30 33/33/33
f 35/35/35 34/34/34 33/33/33
f 36/36/36 35/35/35 33/33/33
f 39/39/39 38/38/38 37/37/37
f 39/39/39 40/40/40 38/38/38
f 39/39/39 41/41/41 40/40/40
f 42/42/42 41/41/41 39/39/39
f 43/43/43 41/41/41 42/42/42
f 43/43/43 44/44/44 41/41/41
f 44/44/44 43/43/43 45/45/45
f 48/48/48 47/47/47 46/46/46
f 48/48/48 46/46/46 49/49/49
f 48/48/48 49/49/49 50/50/50
f 51/51/51 48/48/48 50/50/50
f 52/52/52 51/51/51 50/50/50
f 52/52/52 50/50/50 53/53/53
f 53/53/53 54/54/54 52/52/52
f 57/57/57 56/56/56 55/55/55
f 57/57/57 58/58/58 56/56/56
f 57/57/57 59/59/59 58/58/58
f 60/60/60 59/59/59 57/57/57
f 61/61/61 59/59/59 60/60/60
f 61/61/61 62/62/62 59/59/59
f 62/62/62 61/61/61 63/63/63
f 66/66/66 65/65/65 64/64/64
f 66/66/66 64/64/64 67/67/67
f 66/66/66 67/67/67 68/68/68
f 69/69/69 66/66/66 68/68/68
f 70/70/70 69/69/69 68/68/68
f 70/70/70 68/68/68 71/71/71
f 71/71/71 72/72/72 70/70/70
f 75/75/75 74/74/74 73/73/73
f 76/76/76 75/75/75 73/73/73
f 73/73/73 77/77/77 76/76/76
f 75/75/75 78/78/78 74/74/74
f 75/75/75 79/79/79 78/78/78
f 79/79/79 80/80/80 78/78/78
f 80/80/80 81/81/81 78/78/78
f 84/84/84 83/83/83 82/82/82
f 85/85/85 84/84/84 82/82/82
f 86/86/86 82/82/82 83/83/83
f 87/87/87 84/84/84 85/85/85
f 88/88/88 84/84/84 87/87/87
f 89/89/89 88/88/88 87/87/87
f 90/90/90 89/89/89 87/87/87
f 93/93/93 92/92/92 91/91/91
f 94/94/94 93/93/93 91/91/91
f 91/91/91 95/95/95 94/94/94
f 93/93/93 96/96/96 92/92/92
f 93/93/93 97/97/97 96/96/96
f 97/97/97 98/98/98 96/96/96
f 98/98/98 99/99/99 96/96/96
f 102/102/102 101/101/101 100/100/100
f 103/103/103 102/102/102 100/100/100
f 104/104/104 100/100/100 101/101/101
f 105/105/105 102/102/102 103/103/103
f 106/106/106 102/102/102 105/105/105
f 107/107/107 106/106/106 105/105/105
f 108/108/108 107/107/107 105/105/105
f 111/111/111 110/110/110 109/109/109
f 111/111/111 112/112/112 110/110/110
f 111/111/111 113/113/113 112/112/112
f 114/114/114 113/113/113 111/111/111
f 115/115/115 113/113/113 114/114/114
f 115/115/115 116/116/116 113/113/113
f 116/116/116 115/115/115 117/117/117
f 120/120/120 119/119/119 118/118/118
f 120/120/120 118/118/118 121/121/121
f 120/120/120 121/121/121 122/122/122
f 123/123/123 120/120/120 122/122/122
f 124/124/124 123/123/123 122/122/122
f 124/124/124 122/122/122 125/125/125
f 125/125/125 126/126/126 124/124/124
f 129/129/129 128/128/128 127/127/127
f 129/129/129 130/130/130 128/128/128
f 129/129/129 131/131/131 130/130/130
f 132/132/132 131/131/131 129/129/129
f 133/133/133 131/131/131 132/132/132
f 133/133/133 134/134/134 131/131/131
f 134/134/134 133/133/133 135/135/135
f 138/138/138 137/137/137 136/136/136
f 138/138/138 136/136/136 139/139/139
f 138/138/138 139/139/139 140/140/140
f 141/141/141 138/138/138 140/140/140
f 142/142/142 141/141/141 140/140/140
f 142/142/142 140/140/140 143/143/143
f 143/143/143 144/144/144 142/142/142
f 147/147/147 146/146/146 145/145/145
f 148/148/148 147/147/147 145/145/145
f 145/145/145 149/149/149 148/148/148
f 147/147/147 150/150/150 146/146/146
f 147/147/147 151/151/151 150/150/150
f 151/151/151 152/152/152 150/150/150
f 152/152/152 153/153/153 150/150/150
f 156/156/156 155/155/155 154/154/154
f 157/157/157 156/156/156 154/154/154
f 158/158/158 154/154/154 155/155/155
f 159/159/159 156/156/156 157/157/157
f 160/160/160 156/156/156 159/159/159
f 161/161/161 160/160/160 159/159/159
f 162/162/162 161/161/161 159/159/159
f 165/165/165 164/164/164 163/163/163
f 166/166/166 165/165/165 163/163/163
f 163/163/163 167/167/167 166/166/166
f 165/165/165 168/168/168 164/164/164
f 165/165/165 169/169/169 168/168/168
f 169/169/169 170/170/170 168/168/168
f 170/170/170 171/171/171 168/168/168
f 174/174/174 173/173/173 172/172/172
f 175/175/175 174/174/174 172/172/172
f 176/176/176 172/172/172 173/173/173
f 177/177/177 174/174/174 175/175/175
f 178/178/178 174/174/174 177/177/177
f 179/179/179 178/178/178 177/177/177
f 180/180/180 179/179/179 177/177/177
f 183/183/183 182/182/182 181/181/181
f 183/183/183 184/184/184 182/182/182
f 183/183/183 185/185/185 184/184/184
f 186/186/186 185/185/185 183/183/183
f 187/187/187 185/185/185 186/186/186
f 187/187/187 188/188/188 185/185/185
f 188/188/188 187/187/187 189/189/189
f 192/192/192 191/191/191 190/190/190
f 192/192/192 190/190/190 193/193/193
f 192/192/192 193/193/193 194/194/194
f 195/195/195 192/192/192 194/194/194
f 196/196/196 195/195/195 194/194/194
f 196/196/196 194/194/194 197/197/197
f 197/197/197 198/198/198 196/196/196
f 201/201/201 200/200/200 199/199/199
f 201/201/201 202/202/202 200/200/200
f 201/201/201 203/203/203 202/202/202
f 204/204/204 203/203/203 201/201/201
f 205/205/205 203/203/203 204/204/204
f 205/205/205 206/206/206 203/203/203
f 206/206/206 205/205/205 207/207/207
f 210/210/210 209/209/209 208/208/208
f 210/210/210 208/208/208 211/211/211
f 210/210/210 211/211/211 212/212/212
f 213/213/213 210/210/210 212/212/212
f 214/214/214 213/213/213 212/212/212
f 214/214/214 212/212/212 215/215/215
f 215/215/215 216/216/216 214/214/214
