g CornPlant_Impostor
v 0.8156651 -0.07801657 0
v 0.1231538 -1.773653 0
v -0.1374467 -1.773653 0
v -0.7869902 -0.164956 0
v -0.7873788 0.4485194 0
v -0.4631256 1.791214 0
v 0.4684912 1.791214 0
v 0.7313977 0.7528513 0
vt 0.2711934 0.4756521
vt 0.4654535 0
vt 0.5385559 0
vt 0.7207628 0.4512643
vt 0.7208719 0.6233535
vt 0.6299139 1
vt 0.368581 1
vt 0.2948317 0.7087233
vn 0 0 -1
vn 0 0 -1
vn 0 0 -1
vn 0 0 -1
vn 0 0 -0.9999999
vn 0 0 -1
vn 0 0 -1
vn 0 0 -0.9999999
g CornPlant_Impostor_0
f 4/4/4 6/6/6 8/8/8
f 8/8/8 2/2/2 4/4/4
f 6/6/6 7/7/7 8/8/8
f 4/4/4 5/5/5 6/6/6
f 2/2/2 3/3/3 4/4/4
f 8/8/8 1/1/1 2/2/2
