g CottenThread
v 0.101995 0.110961 -0.045152
v 0.101995 0.050737 -0.104417
v 0.139869 0.050651 -0.104429
v 0.140248 0.110861 -0.045163
v 0.140347 0.106104 0.052818
v 0.14008 0.040986 0.107361
v 0.101995 0.041072 0.107386
v 0.101995 0.106205 0.052841
v 0.101995 0.110961 -0.045152
v 0.140248 0.110861 -0.045163
v 0.139607 -0.051063 0.104343
v 0.139227 -0.11142 0.045178
v 0.101995 -0.11132 0.045189
v 0.101995 -0.050977 0.104355
v 0.139126 -0.106857 -0.052915
v 0.101995 -0.041545 -0.107542
v 0.101995 -0.106756 -0.052892
v 0.139394 -0.041631 -0.107567
v 0.139869 0.050651 -0.104429
v 0.101995 0.050737 -0.104417
v 0.101995 -0.106756 -0.052892
v 0.101995 -0.11132 0.045189
v 0.139227 -0.11142 0.045178
v 0.139607 -0.051063 0.104343
v 0.101995 -0.050977 0.104355
v 0.101995 0.041072 0.107386
v 0.14008 0.040986 0.107361
v 0.108 -0.018848 0.041487
v 0.072462 -0.040502 0.01985
v 0.072555 -0.018593 0.041536
v 0.108 -0.040754 0.019802
v 0.108 -0.038762 -0.022617
v 0.072433 -0.038511 -0.02257
v 0.072499 -0.014796 -0.042638
v 0.108 -0.01505 -0.042684
v 0.108 0.018564 -0.041557
v 0.072616 0.018818 -0.041508
v 0.072709 0.040664 -0.019791
v 0.108 0.040412 -0.01984
v 0.108 0.038329 0.022538
v 0.072737 0.038581 0.022585
v 0.072671 0.014898 0.042617
v 0.108 0.014644 0.042571
v 0.108 -0.018848 0.041487
v 0.072555 -0.018593 0.041536
v -0.101995 0.110961 -0.045152
v -0.140248 0.110861 -0.045163
v -0.139869 0.050651 -0.104429
v -0.101995 0.050737 -0.104417
v -0.071508 0.054452 0.030623
v 0 0.055054 0.030725
v 0 0.021388 0.059542
v -0.071399 0.020759 0.059441
v -0.072737 0.038581 0.022585
v -0.072671 0.014898 0.042617
v -0.072555 -0.018593 0.041536
v -0.071469 0.0572 -0.026421
v 0 0.057806 -0.026288
v -0.072709 0.040664 -0.019791
v 0 0.055054 0.030725
v -0.072616 0.018818 -0.041508
v -0.071216 -0.025671 0.057899
v 0 0.021388 0.059542
v 0 -0.025037 0.058026
v 0 -0.056395 0.026643
v -0.071064 -0.057001 0.02651
v -0.072462 -0.040502 0.01985
v -0.072433 -0.038511 -0.02257
v -0.071318 0.025938 -0.057862
v -0.071024 -0.054369 -0.030581
v 0.071508 0.054452 0.030623
v 0 0.021388 0.059542
v 0.071216 -0.025671 0.057899
v -0.071134 -0.020636 -0.059457
v 0 -0.020007 -0.059357
v -0.072499 -0.014796 -0.042638
v 0 0.026571 -0.057735
v 0.071318 0.025938 -0.057862
v 0.071469 0.0572 -0.026421
v 0.071399 0.020759 0.059441
v 0 -0.053767 -0.030479
v 0.071024 -0.054369 -0.030581
v 0.071134 -0.020636 -0.059457
v 0.071064 -0.057001 0.02651
v 0.072616 0.018818 -0.041508
v 0.072709 0.040664 -0.019791
v 0.072499 -0.014796 -0.042638
v 0.072737 0.038581 0.022585
v 0.072671 0.014898 0.042617
v 0.072433 -0.038511 -0.02257
v 0.072462 -0.040502 0.01985
v 0.072555 -0.018593 0.041536
v -0.140347 0.106104 0.052818
v -0.101995 0.041072 0.107386
v -0.14008 0.040986 0.107361
v -0.101995 0.106205 0.052841
v -0.101995 0.110961 -0.045152
v -0.140248 0.110861 -0.045163
v -0.139607 -0.051063 0.104343
v -0.101995 -0.050977 0.104355
v -0.101995 -0.11132 0.045189
v -0.139227 -0.11142 0.045178
v -0.139126 -0.106857 -0.052915
v -0.101995 -0.106756 -0.052892
v -0.101995 -0.041545 -0.107542
v -0.139394 -0.041631 -0.107567
v -0.139869 0.050651 -0.104429
v -0.101995 0.050737 -0.104417
v -0.139227 -0.11142 0.045178
v -0.101995 -0.11132 0.045189
v -0.101995 -0.106756 -0.052892
v -0.139607 -0.051063 0.104343
v -0.14008 0.040986 0.107361
v -0.101995 0.041072 0.107386
v -0.101995 -0.050977 0.104355
v -0.108 -0.018848 0.041487
v -0.072555 -0.018593 0.041536
v -0.072462 -0.040502 0.01985
v -0.108 -0.040754 0.019802
v -0.108 -0.038762 -0.022617
v -0.072433 -0.038511 -0.02257
v -0.072499 -0.014796 -0.042638
v -0.108 -0.01505 -0.042684
v -0.108 0.018564 -0.041557
v -0.072616 0.018818 -0.041508
v -0.072709 0.040664 -0.019791
v -0.108 0.040412 -0.01984
v -0.108 0.038329 0.022538
v -0.072737 0.038581 0.022585
v -0.072671 0.014898 0.042617
v -0.108 0.014644 0.042571
v -0.108 -0.018848 0.041487
v -0.072555 -0.018593 0.041536
v 0.101995 -0.106756 -0.052892
v 0.108 -0.01505 -0.042684
v 0.108 -0.038762 -0.022617
v 0.108 -0.040754 0.019802
v 0.101995 -0.041545 -0.107542
v 0.101995 -0.11132 0.045189
v 0.101995 0.050737 -0.104417
v 0.108 0.018564 -0.041557
v 0.101995 -0.050977 0.104355
v 0.108 -0.018848 0.041487
v 0.108 0.040412 -0.01984
v 0.101995 0.110961 -0.045152
v 0.108 0.014644 0.042571
v 0.101995 0.041072 0.107386
v 0.101995 0.106205 0.052841
v 0.108 0.038329 0.022538
v -0.101995 -0.106756 -0.052892
v -0.108 -0.038762 -0.022617
v -0.108 -0.01505 -0.042684
v -0.108 -0.040754 0.019802
v -0.101995 -0.041545 -0.107542
v -0.101995 -0.11132 0.045189
v -0.101995 0.050737 -0.104417
v -0.108 0.018564 -0.041557
v -0.101995 -0.050977 0.104355
v -0.108 -0.018848 0.041487
v -0.108 0.040412 -0.01984
v -0.101995 0.110961 -0.045152
v -0.108 0.014644 0.042571
v -0.101995 0.041072 0.107386
v -0.101995 0.106205 0.052841
v -0.108 0.038329 0.022538
v 0.133662 -0.00792 -0.02565
v 0.139394 -0.041631 -0.107567
v 0.139126 -0.106857 -0.052915
v 0.13361 -0.02038 -0.015209
v 0.139227 -0.11142 0.045178
v 0.133753 0.009677 -0.025052
v 0.139869 0.050651 -0.104429
v 0.133641 -0.021723 0.013653
v 0.139607 -0.051063 0.104343
v 0.133824 0.021149 -0.01376
v 0.140248 0.110861 -0.045163
v 0.133713 -0.010211 0.024938
v 0.14008 0.040986 0.107361
v 0.133854 0.019749 0.015081
v 0.140347 0.106104 0.052818
v 0.133802 0.007295 0.025512
v 0 -0.007342 -0.025542
v 0 0.010255 -0.024944
v 0 -0.019803 -0.015101
v 0 0.021727 -0.013652
v 0 -0.021145 0.013761
v 0 -0.009633 0.025046
v 0 0.007873 0.02562
v 0 0.020327 0.015188
v -0.13361 -0.02038 -0.015209
v -0.133662 -0.00792 -0.02565
v -0.133641 -0.021723 0.013653
v -0.133713 -0.010211 0.024938
v -0.133753 0.009677 -0.025052
v -0.133824 0.021149 -0.01376
v -0.133802 0.007295 0.025512
v -0.133854 0.019749 0.015081
v -0.139126 -0.106857 -0.052915
v -0.139394 -0.041631 -0.107567
v -0.139227 -0.11142 0.045178
v -0.139869 0.050651 -0.104429
v -0.140248 0.110861 -0.045163
v -0.139607 -0.051063 0.104343
v -0.140347 0.106104 0.052818
v -0.14008 0.040986 0.107361
vt 0.142385 0.58132
vt 0.203194 0.535878
vt 0.203193 0.535878
vt 0.142385 0.581321
vt 0.14249 0.733283
vt 0.203469 0.778725
vt 0.20347 0.778725
vt 0.14249 0.733283
vt 0.142385 0.58132
vt 0.142385 0.581321
vt 0.290578 0.778728
vt 0.351556 0.733292
vt 0.351556 0.733293
vt 0.290576 0.778728
vt 0.351662 0.581311
vt 0.290852 0.535875
vt 0.351662 0.581311
vt 0.290853 0.535875
vt 0.203193 0.535878
vt 0.203194 0.535878
vt 0.351662 0.581311
vt 0.351556 0.733293
vt 0.351556 0.733292
vt 0.290578 0.778728
vt 0.290576 0.778728
vt 0.20347 0.778725
vt 0.203469 0.778725
vt 0.290576 0.778728
vt 0.351556 0.733293
vt 0.290575 0.778728
vt 0.351556 0.733293
vt 0.351662 0.581311
vt 0.351662 0.581311
vt 0.290852 0.535875
vt 0.290852 0.535875
vt 0.203195 0.535878
vt 0.203195 0.535878
vt 0.142385 0.58132
vt 0.142385 0.58132
vt 0.14249 0.733283
vt 0.14249 0.733283
vt 0.203471 0.778725
vt 0.203471 0.778725
vt 0.290576 0.778728
vt 0.290575 0.778728
vt 0.142385 0.58132
vt 0.142385 0.581321
vt 0.203193 0.535878
vt 0.203194 0.535878
vt 0.67535 0.758951
vt 0.67535 0.758951
vt 0.715458 0.788838
vt 0.715457 0.788838
vt 0.67535 0.758951
vt 0.715457 0.788838
vt 0.772745 0.78884
vt 0.675281 0.659005
vt 0.675281 0.659005
vt 0.675281 0.659005
vt 0.67535 0.758951
vt 0.715276 0.629118
vt 0.772745 0.78884
vt 0.715458 0.788838
vt 0.772745 0.78884
vt 0.812853 0.758957
vt 0.812853 0.758957
vt 0.812853 0.758957
vt 0.812922 0.658999
vt 0.715276 0.629118
vt 0.812922 0.658999
vt 0.67535 0.758951
vt 0.715458 0.788838
vt 0.772745 0.78884
vt 0.772927 0.629116
vt 0.772927 0.629116
vt 0.772927 0.629116
vt 0.715276 0.629118
vt 0.715276 0.629118
vt 0.675281 0.659005
vt 0.715457 0.788838
vt 0.812922 0.658999
vt 0.812922 0.658999
vt 0.772927 0.629116
vt 0.812853 0.758957
vt 0.715276 0.629118
vt 0.675281 0.659005
vt 0.772927 0.629116
vt 0.67535 0.758951
vt 0.715457 0.788838
vt 0.812922 0.658999
vt 0.812853 0.758957
vt 0.772745 0.78884
vt 0.14249 0.733283
vt 0.20347 0.778725
vt 0.203469 0.778725
vt 0.14249 0.733283
vt 0.142385 0.58132
vt 0.142385 0.581321
vt 0.290578 0.778728
vt 0.290576 0.778728
vt 0.351556 0.733293
vt 0.351556 0.733292
vt 0.351662 0.581311
vt 0.351662 0.581311
vt 0.290852 0.535875
vt 0.290853 0.535875
vt 0.203193 0.535878
vt 0.203194 0.535878
vt 0.351556 0.733292
vt 0.351556 0.733293
vt 0.351662 0.581311
vt 0.290578 0.778728
vt 0.203469 0.778725
vt 0.20347 0.778725
vt 0.290576 0.778728
vt 0.290576 0.778728
vt 0.290575 0.778728
vt 0.351556 0.733293
vt 0.351556 0.733293
vt 0.351662 0.581311
vt 0.351662 0.581311
vt 0.290852 0.535875
vt 0.290852 0.535875
vt 0.203195 0.535878
vt 0.203195 0.535878
vt 0.142385 0.58132
vt 0.142385 0.58132
vt 0.14249 0.733283
vt 0.14249 0.733283
vt 0.203471 0.778725
vt 0.203471 0.778725
vt 0.290576 0.778728
vt 0.290575 0.778728
vt 0.351662 0.581311
vt 0.290852 0.535875
vt 0.351662 0.581311
vt 0.351556 0.733293
vt 0.290852 0.535875
vt 0.351556 0.733293
vt 0.203194 0.535878
vt 0.203195 0.535878
vt 0.290576 0.778728
vt 0.290576 0.778728
vt 0.142385 0.58132
vt 0.142385 0.58132
vt 0.203471 0.778725
vt 0.20347 0.778725
vt 0.14249 0.733283
vt 0.14249 0.733283
vt 0.351662 0.581311
vt 0.351662 0.581311
vt 0.290852 0.535875
vt 0.351556 0.733293
vt 0.290852 0.535875
vt 0.351556 0.733293
vt 0.203194 0.535878
vt 0.203195 0.535878
vt 0.290576 0.778728
vt 0.290576 0.778728
vt 0.142385 0.58132
vt 0.142385 0.58132
vt 0.203471 0.778725
vt 0.20347 0.778725
vt 0.14249 0.733283
vt 0.14249 0.733283
vt 0.259385 0.612175
vt 0.290853 0.535875
vt 0.351662 0.581311
vt 0.276241 0.630822
vt 0.351556 0.733292
vt 0.234639 0.61214
vt 0.203193 0.535878
vt 0.276265 0.68376
vt 0.290578 0.778728
vt 0.217782 0.630798
vt 0.142385 0.581321
vt 0.259362 0.702418
vt 0.203469 0.778725
vt 0.217906 0.683712
vt 0.14249 0.733283
vt 0.234762 0.702356
vt 0.259385 0.612175
vt 0.234639 0.61214
vt 0.276241 0.630822
vt 0.217782 0.630798
vt 0.276265 0.68376
vt 0.259362 0.702418
vt 0.234762 0.702356
vt 0.217906 0.683712
vt 0.276241 0.630822
vt 0.259385 0.612175
vt 0.276265 0.68376
vt 0.259362 0.702418
vt 0.234639 0.61214
vt 0.217782 0.630798
vt 0.234762 0.702356
vt 0.217906 0.683712
vt 0.351662 0.581311
vt 0.290853 0.535875
vt 0.351556 0.733292
vt 0.203193 0.535878
vt 0.142385 0.581321
vt 0.290578 0.778728
vt 0.14249 0.733283
vt 0.203469 0.778725
vn 0.002268795 0.9315583 -0.3635849
vn 0.000583533 0.3951103 -0.9186335
vn 0.0005839865 0.3952686 -0.9185653
vn 0.002269004 0.9316125 -0.3634461
vn 0.002562265 0.8956435 0.4447651
vn 0.001321396 0.3266411 0.9451476
vn 0.001321088 0.3265142 0.9451913
vn 0.002562284 0.8956555 0.4447412
vn 0.002268795 0.9315583 -0.3635849
vn 0.002269004 0.9316125 -0.3634461
vn -0.0005918221 -0.3926269 0.9196977
vn -0.002322953 -0.9305522 0.366152
vn -0.002323149 -0.9306009 0.3660281
vn -0.0005922609 -0.3927782 0.919633
vn -0.002635105 -0.8960313 -0.4439832
vn -0.00134749 -0.3252962 -0.9456112
vn -0.002635076 -0.8960146 -0.4440168
vn -0.001347206 -0.3251826 -0.9456502
vn 0.0005839865 0.3952686 -0.9185653
vn 0.000583533 0.3951103 -0.9186335
vn -0.002635076 -0.8960146 -0.4440168
vn -0.002323149 -0.9306009 0.3660281
vn -0.002322953 -0.9305522 0.366152
vn -0.0005918221 -0.3926269 0.9196977
vn -0.0005922609 -0.3927782 0.919633
vn 0.001321088 0.3265142 0.9451913
vn 0.001321396 0.3266411 0.9451476
vn -0.001593247 -0.3967454 0.9179274
vn 0.7783244 -0.5856765 0.2262613
vn 0.7690427 -0.2551182 0.5860786
vn -0.006123538 -0.9320193 0.3623569
vn -0.006936864 -0.8972657 -0.4414363
vn 0.7757242 -0.5665848 -0.2779093
vn 0.7663095 -0.213064 -0.6061134
vn -0.003592943 -0.3295418 -0.9441341
vn 0.001581101 0.3952328 -0.9185796
vn 0.7709229 0.2505159 -0.5855935
vn 0.7849886 0.57729 -0.2247868
vn 0.006161458 0.9320768 -0.3622083
vn 0.006996504 0.8962852 0.4434229
vn 0.7830326 0.5575598 0.2756574
vn 0.7701114 0.2077216 0.603142
vn 0.003603685 0.3272721 0.9449233
vn -0.001593247 -0.3967454 0.9179274
vn 0.7690427 -0.2551182 0.5860786
vn -0.002268793 0.9315583 -0.3635849
vn -0.002269001 0.9316125 -0.3634461
vn -0.0005839865 0.3952685 -0.9185653
vn -0.0005835329 0.3951103 -0.9186335
vn -0.6099535 0.7111751 0.3495522
vn 0 0.8982592 0.4394659
vn 0 0.33275 0.943015
vn -0.6132541 0.2587717 0.7462953
vn -0.7830326 0.5575598 0.2756574
vn -0.7701114 0.2077216 0.603142
vn -0.7690427 -0.2551182 0.5860786
vn -0.6082101 0.7401927 -0.2866971
vn 0 0.9338274 -0.3577239
vn -0.7849886 0.57729 -0.2247868
vn 0 0.8982592 0.4394659
vn -0.7709229 0.2505159 -0.5855935
vn -0.6085187 -0.318933 0.726627
vn 0 0.33275 0.943015
vn 0 -0.3962347 0.9181492
vn 0 -0.9321096 0.3621764
vn -0.5992432 -0.7472029 0.2873943
vn -0.7783244 -0.5856765 0.2262613
vn -0.7757243 -0.5665847 -0.2779094
vn -0.6107677 0.3137093 -0.727014
vn -0.5996076 -0.7193753 -0.3506709
vn 0.6099534 0.7111751 0.3495522
vn 0 0.33275 0.943015
vn 0.6085187 -0.318933 0.726627
vn -0.6078584 -0.2649661 -0.7485327
vn 0 -0.3285892 -0.9444729
vn -0.7663095 -0.213064 -0.6061134
vn 0 0.4018972 -0.9156848
vn 0.6107676 0.3137094 -0.727014
vn 0.6082101 0.7401927 -0.2866971
vn 0.6132541 0.2587717 0.7462952
vn 0 -0.8982037 -0.4395794
vn 0.5996076 -0.7193753 -0.3506709
vn 0.6078584 -0.2649661 -0.7485327
vn 0.5992432 -0.747203 0.2873943
vn 0.7709229 0.2505159 -0.5855935
vn 0.7849886 0.57729 -0.2247868
vn 0.7663095 -0.213064 -0.6061134
vn 0.7830326 0.5575598 0.2756574
vn 0.7701114 0.2077216 0.603142
vn 0.7757242 -0.5665848 -0.2779093
vn 0.7783244 -0.5856765 0.2262613
vn 0.7690427 -0.2551182 0.5860786
vn -0.002562267 0.8956436 0.4447651
vn -0.00132109 0.3265142 0.9451913
vn -0.001321399 0.3266411 0.9451476
vn -0.002562287 0.8956555 0.4447412
vn -0.002268793 0.9315583 -0.3635849
vn -0.002269001 0.9316125 -0.3634461
vn 0.0005918177 -0.3926269 0.9196977
vn 0.0005922565 -0.3927782 0.919633
vn 0.002323144 -0.9306009 0.3660281
vn 0.002322949 -0.9305522 0.366152
vn 0.002635099 -0.8960313 -0.4439832
vn 0.00263507 -0.8960146 -0.4440168
vn 0.001347482 -0.3252962 -0.9456112
vn 0.001347198 -0.3251826 -0.9456502
vn -0.0005839865 0.3952685 -0.9185653
vn -0.0005835329 0.3951103 -0.9186335
vn 0.002322949 -0.9305522 0.366152
vn 0.002323144 -0.9306009 0.3660281
vn 0.00263507 -0.8960146 -0.4440168
vn 0.0005918177 -0.3926269 0.9196977
vn -0.001321399 0.3266411 0.9451476
vn -0.00132109 0.3265142 0.9451913
vn 0.0005922565 -0.3927782 0.919633
vn 0.001593244 -0.3967454 0.9179274
vn -0.7690427 -0.2551182 0.5860786
vn -0.7783244 -0.5856765 0.2262613
vn 0.006123535 -0.9320193 0.362357
vn 0.006936867 -0.8972657 -0.4414363
vn -0.7757243 -0.5665847 -0.2779094
vn -0.7663095 -0.213064 -0.6061134
vn 0.003592944 -0.3295418 -0.9441341
vn -0.001581101 0.3952329 -0.9185796
vn -0.7709229 0.2505159 -0.5855935
vn -0.7849886 0.57729 -0.2247868
vn -0.006161456 0.9320768 -0.3622083
vn -0.00699651 0.8962852 0.4434228
vn -0.7830326 0.5575598 0.2756574
vn -0.7701114 0.2077216 0.603142
vn -0.003603689 0.3272721 0.9449233
vn 0.001593244 -0.3967454 0.9179274
vn -0.7690427 -0.2551182 0.5860786
vn -0.996752 0.07244976 0.035166
vn -0.9963322 0.0263962 0.08139683
vn -0.9967446 0.07166581 0.03693308
vn -0.9967997 0.07406978 -0.03006619
vn -0.996345 0.02863477 0.08047752
vn -0.9968034 0.07453149 -0.02877562
vn -0.9963995 -0.03439134 0.07749344
vn -0.9963807 -0.03174992 0.07885018
vn -0.9963979 0.03429858 -0.07755499
vn -0.9963787 0.03162499 -0.07892548
vn -0.9967967 -0.07417876 0.02990048
vn -0.9968001 -0.07462101 0.02866019
vn -0.9963259 -0.02647709 -0.08144736
vn -0.9963384 -0.02867237 -0.08054712
vn -0.9967431 -0.07250653 -0.0352977
vn -0.9967358 -0.07171768 -0.03707081
vn 0.996752 0.07244976 0.035166
vn 0.9967446 0.07166581 0.03693308
vn 0.9963322 0.0263962 0.08139683
vn 0.9967997 0.07406978 -0.03006619
vn 0.996345 0.02863477 0.08047752
vn 0.9968034 0.07453149 -0.02877562
vn 0.9963995 -0.03439134 0.07749344
vn 0.9963807 -0.03174992 0.07885017
vn 0.9963979 0.03429858 -0.07755501
vn 0.9963787 0.03162499 -0.07892548
vn 0.9967967 -0.07417876 0.02990048
vn 0.9968001 -0.07462101 0.02866019
vn 0.9963259 -0.02647709 -0.08144737
vn 0.9963384 -0.02867236 -0.08054713
vn 0.9967431 -0.07250653 -0.0352977
vn 0.9967358 -0.07171768 -0.03707081
vn 0.771884 0.2027376 0.6025715
vn 0.9978843 0.01758295 0.06259154
vn 0.9982896 0.05212736 0.02646641
vn 0.7872619 0.5516942 0.2754126
vn 0.9982668 0.05377101 -0.02391508
vn 0.7714686 -0.2536986 0.5835007
vn 0.9976633 -0.03235741 0.06017604
vn 0.7890289 0.5705914 -0.2277252
vn 0.9977881 0.02210022 -0.0626948
vn 0.784036 -0.5787871 0.224261
vn 0.9977239 -0.06397558 0.02130914
vn 0.7724911 0.2447242 -0.5859758
vn 0.9974942 -0.02783467 -0.06504308
vn 0.7811969 -0.5590631 -0.2778124
vn 0.9976331 -0.06233873 -0.0290186
vn 0.7684773 -0.2110069 -0.604085
vn 0 0.3248581 0.9457628
vn 0 -0.3955993 0.9184232
vn 0 0.8959531 0.4441487
vn 0 -0.9316747 0.3632936
vn 0 0.9304897 -0.3663182
vn 0 0.3922859 -0.9198434
vn 0 -0.3269758 -0.9450328
vn 0 -0.8957331 -0.4445921
vn -0.7872619 0.5516943 0.2754126
vn -0.771884 0.2027376 0.6025716
vn -0.7890289 0.5705914 -0.2277252
vn -0.7724912 0.2447242 -0.5859756
vn -0.7714687 -0.2536986 0.5835007
vn -0.784036 -0.5787871 0.224261
vn -0.7684774 -0.2110068 -0.604085
vn -0.781197 -0.5590631 -0.2778124
vn -0.9982896 0.05212736 0.02646642
vn -0.9978843 0.01758295 0.06259155
vn -0.9982668 0.053771 -0.02391508
vn -0.9976633 -0.03235741 0.06017604
vn -0.9977239 -0.06397557 0.02130914
vn -0.9977881 0.02210022 -0.06269479
vn -0.9976331 -0.06233872 -0.02901861
vn -0.9974942 -0.02783466 -0.06504308
g CottenThread_0
f 3/3/3 2/2/2 1/1/1
f 4/4/4 3/3/3 1/1/1
f 7/7/7 6/6/6 5/5/5
f 8/8/8 7/7/7 5/5/5
f 9/9/9 8/8/8 5/5/5
f 10/10/10 9/9/9 5/5/5
f 13/13/13 12/12/12 11/11/11
f 14/14/14 13/13/13 11/11/11
f 17/17/17 16/16/16 15/15/15
f 16/16/16 18/18/18 15/15/15
f 18/18/18 16/16/16 19/19/19
f 16/16/16 20/20/20 19/19/19
f 22/22/22 21/21/21 15/15/15
f 23/23/23 22/22/22 15/15/15
f 26/26/26 25/25/25 24/24/24
f 27/27/27 26/26/26 24/24/24
f 30/30/30 29/29/29 28/28/28
f 29/29/29 31/31/31 28/28/28
f 31/31/31 29/29/29 32/32/32
f 29/29/29 33/33/33 32/32/32
f 33/33/33 34/34/34 32/32/32
f 34/34/34 35/35/35 32/32/32
f 35/35/35 34/34/34 36/36/36
f 34/34/34 37/37/37 36/36/36
f 36/36/36 37/37/37 38/38/38
f 39/39/39 36/36/36 38/38/38
f 39/39/39 38/38/38 40/40/40
f 38/38/38 41/41/41 40/40/40
f 41/41/41 42/42/42 40/40/40
f 42/42/42 43/43/43 40/40/40
f 43/43/43 42/42/42 44/44/44
f 42/42/42 45/45/45 44/44/44
f 48/48/48 47/47/47 46/46/46
f 49/49/49 48/48/48 46/46/46
f 52/52/52 51/51/51 50/50/50
f 53/53/53 52/52/52 50/50/50
f 53/53/53 50/50/50 54/54/54
f 55/55/55 53/53/53 54/54/54
f 53/53/53 55/55/55 56/56/56
f 50/50/50 57/57/57 54/54/54
f 58/58/58 57/57/57 50/50/50
f 57/57/57 59/59/59 54/54/54
f 60/60/60 58/58/58 50/50/50
f 61/61/61 59/59/59 57/57/57
f 62/62/62 53/53/53 56/56/56
f 63/63/63 53/53/53 62/62/62
f 64/64/64 63/63/63 62/62/62
f 65/65/65 64/64/64 62/62/62
f 66/66/66 62/62/62 56/56/56
f 66/66/66 65/65/65 62/62/62
f 67/67/67 66/66/66 56/56/56
f 66/66/66 67/67/67 68/68/68
f 69/69/69 61/61/61 57/57/57
f 69/69/69 57/57/57 58/58/58
f 70/70/70 66/66/66 68/68/68
f 65/65/65 66/66/66 70/70/70
f 58/58/58 60/60/60 71/71/71
f 60/60/60 72/72/72 71/71/71
f 72/72/72 64/64/64 73/73/73
f 64/64/64 65/65/65 73/73/73
f 69/69/69 74/74/74 61/61/61
f 74/74/74 70/70/70 68/68/68
f 75/75/75 74/74/74 69/69/69
f 74/74/74 75/75/75 70/70/70
f 74/74/74 76/76/76 61/61/61
f 76/76/76 74/74/74 68/68/68
f 77/77/77 69/69/69 58/58/58
f 77/77/77 75/75/75 69/69/69
f 78/78/78 77/77/77 58/58/58
f 75/75/75 77/77/77 78/78/78
f 79/79/79 58/58/58 71/71/71
f 79/79/79 78/78/78 58/58/58
f 72/72/72 80/80/80 71/71/71
f 80/80/80 72/72/72 73/73/73
f 75/75/75 81/81/81 70/70/70
f 81/81/81 65/65/65 70/70/70
f 81/81/81 75/75/75 82/82/82
f 65/65/65 81/81/81 82/82/82
f 83/83/83 75/75/75 78/78/78
f 75/75/75 83/83/83 82/82/82
f 65/65/65 84/84/84 73/73/73
f 84/84/84 65/65/65 82/82/82
f 85/85/85 78/78/78 79/79/79
f 83/83/83 78/78/78 85/85/85
f 86/86/86 85/85/85 79/79/79
f 87/87/87 83/83/83 85/85/85
f 86/86/86 79/79/79 88/88/88
f 79/79/79 71/71/71 88/88/88
f 71/71/71 80/80/80 88/88/88
f 80/80/80 89/89/89 88/88/88
f 83/83/83 87/87/87 90/90/90
f 82/82/82 83/83/83 90/90/90
f 84/84/84 82/82/82 90/90/90
f 91/91/91 84/84/84 90/90/90
f 89/89/89 80/80/80 92/92/92
f 84/84/84 91/91/91 92/92/92
f 80/80/80 73/73/73 92/92/92
f 73/73/73 84/84/84 92/92/92
f 95/95/95 94/94/94 93/93/93
f 94/94/94 96/96/96 93/93/93
f 96/96/96 97/97/97 93/93/93
f 97/97/97 98/98/98 93/93/93
f 101/101/101 100/100/100 99/99/99
f 102/102/102 101/101/101 99/99/99
f 105/105/105 104/104/104 103/103/103
f 106/106/106 105/105/105 103/103/103
f 105/105/105 106/106/106 107/107/107
f 108/108/108 105/105/105 107/107/107
f 110/110/110 109/109/109 103/103/103
f 111/111/111 110/110/110 103/103/103
f 114/114/114 113/113/113 112/112/112
f 115/115/115 114/114/114 112/112/112
f 118/118/118 117/117/117 116/116/116
f 119/119/119 118/118/118 116/116/116
f 118/118/118 119/119/119 120/120/120
f 121/121/121 118/118/118 120/120/120
f 122/122/122 121/121/121 120/120/120
f 123/123/123 122/122/122 120/120/120
f 122/122/122 123/123/123 124/124/124
f 125/125/125 122/122/122 124/124/124
f 125/125/125 124/124/124 126/126/126
f 124/124/124 127/127/127 126/126/126
f 126/126/126 127/127/127 128/128/128
f 129/129/129 126/126/126 128/128/128
f 130/130/130 129/129/129 128/128/128
f 131/131/131 130/130/130 128/128/128
f 130/130/130 131/131/131 132/132/132
f 133/133/133 130/130/130 132/132/132
f 136/136/136 135/135/135 134/134/134
f 137/137/137 136/136/136 134/134/134
f 135/135/135 138/138/138 134/134/134
f 139/139/139 137/137/137 134/134/134
f 138/138/138 135/135/135 140/140/140
f 135/135/135 141/141/141 140/140/140
f 137/137/137 139/139/139 142/142/142
f 143/143/143 137/137/137 142/142/142
f 140/140/140 141/141/141 144/144/144
f 145/145/145 140/140/140 144/144/144
f 146/146/146 143/143/143 142/142/142
f 147/147/147 146/146/146 142/142/142
f 145/145/145 144/144/144 148/148/148
f 146/146/146 147/147/147 148/148/148
f 144/144/144 149/149/149 148/148/148
f 149/149/149 146/146/146 148/148/148
f 152/152/152 151/151/151 150/150/150
f 151/151/151 153/153/153 150/150/150
f 154/154/154 152/152/152 150/150/150
f 153/153/153 155/155/155 150/150/150
f 152/152/152 154/154/154 156/156/156
f 157/157/157 152/152/152 156/156/156
f 155/155/155 153/153/153 158/158/158
f 153/153/153 159/159/159 158/158/158
f 157/157/157 156/156/156 160/160/160
f 156/156/156 161/161/161 160/160/160
f 159/159/159 162/162/162 158/158/158
f 162/162/162 163/163/163 158/158/158
f 160/160/160 161/161/161 164/164/164
f 163/163/163 162/162/162 164/164/164
f 165/165/165 160/160/160 164/164/164
f 162/162/162 165/165/165 164/164/164
f 168/168/168 167/167/167 166/166/166
f 169/169/169 168/168/168 166/166/166
f 170/170/170 168/168/168 169/169/169
f 166/166/166 167/167/167 171/171/171
f 167/167/167 172/172/172 171/171/171
f 173/173/173 170/170/170 169/169/169
f 174/174/174 170/170/170 173/173/173
f 171/171/171 172/172/172 175/175/175
f 172/172/172 176/176/176 175/175/175
f 177/177/177 174/174/174 173/173/173
f 178/178/178 174/174/174 177/177/177
f 175/175/175 176/176/176 179/179/179
f 176/176/176 180/180/180 179/179/179
f 180/180/180 178/178/178 181/181/181
f 181/181/181 178/178/178 177/177/177
f 179/179/179 180/180/180 181/181/181
f 166/166/166 182/182/182 169/169/169
f 171/171/171 183/183/183 166/166/166
f 183/183/183 182/182/182 166/166/166
f 169/169/169 184/184/184 173/173/173
f 182/182/182 184/184/184 169/169/169
f 175/175/175 185/185/185 171/171/171
f 185/185/185 183/183/183 171/171/171
f 173/173/173 186/186/186 177/177/177
f 184/184/184 186/186/186 173/173/173
f 177/177/177 187/187/187 181/181/181
f 186/186/186 187/187/187 177/177/177
f 181/181/181 188/188/188 179/179/179
f 187/187/187 188/188/188 181/181/181
f 179/179/179 189/189/189 175/175/175
f 189/189/189 185/185/185 175/175/175
f 188/188/188 189/189/189 179/179/179
f 184/184/184 182/182/182 190/190/190
f 182/182/182 183/183/183 191/191/191
f 182/182/182 191/191/191 190/190/190
f 186/186/186 184/184/184 192/192/192
f 184/184/184 190/190/190 192/192/192
f 187/187/187 186/186/186 193/193/193
f 186/186/186 192/192/192 193/193/193
f 183/183/183 185/185/185 194/194/194
f 183/183/183 194/194/194 191/191/191
f 185/185/185 189/189/189 195/195/195
f 185/185/185 195/195/195 194/194/194
f 188/188/188 187/187/187 196/196/196
f 187/187/187 193/193/193 196/196/196
f 189/189/189 188/188/188 197/197/197
f 189/189/189 197/197/197 195/195/195
f 188/188/188 196/196/196 197/197/197
f 198/198/198 190/190/190 191/191/191
f 199/199/199 198/198/198 191/191/191
f 199/199/199 191/191/191 194/194/194
f 198/198/198 200/200/200 190/190/190
f 201/201/201 199/199/199 194/194/194
f 201/201/201 194/194/194 195/195/195
f 200/200/200 192/192/192 190/190/190
f 202/202/202 201/201/201 195/195/195
f 202/202/202 195/195/195 197/197/197
f 200/200/200 203/203/203 192/192/192
f 204/204/204 202/202/202 197/197/197
f 204/204/204 197/197/197 196/196/196
f 203/203/203 193/193/193 192/192/192
f 205/205/205 204/204/204 196/196/196
f 205/205/205 196/196/196 193/193/193
f 203/203/203 205/205/205 193/193/193
