g CraftsmanBuildingFrontWindow
v 0.826922 0.065946 -0.06765
v 0.957818 0.066716 -0.067165
v 0.955323 0.068907 3.123127
v 0.847192 0.073739 3.105636
v -2.470624 -0.146401 3.123004
v -2.462512 0.147076 3.373291
v -2.462512 -0.139072 3.373291
v -2.470624 0.147076 3.123004
v -2.470624 -0.146401 -0.067292
v -2.470624 0.147076 -0.067292
v -2.470624 -0.146401 -0.330491
v -2.470624 0.147076 -0.330491
v 2.415936 -0.146401 3.123004
v 2.407823 -0.139072 3.373291
v 2.407823 0.147076 3.373291
v 2.415936 0.147076 3.123004
v 2.415936 -0.146401 -0.067292
v 2.415936 0.147076 -0.067292
v 2.415936 -0.146401 -0.330491
v 2.415936 0.147076 -0.330491
v 2.114393 0.147076 3.105974
v 2.407823 0.147076 3.373291
v 2.352252 0.147076 3.38062
v 2.415936 0.147076 3.123004
v 2.090936 0.147076 -0.067292
v 2.415936 0.147076 -0.067292
v 2.366049 0.147076 -0.330491
v 2.415936 0.147076 -0.330491
v 2.090936 -0.147237 -0.067292
v 2.415936 -0.146401 -0.330491
v 2.366049 -0.146401 -0.330491
v 2.415936 -0.146401 -0.067292
v 2.114393 -0.157552 3.105974
v 2.415936 -0.146401 3.123004
v 2.352252 -0.146401 3.38062
v 2.407823 -0.139072 3.373291
v 2.090936 -0.147237 -0.067292
v 2.090936 0.147076 -0.067292
v 2.114393 0.147076 3.105974
v 2.114393 -0.157552 3.105974
v -2.16908 0.147076 3.105974
v -2.40694 0.147076 3.38062
v -2.462512 0.147076 3.373291
v -2.470624 0.147076 3.123004
v -2.145624 0.147076 -0.067292
v -2.470624 0.147076 -0.067292
v -2.420736 0.147076 -0.330491
v -2.470624 0.147076 -0.330491
v -2.145624 -0.147237 -0.067292
v -2.420736 -0.146401 -0.330491
v -2.470624 -0.146401 -0.330491
v -2.470624 -0.146401 -0.067292
v -2.16908 -0.157552 3.105974
v -2.470624 -0.146401 3.123004
v -2.40694 -0.146401 3.38062
v -2.462512 -0.139072 3.373291
v -2.145624 -0.147237 -0.067292
v -2.16908 -0.157552 3.105974
v -2.16908 0.147076 3.105974
v -2.145624 0.147076 -0.067292
v 2.352252 -0.146401 3.38062
v 2.114393 -0.157552 3.105974
v -2.16908 -0.157552 3.105974
v -2.40694 -0.146401 3.38062
v 2.352252 0.147076 3.38062
v 2.352252 -0.146401 3.38062
v -2.40694 -0.146401 3.38062
v -2.40694 0.147076 3.38062
v 2.352252 0.147076 3.38062
v -2.40694 0.147076 3.38062
v -2.16908 0.147076 3.105974
v 2.114393 0.147076 3.105974
v 2.114393 0.147076 3.105974
v -2.16908 0.147076 3.105974
v -2.16908 -0.157552 3.105974
v 2.114393 -0.157552 3.105974
v 2.090936 -0.147237 -0.067292
v -2.145624 -0.147237 -0.067292
v -2.145624 0.147076 -0.067292
v 2.090936 0.147076 -0.067292
v 2.090936 0.147076 -0.067292
v -2.145624 0.147076 -0.067292
v -2.420736 0.147076 -0.330491
v 2.366049 0.147076 -0.330491
v 2.090936 -0.147237 -0.067292
v 2.366049 -0.146401 -0.330491
v -2.420736 -0.146401 -0.330491
v -2.145624 -0.147237 -0.067292
v -2.420736 0.147076 -0.330491
v -2.420736 -0.146401 -0.330491
v 2.366049 -0.146401 -0.330491
v 2.366049 0.147076 -0.330491
v 0.957818 -0.066623 -0.067165
v 0.955323 -0.068815 3.123127
v 0.955323 0.068907 3.123127
v 0.957818 0.066716 -0.067165
v 0.826922 -0.065852 -0.06765
v 0.826922 0.065946 -0.06765
v 0.847192 0.073739 3.105636
v 0.847192 -0.073646 3.105636
v 0.847192 -0.073646 3.105636
v 0.955323 -0.068815 3.123127
v 0.957818 -0.066623 -0.067165
v 0.826922 -0.065852 -0.06765
v -1.005341 0.065946 -0.06765
v -0.874446 0.066716 -0.067165
v -0.876941 0.068907 3.123127
v -0.985072 0.073739 3.105636
v -0.874446 -0.066623 -0.067165
v -0.876941 -0.068815 3.123127
v -0.876941 0.068907 3.123127
v -0.874446 0.066716 -0.067165
v -1.005341 -0.065852 -0.06765
v -1.005341 0.065946 -0.06765
v -0.985072 0.073739 3.105636
v -0.985072 -0.073646 3.105636
v -0.985072 -0.073646 3.105636
v -0.876941 -0.068815 3.123127
v -0.874446 -0.066623 -0.067165
v -1.005341 -0.065852 -0.06765
v -2.394175 0.039894 0.782617
v -2.393328 0.039894 0.698849
v 2.34205 0.039894 0.698849
v 2.31598 0.039894 0.782617
v -2.393328 -0.037826 0.698849
v 2.34205 -0.042529 0.698849
v 2.34205 0.039894 0.698849
v -2.393328 0.039894 0.698849
v -2.394175 -0.036611 0.782617
v -2.394175 0.039894 0.782617
v 2.31598 0.039894 0.782617
v 2.31598 -0.042235 0.782617
v 2.31598 -0.042235 0.782617
v 2.34205 -0.042529 0.698849
v -2.393328 -0.037826 0.698849
v -2.394175 -0.036611 0.782617
v -2.394175 0.039894 2.308532
v -2.393328 0.039894 2.224763
v 2.34205 0.039894 2.224763
v 2.31598 0.039894 2.308532
v -2.393328 -0.037826 2.224763
v 2.34205 -0.042529 2.224763
v 2.34205 0.039894 2.224763
v -2.393328 0.039894 2.224763
v -2.394175 -0.036611 2.308532
v -2.394175 0.039894 2.308532
v 2.31598 0.039894 2.308532
v 2.31598 -0.042235 2.308532
v 2.31598 -0.042235 2.308532
v 2.34205 -0.042529 2.224763
v -2.393328 -0.037826 2.224763
v -2.394175 -0.036611 2.308532
v 2.352252 0.147076 3.38062
v 2.407823 0.147076 3.373291
v 2.407823 -0.139072 3.373291
v 2.352252 -0.146401 3.38062
v -2.40694 0.147076 3.38062
v -2.40694 -0.146401 3.38062
v -2.462512 -0.139072 3.373291
v -2.462512 0.147076 3.373291
v 2.200135 -0.015115 -0.228062
v 2.200135 -0.015115 3.265884
v -2.296083 -0.015115 3.284635
v -2.296083 -0.015115 -0.228062
vt 0.072035 0.003109
vt 0.072035 0.087232
vt 0.94456 0.087232
vt 0.94456 0.003114
vt 0.944554 0.086072
vt 1.001264 0.004576
vt 1.001264 0.086072
vt 0.944554 0.004576
vt 0.07204 0.086074
vt 0.07204 0.004576
vt 0.001309 0.086074
vt 0.001309 0.004576
vt 0.944554 0.086072
vt 1.001264 0.086072
vt 1.001264 0.004576
vt 0.944554 0.004576
vt 0.07204 0.086074
vt 0.07204 0.004576
vt 0.001309 0.086074
vt 0.001309 0.004576
vt 0.94456 0.003114
vt 1.00127 0.087232
vt 1.00127 0.003115
vt 0.94456 0.087232
vt 0.072035 0.003109
vt 0.072035 0.087232
vt 0.001303 0.003108
vt 0.001303 0.087232
vt 0.072035 0.080719
vt 0.001303 0.005697
vt 0.001303 0.080718
vt 0.072035 0.005697
vt 0.94456 0.080724
vt 0.94456 0.005696
vt 1.00127 0.080724
vt 1.00127 0.005696
vt 0.07204 0.003561
vt 0.07204 0.083172
vt 0.944554 0.083171
vt 0.944554 0.003559
vt 0.94456 0.003114
vt 1.00127 0.003115
vt 1.00127 0.087232
vt 0.94456 0.087232
vt 0.072035 0.003109
vt 0.072035 0.087232
vt 0.001303 0.003108
vt 0.001303 0.087232
vt 0.072035 0.080719
vt 0.001303 0.080718
vt 0.001303 0.005697
vt 0.072035 0.005697
vt 0.94456 0.080724
vt 0.94456 0.005696
vt 1.00127 0.080724
vt 1.00127 0.005696
vt 0.07204 0.003561
vt 0.944554 0.003559
vt 0.944554 0.083171
vt 0.07204 0.083172
vt 0.999964 0.081214
vt 0.879689 0.00828
vt 0.120402 0.008136
vt 3.6E-05 0.081024
vt 0.999964 0.08392
vt 0.999964 0.003762
vt 3.6E-05 0.003762
vt 3.6E-05 0.08392
vt 0.999964 0.013901
vt 3.6E-05 0.013901
vt 0.120357 0.07943
vt 0.879643 0.07943
vt 0.999959 -0.010426
vt 4.1E-05 -0.010427
vt 4.1E-05 0.082132
vt 0.999959 0.082132
vt 0.999971 3E-05
vt 2.9E-05 2.9E-05
vt 2.9E-05 0.083512
vt 0.999971 0.083512
vt 0.942504 0.004266
vt 0.057496 0.004266
vt 2.6E-05 0.081559
vt 0.999974 0.081559
vt 0.07204 0.003561
vt 0.001303 0.080718
vt 0.001303 0.080718
vt 0.07204 0.003561
vt 2.7E-05 2.7E-05
vt 2.7E-05 0.073495
vt 0.999973 0.073495
vt 0.999973 2.8E-05
vt 0.07204 0.086074
vt 0.944554 0.086072
vt 0.944554 0.004576
vt 0.07204 0.004576
vt 0.07204 0.003561
vt 0.07204 0.083172
vt 0.944554 0.083171
vt 0.944554 0.003559
vt 0.94456 0.080724
vt 0.94456 0.005696
vt 0.072035 0.005697
vt 0.072035 0.080719
vt 0.072035 0.003109
vt 0.072035 0.087232
vt 0.94456 0.087232
vt 0.94456 0.003114
vt 0.07204 0.086074
vt 0.944554 0.086072
vt 0.944554 0.004576
vt 0.07204 0.004576
vt 0.07204 0.003561
vt 0.07204 0.083172
vt 0.944554 0.083171
vt 0.944554 0.003559
vt 0.94456 0.080724
vt 0.94456 0.005696
vt 0.072035 0.005697
vt 0.072035 0.080719
vt 0.072035 0.003109
vt 0.072035 0.087232
vt 0.94456 0.087232
vt 0.94456 0.003114
vt 0.07204 0.086074
vt 0.944554 0.086072
vt 0.944554 0.004576
vt 0.07204 0.004576
vt 0.07204 0.003561
vt 0.07204 0.083172
vt 0.944554 0.083171
vt 0.944554 0.003559
vt 0.94456 0.080724
vt 0.94456 0.005696
vt 0.072035 0.005697
vt 0.072035 0.080719
vt 0.072035 0.003109
vt 0.072035 0.087232
vt 0.94456 0.087232
vt 0.94456 0.003114
vt 0.07204 0.086074
vt 0.944554 0.086072
vt 0.944554 0.004576
vt 0.07204 0.004576
vt 0.07204 0.003561
vt 0.07204 0.083172
vt 0.944554 0.083171
vt 0.944554 0.003559
vt 0.94456 0.080724
vt 0.94456 0.005696
vt 0.072035 0.005697
vt 0.072035 0.080719
vt 1.00127 0.003115
vt 1.00127 0.087232
vt 1.001264 0.086072
vt 1.00127 0.080724
vt 1.00127 0.003115
vt 1.00127 0.080724
vt 1.001264 0.086072
vt 1.00127 0.087232
vt 0.999903 0.937998
vt 0.999901 0.005101
vt 9.7E-05 9.7E-05
vt 9.9E-05 0.938
vn 0.01711295 0.9998523 -0.001616498
vn 0.7558455 0.6547498 -0.0004762077
vn 0.7558455 0.6547498 -0.0004762077
vn 0.01711295 0.9998523 -0.001616498
vn -0.7027748 -0.7114118 0.0008549411
vn -0.9707776 0 0.2399811
vn -0.8384678 -0.5039935 0.2072734
vn -0.9999973 0 0.002330398
vn -0.7025838 -0.7115999 -0.001161179
vn -1 0 0
vn -1 0 0
vn -1 0 0
vn 0.7027754 -0.7114113 0.0008551297
vn 0.838469 -0.5039915 0.2072738
vn 0.9707775 0 0.2399811
vn 0.9999973 0 0.002330672
vn 0.7025844 -0.7115995 -0.00116118
vn 1 0 0
vn 1 0 0
vn 1 0 0
vn 0 1 0
vn 0 1 0
vn 0 1 0
vn 0 1 0
vn 0 1 0
vn 0 1 0
vn 0 1 0
vn 0 1 0
vn 0.008606885 -0.9999599 -0.002452864
vn 0.00223 -0.9999975 -0.0004226758
vn 8.895247E-05 -0.9999954 -0.003066449
vn 0.7025844 -0.7115995 -0.00116118
vn 0.009405175 -0.9997229 0.02158068
vn 0.7027754 -0.7114113 0.0008551297
vn 0.002310122 -0.6605996 0.7507347
vn 0.838469 -0.5039915 0.2072738
vn -0.9999727 0 0.007391883
vn -0.9999727 0 0.007391883
vn -0.9999727 0 0.007391883
vn -0.9999727 0 0.007391883
vn 0 1 0
vn 0 1 0
vn 0 1 0
vn 0 1 0
vn 0 1 0
vn 0 1 0
vn 0 1 0
vn 0 1 0
vn -0.008606878 -0.9999599 -0.002452862
vn -8.895246E-05 -0.9999954 -0.003066449
vn -0.002229994 -0.9999975 -0.000422683
vn -0.7025838 -0.7115999 -0.001161179
vn -0.009405168 -0.9997229 0.02158067
vn -0.7027748 -0.7114118 0.0008549411
vn -0.002310122 -0.6605996 0.7507347
vn -0.8384678 -0.5039935 0.2072734
vn 0.9999727 0 0.007391582
vn 0.9999727 0 0.007391582
vn 0.9999727 0 0.007391582
vn 0.9999727 0 0.007391582
vn 0.002310122 -0.6605996 0.7507347
vn 0.009405175 -0.9997229 0.02158068
vn -0.009405168 -0.9997229 0.02158067
vn -0.002310122 -0.6605996 0.7507347
vn 0.001503399 0 0.9999989
vn 0.002310122 -0.6605996 0.7507347
vn -0.002310122 -0.6605996 0.7507347
vn -0.001503398 0 0.9999989
vn 0 1 0
vn 0 1 0
vn 0 1 0
vn 0 1 0
vn 0 0 -1
vn 0 0 -1
vn 0 0 -1
vn 0 0 -1
vn 0 0 1
vn 0 0 1
vn 0 0 1
vn 0 0 1
vn 0 1 0
vn 0 1 0
vn 0 1 0
vn 0 1 0
vn 0.008606885 -0.9999599 -0.002452864
vn 8.895247E-05 -0.9999954 -0.003066449
vn -8.895246E-05 -0.9999954 -0.003066449
vn -0.008606878 -0.9999599 -0.002452862
vn 0 0 -1
vn 0 0 -1
vn 0 0 -1
vn 0 0 -1
vn 0.7558432 -0.6547526 -0.0004763999
vn 0.7558432 -0.6547526 -0.0004763999
vn 0.7558455 0.6547498 -0.0004762077
vn 0.7558455 0.6547498 -0.0004762077
vn -0.9999796 0 0.006387567
vn -0.9999796 0 0.006387567
vn -0.9999796 0 0.006387567
vn -0.9999796 0 0.006387567
vn 0.01710462 -0.9998524 -0.001616789
vn 0.7558432 -0.6547526 -0.0004763999
vn 0.7558432 -0.6547526 -0.0004763999
vn 0.01710462 -0.9998524 -0.001616789
vn 0.01711301 0.9998523 -0.001616495
vn 0.7558467 0.6547484 -0.0004761889
vn 0.7558467 0.6547484 -0.0004761889
vn 0.01711301 0.9998523 -0.001616495
vn 0.7558444 -0.6547511 -0.000476381
vn 0.7558444 -0.6547511 -0.000476381
vn 0.7558467 0.6547484 -0.0004761889
vn 0.7558467 0.6547484 -0.0004761889
vn -0.9999796 0 0.006387267
vn -0.9999796 0 0.006387267
vn -0.9999796 0 0.006387267
vn -0.9999796 0 0.006387267
vn 0.01710469 -0.9998524 -0.001616786
vn 0.7558444 -0.6547511 -0.000476381
vn 0.7558444 -0.6547511 -0.000476381
vn 0.01710469 -0.9998524 -0.001616786
vn 0 1 0
vn 0 1 0
vn 0 1 0
vn 0 1 0
vn 0 0 -1
vn 0 0 -1
vn 0 0 -1
vn 0 0 -1
vn 0 0 1
vn 0 0 1
vn 0 0 1
vn 0 0 1
vn -0.001093278 -0.9999604 0.008831063
vn -0.001093278 -0.9999604 0.008831063
vn -0.001093278 -0.9999604 0.008831063
vn -0.001093278 -0.9999604 0.008831063
vn 0 1 0
vn 0 1 0
vn 0 1 0
vn 0 1 0
vn 0 0 -1
vn 0 0 -1
vn 0 0 -1
vn 0 0 -1
vn 0 0 1
vn 0 0 1
vn 0 0 1
vn 0 0 1
vn -0.001093278 -0.9999604 0.008830946
vn -0.001093278 -0.9999604 0.008830946
vn -0.001093278 -0.9999604 0.008830946
vn -0.001093278 -0.9999604 0.008830946
vn 0.001503399 0 0.9999989
vn 0.9707775 0 0.2399811
vn 0.838469 -0.5039915 0.2072738
vn 0.002310122 -0.6605996 0.7507347
vn -0.001503398 0 0.9999989
vn -0.002310122 -0.6605996 0.7507347
vn -0.8384678 -0.5039935 0.2072734
vn -0.9707776 0 0.2399811
vn 0 1 0
vn 0 1 0
vn 0 1 0
vn 0 1 0
g CraftsmanBuildingFrontWindow_0
f 3/3/3 2/2/2 1/1/1
f 4/4/4 3/3/3 1/1/1
f 7/7/7 6/6/6 5/5/5
f 6/6/6 8/8/8 5/5/5
f 5/5/5 8/8/8 9/9/9
f 8/8/8 10/10/10 9/9/9
f 9/9/9 10/10/10 11/11/11
f 10/10/10 12/12/12 11/11/11
f 15/15/15 14/14/14 13/13/13
f 16/16/16 15/15/15 13/13/13
f 16/16/16 13/13/13 17/17/17
f 18/18/18 16/16/16 17/17/17
f 18/18/18 17/17/17 19/19/19
f 20/20/20 18/18/18 19/19/19
f 23/23/23 22/22/22 21/21/21
f 22/22/22 24/24/24 21/21/21
f 21/21/21 24/24/24 25/25/25
f 24/24/24 26/26/26 25/25/25
f 25/25/25 26/26/26 27/27/27
f 26/26/26 28/28/28 27/27/27
f 31/31/31 30/30/30 29/29/29
f 30/30/30 32/32/32 29/29/29
f 29/29/29 32/32/32 33/33/33
f 32/32/32 34/34/34 33/33/33
f 33/33/33 34/34/34 35/35/35
f 34/34/34 36/36/36 35/35/35
f 39/39/39 38/38/38 37/37/37
f 40/40/40 39/39/39 37/37/37
f 43/43/43 42/42/42 41/41/41
f 44/44/44 43/43/43 41/41/41
f 44/44/44 41/41/41 45/45/45
f 46/46/46 44/44/44 45/45/45
f 46/46/46 45/45/45 47/47/47
f 48/48/48 46/46/46 47/47/47
f 51/51/51 50/50/50 49/49/49
f 52/52/52 51/51/51 49/49/49
f 52/52/52 49/49/49 53/53/53
f 54/54/54 52/52/52 53/53/53
f 54/54/54 53/53/53 55/55/55
f 56/56/56 54/54/54 55/55/55
f 59/59/59 58/58/58 57/57/57
f 60/60/60 59/59/59 57/57/57
f 63/63/63 62/62/62 61/61/61
f 64/64/64 63/63/63 61/61/61
f 67/67/67 66/66/66 65/65/65
f 68/68/68 67/67/67 65/65/65
f 71/71/71 70/70/70 69/69/69
f 72/72/72 71/71/71 69/69/69
f 75/75/75 74/74/74 73/73/73
f 76/76/76 75/75/75 73/73/73
f 79/79/79 78/78/78 77/77/77
f 80/80/80 79/79/79 77/77/77
f 83/83/83 82/82/82 81/81/81
f 84/84/84 83/83/83 81/81/81
f 87/87/87 86/86/86 85/85/85
f 88/88/88 87/87/87 85/85/85
f 91/91/91 90/90/90 89/89/89
f 92/92/92 91/91/91 89/89/89
f 95/95/95 94/94/94 93/93/93
f 96/96/96 95/95/95 93/93/93
f 99/99/99 98/98/98 97/97/97
f 100/100/100 99/99/99 97/97/97
f 103/103/103 102/102/102 101/101/101
f 104/104/104 103/103/103 101/101/101
f 107/107/107 106/106/106 105/105/105
f 108/108/108 107/107/107 105/105/105
f 111/111/111 110/110/110 109/109/109
f 112/112/112 111/111/111 109/109/109
f 115/115/115 114/114/114 113/113/113
f 116/116/116 115/115/115 113/113/113
f 119/119/119 118/118/118 117/117/117
f 120/120/120 119/119/119 117/117/117
f 123/123/123 122/122/122 121/121/121
f 124/124/124 123/123/123 121/121/121
f 127/127/127 126/126/126 125/125/125
f 128/128/128 127/127/127 125/125/125
f 131/131/131 130/130/130 129/129/129
f 132/132/132 131/131/131 129/129/129
f 135/135/135 134/134/134 133/133/133
f 136/136/136 135/135/135 133/133/133
f 139/139/139 138/138/138 137/137/137
f 140/140/140 139/139/139 137/137/137
f 143/143/143 142/142/142 141/141/141
f 144/144/144 143/143/143 141/141/141
f 147/147/147 146/146/146 145/145/145
f 148/148/148 147/147/147 145/145/145
f 151/151/151 150/150/150 149/149/149
f 152/152/152 151/151/151 149/149/149
f 155/155/155 154/154/154 153/153/153
f 156/156/156 155/155/155 153/153/153
f 159/159/159 158/158/158 157/157/157
f 160/160/160 159/159/159 157/157/157
g CraftsmanBuildingFrontWindow_1
f 163/163/163 162/162/162 161/161/161
f 164/164/164 163/163/163 161/161/161
