g CraftBuildingInterior
v -4.526521 0 5.919003
v -4.526521 3.041186 4.495298
v -4.526521 3.041186 0.021679
v -4.526521 0 0.021679
v -4.526521 -3.041186 4.495298
v -4.526521 -3.041186 0.021679
v 0.697016 3.041186 4.495298
v 4.526521 3.041186 4.495298
v 4.526521 3.041186 0.021679
v 0.697016 3.041186 0.021679
v 4.526521 0 5.919003
v 4.526521 -3.041186 4.495298
v 4.526521 -3.041186 0.021679
v 4.526521 0 0.021679
v 4.526521 3.041186 4.495298
v 4.526521 3.041186 0.021679
v 0.697016 -3.041186 4.495298
v -4.526521 -3.041186 4.495298
v -4.526521 -3.041186 0.021679
v 0.697016 -3.041186 0.021679
v 4.526521 -3.041186 4.495298
v 4.526521 -3.041186 0.021679
v -4.526521 7.288746 4.495298
v 0.697016 7.288746 4.495298
v 0.697016 7.288746 0.021679
v -4.526521 7.288746 0.021679
v -4.526521 3.041186 4.495298
v -4.526521 7.288746 4.495298
v -4.526521 7.288746 0.021679
v -4.526521 3.041186 0.021679
v 0.697016 3.041186 0.021679
v 0.697016 7.288746 0.021679
v 0.697016 7.288746 4.495298
v 0.697016 3.041186 4.495298
v 0.697016 -3.041186 0.021679
v 4.526521 0 0.021679
v 4.526521 -3.041186 0.021679
v 0.697016 0 0.021679
v -4.526521 -3.041186 0.021679
v 4.526521 3.041186 0.021679
v -4.526521 0 0.021679
v 0.697016 3.041186 0.021679
v -4.526521 3.041186 0.021679
v 0.697016 7.288746 0.021679
v -4.526521 7.288746 0.021679
vt 0.5 0.969484
vt 9.8E-05 0.735459
vt 9.8E-05 9.8E-05
vt 0.5 9.9E-05
vt 0.999901 0.735459
vt 0.999902 9.9E-05
vt 0.5 7E-05
vt 0.99993 7E-05
vt 0.99993 0.494157
vt 0.5 0.494157
vt 0.5 0.969484
vt 9.8E-05 0.735459
vt 9.8E-05 9.8E-05
vt 0.5 9.8E-05
vt 0.999902 0.735459
vt 0.999902 9.8E-05
vt 0.5 0.735314
vt 7E-05 0.735314
vt 7E-05 7E-05
vt 0.5 7E-05
vt 0.99993 0.735314
vt 0.99993 7E-05
vt 0.182161 0.732589
vt 0.817839 0.732589
vt 0.817839 0.007058
vt 0.182161 0.007058
vt -0.334745 0.732589
vt 0.182161 0.732589
vt 0.182161 0.007058
vt -0.334745 0.007058
vt 1.334745 0.007058
vt 0.817839 0.007058
vt 0.817839 0.732589
vt 1.334745 0.732589
vt -1.458117 -1.012787
vt -0.382293 -0.158427
vt -0.382293 -1.012787
vt -1.458117 -0.158427
vt -2.925564 -1.012787
vt -0.382294 0.695933
vt -2.925565 -0.158427
vt -1.458117 0.695933
vt -2.925565 0.695933
vt -1.458117 1.8892
vt -2.925565 1.8892
vn 1 0 0
vn 1 0 0
vn 1 0 0
vn 1 0 0
vn 1 0 0
vn 1 0 0
vn 0 -1 0
vn 0 -1 0
vn 0 -1 0
vn 0 -1 0
vn -1 0 0
vn -1 0 0
vn -1 0 0
vn -1 0 0
vn -1 0 0
vn -1 0 0
vn 0 1 0
vn 0 1 0
vn 0 1 0
vn 0 1 0
vn 0 1 0
vn 0 1 0
vn 0 -1 0
vn 0 -1 0
vn 0 -1 0
vn 0 -1 0
vn 1 0 0
vn 1 0 0
vn 1 0 0
vn 1 0 0
vn -1 0 0
vn -1 0 0
vn -1 0 0
vn -1 0 0
vn 0 0 1
vn 0 0 1
vn 0 0 1
vn 0 0 1
vn 0 0 1
vn 0 0 1
vn 0 0 1
vn 0 0 1
vn 0 0 1
vn 0 0 1
vn 0 0 1
g CraftBuildingInterior_0
f 3/3/3 2/2/2 1/1/1
f 4/4/4 3/3/3 1/1/1
f 4/4/4 1/1/1 5/5/5
f 6/6/6 4/4/4 5/5/5
f 9/9/9 8/8/8 7/7/7
f 10/10/10 9/9/9 7/7/7
f 13/13/13 12/12/12 11/11/11
f 14/14/14 13/13/13 11/11/11
f 14/14/14 11/11/11 15/15/15
f 16/16/16 14/14/14 15/15/15
f 19/19/19 18/18/18 17/17/17
f 20/20/20 19/19/19 17/17/17
f 20/20/20 17/17/17 21/21/21
f 22/22/22 20/20/20 21/21/21
f 25/25/25 24/24/24 23/23/23
f 26/26/26 25/25/25 23/23/23
f 29/29/29 28/28/28 27/27/27
f 30/30/30 29/29/29 27/27/27
f 33/33/33 32/32/32 31/31/31
f 34/34/34 33/33/33 31/31/31
g CraftBuildingInterior_1
f 37/37/37 36/36/36 35/35/35
f 36/36/36 38/38/38 35/35/35
f 35/35/35 38/38/38 39/39/39
f 36/36/36 40/40/40 38/38/38
f 38/38/38 41/41/41 39/39/39
f 40/40/40 42/42/42 38/38/38
f 38/38/38 42/42/42 41/41/41
f 42/42/42 43/43/43 41/41/41
f 42/42/42 44/44/44 43/43/43
f 44/44/44 45/45/45 43/43/43
