g CrocTooth
v 0.112673 -0.112673 0.347747
v 0 -0.0337 -0.046197
v 0 -0.172946 0.347747
v -0.112673 0.112673 0.347747
v 0 0.0337 -0.046197
v 0 0.172946 0.347747
v 0 -0.172946 0.347747
v -0.112673 -0.112673 0.347747
v -0.112673 0.112673 0.347747
v 0 0.172946 0.347747
v 0.112673 -0.112673 0.347747
v 0.112673 0.112673 0.347747
v -0.112673 -0.112673 0.347747
v -0.059006 0.021955 0.138366
v -0.112673 0.112673 0.347747
v 0 0.0337 -0.046197
v -0.059006 -0.021955 0.138366
v 0 -0.172946 0.347747
v 0 -0.0337 -0.046197
v 0.112673 0.112673 0.347747
v 0.059006 -0.021955 0.138366
v 0.112673 -0.112673 0.347747
v 0 -0.0337 -0.046197
v 0.059006 0.021955 0.138366
v 0 0.172946 0.347747
v 0 0.0337 -0.046197
vn 0.872305 -0.3783504 -0.3097335
vn 0 -0.7435694 -0.6686587
vn 0 -0.9075492 -0.4199457
vn -0.872305 0.3783504 -0.3097335
vn 0 0.7435694 -0.6686587
vn 0 0.9075492 -0.4199457
vn 0 0 1
vn 0 0 1
vn 0 0 1
vn 0 0 1
vn 0 0 1
vn 0 0 1
vn -0.872305 -0.3783504 -0.3097335
vn -0.9162691 0.2495995 -0.3132904
vn -0.872305 0.3783504 -0.3097335
vn 0 0.7435694 -0.6686587
vn -0.9162691 -0.2495995 -0.3132904
vn 0 -0.9075492 -0.4199457
vn 0 -0.7435694 -0.6686587
vn 0.872305 0.3783504 -0.3097335
vn 0.9162691 -0.2495995 -0.3132904
vn 0.872305 -0.3783504 -0.3097335
vn 0 -0.7435694 -0.6686587
vn 0.9162691 0.2495995 -0.3132904
vn 0 0.9075492 -0.4199457
vn 0 0.7435694 -0.6686587
g CrocTooth_0
f 3/3/3 2/2/2 1/1/1
f 6/6/6 5/5/5 4/4/4
f 9/9/9 8/8/8 7/7/7
f 10/10/10 9/9/9 7/7/7
f 10/10/10 7/7/7 11/11/11
f 12/12/12 10/10/10 11/11/11
f 15/15/15 14/14/14 13/13/13
f 16/16/16 14/14/14 15/15/15
f 14/14/14 17/17/17 13/13/13
f 14/14/14 16/16/16 17/17/17
f 13/13/13 17/17/17 18/18/18
f 16/16/16 19/19/19 17/17/17
f 17/17/17 19/19/19 18/18/18
f 22/22/22 21/21/21 20/20/20
f 23/23/23 21/21/21 22/22/22
f 21/21/21 24/24/24 20/20/20
f 24/24/24 21/21/21 23/23/23
f 20/20/20 24/24/24 25/25/25
f 26/26/26 24/24/24 23/23/23
f 24/24/24 26/26/26 25/25/25
