g CurvedRoof
v -4.259949 4 4
v -4.259949 4 4.198703
v -4.259949 -4 4.198703
v -4.259949 -4 4
v 2.751129 -4 5.809994
v 4.259949 4 4.198703
v 4.259949 -4 4.198703
v 2.751129 4 5.809994
v 1.37693 -4 6.14739
v 1.37693 4 6.14739
v 0 -4 6.436659
v 0 4 6.436659
v -4.259949 -4 4.198703
v -4.259949 4 4.198703
v -2.795258 4 5.809994
v -2.795258 -4 5.809994
v -1.396264 -4 6.14739
v -1.396264 4 6.14739
v 0 -4 6.436659
v 0 4 6.436659
v 2.751129 -4 5.611291
v 4.259949 -4 4.198703
v 4.259949 -4 4
v 2.751129 -4 5.809994
v 1.37693 -4 5.948687
v 1.37693 -4 6.14739
v 0 -4 6.237956
v 0 -4 6.436659
v -1.396264 -4 6.14739
v -1.396264 -4 5.948687
v -2.795258 -4 5.809994
v -2.795258 -4 5.611291
v -4.259949 -4 4
v -4.259949 -4 4.198703
v 4.259949 -4 4
v 4.259949 -4 4.198703
v 4.259949 4 4.198703
v 4.259949 4 4
v 4.259949 4 4
v 4.259949 4 4.198703
v 2.751129 4 5.809994
v 2.751129 4 5.611291
v 1.37693 4 6.14739
v 1.37693 4 5.948687
v 0 4 6.436659
v 0 4 6.237956
v -1.396264 4 6.14739
v -1.396264 4 5.948687
v -2.795258 4 5.809994
v -2.795258 4 5.611291
v -4.259949 4 4
v -4.259949 4 4.198703
v 2.751129 4 4
v 1.364533 -4 4
v 2.751129 -4 4
v -0.021518 -4 4
v 1.364533 -4 4
v 1.364533 4 4
v -0.021518 4 4
v -1.408661 -4 4
v -2.795258 -4 4
v -1.408661 -4 4
v -1.408661 4 4
v -1.408661 4 4
v -2.795258 4 4
v -2.795258 -4 4
v -0.021518 4 4
v -1.408661 -4 4
v 1.364533 4 4
v -0.021518 -4 4
v 2.751129 4 4
v 1.364533 -4 4
v 4.259949 4 4
v 2.751129 -4 4
v 4.259949 -4 4
v 2.751129 4 4
v 4.259949 4 4
v 2.751129 4 5.611291
v 1.364533 4 4
v 1.37693 4 5.948687
v -0.021518 4 4
v 0 4 6.237956
v -1.408661 4 4
v -1.396264 4 5.948687
v -2.795258 4 4
v -2.795258 4 5.611291
v -4.259949 4 4
v 2.751129 -4 5.611291
v 4.259949 -4 4
v 2.751129 -4 4
v 1.37693 -4 5.948687
v 1.364533 -4 4
v 0 -4 6.237956
v -0.021518 -4 4
v -1.396264 -4 5.948687
v -1.408661 -4 4
v -2.795258 -4 5.611291
v -2.795258 -4 4
v -4.259949 -4 4
v -2.795258 4 4
v -4.259949 -4 4
v -2.795258 -4 4
v -4.259949 4 4
vt 0.999957 4.3E-05
vt 0.999957 4.3E-05
vt 4.3E-05 4.3E-05
vt 4.3E-05 4.3E-05
vt 0 0.25
vt 1 0
vt 0 0
vt 1 0.25
vt 0 0.375
vt 1 0.375
vt 0 0.5
vt 1 0.5
vt 1 0.5
vt 0 0.5
vt 0 0.75
vt 1 0.75
vt 1 0.875
vt 0 0.875
vt 1 1
vt 0 1
vt 0.749978 0.093785
vt 0.999957 4.3E-05
vt 0.999957 4.3E-05
vt 0.749978 0.093785
vt 0.624989 0.140656
vt 0.624989 0.140656
vt 0.5 0.187527
vt 0.5 0.187527
vt 0.375011 0.140656
vt 0.375011 0.140656
vt 0.250022 0.093785
vt 0.250022 0.093785
vt 4.3E-05 4.3E-05
vt 4.3E-05 4.3E-05
vt 1 0
vt 1 0
vt 4.3E-05 4.3E-05
vt 4.3E-05 4.3E-05
vt 4.3E-05 4.3E-05
vt 4.3E-05 4.3E-05
vt 0.250022 0.093785
vt 0.250022 0.093785
vt 0.375011 0.140656
vt 0.375011 0.140656
vt 0.5 0.187527
vt 0.5 0.187527
vt 0.624989 0.140656
vt 0.624989 0.140656
vt 0.749979 0.093785
vt 0.749979 0.093785
vt 0.999957 4.3E-05
vt 0.999957 4.3E-05
vt 0.259136 4.3E-05
vt 0.626162 1.6E-05
vt 0.755239 1.1E-05
vt 0.497084 2.2E-05
vt 0.626162 1.6E-05
vt 0.385676 4.3E-05
vt 0.512215 4.3E-05
vt 0.368007 2.7E-05
vt 0.238929 3.3E-05
vt 0.368007 2.7E-05
vt 0.638755 4.3E-05
vt 0.638755 4.3E-05
vt 0.765294 4.3E-05
vt 0.238929 3.3E-05
vt 0.512215 4.3E-05
vt 0.368007 2.7E-05
vt 0.385676 4.3E-05
vt 0.497084 2.2E-05
vt 0.259136 4.3E-05
vt 0.626162 1.6E-05
vt 4.3E-05 4.3E-05
vt 0.755239 1.1E-05
vt 1 0
vt 0.179501 0.3633
vt 0.00247 0.36021
vt 0.176201 0.552353
vt 0.342191 0.366139
vt 0.336745 0.594754
vt 0.504816 0.368978
vt 0.497708 0.631514
vt 0.66757 0.371819
vt 0.662125 0.600434
vt 0.83026 0.374659
vt 0.82696 0.563712
vt 1.002113 0.377658
vt 0.822775 0.57089
vt 0.999897 0.381869
vt 0.82284 0.381808
vt 0.661501 0.610427
vt 0.660125 0.381752
vt 0.499909 0.644317
vt 0.497475 0.381696
vt 0.336072 0.610315
vt 0.334696 0.381639
vt 0.171916 0.570665
vt 0.171981 0.381583
vt 0.000102 0.381524
vt 0.765294 4.3E-05
vt 4.3E-05 4.3E-05
vt 0.238929 3.3E-05
vt 0.999957 4.3E-05
vn -1 0 0
vn -0.9327292 0 0.3605778
vn -0.9327292 0 0.3605778
vn -1 0 0
vn 0.5050966 0 0.8630628
vn 0.9300365 0 0.3674669
vn 0.9300365 0 0.3674669
vn 0.5050966 0 0.8630628
vn 0.2220489 0 0.9750355
vn 0.2220489 0 0.9750355
vn 0.001393822 0 0.999999
vn 0.001393822 0 0.999999
vn -0.9327292 0 0.3605778
vn -0.9327292 0 0.3605778
vn -0.5097004 0 0.860352
vn -0.5097004 0 0.860352
vn -0.2186857 0 0.9757953
vn -0.2186857 0 0.9757953
vn 0.001393822 0 0.999999
vn 0.001393822 0 0.999999
vn 0 -1 0
vn 0 -1 0
vn 0 -1 0
vn 0 -1 0
vn 0 -1 0
vn 0 -1 0
vn 0 -1 0
vn 0 -1 0
vn 0 -1 0
vn 0 -1 0
vn 0 -1 0
vn 0 -1 0
vn 0 -1 0
vn 0 -1 0
vn 1 0 0
vn 0.9300365 0 0.3674669
vn 0.9300365 0 0.3674669
vn 1 0 0
vn 0 1 0
vn 0 1 0
vn 0 1 0
vn 0 1 0
vn 0 1 0
vn 0 1 0
vn 0 1 0
vn 0 1 0
vn 0 1 0
vn 0 1 0
vn 0 1 0
vn 0 1 0
vn 0 1 0
vn 0 1 0
vn 0 0 -1
vn 0 0 -1
vn 0 0 -1
vn 0 0 -1
vn 0 0 -1
vn 0 0 -1
vn 0 0 -1
vn 0 0 -1
vn 0 0 -1
vn 0 0 -1
vn 0 0 -1
vn 0 0 -1
vn 0 0 -1
vn 0 0 -1
vn 0 0 -1
vn 0 0 -1
vn 0 0 -1
vn 0 0 -1
vn 0 0 -1
vn 0 0 -1
vn 0 0 -1
vn 0 0 -1
vn 0 0 -1
vn 0 1 0
vn 0 1 0
vn 0 1 0
vn 0 1 0
vn 0 1 0
vn 0 1 0
vn 0 1 0
vn 0 1 0
vn 0 1 0
vn 0 1 0
vn 0 1 0
vn 0 1 0
vn 0 -1 0
vn 0 -1 0
vn 0 -1 0
vn 0 -1 0
vn 0 -1 0
vn 0 -1 0
vn 0 -1 0
vn 0 -1 0
vn 0 -1 0
vn 0 -1 0
vn 0 -1 0
vn 0 -1 0
vn 0 0 -1
vn 0 0 -1
vn 0 0 -1
vn 0 0 -1
g CurvedRoof_0
f 3/3/3 2/2/2 1/1/1
f 4/4/4 3/3/3 1/1/1
f 7/7/7 6/6/6 5/5/5
f 6/6/6 8/8/8 5/5/5
f 5/5/5 8/8/8 9/9/9
f 8/8/8 10/10/10 9/9/9
f 9/9/9 10/10/10 11/11/11
f 10/10/10 12/12/12 11/11/11
f 15/15/15 14/14/14 13/13/13
f 16/16/16 15/15/15 13/13/13
f 16/16/16 17/17/17 15/15/15
f 17/17/17 18/18/18 15/15/15
f 17/17/17 19/19/19 18/18/18
f 19/19/19 20/20/20 18/18/18
f 23/23/23 22/22/22 21/21/21
f 22/22/22 24/24/24 21/21/21
f 21/21/21 24/24/24 25/25/25
f 24/24/24 26/26/26 25/25/25
f 25/25/25 26/26/26 27/27/27
f 26/26/26 28/28/28 27/27/27
f 27/27/27 28/28/28 29/29/29
f 30/30/30 27/27/27 29/29/29
f 30/30/30 29/29/29 31/31/31
f 32/32/32 30/30/30 31/31/31
f 32/32/32 31/31/31 33/33/33
f 31/31/31 34/34/34 33/33/33
f 37/37/37 36/36/36 35/35/35
f 38/38/38 37/37/37 35/35/35
f 41/41/41 40/40/40 39/39/39
f 42/42/42 41/41/41 39/39/39
f 43/43/43 41/41/41 42/42/42
f 44/44/44 43/43/43 42/42/42
f 45/45/45 43/43/43 44/44/44
f 46/46/46 45/45/45 44/44/44
f 47/47/47 45/45/45 46/46/46
f 48/48/48 47/47/47 46/46/46
f 49/49/49 47/47/47 48/48/48
f 50/50/50 49/49/49 48/48/48
f 50/50/50 51/51/51 49/49/49
f 51/51/51 52/52/52 49/49/49
g CurvedRoof_1
f 55/55/55 54/54/54 53/53/53
f 58/58/58 57/57/57 56/56/56
f 56/56/56 60/60/60 59/59/59
f 63/63/63 62/62/62 61/61/61
f 66/66/66 65/65/65 64/64/64
f 68/68/68 64/64/64 67/67/67
f 70/70/70 67/67/67 69/69/69
f 72/72/72 69/69/69 71/71/71
f 74/74/74 71/71/71 73/73/73
f 73/73/73 75/75/75 74/74/74
f 78/78/78 77/77/77 76/76/76
f 78/78/78 76/76/76 79/79/79
f 80/80/80 78/78/78 79/79/79
f 80/80/80 79/79/79 81/81/81
f 82/82/82 80/80/80 81/81/81
f 81/81/81 83/83/83 82/82/82
f 83/83/83 84/84/84 82/82/82
f 83/83/83 85/85/85 84/84/84
f 85/85/85 86/86/86 84/84/84
f 85/85/85 87/87/87 86/86/86
f 90/90/90 89/89/89 88/88/88
f 90/90/90 88/88/88 91/91/91
f 92/92/92 90/90/90 91/91/91
f 92/92/92 91/91/91 93/93/93
f 94/94/94 92/92/92 93/93/93
f 93/93/93 95/95/95 94/94/94
f 95/95/95 96/96/96 94/94/94
f 95/95/95 97/97/97 96/96/96
f 97/97/97 98/98/98 96/96/96
f 97/97/97 99/99/99 98/98/98
f 102/102/102 101/101/101 100/100/100
f 101/101/101 103/103/103 100/100/100
