g CurvedTentFlap
v 0.049454 0 -1.934916
v 0.065499 0 0.086383
v -0.840241 0 0.130385
v -0.92816 0 -1.912915
v -0.017024 0 -3.956215
v -1.745982 0 -0.73374
v -1.016078 0 -3.956215
v -1.868634 0 -2.344978
v -1.991286 0 -3.956215
vt 0.289871 0.287299
vt 0.288714 0.427975
vt 0.354012 0.428044
vt 0.360351 0.288798
vt 0.294664 0.149553
vt 0.41931 0.369156
vt 0.366689 0.149553
vt 0.428153 0.259354
vt 0.436995 0.149553
vn 0 1 0
vn 0 1 0
vn 0 1 0
vn 0 1 0
vn 0 1 0
vn 0 1 0
vn 0 1 0
vn 0 1 0
vn 0 1 0
g CurvedTentFlap_0
f 3/3/3 2/2/2 1/1/1
f 4/4/4 3/3/3 1/1/1
f 4/4/4 1/1/1 5/5/5
f 6/6/6 3/3/3 4/4/4
f 7/7/7 4/4/4 5/5/5
f 8/8/8 6/6/6 4/4/4
f 8/8/8 4/4/4 7/7/7
f 9/9/9 8/8/8 7/7/7
