g CurvedTent
v 4 -4 0
v 4 4 2.216372
v 4 4 0
v 4 -4 2.216372
v 2.666667 -4 4.267845
v 2.666667 4 4.267845
v 1.333333 -4 5.212602
v 1.333333 4 5.212602
v -4 4 0
v -4 -4 2.216372
v -4 -4 0
v -4 4 2.216372
v -2.666667 4 4.267845
v -2.666667 -4 4.267845
v 3.577026 -4 0.238541
v 3.577026 -3.843431 0.238541
v 3.577026 -3.843431 1.906563
v 3.577026 -4 1.906563
v 2.356109 -3.843431 3.785071
v 2.356109 -4 3.785071
v 1.19867 -3.843431 4.605195
v 1.19867 -4 4.605195
v 2.356109 4 3.785071
v 3.577026 3.843431 1.906563
v 3.577026 4 1.906563
v 3.577026 3.843431 0.238541
v 3.577026 4 0.238541
v 3.577026 4 0.238541
v 3.577026 3.843431 0.238541
v 2.106361 3.843431 0.101609
v 2.666667 4 0.101609
v 1.053181 3.843431 0.101609
v 1.333333 4 0.101609
v 1.053181 3.537726 0.101609
v 2.106361 3.537726 0.101609
v -1.053181 3.537726 0.101609
v -1.053181 3.843431 0.101609
v -2.106361 3.537726 0.101609
v -1.333333 4 0.101609
v -2.106361 3.843431 0.101609
v -2.666667 4 0.101609
v -3.577026 3.843431 0.238541
v -3.577026 4 0.238541
v -2.666667 -4 4.267845
v -2.666667 4 4.267845
v -1.333333 4 5.212602
v -1.333333 -4 5.212602
v 1.333333 4 5.212602
v 1.333333 -4 5.212602
v -3.577026 4 1.906563
v -3.577026 3.843431 1.906563
v -1.861057 3.843431 3.210889
v -3.577026 4 0.238541
v -3.577026 3.843431 0.238541
v -2.106361 3.843431 0.101609
v -1.861057 3.843431 3.210889
v -3.577026 3.843431 1.906563
v -3.577026 3.843431 0.238541
v 2.666667 -3.843431 0.238541
v 3.577026 -3.843431 1.906563
v 3.577026 -3.843431 0.238541
v 2.356109 -3.843431 3.785071
v 1.333333 -3.843431 0.238541
v 1.19867 -3.843431 4.605195
v -1.333333 -3.843431 0.238541
v -1.19867 -3.843431 4.605195
v -2.666667 -3.843431 0.238541
v -2.356109 -3.843431 3.785071
v -3.577026 -3.843431 0.238541
v -3.577026 -3.843431 1.906563
v 1.861057 3.843431 3.210889
v 1.861057 3.537726 3.210889
v 2.106361 3.537726 0.101609
v 2.106361 3.843431 0.101609
v 3.577026 3.843431 0.238541
v 1.861057 3.843431 3.210889
v 2.106361 3.843431 0.101609
v 3.577026 3.843431 1.906563
v 2.356109 4 3.785071
v 1.19867 4 4.605195
v 0.946812 3.843431 4.031013
v -1.19867 4 4.605195
v -0.946812 3.843431 4.031013
v -2.356109 4 3.785071
v -1.861057 3.843431 3.210889
v -3.577026 4 1.906563
v 1.333333 4 5.212602
v 2.666667 4 4.267845
v -1.333333 4 5.212602
v 3.577026 4 1.906563
v -2.666667 4 4.267845
v 4 4 2.216372
v -4 4 2.216372
v 3.577026 4 0.238541
v -4 4 0
v 4 4 0
v -3.577026 4 0.238541
v 2.666667 4 0.101609
v -2.666667 4 0
v 2.666667 4 0
v -2.666667 4 0.101609
v 1.333333 4 0.101609
v -1.333333 4 0
v 1.333333 4 0
v -1.333333 4 0.101609
v 1.19867 -4 4.605195
v 1.19867 -3.843431 4.605195
v -1.19867 -3.843431 4.605195
v -1.19867 -4 4.605195
v -2.356109 -3.843431 3.785071
v -2.356109 -4 3.785071
v -3.577026 -3.843431 1.906563
v -3.577026 -4 1.906563
v -3.577026 -4 1.906563
v -3.577026 -3.843431 1.906563
v -3.577026 -3.843431 0.238541
v -3.577026 -4 0.238541
v -3.577026 -4 0.238541
v -3.577026 -3.843431 0.238541
v -2.666667 -3.843431 0.238541
v -2.666667 -4 0.238541
v -1.333333 -3.843431 0.238541
v -1.333333 -4 0.238541
v 1.333333 -3.843431 0.238541
v 1.333333 -4 0.238541
v 2.666667 -3.843431 0.238541
v 2.666667 -4 0.238541
v 3.577026 -3.843431 0.238541
v 3.577026 -4 0.238541
v 0.946812 3.843431 4.031013
v 1.861057 3.537726 3.210889
v 1.861057 3.843431 3.210889
v 0.946812 3.537726 4.031013
v -0.946812 3.843431 4.031013
v -0.946812 3.537726 4.031013
v -1.861057 3.843431 3.210889
v -1.861057 3.843431 3.210889
v -1.861057 3.537726 3.210889
v -0.946812 3.537726 4.031013
v -2.106361 3.843431 0.101609
v -2.106361 3.537726 0.101609
v -3.577026 -4 0.238541
v -4 -4 0
v -4 -4 2.216372
v -3.577026 -4 1.906563
v -2.666667 -4 0.238541
v -2.666667 -4 4.267845
v -2.666667 -4 0
v -2.356109 -4 3.785071
v -1.333333 -4 0.238541
v -1.333333 -4 5.212602
v -1.333333 -4 0
v -1.19867 -4 4.605195
v 1.333333 -4 0.238541
v 1.333333 -4 5.212602
v 1.333333 -4 0
v 1.19867 -4 4.605195
v 2.666667 -4 0.238541
v 2.666667 -4 4.267845
v 2.666667 -4 0
v 2.356109 -4 3.785071
v 3.577026 -4 0.238541
v 4 -4 2.216372
v 4 -4 0
v 3.577026 -4 1.906563
v 2.106361 3.537726 0.101609
v 1.861057 3.537726 3.210889
v 0.946812 3.537726 4.031013
v 1.053181 3.537726 0.101609
v -0.946812 3.537726 4.031013
v -1.053181 3.537726 0.101609
v -1.861057 3.537726 3.210889
v -2.106361 3.537726 0.101609
vt 0.586664 0.12123
vt 0.97193 0.227966
vt 0.97193 0.12123
vt 0.586664 0.227966
vt 0.586664 0.345795
vt 0.97193 0.345795
vt 0.586664 0.424491
vt 0.97193 0.424491
vt 0.97193 0.856175
vt 0.586664 0.749439
vt 0.586664 0.856175
vt 0.97193 0.749438
vt 0.97193 0.631609
vt 0.586664 0.63161
vt 0.533139 0.58947
vt 0.533139 0.58947
vt 0.533139 0.700572
vt 0.533139 0.700572
vt 0.451817 0.825694
vt 0.451817 0.825694
vt 0.374723 0.88032
vt 0.374723 0.88032
vt 0.134957 0.409678
vt 0.053635 0.284556
vt 0.053635 0.284556
vt 0.053635 0.173454
vt 0.053635 0.173454
vt 0.053635 0.173454
vt 0.053635 0.173454
vt 0.151592 0.164334
vt 0.114271 0.164334
vt 0.221741 0.164334
vt 0.203081 0.164334
vt 0.221741 0.164334
vt 0.151592 0.164334
vt 0.36204 0.164334
vt 0.36204 0.164334
vt 0.432189 0.164334
vt 0.3807 0.164334
vt 0.432189 0.164334
vt 0.469509 0.164334
vt 0.530146 0.173454
vt 0.530146 0.173454
vt 0.586664 0.63161
vt 0.97193 0.631609
vt 0.97193 0.552913
vt 0.586664 0.552914
vt 0.97193 0.424491
vt 0.586664 0.424491
vt 0.530146 0.284556
vt 0.530146 0.284556
vt 0.41585 0.371434
vt 0.530146 0.173454
vt 0.530146 0.173454
vt 0.432189 0.164334
vt 0.41585 0.371434
vt 0.530146 0.284556
vt 0.530146 0.173454
vt 0.472503 0.58947
vt 0.533139 0.700572
vt 0.533139 0.58947
vt 0.451817 0.825694
vt 0.383693 0.58947
vt 0.374723 0.88032
vt 0.206074 0.58947
vt 0.215044 0.88032
vt 0.117265 0.58947
vt 0.13795 0.825694
vt 0.056628 0.58947
vt 0.056628 0.700572
vt 0.167931 0.371434
vt 0.167931 0.371434
vt 0.151592 0.164334
vt 0.151592 0.164334
vt 0.053635 0.173454
vt 0.167931 0.371434
vt 0.151592 0.164334
vt 0.053635 0.284556
vt 0.134957 0.409678
vt 0.21205 0.464304
vt 0.228826 0.42606
vt 0.37173 0.464304
vt 0.354955 0.42606
vt 0.448824 0.409678
vt 0.41585 0.371434
vt 0.530146 0.284556
vt 0.203081 0.504762
vt 0.114271 0.441834
vt 0.3807 0.504762
vt 0.053635 0.284556
vt 0.469509 0.441834
vt 0.025462 0.305192
vt 0.558319 0.305192
vt 0.053635 0.173454
vt 0.558319 0.157566
vt 0.025462 0.157566
vt 0.530146 0.173454
vt 0.114271 0.164334
vt 0.469509 0.157566
vt 0.114271 0.157566
vt 0.469509 0.164334
vt 0.203081 0.164334
vt 0.3807 0.157566
vt 0.203081 0.157566
vt 0.3807 0.164334
vt 0.374723 0.88032
vt 0.374723 0.88032
vt 0.215044 0.88032
vt 0.215044 0.88032
vt 0.13795 0.825694
vt 0.13795 0.825694
vt 0.056628 0.700572
vt 0.056628 0.700572
vt 0.056628 0.700572
vt 0.056628 0.700572
vt 0.056628 0.58947
vt 0.056628 0.58947
vt 0.056628 0.58947
vt 0.056628 0.58947
vt 0.117265 0.58947
vt 0.117265 0.58947
vt 0.206074 0.58947
vt 0.206074 0.58947
vt 0.383693 0.58947
vt 0.383693 0.58947
vt 0.472503 0.58947
vt 0.472503 0.58947
vt 0.533139 0.58947
vt 0.533139 0.58947
vt 0.228826 0.42606
vt 0.167931 0.371434
vt 0.167931 0.371434
vt 0.228826 0.42606
vt 0.354955 0.42606
vt 0.354955 0.42606
vt 0.41585 0.371434
vt 0.41585 0.371434
vt 0.41585 0.371434
vt 0.354955 0.42606
vt 0.432189 0.164334
vt 0.432189 0.164334
vt 0.056628 0.58947
vt 0.028455 0.573581
vt 0.028455 0.721207
vt 0.056628 0.700572
vt 0.117265 0.58947
vt 0.117265 0.85785
vt 0.117265 0.573581
vt 0.13795 0.825694
vt 0.206074 0.58947
vt 0.206074 0.920778
vt 0.206074 0.573581
vt 0.215044 0.88032
vt 0.383693 0.58947
vt 0.383693 0.920778
vt 0.383693 0.573581
vt 0.374723 0.88032
vt 0.472503 0.58947
vt 0.472503 0.85785
vt 0.472503 0.573581
vt 0.451817 0.825694
vt 0.533139 0.58947
vt 0.561312 0.721207
vt 0.561312 0.573581
vt 0.533139 0.700572
vt 0.033953 0.950298
vt 0.034417 0.97112
vt 0.040809 0.976327
vt 0.040434 0.949486
vt 0.054599 0.976152
vt 0.055008 0.949187
vt 0.061008 0.970628
vt 0.06187 0.950354
vn 1 0 0
vn 0.9587666 0 0.2841946
vn 1 0 0
vn 0.9587666 0 0.2841946
vn 0.7211482 0 0.6927808
vn 0.7211482 0 0.6927808
vn 0.3033691 0 0.9528731
vn 0.3033691 0 0.9528731
vn -1 0 0
vn -0.9587666 0 0.2841946
vn -1 0 0
vn -0.9587666 0 0.2841946
vn -0.7211482 0 0.6927808
vn -0.7211482 0 0.6927808
vn -1 0 0
vn -1 0 0
vn -0.9587665 0 -0.2841947
vn -0.9587665 0 -0.2841947
vn -0.7211482 0 -0.6927808
vn -0.7211482 0 -0.6927808
vn -0.3033693 0 -0.9528731
vn -0.3033693 0 -0.9528731
vn -0.09183892 0.9911364 -0.09599022
vn -0.478691 0.872587 -0.09719546
vn -0.362097 0.9292365 -0.07352173
vn -1 0 0
vn -1 0 0
vn -0.1119501 0.2003152 0.9733145
vn -0.1119501 0.2003152 0.9733145
vn -0.006818578 0.01220066 0.9999024
vn -0.1023423 0.1831238 0.9777483
vn 0 0 1
vn 0 0 1
vn 0 0 1
vn 0 0 1
vn 0 0 1
vn 0 0 1
vn 0 0 1
vn 0 0 1
vn 0.006818578 0.01220066 0.9999024
vn 0.1023423 0.1831238 0.9777483
vn 0.1119501 0.2003152 0.9733145
vn 0.1119501 0.2003152 0.9733145
vn -0.7211482 0 0.6927808
vn -0.7211482 0 0.6927808
vn -0.3033691 0 0.9528731
vn -0.3033691 0 0.9528731
vn 0.3033691 0 0.9528731
vn 0.3033691 0 0.9528731
vn 0.362097 0.9292365 -0.07352171
vn 0.478691 0.872587 -0.09719544
vn 0.6100495 0.7023293 -0.3668422
vn 1 0 0
vn 1 0 0
vn 0 1 0
vn 0.6100495 0.7023293 -0.3668422
vn 0.478691 0.872587 -0.09719544
vn 0 1 0
vn 0 -1 0
vn 0 -1 0
vn 0 -1 0
vn 0 -1 0
vn 0 -1 0
vn 0 -1 0
vn 0 -1 0
vn 0 -1 0
vn 0 -1 0
vn 0 -1 0
vn 0 -1 0
vn 0 -1 0
vn -0.6100495 0.7023293 -0.3668422
vn -0.8964197 0 -0.4432061
vn -0.9969023 0 -0.07864971
vn -0.9969023 0 -0.07864971
vn 0 1 0
vn -0.6100495 0.7023293 -0.3668422
vn 0 1 0
vn -0.478691 0.872587 -0.09719546
vn -0.09183892 0.9911364 -0.09599022
vn -0.03051481 0.9956722 -0.08778217
vn -0.2452492 0.6989202 -0.6718358
vn 0.0305148 0.9956722 -0.08778217
vn 0.2452493 0.6989201 -0.6718358
vn 0.0918389 0.9911364 -0.09599022
vn 0.6100495 0.7023293 -0.3668422
vn 0.362097 0.9292365 -0.07352171
vn 0 1 0
vn 0 1 0
vn 0 1 0
vn -0.362097 0.9292365 -0.07352173
vn 0 1 0
vn 0 1 0
vn 0 1 0
vn 0 1 0
vn 0 1 0
vn 0 1 0
vn 0 1 0
vn 0 1 0
vn 0 1 0
vn 0 1 0
vn 0 1 0
vn 0 1 0
vn 0 1 0
vn 0 1 0
vn 0 1 0
vn -0.3033693 0 -0.9528731
vn -0.3033693 0 -0.9528731
vn 0.3033693 0 -0.9528731
vn 0.3033693 0 -0.9528731
vn 0.7211482 0 -0.6927808
vn 0.7211482 0 -0.6927808
vn 0.9587665 0 -0.2841947
vn 0.9587665 0 -0.2841947
vn 0.9587665 0 -0.2841947
vn 0.9587665 0 -0.2841947
vn 1 0 0
vn 1 0 0
vn 0 0 1
vn 0 0 1
vn 0 0 1
vn 0 0 1
vn 0 0 1
vn 0 0 1
vn 0 0 1
vn 0 0 1
vn 0 0 1
vn 0 0 1
vn 0 0 1
vn 0 0 1
vn -0.2452492 0.6989202 -0.6718358
vn -0.8964197 0 -0.4432061
vn -0.6100495 0.7023293 -0.3668422
vn -0.3575018 0 -0.9339125
vn 0.2452493 0.6989201 -0.6718358
vn 0.3575018 0 -0.9339125
vn 0.6100495 0.7023293 -0.3668422
vn 0.6100495 0.7023293 -0.3668422
vn 0.8964197 0 -0.4432061
vn 0.3575018 0 -0.9339125
vn 0.9969023 0 -0.07864971
vn 0.9969023 0 -0.07864971
vn 0 -1 0
vn 0 -1 0
vn 0 -1 0
vn 0 -1 0
vn 0 -1 0
vn 0 -1 0
vn 0 -1 0
vn 0 -1 0
vn 0 -1 0
vn 0 -1 0
vn 0 -1 0
vn 0 -1 0
vn 0 -1 0
vn 0 -1 0
vn 0 -1 0
vn 0 -1 0
vn 0 -1 0
vn 0 -1 0
vn 0 -1 0
vn 0 -1 0
vn 0 -1 0
vn 0 -1 0
vn 0 -1 0
vn 0 -1 0
vn 0 1 0
vn 0 1 0
vn 0 1 0
vn 0 1 0
vn 0 1 0
vn 0 1 0
vn 0 1 0
vn 0 1 0
g CurvedTent_0
f 3/3/3 2/2/2 1/1/1
f 2/2/2 4/4/4 1/1/1
f 4/4/4 2/2/2 5/5/5
f 2/2/2 6/6/6 5/5/5
f 5/5/5 6/6/6 7/7/7
f 6/6/6 8/8/8 7/7/7
f 11/11/11 10/10/10 9/9/9
f 10/10/10 12/12/12 9/9/9
f 13/13/13 12/12/12 10/10/10
f 14/14/14 13/13/13 10/10/10
f 17/17/17 16/16/16 15/15/15
f 18/18/18 17/17/17 15/15/15
f 19/19/19 17/17/17 18/18/18
f 20/20/20 19/19/19 18/18/18
f 21/21/21 19/19/19 20/20/20
f 22/22/22 21/21/21 20/20/20
f 25/25/25 24/24/24 23/23/23
f 26/26/26 24/24/24 25/25/25
f 27/27/27 26/26/26 25/25/25
f 30/30/30 29/29/29 28/28/28
f 31/31/31 30/30/30 28/28/28
f 32/32/32 30/30/30 31/31/31
f 33/33/33 32/32/32 31/31/31
f 32/32/32 34/34/34 30/30/30
f 34/34/34 35/35/35 30/30/30
f 36/36/36 34/34/34 32/32/32
f 37/37/37 32/32/32 33/33/33
f 37/37/37 36/36/36 32/32/32
f 38/38/38 36/36/36 37/37/37
f 39/39/39 37/37/37 33/33/33
f 40/40/40 38/38/38 37/37/37
f 40/40/40 37/37/37 39/39/39
f 41/41/41 40/40/40 39/39/39
f 42/42/42 40/40/40 41/41/41
f 43/43/43 42/42/42 41/41/41
f 46/46/46 45/45/45 44/44/44
f 47/47/47 46/46/46 44/44/44
f 48/48/48 46/46/46 47/47/47
f 49/49/49 48/48/48 47/47/47
f 52/52/52 51/51/51 50/50/50
f 50/50/50 51/51/51 53/53/53
f 51/51/51 54/54/54 53/53/53
f 57/57/57 56/56/56 55/55/55
f 58/58/58 57/57/57 55/55/55
f 61/61/61 60/60/60 59/59/59
f 60/60/60 62/62/62 59/59/59
f 59/59/59 62/62/62 63/63/63
f 62/62/62 64/64/64 63/63/63
f 63/63/63 64/64/64 65/65/65
f 64/64/64 66/66/66 65/65/65
f 65/65/65 66/66/66 67/67/67
f 66/66/66 68/68/68 67/67/67
f 67/67/67 68/68/68 69/69/69
f 68/68/68 70/70/70 69/69/69
f 73/73/73 72/72/72 71/71/71
f 74/74/74 73/73/73 71/71/71
f 77/77/77 76/76/76 75/75/75
f 76/76/76 78/78/78 75/75/75
f 78/78/78 76/76/76 79/79/79
f 79/79/79 76/76/76 80/80/80
f 76/76/76 81/81/81 80/80/80
f 80/80/80 81/81/81 82/82/82
f 81/81/81 83/83/83 82/82/82
f 82/82/82 83/83/83 84/84/84
f 83/83/83 85/85/85 84/84/84
f 84/84/84 85/85/85 86/86/86
f 80/80/80 87/87/87 79/79/79
f 87/87/87 88/88/88 79/79/79
f 89/89/89 87/87/87 80/80/80
f 82/82/82 89/89/89 80/80/80
f 79/79/79 88/88/88 90/90/90
f 91/91/91 89/89/89 82/82/82
f 84/84/84 91/91/91 82/82/82
f 88/88/88 92/92/92 90/90/90
f 93/93/93 91/91/91 84/84/84
f 86/86/86 93/93/93 84/84/84
f 90/90/90 92/92/92 94/94/94
f 95/95/95 93/93/93 86/86/86
f 92/92/92 96/96/96 94/94/94
f 97/97/97 95/95/95 86/86/86
f 94/94/94 96/96/96 98/98/98
f 99/99/99 95/95/95 97/97/97
f 96/96/96 100/100/100 98/98/98
f 101/101/101 99/99/99 97/97/97
f 98/98/98 100/100/100 102/102/102
f 103/103/103 99/99/99 101/101/101
f 100/100/100 104/104/104 102/102/102
f 105/105/105 103/103/103 101/101/101
f 102/102/102 104/104/104 105/105/105
f 104/104/104 103/103/103 105/105/105
f 108/108/108 107/107/107 106/106/106
f 109/109/109 108/108/108 106/106/106
f 110/110/110 108/108/108 109/109/109
f 111/111/111 110/110/110 109/109/109
f 112/112/112 110/110/110 111/111/111
f 113/113/113 112/112/112 111/111/111
f 116/116/116 115/115/115 114/114/114
f 117/117/117 116/116/116 114/114/114
f 120/120/120 119/119/119 118/118/118
f 121/121/121 120/120/120 118/118/118
f 122/122/122 120/120/120 121/121/121
f 123/123/123 122/122/122 121/121/121
f 124/124/124 122/122/122 123/123/123
f 125/125/125 124/124/124 123/123/123
f 126/126/126 124/124/124 125/125/125
f 127/127/127 126/126/126 125/125/125
f 128/128/128 126/126/126 127/127/127
f 129/129/129 128/128/128 127/127/127
f 132/132/132 131/131/131 130/130/130
f 131/131/131 133/133/133 130/130/130
f 130/130/130 133/133/133 134/134/134
f 133/133/133 135/135/135 134/134/134
f 134/134/134 135/135/135 136/136/136
f 139/139/139 138/138/138 137/137/137
f 137/137/137 138/138/138 140/140/140
f 138/138/138 141/141/141 140/140/140
f 144/144/144 143/143/143 142/142/142
f 145/145/145 144/144/144 142/142/142
f 142/142/142 143/143/143 146/146/146
f 147/147/147 144/144/144 145/145/145
f 143/143/143 148/148/148 146/146/146
f 149/149/149 147/147/147 145/145/145
f 146/146/146 148/148/148 150/150/150
f 151/151/151 147/147/147 149/149/149
f 148/148/148 152/152/152 150/150/150
f 153/153/153 151/151/151 149/149/149
f 150/150/150 152/152/152 154/154/154
f 155/155/155 151/151/151 153/153/153
f 152/152/152 156/156/156 154/154/154
f 157/157/157 155/155/155 153/153/153
f 154/154/154 156/156/156 158/158/158
f 159/159/159 155/155/155 157/157/157
f 156/156/156 160/160/160 158/158/158
f 161/161/161 159/159/159 157/157/157
f 158/158/158 160/160/160 162/162/162
f 163/163/163 159/159/159 161/161/161
f 160/160/160 164/164/164 162/162/162
f 165/165/165 163/163/163 161/161/161
f 162/162/162 164/164/164 165/165/165
f 164/164/164 163/163/163 165/165/165
g CurvedTent_1
f 168/168/168 167/167/167 166/166/166
f 169/169/169 168/168/168 166/166/166
f 170/170/170 168/168/168 169/169/169
f 171/171/171 170/170/170 169/169/169
f 172/172/172 170/170/170 171/171/171
f 173/173/173 172/172/172 171/171/171
