g Damper
v 0.325499 -0.187927 0.006028
v 0.375854 0 0.006028
v 0.325499 0.187927 0.006028
v 0.187927 -0.325499 0.006028
v 0.187927 0.325499 0.006028
v 0 -0.375854 0.006028
v 0 0.375854 0.006028
v -0.187927 -0.325499 0.006028
v -0.187927 0.325499 0.006028
v -0.325499 -0.187927 0.006028
v -0.325499 0.187927 0.006028
v -0.375854 0 0.006028
v -0.187927 0.325499 0.006028
v -0.20614 0.357045 0.100626
v -0.357045 0.20614 0.100626
v -0.325499 0.187927 0.006028
v 0 0.375854 0.006028
v -0.41228 0 0.100626
v 0 0.41228 0.100626
v -0.375854 0 0.006028
v 0.187927 0.325499 0.006028
v -0.357045 -0.20614 0.100626
v 0.20614 0.357045 0.100626
v -0.325499 -0.187927 0.006028
v 0.325499 0.187927 0.006028
v -0.20614 -0.357045 0.100626
v 0.357045 0.20614 0.100626
v -0.187927 -0.325499 0.006028
v 0.375854 0 0.006028
v 0 -0.41228 0.100626
v 0.41228 0 0.100626
v 0 -0.375854 0.006028
v 0.325499 -0.187927 0.006028
v 0.20614 -0.357045 0.100626
v 0.357045 -0.20614 0.100626
v 0.187927 -0.325499 0.006028
v 0.41228 0 0.100626
v 0.382807 0 0.235055
v 0.331521 0.191403 0.235055
v 0.357045 0.20614 0.100626
v 0.357045 -0.20614 0.100626
v 0.191404 0.33152 0.235055
v 0.20614 0.357045 0.100626
v 0.331521 -0.191404 0.235055
v 0.20614 -0.357045 0.100626
v 0 0.382807 0.235055
v 0 0.41228 0.100626
v 0.191404 -0.331521 0.235055
v 0 -0.41228 0.100626
v -0.191404 0.331521 0.235055
v -0.20614 0.357045 0.100626
v 0 -0.382807 0.235055
v -0.20614 -0.357045 0.100626
v -0.331521 0.191403 0.235055
v -0.357045 0.20614 0.100626
v -0.191404 -0.331521 0.235055
v -0.357045 -0.20614 0.100626
v -0.382807 0 0.235055
v -0.41228 0 0.100626
v -0.331521 -0.191404 0.235055
v -0.119874 0.207628 0.344589
v -0.207629 0.119874 0.344589
v -0.239749 0 0.344589
v -0.207629 -0.119875 0.344589
v -0.119874 -0.207629 0.344589
v 0 -0.239749 0.344589
v 0 0.239749 0.344589
v 0.119874 -0.207629 0.344589
v 0.119875 0.207628 0.344589
v 0.207628 -0.119875 0.344589
v 0.207629 0.119874 0.344589
v 0.239749 0 0.344589
v 0 -0.089292 0.411932
v 0.044646 -0.077329 0.411932
v 0.077329 -0.044646 0.411932
v 0.089292 0 0.411932
v 0.077329 0.044646 0.411932
v 0.044646 0.077329 0.411932
v 0 0.089292 0.411932
v -0.044646 0.077329 0.411932
v -0.044646 -0.077329 0.411932
v -0.077329 0.044646 0.411932
v -0.077329 -0.044646 0.411932
v -0.089292 0 0.411932
vt 0.702423 0.758589
vt 0.709177 0.783797
vt 0.702423 0.809005
vt 0.683969 0.740136
vt 0.683969 0.827458
vt 0.658762 0.733381
vt 0.658762 0.834213
vt 0.633554 0.740136
vt 0.633554 0.827458
vt 0.6151 0.758589
vt 0.6151 0.809005
vt 0.608346 0.783797
vt 0.633554 0.827458
vt 0.631111 0.83169
vt 0.610869 0.811448
vt 0.6151 0.809005
vt 0.658762 0.834213
vt 0.60346 0.783797
vt 0.658762 0.839099
vt 0.608346 0.783797
vt 0.683969 0.827458
vt 0.610869 0.756146
vt 0.686412 0.83169
vt 0.6151 0.758589
vt 0.702423 0.809005
vt 0.631111 0.735904
vt 0.706654 0.811448
vt 0.633554 0.740136
vt 0.709177 0.783797
vt 0.658762 0.728495
vt 0.714063 0.783797
vt 0.658762 0.733381
vt 0.702423 0.758589
vt 0.686412 0.735904
vt 0.706654 0.756146
vt 0.683969 0.740136
vt 0.714063 0.783797
vt 0.71011 0.783797
vt 0.70323 0.809471
vt 0.706654 0.811448
vt 0.706654 0.756146
vt 0.684436 0.828266
vt 0.686412 0.83169
vt 0.70323 0.758123
vt 0.686412 0.735904
vt 0.658762 0.835145
vt 0.658762 0.839099
vt 0.684436 0.739328
vt 0.658762 0.728495
vt 0.633087 0.828266
vt 0.631111 0.83169
vt 0.658762 0.732449
vt 0.631111 0.735904
vt 0.614293 0.809471
vt 0.610869 0.811448
vt 0.633087 0.739328
vt 0.610869 0.756146
vt 0.607413 0.783797
vt 0.60346 0.783797
vt 0.614293 0.758123
vt 0.642682 0.811647
vt 0.630911 0.799877
vt 0.626603 0.783797
vt 0.630911 0.767718
vt 0.642682 0.755947
vt 0.658762 0.751638
vt 0.658762 0.815956
vt 0.674841 0.755947
vt 0.674841 0.811647
vt 0.686612 0.767718
vt 0.686612 0.799877
vt 0.69092 0.783797
vt 0.658762 0.768212
vt 0.666554 0.7703
vt 0.672258 0.776005
vt 0.674346 0.783797
vt 0.672258 0.791589
vt 0.666554 0.797294
vt 0.658762 0.799382
vt 0.650969 0.797294
vt 0.650969 0.7703
vt 0.645265 0.791589
vt 0.645265 0.776005
vt 0.643177 0.783797
vn 0 0 -1
vn 0 0 -1
vn 0 0 -1
vn 0 0 -1
vn 0 0 -1
vn 0 0 -1
vn 0 0 -1
vn 0 0 -1
vn 0 0 -1
vn 0 0 -1
vn 0 0 -1
vn 0 0 -1
vn -0.4666032 0.80818 -0.3593421
vn -0.4998387 0.8657462 -0.02539099
vn -0.8657462 0.4998387 -0.02539094
vn -0.80818 0.4666031 -0.3593421
vn 0 0.933206 -0.359342
vn -0.9996775 0 -0.02539091
vn 0 0.9996777 -0.02538989
vn -0.933206 0 -0.359342
vn 0.4666031 0.80818 -0.3593421
vn -0.8657466 -0.4998382 -0.02539193
vn 0.4998384 0.8657465 -0.02538925
vn -0.80818 -0.4666031 -0.3593421
vn 0.80818 0.4666031 -0.3593421
vn -0.4998382 -0.8657466 -0.02539192
vn 0.865746 0.499839 -0.02539025
vn -0.4666031 -0.80818 -0.3593421
vn 0.933206 0 -0.359342
vn 0 -0.9996775 -0.02539105
vn 0.9996775 0 -0.02539095
vn 0 -0.933206 -0.359342
vn 0.80818 -0.4666031 -0.3593421
vn 0.4998381 -0.8657466 -0.02539189
vn 0.8657466 -0.4998382 -0.02539191
vn 0.4666031 -0.80818 -0.3593421
vn 0.9996775 0 -0.02539095
vn 0.8582273 0 0.5132699
vn 0.7432471 0.4291131 0.5132695
vn 0.865746 0.499839 -0.02539025
vn 0.8657466 -0.4998382 -0.02539191
vn 0.4291142 0.7432459 0.5132704
vn 0.4998384 0.8657465 -0.02538925
vn 0.743247 -0.4291131 0.5132697
vn 0.4998381 -0.8657466 -0.02539189
vn 0 0.8582268 0.5132706
vn 0 0.9996777 -0.02538989
vn 0.4291135 -0.7432472 0.5132691
vn 0 -0.9996775 -0.02539105
vn -0.4291141 0.7432461 0.5132702
vn -0.4998387 0.8657462 -0.02539099
vn 0 -0.8582277 0.5132692
vn -0.4998382 -0.8657466 -0.02539192
vn -0.7432469 0.4291129 0.5132701
vn -0.8657462 0.4998387 -0.02539094
vn -0.4291134 -0.7432474 0.5132689
vn -0.8657466 -0.4998382 -0.02539193
vn -0.8582277 0 0.5132692
vn -0.9996775 0 -0.02539091
vn -0.7432473 -0.4291134 0.5132691
vn -0.2789158 0.4830956 0.8299546
vn -0.483096 0.2789161 0.8299542
vn -0.5578319 0 0.8299539
vn -0.4830961 -0.2789156 0.8299543
vn -0.2789144 -0.4830969 0.8299543
vn 0 -0.557832 0.8299539
vn 0 0.5578316 0.8299541
vn 0.2789148 -0.4830965 0.8299545
vn 0.2789167 0.4830965 0.8299537
vn 0.4830956 -0.2789157 0.8299546
vn 0.4830968 0.2789158 0.8299539
vn 0.5578316 0 0.8299541
vn 0 -0.344292 0.9388626
vn 0.1741853 -0.3016972 0.9373571
vn 0.3189615 -0.1841528 0.929705
vn 0.3981518 0 0.9173195
vn 0.3315934 0.1914459 0.9237934
vn 0.178239 0.3087186 0.9343039
vn 0 0.3442926 0.9388624
vn -0.1741861 0.3016983 0.9373565
vn -0.1782382 -0.3087182 0.9343042
vn -0.3189606 0.1841535 0.9297051
vn -0.3315928 -0.1914457 0.9237937
vn -0.3981515 0 0.9173196
g Damper_0
f 3/3/3 2/2/2 1/1/1
f 1/1/1 4/4/4 3/3/3
f 4/4/4 5/5/5 3/3/3
f 4/4/4 6/6/6 5/5/5
f 6/6/6 7/7/7 5/5/5
f 6/6/6 8/8/8 7/7/7
f 8/8/8 9/9/9 7/7/7
f 8/8/8 10/10/10 9/9/9
f 10/10/10 11/11/11 9/9/9
f 10/10/10 12/12/12 11/11/11
f 15/15/15 14/14/14 13/13/13
f 16/16/16 15/15/15 13/13/13
f 13/13/13 14/14/14 17/17/17
f 18/18/18 15/15/15 16/16/16
f 14/14/14 19/19/19 17/17/17
f 20/20/20 18/18/18 16/16/16
f 17/17/17 19/19/19 21/21/21
f 22/22/22 18/18/18 20/20/20
f 19/19/19 23/23/23 21/21/21
f 24/24/24 22/22/22 20/20/20
f 21/21/21 23/23/23 25/25/25
f 26/26/26 22/22/22 24/24/24
f 23/23/23 27/27/27 25/25/25
f 28/28/28 26/26/26 24/24/24
f 25/25/25 27/27/27 29/29/29
f 30/30/30 26/26/26 28/28/28
f 27/27/27 31/31/31 29/29/29
f 32/32/32 30/30/30 28/28/28
f 29/29/29 31/31/31 33/33/33
f 34/34/34 30/30/30 32/32/32
f 31/31/31 35/35/35 33/33/33
f 36/36/36 34/34/34 32/32/32
f 33/33/33 35/35/35 36/36/36
f 35/35/35 34/34/34 36/36/36
f 39/39/39 38/38/38 37/37/37
f 40/40/40 39/39/39 37/37/37
f 37/37/37 38/38/38 41/41/41
f 42/42/42 39/39/39 40/40/40
f 43/43/43 42/42/42 40/40/40
f 38/38/38 44/44/44 41/41/41
f 41/41/41 44/44/44 45/45/45
f 46/46/46 42/42/42 43/43/43
f 47/47/47 46/46/46 43/43/43
f 44/44/44 48/48/48 45/45/45
f 45/45/45 48/48/48 49/49/49
f 50/50/50 46/46/46 47/47/47
f 51/51/51 50/50/50 47/47/47
f 48/48/48 52/52/52 49/49/49
f 49/49/49 52/52/52 53/53/53
f 54/54/54 50/50/50 51/51/51
f 55/55/55 54/54/54 51/51/51
f 52/52/52 56/56/56 53/53/53
f 53/53/53 56/56/56 57/57/57
f 58/58/58 54/54/54 55/55/55
f 59/59/59 58/58/58 55/55/55
f 57/57/57 60/60/60 59/59/59
f 56/56/56 60/60/60 57/57/57
f 60/60/60 58/58/58 59/59/59
f 50/50/50 61/61/61 46/46/46
f 54/54/54 62/62/62 50/50/50
f 62/62/62 61/61/61 50/50/50
f 58/58/58 63/63/63 54/54/54
f 63/63/63 62/62/62 54/54/54
f 60/60/60 64/64/64 58/58/58
f 64/64/64 63/63/63 58/58/58
f 56/56/56 65/65/65 60/60/60
f 65/65/65 64/64/64 60/60/60
f 52/52/52 66/66/66 56/56/56
f 66/66/66 65/65/65 56/56/56
f 61/61/61 67/67/67 46/46/46
f 46/46/46 67/67/67 42/42/42
f 68/68/68 66/66/66 52/52/52
f 48/48/48 68/68/68 52/52/52
f 67/67/67 69/69/69 42/42/42
f 42/42/42 69/69/69 39/39/39
f 70/70/70 68/68/68 48/48/48
f 44/44/44 70/70/70 48/48/48
f 69/69/69 71/71/71 39/39/39
f 39/39/39 71/71/71 38/38/38
f 38/38/38 72/72/72 44/44/44
f 72/72/72 70/70/70 44/44/44
f 71/71/71 72/72/72 38/38/38
f 66/66/66 73/73/73 65/65/65
f 68/68/68 74/74/74 66/66/66
f 74/74/74 73/73/73 66/66/66
f 70/70/70 75/75/75 68/68/68
f 75/75/75 74/74/74 68/68/68
f 72/72/72 76/76/76 70/70/70
f 76/76/76 75/75/75 70/70/70
f 77/77/77 76/76/76 72/72/72
f 71/71/71 77/77/77 72/72/72
f 75/75/75 76/76/76 77/77/77
f 78/78/78 77/77/77 71/71/71
f 77/77/77 78/78/78 75/75/75
f 69/69/69 78/78/78 71/71/71
f 78/78/78 74/74/74 75/75/75
f 79/79/79 78/78/78 69/69/69
f 78/78/78 79/79/79 74/74/74
f 79/79/79 73/73/73 74/74/74
f 67/67/67 79/79/79 69/69/69
f 80/80/80 79/79/79 67/67/67
f 79/79/79 80/80/80 73/73/73
f 61/61/61 80/80/80 67/67/67
f 80/80/80 81/81/81 73/73/73
f 73/73/73 81/81/81 65/65/65
f 65/65/65 81/81/81 64/64/64
f 82/82/82 80/80/80 61/61/61
f 80/80/80 82/82/82 81/81/81
f 62/62/62 82/82/82 61/61/61
f 81/81/81 83/83/83 64/64/64
f 82/82/82 83/83/83 81/81/81
f 64/64/64 83/83/83 63/63/63
f 84/84/84 82/82/82 62/62/62
f 63/63/63 84/84/84 62/62/62
f 82/82/82 84/84/84 83/83/83
f 83/83/83 84/84/84 63/63/63
