g DeadLeaf2
v 0.171819 -1.089227 -0.536699
v 0.005167 -0.918877 -1.159965
v -0.161384 -1.085169 -0.535728
v 0.178356 -0.627311 -0.01991
v -0.164198 -0.637332 -0.048074
v -0.016103 -0.287806 -0.022091
v 0.033748 -0.295972 -0.03239
v -0.016103 -0.287806 -0.022091
v -0.016103 0.043242 0.014156
v 0.033748 0.035075 0.003857
v 0.033748 -0.295972 -0.03239
v 0.171819 -1.089227 -0.536699
v -0.161384 -1.085169 -0.535728
v 0.005167 -0.918877 -1.159965
v 0.178356 -0.627311 -0.01991
v -0.164198 -0.637332 -0.048074
v -0.016103 -0.287806 -0.022091
v 0.033748 -0.295972 -0.03239
v -0.016103 -0.287806 -0.022091
v 0.033748 -0.295972 -0.03239
v 0.033748 0.035075 0.003857
v -0.016103 0.043242 0.014156
vt 0.733705 0.776848
vt 0.754669 0.827462
vt 0.776883 0.777306
vt 0.733705 0.719538
vt 0.778113 0.721531
vt 0.759596 0.693646
vt 0.753068 0.694055
vt 0.756186 0.704852
vt 0.756549 0.697304
vt 0.754656 0.697423
vt 0.754293 0.70497
vt 0.733705 0.776848
vt 0.776883 0.777306
vt 0.754669 0.827462
vt 0.733705 0.719538
vt 0.778113 0.721531
vt 0.759596 0.693646
vt 0.753068 0.694055
vt 0.756186 0.704852
vt 0.754293 0.70497
vt 0.754656 0.697423
vt 0.756549 0.697304
vn -0.02019948 -0.8918821 0.4518166
vn -0.01251643 -0.9653896 -0.2605118
vn -0.02020665 -0.8910107 0.4535325
vn -0.03079133 -0.6550536 0.7549548
vn -0.03083766 -0.6605753 0.7501262
vn 0.02892473 -0.04847731 0.9984054
vn 0.2012537 -0.006772636 0.9795157
vn 0.02892473 -0.04847731 0.9984054
vn 0.1843247 -0.1069764 0.9770264
vn 0.1843247 -0.1069764 0.9770264
vn 0.2012537 -0.006772636 0.9795157
vn 0.02019947 0.8918821 -0.4518166
vn 0.02020663 0.8910107 -0.4535325
vn 0.01251643 0.9653896 0.2605118
vn 0.03079132 0.6550536 -0.7549548
vn 0.03083765 0.6605753 -0.7501262
vn -0.02892473 0.04847731 -0.9984054
vn -0.2012537 0.006772636 -0.9795157
vn -0.02892473 0.04847731 -0.9984054
vn -0.2012537 0.006772636 -0.9795157
vn -0.1843247 0.1069764 -0.9770264
vn -0.1843247 0.1069764 -0.9770264
g DeadLeaf2_0
f 3/3/3 2/2/2 1/1/1
f 1/1/1 4/4/4 3/3/3
f 4/4/4 5/5/5 3/3/3
f 4/4/4 6/6/6 5/5/5
f 4/4/4 7/7/7 6/6/6
f 10/10/10 9/9/9 8/8/8
f 11/11/11 10/10/10 8/8/8
f 14/14/14 13/13/13 12/12/12
f 15/15/15 12/12/12 13/13/13
f 16/16/16 15/15/15 13/13/13
f 17/17/17 15/15/15 16/16/16
f 18/18/18 15/15/15 17/17/17
f 21/21/21 20/20/20 19/19/19
f 22/22/22 21/21/21 19/19/19
