g DirtOnShovel
v -0.355326 -0.269897 -0.220484
v -0.099084 -0.269897 -0.513011
v -0.326239 -0.269897 -0.349273
v -0.122891 -0.398946 -0.247182
v -0.355326 -0.26846 0.009177
v 0.099084 -0.269897 -0.513011
v -0.104607 -0.111756 -0.5519
v 0.120846 -0.111756 -0.5519
v -0.064013 -0.449983 0.013741
v -0.371009 -0.265366 0.197455
v 0.122891 -0.398946 -0.247182
v 0.326239 -0.269897 -0.349273
v 0.379279 -0.111756 -0.365616
v 0.355326 -0.275437 -0.220484
v 0.412371 -0.118059 -0.219095
v -0.066838 -0.369964 0.229127
v -0.371009 -0.267778 0.286614
v 0.064013 -0.449983 0.013741
v 0.066838 -0.369964 0.229127
v 0.355326 -0.26846 0.009177
v 0.412371 -0.110122 0.042189
v 0.371009 -0.265366 0.197455
v 0.430214 -0.106602 0.256392
v 0.371009 -0.267778 0.286614
v 0.064287 -0.257151 0.30263
v 0.430214 -0.109346 0.357828
v 0.064287 -0.257151 0.30263
v 0.371009 -0.265366 0.197455
v 0.066838 -0.369964 0.229127
v -0.064287 -0.257151 0.30263
v -0.066838 -0.369964 0.229127
v -0.371009 -0.267778 0.286614
v -0.06502 -0.097255 0.376049
v -0.413975 -0.109346 0.357828
v 0.081259 -0.097255 0.376049
v 0.430214 -0.109346 0.357828
v 0.371009 -0.267778 0.286614
v 0.120846 -0.111756 -0.5519
v -0.071302 0.01501 -0.455364
v -0.104607 -0.111756 -0.5519
v 0.10378 0.01501 -0.455364
v 0.379279 -0.111756 -0.365616
v 0.304473 0.01501 -0.3107
v 0.412371 -0.118059 -0.219095
v 0.330171 0.010115 -0.196915
v 0.412371 -0.110122 0.042189
v 0.330171 0.016279 0.005992
v 0.430214 -0.106602 0.256392
v 0.344028 0.019012 0.172337
v 0.430214 -0.109346 0.357828
v 0.344028 0.016882 0.25111
v 0.081259 -0.097255 0.376049
v 0.344028 0.016882 0.25111
v 0.430214 -0.109346 0.357828
v 0.073037 0.026271 0.26526
v -0.06502 -0.097255 0.376049
v -0.04056 0.026271 0.26526
v -0.413975 -0.109346 0.357828
v -0.31155 0.016882 0.25111
v -0.104607 -0.111756 -0.5519
v -0.071302 0.01501 -0.455364
v -0.271996 0.01501 -0.3107
v -0.363041 -0.111756 -0.365616
v -0.099084 -0.269897 -0.513011
v -0.297694 0.01501 -0.196915
v -0.326239 -0.269897 -0.349273
v -0.396132 -0.111756 -0.219095
v -0.297694 0.016279 0.005992
v -0.355326 -0.269897 -0.220484
v -0.396132 -0.110122 0.042189
v -0.31155 0.019012 0.172337
v -0.355326 -0.26846 0.009177
v -0.413975 -0.106602 0.256392
v -0.31155 0.016882 0.25111
v -0.371009 -0.265366 0.197455
v -0.413975 -0.109346 0.357828
v -0.371009 -0.267778 0.286614
vt 0.351052 0.41178
vt 0.40674 0.354572
vt 0.360914 0.386214
vt 0.40405 0.412006
vt 0.346666 0.461844
vt 0.446837 0.353721
vt 0.403475 0.323207
vt 0.457666 0.324165
vt 0.415535 0.45989
vt 0.34771 0.503449
vt 0.450552 0.411219
vt 0.49537 0.384488
vt 0.519671 0.365603
vt 0.503876 0.41132
vt 0.532629 0.399259
vt 0.413577 0.502504
vt 0.34988 0.522238
vt 0.438593 0.459304
vt 0.440067 0.502436
vt 0.508208 0.461954
vt 0.541144 0.463324
vt 0.507413 0.50432
vt 0.537814 0.517099
vt 0.505486 0.523747
vt 0.441494 0.531319
vt 0.531479 0.542411
vt 0.441494 0.531319
vt 0.507413 0.50432
vt 0.440067 0.502436
vt 0.411505 0.530188
vt 0.413577 0.502504
vt 0.34988 0.522238
vt 0.409574 0.565037
vt 0.327302 0.541871
vt 0.448282 0.565602
vt 0.531479 0.542411
vt 0.505486 0.523747
vt 0.457666 0.324165
vt 0.40021 0.291841
vt 0.403475 0.323207
vt 0.468495 0.29461
vt 0.519671 0.365603
vt 0.543972 0.346719
vt 0.532629 0.399259
vt 0.561382 0.387199
vt 0.541144 0.463324
vt 0.57408 0.464695
vt 0.537814 0.517099
vt 0.568216 0.529878
vt 0.531479 0.542411
vt 0.557472 0.561075
vt 0.448282 0.565602
vt 0.557472 0.561075
vt 0.531479 0.542411
vt 0.45507 0.599885
vt 0.409574 0.565037
vt 0.407643 0.599885
vt 0.327302 0.541871
vt 0.304724 0.561504
vt 0.403475 0.323207
vt 0.40021 0.291841
vt 0.318157 0.341672
vt 0.339536 0.363943
vt 0.40674 0.354572
vt 0.2958 0.383757
vt 0.360914 0.386214
vt 0.323426 0.397768
vt 0.282829 0.464152
vt 0.351052 0.41178
vt 0.314748 0.462998
vt 0.291492 0.530449
vt 0.346666 0.461844
vt 0.319601 0.516949
vt 0.304724 0.561504
vt 0.34771 0.503449
vt 0.327302 0.541871
vt 0.34988 0.522238
vn -0.7751392 -0.6117855 -0.1577268
vn -0.2720182 -0.6335793 -0.7242813
vn -0.7103717 -0.4940633 -0.5012719
vn -0.2319779 -0.9381334 -0.2570836
vn -0.7911318 -0.6114135 0.01685406
vn 0.265644 -0.6433215 -0.7180327
vn -0.299773 0.2212041 -0.9280112
vn 0.3028148 0.1942427 -0.933045
vn -0.2492709 -0.9653504 0.07721777
vn -0.743735 -0.6421776 0.1856506
vn 0.2285097 -0.938825 -0.2576644
vn 0.6822689 -0.5376896 -0.4953777
vn 0.8250548 0.1555319 -0.543226
vn 0.7430106 -0.6509879 -0.1554026
vn 0.9869269 0.1186695 -0.1090545
vn -0.1607203 -0.8470569 0.50662
vn -0.4887642 -0.6239154 0.6097861
vn 0.2472396 -0.9656966 0.07938887
vn 0.1607203 -0.8470569 0.5066199
vn 0.7596697 -0.649931 0.02217479
vn 0.9926935 0.1123274 -0.04406913
vn 0.7115034 -0.6787465 0.181841
vn 0.9919224 0.1200728 -0.04089836
vn 0.4688106 -0.6502967 0.5977716
vn 0.05172173 -0.5642539 0.8239796
vn 0.732614 0.1879158 0.6541898
vn 0.05172173 -0.5642539 0.8239796
vn 0.7115034 -0.6787465 0.181841
vn 0.1607203 -0.8470569 0.5066199
vn -0.05176982 -0.5636201 0.8244103
vn -0.1607203 -0.8470569 0.50662
vn -0.4887642 -0.6239154 0.6097861
vn -0.02838887 0.1516869 0.9880208
vn -0.7181108 0.2495669 0.6496409
vn 0.02834337 0.1494464 0.9883636
vn 0.732614 0.1879158 0.6541898
vn 0.4688106 -0.6502967 0.5977716
vn 0.3028148 0.1942427 -0.933045
vn -0.2387044 0.6272578 -0.7413284
vn -0.299773 0.2212041 -0.9280112
vn 0.2477271 0.6078587 -0.7544131
vn 0.8250548 0.1555319 -0.543226
vn 0.681076 0.5898512 -0.433833
vn 0.9869269 0.1186695 -0.1090545
vn 0.8313668 0.5485592 -0.08894835
vn 0.9926935 0.1123274 -0.04406913
vn 0.8435685 0.5348883 -0.04781936
vn 0.9919224 0.1200728 -0.04089836
vn 0.8339754 0.5508806 -0.03186715
vn 0.732614 0.1879158 0.6541898
vn 0.5184862 0.7301967 0.4449548
vn 0.02834337 0.1494464 0.9883636
vn 0.5184862 0.7301967 0.4449548
vn 0.732614 0.1879158 0.6541898
vn 0.0309444 0.6685042 0.7430643
vn -0.02838887 0.1516869 0.9880208
vn -0.03091625 0.67075 0.7410389
vn -0.7181108 0.2495669 0.6496409
vn -0.4813487 0.7599119 0.4368494
vn -0.299773 0.2212041 -0.9280112
vn -0.2387044 0.6272578 -0.7413284
vn -0.6384131 0.6422693 -0.4241684
vn -0.8109807 0.2295156 -0.5381755
vn -0.2720182 -0.6335793 -0.7242813
vn -0.7791808 0.620531 -0.08842163
vn -0.7103717 -0.4940633 -0.5012719
vn -0.9719136 0.2086453 -0.1088624
vn -0.7938662 0.6067711 -0.0400679
vn -0.7751392 -0.6117855 -0.1577268
vn -0.9783518 0.2024018 -0.04314456
vn -0.7842633 0.6197253 -0.02952398
vn -0.7911318 -0.6114135 0.01685406
vn -0.9773186 0.2079866 -0.03987496
vn -0.4813487 0.7599119 0.4368494
vn -0.743735 -0.6421776 0.1856506
vn -0.7181108 0.2495669 0.6496409
vn -0.4887642 -0.6239154 0.6097861
g DirtOnShovel_0
f 3/3/3 2/2/2 1/1/1
f 2/2/2 4/4/4 1/1/1
f 1/1/1 4/4/4 5/5/5
f 2/2/2 6/6/6 4/4/4
f 2/2/2 7/7/7 6/6/6
f 7/7/7 8/8/8 6/6/6
f 4/4/4 9/9/9 5/5/5
f 5/5/5 9/9/9 10/10/10
f 6/6/6 11/11/11 4/4/4
f 4/4/4 11/11/11 9/9/9
f 6/6/6 8/8/8 12/12/12
f 6/6/6 12/12/12 11/11/11
f 8/8/8 13/13/13 12/12/12
f 12/12/12 13/13/13 14/14/14
f 12/12/12 14/14/14 11/11/11
f 13/13/13 15/15/15 14/14/14
f 9/9/9 16/16/16 10/10/10
f 10/10/10 16/16/16 17/17/17
f 11/11/11 18/18/18 9/9/9
f 9/9/9 18/18/18 16/16/16
f 11/11/11 14/14/14 18/18/18
f 18/18/18 19/19/19 16/16/16
f 14/14/14 15/15/15 20/20/20
f 14/14/14 20/20/20 18/18/18
f 18/18/18 20/20/20 19/19/19
f 15/15/15 21/21/21 20/20/20
f 20/20/20 22/22/22 19/19/19
f 20/20/20 21/21/21 22/22/22
f 21/21/21 23/23/23 22/22/22
f 22/22/22 23/23/23 24/24/24
f 22/22/22 24/24/24 25/25/25
f 23/23/23 26/26/26 24/24/24
f 29/29/29 28/28/28 27/27/27
f 29/29/29 27/27/27 30/30/30
f 31/31/31 29/29/29 30/30/30
f 31/31/31 30/30/30 32/32/32
f 30/30/30 33/33/33 32/32/32
f 33/33/33 34/34/34 32/32/32
f 35/35/35 33/33/33 30/30/30
f 27/27/27 35/35/35 30/30/30
f 36/36/36 35/35/35 27/27/27
f 37/37/37 36/36/36 27/27/27
f 40/40/40 39/39/39 38/38/38
f 39/39/39 41/41/41 38/38/38
f 38/38/38 41/41/41 42/42/42
f 41/41/41 43/43/43 42/42/42
f 42/42/42 43/43/43 44/44/44
f 43/43/43 45/45/45 44/44/44
f 44/44/44 45/45/45 46/46/46
f 45/45/45 47/47/47 46/46/46
f 46/46/46 47/47/47 48/48/48
f 47/47/47 49/49/49 48/48/48
f 48/48/48 49/49/49 50/50/50
f 49/49/49 51/51/51 50/50/50
f 54/54/54 53/53/53 52/52/52
f 53/53/53 55/55/55 52/52/52
f 52/52/52 55/55/55 56/56/56
f 55/55/55 57/57/57 56/56/56
f 56/56/56 57/57/57 58/58/58
f 57/57/57 59/59/59 58/58/58
f 62/62/62 61/61/61 60/60/60
f 63/63/63 62/62/62 60/60/60
f 63/63/63 60/60/60 64/64/64
f 65/65/65 62/62/62 63/63/63
f 66/66/66 63/63/63 64/64/64
f 67/67/67 65/65/65 63/63/63
f 67/67/67 63/63/63 66/66/66
f 68/68/68 65/65/65 67/67/67
f 69/69/69 67/67/67 66/66/66
f 70/70/70 68/68/68 67/67/67
f 70/70/70 67/67/67 69/69/69
f 71/71/71 68/68/68 70/70/70
f 72/72/72 70/70/70 69/69/69
f 73/73/73 71/71/71 70/70/70
f 73/73/73 70/70/70 72/72/72
f 74/74/74 71/71/71 73/73/73
f 75/75/75 73/73/73 72/72/72
f 76/76/76 74/74/74 73/73/73
f 76/76/76 73/73/73 75/75/75
f 77/77/77 76/76/76 75/75/75
