g Dome_Tent
v -4 -4 0
v 4 -4 0
v 4 4 0
v -4 4 0
v 2.550491 -2.550491 4.46313
v 0.197038 -0.197038 5.662597
v 0.197038 0.197038 5.662597
v 2.550491 2.550491 4.46313
v 4 -4 0
v 4 4 0.821117
v 4 4 0
v 4 -4 0.821117
v 3.538477 3.538477 3.263663
v 3.538478 -3.538478 3.263663
v 2.550491 2.550491 4.46313
v 2.550491 -2.550491 4.46313
v -4 4 0
v -4 -4 0.821117
v -4 -4 0
v -4 4 0.821117
v -3.538477 -3.538477 3.263663
v -3.538478 3.538478 3.263663
v -2.550491 -2.550491 4.46313
v -2.550491 2.550491 4.46313
v -1.382243 4 0.08414
v -1.382243 3.806031 0.08414
v -1.382243 3.811981 0.620924
v -1.382243 4.005949 0.620924
v -1.213641 3.412662 3.155802
v -1.213641 3.60663 3.155802
v -0.892999 2.980448 3.966455
v -0.892999 3.174417 3.966455
v -4 -4 0
v 4 -4 0.821117
v 4 -4 0
v -4 -4 0.821117
v 3.538478 -3.538478 3.263663
v -3.538477 -3.538477 3.263663
v 2.550491 -2.550491 4.46313
v -2.550491 -2.550491 4.46313
v -0.197038 -0.197038 5.662597
v -0.197038 0.197038 5.662597
v 0.197038 0.197038 5.662597
v 0.197038 -0.197038 5.662597
v -2.550491 2.550491 4.46313
v -0.197038 0.197038 5.662597
v -0.197038 -0.197038 5.662597
v -2.550491 -2.550491 4.46313
v 2.550491 2.550491 4.46313
v 0.197038 0.197038 5.662597
v -0.197038 0.197038 5.662597
v -2.550491 2.550491 4.46313
v 0.892998 3.174417 3.966455
v -0.892999 3.174417 3.966455
v -2.550491 -2.550491 4.46313
v -0.197038 -0.197038 5.662597
v 0.197038 -0.197038 5.662597
v 2.550491 -2.550491 4.46313
v 0.892998 3.174417 3.966455
v 0.892998 2.980448 3.966455
v 1.213641 3.412661 3.155802
v 1.213641 3.60663 3.155802
v 1.382243 3.811981 0.620924
v 1.382243 4.005949 0.620924
v 1.382243 3.806031 0.08414
v 1.382243 4 0.08414
v -0.892999 3.174417 3.966455
v -2.550491 2.550491 4.46313
v -3.538478 3.538478 3.263663
v -1.213641 3.60663 3.155802
v -4 4 0.821117
v -1.382243 4.005949 0.620924
v -4 4 0
v -1.382243 4 0.08414
v 4 4 0
v 1.382243 4 0.08414
v 4 4 0.821117
v 1.382243 4.005949 0.620924
v 3.538477 3.538477 3.263663
v 1.213641 3.60663 3.155802
v 2.550491 2.550491 4.46313
v 0.892998 3.174417 3.966455
v 1.382243 4 0.08414
v 1.382243 3.806031 0.08414
v -1.382243 3.806031 0.08414
v -1.382243 4 0.08414
v -0.892999 3.174417 3.966455
v -0.892999 2.980448 3.966455
v 0.892998 2.980448 3.966455
v 0.892998 3.174417 3.966455
v 1.382243 3.806031 0.08414
v -1.382243 3.811981 0.620924
v -1.382243 3.806031 0.08414
v 1.382243 3.811981 0.620924
v -1.213641 3.412662 3.155802
v 1.213641 3.412661 3.155802
v -0.892999 2.980448 3.966455
v 0.892998 2.980448 3.966455
vt 0 0
vt 0 1
vt 1 1
vt 1 0
vt 7.1E-05 0.5
vt 7.1E-05 0.5
vt 0.999929 0.5
vt 0.999929 0.5
vt 7.1E-05 7.1E-05
vt 0.999929 0.5
vt 0.999929 7.1E-05
vt 7.1E-05 0.5
vt 0.999929 0.5
vt 7.1E-05 0.5
vt 0.999929 0.5
vt 7.1E-05 0.5
vt 0.999929 0.5
vt 7.1E-05 7.1E-05
vt 7.1E-05 0.5
vt 0.999929 7.1E-05
vt 7.1E-05 7.1E-05
vt 0.999929 7.1E-05
vt 7.1E-05 7.1E-05
vt 0.999929 7.1E-05
vt 0.04358 0.288046
vt 0.04358 0.288046
vt 0.044107 7.1E-05
vt 0.044107 7.1E-05
vt 0.05582 7.1E-05
vt 0.05582 7.1E-05
vt 0.0681 7.1E-05
vt 0.0681 7.1E-05
vt 7.1E-05 7.1E-05
vt 0.999929 0.5
vt 0.999929 7.1E-05
vt 7.1E-05 0.5
vt 0.999929 0.5
vt 7.1E-05 0.5
vt 0.999929 0.5
vt 7.1E-05 0.5
vt 0 0
vt 0 1
vt 1 1
vt 1 0
vt 0.999929 7.1E-05
vt 0.999929 7.1E-05
vt 7.1E-05 7.1E-05
vt 7.1E-05 7.1E-05
vt 0.999929 7.1E-05
vt 0.999929 7.1E-05
vt 7.1E-05 7.1E-05
vt 7.1E-05 7.1E-05
vt 0.9319 7.1E-05
vt 0.0681 7.1E-05
vt 7.1E-05 0.5
vt 7.1E-05 0.5
vt 0.999929 0.5
vt 0.999929 0.5
vt 0.9319 7.1E-05
vt 0.9319 7.1E-05
vt 0.94418 7.1E-05
vt 0.94418 7.1E-05
vt 0.955893 7.1E-05
vt 0.955893 7.1E-05
vt 0.95642 0.288046
vt 0.95642 0.288046
vt 0.0681 7.1E-05
vt 7.1E-05 7.1E-05
vt 7.1E-05 7.1E-05
vt 0.05582 7.1E-05
vt 7.1E-05 7.1E-05
vt 0.044107 7.1E-05
vt 7.1E-05 0.5
vt 0.04358 0.288046
vt 0.999929 0.5
vt 0.95642 0.288046
vt 0.999929 7.1E-05
vt 0.955893 7.1E-05
vt 0.999929 7.1E-05
vt 0.94418 7.1E-05
vt 0.999929 7.1E-05
vt 0.9319 7.1E-05
vt 0.95642 0.288046
vt 0.95642 0.288046
vt 0.04358 0.288046
vt 0.04358 0.288046
vt 0.0681 7.1E-05
vt 0.0681 7.1E-05
vt 0.9319 7.1E-05
vt 0.9319 7.1E-05
vt 0.95642 0.288046
vt 0.044107 7.1E-05
vt 0.04358 0.288046
vt 0.955893 7.1E-05
vt 0.05582 7.1E-05
vt 0.94418 7.1E-05
vt 0.0681 7.1E-05
vt 0.9319 7.1E-05
vn 0 0 -1
vn 0 0 -1
vn 0 0 -1
vn 0 0 -1
vn 0.3980735 -0.3980735 0.8264835
vn 0.1782445 -0.1782445 0.9677075
vn 0.1782445 0.1782445 0.9677075
vn 0.4115177 0.393204 0.8222188
vn 1 0 0
vn 0.9961688 0 0.08745126
vn 1 0 0
vn 0.9961688 0 0.08745129
vn 0.6298907 0.6221315 0.4649623
vn 0.6207024 -0.6207024 0.4790168
vn 0.4115177 0.393204 0.8222188
vn 0.3980735 -0.3980735 0.8264835
vn -1 0 0
vn -0.9961688 0 0.08745126
vn -1 0 0
vn -0.9961688 0 0.08745129
vn -0.6207024 -0.6207024 0.4790167
vn -0.6298907 0.6221315 0.4649623
vn -0.3980736 -0.3980735 0.8264835
vn -0.4115176 0.3932039 0.8222188
vn 1 0 0
vn 1 0 0
vn 0.9993994 0 -0.03465468
vn 0.9995011 0 -0.0315849
vn 0.969039 0 -0.2469078
vn 0.9824573 0 -0.1864871
vn 0.4625726 0 -0.8865814
vn 0.6316898 0 -0.7752213
vn 0 -1 0
vn 0 -0.9961688 0.08745129
vn 0 -1 0
vn 0 -0.9961688 0.08745128
vn 0.6207024 -0.6207024 0.4790168
vn -0.6207024 -0.6207024 0.4790167
vn 0.3980735 -0.3980735 0.8264835
vn -0.3980736 -0.3980735 0.8264835
vn -0.1782445 -0.1782445 0.9677075
vn -0.1782445 0.1782445 0.9677075
vn 0.1782445 0.1782445 0.9677075
vn 0.1782445 -0.1782445 0.9677075
vn -0.4115176 0.3932039 0.8222188
vn -0.1782445 0.1782445 0.9677075
vn -0.1782445 -0.1782445 0.9677075
vn -0.3980736 -0.3980735 0.8264835
vn 0.4115177 0.393204 0.8222188
vn 0.1782445 0.1782445 0.9677075
vn -0.1782445 0.1782445 0.9677075
vn -0.4115176 0.3932039 0.8222188
vn 0.01856372 0.6959649 0.7178359
vn -0.01856364 0.6959649 0.7178358
vn -0.3980736 -0.3980735 0.8264835
vn -0.1782445 -0.1782445 0.9677075
vn 0.1782445 -0.1782445 0.9677075
vn 0.3980735 -0.3980735 0.8264835
vn -0.6316893 0 -0.7752217
vn -0.4625725 0 -0.8865815
vn -0.9690388 0 -0.2469084
vn -0.9824573 0 -0.1864876
vn -0.9993994 0 -0.03465467
vn -0.9995011 0 -0.03158489
vn -1 0 0
vn -1 0 0
vn -0.01856364 0.6959649 0.7178358
vn -0.4115176 0.3932039 0.8222188
vn -0.6298907 0.6221315 0.4649623
vn -0.02902188 0.9098378 0.4139479
vn -0.002670796 0.9965752 0.08264873
vn -0.002647348 0.9966923 0.08122415
vn -0.001208154 0.9999901 -0.004291386
vn -0.0004195374 0.9999988 -0.001490205
vn 0.001208154 0.9999901 -0.004291385
vn 0.0004195374 0.9999988 -0.001490205
vn 0.00267089 0.9965752 0.08264886
vn 0.00264744 0.9966923 0.08122428
vn 0.6298907 0.6221315 0.4649623
vn 0.0290221 0.9098378 0.4139479
vn 0.4115177 0.393204 0.8222188
vn 0.01856372 0.6959649 0.7178359
vn 0 0 1
vn 0 0 1
vn 0 0 1
vn 0 0 1
vn 0.6316898 0 -0.7752213
vn 0.4625726 0 -0.8865814
vn -0.4625725 0 -0.8865815
vn -0.6316893 0 -0.7752217
vn 0 0.9999386 -0.0110838
vn 0 0.9974953 0.0707332
vn 0 0.9999386 -0.0110838
vn 0 0.9974953 0.0707332
vn 0 0.9554824 0.2950479
vn 0 0.9554825 0.2950478
vn 0 0.8824139 0.4704742
vn 0 0.8824139 0.4704742
g Dome_Tent_0
f 3/3/3 2/2/2 1/1/1
f 4/4/4 3/3/3 1/1/1
f 7/7/7 6/6/6 5/5/5
f 8/8/8 7/7/7 5/5/5
f 11/11/11 10/10/10 9/9/9
f 10/10/10 12/12/12 9/9/9
f 10/10/10 13/13/13 12/12/12
f 13/13/13 14/14/14 12/12/12
f 13/13/13 15/15/15 14/14/14
f 15/15/15 16/16/16 14/14/14
f 19/19/19 18/18/18 17/17/17
f 18/18/18 20/20/20 17/17/17
f 18/18/18 21/21/21 20/20/20
f 21/21/21 22/22/22 20/20/20
f 21/21/21 23/23/23 22/22/22
f 23/23/23 24/24/24 22/22/22
f 27/27/27 26/26/26 25/25/25
f 28/28/28 27/27/27 25/25/25
f 29/29/29 27/27/27 28/28/28
f 30/30/30 29/29/29 28/28/28
f 31/31/31 29/29/29 30/30/30
f 32/32/32 31/31/31 30/30/30
f 35/35/35 34/34/34 33/33/33
f 34/34/34 36/36/36 33/33/33
f 34/34/34 37/37/37 36/36/36
f 37/37/37 38/38/38 36/36/36
f 37/37/37 39/39/39 38/38/38
f 39/39/39 40/40/40 38/38/38
f 43/43/43 42/42/42 41/41/41
f 44/44/44 43/43/43 41/41/41
f 47/47/47 46/46/46 45/45/45
f 48/48/48 47/47/47 45/45/45
f 51/51/51 50/50/50 49/49/49
f 52/52/52 51/51/51 49/49/49
f 52/52/52 49/49/49 53/53/53
f 54/54/54 52/52/52 53/53/53
f 57/57/57 56/56/56 55/55/55
f 58/58/58 57/57/57 55/55/55
f 61/61/61 60/60/60 59/59/59
f 62/62/62 61/61/61 59/59/59
f 63/63/63 61/61/61 62/62/62
f 64/64/64 63/63/63 62/62/62
f 65/65/65 63/63/63 64/64/64
f 66/66/66 65/65/65 64/64/64
f 69/69/69 68/68/68 67/67/67
f 70/70/70 69/69/69 67/67/67
f 71/71/71 69/69/69 70/70/70
f 72/72/72 71/71/71 70/70/70
f 73/73/73 71/71/71 72/72/72
f 74/74/74 73/73/73 72/72/72
f 75/75/75 73/73/73 74/74/74
f 76/76/76 75/75/75 74/74/74
f 77/77/77 75/75/75 76/76/76
f 78/78/78 77/77/77 76/76/76
f 79/79/79 77/77/77 78/78/78
f 80/80/80 79/79/79 78/78/78
f 81/81/81 79/79/79 80/80/80
f 82/82/82 81/81/81 80/80/80
f 85/85/85 84/84/84 83/83/83
f 86/86/86 85/85/85 83/83/83
f 89/89/89 88/88/88 87/87/87
f 90/90/90 89/89/89 87/87/87
g Dome_Tent_1
f 93/93/93 92/92/92 91/91/91
f 92/92/92 94/94/94 91/91/91
f 92/92/92 95/95/95 94/94/94
f 95/95/95 96/96/96 94/94/94
f 95/95/95 97/97/97 96/96/96
f 97/97/97 98/98/98 96/96/96
