g DomeRoof
v -3.999969 -3.999969 4.000024
v -4 -4 4
v -4 4 4
v -3.999969 3.999969 4.000024
v -4 4 4
v 4 4 4
v 4 4 4
v 3.999969 3.999969 4.000024
v -3.999969 3.999969 4.000024
v 4 4 4
v 4 -4 4
v 3.999969 -3.999969 4.000024
v 3.999969 -3.999969 4.000024
v 4 -4 4
v -4 -4 4
v -4 -4 4
v -3.999969 -3.999969 4.000024
v 3.999969 -3.999969 4.000024
v -4 -4 4
v 4 -4 4
v 4 4 4
v -4 4 4
v 1.866029 2.784019 5.872372
v 0.084757 0.857643 6.8318
v -0.084757 0.857643 6.8318
v -1.866029 2.784018 5.872372
v 0.084757 0.857643 6.8318
v 0.857643 0.084757 6.8318
v 0.857643 -0.084757 6.8318
v 0.084757 -0.857643 6.8318
v -0.084757 0.857643 6.8318
v -0.084757 -0.857643 6.8318
v -0.857643 0.084757 6.8318
v -0.857643 -0.084757 6.8318
v -1.866029 -2.784019 5.872372
v -0.084757 -0.857643 6.8318
v 0.084757 -0.857643 6.8318
v 1.866029 -2.784018 5.872372
v -3.057387 -3.830274 4.552862
v 3.057387 -3.830274 4.552862
v -3.999969 -3.999969 4.000024
v 3.999969 -3.999969 4.000024
v 2.784019 -1.866029 5.872372
v 0.857643 -0.084757 6.8318
v 0.857643 0.084757 6.8318
v 2.784018 1.866029 5.872372
v 3.830274 -3.057387 4.552862
v 3.830274 3.057387 4.552862
v 4 4 4
v 3.999969 -3.999969 4.000024
v 3.999969 3.999969 4.000024
v -4 4 4
v -3.830274 -3.057387 4.552862
v -3.999969 -3.999969 4.000024
v -3.830274 3.057387 4.552862
v -3.999969 3.999969 4.000024
v -2.784018 -1.866029 5.872372
v -2.784019 1.866029 5.872372
v 3.999969 3.999969 4.000024
v -3.057387 3.830274 4.552862
v -3.999969 3.999969 4.000024
v 3.057387 3.830274 4.552862
v -1.866029 2.784018 5.872372
v 1.866029 2.784019 5.872372
v -3.057387 -3.830274 4.552862
v -3.999969 -3.999969 4.000024
v -3.830274 -3.057387 4.552862
v -2.784018 -1.866029 5.872372
v -1.866029 -2.784019 5.872372
v -0.857643 -0.084757 6.8318
v -0.084757 -0.857643 6.8318
v -3.830274 3.057387 4.552862
v -3.999969 3.999969 4.000024
v -3.057387 3.830274 4.552862
v -1.866029 2.784018 5.872372
v -2.784019 1.866029 5.872372
v 3.057387 3.830274 4.552862
v 3.999969 3.999969 4.000024
v 3.830274 3.057387 4.552862
v 2.784018 1.866029 5.872372
v 1.866029 2.784019 5.872372
v 3.830274 -3.057387 4.552862
v 3.999969 -3.999969 4.000024
v 3.057387 -3.830274 4.552862
v 1.866029 -2.784018 5.872372
v 2.784019 -1.866029 5.872372
v 0.084757 -0.857643 6.8318
v 0.857643 -0.084757 6.8318
v -2.784019 1.866029 5.872372
v -0.857643 0.084757 6.8318
v -0.857643 -0.084757 6.8318
v -2.784018 -1.866029 5.872372
v 0.857643 0.084757 6.8318
v 0.084757 0.857643 6.8318
v 1.866029 2.784019 5.872372
v 2.784018 1.866029 5.872372
v -0.084757 0.857643 6.8318
v -0.857643 0.084757 6.8318
v -2.784019 1.866029 5.872372
v -1.866029 2.784018 5.872372
vt 0.883083 0.04249
vt 0.883086 0.042484
vt 0.122787 0.042484
vt 0.880546 0.042095
vt 0.880549 0.042088
vt 0.12025 0.042089
vt 0.12025 0.042089
vt 0.120253 0.042095
vt 0.880546 0.042095
vt 0.882727 0.042484
vt 0.122428 0.042484
vt 0.122431 0.04249
vt 0.880546 0.042886
vt 0.880549 0.042879
vt 0.12025 0.042879
vt 0.12025 0.042879
vt 0.120253 0.042886
vt 0.880546 0.042886
vt 0 0
vt 1 -0.133649
vt 1 1
vt 0 1
vt 0.323057 0.296997
vt 0.492345 0.605315
vt 0.508455 0.605315
vt 0.677742 0.296997
vt 0.568315 0.416702
vt 0.431685 0.416702
vt 0.416702 0.431685
vt 0.416702 0.568315
vt 0.583298 0.431685
vt 0.431685 0.583298
vt 0.583298 0.568315
vt 0.568315 0.583298
vt 0.323057 0.297787
vt 0.492345 0.605889
vt 0.508455 0.605889
vt 0.677742 0.297787
vt 0.209834 0.078459
vt 0.790966 0.078459
vt 0.120253 0.042886
vt 0.880546 0.042886
vt 0.325235 0.297392
vt 0.494523 0.605602
vt 0.510633 0.605602
vt 0.67992 0.297392
vt 0.212012 0.078064
vt 0.793144 0.078064
vt 0.882727 0.042484
vt 0.122431 0.04249
vt 0.882724 0.04249
vt 0.122787 0.042484
vt 0.793502 0.078064
vt 0.883083 0.04249
vt 0.21237 0.078064
vt 0.12279 0.04249
vt 0.680279 0.297392
vt 0.325594 0.297392
vt 0.120253 0.042095
vt 0.790966 0.077669
vt 0.880546 0.042095
vt 0.209834 0.077669
vt 0.677742 0.296997
vt 0.323057 0.296997
vt 0.568315 0.092536
vt 0.5 -0.005777
vt 0.431685 0.092536
vt 0.41886 0.290317
vt 0.58114 0.290317
vt 0.431685 0.618032
vt 0.568315 0.618032
vt 0.566667 0.091084
vt 0.498352 -0.007229
vt 0.430037 0.091084
vt 0.417212 0.288864
vt 0.579492 0.288864
vt 0.568315 0.092732
vt 0.5 -0.005581
vt 0.431685 0.092732
vt 0.41886 0.290512
vt 0.58114 0.290512
vt 0.566862 0.087984
vt 0.498548 -0.01033
vt 0.430233 0.087984
vt 0.417407 0.285764
vt 0.579688 0.285764
vt 0.430233 0.613479
vt 0.566862 0.613479
vt 0.325594 0.297392
vt 0.494881 0.605602
vt 0.510991 0.605602
vt 0.680279 0.297392
vt 0.431685 0.618228
vt 0.568315 0.618228
vt 0.58114 0.290512
vt 0.41886 0.290512
vt 0.430037 0.61658
vt 0.566667 0.61658
vt 0.579492 0.288864
vt 0.417212 0.288864
vn 0 1 0
vn 0 1 0
vn 0 1 0
vn 0 1 0
vn 0 1 0
vn 0 1 0
vn 0 1 0
vn 0 1 0
vn 0 1 0
vn 0 1 0
vn 0 1 0
vn 0 1 0
vn 0 1 0
vn 0 1 0
vn 0 1 0
vn 0 1 0
vn 0 1 0
vn 0 1 0
vn 0 0 -1
vn 0 0 -1
vn 0 0 -1
vn 0 0 -1
vn 0.1827114 0.5450484 0.8182535
vn 0.06438583 0.2306103 0.9709137
vn -0.06438588 0.2306103 0.9709137
vn -0.1827114 0.5450484 0.8182535
vn 0.06438583 0.2306103 0.9709137
vn 0.2306103 0.06438587 0.9709137
vn 0.2306103 -0.06438582 0.9709137
vn 0.06438588 -0.2306103 0.9709137
vn -0.06438588 0.2306103 0.9709137
vn -0.06438582 -0.2306103 0.9709137
vn -0.2306103 0.06438582 0.9709137
vn -0.2306103 -0.06438588 0.9709137
vn -0.1827114 -0.5450484 0.8182535
vn -0.06438582 -0.2306103 0.9709137
vn 0.06438588 -0.2306103 0.9709137
vn 0.1827114 -0.5450484 0.8182535
vn -0.2036524 -0.7687498 0.6062585
vn 0.2036524 -0.76875 0.6062584
vn -0.5326321 -0.5326315 0.6577285
vn 0.5326322 -0.5326314 0.6577286
vn 0.5450484 -0.1827114 0.8182535
vn 0.2306103 -0.06438582 0.9709137
vn 0.2306103 0.06438587 0.9709137
vn 0.5450485 0.1827114 0.8182535
vn 0.7687482 -0.2036535 0.6062603
vn 0.7687394 0.2036514 0.606272
vn 0.6859121 0.2722943 0.6748188
vn 0.5326322 -0.5326314 0.6577286
vn 0.2281156 0.5409227 0.8095467
vn -0.6863273 0.272032 0.6745023
vn -0.7687482 -0.2036534 0.6062602
vn -0.5326321 -0.5326315 0.6577285
vn -0.7687394 0.2036515 0.6062721
vn -0.228868 0.5407327 0.8094614
vn -0.5450484 -0.1827114 0.8182535
vn -0.5450484 0.1827114 0.8182535
vn 0.2281156 0.5409227 0.8095467
vn -0.2036524 0.76875 0.6062584
vn -0.228868 0.5407327 0.8094614
vn 0.2036525 0.7687499 0.6062585
vn -0.1827114 0.5450484 0.8182535
vn 0.1827114 0.5450484 0.8182535
vn -0.2036524 -0.7687498 0.6062585
vn -0.5326321 -0.5326315 0.6577285
vn -0.7687482 -0.2036534 0.6062602
vn -0.5450484 -0.1827114 0.8182535
vn -0.1827114 -0.5450484 0.8182535
vn -0.2306103 -0.06438588 0.9709137
vn -0.06438582 -0.2306103 0.9709137
vn -0.7687394 0.2036515 0.6062721
vn -0.228868 0.5407327 0.8094614
vn -0.2036524 0.76875 0.6062584
vn -0.1827114 0.5450484 0.8182535
vn -0.5450484 0.1827114 0.8182535
vn 0.2036525 0.7687499 0.6062585
vn 0.2281156 0.5409227 0.8095467
vn 0.7687394 0.2036514 0.606272
vn 0.5450485 0.1827114 0.8182535
vn 0.1827114 0.5450484 0.8182535
vn 0.7687482 -0.2036535 0.6062603
vn 0.5326322 -0.5326314 0.6577286
vn 0.2036524 -0.76875 0.6062584
vn 0.1827114 -0.5450484 0.8182535
vn 0.5450484 -0.1827114 0.8182535
vn 0.06438588 -0.2306103 0.9709137
vn 0.2306103 -0.06438582 0.9709137
vn -0.5450484 0.1827114 0.8182535
vn -0.2306103 0.06438582 0.9709137
vn -0.2306103 -0.06438588 0.9709137
vn -0.5450484 -0.1827114 0.8182535
vn 0.2306103 0.06438587 0.9709137
vn 0.06438583 0.2306103 0.9709137
vn 0.1827114 0.5450484 0.8182535
vn 0.5450485 0.1827114 0.8182535
vn -0.06438588 0.2306103 0.9709137
vn -0.2306103 0.06438582 0.9709137
vn -0.5450484 0.1827114 0.8182535
vn -0.1827114 0.5450484 0.8182535
g DomeRoof_0
f 3/3/3 2/2/2 1/1/1
f 6/6/6 5/5/5 4/4/4
f 9/9/9 8/8/8 7/7/7
f 12/12/12 11/11/11 10/10/10
f 15/15/15 14/14/14 13/13/13
f 18/18/18 17/17/17 16/16/16
f 21/21/21 20/20/20 19/19/19
f 22/22/22 21/21/21 19/19/19
f 25/25/25 24/24/24 23/23/23
f 26/26/26 25/25/25 23/23/23
f 29/29/29 28/28/28 27/27/27
f 27/27/27 30/30/30 29/29/29
f 27/27/27 31/31/31 30/30/30
f 31/31/31 32/32/32 30/30/30
f 31/31/31 33/33/33 32/32/32
f 33/33/33 34/34/34 32/32/32
f 37/37/37 36/36/36 35/35/35
f 38/38/38 37/37/37 35/35/35
f 38/38/38 35/35/35 39/39/39
f 40/40/40 38/38/38 39/39/39
f 40/40/40 39/39/39 41/41/41
f 42/42/42 40/40/40 41/41/41
f 45/45/45 44/44/44 43/43/43
f 46/46/46 45/45/45 43/43/43
f 46/46/46 43/43/43 47/47/47
f 48/48/48 46/46/46 47/47/47
f 49/49/49 48/48/48 47/47/47
f 49/49/49 47/47/47 50/50/50
f 49/49/49 51/51/51 48/48/48
f 54/54/54 53/53/53 52/52/52
f 53/53/53 55/55/55 52/52/52
f 55/55/55 56/56/56 52/52/52
f 53/53/53 57/57/57 55/55/55
f 57/57/57 58/58/58 55/55/55
f 61/61/61 60/60/60 59/59/59
f 60/60/60 62/62/62 59/59/59
f 60/60/60 63/63/63 62/62/62
f 63/63/63 64/64/64 62/62/62
f 67/67/67 66/66/66 65/65/65
f 68/68/68 67/67/67 65/65/65
f 69/69/69 68/68/68 65/65/65
f 70/70/70 68/68/68 69/69/69
f 71/71/71 70/70/70 69/69/69
f 74/74/74 73/73/73 72/72/72
f 74/74/74 72/72/72 75/75/75
f 72/72/72 76/76/76 75/75/75
f 79/79/79 78/78/78 77/77/77
f 79/79/79 77/77/77 80/80/80
f 77/77/77 81/81/81 80/80/80
f 84/84/84 83/83/83 82/82/82
f 85/85/85 84/84/84 82/82/82
f 86/86/86 85/85/85 82/82/82
f 87/87/87 85/85/85 86/86/86
f 88/88/88 87/87/87 86/86/86
f 91/91/91 90/90/90 89/89/89
f 92/92/92 91/91/91 89/89/89
f 95/95/95 94/94/94 93/93/93
f 96/96/96 95/95/95 93/93/93
f 99/99/99 98/98/98 97/97/97
f 100/100/100 99/99/99 97/97/97
