g DrumPart1
v 0.725134 -0.30036 -0.345286
v 0.554993 -0.554993 -0.345286
v 0.560639 -0.560639 -0.326203
v 0.732511 -0.303416 -0.326203
v 0.784879 0 -0.345286
v 0.554993 -0.554993 -0.302004
v 0.792864 0 -0.326203
v 0.725134 0.30036 -0.345286
v 0.725134 -0.30036 -0.302004
v 0.554993 -0.554993 0.301186
v 0.732511 0.303416 -0.326203
v 0.554993 0.554993 -0.345286
v 0.560639 0.560639 -0.326203
v 0.784879 0 -0.302004
v 0.725134 -0.30036 0.301186
v 0.560639 -0.560639 0.325385
v 0.725134 0.30036 -0.302004
v 0.554993 0.554993 -0.302004
v 0.732511 -0.303416 0.325385
v 0.554993 -0.554993 0.346918
v 0.725134 -0.30036 0.346918
v 0.784879 0 0.301186
v 0.725134 0.30036 0.301186
v 0.554993 0.554993 0.301186
v 0.792864 0 0.325385
v 0.784879 0 0.346918
v 0.732511 0.303416 0.325385
v 0.560639 0.560639 0.325385
v 0.725134 0.30036 0.346918
v 0.554993 0.554993 0.346918
v 0.708089 -0.2933 -0.337567
v 0.544021 -0.549536 -0.325473
v 0.539609 -0.544714 -0.337694
v 0.714046 -0.295768 -0.325459
v 0.76643 0 -0.337567
v 0.538576 -0.544023 -0.30518
v 0.772878 0 -0.325459
v 0.708089 0.2933 -0.337567
v 0.7069 -0.292808 -0.305241
v 0.538576 -0.544023 0.304363
v 0.714046 0.295768 -0.325459
v 0.539609 0.544714 -0.337694
v 0.544021 0.549536 -0.325473
v 0.765144 0 -0.305241
v 0.7069 -0.292808 0.304422
v 0.544013 -0.54953 0.325042
v 0.7069 0.292808 -0.305241
v 0.538576 0.544023 -0.30518
v 0.714036 -0.295764 0.325036
v 0.539365 -0.544551 0.340083
v 0.707809 -0.293184 0.339965
v 0.765144 0 0.304422
v 0.7069 0.292808 0.304422
v 0.538576 0.544023 0.304362
v 0.772868 0 0.325035
v 0.766127 0 0.339965
v 0.714036 0.295764 0.325035
v 0.544013 0.54953 0.325042
v 0.707809 0.293184 0.339965
v 0.539365 0.544551 0.340082
v 0.554993 0.554993 0.346918
v 0.539365 0.544551 0.340082
v 0.544013 0.54953 0.325042
v 0.560639 0.560639 0.325385
v 0.538576 0.544023 0.304362
v 0.554993 0.554993 0.301186
v 0.538576 0.544023 -0.30518
v 0.554993 0.554993 -0.302004
v 0.544021 0.549536 -0.325473
v 0.560639 0.560639 -0.326203
v 0.539609 0.544714 -0.337694
v 0.554993 0.554993 -0.345286
v 0.560639 -0.560639 0.325385
v 0.539365 -0.544551 0.340083
v 0.554993 -0.554993 0.346918
v 0.544013 -0.54953 0.325042
v 0.554993 -0.554993 0.301186
v 0.538576 -0.544023 0.304363
v 0.554993 -0.554993 -0.302004
v 0.538576 -0.544023 -0.30518
v 0.560639 -0.560639 -0.326203
v 0.544021 -0.549536 -0.325473
v 0.554993 -0.554993 -0.345286
v 0.539609 -0.544714 -0.337694
v 0.554993 -0.554993 0.346918
v 0.539365 -0.544551 0.340083
v 0.707809 -0.293184 0.339965
v 0.725134 -0.30036 0.346918
v 0.766127 0 0.339965
v 0.784879 0 0.346918
v 0.707809 0.293184 0.339965
v 0.725134 0.30036 0.346918
v 0.539365 0.544551 0.340082
v 0.554993 0.554993 0.346918
v 0.554993 0.554993 -0.345286
v 0.539609 0.544714 -0.337694
v 0.708089 0.2933 -0.337567
v 0.725134 0.30036 -0.345286
v 0.76643 0 -0.337567
v 0.784879 0 -0.345286
v 0.708089 -0.2933 -0.337567
v 0.725134 -0.30036 -0.345286
v 0.539609 -0.544714 -0.337694
v 0.554993 -0.554993 -0.345286
vt 0.751375 0.12509
vt 0.722097 0.125169
vt 0.722099 0.128337
vt 0.751376 0.12826
vt 0.78067 0.125015
vt 0.7221 0.132282
vt 0.780672 0.128185
vt 0.809945 0.124935
vt 0.751376 0.132208
vt 0.722648 0.227994
vt 0.809962 0.128061
vt 0.839414 0.124633
vt 0.839609 0.12775
vt 0.780673 0.132134
vt 0.751942 0.227896
vt 0.722651 0.231941
vt 0.809977 0.132055
vt 0.839505 0.131851
vt 0.751944 0.231839
vt 0.722655 0.235481
vt 0.751947 0.235375
vt 0.781203 0.227801
vt 0.810426 0.227734
vt 0.839845 0.227605
vt 0.781205 0.231739
vt 0.781208 0.235271
vt 0.810438 0.231621
vt 0.840032 0.231494
vt 0.810447 0.235195
vt 0.839913 0.235157
vt 0.751375 0.12509
vt 0.722099 0.128337
vt 0.722097 0.125169
vt 0.751376 0.12826
vt 0.78067 0.125015
vt 0.7221 0.132282
vt 0.780672 0.128185
vt 0.809945 0.124935
vt 0.751376 0.132208
vt 0.722648 0.227994
vt 0.809962 0.128061
vt 0.839414 0.124633
vt 0.839609 0.12775
vt 0.780673 0.132134
vt 0.751942 0.227896
vt 0.722651 0.231941
vt 0.809977 0.132055
vt 0.839505 0.131851
vt 0.751944 0.231839
vt 0.722655 0.235481
vt 0.751947 0.235375
vt 0.781203 0.227801
vt 0.810426 0.227734
vt 0.839845 0.227605
vt 0.781205 0.231739
vt 0.781208 0.235271
vt 0.810438 0.231621
vt 0.840032 0.231494
vt 0.810447 0.235195
vt 0.839913 0.235157
vt 0.839913 0.235157
vt 0.839913 0.235157
vt 0.840032 0.231494
vt 0.840032 0.231494
vt 0.839845 0.227605
vt 0.839845 0.227605
vt 0.839505 0.131851
vt 0.839505 0.131851
vt 0.839609 0.12775
vt 0.839609 0.12775
vt 0.839414 0.124633
vt 0.839414 0.124633
vt 0.722651 0.231941
vt 0.722655 0.235481
vt 0.722655 0.235481
vt 0.722651 0.231941
vt 0.722648 0.227994
vt 0.722648 0.227994
vt 0.7221 0.132282
vt 0.7221 0.132282
vt 0.722099 0.128337
vt 0.722099 0.128337
vt 0.722097 0.125169
vt 0.722097 0.125169
vt 0.722655 0.235481
vt 0.722655 0.235481
vt 0.751947 0.235375
vt 0.751947 0.235375
vt 0.781208 0.235271
vt 0.781208 0.235271
vt 0.810447 0.235195
vt 0.810447 0.235195
vt 0.839913 0.235157
vt 0.839913 0.235157
vt 0.839414 0.124633
vt 0.839414 0.124633
vt 0.809945 0.124935
vt 0.809945 0.124935
vt 0.78067 0.125015
vt 0.78067 0.125015
vt 0.751375 0.12509
vt 0.751375 0.12509
vt 0.722097 0.125169
vt 0.722097 0.125169
vn 0.8522781 -0.3530242 -0.3860002
vn 0.7692131 -0.5139744 -0.3796595
vn 0.8309149 -0.5552025 -0.03647957
vn 0.9232392 -0.3824213 -0.03719336
vn 0.922498 0 -0.3860016
vn 0.8209134 -0.5485194 0.1588323
vn 0.9993081 0 -0.03719346
vn 0.8522779 0.3530241 -0.3860002
vn 0.9116964 -0.3776369 0.1618641
vn 0.8209134 -0.5485194 -0.1588321
vn 0.9232392 0.3824213 -0.03719336
vn 0.769213 0.5139744 -0.3796598
vn 0.8309149 0.5552025 -0.0364796
vn 0.986813 0 0.1618648
vn 0.9116964 -0.3776369 -0.1618639
vn 0.8313459 -0.5554905 0.01715055
vn 0.9116964 0.3776369 0.1618642
vn 0.8209134 0.5485194 0.1588324
vn 0.9237372 -0.3826274 0.01748647
vn 0.7813939 -0.5221134 0.3417911
vn 0.8662398 -0.3588074 0.3476861
vn 0.986813 0 -0.1618646
vn 0.9116964 0.3776369 -0.1618639
vn 0.8209134 0.5485194 -0.1588322
vn 0.9998471 0 0.01748653
vn 0.9376105 0 0.3476875
vn 0.9237372 0.3826274 0.01748648
vn 0.8313459 0.5554905 0.01715056
vn 0.8662398 0.3588074 0.3476862
vn 0.7813939 0.5221134 0.3417912
vn -0.815447 0.3384439 0.4695763
vn -0.8295494 0.5557452 0.05472768
vn -0.7368513 0.4936096 0.4619521
vn -0.9220455 0.3825872 0.05881433
vn -0.882645 0 0.4700403
vn -0.8168606 0.5473043 -0.1822
vn -0.9982591 0 0.05898137
vn -0.815447 -0.3384439 0.4695763
vn -0.9075537 0.3766181 -0.1857556
vn -0.8173828 0.5476518 0.1787814
vn -0.9220455 -0.3825871 0.05881437
vn -0.7368513 -0.4936096 0.4619521
vn -0.8295494 -0.5557452 0.0547277
vn -0.9825804 0 -0.1858379
vn -0.908161 0.3768671 0.1822488
vn -0.830442 0.5563539 -0.02891785
vn -0.9075537 -0.3766182 -0.1857555
vn -0.8168606 -0.5473044 -0.1822
vn -0.9231955 0.3830595 -0.03123039
vn -0.759925 0.5090923 -0.4041521
vn -0.841933 0.34942 -0.4111623
vn -0.9832407 0 0.1823125
vn -0.9081607 -0.376867 0.182251
vn -0.8173829 -0.5476519 0.1787806
vn -0.9995091 0 -0.03132952
vn -0.9114132 0 -0.4114924
vn -0.9231957 -0.3830595 -0.03122584
vn -0.830442 -0.5563539 -0.02891816
vn -0.8419354 -0.3494206 -0.4111571
vn -0.7599248 -0.5090922 -0.4041528
vn -0.5659353 0.8206444 0.07911904
vn -0.5659353 0.8206444 0.07911904
vn -0.5636749 0.8259727 0.006308384
vn -0.5636448 0.8259975 0.005727112
vn -0.5572526 0.8296693 -0.03344012
vn -0.5572658 0.8296474 -0.03376516
vn -0.5569879 0.8298342 0.03375989
vn -0.5570009 0.8298086 0.03417021
vn -0.5654524 0.8246952 -0.01188747
vn -0.5653775 0.8247608 -0.01086308
vn -0.5694084 0.8170823 -0.09028035
vn -0.5694084 0.8170823 -0.09028035
vn -0.5636446 -0.8259975 0.005726006
vn -0.5659335 -0.8206459 0.07911776
vn -0.5659335 -0.8206459 0.07911776
vn -0.5636746 -0.8259728 0.006306519
vn -0.5572665 -0.8296469 -0.03376465
vn -0.5572535 -0.8296688 -0.03344161
vn -0.5570009 -0.8298087 0.03417018
vn -0.5569879 -0.8298342 0.03375985
vn -0.5653774 -0.8247609 -0.0108631
vn -0.5654524 -0.8246952 -0.01188748
vn -0.5694084 -0.8170823 -0.09028029
vn -0.5694084 -0.8170823 -0.09028029
vn -0.2888555 0.1935036 0.9376133
vn -0.2888555 0.1935036 0.9376133
vn -0.3185836 0.1315766 0.9387183
vn -0.3185933 0.1315558 0.938718
vn -0.3476542 0 0.9376228
vn -0.3476541 0 0.9376228
vn -0.3185934 -0.1315822 0.9387141
vn -0.3186031 -0.1315614 0.9387138
vn -0.288875 -0.1935147 0.9376051
vn -0.288875 -0.1935147 0.9376051
vn -0.3206905 -0.2148214 -0.9225017
vn -0.3206905 -0.2148214 -0.9225017
vn -0.3537843 -0.1461322 -0.9238409
vn -0.3537948 -0.1461097 -0.9238405
vn -0.3859722 0 -0.9225104
vn -0.3859722 0 -0.9225104
vn -0.3537843 0.1461322 -0.9238409
vn -0.3537948 0.1461097 -0.9238405
vn -0.3206905 0.2148214 -0.9225017
vn -0.3206905 0.2148214 -0.9225017
g DrumPart1_0
f 3/3/3 2/2/2 1/1/1
f 4/4/4 3/3/3 1/1/1
f 4/4/4 1/1/1 5/5/5
f 6/6/6 3/3/3 4/4/4
f 7/7/7 4/4/4 5/5/5
f 7/7/7 5/5/5 8/8/8
f 9/9/9 6/6/6 4/4/4
f 9/9/9 4/4/4 7/7/7
f 10/10/10 6/6/6 9/9/9
f 11/11/11 7/7/7 8/8/8
f 11/11/11 8/8/8 12/12/12
f 13/13/13 11/11/11 12/12/12
f 14/14/14 9/9/9 7/7/7
f 14/14/14 7/7/7 11/11/11
f 15/15/15 10/10/10 9/9/9
f 15/15/15 9/9/9 14/14/14
f 16/16/16 10/10/10 15/15/15
f 17/17/17 11/11/11 13/13/13
f 17/17/17 14/14/14 11/11/11
f 18/18/18 17/17/17 13/13/13
f 19/19/19 16/16/16 15/15/15
f 20/20/20 16/16/16 19/19/19
f 21/21/21 20/20/20 19/19/19
f 22/22/22 15/15/15 14/14/14
f 22/22/22 14/14/14 17/17/17
f 19/19/19 15/15/15 22/22/22
f 23/23/23 17/17/17 18/18/18
f 23/23/23 22/22/22 17/17/17
f 24/24/24 23/23/23 18/18/18
f 21/21/21 19/19/19 25/25/25
f 25/25/25 19/19/19 22/22/22
f 25/25/25 22/22/22 23/23/23
f 26/26/26 21/21/21 25/25/25
f 27/27/27 23/23/23 24/24/24
f 27/27/27 25/25/25 23/23/23
f 26/26/26 25/25/25 27/27/27
f 28/28/28 27/27/27 24/24/24
f 29/29/29 26/26/26 27/27/27
f 29/29/29 27/27/27 28/28/28
f 30/30/30 29/29/29 28/28/28
f 33/33/33 32/32/32 31/31/31
f 32/32/32 34/34/34 31/31/31
f 31/31/31 34/34/34 35/35/35
f 32/32/32 36/36/36 34/34/34
f 34/34/34 37/37/37 35/35/35
f 35/35/35 37/37/37 38/38/38
f 36/36/36 39/39/39 34/34/34
f 34/34/34 39/39/39 37/37/37
f 36/36/36 40/40/40 39/39/39
f 37/37/37 41/41/41 38/38/38
f 38/38/38 41/41/41 42/42/42
f 41/41/41 43/43/43 42/42/42
f 39/39/39 44/44/44 37/37/37
f 37/37/37 44/44/44 41/41/41
f 40/40/40 45/45/45 39/39/39
f 39/39/39 45/45/45 44/44/44
f 40/40/40 46/46/46 45/45/45
f 41/41/41 47/47/47 43/43/43
f 44/44/44 47/47/47 41/41/41
f 47/47/47 48/48/48 43/43/43
f 46/46/46 49/49/49 45/45/45
f 46/46/46 50/50/50 49/49/49
f 50/50/50 51/51/51 49/49/49
f 45/45/45 52/52/52 44/44/44
f 44/44/44 52/52/52 47/47/47
f 45/45/45 49/49/49 52/52/52
f 47/47/47 53/53/53 48/48/48
f 52/52/52 53/53/53 47/47/47
f 53/53/53 54/54/54 48/48/48
f 49/49/49 51/51/51 55/55/55
f 49/49/49 55/55/55 52/52/52
f 52/52/52 55/55/55 53/53/53
f 51/51/51 56/56/56 55/55/55
f 53/53/53 57/57/57 54/54/54
f 55/55/55 57/57/57 53/53/53
f 55/55/55 56/56/56 57/57/57
f 57/57/57 58/58/58 54/54/54
f 56/56/56 59/59/59 57/57/57
f 57/57/57 59/59/59 58/58/58
f 59/59/59 60/60/60 58/58/58
f 63/63/63 62/62/62 61/61/61
f 64/64/64 63/63/63 61/61/61
f 65/65/65 63/63/63 64/64/64
f 66/66/66 65/65/65 64/64/64
f 67/67/67 65/65/65 66/66/66
f 68/68/68 67/67/67 66/66/66
f 69/69/69 67/67/67 68/68/68
f 70/70/70 69/69/69 68/68/68
f 71/71/71 69/69/69 70/70/70
f 72/72/72 71/71/71 70/70/70
f 75/75/75 74/74/74 73/73/73
f 74/74/74 76/76/76 73/73/73
f 73/73/73 76/76/76 77/77/77
f 76/76/76 78/78/78 77/77/77
f 77/77/77 78/78/78 79/79/79
f 78/78/78 80/80/80 79/79/79
f 79/79/79 80/80/80 81/81/81
f 80/80/80 82/82/82 81/81/81
f 81/81/81 82/82/82 83/83/83
f 82/82/82 84/84/84 83/83/83
f 87/87/87 86/86/86 85/85/85
f 88/88/88 87/87/87 85/85/85
f 89/89/89 87/87/87 88/88/88
f 90/90/90 89/89/89 88/88/88
f 91/91/91 89/89/89 90/90/90
f 92/92/92 91/91/91 90/90/90
f 93/93/93 91/91/91 92/92/92
f 94/94/94 93/93/93 92/92/92
f 97/97/97 96/96/96 95/95/95
f 98/98/98 97/97/97 95/95/95
f 99/99/99 97/97/97 98/98/98
f 100/100/100 99/99/99 98/98/98
f 101/101/101 99/99/99 100/100/100
f 102/102/102 101/101/101 100/100/100
f 103/103/103 101/101/101 102/102/102
f 104/104/104 103/103/103 102/102/102
