g DungeonWallDoorFrame
v -0.333333 -0.333333 4.709292
v -0.333333 0.333333 4.709292
v -0.333333 0.333333 7.305446
v -0.333333 -0.333333 7.305446
v -0.333333 0.333333 4.709292
v 0.333333 0.333333 7.305446
v -0.333333 0.333333 7.305446
v 0.333333 0.333333 5.35449
v 1 0.333333 7.305446
v 1 0.333333 5.35449
v 0.333333 0.333333 7.305446
v 1 0.333333 7.305446
v 1 -0.333333 7.305446
v 0.333333 -0.333333 7.305446
v -0.333333 -0.333333 7.305446
v -0.333333 0.333333 7.305446
v 0.333333 -0.333333 5.35449
v -0.333333 -0.333333 4.709292
v -0.333333 -0.333333 7.305446
v 0.333333 -0.333333 7.305446
v 1 -0.333333 5.35449
v 1 -0.333333 7.305446
v 0.333333 -0.333333 5.35449
v -0.333333 0.333333 4.709292
v -0.333333 -0.333333 4.709292
v 0.333333 0.333333 5.35449
v 1 0.333333 5.35449
v 1 -0.333333 5.35449
v 1 0.333333 5.35449
v 1 -0.333333 5.35449
v 1 -0.333333 7.305446
v 1 0.333333 7.305446
vt 0.753054 0.692838
vt 0.706325 0.692838
vt 0.706325 0.948874
vt 0.753055 0.948874
vt 0.410359 0.701403
vt 0.472488 0.943346
vt 0.410359 0.943346
vt 0.472488 0.761531
vt 0.534617 0.943346
vt 0.534617 0.761531
vt 0.469251 0.965984
vt 0.469251 0.965984
vt 0.469251 0.965984
vt 0.469251 0.965984
vt 0.424354 0.965984
vt 0.424354 0.965984
vt 0.472488 0.761531
vt 0.410359 0.701403
vt 0.410359 0.943346
vt 0.472488 0.943346
vt 0.534617 0.761531
vt 0.534617 0.943346
vt 0.706325 0.692838
vt 0.753054 0.692838
vt 0.753054 0.692838
vt 0.753054 0.692838
vt 0.753054 0.692838
vt 0.706325 0.692838
vt 0.753054 0.692838
vt 0.706325 0.692838
vt 0.706325 0.948874
vt 0.753055 0.948874
vn -1 0 0
vn -1 0 0
vn -1 0 0
vn -1 0 0
vn 0 1 0
vn 0 1 0
vn 0 1 0
vn 0 1 0
vn 0 1 0
vn 0 1 0
vn 0 0 1
vn 0 0 1
vn 0 0 1
vn 0 0 1
vn 0 0 1
vn 0 0 1
vn 0 -1 0
vn 0 -1 0
vn 0 -1 0
vn 0 -1 0
vn 0 -1 0
vn 0 -1 0
vn 0.375112 0 -0.9269795
vn 0.6954422 0 -0.7185821
vn 0.6954422 0 -0.7185821
vn 0.375112 0 -0.9269795
vn 0 0 -1
vn 0 0 -1
vn 1 0 0
vn 1 0 0
vn 1 0 0
vn 1 0 0
g DungeonWallDoorFrame_0
f 3/3/3 2/2/2 1/1/1
f 4/4/4 3/3/3 1/1/1
f 7/7/7 6/6/6 5/5/5
f 6/6/6 8/8/8 5/5/5
f 6/6/6 9/9/9 8/8/8
f 9/9/9 10/10/10 8/8/8
f 13/13/13 12/12/12 11/11/11
f 14/14/14 13/13/13 11/11/11
f 15/15/15 14/14/14 11/11/11
f 16/16/16 15/15/15 11/11/11
f 19/19/19 18/18/18 17/17/17
f 20/20/20 19/19/19 17/17/17
f 17/17/17 21/21/21 20/20/20
f 21/21/21 22/22/22 20/20/20
f 25/25/25 24/24/24 23/23/23
f 24/24/24 26/26/26 23/23/23
f 26/26/26 27/27/27 23/23/23
f 27/27/27 28/28/28 23/23/23
f 31/31/31 30/30/30 29/29/29
f 32/32/32 31/31/31 29/29/29
