g ElevatorCollider
v -4.434992 1 0
v -4.434992 -3.691532 3.5
v -4.434992 -3.691532 0
v -4.434992 1 3.5
v -4.434992 -3.691532 3.802244
v -4.434992 1 3.802244
v 0.434992 -3.691532 0
v 0.434992 1 3.5
v 0.434992 1 0
v 0.434992 -3.691532 3.5
v 0.434992 1 3.802244
v 0.434992 -3.691532 3.802244
v -4.434992 -3.691532 3.5
v -4.434992 -3.691532 3.802244
v -3 -3.691532 3.802244
v -3 -3.691532 3.5
v -4.434992 -3.691532 0
v -1 -3.691532 3.802244
v -3 -3.691532 0
v -1 -3.691532 3.5
v 0.434992 -3.691532 3.802244
v -1 -3.691532 0
v 0.434992 -3.691532 3.5
v 0.434992 -3.691532 0
v -3.110579 1 0
v -4.434992 1 3.5
v -4.434992 1 0
v -3.110579 1 3.5
v -4.434992 1 3.802244
v -3 1 3.802244
v -0.88942 1 3.5
v -1 1 3.802244
v 0.434992 1 3.5
v 0.434992 1 3.802244
v 0.434992 1 0
v -0.88942 1 0
v -0.88942 1 3.5
v -0.88942 0.305813 3.5
v -0.88942 0.305813 0
v -0.88942 1 0
v -3.110579 1 0
v -3.110579 0.305813 0
v -3.110579 0.305813 3.5
v -3.110579 1 3.5
v -3.110579 0.305813 3.5
v -3.110579 0.305813 0
v -0.88942 0.305813 0
v -0.88942 0.305813 3.5
v -3.110579 1 3.5
v -3.110579 0.305813 3.5
v -0.88942 0.305813 3.5
v -0.88942 1 3.5
v -1.273805 0.684098 3.673435
v 0.178586 0.684098 3.673435
v 0.178586 -3.37563 3.673435
v -1.273805 -3.37563 3.673435
v -2.726195 0.684098 3.673435
v -2.726195 -3.37563 3.673435
v -4.178586 0.684098 3.673435
v -4.178586 -3.37563 3.673435
v 0.178586 -3.37563 3.802244
v 0.178586 -3.37563 3.673435
v 0.178586 0.684098 3.673435
v 0.178586 0.684098 3.802244
v -4.178586 0.684098 3.802244
v -4.178586 0.684098 3.673435
v -4.178586 -3.37563 3.673435
v -4.178586 -3.37563 3.802244
v 0.178586 0.684098 3.802244
v 0.178586 0.684098 3.673435
v -1.273805 0.684098 3.673435
v -1.105301 0.684098 3.802244
v -2.726195 0.684098 3.673435
v -2.894699 0.684098 3.802244
v -4.178586 0.684098 3.673435
v -4.178586 0.684098 3.802244
v -4.178586 -3.37563 3.802244
v -4.178586 -3.37563 3.673435
v -2.726195 -3.37563 3.673435
v -2.894699 -3.37563 3.802244
v -1.273805 -3.37563 3.673435
v -1.105301 -3.37563 3.802244
v 0.178586 -3.37563 3.673435
v 0.178586 -3.37563 3.802244
v -1.105301 -3.37563 3.5
v 0.178586 -3.37563 3.5
v 0.178586 0.684098 3.5
v -1.006365 0.684098 3.5
v -2.993635 0.684098 3.5
v -2.894699 -3.37563 3.5
v -4.178586 -3.37563 3.5
v -4.178586 0.684098 3.5
v -1.105301 0.684098 3.802244
v -2.894699 0.684098 3.802244
v -3 1 3.802244
v -4.178586 0.684098 3.802244
v -1 1 3.802244
v -4.434992 1 3.802244
v -4.178586 -3.37563 3.802244
v -4.434992 -3.691532 3.802244
v -2.894699 -3.37563 3.802244
v -3 -3.691532 3.802244
v -1.105301 -3.37563 3.802244
v -1 -3.691532 3.802244
v 0.178586 -3.37563 3.802244
v 0.434992 -3.691532 3.802244
v 0.178586 0.684098 3.802244
v 0.434992 1 3.802244
vt 9E-05 0.160246
vt 0.99991 0.906137
vt 0.99991 0.160246
vt 9E-05 0.906137
vt 0.99991 0.970549
vt 9E-05 0.970548
vt 9E-05 0.166106
vt 0.99991 0.911996
vt 0.99991 0.166106
vt 9.1E-05 0.911997
vt 0.99991 0.976408
vt 9.1E-05 0.976408
vt 8.9E-05 0.908102
vt 8.9E-05 0.970154
vt 0.294697 0.970154
vt 0.294697 0.908103
vt 8.8E-05 0.189542
vt 0.705303 0.970154
vt 0.294697 0.189541
vt 0.705303 0.908103
vt 0.999912 0.970154
vt 0.705303 0.189541
vt 0.999912 0.908103
vt 0.999911 0.189541
vt 0.727775 0.187818
vt 0.999681 0.90638
vt 0.999681 0.187819
vt 0.727775 0.90638
vt 0.999681 0.968431
vt 0.705073 0.968431
vt 0.271764 0.90638
vt 0.294467 0.968431
vt -0.000141 0.90638
vt -0.000141 0.968431
vt -0.000142 0.187819
vt 0.271764 0.187819
vt 0.271764 0.90638
vt 0.271764 0.90638
vt 0.271764 0.187819
vt 0.271764 0.187819
vt 0.727775 0.187818
vt 0.727775 0.187818
vt 0.727775 0.90638
vt 0.727775 0.90638
vt 0.727775 0.90638
vt 0.727775 0.187818
vt 0.271764 0.187819
vt 0.271764 0.90638
vt 0.727775 0.90638
vt 0.727775 0.90638
vt 0.271764 0.90638
vt 0.271764 0.90638
vt 0.666634 0.902776
vt 0.999903 0.902776
vt 0.999904 0.216472
vt 0.666635 0.216472
vt 0.333366 0.902776
vt 0.333366 0.216472
vt 9.6E-05 0.902776
vt 9.6E-05 0.216472
vt 0.041016 0.173828
vt 0.041016 0.173828
vt 0.041016 0.173828
vt 0.041016 0.173828
vt 0.041016 0.173828
vt 0.041016 0.173828
vt 0.041016 0.173828
vt 0.041016 0.173828
vt 0.041016 0.173828
vt 0.041016 0.173828
vt 0.041016 0.173828
vt 0.041016 0.173828
vt 0.041016 0.173828
vt 0.041016 0.173828
vt 0.041016 0.173828
vt 0.041016 0.173828
vt 0.041016 0.173828
vt 0.041016 0.173828
vt 0.041016 0.173828
vt 0.041016 0.173828
vt 0.041016 0.173828
vt 0.041016 0.173828
vt 0.041016 0.173828
vt 0.041016 0.173828
vt 0.305619 0.220372
vt 0.022971 0.220372
vt 0.022972 0.893094
vt 0.283838 0.893094
vt 0.721334 0.893094
vt 0.699554 0.220372
vt 0.982201 0.220372
vt 0.982201 0.893094
vt 0.041016 0.173828
vt 0.041016 0.173828
vt 0.041016 0.173828
vt 0.041016 0.173828
vt 0.041016 0.173828
vt 0.041016 0.173828
vt 0.041016 0.173828
vt 0.041016 0.173828
vt 0.041016 0.173828
vt 0.041016 0.173828
vt 0.041016 0.173828
vt 0.041016 0.173828
vt 0.041016 0.173828
vt 0.041016 0.173828
vt 0.041016 0.173828
vt 0.041016 0.173828
vn -1 0 0
vn -1 0 0
vn -1 0 0
vn -1 0 0
vn -1 0 0
vn -1 0 0
vn 1 0 0
vn 1 0 0
vn 1 0 0
vn 1 0 0
vn 1 0 0
vn 1 0 0
vn 0 -1 0
vn 0 -1 0
vn 0 -1 0
vn 0 -1 0
vn 0 -1 0
vn 0 -1 0
vn 0 -1 0
vn 0 -1 0
vn 0 -1 0
vn 0 -1 0
vn 0 -1 0
vn 0 -1 0
vn 0 1 0
vn 0 1 0
vn 0 1 0
vn 0 1 0
vn 0 1 0
vn 0 1 0
vn 0 1 0
vn 0 1 0
vn 0 1 0
vn 0 1 0
vn 0 1 0
vn 0 1 0
vn -1 0 0
vn -1 0 0
vn -1 0 0
vn -1 0 0
vn 1 0 0
vn 1 0 0
vn 1 0 0
vn 1 0 0
vn 0 1 0
vn 0 1 0
vn 0 1 0
vn 0 1 0
vn 0 0 -1
vn 0 0 -1
vn 0 0 -1
vn 0 0 -1
vn 0 0 1
vn 0 0 1
vn 0 0 1
vn 0 0 1
vn 0 0 1
vn 0 0 1
vn 0 0 1
vn 0 0 1
vn -1 0 0
vn -1 0 0
vn -1 0 0
vn -1 0 0
vn 1 0 0
vn 1 0 0
vn 1 0 0
vn 1 0 0
vn 0 -1 0
vn 0 -1 0
vn 0 -1 0
vn 0 -1 0
vn 0 -1 0
vn 0 -1 0
vn 0 -1 0
vn 0 -1 0
vn 0 1 0
vn 0 1 0
vn 0 1 0
vn 0 1 0
vn 0 1 0
vn 0 1 0
vn 0 1 0
vn 0 1 0
vn 0 0 -1
vn 0 0 -1
vn 0 0 -1
vn 0 0 -1
vn 0 0 -1
vn 0 0 -1
vn 0 0 -1
vn 0 0 -1
vn 0 0 1
vn 0 0 1
vn 0 0 1
vn 0 0 1
vn 0 0 1
vn 0 0 1
vn 0 0 1
vn 0 0 1
vn 0 0 1
vn 0 0 1
vn 0 0 1
vn 0 0 1
vn 0 0 1
vn 0 0 1
vn 0 0 1
vn 0 0 1
g ElevatorCollider_0
f 3/3/3 2/2/2 1/1/1
f 2/2/2 4/4/4 1/1/1
f 2/2/2 5/5/5 4/4/4
f 5/5/5 6/6/6 4/4/4
f 9/9/9 8/8/8 7/7/7
f 8/8/8 10/10/10 7/7/7
f 8/8/8 11/11/11 10/10/10
f 11/11/11 12/12/12 10/10/10
f 15/15/15 14/14/14 13/13/13
f 16/16/16 15/15/15 13/13/13
f 16/16/16 13/13/13 17/17/17
f 18/18/18 15/15/15 16/16/16
f 19/19/19 16/16/16 17/17/17
f 20/20/20 18/18/18 16/16/16
f 20/20/20 16/16/16 19/19/19
f 21/21/21 18/18/18 20/20/20
f 22/22/22 20/20/20 19/19/19
f 23/23/23 21/21/21 20/20/20
f 23/23/23 20/20/20 22/22/22
f 24/24/24 23/23/23 22/22/22
f 27/27/27 26/26/26 25/25/25
f 26/26/26 28/28/28 25/25/25
f 26/26/26 29/29/29 28/28/28
f 29/29/29 30/30/30 28/28/28
f 28/28/28 30/30/30 31/31/31
f 30/30/30 32/32/32 31/31/31
f 31/31/31 32/32/32 33/33/33
f 32/32/32 34/34/34 33/33/33
f 31/31/31 33/33/33 35/35/35
f 36/36/36 31/31/31 35/35/35
f 39/39/39 38/38/38 37/37/37
f 40/40/40 39/39/39 37/37/37
f 43/43/43 42/42/42 41/41/41
f 44/44/44 43/43/43 41/41/41
f 47/47/47 46/46/46 45/45/45
f 48/48/48 47/47/47 45/45/45
f 51/51/51 50/50/50 49/49/49
f 52/52/52 51/51/51 49/49/49
f 55/55/55 54/54/54 53/53/53
f 53/53/53 56/56/56 55/55/55
f 53/53/53 57/57/57 56/56/56
f 57/57/57 58/58/58 56/56/56
f 57/57/57 59/59/59 58/58/58
f 59/59/59 60/60/60 58/58/58
f 63/63/63 62/62/62 61/61/61
f 64/64/64 63/63/63 61/61/61
f 67/67/67 66/66/66 65/65/65
f 68/68/68 67/67/67 65/65/65
f 71/71/71 70/70/70 69/69/69
f 72/72/72 71/71/71 69/69/69
f 73/73/73 71/71/71 72/72/72
f 74/74/74 73/73/73 72/72/72
f 75/75/75 73/73/73 74/74/74
f 76/76/76 75/75/75 74/74/74
f 79/79/79 78/78/78 77/77/77
f 80/80/80 79/79/79 77/77/77
f 81/81/81 79/79/79 80/80/80
f 82/82/82 81/81/81 80/80/80
f 83/83/83 81/81/81 82/82/82
f 84/84/84 83/83/83 82/82/82
f 87/87/87 86/86/86 85/85/85
f 85/85/85 88/88/88 87/87/87
f 85/85/85 89/89/89 88/88/88
f 85/85/85 90/90/90 89/89/89
f 90/90/90 91/91/91 89/89/89
f 91/91/91 92/92/92 89/89/89
f 95/95/95 94/94/94 93/93/93
f 95/95/95 96/96/96 94/94/94
f 97/97/97 95/95/95 93/93/93
f 95/95/95 98/98/98 96/96/96
f 96/96/96 98/98/98 99/99/99
f 98/98/98 100/100/100 99/99/99
f 99/99/99 100/100/100 101/101/101
f 100/100/100 102/102/102 101/101/101
f 101/101/101 102/102/102 103/103/103
f 102/102/102 104/104/104 103/103/103
f 103/103/103 104/104/104 105/105/105
f 104/104/104 106/106/106 105/105/105
f 97/97/97 93/93/93 107/107/107
f 105/105/105 106/106/106 107/107/107
f 107/107/107 108/108/108 97/97/97
f 106/106/106 108/108/108 107/107/107
