g EmuEyes
v 0.137858 0 0
v 0.198243 0.002439 0.058773
v 0.208547 0.042343 -0.009721
v 0.145179 -0.018783 0.082928
v 0.183507 0.061075 -0.073355
v 0.088454 -0.030613 0.065619
v 0.130536 0.018783 -0.082928
v 0.067168 -0.042343 0.009721
v 0.081226 -0.032901 -0.051037
v -0.137858 0 0
v -0.208547 0.042343 -0.009721
v -0.198243 0.002439 0.058773
v -0.145179 -0.018783 0.082928
v -0.183507 0.061075 -0.073355
v -0.088454 -0.030613 0.065619
v -0.130536 0.018783 -0.082928
v -0.067168 -0.042343 0.009721
v -0.081226 -0.032901 -0.051037
vt 0.428124 0.545368
vt 0.679063 0.870794
vt 0.856151 0.5
vt 0.37206 0.983372
vt 0.819225 0.15189
vt 0.093089 0.876949
vt 0.484189 0.107364
vt 9.8E-05 0.590737
vt 0.121121 0.28184
vt 0.428124 0.545368
vt 0.856151 0.5
vt 0.679063 0.870794
vt 0.37206 0.983372
vt 0.819225 0.15189
vt 0.093089 0.876949
vt 0.484189 0.107364
vt 9.8E-05 0.590737
vt 0.121121 0.28184
vn 0.4726615 -0.850888 -0.229305
vn 0.3577465 -0.8730632 -0.3313277
vn 0.4486826 -0.8319083 -0.3265155
vn 0.3782214 -0.8965061 -0.2307058
vn 0.5351381 -0.7824458 -0.3184427
vn 0.3945006 -0.9100038 -0.1275246
vn 0.5618343 -0.7959545 -0.2253854
vn 0.4917472 -0.8610364 -0.1296182
vn 0.5831622 -0.801858 -0.1301745
vn -0.4726614 -0.850888 -0.229305
vn -0.4486826 -0.8319083 -0.3265155
vn -0.3577465 -0.8730632 -0.3313277
vn -0.3782214 -0.8965062 -0.2307058
vn -0.5351381 -0.7824458 -0.3184426
vn -0.3945006 -0.9100038 -0.1275246
vn -0.5618343 -0.7959545 -0.2253853
vn -0.4917472 -0.8610364 -0.1296181
vn -0.5831623 -0.8018581 -0.1301745
g EmuEyes_0
f 3/3/3 2/2/2 1/1/1
f 2/2/2 4/4/4 1/1/1
f 5/5/5 3/3/3 1/1/1
f 4/4/4 6/6/6 1/1/1
f 7/7/7 5/5/5 1/1/1
f 6/6/6 8/8/8 1/1/1
f 9/9/9 7/7/7 1/1/1
f 8/8/8 9/9/9 1/1/1
f 12/12/12 11/11/11 10/10/10
f 13/13/13 12/12/12 10/10/10
f 11/11/11 14/14/14 10/10/10
f 15/15/15 13/13/13 10/10/10
f 14/14/14 16/16/16 10/10/10
f 17/17/17 15/15/15 10/10/10
f 16/16/16 18/18/18 10/10/10
f 18/18/18 17/17/17 10/10/10
