g ExtraLighter
v 0.676949 0.846548 -0.051034
v 0.676949 0.846548 0.014127
v 0.435978 0.866798 0.016982
v 0.435978 0.866798 -0.05389
v 0.437079 0.760388 0.016707
v 0.437079 0.760388 -0.053614
v 0.630764 0.749811 0.005283
v 0.630764 0.749811 -0.04219
v 0.864724 0.637918 -0.051084
v 0.864724 0.637918 0.014177
v 0.763799 0.602214 0.005385
v 0.763799 0.602214 -0.042293
v 0.855721 0.402884 -0.053577
v 0.855721 0.402884 0.016669
v 0.755512 0.401793 0.016947
v 0.755512 0.401793 -0.053855
v -0.676949 0.846548 -0.051034
v -0.435978 0.866798 -0.05389
v -0.435978 0.866798 0.016982
v -0.437079 0.760388 0.016707
v -0.676949 0.846548 0.014127
v -0.437079 0.760388 -0.053614
v -0.630764 0.749811 0.005283
v -0.630764 0.749811 -0.04219
v -0.864724 0.637918 -0.051084
v -0.864724 0.637918 0.014177
v -0.763799 0.602214 0.005385
v -0.763799 0.602214 -0.042293
v -0.855721 0.402884 -0.053577
v -0.855721 0.402884 0.016669
v -0.755512 0.401793 0.016947
v -0.755512 0.401793 -0.053855
v 0.676949 -0.846548 -0.051034
v 0.435978 -0.866798 -0.05389
v 0.435978 -0.866798 0.016982
v 0.437079 -0.760388 0.016707
v 0.676949 -0.846548 0.014127
v 0.437079 -0.760388 -0.053614
v 0.630764 -0.749811 0.005283
v 0.630764 -0.749811 -0.04219
v 0.864724 -0.637918 -0.051084
v 0.864724 -0.637918 0.014177
v 0.763799 -0.602214 0.005385
v 0.763799 -0.602214 -0.042293
v 0.855721 -0.402884 -0.053577
v 0.855721 -0.402884 0.016669
v 0.755512 -0.401793 0.016947
v 0.755512 -0.401793 -0.053855
v -0.676949 -0.846548 -0.051034
v -0.676949 -0.846548 0.014127
v -0.435978 -0.866798 0.016982
v -0.435978 -0.866798 -0.05389
v -0.437079 -0.760388 0.016707
v -0.437079 -0.760388 -0.053614
v -0.630764 -0.749811 0.005283
v -0.630764 -0.749811 -0.04219
v -0.864724 -0.637918 -0.051084
v -0.864724 -0.637918 0.014177
v -0.763799 -0.602214 0.005385
v -0.763799 -0.602214 -0.042293
v -0.855721 -0.402884 -0.053577
v -0.855721 -0.402884 0.016669
v -0.755512 -0.401793 0.016947
v -0.755512 -0.401793 -0.053855
vn 0.342278 0.6794138 -0.6490321
vn 0.3422769 0.6794136 0.6490328
vn -0.5576493 0.5844585 0.5894365
vn -0.5576476 0.5844571 -0.5894395
vn -0.5741614 -0.5748161 0.5830311
vn -0.5741618 -0.5748175 -0.5830292
vn -0.2636909 -0.5745857 0.7748021
vn -0.26369 -0.5745865 -0.7748019
vn 0.7148111 0.2630835 -0.6479446
vn 0.7148098 0.2630821 0.6479464
vn -0.5992164 -0.2052784 0.7738221
vn -0.5992143 -0.2052754 -0.7738243
vn 0.5524908 -0.5821002 -0.5965847
vn 0.5524895 -0.5821015 0.5965845
vn -0.5983866 -0.5545365 0.578293
vn -0.5983853 -0.5545365 -0.5782943
vn -0.342278 0.6794138 -0.6490321
vn 0.5576476 0.5844571 -0.5894395
vn 0.5576493 0.5844585 0.5894365
vn 0.5741614 -0.5748161 0.5830311
vn -0.3422769 0.6794137 0.6490327
vn 0.5741618 -0.5748175 -0.5830292
vn 0.2636909 -0.5745857 0.7748021
vn 0.26369 -0.5745865 -0.7748019
vn -0.7148111 0.2630835 -0.6479446
vn -0.7148098 0.2630821 0.6479465
vn 0.5992163 -0.2052784 0.7738221
vn 0.5992143 -0.2052754 -0.7738243
vn -0.5524908 -0.5821002 -0.5965847
vn -0.5524895 -0.5821015 0.5965845
vn 0.5983866 -0.5545365 0.578293
vn 0.5983853 -0.5545365 -0.5782943
vn 0.342278 -0.6794138 -0.6490321
vn -0.5576477 -0.584457 -0.5894396
vn -0.5576494 -0.5844585 0.5894365
vn -0.5741614 0.5748161 0.5830311
vn 0.3422769 -0.6794137 0.6490328
vn -0.5741618 0.5748174 -0.5830293
vn -0.2636909 0.5745857 0.7748021
vn -0.2636899 0.5745865 -0.774802
vn 0.7148111 -0.2630835 -0.6479446
vn 0.7148098 -0.2630821 0.6479465
vn -0.5992163 0.2052784 0.7738221
vn -0.5992144 0.2052754 -0.7738243
vn 0.5524908 0.5821002 -0.5965847
vn 0.5524896 0.5821015 0.5965846
vn -0.5983866 0.5545364 0.578293
vn -0.5983853 0.5545364 -0.5782943
vn -0.342278 -0.6794138 -0.6490321
vn -0.3422769 -0.6794137 0.6490327
vn 0.5576494 -0.5844585 0.5894365
vn 0.5576477 -0.584457 -0.5894396
vn 0.5741614 0.5748161 0.5830311
vn 0.5741618 0.5748175 -0.5830293
vn 0.2636909 0.5745857 0.7748021
vn 0.2636899 0.5745865 -0.774802
vn -0.7148111 -0.2630835 -0.6479446
vn -0.7148098 -0.2630821 0.6479464
vn 0.5992164 0.2052784 0.7738221
vn 0.5992143 0.2052754 -0.7738243
vn -0.5524908 0.5821002 -0.5965847
vn -0.5524895 0.5821015 0.5965845
vn 0.5983866 0.5545365 0.578293
vn 0.5983853 0.5545365 -0.5782943
g ExtraLighter_0
f 3/3/3 2/2/2 1/1/1
f 4/4/4 3/3/3 1/1/1
f 5/5/5 3/3/3 4/4/4
f 2/2/2 3/3/3 5/5/5
f 6/6/6 5/5/5 4/4/4
f 4/4/4 1/1/1 6/6/6
f 7/7/7 5/5/5 6/6/6
f 7/7/7 2/2/2 5/5/5
f 1/1/1 8/8/8 6/6/6
f 8/8/8 7/7/7 6/6/6
f 1/1/1 2/2/2 9/9/9
f 1/1/1 9/9/9 8/8/8
f 10/10/10 2/2/2 7/7/7
f 2/2/2 10/10/10 9/9/9
f 11/11/11 7/7/7 8/8/8
f 11/11/11 10/10/10 7/7/7
f 9/9/9 12/12/12 8/8/8
f 12/12/12 11/11/11 8/8/8
f 9/9/9 10/10/10 13/13/13
f 9/9/9 13/13/13 12/12/12
f 14/14/14 10/10/10 11/11/11
f 10/10/10 14/14/14 13/13/13
f 15/15/15 11/11/11 12/12/12
f 15/15/15 14/14/14 11/11/11
f 13/13/13 14/14/14 16/16/16
f 13/13/13 16/16/16 12/12/12
f 16/16/16 15/15/15 12/12/12
f 14/14/14 15/15/15 16/16/16
f 19/19/19 18/18/18 17/17/17
f 19/19/19 20/20/20 18/18/18
f 21/21/21 19/19/19 17/17/17
f 19/19/19 21/21/21 20/20/20
f 20/20/20 22/22/22 18/18/18
f 17/17/17 18/18/18 22/22/22
f 20/20/20 23/23/23 22/22/22
f 21/21/21 23/23/23 20/20/20
f 24/24/24 17/17/17 22/22/22
f 23/23/23 24/24/24 22/22/22
f 21/21/21 17/17/17 25/25/25
f 25/25/25 17/17/17 24/24/24
f 21/21/21 26/26/26 23/23/23
f 26/26/26 21/21/21 25/25/25
f 23/23/23 27/27/27 24/24/24
f 26/26/26 27/27/27 23/23/23
f 28/28/28 25/25/25 24/24/24
f 27/27/27 28/28/28 24/24/24
f 26/26/26 25/25/25 29/29/29
f 29/29/29 25/25/25 28/28/28
f 26/26/26 30/30/30 27/27/27
f 30/30/30 26/26/26 29/29/29
f 27/27/27 31/31/31 28/28/28
f 30/30/30 31/31/31 27/27/27
f 30/30/30 29/29/29 32/32/32
f 32/32/32 29/29/29 28/28/28
f 31/31/31 32/32/32 28/28/28
f 31/31/31 30/30/30 32/32/32
f 35/35/35 34/34/34 33/33/33
f 35/35/35 36/36/36 34/34/34
f 37/37/37 35/35/35 33/33/33
f 35/35/35 37/37/37 36/36/36
f 36/36/36 38/38/38 34/34/34
f 33/33/33 34/34/34 38/38/38
f 36/36/36 39/39/39 38/38/38
f 37/37/37 39/39/39 36/36/36
f 40/40/40 33/33/33 38/38/38
f 39/39/39 40/40/40 38/38/38
f 37/37/37 33/33/33 41/41/41
f 41/41/41 33/33/33 40/40/40
f 37/37/37 42/42/42 39/39/39
f 42/42/42 37/37/37 41/41/41
f 39/39/39 43/43/43 40/40/40
f 42/42/42 43/43/43 39/39/39
f 44/44/44 41/41/41 40/40/40
f 43/43/43 44/44/44 40/40/40
f 42/42/42 41/41/41 45/45/45
f 45/45/45 41/41/41 44/44/44
f 42/42/42 46/46/46 43/43/43
f 46/46/46 42/42/42 45/45/45
f 43/43/43 47/47/47 44/44/44
f 46/46/46 47/47/47 43/43/43
f 46/46/46 45/45/45 48/48/48
f 48/48/48 45/45/45 44/44/44
f 47/47/47 48/48/48 44/44/44
f 47/47/47 46/46/46 48/48/48
f 51/51/51 50/50/50 49/49/49
f 52/52/52 51/51/51 49/49/49
f 53/53/53 51/51/51 52/52/52
f 50/50/50 51/51/51 53/53/53
f 54/54/54 53/53/53 52/52/52
f 52/52/52 49/49/49 54/54/54
f 55/55/55 53/53/53 54/54/54
f 55/55/55 50/50/50 53/53/53
f 49/49/49 56/56/56 54/54/54
f 56/56/56 55/55/55 54/54/54
f 49/49/49 50/50/50 57/57/57
f 49/49/49 57/57/57 56/56/56
f 58/58/58 50/50/50 55/55/55
f 50/50/50 58/58/58 57/57/57
f 59/59/59 55/55/55 56/56/56
f 59/59/59 58/58/58 55/55/55
f 57/57/57 60/60/60 56/56/56
f 60/60/60 59/59/59 56/56/56
f 57/57/57 58/58/58 61/61/61
f 57/57/57 61/61/61 60/60/60
f 62/62/62 58/58/58 59/59/59
f 58/58/58 62/62/62 61/61/61
f 63/63/63 59/59/59 60/60/60
f 63/63/63 62/62/62 59/59/59
f 61/61/61 62/62/62 64/64/64
f 61/61/61 64/64/64 60/60/60
f 64/64/64 63/63/63 60/60/60
f 62/62/62 63/63/63 64/64/64
