g EyePatch
v 0.320737 -0.014788 0.377577
v 0.310931 0.0901 0.303192
v 0.29558 0.087411 0.303192
v 0.207778 -0.356986 0.261317
v 0.091274 -0.401983 0.261098
v 0.038671 -0.420044 0.297478
v 0.251377 -0.339121 0.306774
v 0.03845 -0.420096 0.379734
v 0.252654 -0.338597 0.396392
v 0.094333 -0.401828 0.443092
v 0.209268 -0.356376 0.443014
v 0.065766 -0.385765 0.410904
v 0.065766 -0.385765 0.424728
v -0.16701 -0.357829 0.456428
v -0.16701 -0.357829 0.442604
v -0.285889 -0.263892 0.488838
v -0.285889 -0.263892 0.502662
v 0.065766 -0.390669 0.410904
v -0.16701 -0.367608 0.456428
v 0.065766 -0.390669 0.424728
v -0.16701 -0.367608 0.442604
v -0.285889 -0.263892 0.502662
v -0.285889 -0.263892 0.488838
v -0.16701 -0.357829 0.456428
v 0.065766 -0.385765 0.424728
v 0.065766 -0.390669 0.424728
v -0.16701 -0.367608 0.456428
v -0.285889 -0.263892 0.502662
v 0.065766 -0.385765 0.410904
v -0.16701 -0.367608 0.442604
v 0.065766 -0.390669 0.410904
v -0.16701 -0.357829 0.442604
v -0.285889 -0.263892 0.488838
v 0.325803 -0.018352 0.406099
v 0.309229 0.086458 0.333846
v 0.310931 0.0901 0.303192
v 0.320737 -0.014788 0.377577
v 0.307738 -0.159199 0.406773
v 0.304939 -0.157229 0.377589
v 0.258121 -0.298809 0.364165
v 0.258121 -0.298809 0.334162
v 0.309229 0.086458 0.333846
v 0.298418 0.084565 0.333846
v 0.29558 0.087411 0.303192
v 0.310931 0.0901 0.303192
v 0.296969 -0.161777 0.40676
v 0.244618 -0.301771 0.364283
v 0.244618 -0.301771 0.334044
v 0.299462 -0.158883 0.377748
v 0.317247 -0.020619 0.405979
v 0.321758 -0.015382 0.377959
v 0.298418 0.084565 0.333846
v 0.29558 0.087411 0.303192
v 0.244618 -0.301771 0.364283
v 0.258121 -0.298809 0.364165
v 0.258121 -0.298809 0.334162
v 0.244618 -0.301771 0.334044
v 0.320737 -0.014788 0.377577
v 0.29558 0.087411 0.303192
v 0.321758 -0.015382 0.377959
v 0.304939 -0.157229 0.377589
v 0.317247 -0.020619 0.405979
v 0.298418 0.084565 0.333846
v 0.309229 0.086458 0.333846
v 0.325803 -0.018352 0.406099
v 0.296969 -0.161777 0.40676
v 0.307738 -0.159199 0.406773
v 0.244618 -0.301771 0.364283
v 0.258121 -0.298809 0.364165
v 0.304939 -0.157229 0.377589
v 0.321758 -0.015382 0.377959
v 0.299462 -0.158883 0.377748
v 0.258121 -0.298809 0.334162
v 0.244618 -0.301771 0.334044
v -0.285889 -0.263892 0.502662
v -0.266034 0.081986 0.397641
v -0.266034 0.081986 0.383817
v -0.285889 -0.263892 0.488838
v -0.285889 -0.263892 0.488838
v -0.266034 0.081986 0.383817
v -0.266034 0.081986 0.397641
v -0.285889 -0.263892 0.502662
v 0.084682 -0.371846 0.457868
v 0.094333 -0.401828 0.443092
v 0.03845 -0.420096 0.379734
v 0.019955 -0.390324 0.385561
v 0.07925 -0.353358 0.457868
v 0.038671 -0.420044 0.297478
v 0.016222 -0.377619 0.385561
v 0.020201 -0.390222 0.289392
v 0.016469 -0.377518 0.289392
v 0.262289 -0.299068 0.402475
v 0.252654 -0.338597 0.396392
v 0.209268 -0.356376 0.443014
v 0.21074 -0.320191 0.457868
v 0.256858 -0.28058 0.402475
v 0.094333 -0.401828 0.443092
v 0.205308 -0.301703 0.457868
v 0.084682 -0.371846 0.457868
v 0.07925 -0.353358 0.457868
v 0.020201 -0.390222 0.289392
v 0.038671 -0.420044 0.297478
v 0.091274 -0.401983 0.261098
v 0.0839 -0.372166 0.246463
v 0.016469 -0.377518 0.289392
v 0.207778 -0.356986 0.261317
v 0.078468 -0.353679 0.246463
v 0.209129 -0.320851 0.246463
v 0.203698 -0.302363 0.246463
v 0.209129 -0.320851 0.246463
v 0.207778 -0.356986 0.261317
v 0.251377 -0.339121 0.306774
v 0.260834 -0.299664 0.300371
v 0.203698 -0.302363 0.246463
v 0.252654 -0.338597 0.396392
v 0.255402 -0.281176 0.300371
v 0.262289 -0.299068 0.402475
v 0.256858 -0.28058 0.402475
vt 0 0
vt 0 0
vt 0 0
vt 0 0
vt 0 0
vt 0 0
vt 0 0
vt 0 0
vt 0 0
vt 0 0
vt 0 0
vt 0 0
vt 0 0
vt 0 0
vt 0 0
vt 0 0
vt 0 0
vt 0 0
vt 0 0
vt 0 0
vt 0 0
vt 0 0
vt 0 0
vt 0 0
vt 0 0
vt 0 0
vt 0 0
vt 0 0
vt 0 0
vt 0 0
vt 0 0
vt 0 0
vt 0 0
vt 0 0
vt 0 0
vt 0 0
vt 0 0
vt 0 0
vt 0 0
vt 0 0
vt 0 0
vt 0 0
vt 0 0
vt 0 0
vt 0 0
vt 0 0
vt 0 0
vt 0 0
vt 0 0
vt 0 0
vt 0 0
vt 0 0
vt 0 0
vt 0 0
vt 0 0
vt 0 0
vt 0 0
vt 0 0
vt 0 0
vt 0 0
vt 0 0
vt 0 0
vt 0 0
vt 0 0
vt 0 0
vt 0 0
vt 0 0
vt 0 0
vt 0 0
vt 0 0
vt 0 0
vt 0 0
vt 0 0
vt 0 0
vt 0 0
vt 0 0
vt 0 0
vt 0 0
vt 0 0
vt 0 0
vt 0 0
vt 0 0
vt 0 0
vt 0 0
vt 0 0
vt 0 0
vt 0 0
vt 0 0
vt 0 0
vt 0 0
vt 0 0
vt 0 0
vt 0 0
vt 0 0
vt 0 0
vt 0 0
vt 0 0
vt 0 0
vt 0 0
vt 0 0
vt 0 0
vt 0 0
vt 0 0
vt 0 0
vt 0 0
vt 0 0
vt 0 0
vt 0 0
vt 0 0
vt 0 0
vt 0 0
vt 0 0
vt 0 0
vt 0 0
vt 0 0
vt 0 0
vt 0 0
vt 0 0
vn 0.6852341 -0.2010244 -0.700031
vn 0.7159222 0.3885593 -0.5800664
vn -0.7938645 0.1226371 -0.5956
vn 0.4856749 -0.761556 -0.4291298
vn 0.05089553 -0.7371786 -0.6737785
vn -0.04462975 -0.9821255 -0.1828594
vn 0.6369606 -0.7589585 -0.1351412
vn -0.09213862 -0.9837563 0.1540588
vn 0.6424609 -0.7568538 0.1200675
vn 0.09692885 -0.8738388 0.4764563
vn 0.5052419 -0.6297246 0.5900658
vn -0.01124875 0.7077821 -0.7063412
vn 0.1782445 0.696492 0.6950741
vn 0.4270108 0.613807 0.6640051
vn 0.09192822 0.6759306 -0.7312093
vn -0.3941233 0.03063274 -0.918547
vn 0.3291442 0.03147341 0.943755
vn -0.1640388 -0.6990278 -0.6960255
vn -0.09900729 -0.6694958 0.7361882
vn 0.0258761 -0.7083896 0.7053471
vn -0.4343797 -0.6060123 -0.6663808
vn 0.3291442 0.03147341 0.943755
vn -0.3941233 0.03063274 -0.918547
vn 0.4270108 0.613807 0.6640051
vn 0.1782445 0.696492 0.6950741
vn 0.0258761 -0.7083896 0.7053471
vn -0.09900729 -0.6694958 0.7361882
vn 0.3291442 0.03147341 0.943755
vn -0.01124875 0.7077821 -0.7063412
vn -0.4343797 -0.6060123 -0.6663808
vn -0.1640388 -0.6990278 -0.6960255
vn 0.09192822 0.6759306 -0.7312093
vn -0.3941233 0.03063274 -0.918547
vn 0.7314377 0.210125 0.6487268
vn 0.35418 0.8199682 0.4496761
vn 0.7159222 0.3885593 -0.5800664
vn 0.6852341 -0.2010244 -0.700031
vn 0.7259798 -0.2671524 0.6337059
vn 0.6274225 -0.03308335 -0.7779759
vn 0.5604674 -0.7237367 0.4025934
vn 0.6146779 -0.548538 -0.5668132
vn 0.35418 0.8199682 0.4496761
vn -0.6321743 0.6395333 0.4374388
vn -0.7938645 0.1226371 -0.5956
vn 0.7159222 0.3885593 -0.5800664
vn -0.7098267 0.0759059 0.7002744
vn -0.4394902 -0.6379386 0.6323627
vn -0.6191828 -0.2320698 -0.7501708
vn -0.6909682 0.2739452 -0.6689671
vn -0.7699902 0.1659343 0.6161014
vn -0.6884471 -0.229005 -0.6881841
vn -0.6321743 0.6395333 0.4374388
vn -0.7938645 0.1226371 -0.5956
vn -0.4394902 -0.6379386 0.6323627
vn 0.5604674 -0.7237367 0.4025934
vn 0.6146779 -0.548538 -0.5668132
vn -0.6191828 -0.2320698 -0.7501708
vn 0.6852341 -0.2010244 -0.700031
vn -0.7938645 0.1226371 -0.5956
vn -0.6884471 -0.229005 -0.6881841
vn 0.6274225 -0.03308335 -0.7779759
vn -0.7699902 0.1659343 0.6161014
vn -0.6321743 0.6395333 0.4374388
vn 0.35418 0.8199682 0.4496761
vn 0.7314377 0.210125 0.6487268
vn -0.7098267 0.0759059 0.7002744
vn 0.7259798 -0.2671524 0.6337059
vn -0.4394902 -0.6379386 0.6323627
vn 0.5604674 -0.7237367 0.4025934
vn 0.6274225 -0.03308335 -0.7779759
vn -0.6884471 -0.229005 -0.6881841
vn -0.6909682 0.2739452 -0.6689671
vn 0.6146779 -0.548538 -0.5668132
vn -0.6191828 -0.2320698 -0.7501708
vn 0.9983564 -0.05731026 0
vn 0.9983564 -0.05731026 0
vn 0.9983564 -0.05731026 0
vn 0.9983564 -0.05731026 0
vn -0.9983564 0.05731026 0
vn -0.9983564 0.05731026 0
vn -0.9983564 0.05731026 0
vn -0.9983564 0.05731026 0
vn -0.3124813 -0.3029536 0.9003192
vn 0.09692885 -0.8738388 0.4764563
vn -0.09213862 -0.9837563 0.1540588
vn -0.8383174 -0.4100444 0.3592875
vn -0.3829566 -0.1125188 0.9168881
vn -0.04462975 -0.9821255 -0.1828594
vn -0.8933213 -0.2624605 0.3648171
vn -0.7815523 -0.4113346 -0.4690202
vn -0.8423893 -0.247491 -0.4786736
vn 0.9349548 -0.008169615 0.354673
vn 0.6424609 -0.7568538 0.1200675
vn 0.5052419 -0.6297246 0.5900658
vn 0.4396368 -0.1283395 0.8889592
vn 0.8891715 0.2612256 0.3756795
vn 0.09692885 -0.8738388 0.4764563
vn 0.3670854 0.1078442 0.9239144
vn -0.3124813 -0.3029536 0.9003192
vn -0.3829566 -0.1125188 0.9168881
vn -0.7815523 -0.4113346 -0.4690202
vn -0.04462975 -0.9821255 -0.1828594
vn 0.05089553 -0.7371786 -0.6737785
vn -0.201741 -0.2703807 -0.9413791
vn -0.8423893 -0.247491 -0.4786736
vn 0.4856749 -0.761556 -0.4291298
vn -0.2721793 -0.07996692 -0.958918
vn 0.4333858 -0.1302719 -0.8917432
vn 0.3603877 0.1058768 -0.9267744
vn 0.4333858 -0.1302719 -0.8917432
vn 0.4856749 -0.761556 -0.4291298
vn 0.6369606 -0.7589585 -0.1351412
vn 0.9271035 -0.009407925 -0.3746872
vn 0.3603877 0.1058768 -0.9267744
vn 0.6424609 -0.7568538 0.1200675
vn 0.8806983 0.2587365 -0.3967694
vn 0.9349548 -0.008169615 0.354673
vn 0.8891715 0.2612256 0.3756795
g EyePatch_0
f 3/3/3 2/2/2 1/1/1
f 6/6/6 5/5/5 4/4/4
f 4/4/4 7/7/7 6/6/6
f 7/7/7 8/8/8 6/6/6
f 7/7/7 9/9/9 8/8/8
f 9/9/9 10/10/10 8/8/8
f 9/9/9 11/11/11 10/10/10
f 14/14/14 13/13/13 12/12/12
f 15/15/15 14/14/14 12/12/12
f 15/15/15 16/16/16 14/14/14
f 16/16/16 17/17/17 14/14/14
f 20/20/20 19/19/19 18/18/18
f 19/19/19 21/21/21 18/18/18
f 19/19/19 22/22/22 21/21/21
f 22/22/22 23/23/23 21/21/21
f 26/26/26 25/25/25 24/24/24
f 27/27/27 26/26/26 24/24/24
f 24/24/24 28/28/28 27/27/27
f 31/31/31 30/30/30 29/29/29
f 30/30/30 32/32/32 29/29/29
f 30/30/30 33/33/33 32/32/32
f 36/36/36 35/35/35 34/34/34
f 37/37/37 36/36/36 34/34/34
f 37/37/37 34/34/34 38/38/38
f 39/39/39 37/37/37 38/38/38
f 39/39/39 38/38/38 40/40/40
f 41/41/41 39/39/39 40/40/40
f 44/44/44 43/43/43 42/42/42
f 45/45/45 44/44/44 42/42/42
f 48/48/48 47/47/47 46/46/46
f 49/49/49 48/48/48 46/46/46
f 49/49/49 46/46/46 50/50/50
f 51/51/51 49/49/49 50/50/50
f 51/51/51 50/50/50 52/52/52
f 53/53/53 51/51/51 52/52/52
f 56/56/56 55/55/55 54/54/54
f 57/57/57 56/56/56 54/54/54
f 60/60/60 59/59/59 58/58/58
f 60/60/60 58/58/58 61/61/61
f 64/64/64 63/63/63 62/62/62
f 65/65/65 64/64/64 62/62/62
f 65/65/65 62/62/62 66/66/66
f 67/67/67 65/65/65 66/66/66
f 67/67/67 66/66/66 68/68/68
f 69/69/69 67/67/67 68/68/68
f 72/72/72 71/71/71 70/70/70
f 72/72/72 70/70/70 73/73/73
f 74/74/74 72/72/72 73/73/73
f 77/77/77 76/76/76 75/75/75
f 78/78/78 77/77/77 75/75/75
f 81/81/81 80/80/80 79/79/79
f 82/82/82 81/81/81 79/79/79
f 85/85/85 84/84/84 83/83/83
f 86/86/86 85/85/85 83/83/83
f 86/86/86 83/83/83 87/87/87
f 88/88/88 85/85/85 86/86/86
f 89/89/89 86/86/86 87/87/87
f 90/90/90 88/88/88 86/86/86
f 86/86/86 89/89/89 91/91/91
f 90/90/90 86/86/86 91/91/91
f 94/94/94 93/93/93 92/92/92
f 95/95/95 94/94/94 92/92/92
f 92/92/92 96/96/96 95/95/95
f 97/97/97 94/94/94 95/95/95
f 96/96/96 98/98/98 95/95/95
f 99/99/99 97/97/97 95/95/95
f 95/95/95 98/98/98 100/100/100
f 99/99/99 95/95/95 100/100/100
f 103/103/103 102/102/102 101/101/101
f 104/104/104 103/103/103 101/101/101
f 101/101/101 105/105/105 104/104/104
f 106/106/106 103/103/103 104/104/104
f 105/105/105 107/107/107 104/104/104
f 108/108/108 106/106/106 104/104/104
f 104/104/104 107/107/107 109/109/109
f 108/108/108 104/104/104 109/109/109
f 112/112/112 111/111/111 110/110/110
f 113/113/113 112/112/112 110/110/110
f 110/110/110 114/114/114 113/113/113
f 115/115/115 112/112/112 113/113/113
f 114/114/114 116/116/116 113/113/113
f 117/117/117 115/115/115 113/113/113
f 113/113/113 116/116/116 118/118/118
f 117/117/117 113/113/113 118/118/118
