g Feather
v -0.286983 -0.063878 0.526376
v -0.286983 0.003824 -0.000789
v 0.286983 0.003824 -0.000789
v 0.286983 -0.063878 0.526376
v -0.286983 -0.054808 0.789958
v 0.286983 -0.054808 0.789958
v -0.286983 0.061814 1.053541
v 0.286983 0.061814 1.053541
v -0.286983 -0.070744 0.526376
v 0.286983 0.003824 -0.000789
v -0.286983 0.003824 -0.000789
v 0.286983 -0.070744 0.526376
v -0.286983 -0.058241 0.789958
v 0.286983 -0.058241 0.789958
v -0.286983 0.061814 1.053541
v 0.286983 0.061814 1.053541
vt 0.778757 0.5
vt 0.778757 7.4E-05
vt 0.234449 7.4E-05
vt 0.234449 0.5
vt 0.778757 0.749963
vt 0.234449 0.749963
vt 0.778757 0.999926
vt 0.234449 0.999926
vt 0.778757 0.5
vt 0.234449 7.4E-05
vt 0.778757 7.4E-05
vt 0.234449 0.5
vt 0.778757 0.749963
vt 0.234449 0.749963
vt 0.778757 0.999926
vt 0.234449 0.999926
vn 0 0.9989114 0.04664829
vn 0 0.9918538 0.1273804
vn 0 0.9918538 0.1273804
vn 0 0.9989114 0.04664829
vn 0 0.9746876 -0.2235712
vn 0 0.9746876 -0.2235712
vn 0 0.9144875 -0.4046141
vn 0 0.9144875 -0.4046141
vn 0 -0.9989163 -0.04654283
vn 0 -0.9901435 -0.1400567
vn 0 -0.9901435 -0.1400567
vn 0 -0.9989163 -0.04654283
vn 0 -0.9719532 0.2351742
vn 0 -0.9719532 0.2351742
vn 0 -0.9100481 0.4145026
vn 0 -0.9100481 0.4145026
g Feather_0
f 3/3/3 2/2/2 1/1/1
f 4/4/4 3/3/3 1/1/1
f 4/4/4 1/1/1 5/5/5
f 6/6/6 4/4/4 5/5/5
f 6/6/6 5/5/5 7/7/7
f 8/8/8 6/6/6 7/7/7
f 11/11/11 10/10/10 9/9/9
f 10/10/10 12/12/12 9/9/9
f 9/9/9 12/12/12 13/13/13
f 12/12/12 14/14/14 13/13/13
f 13/13/13 14/14/14 15/15/15
f 14/14/14 16/16/16 15/15/15
