g FencePost
v 0.111082 -0.185408 1.461955
v 0.111082 -0.185408 -0.014902
v -0.111082 -0.185408 -0.014902
v -0.111082 -0.185408 1.461955
v -0.111082 0.185408 1.461955
v -0.111082 0.185408 -0.014902
v 0.111082 0.185408 -0.014902
v 0.111082 0.185408 1.461955
v -0.111082 -0.185408 -0.014902
v -0.185408 -0.111082 1.461955
v -0.111082 -0.185408 1.461955
v -0.185408 -0.111082 -0.014902
v -0.185408 0.111082 -0.014902
v -0.185408 0.111082 1.461955
v -0.111082 0.185408 1.461955
v -0.111082 0.185408 -0.014902
v 0.185408 0.111082 1.461955
v 0.111082 0.185408 1.461955
v 0.111082 0.185408 -0.014902
v 0.185408 0.111082 -0.014902
v 0.185408 -0.111082 -0.014902
v 0.185408 -0.111082 1.461955
v 0.111082 -0.185408 1.461955
v 0.111082 -0.185408 -0.014902
v -0.111082 -0.185408 1.461955
v -0.185408 -0.111082 1.461955
v -0.111082 -0.111082 1.461955
v -0.185408 0.111082 1.461955
v 0.111082 -0.111082 1.461955
v 0.111082 -0.185408 1.461955
v 0.185408 -0.111082 1.461955
v -0.111082 0.111082 1.461955
v -0.111082 0.185408 1.461955
v 0.111082 0.185408 1.461955
v 0.111082 0.111082 1.461955
v 0.185408 0.111082 1.461955
vt 0.700019 0.980363
vt 0.700019 0.738089
vt 0.661716 0.738089
vt 0.661716 0.980363
vt 0.661716 0.980363
vt 0.661716 0.738089
vt 0.700019 0.738089
vt 0.700019 0.980363
vt 0.654364 0.732389
vt 0.664861 0.980936
vt 0.654364 0.980936
vt 0.664861 0.732389
vt 0.696235 0.732389
vt 0.696235 0.980936
vt 0.706731 0.980936
vt 0.706731 0.732389
vt 0.696235 0.980936
vt 0.706731 0.980936
vt 0.706731 0.732389
vt 0.696235 0.732389
vt 0.664861 0.732389
vt 0.664861 0.980936
vt 0.654364 0.980936
vt 0.654364 0.732389
vt 0.230645 0.855926
vt 0.207918 0.878652
vt 0.230645 0.878652
vt 0.207918 0.946582
vt 0.298575 0.878652
vt 0.298575 0.855926
vt 0.321301 0.878652
vt 0.230645 0.946582
vt 0.230645 0.969308
vt 0.298575 0.969308
vt 0.298575 0.946582
vt 0.321301 0.946582
vn 0.2431622 -0.9699856 0
vn 0.2431622 -0.9699856 0
vn -0.2431622 -0.9699856 0
vn -0.2431622 -0.9699856 0
vn -0.2431622 0.9699856 0
vn -0.2431622 0.9699856 0
vn 0.2431622 0.9699856 0
vn 0.2431622 0.9699856 0
vn -0.2431622 -0.9699856 0
vn -0.9699856 -0.2431622 0
vn -0.2431622 -0.9699856 0
vn -0.9699856 -0.2431622 0
vn -0.9699856 0.2431622 0
vn -0.9699856 0.2431622 0
vn -0.2431622 0.9699856 0
vn -0.2431622 0.9699856 0
vn 0.9699856 0.2431622 0
vn 0.2431622 0.9699856 0
vn 0.2431622 0.9699856 0
vn 0.9699856 0.2431622 0
vn 0.9699856 -0.2431622 0
vn 0.9699856 -0.2431622 0
vn 0.2431622 -0.9699856 0
vn 0.2431622 -0.9699856 0
vn 0 0 1
vn 0 0 1
vn 0 0 1
vn 0 0 1
vn 0 0 1
vn 0 0 1
vn 0 0 1
vn 0 0 1
vn 0 0 1
vn 0 0 1
vn 0 0 1
vn 0 0 1
g FencePost_0
f 3/3/3 2/2/2 1/1/1
f 4/4/4 3/3/3 1/1/1
f 7/7/7 6/6/6 5/5/5
f 8/8/8 7/7/7 5/5/5
f 11/11/11 10/10/10 9/9/9
f 10/10/10 12/12/12 9/9/9
f 13/13/13 12/12/12 10/10/10
f 14/14/14 13/13/13 10/10/10
f 13/13/13 14/14/14 15/15/15
f 16/16/16 13/13/13 15/15/15
f 19/19/19 18/18/18 17/17/17
f 20/20/20 19/19/19 17/17/17
f 21/21/21 20/20/20 17/17/17
f 22/22/22 21/21/21 17/17/17
f 21/21/21 22/22/22 23/23/23
f 24/24/24 21/21/21 23/23/23
f 27/27/27 26/26/26 25/25/25
f 28/28/28 26/26/26 27/27/27
f 27/27/27 25/25/25 29/29/29
f 25/25/25 30/30/30 29/29/29
f 30/30/30 31/31/31 29/29/29
f 32/32/32 28/28/28 27/27/27
f 32/32/32 27/27/27 29/29/29
f 33/33/33 28/28/28 32/32/32
f 34/34/34 33/33/33 32/32/32
f 29/29/29 31/31/31 35/35/35
f 35/35/35 32/32/32 29/29/29
f 35/35/35 34/34/34 32/32/32
f 31/31/31 36/36/36 35/35/35
f 36/36/36 34/34/34 35/35/35
