g Fern_Impostor
v 1.822906 -1.089686 0
v 0.4386812 -1.920911 0
v -0.7497751 -1.758432 0
v -1.822906 -0.9972977 0
v -1.822906 0.5498605 0
v -0.9159912 1.624148 0
v 0.8316751 1.7249 0
v 1.822906 0.5487362 0
vt 0 0.2279946
vt 0.3796753 0
vt 0.7056538 0.04456598
vt 1 0.2533355
vt 1 0.6777015
vt 0.7512448 0.972365
vt 0.271882 1
vt 0 0.6773931
vn 0 0 -1
vn 0 0 -0.9999999
vn 0 0 -1
vn 0 0 -1
vn 0 0 -0.9999999
vn 0 0 -0.9999999
vn 0 0 -1
vn 0 0 -1
g Fern_Impostor_0
f 4/4/4 6/6/6 8/8/8
f 8/8/8 2/2/2 4/4/4
f 6/6/6 7/7/7 8/8/8
f 4/4/4 5/5/5 6/6/6
f 2/2/2 3/3/3 4/4/4
f 8/8/8 1/1/1 2/2/2
