g FletchMouth
v -0.089616 -0.332975 -0.072186
v -0.053395 -0.298649 -0.10139
v -0.107799 -0.261503 -0.089734
v -0.167619 -0.293196 -0.063323
v -0.235661 -0.308654 -0.014144
v -0.089616 -0.332975 -0.072186
v 0 -0.303129 -0.101159
v -0.053395 -0.298649 -0.10139
v 0 -0.335962 -0.072807
v 0 -0.349251 -0.021302
v 0.089616 -0.332975 -0.072186
v 0.053395 -0.298649 -0.10139
v -0.131823 -0.348505 -0.019984
v -0.153666 -0.356712 0.057252
v -0.235661 -0.308654 -0.014144
v -0.271718 -0.317362 0.061752
v -0.282338 -0.322995 0.144267
v 0.131823 -0.348505 -0.019984
v 0.153666 -0.356712 0.057252
v 0.235661 -0.308654 -0.014144
v 0.271718 -0.317362 0.061752
v 0.282338 -0.322995 0.144266
v 0 -0.356712 0.056322
v 0 -0.36184 0.140424
v -0.159965 -0.36184 0.140656
v -0.155536 -0.368129 0.211362
v -0.274067 -0.329224 0.213301
v -0.260781 -0.331504 0.272721
v -0.148191 -0.371124 0.272549
v 0 -0.371124 0.272549
v 0.159965 -0.361839 0.140656
v 0.155536 -0.368129 0.211362
v 0.274067 -0.329224 0.213301
v 0.260781 -0.331504 0.272721
v 0.148191 -0.371124 0.272549
v 0 -0.368129 0.211362
v 0.089616 -0.332975 -0.072186
v 0.107799 -0.261503 -0.089734
v 0.053395 -0.298649 -0.10139
v 0.167619 -0.293196 -0.063323
v 0.235661 -0.308654 -0.014144
vt 0.363045 0.214371
vt 0.441535 0.14613
vt 0.383069 0.137882
vt 0.226089 0.214031
vt 0.099726 0.304382
vt 0.363045 0.214371
vt 0.5 0.150254
vt 0.441535 0.14613
vt 0.5 0.214542
vt 0.5 0.297207
vt 0.636955 0.214371
vt 0.558465 0.14613
vt 0.299863 0.299599
vt 0.267297 0.418798
vt 0.099726 0.304382
vt 0.034594 0.423139
vt 0.0162 0.547252
vt 0.700137 0.299599
vt 0.732703 0.418798
vt 0.900274 0.304382
vt 0.965406 0.423139
vt 0.9838 0.547252
vt 0.5 0.416627
vt 0.5 0.544433
vt 0.2581 0.545373
vt 0.265024 0.652727
vt 0.030048 0.65367
vt 0.060017 0.751241
vt 0.280008 0.75047
vt 0.5 0.750084
vt 0.7419 0.545373
vt 0.734976 0.652727
vt 0.969952 0.65367
vt 0.939983 0.751241
vt 0.719992 0.75047
vt 0.5 0.652255
vt 0.636955 0.214371
vt 0.616931 0.137882
vt 0.558465 0.14613
vt 0.773911 0.214031
vt 0.900274 0.304382
vn -0.1955942 -0.7014005 -0.6854053
vn -0.179712 -0.4829537 -0.857006
vn -0.3144084 -0.3010303 -0.9002933
vn -0.3481154 -0.5215865 -0.77895
vn -0.3564378 -0.830588 -0.4278734
vn -0.1955942 -0.7014005 -0.6854053
vn 0 -0.6396284 -0.7686843
vn -0.179712 -0.4829537 -0.857006
vn 0 -0.8378328 -0.5459269
vn 0 -0.9820379 -0.1886837
vn 0.1955941 -0.7014003 -0.6854052
vn 0.179712 -0.4829536 -0.857006
vn -0.186739 -0.9305271 -0.3150361
vn -0.1653889 -0.9785513 -0.1228173
vn -0.3564378 -0.830588 -0.4278734
vn -0.3245596 -0.9320565 -0.1610335
vn -0.3093596 -0.9479764 -0.07508253
vn 0.186739 -0.9305271 -0.3150361
vn 0.1653886 -0.9785516 -0.1228144
vn 0.3564379 -0.830588 -0.4278735
vn 0.3245577 -0.9320576 -0.1610308
vn 0.3093557 -0.9479775 -0.07508323
vn 0 -0.9967024 -0.08114351
vn 0 -0.9971991 -0.07479297
vn -0.1566792 -0.9847308 -0.07587317
vn -0.1595115 -0.9861318 -0.04582834
vn -0.3148985 -0.9488757 -0.02176658
vn -0.3215555 -0.9467931 0.0135952
vn -0.1630353 -0.9864579 -0.0178952
vn 0 -0.9988042 -0.04889001
vn 0.1566787 -0.9847308 -0.07587374
vn 0.1595113 -0.9861317 -0.04583184
vn 0.3148966 -0.9488763 -0.02177002
vn 0.3215555 -0.9467931 0.0135952
vn 0.1630353 -0.9864579 -0.01789519
vn 0 -0.9976385 -0.06868508
vn 0.1955941 -0.7014003 -0.6854052
vn 0.3144084 -0.3010304 -0.9002933
vn 0.179712 -0.4829536 -0.857006
vn 0.3481154 -0.5215865 -0.77895
vn 0.3564379 -0.830588 -0.4278735
g FletchMouth_0
f 3/3/3 2/2/2 1/1/1
f 4/4/4 3/3/3 1/1/1
f 5/5/5 4/4/4 1/1/1
f 8/8/8 7/7/7 6/6/6
f 7/7/7 9/9/9 6/6/6
f 9/9/9 10/10/10 6/6/6
f 9/9/9 7/7/7 11/11/11
f 10/10/10 9/9/9 11/11/11
f 7/7/7 12/12/12 11/11/11
f 10/10/10 13/13/13 6/6/6
f 13/13/13 10/10/10 14/14/14
f 13/13/13 15/15/15 6/6/6
f 15/15/15 13/13/13 14/14/14
f 16/16/16 15/15/15 14/14/14
f 17/17/17 16/16/16 14/14/14
f 18/18/18 10/10/10 11/11/11
f 10/10/10 18/18/18 19/19/19
f 20/20/20 18/18/18 11/11/11
f 18/18/18 20/20/20 19/19/19
f 20/20/20 21/21/21 19/19/19
f 21/21/21 22/22/22 19/19/19
f 10/10/10 23/23/23 14/14/14
f 23/23/23 10/10/10 19/19/19
f 23/23/23 24/24/24 14/14/14
f 24/24/24 23/23/23 19/19/19
f 25/25/25 17/17/17 14/14/14
f 24/24/24 25/25/25 14/14/14
f 17/17/17 25/25/25 26/26/26
f 25/25/25 24/24/24 26/26/26
f 27/27/27 17/17/17 26/26/26
f 28/28/28 27/27/27 26/26/26
f 29/29/29 28/28/28 26/26/26
f 30/30/30 29/29/29 26/26/26
f 22/22/22 31/31/31 19/19/19
f 31/31/31 24/24/24 19/19/19
f 31/31/31 22/22/22 32/32/32
f 24/24/24 31/31/31 32/32/32
f 22/22/22 33/33/33 32/32/32
f 33/33/33 34/34/34 32/32/32
f 34/34/34 35/35/35 32/32/32
f 35/35/35 30/30/30 32/32/32
f 24/24/24 36/36/36 26/26/26
f 36/36/36 24/24/24 32/32/32
f 36/36/36 30/30/30 26/26/26
f 30/30/30 36/36/36 32/32/32
f 39/39/39 38/38/38 37/37/37
f 38/38/38 40/40/40 37/37/37
f 40/40/40 41/41/41 37/37/37
