g FletchHouseInside
v -8.531176 2.447404 0
v -8.531176 7.717014 0
v -2.391573 7.717014 0
v -1.677355 2.447404 0
v -8.531176 -0.318991 0
v -1.677354 -0.318991 0
v -8.531176 -5.588601 0
v -1.677354 -5.588601 0
v 0 -0.318991 0
v 0 -5.588601 0
v 0 2.447404 0
v 0 7.717014 0
v 0 9.694199 0
v -2.391573 9.694199 0
v 8.531176 2.447404 0
v 2.391573 7.717014 0
v 8.531176 7.717014 0
v 1.677355 2.447404 0
v 8.531176 -0.318991 0
v 1.677354 -0.318991 0
v 8.531176 -5.588601 0
v 1.677354 -5.588601 0
v 0 -0.318991 0
v 0 -5.588601 0
v 0 2.447404 0
v 0 7.717014 0
v 0 9.694199 0
v 2.391573 9.694199 0
v -1.497761 7.775394 3.163664
v -1.71309 7.775394 3.163664
v -1.713091 7.775394 -0.012147
v -1.497761 7.775394 -0.012147
v -1.497761 7.609581 3.163664
v -1.497761 7.609581 -0.012147
v -1.713091 7.609581 -0.012147
v -1.71309 7.609581 3.163664
v -1.713091 7.775394 -0.012147
v -1.71309 7.775394 3.163664
v -1.71309 7.609581 3.163664
v -1.713091 7.609581 -0.012147
v -1.497761 7.775394 3.163664
v -1.497761 7.775394 -0.012147
v -1.497761 7.609581 -0.012147
v -1.497761 7.609581 3.163664
v 0 -5.588601 2.167895
v 0 -5.588601 4.33579
v -1.677354 -5.588601 4.33579
v -1.677354 -5.588601 2.167895
v 0 -5.588601 0
v -8.531176 -5.588601 4.33579
v -1.677354 -5.588601 0
v -8.531176 -5.588601 2.167895
v -8.531176 -5.588601 0
v -8.531176 -5.588601 2.167895
v -8.531176 -5.588601 4.33579
v -8.531176 -0.318991 4.33579
v -8.531176 -0.318991 2.167895
v -8.531176 -5.588601 0
v -8.531176 2.447404 4.33579
v -8.531176 -0.318991 0
v -8.531176 2.447404 2.167895
v -8.531176 7.717014 4.33579
v -8.531176 2.447404 0
v -8.531176 7.717014 2.167895
v -8.531176 7.717014 0
v -1.589079 7.717014 3.131493
v 0 7.717014 4.33579
v 0 7.717014 3.131493
v -2.391573 7.717014 4.33579
v -1.589079 7.717014 2.16789
v -2.391573 7.717014 2.16789
v -1.589079 7.717014 -0.067329
v -2.391573 7.717014 0
v -8.531176 7.717014 2.167895
v -8.531176 7.717014 4.33579
v -8.531176 7.717014 0
v 0 7.799932 3.027804
v 0 7.799932 3.26377
v -1.745241 7.799932 3.263771
v -1.745241 7.799932 3.027804
v 0 7.587962 3.027804
v -1.745241 7.587962 3.027804
v -1.745241 7.587962 3.263771
v 0 7.587962 3.26377
v -1.745241 7.799932 3.263771
v 0 7.799932 3.26377
v 0 7.587962 3.26377
v -1.745241 7.587962 3.263771
v 0 7.799932 3.027804
v -1.745241 7.799932 3.027804
v -1.745241 7.587962 3.027804
v 0 7.587962 3.027804
v -1.745241 7.799932 3.027804
v -1.745241 7.799932 3.263771
v -1.745241 7.587962 3.263771
v -1.745241 7.587962 3.027804
v 1.497761 7.775394 3.163664
v 1.497761 7.775394 -0.012147
v 1.713091 7.775394 -0.012147
v 1.71309 7.775394 3.163664
v 1.497761 7.609581 3.163664
v 1.71309 7.609581 3.163664
v 1.713091 7.609581 -0.012147
v 1.497761 7.609581 -0.012147
v 1.713091 7.775394 -0.012147
v 1.713091 7.609581 -0.012147
v 1.71309 7.609581 3.163664
v 1.71309 7.775394 3.163664
v 1.497761 7.775394 3.163664
v 1.497761 7.609581 3.163664
v 1.497761 7.609581 -0.012147
v 1.497761 7.775394 -0.012147
v 0 -5.588601 2.167895
v 1.677354 -5.588601 4.33579
v 0 -5.588601 4.33579
v 1.677354 -5.588601 2.167895
v 0 -5.588601 0
v 8.531176 -5.588601 4.33579
v 1.677354 -5.588601 0
v 8.531176 -5.588601 2.167895
v 8.531176 -5.588601 0
v 8.531176 -5.588601 2.167895
v 8.531176 -0.318991 4.33579
v 8.531176 -5.588601 4.33579
v 8.531176 -0.318991 2.167895
v 8.531176 -5.588601 0
v 8.531176 2.447404 4.33579
v 8.531176 -0.318991 0
v 8.531176 2.447404 2.167895
v 8.531176 7.717014 4.33579
v 8.531176 2.447404 0
v 8.531176 7.717014 2.167895
v 8.531176 7.717014 0
v 1.589079 7.717014 3.131493
v 0 7.717014 3.131493
v 0 7.717014 4.33579
v 2.391573 7.717014 4.33579
v 1.589079 7.717014 2.16789
v 2.391573 7.717014 2.16789
v 1.589079 7.717014 -0.067329
v 2.391573 7.717014 0
v 8.531176 7.717014 2.167895
v 8.531176 7.717014 4.33579
v 8.531176 7.717014 0
v 0 7.799932 3.027804
v 1.745241 7.799932 3.027804
v 1.745241 7.799932 3.263771
v 0 7.799932 3.26377
v 0 7.587962 3.027804
v 0 7.587962 3.26377
v 1.745241 7.587962 3.263771
v 1.745241 7.587962 3.027804
v 1.745241 7.799932 3.263771
v 1.745241 7.587962 3.263771
v 0 7.587962 3.26377
v 0 7.799932 3.26377
v 0 7.799932 3.027804
v 0 7.587962 3.027804
v 1.745241 7.587962 3.027804
v 1.745241 7.799932 3.027804
v 1.745241 7.799932 3.027804
v 1.745241 7.587962 3.027804
v 1.745241 7.587962 3.263771
v 1.745241 7.799932 3.263771
vt 7.5E-05 0.525816
vt 7.5E-05 0.870571
vt 0.448474 0.870571
vt 0.448474 0.525816
vt 7.5E-05 0.34483
vt 0.448474 0.34483
vt 7.5E-05 7.5E-05
vt 0.448474 7.5E-05
vt 0.558212 0.34483
vt 0.558212 7.5E-05
vt 0.558212 0.525816
vt 0.558212 0.870571
vt 0.558212 0.999925
vt 0.448474 0.999925
vt 7.5E-05 0.525816
vt 0.448474 0.870571
vt 7.5E-05 0.870571
vt 0.448474 0.525816
vt 7.5E-05 0.34483
vt 0.448474 0.34483
vt 7.5E-05 7.5E-05
vt 0.448474 7.5E-05
vt 0.558212 0.34483
vt 0.558212 7.5E-05
vt 0.558212 0.525816
vt 0.558212 0.870571
vt 0.558212 0.999925
vt 0.448474 0.999925
vt -0.005879 0.461138
vt -0.005879 0.523184
vt 0.994121 0.523184
vt 0.994121 0.461138
vt -0.005879 0.523184
vt 0.994121 0.523184
vt 0.994121 0.461138
vt -0.005879 0.461138
vt -0.005879 0.523184
vt 0.994121 0.523184
vt 0.994121 0.461138
vt -0.005879 0.461138
vt -0.005879 0.523184
vt 0.994121 0.523184
vt 0.994121 0.461138
vt -0.005879 0.461138
vt 0.76867 0.762317
vt 0.76867 0.534881
vt 0.618699 0.534881
vt 0.618699 0.762318
vt 0.76867 0.989754
vt 0.005904 0.534881
vt 0.618699 0.989754
vt 0.005904 0.762318
vt 0.005904 0.989754
vt 5.7E-05 0.762666
vt 5.7E-05 0.993236
vt 0.396056 0.993236
vt 0.396056 0.762666
vt 5.7E-05 0.532097
vt 0.603944 0.993236
vt 0.396056 0.532097
vt 0.603944 0.762666
vt 0.999943 0.993236
vt 0.603944 0.532097
vt 0.999943 0.762666
vt 0.999943 0.532096
vt 0.654209 0.864426
vt 0.767843 0.99077
vt 0.767843 0.864426
vt 0.617872 0.99077
vt 0.654209 0.763333
vt 0.617872 0.763333
vt 0.654209 0.528834
vt 0.617872 0.535898
vt 0.005078 0.763334
vt 0.005078 0.99077
vt 0.005078 0.535898
vt 0.054791 0.461138
vt 0.054791 0.523184
vt 0.996164 0.523184
vt 0.996164 0.461138
vt 0.054791 0.523184
vt 0.996164 0.523184
vt 0.996164 0.461138
vt 0.054791 0.461138
vt 0.021552 0.515722
vt 0.962925 0.515722
vt 0.962925 0.4686
vt 0.021552 0.4686
vt 0.021552 0.515722
vt 0.962925 0.515722
vt 0.962925 0.4686
vt 0.021552 0.4686
vt 0.994121 0.523184
vt -0.005879 0.523184
vt 0.994121 0.461138
vt 0.994121 0.461138
vt -0.005879 0.461138
vt 0.994121 0.461138
vt 0.994121 0.523184
vt -0.005879 0.523184
vt -0.005879 0.523184
vt -0.005879 0.461138
vt 0.994121 0.461138
vt 0.994121 0.523184
vt -0.005879 0.523184
vt -0.005879 0.461138
vt 0.994121 0.461138
vt 0.994121 0.523184
vt -0.005879 0.523184
vt -0.005879 0.461138
vt 0.994121 0.461138
vt 0.994121 0.523184
vt 0.76867 0.762317
vt 0.618699 0.534881
vt 0.76867 0.534881
vt 0.618699 0.762318
vt 0.76867 0.989754
vt 0.005904 0.534881
vt 0.618699 0.989754
vt 0.005904 0.762318
vt 0.005904 0.989754
vt 5.7E-05 0.762666
vt 0.396056 0.993236
vt 5.7E-05 0.993236
vt 0.396056 0.762666
vt 5.7E-05 0.532097
vt 0.603944 0.993236
vt 0.396056 0.532097
vt 0.603944 0.762666
vt 0.999943 0.993236
vt 0.603944 0.532097
vt 0.999943 0.762666
vt 0.999943 0.532096
vt 0.654209 0.864426
vt 0.767843 0.864426
vt 0.767843 0.99077
vt 0.617872 0.99077
vt 0.654209 0.763333
vt 0.617872 0.763333
vt 0.654209 0.528834
vt 0.617872 0.535898
vt 0.005078 0.763334
vt 0.005078 0.99077
vt 0.005078 0.535898
vt 0.054791 0.461138
vt 0.996164 0.461138
vt 0.996164 0.523184
vt 0.054791 0.523184
vt 0.054791 0.523184
vt 0.054791 0.461138
vt 0.996164 0.461138
vt 0.996164 0.523184
vt 0.021552 0.515722
vt 0.021552 0.4686
vt 0.962925 0.4686
vt 0.962925 0.515722
vt 0.021552 0.515722
vt 0.021552 0.4686
vt 0.962925 0.4686
vt 0.962925 0.515722
vt 0.994121 0.523184
vt 0.994121 0.461138
vt 0.994121 0.461138
vt -0.005879 0.523184
vn 0 0 1
vn 0 0 1
vn 0 0 1
vn 0 0 1
vn 0 0 1
vn 0 0 1
vn 0 0 1
vn 0 0 1
vn 0 0 1
vn 0 0 1
vn 0 0 1
vn 0 0 1
vn 0 0 1
vn 0 0 1
vn 0 0 1
vn 0 0 1
vn 0 0 1
vn 0 0 1
vn 0 0 1
vn 0 0 1
vn 0 0 1
vn 0 0 1
vn 0 0 1
vn 0 0 1
vn 0 0 1
vn 0 0 1
vn 0 0 1
vn 0 0 1
vn 0 1 0
vn 0 1 0
vn 0 1 0
vn 0 1 0
vn 0 -1 0
vn 0 -1 0
vn 0 -1 0
vn 0 -1 0
vn -1 0 0
vn -1 0 0
vn -1 0 0
vn -1 0 0
vn 1 0 0
vn 1 0 0
vn 1 0 0
vn 1 0 0
vn 0 1 0
vn 0 1 0
vn 0 1 0
vn 0 1 0
vn 0 1 0
vn 0 1 0
vn 0 1 0
vn 0 1 0
vn 0 1 0
vn 1 0 0
vn 1 0 0
vn 1 0 0
vn 1 0 0
vn 1 0 0
vn 1 0 0
vn 1 0 0
vn 1 0 0
vn 1 0 0
vn 1 0 0
vn 1 0 0
vn 1 0 0
vn 0 -1 0
vn 0 -1 0
vn 0 -1 0
vn 0 -1 0
vn 0 -1 0
vn 0 -1 0
vn 0 -1 0
vn 0 -1 0
vn 0 -1 0
vn 0 -1 0
vn 0 -1 0
vn 0 1 0
vn 0 1 0
vn 0 1 0
vn 0 1 0
vn 0 -1 0
vn 0 -1 0
vn 0 -1 0
vn 0 -1 0
vn 0 0 1
vn 0 0 1
vn 0 0 1
vn 0 0 1
vn 0 0 -1
vn 0 0 -1
vn 0 0 -1
vn 0 0 -1
vn -1 0 0
vn -1 0 0
vn -1 0 0
vn -1 0 0
vn 0 1 0
vn 0 1 0
vn 0 1 0
vn 0 1 0
vn 0 -1 0
vn 0 -1 0
vn 0 -1 0
vn 0 -1 0
vn 1 0 0
vn 1 0 0
vn 1 0 0
vn 1 0 0
vn -1 0 0
vn -1 0 0
vn -1 0 0
vn -1 0 0
vn 0 1 0
vn 0 1 0
vn 0 1 0
vn 0 1 0
vn 0 1 0
vn 0 1 0
vn 0 1 0
vn 0 1 0
vn 0 1 0
vn -1 0 0
vn -1 0 0
vn -1 0 0
vn -1 0 0
vn -1 0 0
vn -1 0 0
vn -1 0 0
vn -1 0 0
vn -1 0 0
vn -1 0 0
vn -1 0 0
vn -1 0 0
vn 0 -1 0
vn 0 -1 0
vn 0 -1 0
vn 0 -1 0
vn 0 -1 0
vn 0 -1 0
vn 0 -1 0
vn 0 -1 0
vn 0 -1 0
vn 0 -1 0
vn 0 -1 0
vn 0 1 0
vn 0 1 0
vn 0 1 0
vn 0 1 0
vn 0 -1 0
vn 0 -1 0
vn 0 -1 0
vn 0 -1 0
vn 0 0 1
vn 0 0 1
vn 0 0 1
vn 0 0 1
vn 0 0 -1
vn 0 0 -1
vn 0 0 -1
vn 0 0 -1
vn 1 0 0
vn 1 0 0
vn 1 0 0
vn 1 0 0
g FletchHouseInside_0
f 3/3/3 2/2/2 1/1/1
f 4/4/4 3/3/3 1/1/1
f 4/4/4 1/1/1 5/5/5
f 6/6/6 4/4/4 5/5/5
f 6/6/6 5/5/5 7/7/7
f 8/8/8 6/6/6 7/7/7
f 9/9/9 6/6/6 8/8/8
f 10/10/10 9/9/9 8/8/8
f 9/9/9 11/11/11 6/6/6
f 11/11/11 4/4/4 6/6/6
f 11/11/11 12/12/12 4/4/4
f 12/12/12 3/3/3 4/4/4
f 12/12/12 13/13/13 3/3/3
f 13/13/13 14/14/14 3/3/3
f 17/17/17 16/16/16 15/15/15
f 16/16/16 18/18/18 15/15/15
f 15/15/15 18/18/18 19/19/19
f 18/18/18 20/20/20 19/19/19
f 19/19/19 20/20/20 21/21/21
f 20/20/20 22/22/22 21/21/21
f 20/20/20 23/23/23 22/22/22
f 23/23/23 24/24/24 22/22/22
f 25/25/25 23/23/23 20/20/20
f 18/18/18 25/25/25 20/20/20
f 26/26/26 25/25/25 18/18/18
f 16/16/16 26/26/26 18/18/18
f 27/27/27 26/26/26 16/16/16
f 28/28/28 27/27/27 16/16/16
g FletchHouseInside_1
f 31/31/31 30/30/30 29/29/29
f 32/32/32 31/31/31 29/29/29
f 35/35/35 34/34/34 33/33/33
f 36/36/36 35/35/35 33/33/33
f 39/39/39 38/38/38 37/37/37
f 40/40/40 39/39/39 37/37/37
f 43/43/43 42/42/42 41/41/41
f 44/44/44 43/43/43 41/41/41
f 47/47/47 46/46/46 45/45/45
f 48/48/48 47/47/47 45/45/45
f 48/48/48 45/45/45 49/49/49
f 50/50/50 47/47/47 48/48/48
f 51/51/51 48/48/48 49/49/49
f 52/52/52 50/50/50 48/48/48
f 52/52/52 48/48/48 51/51/51
f 53/53/53 52/52/52 51/51/51
f 56/56/56 55/55/55 54/54/54
f 57/57/57 56/56/56 54/54/54
f 57/57/57 54/54/54 58/58/58
f 59/59/59 56/56/56 57/57/57
f 60/60/60 57/57/57 58/58/58
f 61/61/61 59/59/59 57/57/57
f 61/61/61 57/57/57 60/60/60
f 62/62/62 59/59/59 61/61/61
f 63/63/63 61/61/61 60/60/60
f 64/64/64 62/62/62 61/61/61
f 64/64/64 61/61/61 63/63/63
f 65/65/65 64/64/64 63/63/63
f 68/68/68 67/67/67 66/66/66
f 67/67/67 69/69/69 66/66/66
f 66/66/66 69/69/69 70/70/70
f 69/69/69 71/71/71 70/70/70
f 70/70/70 71/71/71 72/72/72
f 71/71/71 73/73/73 72/72/72
f 71/71/71 69/69/69 74/74/74
f 71/71/71 74/74/74 73/73/73
f 69/69/69 75/75/75 74/74/74
f 74/74/74 76/76/76 73/73/73
f 79/79/79 78/78/78 77/77/77
f 80/80/80 79/79/79 77/77/77
f 83/83/83 82/82/82 81/81/81
f 84/84/84 83/83/83 81/81/81
f 87/87/87 86/86/86 85/85/85
f 88/88/88 87/87/87 85/85/85
f 91/91/91 90/90/90 89/89/89
f 92/92/92 91/91/91 89/89/89
f 95/95/95 94/94/94 93/93/93
f 96/96/96 95/95/95 93/93/93
f 99/99/99 98/98/98 97/97/97
f 100/100/100 99/99/99 97/97/97
f 103/103/103 102/102/102 101/101/101
f 104/104/104 103/103/103 101/101/101
f 107/107/107 106/106/106 105/105/105
f 108/108/108 107/107/107 105/105/105
f 111/111/111 110/110/110 109/109/109
f 112/112/112 111/111/111 109/109/109
f 115/115/115 114/114/114 113/113/113
f 114/114/114 116/116/116 113/113/113
f 113/113/113 116/116/116 117/117/117
f 114/114/114 118/118/118 116/116/116
f 116/116/116 119/119/119 117/117/117
f 118/118/118 120/120/120 116/116/116
f 116/116/116 120/120/120 119/119/119
f 120/120/120 121/121/121 119/119/119
f 124/124/124 123/123/123 122/122/122
f 123/123/123 125/125/125 122/122/122
f 122/122/122 125/125/125 126/126/126
f 123/123/123 127/127/127 125/125/125
f 125/125/125 128/128/128 126/126/126
f 127/127/127 129/129/129 125/125/125
f 125/125/125 129/129/129 128/128/128
f 127/127/127 130/130/130 129/129/129
f 129/129/129 131/131/131 128/128/128
f 130/130/130 132/132/132 129/129/129
f 129/129/129 132/132/132 131/131/131
f 132/132/132 133/133/133 131/131/131
f 136/136/136 135/135/135 134/134/134
f 137/137/137 136/136/136 134/134/134
f 137/137/137 134/134/134 138/138/138
f 139/139/139 137/137/137 138/138/138
f 139/139/139 138/138/138 140/140/140
f 141/141/141 139/139/139 140/140/140
f 137/137/137 139/139/139 142/142/142
f 142/142/142 139/139/139 141/141/141
f 143/143/143 137/137/137 142/142/142
f 144/144/144 142/142/142 141/141/141
f 147/147/147 146/146/146 145/145/145
f 148/148/148 147/147/147 145/145/145
f 151/151/151 150/150/150 149/149/149
f 152/152/152 151/151/151 149/149/149
f 155/155/155 154/154/154 153/153/153
f 156/156/156 155/155/155 153/153/153
f 159/159/159 158/158/158 157/157/157
f 160/160/160 159/159/159 157/157/157
f 163/163/163 162/162/162 161/161/161
f 164/164/164 163/163/163 161/161/161
