g FrontLeftNoSideTile
v -1 -1 -0.25
v -1 -0.75 0
v -0.75 -1 0
v -1 -0.75 0
v -1 1 0
v -0.8 1 0
v -0.8 -0.8 0
v 1 1 0
v -0.75 -1 0
v 1 -0.8 0
v 1 -1 0
vt 1 1
vt 1 0.875
vt 0.875 1
vt 1 0.875
vt 1 0
vt 0.9 0
vt 0.9 0.9
vt 0 0
vt 0.875 1
vt 0 0.9
vt 0 1
vn -0.5773503 -0.5773503 0.5773503
vn -0.5773503 -0.5773503 0.5773503
vn -0.5773503 -0.5773503 0.5773503
vn 0 0 1
vn 0 0 1
vn 0 0 1
vn 0 0 1
vn 0 0 1
vn 0 0 1
vn 0 0 1
vn 0 0 1
g FrontLeftNoSideTile_0
f 3/3/3 2/2/2 1/1/1
f 6/6/6 5/5/5 4/4/4
f 7/7/7 6/6/6 4/4/4
f 8/8/8 6/6/6 7/7/7
f 7/7/7 4/4/4 9/9/9
f 10/10/10 8/8/8 7/7/7
f 10/10/10 7/7/7 9/9/9
f 11/11/11 10/10/10 9/9/9
