g Furnace
v -0.777672 0.727724 0.566463
v -0.777672 0.727724 -0.085344
v 0.777672 0.727724 -0.085344
v 0.777672 0.727724 0.566463
v -0.61806 0.636306 1.470001
v 0.61806 0.636306 1.470001
v -0.493541 -0.82762 0.452965
v -0.493541 -1.008203 0.452965
v -0.493541 -1.008203 0.028154
v -0.493541 -0.82762 0.028154
v -0.777672 -0.049948 -0.085344
v 0.777672 -0.049948 -0.085344
v 0.777672 0.727724 -0.085344
v -0.777672 0.727724 -0.085344
v -0.317916 0.47395 1.470001
v -0.317916 0.47395 1.645163
v -0.317916 0.112408 1.645163
v -0.317916 0.112408 1.470001
v 0.61801 -0.049948 1.470001
v 0.777672 -0.82762 0.566463
v 0.61801 -0.736202 1.470001
v 0.777672 -0.049948 0.566463
v 0.61806 0.636306 1.470001
v 0.777672 -0.82762 -0.085344
v 0.777672 0.727724 0.566463
v 0.777672 -0.049948 -0.085344
v 0.777672 0.727724 -0.085344
v -0.61801 -0.049948 1.470001
v -0.777672 0.727724 0.566463
v -0.61806 0.636306 1.470001
v -0.777672 -0.049948 0.566463
v -0.61801 -0.736202 1.470001
v -0.777672 0.727724 -0.085344
v -0.777672 -0.82762 0.566463
v -0.777672 -0.049948 -0.085344
v -0.777672 -0.82762 -0.085344
v 0.400294 -0.82762 0.754168
v 0.400294 -0.902186 0.760324
v -0.400294 -0.902186 0.760324
v -0.400294 -0.82762 0.754168
v -0.355772 -0.789712 1.277375
v -0.355772 -0.864277 1.283531
v 0.355772 -0.864277 1.283531
v 0.355772 -0.789712 1.277375
v -0.476416 -0.82762 0.692612
v -0.476416 -0.902186 0.698767
v 0.476416 -0.902186 0.698767
v 0.476416 -0.82762 0.692612
v -0.400294 -0.82762 0.754168
v -0.400294 -0.902186 0.760324
v -0.355772 -0.864277 1.283531
v -0.355772 -0.789712 1.277375
v 0.355772 -0.789712 1.277375
v 0.32584 -0.580448 1.277375
v -0.32584 -0.580448 1.277375
v -0.355772 -0.789712 1.277375
v -0.400294 -0.624053 0.754168
v -0.703166 -0.347645 0.429227
v 0.703166 -0.347645 0.429227
v 0.400294 -0.624053 0.754168
v -0.400294 -0.82762 0.754168
v -0.400294 -0.624053 0.754168
v 0.400294 -0.624053 0.754168
v 0.400294 -0.82762 0.754168
v 0.400294 -0.82762 0.754168
v 0.400294 -0.624053 0.754168
v 0.32584 -0.580448 1.277375
v 0.355772 -0.789712 1.277375
v -0.355772 -0.789712 1.277375
v -0.32584 -0.580448 1.277375
v -0.400294 -0.624053 0.754168
v -0.400294 -0.82762 0.754168
v 0.703166 -0.347645 0.429227
v 0.703166 0.594915 0.429227
v 0.4463 0.538309 1.391823
v 0.475224 -0.32667 1.391823
v 0.32584 -0.580448 1.277375
v 0.475224 -0.32667 1.391823
v -0.475224 -0.32667 1.391823
v -0.32584 -0.580448 1.277375
v 0.400294 -0.624053 0.754168
v 0.703166 -0.347645 0.429227
v 0.475224 -0.32667 1.391823
v 0.32584 -0.580448 1.277375
v -0.32584 -0.580448 1.277375
v -0.475224 -0.32667 1.391823
v -0.703166 -0.347645 0.429227
v -0.400294 -0.624053 0.754168
v 0.4463 0.538309 1.391823
v 0.703166 0.594915 0.429227
v -0.703166 0.594915 0.429227
v -0.4463 0.538309 1.391823
v -0.475224 -0.32667 1.391823
v -0.4463 0.538309 1.391823
v -0.703166 0.594915 0.429227
v -0.703166 -0.347645 0.429227
v -0.703166 -0.347645 0.429227
v -0.703166 0.594915 0.429227
v 0.703166 0.594915 0.429227
v 0.703166 -0.347645 0.429227
v 0.475224 -0.32667 1.391823
v 0.4463 0.538309 1.391823
v -0.4463 0.538309 1.391823
v -0.475224 -0.32667 1.391823
v 0.493541 -1.008203 0.452965
v 0.493541 -1.008203 0.028154
v -0.493541 -1.008203 0.028154
v -0.493541 -1.008203 0.452965
v 0.493541 -0.82762 0.028154
v 0.493541 -1.008203 0.028154
v 0.493541 -1.008203 0.452965
v 0.493541 -0.82762 0.452965
v 0.493541 -0.82762 0.452965
v 0.493541 -1.008203 0.452965
v -0.493541 -1.008203 0.452965
v -0.493541 -0.82762 0.452965
v -0.493541 -0.82762 0.028154
v -0.493541 -1.008203 0.028154
v 0.493541 -1.008203 0.028154
v 0.493541 -0.82762 0.028154
v 0.317916 0.112408 1.470001
v 0.317916 0.112408 1.645163
v 0.317916 0.47395 1.645163
v 0.317916 0.47395 1.470001
v -0.777672 -0.82762 -0.085344
v 0.777672 -0.82762 -0.085344
v 0.777672 -0.049948 -0.085344
v -0.777672 -0.049948 -0.085344
v 0.107726 0.192751 1.645163
v 0.107726 0.192751 2.046145
v 0.107726 0.393607 2.046145
v 0.107726 0.393607 1.645163
v 0.317933 -0.573874 1.645163
v -0.317933 -0.573874 1.645163
v -0.317933 -0.212276 1.645163
v 0.317933 -0.212276 1.645163
v -0.317933 -0.212276 1.470001
v -0.317933 -0.212276 1.645163
v -0.317933 -0.573874 1.645163
v -0.317933 -0.573874 1.470001
v -0.317916 0.112408 1.470001
v -0.317916 0.112408 1.645163
v 0.317916 0.112408 1.645163
v 0.317916 0.112408 1.470001
v 0.317933 -0.573874 1.470001
v 0.317933 -0.573874 1.645163
v 0.317933 -0.212276 1.645163
v 0.317933 -0.212276 1.470001
v 0.317916 0.47395 1.470001
v 0.317916 0.47395 1.645163
v -0.317916 0.47395 1.645163
v -0.317916 0.47395 1.470001
v 0.317933 -0.212276 1.470001
v 0.317933 -0.212276 1.645163
v -0.317933 -0.212276 1.645163
v -0.317933 -0.212276 1.470001
v -0.317933 -0.573874 1.470001
v -0.317933 -0.573874 1.645163
v 0.317933 -0.573874 1.645163
v 0.317933 -0.573874 1.470001
v 0.476416 -0.82762 0.692612
v 0.476416 -0.902186 0.698767
v 0.427737 -0.850194 1.367565
v 0.427737 -0.775628 1.361409
v 0.355772 -0.789712 1.277375
v 0.355772 -0.864277 1.283531
v 0.400294 -0.902186 0.760324
v 0.400294 -0.82762 0.754168
v 0.427737 -0.775628 1.361409
v 0.427737 -0.850194 1.367565
v -0.427737 -0.850194 1.367565
v -0.427737 -0.775628 1.361409
v -0.427737 -0.775628 1.361409
v -0.427737 -0.850194 1.367565
v -0.476416 -0.902186 0.698767
v -0.476416 -0.82762 0.692612
v 0.082245 0.368126 2.046145
v 0.082245 0.368126 1.597285
v -0.082245 0.368126 1.597285
v -0.082245 0.368126 2.046145
v -0.107726 0.393607 1.645163
v -0.107726 0.393607 2.046145
v -0.107726 0.192751 2.046145
v -0.107726 0.192751 1.645163
v -0.107726 0.192751 1.645163
v -0.107726 0.192751 2.046145
v 0.107726 0.192751 2.046145
v 0.107726 0.192751 1.645163
v 0.107726 0.393607 1.645163
v 0.107726 0.393607 2.046145
v -0.107726 0.393607 2.046145
v -0.107726 0.393607 1.645163
v 0.082245 0.218232 1.597285
v -0.082245 0.218232 1.597285
v -0.082245 0.368126 1.597285
v 0.082245 0.368126 1.597285
v 0.082245 0.218232 2.046145
v 0.082245 0.218232 1.597285
v 0.082245 0.368126 1.597285
v 0.082245 0.368126 2.046145
v -0.082245 0.368126 2.046145
v -0.082245 0.368126 1.597285
v -0.082245 0.218232 1.597285
v -0.082245 0.218232 2.046145
v -0.082245 0.218232 2.046145
v -0.082245 0.218232 1.597285
v 0.082245 0.218232 1.597285
v 0.082245 0.218232 2.046145
v 0.493541 -0.82762 0.452965
v 0.777672 -0.82762 -0.085344
v 0.493541 -0.82762 0.028154
v -0.777672 -0.82762 -0.085344
v -0.493541 -0.82762 0.028154
v 0.777672 -0.82762 0.566463
v -0.777672 -0.82762 0.566463
v -0.493541 -0.82762 0.452965
v 0.476416 -0.82762 0.692612
v 0.427737 -0.775628 1.361409
v -0.476416 -0.82762 0.692612
v 0.61801 -0.736202 1.470001
v -0.61801 -0.736202 1.470001
v -0.427737 -0.775628 1.361409
v 0.317933 -0.573874 1.470001
v -0.61801 -0.736202 1.470001
v -0.317933 -0.573874 1.470001
v 0.61801 -0.736202 1.470001
v 0.317933 -0.212276 1.470001
v -0.61801 -0.049948 1.470001
v 0.61801 -0.049948 1.470001
v -0.317933 -0.212276 1.470001
v 0.317916 0.112408 1.470001
v 0.317916 0.47395 1.470001
v -0.317916 0.112408 1.470001
v 0.61806 0.636306 1.470001
v -0.61806 0.636306 1.470001
v -0.317916 0.47395 1.470001
v -0.107726 0.192751 1.645163
v -0.317916 0.112408 1.645163
v -0.317916 0.47395 1.645163
v -0.107726 0.393607 1.645163
v 0.107726 0.192751 1.645163
v 0.317916 0.47395 1.645163
v 0.317916 0.112408 1.645163
v 0.107726 0.393607 1.645163
v -0.400294 -0.902186 0.760324
v -0.476416 -0.902186 0.698767
v -0.427737 -0.850194 1.367565
v -0.355772 -0.864277 1.283531
v 0.400294 -0.902186 0.760324
v 0.427737 -0.850194 1.367565
v 0.476416 -0.902186 0.698767
v 0.355772 -0.864277 1.283531
v -0.082245 0.218232 2.046145
v -0.107726 0.192751 2.046145
v -0.107726 0.393607 2.046145
v -0.082245 0.368126 2.046145
v 0.082245 0.218232 2.046145
v 0.107726 0.393607 2.046145
v 0.107726 0.192751 2.046145
v 0.082245 0.368126 2.046145
vt 0.467886 0.644705
vt 0.467886 0.608016
vt 0.380339 0.608016
vt 0.380339 0.644705
vt 0.468129 0.695822
vt 0.380403 0.695822
vt 0.700904 0.344165
vt 0.700904 0.344165
vt 0.700904 0.017712
vt 0.700904 0.017712
vt 0.921432 0.311158
vt 0.921432 0.068724
vt 0.678999 0.068724
vt 0.678999 0.311158
vt 0.757727 0.297457
vt 0.757727 0.248004
vt 0.757727 0.248004
vt 0.757727 0.297457
vt 0.424178 0.696715
vt 0.379523 0.644029
vt 0.381125 0.696715
vt 0.424178 0.644029
vt 0.467231 0.696715
vt 0.379523 0.606601
vt 0.468834 0.644029
vt 0.424178 0.606601
vt 0.468834 0.606601
vt 0.424178 0.696715
vt 0.379523 0.644029
vt 0.379805 0.696715
vt 0.424178 0.644029
vt 0.468551 0.696715
vt 0.379523 0.606601
vt 0.468834 0.644029
vt 0.424178 0.606601
vt 0.468834 0.606601
vt 0.921432 0.311158
vt 0.921432 0.068724
vt 0.678999 0.068724
vt 0.678999 0.311158
vt 0.921432 0.311158
vt 0.921432 0.068724
vt 0.678999 0.068724
vt 0.678999 0.311158
vt 0.695503 0.05575
vt 0.695503 0.0576
vt 0.952935 0.0576
vt 0.952935 0.05575
vt 0.921432 0.311158
vt 0.921432 0.068724
vt 0.678999 0.068724
vt 0.678999 0.311158
vt 0.921432 0.311158
vt 0.921432 0.068724
vt 0.678999 0.068724
vt 0.678999 0.311158
vt 0.834265 0.634147
vt 0.834265 0.534798
vt 0.734916 0.534798
vt 0.734916 0.634147
vt 0.921432 0.311158
vt 0.921432 0.068724
vt 0.678999 0.068724
vt 0.678999 0.311158
vt 0.921432 0.311158
vt 0.921432 0.068724
vt 0.678999 0.068724
vt 0.678999 0.311158
vt 0.921432 0.311158
vt 0.921432 0.068724
vt 0.678999 0.068724
vt 0.678999 0.311158
vt 0.834265 0.634147
vt 0.834265 0.534798
vt 0.734916 0.534798
vt 0.734916 0.634147
vt 0.834265 0.634147
vt 0.834265 0.534798
vt 0.734916 0.534798
vt 0.734916 0.634147
vt 0.834265 0.634147
vt 0.834265 0.534798
vt 0.734916 0.534798
vt 0.734916 0.634147
vt 0.834265 0.634147
vt 0.834265 0.534798
vt 0.734916 0.534798
vt 0.734916 0.634147
vt 0.834265 0.634147
vt 0.834265 0.534798
vt 0.734916 0.534798
vt 0.734916 0.634147
vt 0.834265 0.634147
vt 0.834265 0.534798
vt 0.734916 0.534798
vt 0.734916 0.634147
vt 0.834265 0.634147
vt 0.834265 0.534798
vt 0.734916 0.534798
vt 0.734916 0.634147
vt 0.834265 0.634147
vt 0.834265 0.534798
vt 0.734916 0.534798
vt 0.734916 0.634147
vt 0.968429 0.344165
vt 0.968429 0.017712
vt 0.700904 0.017712
vt 0.700904 0.344165
vt 0.968429 0.017712
vt 0.968429 0.017712
vt 0.968429 0.344165
vt 0.968429 0.344165
vt 0.932594 0.202836
vt 0.932594 0.10904
vt 0.697366 0.10904
vt 0.697366 0.202836
vt 0.697366 0.202836
vt 0.697366 0.10904
vt 0.932594 0.10904
vt 0.932594 0.202836
vt 0.846678 0.297457
vt 0.846678 0.248004
vt 0.846678 0.248004
vt 0.846678 0.297457
vt 0.921432 0.311158
vt 0.921432 0.068724
vt 0.678999 0.068724
vt 0.678999 0.311158
vt 0.9485 0.253967
vt 0.9485 0.301468
vt 0.9485 0.301468
vt 0.9485 0.253967
vt 0.944543 0.095797
vt 0.687044 0.095797
vt 0.687044 0.240329
vt 0.944543 0.240329
vt 0.757725 0.297457
vt 0.757725 0.248004
vt 0.757725 0.248004
vt 0.757725 0.297457
vt 0.757727 0.297457
vt 0.757727 0.248004
vt 0.846678 0.248004
vt 0.846678 0.297457
vt 0.84668 0.297457
vt 0.84668 0.248004
vt 0.84668 0.248004
vt 0.84668 0.297457
vt 0.846678 0.297457
vt 0.846678 0.248004
vt 0.757727 0.248004
vt 0.757727 0.297457
vt 0.84668 0.297457
vt 0.84668 0.248004
vt 0.757725 0.248004
vt 0.757725 0.297457
vt 0.757725 0.297457
vt 0.757725 0.248004
vt 0.84668 0.248004
vt 0.84668 0.297457
vt 0.952935 0.05575
vt 0.952935 0.0576
vt 0.939783 0.25856
vt 0.939783 0.256711
vt 0.921432 0.311158
vt 0.921432 0.068724
vt 0.678999 0.068724
vt 0.678999 0.311158
vt 0.939783 0.256711
vt 0.939783 0.25856
vt 0.708655 0.25856
vt 0.708655 0.256711
vt 0.708655 0.256711
vt 0.708655 0.25856
vt 0.695503 0.0576
vt 0.695503 0.05575
vt 0.4379 0.668655
vt 0.4379 0.668655
vt 0.417568 0.668655
vt 0.417568 0.668655
vt 0.874654 0.253967
vt 0.874654 0.301468
vt 0.874654 0.301468
vt 0.874654 0.253967
vt 0.874654 0.253967
vt 0.874654 0.301468
vt 0.9485 0.301468
vt 0.9485 0.253967
vt 0.9485 0.253967
vt 0.9485 0.301468
vt 0.874654 0.301468
vt 0.874654 0.253967
vt 0.827886 0.629964
vt 0.827886 0.574623
vt 0.772545 0.574623
vt 0.772545 0.629964
vt 0.4379 0.632359
vt 0.4379 0.632359
vt 0.4379 0.668655
vt 0.4379 0.668655
vt 0.417568 0.668655
vt 0.417568 0.668655
vt 0.417568 0.632359
vt 0.417568 0.632359
vt 0.417568 0.632359
vt 0.417568 0.632359
vt 0.4379 0.632359
vt 0.4379 0.632359
vt 0.45001 0.639898
vt 0.465147 0.608286
vt 0.45001 0.614951
vt 0.381053 0.608286
vt 0.396191 0.614951
vt 0.465147 0.646563
vt 0.381053 0.646563
vt 0.396191 0.639898
vt 0.449097 0.653971
vt 0.454501 0.693246
vt 0.397103 0.653971
vt 0.464639 0.699623
vt 0.380639 0.699623
vt 0.390776 0.693246
vt 0.405953 0.68684
vt 0.467578 0.697529
vt 0.44782 0.68684
vt 0.386195 0.697529
vt 0.405953 0.663032
vt 0.467578 0.652344
vt 0.386195 0.652344
vt 0.44782 0.663032
vt 0.405954 0.641654
vt 0.405954 0.617849
vt 0.447819 0.641654
vt 0.386192 0.607159
vt 0.467581 0.607159
vt 0.447819 0.617849
vt 0.780127 0.120994
vt 0.706415 0.087555
vt 0.706415 0.238026
vt 0.780127 0.204588
vt 0.855684 0.120994
vt 0.929396 0.238026
vt 0.929396 0.087555
vt 0.855684 0.204588
vt 0.716069 0.076096
vt 0.695503 0.0576
vt 0.708655 0.25856
vt 0.728098 0.23331
vt 0.932368 0.076096
vt 0.939783 0.25856
vt 0.952935 0.0576
vt 0.92034 0.23331
vt 0.883388 0.301468
vt 0.874654 0.301468
vt 0.874654 0.301468
vt 0.883388 0.301468
vt 0.939767 0.301468
vt 0.9485 0.301468
vt 0.9485 0.301468
vt 0.939767 0.301468
vn 0 0.9987293 0.05039599
vn 0 1 0
vn 0 1 0
vn 0 0.9987293 0.05039599
vn -0.3686995 0.3724953 0.8516501
vn 0.3686995 0.3724953 0.8516501
vn -1 0 0
vn -1 0 0
vn -1 0 0
vn -1 0 0
vn 0 0 -1
vn 0 0 -1
vn 0 0 -1
vn 0 0 -1
vn -1 0 0
vn -1 0 0
vn -1 0 0
vn -1 0 0
vn 0.4126099 0 0.9109079
vn 0.4591561 -0.8862477 0.06116103
vn 0.3119642 -0.5642042 0.7644292
vn 0.9961792 0 0.0873325
vn 0.3686995 0.3724953 0.8516501
vn 1 0 0
vn 0.9961798 -1.68829E-05 0.08732539
vn 1 0 0
vn 1 0 0
vn -0.4126099 0 0.9109079
vn -0.9961798 -1.68829E-05 0.08732539
vn -0.3686995 0.3724953 0.8516501
vn -0.9961792 0 0.0873325
vn -0.3119642 -0.5642042 0.7644292
vn -1 0 0
vn -0.4591561 -0.8862478 0.06116103
vn -1 0 0
vn -1 0 0
vn 0 0.04117404 0.9991521
vn 0 0.08227824 0.9966094
vn 0 0.08227824 0.9966094
vn 0 0.04117404 0.9991521
vn 0.6714775 -0.05442426 -0.7390236
vn 0.6765455 -0.06058994 -0.7339039
vn -0.6765455 -0.06058995 -0.7339039
vn -0.6714775 -0.05442427 -0.7390236
vn -0.4367672 -0.8357943 -0.3326898
vn -0.4349591 -0.8339043 -0.3397265
vn 0.4349591 -0.8339043 -0.3397265
vn 0.4367672 -0.8357943 -0.3326898
vn 0.994621 -0.03945177 -0.09577356
vn 0.9964174 -0.006958452 -0.08428544
vn 0.6765455 -0.06058994 -0.7339039
vn 0.6714775 -0.05442426 -0.7390236
vn -0.6714775 -0.05442427 -0.7390236
vn -0.5955535 0.3132843 -0.7397088
vn 0.5955535 0.3132844 -0.7397088
vn 0.6714775 -0.05442426 -0.7390236
vn 0.6888599 0.4984769 0.5263011
vn 0.6952894 0.5318476 0.4834364
vn -0.6952894 0.5318476 0.4834364
vn -0.6888599 0.4984769 0.5263011
vn 0 0.04117404 0.9991521
vn 0.6888599 0.4984769 0.5263011
vn -0.6888599 0.4984769 0.5263011
vn 0 0.04117404 0.9991521
vn -0.994621 -0.03945177 -0.09577356
vn -0.6888599 0.4984769 0.5263011
vn -0.5955535 0.3132843 -0.7397088
vn -0.6714775 -0.05442427 -0.7390236
vn 0.6714775 -0.05442426 -0.7390236
vn 0.5955535 0.3132844 -0.7397088
vn 0.6888599 0.4984769 0.5263011
vn 0.994621 -0.03945177 -0.09577356
vn -0.6952894 0.5318476 0.4834364
vn -0.9695403 -0.01551445 -0.2444399
vn -0.5063745 -0.5294853 -0.6806101
vn -0.5675834 0.3206 -0.7583302
vn -0.5955535 0.3132843 -0.7397088
vn -0.5675834 0.3206 -0.7583302
vn 0.5675834 0.3206 -0.7583303
vn 0.5955535 0.3132844 -0.7397088
vn -0.6888599 0.4984769 0.5263011
vn -0.6952894 0.5318476 0.4834364
vn -0.5675834 0.3206 -0.7583302
vn -0.5955535 0.3132843 -0.7397088
vn 0.5955535 0.3132844 -0.7397088
vn 0.5675834 0.3206 -0.7583303
vn 0.6952894 0.5318476 0.4834364
vn 0.6888599 0.4984769 0.5263011
vn -0.5063745 -0.5294853 -0.6806101
vn 0 -0.9982754 -0.05870414
vn 0 -0.9982754 -0.05870414
vn 0.5063745 -0.5294853 -0.6806101
vn 0.5675834 0.3206 -0.7583303
vn 0.5063745 -0.5294853 -0.6806101
vn 0.9695403 -0.01551445 -0.2444399
vn 0.6952894 0.5318476 0.4834364
vn 0.6952894 0.5318476 0.4834364
vn 0 0 1
vn 0 0 1
vn -0.6952894 0.5318476 0.4834364
vn -0.5675834 0.3206 -0.7583302
vn -0.5063745 -0.5294853 -0.6806101
vn 0.5063745 -0.5294853 -0.6806101
vn 0.5675834 0.3206 -0.7583303
vn 0 -1 0
vn 0 -1 0
vn 0 -1 0
vn 0 -1 0
vn 1 0 0
vn 1 0 0
vn 1 0 0
vn 1 0 0
vn 0 0 1
vn 0 0 1
vn 0 0 1
vn 0 0 1
vn 0 0 -1
vn 0 0 -1
vn 0 0 -1
vn 0 0 -1
vn 1 0 0
vn 1 0 0
vn 1 0 0
vn 1 0 0
vn 0 0 -1
vn 0 0 -1
vn 0 0 -1
vn 0 0 -1
vn 1 0 0
vn 1 0 0
vn 1 0 0
vn 1 0 0
vn 0 0 1
vn 0 0 1
vn 0 0 1
vn 0 0 1
vn -1 0 0
vn -1 0 0
vn -1 0 0
vn -1 0 0
vn 0 -1 0
vn 0 -1 0
vn 0 -1 0
vn 0 -1 0
vn 1 0 0
vn 1 0 0
vn 1 0 0
vn 1 0 0
vn 0 1 0
vn 0 1 0
vn 0 1 0
vn 0 1 0
vn 0 1 0
vn 0 1 0
vn 0 1 0
vn 0 1 0
vn 0 -1 0
vn 0 -1 0
vn 0 -1 0
vn 0 -1 0
vn 0.4367672 -0.8357943 -0.3326898
vn 0.4349591 -0.8339043 -0.3397265
vn 0.4243099 -0.7434055 0.5170196
vn 0.4128754 -0.704262 0.577537
vn -0.6714775 -0.05442427 -0.7390236
vn -0.6765455 -0.06058995 -0.7339039
vn -0.9964174 -0.006958479 -0.08428545
vn -0.994621 -0.03945177 -0.09577356
vn 0.4128754 -0.704262 0.577537
vn 0.4243099 -0.7434055 0.5170196
vn -0.42431 -0.7434055 0.5170196
vn -0.4128755 -0.704262 0.5775369
vn -0.4128755 -0.704262 0.5775369
vn -0.42431 -0.7434055 0.5170196
vn -0.4349591 -0.8339043 -0.3397265
vn -0.4367672 -0.8357943 -0.3326898
vn 0 -1 0
vn 0 -1 0
vn 0 -1 0
vn 0 -1 0
vn -1 0 0
vn -1 0 0
vn -1 0 0
vn -1 0 0
vn 0 -1 0
vn 0 -1 0
vn 0 -1 0
vn 0 -1 0
vn 0 1 0
vn 0 1 0
vn 0 1 0
vn 0 1 0
vn 0 0 1
vn 0 0 1
vn 0 0 1
vn 0 0 1
vn -1 0 0
vn -1 0 0
vn -1 0 0
vn -1 0 0
vn 1 0 0
vn 1 0 0
vn 1 0 0
vn 1 0 0
vn 0 1 0
vn 0 1 0
vn 0 1 0
vn 0 1 0
vn 0 -1 0
vn 0 -1 0
vn 0 -1 0
vn 0 -1 0
vn 0 -1 0
vn 0.4591561 -0.8862477 0.06116103
vn -0.4591561 -0.8862478 0.06116103
vn 0 -1 0
vn 0.4367672 -0.8357943 -0.3326898
vn 0.4128754 -0.704262 0.577537
vn -0.4367672 -0.8357943 -0.3326898
vn 0.3119642 -0.5642042 0.7644292
vn -0.3119642 -0.5642042 0.7644292
vn -0.4128755 -0.704262 0.5775369
vn 0 0 1
vn -0.3119642 -0.5642042 0.7644292
vn 0 0 1
vn 0.3119642 -0.5642042 0.7644292
vn 0 0 1
vn -0.4126099 0 0.9109079
vn 0.4126099 0 0.9109079
vn 0 0 1
vn 0 0 1
vn 0 0 1
vn 0 0 1
vn 0.3686995 0.3724953 0.8516501
vn -0.3686995 0.3724953 0.8516501
vn 0 0 1
vn 0 0 1
vn 0 0 1
vn 0 0 1
vn 0 0 1
vn 0 0 1
vn 0 0 1
vn 0 0 1
vn 0 0 1
vn -0.04112751 -0.9983231 0.04073587
vn -0.4349591 -0.8339043 -0.3397265
vn -0.42431 -0.7434055 0.5170196
vn -0.04112976 -0.9914891 0.1235225
vn 0.04112751 -0.9983231 0.04073587
vn 0.4243099 -0.7434055 0.5170196
vn 0.4349591 -0.8339043 -0.3397265
vn 0.04112976 -0.9914891 0.1235225
vn 0 0 1
vn 0 0 1
vn 0 0 1
vn 0 0 1
vn 0 0 1
vn 0 0 1
vn 0 0 1
vn 0 0 1
g Furnace_0
f 3/3/3 2/2/2 1/1/1
f 4/4/4 3/3/3 1/1/1
f 4/4/4 1/1/1 5/5/5
f 6/6/6 4/4/4 5/5/5
f 9/9/9 8/8/8 7/7/7
f 10/10/10 9/9/9 7/7/7
f 13/13/13 12/12/12 11/11/11
f 14/14/14 13/13/13 11/11/11
f 17/17/17 16/16/16 15/15/15
f 18/18/18 17/17/17 15/15/15
f 21/21/21 20/20/20 19/19/19
f 20/20/20 22/22/22 19/19/19
f 19/19/19 22/22/22 23/23/23
f 20/20/20 24/24/24 22/22/22
f 22/22/22 25/25/25 23/23/23
f 24/24/24 26/26/26 22/22/22
f 22/22/22 26/26/26 25/25/25
f 26/26/26 27/27/27 25/25/25
f 30/30/30 29/29/29 28/28/28
f 29/29/29 31/31/31 28/28/28
f 28/28/28 31/31/31 32/32/32
f 29/29/29 33/33/33 31/31/31
f 31/31/31 34/34/34 32/32/32
f 33/33/33 35/35/35 31/31/31
f 31/31/31 35/35/35 34/34/34
f 35/35/35 36/36/36 34/34/34
f 39/39/39 38/38/38 37/37/37
f 40/40/40 39/39/39 37/37/37
f 43/43/43 42/42/42 41/41/41
f 44/44/44 43/43/43 41/41/41
f 47/47/47 46/46/46 45/45/45
f 48/48/48 47/47/47 45/45/45
f 51/51/51 50/50/50 49/49/49
f 52/52/52 51/51/51 49/49/49
f 55/55/55 54/54/54 53/53/53
f 56/56/56 55/55/55 53/53/53
f 59/59/59 58/58/58 57/57/57
f 60/60/60 59/59/59 57/57/57
f 63/63/63 62/62/62 61/61/61
f 64/64/64 63/63/63 61/61/61
f 67/67/67 66/66/66 65/65/65
f 68/68/68 67/67/67 65/65/65
f 71/71/71 70/70/70 69/69/69
f 72/72/72 71/71/71 69/69/69
f 75/75/75 74/74/74 73/73/73
f 76/76/76 75/75/75 73/73/73
f 79/79/79 78/78/78 77/77/77
f 80/80/80 79/79/79 77/77/77
f 83/83/83 82/82/82 81/81/81
f 84/84/84 83/83/83 81/81/81
f 87/87/87 86/86/86 85/85/85
f 88/88/88 87/87/87 85/85/85
f 91/91/91 90/90/90 89/89/89
f 92/92/92 91/91/91 89/89/89
f 95/95/95 94/94/94 93/93/93
f 96/96/96 95/95/95 93/93/93
f 99/99/99 98/98/98 97/97/97
f 100/100/100 99/99/99 97/97/97
f 103/103/103 102/102/102 101/101/101
f 104/104/104 103/103/103 101/101/101
f 107/107/107 106/106/106 105/105/105
f 108/108/108 107/107/107 105/105/105
f 111/111/111 110/110/110 109/109/109
f 112/112/112 111/111/111 109/109/109
f 115/115/115 114/114/114 113/113/113
f 116/116/116 115/115/115 113/113/113
f 119/119/119 118/118/118 117/117/117
f 120/120/120 119/119/119 117/117/117
f 123/123/123 122/122/122 121/121/121
f 124/124/124 123/123/123 121/121/121
f 127/127/127 126/126/126 125/125/125
f 128/128/128 127/127/127 125/125/125
f 131/131/131 130/130/130 129/129/129
f 132/132/132 131/131/131 129/129/129
f 135/135/135 134/134/134 133/133/133
f 136/136/136 135/135/135 133/133/133
f 139/139/139 138/138/138 137/137/137
f 140/140/140 139/139/139 137/137/137
f 143/143/143 142/142/142 141/141/141
f 144/144/144 143/143/143 141/141/141
f 147/147/147 146/146/146 145/145/145
f 148/148/148 147/147/147 145/145/145
f 151/151/151 150/150/150 149/149/149
f 152/152/152 151/151/151 149/149/149
f 155/155/155 154/154/154 153/153/153
f 156/156/156 155/155/155 153/153/153
f 159/159/159 158/158/158 157/157/157
f 160/160/160 159/159/159 157/157/157
f 163/163/163 162/162/162 161/161/161
f 164/164/164 163/163/163 161/161/161
f 167/167/167 166/166/166 165/165/165
f 168/168/168 167/167/167 165/165/165
f 171/171/171 170/170/170 169/169/169
f 172/172/172 171/171/171 169/169/169
f 175/175/175 174/174/174 173/173/173
f 176/176/176 175/175/175 173/173/173
f 179/179/179 178/178/178 177/177/177
f 180/180/180 179/179/179 177/177/177
f 183/183/183 182/182/182 181/181/181
f 184/184/184 183/183/183 181/181/181
f 187/187/187 186/186/186 185/185/185
f 188/188/188 187/187/187 185/185/185
f 191/191/191 190/190/190 189/189/189
f 192/192/192 191/191/191 189/189/189
f 195/195/195 194/194/194 193/193/193
f 196/196/196 195/195/195 193/193/193
f 199/199/199 198/198/198 197/197/197
f 200/200/200 199/199/199 197/197/197
f 203/203/203 202/202/202 201/201/201
f 204/204/204 203/203/203 201/201/201
f 207/207/207 206/206/206 205/205/205
f 208/208/208 207/207/207 205/205/205
f 211/211/211 210/210/210 209/209/209
f 212/212/212 210/210/210 211/211/211
f 213/213/213 212/212/212 211/211/211
f 210/210/210 214/214/214 209/209/209
f 215/215/215 212/212/212 213/213/213
f 209/209/209 214/214/214 216/216/216
f 216/216/216 215/215/215 213/213/213
f 214/214/214 215/215/215 216/216/216
f 215/215/215 214/214/214 217/217/217
f 217/217/217 214/214/214 218/218/218
f 219/219/219 215/215/215 217/217/217
f 214/214/214 220/220/220 218/218/218
f 221/221/221 215/215/215 219/219/219
f 218/218/218 220/220/220 222/222/222
f 222/222/222 221/221/221 219/219/219
f 220/220/220 221/221/221 222/222/222
f 225/225/225 224/224/224 223/223/223
f 224/224/224 226/226/226 223/223/223
f 223/223/223 226/226/226 227/227/227
f 228/228/228 224/224/224 225/225/225
f 226/226/226 229/229/229 227/227/227
f 230/230/230 228/228/228 225/225/225
f 227/227/227 229/229/229 230/230/230
f 229/229/229 228/228/228 230/230/230
f 228/228/228 229/229/229 231/231/231
f 231/231/231 229/229/229 232/232/232
f 233/233/233 228/228/228 231/231/231
f 229/229/229 234/234/234 232/232/232
f 235/235/235 228/228/228 233/233/233
f 232/232/232 234/234/234 236/236/236
f 236/236/236 235/235/235 233/233/233
f 234/234/234 235/235/235 236/236/236
f 239/239/239 238/238/238 237/237/237
f 240/240/240 239/239/239 237/237/237
f 237/237/237 238/238/238 241/241/241
f 242/242/242 239/239/239 240/240/240
f 238/238/238 243/243/243 241/241/241
f 244/244/244 242/242/242 240/240/240
f 241/241/241 243/243/243 244/244/244
f 243/243/243 242/242/242 244/244/244
f 247/247/247 246/246/246 245/245/245
f 248/248/248 247/247/247 245/245/245
f 249/249/249 245/245/245 246/246/246
f 247/247/247 248/248/248 250/250/250
f 251/251/251 249/249/249 246/246/246
f 248/248/248 252/252/252 250/250/250
f 249/249/249 251/251/251 252/252/252
f 251/251/251 250/250/250 252/252/252
f 255/255/255 254/254/254 253/253/253
f 256/256/256 255/255/255 253/253/253
f 253/253/253 254/254/254 257/257/257
f 258/258/258 255/255/255 256/256/256
f 254/254/254 259/259/259 257/257/257
f 260/260/260 258/258/258 256/256/256
f 257/257/257 259/259/259 260/260/260
f 259/259/259 258/258/258 260/260/260
