g FurnitureShopInterior
v -6.728212 2.447404 0
v -6.728212 6.08356 0
v -1.677355 6.08356 0
v -1.677355 2.447404 0
v -6.728212 0.314219 0
v -1.677354 0.314219 0
v 0 2.447404 0
v 0 0.314219 0
v 0 6.08356 0
v 0 9.252203 0
v -1.677355 9.252203 0
v -6.728212 -6.134118 0.591615
v -6.728212 0.314219 0.591615
v -1.677354 0.314219 0.591615
v -1.677354 -6.134118 0.591615
v 0 0.314219 0.591615
v 0 -6.134118 0.591615
v -1.677354 0.314219 0
v -6.728212 0.314219 0.591615
v -6.728212 0.314219 0
v -1.677354 0.314219 0.591615
v 0 0.314219 0
v 0 0.314219 0.591615
v 1.677354 0.314219 0.591615
v 1.677354 0.314219 0
v 6.728212 0.314219 0.591615
v 6.728212 0.314219 0
v -1.439044 0.025773 -0.347492
v -1.439044 0.851008 -0.347492
v -1.439044 0.851008 0.244123
v -1.439044 0.025773 0.244123
v 0 0.851008 -0.347492
v -1.439044 0.851008 0.244123
v -1.439044 0.851008 -0.347492
v 0 0.851008 0.244123
v 1.439044 0.851008 0.244123
v 1.439044 0.851008 -0.347492
v 0 0.025773 -0.347492
v -1.439044 0.025773 -0.347492
v -1.439044 0.025773 0.244123
v 0 0.025773 0.244123
v 1.439044 0.025773 0.244123
v 1.439044 0.025773 -0.347492
v -1.439044 0.025773 0.244123
v -1.439044 0.851008 0.244123
v 0 0.851008 0.244123
v 0 0.025773 0.244123
v 1.439044 0.025773 0.244123
v 1.439044 0.851008 0.244123
v 6.728212 2.447404 0
v 1.677355 6.08356 0
v 6.728212 6.08356 0
v 1.677355 2.447404 0
v 6.728212 0.314219 0
v 1.677354 0.314219 0
v 0 2.447404 0
v 0 0.314219 0
v 0 6.08356 0
v 0 9.252203 0
v 1.677355 9.252203 0
v 6.728212 -6.134118 0.591615
v 1.677354 0.314219 0.591615
v 6.728212 0.314219 0.591615
v 1.677354 -6.134118 0.591615
v 0 0.314219 0.591615
v 0 -6.134118 0.591615
v 1.439044 0.025773 -0.347492
v 1.439044 0.025773 0.244123
v 1.439044 0.851008 0.244123
v 1.439044 0.851008 -0.347492
v -1.173951 6.107462 3.171062
v -1.38928 6.107462 -0.012147
v -1.173951 6.107462 -0.012147
v -1.38928 6.107462 3.39821
v 0 6.107462 3.39821
v 0 6.107462 3.171062
v 1.173951 6.107462 3.171062
v 1.38928 6.107462 3.39821
v 1.38928 6.107462 -0.012147
v 1.173951 6.107462 -0.012147
v -1.173951 5.959268 3.171062
v -1.173951 5.959268 -0.012147
v -1.38928 5.959268 -0.012147
v -1.38928 5.959268 3.39821
v 0 5.959268 3.39821
v 0 5.959268 3.171062
v 1.173951 5.959268 3.171062
v 1.38928 5.959268 3.39821
v 1.38928 5.959268 -0.012147
v 1.173951 5.959268 -0.012147
v -1.38928 6.107462 -0.012147
v -1.38928 6.107462 3.39821
v -1.38928 5.959268 3.39821
v -1.38928 5.959268 -0.012147
v -1.38928 6.107462 3.39821
v 0 5.959268 3.39821
v -1.38928 5.959268 3.39821
v 0 6.107462 3.39821
v 1.38928 6.107462 3.39821
v 1.38928 5.959268 3.39821
v -1.173951 6.107462 3.171062
v -1.173951 6.107462 -0.012147
v -1.173951 5.959268 -0.012147
v -1.173951 5.959268 3.171062
v 0 6.107462 3.171062
v -1.173951 6.107462 3.171062
v -1.173951 5.959268 3.171062
v 0 5.959268 3.171062
v 1.173951 5.959268 3.171062
v 1.173951 6.107462 3.171062
v 0 -6.134118 2.667894
v 0 -6.134118 5.335789
v -1.677354 -6.134118 5.335789
v -1.677354 -6.134118 2.667894
v 0 -6.134118 0
v -6.728212 -6.134118 5.335789
v -1.677354 -6.134118 0
v -6.728212 -6.134118 2.667894
v -6.728212 -6.134118 0
v -6.728212 -6.134118 2.667894
v -6.728212 -6.134118 5.335789
v -6.728212 0.314219 5.335789
v -6.728212 0.314219 2.667894
v -6.728212 -6.134118 0
v -6.728212 2.447404 5.335789
v -6.728212 0.314219 0
v -6.728212 2.447404 2.667894
v -6.728212 6.08356 5.335789
v -6.728212 2.447404 0
v -6.728212 6.08356 2.667894
v -6.728212 6.08356 0
v -1.270946 6.08356 3.131493
v 0 6.08356 5.335789
v 0 6.08356 3.131493
v -1.677355 6.08356 5.335789
v -1.270946 6.08356 2.66789
v -1.677355 6.08356 2.66789
v -1.270946 6.08356 -0.067329
v -1.677355 6.08356 0
v -6.728212 6.08356 2.667894
v -6.728212 6.08356 5.335789
v -6.728212 6.08356 0
v -6.728212 -6.134118 0
v -6.728212 -6.134118 0.591615
v -1.677354 -6.134118 0.591615
v -1.677354 -6.134118 0
v 0 -6.134118 0.591615
v 0 -6.134118 0
v 1.677354 -6.134118 0
v 1.677354 -6.134118 0.591615
v 6.728212 -6.134118 0
v 6.728212 -6.134118 0.591615
v -6.728212 0.314219 0
v -6.728212 0.314219 0.591615
v -6.728212 -6.134118 0.591615
v -6.728212 -6.134118 0
v -1.357375 0.576728 0.007817
v -6.757522 0.576728 0.007817
v -6.757522 0.265229 0.007817
v -1.357375 0.265229 0.007817
v -1.357375 0.576728 0.007817
v -1.357375 0.265229 0.007817
v -1.357375 0.265229 0.6295
v -1.357375 0.576728 0.6295
v -6.757522 0.265229 0.007817
v -6.757522 0.265229 0.6295
v -1.357375 0.265229 0.6295
v -1.357375 0.265229 0.007817
v -6.757522 0.576728 0.007817
v -1.357375 0.576728 0.007817
v -1.357375 0.576728 0.6295
v -6.757522 0.576728 0.6295
v -6.757522 0.576728 0.6295
v -6.757522 0.265229 0.6295
v -6.757522 0.265229 0.007817
v -6.757522 0.576728 0.007817
v -1.666614 1.156231 -0.049987
v -1.666614 0.386512 -0.056828
v -1.410379 0.386512 -0.056828
v -1.410379 1.156231 -0.049987
v -1.666614 1.156231 -0.049987
v -1.410379 1.156231 -0.049987
v -1.410379 1.156231 0.229231
v -1.666614 1.156231 0.229231
v -1.666614 0.386512 0.601871
v -1.666614 1.156231 0.229231
v -1.410379 1.156231 0.229231
v -1.410379 0.386512 0.601871
v -1.410379 0.386512 -0.056828
v -1.410379 0.386512 0.601871
v -1.410379 1.156231 0.229231
v -1.410379 1.156231 -0.049987
v -1.666614 0.386512 -0.056828
v -1.666614 1.156231 -0.049987
v -1.666614 1.156231 0.229231
v -1.666614 0.386512 0.601871
v -1.666614 0.386512 0.601871
v -1.410379 0.386512 0.601871
v -1.410379 0.386512 -0.056828
v -1.666614 0.386512 -0.056828
v -6.757522 0.576728 0.6295
v -1.357375 0.576728 0.6295
v -1.357375 0.265229 0.6295
v -6.757522 0.265229 0.6295
v 1.38928 6.107462 -0.012147
v 1.38928 5.959268 -0.012147
v 1.38928 5.959268 3.39821
v 1.38928 6.107462 3.39821
v 1.173951 6.107462 3.171062
v 1.173951 5.959268 3.171062
v 1.173951 5.959268 -0.012147
v 1.173951 6.107462 -0.012147
v 0 -6.134118 2.667894
v 1.677354 -6.134118 5.335789
v 0 -6.134118 5.335789
v 1.677354 -6.134118 2.667894
v 0 -6.134118 0
v 6.728212 -6.134118 5.335789
v 1.677354 -6.134118 0
v 6.728212 -6.134118 2.667894
v 6.728212 -6.134118 0
v 6.728212 -6.134118 2.667894
v 6.728212 0.314219 5.335789
v 6.728212 -6.134118 5.335789
v 6.728212 0.314219 2.667894
v 6.728212 -6.134118 0
v 6.728212 2.447404 5.335789
v 6.728212 0.314219 0
v 6.728212 2.447404 2.667894
v 6.728212 6.08356 5.335789
v 6.728212 2.447404 0
v 6.728212 6.08356 2.667894
v 6.728212 6.08356 0
v 1.270946 6.08356 3.131493
v 0 6.08356 3.131493
v 0 6.08356 5.335789
v 1.677355 6.08356 5.335789
v 1.270946 6.08356 2.66789
v 1.677355 6.08356 2.66789
v 1.270946 6.08356 -0.067329
v 1.677355 6.08356 0
v 6.728212 6.08356 2.667894
v 6.728212 6.08356 5.335789
v 6.728212 6.08356 0
v 6.728212 0.314219 0
v 6.728212 -6.134118 0
v 6.728212 -6.134118 0.591615
v 6.728212 0.314219 0.591615
v 1.357375 0.576728 0.007817
v 1.357375 0.265229 0.007817
v 6.757522 0.265229 0.007817
v 6.757522 0.576728 0.007817
v 1.357375 0.576728 0.007817
v 1.357375 0.576728 0.6295
v 1.357375 0.265229 0.6295
v 1.357375 0.265229 0.007817
v 6.757522 0.265229 0.007817
v 1.357375 0.265229 0.007817
v 1.357375 0.265229 0.6295
v 6.757522 0.265229 0.6295
v 6.757522 0.576728 0.007817
v 6.757522 0.576728 0.6295
v 1.357375 0.576728 0.6295
v 1.357375 0.576728 0.007817
v 6.757522 0.576728 0.6295
v 6.757522 0.576728 0.007817
v 6.757522 0.265229 0.007817
v 6.757522 0.265229 0.6295
v 1.666614 1.156231 -0.049987
v 1.410379 1.156231 -0.049987
v 1.410379 0.386512 -0.056828
v 1.666614 0.386512 -0.056828
v 1.666614 1.156231 -0.049987
v 1.666614 1.156231 0.229231
v 1.410379 1.156231 0.229231
v 1.410379 1.156231 -0.049987
v 1.666614 0.386512 0.601871
v 1.410379 0.386512 0.601871
v 1.410379 1.156231 0.229231
v 1.666614 1.156231 0.229231
v 1.410379 0.386512 -0.056828
v 1.410379 1.156231 -0.049987
v 1.410379 1.156231 0.229231
v 1.410379 0.386512 0.601871
v 1.666614 0.386512 -0.056828
v 1.666614 0.386512 0.601871
v 1.666614 1.156231 0.229231
v 1.666614 1.156231 -0.049987
v 1.666614 0.386512 0.601871
v 1.666614 0.386512 -0.056828
v 1.410379 0.386512 -0.056828
v 1.410379 0.386512 0.601871
v 6.757522 0.576728 0.6295
v 6.757522 0.265229 0.6295
v 1.357375 0.265229 0.6295
v 1.357375 0.576728 0.6295
vt 0.534869 0.293931
vt 0.677589 0.293931
vt 0.677589 0.095683
vt 0.534869 0.095683
vt 0.45114 0.293931
vt 0.45114 0.095683
vt 0.534869 0.029846
vt 0.45114 0.029846
vt 0.677589 0.029846
vt 0.80196 0.029846
vt 0.80196 0.095683
vt 0.198041 0.293931
vt 0.45114 0.293931
vt 0.45114 0.095683
vt 0.198041 0.095683
vt 0.45114 0.029846
vt 0.198041 0.029846
vt 0.45114 0.095683
vt 0.45114 0.293931
vt 0.45114 0.293931
vt 0.45114 0.095683
vt 0.45114 0.029846
vt 0.45114 0.029846
vt 0.45114 0.095683
vt 0.45114 0.095683
vt 0.45114 0.293931
vt 0.45114 0.293931
vt 0.45114 0.095683
vt 0.45114 0.095683
vt 0.45114 0.095683
vt 0.45114 0.095683
vt 0.45114 0.029846
vt 0.45114 0.095683
vt 0.45114 0.095683
vt 0.45114 0.029846
vt 0.45114 0.095683
vt 0.45114 0.095683
vt 0.45114 0.029846
vt 0.45114 0.095683
vt 0.45114 0.095683
vt 0.45114 0.029846
vt 0.45114 0.095683
vt 0.45114 0.095683
vt 0.45114 0.095683
vt 0.45114 0.095683
vt 0.45114 0.029846
vt 0.45114 0.029846
vt 0.45114 0.095683
vt 0.45114 0.095683
vt 0.534869 0.293931
vt 0.677589 0.095683
vt 0.677589 0.293931
vt 0.534869 0.095683
vt 0.45114 0.293931
vt 0.45114 0.095683
vt 0.534869 0.029846
vt 0.45114 0.029846
vt 0.677589 0.029846
vt 0.80196 0.029846
vt 0.80196 0.095683
vt 0.198041 0.293931
vt 0.45114 0.095683
vt 0.45114 0.293931
vt 0.198041 0.095683
vt 0.45114 0.029846
vt 0.198041 0.029846
vt 0.45114 0.095683
vt 0.45114 0.095683
vt 0.45114 0.095683
vt 0.45114 0.095683
vt 0 0.460822
vt 1 0.519094
vt 1 0.460822
vt 0 0.519094
vt 0 0.519094
vt 0 0.460822
vt 0 0.460822
vt 0 0.519094
vt 1 0.519094
vt 1 0.460822
vt 0 0.460822
vt 1 0.460822
vt 1 0.519094
vt 0 0.519094
vt 0 0.519094
vt 0 0.460822
vt 0 0.460822
vt 0 0.519094
vt 1 0.519094
vt 1 0.460822
vt 1 0.519094
vt 0 0.519094
vt 0 0.519094
vt 1 0.519094
vt 0 0.519094
vt 0 0.519094
vt 0 0.519094
vt 0 0.519094
vt 0 0.519094
vt 0 0.519094
vt 0 0.460822
vt 1 0.460822
vt 1 0.460822
vt 0 0.460822
vt 0 0.460822
vt 0 0.460822
vt 0 0.460822
vt 0 0.460822
vt 0 0.460822
vt 0 0.460822
vt 0.80642 0.759264
vt 0.80642 0.527503
vt 0.605633 0.527503
vt 0.605633 0.759264
vt 0.80642 0.991025
vt 0.001023 0.527503
vt 0.605633 0.991025
vt 0.001023 0.759264
vt 0.001023 0.991025
vt 6E-05 0.762674
vt 6E-05 0.994075
vt 0.527784 0.994075
vt 0.527784 0.762674
vt 6E-05 0.531273
vt 0.702362 0.994075
vt 0.527784 0.531273
vt 0.702362 0.762674
vt 0.99994 0.994075
vt 0.702362 0.531273
vt 0.99994 0.762674
vt 0.99994 0.531273
vt 0.581664 0.805157
vt 0.716928 0.995816
vt 0.716928 0.805157
vt 0.538411 0.995816
vt 0.581664 0.765058
vt 0.538411 0.765058
vt 0.581664 0.528476
vt 0.538411 0.5343
vt 0.000862 0.765058
vt 0.000862 0.995816
vt 0.000862 0.5343
vt 0.001023 0.991025
vt 0.001023 0.991025
vt 0.605633 0.991025
vt 0.605633 0.991025
vt 0.80642 0.991025
vt 0.80642 0.991025
vt 0.605633 0.991025
vt 0.605633 0.991025
vt 0.001023 0.991025
vt 0.001023 0.991025
vt 0.527784 0.531273
vt 0.527784 0.531273
vt 6E-05 0.531273
vt 6E-05 0.531273
vt 0 0.460822
vt 0 0.460822
vt 0 0.460822
vt 0 0.460822
vt 0 0.460822
vt 0 0.460822
vt 0 0.519094
vt 0 0.519094
vt 0 0.460822
vt 0 0.519094
vt 0 0.519094
vt 0 0.460822
vt 3.4E-05 0.521415
vt 0.999966 0.521415
vt 0.999966 0.457983
vt 3.4E-05 0.457983
vt 0 0.519094
vt 0 0.519094
vt 0 0.460822
vt 0 0.460822
vt 0 0.460822
vt 0 0.460822
vt 0 0.460822
vt 0 0.460822
vt 0.280716 0.461281
vt 0.250099 0.461281
vt 0.250099 0.518966
vt 0.280716 0.518966
vt 4E-05 0.517223
vt 0.99996 0.517223
vt 0.99996 0.459344
vt 4E-05 0.459344
vt 0 0.460822
vt 0 0.519094
vt 0 0.519094
vt 0 0.460822
vt 0.088868 0.460753
vt 0.003245 0.460753
vt 0.003245 0.487737
vt 0.088868 0.519649
vt 0 0.519094
vt 0 0.519094
vt 0 0.460822
vt 0 0.460822
vt 1.7E-05 0.51543
vt 0.999983 0.515426
vt 0.999983 0.460211
vt 1.7E-05 0.460211
vt 1 0.519094
vt 1 0.519094
vt 0 0.519094
vt 0 0.519094
vt 0 0.460822
vt 0 0.460822
vt 1 0.460822
vt 1 0.460822
vt 0.80642 0.759264
vt 0.605633 0.527503
vt 0.80642 0.527503
vt 0.605633 0.759264
vt 0.80642 0.991025
vt 0.001023 0.527503
vt 0.605633 0.991025
vt 0.001023 0.759264
vt 0.001023 0.991025
vt 6E-05 0.762674
vt 0.527784 0.994075
vt 6E-05 0.994075
vt 0.527784 0.762674
vt 6E-05 0.531273
vt 0.702362 0.994075
vt 0.527784 0.531273
vt 0.702362 0.762674
vt 0.99994 0.994075
vt 0.702362 0.531273
vt 0.99994 0.762674
vt 0.99994 0.531273
vt 0.581664 0.805157
vt 0.716928 0.805157
vt 0.716928 0.995816
vt 0.538411 0.995816
vt 0.581664 0.765058
vt 0.538411 0.765058
vt 0.581664 0.528476
vt 0.538411 0.5343
vt 0.000862 0.765058
vt 0.000862 0.995816
vt 0.000862 0.5343
vt 0.527784 0.531273
vt 6E-05 0.531273
vt 6E-05 0.531273
vt 0.527784 0.531273
vt 0 0.460822
vt 0 0.460822
vt 0 0.460822
vt 0 0.460822
vt 0 0.460822
vt 0 0.519094
vt 0 0.519094
vt 0 0.460822
vt 0 0.460822
vt 0 0.460822
vt 0 0.519094
vt 0 0.519094
vt 3.4E-05 0.521415
vt 3.4E-05 0.457983
vt 0.999966 0.457983
vt 0.999966 0.521415
vt 0 0.519094
vt 0 0.460822
vt 0 0.460822
vt 0 0.519094
vt 0 0.460822
vt 0 0.460822
vt 0 0.460822
vt 0 0.460822
vt 0.280716 0.461281
vt 0.280716 0.518966
vt 0.250099 0.518966
vt 0.250099 0.461281
vt 4E-05 0.517223
vt 4E-05 0.459344
vt 0.99996 0.459344
vt 0.99996 0.517223
vt 0 0.460822
vt 0 0.460822
vt 0 0.519094
vt 0 0.519094
vt 0.088868 0.460753
vt 0.088868 0.519649
vt 0.003245 0.487737
vt 0.003245 0.460753
vt 0 0.519094
vt 0 0.460822
vt 0 0.460822
vt 0 0.519094
vt 1.7E-05 0.51543
vt 1.7E-05 0.460211
vt 0.999983 0.460211
vt 0.999983 0.515426
vn 0 0 1
vn 0 0 1
vn 0 0 1
vn 0 0 1
vn 0 0 1
vn 0 0 1
vn 0 0 1
vn 0 0 1
vn 0 0 1
vn 0 0 1
vn 0 0 1
vn 0 0 1
vn 0 0 1
vn 0 0 1
vn 0 0 1
vn 0 0 1
vn 0 0 1
vn 0 1 0
vn 0 1 0
vn 0 1 0
vn 0 1 0
vn 0 1 0
vn 0 1 0
vn 0 1 0
vn 0 1 0
vn 0 1 0
vn 0 1 0
vn -1 0 0
vn -1 0 0
vn -1 0 0
vn -1 0 0
vn 0 1 0
vn 0 1 0
vn 0 1 0
vn 0 1 0
vn 0 1 0
vn 0 1 0
vn 0 -1 0
vn 0 -1 0
vn 0 -1 0
vn 0 -1 0
vn 0 -1 0
vn 0 -1 0
vn 0 0 1
vn 0 0 1
vn 0 0 1
vn 0 0 1
vn 0 0 1
vn 0 0 1
vn 0 0 1
vn 0 0 1
vn 0 0 1
vn 0 0 1
vn 0 0 1
vn 0 0 1
vn 0 0 1
vn 0 0 1
vn 0 0 1
vn 0 0 1
vn 0 0 1
vn 0 0 1
vn 0 0 1
vn 0 0 1
vn 0 0 1
vn 0 0 1
vn 0 0 1
vn 1 0 0
vn 1 0 0
vn 1 0 0
vn 1 0 0
vn 0 1 0
vn 0 1 0
vn 0 1 0
vn 0 1 0
vn 0 1 0
vn 0 1 0
vn 0 1 0
vn 0 1 0
vn 0 1 0
vn 0 1 0
vn 0 -1 0
vn 0 -1 0
vn 0 -1 0
vn 0 -1 0
vn 0 -1 0
vn 0 -1 0
vn 0 -1 0
vn 0 -1 0
vn 0 -1 0
vn 0 -1 0
vn -1 0 0
vn -1 0 0
vn -1 0 0
vn -1 0 0
vn 0 0 1
vn 0 0 1
vn 0 0 1
vn 0 0 1
vn 0 0 1
vn 0 0 1
vn 1 0 0
vn 1 0 0
vn 1 0 0
vn 1 0 0
vn 0 0 -1
vn 0 0 -1
vn 0 0 -1
vn 0 0 -1
vn 0 0 -1
vn 0 0 -1
vn 0 1 0
vn 0 1 0
vn 0 1 0
vn 0 1 0
vn 0 1 0
vn 0 1 0
vn 0 1 0
vn 0 1 0
vn 0 1 0
vn 1 0 0
vn 1 0 0
vn 1 0 0
vn 1 0 0
vn 1 0 0
vn 1 0 0
vn 1 0 0
vn 1 0 0
vn 1 0 0
vn 1 0 0
vn 1 0 0
vn 1 0 0
vn 0 -1 0
vn 0 -1 0
vn 0 -1 0
vn 0 -1 0
vn 0 -1 0
vn 0 -1 0
vn 0 -1 0
vn 0 -1 0
vn 0 -1 0
vn 0 -1 0
vn 0 -1 0
vn 0 -1 0
vn 0 -1 0
vn 0 -1 0
vn 0 -1 0
vn 0 -1 0
vn 0 -1 0
vn 0 -1 0
vn 0 -1 0
vn 0 -1 0
vn 0 -1 0
vn -1 0 0
vn -1 0 0
vn -1 0 0
vn -1 0 0
vn 0 0 -1
vn 0 0 -1
vn 0 0 -1
vn 0 0 -1
vn 1 0 0
vn 1 0 0
vn 1 0 0
vn 1 0 0
vn 0 -1 0
vn 0 -1 0
vn 0 -1 0
vn 0 -1 0
vn 0 1 0
vn 0 1 0
vn 0 1 0
vn 0 1 0
vn -1 0 0
vn -1 0 0
vn -1 0 0
vn -1 0 0
vn 0 0.008887309 -0.9999605
vn 0 0.008887309 -0.9999605
vn 0 0.008887309 -0.9999605
vn 0 0.008887309 -0.9999605
vn 0 1 0
vn 0 1 0
vn 0 0.6462641 0.7631138
vn 0 0.6462641 0.7631138
vn 0 0.435746 0.9000697
vn 0 0.6462641 0.7631138
vn 0 0.6462641 0.7631138
vn 0 0.435746 0.9000697
vn 1 0 0
vn 1 0 0
vn 1 0 0
vn 1 0 0
vn -1 0 0
vn -1 0 0
vn -1 0 0
vn -1 0 0
vn 0 -1 0
vn 0 -1 0
vn 0 -1 0
vn 0 -1 0
vn 0 0 1
vn 0 0 1
vn 0 0 1
vn 0 0 1
vn 1 0 0
vn 1 0 0
vn 1 0 0
vn 1 0 0
vn -1 0 0
vn -1 0 0
vn -1 0 0
vn -1 0 0
vn 0 1 0
vn 0 1 0
vn 0 1 0
vn 0 1 0
vn 0 1 0
vn 0 1 0
vn 0 1 0
vn 0 1 0
vn 0 1 0
vn -1 0 0
vn -1 0 0
vn -1 0 0
vn -1 0 0
vn -1 0 0
vn -1 0 0
vn -1 0 0
vn -1 0 0
vn -1 0 0
vn -1 0 0
vn -1 0 0
vn -1 0 0
vn 0 -1 0
vn 0 -1 0
vn 0 -1 0
vn 0 -1 0
vn 0 -1 0
vn 0 -1 0
vn 0 -1 0
vn 0 -1 0
vn 0 -1 0
vn 0 -1 0
vn 0 -1 0
vn 1 0 0
vn 1 0 0
vn 1 0 0
vn 1 0 0
vn 0 0 -1
vn 0 0 -1
vn 0 0 -1
vn 0 0 -1
vn -1 0 0
vn -1 0 0
vn -1 0 0
vn -1 0 0
vn 0 -1 0
vn 0 -1 0
vn 0 -1 0
vn 0 -1 0
vn 0 1 0
vn 0 1 0
vn 0 1 0
vn 0 1 0
vn 1 0 0
vn 1 0 0
vn 1 0 0
vn 1 0 0
vn 0 0.008887309 -0.9999605
vn 0 0.008887309 -0.9999605
vn 0 0.008887309 -0.9999605
vn 0 0.008887309 -0.9999605
vn 0 1 0
vn 0 0.6462641 0.7631138
vn 0 0.6462641 0.7631138
vn 0 1 0
vn 0 0.435746 0.9000697
vn 0 0.435746 0.9000697
vn 0 0.6462641 0.7631138
vn 0 0.6462641 0.7631138
vn -1 0 0
vn -1 0 0
vn -1 0 0
vn -1 0 0
vn 1 0 0
vn 1 0 0
vn 1 0 0
vn 1 0 0
vn 0 -1 0
vn 0 -1 0
vn 0 -1 0
vn 0 -1 0
vn 0 0 1
vn 0 0 1
vn 0 0 1
vn 0 0 1
g FurnitureShopInterior_0
f 3/3/3 2/2/2 1/1/1
f 4/4/4 3/3/3 1/1/1
f 4/4/4 1/1/1 5/5/5
f 6/6/6 4/4/4 5/5/5
f 7/7/7 4/4/4 6/6/6
f 8/8/8 7/7/7 6/6/6
f 7/7/7 9/9/9 4/4/4
f 9/9/9 3/3/3 4/4/4
f 9/9/9 10/10/10 3/3/3
f 10/10/10 11/11/11 3/3/3
f 14/14/14 13/13/13 12/12/12
f 15/15/15 14/14/14 12/12/12
f 16/16/16 14/14/14 15/15/15
f 17/17/17 16/16/16 15/15/15
f 20/20/20 19/19/19 18/18/18
f 19/19/19 21/21/21 18/18/18
f 18/18/18 21/21/21 22/22/22
f 21/21/21 23/23/23 22/22/22
f 23/23/23 24/24/24 22/22/22
f 24/24/24 25/25/25 22/22/22
f 24/24/24 26/26/26 25/25/25
f 26/26/26 27/27/27 25/25/25
f 30/30/30 29/29/29 28/28/28
f 31/31/31 30/30/30 28/28/28
f 34/34/34 33/33/33 32/32/32
f 33/33/33 35/35/35 32/32/32
f 35/35/35 36/36/36 32/32/32
f 36/36/36 37/37/37 32/32/32
f 40/40/40 39/39/39 38/38/38
f 41/41/41 40/40/40 38/38/38
f 42/42/42 41/41/41 38/38/38
f 43/43/43 42/42/42 38/38/38
f 46/46/46 45/45/45 44/44/44
f 47/47/47 46/46/46 44/44/44
f 46/46/46 47/47/47 48/48/48
f 49/49/49 46/46/46 48/48/48
f 52/52/52 51/51/51 50/50/50
f 51/51/51 53/53/53 50/50/50
f 50/50/50 53/53/53 54/54/54
f 53/53/53 55/55/55 54/54/54
f 53/53/53 56/56/56 55/55/55
f 56/56/56 57/57/57 55/55/55
f 58/58/58 56/56/56 53/53/53
f 51/51/51 58/58/58 53/53/53
f 59/59/59 58/58/58 51/51/51
f 60/60/60 59/59/59 51/51/51
f 63/63/63 62/62/62 61/61/61
f 62/62/62 64/64/64 61/61/61
f 62/62/62 65/65/65 64/64/64
f 65/65/65 66/66/66 64/64/64
f 69/69/69 68/68/68 67/67/67
f 70/70/70 69/69/69 67/67/67
g FurnitureShopInterior_1
f 73/73/73 72/72/72 71/71/71
f 72/72/72 74/74/74 71/71/71
f 74/74/74 75/75/75 71/71/71
f 75/75/75 76/76/76 71/71/71
f 76/76/76 75/75/75 77/77/77
f 75/75/75 78/78/78 77/77/77
f 78/78/78 79/79/79 77/77/77
f 79/79/79 80/80/80 77/77/77
f 83/83/83 82/82/82 81/81/81
f 84/84/84 83/83/83 81/81/81
f 85/85/85 84/84/84 81/81/81
f 86/86/86 85/85/85 81/81/81
f 85/85/85 86/86/86 87/87/87
f 88/88/88 85/85/85 87/87/87
f 89/89/89 88/88/88 87/87/87
f 90/90/90 89/89/89 87/87/87
f 93/93/93 92/92/92 91/91/91
f 94/94/94 93/93/93 91/91/91
f 97/97/97 96/96/96 95/95/95
f 96/96/96 98/98/98 95/95/95
f 98/98/98 96/96/96 99/99/99
f 96/96/96 100/100/100 99/99/99
f 103/103/103 102/102/102 101/101/101
f 104/104/104 103/103/103 101/101/101
f 107/107/107 106/106/106 105/105/105
f 108/108/108 107/107/107 105/105/105
f 109/109/109 108/108/108 105/105/105
f 110/110/110 109/109/109 105/105/105
f 113/113/113 112/112/112 111/111/111
f 114/114/114 113/113/113 111/111/111
f 114/114/114 111/111/111 115/115/115
f 116/116/116 113/113/113 114/114/114
f 117/117/117 114/114/114 115/115/115
f 118/118/118 116/116/116 114/114/114
f 118/118/118 114/114/114 117/117/117
f 119/119/119 118/118/118 117/117/117
f 122/122/122 121/121/121 120/120/120
f 123/123/123 122/122/122 120/120/120
f 123/123/123 120/120/120 124/124/124
f 125/125/125 122/122/122 123/123/123
f 126/126/126 123/123/123 124/124/124
f 127/127/127 125/125/125 123/123/123
f 127/127/127 123/123/123 126/126/126
f 128/128/128 125/125/125 127/127/127
f 129/129/129 127/127/127 126/126/126
f 130/130/130 128/128/128 127/127/127
f 130/130/130 127/127/127 129/129/129
f 131/131/131 130/130/130 129/129/129
f 134/134/134 133/133/133 132/132/132
f 133/133/133 135/135/135 132/132/132
f 132/132/132 135/135/135 136/136/136
f 135/135/135 137/137/137 136/136/136
f 136/136/136 137/137/137 138/138/138
f 137/137/137 139/139/139 138/138/138
f 137/137/137 135/135/135 140/140/140
f 137/137/137 140/140/140 139/139/139
f 135/135/135 141/141/141 140/140/140
f 140/140/140 142/142/142 139/139/139
f 145/145/145 144/144/144 143/143/143
f 146/146/146 145/145/145 143/143/143
f 147/147/147 145/145/145 146/146/146
f 148/148/148 147/147/147 146/146/146
f 147/147/147 148/148/148 149/149/149
f 150/150/150 147/147/147 149/149/149
f 150/150/150 149/149/149 151/151/151
f 152/152/152 150/150/150 151/151/151
f 155/155/155 154/154/154 153/153/153
f 156/156/156 155/155/155 153/153/153
f 159/159/159 158/158/158 157/157/157
f 160/160/160 159/159/159 157/157/157
f 163/163/163 162/162/162 161/161/161
f 164/164/164 163/163/163 161/161/161
f 167/167/167 166/166/166 165/165/165
f 168/168/168 167/167/167 165/165/165
f 171/171/171 170/170/170 169/169/169
f 172/172/172 171/171/171 169/169/169
f 175/175/175 174/174/174 173/173/173
f 176/176/176 175/175/175 173/173/173
f 179/179/179 178/178/178 177/177/177
f 180/180/180 179/179/179 177/177/177
f 183/183/183 182/182/182 181/181/181
f 184/184/184 183/183/183 181/181/181
f 187/187/187 186/186/186 185/185/185
f 188/188/188 187/187/187 185/185/185
f 191/191/191 190/190/190 189/189/189
f 192/192/192 191/191/191 189/189/189
f 195/195/195 194/194/194 193/193/193
f 196/196/196 195/195/195 193/193/193
f 199/199/199 198/198/198 197/197/197
f 200/200/200 199/199/199 197/197/197
f 203/203/203 202/202/202 201/201/201
f 204/204/204 203/203/203 201/201/201
f 207/207/207 206/206/206 205/205/205
f 208/208/208 207/207/207 205/205/205
f 211/211/211 210/210/210 209/209/209
f 212/212/212 211/211/211 209/209/209
f 215/215/215 214/214/214 213/213/213
f 214/214/214 216/216/216 213/213/213
f 213/213/213 216/216/216 217/217/217
f 214/214/214 218/218/218 216/216/216
f 216/216/216 219/219/219 217/217/217
f 218/218/218 220/220/220 216/216/216
f 216/216/216 220/220/220 219/219/219
f 220/220/220 221/221/221 219/219/219
f 224/224/224 223/223/223 222/222/222
f 223/223/223 225/225/225 222/222/222
f 222/222/222 225/225/225 226/226/226
f 223/223/223 227/227/227 225/225/225
f 225/225/225 228/228/228 226/226/226
f 227/227/227 229/229/229 225/225/225
f 225/225/225 229/229/229 228/228/228
f 227/227/227 230/230/230 229/229/229
f 229/229/229 231/231/231 228/228/228
f 230/230/230 232/232/232 229/229/229
f 229/229/229 232/232/232 231/231/231
f 232/232/232 233/233/233 231/231/231
f 236/236/236 235/235/235 234/234/234
f 237/237/237 236/236/236 234/234/234
f 237/237/237 234/234/234 238/238/238
f 239/239/239 237/237/237 238/238/238
f 239/239/239 238/238/238 240/240/240
f 241/241/241 239/239/239 240/240/240
f 237/237/237 239/239/239 242/242/242
f 242/242/242 239/239/239 241/241/241
f 243/243/243 237/237/237 242/242/242
f 244/244/244 242/242/242 241/241/241
f 247/247/247 246/246/246 245/245/245
f 248/248/248 247/247/247 245/245/245
f 251/251/251 250/250/250 249/249/249
f 252/252/252 251/251/251 249/249/249
f 255/255/255 254/254/254 253/253/253
f 256/256/256 255/255/255 253/253/253
f 259/259/259 258/258/258 257/257/257
f 260/260/260 259/259/259 257/257/257
f 263/263/263 262/262/262 261/261/261
f 264/264/264 263/263/263 261/261/261
f 267/267/267 266/266/266 265/265/265
f 268/268/268 267/267/267 265/265/265
f 271/271/271 270/270/270 269/269/269
f 272/272/272 271/271/271 269/269/269
f 275/275/275 274/274/274 273/273/273
f 276/276/276 275/275/275 273/273/273
f 279/279/279 278/278/278 277/277/277
f 280/280/280 279/279/279 277/277/277
f 283/283/283 282/282/282 281/281/281
f 284/284/284 283/283/283 281/281/281
f 287/287/287 286/286/286 285/285/285
f 288/288/288 287/287/287 285/285/285
f 291/291/291 290/290/290 289/289/289
f 292/292/292 291/291/291 289/289/289
f 295/295/295 294/294/294 293/293/293
f 296/296/296 295/295/295 293/293/293
