g Grass_Impostor
v 1.30928 -1.095861 0
v 0.5703293 -1.543778 0
v -0.6301689 -1.543778 0
v -1.30928 -1.019284 0
v -1.30928 0.1715619 0
v -0.6458104 1.074782 0
v 0.6379168 1.074782 0
v 1.30928 0.1835579 0
vt 0 0.1710547
vt 0.2821973 0
vt 0.7406548 0
vt 1 0.2002984
vt 1 0.6550699
vt 0.7466281 1
vt 0.2563864 1
vt 0 0.659651
vn 0 0 -1
vn 0 0 -1
vn 0 0 -1
vn 0 0 -1
vn 0 0 -0.9999999
vn 0 0 -1
vn 0 0 -1
vn 0 0 -1
g Grass_Impostor_0
f 4/4/4 6/6/6 8/8/8
f 8/8/8 2/2/2 4/4/4
f 6/6/6 7/7/7 8/8/8
f 4/4/4 5/5/5 6/6/6
f 2/2/2 3/3/3 4/4/4
f 8/8/8 1/1/1 2/2/2
