g Greenbean
v 0 -0.034039 -1.255914
v -0.003253 -0.069211 -1.207462
v -0.042361 -0.048139 -1.169778
v -0.049581 -0.022883 -1.207462
v -0.075102 0.020714 -1.062108
v -0.062486 -0.031917 -1.062108
v -0.070905 0.005854 -0.84597
v -0.03509 0.027852 -1.169778
v -0.085221 0.065576 -0.84597
v -0.088594 0.080531 -0.585167
v -0.056926 0.128801 -0.84597
v -0.073711 0.018445 -0.585167
v -0.069762 0.013677 -0.335521
v -0.050167 0.076431 -1.062108
v 0.004928 0.103234 -1.062108
v 0.003253 0.031595 -1.207462
v 0.040171 0.036961 -1.169778
v 0.049581 -0.014733 -1.207462
v 0.075102 0.033059 -1.062108
v 0.057559 0.091862 -1.062108
v 0.065314 0.146311 -0.84597
v 0.085221 0.079585 -0.84597
v 0.088594 0.095093 -0.585167
v 0.005591 0.159214 -0.84597
v 0.005813 0.177874 -0.585167
v 0.067899 0.16446 -0.585167
v 0.06426 0.151869 -0.335521
v -0.059179 0.146257 -0.585167
v -0.056008 0.134641 -0.335521
v 0.005501 0.164564 -0.335521
v 0.004567 0.124633 -0.152857
v -0.083847 0.072436 -0.335521
v -0.069605 0.048153 -0.152857
v -0.057913 -0.000626 -0.152857
v -0.042245 -0.013967 -0.035981
v -0.046496 0.099793 -0.152857
v -0.033898 0.059446 -0.035981
v -0.050776 0.021696 -0.035981
v -0.032266 0.007077 0.016299
v -0.026838 -0.015849 0.016299
v -0.015381 -0.018528 0.063149
v -0.018502 -0.00501 0.063149
v -0.013914 -0.023876 0.163735
v -0.012217 0.009279 0.063149
v -0.011562 -0.034257 0.163735
v -0.008328 -0.043799 0.234543
v -0.021472 0.031337 0.016299
v 0.002324 0.042976 0.016299
v 0.003383 0.077599 -0.035981
v 0.038995 0.069888 -0.035981
v 0.053346 0.114094 -0.152857
v 0.069605 0.059595 -0.152857
v 0.083847 0.086219 -0.335521
v 0.06151 0.017123 -0.335521
v 0.064992 0.022085 -0.585167
v 0.051062 0.002235 -0.152857
v 0.037325 -0.011878 -0.035981
v 0.050865 0.030049 -0.035981
v 0.032621 0.012407 0.016299
v 0.037325 -0.011878 -0.035981
v 0.025046 0.037999 0.016299
v 0.014736 0.013138 0.063149
v 0.001576 0.0161 0.063149
v 0.001327 -0.007695 0.163735
v -0.009132 -0.012909 0.163735
v -0.006817 -0.027639 0.234543
v -0.010347 -0.040274 0.259326
v 0.000355 -0.04496 0.291189
v -0.000374 -0.050655 0.259326
v 0.001084 -0.028138 0.259326
v 0.008606 -0.02582 0.234543
v 0.011057 -0.038519 0.259326
v 0.014624 -0.021536 0.163735
v 0.0113 -0.009985 0.163735
v 0.019123 -0.001923 0.063149
v 0.014104 -0.017756 0.063149
v 0.023973 -0.014517 0.016299
v 0.014104 -0.017756 0.063149
v 0.010814 -0.033672 0.163735
v -0.000617 -0.037718 0.163735
v 0.007958 -0.043019 0.234543
v -0.000374 -0.050655 0.259326
v -0.008328 -0.043799 0.234543
v -0.011562 -0.034257 0.163735
v -0.015381 -0.018528 0.063149
v -0.000955 -0.023034 0.063149
v -0.001969 -0.023492 0.016299
v -0.026838 -0.015849 0.016299
v 0.023973 -0.014517 0.016299
v -0.042245 -0.013967 -0.035981
v -0.003294 -0.025854 -0.035981
v -0.004567 -0.016885 -0.152857
v -0.057913 -0.000626 -0.152857
v 0.051062 0.002235 -0.152857
v -0.069762 0.013677 -0.335521
v 0.06151 0.017123 -0.335521
v -0.005501 -0.005909 -0.335521
v -0.005813 -0.002251 -0.585167
v -0.073711 0.018445 -0.585167
v 0.064992 0.022085 -0.585167
v 0.062518 0.009356 -0.84597
v 0.088594 0.095093 -0.585167
v 0.085221 0.079585 -0.84597
v -0.070905 0.005854 -0.84597
v 0.075102 0.033059 -1.062108
v -0.005591 -0.014053 -0.84597
v -0.004928 -0.049461 -1.062108
v -0.062486 -0.031917 -1.062108
v -0.042361 -0.048139 -1.169778
v -0.003253 -0.069211 -1.207462
v 0.03728 -0.044517 -1.169778
v 0.055095 -0.028831 -1.062108
v 0.03728 -0.044517 -1.169778
v 0 -0.034039 -1.255914
v 0.049581 -0.014733 -1.207462
v 0.000355 -0.04496 0.291189
v 0.007958 -0.043019 0.234543
v 0.011057 -0.038519 0.259326
v 0.011057 -0.038519 0.259326
v 0.010814 -0.033672 0.163735
vt 0.275133 0.960751
vt 0.275133 0.961071
vt 0.278966 0.965268
vt 0.278966 0.964674
vt 0.290464 0.966693
vt 0.290464 0.967472
vt 0.307562 0.968378
vt 0.281947 0.963527
vt 0.307562 0.967493
vt 0.328194 0.96776
vt 0.307562 0.965255
vt 0.328194 0.96868
vt 0.347943 0.968255
vt 0.290464 0.96472
vt 0.290464 0.960362
vt 0.278966 0.960494
vt 0.281947 0.957574
vt 0.278966 0.956829
vt 0.290464 0.95481
vt 0.290464 0.956198
vt 0.307562 0.955585
vt 0.307562 0.95401
vt 0.328194 0.953743
vt 0.307562 0.960309
vt 0.328194 0.960292
vt 0.328194 0.95538
vt 0.347943 0.955668
vt 0.328194 0.965433
vt 0.347943 0.965182
vt 0.347943 0.960316
vt 0.362393 0.96039
vt 0.347943 0.967384
vt 0.362393 0.966258
vt 0.362393 0.96698
vt 0.371639 0.965297
vt 0.362393 0.96443
vt 0.371639 0.963433
vt 0.371639 0.964768
vt 0.375774 0.963304
vt 0.375774 0.963644
vt 0.379481 0.962415
vt 0.379481 0.962215
vt 0.387438 0.961852
vt 0.379481 0.961718
vt 0.387438 0.962006
vt 0.395 0.961704
vt 0.375774 0.96245
vt 0.375774 0.960568
vt 0.371639 0.960484
vt 0.371639 0.957667
vt 0.362393 0.956531
vt 0.362393 0.955245
vt 0.347943 0.954119
vt 0.347943 0.954119
vt 0.328194 0.953743
vt 0.362393 0.955245
vt 0.371639 0.956728
vt 0.371639 0.956728
vt 0.375774 0.958171
vt 0.371639 0.956728
vt 0.375774 0.95877
vt 0.379481 0.959586
vt 0.379481 0.960627
vt 0.387438 0.960647
vt 0.387438 0.961474
vt 0.393039 0.961291
vt 0.395 0.96157
vt 0.39752 0.960723
vt 0.39752 0.9608
vt 0.395 0.960666
vt 0.393039 0.960071
vt 0.395 0.959877
vt 0.387438 0.959595
vt 0.387438 0.959858
vt 0.379481 0.959239
vt 0.379481 0.959239
vt 0.375774 0.958171
vt 0.379481 0.959239
vt 0.387438 0.959595
vt 0.387438 0.9608
vt 0.39752 0.959595
vt 0.39752 0.9608
vt 0.39752 0.962006
vt 0.387438 0.962006
vt 0.379481 0.962415
vt 0.379481 0.960827
vt 0.375774 0.960907
vt 0.375774 0.963644
vt 0.375774 0.958171
vt 0.371639 0.965297
vt 0.371639 0.961012
vt 0.362393 0.961113
vt 0.362393 0.96698
vt 0.362393 0.955245
vt 0.347943 0.968255
vt 0.347943 0.954119
vt 0.347943 0.961187
vt 0.328194 0.961211
vt 0.328194 0.96868
vt 0.328194 0.953743
vt 0.307562 0.95401
vt 0.328194 0.953743
vt 0.307562 0.95401
vt 0.307562 0.968378
vt 0.290464 0.95481
vt 0.307562 0.961194
vt 0.290464 0.961141
vt 0.290464 0.967472
vt 0.275133 0.966265
vt 0.275133 0.961071
vt 0.275133 0.955878
vt 0.290464 0.95481
vt 0.278966 0.956909
vt 0.275133 0.960751
vt 0.278966 0.956829
vt 0.39752 0.960723
vt 0.395 0.959896
vt 0.395 0.959877
vt 0.395 0.959877
vt 0.387438 0.959595
vn -0.009392754 0.09427821 0.9955016
vn -0.0460231 0.9780771 0.2030939
vn 0.6950206 0.717265 0.04977283
vn 0.8801107 -0.05471833 0.4716048
vn 0.9879735 -0.1017014 0.1164703
vn 0.6967769 0.7141289 -0.06724566
vn 0.7152513 0.696759 -0.05424372
vn 0.6632568 -0.6293238 0.4050211
vn 0.9912986 -0.1239458 0.04432114
vn 0.9925524 -0.1218162 -0.0008205905
vn 0.7071135 -0.6981472 0.1121648
vn 0.7145296 0.6994964 -0.0123325
vn 0.7126232 0.7015356 0.003989676
vn 0.7025465 -0.6690384 0.2425201
vn 0.1319089 -0.9413407 0.3106086
vn 0.07591711 -0.7642197 0.6404724
vn -0.6432375 -0.6270418 0.4393905
vn -0.8963881 0.04336692 0.4411437
vn -0.9958004 0.02851667 0.08699648
vn -0.6914359 -0.6745994 0.2585188
vn -0.6931474 -0.7109918 0.1184797
vn -0.9995564 0.009388396 0.0282639
vn -0.9999323 0.01132864 -0.002665026
vn 0.1384161 -0.9795054 0.1463219
vn 0.1400184 -0.9900929 0.01052846
vn -0.6996362 -0.7144694 0.006518504
vn -0.6981938 -0.7088932 -0.09997871
vn 0.7126915 -0.7014432 0.006937859
vn 0.7111597 -0.6970826 -0.09125593
vn 0.1393367 -0.9836601 -0.1140096
vn 0.1372719 -0.9552841 -0.2618946
vn 0.9915869 -0.1190118 -0.05090815
vn 0.9864224 -0.1092478 -0.1226205
vn 0.7050628 0.7091446 0.0006167583
vn 0.6887187 0.723426 -0.04818128
vn 0.7032492 -0.6786435 -0.2118571
vn 0.6862454 -0.6427936 -0.3404166
vn 0.9714399 -0.09006295 -0.2195293
vn 0.9367115 -0.09346822 -0.3373945
vn 0.6859372 0.7099352 -0.159631
vn 0.7152063 0.6988682 -0.007943778
vn 0.9784182 -0.1140513 -0.1723084
vn 0.9928197 -0.1018169 -0.06278725
vn 0.6923254 -0.6599442 -0.2918204
vn 0.7080572 0.7016949 0.07924195
vn 0.7189029 0.6922867 0.0625914
vn 0.6470552 -0.6082739 -0.4596981
vn 0.1247941 -0.8383366 -0.530677
vn 0.1332834 -0.9026185 -0.4092863
vn -0.6721385 -0.6406894 -0.3711429
vn -0.6902446 -0.6855039 -0.2316177
vn -0.9945588 0.02298315 -0.1016099
vn -0.9990343 0.01364983 -0.04176454
vn -0.7225838 0.6912423 0.007540351
vn -0.7242616 0.6894217 -0.01195175
vn -0.7160062 0.69803 0.009443375
vn -0.7021471 0.7113461 -0.03124136
vn -0.9812919 0.04098351 -0.1881131
vn -0.9532131 0.03678172 -0.3000531
vn -0.7021471 0.7113461 -0.03124136
vn -0.6223202 -0.5959007 -0.5075626
vn -0.6766492 -0.6600744 -0.3262634
vn 0.134781 -0.9232312 -0.3598309
vn 0.1350349 -0.9654453 -0.2228925
vn 0.722605 -0.6713006 -0.1649169
vn 0.7186922 -0.6753935 -0.1653032
vn 0.9721709 -0.0652351 -0.2250066
vn 0 0.09704342 -0.9952801
vn -0.06601015 0.9960617 -0.05919256
vn 0.08056767 -0.9235762 -0.3748544
vn -0.709944 -0.6817387 -0.176669
vn -0.9770537 0.05099262 -0.206799
vn -0.998774 0.03101885 -0.03857984
vn -0.7165882 -0.6751837 -0.1750095
vn -0.9899013 0.02196354 -0.1400461
vn -0.7239048 0.6898593 0.007473022
vn -0.7011873 0.7013915 -0.1280092
vn -0.7239048 0.6898593 0.007473022
vn -0.7160237 0.6932539 0.08190937
vn -0.03013874 0.9900855 0.1371953
vn -0.7248288 0.6859055 0.0644742
vn -0.06601015 0.9960617 -0.05919256
vn 0.7189029 0.6922867 0.0625914
vn 0.7080572 0.7016949 0.07924195
vn 0.7152063 0.6988682 -0.007943778
vn -0.02776224 0.9963098 0.0812152
vn -0.02796098 0.9990743 -0.03269103
vn 0.6859372 0.7099352 -0.159631
vn -0.7011873 0.7013915 -0.1280092
vn 0.6887187 0.723426 -0.04818128
vn -0.0264255 0.9985027 0.04789576
vn -0.0260913 0.9974953 0.06574505
vn 0.7050628 0.7091446 0.0006167583
vn -0.7160062 0.69803 0.009443375
vn 0.7126232 0.7015356 0.003989676
vn -0.7225838 0.6912423 0.007540351
vn -0.02603127 0.9991238 0.03277235
vn -0.02613393 0.9995279 -0.01615098
vn 0.7145296 0.6994964 -0.0123325
vn -0.7242616 0.6894217 -0.01195175
vn -0.7246789 0.6867988 -0.05610589
vn -0.9999323 0.01132864 -0.002665026
vn -0.9995564 0.009388396 0.0282639
vn 0.7152513 0.696759 -0.05424372
vn -0.9958004 0.02851667 0.08699648
vn -0.02610296 0.9949084 -0.097344
vn -0.02825114 0.9889051 -0.1458375
vn 0.6967769 0.7141289 -0.06724566
vn 0.6950206 0.717265 0.04977283
vn -0.0460231 0.9780771 0.2030939
vn -0.7051722 0.7080333 0.03769581
vn -0.7075902 0.7028736 -0.07269793
vn -0.7051722 0.7080333 0.03769581
vn -0.009392754 0.09427821 0.9955016
vn -0.8963881 0.04336692 0.4411437
vn 0 0.09704342 -0.9952801
vn -0.7248288 0.6859055 0.0644742
vn -0.9770537 0.05099262 -0.206799
vn -0.9770537 0.05099262 -0.206799
vn -0.7160237 0.6932539 0.08190937
g Greenbean_0
f 3/3/3 2/2/2 1/1/1
f 4/4/4 3/3/3 1/1/1
f 3/3/3 4/4/4 5/5/5
f 6/6/6 3/3/3 5/5/5
f 7/7/7 6/6/6 5/5/5
f 8/8/8 4/4/4 1/1/1
f 4/4/4 8/8/8 5/5/5
f 9/9/9 7/7/7 5/5/5
f 7/7/7 9/9/9 10/10/10
f 11/11/11 9/9/9 5/5/5
f 9/9/9 11/11/11 10/10/10
f 12/12/12 7/7/7 10/10/10
f 13/13/13 12/12/12 10/10/10
f 8/8/8 14/14/14 5/5/5
f 14/14/14 11/11/11 5/5/5
f 14/14/14 8/8/8 15/15/15
f 11/11/11 14/14/14 15/15/15
f 16/16/16 8/8/8 1/1/1
f 8/8/8 16/16/16 15/15/15
f 17/17/17 16/16/16 1/1/1
f 16/16/16 17/17/17 15/15/15
f 18/18/18 17/17/17 1/1/1
f 17/17/17 18/18/18 19/19/19
f 20/20/20 17/17/17 19/19/19
f 17/17/17 20/20/20 15/15/15
f 21/21/21 20/20/20 19/19/19
f 20/20/20 21/21/21 15/15/15
f 22/22/22 21/21/21 19/19/19
f 21/21/21 22/22/22 23/23/23
f 24/24/24 11/11/11 15/15/15
f 21/21/21 24/24/24 15/15/15
f 11/11/11 24/24/24 25/25/25
f 24/24/24 21/21/21 25/25/25
f 26/26/26 21/21/21 23/23/23
f 21/21/21 26/26/26 25/25/25
f 27/27/27 26/26/26 23/23/23
f 26/26/26 27/27/27 25/25/25
f 28/28/28 11/11/11 25/25/25
f 29/29/29 28/28/28 25/25/25
f 11/11/11 28/28/28 10/10/10
f 28/28/28 29/29/29 10/10/10
f 27/27/27 30/30/30 25/25/25
f 30/30/30 29/29/29 25/25/25
f 30/30/30 27/27/27 31/31/31
f 29/29/29 30/30/30 31/31/31
f 29/29/29 32/32/32 10/10/10
f 32/32/32 29/29/29 33/33/33
f 32/32/32 13/13/13 10/10/10
f 13/13/13 32/32/32 33/33/33
f 34/34/34 13/13/13 33/33/33
f 35/35/35 34/34/34 33/33/33
f 36/36/36 29/29/29 31/31/31
f 29/29/29 36/36/36 33/33/33
f 36/36/36 37/37/37 33/33/33
f 37/37/37 36/36/36 31/31/31
f 38/38/38 35/35/35 33/33/33
f 37/37/37 38/38/38 33/33/33
f 35/35/35 38/38/38 39/39/39
f 38/38/38 37/37/37 39/39/39
f 40/40/40 35/35/35 39/39/39
f 41/41/41 40/40/40 39/39/39
f 42/42/42 41/41/41 39/39/39
f 41/41/41 42/42/42 43/43/43
f 44/44/44 42/42/42 39/39/39
f 42/42/42 44/44/44 43/43/43
f 45/45/45 41/41/41 43/43/43
f 46/46/46 45/45/45 43/43/43
f 37/37/37 47/47/47 39/39/39
f 47/47/47 44/44/44 39/39/39
f 47/47/47 37/37/37 48/48/48
f 44/44/44 47/47/47 48/48/48
f 49/49/49 37/37/37 31/31/31
f 37/37/37 49/49/49 48/48/48
f 50/50/50 49/49/49 31/31/31
f 49/49/49 50/50/50 48/48/48
f 51/51/51 50/50/50 31/31/31
f 50/50/50 51/51/51 52/52/52
f 27/27/27 51/51/51 31/31/31
f 51/51/51 27/27/27 52/52/52
f 27/27/27 53/53/53 52/52/52
f 53/53/53 27/27/27 23/23/23
f 54/54/54 53/53/53 23/23/23
f 53/53/53 54/54/54 52/52/52
f 55/55/55 54/54/54 23/23/23
f 54/54/54 56/56/56 52/52/52
f 56/56/56 57/57/57 52/52/52
f 57/57/57 58/58/58 52/52/52
f 58/58/58 50/50/50 52/52/52
f 50/50/50 58/58/58 59/59/59
f 58/58/58 60/60/60 59/59/59
f 50/50/50 61/61/61 48/48/48
f 61/61/61 50/50/50 59/59/59
f 61/61/61 62/62/62 48/48/48
f 62/62/62 61/61/61 59/59/59
f 62/62/62 63/63/63 48/48/48
f 63/63/63 62/62/62 64/64/64
f 63/63/63 44/44/44 48/48/48
f 44/44/44 63/63/63 64/64/64
f 65/65/65 44/44/44 64/64/64
f 44/44/44 65/65/65 43/43/43
f 65/65/65 66/66/66 43/43/43
f 66/66/66 65/65/65 64/64/64
f 66/66/66 67/67/67 43/43/43
f 67/67/67 46/46/46 43/43/43
f 46/46/46 67/67/67 68/68/68
f 67/67/67 66/66/66 68/68/68
f 69/69/69 46/46/46 68/68/68
f 66/66/66 70/70/70 68/68/68
f 70/70/70 66/66/66 64/64/64
f 70/70/70 71/71/71 68/68/68
f 71/71/71 70/70/70 64/64/64
f 71/71/71 72/72/72 68/68/68
f 72/72/72 71/71/71 73/73/73
f 74/74/74 71/71/71 64/64/64
f 71/71/71 74/74/74 73/73/73
f 62/62/62 74/74/74 64/64/64
f 74/74/74 62/62/62 73/73/73
f 62/62/62 75/75/75 73/73/73
f 75/75/75 62/62/62 59/59/59
f 76/76/76 75/75/75 59/59/59
f 77/77/77 76/76/76 59/59/59
f 75/75/75 78/78/78 73/73/73
f 78/78/78 79/79/79 73/73/73
f 79/79/79 78/78/78 80/80/80
f 81/81/81 79/79/79 80/80/80
f 82/82/82 81/81/81 80/80/80
f 83/83/83 82/82/82 80/80/80
f 84/84/84 83/83/83 80/80/80
f 85/85/85 84/84/84 80/80/80
f 78/78/78 86/86/86 80/80/80
f 86/86/86 85/85/85 80/80/80
f 86/86/86 78/78/78 87/87/87
f 85/85/85 86/86/86 87/87/87
f 88/88/88 85/85/85 87/87/87
f 78/78/78 89/89/89 87/87/87
f 90/90/90 88/88/88 87/87/87
f 89/89/89 60/60/60 87/87/87
f 60/60/60 89/89/89 59/59/59
f 91/91/91 90/90/90 87/87/87
f 60/60/60 91/91/91 87/87/87
f 90/90/90 91/91/91 92/92/92
f 91/91/91 60/60/60 92/92/92
f 93/93/93 90/90/90 92/92/92
f 60/60/60 94/94/94 92/92/92
f 95/95/95 93/93/93 92/92/92
f 94/94/94 96/96/96 92/92/92
f 97/97/97 95/95/95 92/92/92
f 96/96/96 97/97/97 92/92/92
f 95/95/95 97/97/97 98/98/98
f 97/97/97 96/96/96 98/98/98
f 99/99/99 95/95/95 98/98/98
f 96/96/96 100/100/100 98/98/98
f 100/100/100 101/101/101 98/98/98
f 101/101/101 100/100/100 102/102/102
f 103/103/103 101/101/101 102/102/102
f 104/104/104 99/99/99 98/98/98
f 101/101/101 103/103/103 105/105/105
f 106/106/106 104/104/104 98/98/98
f 101/101/101 106/106/106 98/98/98
f 104/104/104 106/106/106 107/107/107
f 106/106/106 101/101/101 107/107/107
f 108/108/108 104/104/104 107/107/107
f 109/109/109 108/108/108 107/107/107
f 110/110/110 109/109/109 107/107/107
f 111/111/111 110/110/110 107/107/107
f 112/112/112 111/111/111 107/107/107
f 101/101/101 112/112/112 107/107/107
f 112/112/112 101/101/101 105/105/105
f 113/113/113 112/112/112 105/105/105
f 110/110/110 113/113/113 114/114/114
f 115/115/115 113/113/113 105/105/105
f 113/113/113 115/115/115 114/114/114
f 118/118/118 117/117/117 116/116/116
f 117/117/117 82/82/82 116/116/116
f 117/117/117 119/119/119 73/73/73
f 120/120/120 117/117/117 73/73/73
