g greenHouseImposter
v 5.493934 3.10074 0
v 5.492558 -4.12396 0
v 2.549589 -6.42301 0
v -3.176668 -6.42301 0
v -5.496865 -3.797582 0
v -5.492073 3.287882 0
v -2.203508 5.770673 0
v 2.448354 5.770673 0
vt 0.04944424 0.7810397
vt 0.04955705 0.1885444
vt 0.290909 0
vt 0.7605175 0
vt 0.9507961 0.2153105
vt 0.9504031 0.7963871
vt 0.680709 1
vt 0.2992113 1
vn 0 0 -1
vn 0 0 -0.9999999
vn 0 0 -0.9999999
vn 0 0 -1
vn 0 0 -1
vn 0 0 -1
vn 0 0 -1
vn 0 0 -0.9999999
g greenHouseImposter_0
f 4/4/4 6/6/6 8/8/8
f 8/8/8 2/2/2 4/4/4
f 6/6/6 7/7/7 8/8/8
f 4/4/4 5/5/5 6/6/6
f 2/2/2 3/3/3 4/4/4
f 8/8/8 1/1/1 2/2/2
