g GrubMeat
v 0 0.055624 0.038408
v 0 0.128759 0.043769
v -0.087035 0.128759 0.043769
v -0.087035 0.055624 0.038408
v -0.087748 0.003971 0.033426
v -0.17407 0.055624 0.038408
v 0 0.003971 0.033426
v 0.087748 0.003971 0.033426
v 0 -0.036284 0.038408
v 0.087035 0.055624 0.038408
v 0.17407 0.055624 0.038408
v -0.089888 -0.036284 0.038408
v -0.179776 -0.036284 0.038408
v -0.092741 -0.10707 0.038658
v -0.185482 -0.10707 0.038658
v -0.175497 0.003971 0.033426
v -0.246731 0.003539 0.050532
v 0.089888 -0.036284 0.038408
v 0.179776 -0.036284 0.038408
v 0.092741 -0.10707 0.038658
v 0 -0.10707 0.038658
v 0.175497 0.003971 0.033426
v 0.246731 0.003539 0.050532
v -0.252748 -0.038013 0.054542
v -0.291884 -0.043202 0.102945
v -0.26077 -0.107564 0.054318
v -0.185482 -0.10707 0.038658
v -0.301149 -0.109046 0.101295
v -0.316442 -0.111061 0.162903
v 0.244725 0.055624 0.054266
v 0.28262 0.055624 0.101839
v 0.244725 0.127807 0.058417
v 0.17407 0.128759 0.043769
v 0.28262 0.124951 0.102361
v 0.296973 0.121199 0.160098
v -0.306708 -0.050042 0.166483
v -0.306738 -0.056726 0.228023
v -0.299407 0.000532 0.16926
v -0.316474 -0.113155 0.222452
v -0.298216 -0.115289 0.280971
v -0.284936 0.002242 0.101849
v -0.28262 0.055624 0.101839
v -0.244725 0.055624 0.054266
v -0.244725 0.127807 0.058417
v -0.17407 0.128759 0.043769
v -0.28262 0.124951 0.102361
v -0.296973 0.121199 0.160098
v -0.296973 0.055624 0.164345
v -0.297002 0.055624 0.225002
v -0.297002 0.117558 0.216127
v -0.279868 0.113972 0.271302
v -0.299436 -0.001139 0.234647
v -0.282162 -0.00279 0.299022
v -0.279868 0.055624 0.284733
v -0.242731 0.055624 0.344465
v -0.242731 0.110386 0.326477
v -0.191077 0.107222 0.37516
v -0.289042 -0.063331 0.288563
v -0.250687 -0.069936 0.349102
v -0.258644 -0.117422 0.33949
v -0.203604 -0.119305 0.391123
v -0.24472 -0.004442 0.363396
v -0.192643 -0.005899 0.420196
v -0.191077 0.055624 0.397169
v -0.130395 0.055624 0.435818
v -0.130395 0.104902 0.41086
v -0.065197 0.103478 0.432766
v -0.197341 -0.075763 0.402519
v -0.134669 -0.080037 0.441691
v -0.138943 -0.120686 0.428987
v -0.069472 -0.121533 0.452221
v -0.131463 -0.006967 0.461849
v -0.065732 -0.007623 0.487407
v -0.065197 0.055624 0.459533
v 0 0.055624 0.467438
v 0 0.103004 0.440068
v 0 -0.007841 0.495927
v 0 -0.083533 0.473739
v 0 -0.121815 0.459965
v -0.067334 -0.082659 0.465727
v 0.087035 0.055624 0.038408
v 0.087035 0.128759 0.043769
v 0 0.128759 0.043769
v -0.087035 0.055624 0.038408
v -0.087035 0.128759 0.043769
v -0.17407 0.128759 0.043769
v 0 0.055624 0.467438
v 0 0.103004 0.440068
v 0.065197 0.103478 0.432766
v 0.065197 0.055624 0.459533
v 0.065732 -0.007623 0.487407
v 0.130395 0.055624 0.435818
v 0 -0.007841 0.495927
v 0.130395 0.104902 0.41086
v 0 -0.083533 0.473739
v 0.191077 0.107222 0.37516
v 0.067335 -0.082659 0.465727
v 0.134669 -0.080037 0.441691
v 0.069472 -0.121533 0.452221
v 0 -0.121815 0.459965
v 0.138943 -0.120686 0.428987
v 0.203604 -0.119305 0.391123
v 0.131463 -0.006967 0.461849
v 0.192643 -0.005899 0.420196
v 0.191077 0.055624 0.397169
v 0.242731 0.055624 0.344465
v 0.242731 0.110386 0.326477
v 0.279868 0.113972 0.271302
v 0.197341 -0.075763 0.402519
v 0.250687 -0.069936 0.349102
v 0.258644 -0.117422 0.33949
v 0.298216 -0.115289 0.280971
v 0.24472 -0.004442 0.363396
v 0.282162 -0.00279 0.299022
v 0.279868 0.055624 0.284734
v 0.297002 0.055624 0.225002
v 0.297002 0.117558 0.216127
v 0.289042 -0.063331 0.288563
v 0.306738 -0.056726 0.228023
v 0.316474 -0.113155 0.222451
v 0.316442 -0.111061 0.162903
v 0.296973 0.055624 0.164345
v 0.299407 0.000532 0.16926
v 0.299436 -0.001139 0.234647
v 0.306708 -0.050043 0.166483
v 0.291884 -0.043202 0.102945
v 0.301149 -0.109046 0.101295
v 0.26077 -0.107564 0.054318
v 0.284936 0.002242 0.101849
v 0.252748 -0.038013 0.054542
v 0.185482 -0.10707 0.038658
v 0.089888 -0.036284 0.038408
v 0.092741 -0.10707 0.038658
v 0.185482 -0.10707 0.038658
v 0.17407 0.055624 0.038408
v 0.17407 0.128759 0.043769
v 0.087035 0.128759 0.043769
v -0.089888 -0.036284 0.038408
v -0.092741 -0.10707 0.038658
v 0 -0.10707 0.038658
v 0.26077 -0.107564 0.054318
v 0.185482 -0.10707 0.038658
v 0.092741 -0.10707 0.038658
v 0 -0.10707 0.038658
v -0.092741 -0.10707 0.038658
v -0.185482 -0.10707 0.038658
v -0.26077 -0.107564 0.054318
v 0.301149 -0.109046 0.101295
v -0.301149 -0.109046 0.101295
v 0.316442 -0.111061 0.162903
v -0.316442 -0.111061 0.162903
v 0.316474 -0.113155 0.222451
v -0.316474 -0.113155 0.222452
v 0.298216 -0.115289 0.280971
v -0.298216 -0.115289 0.280971
v 0.258644 -0.117422 0.33949
v -0.258644 -0.117422 0.33949
v 0.203604 -0.119305 0.391123
v -0.203604 -0.119305 0.391123
v 0.138943 -0.120686 0.428987
v -0.138943 -0.120686 0.428987
v 0.069472 -0.121533 0.452221
v -0.069472 -0.121533 0.452221
v 0 -0.121815 0.459965
v -0.244725 0.127807 0.058417
v -0.17407 0.128759 0.043769
v -0.087035 0.128759 0.043769
v 0 0.128759 0.043769
v 0.087035 0.128759 0.043769
v 0.17407 0.128759 0.043769
v 0.244725 0.127807 0.058417
v -0.28262 0.124951 0.102361
v 0.28262 0.124951 0.102361
v -0.296973 0.121199 0.160098
v 0.296973 0.121199 0.160098
v -0.297002 0.117558 0.216127
v 0.297002 0.117558 0.216127
v -0.279868 0.113972 0.271302
v 0.279868 0.113972 0.271302
v -0.242731 0.110386 0.326477
v 0.242731 0.110386 0.326477
v -0.191077 0.107222 0.37516
v 0.191077 0.107222 0.37516
v -0.130395 0.104902 0.41086
v 0.130395 0.104902 0.41086
v -0.065197 0.103478 0.432766
v 0.065197 0.103478 0.432766
v 0 0.103004 0.440068
vt 0.170229 0.783599
vt 0.19511 0.785314
vt 0.19511 0.785315
vt 0.170229 0.783599
vt 0.149314 0.781883
vt 0.170229 0.783599
vt 0.149314 0.781883
vt 0.149314 0.781883
vt 0.133014 0.783599
vt 0.170229 0.783599
vt 0.170229 0.783599
vt 0.133014 0.783599
vt 0.133014 0.783599
vt 0.119022 0.785315
vt 0.119022 0.785314
vt 0.149314 0.781883
vt 0.149314 0.781883
vt 0.133014 0.783599
vt 0.133014 0.783599
vt 0.119022 0.785315
vt 0.119022 0.785314
vt 0.149314 0.781883
vt 0.149139 0.787775
vt 0.133014 0.783599
vt 0.130213 0.805828
vt 0.119022 0.785315
vt 0.119022 0.785314
vt 0.113419 0.806367
vt 0.10788 0.827069
vt 0.170229 0.789061
vt 0.170229 0.805447
vt 0.19511 0.79037
vt 0.19511 0.785314
vt 0.19511 0.805538
vt 0.19511 0.825467
vt 0.127443 0.827713
vt 0.124737 0.848909
vt 0.147921 0.828669
vt 0.102467 0.847069
vt 0.097118 0.866719
vt 0.148613 0.80545
vt 0.170229 0.805447
vt 0.170229 0.783599
vt 0.19511 0.785315
vt 0.19511 0.785314
vt 0.19511 0.805538
vt 0.19511 0.825467
vt 0.170229 0.826976
vt 0.170229 0.847869
vt 0.19511 0.844806
vt 0.19511 0.863851
vt 0.147244 0.851191
vt 0.146576 0.873364
vt 0.170229 0.868442
vt 0.170229 0.889016
vt 0.19511 0.882895
vt 0.19511 0.899699
vt 0.122062 0.869761
vt 0.119388 0.890613
vt 0.09177 0.886368
vt 0.08705 0.903706
vt 0.145907 0.895537
vt 0.145317 0.915101
vt 0.170229 0.907169
vt 0.170229 0.920481
vt 0.19511 0.912021
vt 0.19511 0.922103
vt 0.117028 0.909012
vt 0.115298 0.922504
vt 0.083589 0.91642
vt 0.080758 0.926822
vt 0.144885 0.929448
vt 0.144531 0.941185
vt 0.170229 0.931373
vt 0.170229 0.931373
vt 0.19511 0.922103
vt 0.144531 0.941185
vt 0.113882 0.933543
vt 0.080758 0.926822
vt 0.113882 0.933543
vt 0.170229 0.783599
vt 0.19511 0.785315
vt 0.19511 0.785314
vt 0.170229 0.783599
vt 0.19511 0.785315
vt 0.19511 0.785314
vt 0.170229 0.931373
vt 0.19511 0.922103
vt 0.19511 0.919582
vt 0.170229 0.92865
vt 0.144619 0.938251
vt 0.170229 0.920481
vt 0.144531 0.941185
vt 0.19511 0.912021
vt 0.113882 0.933543
vt 0.19511 0.899699
vt 0.114236 0.930783
vt 0.115298 0.922504
vt 0.081466 0.924222
vt 0.080758 0.926822
vt 0.083589 0.91642
vt 0.08705 0.903706
vt 0.144885 0.929448
vt 0.145317 0.915101
vt 0.170229 0.90717
vt 0.170229 0.889016
vt 0.19511 0.882895
vt 0.19511 0.863851
vt 0.117028 0.909012
vt 0.119388 0.890613
vt 0.09177 0.886368
vt 0.097118 0.866719
vt 0.145907 0.895537
vt 0.146576 0.873364
vt 0.170229 0.868442
vt 0.170229 0.847869
vt 0.19511 0.844806
vt 0.122062 0.869761
vt 0.124737 0.848909
vt 0.102467 0.847069
vt 0.10788 0.827069
vt 0.170229 0.826976
vt 0.147921 0.828669
vt 0.147244 0.851191
vt 0.127443 0.827713
vt 0.130213 0.805828
vt 0.113419 0.806367
vt 0.117621 0.790578
vt 0.148613 0.80545
vt 0.132314 0.789156
vt 0.119022 0.785314
vt 0.133014 0.783599
vt 0.119022 0.785315
vt 0.119022 0.785314
vt 0.170229 0.783599
vt 0.19511 0.785314
vt 0.19511 0.785315
vt 0.133014 0.783599
vt 0.119022 0.785315
vt 0.119022 0.785314
vt 0.750193 0.337883
vt 0.719741 0.306894
vt 0.682228 0.291114
vt 0.644715 0.291111
vt 0.607203 0.291108
vt 0.56969 0.306874
vt 0.539237 0.337858
vt 0.766524 0.369825
vt 0.522902 0.369801
vt 0.772709 0.399712
vt 0.516714 0.39969
vt 0.77272 0.424562
vt 0.5167 0.424543
vt 0.765333 0.448247
vt 0.524083 0.448229
vt 0.749325 0.471932
vt 0.540088 0.471916
vt 0.72706 0.492829
vt 0.562349 0.492817
vt 0.700904 0.508153
vt 0.588502 0.508144
vt 0.672803 0.517555
vt 0.616602 0.517551
vt 0.644702 0.520687
vt 0.750188 0.337852
vt 0.719735 0.306878
vt 0.682222 0.291105
vt 0.64471 0.291105
vt 0.607197 0.291105
vt 0.569684 0.306878
vt 0.539231 0.337853
vt 0.766521 0.369759
vt 0.522898 0.369759
vt 0.772707 0.399655
vt 0.516712 0.399655
vt 0.77272 0.424608
vt 0.5167 0.424608
vt 0.765335 0.448439
vt 0.524085 0.448439
vt 0.749328 0.47227
vt 0.540091 0.47227
vt 0.727065 0.493297
vt 0.562354 0.493297
vt 0.700911 0.508716
vt 0.588509 0.508716
vt 0.67281 0.518178
vt 0.616609 0.518178
vt 0.64471 0.521332
vn 0 0.08262403 -0.9965808
vn 0 0.07310662 -0.9973241
vn 0 0.07310662 -0.9973241
vn 0 0.08262405 -0.9965808
vn 0 -0.0008785242 -0.9999996
vn -0.0982587 0.07945847 -0.9919836
vn 0 -0.0008785289 -0.9999996
vn 0 -0.0008785196 -0.9999996
vn 0 -0.04630078 -0.9989275
vn 0 0.08262405 -0.9965808
vn 0.09825872 0.07945848 -0.9919836
vn 0 -0.04630086 -0.9989275
vn -0.09737211 -0.03262987 -0.994713
vn 0 -0.003531757 -0.9999938
vn -0.1008044 0.007917954 -0.9948748
vn -0.1004137 0.005265596 -0.9949318
vn -0.5070777 0.03686373 -0.8611116
vn 0 -0.04630086 -0.9989275
vn 0.09737209 -0.03262987 -0.994713
vn 0 -0.003531757 -0.9999938
vn 0 -0.003531757 -0.9999938
vn 0.1004137 0.005265618 -0.9949318
vn 0.5070776 0.03686373 -0.8611116
vn -0.4981247 0.03945804 -0.8662072
vn -0.8964424 0.1284715 -0.4241298
vn -0.5037111 0.06515092 -0.861412
vn -0.1008044 0.007917954 -0.9948748
vn -0.892355 0.134419 -0.4308528
vn -0.9807588 0.1587744 -0.1135905
vn 0.4976794 0.06052225 -0.865247
vn 0.9007642 0.02420244 -0.4336337
vn 0.4852553 0.04746253 -0.8730834
vn 0.09595405 0.06930704 -0.9929699
vn 0.8909324 0.008025543 -0.4540649
vn 0.9910492 -0.003701071 -0.1334464
vn -0.9828158 0.1509207 -0.1062833
vn -0.9805119 0.1270008 0.1498901
vn -0.991074 0.08912203 -0.0991441
vn -0.9784238 0.1488896 0.1432438
vn -0.9047065 0.09345233 0.4156595
vn -0.9083726 0.07861181 -0.4107059
vn -0.9007642 0.02420244 -0.4336337
vn -0.4976794 0.06052224 -0.865247
vn -0.4852553 0.04746253 -0.8730834
vn -0.09595405 0.06930704 -0.9929699
vn -0.8909324 0.008025539 -0.4540649
vn -0.9910492 -0.003701071 -0.1334464
vn -0.9928885 0.01641206 -0.1179118
vn -0.9889369 0.04839271 0.1402209
vn -0.9920385 0.02298589 0.1238199
vn -0.9104199 0.09667392 0.4022311
vn -0.9836769 0.08870476 0.1565602
vn -0.9025383 0.0810861 0.4229061
vn -0.9028909 0.1227463 0.4119728
vn -0.7652835 0.2127784 0.6075084
vn -0.7690783 0.1973306 0.6079302
vn -0.5980615 0.3075848 0.740077
vn -0.9058656 0.05588651 0.4198622
vn -0.7832696 -0.03777514 0.6205333
vn -0.7819208 0.00464549 0.6233605
vn -0.6282943 -0.1052053 0.7708295
vn -0.7807224 0.06968297 0.6209807
vn -0.6287273 0.05823573 0.7754422
vn -0.5995751 0.3030985 0.740703
vn -0.4094571 0.3787596 0.8299916
vn -0.1856667 0.8858286 0.4252478
vn -0.1397035 0.7762108 0.6148005
vn -0.6281012 -0.1355015 0.766243
vn -0.438424 -0.2205221 0.8712947
vn -0.4360192 -0.2180563 0.87312
vn -0.2277596 -0.2997645 0.9264269
vn -0.4442652 0.04875905 0.8945676
vn -0.236205 0.04255731 0.9707709
vn -0.212357 0.4269955 0.878965
vn 0 0.4443061 0.895875
vn 0 0.5730633 0.8195112
vn 0 0.04030809 0.9991873
vn 0 -0.2962462 0.9551116
vn 0 -0.3305999 0.9437709
vn -0.2308217 -0.2760982 0.9330012
vn 0 0.08262405 -0.9965808
vn 0 0.07310662 -0.9973241
vn 0 0.07310662 -0.9973241
vn 0 0.08262405 -0.9965808
vn 0 0.07310662 -0.9973241
vn -0.09595405 0.06930704 -0.9929699
vn 0 0.4443061 0.895875
vn 0 0.5730633 0.8195112
vn 0.1684432 0.6689961 0.7239276
vn 0.212357 0.4269955 0.878965
vn 0.2362043 0.04255793 0.970771
vn 0.4094571 0.3787596 0.8299916
vn 0 0.04030809 0.9991873
vn 0.2298343 0.829483 0.5090522
vn 0 -0.2962462 0.9551116
vn 0.5980615 0.3075848 0.740077
vn 0.2308228 -0.2760979 0.933001
vn 0.4384253 -0.2205218 0.871294
vn 0.2277581 -0.2997676 0.9264264
vn 0 -0.3305999 0.9437709
vn 0.4360203 -0.2180576 0.8731193
vn 0.6282942 -0.1052053 0.7708296
vn 0.4442659 0.04876041 0.894567
vn 0.6287272 0.0582357 0.7754422
vn 0.5995751 0.3030985 0.740703
vn 0.7652822 0.2127786 0.60751
vn 0.769076 0.197334 0.607932
vn 0.9104203 0.09667683 0.4022293
vn 0.6281012 -0.1355015 0.766243
vn 0.7832696 -0.03777515 0.6205333
vn 0.7819207 0.004645471 0.6233605
vn 0.9047075 0.09345123 0.4156577
vn 0.7807218 0.06968212 0.6209813
vn 0.9025386 0.0810842 0.4229058
vn 0.9028901 0.1227468 0.4119739
vn 0.988937 0.04839269 0.1402203
vn 0.9920385 0.02298685 0.1238195
vn 0.9058659 0.05588616 0.4198615
vn 0.980512 0.127 0.1498903
vn 0.9784241 0.1488893 0.1432422
vn 0.9807586 0.1587756 -0.1135909
vn 0.9928885 0.01641206 -0.1179118
vn 0.991074 0.08912161 -0.0991442
vn 0.9836771 0.08870383 0.1565593
vn 0.9828157 0.1509208 -0.1062835
vn 0.8964427 0.1284714 -0.4241292
vn 0.8923548 0.1344196 -0.430853
vn 0.5037111 0.06515094 -0.8614119
vn 0.9083729 0.07861162 -0.4107052
vn 0.4981247 0.03945806 -0.8662072
vn 0.1008044 0.007917954 -0.9948748
vn 0 -0.04630086 -0.9989275
vn 0 -0.003531757 -0.9999938
vn 0.1008044 0.007917954 -0.9948748
vn 0.09825872 0.07945848 -0.9919836
vn 0.09595405 0.06930704 -0.9929699
vn 0 0.07310662 -0.9973241
vn 0 -0.04630086 -0.9989275
vn 0 -0.003531757 -0.9999938
vn 0 -0.003531757 -0.9999938
vn 0 -0.9995028 -0.03153154
vn 0 -0.9995028 -0.03152987
vn 0 -0.9995028 -0.03152987
vn 0 -0.9995028 -0.03152987
vn 0 -0.9995028 -0.03152987
vn 0 -0.9995028 -0.03152987
vn 0 -0.9995028 -0.03153151
vn 0 -0.9994747 -0.03240995
vn 0 -0.9994753 -0.03239215
vn 0 -0.9994209 -0.03402664
vn 0 -0.9994218 -0.03399853
vn 0 -0.9993619 -0.03571803
vn 0 -0.9993625 -0.0357004
vn 0 -0.9993359 -0.03643658
vn 0 -0.9993359 -0.03643721
vn 0 -0.9993362 -0.03642953
vn 0 -0.9993362 -0.03642932
vn 0 -0.9993356 -0.03644513
vn 0 -0.9993356 -0.0364451
vn 0 -0.9993356 -0.03644759
vn 0 -0.9993356 -0.03644761
vn 0 -0.9993362 -0.03643058
vn 0 -0.9993362 -0.03643034
vn 0 -0.9993376 -0.03639182
vn 0 0.9978947 0.06485517
vn 0 0.9978948 0.06485434
vn 0 0.9978948 0.06485434
vn 0 0.9978948 0.06485432
vn 0 0.9978948 0.06485434
vn 0 0.9978948 0.06485434
vn 0 0.9978947 0.06485516
vn 0 0.997895 0.06484938
vn 0 0.997895 0.0648495
vn 0 0.9978951 0.06484743
vn 0 0.9978951 0.06484744
vn 0 0.9978949 0.06485135
vn 0 0.9978949 0.06485122
vn 0 0.9978947 0.0648564
vn 0 0.9978947 0.06485639
vn 0 0.9978947 0.06485613
vn 0 0.9978947 0.06485616
vn 0 0.9978948 0.06485439
vn 0 0.9978948 0.06485442
vn -0.1856667 0.8858286 0.4252478
vn 0.2298343 0.829483 0.5090522
vn -0.1397035 0.7762108 0.6148005
vn 0.1684432 0.6689961 0.7239276
vn 0 0.5730633 0.8195112
g GrubMeat_0
f 3/3/3 2/2/2 1/1/1
f 4/4/4 3/3/3 1/1/1
f 5/5/5 4/4/4 1/1/1
f 4/4/4 5/5/5 6/6/6
f 7/7/7 5/5/5 1/1/1
f 8/8/8 7/7/7 1/1/1
f 5/5/5 7/7/7 9/9/9
f 7/7/7 8/8/8 9/9/9
f 10/10/10 8/8/8 1/1/1
f 8/8/8 10/10/10 11/11/11
f 12/12/12 5/5/5 9/9/9
f 5/5/5 12/12/12 13/13/13
f 12/12/12 14/14/14 13/13/13
f 14/14/14 15/15/15 13/13/13
f 5/5/5 16/16/16 6/6/6
f 16/16/16 5/5/5 13/13/13
f 16/16/16 17/17/17 6/6/6
f 17/17/17 16/16/16 13/13/13
f 8/8/8 18/18/18 9/9/9
f 18/18/18 8/8/8 19/19/19
f 18/18/18 20/20/20 9/9/9
f 20/20/20 21/21/21 9/9/9
f 22/22/22 8/8/8 11/11/11
f 8/8/8 22/22/22 19/19/19
f 23/23/23 22/22/22 11/11/11
f 22/22/22 23/23/23 19/19/19
f 24/24/24 17/17/17 13/13/13
f 17/17/17 24/24/24 25/25/25
f 26/26/26 24/24/24 13/13/13
f 24/24/24 26/26/26 25/25/25
f 27/27/27 26/26/26 13/13/13
f 26/26/26 28/28/28 25/25/25
f 28/28/28 29/29/29 25/25/25
f 30/30/30 23/23/23 11/11/11
f 23/23/23 30/30/30 31/31/31
f 32/32/32 30/30/30 11/11/11
f 30/30/30 32/32/32 31/31/31
f 33/33/33 32/32/32 11/11/11
f 32/32/32 34/34/34 31/31/31
f 34/34/34 35/35/35 31/31/31
f 29/29/29 36/36/36 25/25/25
f 36/36/36 29/29/29 37/37/37
f 36/36/36 38/38/38 25/25/25
f 38/38/38 36/36/36 37/37/37
f 29/29/29 39/39/39 37/37/37
f 39/39/39 40/40/40 37/37/37
f 38/38/38 41/41/41 25/25/25
f 41/41/41 38/38/38 42/42/42
f 41/41/41 17/17/17 25/25/25
f 17/17/17 41/41/41 42/42/42
f 43/43/43 17/17/17 42/42/42
f 17/17/17 43/43/43 6/6/6
f 44/44/44 43/43/43 42/42/42
f 43/43/43 44/44/44 6/6/6
f 44/44/44 45/45/45 6/6/6
f 46/46/46 44/44/44 42/42/42
f 47/47/47 46/46/46 42/42/42
f 48/48/48 47/47/47 42/42/42
f 38/38/38 48/48/48 42/42/42
f 47/47/47 48/48/48 49/49/49
f 48/48/48 38/38/38 49/49/49
f 50/50/50 47/47/47 49/49/49
f 51/51/51 50/50/50 49/49/49
f 38/38/38 52/52/52 49/49/49
f 52/52/52 53/53/53 49/49/49
f 52/52/52 38/38/38 37/37/37
f 53/53/53 52/52/52 37/37/37
f 54/54/54 51/51/51 49/49/49
f 53/53/53 54/54/54 49/49/49
f 51/51/51 54/54/54 55/55/55
f 54/54/54 53/53/53 55/55/55
f 56/56/56 51/51/51 55/55/55
f 57/57/57 56/56/56 55/55/55
f 58/58/58 53/53/53 37/37/37
f 53/53/53 58/58/58 59/59/59
f 40/40/40 58/58/58 37/37/37
f 58/58/58 40/40/40 59/59/59
f 40/40/40 60/60/60 59/59/59
f 60/60/60 61/61/61 59/59/59
f 53/53/53 62/62/62 55/55/55
f 62/62/62 53/53/53 59/59/59
f 62/62/62 63/63/63 55/55/55
f 63/63/63 62/62/62 59/59/59
f 64/64/64 57/57/57 55/55/55
f 63/63/63 64/64/64 55/55/55
f 57/57/57 64/64/64 65/65/65
f 64/64/64 63/63/63 65/65/65
f 66/66/66 57/57/57 65/65/65
f 67/67/67 66/66/66 65/65/65
f 61/61/61 68/68/68 59/59/59
f 68/68/68 63/63/63 59/59/59
f 68/68/68 61/61/61 69/69/69
f 63/63/63 68/68/68 69/69/69
f 61/61/61 70/70/70 69/69/69
f 70/70/70 71/71/71 69/69/69
f 63/63/63 72/72/72 65/65/65
f 72/72/72 63/63/63 69/69/69
f 72/72/72 73/73/73 65/65/65
f 73/73/73 72/72/72 69/69/69
f 74/74/74 67/67/67 65/65/65
f 73/73/73 74/74/74 65/65/65
f 67/67/67 74/74/74 75/75/75
f 74/74/74 73/73/73 75/75/75
f 76/76/76 67/67/67 75/75/75
f 73/73/73 77/77/77 75/75/75
f 77/77/77 73/73/73 78/78/78
f 71/71/71 79/79/79 78/78/78
f 80/80/80 73/73/73 69/69/69
f 73/73/73 80/80/80 78/78/78
f 71/71/71 80/80/80 69/69/69
f 80/80/80 71/71/71 78/78/78
f 82/82/82 81/81/81 1/1/1
f 83/83/83 82/82/82 1/1/1
f 85/85/85 84/84/84 6/6/6
f 86/86/86 85/85/85 6/6/6
f 89/89/89 88/88/88 87/87/87
f 90/90/90 89/89/89 87/87/87
f 91/91/91 90/90/90 87/87/87
f 89/89/89 90/90/90 92/92/92
f 90/90/90 91/91/91 92/92/92
f 93/93/93 91/91/91 87/87/87
f 94/94/94 89/89/89 92/92/92
f 91/91/91 93/93/93 95/95/95
f 96/96/96 94/94/94 92/92/92
f 97/97/97 91/91/91 95/95/95
f 91/91/91 97/97/97 98/98/98
f 99/99/99 97/97/97 95/95/95
f 97/97/97 99/99/99 98/98/98
f 100/100/100 99/99/99 95/95/95
f 99/99/99 101/101/101 98/98/98
f 101/101/101 102/102/102 98/98/98
f 91/91/91 103/103/103 92/92/92
f 103/103/103 91/91/91 98/98/98
f 103/103/103 104/104/104 92/92/92
f 104/104/104 103/103/103 98/98/98
f 105/105/105 96/96/96 92/92/92
f 104/104/104 105/105/105 92/92/92
f 96/96/96 105/105/105 106/106/106
f 105/105/105 104/104/104 106/106/106
f 107/107/107 96/96/96 106/106/106
f 108/108/108 107/107/107 106/106/106
f 102/102/102 109/109/109 98/98/98
f 109/109/109 104/104/104 98/98/98
f 109/109/109 102/102/102 110/110/110
f 104/104/104 109/109/109 110/110/110
f 102/102/102 111/111/111 110/110/110
f 111/111/111 112/112/112 110/110/110
f 104/104/104 113/113/113 106/106/106
f 113/113/113 104/104/104 110/110/110
f 113/113/113 114/114/114 106/106/106
f 114/114/114 113/113/113 110/110/110
f 115/115/115 108/108/108 106/106/106
f 114/114/114 115/115/115 106/106/106
f 108/108/108 115/115/115 116/116/116
f 115/115/115 114/114/114 116/116/116
f 117/117/117 108/108/108 116/116/116
f 35/35/35 117/117/117 116/116/116
f 112/112/112 118/118/118 110/110/110
f 118/118/118 114/114/114 110/110/110
f 118/118/118 112/112/112 119/119/119
f 114/114/114 118/118/118 119/119/119
f 112/112/112 120/120/120 119/119/119
f 120/120/120 121/121/121 119/119/119
f 122/122/122 35/35/35 116/116/116
f 123/123/123 122/122/122 116/116/116
f 35/35/35 122/122/122 31/31/31
f 122/122/122 123/123/123 31/31/31
f 114/114/114 124/124/124 116/116/116
f 124/124/124 114/114/114 119/119/119
f 124/124/124 123/123/123 116/116/116
f 123/123/123 124/124/124 119/119/119
f 121/121/121 125/125/125 119/119/119
f 125/125/125 123/123/123 119/119/119
f 125/125/125 121/121/121 126/126/126
f 123/123/123 125/125/125 126/126/126
f 121/121/121 127/127/127 126/126/126
f 127/127/127 128/128/128 126/126/126
f 123/123/123 129/129/129 31/31/31
f 129/129/129 123/123/123 126/126/126
f 129/129/129 23/23/23 31/31/31
f 23/23/23 129/129/129 126/126/126
f 130/130/130 23/23/23 126/126/126
f 128/128/128 130/130/130 126/126/126
f 23/23/23 130/130/130 19/19/19
f 130/130/130 128/128/128 19/19/19
f 128/128/128 131/131/131 19/19/19
f 133/133/133 132/132/132 19/19/19
f 134/134/134 133/133/133 19/19/19
f 137/137/137 136/136/136 135/135/135
f 10/10/10 137/137/137 135/135/135
f 139/139/139 138/138/138 9/9/9
f 140/140/140 139/139/139 9/9/9
f 143/143/143 142/142/142 141/141/141
f 141/141/141 144/144/144 143/143/143
f 141/141/141 145/145/145 144/144/144
f 141/141/141 146/146/146 145/145/145
f 141/141/141 147/147/147 146/146/146
f 141/141/141 148/148/148 147/147/147
f 148/148/148 149/149/149 147/147/147
f 148/148/148 150/150/150 149/149/149
f 150/150/150 151/151/151 149/149/149
f 150/150/150 152/152/152 151/151/151
f 152/152/152 153/153/153 151/151/151
f 152/152/152 154/154/154 153/153/153
f 154/154/154 155/155/155 153/153/153
f 154/154/154 156/156/156 155/155/155
f 156/156/156 157/157/157 155/155/155
f 156/156/156 158/158/158 157/157/157
f 158/158/158 159/159/159 157/157/157
f 158/158/158 160/160/160 159/159/159
f 160/160/160 161/161/161 159/159/159
f 160/160/160 162/162/162 161/161/161
f 162/162/162 163/163/163 161/161/161
f 162/162/162 164/164/164 163/163/163
f 167/167/167 166/166/166 165/165/165
f 165/165/165 168/168/168 167/167/167
f 165/165/165 169/169/169 168/168/168
f 165/165/165 170/170/170 169/169/169
f 165/165/165 171/171/171 170/170/170
f 165/165/165 172/172/172 171/171/171
f 172/172/172 173/173/173 171/171/171
f 172/172/172 174/174/174 173/173/173
f 174/174/174 175/175/175 173/173/173
f 174/174/174 176/176/176 175/175/175
f 176/176/176 177/177/177 175/175/175
f 176/176/176 178/178/178 177/177/177
f 178/178/178 179/179/179 177/177/177
f 178/178/178 180/180/180 179/179/179
f 180/180/180 181/181/181 179/179/179
f 180/180/180 182/182/182 181/181/181
f 182/182/182 183/183/183 181/181/181
f 182/182/182 184/184/184 183/183/183
f 184/184/184 185/185/185 183/183/183
f 184/184/184 186/186/186 185/185/185
f 186/186/186 187/187/187 185/185/185
f 186/186/186 188/188/188 187/187/187
