g GumLeavesPart
v -0.351375 0.301644 -0.263912
v -0.169498 -0.080074 0.040594
v 0.016217 -0.455793 -0.291835
v 0.016217 -0.455793 -0.291835
v -0.169498 -0.080074 0.040594
v 0.420334 -0.590774 0.061491
v -0.351375 0.301644 -0.263912
v -0.184104 0.699999 0.061493
v -0.169498 -0.080074 0.040594
v -0.184104 0.699999 0.061493
v 0.268426 0.124998 0.392169
v -0.169498 -0.080074 0.040594
v -0.169498 -0.080074 0.040594
v 0.268426 0.124998 0.392169
v 0.420334 -0.590774 0.061491
v -0.351375 0.301644 -0.263912
v 0.016217 -0.455793 -0.291835
v -0.169498 -0.080074 0.040594
v 0.016217 -0.455793 -0.291835
v 0.420334 -0.590774 0.061491
v -0.169498 -0.080074 0.040594
v -0.351375 0.301644 -0.263912
v -0.169498 -0.080074 0.040594
v -0.184104 0.699999 0.061493
v -0.184104 0.699999 0.061493
v -0.169498 -0.080074 0.040594
v 0.268426 0.124998 0.392169
v -0.169498 -0.080074 0.040594
v 0.420334 -0.590774 0.061491
v 0.268426 0.124998 0.392169
vt 0.397862 0.49938
vt 0.383937 0.524267
vt 0.399996 0.54854
vt 0.399996 0.54854
vt 0.383937 0.524267
vt 0.363213 0.561754
vt 0.397862 0.49938
vt 0.359997 0.487691
vt 0.383937 0.524267
vt 0.359997 0.487691
vt 0.342571 0.525111
vt 0.383937 0.524267
vt 0.383937 0.524267
vt 0.342571 0.525111
vt 0.363213 0.561754
vt 0.397862 0.49938
vt 0.399996 0.54854
vt 0.383937 0.524267
vt 0.399996 0.54854
vt 0.363213 0.561754
vt 0.383937 0.524267
vt 0.397862 0.49938
vt 0.383937 0.524267
vt 0.359997 0.487691
vt 0.359997 0.487691
vt 0.383937 0.524267
vt 0.342571 0.525111
vt 0.383937 0.524267
vt 0.363213 0.561754
vt 0.342571 0.525111
vn -0.9592353 -0.2346311 0.15753
vn -0.8166388 -0.4062729 0.4099309
vn -0.7751623 -0.6146202 0.1461691
vn -0.6318887 -0.6813276 0.3694718
vn -0.6569759 -0.4017449 0.6379529
vn -0.3049399 -0.6920408 0.6542868
vn -0.9024414 -0.04896697 0.4280207
vn -0.6854738 0.2124659 0.6964078
vn -0.6878943 -0.2494061 0.6816143
vn -0.5929201 0.181488 0.7845431
vn -0.32739 -0.093458 0.9402561
vn -0.6112477 -0.1991689 0.7659686
vn -0.5449013 -0.3409741 0.7660413
vn -0.281967 -0.190749 0.9402709
vn -0.240915 -0.5709329 0.7848539
vn 0.8348635 0.4930173 -0.2448201
vn 0.8973548 0.3648649 -0.2482499
vn 0.8179438 0.3852969 0.4272169
vn 0.5968609 0.6393889 -0.4847049
vn 0.8238927 0.3783269 -0.4219829
vn 0.295517 0.846384 -0.443062
vn 0.8404509 0.048598 -0.539704
vn 0.8072208 -0.3125799 -0.5006879
vn 0.7865044 0.3911902 -0.4778923
vn 0.4725671 0.1731021 -0.8641273
vn 0.4877308 -0.03314399 -0.8723646
vn 0.8338099 -0.05232099 -0.5495669
vn 0.286194 0.395095 -0.8729221
vn 0.4351999 0.253108 -0.8640239
vn 0.4945669 0.6737899 -0.5490089
g GumLeavesPart_0
f 3/3/3 2/2/2 1/1/1
f 6/6/6 5/5/5 4/4/4
f 9/9/9 8/8/8 7/7/7
f 12/12/12 11/11/11 10/10/10
f 15/15/15 14/14/14 13/13/13
f 18/18/18 17/17/17 16/16/16
f 21/21/21 20/20/20 19/19/19
f 24/24/24 23/23/23 22/22/22
f 27/27/27 26/26/26 25/25/25
f 30/30/30 29/29/29 28/28/28
