g GumWoodFenceSide_Low
v 1 -0.009658 0.979005
v 0.180516 -0.009658 0.979005
v 0.180516 -0.009658 1.232766
v 1 -0.009658 1.232766
v 1 -0.009658 0.134343
v 0.180516 -0.009658 0.134343
v 0.180516 -0.009658 0.388104
v 1 -0.009658 0.388104
v 1 0.006188 0.536559
v 0.317283 0.006188 0.159694
v 0.202318 0.006188 0.274659
v 1 0.006188 0.768443
v 1 0.013128 0.770041
v 1 0.013128 0.532541
v 0.317833 0.013128 1.053557
v 0.432798 0.013128 1.168522
v 1 -0.009658 0.979005
v 1 -0.009658 1.232766
v 0.180516 -0.009658 1.232766
v 0.180516 -0.009658 0.979005
v 1 -0.009658 0.134343
v 1 -0.009658 0.388104
v 0.180516 -0.009658 0.388104
v 0.180516 -0.009658 0.134343
v 1 0.006188 0.536559
v 1 0.006188 0.768443
v 0.202318 0.006188 0.274659
v 0.317283 0.006188 0.159694
v 1 0.013128 0.770041
v 0.432798 0.013128 1.168522
v 0.317833 0.013128 1.053557
v 1 0.013128 0.532541
vt 0.779697 0.81553
vt 0.779697 0.984763
vt 0.852871 0.984763
vt 0.852871 0.81553
vt 0.781123 0.81553
vt 0.781123 0.984763
vt 0.854297 0.984763
vt 0.854297 0.81553
vt 0.779697 0.900147
vt 0.779697 0.984763
vt 0.852871 0.984763
vt 0.852871 0.900147
vt 0.779697 0.900147
vt 0.852871 0.900147
vt 0.852871 0.984763
vt 0.779697 0.984763
vt 0.779697 0.81553
vt 0.852871 0.81553
vt 0.852871 0.984763
vt 0.779697 0.984763
vt 0.781123 0.81553
vt 0.854297 0.81553
vt 0.854297 0.984763
vt 0.781123 0.984763
vt 0.779697 0.900147
vt 0.852871 0.900147
vt 0.852871 0.984763
vt 0.779697 0.984763
vt 0.779697 0.900147
vt 0.779697 0.984763
vt 0.852871 0.984763
vt 0.852871 0.900147
vn 0 -1 0
vn 0 -1 0
vn 0 -1 0
vn 0 -1 0
vn 0 -1 0
vn 0 -1 0
vn 0 -1 0
vn 0 -1 0
vn 0 -1 0
vn 0 -1 0
vn 0 -1 0
vn 0 -1 0
vn 0 -1 0
vn 0 -1 0
vn 0 -1 0
vn 0 -1 0
vn 0 1 0
vn 0 1 0
vn 0 1 0
vn 0 1 0
vn 0 1 0
vn 0 1 0
vn 0 1 0
vn 0 1 0
vn 0 1 0
vn 0 1 0
vn 0 1 0
vn 0 1 0
vn 0 1 0
vn 0 1 0
vn 0 1 0
vn 0 1 0
g GumWoodFenceSide_Low_0
f 3/3/3 2/2/2 1/1/1
f 4/4/4 3/3/3 1/1/1
f 7/7/7 6/6/6 5/5/5
f 8/8/8 7/7/7 5/5/5
f 11/11/11 10/10/10 9/9/9
f 12/12/12 11/11/11 9/9/9
f 15/15/15 14/14/14 13/13/13
f 16/16/16 15/15/15 13/13/13
f 19/19/19 18/18/18 17/17/17
f 20/20/20 19/19/19 17/17/17
f 23/23/23 22/22/22 21/21/21
f 24/24/24 23/23/23 21/21/21
f 27/27/27 26/26/26 25/25/25
f 28/28/28 27/27/27 25/25/25
f 31/31/31 30/30/30 29/29/29
f 32/32/32 31/31/31 29/29/29
