g HairDresserCollider
v -3.907939 1.672964 3.314809
v -3.907939 4.142067 4.557047
v -3.907939 1.672964 4.557047
v -3.907939 4.142067 3.314809
v -3.907939 4.783934 3.589453
v -3.907939 4.783934 3.250204
v -3.907939 1.672964 -0.112372
v -3.907939 4.142067 -0.112372
v -3.907939 -1.62536 -0.112372
v -3.907939 -1.62536 3.314809
v -3.907939 -4.094464 -0.112372
v -3.907939 -4.094464 3.314809
v -3.907939 -1.62536 4.557047
v -3.907939 -4.094464 4.557047
v 0 4.142067 4.557047
v 3.907939 4.783934 3.589453
v 3.907939 4.142067 4.557047
v 0 4.783934 3.589453
v -3.907939 4.142067 4.557047
v -3.907939 4.783934 3.589453
v -3.907939 4.783934 3.250204
v 0 4.783934 3.250204
v 3.907939 4.783934 3.250204
v 3.907939 -1.62536 3.314809
v 3.907939 -4.094464 4.557047
v 3.907939 -1.62536 4.557047
v 3.907939 -4.094464 3.314809
v 3.907939 -1.62536 -0.112372
v 3.907939 -4.094464 -0.112372
v 3.907939 1.672964 -0.112372
v 3.907939 1.672964 3.314809
v 3.907939 4.142067 -0.112372
v 3.907939 4.142067 3.314809
v 3.907939 1.672964 4.557047
v 3.907939 4.142067 4.557047
v 3.907939 4.783934 3.250204
v 3.907939 4.783934 3.589453
v 3.709234 1.58911 5.46657
v 3.709234 3.932667 5.190892
v 3.709234 3.932667 5.46657
v 3.709234 1.58911 5.190892
v 3.709234 -1.541506 5.46657
v 3.709234 -1.541506 5.190892
v 3.709234 -3.885064 5.46657
v 3.709234 -3.885064 5.190892
v 0 4.455311 4.61974
v -4.205185 4.455311 5.403878
v -4.205185 4.455311 4.61974
v 0 4.455311 5.403878
v 4.205185 4.455311 4.61974
v 4.205185 4.455311 5.403878
v 4.205185 1.798402 4.61974
v 4.205185 4.455311 5.403878
v 4.205185 4.455311 4.61974
v 4.205185 1.798402 5.403878
v 4.205185 -1.750799 4.61974
v 4.205185 -1.750799 5.403878
v 4.205185 -4.407707 4.61974
v 4.205185 -4.407707 5.403878
v -4.205185 -1.750799 4.61974
v -4.205185 -4.407707 5.403878
v -4.205185 -4.407707 4.61974
v -4.205185 -1.750799 5.403878
v -4.205185 1.798403 4.61974
v -4.205185 1.798403 5.403878
v -4.205185 4.455311 4.61974
v -4.205185 4.455311 5.403878
v 0 -4.407707 4.61974
v 4.205185 -4.407707 5.403878
v 4.205185 -4.407707 4.61974
v 0 -4.407707 5.403878
v -4.205185 -4.407707 4.61974
v -4.205185 -4.407707 5.403878
v -3.709234 -1.541506 5.46657
v -3.709234 -3.885064 5.190892
v -3.709234 -3.885064 5.46657
v -3.709234 -1.541506 5.190892
v -3.709234 1.58911 5.46657
v -3.709234 1.58911 5.190892
v -3.709234 3.932667 5.46657
v -3.709234 3.932667 5.190892
v 0 -3.885064 5.46657
v 3.709234 -3.885064 5.190892
v 3.709234 -3.885064 5.46657
v 0 -3.885064 5.190892
v -3.709234 -3.885064 5.46657
v -3.709234 -3.885064 5.190892
v 0 3.932667 5.46657
v -3.709234 3.932667 5.190892
v -3.709234 3.932667 5.46657
v 0 3.932667 5.190892
v 3.709234 3.932667 5.46657
v 3.709234 3.932667 5.190892
v 0 -4.094464 -0.112372
v -3.907939 -4.094464 -0.112372
v -3.907939 -4.094464 3.314809
v 0 -4.094464 3.314809
v 3.907939 -4.094464 -0.112372
v -3.907939 -4.094464 4.557047
v 3.907939 -4.094464 3.314809
v 0 -4.094464 4.557047
v 3.907939 -4.094464 4.557047
v 3.062488 4.142067 2.955822
v 3.062488 3.756575 2.955822
v 3.062488 3.756575 -0.037597
v 3.062488 4.142067 -0.037597
v 0 4.142067 3.314809
v -3.907939 4.783934 3.250204
v -3.907939 4.142067 3.314809
v 0 4.783934 3.250204
v 3.907939 4.142067 3.314809
v 3.907939 4.783934 3.250204
v 0 3.932667 5.190892
v -3.709234 1.58911 5.190892
v -3.709234 3.932667 5.190892
v 0 1.58911 5.190892
v 3.709234 3.932667 5.190892
v -3.709234 -1.541506 5.190892
v 3.709234 1.58911 5.190892
v 0 -1.541506 5.190892
v -3.709234 -3.885064 5.190892
v 3.709234 -1.541506 5.190892
v 0 -3.885064 5.190892
v 3.709234 -3.885064 5.190892
v 0 4.142067 -0.112372
v 3.907939 1.672964 -0.112372
v 3.907939 4.142067 -0.112372
v 0 1.672964 -0.112372
v -3.907939 4.142067 -0.112372
v 3.907939 -1.62536 -0.112372
v -3.907939 1.672964 -0.112372
v 0 -1.62536 -0.112372
v 3.907939 -4.094464 -0.112372
v -3.907939 -1.62536 -0.112372
v 0 -4.094464 -0.112372
v -3.907939 -4.094464 -0.112372
v 3.907939 -1.62536 4.557047
v 4.70963 -1.62536 3.862467
v 4.70963 -1.62536 3.146273
v 3.907939 -1.62536 3.314809
v -3.907939 1.672964 4.557047
v -4.70963 1.672964 3.862467
v -4.70963 1.672964 3.146273
v -3.907939 1.672964 3.314809
v 4.70963 1.672964 3.146273
v 4.70963 -1.62536 3.146273
v 4.70963 -1.62536 3.862467
v 4.70963 1.672964 3.862467
v 3.907939 1.672964 4.557047
v 3.907939 -1.62536 4.557047
v -4.70963 -1.62536 3.146273
v -4.70963 1.672964 3.146273
v -4.70963 1.672964 3.862467
v -4.70963 -1.62536 3.862467
v -3.907939 -1.62536 4.557047
v -3.907939 1.672964 4.557047
v -3.907939 1.672964 3.314809
v -4.70963 1.672964 3.146273
v -4.70963 -1.62536 3.146273
v -3.907939 -1.62536 3.314809
v 3.907939 -1.62536 3.314809
v 4.70963 -1.62536 3.146273
v 4.70963 1.672964 3.146273
v 3.907939 1.672964 3.314809
v -3.907939 -1.62536 3.314809
v -4.70963 -1.62536 3.146273
v -4.70963 -1.62536 3.862467
v -3.907939 -1.62536 4.557047
v 3.907939 1.672964 3.314809
v 4.70963 1.672964 3.146273
v 4.70963 1.672964 3.862467
v 3.907939 1.672964 4.557047
v -3.907939 4.142067 -0.112372
v 0 4.142067 3.314809
v -3.907939 4.142067 3.314809
v 0 4.142067 -0.112372
v 0.845452 4.142067 2.955822
v 3.062488 4.142067 2.955822
v 0.845452 4.142067 -0.037597
v 3.907939 4.142067 3.314809
v 3.907939 4.142067 -0.112372
v 3.062488 4.142067 -0.037597
v 0.845452 3.756575 -0.037597
v 3.062488 3.756575 -0.037597
v 3.062488 3.756575 2.955822
v 0.845452 3.756575 2.955822
v 0.845452 4.142067 -0.037597
v 0.845452 3.756575 -0.037597
v 0.845452 3.756575 2.955822
v 0.845452 4.142067 2.955822
v 0.845452 4.142067 2.955822
v 0.845452 3.756575 2.955822
v 3.062488 3.756575 2.955822
v 3.062488 4.142067 2.955822
v 3.062488 4.142067 -0.037597
v 3.062488 3.756575 -0.037597
v 0.845452 3.756575 -0.037597
v 0.845452 4.142067 -0.037597
v 0 -3.885064 5.46657
v -4.205185 -4.407707 5.403878
v -3.709234 -3.885064 5.46657
v 0 -4.407707 5.403878
v -4.205185 -1.750799 5.403878
v 3.709234 -3.885064 5.46657
v -3.709234 -1.541506 5.46657
v 4.205185 -4.407707 5.403878
v -4.205185 1.798403 5.403878
v 3.709234 -1.541506 5.46657
v -3.709234 1.58911 5.46657
v 4.205185 -1.750799 5.403878
v -4.205185 4.455311 5.403878
v 3.709234 1.58911 5.46657
v -3.709234 3.932667 5.46657
v 4.205185 1.798402 5.403878
v 0 4.455311 5.403878
v 3.709234 3.932667 5.46657
v 0 3.932667 5.46657
v 4.205185 4.455311 5.403878
v 0 4.142067 4.557047
v 0 4.455311 4.61974
v -4.205185 4.455311 4.61974
v -3.907939 4.142067 4.557047
v 3.907939 4.142067 4.557047
v -4.205185 1.798403 4.61974
v 4.205185 4.455311 4.61974
v -3.907939 1.672964 4.557047
v 3.907939 1.672964 4.557047
v -4.205185 -1.750799 4.61974
v 4.205185 1.798402 4.61974
v -3.907939 -1.62536 4.557047
v 3.907939 -1.62536 4.557047
v -4.205185 -4.407707 4.61974
v 4.205185 -1.750799 4.61974
v -3.907939 -4.094464 4.557047
v 3.907939 -4.094464 4.557047
v 0 -4.407707 4.61974
v 4.205185 -4.407707 4.61974
v 0 -4.094464 4.557047
vn -1 0 0
vn -0.8768209 0.05969614 -0.4770968
vn -0.8883317 0 -0.4592026
vn -1 0 0
vn -1 0 0
vn -1 0 0
vn -1 0 0
vn -1 0 0
vn -1 0 0
vn -1 0 0
vn -1 0 0
vn -1 0 0
vn -0.8883317 0 -0.4592025
vn -0.5062693 -0.8012905 -0.3187864
vn 0 0.8333183 0.5527936
vn 0 0.897579 0.4408537
vn 0 0.8333183 0.5527936
vn 0 0.897579 0.4408537
vn 0 0.8333183 0.5527936
vn 0 0.897579 0.4408537
vn 0 1 0
vn 0 1 0
vn 0 1 0
vn 1 0 0
vn 0.5062693 -0.8012905 -0.3187864
vn 0.8883317 0 -0.4592025
vn 1 0 0
vn 1 0 0
vn 1 0 0
vn 1 0 0
vn 1 0 0
vn 1 0 0
vn 1 0 0
vn 0.8883315 0 -0.4592026
vn 0.8768209 0.05969614 -0.4770968
vn 1 0 0
vn 1 0 0
vn -1 0 0
vn -1 0 0
vn -1 0 0
vn -1 0 0
vn -1 0 0
vn -1 0 0
vn -1 0 0
vn -1 0 0
vn 0 0.9415566 -0.3368549
vn -0.4193702 0.6637526 0.6193231
vn -0.4808239 0.7610176 -0.4355006
vn 0 0.8637805 0.5038683
vn 0.4808241 0.7610174 -0.4355005
vn 0.4193704 0.6637526 0.6193231
vn 0.9469191 0 -0.3214718
vn 0.4193704 0.6637526 0.6193231
vn 0.4808241 0.7610174 -0.4355005
vn 0.8749061 0 0.4842927
vn 0.9469191 0 -0.3214718
vn 0.8749059 0 0.4842928
vn 0.4808241 -0.7610176 -0.4355002
vn 0.4193704 -0.6637527 0.6193228
vn -0.9469191 0 -0.3214718
vn -0.4193704 -0.6637527 0.6193228
vn -0.4808241 -0.7610176 -0.4355002
vn -0.8749061 0 0.4842927
vn -0.9469191 0 -0.3214717
vn -0.8749061 0 0.4842927
vn -0.4808239 0.7610176 -0.4355006
vn -0.4193702 0.6637526 0.6193231
vn 0 -0.9415568 -0.3368544
vn 0.4193704 -0.6637527 0.6193228
vn 0.4808241 -0.7610176 -0.4355002
vn 0 -0.8637807 0.5038679
vn -0.4808241 -0.7610176 -0.4355002
vn -0.4193704 -0.6637527 0.6193228
vn 1 0 0
vn 1 0 0
vn 1 0 0
vn 1 0 0
vn 1 0 0
vn 1 0 0
vn 1 0 0
vn 1 0 0
vn 0 1 0
vn 0 1 0
vn 0 1 0
vn 0 1 0
vn 0 1 0
vn 0 1 0
vn 0 -1 0
vn 0 -1 0
vn 0 -1 0
vn 0 -1 0
vn 0 -1 0
vn 0 -1 0
vn 0 -1 0
vn 0 -1 0
vn 0 -1 0
vn 0 -1 0
vn 0 -1 0
vn -0.5062693 -0.8012905 -0.3187864
vn 0 -1 0
vn 0 -0.9704339 -0.241367
vn 0.5062693 -0.8012905 -0.3187864
vn -1 0 0
vn -1 0 0
vn -1 0 0
vn -1 0 0
vn 0 -0.1001457 -0.9949728
vn 0 -0.1001457 -0.9949728
vn 0 -0.1001457 -0.9949728
vn 0 -0.1001457 -0.9949728
vn 0 -0.1001457 -0.9949728
vn 0 -0.1001457 -0.9949728
vn 0 0 1
vn 0 0 1
vn 0 0 1
vn 0 0 1
vn 0 0 1
vn 0 0 1
vn 0 0 1
vn 0 0 1
vn 0 0 1
vn 0 0 1
vn 0 0 1
vn 0 0 1
vn 0 0 -1
vn 0 0 -1
vn 0 0 -1
vn 0 0 -1
vn 0 0 -1
vn 0 0 -1
vn 0 0 -1
vn 0 0 -1
vn 0 0 -1
vn 0 0 -1
vn 0 0 -1
vn 0 0 -1
vn 0 -1 0
vn 0 -1 0
vn 0 -1 0
vn 0 -1 0
vn 0 1 0
vn 0 1 0
vn 0 1 0
vn 0 1 0
vn 1 0 0
vn 1 0 0
vn 0.8694261 0 0.4940629
vn 0.8694261 0 0.4940629
vn 0.6548126 0 0.7557913
vn 0.6548126 0 0.7557913
vn -1 0 0
vn -1 0 0
vn -0.8694261 0 0.4940629
vn -0.8694261 0 0.4940629
vn -0.6548126 0 0.7557913
vn -0.6548126 0 0.7557913
vn 0.2057289 0 -0.978609
vn 0.2057289 0 -0.978609
vn 0.2057289 0 -0.978609
vn 0.2057289 0 -0.978609
vn -0.2057289 0 -0.978609
vn -0.2057289 0 -0.978609
vn -0.2057289 0 -0.978609
vn -0.2057289 0 -0.978609
vn 0 -1 0
vn 0 -1 0
vn 0 -1 0
vn 0 -1 0
vn 0 1 0
vn 0 1 0
vn 0 1 0
vn 0 1 0
vn 0 1 0
vn 0 1 0
vn 0 1 0
vn 0 1 0
vn 0 1 0
vn 0 1 0
vn 0 1 0
vn 0 1 0
vn 0 1 0
vn 0 1 0
vn 0 1 0
vn 0 1 0
vn 0 1 0
vn 0 1 0
vn 1 0 0
vn 1 0 0
vn 1 0 0
vn 1 0 0
vn 0 0 -1
vn 0 0 -1
vn 0 0 -1
vn 0 0 -1
vn 0 0 1
vn 0 0 1
vn 0 0 1
vn 0 0 1
vn 0 -0.1190974 0.9928826
vn -0.4193704 -0.6637527 0.6193228
vn -0.04719506 -0.07469732 0.9960889
vn 0 -0.8637807 0.5038679
vn -0.8749061 0 0.4842927
vn 0.04719506 -0.07469732 0.9960889
vn -0.1254091 0 0.9921051
vn 0.4193704 -0.6637527 0.6193228
vn -0.8749061 0 0.4842927
vn 0.1254091 0 0.9921051
vn -0.1254091 0 0.9921051
vn 0.8749059 0 0.4842928
vn -0.4193702 0.6637526 0.6193231
vn 0.1254091 0 0.9921051
vn -0.04719501 0.07469729 0.9960889
vn 0.8749061 0 0.4842927
vn 0 0.8637805 0.5038683
vn 0.04719502 0.07469729 0.9960889
vn 0 0.1190973 0.9928826
vn 0.4193704 0.6637526 0.6193231
vn 0 0.1962496 -0.980554
vn 0 0.9415566 -0.3368549
vn -0.4808239 0.7610176 -0.4355006
vn -0.8768209 0.05969614 -0.4770968
vn 0.8768209 0.05969614 -0.4770968
vn -0.9469191 0 -0.3214717
vn 0.4808241 0.7610174 -0.4355005
vn -0.8883317 0 -0.4592026
vn 0.8883315 0 -0.4592026
vn -0.9469191 0 -0.3214718
vn 0.9469191 0 -0.3214718
vn -0.8883317 0 -0.4592025
vn 0.8883317 0 -0.4592025
vn -0.4808241 -0.7610176 -0.4355002
vn 0.9469191 0 -0.3214718
vn -0.5062693 -0.8012905 -0.3187864
vn 0.5062693 -0.8012905 -0.3187864
vn 0 -0.9415568 -0.3368544
vn 0.4808241 -0.7610176 -0.4355002
vn 0 -0.9704339 -0.241367
g HairDresserCollider_0
f 3/3/3 2/2/2 1/1/1
f 2/2/2 4/4/4 1/1/1
f 2/2/2 5/5/5 4/4/4
f 5/5/5 6/6/6 4/4/4
f 1/1/1 4/4/4 7/7/7
f 4/4/4 8/8/8 7/7/7
f 1/1/1 7/7/7 9/9/9
f 10/10/10 1/1/1 9/9/9
f 10/10/10 9/9/9 11/11/11
f 12/12/12 10/10/10 11/11/11
f 13/13/13 10/10/10 12/12/12
f 14/14/14 13/13/13 12/12/12
f 17/17/17 16/16/16 15/15/15
f 16/16/16 18/18/18 15/15/15
f 15/15/15 18/18/18 19/19/19
f 18/18/18 20/20/20 19/19/19
f 20/20/20 18/18/18 21/21/21
f 18/18/18 22/22/22 21/21/21
f 18/18/18 16/16/16 22/22/22
f 16/16/16 23/23/23 22/22/22
f 26/26/26 25/25/25 24/24/24
f 25/25/25 27/27/27 24/24/24
f 24/24/24 27/27/27 28/28/28
f 27/27/27 29/29/29 28/28/28
f 24/24/24 28/28/28 30/30/30
f 31/31/31 24/24/24 30/30/30
f 31/31/31 30/30/30 32/32/32
f 33/33/33 31/31/31 32/32/32
f 34/34/34 31/31/31 33/33/33
f 35/35/35 34/34/34 33/33/33
f 33/33/33 36/36/36 35/35/35
f 36/36/36 37/37/37 35/35/35
f 40/40/40 39/39/39 38/38/38
f 39/39/39 41/41/41 38/38/38
f 38/38/38 41/41/41 42/42/42
f 41/41/41 43/43/43 42/42/42
f 42/42/42 43/43/43 44/44/44
f 43/43/43 45/45/45 44/44/44
f 48/48/48 47/47/47 46/46/46
f 47/47/47 49/49/49 46/46/46
f 46/46/46 49/49/49 50/50/50
f 49/49/49 51/51/51 50/50/50
f 54/54/54 53/53/53 52/52/52
f 53/53/53 55/55/55 52/52/52
f 52/52/52 55/55/55 56/56/56
f 55/55/55 57/57/57 56/56/56
f 56/56/56 57/57/57 58/58/58
f 57/57/57 59/59/59 58/58/58
f 62/62/62 61/61/61 60/60/60
f 61/61/61 63/63/63 60/60/60
f 60/60/60 63/63/63 64/64/64
f 63/63/63 65/65/65 64/64/64
f 64/64/64 65/65/65 66/66/66
f 65/65/65 67/67/67 66/66/66
f 70/70/70 69/69/69 68/68/68
f 69/69/69 71/71/71 68/68/68
f 68/68/68 71/71/71 72/72/72
f 71/71/71 73/73/73 72/72/72
f 76/76/76 75/75/75 74/74/74
f 75/75/75 77/77/77 74/74/74
f 74/74/74 77/77/77 78/78/78
f 77/77/77 79/79/79 78/78/78
f 78/78/78 79/79/79 80/80/80
f 79/79/79 81/81/81 80/80/80
f 84/84/84 83/83/83 82/82/82
f 83/83/83 85/85/85 82/82/82
f 82/82/82 85/85/85 86/86/86
f 85/85/85 87/87/87 86/86/86
f 90/90/90 89/89/89 88/88/88
f 89/89/89 91/91/91 88/88/88
f 88/88/88 91/91/91 92/92/92
f 91/91/91 93/93/93 92/92/92
f 96/96/96 95/95/95 94/94/94
f 97/97/97 96/96/96 94/94/94
f 97/97/97 94/94/94 98/98/98
f 99/99/99 96/96/96 97/97/97
f 100/100/100 97/97/97 98/98/98
f 101/101/101 99/99/99 97/97/97
f 101/101/101 97/97/97 100/100/100
f 102/102/102 101/101/101 100/100/100
f 105/105/105 104/104/104 103/103/103
f 106/106/106 105/105/105 103/103/103
f 109/109/109 108/108/108 107/107/107
f 108/108/108 110/110/110 107/107/107
f 107/107/107 110/110/110 111/111/111
f 110/110/110 112/112/112 111/111/111
f 115/115/115 114/114/114 113/113/113
f 114/114/114 116/116/116 113/113/113
f 113/113/113 116/116/116 117/117/117
f 114/114/114 118/118/118 116/116/116
f 116/116/116 119/119/119 117/117/117
f 118/118/118 120/120/120 116/116/116
f 116/116/116 120/120/120 119/119/119
f 118/118/118 121/121/121 120/120/120
f 120/120/120 122/122/122 119/119/119
f 121/121/121 123/123/123 120/120/120
f 120/120/120 123/123/123 122/122/122
f 123/123/123 124/124/124 122/122/122
f 127/127/127 126/126/126 125/125/125
f 126/126/126 128/128/128 125/125/125
f 125/125/125 128/128/128 129/129/129
f 126/126/126 130/130/130 128/128/128
f 128/128/128 131/131/131 129/129/129
f 130/130/130 132/132/132 128/128/128
f 128/128/128 132/132/132 131/131/131
f 130/130/130 133/133/133 132/132/132
f 132/132/132 134/134/134 131/131/131
f 133/133/133 135/135/135 132/132/132
f 132/132/132 135/135/135 134/134/134
f 135/135/135 136/136/136 134/134/134
f 139/139/139 138/138/138 137/137/137
f 140/140/140 139/139/139 137/137/137
f 143/143/143 142/142/142 141/141/141
f 144/144/144 143/143/143 141/141/141
f 147/147/147 146/146/146 145/145/145
f 148/148/148 147/147/147 145/145/145
f 147/147/147 148/148/148 149/149/149
f 150/150/150 147/147/147 149/149/149
f 153/153/153 152/152/152 151/151/151
f 154/154/154 153/153/153 151/151/151
f 153/153/153 154/154/154 155/155/155
f 156/156/156 153/153/153 155/155/155
f 159/159/159 158/158/158 157/157/157
f 160/160/160 159/159/159 157/157/157
f 163/163/163 162/162/162 161/161/161
f 164/164/164 163/163/163 161/161/161
f 167/167/167 166/166/166 165/165/165
f 168/168/168 167/167/167 165/165/165
f 171/171/171 170/170/170 169/169/169
f 172/172/172 171/171/171 169/169/169
f 175/175/175 174/174/174 173/173/173
f 174/174/174 176/176/176 173/173/173
f 176/176/176 174/174/174 177/177/177
f 177/177/177 174/174/174 178/178/178
f 179/179/179 176/176/176 177/177/177
f 174/174/174 180/180/180 178/178/178
f 181/181/181 176/176/176 179/179/179
f 178/178/178 180/180/180 182/182/182
f 182/182/182 181/181/181 179/179/179
f 180/180/180 181/181/181 182/182/182
f 185/185/185 184/184/184 183/183/183
f 186/186/186 185/185/185 183/183/183
f 189/189/189 188/188/188 187/187/187
f 190/190/190 189/189/189 187/187/187
f 193/193/193 192/192/192 191/191/191
f 194/194/194 193/193/193 191/191/191
f 197/197/197 196/196/196 195/195/195
f 198/198/198 197/197/197 195/195/195
f 201/201/201 200/200/200 199/199/199
f 200/200/200 202/202/202 199/199/199
f 203/203/203 200/200/200 201/201/201
f 199/199/199 202/202/202 204/204/204
f 205/205/205 203/203/203 201/201/201
f 202/202/202 206/206/206 204/204/204
f 207/207/207 203/203/203 205/205/205
f 204/204/204 206/206/206 208/208/208
f 209/209/209 207/207/207 205/205/205
f 206/206/206 210/210/210 208/208/208
f 211/211/211 207/207/207 209/209/209
f 208/208/208 210/210/210 212/212/212
f 213/213/213 211/211/211 209/209/209
f 210/210/210 214/214/214 212/212/212
f 215/215/215 211/211/211 213/213/213
f 212/212/212 214/214/214 216/216/216
f 217/217/217 215/215/215 213/213/213
f 214/214/214 218/218/218 216/216/216
f 218/218/218 215/215/215 217/217/217
f 216/216/216 218/218/218 217/217/217
f 221/221/221 220/220/220 219/219/219
f 222/222/222 221/221/221 219/219/219
f 219/219/219 220/220/220 223/223/223
f 224/224/224 221/221/221 222/222/222
f 220/220/220 225/225/225 223/223/223
f 226/226/226 224/224/224 222/222/222
f 223/223/223 225/225/225 227/227/227
f 228/228/228 224/224/224 226/226/226
f 225/225/225 229/229/229 227/227/227
f 230/230/230 228/228/228 226/226/226
f 227/227/227 229/229/229 231/231/231
f 232/232/232 228/228/228 230/230/230
f 229/229/229 233/233/233 231/231/231
f 234/234/234 232/232/232 230/230/230
f 231/231/231 233/233/233 235/235/235
f 236/236/236 232/232/232 234/234/234
f 233/233/233 237/237/237 235/235/235
f 238/238/238 236/236/236 234/234/234
f 235/235/235 237/237/237 238/238/238
f 237/237/237 236/236/236 238/238/238
