g HairDresserMirror
v -0.731383 1.882926 3.861131
v -0.731383 1.882926 4.102728
v -0.731383 -1.882926 4.102728
v -0.731383 -1.882926 3.861131
v -0.526167 1.882926 3.861131
v -0.526167 -1.882926 3.861131
v -0.526167 -1.882926 4.102728
v -0.526167 1.882926 4.102728
v -0.731383 -1.882926 4.102728
v -0.526167 -1.882926 4.102728
v -0.526167 -1.882926 3.861131
v -0.731383 -1.882926 3.861131
v -0.731383 1.882926 3.861131
v -0.526167 1.882926 3.861131
v -0.526167 1.882926 4.102728
v -0.731383 1.882926 4.102728
v -0.731383 -1.882926 3.861131
v -0.526167 -1.882926 3.861131
v -0.526167 1.882926 3.861131
v -0.731383 1.882926 3.861131
v -0.731383 1.882926 4.102728
v -0.526167 1.882926 4.102728
v -0.526167 -1.882926 4.102728
v -0.731383 -1.882926 4.102728
v -0.687456 1.771537 3.907298
v -0.69039 1.774473 1.096233
v -0.540382 1.774473 1.096233
v -0.543317 1.771537 3.907298
v -0.543317 1.771537 3.907298
v -0.540382 1.774473 1.096233
v -0.540382 1.593122 1.096233
v -0.543317 1.596055 3.907298
v -0.543317 1.596055 3.907298
v -0.540382 1.593122 1.096233
v -0.69039 1.593122 1.096233
v -0.687456 1.596055 3.907298
v -0.687456 1.596055 3.907298
v -0.69039 1.593122 1.096233
v -0.69039 1.774473 1.096233
v -0.687456 1.771537 3.907298
v -0.687456 -1.596928 3.907298
v -0.69039 -1.593993 1.096233
v -0.540382 -1.593993 1.096233
v -0.543317 -1.596928 3.907298
v -0.543317 -1.596928 3.907298
v -0.540382 -1.593993 1.096233
v -0.540382 -1.775343 1.096233
v -0.543317 -1.77241 3.907298
v -0.543317 -1.77241 3.907298
v -0.540382 -1.775343 1.096233
v -0.69039 -1.775343 1.096233
v -0.687456 -1.77241 3.907298
v -0.687456 -1.77241 3.907298
v -0.69039 -1.775343 1.096233
v -0.69039 -1.593993 1.096233
v -0.687456 -1.596928 3.907298
v -0.731383 1.882926 1.014986
v -0.731383 1.882926 1.256584
v -0.731383 -1.882926 1.256584
v -0.731383 -1.882926 1.014986
v -0.526167 1.882926 1.014986
v -0.526167 -1.882926 1.014986
v -0.526167 -1.882926 1.256584
v -0.526167 1.882926 1.256584
v -0.731383 -1.882926 1.256584
v -0.526167 -1.882926 1.256584
v -0.526167 -1.882926 1.014986
v -0.731383 -1.882926 1.014986
v -0.731383 1.882926 1.014986
v -0.526167 1.882926 1.014986
v -0.526167 1.882926 1.256584
v -0.731383 1.882926 1.256584
v -0.731383 -1.882926 1.014986
v -0.526167 -1.882926 1.014986
v -0.526167 1.882926 1.014986
v -0.731383 1.882926 1.014986
v -0.731383 1.882926 1.256584
v -0.526167 1.882926 1.256584
v -0.526167 -1.882926 1.256584
v -0.731383 -1.882926 1.256584
v -0.587349 1.757595 3.907298
v -0.584414 1.757595 1.096233
v -0.584414 -1.699238 1.096233
v -0.587349 -1.699238 3.907298
vt 1.013447 0.89429
vt 1.013447 0.994592
vt 0.402006 0.994592
vt 0.402006 0.89429
vt 0.992727 0.89429
vt 0.422726 0.89429
vt 0.422726 0.994592
vt 0.992727 0.994592
vt 0.422726 0.994592
vt 0.422726 0.994592
vt 0.422726 0.89429
vt 0.422726 0.89429
vt 0.992727 0.89429
vt 0.992727 0.89429
vt 0.992727 0.994592
vt 0.992727 0.994592
vt 0.422726 0.89429
vt 0.422726 0.89429
vt 0.992727 0.89429
vt 0.992727 0.89429
vt 1.00464 0.998239
vt 1.00464 0.893696
vt 0.397454 0.893696
vt 0.397454 0.998242
vt 0.432591 0.90059
vt 0.432591 0.993104
vt 0.996911 0.993104
vt 0.996911 0.90059
vt 0.432591 0.90059
vt 0.432591 0.993104
vt 0.996911 0.993104
vt 0.996911 0.90059
vt 0.432591 0.90059
vt 0.432591 0.993104
vt 0.996911 0.993104
vt 0.996911 0.90059
vt 0.432591 0.90059
vt 0.432591 0.993104
vt 0.996911 0.993104
vt 0.996911 0.90059
vt 0.432591 0.90059
vt 0.432591 0.993104
vt 0.996911 0.993104
vt 0.996911 0.90059
vt 0.432591 0.90059
vt 0.432591 0.993104
vt 0.996911 0.993104
vt 0.996911 0.90059
vt 0.432591 0.90059
vt 0.432591 0.993104
vt 0.996911 0.993104
vt 0.996911 0.90059
vt 0.432591 0.90059
vt 0.432591 0.993104
vt 0.996911 0.993104
vt 0.996911 0.90059
vt 1.013447 0.89429
vt 1.013447 0.994592
vt 0.402006 0.994592
vt 0.402006 0.89429
vt 0.992727 0.89429
vt 0.422726 0.89429
vt 0.422726 0.994592
vt 0.992727 0.994592
vt 0.422726 0.994592
vt 0.422726 0.994592
vt 0.422726 0.89429
vt 0.422726 0.89429
vt 0.992727 0.89429
vt 0.992727 0.89429
vt 0.992727 0.994592
vt 0.992727 0.994592
vt 0.422726 0.89429
vt 0.422726 0.89429
vt 0.992727 0.89429
vt 0.992727 0.89429
vt 1.00464 0.998239
vt 1.00464 0.893696
vt 0.397454 0.893696
vt 0.397454 0.998242
vt 0.99991 0.813135
vt 0.99991 9E-05
vt 9E-05 9E-05
vt 9E-05 0.813135
vn -1 0 0
vn -1 0 0
vn -1 0 0
vn -1 0 0
vn 1 0 0
vn 1 0 0
vn 1 0 0
vn 1 0 0
vn 0 -1 0
vn 0 -1 0
vn 0 -1 0
vn 0 -1 0
vn 0 1 0
vn 0 1 0
vn 0 1 0
vn 0 1 0
vn 0 0 -1
vn 0 0 -1
vn 0 0 -1
vn 0 0 -1
vn 0 0 1
vn 0 0 1
vn 0 0 1
vn 0 0 1
vn 0 0.9999995 0.001044446
vn 0 0.9999995 0.001044445
vn 0 0.9999995 0.001044446
vn 0 0.9999995 0.001044446
vn 0.9999995 0 0.001044085
vn 0.9999995 0 0.001044085
vn 0.9999995 0 0.001044085
vn 0.9999995 0 0.001044085
vn 0 -0.9999995 0.001043385
vn 0 -0.9999995 0.001043385
vn 0 -0.9999995 0.001043385
vn 0 -0.9999995 0.001043385
vn -0.9999995 0 0.001043725
vn -0.9999995 0 0.001043725
vn -0.9999995 0 0.001043724
vn -0.9999995 0 0.001043725
vn 0 0.9999995 0.001044106
vn 0 0.9999995 0.001044106
vn 0 0.9999995 0.001044106
vn 0 0.9999995 0.001044106
vn 0.9999995 0 0.001044085
vn 0.9999995 0 0.001044085
vn 0.9999995 0 0.001044085
vn 0.9999995 0 0.001044085
vn 0 -0.9999995 0.001043343
vn 0 -0.9999995 0.001043343
vn 0 -0.9999995 0.001043343
vn 0 -0.9999995 0.001043343
vn -0.9999995 0 0.001043724
vn -0.9999995 0 0.001043724
vn -0.9999995 0 0.001043724
vn -0.9999995 0 0.001043724
vn -1 0 0
vn -1 0 0
vn -1 0 0
vn -1 0 0
vn 1 0 0
vn 1 0 0
vn 1 0 0
vn 1 0 0
vn 0 -1 0
vn 0 -1 0
vn 0 -1 0
vn 0 -1 0
vn 0 1 0
vn 0 1 0
vn 0 1 0
vn 0 1 0
vn 0 0 -1
vn 0 0 -1
vn 0 0 -1
vn 0 0 -1
vn 0 0 1
vn 0 0 1
vn 0 0 1
vn 0 0 1
vn 0.9999995 0 0.001044085
vn 0.9999995 0 0.001044085
vn 0.9999995 0 0.001044085
vn 0.9999995 0 0.001044085
g HairDresserMirror_0
f 3/3/3 2/2/2 1/1/1
f 4/4/4 3/3/3 1/1/1
f 7/7/7 6/6/6 5/5/5
f 8/8/8 7/7/7 5/5/5
f 11/11/11 10/10/10 9/9/9
f 12/12/12 11/11/11 9/9/9
f 15/15/15 14/14/14 13/13/13
f 16/16/16 15/15/15 13/13/13
f 19/19/19 18/18/18 17/17/17
f 20/20/20 19/19/19 17/17/17
f 23/23/23 22/22/22 21/21/21
f 24/24/24 23/23/23 21/21/21
f 27/27/27 26/26/26 25/25/25
f 28/28/28 27/27/27 25/25/25
f 31/31/31 30/30/30 29/29/29
f 32/32/32 31/31/31 29/29/29
f 35/35/35 34/34/34 33/33/33
f 36/36/36 35/35/35 33/33/33
f 39/39/39 38/38/38 37/37/37
f 40/40/40 39/39/39 37/37/37
f 43/43/43 42/42/42 41/41/41
f 44/44/44 43/43/43 41/41/41
f 47/47/47 46/46/46 45/45/45
f 48/48/48 47/47/47 45/45/45
f 51/51/51 50/50/50 49/49/49
f 52/52/52 51/51/51 49/49/49
f 55/55/55 54/54/54 53/53/53
f 56/56/56 55/55/55 53/53/53
f 59/59/59 58/58/58 57/57/57
f 60/60/60 59/59/59 57/57/57
f 63/63/63 62/62/62 61/61/61
f 64/64/64 63/63/63 61/61/61
f 67/67/67 66/66/66 65/65/65
f 68/68/68 67/67/67 65/65/65
f 71/71/71 70/70/70 69/69/69
f 72/72/72 71/71/71 69/69/69
f 75/75/75 74/74/74 73/73/73
f 76/76/76 75/75/75 73/73/73
f 79/79/79 78/78/78 77/77/77
f 80/80/80 79/79/79 77/77/77
g HairDresserMirror_1
f 83/83/83 82/82/82 81/81/81
f 84/84/84 83/83/83 81/81/81
