g HangGliderWings
v -0.989408 -0.321642 0.078193
v 0 0.743799 0.063093
v 0 -1.216491 0.063093
v -1.004555 1.188427 0.078193
v -2.020016 0.555223 -0.141286
v -2.314586 1.403987 -0.141286
v -0.989408 -0.321642 0.078193
v 0 -1.216491 0.063093
v 0 0.743799 0.063093
v -1.004555 1.188427 0.078193
v -2.020016 0.555223 -0.141286
v -2.314586 1.403987 -0.141286
v 0.989408 -0.321642 0.078193
v 0 -1.216491 0.063093
v 0 0.743799 0.063093
v 1.004555 1.188427 0.078193
v 2.020016 0.555223 -0.141286
v 2.314586 1.403987 -0.141286
v 0.989408 -0.321642 0.078193
v 0 0.743799 0.063093
v 0 -1.216491 0.063093
v 1.004555 1.188427 0.078193
v 2.020016 0.555223 -0.141286
v 2.314586 1.403987 -0.141286
vt 0.446026 0.736508
vt 0.839448 0.115685
vt 0.869693 1.004735
vt 0.436192 0.054162
vt 0.004555 0.485476
vt -0.052645 0.135926
vt 0.461776 0.744575
vt 0.884924 1.014731
vt 0.85879 0.125842
vt 0.453527 0.061504
vt 0.020777 0.491526
vt -0.03565 0.141137
vt 0.446026 0.736508
vt 0.869693 1.004735
vt 0.839448 0.115685
vt 0.436192 0.054162
vt 0.004555 0.485476
vt -0.052645 0.135926
vt 0.461776 0.744575
vt 0.85879 0.125842
vt 0.884924 1.014731
vt 0.453527 0.061504
vt 0.020777 0.491526
vt -0.03565 0.141137
vn -0.09084699 -0.01289782 0.9957813
vn 0.01518851 6.629255E-05 0.9998846
vn 0.01518851 6.629255E-05 0.9998846
vn -0.09084699 -0.01289782 0.9957813
vn -0.1958443 -0.02571454 0.9802977
vn -0.1958443 -0.02571454 0.9802977
vn 0.09084699 0.01289782 -0.9957813
vn -0.01518851 -6.629255E-05 -0.9998846
vn -0.01518851 -6.629255E-05 -0.9998846
vn 0.09084699 0.01289782 -0.9957813
vn 0.1958443 0.02571454 -0.9802977
vn 0.1958443 0.02571454 -0.9802977
vn 0.09084699 -0.01289782 0.9957813
vn -0.01518851 6.629294E-05 0.9998846
vn -0.01518851 6.629294E-05 0.9998846
vn 0.09084699 -0.01289782 0.9957813
vn 0.1958443 -0.02571454 0.9802977
vn 0.1958443 -0.02571454 0.9802977
vn -0.09084699 0.01289782 -0.9957813
vn 0.01518851 -6.629294E-05 -0.9998846
vn 0.01518851 -6.629294E-05 -0.9998846
vn -0.09084699 0.01289782 -0.9957813
vn -0.1958442 0.02571453 -0.9802977
vn -0.1958442 0.02571453 -0.9802977
g HangGliderWings_0
f 3/3/3 2/2/2 1/1/1
f 2/2/2 4/4/4 1/1/1
f 1/1/1 4/4/4 5/5/5
f 4/4/4 6/6/6 5/5/5
f 9/9/9 8/8/8 7/7/7
f 10/10/10 9/9/9 7/7/7
f 10/10/10 7/7/7 11/11/11
f 12/12/12 10/10/10 11/11/11
f 15/15/15 14/14/14 13/13/13
f 16/16/16 15/15/15 13/13/13
f 16/16/16 13/13/13 17/17/17
f 18/18/18 16/16/16 17/17/17
f 21/21/21 20/20/20 19/19/19
f 20/20/20 22/22/22 19/19/19
f 19/19/19 22/22/22 23/23/23
f 22/22/22 24/24/24 23/23/23
