g HedgeCentre
v -0.413352 -0.413352 1.636214
v -0.413352 0.413352 1.636214
v 0.413352 0.413352 1.636214
v 0.413352 -0.413352 1.636214
v 0.413352 -0.413352 0
v 0.413352 -0.413352 1.636214
v 0.413352 0.413352 1.636214
v 0.413352 0.413352 0
v -0.413352 0.413352 0
v -0.413352 0.413352 1.636214
v -0.413352 -0.413352 1.636214
v -0.413352 -0.413352 0
v 0.413352 0.413352 0
v 0.413352 0.413352 1.636214
v -0.413352 0.413352 1.636214
v -0.413352 0.413352 0
v -0.413352 -0.413352 0
v -0.413352 -0.413352 1.636214
v 0.413352 -0.413352 1.636214
v 0.413352 -0.413352 0
v -0.413352 -0.413352 1.636214
v 0.413352 -0.413352 1.636214
v 0.413352 0.413352 1.636214
v -0.413352 0.413352 1.636214
v 0.413352 -0.413352 0
v 0.413352 0.413352 0
v 0.413352 0.413352 1.636214
v 0.413352 -0.413352 1.636214
v -0.413352 0.413352 0
v -0.413352 -0.413352 0
v -0.413352 -0.413352 1.636214
v -0.413352 0.413352 1.636214
v 0.413352 0.413352 0
v -0.413352 0.413352 0
v -0.413352 0.413352 1.636214
v 0.413352 0.413352 1.636214
v -0.413352 -0.413352 0
v 0.413352 -0.413352 0
v 0.413352 -0.413352 1.636214
v -0.413352 -0.413352 1.636214
v -0.413352 -0.350387 0.865235
v 0.413352 -0.350387 0.865235
v 0.413352 -0.519487 1.665675
v -0.413352 -0.519487 1.665675
v -0.413352 0.331334 0.325228
v -0.413352 0.545137 1.114903
v 0.413352 0.545137 1.114903
v 0.413352 0.331334 0.325228
v -0.325296 -0.181845 1.485211
v 0.396352 0.221471 1.485211
v 0.244224 0.493673 1.756547
v -0.477425 0.090357 1.756547
v 0.258092 0.222962 1.583383
v -0.479783 -0.13445 1.477379
v -0.339165 -0.478437 1.658374
v 0.398711 -0.121025 1.764379
v 0.437973 0.379899 0.865235
v 0.296566 -0.434622 0.865235
v 0.463174 -0.463547 1.665675
v 0.604581 0.350974 1.665675
v -0.233701 0.496506 0.669488
v -0.444353 0.533077 1.459164
v -0.58576 -0.281444 1.459164
v -0.375108 -0.318015 0.669488
v -0.407579 -0.407579 1.63044
v 0.407579 -0.407579 1.63044
v 0.407579 0.407579 1.63044
v -0.407579 0.407579 1.63044
v 0.406281 -0.406281 0
v 0.406281 0.406281 0
v 0.407579 0.407579 1.63044
v 0.407579 -0.407579 1.63044
v -0.406281 0.406281 0
v -0.406281 -0.406281 0
v -0.407579 -0.407579 1.63044
v -0.407579 0.407579 1.63044
v 0.406281 0.406281 0
v -0.406281 0.406281 0
v -0.407579 0.407579 1.63044
v 0.407579 0.407579 1.63044
v -0.406281 -0.406281 0
v 0.406281 -0.406281 0
v 0.407579 -0.407579 1.63044
v -0.407579 -0.407579 1.63044
v -0.419126 -0.419126 1.641987
v -0.419126 0.419126 1.641987
v 0.419126 0.419126 1.641987
v 0.419126 -0.419126 1.641987
v 0.420423 -0.420423 0
v 0.419126 -0.419126 1.641987
v 0.419126 0.419126 1.641987
v 0.420423 0.420423 0
v -0.420423 0.420423 0
v -0.419126 0.419126 1.641987
v -0.419126 -0.419126 1.641987
v -0.420423 -0.420423 0
v 0.420423 0.420423 0
v 0.419126 0.419126 1.641987
v -0.419126 0.419126 1.641987
v -0.420423 0.420423 0
v -0.420423 -0.420423 0
v -0.419126 -0.419126 1.641987
v 0.419126 -0.419126 1.641987
v 0.420423 -0.420423 0
v -0.413352 -0.360171 0.863168
v -0.413352 -0.529271 1.663608
v 0.413352 -0.529271 1.663608
v 0.413352 -0.360171 0.863168
v -0.413352 0.340987 0.322614
v 0.413352 0.340987 0.322614
v 0.413352 0.554789 1.11229
v -0.413352 0.554789 1.11229
v -0.322094 -0.187575 1.492755
v -0.474222 0.084627 1.764091
v 0.247426 0.487943 1.764091
v 0.399555 0.215741 1.492755
v 0.255132 0.226434 1.592282
v 0.395751 -0.117554 1.773277
v -0.342125 -0.474966 1.667272
v -0.482743 -0.130978 1.486277
v 0.428333 0.381572 0.867301
v 0.594941 0.352648 1.667741
v 0.453535 -0.461873 1.667741
v 0.286927 -0.432949 0.867301
v -0.224191 0.494856 0.672102
v -0.365598 -0.319665 0.672102
v -0.57625 -0.283095 1.461777
v -0.434843 0.531426 1.461777
v -0.413352 -0.413352 0
v -0.406281 -0.406281 0
v -0.406281 0.406281 0
v -0.413352 0.413352 0
v 0.413352 -0.413352 0
v 0.406281 -0.406281 0
v -0.406281 -0.406281 0
v -0.413352 -0.413352 0
v 0.413352 0.413352 0
v 0.406281 0.406281 0
v 0.406281 -0.406281 0
v 0.413352 -0.413352 0
v -0.413352 0.413352 0
v -0.406281 0.406281 0
v 0.406281 0.406281 0
v 0.413352 0.413352 0
v -0.413352 0.413352 0
v -0.420423 0.420423 0
v -0.420423 -0.420423 0
v -0.413352 -0.413352 0
v -0.413352 -0.413352 0
v -0.420423 -0.420423 0
v 0.420423 -0.420423 0
v 0.413352 -0.413352 0
v 0.413352 -0.413352 0
v 0.420423 -0.420423 0
v 0.420423 0.420423 0
v 0.413352 0.413352 0
v 0.413352 0.413352 0
v 0.420423 0.420423 0
v -0.420423 0.420423 0
v -0.413352 0.413352 0
v 0.413352 0.545137 1.114903
v 0.413352 0.554789 1.11229
v 0.413352 0.340987 0.322614
v 0.413352 0.331334 0.325228
v 0.413352 -0.519487 1.665675
v 0.413352 -0.529271 1.663608
v -0.413352 -0.529271 1.663608
v -0.413352 -0.519487 1.665675
v -0.413352 0.331334 0.325228
v -0.413352 0.340987 0.322614
v -0.413352 0.554789 1.11229
v -0.413352 0.545137 1.114903
v -0.413352 -0.519487 1.665675
v -0.413352 -0.529271 1.663608
v -0.413352 -0.360171 0.863168
v -0.413352 -0.350387 0.865235
v 0.413352 -0.350387 0.865235
v 0.413352 -0.360171 0.863168
v 0.413352 -0.529271 1.663608
v 0.413352 -0.519487 1.665675
v -0.413352 0.545137 1.114903
v -0.413352 0.554789 1.11229
v 0.413352 0.554789 1.11229
v 0.413352 0.545137 1.114903
v -0.413352 -0.350387 0.865235
v -0.413352 -0.360171 0.863168
v 0.413352 -0.360171 0.863168
v 0.413352 -0.350387 0.865235
v 0.413352 0.331334 0.325228
v 0.413352 0.340987 0.322614
v -0.413352 0.340987 0.322614
v -0.413352 0.331334 0.325228
v 0.396352 0.221471 1.485211
v 0.399555 0.215741 1.492755
v 0.247426 0.487943 1.764091
v 0.244224 0.493673 1.756547
v 0.244224 0.493673 1.756547
v 0.247426 0.487943 1.764091
v -0.474222 0.084627 1.764091
v -0.477425 0.090357 1.756547
v -0.477425 0.090357 1.756547
v -0.474222 0.084627 1.764091
v -0.322094 -0.187575 1.492755
v -0.325296 -0.181845 1.485211
v -0.325296 -0.181845 1.485211
v -0.322094 -0.187575 1.492755
v 0.399555 0.215741 1.492755
v 0.396352 0.221471 1.485211
v -0.479783 -0.13445 1.477379
v -0.482743 -0.130978 1.486277
v -0.342125 -0.474966 1.667272
v -0.339165 -0.478437 1.658374
v -0.339165 -0.478437 1.658374
v -0.342125 -0.474966 1.667272
v 0.395751 -0.117554 1.773277
v 0.398711 -0.121025 1.764379
v 0.398711 -0.121025 1.764379
v 0.395751 -0.117554 1.773277
v 0.255132 0.226434 1.592282
v 0.258092 0.222962 1.583383
v 0.258092 0.222962 1.583383
v 0.255132 0.226434 1.592282
v -0.482743 -0.130978 1.486277
v -0.479783 -0.13445 1.477379
v -0.58576 -0.281444 1.459164
v -0.57625 -0.283095 1.461777
v -0.365598 -0.319665 0.672102
v -0.375108 -0.318015 0.669488
v 0.463174 -0.463547 1.665675
v 0.453535 -0.461873 1.667741
v 0.594941 0.352648 1.667741
v 0.604581 0.350974 1.665675
v -0.233701 0.496506 0.669488
v -0.224191 0.494856 0.672102
v -0.434843 0.531426 1.461777
v -0.444353 0.533077 1.459164
v 0.604581 0.350974 1.665675
v 0.594941 0.352648 1.667741
v 0.428333 0.381572 0.867301
v 0.437973 0.379899 0.865235
v 0.296566 -0.434622 0.865235
v 0.286927 -0.432949 0.867301
v 0.453535 -0.461873 1.667741
v 0.463174 -0.463547 1.665675
v -0.444353 0.533077 1.459164
v -0.434843 0.531426 1.461777
v -0.57625 -0.283095 1.461777
v -0.58576 -0.281444 1.459164
v 0.437973 0.379899 0.865235
v 0.428333 0.381572 0.867301
v 0.286927 -0.432949 0.867301
v 0.296566 -0.434622 0.865235
v -0.375108 -0.318015 0.669488
v -0.365598 -0.319665 0.672102
v -0.224191 0.494856 0.672102
v -0.233701 0.496506 0.669488
vt 0.166733 0.166733
vt 0.166733 0.833267
vt 0.833267 0.833267
vt 0.833267 0.166733
vt 7.1E-05 7.1E-05
vt 7.1E-05 0.999929
vt 0.505254 0.999929
vt 0.505254 7.1E-05
vt 0.000416 7.1E-05
vt 7.1E-05 0.999754
vt 0.505166 0.999929
vt 0.505511 0.000246
vt 0.492228 7.1E-05
vt 0.492228 0.999929
vt 0.997411 0.999929
vt 0.997411 7.1E-05
vt 0.490112 7.1E-05
vt 0.489767 0.999754
vt 0.994862 0.999929
vt 0.995207 0.000246
vt 0.830748 0.833267
vt 0.164215 0.833267
vt 0.164215 0.166733
vt 0.830748 0.166733
vt 0.99741 0.999929
vt 0.492228 0.999929
vt 0.492228 7.1E-05
vt 0.997411 7.1E-05
vt 0.997065 0.999929
vt 0.491971 0.999754
vt 0.492316 7.1E-05
vt 0.997411 0.000246
vt 0.505254 0.999929
vt 7.1E-05 0.999929
vt 7.1E-05 7.1E-05
vt 0.505254 7.1E-05
vt 0.507369 0.999929
vt 0.002275 0.999754
vt 0.00262 7.1E-05
vt 0.507715 0.000246
vt 0.507542 0.500087
vt 0.002447 0.499913
vt 0.00262 7.1E-05
vt 0.507715 0.000246
vt 0.507542 0.500087
vt 0.507715 0.000246
vt 0.00262 7.1E-05
vt 0.002447 0.499913
vt 0.830748 0.5
vt 0.164215 0.5
vt 0.164215 0.166733
vt 0.830748 0.166733
vt 0.830748 0.5
vt 0.164215 0.5
vt 0.164215 0.166733
vt 0.830748 0.166733
vt 0.507542 0.500087
vt 0.002447 0.499913
vt 0.00262 7.1E-05
vt 0.507715 0.000246
vt 0.507542 0.500087
vt 0.507715 0.000246
vt 0.00262 7.1E-05
vt 0.002447 0.499913
vt 0.166733 0.166733
vt 0.833267 0.166733
vt 0.833267 0.833267
vt 0.166733 0.833267
vt 7.1E-05 7.1E-05
vt 0.505254 7.1E-05
vt 0.505254 0.999929
vt 7.1E-05 0.999929
vt 0.000416 7.1E-05
vt 0.505511 0.000246
vt 0.505166 0.999929
vt 7.1E-05 0.999754
vt 0.492228 7.1E-05
vt 0.997411 7.1E-05
vt 0.997411 0.999929
vt 0.492228 0.999929
vt 0.490112 7.1E-05
vt 0.995207 0.000246
vt 0.994862 0.999929
vt 0.489767 0.999754
vt 0.830748 0.833267
vt 0.830748 0.166733
vt 0.164215 0.166733
vt 0.164215 0.833267
vt 0.99741 0.999929
vt 0.997411 7.1E-05
vt 0.492228 7.1E-05
vt 0.492228 0.999929
vt 0.997065 0.999929
vt 0.997411 0.000246
vt 0.492316 7.1E-05
vt 0.491971 0.999754
vt 0.505254 0.999929
vt 0.505254 7.1E-05
vt 7.1E-05 7.1E-05
vt 7.1E-05 0.999929
vt 0.507369 0.999929
vt 0.507715 0.000246
vt 0.00262 7.1E-05
vt 0.002275 0.999754
vt 0.507542 0.500087
vt 0.507715 0.000246
vt 0.00262 7.1E-05
vt 0.002447 0.499913
vt 0.507542 0.500087
vt 0.002447 0.499913
vt 0.00262 7.1E-05
vt 0.507715 0.000246
vt 0.830748 0.5
vt 0.830748 0.166733
vt 0.164215 0.166733
vt 0.164215 0.5
vt 0.830748 0.5
vt 0.830748 0.166733
vt 0.164215 0.166733
vt 0.164215 0.5
vt 0.507542 0.500087
vt 0.507715 0.000246
vt 0.00262 7.1E-05
vt 0.002447 0.499913
vt 0.507542 0.500087
vt 0.002447 0.499913
vt 0.00262 7.1E-05
vt 0.507715 0.000246
vt 0.505511 0.000246
vt 0.505511 0.000246
vt 0.000416 7.1E-05
vt 0.000416 7.1E-05
vt 0.995207 0.000246
vt 0.995207 0.000246
vt 0.490112 7.1E-05
vt 0.490112 7.1E-05
vt 0.505254 7.1E-05
vt 0.505254 7.1E-05
vt 7.1E-05 7.1E-05
vt 7.1E-05 7.1E-05
vt 0.997411 7.1E-05
vt 0.997411 7.1E-05
vt 0.492228 7.1E-05
vt 0.492228 7.1E-05
vt 0.997065 0.999929
vt 0.997065 0.999929
vt 0.491971 0.999754
vt 0.491971 0.999754
vt 0.507369 0.999929
vt 0.507369 0.999929
vt 0.002275 0.999754
vt 0.002275 0.999754
vt 0.99741 0.999929
vt 0.99741 0.999929
vt 0.492228 0.999929
vt 0.492228 0.999929
vt 0.505254 0.999929
vt 0.505254 0.999929
vt 7.1E-05 0.999929
vt 7.1E-05 0.999929
vt 0.00262 7.1E-05
vt 0.00262 7.1E-05
vt 0.002447 0.499913
vt 0.002447 0.499913
vt 0.00262 7.1E-05
vt 0.00262 7.1E-05
vt 0.507715 0.000246
vt 0.507715 0.000246
vt 0.507542 0.500087
vt 0.507542 0.500087
vt 0.507715 0.000246
vt 0.507715 0.000246
vt 0.507715 0.000246
vt 0.507715 0.000246
vt 0.507542 0.500087
vt 0.507542 0.500087
vt 0.002447 0.499913
vt 0.002447 0.499913
vt 0.00262 7.1E-05
vt 0.00262 7.1E-05
vt 0.507715 0.000246
vt 0.507715 0.000246
vt 0.00262 7.1E-05
vt 0.00262 7.1E-05
vt 0.507542 0.500087
vt 0.507542 0.500087
vt 0.002447 0.499913
vt 0.002447 0.499913
vt 0.002447 0.499913
vt 0.002447 0.499913
vt 0.507542 0.500087
vt 0.507542 0.500087
vt 0.164215 0.5
vt 0.164215 0.5
vt 0.164215 0.166733
vt 0.164215 0.166733
vt 0.164215 0.166733
vt 0.164215 0.166733
vt 0.830748 0.166733
vt 0.830748 0.166733
vt 0.830748 0.166733
vt 0.830748 0.166733
vt 0.830748 0.5
vt 0.830748 0.5
vt 0.830748 0.5
vt 0.830748 0.5
vt 0.164215 0.5
vt 0.164215 0.5
vt 0.164215 0.5
vt 0.164215 0.5
vt 0.164215 0.166733
vt 0.164215 0.166733
vt 0.164215 0.166733
vt 0.164215 0.166733
vt 0.830748 0.166733
vt 0.830748 0.166733
vt 0.830748 0.166733
vt 0.830748 0.166733
vt 0.830748 0.5
vt 0.830748 0.5
vt 0.830748 0.5
vt 0.830748 0.5
vt 0.164215 0.5
vt 0.164215 0.5
vt 0.00262 7.1E-05
vt 0.00262 7.1E-05
vt 0.002447 0.499913
vt 0.002447 0.499913
vt 0.00262 7.1E-05
vt 0.00262 7.1E-05
vt 0.507715 0.000246
vt 0.507715 0.000246
vt 0.507542 0.500087
vt 0.507542 0.500087
vt 0.507715 0.000246
vt 0.507715 0.000246
vt 0.507715 0.000246
vt 0.507715 0.000246
vt 0.507542 0.500087
vt 0.507542 0.500087
vt 0.002447 0.499913
vt 0.002447 0.499913
vt 0.00262 7.1E-05
vt 0.00262 7.1E-05
vt 0.507715 0.000246
vt 0.507715 0.000246
vt 0.00262 7.1E-05
vt 0.00262 7.1E-05
vt 0.507542 0.500087
vt 0.507542 0.500087
vt 0.002447 0.499913
vt 0.002447 0.499913
vt 0.002447 0.499913
vt 0.002447 0.499913
vt 0.507542 0.500087
vt 0.507542 0.500087
vn 0 0 1
vn 0 0 1
vn 0 0 1
vn 0 0 1
vn 1 0 0
vn 1 0 0
vn 1 0 0
vn 1 0 0
vn -1 0 0
vn -1 0 0
vn -1 0 0
vn -1 0 0
vn 0 1 0
vn 0 1 0
vn 0 1 0
vn 0 1 0
vn 0 -1 0
vn 0 -1 0
vn 0 -1 0
vn 0 -1 0
vn 0 0 -1
vn 0 0 -1
vn 0 0 -1
vn 0 0 -1
vn -1 0 0
vn -1 0 0
vn -1 0 0
vn -1 0 0
vn 1 0 0
vn 1 0 0
vn 1 0 0
vn 1 0 0
vn 0 -1 0
vn 0 -1 0
vn 0 -1 0
vn 0 -1 0
vn 0 1 0
vn 0 1 0
vn 0 1 0
vn 0 1 0
vn 0 0.9784051 0.2066967
vn 0 0.9784051 0.2066967
vn 0 0.9784051 0.2066967
vn 0 0.9784051 0.2066967
vn 0 -0.9652472 0.2613388
vn 0 -0.9652472 0.2613388
vn 0 -0.9652472 0.2613388
vn 0 -0.9652472 0.2613388
vn -0.3202448 0.5730101 -0.7543889
vn -0.3202448 0.5730102 -0.7543889
vn -0.3202448 0.5730101 -0.7543889
vn -0.3202448 0.5730101 -0.7543889
vn 0.2960147 -0.3472021 -0.889846
vn 0.2960147 -0.3472021 -0.889846
vn 0.2960147 -0.3472021 -0.889846
vn 0.2960147 -0.3472021 -0.889846
vn 0.9639857 -0.1673552 -0.2066969
vn 0.9639857 -0.1673552 -0.2066969
vn 0.9639857 -0.1673552 -0.2066969
vn 0.9639857 -0.1673552 -0.2066969
vn -0.951022 0.1651046 -0.2613385
vn -0.951022 0.1651046 -0.2613385
vn -0.951022 0.1651046 -0.2613385
vn -0.951022 0.1651046 -0.2613385
vn 0 0 -1
vn 0 0 -1
vn 0 0 -1
vn 0 0 -1
vn -0.9999998 0 0.0007961104
vn -0.9999998 0 0.0007961104
vn -0.9999998 0 0.0007961104
vn -0.9999998 0 0.0007961104
vn 0.9999998 0 0.0007961105
vn 0.9999998 0 0.0007961105
vn 0.9999998 0 0.0007961105
vn 0.9999998 0 0.0007961105
vn 0 -0.9999998 0.0007961104
vn 0 -0.9999998 0.0007961104
vn 0 -0.9999998 0.0007961104
vn 0 -0.9999998 0.0007961104
vn 0 0.9999998 0.0007961103
vn 0 0.9999998 0.0007961103
vn 0 0.9999998 0.0007961103
vn 0 0.9999998 0.0007961103
vn 0 0 1
vn 0 0 1
vn 0 0 1
vn 0 0 1
vn 0.9999998 0 0.0007898947
vn 0.9999998 0 0.0007898948
vn 0.9999998 0 0.0007898948
vn 0.9999998 0 0.0007898947
vn -0.9999998 0 0.0007898947
vn -0.9999998 0 0.0007898948
vn -0.9999998 0 0.0007898948
vn -0.9999998 0 0.0007898947
vn 0 0.9999998 0.0007898947
vn 0 0.9999998 0.0007898948
vn 0 0.9999998 0.0007898948
vn 0 0.9999998 0.0007898947
vn 0 -0.9999998 0.0007898948
vn 0 -0.9999998 0.0007898948
vn 0 -0.9999998 0.0007898948
vn 0 -0.9999998 0.0007898948
vn 0 -0.9784051 -0.2066967
vn 0 -0.9784051 -0.2066967
vn 0 -0.9784051 -0.2066967
vn 0 -0.9784051 -0.2066967
vn 0 0.9652475 -0.2613374
vn 0 0.9652475 -0.2613374
vn 0 0.9652475 -0.2613374
vn 0 0.9652475 -0.2613374
vn 0.3202448 -0.5730101 0.7543889
vn 0.3202448 -0.5730102 0.7543889
vn 0.3202448 -0.5730102 0.7543889
vn 0.3202448 -0.5730101 0.7543889
vn -0.2960145 0.3472002 0.8898469
vn -0.2960144 0.3472002 0.8898469
vn -0.2960144 0.3472002 0.8898469
vn -0.2960144 0.3472002 0.8898469
vn -0.963986 0.1673541 0.2066967
vn -0.9639861 0.1673541 0.2066967
vn -0.963986 0.1673541 0.2066967
vn -0.9639861 0.1673541 0.2066967
vn 0.951022 -0.1651046 0.2613386
vn 0.951022 -0.1651046 0.2613386
vn 0.951022 -0.1651046 0.2613386
vn 0.951022 -0.1651046 0.2613386
vn 0 0 -1
vn 0 0 -1
vn 0 0 -1
vn 0 0 -1
vn 0 0 -1
vn 0 0 -1
vn 0 0 -1
vn 0 0 -1
vn 0 0 -1
vn 0 0 -1
vn 0 0 -1
vn 0 0 -1
vn 0 0 -1
vn 0 0 -1
vn 0 0 -1
vn 0 0 -1
vn 0 0 -1
vn 0 0 -1
vn 0 0 -1
vn 0 0 -1
vn 0 0 -1
vn 0 0 -1
vn 0 0 -1
vn 0 0 -1
vn 0 0 -1
vn 0 0 -1
vn 0 0 -1
vn 0 0 -1
vn 0 0 -1
vn 0 0 -1
vn 0 0 -1
vn 0 0 -1
vn 1 0 0
vn 1 0 0
vn 1 0 0
vn 1 0 0
vn 0 -0.2067097 0.9784023
vn 0 -0.2067097 0.9784023
vn 0 -0.2067097 0.9784023
vn 0 -0.2067097 0.9784023
vn -1 0 0
vn -1 0 0
vn -1 0 0
vn -1 0 0
vn -1 0 0
vn -1 0 0
vn -1 0 0
vn -1 0 0
vn 1 0 0
vn 1 0 0
vn 1 0 0
vn 1 0 0
vn 0 0.2613092 0.9652551
vn 0 0.2613092 0.9652551
vn 0 0.2613092 0.9652551
vn 0 0.2613092 0.9652551
vn 0 0.2066983 -0.9784047
vn 0 0.2066983 -0.9784047
vn 0 0.2066983 -0.9784047
vn 0 0.2066983 -0.9784047
vn 0 -0.2613817 -0.9652355
vn 0 -0.2613817 -0.9652355
vn 0 -0.2613817 -0.9652355
vn 0 -0.2613817 -0.9652355
vn 0.8729188 0.4878654 0
vn 0.8729188 0.4878654 0
vn 0.8729188 0.4878654 0
vn 0.8729188 0.4878654 0
vn -0.3680411 0.6585314 0.6564161
vn -0.368041 0.6585315 0.6564161
vn -0.3680411 0.6585315 0.656416
vn -0.3680411 0.6585315 0.656416
vn -0.8729188 -0.4878654 0
vn -0.8729188 -0.4878654 0
vn -0.8729188 -0.4878654 0
vn -0.8729188 -0.4878654 0
vn 0.368041 -0.6585315 -0.6564161
vn 0.368041 -0.6585315 -0.6564161
vn 0.3680411 -0.6585315 -0.656416
vn 0.368041 -0.6585315 -0.656416
vn -0.8925466 -0.4323372 -0.1282384
vn -0.8925466 -0.4323372 -0.1282384
vn -0.8925466 -0.4323372 -0.1282384
vn -0.8925466 -0.4323372 -0.1282384
vn 0.3402102 -0.8322136 0.4378101
vn 0.3402102 -0.8322136 0.43781
vn 0.3402102 -0.8322136 0.43781
vn 0.3402102 -0.8322136 0.4378101
vn 0.8925476 0.4323371 0.1282321
vn 0.8925476 0.4323371 0.1282321
vn 0.8925476 0.432337 0.1282321
vn 0.8925476 0.4323371 0.1282321
vn -0.3401935 0.8321933 -0.4378617
vn -0.3401935 0.8321933 -0.4378616
vn -0.3401935 0.8321933 -0.4378617
vn -0.3401935 0.8321933 -0.4378617
vn -0.1710012 -0.9852707 0
vn -0.1710012 -0.9852707 0
vn -0.1710012 -0.9852707 0
vn -0.1710012 -0.9852707 0
vn 0.2035552 -0.03533861 0.9784254
vn 0.2035552 -0.03533861 0.9784254
vn 0.2035552 -0.03533861 0.9784254
vn 0.2035552 -0.03533861 0.9784254
vn 0.1710008 0.9852709 0
vn 0.1710008 0.9852709 0
vn 0.1710008 0.9852709 0
vn 0.1710008 0.9852709 0
vn 0.1710426 0.9852636 0
vn 0.1710426 0.9852637 0
vn 0.1710426 0.9852636 0
vn 0.1710426 0.9852636 0
vn -0.1710573 -0.9852611 0
vn -0.1710573 -0.9852611 0
vn -0.1710573 -0.9852611 0
vn -0.1710573 -0.9852611 0
vn -0.2574526 0.04469572 0.9652566
vn -0.2574527 0.04469573 0.9652566
vn -0.2574527 0.04469572 0.9652566
vn -0.2574526 0.04469573 0.9652566
vn -0.2035699 0.03534114 -0.9784224
vn -0.2035699 0.03534114 -0.9784224
vn -0.2035699 0.03534114 -0.9784224
vn -0.2035699 0.03534114 -0.9784224
vn 0.2575494 -0.04471251 -0.96523
vn 0.2575494 -0.04471251 -0.96523
vn 0.2575494 -0.04471251 -0.96523
vn 0.2575494 -0.04471251 -0.96523
g HedgeCentre_0
f 3/3/3 2/2/2 1/1/1
f 4/4/4 3/3/3 1/1/1
f 7/7/7 6/6/6 5/5/5
f 8/8/8 7/7/7 5/5/5
f 11/11/11 10/10/10 9/9/9
f 12/12/12 11/11/11 9/9/9
f 15/15/15 14/14/14 13/13/13
f 16/16/16 15/15/15 13/13/13
f 19/19/19 18/18/18 17/17/17
f 20/20/20 19/19/19 17/17/17
f 23/23/23 22/22/22 21/21/21
f 24/24/24 23/23/23 21/21/21
f 27/27/27 26/26/26 25/25/25
f 28/28/28 27/27/27 25/25/25
f 31/31/31 30/30/30 29/29/29
f 32/32/32 31/31/31 29/29/29
f 35/35/35 34/34/34 33/33/33
f 36/36/36 35/35/35 33/33/33
f 39/39/39 38/38/38 37/37/37
f 40/40/40 39/39/39 37/37/37
f 43/43/43 42/42/42 41/41/41
f 44/44/44 43/43/43 41/41/41
f 47/47/47 46/46/46 45/45/45
f 48/48/48 47/47/47 45/45/45
f 51/51/51 50/50/50 49/49/49
f 52/52/52 51/51/51 49/49/49
f 55/55/55 54/54/54 53/53/53
f 56/56/56 55/55/55 53/53/53
f 59/59/59 58/58/58 57/57/57
f 60/60/60 59/59/59 57/57/57
f 63/63/63 62/62/62 61/61/61
f 64/64/64 63/63/63 61/61/61
f 67/67/67 66/66/66 65/65/65
f 68/68/68 67/67/67 65/65/65
f 71/71/71 70/70/70 69/69/69
f 72/72/72 71/71/71 69/69/69
f 75/75/75 74/74/74 73/73/73
f 76/76/76 75/75/75 73/73/73
f 79/79/79 78/78/78 77/77/77
f 80/80/80 79/79/79 77/77/77
f 83/83/83 82/82/82 81/81/81
f 84/84/84 83/83/83 81/81/81
f 87/87/87 86/86/86 85/85/85
f 88/88/88 87/87/87 85/85/85
f 91/91/91 90/90/90 89/89/89
f 92/92/92 91/91/91 89/89/89
f 95/95/95 94/94/94 93/93/93
f 96/96/96 95/95/95 93/93/93
f 99/99/99 98/98/98 97/97/97
f 100/100/100 99/99/99 97/97/97
f 103/103/103 102/102/102 101/101/101
f 104/104/104 103/103/103 101/101/101
f 107/107/107 106/106/106 105/105/105
f 108/108/108 107/107/107 105/105/105
f 111/111/111 110/110/110 109/109/109
f 112/112/112 111/111/111 109/109/109
f 115/115/115 114/114/114 113/113/113
f 116/116/116 115/115/115 113/113/113
f 119/119/119 118/118/118 117/117/117
f 120/120/120 119/119/119 117/117/117
f 123/123/123 122/122/122 121/121/121
f 124/124/124 123/123/123 121/121/121
f 127/127/127 126/126/126 125/125/125
f 128/128/128 127/127/127 125/125/125
f 131/131/131 130/130/130 129/129/129
f 132/132/132 131/131/131 129/129/129
f 135/135/135 134/134/134 133/133/133
f 136/136/136 135/135/135 133/133/133
f 139/139/139 138/138/138 137/137/137
f 140/140/140 139/139/139 137/137/137
f 143/143/143 142/142/142 141/141/141
f 144/144/144 143/143/143 141/141/141
f 147/147/147 146/146/146 145/145/145
f 148/148/148 147/147/147 145/145/145
f 151/151/151 150/150/150 149/149/149
f 152/152/152 151/151/151 149/149/149
f 155/155/155 154/154/154 153/153/153
f 156/156/156 155/155/155 153/153/153
f 159/159/159 158/158/158 157/157/157
f 160/160/160 159/159/159 157/157/157
f 163/163/163 162/162/162 161/161/161
f 164/164/164 163/163/163 161/161/161
f 167/167/167 166/166/166 165/165/165
f 168/168/168 167/167/167 165/165/165
f 171/171/171 170/170/170 169/169/169
f 172/172/172 171/171/171 169/169/169
f 175/175/175 174/174/174 173/173/173
f 176/176/176 175/175/175 173/173/173
f 179/179/179 178/178/178 177/177/177
f 180/180/180 179/179/179 177/177/177
f 183/183/183 182/182/182 181/181/181
f 184/184/184 183/183/183 181/181/181
f 187/187/187 186/186/186 185/185/185
f 188/188/188 187/187/187 185/185/185
f 191/191/191 190/190/190 189/189/189
f 192/192/192 191/191/191 189/189/189
f 195/195/195 194/194/194 193/193/193
f 196/196/196 195/195/195 193/193/193
f 199/199/199 198/198/198 197/197/197
f 200/200/200 199/199/199 197/197/197
f 203/203/203 202/202/202 201/201/201
f 204/204/204 203/203/203 201/201/201
f 207/207/207 206/206/206 205/205/205
f 208/208/208 207/207/207 205/205/205
f 211/211/211 210/210/210 209/209/209
f 212/212/212 211/211/211 209/209/209
f 215/215/215 214/214/214 213/213/213
f 216/216/216 215/215/215 213/213/213
f 219/219/219 218/218/218 217/217/217
f 220/220/220 219/219/219 217/217/217
f 223/223/223 222/222/222 221/221/221
f 224/224/224 223/223/223 221/221/221
f 227/227/227 226/226/226 225/225/225
f 228/228/228 227/227/227 225/225/225
f 231/231/231 230/230/230 229/229/229
f 232/232/232 231/231/231 229/229/229
f 235/235/235 234/234/234 233/233/233
f 236/236/236 235/235/235 233/233/233
f 239/239/239 238/238/238 237/237/237
f 240/240/240 239/239/239 237/237/237
f 243/243/243 242/242/242 241/241/241
f 244/244/244 243/243/243 241/241/241
f 247/247/247 246/246/246 245/245/245
f 248/248/248 247/247/247 245/245/245
f 251/251/251 250/250/250 249/249/249
f 252/252/252 251/251/251 249/249/249
f 255/255/255 254/254/254 253/253/253
f 256/256/256 255/255/255 253/253/253
