g Hercules_Moth_Wings
v 0 0.883412 -0.013547
v 0 -0.46006 -0.013547
v -1.168807 -0.46006 0.507755
v -1.168807 0.883412 0.507755
v 0 0.883412 -0.013547
v -1.168807 0.883412 0.507755
v -1.168807 -0.46006 0.507755
v 0 -0.46006 -0.013547
v 0 0.883412 -0.013547
v 1.168807 0.883412 0.507755
v 1.168807 -0.46006 0.507755
v 0 -0.46006 -0.013547
v 0 0.883412 -0.013547
v 0 -0.46006 -0.013547
v 1.168807 -0.46006 0.507755
v 1.168807 0.883412 0.507755
vt 0.091156 0.33561
vt 0.091156 0.493157
vt 0.201726 0.493157
vt 0.201726 0.33561
vt 0.091156 0.33561
vt 0.201726 0.33561
vt 0.201726 0.493157
vt 0.091156 0.493157
vt 0.091156 0.33561
vt 0.201726 0.33561
vt 0.201726 0.493157
vt 0.091156 0.493157
vt 0.091156 0.33561
vt 0.091156 0.493157
vt 0.201726 0.493157
vt 0.201726 0.33561
vn 0.4073336 0 0.9132795
vn 0.4073336 0 0.9132795
vn 0.4073336 0 0.9132795
vn 0.4073336 0 0.9132795
vn -0.4073336 0 -0.9132795
vn -0.4073336 0 -0.9132795
vn -0.4073336 0 -0.9132795
vn -0.4073336 0 -0.9132795
vn -0.4073336 0 0.9132795
vn -0.4073336 0 0.9132795
vn -0.4073336 0 0.9132795
vn -0.4073336 0 0.9132795
vn 0.4073336 0 -0.9132795
vn 0.4073336 0 -0.9132795
vn 0.4073336 0 -0.9132795
vn 0.4073336 0 -0.9132795
g Hercules_Moth_Wings_0
f 3/3/3 2/2/2 1/1/1
f 4/4/4 3/3/3 1/1/1
f 7/7/7 6/6/6 5/5/5
f 8/8/8 7/7/7 5/5/5
f 11/11/11 10/10/10 9/9/9
f 12/12/12 11/11/11 9/9/9
f 15/15/15 14/14/14 13/13/13
f 16/16/16 15/15/15 13/13/13
