g HighlighterCorner
v 0.45 0.9 0.056749
v 0.840682 0.9 0.056749
v 0.840682 0.9 -0.128889
v 0.45 0.9 -0.128889
v 0.333333 1 0.056749
v 0.333333 1 -0.128889
v 0.9 1 0.056749
v 0.9 0.959318 0.056749
v 0.9 1 -0.128889
v 1 0.9 0.056749
v 0.959318 0.9 0.056749
v 1 0.9 -0.128889
v 1 0.333333 0.056749
v 0.9 0.959318 -0.128889
v 0.9 0.840682 -0.128889
v 0.959318 0.9 -0.128889
v 0.9 0.840682 0.056749
v 0.9 0.45 -0.128889
v 0.9 0.45 0.056749
v 1 0.333333 -0.128889
vn -0.2675291 -0.7232013 0.6367167
vn -0.2274583 -0.5491329 0.8041864
vn -0.2274583 -0.5491329 -0.8041864
vn -0.2675291 -0.7232013 -0.6367167
vn -0.786315 0.2908764 0.5450684
vn -0.7863147 0.2908762 -0.545069
vn 0.2971086 0.7172836 0.6302625
vn 0 0 1
vn 0.2971086 0.7172836 -0.6302624
vn 0.7172836 0.2971086 0.6302625
vn 0 0 1
vn 0.7172835 0.2971086 -0.6302626
vn 0.2908762 -0.7863146 0.5450692
vn 0 0 -1
vn -0.5491329 -0.2274583 -0.8041864
vn 0 0 -1
vn -0.5491329 -0.2274583 0.8041864
vn -0.7232011 -0.267529 -0.6367168
vn -0.7232013 -0.2675291 0.6367167
vn 0.2908762 -0.7863145 -0.5450693
g HighlighterCorner_0
f 3/3/3 2/2/2 1/1/1
f 4/4/4 3/3/3 1/1/1
f 4/4/4 1/1/1 5/5/5
f 5/5/5 1/1/1 2/2/2
f 3/3/3 4/4/4 6/6/6
f 6/6/6 4/4/4 5/5/5
f 6/6/6 5/5/5 7/7/7
f 5/5/5 2/2/2 8/8/8
f 8/8/8 7/7/7 5/5/5
f 3/3/3 6/6/6 9/9/9
f 9/9/9 6/6/6 7/7/7
f 10/10/10 7/7/7 8/8/8
f 11/11/11 8/8/8 2/2/2
f 11/11/11 10/10/10 8/8/8
f 7/7/7 10/10/10 12/12/12
f 9/9/9 7/7/7 12/12/12
f 13/13/13 10/10/10 11/11/11
f 12/12/12 10/10/10 13/13/13
f 9/9/9 14/14/14 3/3/3
f 2/2/2 3/3/3 15/15/15
f 3/3/3 14/14/14 15/15/15
f 14/14/14 9/9/9 16/16/16
f 9/9/9 12/12/12 16/16/16
f 14/14/14 16/16/16 15/15/15
f 17/17/17 11/11/11 2/2/2
f 17/17/17 2/2/2 15/15/15
f 18/18/18 15/15/15 16/16/16
f 18/18/18 16/16/16 12/12/12
f 15/15/15 18/18/18 17/17/17
f 11/11/11 17/17/17 19/19/19
f 11/11/11 19/19/19 13/13/13
f 18/18/18 19/19/19 17/17/17
f 12/12/12 20/20/20 18/18/18
f 20/20/20 12/12/12 13/13/13
f 20/20/20 13/13/13 19/19/19
f 18/18/18 20/20/20 19/19/19
