g HouseRoofEdges
v -1.984607 -4.205258 4.960668
v 0 -4.205258 6.351064
v 0 -4.205258 6.097628
v -2.164388 -4.205258 5.081375
v -3.969214 -4.205258 4.012022
v -4.516083 -4.205258 4
v -4.516083 -4.205258 3.808474
v -3.969214 -4.205258 3.820496
v -1.984607 -3.95273 4.960668
v 0 -3.95273 6.097628
v 0 -3.95273 6.351064
v -2.164388 -3.95273 5.081375
v -3.969214 -3.95273 4.012022
v -4.516083 -3.95273 4
v -2.164388 -3.95273 5.081375
v -4.516083 -4.205258 4
v -4.516083 -3.95273 4
v -2.164388 -4.205258 5.081375
v 0 -3.95273 6.351064
v 0 -4.205258 6.351064
v -4.516083 -3.95273 3.808474
v -4.516083 -4.205258 3.808474
v -3.969214 -4.205258 3.820496
v -3.969214 -3.95273 3.820496
v -4.516083 0 3.808474
v -3.969214 0 3.820496
v -3.969214 3.95273 3.820496
v -4.516083 3.95273 3.808474
v -3.969214 4.205258 3.820496
v -4.516083 4.205258 3.808474
v -3.969214 -3.95273 4.012022
v -3.969214 -4.205258 3.820496
v -3.969214 -4.205258 4.012022
v -3.969214 -3.95273 3.820496
v -3.969214 0 3.820496
v -3.969214 0 4.012022
v -3.969214 3.95273 4.012022
v -3.969214 3.95273 3.820496
v -3.969214 4.205258 3.820496
v -3.969214 4.205258 4.012022
v -4.516083 -4.205258 4
v -4.516083 -4.205258 3.808474
v -4.516083 -3.95273 3.808474
v -4.516083 -3.95273 4
v -4.516083 0 4
v -4.516083 0 3.808474
v -4.516083 3.95273 3.808474
v -4.516083 3.95273 4
v -4.516083 4.205258 4
v -4.516083 4.205258 3.808474
v -3.969214 -3.95273 4.012022
v -3.969214 -4.205258 4.012022
v -1.984607 -4.205258 4.960668
v -1.984607 -3.95273 4.960668
v 0 -4.205258 6.097628
v 0 -3.95273 6.097628
v 1.984607 -3.95273 4.960668
v 1.984607 -4.205258 4.960668
v 3.969214 -3.95273 4.012022
v 3.969214 -4.205258 4.012022
v -4.516083 -3.95273 4
v -3.969214 0 4.012022
v -3.969214 -3.95273 4.012022
v -4.516083 0 4
v -4.516083 3.95273 4
v -3.969214 3.95273 4.012022
v 1.984607 -4.205258 4.960668
v 0 -4.205258 6.097628
v 0 -4.205258 6.351064
v 2.164388 -4.205258 5.081375
v 3.969214 -4.205258 4.012022
v 4.516083 -4.205258 4
v 4.516083 -4.205258 3.808474
v 3.969214 -4.205258 3.820496
v 1.984607 -3.95273 4.960668
v 0 -3.95273 6.351064
v 0 -3.95273 6.097628
v 2.164388 -3.95273 5.081375
v 3.969214 -3.95273 4.012022
v 4.516083 -3.95273 4
v 2.164388 -3.95273 5.081375
v 4.516083 -3.95273 4
v 4.516083 -4.205258 4
v 2.164388 -4.205258 5.081375
v 0 -3.95273 6.351064
v 0 -4.205258 6.351064
v 4.516083 -3.95273 3.808474
v 3.969214 -4.205258 3.820496
v 4.516083 -4.205258 3.808474
v 3.969214 -3.95273 3.820496
v 4.516083 0 3.808474
v 3.969214 0 3.820496
v 3.969214 3.95273 3.820496
v 4.516083 3.95273 3.808474
v 3.969214 4.205258 3.820496
v 4.516083 4.205258 3.808474
v 3.969214 -3.95273 4.012022
v 3.969214 -4.205258 4.012022
v 3.969214 -4.205258 3.820496
v 3.969214 -3.95273 3.820496
v 3.969214 0 3.820496
v 3.969214 0 4.012022
v 3.969214 3.95273 4.012022
v 3.969214 3.95273 3.820496
v 3.969214 4.205258 3.820496
v 3.969214 4.205258 4.012022
v 4.516083 -4.205258 4
v 4.516083 -3.95273 3.808474
v 4.516083 -4.205258 3.808474
v 4.516083 -3.95273 4
v 4.516083 0 4
v 4.516083 0 3.808474
v 4.516083 3.95273 3.808474
v 4.516083 3.95273 4
v 4.516083 4.205258 4
v 4.516083 4.205258 3.808474
v 4.516083 -3.95273 4
v 3.969214 -3.95273 4.012022
v 3.969214 0 4.012022
v 4.516083 0 4
v 4.516083 3.95273 4
v 3.969214 3.95273 4.012022
v -1.984607 4.205258 4.960668
v 0 4.205258 6.097628
v 0 4.205258 6.351064
v -2.164388 4.205258 5.081375
v -3.969214 4.205258 4.012022
v -4.516083 4.205258 4
v -4.516083 4.205258 3.808474
v -3.969214 4.205258 3.820496
v -1.984607 3.95273 4.960668
v 0 3.95273 6.351064
v 0 3.95273 6.097628
v -2.164388 3.95273 5.081375
v -3.969214 3.95273 4.012022
v -4.516083 3.95273 4
v -2.164388 3.95273 5.081375
v -4.516083 3.95273 4
v -4.516083 4.205258 4
v -2.164388 4.205258 5.081375
v 0 3.95273 6.351064
v 0 4.205258 6.351064
v -3.969214 3.95273 4.012022
v -1.984607 4.205258 4.960668
v -3.969214 4.205258 4.012022
v -1.984607 3.95273 4.960668
v 0 4.205258 6.097628
v 0 3.95273 6.097628
v 1.984607 3.95273 4.960668
v 1.984607 4.205258 4.960668
v 3.969214 3.95273 4.012022
v 3.969214 4.205258 4.012022
v -4.516083 0 4
v -3.969214 0 4.012022
v -3.969214 0 3.820496
v -4.516083 0 3.808474
v 1.984607 4.205258 4.960668
v 0 4.205258 6.351064
v 0 4.205258 6.097628
v 2.164388 4.205258 5.081375
v 3.969214 4.205258 4.012022
v 4.516083 4.205258 4
v 4.516083 4.205258 3.808474
v 3.969214 4.205258 3.820496
v 1.984607 3.95273 4.960668
v 0 3.95273 6.097628
v 0 3.95273 6.351064
v 2.164388 3.95273 5.081375
v 3.969214 3.95273 4.012022
v 4.516083 3.95273 4
v 2.164388 3.95273 5.081375
v 4.516083 4.205258 4
v 4.516083 3.95273 4
v 2.164388 4.205258 5.081375
v 0 3.95273 6.351064
v 0 4.205258 6.351064
v 4.516083 0 4
v 4.516083 0 3.808474
v 3.969214 0 3.820496
v 3.969214 0 4.012022
vt 0.004191 0.996996
vt 0.004949 0.997664
vt 0.004949 0.997602
vt 0.004122 0.997003
vt 0.003432 0.99639
vt 0.003295 0.996342
vt 0.003295 0.996342
vt 0.003432 0.99639
vt 0.004191 0.996996
vt 0.004949 0.997602
vt 0.004949 0.997664
vt 0.004122 0.997003
vt 0.003432 0.99639
vt 0.003295 0.996342
vt 0.004122 0.997003
vt 0.003295 0.996342
vt 0.003295 0.996342
vt 0.004122 0.997003
vt 0.004949 0.997664
vt 0.004949 0.997664
vt 0.003295 0.996342
vt 0.003295 0.996342
vt 0.003432 0.99639
vt 0.003432 0.99639
vt 0.003295 0.996342
vt 0.003432 0.99639
vt 0.003432 0.99639
vt 0.003295 0.996342
vt 0.003432 0.99639
vt 0.003295 0.996342
vt 0.003432 0.99639
vt 0.003432 0.99639
vt 0.003432 0.99639
vt 0.003432 0.99639
vt 0.003432 0.99639
vt 0.003432 0.99639
vt 0.003432 0.99639
vt 0.003432 0.99639
vt 0.003432 0.99639
vt 0.003432 0.99639
vt 0.003295 0.996342
vt 0.003295 0.996342
vt 0.003295 0.996342
vt 0.003295 0.996342
vt 0.003295 0.996342
vt 0.003295 0.996342
vt 0.003295 0.996342
vt 0.003295 0.996342
vt 0.003295 0.996342
vt 0.003295 0.996342
vt 0.003432 0.99639
vt 0.003432 0.99639
vt 0.004191 0.996996
vt 0.004191 0.996996
vt 0.004949 0.997602
vt 0.004949 0.997602
vt 0.004191 0.996996
vt 0.004191 0.996996
vt 0.003432 0.99639
vt 0.003432 0.99639
vt 0.003295 0.996342
vt 0.003432 0.99639
vt 0.003432 0.99639
vt 0.003295 0.996342
vt 0.003295 0.996342
vt 0.003432 0.99639
vt 0.004191 0.996996
vt 0.004949 0.997602
vt 0.004949 0.997664
vt 0.004122 0.997003
vt 0.003432 0.99639
vt 0.003295 0.996342
vt 0.003295 0.996342
vt 0.003432 0.99639
vt 0.004191 0.996996
vt 0.004949 0.997664
vt 0.004949 0.997602
vt 0.004122 0.997003
vt 0.003432 0.99639
vt 0.003295 0.996342
vt 0.004122 0.997003
vt 0.003295 0.996342
vt 0.003295 0.996342
vt 0.004122 0.997003
vt 0.004949 0.997664
vt 0.004949 0.997664
vt 0.003295 0.996342
vt 0.003432 0.99639
vt 0.003295 0.996342
vt 0.003432 0.99639
vt 0.003295 0.996342
vt 0.003432 0.99639
vt 0.003432 0.99639
vt 0.003295 0.996342
vt 0.003432 0.99639
vt 0.003295 0.996342
vt 0.003432 0.99639
vt 0.003432 0.99639
vt 0.003432 0.99639
vt 0.003432 0.99639
vt 0.003432 0.99639
vt 0.003432 0.99639
vt 0.003432 0.99639
vt 0.003432 0.99639
vt 0.003432 0.99639
vt 0.003432 0.99639
vt 0.003295 0.996342
vt 0.003295 0.996342
vt 0.003295 0.996342
vt 0.003295 0.996342
vt 0.003295 0.996342
vt 0.003295 0.996342
vt 0.003295 0.996342
vt 0.003295 0.996342
vt 0.003295 0.996342
vt 0.003295 0.996342
vt 0.003295 0.996342
vt 0.003432 0.99639
vt 0.003432 0.99639
vt 0.003295 0.996342
vt 0.003295 0.996342
vt 0.003432 0.99639
vt 0.004191 0.996996
vt 0.004949 0.997602
vt 0.004949 0.997664
vt 0.004122 0.997003
vt 0.003432 0.99639
vt 0.003295 0.996342
vt 0.003295 0.996342
vt 0.003432 0.99639
vt 0.004191 0.996996
vt 0.004949 0.997664
vt 0.004949 0.997602
vt 0.004122 0.997003
vt 0.003432 0.99639
vt 0.003295 0.996342
vt 0.004122 0.997003
vt 0.003295 0.996342
vt 0.003295 0.996342
vt 0.004122 0.997003
vt 0.004949 0.997664
vt 0.004949 0.997664
vt 0.003432 0.99639
vt 0.004191 0.996996
vt 0.003432 0.99639
vt 0.004191 0.996996
vt 0.004949 0.997602
vt 0.004949 0.997602
vt 0.004191 0.996996
vt 0.004191 0.996996
vt 0.003432 0.99639
vt 0.003432 0.99639
vt 0.003295 0.996342
vt 0.003432 0.99639
vt 0.003432 0.99639
vt 0.003295 0.996342
vt 0.004191 0.996996
vt 0.004949 0.997664
vt 0.004949 0.997602
vt 0.004122 0.997003
vt 0.003432 0.99639
vt 0.003295 0.996342
vt 0.003295 0.996342
vt 0.003432 0.99639
vt 0.004191 0.996996
vt 0.004949 0.997602
vt 0.004949 0.997664
vt 0.004122 0.997003
vt 0.003432 0.99639
vt 0.003295 0.996342
vt 0.004122 0.997003
vt 0.003295 0.996342
vt 0.003295 0.996342
vt 0.004122 0.997003
vt 0.004949 0.997664
vt 0.004949 0.997664
vt 0.003295 0.996342
vt 0.003295 0.996342
vt 0.003432 0.99639
vt 0.003432 0.99639
vn 0 -1 0
vn 0 -1 0
vn 0 -1 0
vn 0 -1 0
vn 0 -1 0
vn 0 -1 0
vn 0 -1 0
vn 0 -1 0
vn 0 1 0
vn 0 1 0
vn 0 1 0
vn 0 1 0
vn 0 1 0
vn 0 1 0
vn -0.4617703 0 0.8869995
vn -0.4177766 0 0.9085497
vn -0.4177766 0 0.9085497
vn -0.4617703 0 0.8869995
vn -0.5059894 0 0.8625398
vn -0.5059894 0 0.8625398
vn 0.02197806 0 -0.9997584
vn 0.02197806 0 -0.9997584
vn 0.02197806 0 -0.9997584
vn 0.02197806 0 -0.9997584
vn 0.02197806 0 -0.9997584
vn 0.02197806 0 -0.9997584
vn 0.02197806 0 -0.9997584
vn 0.02197806 0 -0.9997584
vn 0.02197806 0 -0.9997584
vn 0.02197806 0 -0.9997584
vn 1 0 0
vn 1 0 0
vn 1 0 0
vn 1 0 0
vn 1 0 0
vn 1 0 0
vn 1 0 0
vn 1 0 0
vn 1 0 0
vn 1 0 0
vn -1 0 0
vn -1 0 0
vn -1 0 0
vn -1 0 0
vn -1 0 0
vn -1 0 0
vn -1 0 0
vn -1 0 0
vn -1 0 0
vn -1 0 0
vn 0.4312654 0 -0.9022251
vn 0.4312654 0 -0.9022251
vn 0.4651431 0 -0.8852354
vn 0.4651431 0 -0.8852354
vn 0 0 -1
vn 0 0 -1
vn -0.4651431 0 -0.8852354
vn -0.4651431 0 -0.8852354
vn -0.4312654 0 -0.9022251
vn -0.4312654 0 -0.9022251
vn -0.02197806 0 0.9997584
vn -0.02197806 0 0.9997584
vn -0.02197806 0 0.9997584
vn -0.02197806 0 0.9997584
vn -0.02197806 0 0.9997584
vn -0.02197806 0 0.9997584
vn 0 -1 0
vn 0 -1 0
vn 0 -1 0
vn 0 -1 0
vn 0 -1 0
vn 0 -1 0
vn 0 -1 0
vn 0 -1 0
vn 0 1 0
vn 0 1 0
vn 0 1 0
vn 0 1 0
vn 0 1 0
vn 0 1 0
vn 0.4617703 0 0.8869995
vn 0.4177766 0 0.9085497
vn 0.4177766 0 0.9085497
vn 0.4617703 0 0.8869995
vn 0.5059894 0 0.8625398
vn 0.5059894 0 0.8625398
vn -0.02197806 0 -0.9997584
vn -0.02197806 0 -0.9997584
vn -0.02197806 0 -0.9997584
vn -0.02197806 0 -0.9997584
vn -0.02197806 0 -0.9997584
vn -0.02197806 0 -0.9997584
vn -0.02197806 0 -0.9997584
vn -0.02197806 0 -0.9997584
vn -0.02197806 0 -0.9997584
vn -0.02197806 0 -0.9997584
vn -1 0 0
vn -1 0 0
vn -1 0 0
vn -1 0 0
vn -1 0 0
vn -1 0 0
vn -1 0 0
vn -1 0 0
vn -1 0 0
vn -1 0 0
vn 1 0 0
vn 1 0 0
vn 1 0 0
vn 1 0 0
vn 1 0 0
vn 1 0 0
vn 1 0 0
vn 1 0 0
vn 1 0 0
vn 1 0 0
vn 0.02197806 0 0.9997584
vn 0.02197806 0 0.9997584
vn 0.02197806 0 0.9997584
vn 0.02197806 0 0.9997584
vn 0.02197806 0 0.9997584
vn 0.02197806 0 0.9997584
vn 0 1 0
vn 0 1 0
vn 0 1 0
vn 0 1 0
vn 0 1 0
vn 0 1 0
vn 0 1 0
vn 0 1 0
vn 0 -1 0
vn 0 -1 0
vn 0 -1 0
vn 0 -1 0
vn 0 -1 0
vn 0 -1 0
vn -0.4617703 0 0.8869995
vn -0.4177766 0 0.9085497
vn -0.4177766 0 0.9085497
vn -0.4617703 0 0.8869995
vn -0.5059894 0 0.8625398
vn -0.5059894 0 0.8625398
vn 0.4312654 0 -0.9022251
vn 0.4651431 0 -0.8852354
vn 0.4312654 0 -0.9022251
vn 0.4651431 0 -0.8852354
vn 0 0 -1
vn 0 0 -1
vn -0.4651431 0 -0.8852354
vn -0.4651431 0 -0.8852354
vn -0.4312654 0 -0.9022251
vn -0.4312654 0 -0.9022251
vn 0 -1 0
vn 0 -1 0
vn 0 -1 0
vn 0 -1 0
vn 0 1 0
vn 0 1 0
vn 0 1 0
vn 0 1 0
vn 0 1 0
vn 0 1 0
vn 0 1 0
vn 0 1 0
vn 0 -1 0
vn 0 -1 0
vn 0 -1 0
vn 0 -1 0
vn 0 -1 0
vn 0 -1 0
vn 0.4617703 0 0.8869995
vn 0.4177766 0 0.9085497
vn 0.4177766 0 0.9085497
vn 0.4617703 0 0.8869995
vn 0.5059894 0 0.8625398
vn 0.5059894 0 0.8625398
vn 0 -1 0
vn 0 -1 0
vn 0 -1 0
vn 0 -1 0
g HouseRoofEdges_0
f 3/3/3 2/2/2 1/1/1
f 2/2/2 4/4/4 1/1/1
f 1/1/1 4/4/4 5/5/5
f 4/4/4 6/6/6 5/5/5
f 6/6/6 7/7/7 5/5/5
f 7/7/7 8/8/8 5/5/5
f 11/11/11 10/10/10 9/9/9
f 12/12/12 11/11/11 9/9/9
f 12/12/12 9/9/9 13/13/13
f 14/14/14 12/12/12 13/13/13
f 17/17/17 16/16/16 15/15/15
f 16/16/16 18/18/18 15/15/15
f 15/15/15 18/18/18 19/19/19
f 18/18/18 20/20/20 19/19/19
f 23/23/23 22/22/22 21/21/21
f 24/24/24 23/23/23 21/21/21
f 21/21/21 25/25/25 24/24/24
f 25/25/25 26/26/26 24/24/24
f 26/26/26 25/25/25 27/27/27
f 25/25/25 28/28/28 27/27/27
f 29/29/29 27/27/27 28/28/28
f 30/30/30 29/29/29 28/28/28
f 33/33/33 32/32/32 31/31/31
f 32/32/32 34/34/34 31/31/31
f 34/34/34 35/35/35 31/31/31
f 35/35/35 36/36/36 31/31/31
f 36/36/36 35/35/35 37/37/37
f 35/35/35 38/38/38 37/37/37
f 38/38/38 39/39/39 37/37/37
f 39/39/39 40/40/40 37/37/37
f 43/43/43 42/42/42 41/41/41
f 44/44/44 43/43/43 41/41/41
f 44/44/44 45/45/45 43/43/43
f 45/45/45 46/46/46 43/43/43
f 46/46/46 45/45/45 47/47/47
f 45/45/45 48/48/48 47/47/47
f 47/47/47 48/48/48 49/49/49
f 50/50/50 47/47/47 49/49/49
f 53/53/53 52/52/52 51/51/51
f 54/54/54 53/53/53 51/51/51
f 55/55/55 53/53/53 54/54/54
f 56/56/56 55/55/55 54/54/54
f 55/55/55 56/56/56 57/57/57
f 58/58/58 55/55/55 57/57/57
f 58/58/58 57/57/57 59/59/59
f 60/60/60 58/58/58 59/59/59
f 63/63/63 62/62/62 61/61/61
f 62/62/62 64/64/64 61/61/61
f 64/64/64 62/62/62 65/65/65
f 62/62/62 66/66/66 65/65/65
f 69/69/69 68/68/68 67/67/67
f 70/70/70 69/69/69 67/67/67
f 70/70/70 67/67/67 71/71/71
f 72/72/72 70/70/70 71/71/71
f 73/73/73 72/72/72 71/71/71
f 74/74/74 73/73/73 71/71/71
f 77/77/77 76/76/76 75/75/75
f 76/76/76 78/78/78 75/75/75
f 75/75/75 78/78/78 79/79/79
f 78/78/78 80/80/80 79/79/79
f 83/83/83 82/82/82 81/81/81
f 84/84/84 83/83/83 81/81/81
f 84/84/84 81/81/81 85/85/85
f 86/86/86 84/84/84 85/85/85
f 89/89/89 88/88/88 87/87/87
f 88/88/88 90/90/90 87/87/87
f 91/91/91 87/87/87 90/90/90
f 92/92/92 91/91/91 90/90/90
f 91/91/91 92/92/92 93/93/93
f 94/94/94 91/91/91 93/93/93
f 93/93/93 95/95/95 94/94/94
f 95/95/95 96/96/96 94/94/94
f 99/99/99 98/98/98 97/97/97
f 100/100/100 99/99/99 97/97/97
f 101/101/101 100/100/100 97/97/97
f 102/102/102 101/101/101 97/97/97
f 101/101/101 102/102/102 103/103/103
f 104/104/104 101/101/101 103/103/103
f 105/105/105 104/104/104 103/103/103
f 106/106/106 105/105/105 103/103/103
f 109/109/109 108/108/108 107/107/107
f 108/108/108 110/110/110 107/107/107
f 111/111/111 110/110/110 108/108/108
f 112/112/112 111/111/111 108/108/108
f 111/111/111 112/112/112 113/113/113
f 114/114/114 111/111/111 113/113/113
f 114/114/114 113/113/113 115/115/115
f 113/113/113 116/116/116 115/115/115
f 119/119/119 118/118/118 117/117/117
f 120/120/120 119/119/119 117/117/117
f 119/119/119 120/120/120 121/121/121
f 122/122/122 119/119/119 121/121/121
f 125/125/125 124/124/124 123/123/123
f 126/126/126 125/125/125 123/123/123
f 126/126/126 123/123/123 127/127/127
f 128/128/128 126/126/126 127/127/127
f 129/129/129 128/128/128 127/127/127
f 130/130/130 129/129/129 127/127/127
f 133/133/133 132/132/132 131/131/131
f 132/132/132 134/134/134 131/131/131
f 131/131/131 134/134/134 135/135/135
f 134/134/134 136/136/136 135/135/135
f 139/139/139 138/138/138 137/137/137
f 140/140/140 139/139/139 137/137/137
f 140/140/140 137/137/137 141/141/141
f 142/142/142 140/140/140 141/141/141
f 145/145/145 144/144/144 143/143/143
f 144/144/144 146/146/146 143/143/143
f 144/144/144 147/147/147 146/146/146
f 147/147/147 148/148/148 146/146/146
f 148/148/148 147/147/147 149/149/149
f 147/147/147 150/150/150 149/149/149
f 149/149/149 150/150/150 151/151/151
f 150/150/150 152/152/152 151/151/151
f 155/155/155 154/154/154 153/153/153
f 156/156/156 155/155/155 153/153/153
f 159/159/159 158/158/158 157/157/157
f 158/158/158 160/160/160 157/157/157
f 157/157/157 160/160/160 161/161/161
f 160/160/160 162/162/162 161/161/161
f 162/162/162 163/163/163 161/161/161
f 163/163/163 164/164/164 161/161/161
f 167/167/167 166/166/166 165/165/165
f 168/168/168 167/167/167 165/165/165
f 168/168/168 165/165/165 169/169/169
f 170/170/170 168/168/168 169/169/169
f 173/173/173 172/172/172 171/171/171
f 172/172/172 174/174/174 171/171/171
f 171/171/171 174/174/174 175/175/175
f 174/174/174 176/176/176 175/175/175
f 179/179/179 178/178/178 177/177/177
f 180/180/180 179/179/179 177/177/177
