g JacarandaFlowerPart
v -0.358073 -0.020125 -0.09536
v -0.358073 -0.074856 0.458522
v 0.250681 -0.074856 0.458522
v 0.250681 -0.020125 -0.09536
v 0.016532 0.297817 -0.178593
v 0.057186 0.298485 0.363827
v -0.08327 -0.337398 0.530292
v -0.123924 -0.338066 -0.012127
v -0.299397 0.203293 -0.146293
v -0.309104 0.186644 0.401552
v 0.182298 -0.260192 0.503418
v 0.192005 -0.243543 -0.044427
vt 0.281191 0.903128
vt 0.281191 0.93212
vt 0.310184 0.93212
vt 0.310184 0.903128
vt 0.310184 0.903128
vt 0.310184 0.93212
vt 0.281191 0.93212
vt 0.281191 0.903128
vt 0.281191 0.903128
vt 0.281191 0.93212
vt 0.310184 0.93212
vt 0.310184 0.903128
vn 0 -0.9951534 -0.09833404
vn 0 -0.9951534 -0.09833404
vn 0 -0.9951534 -0.09833404
vn 0 -0.9951534 -0.09833404
vn -0.9697418 0.233152 0.07239398
vn -0.9697418 0.233152 0.07239398
vn -0.9697418 0.233152 0.07239398
vn -0.9697418 0.233152 0.07239398
vn -0.6684463 -0.7429634 -0.03442302
vn -0.6684463 -0.7429634 -0.03442302
vn -0.6684463 -0.7429634 -0.03442302
vn -0.6684463 -0.7429634 -0.03442302
g JacarandaFlowerPart_0
f 3/3/3 2/2/2 1/1/1
f 4/4/4 3/3/3 1/1/1
f 7/7/7 6/6/6 5/5/5
f 8/8/8 7/7/7 5/5/5
f 11/11/11 10/10/10 9/9/9
f 12/12/12 11/11/11 9/9/9
