g JohnsSign
v -1.907079 -0.387999 0.04956
v 2.117973 -0.387999 0.04956
v 2.117973 -0.387999 1.126348
v -1.907079 -0.387999 1.126348
v -1.515564 -0.387999 1.126348
v 1.726458 -0.387999 1.126348
v 1.726458 -0.387999 1.786915
v -1.515564 -0.387999 1.786915
v -0.909597 -0.388 2.197577
v -0.877011 -0.388 1.786838
v 1.087905 -0.388 1.786838
v 1.120491 -0.388 2.197577
v -0.773607 -0.388 2.705099
v 0.984501 -0.388 2.705099
v -0.402075 -0.388 3.076631
v 0.612969 -0.388 3.076631
v 0.105447 -0.388 3.212621
v -1.907079 -0.530836 0.04956
v -1.907079 -0.530836 1.126348
v 2.117973 -0.530836 1.126348
v 2.117973 -0.530836 0.04956
v -1.515564 -0.530836 1.126348
v -1.515564 -0.530836 1.786915
v 1.726458 -0.530836 1.786915
v 1.726458 -0.530836 1.126348
v 1.120491 -0.530837 2.197577
v 1.087905 -0.530837 1.786838
v -0.877011 -0.530837 1.786838
v -0.909597 -0.530837 2.197577
v 0.984501 -0.530837 2.705099
v -0.773607 -0.530837 2.705099
v 0.612969 -0.530837 3.076631
v -0.402075 -0.530837 3.076631
v 0.105447 -0.530837 3.212621
v -1.515564 -0.387999 1.126348
v -1.515564 -0.530836 1.126348
v 1.726458 -0.530836 1.126348
v 1.726458 -0.387999 1.126348
v 1.726458 -0.387999 1.126348
v 1.726458 -0.530836 1.126348
v 1.726458 -0.530836 1.786915
v 1.726458 -0.387999 1.786915
v 0.984501 -0.388 2.705099
v 0.612969 -0.530837 3.076631
v 0.612969 -0.388 3.076631
v 0.984501 -0.530837 2.705099
v 1.120491 -0.388 2.197577
v 1.120491 -0.530837 2.197577
v 1.087905 -0.388 1.786838
v 1.087905 -0.530837 1.786838
v 1.726458 -0.387999 1.786915
v 1.726458 -0.530836 1.786915
v -1.515564 -0.530836 1.786915
v -1.515564 -0.387999 1.786915
v -1.907079 -0.387999 1.126348
v -1.907079 -0.530836 1.126348
v -1.907079 -0.530836 0.04956
v -1.907079 -0.387999 0.04956
v 0.612969 -0.388 3.076631
v 0.612969 -0.530837 3.076631
v 0.105447 -0.530837 3.212621
v 0.105447 -0.388 3.212621
v -0.402075 -0.530837 3.076631
v -0.402075 -0.388 3.076631
v -1.907079 -0.387999 0.04956
v -1.907079 -0.530836 0.04956
v 2.117973 -0.530836 0.04956
v 2.117973 -0.387999 0.04956
v -0.877011 -0.388 1.786838
v -0.877011 -0.530837 1.786838
v 1.087905 -0.530837 1.786838
v 1.087905 -0.388 1.786838
v -0.402075 -0.388 3.076631
v -0.402075 -0.530837 3.076631
v -0.773607 -0.530837 2.705099
v -0.773607 -0.388 2.705099
v -0.909597 -0.530837 2.197577
v -0.909597 -0.388 2.197577
v -0.877011 -0.530837 1.786838
v -0.877011 -0.388 1.786838
v 2.117973 -0.387999 0.04956
v 2.117973 -0.530836 0.04956
v 2.117973 -0.530836 1.126348
v 2.117973 -0.387999 1.126348
v 2.117973 -0.387999 1.126348
v 2.117973 -0.530836 1.126348
v -1.907079 -0.530836 1.126348
v -1.907079 -0.387999 1.126348
v -1.515564 -0.387999 1.786915
v -1.515564 -0.530836 1.786915
v -1.515564 -0.530836 1.126348
v -1.515564 -0.387999 1.126348
vt 0.132649 0.047072
vt 0.457801 0.047072
vt 0.457801 0.134057
vt 0.132649 0.134057
vt 0.164277 0.134057
vt 0.426174 0.134057
vt 0.426174 0.18742
vt 0.164277 0.18742
vt 0.213228 0.220594
vt 0.21586 0.187413
vt 0.37459 0.187413
vt 0.377223 0.220594
vt 0.224214 0.261592
vt 0.366237 0.261592
vt 0.254227 0.291605
vt 0.336224 0.291605
vt 0.295225 0.302591
vt 0.076801 0.292476
vt 0.076801 0.517306
vt 0.917218 0.517306
vt 0.917218 0.292476
vt 0.158548 0.517306
vt 0.158548 0.65523
vt 0.835471 0.65523
vt 0.835471 0.517306
vt 0.708947 0.740975
vt 0.702144 0.655214
vt 0.291876 0.655214
vt 0.285072 0.740975
vt 0.680553 0.846944
vt 0.313466 0.846944
vt 0.602979 0.924518
vt 0.391041 0.924518
vt 0.49701 0.952913
vt 0.263511 0.202461
vt 0.242054 0.223751
vt 0.638862 0.223753
vt 0.611819 0.205901
vt 0.611819 0.205901
vt 0.638862 0.223753
vt 0.637655 0.099122
vt 0.616199 0.120412
vt 0.503796 0.159622
vt 0.489283 0.080004
vt 0.47333 0.094358
vt 0.526545 0.155248
vt 0.494393 0.232283
vt 0.516411 0.242023
vt 0.458454 0.274427
vt 0.467446 0.296128
vt 0.616199 0.120412
vt 0.637655 0.099122
vt 0.240848 0.09912
vt 0.267891 0.116972
vt 0.190745 0.078571
vt 0.163177 0.060776
vt 0.17805 0.240738
vt 0.197446 0.219279
vt 0.47333 0.094358
vt 0.489283 0.080004
vt 0.425532 0.040743
vt 0.42044 0.06004
vt 0.352902 0.040743
vt 0.35876 0.059491
vt 0.197446 0.219279
vt 0.17805 0.240738
vt 0.666792 0.240739
vt 0.639224 0.222944
vt 0.280292 0.19275
vt 0.264168 0.205775
vt 0.467446 0.296128
vt 0.458454 0.274427
vt 0.35876 0.059491
vt 0.352902 0.040743
vt 0.291022 0.078796
vt 0.305969 0.091837
vt 0.255784 0.146487
vt 0.277164 0.149166
vt 0.264168 0.205775
vt 0.280292 0.19275
vt 0.639224 0.222944
vt 0.666792 0.240739
vt 0.651918 0.060776
vt 0.632523 0.082236
vt 0.632523 0.082236
vt 0.651918 0.060776
vt 0.163177 0.060776
vt 0.190745 0.078571
vt 0.267891 0.116972
vt 0.240848 0.09912
vt 0.242054 0.223751
vt 0.263511 0.202461
vn 0 1 0
vn 0 1 0
vn 0 1 0
vn 0 1 0
vn 0 1 0
vn 0 1 0
vn 0 1 0
vn 0 1 0
vn 0 1 0
vn 0 1 0
vn 0 1 0
vn 0 1 0
vn 0 1 0
vn 0 1 0
vn 0 1 0
vn 0 1 0
vn 0 1 0
vn 0 -1 0
vn 0 -1 0
vn 0 -1 0
vn 0 -1 0
vn 0 -1 0
vn 0 -1 0
vn 0 -1 0
vn 0 -1 0
vn 0 -1 0
vn 0 -1 0
vn 0 -1 0
vn 0 -1 0
vn 0 -1 0
vn 0 -1 0
vn 0 -1 0
vn 0 -1 0
vn 0 -1 0
vn 0 0 -1
vn 0 0 -1
vn 0 0 -1
vn 0 0 -1
vn 1 0 0
vn 1 0 0
vn 1 0 0
vn 1 0 0
vn 0.8660254 0 0.5
vn 0.4999997 0 0.8660255
vn 0.4999997 0 0.8660255
vn 0.8660254 0 0.5
vn 0.9958336 0 0.09118813
vn 0.9958336 0 0.09118813
vn 0.6785696 0 -0.7345361
vn 0.6785696 0 -0.7345361
vn 0 0 1
vn 0 0 1
vn 0 0 1
vn 0 0 1
vn -1 0 0
vn -1 0 0
vn -1 0 0
vn -1 0 0
vn 0.4999997 0 0.8660255
vn 0.4999997 0 0.8660255
vn 0 0 1
vn 0 0 1
vn -0.4999997 0 0.8660255
vn -0.4999997 0 0.8660255
vn 0 0 -1
vn 0 0 -1
vn 0 0 -1
vn 0 0 -1
vn -0.6785696 0 -0.7345361
vn -0.6785696 0 -0.7345361
vn 0.6785696 0 -0.7345361
vn 0.6785696 0 -0.7345361
vn -0.4999997 0 0.8660255
vn -0.4999997 0 0.8660255
vn -0.8660255 0 0.4999999
vn -0.8660255 0 0.4999999
vn -0.9958336 0 0.09118807
vn -0.9958336 0 0.09118807
vn -0.6785696 0 -0.7345361
vn -0.6785696 0 -0.7345361
vn 1 0 0
vn 1 0 0
vn 1 0 0
vn 1 0 0
vn 0 0 1
vn 0 0 1
vn 0 0 1
vn 0 0 1
vn -1 0 0
vn -1 0 0
vn -1 0 0
vn -1 0 0
g JohnsSign_0
f 3/3/3 2/2/2 1/1/1
f 4/4/4 3/3/3 1/1/1
f 7/7/7 6/6/6 5/5/5
f 8/8/8 7/7/7 5/5/5
f 11/11/11 10/10/10 9/9/9
f 9/9/9 12/12/12 11/11/11
f 9/9/9 13/13/13 12/12/12
f 13/13/13 14/14/14 12/12/12
f 13/13/13 15/15/15 14/14/14
f 15/15/15 16/16/16 14/14/14
f 15/15/15 17/17/17 16/16/16
f 20/20/20 19/19/19 18/18/18
f 21/21/21 20/20/20 18/18/18
f 24/24/24 23/23/23 22/22/22
f 25/25/25 24/24/24 22/22/22
f 28/28/28 27/27/27 26/26/26
f 26/26/26 29/29/29 28/28/28
f 26/26/26 30/30/30 29/29/29
f 30/30/30 31/31/31 29/29/29
f 30/30/30 32/32/32 31/31/31
f 32/32/32 33/33/33 31/31/31
f 32/32/32 34/34/34 33/33/33
f 37/37/37 36/36/36 35/35/35
f 38/38/38 37/37/37 35/35/35
f 41/41/41 40/40/40 39/39/39
f 42/42/42 41/41/41 39/39/39
f 45/45/45 44/44/44 43/43/43
f 44/44/44 46/46/46 43/43/43
f 43/43/43 46/46/46 47/47/47
f 46/46/46 48/48/48 47/47/47
f 47/47/47 48/48/48 49/49/49
f 48/48/48 50/50/50 49/49/49
f 53/53/53 52/52/52 51/51/51
f 54/54/54 53/53/53 51/51/51
f 57/57/57 56/56/56 55/55/55
f 58/58/58 57/57/57 55/55/55
f 61/61/61 60/60/60 59/59/59
f 62/62/62 61/61/61 59/59/59
f 63/63/63 61/61/61 62/62/62
f 64/64/64 63/63/63 62/62/62
f 67/67/67 66/66/66 65/65/65
f 68/68/68 67/67/67 65/65/65
f 71/71/71 70/70/70 69/69/69
f 72/72/72 71/71/71 69/69/69
f 75/75/75 74/74/74 73/73/73
f 76/76/76 75/75/75 73/73/73
f 77/77/77 75/75/75 76/76/76
f 78/78/78 77/77/77 76/76/76
f 79/79/79 77/77/77 78/78/78
f 80/80/80 79/79/79 78/78/78
f 83/83/83 82/82/82 81/81/81
f 84/84/84 83/83/83 81/81/81
f 87/87/87 86/86/86 85/85/85
f 88/88/88 87/87/87 85/85/85
f 91/91/91 90/90/90 89/89/89
f 92/92/92 91/91/91 89/89/89
