g JohnsShop_Collider
v -3.913544 -4.126965 0.250165
v -3.913544 2.669485 0.250165
v -3.913544 2.669485 4.446652
v -3.913544 -4.126965 4.446652
v 0 2.669485 0.250165
v 3.913544 2.669485 0.250165
v 3.913544 2.669485 4.446652
v 0 2.669485 5.765295
v -3.913544 2.669485 0.250165
v -3.913544 2.669485 4.446652
v 3.913544 2.669485 0.250165
v 3.913544 -4.126965 0.250165
v 3.913544 -4.126965 4.446652
v 3.913544 2.669485 4.446652
v 0 -4.126965 0.250165
v -3.913544 -4.126965 0.250165
v -3.913544 -4.126965 4.446652
v 0 -4.126965 5.765295
v 3.913544 -4.126965 0.250165
v 3.913544 -4.126965 4.446652
v 0 2.669485 0.250165
v 3.913544 -4.126965 0.250165
v 3.913544 2.669485 0.250165
v 0 -4.126965 0.250165
v -3.913544 2.669485 0.250165
v -3.913544 -4.126965 0.250165
v 0 2.669485 5.765295
v -3.913544 -4.126965 4.446652
v -3.913544 2.669485 4.446652
v 0 -4.126965 5.765295
v 3.913544 2.669485 4.446652
v 3.913544 -4.126965 4.446652
v 0 5.075526 0.250165
v 3.913544 2.578451 0.250165
v 3.913544 5.075526 0.250165
v 0 2.578451 0.250165
v -3.913544 5.075526 0.250165
v -3.913544 2.578451 0.250165
v 0 5.075526 0.60675
v 3.913544 5.075526 0.60675
v 3.913544 2.578451 0.60675
v 0 2.578451 0.60675
v -3.913544 5.075526 0.60675
v -3.913544 2.578451 0.60675
v 0 5.075526 0.250165
v 3.913544 5.075526 0.250165
v 3.913544 5.075526 0.60675
v 0 5.075526 0.60675
v -3.913544 5.075526 0.250165
v -3.913544 5.075526 0.60675
v 3.913544 5.075526 0.250165
v 3.913544 2.578451 0.250165
v 3.913544 2.578451 0.60675
v 3.913544 5.075526 0.60675
v -3.913544 2.578451 0.250165
v -3.913544 5.075526 0.250165
v -3.913544 5.075526 0.60675
v -3.913544 2.578451 0.60675
v 0 2.578451 0.250165
v -3.913544 2.578451 0.250165
v -3.913544 2.578451 0.60675
v 0 2.578451 0.60675
v 3.913544 2.578451 0.250165
v 3.913544 2.578451 0.60675
v -3.838092 2.725606 4.356437
v -3.838092 2.317445 4.356437
v 3.838092 2.317445 4.356437
v 3.838092 2.725606 4.356437
v -3.838092 2.725606 6.530163
v 3.838092 2.725606 6.530163
v 3.838092 2.317445 6.530163
v -3.838092 2.317445 6.530163
v 3.838092 2.725606 4.356437
v 3.838092 2.725606 6.530163
v -3.838092 2.725606 6.530163
v -3.838092 2.725606 4.356437
v 3.838092 2.317445 4.356437
v 3.838092 2.317445 6.530163
v 3.838092 2.725606 6.530163
v 3.838092 2.725606 4.356437
v -3.838092 2.725606 4.356437
v -3.838092 2.725606 6.530163
v -3.838092 2.317445 6.530163
v -3.838092 2.317445 4.356437
v -3.838092 2.317445 4.356437
v -3.838092 2.317445 6.530163
v 3.838092 2.317445 6.530163
v 3.838092 2.317445 4.356437
v -3.838092 5.097446 3.976008
v -3.838092 2.662707 4.357866
v 3.838092 2.662707 4.357866
v 3.838092 5.097446 3.976008
v -3.838092 5.125987 4.273732
v 3.838092 5.125987 4.273732
v 3.838092 2.691247 4.65559
v -3.838092 2.691247 4.65559
v -3.838092 5.097446 3.976008
v -3.838092 5.125987 4.273732
v -3.838092 2.691247 4.65559
v -3.838092 2.662707 4.357866
v -3.838092 2.662707 4.357866
v -3.838092 2.691247 4.65559
v 3.838092 2.691247 4.65559
v 3.838092 2.662707 4.357866
v 3.838092 5.097446 3.976008
v 3.838092 5.125987 4.273732
v -3.838092 5.125987 4.273732
v -3.838092 5.097446 3.976008
v 3.838092 2.662707 4.357866
v 3.838092 2.691247 4.65559
v 3.838092 5.125987 4.273732
v 3.838092 5.097446 3.976008
vn -1 0 0
vn -1 0 0
vn -0.8155364 0 0.5787058
vn -0.8155364 0 0.5787058
vn 0 1 0
vn 0 1 0
vn 0 1 0
vn 0 1 0
vn 0 1 0
vn 0 1 0
vn 1 0 0
vn 1 0 0
vn 0.8155364 0 0.5787058
vn 0.8155364 0 0.5787058
vn 0 -1 0
vn 0 -1 0
vn 0 -1 0
vn 0 -1 0
vn 0 -1 0
vn 0 -1 0
vn 0 0 -1
vn 0 0 -1
vn 0 0 -1
vn 0 0 -1
vn 0 0 -1
vn 0 0 -1
vn 0 0 1
vn -0.8155364 0 0.5787058
vn -0.8155364 0 0.5787058
vn 0 0 1
vn 0.8155364 0 0.5787058
vn 0.8155364 0 0.5787058
vn 0 0 -1
vn 0 0 -1
vn 0 0 -1
vn 0 0 -1
vn 0 0 -1
vn 0 0 -1
vn 0 0 1
vn 0 0 1
vn 0 0 1
vn 0 0 1
vn 0 0 1
vn 0 0 1
vn 0 1 0
vn 0 1 0
vn 0 1 0
vn 0 1 0
vn 0 1 0
vn 0 1 0
vn 1 0 0
vn 1 0 0
vn 1 0 0
vn 1 0 0
vn -1 0 0
vn -1 0 0
vn -1 0 0
vn -1 0 0
vn 0 -1 0
vn 0 -1 0
vn 0 -1 0
vn 0 -1 0
vn 0 -1 0
vn 0 -1 0
vn 0 0 -1
vn 0 0 -1
vn 0 0 -1
vn 0 0 -1
vn 0 0 1
vn 0 0 1
vn 0 0 1
vn 0 0 1
vn 0 1 0
vn 0 1 0
vn 0 1 0
vn 0 1 0
vn 1 0 0
vn 1 0 0
vn 1 0 0
vn 1 0 0
vn -1 0 0
vn -1 0 0
vn -1 0 0
vn -1 0 0
vn 0 -1 0
vn 0 -1 0
vn 0 -1 0
vn 0 -1 0
vn 0 -0.1549433 -0.9879234
vn 0 -0.2717975 -0.9623545
vn 0 -0.2717975 -0.9623545
vn 0 -0.1549433 -0.9879234
vn 0 0.2717975 0.9623545
vn 0 0.2717975 0.9623545
vn 0 0.1549432 0.9879234
vn 0 0.1549432 0.9879234
vn -1 0 0
vn -1 0 0
vn -1 0 0
vn -1 0 0
vn 0 -0.2717975 -0.9623545
vn 0 -0.9954368 0.09542274
vn 0 -0.9954368 0.09542274
vn 0 -0.2717975 -0.9623545
vn 0 0.9954365 -0.09542669
vn 0 0.2717975 0.9623545
vn 0 0.2717975 0.9623545
vn 0 0.9954365 -0.09542669
vn 1 0 0
vn 1 0 0
vn 1 0 0
vn 1 0 0
g JohnsShop_Collider_0
f 3/3/3 2/2/2 1/1/1
f 4/4/4 3/3/3 1/1/1
f 7/7/7 6/6/6 5/5/5
f 8/8/8 7/7/7 5/5/5
f 8/8/8 5/5/5 9/9/9
f 10/10/10 8/8/8 9/9/9
f 13/13/13 12/12/12 11/11/11
f 14/14/14 13/13/13 11/11/11
f 17/17/17 16/16/16 15/15/15
f 18/18/18 17/17/17 15/15/15
f 18/18/18 15/15/15 19/19/19
f 20/20/20 18/18/18 19/19/19
f 23/23/23 22/22/22 21/21/21
f 22/22/22 24/24/24 21/21/21
f 21/21/21 24/24/24 25/25/25
f 24/24/24 26/26/26 25/25/25
f 29/29/29 28/28/28 27/27/27
f 28/28/28 30/30/30 27/27/27
f 27/27/27 30/30/30 31/31/31
f 30/30/30 32/32/32 31/31/31
f 35/35/35 34/34/34 33/33/33
f 34/34/34 36/36/36 33/33/33
f 33/33/33 36/36/36 37/37/37
f 36/36/36 38/38/38 37/37/37
f 41/41/41 40/40/40 39/39/39
f 42/42/42 41/41/41 39/39/39
f 42/42/42 39/39/39 43/43/43
f 44/44/44 42/42/42 43/43/43
f 47/47/47 46/46/46 45/45/45
f 48/48/48 47/47/47 45/45/45
f 48/48/48 45/45/45 49/49/49
f 50/50/50 48/48/48 49/49/49
f 53/53/53 52/52/52 51/51/51
f 54/54/54 53/53/53 51/51/51
f 57/57/57 56/56/56 55/55/55
f 58/58/58 57/57/57 55/55/55
f 61/61/61 60/60/60 59/59/59
f 62/62/62 61/61/61 59/59/59
f 62/62/62 59/59/59 63/63/63
f 64/64/64 62/62/62 63/63/63
f 67/67/67 66/66/66 65/65/65
f 68/68/68 67/67/67 65/65/65
f 71/71/71 70/70/70 69/69/69
f 72/72/72 71/71/71 69/69/69
f 75/75/75 74/74/74 73/73/73
f 76/76/76 75/75/75 73/73/73
f 79/79/79 78/78/78 77/77/77
f 80/80/80 79/79/79 77/77/77
f 83/83/83 82/82/82 81/81/81
f 84/84/84 83/83/83 81/81/81
f 87/87/87 86/86/86 85/85/85
f 88/88/88 87/87/87 85/85/85
f 91/91/91 90/90/90 89/89/89
f 92/92/92 91/91/91 89/89/89
f 95/95/95 94/94/94 93/93/93
f 96/96/96 95/95/95 93/93/93
f 99/99/99 98/98/98 97/97/97
f 100/100/100 99/99/99 97/97/97
f 103/103/103 102/102/102 101/101/101
f 104/104/104 103/103/103 101/101/101
f 107/107/107 106/106/106 105/105/105
f 108/108/108 107/107/107 105/105/105
f 111/111/111 110/110/110 109/109/109
f 112/112/112 111/111/111 109/109/109
