g JohnsNose
v -0.080174 -0.048919 0.099459
v 0.080174 -0.048919 0.099459
v 0.028711 -0.120929 0.115345
v 0.003876 -0.13284 0.117972
v -0.003876 -0.13284 0.117972
v -0.028711 -0.120929 0.115345
v -0.028711 -0.120929 0.115345
v -0.050325 -0.073131 -0.074095
v -0.080174 -0.048919 0.099459
v -0.050325 -0.17747 -0.06096
v -0.080359 -0.097343 -0.173497
v -0.068525 -0.194613 -0.163661
v -0.050574 -0.240665 -0.162308
v -0.034003 -0.22356 -0.059244
v -0.003876 -0.13284 0.117972
v 0.050574 -0.240665 -0.162308
v 0.034003 -0.22356 -0.059244
v 0.003876 -0.13284 0.117972
v 0.068525 -0.194613 -0.163661
v 0.050325 -0.17747 -0.06096
v 0.028711 -0.120929 0.115345
v 0.080174 -0.048919 0.099459
v 0.050325 -0.073131 -0.074095
v 0.080359 -0.097343 -0.173497
v 0.068525 -0.194613 -0.163661
v 0.080359 -0.097343 -0.173497
v -0.080359 -0.097343 -0.173497
v 0.050574 -0.240665 -0.162308
v -0.050574 -0.240665 -0.162308
v -0.068525 -0.194613 -0.163661
vt 0.248783 0.999901
vt 0.731943 0.999901
vt 0.540223 0.831073
vt 0.489712 0.802104
vt 0.474251 0.801445
vt 0.421068 0.820962
vt 0.461984 0.974595
vt 0.289667 0.517157
vt 0.356505 0.977292
vt 0.410057 0.395712
vt 0.25758 0.169773
vt 0.375789 0.062807
vt 0.437048 0.013115
vt 0.46217 0.338574
vt 0.49498 0.959591
vt 0.566522 0.016327
vt 0.538472 0.335185
vt 0.504593 0.959781
vt 0.626337 0.067907
vt 0.590297 0.394573
vt 0.537673 0.974836
vt 0.642905 0.977292
vt 0.709579 0.518455
vt 0.74242 0.176914
vt 0.76094 0.045782
vt 0.806005 0.017277
vt 0.193995 0.017277
vt 0.692583 0.059215
vt 0.307417 0.059215
vt 0.23906 0.045782
vn -0.8220202 -0.1189771 0.5568908
vn 0.8220207 -0.1189763 0.5568901
vn 0.6498264 -0.1694469 0.7409544
vn 0.2699539 -0.3961792 0.8775916
vn -0.269958 -0.3961719 0.8775936
vn -0.6498192 -0.1694285 0.7409649
vn -0.6498192 -0.1694285 0.7409649
vn -0.9777895 -0.1586776 0.1369275
vn -0.8220202 -0.1189771 0.5568908
vn -0.9259509 -0.3062111 0.2210198
vn -0.8381484 -0.08834091 -0.5382407
vn -0.8541121 -0.2205296 -0.4710194
vn -0.4980563 -0.7189989 -0.4847477
vn -0.4798098 -0.8133566 0.3289889
vn -0.269958 -0.3961719 0.8775936
vn 0.5029026 -0.7109782 -0.4915271
vn 0.4798098 -0.8133566 0.3289889
vn 0.2699539 -0.3961792 0.8775916
vn 0.7972546 -0.2043625 -0.5679973
vn 0.9259508 -0.3062111 0.2210198
vn 0.6498264 -0.1694469 0.7409544
vn 0.8220207 -0.1189763 0.5568901
vn 0.9777895 -0.1586776 0.1369275
vn 0.8356929 -0.101017 -0.5398269
vn 0.7972546 -0.2043625 -0.5679973
vn 0.8356929 -0.101017 -0.5398269
vn -0.8381484 -0.08834091 -0.5382407
vn 0.5029026 -0.7109782 -0.4915271
vn -0.4980563 -0.7189989 -0.4847477
vn -0.8541121 -0.2205296 -0.4710194
g JohnsNose_0
f 3/3/3 2/2/2 1/1/1
f 1/1/1 4/4/4 3/3/3
f 1/1/1 5/5/5 4/4/4
f 1/1/1 6/6/6 5/5/5
f 9/9/9 8/8/8 7/7/7
f 8/8/8 10/10/10 7/7/7
f 8/8/8 11/11/11 10/10/10
f 11/11/11 12/12/12 10/10/10
f 12/12/12 13/13/13 10/10/10
f 10/10/10 14/14/14 7/7/7
f 13/13/13 14/14/14 10/10/10
f 14/14/14 15/15/15 7/7/7
f 14/14/14 13/13/13 16/16/16
f 15/15/15 14/14/14 17/17/17
f 17/17/17 14/14/14 16/16/16
f 18/18/18 15/15/15 17/17/17
f 17/17/17 16/16/16 19/19/19
f 18/18/18 17/17/17 20/20/20
f 20/20/20 17/17/17 19/19/19
f 21/21/21 18/18/18 20/20/20
f 21/21/21 20/20/20 22/22/22
f 20/20/20 23/23/23 22/22/22
f 20/20/20 19/19/19 23/23/23
f 19/19/19 24/24/24 23/23/23
f 27/27/27 26/26/26 25/25/25
f 25/25/25 28/28/28 27/27/27
f 28/28/28 29/29/29 27/27/27
f 29/29/29 30/30/30 27/27/27
