g Journal_Closed
v -0.229351 -0.305814 0.017228
v -0.252969 -0.305814 -0.001805
v -0.252969 -0.305814 0.017228
v -0.252969 -0.305814 0.017228
v -0.252969 -0.305814 -0.001805
v -0.252969 -0.292203 0.017228
v -0.252969 0.305814 0.017228
v -0.252969 0.305814 -0.001805
v -0.229351 0.305814 0.017228
v -0.252969 0.292203 0.017228
v -0.252969 0.305814 -0.001805
v -0.252969 -0.292203 0.017228
v -0.252969 -0.305814 -0.001805
v -0.252969 0.305814 -0.001805
v -0.252969 -0.305814 -0.001805
v 0.283439 -0.305814 -0.001805
v 0.283439 0.305814 -0.001805
v 0.30802 0.305814 0.020814
v 0.30802 -0.305814 0.020814
v 0.30802 -0.305814 0.094952
v 0.30802 0.305814 0.094952
v 0.283439 0.305814 0.11757
v 0.283439 -0.305814 0.11757
v 0.283439 0.305814 0.11757
v 0.283439 -0.305814 0.11757
v -0.252969 -0.305814 0.11757
v -0.252969 0.305814 0.11757
v -0.229351 0.305814 0.017228
v -0.252969 0.305814 -0.001805
v 0.283439 0.305814 -0.001805
v 0.273656 0.305814 0.017228
v 0.30802 0.305814 0.020814
v 0.284402 0.305814 0.029815
v 0.30802 0.305814 0.094952
v 0.284402 0.305814 0.08595
v 0.283439 0.305814 0.11757
v 0.273656 0.305814 0.097189
v -0.252969 0.305814 0.11757
v -0.229351 0.305814 0.097189
v -0.252969 0.305814 0.097189
v -0.252969 0.305814 0.11757
v -0.252969 0.292203 0.097189
v -0.252969 -0.305814 0.11757
v -0.252969 -0.292203 0.097189
v -0.252969 -0.305814 0.097189
v -0.252969 -0.305814 0.11757
v -0.229351 -0.305814 0.097189
v 0.283439 -0.305814 0.11757
v 0.273656 -0.305814 0.097189
v 0.30802 -0.305814 0.094952
v 0.284402 -0.305814 0.08595
v 0.30802 -0.305814 0.020814
v 0.284402 -0.305814 0.029815
v 0.283439 -0.305814 -0.001805
v 0.273656 -0.305814 0.017228
v -0.252969 -0.305814 -0.001805
v -0.229351 -0.305814 0.017228
v 0.27952 0.298092 0.085228
v 0.269045 0.298092 0.096183
v -0.22126 0.298092 0.096183
v 0.27952 0.298092 0.03051
v 0.269045 0.298092 0.018241
v -0.22126 0.298092 0.018241
v -0.244281 0.298092 0.096183
v -0.244281 0.298092 0.018241
v -0.244281 0.284824 0.096183
v -0.244281 0.284824 0.018241
v -0.244282 -0.284824 0.018241
v -0.244282 -0.284824 0.096183
v -0.244282 -0.298092 0.096183
v -0.244282 -0.298092 0.018241
v -0.22126 -0.298092 0.096183
v -0.22126 -0.298092 0.018241
v 0.27952 -0.298092 0.03051
v 0.269045 -0.298092 0.018241
v 0.27952 -0.298092 0.085228
v 0.269045 -0.298092 0.096183
v 0.273656 0.305814 0.097189
v 0.269045 0.298092 0.096183
v 0.27952 0.298092 0.085228
v 0.284402 0.305814 0.08595
v -0.229351 0.305814 0.097189
v 0.27952 0.298092 0.03051
v -0.22126 0.298092 0.096183
v 0.284402 0.305814 0.029815
v -0.252969 0.305814 0.097189
v 0.269045 0.298092 0.018241
v -0.244281 0.298092 0.096183
v 0.273656 0.305814 0.017228
v -0.252969 0.292203 0.097189
v -0.22126 0.298092 0.018241
v -0.244281 0.284824 0.096183
v -0.229351 0.305814 0.017228
v -0.252969 -0.292203 0.097189
v -0.244281 0.298092 0.018241
v -0.244282 -0.284824 0.096183
v -0.252969 0.305814 0.017228
v -0.252969 -0.305814 0.097189
v -0.244281 0.284824 0.018241
v -0.244282 -0.298092 0.096183
v -0.252969 0.292203 0.017228
v -0.229351 -0.305814 0.097189
v -0.244282 -0.284824 0.018241
v -0.22126 -0.298092 0.096183
v -0.252969 -0.292203 0.017228
v 0.273656 -0.305814 0.097189
v -0.244282 -0.298092 0.018241
v 0.269045 -0.298092 0.096183
v -0.252969 -0.305814 0.017228
v 0.284402 -0.305814 0.08595
v -0.22126 -0.298092 0.018241
v 0.27952 -0.298092 0.085228
v -0.229351 -0.305814 0.017228
v 0.284402 -0.305814 0.029815
v 0.269045 -0.298092 0.018241
v 0.27952 -0.298092 0.03051
v 0.273656 -0.305814 0.017228
vt 0.710719 0.201337
vt 0.709196 0.20275
vt 0.710719 0.20275
vt 0.708258 0.187985
vt 0.706736 0.187985
vt 0.708258 0.189046
vt 0.710719 0.250449
vt 0.709196 0.250449
vt 0.710719 0.251862
vt 0.710719 0.249388
vt 0.709196 0.250449
vt 0.710719 0.203811
vt 0.709196 0.20275
vt 0.703225 0.222145
vt 0.703225 0.27308
vt 0.720089 0.27308
vt 0.720089 0.222145
vt 0.721851 0.222145
vt 0.721852 0.27308
vt 0.725936 0.27308
vt 0.725935 0.222145
vt 0.727698 0.222145
vt 0.727698 0.27308
vt 0.704579 0.156333
vt 0.704579 0.284754
vt 0.814428 0.284754
vt 0.814428 0.156333
vt 0.708258 0.237097
vt 0.706736 0.235685
vt 0.706736 0.267762
vt 0.708258 0.267177
vt 0.708545 0.269232
vt 0.709265 0.26782
vt 0.714475 0.269232
vt 0.713755 0.26782
vt 0.716284 0.267762
vt 0.714654 0.267177
vt 0.716284 0.235685
vt 0.714654 0.237097
vt 0.714654 0.235685
vt 0.716284 0.235685
vt 0.714654 0.234623
vt 0.716284 0.187985
vt 0.714654 0.189046
vt 0.714654 0.187985
vt 0.716284 0.187985
vt 0.714654 0.186573
vt 0.716284 0.155908
vt 0.714654 0.156493
vt 0.714475 0.154438
vt 0.713755 0.15585
vt 0.708545 0.154438
vt 0.709265 0.15585
vt 0.706735 0.155908
vt 0.708258 0.156493
vt 0.706736 0.187985
vt 0.708258 0.186573
vt 0.279425 0.846134
vt 0.274108 0.846984
vt 0.274108 0.886764
vt 0.30598 0.846134
vt 0.311935 0.846984
vt 0.311934 0.886764
vt 0.274108 0.888632
vt 0.311934 0.888632
vt 0.274108 0.890036
vt 0.311934 0.890036
vt 0.311934 0.95031
vt 0.274108 0.95031
vt 0.274108 0.951714
vt 0.311934 0.951714
vt 0.274108 0.953582
vt 0.311934 0.953582
vt 0.30598 0.994212
vt 0.311934 0.993362
vt 0.279424 0.994212
vt 0.274108 0.993362
vt 0.706374 0.267439
vt 0.706521 0.26747
vt 0.706519 0.26728
vt 0.70636 0.267269
vt 0.706803 0.273268
vt 0.706522 0.266578
vt 0.706946 0.273167
vt 0.70637 0.266585
vt 0.706804 0.273551
vt 0.706527 0.266378
vt 0.706955 0.273444
vt 0.706382 0.266407
vt 0.707071 0.273553
vt 0.70704 0.260698
vt 0.707223 0.273435
vt 0.706898 0.260594
vt 0.717106 0.273835
vt 0.707055 0.260415
vt 0.71696 0.273707
vt 0.706903 0.260305
vt 0.717377 0.273847
vt 0.70733 0.260428
vt 0.717233 0.27373
vt 0.707176 0.260305
vt 0.717401 0.273559
vt 0.717226 0.260344
vt 0.717263 0.273448
vt 0.717375 0.260217
vt 0.718333 0.267503
vt 0.7175 0.260325
vt 0.718181 0.267529
vt 0.71765 0.260211
vt 0.718353 0.26733
vt 0.717523 0.260609
vt 0.718192 0.267338
vt 0.717664 0.260502
vt 0.718353 0.266641
vt 0.718193 0.266432
vt 0.718198 0.266633
vt 0.718341 0.26646
vn 0 -0.9910252 0.1336749
vn 0 -1 0
vn -0.4420866 -0.7614512 0.4740796
vn -0.4420866 -0.7614512 0.4740796
vn -1 0 0
vn -0.9840698 0 0.1777831
vn -0.442087 0.7614455 0.4740884
vn 0 1 0
vn 0 0.9910253 0.1336746
vn -0.9840677 0 0.1777944
vn -1 0 0
vn -0.9840698 0 0.1777831
vn -1 0 0
vn 0 0 -1
vn 0 0 -1
vn 0.04028712 0 -0.9991881
vn 0.04028712 0 -0.9991881
vn 0.9692122 0 -0.246227
vn 0.9692122 0 -0.246227
vn 0.9692116 0 0.2462294
vn 0.9692116 0 0.2462294
vn 0.04028535 0 0.9991882
vn 0.04028535 0 0.9991882
vn 0.04028535 0 0.9991882
vn 0.04028535 0 0.9991882
vn 0 0 1
vn 0 0 1
vn 0 0.9910253 0.1336746
vn 0 1 0
vn 0 1 0
vn -0.007819221 0.9827666 0.1846855
vn 0 1 0
vn -0.1668604 0.9857141 0.02292126
vn 0 1 0
vn -0.1625998 0.9864378 -0.02239951
vn 0 1 0
vn -0.006753216 0.9843472 -0.1761108
vn 0 1 0
vn 0 0.9919341 -0.1267549
vn -0.4480966 0.7721922 -0.4504762
vn -1 0 0
vn -0.985629 0 -0.1689243
vn -1 0 0
vn -0.9856309 0 -0.1689135
vn -0.4480961 -0.7721974 -0.4504677
vn 0 -1 0
vn 0 -0.9919339 -0.1267553
vn 0 -1 0
vn -0.006753216 -0.9843472 -0.1761108
vn 0 -1 0
vn -0.1625998 -0.9864378 -0.02239952
vn 0 -1 0
vn -0.1668605 -0.9857141 0.02292127
vn 0 -1 0
vn -0.007819221 -0.9827666 0.1846855
vn 0 -1 0
vn 0 -0.9910252 0.1336749
vn -0.03540443 0.9993531 -0.006308797
vn -0.0100637 0.670789 -0.7415799
vn 0 0.9621809 -0.272411
vn -0.03724995 0.9992853 0.006435707
vn -0.009043145 0.8124221 0.5829996
vn 0 0.9650345 0.2621227
vn -0.488179 0.8478367 -0.2070124
vn -0.4881799 0.8478438 0.2069813
vn -0.9877411 0 -0.1561014
vn -0.9877445 0 0.1560791
vn -0.9877439 0 0.1560828
vn -0.9877405 0 -0.1561051
vn -0.4881648 -0.8478482 -0.2069988
vn -0.4881658 -0.8478553 0.2069676
vn 0 -0.9643089 -0.2647799
vn 0 -0.9654916 0.2604341
vn -0.0341549 -0.9993992 0.005900973
vn -0.01109112 -0.6990058 0.7150298
vn -0.03540443 -0.9993531 -0.006308798
vn -0.0100637 -0.670789 -0.7415799
vn -0.006753216 0.9843472 -0.1761108
vn -0.0100637 0.670789 -0.7415799
vn -0.03540443 0.9993531 -0.006308797
vn -0.1625998 0.9864378 -0.02239951
vn 0 0.9919341 -0.1267549
vn -0.03724995 0.9992853 0.006435707
vn 0 0.9621809 -0.272411
vn -0.1668604 0.9857141 0.02292126
vn -0.4480966 0.7721922 -0.4504762
vn -0.009043145 0.8124221 0.5829996
vn -0.488179 0.8478367 -0.2070124
vn -0.007819221 0.9827666 0.1846855
vn -0.985629 0 -0.1689243
vn 0 0.9650345 0.2621227
vn -0.9877411 0 -0.1561014
vn 0 0.9910253 0.1336746
vn -0.9856309 0 -0.1689135
vn -0.4881799 0.8478438 0.2069813
vn -0.9877405 0 -0.1561051
vn -0.442087 0.7614455 0.4740884
vn -0.4480961 -0.7721974 -0.4504677
vn -0.9877445 0 0.1560791
vn -0.4881648 -0.8478482 -0.2069988
vn -0.9840677 0 0.1777944
vn 0 -0.9919339 -0.1267553
vn -0.9877439 0 0.1560828
vn 0 -0.9643089 -0.2647799
vn -0.9840698 0 0.1777831
vn -0.006753216 -0.9843472 -0.1761108
vn -0.4881658 -0.8478553 0.2069676
vn -0.0100637 -0.670789 -0.7415799
vn -0.4420866 -0.7614512 0.4740796
vn -0.1625998 -0.9864378 -0.02239952
vn 0 -0.9654916 0.2604341
vn -0.03540443 -0.9993531 -0.006308798
vn 0 -0.9910252 0.1336749
vn -0.1668605 -0.9857141 0.02292127
vn -0.01109112 -0.6990058 0.7150298
vn -0.0341549 -0.9993992 0.005900973
vn -0.007819221 -0.9827666 0.1846855
g Journal_Closed_0
f 3/3/3 2/2/2 1/1/1
f 6/6/6 5/5/5 4/4/4
f 9/9/9 8/8/8 7/7/7
f 7/7/7 11/11/11 10/10/10
f 10/10/10 11/11/11 12/12/12
f 11/11/11 13/13/13 12/12/12
f 16/16/16 15/15/15 14/14/14
f 17/17/17 16/16/16 14/14/14
f 17/17/17 18/18/18 16/16/16
f 18/18/18 19/19/19 16/16/16
f 20/20/20 19/19/19 18/18/18
f 21/21/21 20/20/20 18/18/18
f 20/20/20 21/21/21 22/22/22
f 23/23/23 20/20/20 22/22/22
f 26/26/26 25/25/25 24/24/24
f 27/27/27 26/26/26 24/24/24
f 30/30/30 29/29/29 28/28/28
f 31/31/31 30/30/30 28/28/28
f 32/32/32 30/30/30 31/31/31
f 33/33/33 32/32/32 31/31/31
f 34/34/34 32/32/32 33/33/33
f 35/35/35 34/34/34 33/33/33
f 36/36/36 34/34/34 35/35/35
f 37/37/37 36/36/36 35/35/35
f 38/38/38 36/36/36 37/37/37
f 39/39/39 38/38/38 37/37/37
f 40/40/40 38/38/38 39/39/39
f 42/42/42 41/41/41 40/40/40
f 43/43/43 41/41/41 42/42/42
f 44/44/44 43/43/43 42/42/42
f 45/45/45 43/43/43 44/44/44
f 47/47/47 46/46/46 45/45/45
f 48/48/48 46/46/46 47/47/47
f 49/49/49 48/48/48 47/47/47
f 50/50/50 48/48/48 49/49/49
f 51/51/51 50/50/50 49/49/49
f 52/52/52 50/50/50 51/51/51
f 53/53/53 52/52/52 51/51/51
f 54/54/54 52/52/52 53/53/53
f 55/55/55 54/54/54 53/53/53
f 56/56/56 54/54/54 55/55/55
f 57/57/57 56/56/56 55/55/55
f 60/60/60 59/59/59 58/58/58
f 60/60/60 58/58/58 61/61/61
f 60/60/60 61/61/61 62/62/62
f 62/62/62 63/63/63 60/60/60
f 60/60/60 63/63/63 64/64/64
f 63/63/63 65/65/65 64/64/64
f 66/66/66 64/64/64 65/65/65
f 67/67/67 66/66/66 65/65/65
f 66/66/66 67/67/67 68/68/68
f 69/69/69 66/66/66 68/68/68
f 69/69/69 68/68/68 70/70/70
f 68/68/68 71/71/71 70/70/70
f 72/72/72 70/70/70 71/71/71
f 73/73/73 72/72/72 71/71/71
f 74/74/74 72/72/72 73/73/73
f 73/73/73 75/75/75 74/74/74
f 74/74/74 76/76/76 72/72/72
f 76/76/76 77/77/77 72/72/72
f 80/80/80 79/79/79 78/78/78
f 81/81/81 80/80/80 78/78/78
f 78/78/78 79/79/79 82/82/82
f 83/83/83 80/80/80 81/81/81
f 79/79/79 84/84/84 82/82/82
f 85/85/85 83/83/83 81/81/81
f 82/82/82 84/84/84 86/86/86
f 87/87/87 83/83/83 85/85/85
f 84/84/84 88/88/88 86/86/86
f 89/89/89 87/87/87 85/85/85
f 86/86/86 88/88/88 90/90/90
f 91/91/91 87/87/87 89/89/89
f 88/88/88 92/92/92 90/90/90
f 93/93/93 91/91/91 89/89/89
f 90/90/90 92/92/92 94/94/94
f 95/95/95 91/91/91 93/93/93
f 92/92/92 96/96/96 94/94/94
f 97/97/97 95/95/95 93/93/93
f 94/94/94 96/96/96 98/98/98
f 99/99/99 95/95/95 97/97/97
f 96/96/96 100/100/100 98/98/98
f 101/101/101 99/99/99 97/97/97
f 98/98/98 100/100/100 102/102/102
f 103/103/103 99/99/99 101/101/101
f 100/100/100 104/104/104 102/102/102
f 105/105/105 103/103/103 101/101/101
f 102/102/102 104/104/104 106/106/106
f 107/107/107 103/103/103 105/105/105
f 104/104/104 108/108/108 106/106/106
f 109/109/109 107/107/107 105/105/105
f 106/106/106 108/108/108 110/110/110
f 111/111/111 107/107/107 109/109/109
f 108/108/108 112/112/112 110/110/110
f 113/113/113 111/111/111 109/109/109
f 110/110/110 112/112/112 114/114/114
f 115/115/115 111/111/111 113/113/113
f 112/112/112 116/116/116 114/114/114
f 117/117/117 115/115/115 113/113/113
f 114/114/114 116/116/116 117/117/117
f 116/116/116 115/115/115 117/117/117
