g JumpingBug
v 0 -0.170695 0.339099
v -0.015299 0 0.171782
v -0.080832 -0.170695 0.171782
v 0 -0.170695 0.339099
v 0.080832 -0.170695 0.171782
v 0.015299 0 0.171782
v 0 -0.170695 0.339099
v 0.015299 0 0.171782
v 0.126522 0 0.339099
v 0.011696 0.170695 0.171782
v 0.003924 0.34139 0.171782
v 0.021221 0.34139 0.004466
v 0.06325 0.170695 0.004466
v 0.015299 0 0.171782
v 0.00931 0.170695 0.171782
v -0.021221 0.34139 0.004466
v 0.017082 0.34139 0.171782
v -0.06325 0.170695 0.004466
v -0.015299 0 0.171782
v -0.082732 0 0.004466
v -0.080832 -0.170695 0.171782
v 0 -0.170695 0.339099
v 0 -0.34139 0.339099
v -0.066838 -0.170695 0.004466
v -0.004394 -0.34139 0.171782
v -0.11464 -0.34139 0.004466
v 0.015299 0 0.171782
v 0.06325 0.170695 0.004466
v 0.082732 0 0.004466
v 0.080832 -0.170695 0.171782
v 0.066838 -0.170695 0.004466
v 0.004394 -0.34139 0.171782
v 0.11464 -0.34139 0.004466
v 0 -0.34139 0.339099
v 0 -0.170695 0.339099
v 0.126522 0 0.339099
v 0.011696 0.170695 0.171782
v 0.126522 0.170695 0.339099
v 0.003924 0.34139 0.171782
v 0.126522 0.34139 0.339099
v 0 -0.170695 0.339099
v -0.015299 0 0.171782
v -0.126522 0 0.339099
v 0.00931 0.170695 0.171782
v -0.126522 0.170695 0.339099
v 0.017082 0.34139 0.171782
v -0.126522 0.34139 0.339099
v 0 0.170695 0.127737
v 0 0.34139 0.127737
v 0.009972 0.34139 0.124968
v 0.029723 0.170695 0.124968
v 0 0 0.127737
v 0.038878 0 0.124968
v 0 -0.170695 0.337923
v 0.031409 -0.170695 0.335154
v 0 0.170695 0.127737
v -0.009972 0.34139 0.124968
v 0 0.34139 0.127737
v -0.029723 0.170695 0.124968
v 0 0 0.127737
v -0.038878 0 0.124968
v 0 -0.170695 0.337923
v -0.031409 -0.170695 0.335154
v 0 -0.34139 0.337923
v 0 -0.170695 0.337923
v 0.031409 -0.170695 0.335154
v 0.011166 -0.34139 0.335154
v 0 -0.34139 0.337923
v -0.011166 -0.34139 0.335154
v -0.031409 -0.170695 0.335154
v 0 -0.170695 0.337923
v 0 -0.170695 0.339099
v -0.126522 0 0.339099
v -0.015299 0 0.171782
v 0.00931 0.170695 0.171782
v -0.126522 0.170695 0.339099
v 0.017082 0.34139 0.171782
v -0.126522 0.34139 0.339099
v 0.126522 0 0.339099
v 0.015299 0 0.171782
v 0.011696 0.170695 0.171782
v 0.126522 0.170695 0.339099
v 0.003924 0.34139 0.171782
v 0.126522 0.34139 0.339099
vt 0.75 1
vt 0.5 0.5
vt 0.75 0.5
vt 0.75 1
vt 0.75 0.5
vt 0.5 0.5
vt 0.75 1
vt 0.5 0.5
vt 0.5 1
vt 0.25 0.5
vt 0 0.5
vt 0 0
vt 0.25 0
vt 0.5 0.5
vt 0.25 0.5
vt 0 0
vt 0 0.5
vt 0.25 0
vt 0.5 0.5
vt 0.5 0
vt 0.75 0.5
vt 0.75 1
vt 1 1
vt 0.75 0
vt 1 0.5
vt 1 0
vt 0.5 0.5
vt 0.25 0
vt 0.5 0
vt 0.75 0.5
vt 0.75 0
vt 1 0.5
vt 1 0
vt 1 1
vt 0.75 1
vt 0.5 1
vt 0.25 0.5
vt 0.25 1
vt 0 0.5
vt 0 1
vt 0.75 1
vt 0.5 0.5
vt 0.5 1
vt 0.25 0.5
vt 0.25 1
vt 0 0.5
vt 0 1
vt 0.25 0.5
vt 0 0.5
vt 0 0
vt 0.25 0
vt 0.5 0.5
vt 0.5 0
vt 0.75 0.5
vt 0.75 0
vt 0.25 0.5
vt 0 0
vt 0 0.5
vt 0.25 0
vt 0.5 0.5
vt 0.5 0
vt 0.75 0.5
vt 0.75 0
vt 0.917733 0.898999
vt 0.766186 0.861244
vt 0.762676 0.917226
vt 0.91646 0.919427
vt 0.919312 0.919625
vt 0.919312 0.899039
vt 0.766571 0.863204
vt 0.766594 0.919625
vt 0.75 1
vt 0.5 1
vt 0.5 0.5
vt 0.25 0.5
vt 0.25 1
vt 0 0.5
vt 0 1
vt 0.5 1
vt 0.5 0.5
vt 0.25 0.5
vt 0.25 1
vt 0 0.5
vt 0 1
vn 0.9805036 0.175166 0.08904803
vn 0.9322925 0.06129601 0.3564734
vn 0.9805036 0.175166 0.08904803
vn -0.9805036 0.1751661 0.08904803
vn -0.9805036 0.1751661 0.08904803
vn -0.9377912 0.08626719 0.3363119
vn -0.9805036 0.1751661 0.08904803
vn -0.9377912 0.08626719 0.3363119
vn -0.9377912 0.08626719 0.3363119
vn 0.9838026 0.06431563 -0.1673197
vn 0.9744509 0.08734867 -0.2069193
vn 0.9696344 0.1414475 0.1995036
vn 0.9579794 0.1028389 0.2677677
vn 0.9990432 0.01053185 -0.04244678
vn -0.9833906 0.09493794 -0.1546923
vn -0.9402888 0.1371666 0.311516
vn -0.9780482 0.08856343 -0.1886219
vn -0.9288743 0.1278349 0.3476361
vn -0.9984927 0.03887437 -0.03874306
vn -0.9534435 0.1311372 0.2715666
vn -0.9853602 -0.08301214 0.1489102
vn -0.9774913 -0.1963611 0.07715602
vn -0.9470291 -0.2120419 0.2411934
vn -0.9755487 0.03113776 0.2175663
vn -0.9547053 -0.1465386 0.2589677
vn -0.9579273 -0.08035155 0.2755338
vn 0.9990432 0.01053185 -0.04244678
vn 0.9579794 0.1028389 0.2677677
vn 0.9636311 0.1033641 0.2464366
vn 0.9853602 -0.08301214 0.1489102
vn 0.9755487 0.03113776 0.2175663
vn 0.9547053 -0.1465386 0.2589677
vn 0.9579273 -0.08035152 0.2755338
vn 0.9470291 -0.2120419 0.2411934
vn 0.9774913 -0.1963611 0.07715602
vn 0.9377912 -0.08626719 -0.3363119
vn 0.9838026 0.06431563 -0.1673197
vn 0.8220911 0.01365565 -0.5691921
vn 0.9744509 0.08734867 -0.2069193
vn 0.8154335 0.01856397 -0.578553
vn -0.9774913 -0.1963611 0.07715602
vn -0.9984927 0.03887437 -0.03874306
vn -0.9322925 -0.06129601 -0.3564734
vn -0.9833906 0.09493794 -0.1546923
vn -0.7858152 0.03770787 -0.6173108
vn -0.9780482 0.08856343 -0.1886219
vn -0.7674558 0.01747172 -0.6408638
vn 0 0.005108646 0.999987
vn 0 0.008071261 0.9999675
vn 0.1381712 0.007993846 0.9903762
vn 0.109365 0.005078003 0.9939886
vn 0 0.4309753 0.9023637
vn 0.07198156 0.4298574 0.9000229
vn 0 0.4276356 0.9039512
vn 0.09907889 0.4255314 0.8995034
vn 0 0.005108646 0.999987
vn -0.1381712 0.007993845 0.9903762
vn 0 0.008071261 0.9999675
vn -0.109365 0.005078002 0.9939886
vn 0 0.4309753 0.9023637
vn -0.07198156 0.4298574 0.9000229
vn 0 0.4276356 0.9039512
vn -0.09907889 0.4255314 0.8995034
vn 0 -0.007712735 0.9999703
vn 0 0.4276356 0.9039512
vn 0.09907889 0.4255314 0.8995034
vn 0.1289856 -0.007648307 0.991617
vn 0 -0.007712735 0.9999703
vn -0.1289856 -0.007648306 0.991617
vn -0.09907889 0.4255314 0.8995034
vn 0 0.4276356 0.9039512
vn 0.9805036 0.175166 0.08904803
vn 0.9322925 0.06129601 0.3564734
vn 0.9322925 0.06129601 0.3564734
vn 0.7858152 -0.03770787 0.6173108
vn 0.7858152 -0.03770787 0.6173108
vn 0.7674558 -0.01747172 0.6408638
vn 0.7674558 -0.01747172 0.6408638
vn -0.9377912 0.08626719 0.3363119
vn -0.9377912 0.08626719 0.3363119
vn -0.8220911 -0.01365565 0.5691921
vn -0.8220911 -0.01365565 0.5691921
vn -0.8154335 -0.01856397 0.578553
vn -0.8154335 -0.01856397 0.578553
g JumpingBug_0
f 3/3/3 2/2/2 1/1/1
f 6/6/6 5/5/5 4/4/4
f 9/9/9 8/8/8 7/7/7
f 12/12/12 11/11/11 10/10/10
f 13/13/13 12/12/12 10/10/10
f 13/13/13 10/10/10 14/14/14
f 17/17/17 16/16/16 15/15/15
f 16/16/16 18/18/18 15/15/15
f 15/15/15 18/18/18 19/19/19
f 18/18/18 20/20/20 19/19/19
f 19/19/19 20/20/20 21/21/21
f 19/19/19 21/21/21 22/22/22
f 22/22/22 21/21/21 23/23/23
f 20/20/20 24/24/24 21/21/21
f 21/21/21 25/25/25 23/23/23
f 21/21/21 24/24/24 25/25/25
f 24/24/24 26/26/26 25/25/25
f 29/29/29 28/28/28 27/27/27
f 29/29/29 27/27/27 30/30/30
f 31/31/31 29/29/29 30/30/30
f 31/31/31 30/30/30 32/32/32
f 33/33/33 31/31/31 32/32/32
f 32/32/32 30/30/30 34/34/34
f 30/30/30 35/35/35 34/34/34
f 30/30/30 27/27/27 35/35/35
f 27/27/27 36/36/36 35/35/35
f 27/27/27 37/37/37 36/36/36
f 37/37/37 38/38/38 36/36/36
f 37/37/37 39/39/39 38/38/38
f 39/39/39 40/40/40 38/38/38
f 43/43/43 42/42/42 41/41/41
f 44/44/44 42/42/42 43/43/43
f 45/45/45 44/44/44 43/43/43
f 46/46/46 44/44/44 45/45/45
f 47/47/47 46/46/46 45/45/45
f 50/50/50 49/49/49 48/48/48
f 51/51/51 50/50/50 48/48/48
f 51/51/51 48/48/48 52/52/52
f 53/53/53 51/51/51 52/52/52
f 53/53/53 52/52/52 54/54/54
f 55/55/55 53/53/53 54/54/54
f 58/58/58 57/57/57 56/56/56
f 57/57/57 59/59/59 56/56/56
f 56/56/56 59/59/59 60/60/60
f 59/59/59 61/61/61 60/60/60
f 60/60/60 61/61/61 62/62/62
f 61/61/61 63/63/63 62/62/62
f 66/66/66 65/65/65 64/64/64
f 67/67/67 66/66/66 64/64/64
f 70/70/70 69/69/69 68/68/68
f 71/71/71 70/70/70 68/68/68
f 74/74/74 73/73/73 72/72/72
f 74/74/74 75/75/75 73/73/73
f 75/75/75 76/76/76 73/73/73
f 75/75/75 77/77/77 76/76/76
f 77/77/77 78/78/78 76/76/76
f 81/81/81 80/80/80 79/79/79
f 82/82/82 81/81/81 79/79/79
f 83/83/83 81/81/81 82/82/82
f 84/84/84 83/83/83 82/82/82
