g LaceWing_Wings
v 0 0.523009 0.089772
v -0.352819 0.489908 0.349145
v -0.352819 -0.088136 0.275376
v 0 -0.055035 0.016003
v 0 0.523009 0.089772
v 0 -0.055035 0.016003
v -0.352819 -0.088136 0.275376
v -0.352819 0.489908 0.349145
v 0 0.523009 0.089772
v 0 -0.055035 0.016003
v 0.352819 -0.088136 0.275376
v 0.352819 0.489908 0.349145
v 0 0.523009 0.089772
v 0.352819 0.489908 0.349145
v 0.352819 -0.088136 0.275376
v 0 -0.055035 0.016003
vt 0.616911 0.705498
vt 0.666215 0.705498
vt 0.666215 0.788821
vt 0.616911 0.788821
vt 0.616911 0.705498
vt 0.616911 0.788821
vt 0.666215 0.788821
vt 0.666215 0.705498
vt 0.616911 0.705498
vt 0.616911 0.788821
vt 0.666215 0.788821
vt 0.666215 0.705498
vt 0.616911 0.705498
vt 0.666215 0.705498
vt 0.666215 0.788821
vt 0.616911 0.788821
vn -0.5954176 0.1017058 -0.7969529
vn -0.5954176 0.1017058 -0.7969529
vn -0.5954176 0.1017058 -0.7969529
vn -0.5954176 0.1017058 -0.7969529
vn 0.5954175 -0.1017058 0.796953
vn 0.5954175 -0.1017058 0.796953
vn 0.5954175 -0.1017058 0.796953
vn 0.5954175 -0.1017058 0.796953
vn 0.5954175 0.1017058 -0.796953
vn 0.5954175 0.1017058 -0.796953
vn 0.5954175 0.1017058 -0.796953
vn 0.5954175 0.1017058 -0.796953
vn -0.5954176 -0.1017058 0.7969529
vn -0.5954176 -0.1017058 0.7969529
vn -0.5954176 -0.1017058 0.7969529
vn -0.5954176 -0.1017058 0.7969529
g LaceWing_Wings_0
f 3/3/3 2/2/2 1/1/1
f 4/4/4 3/3/3 1/1/1
f 7/7/7 6/6/6 5/5/5
f 8/8/8 7/7/7 5/5/5
f 11/11/11 10/10/10 9/9/9
f 12/12/12 11/11/11 9/9/9
f 15/15/15 14/14/14 13/13/13
f 16/16/16 15/15/15 13/13/13
