g Laminton
v -0.13872 -0.13872 -0.016209
v -0.165001 -0.165001 0.00303
v -0.13872 -0.170907 -0.002876
v -0.170907 -0.13872 -0.002876
v 0.138719 -0.170907 -0.002876
v -0.13872 0.13872 -0.016209
v -0.170907 0.13872 -0.002876
v -0.165001 0.165001 0.00303
v -0.13872 0.170907 -0.002876
v 0.138719 -0.13872 -0.016209
v 0.165001 -0.165001 0.00303
v 0.170907 -0.13872 -0.002876
v 0.170907 0.13872 -0.002876
v 0.138719 0.13872 -0.016209
v 0.138719 0.170907 -0.002876
v 0.165001 0.165001 0.00303
v -0.13872 -0.18424 0.029312
v -0.165001 -0.165001 0.00303
v -0.170907 -0.170907 0.029312
v -0.13872 -0.170907 -0.002876
v -0.170907 -0.170907 0.306751
v 0.138719 -0.18424 0.029312
v 0.138719 -0.170907 -0.002876
v 0.165001 -0.165001 0.00303
v 0.170907 -0.170907 0.029312
v -0.13872 -0.18424 0.306751
v -0.165001 -0.165001 0.333032
v -0.13872 -0.170907 0.338939
v 0.138719 -0.170907 0.338939
v 0.138719 -0.18424 0.306751
v 0.170907 -0.170907 0.306751
v 0.165001 -0.165001 0.333032
v -0.13872 -0.13872 0.352271
v -0.165001 -0.165001 0.333032
v -0.170907 -0.13872 0.338939
v -0.13872 -0.170907 0.338939
v -0.170907 0.13872 0.338939
v 0.138719 -0.13872 0.352271
v 0.138719 -0.170907 0.338939
v 0.165001 -0.165001 0.333032
v 0.170907 -0.13872 0.338939
v 0.138719 0.13872 0.352271
v 0.170907 0.13872 0.338939
v 0.165001 0.165001 0.333032
v 0.138719 0.170907 0.338939
v -0.13872 0.13872 0.352271
v -0.165001 0.165001 0.333032
v -0.13872 0.170907 0.338939
v -0.18424 0.13872 0.029312
v -0.165001 0.165001 0.00303
v -0.170907 0.170907 0.029312
v -0.170907 0.13872 -0.002876
v -0.170907 0.170907 0.306751
v -0.18424 -0.13872 0.029312
v -0.170907 -0.13872 -0.002876
v -0.165001 -0.165001 0.00303
v -0.170907 -0.170907 0.029312
v -0.18424 0.13872 0.306751
v -0.165001 0.165001 0.333032
v -0.170907 0.13872 0.338939
v -0.170907 -0.13872 0.338939
v -0.18424 -0.13872 0.306751
v -0.170907 -0.170907 0.306751
v -0.165001 -0.165001 0.333032
v -0.13872 0.18424 0.306751
v -0.165001 0.165001 0.333032
v -0.170907 0.170907 0.306751
v -0.13872 0.170907 0.338939
v -0.170907 0.170907 0.029312
v 0.138719 0.18424 0.306751
v 0.138719 0.170907 0.338939
v 0.165001 0.165001 0.333032
v 0.170907 0.170907 0.306751
v -0.13872 0.18424 0.029312
v -0.165001 0.165001 0.00303
v -0.13872 0.170907 -0.002876
v 0.138719 0.170907 -0.002876
v 0.138719 0.18424 0.029312
v 0.170907 0.170907 0.029312
v 0.165001 0.165001 0.00303
v 0.18424 -0.13872 0.029312
v 0.165001 -0.165001 0.00303
v 0.170907 -0.170907 0.029312
v 0.170907 -0.13872 -0.002876
v 0.170907 -0.170907 0.306751
v 0.18424 0.13872 0.029312
v 0.170907 0.13872 -0.002876
v 0.165001 0.165001 0.00303
v 0.170907 0.170907 0.029312
v 0.18424 -0.13872 0.306751
v 0.165001 -0.165001 0.333032
v 0.170907 -0.13872 0.338939
v 0.170907 0.13872 0.338939
v 0.18424 0.13872 0.306751
v 0.170907 0.170907 0.306751
v 0.165001 0.165001 0.333032
vt 0.046259 0.803372
vt 0.040767 0.812884
vt 0.046259 0.812884
vt 0.036747 0.803372
vt 0.104234 0.812884
vt 0.046259 0.745397
vt 0.036747 0.745397
vt 0.036747 0.739905
vt 0.046259 0.735885
vt 0.104234 0.803372
vt 0.113746 0.808864
vt 0.113746 0.803372
vt 0.113746 0.745397
vt 0.104234 0.745397
vt 0.104234 0.735885
vt 0.109726 0.735885
vt 0.046259 0.803372
vt 0.040767 0.812884
vt 0.046259 0.812884
vt 0.036747 0.803372
vt 0.104234 0.812884
vt 0.046259 0.745397
vt 0.036747 0.745397
vt 0.036747 0.739905
vt 0.046259 0.735885
vt 0.104234 0.803372
vt 0.113746 0.808864
vt 0.113746 0.803372
vt 0.113746 0.745397
vt 0.104234 0.745397
vt 0.104234 0.735885
vt 0.109726 0.735885
vt 0.104234 0.803372
vt 0.113746 0.808864
vt 0.113746 0.803372
vt 0.104234 0.812884
vt 0.113746 0.745397
vt 0.046259 0.803372
vt 0.046259 0.812884
vt 0.040767 0.812884
vt 0.036747 0.803372
vt 0.046259 0.745397
vt 0.036747 0.745397
vt 0.036747 0.739905
vt 0.046259 0.735885
vt 0.104234 0.745397
vt 0.109726 0.735885
vt 0.104234 0.735885
vt 0.046259 0.803372
vt 0.040767 0.812884
vt 0.046259 0.812884
vt 0.036747 0.803372
vt 0.104234 0.812884
vt 0.046259 0.745397
vt 0.036747 0.745397
vt 0.036747 0.739905
vt 0.046259 0.735885
vt 0.104234 0.803372
vt 0.113746 0.808864
vt 0.113746 0.803372
vt 0.113746 0.745397
vt 0.104234 0.745397
vt 0.104234 0.735885
vt 0.109726 0.735885
vt 0.104234 0.745397
vt 0.109726 0.735885
vt 0.104234 0.735885
vt 0.113746 0.745397
vt 0.046259 0.735885
vt 0.104234 0.803372
vt 0.113746 0.803372
vt 0.113746 0.808864
vt 0.104234 0.812884
vt 0.046259 0.745397
vt 0.036747 0.739905
vt 0.036747 0.745397
vt 0.036747 0.803372
vt 0.046259 0.803372
vt 0.046259 0.812884
vt 0.040767 0.812884
vt 0.046259 0.803372
vt 0.040767 0.812884
vt 0.046259 0.812884
vt 0.036747 0.803372
vt 0.104234 0.812884
vt 0.046259 0.745397
vt 0.036747 0.745397
vt 0.036747 0.739905
vt 0.046259 0.735885
vt 0.104234 0.803372
vt 0.113746 0.808864
vt 0.113746 0.803372
vt 0.113746 0.745397
vt 0.104234 0.745397
vt 0.104234 0.735885
vt 0.109726 0.735885
vn -0.04155761 -0.04155746 -0.9982715
vn -0.5773552 -0.5773551 -0.5773404
vn -0.02958699 -0.7068052 -0.7067894
vn -0.7068052 -0.02958689 -0.7067894
vn 0.02958698 -0.7068052 -0.7067894
vn -0.04155761 0.04155746 -0.9982715
vn -0.7068052 0.02958689 -0.7067894
vn -0.5773552 0.5773551 -0.5773404
vn -0.02958699 0.7068052 -0.7067893
vn 0.04155748 -0.04155743 -0.9982715
vn 0.5773454 -0.5773602 -0.5773453
vn 0.7067973 -0.02958699 -0.7067971
vn 0.7067973 0.02958699 -0.7067972
vn 0.04155748 0.04155743 -0.9982715
vn 0.02958698 0.7068052 -0.7067893
vn 0.5773454 0.5773601 -0.5773454
vn -0.04155755 -0.9982715 -0.04155746
vn -0.5773552 -0.5773551 -0.5773404
vn -0.7067972 -0.7067972 -0.02958689
vn -0.02958699 -0.7068052 -0.7067894
vn -0.7067972 -0.7067972 0.02958683
vn 0.04155742 -0.9982715 -0.04155742
vn 0.02958698 -0.7068052 -0.7067894
vn 0.5773454 -0.5773602 -0.5773453
vn 0.7067894 -0.7068052 -0.02958698
vn -0.04155755 -0.9982715 0.04155746
vn -0.5773553 -0.5773553 0.5773402
vn -0.02958705 -0.7067971 0.7067974
vn 0.02958705 -0.7067971 0.7067974
vn 0.04155742 -0.9982715 0.04155742
vn 0.7067894 -0.7068051 0.02958694
vn 0.5773454 -0.5773602 0.5773452
vn -0.04155469 -0.04155455 0.9982717
vn -0.5773553 -0.5773553 0.5773402
vn -0.7067971 -0.02958696 0.7067974
vn -0.02958705 -0.7067971 0.7067974
vn -0.7067971 0.02958696 0.7067974
vn 0.04155456 -0.04155451 0.9982717
vn 0.02958705 -0.7067971 0.7067974
vn 0.5773454 -0.5773602 0.5773452
vn 0.7067893 -0.02958706 0.7068053
vn 0.04155456 0.04155451 0.9982717
vn 0.7067893 0.02958705 0.7068052
vn 0.5773454 0.5773602 0.5773451
vn 0.02958705 0.7067971 0.7067974
vn -0.04155469 0.04155455 0.9982717
vn -0.5773553 0.5773553 0.5773402
vn -0.02958705 0.7067971 0.7067974
vn -0.9982715 0.04155741 -0.04155746
vn -0.5773552 0.5773551 -0.5773404
vn -0.7067972 0.7067972 -0.02958688
vn -0.7068052 0.02958689 -0.7067894
vn -0.7067972 0.7067972 0.02958684
vn -0.9982715 -0.04155741 -0.04155746
vn -0.7068052 -0.02958689 -0.7067894
vn -0.5773552 -0.5773551 -0.5773404
vn -0.7067972 -0.7067972 -0.02958689
vn -0.9982715 0.04155742 0.04155746
vn -0.5773553 0.5773553 0.5773402
vn -0.7067971 0.02958696 0.7067974
vn -0.7067971 -0.02958696 0.7067974
vn -0.9982715 -0.04155742 0.04155746
vn -0.7067972 -0.7067972 0.02958683
vn -0.5773553 -0.5773553 0.5773402
vn -0.04155755 0.9982715 0.04155746
vn -0.5773553 0.5773553 0.5773402
vn -0.7067972 0.7067972 0.02958684
vn -0.02958705 0.7067971 0.7067974
vn -0.7067972 0.7067972 -0.02958688
vn 0.04155742 0.9982715 0.04155742
vn 0.02958705 0.7067971 0.7067974
vn 0.5773454 0.5773602 0.5773451
vn 0.7067894 0.7068051 0.02958694
vn -0.04155754 0.9982715 -0.04155745
vn -0.5773552 0.5773551 -0.5773404
vn -0.02958699 0.7068052 -0.7067893
vn 0.02958698 0.7068052 -0.7067893
vn 0.04155742 0.9982715 -0.04155742
vn 0.7067894 0.7068051 -0.02958698
vn 0.5773454 0.5773601 -0.5773454
vn 0.9982715 -0.04155741 -0.04155746
vn 0.5773454 -0.5773602 -0.5773453
vn 0.7067894 -0.7068052 -0.02958698
vn 0.7067973 -0.02958699 -0.7067971
vn 0.7067894 -0.7068051 0.02958694
vn 0.9982715 0.04155741 -0.04155746
vn 0.7067973 0.02958699 -0.7067972
vn 0.5773454 0.5773601 -0.5773454
vn 0.7067894 0.7068051 -0.02958698
vn 0.9982715 -0.04155742 0.04155746
vn 0.5773454 -0.5773602 0.5773452
vn 0.7067893 -0.02958706 0.7068053
vn 0.7067893 0.02958705 0.7068052
vn 0.9982715 0.04155742 0.04155746
vn 0.7067894 0.7068051 0.02958694
vn 0.5773454 0.5773602 0.5773451
g Laminton_0
f 3/3/3 2/2/2 1/1/1
f 2/2/2 4/4/4 1/1/1
f 5/5/5 3/3/3 1/1/1
f 1/1/1 4/4/4 6/6/6
f 4/4/4 7/7/7 6/6/6
f 7/7/7 8/8/8 6/6/6
f 8/8/8 9/9/9 6/6/6
f 10/10/10 5/5/5 1/1/1
f 10/10/10 1/1/1 6/6/6
f 11/11/11 5/5/5 10/10/10
f 12/12/12 11/11/11 10/10/10
f 13/13/13 12/12/12 10/10/10
f 6/6/6 9/9/9 14/14/14
f 14/14/14 10/10/10 6/6/6
f 14/14/14 13/13/13 10/10/10
f 9/9/9 15/15/15 14/14/14
f 16/16/16 13/13/13 14/14/14
f 15/15/15 16/16/16 14/14/14
f 19/19/19 18/18/18 17/17/17
f 18/18/18 20/20/20 17/17/17
f 21/21/21 19/19/19 17/17/17
f 22/22/22 17/17/17 20/20/20
f 23/23/23 22/22/22 20/20/20
f 23/23/23 24/24/24 22/22/22
f 24/24/24 25/25/25 22/22/22
f 26/26/26 21/21/21 17/17/17
f 26/26/26 17/17/17 22/22/22
f 27/27/27 21/21/21 26/26/26
f 28/28/28 27/27/27 26/26/26
f 28/28/28 26/26/26 29/29/29
f 22/22/22 25/25/25 30/30/30
f 30/30/30 26/26/26 22/22/22
f 26/26/26 30/30/30 29/29/29
f 25/25/25 31/31/31 30/30/30
f 32/32/32 29/29/29 30/30/30
f 31/31/31 32/32/32 30/30/30
f 35/35/35 34/34/34 33/33/33
f 34/34/34 36/36/36 33/33/33
f 37/37/37 35/35/35 33/33/33
f 33/33/33 36/36/36 38/38/38
f 36/36/36 39/39/39 38/38/38
f 39/39/39 40/40/40 38/38/38
f 40/40/40 41/41/41 38/38/38
f 38/38/38 41/41/41 42/42/42
f 33/33/33 38/38/38 42/42/42
f 41/41/41 43/43/43 42/42/42
f 43/43/43 44/44/44 42/42/42
f 44/44/44 45/45/45 42/42/42
f 46/46/46 37/37/37 33/33/33
f 46/46/46 33/33/33 42/42/42
f 42/42/42 45/45/45 46/46/46
f 47/47/47 37/37/37 46/46/46
f 45/45/45 48/48/48 46/46/46
f 48/48/48 47/47/47 46/46/46
f 51/51/51 50/50/50 49/49/49
f 50/50/50 52/52/52 49/49/49
f 51/51/51 49/49/49 53/53/53
f 54/54/54 49/49/49 52/52/52
f 55/55/55 54/54/54 52/52/52
f 55/55/55 56/56/56 54/54/54
f 56/56/56 57/57/57 54/54/54
f 49/49/49 58/58/58 53/53/53
f 58/58/58 49/49/49 54/54/54
f 59/59/59 53/53/53 58/58/58
f 60/60/60 59/59/59 58/58/58
f 60/60/60 58/58/58 61/61/61
f 62/62/62 54/54/54 57/57/57
f 62/62/62 58/58/58 54/54/54
f 58/58/58 62/62/62 61/61/61
f 63/63/63 62/62/62 57/57/57
f 64/64/64 61/61/61 62/62/62
f 63/63/63 64/64/64 62/62/62
f 67/67/67 66/66/66 65/65/65
f 66/66/66 68/68/68 65/65/65
f 69/69/69 67/67/67 65/65/65
f 70/70/70 65/65/65 68/68/68
f 71/71/71 70/70/70 68/68/68
f 71/71/71 72/72/72 70/70/70
f 72/72/72 73/73/73 70/70/70
f 74/74/74 69/69/69 65/65/65
f 65/65/65 70/70/70 74/74/74
f 75/75/75 69/69/69 74/74/74
f 76/76/76 75/75/75 74/74/74
f 76/76/76 74/74/74 77/77/77
f 78/78/78 70/70/70 73/73/73
f 70/70/70 78/78/78 74/74/74
f 74/74/74 78/78/78 77/77/77
f 79/79/79 78/78/78 73/73/73
f 80/80/80 77/77/77 78/78/78
f 79/79/79 80/80/80 78/78/78
f 83/83/83 82/82/82 81/81/81
f 82/82/82 84/84/84 81/81/81
f 83/83/83 81/81/81 85/85/85
f 86/86/86 81/81/81 84/84/84
f 87/87/87 86/86/86 84/84/84
f 87/87/87 88/88/88 86/86/86
f 88/88/88 89/89/89 86/86/86
f 81/81/81 90/90/90 85/85/85
f 90/90/90 81/81/81 86/86/86
f 91/91/91 85/85/85 90/90/90
f 92/92/92 91/91/91 90/90/90
f 92/92/92 90/90/90 93/93/93
f 86/86/86 89/89/89 94/94/94
f 94/94/94 90/90/90 86/86/86
f 90/90/90 94/94/94 93/93/93
f 89/89/89 95/95/95 94/94/94
f 96/96/96 93/93/93 94/94/94
f 95/95/95 96/96/96 94/94/94
