g LatticeFence
v 0.116568 0.062406 0.079098
v 1.00254 0.062406 0.079098
v 1.00254 0.062406 0.209683
v 0.116568 0.062406 0.209683
v 1.00254 0.062406 0.079098
v 1.00254 -0.062406 0.079098
v 1.00254 -0.062406 0.209683
v 1.00254 0.062406 0.209683
v 1.00254 -0.062406 0.079098
v 0.116568 -0.062406 0.079098
v 0.116568 -0.062406 0.209683
v 1.00254 -0.062406 0.209683
v 0.116568 0.062406 0.079098
v 0.116568 -0.062406 0.079098
v 1.00254 -0.062406 0.079098
v 1.00254 0.062406 0.079098
v 0.116568 -0.062406 0.209683
v 0.116568 0.062406 0.209683
v 1.00254 0.062406 0.209683
v 1.00254 -0.062406 0.209683
v 0.116568 0.062406 1.509735
v 1.00254 0.062406 1.509735
v 1.00254 0.062406 1.64032
v 0.116568 0.062406 1.64032
v 1.00254 -0.062406 1.509735
v 0.116568 -0.062406 1.509735
v 0.116568 -0.062406 1.64032
v 1.00254 -0.062406 1.64032
v 0.116568 0.062406 1.509735
v 0.116568 -0.062406 1.509735
v 1.00254 -0.062406 1.509735
v 1.00254 0.062406 1.509735
v 0.116568 -0.062406 1.64032
v 0.116568 0.062406 1.64032
v 1.00254 0.062406 1.64032
v 1.00254 -0.062406 1.64032
v 0.116568 0.005 0.165386
v 1.00254 0.005 0.165386
v 1.00254 0.005 1.549171
v 0.116568 0.005 1.549171
v 0.116568 -0.005 0.165386
v 0.116568 -0.005 1.549171
v 1.00254 -0.005 1.549171
v 1.00254 -0.005 0.165386
vt 0.163858 0.277103
vt 0.163858 0.083573
vt 0.240867 0.083573
vt 0.240867 0.277103
vt 0.163858 0.083573
vt 0.163858 0.083573
vt 0.240867 0.083573
vt 0.240867 0.083573
vt 0.163858 0.083573
vt 0.163858 0.277103
vt 0.240867 0.277103
vt 0.240867 0.083573
vt 0.163858 0.277103
vt 0.163858 0.277103
vt 0.163858 0.083573
vt 0.163858 0.083573
vt 0.240867 0.277103
vt 0.240867 0.277103
vt 0.240867 0.083573
vt 0.240867 0.083573
vt 0.163858 0.277103
vt 0.163858 0.083573
vt 0.240867 0.083573
vt 0.240867 0.277103
vt 0.163858 0.083573
vt 0.163858 0.277103
vt 0.240867 0.277103
vt 0.240867 0.083573
vt 0.163858 0.277103
vt 0.163858 0.277103
vt 0.163858 0.083573
vt 0.163858 0.083573
vt 0.240867 0.277103
vt 0.240867 0.277103
vt 0.240867 0.083573
vt 0.240867 0.083573
vt 0 0
vt 1 0
vt 1 1
vt 0 1
vt 0 0
vt 0 1
vt 1 1
vt 1 0
vn 0 1 0
vn 0 1 0
vn 0 1 0
vn 0 1 0
vn 1 0 0
vn 1 0 0
vn 1 0 0
vn 1 0 0
vn 0 -1 0
vn 0 -1 0
vn 0 -1 0
vn 0 -1 0
vn 0 0 -1
vn 0 0 -1
vn 0 0 -1
vn 0 0 -1
vn 0 0 1
vn 0 0 1
vn 0 0 1
vn 0 0 1
vn 0 1 0
vn 0 1 0
vn 0 1 0
vn 0 1 0
vn 0 -1 0
vn 0 -1 0
vn 0 -1 0
vn 0 -1 0
vn 0 0 -1
vn 0 0 -1
vn 0 0 -1
vn 0 0 -1
vn 0 0 1
vn 0 0 1
vn 0 0 1
vn 0 0 1
vn 0 1 0
vn 0 1 0
vn 0 1 0
vn 0 1 0
vn 0 -1 0
vn 0 -1 0
vn 0 -1 0
vn 0 -1 0
g LatticeFence_0
f 3/3/3 2/2/2 1/1/1
f 4/4/4 3/3/3 1/1/1
f 7/7/7 6/6/6 5/5/5
f 8/8/8 7/7/7 5/5/5
f 11/11/11 10/10/10 9/9/9
f 12/12/12 11/11/11 9/9/9
f 15/15/15 14/14/14 13/13/13
f 16/16/16 15/15/15 13/13/13
f 19/19/19 18/18/18 17/17/17
f 20/20/20 19/19/19 17/17/17
f 23/23/23 22/22/22 21/21/21
f 24/24/24 23/23/23 21/21/21
f 27/27/27 26/26/26 25/25/25
f 28/28/28 27/27/27 25/25/25
f 31/31/31 30/30/30 29/29/29
f 32/32/32 31/31/31 29/29/29
f 35/35/35 34/34/34 33/33/33
f 36/36/36 35/35/35 33/33/33
g LatticeFence_1
f 39/39/39 38/38/38 37/37/37
f 40/40/40 39/39/39 37/37/37
f 43/43/43 42/42/42 41/41/41
f 44/44/44 43/43/43 41/41/41
