g LatticeFencePost
v 0.130452 0.136614 0.012205
v 0.130857 0.136989 1.696838
v -0.130857 0.136989 1.696838
v -0.130452 0.136614 0.012205
v -0.130452 0.136614 0.012205
v -0.130452 -0.136988 0.012313
v 0.130452 -0.136988 0.012313
v 0.130452 0.136614 0.012205
v 0.130857 -0.136614 1.696947
v 0.130857 -0.136614 1.726875
v 0.130857 0.136989 1.726767
v 0.130857 0.136989 1.696838
v 0.130452 0.136614 0.012205
v 0.130452 -0.136988 0.012313
v 0.130857 -0.136614 1.696947
v 0.130857 0.136989 1.696838
v -0.130857 0.136989 1.696838
v -0.130857 -0.136614 1.696947
v -0.130452 -0.136988 0.012313
v -0.130452 0.136614 0.012205
v 0.130452 -0.136988 0.012313
v -0.130452 -0.136988 0.012313
v -0.130857 -0.136614 1.696947
v 0.130857 -0.136614 1.696947
v -0.130857 0.136989 1.726767
v -0.158127 0.165497 1.739279
v -0.158127 -0.165123 1.739438
v -0.130857 -0.136614 1.726875
v 0.158127 -0.165123 1.739438
v 0.130857 -0.136614 1.726875
v 0.158127 0.165497 1.739279
v 0.130857 0.136989 1.726767
v 0.130857 0.136989 1.696838
v 0.130857 0.136989 1.726767
v -0.130857 0.136989 1.726767
v -0.130857 0.136989 1.696838
v -0.130857 -0.136614 1.696947
v -0.130857 -0.136614 1.726875
v 0.130857 -0.136614 1.726875
v 0.130857 -0.136614 1.696947
v -0.130857 0.136989 1.696838
v -0.130857 0.136989 1.726767
v -0.130857 -0.136614 1.726875
v -0.130857 -0.136614 1.696947
v 0.158127 0.165497 1.739279
v 0.158127 0.165497 1.826072
v -0.158127 0.165497 1.826072
v -0.158127 0.165497 1.739279
v 0.130857 0.136989 1.726767
v 0.158127 0.165497 1.739279
v -0.158127 0.165497 1.739279
v -0.130857 0.136989 1.726767
v 0.158127 0.165497 1.826072
v 0.158127 -0.165123 1.826231
v -0.158127 -0.165123 1.826231
v -0.158127 0.165497 1.826072
v -0.158127 -0.165123 1.739438
v -0.158127 -0.165123 1.826231
v 0.158127 -0.165123 1.826231
v 0.158127 -0.165123 1.739438
v 0.158127 -0.165123 1.739438
v 0.158127 -0.165123 1.826231
v 0.158127 0.165497 1.826072
v 0.158127 0.165497 1.739279
v -0.158127 0.165497 1.739279
v -0.158127 0.165497 1.826072
v -0.158127 -0.165123 1.826231
v -0.158127 -0.165123 1.739438
vt 0.238088 0.014586
vt 0.238202 0.271052
vt 0.165046 0.271052
vt 0.165159 0.014586
vt 0.165159 0.014586
vt 0.165159 0.014602
vt 0.238088 0.014602
vt 0.238088 0.014586
vt 0.238202 0.275538
vt 0.238202 0.277571
vt 0.238202 0.277563
vt 0.238202 0.275531
vt 0.238088 0.014586
vt 0.238088 0.014602
vt 0.238202 0.271068
vt 0.238202 0.271052
vt 0.165046 0.271052
vt 0.165046 0.271068
vt 0.165159 0.014602
vt 0.165159 0.014586
vt 0.238088 0.014602
vt 0.165159 0.014602
vt 0.165046 0.271068
vt 0.238202 0.271068
vt 0.165046 0.277563
vt 0.157423 0.278413
vt 0.157423 0.278424
vt 0.165046 0.277571
vt 0.245824 0.278424
vt 0.238202 0.277571
vt 0.245824 0.278413
vt 0.238202 0.277563
vt 0.238202 0.275531
vt 0.238202 0.277563
vt 0.165046 0.277563
vt 0.165046 0.275531
vt 0.165046 0.275538
vt 0.165046 0.277571
vt 0.238202 0.277571
vt 0.238202 0.275538
vt 0.165046 0.275531
vt 0.165046 0.277563
vt 0.165046 0.277571
vt 0.165046 0.275538
vt 0.245824 0.278413
vt 0.245824 0.284307
vt 0.157423 0.284307
vt 0.157423 0.278413
vt 0.238202 0.277563
vt 0.245824 0.278413
vt 0.157423 0.278413
vt 0.165046 0.277563
vt 0.239226 0.008284
vt 0.163108 0.008323
vt 0.163118 0.280314
vt 0.239236 0.280276
vt 0.157423 0.278424
vt 0.157423 0.284318
vt 0.245824 0.284318
vt 0.245824 0.278424
vt 0.245824 0.278424
vt 0.245824 0.284318
vt 0.245824 0.284307
vt 0.245824 0.278413
vt 0.157423 0.278413
vt 0.157423 0.284307
vt 0.157423 0.284318
vt 0.157423 0.278424
vn 0 1 -0.000222602
vn 0 1 -0.0002187097
vn 0 1 -0.0002187097
vn 0 1 -0.000222602
vn 0 -0.0003947335 -1
vn 0 -0.0003947335 -1
vn 0 -0.0003947335 -1
vn 0 -0.0003947335 -1
vn 1 0 -0.0002362096
vn 1 0 0
vn 1 0 0
vn 1 0 -0.0002362126
vn 1 0 -0.0002404075
vn 1 0 -0.0002404075
vn 1 0 -0.0002362096
vn 1 0 -0.0002362126
vn -1 0 -0.0002362126
vn -1 0 -0.0002362096
vn -1 0 -0.0002404075
vn -1 0 -0.0002404075
vn 0 -1 0.0002220092
vn 0 -1 0.0002220092
vn 0 -1 0.0002181275
vn 0 -1 0.0002181275
vn -0.2209971 0.2071009 -0.9530317
vn -0.2138003 0.214027 -0.9531431
vn -0.2136854 -0.2152992 -0.9528823
vn -0.2209512 -0.2082975 -0.9527816
vn 0.2136854 -0.2152992 -0.9528823
vn 0.2209512 -0.2082975 -0.9527816
vn 0.2138003 0.214027 -0.9531431
vn 0.2209971 0.2071009 -0.9530317
vn 0 1 -0.0002187097
vn 0 1 0
vn 0 1 0
vn 0 1 -0.0002187097
vn 0 -1 0.0002181275
vn 0 -1 0
vn 0 -1 0
vn 0 -1 0.0002181275
vn -1 0 -0.0002362126
vn -1 0 0
vn -1 0 0
vn -1 0 -0.0002362096
vn 0 1 0
vn 0 1 0
vn 0 1 0
vn 0 1 0
vn 0.2209971 0.2071009 -0.9530317
vn 0.2138003 0.214027 -0.9531431
vn -0.2138003 0.214027 -0.9531431
vn -0.2209971 0.2071009 -0.9530317
vn 0 0.0004809908 0.9999999
vn 0 0.0004809908 0.9999999
vn 0 0.0004809908 0.9999999
vn 0 0.0004809908 0.9999999
vn 0 -1 0
vn 0 -1 0
vn 0 -1 0
vn 0 -1 0
vn 1 0 0
vn 1 0 0
vn 1 0 0
vn 1 0 0
vn -1 0 0
vn -1 0 0
vn -1 0 0
vn -1 0 0
g LatticeFencePost_0
f 3/3/3 2/2/2 1/1/1
f 4/4/4 3/3/3 1/1/1
f 7/7/7 6/6/6 5/5/5
f 8/8/8 7/7/7 5/5/5
f 11/11/11 10/10/10 9/9/9
f 12/12/12 11/11/11 9/9/9
f 15/15/15 14/14/14 13/13/13
f 16/16/16 15/15/15 13/13/13
f 19/19/19 18/18/18 17/17/17
f 20/20/20 19/19/19 17/17/17
f 23/23/23 22/22/22 21/21/21
f 24/24/24 23/23/23 21/21/21
f 27/27/27 26/26/26 25/25/25
f 28/28/28 27/27/27 25/25/25
f 29/29/29 27/27/27 28/28/28
f 30/30/30 29/29/29 28/28/28
f 31/31/31 29/29/29 30/30/30
f 32/32/32 31/31/31 30/30/30
f 35/35/35 34/34/34 33/33/33
f 36/36/36 35/35/35 33/33/33
f 39/39/39 38/38/38 37/37/37
f 40/40/40 39/39/39 37/37/37
f 43/43/43 42/42/42 41/41/41
f 44/44/44 43/43/43 41/41/41
f 47/47/47 46/46/46 45/45/45
f 48/48/48 47/47/47 45/45/45
f 51/51/51 50/50/50 49/49/49
f 52/52/52 51/51/51 49/49/49
f 55/55/55 54/54/54 53/53/53
f 56/56/56 55/55/55 53/53/53
f 59/59/59 58/58/58 57/57/57
f 60/60/60 59/59/59 57/57/57
f 63/63/63 62/62/62 61/61/61
f 64/64/64 63/63/63 61/61/61
f 67/67/67 66/66/66 65/65/65
f 68/68/68 67/67/67 65/65/65
