g LetterSign_T
v -0.5737 0.278928 1.195711
v 0.5737 0.278928 1.372854
v -0.5737 0.278928 1.372854
v 0.5737 0.278928 1.195711
v -0.098636 0.278928 1.195711
v 0.098636 0.278928 1.195711
v -0.098636 0.278928 0
v 0.098636 0.278928 0
v -0.5737 -0.278928 1.195711
v -0.5737 -0.278928 1.372854
v 0.5737 -0.278928 1.372854
v 0.5737 -0.278928 1.195711
v -0.098636 -0.278928 1.195711
v -0.5737 -0.278928 1.195711
v 0.5737 -0.278928 1.195711
v 0.098636 -0.278928 1.195711
v -0.098636 -0.278928 0
v -0.098636 -0.278928 1.195711
v 0.098636 -0.278928 1.195711
v 0.098636 -0.278928 0
v 0.5737 0.278928 1.372854
v 0.5737 -0.278928 1.372854
v -0.5737 -0.278928 1.372854
v -0.5737 0.278928 1.372854
v -0.098636 0.278928 0
v -0.098636 -0.278928 0
v 0.098636 -0.278928 0
v 0.098636 0.278928 0
v 0.098636 0.278928 0
v 0.098636 -0.278928 0
v 0.098636 -0.278928 1.195711
v 0.098636 0.278928 1.195711
v -0.098636 0.278928 1.195711
v -0.098636 -0.278928 1.195711
v -0.098636 -0.278928 0
v -0.098636 0.278928 0
v 0.5737 0.278928 1.195711
v 0.5737 -0.278928 1.195711
v 0.5737 -0.278928 1.372854
v 0.5737 0.278928 1.372854
v -0.5737 0.278928 1.372854
v -0.5737 -0.278928 1.372854
v -0.5737 -0.278928 1.195711
v -0.5737 0.278928 1.195711
v 0.098636 0.278928 1.195711
v 0.098636 -0.278928 1.195711
v 0.5737 -0.278928 1.195711
v 0.5737 0.278928 1.195711
v -0.5737 0.278928 1.195711
v -0.5737 -0.278928 1.195711
v -0.098636 -0.278928 1.195711
v -0.098636 0.278928 1.195711
vt 0.25 0.685484
vt 0.75 0.75
vt 0.25 0.75
vt 0.75 0.685484
vt 0.457017 0.685484
vt 0.542982 0.685484
vt 0.457017 0.25
vt 0.542982 0.25
vt 0.25 0.685484
vt 0.25 0.75
vt 0.75 0.75
vt 0.75 0.685484
vt 0.457017 0.685484
vt 0.25 0.685484
vt 0.75 0.685484
vt 0.542982 0.685484
vt 0.457017 0.25
vt 0.457017 0.685484
vt 0.542982 0.685484
vt 0.542982 0.25
vt 0.75 0.75
vt 0.25 0.75
vt 0.25 0.75
vt 0.75 0.75
vt 0.75 0.25
vt 0.25 0.25
vt 0.25 0.25
vt 0.75 0.25
vt 0.75 0.25
vt 0.25 0.25
vt 0.25 0.685484
vt 0.75 0.685484
vt 0.75 0.685484
vt 0.25 0.685484
vt 0.25 0.25
vt 0.75 0.25
vt 0.75 0.685484
vt 0.25 0.685484
vt 0.25 0.75
vt 0.75 0.75
vt 0.75 0.75
vt 0.25 0.75
vt 0.25 0.685484
vt 0.75 0.685484
vt 0.75 0.685484
vt 0.25 0.685484
vt 0.25 0.685484
vt 0.75 0.685484
vt 0.75 0.685484
vt 0.25 0.685484
vt 0.25 0.685484
vt 0.75 0.685484
vn 0 1 0
vn 0 1 0
vn 0 1 0
vn 0 1 0
vn 0 1 0
vn 0 1 0
vn 0 1 0
vn 0 1 0
vn 0 -1 0
vn 0 -1 0
vn 0 -1 0
vn 0 -1 0
vn 0 1 0
vn 0 1 0
vn 0 1 0
vn 0 1 0
vn 0 -1 0
vn 0 -1 0
vn 0 -1 0
vn 0 -1 0
vn 0 0 1
vn 0 0 1
vn 0 0 1
vn 0 0 1
vn 0 0 -1
vn 0 0 -1
vn 0 0 -1
vn 0 0 -1
vn 1 0 0
vn 1 0 0
vn 1 0 0
vn 1 0 0
vn -1 0 0
vn -1 0 0
vn -1 0 0
vn -1 0 0
vn 1 0 0
vn 1 0 0
vn 1 0 0
vn 1 0 0
vn -1 0 0
vn -1 0 0
vn -1 0 0
vn -1 0 0
vn 0 0 -1
vn 0 0 -1
vn 0 0 -1
vn 0 0 -1
vn 0 0 -1
vn 0 0 -1
vn 0 0 -1
vn 0 0 -1
g LetterSign_T_0
f 3/3/3 2/2/2 1/1/1
f 2/2/2 4/4/4 1/1/1
f 1/1/1 4/4/4 5/5/5
f 5/5/5 4/4/4 6/6/6
f 5/5/5 6/6/6 7/7/7
f 6/6/6 8/8/8 7/7/7
f 11/11/11 10/10/10 9/9/9
f 12/12/12 11/11/11 9/9/9
f 15/15/15 14/14/14 13/13/13
f 15/15/15 13/13/13 16/16/16
f 19/19/19 18/18/18 17/17/17
f 20/20/20 19/19/19 17/17/17
f 23/23/23 22/22/22 21/21/21
f 24/24/24 23/23/23 21/21/21
f 27/27/27 26/26/26 25/25/25
f 28/28/28 27/27/27 25/25/25
f 31/31/31 30/30/30 29/29/29
f 32/32/32 31/31/31 29/29/29
f 35/35/35 34/34/34 33/33/33
f 36/36/36 35/35/35 33/33/33
f 39/39/39 38/38/38 37/37/37
f 40/40/40 39/39/39 37/37/37
f 43/43/43 42/42/42 41/41/41
f 44/44/44 43/43/43 41/41/41
f 47/47/47 46/46/46 45/45/45
f 48/48/48 47/47/47 45/45/45
f 51/51/51 50/50/50 49/49/49
f 52/52/52 51/51/51 49/49/49
