g LetterSign_X
v -0.118933 0.278928 0.710583
v -0.428933 0.278928 1.372854
v -0.668478 0.278928 1.372854
v 0.001845 0.278928 0.849478
v 0.120611 0.278928 0.710583
v -0.710751 0.278928 0
v 0.668142 0.278928 1.372854
v 0.430611 0.278928 1.372854
v 0.001845 0.278928 0.567661
v -0.471205 0.278928 0
v 0.706389 0.278928 0
v 0.468857 0.278928 0
v -0.118933 -0.278928 0.710583
v -0.668478 -0.278928 1.372854
v -0.428933 -0.278928 1.372854
v 0.001845 -0.278928 0.849478
v 0.120611 -0.278928 0.710583
v -0.710751 -0.278928 0
v 0.668142 -0.278928 1.372854
v 0.430611 -0.278928 1.372854
v 0.001845 -0.278928 0.567661
v -0.471205 -0.278928 0
v 0.706389 -0.278928 0
v 0.468857 -0.278928 0
v -0.118933 0.278928 0.710583
v -0.710751 -0.278928 0
v -0.710751 0.278928 0
v -0.118933 -0.278928 0.710583
v -0.668478 0.278928 1.372854
v -0.668478 -0.278928 1.372854
v -0.471205 0.278928 0
v 0.001845 -0.278928 0.567661
v 0.001845 0.278928 0.567661
v -0.471205 -0.278928 0
v -0.710751 0.278928 0
v -0.710751 -0.278928 0
v 0.668142 0.278928 1.372854
v 0.668142 -0.278928 1.372854
v 0.430611 -0.278928 1.372854
v 0.430611 0.278928 1.372854
v 0.001845 -0.278928 0.849478
v 0.001845 0.278928 0.849478
v -0.428933 0.278928 1.372854
v -0.668478 -0.278928 1.372854
v -0.668478 0.278928 1.372854
v -0.428933 -0.278928 1.372854
v 0.001845 0.278928 0.849478
v 0.001845 -0.278928 0.849478
v 0.001845 0.278928 0.567661
v 0.001845 -0.278928 0.567661
v 0.468857 -0.278928 0
v 0.468857 0.278928 0
v 0.706389 -0.278928 0
v 0.706389 0.278928 0
v 0.706389 0.278928 0
v 0.706389 -0.278928 0
v 0.120611 -0.278928 0.710583
v 0.120611 0.278928 0.710583
v 0.668142 -0.278928 1.372854
v 0.668142 0.278928 1.372854
vt 0.458807 0.508798
vt 0.349432 0.75
vt 0.264914 0.75
vt 0.50142 0.559384
vt 0.543323 0.508798
vt 0.25 0.25
vt 0.736506 0.75
vt 0.652699 0.75
vt 0.50142 0.456745
vt 0.334517 0.25
vt 0.75 0.25
vt 0.666193 0.25
vt 0.458807 0.508798
vt 0.264914 0.75
vt 0.349432 0.75
vt 0.50142 0.559384
vt 0.543323 0.508798
vt 0.25 0.25
vt 0.736506 0.75
vt 0.652699 0.75
vt 0.50142 0.456745
vt 0.334517 0.25
vt 0.75 0.25
vt 0.666193 0.25
vt 0.75 0.508798
vt 0.25 0.25
vt 0.75 0.25
vt 0.25 0.508798
vt 0.75 0.75
vt 0.25 0.75
vt 0.75 0.25
vt 0.25 0.456745
vt 0.75 0.456745
vt 0.25 0.25
vt 0.75 0.25
vt 0.25 0.25
vt 0.75 0.75
vt 0.25 0.75
vt 0.25 0.75
vt 0.75 0.75
vt 0.25 0.559384
vt 0.75 0.559384
vt 0.75 0.75
vt 0.25 0.75
vt 0.75 0.75
vt 0.25 0.75
vt 0.75 0.559384
vt 0.25 0.559384
vt 0.75 0.456745
vt 0.25 0.456745
vt 0.25 0.25
vt 0.75 0.25
vt 0.25 0.25
vt 0.75 0.25
vt 0.75 0.25
vt 0.25 0.25
vt 0.25 0.508798
vt 0.75 0.508798
vt 0.25 0.75
vt 0.75 0.75
vn 0 1 0
vn 0 1 0
vn 0 1 0
vn 0 1 0
vn 0 1 0
vn 0 1 0
vn 0 1 0
vn 0 1 0
vn 0 1 0
vn 0 1 0
vn 0 1 0
vn 0 1 0
vn 0 -1 0
vn 0 -1 0
vn 0 -1 0
vn 0 -1 0
vn 0 -1 0
vn 0 -1 0
vn 0 -1 0
vn 0 -1 0
vn 0 -1 0
vn 0 -1 0
vn 0 -1 0
vn 0 -1 0
vn -0.9995263 0 0.0307775
vn -0.7683991 0 0.639971
vn -0.7683991 0 0.639971
vn -0.9995263 0 0.0307775
vn -0.7695611 0 -0.6385731
vn -0.7695611 0 -0.6385731
vn 0.6230769 0 -0.7821606
vn 0.7682218 0 -0.6401837
vn 0.7682218 0 -0.6401837
vn 0.6230769 0 -0.7821606
vn 0 0 -1
vn 0 0 -1
vn 0 0 1
vn 0 0 1
vn -0.6177171 0 0.7864004
vn -0.6177171 0 0.7864004
vn -0.7735593 0 0.633724
vn -0.7735593 0 0.633724
vn 0.6154149 0 0.7882034
vn 0 0 1
vn 0 0 1
vn 0.6154149 0 0.7882034
vn 0.7721021 0 0.6354985
vn 0.7721021 0 0.6354985
vn -0.7722463 0 -0.6353233
vn -0.7722463 0 -0.6353233
vn -0.6274044 0 -0.7786936
vn -0.6274044 0 -0.7786936
vn 0 0 -1
vn 0 0 -1
vn 0.7716147 0 0.6360903
vn 0.7716147 0 0.6360903
vn 0.9996122 0 0.02784864
vn 0.9996122 0 0.02784864
vn 0.7707116 0 -0.6371841
vn 0.7707116 0 -0.6371841
g LetterSign_X_0
f 3/3/3 2/2/2 1/1/1
f 2/2/2 4/4/4 1/1/1
f 4/4/4 5/5/5 1/1/1
f 1/1/1 5/5/5 6/6/6
f 7/7/7 5/5/5 4/4/4
f 8/8/8 7/7/7 4/4/4
f 5/5/5 9/9/9 6/6/6
f 9/9/9 10/10/10 6/6/6
f 5/5/5 11/11/11 9/9/9
f 9/9/9 11/11/11 12/12/12
f 15/15/15 14/14/14 13/13/13
f 16/16/16 15/15/15 13/13/13
f 17/17/17 16/16/16 13/13/13
f 17/17/17 13/13/13 18/18/18
f 17/17/17 19/19/19 16/16/16
f 19/19/19 20/20/20 16/16/16
f 21/21/21 17/17/17 18/18/18
f 22/22/22 21/21/21 18/18/18
f 23/23/23 17/17/17 21/21/21
f 23/23/23 21/21/21 24/24/24
f 27/27/27 26/26/26 25/25/25
f 26/26/26 28/28/28 25/25/25
f 25/25/25 28/28/28 29/29/29
f 28/28/28 30/30/30 29/29/29
f 33/33/33 32/32/32 31/31/31
f 32/32/32 34/34/34 31/31/31
f 31/31/31 34/34/34 35/35/35
f 34/34/34 36/36/36 35/35/35
f 39/39/39 38/38/38 37/37/37
f 40/40/40 39/39/39 37/37/37
f 41/41/41 39/39/39 40/40/40
f 42/42/42 41/41/41 40/40/40
f 45/45/45 44/44/44 43/43/43
f 44/44/44 46/46/46 43/43/43
f 43/43/43 46/46/46 47/47/47
f 46/46/46 48/48/48 47/47/47
f 51/51/51 50/50/50 49/49/49
f 52/52/52 51/51/51 49/49/49
f 53/53/53 51/51/51 52/52/52
f 54/54/54 53/53/53 52/52/52
f 57/57/57 56/56/56 55/55/55
f 58/58/58 57/57/57 55/55/55
f 59/59/59 57/57/57 58/58/58
f 60/60/60 59/59/59 58/58/58
