g LetterSign_N
v -0.634895 0.278928 0
v -0.477882 0.278928 1.372854
v -0.634895 0.278928 1.372854
v -0.4497 0.278928 1.056816
v -0.4497 0.278928 0
v 0.452116 0.278928 0.309999
v 0.468219 0.278928 0
v 0.637311 0.278928 0
v 0.637311 0.278928 1.372854
v 0.452116 0.278928 1.372854
v -0.634895 -0.278928 0
v -0.634895 -0.278928 1.372854
v -0.477882 -0.278928 1.372854
v -0.4497 -0.278928 1.056816
v -0.4497 -0.278928 0
v 0.452116 -0.278928 0.309999
v 0.468219 -0.278928 0
v 0.637311 -0.278928 0
v 0.637311 -0.278928 1.372854
v 0.452116 -0.278928 1.372854
v -0.634895 0.278928 0
v -0.634895 -0.278928 0
v -0.4497 -0.278928 0
v -0.4497 0.278928 0
v -0.477882 0.278928 1.372854
v -0.634895 -0.278928 1.372854
v -0.634895 0.278928 1.372854
v -0.477882 -0.278928 1.372854
v 0.452116 0.278928 0.309999
v 0.452116 -0.278928 0.309999
v -0.4497 0.278928 1.056816
v -0.4497 -0.278928 1.056816
v 0.468219 -0.278928 0
v 0.468219 0.278928 0
v 0.637311 -0.278928 0
v 0.637311 0.278928 0
v -0.4497 0.278928 0
v -0.4497 -0.278928 0
v -0.4497 -0.278928 1.056816
v -0.4497 0.278928 1.056816
v 0.637311 0.278928 1.372854
v 0.637311 -0.278928 1.372854
v 0.452116 -0.278928 1.372854
v 0.452116 0.278928 1.372854
v 0.452116 0.278928 1.372854
v 0.452116 -0.278928 1.372854
v 0.452116 -0.278928 0.309999
v 0.452116 0.278928 0.309999
v 0.637311 0.278928 0
v 0.637311 -0.278928 0
v 0.637311 -0.278928 1.372854
v 0.637311 0.278928 1.372854
v -0.634895 0.278928 1.372854
v -0.634895 -0.278928 1.372854
v -0.634895 -0.278928 0
v -0.634895 0.278928 0
vt 0.25 0.25
vt 0.311709 0.749999
vt 0.25 0.749999
vt 0.322785 0.634896
vt 0.322785 0.25
vt 0.677215 0.362903
vt 0.683543 0.25
vt 0.75 0.25
vt 0.75 0.749999
vt 0.677215 0.749999
vt 0.25 0.25
vt 0.25 0.75
vt 0.311709 0.75
vt 0.322785 0.634897
vt 0.322785 0.25
vt 0.677215 0.362903
vt 0.683543 0.25
vt 0.75 0.25
vt 0.75 0.75
vt 0.677215 0.75
vt 0.75 0.25
vt 0.25 0.25
vt 0.25 0.25
vt 0.75 0.25
vt 0.75 0.75
vt 0.25 0.75
vt 0.75 0.75
vt 0.25 0.75
vt 0.75 0.362903
vt 0.25 0.362903
vt 0.75 0.634898
vt 0.25 0.634898
vt 0.25 0.25
vt 0.75 0.25
vt 0.25 0.25
vt 0.75 0.25
vt 0.75 0.25
vt 0.25 0.25
vt 0.25 0.634898
vt 0.75 0.634898
vt 0.75 0.75
vt 0.25 0.75
vt 0.25 0.75
vt 0.75 0.75
vt 0.75 0.75
vt 0.25 0.75
vt 0.25 0.362903
vt 0.75 0.362903
vt 0.75 0.25
vt 0.25 0.25
vt 0.25 0.75
vt 0.75 0.75
vt 0.75 0.75
vt 0.25 0.75
vt 0.25 0.25
vt 0.75 0.25
vn 0 1 0
vn 0 1 0
vn 0 1 0
vn 0 1 0
vn 0 1 0
vn 0 1 0
vn 0 1 0
vn 0 1 0
vn 0 1 0
vn 0 1 0
vn 0 -1 0
vn 0 -1 0
vn 0 -1 0
vn 0 -1 0
vn 0 -1 0
vn 0 -1 0
vn 0 -1 0
vn 0 -1 0
vn 0 -1 0
vn 0 -1 0
vn 0 0 -1
vn 0 0 -1
vn 0 0 -1
vn 0 0 -1
vn 0.6991175 0 0.7150068
vn 0 0 1
vn 0 0 1
vn 0.6991175 0 0.7150068
vn 0.7525768 0 0.6585046
vn 0.7525768 0 0.6585046
vn -0.7549773 0 -0.6557509
vn -0.7549773 0 -0.6557509
vn -0.6970782 0 -0.716995
vn -0.6970782 0 -0.716995
vn 0 0 -1
vn 0 0 -1
vn 1 0 0
vn 1 0 0
vn 1 0 0
vn 1 0 0
vn 0 0 1
vn 0 0 1
vn 0 0 1
vn 0 0 1
vn -1 0 0
vn -1 0 0
vn -1 0 0
vn -1 0 0
vn 1 0 0
vn 1 0 0
vn 1 0 0
vn 1 0 0
vn -1 0 0
vn -1 0 0
vn -1 0 0
vn -1 0 0
g LetterSign_N_0
f 3/3/3 2/2/2 1/1/1
f 2/2/2 4/4/4 1/1/1
f 4/4/4 5/5/5 1/1/1
f 2/2/2 6/6/6 4/4/4
f 4/4/4 6/6/6 7/7/7
f 6/6/6 8/8/8 7/7/7
f 9/9/9 8/8/8 6/6/6
f 10/10/10 9/9/9 6/6/6
f 13/13/13 12/12/12 11/11/11
f 14/14/14 13/13/13 11/11/11
f 15/15/15 14/14/14 11/11/11
f 16/16/16 13/13/13 14/14/14
f 16/16/16 14/14/14 17/17/17
f 18/18/18 16/16/16 17/17/17
f 18/18/18 19/19/19 16/16/16
f 19/19/19 20/20/20 16/16/16
f 23/23/23 22/22/22 21/21/21
f 24/24/24 23/23/23 21/21/21
f 27/27/27 26/26/26 25/25/25
f 26/26/26 28/28/28 25/25/25
f 25/25/25 28/28/28 29/29/29
f 28/28/28 30/30/30 29/29/29
f 33/33/33 32/32/32 31/31/31
f 34/34/34 33/33/33 31/31/31
f 35/35/35 33/33/33 34/34/34
f 36/36/36 35/35/35 34/34/34
f 39/39/39 38/38/38 37/37/37
f 40/40/40 39/39/39 37/37/37
f 43/43/43 42/42/42 41/41/41
f 44/44/44 43/43/43 41/41/41
f 47/47/47 46/46/46 45/45/45
f 48/48/48 47/47/47 45/45/45
f 51/51/51 50/50/50 49/49/49
f 52/52/52 51/51/51 49/49/49
f 55/55/55 54/54/54 53/53/53
f 56/56/56 55/55/55 53/53/53
