g LetterSign_P
v -0.280917 0.278928 0.59383
v 0.053524 0.278928 0.600363
v 0.259446 0.278928 0.68576
v 0.003728 0.278928 0.774065
v 0.371094 0.278928 0.845856
v 0.110291 0.278928 0.817469
v 0.174041 0.278928 0.906184
v 0.384121 0.278928 1.061989
v 0.182803 0.278928 1.026586
v 0.143673 0.278928 1.121734
v 0.039704 0.278928 1.189047
v 0.285852 0.278928 1.263101
v -0.280917 0.278928 1.195711
v 0.071775 0.278928 1.366099
v -0.478191 0.278928 1.372854
v -0.478191 0.278928 0
v -0.280917 0.278928 0.770972
v -0.280917 0.278928 0
v -0.280917 -0.278928 0.59383
v 0.259446 -0.278928 0.68576
v 0.053524 -0.278928 0.600363
v 0.003728 -0.278928 0.774065
v 0.371094 -0.278928 0.845856
v 0.110291 -0.278928 0.817469
v 0.174041 -0.278928 0.906184
v 0.384121 -0.278928 1.061989
v 0.182803 -0.278928 1.026586
v 0.143673 -0.278928 1.121734
v 0.039704 -0.278928 1.189047
v 0.285852 -0.278928 1.263101
v -0.280917 -0.278928 1.195711
v 0.071775 -0.278928 1.366099
v -0.478191 -0.278928 1.372854
v -0.478191 -0.278928 0
v -0.280917 -0.278928 0.770972
v -0.280917 -0.278928 0
v -0.280917 0.278928 0.770972
v -0.280917 -0.278928 0.770972
v -0.280917 -0.278928 1.195711
v -0.280917 0.278928 1.195711
v 0.003728 0.278928 0.774065
v -0.280917 -0.278928 0.770972
v -0.280917 0.278928 0.770972
v 0.003728 -0.278928 0.774065
v 0.110291 0.278928 0.817469
v 0.110291 -0.278928 0.817469
v 0.174041 0.278928 0.906184
v 0.174041 -0.278928 0.906184
v 0.182803 0.278928 1.026586
v 0.182803 -0.278928 1.026586
v 0.143673 0.278928 1.121734
v 0.143673 -0.278928 1.121734
v 0.039704 0.278928 1.189047
v 0.039704 -0.278928 1.189047
v -0.280917 0.278928 1.195711
v -0.280917 -0.278928 1.195711
v -0.280917 0.278928 0
v -0.280917 -0.278928 0
v -0.280917 -0.278928 0.59383
v -0.280917 0.278928 0.59383
v -0.280917 0.278928 0.59383
v -0.280917 -0.278928 0.59383
v 0.053524 -0.278928 0.600363
v 0.053524 0.278928 0.600363
v 0.259446 -0.278928 0.68576
v 0.259446 0.278928 0.68576
v 0.371094 -0.278928 0.845856
v 0.371094 0.278928 0.845856
v 0.384121 -0.278928 1.061989
v 0.384121 0.278928 1.061989
v 0.285852 -0.278928 1.263101
v 0.285852 0.278928 1.263101
v 0.071775 -0.278928 1.366099
v 0.071775 0.278928 1.366099
v -0.478191 -0.278928 1.372854
v -0.478191 0.278928 1.372854
v -0.478191 0.278928 0
v -0.478191 -0.278928 0
v -0.280917 -0.278928 0
v -0.280917 0.278928 0
v -0.478191 0.278928 1.372854
v -0.478191 -0.278928 1.372854
v -0.478191 -0.278928 0
v -0.478191 0.278928 0
vt 0.364387 0.466275
vt 0.558307 0.468655
vt 0.677709 0.499757
vt 0.529435 0.531917
vt 0.742446 0.558064
vt 0.591224 0.547725
vt 0.628188 0.580036
vt 0.75 0.636781
vt 0.633269 0.623887
vt 0.610581 0.658541
vt 0.550296 0.683056
vt 0.69302 0.710027
vt 0.364387 0.685483
vt 0.568891 0.747539
vt 0.25 0.749999
vt 0.25 0.25
vt 0.364387 0.530791
vt 0.364387 0.25
vt 0.364387 0.466275
vt 0.677709 0.499757
vt 0.558307 0.468655
vt 0.529435 0.531918
vt 0.742446 0.558065
vt 0.591224 0.547726
vt 0.628188 0.580037
vt 0.75 0.636781
vt 0.633269 0.623887
vt 0.610581 0.658541
vt 0.550296 0.683056
vt 0.69302 0.710028
vt 0.364387 0.685484
vt 0.568891 0.74754
vt 0.25 0.75
vt 0.25 0.25
vt 0.364387 0.530792
vt 0.364387 0.25
vt 0.75 0.530792
vt 0.25 0.530792
vt 0.25 0.685484
vt 0.75 0.685484
vt 0.75 0.531918
vt 0.25 0.530792
vt 0.75 0.530792
vt 0.25 0.531918
vt 0.75 0.547726
vt 0.25 0.547726
vt 0.75 0.580037
vt 0.25 0.580037
vt 0.75 0.623888
vt 0.25 0.623888
vt 0.75 0.658541
vt 0.25 0.658541
vt 0.75 0.683057
vt 0.25 0.683057
vt 0.75 0.685484
vt 0.25 0.685484
vt 0.75 0.25
vt 0.25 0.25
vt 0.25 0.466276
vt 0.75 0.466276
vt 0.75 0.466276
vt 0.25 0.466276
vt 0.25 0.468655
vt 0.75 0.468655
vt 0.25 0.499757
vt 0.75 0.499757
vt 0.25 0.558065
vt 0.75 0.558065
vt 0.25 0.636782
vt 0.75 0.636782
vt 0.25 0.710028
vt 0.75 0.710028
vt 0.25 0.74754
vt 0.75 0.74754
vt 0.25 0.75
vt 0.75 0.75
vt 0.75 0.25
vt 0.25 0.25
vt 0.25 0.25
vt 0.75 0.25
vt 0.75 0.75
vt 0.25 0.75
vt 0.25 0.25
vt 0.75 0.25
vn 0 1 0
vn 0 1 0
vn 0 1 0
vn 0 1 0
vn 0 1 0
vn 0 1 0
vn 0 1 0
vn 0 1 0
vn 0 1 0
vn 0 1 0
vn 0 1 0
vn 0 1 0
vn 0 1 0
vn 0 1 0
vn 0 1 0
vn 0 1 0
vn 0 1 0
vn 0 1 0
vn 0 -1 0
vn 0 -1 0
vn 0 -1 0
vn 0 -1 0
vn 0 -1 0
vn 0 -1 0
vn 0 -1 0
vn 0 -1 0
vn 0 -1 0
vn 0 -1 0
vn 0 -1 0
vn 0 -1 0
vn 0 -1 0
vn 0 -1 0
vn 0 -1 0
vn 0 -1 0
vn 0 -1 0
vn 0 -1 0
vn 1 0 0
vn 1 0 0
vn 1 0 0
vn 1 0 0
vn -0.1180242 0 0.9930107
vn -0.01086554 0 0.999941
vn -0.01086554 0 0.999941
vn -0.1180242 0 0.9930107
vn -0.612938 0 0.7901309
vn -0.612938 0 0.7901309
vn -0.9448109 0 0.3276162
vn -0.9448109 0 0.3276162
vn -0.9902209 0 -0.1395084
vn -0.9902209 0 -0.1395084
vn -0.7504079 0 -0.660975
vn -0.7504079 0 -0.660975
vn -0.1716458 0 -0.9851587
vn -0.1716458 0 -0.9851587
vn -0.0207803 0 -0.9997841
vn -0.0207803 0 -0.9997841
vn 1 0 0
vn 1 0 0
vn 1 0 0
vn 1 0 0
vn 0.01953044 0 -0.9998093
vn 0.01953044 0 -0.9998093
vn 0.1677166 0 -0.9858353
vn 0.1677166 0 -0.9858353
vn 0.6116004 0 -0.7911669
vn 0.6116004 0 -0.7911669
vn 0.9492379 0 -0.3145591
vn 0.9492379 0 -0.3145591
vn 0.9797626 0 0.2001628
vn 0.9797626 0 0.2001628
vn 0.6975974 0 0.7164899
vn 0.6975974 0 0.7164899
vn 0.1421882 0 0.9898397
vn 0.1421882 0 0.9898397
vn 0.01228164 0 0.9999245
vn 0.01228164 0 0.9999245
vn 0 0 -1
vn 0 0 -1
vn 0 0 -1
vn 0 0 -1
vn -1 0 0
vn -1 0 0
vn -1 0 0
vn -1 0 0
g LetterSign_P_0
f 3/3/3 2/2/2 1/1/1
f 4/4/4 3/3/3 1/1/1
f 5/5/5 3/3/3 4/4/4
f 6/6/6 5/5/5 4/4/4
f 7/7/7 5/5/5 6/6/6
f 8/8/8 5/5/5 7/7/7
f 9/9/9 8/8/8 7/7/7
f 10/10/10 8/8/8 9/9/9
f 11/11/11 8/8/8 10/10/10
f 12/12/12 8/8/8 11/11/11
f 12/12/12 11/11/11 13/13/13
f 14/14/14 12/12/12 13/13/13
f 15/15/15 14/14/14 13/13/13
f 15/15/15 13/13/13 16/16/16
f 17/17/17 4/4/4 1/1/1
f 13/13/13 17/17/17 16/16/16
f 17/17/17 1/1/1 16/16/16
f 1/1/1 18/18/18 16/16/16
f 21/21/21 20/20/20 19/19/19
f 20/20/20 22/22/22 19/19/19
f 20/20/20 23/23/23 22/22/22
f 23/23/23 24/24/24 22/22/22
f 23/23/23 25/25/25 24/24/24
f 23/23/23 26/26/26 25/25/25
f 26/26/26 27/27/27 25/25/25
f 26/26/26 28/28/28 27/27/27
f 26/26/26 29/29/29 28/28/28
f 26/26/26 30/30/30 29/29/29
f 29/29/29 30/30/30 31/31/31
f 30/30/30 32/32/32 31/31/31
f 32/32/32 33/33/33 31/31/31
f 31/31/31 33/33/33 34/34/34
f 22/22/22 35/35/35 19/19/19
f 35/35/35 31/31/31 34/34/34
f 19/19/19 35/35/35 34/34/34
f 36/36/36 19/19/19 34/34/34
f 39/39/39 38/38/38 37/37/37
f 40/40/40 39/39/39 37/37/37
f 43/43/43 42/42/42 41/41/41
f 42/42/42 44/44/44 41/41/41
f 41/41/41 44/44/44 45/45/45
f 44/44/44 46/46/46 45/45/45
f 45/45/45 46/46/46 47/47/47
f 46/46/46 48/48/48 47/47/47
f 47/47/47 48/48/48 49/49/49
f 48/48/48 50/50/50 49/49/49
f 49/49/49 50/50/50 51/51/51
f 50/50/50 52/52/52 51/51/51
f 51/51/51 52/52/52 53/53/53
f 52/52/52 54/54/54 53/53/53
f 53/53/53 54/54/54 55/55/55
f 54/54/54 56/56/56 55/55/55
f 59/59/59 58/58/58 57/57/57
f 60/60/60 59/59/59 57/57/57
f 63/63/63 62/62/62 61/61/61
f 64/64/64 63/63/63 61/61/61
f 65/65/65 63/63/63 64/64/64
f 66/66/66 65/65/65 64/64/64
f 67/67/67 65/65/65 66/66/66
f 68/68/68 67/67/67 66/66/66
f 69/69/69 67/67/67 68/68/68
f 70/70/70 69/69/69 68/68/68
f 71/71/71 69/69/69 70/70/70
f 72/72/72 71/71/71 70/70/70
f 73/73/73 71/71/71 72/72/72
f 74/74/74 73/73/73 72/72/72
f 75/75/75 73/73/73 74/74/74
f 76/76/76 75/75/75 74/74/74
f 79/79/79 78/78/78 77/77/77
f 80/80/80 79/79/79 77/77/77
f 83/83/83 82/82/82 81/81/81
f 84/84/84 83/83/83 81/81/81
