g LetterSign_I
v -0.098635 0.278928 0
v -0.098635 0.278928 1.372854
v -0.098635 0.278928 0.686427
v 0.098637 0.278928 1.372854
v 0.098637 0.278928 0.686427
v 0.098637 0.278928 0
v -0.098635 -0.278928 0
v -0.098635 -0.278928 0.686427
v -0.098635 -0.278928 1.372854
v 0.098637 -0.278928 1.372854
v 0.098637 -0.278928 0.686427
v 0.098637 -0.278928 0
v -0.098635 0.278928 0
v -0.098635 -0.278928 0
v 0.098637 -0.278928 0
v 0.098637 0.278928 0
v -0.098635 0.278928 0.686427
v -0.098635 -0.278928 0
v -0.098635 0.278928 0
v -0.098635 -0.278928 0.686427
v -0.098635 0.278928 1.372854
v -0.098635 -0.278928 1.372854
v 0.098637 0.278928 0.686427
v 0.098637 -0.278928 1.372854
v 0.098637 0.278928 1.372854
v 0.098637 -0.278928 0.686427
v 0.098637 0.278928 0
v 0.098637 -0.278928 0
v 0.098637 0.278928 1.372854
v 0.098637 -0.278928 1.372854
v -0.098635 -0.278928 1.372854
v -0.098635 0.278928 1.372854
v -0.418226 0.278928 1.217084
v -0.418226 0.278928 1.37127
v -0.418226 -0.278928 1.37127
v -0.418226 -0.278928 1.217084
v 0.418226 0.278928 1.217084
v 0.418226 -0.278928 1.217084
v 0.418226 -0.278928 1.37127
v 0.418226 0.278928 1.37127
v -0.418226 -0.278928 1.37127
v 0.418226 -0.278928 1.37127
v 0.418226 -0.278928 1.217084
v -0.418226 -0.278928 1.217084
v -0.418226 0.278928 1.37127
v 0.418226 0.278928 1.37127
v 0.418226 -0.278928 1.37127
v -0.418226 -0.278928 1.37127
v -0.418226 -0.278928 1.217084
v 0.418226 -0.278928 1.217084
v 0.418226 0.278928 1.217084
v -0.418226 0.278928 1.217084
v -0.418226 0.278928 1.217084
v 0.418226 0.278928 1.217084
v 0.418226 0.278928 1.37127
v -0.418226 0.278928 1.37127
v 0.418226 0.278928 0.002385
v 0.418226 -0.278928 0.002385
v 0.418226 -0.278928 0.156571
v 0.418226 0.278928 0.156571
v -0.418226 -0.278928 0.156571
v 0.418226 -0.278928 0.156571
v 0.418226 -0.278928 0.002385
v -0.418226 -0.278928 0.002385
v -0.418226 0.278928 0.156571
v 0.418226 0.278928 0.156571
v 0.418226 -0.278928 0.156571
v -0.418226 -0.278928 0.156571
v -0.418226 -0.278928 0.002385
v 0.418226 -0.278928 0.002385
v 0.418226 0.278928 0.002385
v -0.418226 0.278928 0.002385
v -0.418226 0.278928 0.002385
v 0.418226 0.278928 0.002385
v 0.418226 0.278928 0.156571
v -0.418226 0.278928 0.156571
v -0.418226 -0.278928 0.156571
v -0.418226 -0.278928 0.002385
v -0.418226 0.278928 0.002385
v -0.418226 0.278928 0.156571
vt 0.44104 0.25
vt 0.44104 0.749999
vt 0.44104 0.499999
vt 0.558962 0.749999
vt 0.558962 0.499999
vt 0.558962 0.25
vt 0.44104 0.25
vt 0.44104 0.5
vt 0.44104 0.75
vt 0.558962 0.75
vt 0.558962 0.5
vt 0.558962 0.25
vt 0.75 0.25
vt 0.25 0.25
vt 0.25 0.25
vt 0.75 0.25
vt 0.75 0.5
vt 0.25 0.25
vt 0.75 0.25
vt 0.25 0.5
vt 0.75 0.75
vt 0.25 0.75
vt 0.75 0.5
vt 0.25 0.75
vt 0.75 0.75
vt 0.25 0.5
vt 0.75 0.25
vt 0.25 0.25
vt 0.75 0.75
vt 0.25 0.75
vt 0.25 0.75
vt 0.75 0.75
vt 0.75 0.693268
vt 0.75 0.749423
vt 0.25 0.749423
vt 0.25 0.693268
vt 0.75 0.693268
vt 0.25 0.693268
vt 0.25 0.749423
vt 0.75 0.749423
vt 0.25 0.749423
vt 0.75 0.749423
vt 0.75 0.693268
vt 0.25 0.693268
vt 0.75 0.749423
vt 0.75 0.749423
vt 0.25 0.749423
vt 0.25 0.749423
vt 0.25 0.693268
vt 0.25 0.693268
vt 0.75 0.693268
vt 0.75 0.693268
vt 0.25 0.693268
vt 0.75 0.693268
vt 0.75 0.749423
vt 0.25 0.749423
vt 0.75 0.250868
vt 0.25 0.250868
vt 0.25 0.307024
vt 0.75 0.307024
vt 0.25 0.307024
vt 0.75 0.307024
vt 0.75 0.250868
vt 0.25 0.250868
vt 0.75 0.307024
vt 0.75 0.307024
vt 0.25 0.307024
vt 0.25 0.307024
vt 0.25 0.250868
vt 0.25 0.250868
vt 0.75 0.250868
vt 0.75 0.250868
vt 0.25 0.250868
vt 0.75 0.250868
vt 0.75 0.307024
vt 0.25 0.307024
vt 0.25 0.307024
vt 0.25 0.250868
vt 0.75 0.250868
vt 0.75 0.307024
vn 0 1 0
vn 0 1 0
vn 0 1 0
vn 0 1 0
vn 0 1 0
vn 0 1 0
vn 0 -1 0
vn 0 -1 0
vn 0 -1 0
vn 0 -1 0
vn 0 -1 0
vn 0 -1 0
vn 0 0 -1
vn 0 0 -1
vn 0 0 -1
vn 0 0 -1
vn -1 0 0
vn -1 0 0
vn -1 0 0
vn -1 0 0
vn -1 0 0
vn -1 0 0
vn 1 0 0
vn 1 0 0
vn 1 0 0
vn 1 0 0
vn 1 0 0
vn 1 0 0
vn 0 0 1
vn 0 0 1
vn 0 0 1
vn 0 0 1
vn -1 0 0
vn -1 0 0
vn -1 0 0
vn -1 0 0
vn 1 0 0
vn 1 0 0
vn 1 0 0
vn 1 0 0
vn 0 -1 0
vn 0 -1 0
vn 0 -1 0
vn 0 -1 0
vn 0 0 1
vn 0 0 1
vn 0 0 1
vn 0 0 1
vn 0 0 -1
vn 0 0 -1
vn 0 0 -1
vn 0 0 -1
vn 0 1 0
vn 0 1 0
vn 0 1 0
vn 0 1 0
vn 1 0 0
vn 1 0 0
vn 1 0 0
vn 1 0 0
vn 0 -1 0
vn 0 -1 0
vn 0 -1 0
vn 0 -1 0
vn 0 0 1
vn 0 0 1
vn 0 0 1
vn 0 0 1
vn 0 0 -1
vn 0 0 -1
vn 0 0 -1
vn 0 0 -1
vn 0 1 0
vn 0 1 0
vn 0 1 0
vn 0 1 0
vn -1 0 0
vn -1 0 0
vn -1 0 0
vn -1 0 0
g LetterSign_I_0
f 3/3/3 2/2/2 1/1/1
f 2/2/2 4/4/4 1/1/1
f 4/4/4 5/5/5 1/1/1
f 5/5/5 6/6/6 1/1/1
f 9/9/9 8/8/8 7/7/7
f 10/10/10 9/9/9 7/7/7
f 11/11/11 10/10/10 7/7/7
f 12/12/12 11/11/11 7/7/7
f 15/15/15 14/14/14 13/13/13
f 16/16/16 15/15/15 13/13/13
f 19/19/19 18/18/18 17/17/17
f 18/18/18 20/20/20 17/17/17
f 17/17/17 20/20/20 21/21/21
f 20/20/20 22/22/22 21/21/21
f 25/25/25 24/24/24 23/23/23
f 24/24/24 26/26/26 23/23/23
f 23/23/23 26/26/26 27/27/27
f 26/26/26 28/28/28 27/27/27
f 31/31/31 30/30/30 29/29/29
f 32/32/32 31/31/31 29/29/29
f 35/35/35 34/34/34 33/33/33
f 36/36/36 35/35/35 33/33/33
f 39/39/39 38/38/38 37/37/37
f 40/40/40 39/39/39 37/37/37
f 43/43/43 42/42/42 41/41/41
f 44/44/44 43/43/43 41/41/41
f 47/47/47 46/46/46 45/45/45
f 48/48/48 47/47/47 45/45/45
f 51/51/51 50/50/50 49/49/49
f 52/52/52 51/51/51 49/49/49
f 55/55/55 54/54/54 53/53/53
f 56/56/56 55/55/55 53/53/53
f 59/59/59 58/58/58 57/57/57
f 60/60/60 59/59/59 57/57/57
f 63/63/63 62/62/62 61/61/61
f 64/64/64 63/63/63 61/61/61
f 67/67/67 66/66/66 65/65/65
f 68/68/68 67/67/67 65/65/65
f 71/71/71 70/70/70 69/69/69
f 72/72/72 71/71/71 69/69/69
f 75/75/75 74/74/74 73/73/73
f 76/76/76 75/75/75 73/73/73
f 79/79/79 78/78/78 77/77/77
f 80/80/80 79/79/79 77/77/77
