g LimeLeaves_FinalStageImpostor
v 2.693525 -1.27102 0
v 1.27707 -2.503096 0
v -0.0377901 -2.788772 0
v -2.693525 -1.950702 0
v -2.693525 1.00175 0
v -1.542678 2.240354 0
v -0.01859451 2.59302 0
v 2.693525 1.836513 0
vt 0 0.2827168
vt 0.2629371 0.0540061
vt 0.507015 0.0009759068
vt 1 0.1565471
vt 1 0.704612
vt 0.7863678 0.9345345
vt 0.5034517 1
vt 0 0.8595693
vn 0 0 -1
vn 0 0 -1
vn 0 0 -1
vn 0 0 -1
vn 0 0 -1
vn 0 0 -1
vn 0 0 -1
vn 0 0 -1
g LimeLeaves_FinalStageImpostor_0
f 4/4/4 6/6/6 8/8/8
f 8/8/8 2/2/2 4/4/4
f 6/6/6 7/7/7 8/8/8
f 4/4/4 5/5/5 6/6/6
f 2/2/2 3/3/3 4/4/4
f 8/8/8 1/1/1 2/2/2
