g LizardTongue
v -0.085476 6.346165 0.003379
v -0.04309 6.120115 -0.051339
v -0.064297 6.346165 -0.060158
v -0.059247 6.120115 -0.00287
v -0.034011 5.556458 -0.021618
v -0.04309 6.120115 0.045598
v -0.01956 5.556458 -0.064972
v -0.012055 4.810703 -0.086657
v -0.026461 4.810703 -0.043441
v -0.012055 4.810703 -0.000225
v -0.01956 5.556458 0.021736
v 0.023794 5.556458 0.036187
v -0.053287 4.038357 -0.058916
v -0.012055 4.810703 -0.086657
v -0.064297 6.346165 0.066916
v -0.00076 6.346165 0.088095
v -0.079707 6.415257 0.082326
v 0.005378 6.120114 0.061755
v 0.053847 6.120115 0.045598
v -0.106023 6.415257 0.003379
v -0.079707 6.415257 -0.075568
v -0.064297 6.346165 -0.060158
v -0.00076 6.346165 -0.081337
v -0.114208 6.508041 0.003379
v -0.04309 6.120115 -0.051339
v 0.005378 6.120114 -0.067495
v 0.023794 5.556458 -0.079423
v -0.01956 5.556458 -0.064972
v 0.053847 6.120115 -0.051339
v 0.062777 6.346165 -0.060158
v 0.078186 6.415257 -0.075568
v 0.083956 6.346165 0.003379
v -0.00076 6.415257 -0.101883
v -0.00076 6.508041 -0.110069
v 0.067148 5.556458 -0.064972
v 0.081599 5.556458 -0.021618
v 0.070003 6.120114 -0.00287
v 0.053847 6.120115 -0.051339
v 0.062777 6.346165 -0.060158
v 0.074376 4.810703 -0.086657
v 0.03116 4.810703 -0.101062
v 0.00415 4.038357 -0.116353
v -0.038927 4.038357 -0.101994
v -0.063344 3.253762 -0.108007
v -0.053287 4.038357 -0.058916
v -0.077657 3.253763 -0.065067
v -0.062741 2.471262 -0.058916
v 0.067148 5.556458 0.021736
v 0.074376 4.810703 -0.000225
v 0.088782 4.810703 -0.043441
v 0.03116 4.810703 0.01418
v 0.00415 4.038357 -0.001479
v 0.047228 4.038357 -0.015839
v 0.022536 3.253762 -0.022127
v -0.038927 4.038357 -0.015839
v -0.063344 3.253763 -0.022127
v -0.077657 3.253763 -0.065067
v -0.062741 2.471262 -0.058916
v 0.061588 4.038357 -0.058916
v 0.074376 4.810703 -0.000225
v 0.088782 4.810703 -0.043441
v 0.036849 3.253763 -0.065067
v 0.051398 2.471262 -0.058916
v -0.020404 3.253763 -0.007814
v -0.005671 2.471262 -0.001847
v -0.048473 2.471262 -0.016115
v -0.026236 1.668297 -0.000777
v -0.040458 1.668297 -0.043441
v -0.042729 0.82231 -0.021618
v 0.03713 2.471262 -0.016115
v 0.059091 1.668297 -0.000777
v 0.073313 1.668297 -0.043441
v 0.059091 1.668297 -0.000777
v 0.016428 1.668297 0.013444
v 0.013972 0.82231 0.035083
v -0.028554 0.822311 0.020908
v -0.043148 -0.045187 0.045767
v -0.057278 -0.045187 0.003379
v -0.00076 -0.045187 0.059896
v 0.041627 -0.045187 0.045767
v 0.056498 0.82231 0.020908
v 0.070673 0.82231 -0.021618
v 0.073313 1.668297 -0.043441
v 0.055757 -0.045187 0.003379
v 0.059091 1.668297 -0.086105
v 0.041627 -0.045187 -0.039009
v 0.056498 0.822311 -0.064144
v -0.114208 6.508041 0.003379
v -0.106023 6.415257 0.003379
v -0.085846 6.508041 -0.081707
v -0.064232 6.56617 -0.060093
v -0.00076 6.586514 -0.082709
v 0.062712 6.56617 -0.060093
v 0.084325 6.508041 -0.081707
v 0.112687 6.508041 0.003379
v 0.104502 6.415257 0.003379
v 0.104502 6.415257 0.003379
v 0.078186 6.415257 0.082326
v 0.112687 6.508041 0.003379
v 0.062712 6.56617 -0.060093
v 0.062777 6.346165 0.066916
v -0.00076 6.415257 0.108641
v -0.00076 6.508041 0.116827
v 0.084325 6.508041 0.088465
v 0.062712 6.56617 0.066851
v 0.085328 6.586514 0.003379
v -0.00076 6.612671 0.003379
v -0.00076 6.586514 -0.082709
v -0.064232 6.56617 -0.060093
v -0.085846 6.508041 0.088465
v -0.00076 6.586514 0.089467
v -0.064232 6.56617 0.066851
v -0.086849 6.586514 0.003379
v 0.061588 4.038357 -0.058916
v 0.088782 4.810703 -0.043441
v 0.047228 4.038357 -0.101994
v 0.022536 3.253763 -0.108007
v 0.036849 3.253763 -0.065067
v 0.051398 2.471262 -0.058916
v -0.020404 3.253763 -0.12232
v -0.005671 2.471262 -0.115985
v 0.03713 2.471262 -0.101718
v 0.059091 1.668297 -0.086105
v 0.073313 1.668297 -0.043441
v -0.048473 2.471262 -0.101718
v -0.026236 1.668297 -0.086105
v -0.040458 1.668297 -0.043441
v -0.042729 0.82231 -0.021618
v 0.016428 1.668297 -0.100326
v 0.013972 0.82231 -0.078319
v 0.056498 0.822311 -0.064144
v 0.041627 -0.045187 -0.039009
v -0.00076 -0.045187 -0.053138
v -0.043148 -0.045187 -0.039009
v -0.057278 -0.045187 0.003379
v -0.028554 0.82231 -0.064144
v 0.081599 5.556458 -0.021618
v 0.074376 4.810703 -0.086657
vt 0.776178 0.526707
vt 0.777794 0.511986
vt 0.776178 0.526707
vt 0.777794 0.511986
vt 0.778342 0.477027
vt 0.779093 0.511986
vt 0.778342 0.477027
vt 0.778357 0.431951
vt 0.778357 0.431951
vt 0.779515 0.431951
vt 0.779504 0.477027
vt 0.78299 0.477027
vt 0.778372 0.386874
vt 0.778357 0.431951
vt 0.777881 0.526707
vt 0.78299 0.526707
vt 0.776642 0.532263
vt 0.78299 0.511986
vt 0.786887 0.511986
vt 0.774526 0.532263
vt 0.774526 0.532263
vt 0.776178 0.526707
vt 0.78299 0.526707
vt 0.773868 0.539723
vt 0.777794 0.511986
vt 0.78299 0.511986
vt 0.78299 0.477027
vt 0.778342 0.477027
vt 0.788186 0.511986
vt 0.789802 0.526707
vt 0.791454 0.532263
vt 0.789802 0.526707
vt 0.78299 0.532263
vt 0.78299 0.539723
vt 0.787638 0.477027
vt 0.787638 0.477027
vt 0.788186 0.511986
vt 0.788186 0.511986
vt 0.789802 0.526707
vt 0.787627 0.44322
vt 0.78299 0.431951
vt 0.78299 0.386874
vt 0.778372 0.386874
vt 0.778386 0.341798
vt 0.778372 0.386874
vt 0.778386 0.341798
vt 0.778401 0.296721
vt 0.786476 0.477027
vt 0.78762 0.420682
vt 0.787623 0.431951
vt 0.78299 0.431951
vt 0.78299 0.386874
vt 0.787608 0.386874
vt 0.787594 0.341798
vt 0.779526 0.386874
vt 0.779537 0.341798
vt 0.778386 0.341798
vt 0.778401 0.296721
vt 0.787608 0.386874
vt 0.787623 0.431951
vt 0.787623 0.431951
vt 0.787594 0.341798
vt 0.787579 0.296721
vt 0.78299 0.341798
vt 0.78299 0.296721
vt 0.779548 0.296721
vt 0.77956 0.251645
vt 0.778416 0.251645
vt 0.778431 0.206568
vt 0.787579 0.296721
vt 0.787564 0.251645
vt 0.787564 0.251645
vt 0.787568 0.262914
vt 0.78299 0.251645
vt 0.78299 0.206568
vt 0.779571 0.206568
vt 0.779582 0.161492
vt 0.778446 0.161492
vt 0.78299 0.161492
vt 0.786398 0.161492
vt 0.786409 0.206568
vt 0.787549 0.206568
vt 0.787564 0.251645
vt 0.787534 0.161492
vt 0.787564 0.251645
vt 0.787534 0.161492
vt 0.787549 0.206568
vt 0.773868 0.539723
vt 0.774526 0.532263
vt 0.773868 0.539723
vt 0.773707 0.548136
vt 0.78299 0.548136
vt 0.792273 0.548136
vt 0.792112 0.539723
vt 0.792112 0.539723
vt 0.791454 0.532263
vt 0.791454 0.532263
vt 0.789338 0.532263
vt 0.792112 0.539723
vt 0.789912 0.546033
vt 0.788099 0.526707
vt 0.78299 0.532263
vt 0.78299 0.539723
vt 0.789832 0.539723
vt 0.788094 0.544397
vt 0.789912 0.546033
vt 0.78299 0.548136
vt 0.78299 0.548136
vt 0.776068 0.546033
vt 0.776149 0.539723
vt 0.78299 0.546033
vt 0.777886 0.544397
vt 0.776068 0.546033
vt 0.787608 0.386874
vt 0.787623 0.431951
vt 0.786454 0.386874
vt 0.786443 0.341798
vt 0.787594 0.341798
vt 0.787579 0.296721
vt 0.78299 0.341798
vt 0.78299 0.296721
vt 0.786432 0.296721
vt 0.78756 0.240376
vt 0.787564 0.251645
vt 0.778401 0.296721
vt 0.778416 0.251645
vt 0.778416 0.251645
vt 0.778431 0.206568
vt 0.78299 0.251645
vt 0.78299 0.206568
vt 0.787549 0.206568
vt 0.787534 0.161492
vt 0.78299 0.161492
vt 0.778446 0.161492
vt 0.778446 0.161492
vt 0.778431 0.206568
vt 0.787638 0.477027
vt 0.787623 0.431951
vn -0.98587 -0.1674664 0.003928351
vn -0.7102507 -0.03997124 -0.7028131
vn -0.7035648 -0.1591786 -0.692574
vn -0.9976392 -0.06862263 0.002663485
vn -0.9996716 -0.0256234 0.0002920714
vn -0.7045633 -0.08420324 0.7046278
vn -0.7060273 0.002093359 -0.7081815
vn -0.7030453 0.02641941 -0.7106541
vn -0.9999182 0.01275897 -0.0008461548
vn -0.7044711 -0.008749686 0.7096787
vn -0.7049894 -0.04214674 0.7079645
vn 0.001817217 -0.03651249 0.9993316
vn -0.9994583 0.03288965 -0.001209059
vn -0.7030453 0.02641941 -0.7106541
vn -0.6948021 -0.185369 0.6949017
vn -0.003858457 -0.1677944 0.9858144
vn -0.6965612 -0.1720474 0.6965646
vn -0.002616434 -0.06917438 0.9976012
vn 0.7027909 -0.04076377 0.7102275
vn -0.986408 -0.1643143 0
vn -0.6965612 -0.1720474 -0.6965645
vn -0.7035648 -0.1591786 -0.692574
vn -0.003867211 -0.1296433 -0.9915531
vn -0.994323 0.1064038 0
vn -0.7102507 -0.03997124 -0.7028131
vn -0.002603991 -0.006144208 -0.9999777
vn 0.00181876 0.02561699 -0.9996701
vn -0.7060273 0.002093359 -0.7081815
vn 0.7071331 0.004329957 -0.7070672
vn 0.7009346 -0.1323661 -0.7008352
vn 0.6965635 -0.1720445 -0.696563
vn 0.9915076 -0.1299884 0.003937085
vn 0 -0.1643144 -0.986408
vn 0 0.1064028 -0.9943231
vn 0.7082745 0.03018015 -0.7052918
vn 0.9998951 0.01448529 0.0002911663
vn 0.999974 -0.006708201 0.002651008
vn 0.7071331 0.004329957 -0.7070672
vn 0.7009346 -0.1323661 -0.7008352
vn 0.7097079 0.007757605 -0.7044532
vn 0.00455445 0.02418835 -0.9996971
vn -0.0003277273 0.01366851 -0.9999065
vn -0.7060993 0.0329045 -0.707348
vn -0.7095629 0.004223014 -0.7046294
vn -0.9994583 0.03288965 -0.001209059
vn -0.9999806 0.006042766 -0.001587899
vn -0.9997241 -0.02346054 -0.001179491
vn 0.7081216 -0.01349212 0.7059616
vn 0.7106748 -0.02656304 0.703019
vn 0.9999146 -0.01304312 -0.0008539276
vn 0.004546718 -0.02494934 0.9996784
vn -0.0003268449 -0.01412903 0.9999001
vn 0.7073261 -0.03355823 0.7060904
vn 0.7046574 -0.004717991 0.709532
vn -0.7081274 0.01345582 0.7059564
vn -0.7117856 0.004246677 0.702384
vn -0.9999806 0.006042766 -0.001587899
vn -0.9997241 -0.02346054 -0.001179491
vn 0.9994441 -0.03331836 -0.001208126
vn 0.7106748 -0.02656304 0.703019
vn 0.9999146 -0.01304312 -0.0008539276
vn 0.9999772 -0.006575225 -0.001571963
vn 0.9997353 0.02297396 -0.001177424
vn -0.005039653 -0.0001847367 0.9999874
vn -0.0009257456 0.01337113 0.9999102
vn -0.7085713 -0.007138304 0.7056031
vn -0.7055079 0.007452248 0.708663
vn -0.9999249 -0.01222977 -0.0007655806
vn -0.999952 0.009799985 -0.0003628586
vn 0.707048 0.02586087 0.7066925
vn 0.7095665 0.02407359 0.704227
vn 0.9999319 0.01164402 -0.0007701018
vn 0.7095665 0.02407359 0.704227
vn 0.002997767 0.02247343 0.9997429
vn 0.001437391 0.02707705 0.9996324
vn -0.7061013 0.02623924 0.7076246
vn -0.7050375 0.03216229 0.7084405
vn -0.9998397 0.01693559 0.005817279
vn -0.003435438 0.02864932 0.9995837
vn 0.70052 0.008440237 0.7135829
vn 0.7083311 0.01189957 0.70578
vn 0.9999475 -0.01023774 -0.0003640006
vn 0.9999319 0.01164402 -0.0007701018
vn 0.9998384 -0.01702561 0.005777334
vn 0.7086691 -0.007643966 -0.7054996
vn 0.7083967 -0.0325718 -0.7050626
vn 0.7076185 -0.0265502 -0.7060958
vn -0.994323 0.1064038 0
vn -0.986408 -0.1643143 0
vn -0.7033647 0.1027225 -0.7033678
vn -0.5604443 0.609754 -0.5604483
vn 0 0.7292116 -0.6842882
vn 0.56045 0.6097512 -0.5604457
vn 0.7033672 0.1027211 -0.7033655
vn 0.9943234 0.1064006 0
vn 0.9864089 -0.1643092 0
vn 0.9864089 -0.1643092 0
vn 0.6965635 -0.1720445 0.696563
vn 0.9943234 0.1064006 0
vn 0.56045 0.6097512 -0.5604457
vn 0.69252 -0.1596506 0.7035111
vn 0 -0.1643144 0.986408
vn 0 0.1064029 0.9943231
vn 0.7033672 0.1027211 0.7033655
vn 0.56045 0.6097512 0.5604457
vn 0.6842917 0.7292084 0
vn 0 1 0
vn 0 0.7292116 -0.6842882
vn -0.5604443 0.609754 -0.5604483
vn -0.7033647 0.1027225 0.7033678
vn 0 0.7292116 0.6842882
vn -0.5604442 0.6097539 0.5604483
vn -0.6842904 0.7292096 0
vn 0.9994441 -0.03331836 -0.001208126
vn 0.9999146 -0.01304312 -0.0008539276
vn 0.7059473 -0.0137251 -0.7081314
vn 0.7024122 -0.004657836 -0.7117551
vn 0.9999772 -0.006575225 -0.001571963
vn 0.9997353 0.02297396 -0.001177424
vn -0.005055421 -0.0001583498 -0.9999872
vn -0.0009277674 -0.01388775 -0.9999032
vn 0.7056013 0.006427513 -0.70858
vn 0.7086691 -0.007643966 -0.7054996
vn 0.9999319 0.01164402 -0.0007701018
vn -0.7066801 -0.02624066 -0.7070464
vn -0.7042221 -0.02477523 -0.7095473
vn -0.9999249 -0.01222977 -0.0007655806
vn -0.999952 0.009799985 -0.0003628586
vn 0.003002099 -0.02274266 -0.9997368
vn 0.001438459 -0.02754647 -0.9996195
vn 0.7076185 -0.0265502 -0.7060958
vn 0.7083967 -0.0325718 -0.7050626
vn -0.003395543 -0.02895727 -0.9995748
vn -0.7135497 -0.00829357 -0.7005554
vn -0.9998397 0.01693559 0.005817279
vn -0.705774 -0.01256825 -0.7083256
vn 0.9998951 0.01448529 0.0002911663
vn 0.7097079 0.007757605 -0.7044532
g LizardTongue_0
f 3/3/3 2/2/2 1/1/1
f 2/2/2 4/4/4 1/1/1
f 4/4/4 2/2/2 5/5/5
f 4/4/4 6/6/6 1/1/1
f 6/6/6 4/4/4 5/5/5
f 2/2/2 7/7/7 5/5/5
f 7/7/7 8/8/8 5/5/5
f 8/8/8 9/9/9 5/5/5
f 9/9/9 10/10/10 5/5/5
f 11/11/11 6/6/6 5/5/5
f 10/10/10 11/11/11 5/5/5
f 6/6/6 11/11/11 12/12/12
f 11/11/11 10/10/10 12/12/12
f 10/10/10 9/9/9 13/13/13
f 9/9/9 14/14/14 13/13/13
f 6/6/6 15/15/15 1/1/1
f 15/15/15 6/6/6 16/16/16
f 15/15/15 17/17/17 1/1/1
f 17/17/17 15/15/15 16/16/16
f 18/18/18 6/6/6 12/12/12
f 6/6/6 18/18/18 16/16/16
f 19/19/19 18/18/18 12/12/12
f 18/18/18 19/19/19 16/16/16
f 17/17/17 20/20/20 1/1/1
f 20/20/20 21/21/21 1/1/1
f 21/21/21 22/22/22 1/1/1
f 22/22/22 21/21/21 23/23/23
f 20/20/20 17/17/17 24/24/24
f 25/25/25 22/22/22 23/23/23
f 26/26/26 25/25/25 23/23/23
f 25/25/25 26/26/26 27/27/27
f 28/28/28 25/25/25 27/27/27
f 14/14/14 28/28/28 27/27/27
f 29/29/29 26/26/26 23/23/23
f 26/26/26 29/29/29 27/27/27
f 30/30/30 29/29/29 23/23/23
f 31/31/31 30/30/30 23/23/23
f 30/30/30 31/31/31 32/32/32
f 21/21/21 33/33/33 23/23/23
f 33/33/33 31/31/31 23/23/23
f 33/33/33 21/21/21 34/34/34
f 31/31/31 33/33/33 34/34/34
f 29/29/29 35/35/35 27/27/27
f 35/35/35 29/29/29 36/36/36
f 29/29/29 37/37/37 36/36/36
f 37/37/37 38/38/38 32/32/32
f 38/38/38 39/39/39 32/32/32
f 35/35/35 40/40/40 27/27/27
f 37/37/37 19/19/19 36/36/36
f 19/19/19 37/37/37 32/32/32
f 40/40/40 41/41/41 27/27/27
f 41/41/41 40/40/40 42/42/42
f 41/41/41 14/14/14 27/27/27
f 14/14/14 41/41/41 42/42/42
f 43/43/43 14/14/14 42/42/42
f 44/44/44 43/43/43 42/42/42
f 14/14/14 43/43/43 13/13/13
f 43/43/43 44/44/44 45/45/45
f 44/44/44 46/46/46 45/45/45
f 46/46/46 44/44/44 47/47/47
f 19/19/19 48/48/48 36/36/36
f 48/48/48 49/49/49 36/36/36
f 49/49/49 50/50/50 36/36/36
f 48/48/48 19/19/19 12/12/12
f 49/49/49 48/48/48 12/12/12
f 51/51/51 49/49/49 12/12/12
f 49/49/49 51/51/51 52/52/52
f 10/10/10 51/51/51 12/12/12
f 51/51/51 10/10/10 52/52/52
f 53/53/53 49/49/49 52/52/52
f 54/54/54 53/53/53 52/52/52
f 10/10/10 55/55/55 52/52/52
f 55/55/55 56/56/56 52/52/52
f 55/55/55 10/10/10 13/13/13
f 56/56/56 55/55/55 13/13/13
f 57/57/57 56/56/56 13/13/13
f 56/56/56 57/57/57 58/58/58
f 53/53/53 54/54/54 59/59/59
f 60/60/60 53/53/53 59/59/59
f 61/61/61 60/60/60 59/59/59
f 54/54/54 62/62/62 59/59/59
f 62/62/62 54/54/54 63/63/63
f 56/56/56 64/64/64 52/52/52
f 64/64/64 54/54/54 52/52/52
f 64/64/64 56/56/56 65/65/65
f 54/54/54 64/64/64 65/65/65
f 66/66/66 56/56/56 58/58/58
f 56/56/56 66/66/66 65/65/65
f 67/67/67 66/66/66 58/58/58
f 66/66/66 67/67/67 65/65/65
f 68/68/68 67/67/67 58/58/58
f 67/67/67 68/68/68 69/69/69
f 54/54/54 70/70/70 63/63/63
f 70/70/70 54/54/54 65/65/65
f 70/70/70 71/71/71 63/63/63
f 71/71/71 72/72/72 63/63/63
f 73/73/73 70/70/70 65/65/65
f 67/67/67 74/74/74 65/65/65
f 74/74/74 73/73/73 65/65/65
f 74/74/74 67/67/67 75/75/75
f 73/73/73 74/74/74 75/75/75
f 76/76/76 67/67/67 69/69/69
f 67/67/67 76/76/76 75/75/75
f 77/77/77 76/76/76 69/69/69
f 76/76/76 77/77/77 75/75/75
f 78/78/78 77/77/77 69/69/69
f 77/77/77 79/79/79 75/75/75
f 79/79/79 80/80/80 75/75/75
f 81/81/81 73/73/73 75/75/75
f 80/80/80 81/81/81 75/75/75
f 73/73/73 81/81/81 82/82/82
f 81/81/81 80/80/80 82/82/82
f 83/83/83 73/73/73 82/82/82
f 80/80/80 84/84/84 82/82/82
f 85/85/85 83/83/83 82/82/82
f 84/84/84 86/86/86 82/82/82
f 87/87/87 85/85/85 82/82/82
f 86/86/86 87/87/87 82/82/82
f 21/21/21 89/89/89 88/88/88
f 90/90/90 21/21/21 88/88/88
f 21/21/21 90/90/90 34/34/34
f 90/90/90 91/91/91 34/34/34
f 91/91/91 92/92/92 34/34/34
f 92/92/92 93/93/93 34/34/34
f 93/93/93 94/94/94 34/34/34
f 94/94/94 31/31/31 34/34/34
f 31/31/31 94/94/94 95/95/95
f 96/96/96 31/31/31 95/95/95
f 31/31/31 97/97/97 32/32/32
f 97/97/97 98/98/98 32/32/32
f 98/98/98 97/97/97 99/99/99
f 94/94/94 100/100/100 99/99/99
f 98/98/98 101/101/101 32/32/32
f 101/101/101 19/19/19 32/32/32
f 19/19/19 101/101/101 16/16/16
f 101/101/101 98/98/98 16/16/16
f 98/98/98 102/102/102 16/16/16
f 102/102/102 98/98/98 103/103/103
f 102/102/102 17/17/17 16/16/16
f 17/17/17 102/102/102 103/103/103
f 104/104/104 98/98/98 99/99/99
f 98/98/98 104/104/104 103/103/103
f 105/105/105 104/104/104 99/99/99
f 104/104/104 105/105/105 103/103/103
f 100/100/100 106/106/106 99/99/99
f 106/106/106 105/105/105 99/99/99
f 106/106/106 100/100/100 107/107/107
f 105/105/105 106/106/106 107/107/107
f 100/100/100 108/108/108 107/107/107
f 108/108/108 109/109/109 107/107/107
f 110/110/110 17/17/17 103/103/103
f 17/17/17 110/110/110 24/24/24
f 109/109/109 90/90/90 24/24/24
f 105/105/105 111/111/111 103/103/103
f 111/111/111 105/105/105 107/107/107
f 112/112/112 110/110/110 103/103/103
f 111/111/111 112/112/112 103/103/103
f 110/110/110 112/112/112 24/24/24
f 112/112/112 111/111/111 107/107/107
f 109/109/109 113/113/113 107/107/107
f 113/113/113 109/109/109 24/24/24
f 113/113/113 112/112/112 107/107/107
f 112/112/112 113/113/113 24/24/24
f 40/40/40 115/115/115 114/114/114
f 116/116/116 40/40/40 114/114/114
f 117/117/117 116/116/116 114/114/114
f 40/40/40 116/116/116 42/42/42
f 116/116/116 117/117/117 42/42/42
f 118/118/118 117/117/117 114/114/114
f 117/117/117 118/118/118 119/119/119
f 117/117/117 120/120/120 42/42/42
f 120/120/120 117/117/117 121/121/121
f 120/120/120 44/44/44 42/42/42
f 44/44/44 120/120/120 121/121/121
f 122/122/122 117/117/117 119/119/119
f 117/117/117 122/122/122 121/121/121
f 123/123/123 122/122/122 119/119/119
f 122/122/122 123/123/123 121/121/121
f 124/124/124 123/123/123 119/119/119
f 125/125/125 44/44/44 121/121/121
f 126/126/126 125/125/125 121/121/121
f 44/44/44 125/125/125 47/47/47
f 125/125/125 126/126/126 47/47/47
f 126/126/126 127/127/127 47/47/47
f 127/127/127 126/126/126 128/128/128
f 123/123/123 129/129/129 121/121/121
f 129/129/129 126/126/126 121/121/121
f 129/129/129 123/123/123 130/130/130
f 126/126/126 129/129/129 130/130/130
f 123/123/123 131/131/131 130/130/130
f 131/131/131 132/132/132 130/130/130
f 132/132/132 133/133/133 130/130/130
f 133/133/133 134/134/134 130/130/130
f 134/134/134 135/135/135 128/128/128
f 136/136/136 126/126/126 130/130/130
f 126/126/126 136/136/136 128/128/128
f 134/134/134 136/136/136 130/130/130
f 136/136/136 134/134/134 128/128/128
f 138/138/138 35/35/35 137/137/137
f 61/61/61 138/138/138 137/137/137
