g MailBox_Flag
v -0.001783 -0.027041 0.427221
v -0.001783 0.034454 0.648084
v -0.001783 -0.027041 0.648084
v -0.001783 0.034454 0.427221
v -0.001783 0.289767 0.427221
v -0.001783 0.289767 0.648084
v 0.068899 0.062548 -0.071515
v -0.040707 0.07432 -0.079061
v -0.040707 -0.07432 -0.079061
v 0.068899 -0.062548 -0.071515
v 0.09371 0.043184 -0.045121
v 0.09371 -0.043184 -0.045121
v 0.09371 0.043184 0.045121
v 0.068899 0.062548 -0.071515
v 0.068899 0.062548 0.071515
v -0.040707 0.07432 -0.079061
v -0.040707 0.07432 0.079061
v 0.09371 -0.043184 0.045121
v 0.068899 0.062548 0.071515
v 0.068899 -0.062548 0.071515
v 0.068899 -0.062548 0.071515
v -0.040707 0.07432 0.079061
v -0.040707 -0.07432 0.079061
v 0.068899 -0.062548 -0.071515
v -0.040707 -0.07432 0.079061
v -0.040707 -0.07432 -0.079061
v -0.001783 -0.027041 -0.02424
v -0.001783 0.034454 -0.02424
v -0.001783 0.034454 0.427221
v -0.001783 -0.027041 0.427221
v 0.065809 -0.027041 0.427221
v 0.065809 -0.027041 0.648084
v 0.065809 0.034454 0.648084
v 0.065809 0.034454 0.427221
v 0.065809 0.289767 0.427221
v 0.065809 0.289767 0.648084
v 0.065809 -0.027041 -0.02424
v 0.065809 -0.027041 0.427221
v 0.065809 0.034454 0.427221
v 0.065809 0.034454 -0.02424
v -0.001783 0.289767 0.648084
v 0.065809 0.289767 0.648084
v 0.065809 0.034454 0.648084
v -0.001783 0.034454 0.648084
v 0.065809 -0.027041 0.648084
v -0.001783 -0.027041 0.648084
v -0.001783 0.034454 -0.02424
v 0.065809 0.034454 -0.02424
v 0.065809 0.034454 0.427221
v -0.001783 0.034454 0.427221
v -0.001783 -0.027041 -0.02424
v 0.065809 -0.027041 -0.02424
v 0.065809 0.034454 -0.02424
v -0.001783 0.034454 -0.02424
v -0.001783 0.034454 0.427221
v 0.065809 0.034454 0.427221
v 0.065809 0.289767 0.427221
v -0.001783 0.289767 0.427221
v -0.001783 -0.027041 0.427221
v 0.065809 -0.027041 0.427221
v 0.065809 -0.027041 -0.02424
v -0.001783 -0.027041 -0.02424
v -0.001783 0.289767 0.427221
v 0.065809 0.289767 0.427221
v 0.065809 0.289767 0.648084
v -0.001783 0.289767 0.648084
v -0.001783 -0.027041 0.648084
v 0.065809 -0.027041 0.648084
v 0.065809 -0.027041 0.427221
v -0.001783 -0.027041 0.427221
vt 0.024535 0.621321
vt 0.107068 0.917737
vt 0.024535 0.917737
vt 0.107068 0.621321
vt 0.449719 0.621321
vt 0.449719 0.917737
vt 0.762344 0.670542
vt 0.767935 0.666958
vt 0.697342 0.666958
vt 0.702933 0.670542
vt 0.753148 0.683077
vt 0.712129 0.683077
vt 0.753148 0.725935
vt 0.762344 0.670542
vt 0.762344 0.738471
vt 0.767935 0.666958
vt 0.767935 0.742054
vt 0.712129 0.725935
vt 0.762344 0.738471
vt 0.702933 0.738471
vt 0.702933 0.738471
vt 0.767935 0.742054
vt 0.697342 0.742054
vt 0.702933 0.670542
vt 0.697342 0.742054
vt 0.697342 0.666958
vt 0.719795 0.692994
vt 0.749001 0.692994
vt 0.749001 0.907405
vt 0.719795 0.907405
vt 0.024535 0.621321
vt 0.024535 0.917737
vt 0.107068 0.917737
vt 0.107068 0.621321
vt 0.449719 0.621321
vt 0.449719 0.917737
vt 0.719795 0.692994
vt 0.719795 0.907405
vt 0.749001 0.907405
vt 0.749001 0.692994
vt 0.449281 0.363478
vt 0.449281 0.363478
vt 0.386059 0.363478
vt 0.386059 0.363478
vt 0.363335 0.363478
vt 0.363335 0.363478
vt 0.749001 0.692994
vt 0.749001 0.692994
vt 0.749001 0.907405
vt 0.749001 0.907405
vt 0.363335 0.115049
vt 0.363335 0.115049
vt 0.386059 0.115049
vt 0.386059 0.115049
vt 0.386059 0.281867
vt 0.386059 0.281867
vt 0.449281 0.281867
vt 0.449281 0.281867
vt 0.719795 0.907405
vt 0.719795 0.907405
vt 0.719795 0.692994
vt 0.719795 0.692994
vt 0.449281 0.281867
vt 0.449281 0.281867
vt 0.449281 0.363478
vt 0.449281 0.363478
vt 0.363335 0.363478
vt 0.363335 0.363478
vt 0.363335 0.281867
vt 0.363335 0.281867
vn -1 0 0
vn -1 0 0
vn -1 0 0
vn -1 0 0
vn -1 0 0
vn -1 0 0
vn 0.1671318 0 -0.9859346
vn 0.068684 0 -0.9976385
vn 0.068684 0 -0.9976385
vn 0.1671318 0 -0.9859346
vn 0.9385 0.2664934 -0.2195426
vn 0.9385 -0.2664934 -0.2195426
vn 0.9385 0.2664934 0.2195427
vn 0.1626889 0.9866774 0
vn 0.1626889 0.9866774 0
vn 0.1067888 0.9942818 0
vn 0.1067888 0.9942818 0
vn 0.9385 -0.2664934 0.2195427
vn 0.1671318 0 0.9859346
vn 0.1626889 -0.9866774 0
vn 0.1671318 0 0.9859346
vn 0.068684 0 0.9976385
vn 0.068684 0 0.9976385
vn 0.1626889 -0.9866774 0
vn 0.1067888 -0.9942818 0
vn 0.1067888 -0.9942818 0
vn -1 0 0
vn -1 0 0
vn -1 0 0
vn -1 0 0
vn 1 0 0
vn 1 0 0
vn 1 0 0
vn 1 0 0
vn 1 0 0
vn 1 0 0
vn 1 0 0
vn 1 0 0
vn 1 0 0
vn 1 0 0
vn 0 0 1
vn 0 0 1
vn 0 0 1
vn 0 0 1
vn 0 0 1
vn 0 0 1
vn 0 1 0
vn 0 1 0
vn 0 1 0
vn 0 1 0
vn 0 0 -1
vn 0 0 -1
vn 0 0 -1
vn 0 0 -1
vn 0 0 -1
vn 0 0 -1
vn 0 0 -1
vn 0 0 -1
vn 0 -1 0
vn 0 -1 0
vn 0 -1 0
vn 0 -1 0
vn 0 1 0
vn 0 1 0
vn 0 1 0
vn 0 1 0
vn 0 -1 0
vn 0 -1 0
vn 0 -1 0
vn 0 -1 0
g MailBox_Flag_0
f 3/3/3 2/2/2 1/1/1
f 2/2/2 4/4/4 1/1/1
f 5/5/5 4/4/4 2/2/2
f 6/6/6 5/5/5 2/2/2
f 9/9/9 8/8/8 7/7/7
f 10/10/10 9/9/9 7/7/7
f 10/10/10 7/7/7 11/11/11
f 12/12/12 10/10/10 11/11/11
f 11/11/11 13/13/13 12/12/12
f 11/11/11 14/14/14 13/13/13
f 14/14/14 15/15/15 13/13/13
f 14/14/14 16/16/16 15/15/15
f 16/16/16 17/17/17 15/15/15
f 13/13/13 18/18/18 12/12/12
f 13/13/13 19/19/19 18/18/18
f 18/18/18 20/20/20 12/12/12
f 19/19/19 21/21/21 18/18/18
f 19/19/19 22/22/22 21/21/21
f 22/22/22 23/23/23 21/21/21
f 20/20/20 24/24/24 12/12/12
f 20/20/20 25/25/25 24/24/24
f 25/25/25 26/26/26 24/24/24
f 29/29/29 28/28/28 27/27/27
f 30/30/30 29/29/29 27/27/27
f 33/33/33 32/32/32 31/31/31
f 34/34/34 33/33/33 31/31/31
f 34/34/34 35/35/35 33/33/33
f 35/35/35 36/36/36 33/33/33
f 39/39/39 38/38/38 37/37/37
f 40/40/40 39/39/39 37/37/37
f 43/43/43 42/42/42 41/41/41
f 44/44/44 43/43/43 41/41/41
f 45/45/45 43/43/43 44/44/44
f 46/46/46 45/45/45 44/44/44
f 49/49/49 48/48/48 47/47/47
f 50/50/50 49/49/49 47/47/47
f 53/53/53 52/52/52 51/51/51
f 54/54/54 53/53/53 51/51/51
f 57/57/57 56/56/56 55/55/55
f 58/58/58 57/57/57 55/55/55
f 61/61/61 60/60/60 59/59/59
f 62/62/62 61/61/61 59/59/59
f 65/65/65 64/64/64 63/63/63
f 66/66/66 65/65/65 63/63/63
f 69/69/69 68/68/68 67/67/67
f 70/70/70 69/69/69 67/67/67
