g MangroveLeavesPart
v 0.146757 -0.246233 -0.020983
v -0.224158 -0.325525 0.083432
v -0.106454 0.306347 -0.024429
v 0.183856 0.265412 -0.03802
v 0.146757 -0.246233 -0.020983
v 0.183856 0.265412 -0.03802
v -0.106454 0.306347 -0.024429
v -0.224158 -0.325525 0.083432
vt 0.540619 0.020511
vt 0.483736 0.062458
vt 0.554864 0.130718
vt 0.598281 0.100392
vt 0.540619 0.020511
vt 0.598281 0.100392
vt 0.554864 0.130718
vt 0.483736 0.062458
vn 0.170332 0.08417457 0.9817849
vn 0.170332 0.08417457 0.9817849
vn 0.170332 0.08417458 0.9817849
vn 0.170332 0.08417458 0.9817849
vn -0.170332 -0.08417457 -0.9817849
vn -0.170332 -0.08417458 -0.9817849
vn -0.170332 -0.08417458 -0.9817849
vn -0.170332 -0.08417457 -0.9817849
g MangroveLeavesPart_0
f 3/3/3 2/2/2 1/1/1
f 4/4/4 3/3/3 1/1/1
f 7/7/7 6/6/6 5/5/5
f 8/8/8 7/7/7 5/5/5
