g MarbleSquare
v 0.208001 -0.24713 0.026581
v 0.024867 -0.24713 0.026581
v 0.024867 -0.248759 0.033301
v 0.024867 -0.216406 0.002415
v 0.200757 -0.216406 0.002415
v 0.200757 0.216406 0.002415
v 0.024867 0.216406 0.002415
v 0.234075 -0.221437 0.025801
v 0.210429 -0.248759 0.033301
v 0.234075 0.221437 0.025801
v 0.237067 -0.223444 0.034081
v 0.220652 -0.254617 0.082334
v 0.208001 0.24713 0.026582
v 0.024867 0.24713 0.026582
v 0.237067 0.223444 0.034081
v 0.210429 0.248759 0.033301
v 0.245519 0.22975 0.082334
v 0.245519 -0.22975 0.082334
v 0.220652 0.254617 0.082334
v 0.245519 0.22975 0.301364
v 0.024867 0.254617 0.082334
v 0.024867 0.248759 0.033301
v 0.220652 0.254617 0.301364
v -0.024867 0.216406 0.002415
v -0.024867 0.24713 0.026582
v -0.024867 -0.216406 0.002415
v 0.024867 -0.216406 0.002415
v 0.024867 -0.24713 0.026581
v 0.245519 -0.22975 0.301364
v 0.239288 0.225223 0.350304
v 0.220652 -0.254617 0.301364
v 0.239288 -0.225223 0.350304
v 0.024867 -0.254617 0.301364
v 0.213515 -0.250364 0.35073
v 0.024867 -0.254617 0.082334
v -0.024867 -0.248759 0.033301
v -0.024867 -0.254617 0.082334
v -0.024867 -0.254617 0.301364
v 0.024867 -0.250364 0.35073
v -0.024867 -0.24713 0.026581
v 0.213241 -0.25018 0.35179
v 0.024867 -0.25018 0.35179
v 0.238793 -0.224891 0.352217
v -0.210429 -0.248759 0.033301
v -0.208001 -0.24713 0.026581
v -0.200757 -0.216406 0.002415
v -0.220652 -0.254617 0.082334
v -0.200757 0.216406 0.002415
v -0.234075 -0.221437 0.025801
v -0.237067 -0.223444 0.034081
v -0.208001 0.24713 0.026582
v -0.234075 0.221437 0.025801
v -0.210429 0.248759 0.033301
v -0.237067 0.223444 0.034081
v -0.024867 0.248759 0.033301
v -0.220652 0.254617 0.082334
v -0.024867 0.254617 0.082334
v -0.245519 -0.22975 0.082334
v -0.245519 0.22975 0.082334
v -0.220652 0.254617 0.301364
v 0.024867 0.254617 0.301364
v -0.245519 0.22975 0.301364
v -0.245519 -0.22975 0.301364
v -0.024867 0.254617 0.301364
v 0.024867 0.250364 0.35073
v -0.220652 -0.254617 0.301364
v -0.239288 -0.225223 0.350304
v -0.239288 0.225223 0.350304
v -0.213515 0.250364 0.35073
v -0.024867 -0.250364 0.35073
v -0.213515 -0.250364 0.35073
v -0.024867 -0.25018 0.35179
v -0.024867 0.250364 0.35073
v -0.238793 -0.224891 0.352217
v -0.213241 0.25018 0.35179
v -0.213241 -0.25018 0.35179
v -0.238793 0.224891 0.352217
v -0.224434 -0.22094 0.399791
v -0.224434 0.22094 0.399791
v 0.024867 -0.2458 0.401157
v -0.024867 -0.2458 0.401157
v -0.197649 -0.2458 0.401157
v -0.223489 -0.220926 0.402523
v -0.024867 -0.220806 0.426023
v -0.190494 -0.220806 0.426023
v -0.223489 0.220926 0.402523
v -0.197649 0.2458 0.401157
v -0.190494 0.220806 0.426023
v -0.024867 0.220806 0.426023
v -0.024867 0.25018 0.35179
v -0.024867 0.2458 0.401157
v 0.024867 0.25018 0.35179
v 0.024867 0.2458 0.401157
v 0.024867 -0.220806 0.426023
v 0.213241 0.25018 0.35179
v 0.024867 0.220806 0.426023
v 0.190494 -0.220806 0.426023
v 0.197649 0.2458 0.401157
v 0.213515 0.250364 0.35073
v 0.238793 0.224891 0.352217
v 0.224434 0.22094 0.399791
v 0.190494 0.220806 0.426023
v 0.197649 -0.2458 0.401157
v 0.224434 -0.22094 0.399791
v 0.223489 -0.220926 0.402523
v 0.223489 0.220926 0.402523
vt 0.445337 0.917051
vt 0.445337 0.917051
vt 0.445145 0.91759
vt 0.448977 0.915114
vt 0.448977 0.915114
vt 0.500242 0.915114
vt 0.500242 0.915114
vt 0.448381 0.916989
vt 0.445145 0.91759
vt 0.500838 0.916989
vt 0.448143 0.917652
vt 0.444451 0.921521
vt 0.503881 0.917051
vt 0.503881 0.917051
vt 0.501076 0.917652
vt 0.504074 0.91759
vt 0.501823 0.921521
vt 0.447396 0.921521
vt 0.504768 0.921521
vt 0.501823 0.939081
vt 0.504768 0.921521
vt 0.504074 0.91759
vt 0.504768 0.939081
vt 0.500242 0.915114
vt 0.503881 0.917051
vt 0.448977 0.915114
vt 0.448977 0.915114
vt 0.445337 0.917051
vt 0.447396 0.939081
vt 0.501286 0.943005
vt 0.444451 0.939081
vt 0.447932 0.943005
vt 0.444451 0.939081
vt 0.444954 0.943039
vt 0.444451 0.921521
vt 0.445145 0.91759
vt 0.444451 0.921521
vt 0.444451 0.939081
vt 0.444954 0.943039
vt 0.445338 0.917051
vt 0.444976 0.943124
vt 0.444976 0.943124
vt 0.447972 0.943158
vt 0.445145 0.91759
vt 0.445338 0.917051
vt 0.448977 0.915114
vt 0.444451 0.921521
vt 0.500242 0.915114
vt 0.448381 0.916989
vt 0.448143 0.917652
vt 0.503881 0.917051
vt 0.500838 0.916989
vt 0.504074 0.91759
vt 0.501076 0.917652
vt 0.504074 0.91759
vt 0.504768 0.921521
vt 0.504768 0.921521
vt 0.447396 0.921521
vt 0.501823 0.921521
vt 0.504768 0.939081
vt 0.504768 0.939081
vt 0.501823 0.939081
vt 0.447396 0.939081
vt 0.504768 0.939081
vt 0.504264 0.943039
vt 0.444451 0.939081
vt 0.447932 0.943005
vt 0.501286 0.943005
vt 0.504264 0.943039
vt 0.444954 0.943039
vt 0.444954 0.943039
vt 0.444976 0.943124
vt 0.504264 0.943039
vt 0.447972 0.943158
vt 0.504243 0.943124
vt 0.444976 0.943124
vt 0.501247 0.943158
vt 0.448427 0.946972
vt 0.500792 0.946972
vt 0.44548 0.947082
vt 0.44548 0.947082
vt 0.44548 0.947082
vt 0.448427 0.947191
vt 0.448428 0.949076
vt 0.448428 0.949076
vt 0.500792 0.947191
vt 0.503739 0.947082
vt 0.50079 0.949076
vt 0.50079 0.949076
vt 0.504243 0.943124
vt 0.503739 0.947082
vt 0.504243 0.943124
vt 0.503739 0.947082
vt 0.448428 0.949076
vt 0.504243 0.943124
vt 0.50079 0.949076
vt 0.448428 0.949076
vt 0.503739 0.947082
vt 0.504264 0.943039
vt 0.501247 0.943158
vt 0.500792 0.946972
vt 0.50079 0.949076
vt 0.44548 0.947082
vt 0.448427 0.946972
vt 0.448427 0.947191
vt 0.500792 0.947191
vn 0.04915817 -0.7094088 -0.7030809
vn 0 -0.6917877 -0.722101
vn 0 -0.9911484 -0.1327591
vn 0 -0.05284072 -0.9986029
vn 0.1132412 -0.05081328 -0.9922673
vn 0.1132412 0.05081533 -0.9922672
vn 0 0.05284291 -0.9986028
vn 0.6732286 -0.02021202 -0.739158
vn 0.103337 -0.9830444 -0.1514764
vn 0.6732283 0.020212 -0.7391585
vn 0.9783029 -0.05119336 -0.2007555
vn 0.1154808 -0.9930272 -0.02368977
vn 0.04915632 0.7094065 -0.7030832
vn 0 0.6917874 -0.7221012
vn 0.9783029 0.05119301 -0.2007556
vn 0.1033375 0.9830441 -0.1514781
vn 0.9981645 0.05227831 -0.03057351
vn 0.9981645 -0.0522783 -0.03057351
vn 0.1154808 0.9930272 -0.02368977
vn 0.9983884 0.05191933 0.02291255
vn 0 0.9997694 -0.02147497
vn 0 0.991148 -0.1327614
vn 0.1144328 0.9932761 0.01754487
vn 0 0.0528429 -0.9986028
vn 0 0.6917874 -0.7221012
vn 0 -0.05284072 -0.9986029
vn 0 -0.05284072 -0.9986029
vn 0 -0.6917877 -0.722101
vn 0.9983884 -0.05191934 0.02291255
vn 0.9895369 0.05056149 0.1351305
vn 0.1144328 -0.9932761 0.01754487
vn 0.9895369 -0.0505615 0.1351305
vn 0 -0.9998775 0.01565561
vn 0.1031893 -0.9894662 0.1015306
vn 0 -0.9997694 -0.02147497
vn 0 -0.9911484 -0.1327591
vn 0 -0.9997694 -0.02147497
vn 0 -0.9998775 0.01565561
vn 0 -0.9961537 0.08762439
vn 0 -0.6917877 -0.722101
vn 0.1513295 -0.9791485 0.1355275
vn 0 -0.9959239 0.09019808
vn 0.9552463 -0.05110435 0.2913636
vn -0.103337 -0.9830444 -0.1514764
vn -0.04915817 -0.7094088 -0.7030809
vn -0.1132412 -0.05081328 -0.9922673
vn -0.1154808 -0.9930272 -0.02368977
vn -0.1132412 0.05081532 -0.9922672
vn -0.6732286 -0.02021202 -0.739158
vn -0.9783029 -0.05119337 -0.2007555
vn -0.04915632 0.7094064 -0.7030833
vn -0.6732282 0.020212 -0.7391585
vn -0.1033375 0.9830441 -0.1514781
vn -0.9783029 0.05119301 -0.2007556
vn 0 0.991148 -0.1327614
vn -0.1154808 0.9930272 -0.02368977
vn 0 0.9997694 -0.02147497
vn -0.9981645 -0.0522783 -0.03057351
vn -0.9981645 0.05227831 -0.03057351
vn -0.1144328 0.9932761 0.01754487
vn 0 0.9998775 0.01565561
vn -0.9983884 0.05191933 0.02291255
vn -0.9983884 -0.05191933 0.02291255
vn 0 0.9998775 0.01565561
vn 0 0.9961537 0.08762441
vn -0.1144328 -0.9932761 0.01754487
vn -0.9895369 -0.05056149 0.1351305
vn -0.9895369 0.05056149 0.1351305
vn -0.1031893 0.9894662 0.1015306
vn 0 -0.9961537 0.08762441
vn -0.1031893 -0.9894662 0.1015306
vn 0 -0.9959239 0.09019807
vn 0 0.9961537 0.08762439
vn -0.9552463 -0.05110435 0.2913636
vn -0.1513295 0.9791485 0.1355275
vn -0.1513295 -0.9791485 0.1355275
vn -0.9552463 0.05110435 0.2913636
vn -0.9538757 -0.05546693 0.295033
vn -0.9538757 0.05546692 0.295033
vn 0 -0.9330847 0.3596567
vn 0 -0.9330847 0.3596567
vn -0.07749008 -0.9430931 0.3233741
vn -0.6120104 -0.01259325 0.7907494
vn 0 -0.05404922 0.9985383
vn -0.113163 -0.05288991 0.9921677
vn -0.6120104 0.01259325 0.7907494
vn -0.07749011 0.9430931 0.3233741
vn -0.113163 0.05288991 0.9921677
vn 0 0.05404921 0.9985383
vn 0 0.9959239 0.09019808
vn 0 0.9330847 0.3596567
vn 0 0.9959239 0.09019808
vn 0 0.9330847 0.3596567
vn 0 -0.05404921 0.9985383
vn 0.1513295 0.9791485 0.1355275
vn 0 0.05404921 0.9985383
vn 0.113163 -0.05288991 0.9921677
vn 0.07749009 0.9430931 0.3233742
vn 0.1031893 0.9894662 0.1015306
vn 0.9552463 0.05110436 0.2913637
vn 0.9538757 0.05546692 0.295033
vn 0.113163 0.05288991 0.9921677
vn 0.07749011 -0.9430931 0.3233741
vn 0.9538757 -0.05546693 0.295033
vn 0.6120104 -0.01259325 0.7907494
vn 0.6120104 0.01259325 0.7907494
g MarbleSquare_0
f 3/3/3 2/2/2 1/1/1
f 2/2/2 4/4/4 1/1/1
f 4/4/4 5/5/5 1/1/1
f 5/5/5 4/4/4 6/6/6
f 4/4/4 7/7/7 6/6/6
f 1/1/1 5/5/5 8/8/8
f 9/9/9 3/3/3 1/1/1
f 1/1/1 8/8/8 9/9/9
f 8/8/8 5/5/5 10/10/10
f 5/5/5 6/6/6 10/10/10
f 8/8/8 11/11/11 9/9/9
f 8/8/8 10/10/10 11/11/11
f 9/9/9 12/12/12 3/3/3
f 12/12/12 9/9/9 11/11/11
f 6/6/6 13/13/13 10/10/10
f 6/6/6 7/7/7 14/14/14
f 13/13/13 6/6/6 14/14/14
f 15/15/15 10/10/10 13/13/13
f 10/10/10 15/15/15 11/11/11
f 13/13/13 14/14/14 16/16/16
f 16/16/16 15/15/15 13/13/13
f 15/15/15 17/17/17 11/11/11
f 18/18/18 12/12/12 11/11/11
f 17/17/17 18/18/18 11/11/11
f 19/19/19 17/17/17 15/15/15
f 16/16/16 19/19/19 15/15/15
f 18/18/18 17/17/17 20/20/20
f 20/20/20 17/17/17 19/19/19
f 21/21/21 19/19/19 16/16/16
f 14/14/14 22/22/22 16/16/16
f 22/22/22 21/21/21 16/16/16
f 23/23/23 20/20/20 19/19/19
f 19/19/19 21/21/21 23/23/23
f 7/7/7 24/24/24 14/14/14
f 14/14/14 25/25/25 22/22/22
f 24/24/24 25/25/25 14/14/14
f 26/26/26 24/24/24 7/7/7
f 27/27/27 26/26/26 7/7/7
f 27/27/27 28/28/28 26/26/26
f 29/29/29 18/18/18 20/20/20
f 30/30/30 20/20/20 23/23/23
f 29/29/29 20/20/20 30/30/30
f 29/29/29 31/31/31 18/18/18
f 31/31/31 12/12/12 18/18/18
f 32/32/32 29/29/29 30/30/30
f 31/31/31 29/29/29 32/32/32
f 31/31/31 33/33/33 12/12/12
f 34/34/34 31/31/31 32/32/32
f 33/33/33 31/31/31 34/34/34
f 33/33/33 35/35/35 12/12/12
f 12/12/12 35/35/35 3/3/3
f 3/3/3 36/36/36 28/28/28
f 35/35/35 37/37/37 3/3/3
f 37/37/37 36/36/36 3/3/3
f 33/33/33 38/38/38 35/35/35
f 38/38/38 37/37/37 35/35/35
f 39/39/39 33/33/33 34/34/34
f 38/38/38 33/33/33 39/39/39
f 36/36/36 40/40/40 28/28/28
f 28/28/28 40/40/40 26/26/26
f 34/34/34 32/32/32 41/41/41
f 39/39/39 34/34/34 42/42/42
f 34/34/34 41/41/41 42/42/42
f 32/32/32 43/43/43 41/41/41
f 32/32/32 30/30/30 43/43/43
f 44/44/44 36/36/36 37/37/37
f 40/40/40 36/36/36 45/45/45
f 36/36/36 44/44/44 45/45/45
f 26/26/26 40/40/40 46/46/46
f 40/40/40 45/45/45 46/46/46
f 47/47/47 44/44/44 37/37/37
f 37/37/37 38/38/38 47/47/47
f 26/26/26 46/46/46 48/48/48
f 24/24/24 26/26/26 48/48/48
f 46/46/46 45/45/45 49/49/49
f 46/46/46 49/49/49 48/48/48
f 45/45/45 44/44/44 50/50/50
f 49/49/49 45/45/45 50/50/50
f 44/44/44 47/47/47 50/50/50
f 48/48/48 51/51/51 24/24/24
f 51/51/51 25/25/25 24/24/24
f 49/49/49 52/52/52 48/48/48
f 51/51/51 48/48/48 52/52/52
f 52/52/52 49/49/49 50/50/50
f 25/25/25 51/51/51 53/53/53
f 53/53/53 51/51/51 52/52/52
f 54/54/54 52/52/52 50/50/50
f 54/54/54 53/53/53 52/52/52
f 55/55/55 25/25/25 53/53/53
f 25/25/25 55/55/55 22/22/22
f 55/55/55 53/53/53 56/56/56
f 56/56/56 53/53/53 54/54/54
f 22/22/22 55/55/55 57/57/57
f 57/57/57 55/55/55 56/56/56
f 21/21/21 22/22/22 57/57/57
f 54/54/54 50/50/50 58/58/58
f 47/47/47 58/58/58 50/50/50
f 59/59/59 56/56/56 54/54/54
f 59/59/59 54/54/54 58/58/58
f 60/60/60 56/56/56 59/59/59
f 57/57/57 56/56/56 60/60/60
f 21/21/21 57/57/57 61/61/61
f 21/21/21 61/61/61 23/23/23
f 59/59/59 58/58/58 62/62/62
f 62/62/62 60/60/60 59/59/59
f 63/63/63 58/58/58 47/47/47
f 58/58/58 63/63/63 62/62/62
f 57/57/57 64/64/64 61/61/61
f 64/64/64 57/57/57 60/60/60
f 23/23/23 61/61/61 65/65/65
f 61/61/61 64/64/64 65/65/65
f 66/66/66 63/63/63 47/47/47
f 38/38/38 66/66/66 47/47/47
f 63/63/63 67/67/67 62/62/62
f 63/63/63 66/66/66 67/67/67
f 62/62/62 68/68/68 60/60/60
f 67/67/67 68/68/68 62/62/62
f 60/60/60 69/69/69 64/64/64
f 68/68/68 69/69/69 60/60/60
f 38/38/38 70/70/70 66/66/66
f 70/70/70 38/38/38 39/39/39
f 66/66/66 71/71/71 67/67/67
f 70/70/70 71/71/71 66/66/66
f 72/72/72 70/70/70 39/39/39
f 71/71/71 70/70/70 72/72/72
f 42/42/42 72/72/72 39/39/39
f 69/69/69 73/73/73 64/64/64
f 64/64/64 73/73/73 65/65/65
f 67/67/67 71/71/71 74/74/74
f 68/68/68 67/67/67 74/74/74
f 75/75/75 69/69/69 68/68/68
f 69/69/69 75/75/75 73/73/73
f 76/76/76 71/71/71 72/72/72
f 71/71/71 76/76/76 74/74/74
f 77/77/77 68/68/68 74/74/74
f 77/77/77 75/75/75 68/68/68
f 77/77/77 74/74/74 78/78/78
f 74/74/74 76/76/76 78/78/78
f 75/75/75 77/77/77 79/79/79
f 79/79/79 77/77/77 78/78/78
f 72/72/72 42/42/42 80/80/80
f 76/76/76 72/72/72 81/81/81
f 81/81/81 72/72/72 80/80/80
f 76/76/76 82/82/82 78/78/78
f 82/82/82 76/76/76 81/81/81
f 78/78/78 83/83/83 79/79/79
f 78/78/78 82/82/82 83/83/83
f 82/82/82 81/81/81 84/84/84
f 84/84/84 81/81/81 80/80/80
f 85/85/85 83/83/83 82/82/82
f 85/85/85 82/82/82 84/84/84
f 83/83/83 86/86/86 79/79/79
f 86/86/86 83/83/83 85/85/85
f 87/87/87 75/75/75 79/79/79
f 86/86/86 87/87/87 79/79/79
f 88/88/88 86/86/86 85/85/85
f 86/86/86 88/88/88 87/87/87
f 85/85/85 84/84/84 89/89/89
f 88/88/88 85/85/85 89/89/89
f 90/90/90 75/75/75 87/87/87
f 75/75/75 90/90/90 73/73/73
f 91/91/91 87/87/87 88/88/88
f 89/89/89 91/91/91 88/88/88
f 91/91/91 90/90/90 87/87/87
f 73/73/73 90/90/90 92/92/92
f 65/65/65 73/73/73 92/92/92
f 90/90/90 91/91/91 93/93/93
f 92/92/92 90/90/90 93/93/93
f 91/91/91 89/89/89 93/93/93
f 89/89/89 84/84/84 94/94/94
f 94/94/94 84/84/84 80/80/80
f 92/92/92 95/95/95 65/65/65
f 92/92/92 93/93/93 95/95/95
f 89/89/89 96/96/96 93/93/93
f 96/96/96 89/89/89 94/94/94
f 97/97/97 94/94/94 80/80/80
f 94/94/94 97/97/97 96/96/96
f 93/93/93 96/96/96 98/98/98
f 93/93/93 98/98/98 95/95/95
f 95/95/95 99/99/99 65/65/65
f 99/99/99 23/23/23 65/65/65
f 99/99/99 30/30/30 23/23/23
f 100/100/100 30/30/30 99/99/99
f 95/95/95 100/100/100 99/99/99
f 30/30/30 100/100/100 43/43/43
f 100/100/100 95/95/95 101/101/101
f 100/100/100 101/101/101 43/43/43
f 95/95/95 98/98/98 101/101/101
f 96/96/96 102/102/102 98/98/98
f 97/97/97 102/102/102 96/96/96
f 103/103/103 97/97/97 80/80/80
f 103/103/103 80/80/80 42/42/42
f 41/41/41 103/103/103 42/42/42
f 41/41/41 43/43/43 104/104/104
f 103/103/103 41/41/41 104/104/104
f 101/101/101 104/104/104 43/43/43
f 105/105/105 97/97/97 103/103/103
f 104/104/104 105/105/105 103/103/103
f 102/102/102 97/97/97 105/105/105
f 105/105/105 104/104/104 101/101/101
f 102/102/102 106/106/106 98/98/98
f 106/106/106 101/101/101 98/98/98
f 106/106/106 105/105/105 101/101/101
f 106/106/106 102/102/102 105/105/105
