g MilkSpinner
v -0.099166 0 0.096089
v -0.099166 0 0.005092
v -0.070121 0.070121 0.005092
v -0.070121 0.070121 0.096089
v -0.124701 0 0.111592
v -0.088177 0.088177 0.111592
v -0.120565 0.011088 0.123584
v -0.122411 0.011088 0.172066
v -0.127461 0 0.184059
v -0.094398 0.078718 0.172066
v -0.090128 0.090128 0.184059
v 0 0.099166 0.005092
v 0 0.099166 0.096089
v 0 0.124701 0.111592
v 0.070121 0.070121 0.096089
v 0.088177 0.088177 0.111592
v 0.099166 0 0.096089
v 0.099166 0 0.005092
v 0.070121 0.070121 0.005092
v 0.124701 0 0.111592
v 0 0.030841 -0.033431
v -0.021808 0.021808 -0.033431
v 0.021808 0.021808 -0.033431
v 0.030841 0 -0.033431
v 0.099166 0 0.005092
v 0.021808 0.021808 -0.513271
v 0 0.030841 -0.513271
v 0.030841 0 -0.513271
v 0.021808 -0.021808 -0.513271
v -0.021808 0.021808 -0.513271
v 0.021808 -0.021808 -0.033431
v 0.099166 0 0.005092
v 0 -0.030841 -0.513271
v -0.030841 0 -0.033431
v -0.030841 0 -0.513271
v 0.070121 -0.070121 0.005092
v 0.099166 0 0.096089
v 0 -0.030841 -0.033431
v -0.021808 -0.021808 -0.513271
v -0.021808 -0.021808 -0.033431
v -0.099166 0 0.005092
v -0.070121 0.070121 0.005092
v 0.070121 -0.070121 0.096089
v 0.124701 0 0.111592
v 0.088177 -0.088177 0.111592
v 0.120565 -0.011088 0.123584
v 0 -0.099166 0.005092
v -0.070121 -0.070121 0.005092
v 0 -0.099166 0.096089
v 0 -0.124701 0.111592
v -0.070121 -0.070121 0.096089
v -0.099166 0 0.096089
v -0.088177 -0.088177 0.111592
v -0.124701 0 0.111592
v -0.093092 -0.077412 0.123584
v -0.120565 -0.011088 0.123584
v -0.127461 0 0.184059
v -0.122411 -0.011088 0.172066
v -0.090128 -0.090129 0.184059
v -0.183555 -0.099643 0.133093
v -0.200251 -0.059335 0.133093
v -0.184348 -0.100437 0.162558
v -0.201374 -0.059335 0.162558
v -0.094398 -0.078718 0.172066
v -0.077412 -0.093092 0.123584
v -0.011088 -0.120565 0.123584
v -0.078718 -0.094398 0.172066
v 0 -0.127461 0.184059
v -0.059335 -0.200251 0.133093
v -0.099643 -0.183555 0.133093
v -0.059335 -0.201374 0.162558
v -0.100437 -0.184349 0.162558
v -0.011088 -0.122411 0.172066
v 0.011088 -0.120565 0.123584
v 0.077412 -0.093092 0.123584
v 0.011088 -0.122411 0.172066
v 0.090128 -0.090129 0.184059
v 0.099643 -0.183555 0.133093
v 0.059335 -0.200251 0.133093
v 0.100437 -0.184349 0.162558
v 0.059335 -0.201374 0.162558
v 0.078718 -0.094398 0.172066
v 0.093092 -0.077412 0.123584
v 0.094398 -0.078718 0.172066
v 0.127461 0 0.184059
v 0.122411 -0.011088 0.172066
v 0.200251 -0.059335 0.133093
v 0.183555 -0.099643 0.133093
v 0.201374 -0.059335 0.162558
v 0.184348 -0.100437 0.162558
v 0.021808 -0.021808 -0.513271
v 0.030841 0 -0.513271
v 0.021808 0.021808 -0.513271
v 0 -0.030841 -0.513271
v 0 0.030841 -0.513271
v -0.021808 -0.021808 -0.513271
v -0.021808 0.021808 -0.513271
v -0.030841 0 -0.513271
v -0.039993 0.03374 -0.470401
v -0.094437 0.010154 -0.677773
v -0.093501 0.03374 -0.677773
v -0.040429 0.010154 -0.470401
v 0.05343 0.005426 -0.470401
v 0.053866 0.029012 -0.470401
v 0.106938 0.005426 -0.677773
v 0.107874 0.029012 -0.677773
v -0.093501 0.03374 -0.677773
v 0.107874 0.029012 -0.677773
v 0.053866 0.029012 -0.470401
v -0.039993 0.03374 -0.470401
v -0.094437 0.010154 -0.677773
v 0.106938 0.005426 -0.677773
v 0.107874 0.029012 -0.677773
v -0.093501 0.03374 -0.677773
v -0.040429 0.010154 -0.470401
v 0.05343 0.005426 -0.470401
v 0.106938 0.005426 -0.677773
v -0.094437 0.010154 -0.677773
v 0.064715 -0.064715 0.224341
v 0.090128 -0.090129 0.184059
v 0 -0.127461 0.184059
v 0 -0.091521 0.224341
v -0.090128 -0.090129 0.184059
v 0.091521 0 0.224341
v 0.127461 0 0.184059
v 0.064715 0.064715 0.224341
v 0.090128 0.090128 0.184059
v 0 0.091521 0.224341
v 0 0.127461 0.184059
v -0.064715 0.064715 0.224341
v -0.090128 0.090128 0.184059
v -0.064715 -0.064715 0.224341
v -0.127461 0 0.184059
v -0.091521 0 0.224341
v -0.201374 0.059334 0.162558
v -0.184348 0.100437 0.162558
v -0.183555 0.099643 0.133093
v -0.200251 0.059334 0.133093
v -0.093092 0.077412 0.123584
v -0.078718 0.094398 0.172066
v -0.011088 0.122411 0.172066
v 0 0.127461 0.184059
v -0.077412 0.093092 0.123584
v -0.059334 0.201373 0.162558
v -0.100437 0.184348 0.162558
v -0.059335 0.200251 0.133093
v -0.099643 0.183555 0.133093
v -0.011088 0.120565 0.123584
v 0.011088 0.122411 0.172066
v 0.078718 0.094398 0.172066
v 0.090128 0.090128 0.184059
v 0.011088 0.120565 0.123584
v 0.100437 0.184348 0.162558
v 0.059334 0.201374 0.162558
v 0.099643 0.183555 0.133093
v 0.059335 0.200251 0.133093
v 0.077412 0.093092 0.123584
v 0.094398 0.078718 0.172066
v 0.122411 0.011088 0.172066
v 0.127461 0 0.184059
v 0.093092 0.077412 0.123584
v 0.120565 0.011088 0.123584
v 0.184348 0.100437 0.162558
v 0.201374 0.059334 0.162558
v 0.200251 0.059334 0.133093
v 0.183555 0.099643 0.133093
vt 0.489439 0.635629
vt 0.489439 0.602481
vt 0.495242 0.603969
vt 0.495242 0.635612
vt 0.485136 0.641276
vt 0.492593 0.640937
vt 0.485998 0.645552
vt 0.485687 0.663124
vt 0.484671 0.667674
vt 0.491418 0.661873
vt 0.49231 0.665807
vt 0.506665 0.604546
vt 0.506665 0.635606
vt 0.506788 0.640807
vt 0.517798 0.635612
vt 0.520629 0.640937
vt 0.522854 0.635629
vt 0.522854 0.602481
vt 0.517798 0.603969
vt 0.527156 0.641276
vt 0.506665 0.604546
vt 0.495242 0.603969
vt 0.517798 0.603969
vt 0.522854 0.602481
vt 0.522854 0.602481
vt 0.517798 0.603969
vt 0.506665 0.604546
vt 0.522854 0.602481
vt 0.518139 0.600844
vt 0.495242 0.603969
vt 0.518139 0.600844
vt 0.522854 0.602481
vt 0.505552 0.600118
vt 0.489439 0.602481
vt 0.489439 0.602481
vt 0.518139 0.600844
vt 0.522854 0.635629
vt 0.505552 0.600118
vt 0.493331 0.600844
vt 0.493331 0.600844
vt 0.489439 0.602481
vt 0.495242 0.603969
vt 0.518139 0.635648
vt 0.527156 0.641276
vt 0.521423 0.641659
vt 0.526513 0.64575
vt 0.505552 0.600118
vt 0.493331 0.600844
vt 0.505552 0.635656
vt 0.505385 0.641832
vt 0.493331 0.635648
vt 0.489439 0.635629
vt 0.489821 0.641659
vt 0.485136 0.641276
vt 0.489169 0.646209
vt 0.485648 0.64575
vt 0.484671 0.667674
vt 0.485335 0.663511
vt 0.489436 0.669785
vt 0.489169 0.646209
vt 0.485648 0.64575
vt 0.488913 0.664925
vt 0.485335 0.663511
vt 0.488913 0.664925
vt 0.491715 0.646361
vt 0.503424 0.646569
vt 0.491459 0.665223
vt 0.505367 0.670742
vt 0.503424 0.646569
vt 0.491715 0.646361
vt 0.503411 0.665865
vt 0.491459 0.665223
vt 0.503411 0.665865
vt 0.5074 0.646569
vt 0.519466 0.646361
vt 0.507389 0.665865
vt 0.521783 0.669785
vt 0.519466 0.646361
vt 0.5074 0.646569
vt 0.519705 0.665223
vt 0.507389 0.665865
vt 0.519705 0.665223
vt 0.522203 0.646209
vt 0.522443 0.664925
vt 0.527621 0.667674
vt 0.526825 0.663511
vt 0.526513 0.64575
vt 0.522203 0.646209
vt 0.526825 0.663511
vt 0.522443 0.664925
vt 0.518139 0.600844
vt 0.522854 0.602481
vt 0.517798 0.603969
vt 0.505552 0.600118
vt 0.506665 0.604546
vt 0.493331 0.600844
vt 0.495242 0.603969
vt 0.489439 0.602481
vt 0.517798 0.603969
vt 0.522854 0.602481
vt 0.517798 0.603969
vt 0.522854 0.602481
vt 0.522854 0.602481
vt 0.517798 0.603969
vt 0.522854 0.602481
vt 0.517798 0.603969
vt 0.517798 0.603969
vt 0.517798 0.603969
vt 0.517798 0.603969
vt 0.517798 0.603969
vt 0.522854 0.602481
vt 0.522854 0.602481
vt 0.517798 0.603969
vt 0.517798 0.603969
vt 0.522854 0.602481
vt 0.522854 0.602481
vt 0.522854 0.602481
vt 0.522854 0.602481
vt 0.403019 0.042984
vt 0.40831 0.045176
vt 0.40027 0.053204
vt 0.39808 0.047917
vt 0.388906 0.053207
vt 0.403021 0.036006
vt 0.408312 0.033816
vt 0.398085 0.031072
vt 0.400278 0.025783
vt 0.391105 0.031072
vt 0.388915 0.025783
vt 0.386167 0.036006
vt 0.380877 0.033816
vt 0.391099 0.047918
vt 0.380872 0.045176
vt 0.386164 0.042985
vt 0.485687 0.663124
vt 0.491418 0.661873
vt 0.491608 0.645146
vt 0.485998 0.645552
vt 0.491608 0.645146
vt 0.49414 0.661622
vt 0.505016 0.661145
vt 0.506801 0.665095
vt 0.494331 0.645017
vt 0.505016 0.661145
vt 0.49414 0.661622
vt 0.505006 0.644862
vt 0.494331 0.645017
vt 0.505006 0.644862
vt 0.508538 0.661145
vt 0.519142 0.661622
vt 0.520931 0.665807
vt 0.50853 0.644862
vt 0.519142 0.661622
vt 0.508538 0.661145
vt 0.518939 0.645017
vt 0.50853 0.644862
vt 0.518939 0.645017
vt 0.521703 0.661873
vt 0.526722 0.663124
vt 0.527621 0.667674
vt 0.5215 0.645146
vt 0.526411 0.645552
vt 0.521703 0.661873
vt 0.526722 0.663124
vt 0.526411 0.645552
vt 0.5215 0.645146
vn -0.8352761 0 -0.5498307
vn -0.8893389 0 -0.4572486
vn -0.6288576 0.6288576 -0.4572488
vn -0.5906292 0.5906292 -0.5498312
vn -0.8868214 0 -0.4621122
vn -0.6270776 0.6270775 -0.4621121
vn -0.9495602 0.1137973 -0.2922081
vn -0.9690599 0.1067908 0.2225278
vn -0.9499344 0 0.3124492
vn -0.7607379 0.6097225 0.2225228
vn -0.6717048 0.6717047 0.3124506
vn 0 0.8893389 -0.4572486
vn 0 0.8352761 -0.5498307
vn 0 0.8868214 -0.4621123
vn 0.5906292 0.5906292 -0.5498312
vn 0.6270775 0.6270775 -0.462112
vn 0.8352761 0 -0.5498307
vn 0.8893389 0 -0.4572486
vn 0.6288576 0.6288576 -0.4572488
vn 0.8868214 0 -0.4621122
vn 0 0.8238775 -0.566768
vn -0.5825679 0.5825679 -0.5667709
vn 0.5825679 0.5825679 -0.5667709
vn 0.8238775 0 -0.566768
vn 0.8893389 0 -0.4572486
vn 0.7071068 0.7071068 0
vn 0 1 0
vn 1 0 0
vn 0.7071068 -0.7071068 0
vn -0.7071068 0.7071068 0
vn 0.5825679 -0.5825679 -0.5667709
vn 0.8893389 0 -0.4572486
vn 0 -1 0
vn -0.8238775 0 -0.566768
vn -1 0 0
vn 0.6288576 -0.6288576 -0.4572488
vn 0.8352761 0 -0.5498307
vn 0 -0.8238775 -0.566768
vn -0.7071068 -0.7071068 0
vn -0.5825679 -0.5825679 -0.5667709
vn -0.8893389 0 -0.4572486
vn -0.6288576 0.6288576 -0.4572488
vn 0.5906292 -0.5906292 -0.5498312
vn 0.8868214 0 -0.4621122
vn 0.6270753 -0.6270781 -0.4621142
vn 0.9495607 -0.1137983 -0.2922061
vn 0 -0.8893389 -0.4572486
vn -0.6288576 -0.6288576 -0.4572488
vn 0 -0.8352761 -0.5498307
vn 0 -0.8868214 -0.4621123
vn -0.5906292 -0.5906292 -0.5498312
vn -0.8352761 0 -0.5498307
vn -0.6270753 -0.6270782 -0.4621143
vn -0.8868214 0 -0.4621122
vn -0.7519096 -0.5909711 -0.2922074
vn -0.9495608 -0.1137983 -0.2922061
vn -0.9499344 0 0.3124492
vn -0.9690619 -0.106791 0.2225191
vn -0.6717014 -0.6717108 0.3124445
vn -0.3836175 -0.730524 -0.5649533
vn -0.7878171 0.2453032 -0.5649518
vn -0.3996042 -0.7432895 0.5365047
vn -0.8081528 0.2430062 0.5365046
vn -0.7607437 -0.6097178 0.2225154
vn -0.5909633 -0.751915 -0.2922091
vn -0.1137983 -0.9495607 -0.2922061
vn -0.6097109 -0.7607523 0.2225054
vn 0 -0.9499364 0.3124435
vn 0.2453064 -0.7878134 -0.5649556
vn -0.7305242 -0.3836119 -0.5649569
vn 0.2430107 -0.8081532 0.5365018
vn -0.7432852 -0.3996181 0.5365003
vn -0.1067896 -0.9690642 0.2225097
vn 0.1137983 -0.9495607 -0.2922061
vn 0.5909633 -0.751915 -0.2922091
vn 0.1067896 -0.9690642 0.2225097
vn 0.6717014 -0.6717109 0.3124446
vn 0.7305242 -0.3836119 -0.5649569
vn -0.2453064 -0.7878134 -0.5649556
vn 0.7432852 -0.3996181 0.5365003
vn -0.2430107 -0.8081532 0.5365018
vn 0.6097109 -0.7607523 0.2225055
vn 0.7519096 -0.590971 -0.2922075
vn 0.7607437 -0.6097178 0.2225154
vn 0.9499344 0 0.3124492
vn 0.9690619 -0.106791 0.222519
vn 0.7878172 0.2453032 -0.5649517
vn 0.3836175 -0.730524 -0.5649534
vn 0.8081528 0.2430062 0.5365045
vn 0.3996042 -0.7432894 0.5365047
vn 0 0 -1
vn 0 0 -1
vn 0 0 -1
vn 0 0 -1
vn 0 0 -1
vn 0 0 -1
vn 0 0 -1
vn 0 0 -1
vn -0.6171211 0.01794896 0.7866635
vn -0.9676193 0.0281432 0.2508404
vn -0.9676193 0.0281432 0.2508404
vn -0.6065234 0.01764073 0.7948699
vn 0.6171212 -0.01794904 0.7866634
vn 0.6065234 -0.01764081 0.7948698
vn 0.9676193 -0.02814333 0.2508404
vn 0.9676193 -0.02814333 0.2508404
vn 0.03201241 0.9994875 3.859069E-05
vn 0.03201241 0.9994875 3.859069E-05
vn 0.03201241 0.9994875 3.85907E-05
vn 0.03201241 0.9994875 3.859069E-05
vn 0 0 -1
vn 0 0 -1
vn 0 0 -1
vn 0 0 -1
vn -0.03201241 -0.9994875 3.859396E-05
vn -0.03201241 -0.9994875 3.859396E-05
vn -0.03201241 -0.9994875 3.859396E-05
vn -0.03201241 -0.9994875 3.859396E-05
vn 0.3439824 -0.3439811 0.8737009
vn 0.6717014 -0.6717109 0.3124446
vn 0 -0.9499364 0.3124435
vn 0 -0.4864635 0.8737009
vn -0.6717014 -0.6717108 0.3124445
vn 0.4864656 0 0.8736997
vn 0.9499344 0 0.3124492
vn 0.3439838 0.3439838 0.8736992
vn 0.6717048 0.6717048 0.3124506
vn 0 0.4864662 0.8736994
vn 0 0.9499339 0.3124507
vn -0.3439838 0.3439838 0.8736992
vn -0.6717048 0.6717047 0.3124506
vn -0.3439824 -0.3439811 0.8737009
vn -0.9499344 0 0.3124492
vn -0.4864656 0 0.8736997
vn -0.8081506 -0.2430131 0.5365046
vn -0.3996073 0.7432882 0.5365041
vn -0.3836207 0.7305227 -0.5649529
vn -0.7878151 -0.2453102 -0.5649515
vn -0.751906 0.5909764 -0.2922058
vn -0.6097224 0.760738 0.2225227
vn -0.1067917 0.9690605 0.2225253
vn 0 0.9499339 0.3124507
vn -0.5909765 0.7519059 -0.2922059
vn 0.2430243 0.808143 0.5365109
vn -0.7432844 0.3996083 0.5365086
vn 0.2452972 0.7878226 -0.5649467
vn -0.7305245 0.3836244 -0.564948
vn -0.1137981 0.9495603 -0.2922073
vn 0.1067915 0.9690606 0.2225247
vn 0.6097226 0.7607378 0.2225227
vn 0.6717048 0.6717048 0.3124506
vn 0.1137978 0.9495599 -0.292209
vn 0.743288 0.3996054 0.5365058
vn -0.2430195 0.8081488 0.5365043
vn 0.7305242 0.3836195 -0.5649517
vn -0.2452968 0.7878189 -0.5649522
vn 0.5909765 0.751906 -0.2922058
vn 0.7607379 0.6097225 0.2225226
vn 0.9690599 0.1067908 0.2225277
vn 0.9499344 0 0.3124492
vn 0.751906 0.5909764 -0.2922058
vn 0.9495602 0.1137973 -0.2922081
vn 0.3996074 0.7432882 0.5365042
vn 0.8081506 -0.2430131 0.5365045
vn 0.7878151 -0.2453102 -0.5649516
vn 0.3836207 0.7305227 -0.5649529
g MilkSpinner_0
f 3/3/3 2/2/2 1/1/1
f 4/4/4 3/3/3 1/1/1
f 4/4/4 1/1/1 5/5/5
f 6/6/6 4/4/4 5/5/5
f 6/6/6 5/5/5 7/7/7
f 7/7/7 5/5/5 8/8/8
f 5/5/5 9/9/9 8/8/8
f 8/8/8 9/9/9 10/10/10
f 9/9/9 11/11/11 10/10/10
f 12/12/12 3/3/3 4/4/4
f 13/13/13 4/4/4 6/6/6
f 13/13/13 12/12/12 4/4/4
f 14/14/14 13/13/13 6/6/6
f 15/15/15 13/13/13 14/14/14
f 16/16/16 15/15/15 14/14/14
f 17/17/17 15/15/15 16/16/16
f 17/17/17 18/18/18 15/15/15
f 18/18/18 19/19/19 15/15/15
f 15/15/15 19/19/19 13/13/13
f 19/19/19 12/12/12 13/13/13
f 20/20/20 17/17/17 16/16/16
f 12/12/12 21/21/21 3/3/3
f 21/21/21 22/22/22 3/3/3
f 19/19/19 23/23/23 12/12/12
f 23/23/23 21/21/21 12/12/12
f 24/24/24 23/23/23 19/19/19
f 25/25/25 24/24/24 19/19/19
f 23/23/23 26/26/26 21/21/21
f 26/26/26 27/27/27 21/21/21
f 21/21/21 27/27/27 22/22/22
f 28/28/28 26/26/26 23/23/23
f 24/24/24 28/28/28 23/23/23
f 29/29/29 28/28/28 24/24/24
f 27/27/27 30/30/30 22/22/22
f 31/31/31 29/29/29 24/24/24
f 31/31/31 24/24/24 32/32/32
f 33/33/33 29/29/29 31/31/31
f 22/22/22 30/30/30 34/34/34
f 30/30/30 35/35/35 34/34/34
f 36/36/36 31/31/31 32/32/32
f 36/36/36 32/32/32 37/37/37
f 38/38/38 33/33/33 31/31/31
f 38/38/38 31/31/31 36/36/36
f 39/39/39 33/33/33 38/38/38
f 35/35/35 39/39/39 40/40/40
f 40/40/40 39/39/39 38/38/38
f 34/34/34 35/35/35 40/40/40
f 22/22/22 34/34/34 41/41/41
f 42/42/42 22/22/22 41/41/41
f 43/43/43 36/36/36 37/37/37
f 43/43/43 37/37/37 44/44/44
f 45/45/45 43/43/43 44/44/44
f 45/45/45 44/44/44 46/46/46
f 47/47/47 38/38/38 36/36/36
f 40/40/40 38/38/38 47/47/47
f 47/47/47 36/36/36 43/43/43
f 34/34/34 40/40/40 48/48/48
f 41/41/41 34/34/34 48/48/48
f 48/48/48 40/40/40 47/47/47
f 49/49/49 47/47/47 43/43/43
f 48/48/48 47/47/47 49/49/49
f 49/49/49 43/43/43 45/45/45
f 50/50/50 49/49/49 45/45/45
f 51/51/51 49/49/49 50/50/50
f 51/51/51 48/48/48 49/49/49
f 41/41/41 48/48/48 51/51/51
f 52/52/52 41/41/41 51/51/51
f 52/52/52 51/51/51 53/53/53
f 53/53/53 51/51/51 50/50/50
f 54/54/54 52/52/52 53/53/53
f 54/54/54 53/53/53 55/55/55
f 56/56/56 54/54/54 55/55/55
f 57/57/57 54/54/54 56/56/56
f 58/58/58 57/57/57 56/56/56
f 59/59/59 57/57/57 58/58/58
f 55/55/55 60/60/60 56/56/56
f 60/60/60 61/61/61 56/56/56
f 56/56/56 61/61/61 58/58/58
f 62/62/62 60/60/60 55/55/55
f 60/60/60 62/62/62 61/61/61
f 61/61/61 63/63/63 58/58/58
f 62/62/62 63/63/63 61/61/61
f 64/64/64 62/62/62 55/55/55
f 63/63/63 62/62/62 64/64/64
f 58/58/58 63/63/63 64/64/64
f 55/55/55 53/53/53 64/64/64
f 64/64/64 59/59/59 58/58/58
f 53/53/53 59/59/59 64/64/64
f 59/59/59 53/53/53 65/65/65
f 53/53/53 50/50/50 66/66/66
f 65/65/65 53/53/53 66/66/66
f 67/67/67 59/59/59 65/65/65
f 68/68/68 59/59/59 67/67/67
f 66/66/66 69/69/69 65/65/65
f 69/69/69 70/70/70 65/65/65
f 65/65/65 70/70/70 67/67/67
f 71/71/71 69/69/69 66/66/66
f 69/69/69 71/71/71 70/70/70
f 70/70/70 72/72/72 67/67/67
f 71/71/71 72/72/72 70/70/70
f 73/73/73 71/71/71 66/66/66
f 72/72/72 71/71/71 73/73/73
f 67/67/67 72/72/72 73/73/73
f 66/66/66 50/50/50 73/73/73
f 73/73/73 68/68/68 67/67/67
f 50/50/50 68/68/68 73/73/73
f 68/68/68 50/50/50 74/74/74
f 74/74/74 50/50/50 75/75/75
f 50/50/50 45/45/45 75/75/75
f 76/76/76 68/68/68 74/74/74
f 77/77/77 68/68/68 76/76/76
f 75/75/75 78/78/78 74/74/74
f 78/78/78 79/79/79 74/74/74
f 74/74/74 79/79/79 76/76/76
f 80/80/80 78/78/78 75/75/75
f 78/78/78 80/80/80 79/79/79
f 79/79/79 81/81/81 76/76/76
f 80/80/80 81/81/81 79/79/79
f 82/82/82 80/80/80 75/75/75
f 81/81/81 80/80/80 82/82/82
f 76/76/76 81/81/81 82/82/82
f 75/75/75 45/45/45 82/82/82
f 82/82/82 77/77/77 76/76/76
f 45/45/45 77/77/77 82/82/82
f 77/77/77 45/45/45 83/83/83
f 83/83/83 45/45/45 46/46/46
f 84/84/84 77/77/77 83/83/83
f 85/85/85 77/77/77 84/84/84
f 86/86/86 85/85/85 84/84/84
f 44/44/44 85/85/85 86/86/86
f 46/46/46 44/44/44 86/86/86
f 46/46/46 87/87/87 83/83/83
f 83/83/83 88/88/88 84/84/84
f 87/87/87 88/88/88 83/83/83
f 89/89/89 87/87/87 46/46/46
f 86/86/86 89/89/89 46/46/46
f 87/87/87 89/89/89 88/88/88
f 84/84/84 90/90/90 86/86/86
f 88/88/88 90/90/90 84/84/84
f 89/89/89 90/90/90 88/88/88
f 90/90/90 89/89/89 86/86/86
f 93/93/93 92/92/92 91/91/91
f 91/91/91 94/94/94 93/93/93
f 94/94/94 95/95/95 93/93/93
f 94/94/94 96/96/96 95/95/95
f 96/96/96 97/97/97 95/95/95
f 96/96/96 98/98/98 97/97/97
f 101/101/101 100/100/100 99/99/99
f 100/100/100 102/102/102 99/99/99
f 102/102/102 103/103/103 99/99/99
f 103/103/103 104/104/104 99/99/99
f 103/103/103 105/105/105 104/104/104
f 105/105/105 106/106/106 104/104/104
f 109/109/109 108/108/108 107/107/107
f 110/110/110 109/109/109 107/107/107
f 113/113/113 112/112/112 111/111/111
f 114/114/114 113/113/113 111/111/111
f 117/117/117 116/116/116 115/115/115
f 118/118/118 117/117/117 115/115/115
f 121/121/121 120/120/120 119/119/119
f 122/122/122 121/121/121 119/119/119
f 123/123/123 121/121/121 122/122/122
f 119/119/119 120/120/120 124/124/124
f 120/120/120 125/125/125 124/124/124
f 124/124/124 125/125/125 126/126/126
f 119/119/119 124/124/124 126/126/126
f 125/125/125 127/127/127 126/126/126
f 126/126/126 128/128/128 119/119/119
f 126/126/126 127/127/127 128/128/128
f 128/128/128 122/122/122 119/119/119
f 127/127/127 129/129/129 128/128/128
f 128/128/128 129/129/129 130/130/130
f 128/128/128 130/130/130 122/122/122
f 129/129/129 131/131/131 130/130/130
f 132/132/132 123/123/123 122/122/122
f 130/130/130 132/132/132 122/122/122
f 133/133/133 123/123/123 132/132/132
f 131/131/131 133/133/133 134/134/134
f 130/130/130 131/131/131 134/134/134
f 134/134/134 133/133/133 132/132/132
f 130/130/130 134/134/134 132/132/132
f 136/136/136 135/135/135 8/8/8
f 10/10/10 136/136/136 8/8/8
f 8/8/8 135/135/135 7/7/7
f 135/135/135 136/136/136 137/137/137
f 137/137/137 136/136/136 10/10/10
f 135/135/135 138/138/138 7/7/7
f 138/138/138 135/135/135 137/137/137
f 139/139/139 137/137/137 10/10/10
f 138/138/138 137/137/137 139/139/139
f 7/7/7 138/138/138 139/139/139
f 10/10/10 11/11/11 139/139/139
f 139/139/139 6/6/6 7/7/7
f 11/11/11 6/6/6 139/139/139
f 6/6/6 11/11/11 140/140/140
f 140/140/140 11/11/11 141/141/141
f 11/11/11 142/142/142 141/141/141
f 143/143/143 6/6/6 140/140/140
f 14/14/14 6/6/6 143/143/143
f 141/141/141 144/144/144 140/140/140
f 144/144/144 145/145/145 140/140/140
f 140/140/140 145/145/145 143/143/143
f 146/146/146 144/144/144 141/141/141
f 145/145/145 144/144/144 146/146/146
f 145/145/145 147/147/147 143/143/143
f 147/147/147 145/145/145 146/146/146
f 148/148/148 146/146/146 141/141/141
f 147/147/147 146/146/146 148/148/148
f 143/143/143 147/147/147 148/148/148
f 141/141/141 142/142/142 148/148/148
f 148/148/148 14/14/14 143/143/143
f 142/142/142 14/14/14 148/148/148
f 14/14/14 142/142/142 149/149/149
f 149/149/149 142/142/142 150/150/150
f 142/142/142 151/151/151 150/150/150
f 152/152/152 14/14/14 149/149/149
f 16/16/16 14/14/14 152/152/152
f 150/150/150 153/153/153 149/149/149
f 153/153/153 154/154/154 149/149/149
f 149/149/149 154/154/154 152/152/152
f 155/155/155 153/153/153 150/150/150
f 154/154/154 153/153/153 155/155/155
f 154/154/154 156/156/156 152/152/152
f 156/156/156 154/154/154 155/155/155
f 157/157/157 155/155/155 150/150/150
f 156/156/156 155/155/155 157/157/157
f 152/152/152 156/156/156 157/157/157
f 150/150/150 151/151/151 157/157/157
f 157/157/157 16/16/16 152/152/152
f 151/151/151 16/16/16 157/157/157
f 16/16/16 151/151/151 158/158/158
f 158/158/158 151/151/151 159/159/159
f 151/151/151 160/160/160 159/159/159
f 161/161/161 16/16/16 158/158/158
f 20/20/20 16/16/16 161/161/161
f 160/160/160 20/20/20 162/162/162
f 159/159/159 160/160/160 162/162/162
f 162/162/162 20/20/20 161/161/161
f 158/158/158 163/163/163 161/161/161
f 159/159/159 164/164/164 158/158/158
f 164/164/164 163/163/163 158/158/158
f 165/165/165 164/164/164 159/159/159
f 162/162/162 165/165/165 159/159/159
f 163/163/163 164/164/164 165/165/165
f 163/163/163 166/166/166 161/161/161
f 161/161/161 166/166/166 162/162/162
f 166/166/166 163/163/163 165/165/165
f 166/166/166 165/165/165 162/162/162
