g MilkMachineStool
v -0.21537 -0.351563 0.17195
v -0.304384 -0.418836 0.291882
v -0.257749 -0.388758 0.391895
v -0.344337 -0.436473 0.181034
v -0.401092 -0.435864 -0.186953
v -0.450492 -0.474251 -0.179834
v -0.454211 -0.367742 -0.189256
v -0.21537 -0.351563 0.17195
v -0.503611 -0.406128 -0.182136
v -0.335513 -0.197485 0.166743
v -0.46448 -0.282394 0.175827
v -0.397292 -0.2098 0.385848
v -0.443927 -0.239877 0.285834
v -0.257749 -0.388758 0.391895
v -0.443927 -0.239877 0.285834
v -0.397292 -0.2098 0.385848
v -0.304384 -0.418836 0.291882
v -0.46448 -0.282394 0.175827
v -0.344337 -0.436473 0.181034
v -0.503611 -0.406128 -0.182136
v -0.450492 -0.474251 -0.179834
v 0.21537 -0.351563 0.17195
v 0.257749 -0.388758 0.391895
v 0.304384 -0.418836 0.291882
v 0.344337 -0.436473 0.181034
v 0.401092 -0.435864 -0.186953
v 0.450492 -0.474251 -0.179834
v 0.454211 -0.367742 -0.189256
v 0.21537 -0.351563 0.17195
v 0.503611 -0.406128 -0.182136
v 0.335513 -0.197485 0.166743
v 0.46448 -0.282394 0.175827
v 0.397292 -0.2098 0.385848
v 0.443927 -0.239877 0.285834
v 0.257749 -0.388758 0.391895
v 0.397292 -0.2098 0.385848
v 0.443927 -0.239877 0.285834
v 0.304384 -0.418836 0.291882
v 0.46448 -0.282394 0.175827
v 0.344337 -0.436473 0.181034
v 0.503611 -0.406128 -0.182136
v 0.450492 -0.474251 -0.179834
v -0.21537 0.351563 0.17195
v -0.257749 0.388758 0.391895
v -0.304384 0.418836 0.291882
v -0.344337 0.436473 0.181034
v -0.401092 0.435864 -0.186953
v -0.450492 0.474251 -0.179834
v -0.454211 0.367742 -0.189256
v -0.21537 0.351563 0.17195
v -0.503611 0.406128 -0.182136
v -0.335513 0.197485 0.166743
v -0.46448 0.282394 0.175827
v -0.397292 0.2098 0.385848
v -0.443927 0.239877 0.285834
v -0.257749 0.388758 0.391895
v -0.397292 0.2098 0.385848
v -0.443927 0.239877 0.285834
v -0.304384 0.418836 0.291882
v -0.46448 0.282394 0.175827
v -0.344337 0.436473 0.181034
v -0.503611 0.406128 -0.182136
v -0.450492 0.474251 -0.179834
v 0.21537 0.351563 0.17195
v 0.304384 0.418836 0.291882
v 0.257749 0.388758 0.391895
v 0.344337 0.436473 0.181034
v 0.401092 0.435864 -0.186953
v 0.450492 0.474251 -0.179834
v 0.454211 0.367742 -0.189256
v 0.21537 0.351563 0.17195
v 0.503611 0.406128 -0.182136
v 0.335513 0.197485 0.166743
v 0.46448 0.282394 0.175827
v 0.397292 0.2098 0.385848
v 0.443927 0.239877 0.285834
v 0.257749 0.388758 0.391895
v 0.443927 0.239877 0.285834
v 0.397292 0.2098 0.385848
v 0.304384 0.418836 0.291882
v 0.46448 0.282394 0.175827
v 0.344337 0.436473 0.181034
v 0.503611 0.406128 -0.182136
v 0.450492 0.474251 -0.179834
vt 0.952913 0.5
vt 0.952913 0.98765
vt 0.952913 0.98765
vt 0.952913 0.5
vt 0.952913 0.01235
vt 0.952913 0.01235
vt 0.047087 0.01235
vt 0.952913 0.5
vt 0.047087 0.01235
vt 0.047087 0.5
vt 0.047087 0.5
vt 0.047087 0.98765
vt 0.047087 0.98765
vt 0.952913 0.98765
vt 0.047087 0.98765
vt 0.047087 0.98765
vt 0.952913 0.98765
vt 0.047087 0.5
vt 0.952913 0.5
vt 0.047087 0.01235
vt 0.952913 0.01235
vt 0.952913 0.5
vt 0.952913 0.98765
vt 0.952913 0.98765
vt 0.952913 0.5
vt 0.952913 0.01235
vt 0.952913 0.01235
vt 0.047087 0.01235
vt 0.952913 0.5
vt 0.047087 0.01235
vt 0.047087 0.5
vt 0.047087 0.5
vt 0.047087 0.98765
vt 0.047087 0.98765
vt 0.952913 0.98765
vt 0.047087 0.98765
vt 0.047087 0.98765
vt 0.952913 0.98765
vt 0.047087 0.5
vt 0.952913 0.5
vt 0.047087 0.01235
vt 0.952913 0.01235
vt 0.952913 0.5
vt 0.952913 0.98765
vt 0.952913 0.98765
vt 0.952913 0.5
vt 0.952913 0.01235
vt 0.952913 0.01235
vt 0.047087 0.01235
vt 0.952913 0.5
vt 0.047087 0.01235
vt 0.047087 0.5
vt 0.047087 0.5
vt 0.047087 0.98765
vt 0.047087 0.98765
vt 0.952913 0.98765
vt 0.047087 0.98765
vt 0.047087 0.98765
vt 0.952913 0.98765
vt 0.047087 0.5
vt 0.952913 0.5
vt 0.047087 0.01235
vt 0.952913 0.01235
vt 0.952913 0.5
vt 0.952913 0.98765
vt 0.952913 0.98765
vt 0.952913 0.5
vt 0.952913 0.01235
vt 0.952913 0.01235
vt 0.047087 0.01235
vt 0.952913 0.5
vt 0.047087 0.01235
vt 0.047087 0.5
vt 0.047087 0.5
vt 0.047087 0.98765
vt 0.047087 0.98765
vt 0.952913 0.98765
vt 0.047087 0.98765
vt 0.047087 0.98765
vt 0.952913 0.98765
vt 0.047087 0.5
vt 0.952913 0.5
vt 0.047087 0.01235
vt 0.952913 0.01235
vn 0.5623834 -0.8243198 -0.06497499
vn 0.5633527 -0.8250093 -0.04464671
vn 0.5633527 -0.8250093 -0.04464671
vn 0.5621 -0.8240901 -0.070136
vn 0.6276291 -0.2458886 -0.7386613
vn 0.3009473 -0.5808722 -0.7563189
vn -0.0129815 0.6402213 -0.7680808
vn 0.6975619 0.5275406 -0.4848797
vn -0.4001308 0.4271422 -0.8108298
vn -0.08627556 0.9241452 -0.3721724
vn -0.5371853 0.8247524 -0.1766789
vn -0.4904943 0.8600653 -0.140368
vn -0.4904943 0.8600653 -0.140368
vn -0.6978742 -0.5278074 0.4841395
vn -0.7211803 -0.5480197 0.423761
vn -0.6978742 -0.5278074 0.4841395
vn -0.7205113 -0.5474341 0.4256517
vn -0.7510274 -0.5746227 0.3252177
vn -0.7512835 -0.5748563 0.3242118
vn -0.7605798 -0.5834372 0.2848148
vn -0.7605797 -0.5834372 0.2848147
vn -0.5623834 -0.8243198 -0.064975
vn -0.5633527 -0.8250093 -0.04464673
vn -0.5633527 -0.8250093 -0.04464672
vn -0.5621 -0.8240901 -0.07013602
vn -0.6276291 -0.2458886 -0.7386613
vn -0.3009473 -0.5808722 -0.7563189
vn 0.01298152 0.6402213 -0.7680808
vn -0.6975619 0.5275406 -0.4848797
vn 0.4001308 0.4271421 -0.8108298
vn 0.08627556 0.9241452 -0.3721724
vn 0.5371853 0.8247524 -0.1766789
vn 0.4904943 0.8600652 -0.140368
vn 0.4904943 0.8600652 -0.140368
vn 0.6978741 -0.5278073 0.4841396
vn 0.6978742 -0.5278074 0.4841396
vn 0.7211803 -0.5480197 0.423761
vn 0.7205113 -0.5474341 0.4256517
vn 0.7510274 -0.5746227 0.3252177
vn 0.7512835 -0.5748564 0.3242118
vn 0.7605798 -0.5834372 0.2848148
vn 0.7605798 -0.5834372 0.2848148
vn 0.5623834 0.8243198 -0.06497499
vn 0.5633528 0.8250093 -0.04464673
vn 0.5633527 0.8250093 -0.04464673
vn 0.5621 0.8240901 -0.070136
vn 0.6276291 0.2458887 -0.7386612
vn 0.3009473 0.5808722 -0.7563189
vn -0.01298149 -0.6402213 -0.7680808
vn 0.697562 -0.5275406 -0.4848797
vn -0.4001309 -0.4271421 -0.8108298
vn -0.08627551 -0.9241452 -0.3721723
vn -0.5371853 -0.8247524 -0.1766789
vn -0.4904943 -0.8600652 -0.140368
vn -0.4904943 -0.8600652 -0.140368
vn -0.6978742 0.5278074 0.4841395
vn -0.6978742 0.5278074 0.4841395
vn -0.7211803 0.5480197 0.423761
vn -0.7205113 0.5474341 0.4256517
vn -0.7510274 0.5746227 0.3252177
vn -0.7512835 0.5748564 0.3242118
vn -0.7605797 0.5834372 0.2848148
vn -0.7605797 0.5834372 0.2848148
vn -0.5623834 0.8243198 -0.064975
vn -0.5633527 0.8250093 -0.04464672
vn -0.5633527 0.8250093 -0.04464673
vn -0.5621 0.8240901 -0.07013602
vn -0.6276291 0.2458887 -0.7386612
vn -0.3009473 0.5808722 -0.7563189
vn 0.01298154 -0.6402213 -0.7680808
vn -0.697562 -0.5275406 -0.4848797
vn 0.4001309 -0.4271421 -0.8108298
vn 0.08627556 -0.9241452 -0.3721724
vn 0.5371853 -0.8247524 -0.1766789
vn 0.4904943 -0.8600652 -0.140368
vn 0.4904943 -0.8600652 -0.140368
vn 0.6978742 0.5278073 0.4841395
vn 0.7211803 0.5480197 0.423761
vn 0.6978742 0.5278073 0.4841395
vn 0.7205113 0.5474341 0.4256517
vn 0.7510274 0.5746227 0.3252177
vn 0.7512835 0.5748563 0.3242119
vn 0.7605798 0.5834372 0.2848149
vn 0.7605798 0.5834372 0.2848149
g MilkMachineStool_0
f 3/3/3 2/2/2 1/1/1
f 2/2/2 4/4/4 1/1/1
f 1/1/1 4/4/4 5/5/5
f 4/4/4 6/6/6 5/5/5
f 5/5/5 6/6/6 7/7/7
f 8/8/8 5/5/5 7/7/7
f 6/6/6 9/9/9 7/7/7
f 10/10/10 8/8/8 7/7/7
f 7/7/7 9/9/9 10/10/10
f 9/9/9 11/11/11 10/10/10
f 10/10/10 11/11/11 12/12/12
f 11/11/11 13/13/13 12/12/12
f 16/16/16 15/15/15 14/14/14
f 15/15/15 17/17/17 14/14/14
f 17/17/17 15/15/15 18/18/18
f 19/19/19 17/17/17 18/18/18
f 19/19/19 18/18/18 20/20/20
f 21/21/21 19/19/19 20/20/20
f 24/24/24 23/23/23 22/22/22
f 25/25/25 24/24/24 22/22/22
f 25/25/25 22/22/22 26/26/26
f 27/27/27 25/25/25 26/26/26
f 27/27/27 26/26/26 28/28/28
f 26/26/26 29/29/29 28/28/28
f 30/30/30 27/27/27 28/28/28
f 29/29/29 31/31/31 28/28/28
f 30/30/30 28/28/28 31/31/31
f 32/32/32 30/30/30 31/31/31
f 32/32/32 31/31/31 33/33/33
f 34/34/34 32/32/32 33/33/33
f 37/37/37 36/36/36 35/35/35
f 38/38/38 37/37/37 35/35/35
f 37/37/37 38/38/38 39/39/39
f 38/38/38 40/40/40 39/39/39
f 39/39/39 40/40/40 41/41/41
f 40/40/40 42/42/42 41/41/41
f 45/45/45 44/44/44 43/43/43
f 46/46/46 45/45/45 43/43/43
f 46/46/46 43/43/43 47/47/47
f 48/48/48 46/46/46 47/47/47
f 48/48/48 47/47/47 49/49/49
f 47/47/47 50/50/50 49/49/49
f 51/51/51 48/48/48 49/49/49
f 50/50/50 52/52/52 49/49/49
f 51/51/51 49/49/49 52/52/52
f 53/53/53 51/51/51 52/52/52
f 53/53/53 52/52/52 54/54/54
f 55/55/55 53/53/53 54/54/54
f 58/58/58 57/57/57 56/56/56
f 59/59/59 58/58/58 56/56/56
f 58/58/58 59/59/59 60/60/60
f 59/59/59 61/61/61 60/60/60
f 60/60/60 61/61/61 62/62/62
f 61/61/61 63/63/63 62/62/62
f 66/66/66 65/65/65 64/64/64
f 65/65/65 67/67/67 64/64/64
f 64/64/64 67/67/67 68/68/68
f 67/67/67 69/69/69 68/68/68
f 68/68/68 69/69/69 70/70/70
f 71/71/71 68/68/68 70/70/70
f 69/69/69 72/72/72 70/70/70
f 73/73/73 71/71/71 70/70/70
f 70/70/70 72/72/72 73/73/73
f 72/72/72 74/74/74 73/73/73
f 73/73/73 74/74/74 75/75/75
f 74/74/74 76/76/76 75/75/75
f 79/79/79 78/78/78 77/77/77
f 78/78/78 80/80/80 77/77/77
f 80/80/80 78/78/78 81/81/81
f 82/82/82 80/80/80 81/81/81
f 82/82/82 81/81/81 83/83/83
f 84/84/84 82/82/82 83/83/83
