g MilkInsidemachine
v 0.423494 0.423494 0.833638
v 0.598911 0 0.833638
v 0.423494 -0.423494 0.833638
v 0 0.598911 0.833638
v 0 -0.598911 0.833638
v -0.423494 0.423494 0.833638
v -0.423494 -0.423494 0.833638
v -0.598911 0 0.833638
vt 0 0
vt 0 0
vt 0 0
vt 0 0
vt 0 0
vt 0 0
vt 0 0
vt 0 0
vn 0 0 1
vn 0 0 1
vn 0 0 1
vn 0 0 1
vn 0 0 1
vn 0 0 1
vn 0 0 1
vn 0 0 1
g MilkInsidemachine_0
f 3/3/3 2/2/2 1/1/1
f 1/1/1 4/4/4 3/3/3
f 4/4/4 5/5/5 3/3/3
f 4/4/4 6/6/6 5/5/5
f 6/6/6 7/7/7 5/5/5
f 6/6/6 8/8/8 7/7/7
