g MineWallNoNeighbour
v -0.5 0.190926 -0.25
v 0.5 0.190926 -0.25
v 0.29735 -0.190926 -0.25
v -0.29735 -0.190926 -0.25
v -0.29735 -0.190926 -0.25
v -0.167755 -0.44611 -0.685857
v -0.167755 -0.44611 -1.371555
v -0.29735 -0.190926 -1.847557
v 0.29735 -0.190926 -0.25
v 0.414373 -0.205316 -0.444999
v 0.414373 -0.205316 -1.795107
v 0.29735 -0.190926 -2.10789
v 0.5 0.190926 -0.25
v -0.5 0.190926 -0.25
v -0.5 0.190926 -1.924249
v 0.5 0.190926 -2.287695
v -0.5 0.190926 -0.25
v -0.586963 0.099602 -0.434618
v -0.586963 0.099602 -1.630257
v -0.5 0.190926 -1.924249
v -0.515744 0.200793 -3.65045
v -0.733644 0.163212 -3.740197
v -1.351014 0.403872 -4.302266
v -1.155998 0.602057 -4.252811
v 0.29735 -0.190926 -0.25
v -0.167755 -0.44611 -0.685857
v -0.29735 -0.190926 -0.25
v 0.167755 -0.44611 -0.685857
v 0.167755 -0.44611 -1.558704
v -0.167755 -0.44611 -1.371555
v -0.29735 -0.190926 -1.847557
v 0.29735 -0.190926 -2.10789
v 0.29735 -0.190926 -2.10789
v 0.167755 -0.44611 -1.558704
v 0.167755 -0.44611 -0.685857
v 0.29735 -0.190926 -0.25
v -0.173884 -0.505162 -2.821942
v -0.29735 -0.190926 -1.847557
v 0.29735 -0.190926 -2.10789
v 0.173884 -0.505162 -2.674355
v -0.173884 -0.505162 -3.528741
v 0.173884 -0.505162 -3.454948
v -0.173884 -0.505162 -3.528741
v -0.29735 -0.190926 -3.048832
v -0.29735 -0.190926 -1.847557
v -0.173884 -0.505162 -2.821942
v 0.5 0.190926 -0.25
v 0.414373 -0.205316 -0.444999
v 0.29735 -0.190926 -0.25
v 0.577509 0.102079 -0.444999
v 0.577509 0.102079 -2.028186
v 0.414373 -0.205316 -1.795107
v 0.29735 -0.190926 -2.10789
v 0.5 0.190926 -2.287695
v 0.5 0.190926 -2.287695
v 0.577509 0.102079 -2.028186
v 0.577509 0.102079 -0.444999
v 0.5 0.190926 -0.25
v 0.5 0.190926 -2.287695
v 0.421585 -0.219015 -2.704295
v 0.29735 -0.190926 -2.10789
v 0.592895 0.103785 -2.64787
v 0.421585 -0.219015 -3.468606
v 0.592895 0.103785 -3.440393
v 0.5 0.190926 -3.268901
v 0.592895 0.103785 -3.440393
v 0.592895 0.103785 -2.64787
v 0.5 0.190926 -2.287695
v -0.29735 -0.190926 -0.25
v -0.586963 0.099602 -0.434618
v -0.5 0.190926 -0.25
v -0.421724 -0.211758 -0.434618
v -0.421724 -0.211758 -1.482424
v -0.586963 0.099602 -1.630257
v -0.5 0.190926 -1.924249
v -0.29735 -0.190926 -1.847557
v -0.29735 -0.190926 -1.847557
v -0.421724 -0.211758 -1.482424
v -0.421724 -0.211758 -0.434618
v -0.29735 -0.190926 -0.25
v -0.542228 -0.239875 -3.720595
v -1.351014 0.403872 -4.302266
v -0.733644 0.163212 -3.740197
v -0.961657 -0.329793 -4.302266
v -1.351014 0.403872 -5.078377
v -0.961657 -0.329793 -5.078377
v -0.29735 -0.190926 -1.847557
v -0.584486 0.105068 -2.558398
v -0.5 0.190926 -1.924249
v -0.415807 -0.212772 -2.558398
v -0.584486 0.105068 -3.414965
v -0.415807 -0.212772 -3.414965
v -0.733644 0.163212 -3.740197
v -0.542228 -0.239875 -3.720595
v -0.29735 -0.190926 -3.048832
v -0.415807 -0.212772 -2.558398
v -0.29735 -0.190926 -1.847557
v -0.415807 -0.212772 -3.414965
v -0.306221 -0.192933 -3.631698
v -0.542228 -0.239875 -3.720595
v 0.564789 0.231762 -3.696021
v 0.592895 0.103785 -3.440393
v 0.5 0.190926 -3.268901
v 0.771719 0.172448 -3.712279
v 1.152285 0.602057 -4.252811
v 1.366714 0.400909 -4.21313
v 1.366714 0.400909 -4.989242
v 1.152285 0.602057 -5.028923
v -0.248346 -0.667352 -3.72672
v -0.29735 -0.190926 -3.048832
v -0.173884 -0.505162 -3.528741
v -0.306221 -0.192933 -3.631698
v -0.40323 -1.004711 -4.219186
v -0.688224 -0.279367 -4.252811
v -0.688224 -0.279367 -5.028923
v -0.40323 -1.004711 -4.995297
v 0.173884 -0.505162 -2.674355
v 0.29735 -0.190926 -2.10789
v 0.29735 -0.190926 -3.178999
v 0.173884 -0.505162 -3.454948
v -0.5 0.190926 -1.924249
v -0.584486 0.105068 -2.558398
v -0.584486 0.105068 -3.414965
v -0.5 0.190926 -3.087178
v -0.733644 0.163212 -3.740197
v -0.515744 0.200793 -3.65045
v 0.29735 -0.190926 -2.10789
v 0.421585 -0.219015 -2.704295
v 0.421585 -0.219015 -3.468606
v 0.29735 -0.190926 -3.178999
v -0.688224 -0.279367 -4.252811
v -0.542228 -0.239875 -3.720595
v -0.306221 -0.192933 -3.631698
v -0.961657 -0.329793 -4.302266
v -0.961657 -0.329793 -5.078377
v -0.688224 -0.279367 -5.028923
v 0.592895 0.103785 -3.440393
v 0.571092 -0.253064 -3.709398
v 0.421585 -0.219015 -3.468606
v 0.771719 0.172448 -3.712279
v 0.971281 -0.344204 -4.21313
v 1.366714 0.400909 -4.21313
v 0.971281 -0.344204 -4.989242
v 1.366714 0.400909 -4.989242
v 0.173884 -0.505162 -3.454948
v 0.29735 -0.190926 -3.178999
v 0.325285 -0.197307 -3.664195
v 0.232102 -0.634055 -3.709275
v 0.684512 -0.279367 -4.252811
v 0.399518 -1.004711 -4.219186
v 0.399518 -1.004711 -4.995297
v 0.684512 -0.279367 -5.028923
v 0.173884 -0.505162 -3.454948
v -0.248346 -0.667352 -3.72672
v -0.173884 -0.505162 -3.528741
v 0.232102 -0.634055 -3.709275
v -0.40323 -1.004711 -4.219186
v 0.399518 -1.004711 -4.219186
v -0.40323 -1.004711 -4.995297
v 0.399518 -1.004711 -4.995297
v 0.29735 -0.190926 -3.178999
v 0.421585 -0.219015 -3.468606
v 0.571092 -0.253064 -3.709398
v 0.325285 -0.197307 -3.664195
v 0.971281 -0.344204 -4.21313
v 0.684512 -0.279367 -4.252811
v 0.684512 -0.279367 -5.028923
v 0.971281 -0.344204 -4.989242
v -1.351014 0.403872 -4.302266
v -1.351014 0.403872 -5.078377
v -1.155998 0.602057 -5.028923
v -1.155998 0.602057 -4.252811
vt 0.0001 0.9999
vt 0.9999 0.9999
vt 0.9999 0.0001
vt 0.0001 0.0001
vt 7E-05 0.99993
vt 0.137543 0.742329
vt 0.148955 0.24569
vt 7E-05 0.004856
vt 5.3E-05 0.999947
vt 0.056749 0.882461
vt 0.06023 0.121387
vt 5.3E-05 0.003486
vt 9.4E-05 0.8749
vt 0.999907 0.8749
vt 0.999907 6.4E-05
vt 9.3E-05 6.4E-05
vt 5.4E-05 0.999946
vt 0.060915 0.871166
vt 0.066759 0.127994
vt 0.001745 0.000571
vt 8.5E-05 0.832079
vt 0.075638 0.739714
vt 0.126897 0.339062
vt 8.5E-05 0.348871
vt 0.493448 0.995143
vt 0.137543 0.742329
vt 7E-05 0.99993
vt 0.344564 0.75431
vt 0.355975 0.25767
vt 0.148955 0.24569
vt 7E-05 0.004856
vt 0.493448 7E-05
vt 0.493448 7E-05
vt 0.355975 0.25767
vt 0.344564 0.75431
vt 0.493448 0.995143
vt 0.192587 0.431616
vt 8.1E-05 0.999919
vt 0.397101 0.916647
vt 0.373071 0.537926
vt 0.270415 8.1E-05
vt 0.487903 0.092698
vt 0.270415 8.1E-05
vt 8.1E-05 0.276281
vt 8.1E-05 0.999919
vt 0.192587 0.431616
vt 0.283286 0.999403
vt 0.056749 0.882461
vt 5.3E-05 0.999947
vt 0.22264 0.872422
vt 0.227177 0.127681
vt 0.06023 0.121387
vt 5.3E-05 0.003486
vt 0.284513 5.3E-05
vt 0.284513 5.3E-05
vt 0.227177 0.127681
vt 0.22264 0.872422
vt 0.283286 0.999403
vt 0.36941 0.890865
vt 0.088417 0.565063
vt 7.4E-05 0.999931
vt 0.326421 0.610432
vt 0.104906 6.9E-05
vt 0.400326 0.041118
vt 0.481322 0.186034
vt 0.400326 0.041118
vt 0.326421 0.610432
vt 0.36941 0.890865
vt 0.293851 0.994752
vt 0.060915 0.871166
vt 5.4E-05 0.999946
vt 0.229375 0.87786
vt 0.233801 0.116764
vt 0.066759 0.127994
vt 0.001745 0.000571
vt 0.293841 5.4E-05
vt 0.293841 5.4E-05
vt 0.233801 0.116764
vt 0.229375 0.87786
vt 0.293851 0.994752
vt 0.285293 0.870807
vt 0.126897 0.339062
vt 0.075638 0.739714
vt 0.399431 0.533982
vt 0.253292 0.02562
vt 0.621739 0.235461
vt 0.225646 0.999941
vt 0.030559 0.621568
vt 6E-05 0.954897
vt 0.211491 0.633523
vt 0.0689 0.177937
vt 0.266137 0.179311
vt 5.9E-05 0.000269
vt 0.234834 5.9E-05
vt 0.304425 0.391775
vt 0.211491 0.633523
vt 0.225646 0.999941
vt 0.266137 0.179311
vt 0.34646 0.070933
vt 0.234834 5.9E-05
vt 0.305744 0.250028
vt 0.241997 0.494964
vt 0.305744 0.5
vt 0.240628 0.304801
vt 0.305744 5.5E-05
vt 0.239259 0.114638
vt 0.239259 0.114638
vt 0.305744 5.5E-05
vt 0.096735 0.294313
vt 6.9E-05 0.496205
vt 0.094587 0.492226
vt 6.9E-05 0.248137
vt 0.098883 0.0964
vt 6.9E-05 6.9E-05
vt 6.9E-05 6.9E-05
vt 0.098883 0.0964
vt 0.373071 0.537926
vt 0.397101 0.916647
vt 0.655973 0.331184
vt 0.487903 0.092698
vt 5.5E-05 0.995679
vt 0.058946 0.837731
vt 0.061926 0.453374
vt 0.002373 0.497867
vt 0.063416 0.261196
vt 0.003533 0.248961
vt 7.4E-05 0.999931
vt 0.088417 0.565063
vt 0.104906 6.9E-05
vt 6.9E-05 0.220413
vt 0.467936 0.648661
vt 0.285293 0.870807
vt 0.318624 0.999915
vt 0.399431 0.533982
vt 0.621739 0.235461
vt 0.721908 0.348567
vt 0.241997 0.494964
vt 0.066896 0.299192
vt 0.067486 0.494006
vt 0.240628 0.304801
vt 0.066305 0.104378
vt 0.239259 0.114638
vt 0.066305 0.104378
vt 0.239259 0.114638
vt 0.379904 0.507774
vt 0.474422 0.503795
vt 0.474422 0.255726
vt 0.382052 0.309861
vt 0.474422 0.007658
vt 0.3842 0.111948
vt 0.3842 0.111948
vt 0.474422 0.007658
vt 0.379904 0.507774
vt 0.096735 0.294313
vt 0.094587 0.492226
vt 0.382052 0.309861
vt 0.098883 0.0964
vt 0.3842 0.111948
vt 0.098883 0.0964
vt 0.3842 0.111948
vt 0.004646 0.499271
vt 0.067486 0.494006
vt 0.066896 0.299192
vt 0.002351 0.251162
vt 0.066305 0.104378
vt 5.5E-05 0.003053
vt 5.5E-05 0.003053
vt 0.066305 0.104378
vt 0.126897 0.339062
vt 0.253292 0.02562
vt 0.109468 8.5E-05
vt 8.5E-05 0.348871
vn 0 0 1
vn 0 0 1
vn 0 0 1
vn 0 0 1
vn -0.8916103 -0.4528036 0
vn -0.8916103 -0.4528036 0
vn -0.8916103 -0.4528036 0
vn -0.8916103 -0.4528036 0
vn -0.122048 -0.9925242 0
vn -0.122048 -0.9925242 0
vn -0.122048 -0.9925242 0
vn -0.122048 -0.9925242 0
vn 0 1 0
vn -0.2136827 0.9769032 0
vn -0.1322818 0.9912122 0
vn 0 1 0
vn -0.2136827 0.9769032 0
vn -0.7241864 0.6896043 0
vn -0.7241864 0.6896043 0
vn -0.1322818 0.9912122 0
vn -0.5726576 0.7474306 0.3367654
vn -0.5362681 0.5360885 0.6519399
vn -0.4946178 0.4155881 0.7633084
vn -0.4946178 0.4155881 0.7633084
vn 0 -0.8629729 0.5052503
vn 0 -0.9596866 0.2810722
vn 0 -0.8629729 0.5052503
vn 0 -0.9596866 0.2810722
vn -0.1460927 -0.941503 -0.3036923
vn -0.08529395 -0.9804527 -0.1773061
vn -0.2096227 -0.8753139 -0.4357564
vn -0.2096227 -0.8753139 -0.4357564
vn 0.8916103 -0.4528036 0
vn 0.8916103 -0.4528036 0
vn 0.8916103 -0.4528036 0
vn 0.8916103 -0.4528037 0
vn 0.01833786 -0.9880111 0.1532902
vn 0.04513364 -0.9249979 0.3772821
vn 0.04513364 -0.9249979 0.3772821
vn 0.02952031 -0.9686252 0.2467668
vn -0.01607214 -0.9416364 0.3362478
vn -0.01271223 -0.9639018 0.2659546
vn -0.9291888 -0.3429023 0.1379351
vn -0.9320301 -0.3608483 0.03329218
vn -0.9307352 -0.3656938 0
vn -0.9307352 -0.3656938 0
vn 0.769155 -0.4081934 0.4917101
vn 0.8509073 -0.4515801 0.2683879
vn 0.769155 -0.4081934 0.4917101
vn 0.8509075 -0.4515802 0.2683874
vn 0.7851148 -0.5665549 -0.2502207
vn 0.8436898 -0.5222331 -0.1243384
vn 0.8214906 -0.5555502 -0.1285188
vn 0.8604923 -0.5085096 0.03115941
vn 0.7535516 0.6573889 0
vn 0.7535516 0.6573888 0
vn 0.7535516 0.6573888 0
vn 0.7535516 0.6573888 0
vn 0.8604923 -0.5085096 0.03115941
vn 0.8856331 -0.4497611 0.1156243
vn 0.8214906 -0.5555502 -0.1285188
vn 0.8845387 -0.4448502 0.1403549
vn 0.8587261 -0.4504111 0.2443751
vn 0.8541938 -0.4475649 0.2646479
vn 0.6675633 0.7418702 0.06314973
vn 0.5980859 0.7597218 0.2551786
vn 0.6841583 0.7293336 0
vn 0.6841583 0.7293336 0
vn -0.7412978 -0.3934084 0.5437898
vn -0.8429598 -0.44736 0.2988107
vn -0.7412978 -0.3934084 0.5437898
vn -0.8429597 -0.4473599 0.2988109
vn -0.8559179 -0.4986227 -0.1370398
vn -0.8304946 -0.5118891 -0.2196554
vn -0.8656936 -0.497772 -0.0528928
vn -0.8542745 -0.5071698 -0.1139908
vn 0.1651936 -0.9862612 0
vn 0.1651936 -0.9862612 0
vn 0.1651936 -0.9862612 0
vn 0.1651936 -0.9862612 0
vn -0.7934467 -0.390066 0.4672161
vn -0.8616992 -0.4475544 0.2391015
vn -0.7678049 -0.3786891 0.5167886
vn -0.8384986 -0.431418 0.3328645
vn -0.8833165 -0.4687773 0
vn -0.8833165 -0.4687773 0
vn -0.8542745 -0.5071698 -0.1139908
vn -0.8839165 -0.459675 0.08596831
vn -0.8656936 -0.497772 -0.0528928
vn -0.8839213 -0.4596943 0.08581524
vn -0.8746557 -0.444241 0.1939772
vn -0.8775339 -0.4481835 0.1704866
vn -0.7678049 -0.3786891 0.5167886
vn -0.7934467 -0.390066 0.4672161
vn 0.1817776 -0.9833395 0.000379453
vn 0.1813629 -0.9834162 0
vn 0.1813629 -0.9834162 0
vn 0.1852459 -0.9826858 0.003555072
vn 0.1846384 -0.9827675 0.008769283
vn 0.1825979 -0.9830139 0.01848403
vn 0.5002317 0.725233 0.4730806
vn 0.5980859 0.7597218 0.2551786
vn 0.6675633 0.7418702 0.06314973
vn 0.4182434 0.6714828 0.6117052
vn 0.558834 0.7314619 0.3907275
vn 0.5661532 0.7339061 0.375303
vn 0.6841597 0.7293322 0
vn 0.6841597 0.7293322 0
vn -0.8623922 -0.2843077 0.4188659
vn -0.9320301 -0.3608483 0.03329218
vn -0.9291888 -0.3429023 0.1379351
vn -0.8967913 -0.3089133 0.3167615
vn -0.916318 -0.3316098 0.224491
vn -0.912641 -0.3276434 0.2444102
vn -0.9307352 -0.3656939 0
vn -0.9307352 -0.365694 0
vn 0.9307352 -0.3656938 0
vn 0.9307352 -0.3656938 0
vn 0.9319515 -0.3593345 0.04842678
vn 0.9292349 -0.3472975 0.1261233
vn -0.7127789 0.7013889 0
vn -0.7127789 0.7013889 0
vn -0.5800275 0.8011469 0.1474171
vn -0.6981213 0.7157426 0.01841341
vn -0.5362681 0.5360885 0.6519399
vn -0.5726576 0.7474306 0.3367654
vn -0.2205293 -0.9753803 0
vn -0.2205293 -0.9753803 0
vn -0.2206356 -0.9753562 0.0003397968
vn -0.2205432 -0.9753772 4.46011E-05
vn 0.1815309 -0.9832795 0.01441921
vn 0.1825979 -0.9830139 0.01848403
vn 0.1846384 -0.9827675 0.008769283
vn 0.1814478 -0.9833756 0.007010314
vn 0.18136 -0.9834168 0
vn 0.1813599 -0.9834168 0
vn 0.8541938 -0.4475649 0.2646479
vn 0.7430469 -0.3811828 0.5500736
vn 0.8587261 -0.4504111 0.2443751
vn 0.7240923 -0.3699104 0.5821139
vn 0.8298574 -0.431266 0.3540429
vn 0.8577541 -0.4487368 0.2507856
vn 0.8833162 -0.4687777 0
vn 0.8833162 -0.4687777 0
vn 0.9292349 -0.3472975 0.1261233
vn 0.9319515 -0.3593345 0.04842678
vn 0.8898181 -0.312684 0.3323439
vn 0.8665352 -0.298218 0.4002282
vn 0.9098206 -0.3327551 0.2479928
vn 0.9142159 -0.3367305 0.2254371
vn 0.9307352 -0.365694 0
vn 0.9307352 -0.365694 0
vn -0.01271223 -0.9639018 0.2659546
vn -0.001998042 -0.8261861 0.5633938
vn -0.01607214 -0.9416364 0.3362478
vn -0.004264015 -0.8275598 0.5613614
vn 0.006383846 -0.9611406 0.2759855
vn 0.006368621 -0.9613293 0.2753274
vn 0 -1 0
vn 0 -1 0
vn -0.2205432 -0.9753772 4.46011E-05
vn -0.2206356 -0.9753562 0.0003397968
vn -0.2207869 -0.9753217 0.0009314449
vn -0.2207081 -0.9753397 0.0006172727
vn -0.2206552 -0.9753518 0.0004638918
vn -0.220693 -0.9753432 0.0006021283
vn -0.2205286 -0.9753805 0
vn -0.2205286 -0.9753805 0
vn -0.7127825 0.7013852 0
vn -0.7127825 0.7013852 0
vn -0.7127825 0.7013852 0
vn -0.7127825 0.7013852 0
g MineWallNoNeighbour_0
f 3/3/3 2/2/2 1/1/1
f 4/4/4 3/3/3 1/1/1
g MineWallNoNeighbour_1
f 7/7/7 6/6/6 5/5/5
f 8/8/8 7/7/7 5/5/5
f 11/11/11 10/10/10 9/9/9
f 12/12/12 11/11/11 9/9/9
f 15/15/15 14/14/14 13/13/13
f 16/16/16 15/15/15 13/13/13
f 19/19/19 18/18/18 17/17/17
f 20/20/20 19/19/19 17/17/17
f 23/23/23 22/22/22 21/21/21
f 24/24/24 23/23/23 21/21/21
f 27/27/27 26/26/26 25/25/25
f 26/26/26 28/28/28 25/25/25
f 29/29/29 28/28/28 26/26/26
f 30/30/30 29/29/29 26/26/26
f 29/29/29 30/30/30 31/31/31
f 32/32/32 29/29/29 31/31/31
f 35/35/35 34/34/34 33/33/33
f 36/36/36 35/35/35 33/33/33
f 39/39/39 38/38/38 37/37/37
f 40/40/40 39/39/39 37/37/37
f 37/37/37 41/41/41 40/40/40
f 41/41/41 42/42/42 40/40/40
f 45/45/45 44/44/44 43/43/43
f 46/46/46 45/45/45 43/43/43
f 49/49/49 48/48/48 47/47/47
f 48/48/48 50/50/50 47/47/47
f 51/51/51 50/50/50 48/48/48
f 52/52/52 51/51/51 48/48/48
f 51/51/51 52/52/52 53/53/53
f 54/54/54 51/51/51 53/53/53
f 57/57/57 56/56/56 55/55/55
f 58/58/58 57/57/57 55/55/55
f 61/61/61 60/60/60 59/59/59
f 60/60/60 62/62/62 59/59/59
f 60/60/60 63/63/63 62/62/62
f 63/63/63 64/64/64 62/62/62
f 67/67/67 66/66/66 65/65/65
f 68/68/68 67/67/67 65/65/65
f 71/71/71 70/70/70 69/69/69
f 70/70/70 72/72/72 69/69/69
f 73/73/73 72/72/72 70/70/70
f 74/74/74 73/73/73 70/70/70
f 73/73/73 74/74/74 75/75/75
f 76/76/76 73/73/73 75/75/75
f 79/79/79 78/78/78 77/77/77
f 80/80/80 79/79/79 77/77/77
f 83/83/83 82/82/82 81/81/81
f 82/82/82 84/84/84 81/81/81
f 82/82/82 85/85/85 84/84/84
f 85/85/85 86/86/86 84/84/84
f 89/89/89 88/88/88 87/87/87
f 88/88/88 90/90/90 87/87/87
f 88/88/88 91/91/91 90/90/90
f 91/91/91 92/92/92 90/90/90
f 91/91/91 93/93/93 92/92/92
f 93/93/93 94/94/94 92/92/92
f 97/97/97 96/96/96 95/95/95
f 96/96/96 98/98/98 95/95/95
f 95/95/95 98/98/98 99/99/99
f 98/98/98 100/100/100 99/99/99
f 103/103/103 102/102/102 101/101/101
f 102/102/102 104/104/104 101/101/101
f 101/101/101 104/104/104 105/105/105
f 104/104/104 106/106/106 105/105/105
f 106/106/106 107/107/107 105/105/105
f 107/107/107 108/108/108 105/105/105
f 111/111/111 110/110/110 109/109/109
f 110/110/110 112/112/112 109/109/109
f 109/109/109 112/112/112 113/113/113
f 112/112/112 114/114/114 113/113/113
f 114/114/114 115/115/115 113/113/113
f 115/115/115 116/116/116 113/113/113
f 119/119/119 118/118/118 117/117/117
f 120/120/120 119/119/119 117/117/117
f 123/123/123 122/122/122 121/121/121
f 124/124/124 123/123/123 121/121/121
f 125/125/125 123/123/123 124/124/124
f 126/126/126 125/125/125 124/124/124
f 129/129/129 128/128/128 127/127/127
f 130/130/130 129/129/129 127/127/127
f 133/133/133 132/132/132 131/131/131
f 132/132/132 134/134/134 131/131/131
f 134/134/134 135/135/135 131/131/131
f 135/135/135 136/136/136 131/131/131
f 139/139/139 138/138/138 137/137/137
f 138/138/138 140/140/140 137/137/137
f 138/138/138 141/141/141 140/140/140
f 141/141/141 142/142/142 140/140/140
f 141/141/141 143/143/143 142/142/142
f 143/143/143 144/144/144 142/142/142
f 147/147/147 146/146/146 145/145/145
f 148/148/148 147/147/147 145/145/145
f 149/149/149 147/147/147 148/148/148
f 150/150/150 149/149/149 148/148/148
f 150/150/150 151/151/151 149/149/149
f 151/151/151 152/152/152 149/149/149
f 155/155/155 154/154/154 153/153/153
f 154/154/154 156/156/156 153/153/153
f 154/154/154 157/157/157 156/156/156
f 157/157/157 158/158/158 156/156/156
f 157/157/157 159/159/159 158/158/158
f 159/159/159 160/160/160 158/158/158
f 163/163/163 162/162/162 161/161/161
f 164/164/164 163/163/163 161/161/161
f 165/165/165 163/163/163 164/164/164
f 166/166/166 165/165/165 164/164/164
f 166/166/166 167/167/167 165/165/165
f 167/167/167 168/168/168 165/165/165
f 171/171/171 170/170/170 169/169/169
f 172/172/172 171/171/171 169/169/169
