g MineControlFull
v 0.317666 0.397637 0.838043
v 0.344429 0.334895 0.848967
v 0.317666 0.272152 0.859891
v 0.252674 0.423778 0.833492
v 0.252674 0.246011 0.864443
v 0.187682 0.397637 0.838043
v 0.187682 0.272152 0.859891
v 0.160919 0.334895 0.848967
v 0.30861 0.144548 0.896388
v 0.335373 0.081805 0.907312
v 0.30861 0.019063 0.918236
v 0.243618 0.170689 0.891836
v 0.243618 -0.007078 0.922788
v 0.178626 0.144548 0.896388
v 0.178626 0.019063 0.918236
v 0.151863 0.081805 0.907312
v -0.178029 0.397637 0.838043
v -0.151266 0.334895 0.848967
v -0.178029 0.272152 0.859891
v -0.243021 0.423778 0.833492
v -0.243021 0.246011 0.864443
v -0.308013 0.397637 0.838043
v -0.308013 0.272152 0.859891
v -0.334776 0.334895 0.848967
v -0.187085 0.144548 0.896388
v -0.160322 0.081805 0.907312
v -0.187085 0.019063 0.918236
v -0.252077 0.170689 0.891836
v -0.252077 -0.007078 0.922788
v -0.317069 0.144548 0.896388
v -0.317069 0.019063 0.918236
v -0.343832 0.081805 0.907312
vt 0.18723 0.792096
vt 0.180116 0.789062
vt 0.173002 0.792096
vt 0.190194 0.799466
vt 0.170038 0.799466
vt 0.18723 0.806835
vt 0.173002 0.806835
vt 0.180116 0.80987
vt 0.149234 0.793456
vt 0.14212 0.790421
vt 0.135006 0.793456
vt 0.152198 0.800825
vt 0.132042 0.800825
vt 0.149234 0.808195
vt 0.135006 0.808195
vt 0.14212 0.811229
vt 0.18723 0.792796
vt 0.180116 0.789762
vt 0.173002 0.792796
vt 0.190195 0.800166
vt 0.170038 0.800166
vt 0.18723 0.807535
vt 0.173002 0.807535
vt 0.180116 0.81057
vt 0.149234 0.794156
vt 0.14212 0.791121
vt 0.135006 0.794156
vt 0.152198 0.801525
vt 0.132042 0.801525
vt 0.149234 0.808895
vt 0.135006 0.808895
vt 0.14212 0.811929
vn 0 0.1715282 0.9851792
vn 0 0.1715282 0.9851792
vn 0 0.1715293 0.985179
vn 0 0.1715292 0.985179
vn 0 0.1715292 0.985179
vn 0 0.1715293 0.985179
vn 0 0.1715282 0.9851792
vn 0 0.1715282 0.9851792
vn 0 0.1715282 0.9851792
vn 0 0.1715282 0.9851792
vn 0 0.1715336 0.9851783
vn 0 0.1715332 0.9851783
vn 0 0.1715332 0.9851783
vn 0 0.1715336 0.9851783
vn 0 0.1715282 0.9851792
vn 0 0.1715282 0.9851792
vn 0 0.1715282 0.9851792
vn 0 0.1715282 0.9851792
vn 0 0.1715293 0.985179
vn 0 0.1715292 0.985179
vn 0 0.1715292 0.985179
vn 0 0.1715293 0.985179
vn 0 0.1715282 0.9851792
vn 0 0.1715282 0.9851792
vn 0 0.1715282 0.9851792
vn 0 0.1715282 0.9851792
vn 0 0.1715336 0.9851783
vn 0 0.1715332 0.9851783
vn 0 0.1715332 0.9851783
vn 0 0.1715336 0.9851783
vn 0 0.1715282 0.9851792
vn 0 0.1715282 0.9851792
g MineControlFull_0
f 3/3/3 2/2/2 1/1/1
f 1/1/1 4/4/4 3/3/3
f 4/4/4 5/5/5 3/3/3
f 4/4/4 6/6/6 5/5/5
f 6/6/6 7/7/7 5/5/5
f 6/6/6 8/8/8 7/7/7
f 11/11/11 10/10/10 9/9/9
f 9/9/9 12/12/12 11/11/11
f 12/12/12 13/13/13 11/11/11
f 12/12/12 14/14/14 13/13/13
f 14/14/14 15/15/15 13/13/13
f 14/14/14 16/16/16 15/15/15
f 19/19/19 18/18/18 17/17/17
f 17/17/17 20/20/20 19/19/19
f 20/20/20 21/21/21 19/19/19
f 20/20/20 22/22/22 21/21/21
f 22/22/22 23/23/23 21/21/21
f 22/22/22 24/24/24 23/23/23
f 27/27/27 26/26/26 25/25/25
f 25/25/25 28/28/28 27/27/27
f 28/28/28 29/29/29 27/27/27
f 28/28/28 30/30/30 29/29/29
f 30/30/30 31/31/31 29/29/29
f 30/30/30 32/32/32 31/31/31
