g Monicle
v -0.243315 -0.380859 0.258083
v -0.243315 -0.395942 0.258083
v -0.101295 -0.39595 0.258075
v -0.101295 -0.380851 0.258075
v -0.227226 -0.383113 0.483532
v -0.227226 -0.393689 0.483532
v -0.120152 -0.393707 0.483568
v -0.120152 -0.383095 0.483568
v -0.120871 -0.383086 0.273092
v -0.120871 -0.393716 0.273092
v -0.223734 -0.393733 0.273057
v -0.223734 -0.383068 0.273057
v -0.100578 -0.380847 0.498626
v -0.045832 -0.395953 0.438379
v -0.100578 -0.395954 0.498626
v -0.045832 -0.380848 0.438379
v -0.046174 -0.380851 0.318262
v -0.046174 -0.395951 0.318262
v -0.101295 -0.39595 0.258075
v -0.101295 -0.380851 0.258075
v -0.299153 -0.395946 0.318146
v -0.243315 -0.395942 0.258083
v -0.243315 -0.380859 0.258083
v -0.299153 -0.380855 0.318146
v -0.300818 -0.380843 0.43828
v -0.300818 -0.395958 0.43828
v -0.246795 -0.395962 0.498635
v -0.246795 -0.380839 0.498635
v -0.120871 -0.383086 0.273092
v -0.059409 -0.393713 0.339348
v -0.120871 -0.393716 0.273092
v -0.059409 -0.383088 0.339348
v -0.059138 -0.383092 0.417093
v -0.059138 -0.393709 0.417093
v -0.120152 -0.393707 0.483568
v -0.120152 -0.383095 0.483568
v -0.286051 -0.38308 0.338888
v -0.223734 -0.383068 0.273057
v -0.223734 -0.393733 0.273057
v -0.286051 -0.393721 0.338888
v -0.287368 -0.393702 0.416638
v -0.287368 -0.3831 0.416638
v -0.227226 -0.383113 0.483532
v -0.227226 -0.393689 0.483532
v -0.100578 -0.380847 0.498626
v -0.100578 -0.395954 0.498626
v -0.246795 -0.395962 0.498635
v -0.246795 -0.380839 0.498635
v -0.120871 -0.393716 0.273092
v -0.243315 -0.395942 0.258083
v -0.223734 -0.393733 0.273057
v -0.286051 -0.393721 0.338888
v -0.101295 -0.39595 0.258075
v -0.299153 -0.395946 0.318146
v -0.046174 -0.395951 0.318262
v -0.059409 -0.393713 0.339348
v -0.300818 -0.395958 0.43828
v -0.287368 -0.393702 0.416638
v -0.059138 -0.393709 0.417093
v -0.045832 -0.395953 0.438379
v -0.227226 -0.393689 0.483532
v -0.246795 -0.395962 0.498635
v -0.100578 -0.395954 0.498626
v -0.120152 -0.393707 0.483568
v -0.227226 -0.383113 0.483532
v -0.120152 -0.383095 0.483568
v -0.100578 -0.380847 0.498626
v -0.246795 -0.380839 0.498635
v -0.045832 -0.380848 0.438379
v -0.287368 -0.3831 0.416638
v -0.059138 -0.383092 0.417093
v -0.300818 -0.380843 0.43828
v -0.046174 -0.380851 0.318262
v -0.286051 -0.38308 0.338888
v -0.059409 -0.383088 0.339348
v -0.299153 -0.380855 0.318146
v -0.101295 -0.380851 0.258075
v -0.223734 -0.383068 0.273057
v -0.120871 -0.383086 0.273092
v -0.243315 -0.380859 0.258083
v -0.120871 -0.393716 0.273092
v -0.223734 -0.393733 0.273057
v -0.286051 -0.393721 0.338888
v -0.059409 -0.393713 0.339348
v -0.287368 -0.393702 0.416638
v -0.059138 -0.393709 0.417093
v -0.227226 -0.393689 0.483532
v -0.120152 -0.393707 0.483568
vt 0 0
vt 0 0
vt 0 0
vt 0 0
vt 0 0
vt 0 0
vt 0 0
vt 0 0
vt 0 0
vt 0 0
vt 0 0
vt 0 0
vt 0 0
vt 0 0
vt 0 0
vt 0 0
vt 0 0
vt 0 0
vt 0 0
vt 0 0
vt 0 0
vt 0 0
vt 0 0
vt 0 0
vt 0 0
vt 0 0
vt 0 0
vt 0 0
vt 0 0
vt 0 0
vt 0 0
vt 0 0
vt 0 0
vt 0 0
vt 0 0
vt 0 0
vt 0 0
vt 0 0
vt 0 0
vt 0 0
vt 0 0
vt 0 0
vt 0 0
vt 0 0
vt 0 0
vt 0 0
vt 0 0
vt 0 0
vt 0 0
vt 0 0
vt 0 0
vt 0 0
vt 0 0
vt 0 0
vt 0 0
vt 0 0
vt 0 0
vt 0 0
vt 0 0
vt 0 0
vt 0 0
vt 0 0
vt 0 0
vt 0 0
vt 0 0
vt 0 0
vt 0 0
vt 0 0
vt 0 0
vt 0 0
vt 0 0
vt 0 0
vt 0 0
vt 0 0
vt 0 0
vt 0 0
vt 0 0
vt 0 0
vt 0 0
vt 0 0
vt 0 0
vt 0 0
vt 0 0
vt 0 0
vt 0 0
vt 0 0
vt 0 0
vt 0 0
vn -0.2601505 0.7756464 -0.5750604
vn -0.2601497 -0.7756411 -0.5750679
vn 0.2620061 -0.7761679 -0.5735122
vn 0.2620099 0.7761725 -0.5735043
vn 0.2849706 0.6962192 -0.6588404
vn 0.2849661 -0.6962383 -0.6588221
vn -0.2817703 -0.6954987 -0.6609743
vn -0.2817724 0.6954835 -0.6609894
vn -0.2805288 0.6953543 0.661654
vn -0.2805319 -0.6953602 0.6616465
vn 0.2773572 -0.6946536 0.6637238
vn 0.2773567 0.6946471 0.6637309
vn 0.2631407 0.7766882 0.572287
vn 0.5877051 -0.773453 0.2374306
vn 0.2631424 -0.7766757 0.5723032
vn 0.5877097 0.7734515 0.2374239
vn 0.5867282 0.7733364 -0.2402104
vn 0.5867202 -0.7733423 -0.240211
vn 0.2620061 -0.7761679 -0.5735122
vn 0.2620099 0.7761725 -0.5735043
vn -0.5848055 -0.7731031 -0.245589
vn -0.2601497 -0.7756411 -0.5750679
vn -0.2601505 0.7756464 -0.5750604
vn -0.5847976 0.7731091 -0.2455893
vn -0.5895351 0.773701 0.2320243
vn -0.5895491 -0.7736892 0.2320279
vn -0.2649866 -0.7772079 0.5707276
vn -0.2649822 0.777224 0.5707077
vn -0.2805288 0.6953543 0.661654
vn -0.6805632 -0.6856924 0.2581854
vn -0.2805319 -0.6953602 0.6616465
vn -0.6805558 0.6856997 0.2581855
vn -0.6820207 0.6858056 -0.2540045
vn -0.6820254 -0.6858029 -0.2539991
vn -0.2817703 -0.6954987 -0.6609743
vn -0.2817724 0.6954835 -0.6609894
vn 0.6776816 0.6854885 0.2661827
vn 0.2773567 0.6946471 0.6637309
vn 0.2773572 -0.6946536 0.6637238
vn 0.677674 -0.685496 0.2661826
vn 0.6848007 -0.6859913 -0.2458941
vn 0.6848133 0.6859774 -0.2458978
vn 0.2849706 0.6962192 -0.6588404
vn 0.2849661 -0.6962383 -0.6588221
vn 0.2631407 0.7766882 0.572287
vn 0.2631424 -0.7766757 0.5723032
vn -0.2649866 -0.7772079 0.5707276
vn -0.2649822 0.777224 0.5707077
vn -0.2805319 -0.6953602 0.6616465
vn -0.2601497 -0.7756411 -0.5750679
vn 0.2773572 -0.6946536 0.6637238
vn 0.677674 -0.685496 0.2661826
vn 0.2620061 -0.7761679 -0.5735122
vn -0.5848055 -0.7731031 -0.245589
vn 0.5867202 -0.7733423 -0.240211
vn -0.6805632 -0.6856924 0.2581854
vn -0.5895491 -0.7736892 0.2320279
vn 0.6848007 -0.6859913 -0.2458941
vn -0.6820254 -0.6858029 -0.2539991
vn 0.5877051 -0.773453 0.2374306
vn 0.2849661 -0.6962383 -0.6588221
vn -0.2649866 -0.7772079 0.5707276
vn 0.2631424 -0.7766757 0.5723032
vn -0.2817703 -0.6954987 -0.6609743
vn 0.2849706 0.6962192 -0.6588404
vn -0.2817724 0.6954835 -0.6609894
vn 0.2631407 0.7766882 0.572287
vn -0.2649822 0.777224 0.5707077
vn 0.5877097 0.7734515 0.2374239
vn 0.6848133 0.6859774 -0.2458978
vn -0.6820207 0.6858056 -0.2540045
vn -0.5895351 0.773701 0.2320243
vn 0.5867282 0.7733364 -0.2402104
vn 0.6776816 0.6854885 0.2661827
vn -0.6805558 0.6856997 0.2581855
vn -0.5847976 0.7731091 -0.2455893
vn 0.2620099 0.7761725 -0.5735043
vn 0.2773567 0.6946471 0.6637309
vn -0.2805288 0.6953543 0.661654
vn -0.2601505 0.7756464 -0.5750604
vn 0.0001001883 -1 0.0001754258
vn 0.0001650301 -1 0.0003382103
vn 7.841709E-05 -1 0.0001986646
vn 1.314407E-05 -1 0.0001030859
vn 0 -1 0.0001729495
vn -7.666343E-05 -1 4.982641E-05
vn -9.960065E-05 -1 4.900257E-05
vn -0.0001680719 -1 -0.0001242269
g Monicle_0
f 3/3/3 2/2/2 1/1/1
f 4/4/4 3/3/3 1/1/1
f 7/7/7 6/6/6 5/5/5
f 8/8/8 7/7/7 5/5/5
f 11/11/11 10/10/10 9/9/9
f 12/12/12 11/11/11 9/9/9
f 15/15/15 14/14/14 13/13/13
f 14/14/14 16/16/16 13/13/13
f 16/16/16 14/14/14 17/17/17
f 14/14/14 18/18/18 17/17/17
f 17/17/17 18/18/18 19/19/19
f 20/20/20 17/17/17 19/19/19
f 23/23/23 22/22/22 21/21/21
f 24/24/24 23/23/23 21/21/21
f 24/24/24 21/21/21 25/25/25
f 21/21/21 26/26/26 25/25/25
f 25/25/25 26/26/26 27/27/27
f 28/28/28 25/25/25 27/27/27
f 31/31/31 30/30/30 29/29/29
f 30/30/30 32/32/32 29/29/29
f 32/32/32 30/30/30 33/33/33
f 30/30/30 34/34/34 33/33/33
f 33/33/33 34/34/34 35/35/35
f 36/36/36 33/33/33 35/35/35
f 39/39/39 38/38/38 37/37/37
f 40/40/40 39/39/39 37/37/37
f 41/41/41 40/40/40 37/37/37
f 42/42/42 41/41/41 37/37/37
f 41/41/41 42/42/42 43/43/43
f 44/44/44 41/41/41 43/43/43
f 47/47/47 46/46/46 45/45/45
f 48/48/48 47/47/47 45/45/45
f 51/51/51 50/50/50 49/49/49
f 50/50/50 51/51/51 52/52/52
f 50/50/50 53/53/53 49/49/49
f 54/54/54 50/50/50 52/52/52
f 49/49/49 53/53/53 55/55/55
f 56/56/56 49/49/49 55/55/55
f 57/57/57 54/54/54 52/52/52
f 58/58/58 57/57/57 52/52/52
f 56/56/56 55/55/55 59/59/59
f 55/55/55 60/60/60 59/59/59
f 58/58/58 61/61/61 57/57/57
f 61/61/61 62/62/62 57/57/57
f 60/60/60 63/63/63 59/59/59
f 63/63/63 62/62/62 61/61/61
f 63/63/63 64/64/64 59/59/59
f 64/64/64 63/63/63 61/61/61
f 67/67/67 66/66/66 65/65/65
f 68/68/68 67/67/67 65/65/65
f 67/67/67 69/69/69 66/66/66
f 65/65/65 70/70/70 68/68/68
f 69/69/69 71/71/71 66/66/66
f 70/70/70 72/72/72 68/68/68
f 69/69/69 73/73/73 71/71/71
f 72/72/72 70/70/70 74/74/74
f 73/73/73 75/75/75 71/71/71
f 76/76/76 72/72/72 74/74/74
f 75/75/75 73/73/73 77/77/77
f 76/76/76 74/74/74 78/78/78
f 79/79/79 75/75/75 77/77/77
f 80/80/80 76/76/76 78/78/78
f 77/77/77 80/80/80 79/79/79
f 80/80/80 78/78/78 79/79/79
g Monicle_1
f 83/83/83 82/82/82 81/81/81
f 81/81/81 84/84/84 83/83/83
f 84/84/84 85/85/85 83/83/83
f 84/84/84 86/86/86 85/85/85
f 86/86/86 87/87/87 85/85/85
f 86/86/86 88/88/88 87/87/87
