g MovingBox
v -0.526139 -0.347586 -0.347586
v -0.526139 0.347586 -0.347586
v -0.526139 0.347586 0.347586
v -0.526139 -0.347586 0.347586
v -0.526139 0.347586 -0.347586
v 0.526139 0.347586 -0.347586
v 0.526139 0.347586 0.347586
v -0.526139 0.347586 0.347586
v 0.526139 0.347586 -0.347586
v 0.526139 -0.347586 -0.347586
v 0.526139 -0.347586 0.347586
v 0.526139 0.347586 0.347586
v 0.526139 -0.347586 -0.347586
v -0.526139 -0.347586 -0.347586
v -0.526139 -0.347586 0.347586
v 0.526139 -0.347586 0.347586
v -0.526139 0.347586 -0.347586
v -0.526139 -0.347586 -0.347586
v 0.526139 -0.347586 -0.347586
v 0.526139 0.347586 -0.347586
v 0.526139 0.347586 0.347586
v 0.526139 -0.347586 0.347586
v -0.526139 -0.347586 0.347586
v -0.526139 0.347586 0.347586
vt 0.926551 0.246206
vt 0.92655 0.003413
vt 0.683757 0.003413
vt 0.683758 0.246206
vt 0.683758 0.731792
vt 0.316243 0.731792
vt 0.316243 0.974585
vt 0.683758 0.974585
vt 0.07345 0.003413
vt 0.07345 0.246206
vt 0.316243 0.246206
vt 0.316242 0.003413
vt 0.316243 0.488999
vt 0.683757 0.488999
vt 0.683758 0.246206
vt 0.316243 0.246206
vt 0.683758 0.731792
vt 0.683757 0.488999
vt 0.316243 0.488999
vt 0.316243 0.731792
vt 0.316242 0.003413
vt 0.316243 0.246206
vt 0.683758 0.246206
vt 0.683757 0.003413
vn -1 0 0
vn -1 0 0
vn -1 0 0
vn -1 0 0
vn 0 1 0
vn 0 1 0
vn 0 1 0
vn 0 1 0
vn 1 0 0
vn 1 0 0
vn 1 0 0
vn 1 0 0
vn 0 -1 0
vn 0 -1 0
vn 0 -1 0
vn 0 -1 0
vn 0 0 -1
vn 0 0 -1
vn 0 0 -1
vn 0 0 -1
vn 0 0 1
vn 0 0 1
vn 0 0 1
vn 0 0 1
g MovingBox_0
f 3/3/3 2/2/2 1/1/1
f 4/4/4 3/3/3 1/1/1
f 7/7/7 6/6/6 5/5/5
f 8/8/8 7/7/7 5/5/5
f 11/11/11 10/10/10 9/9/9
f 12/12/12 11/11/11 9/9/9
f 15/15/15 14/14/14 13/13/13
f 16/16/16 15/15/15 13/13/13
f 19/19/19 18/18/18 17/17/17
f 20/20/20 19/19/19 17/17/17
f 23/23/23 22/22/22 21/21/21
f 24/24/24 23/23/23 21/21/21
