g Museum_BugRoomBackFishTank
v 2.611474 15.52246 6.149511
v 9.500938 15.52246 6.149511
v 9.500938 15.52246 1.476283
v 2.611474 15.52246 1.476283
v 0 15.52246 6.149511
v 0 15.52246 1.476283
v -2.611474 15.52246 6.149511
v -9.500938 15.52246 1.476283
v -9.500938 15.52246 6.149511
v -2.611474 15.52246 1.476283
v 0 15.52246 6.149511
v 0 15.52246 1.476283
v 2.611474 21.86572 6.149511
v 9.500938 21.86572 6.149511
v 9.500938 21.86572 1.476283
v 2.611474 21.86572 1.476283
v 0 21.86572 6.149511
v 0 21.86572 1.476283
v 9.500938 15.52246 1.476283
v 9.500938 21.86572 1.476283
v 9.500938 21.86572 6.149511
v 9.500938 15.52246 6.149511
v 9.500938 15.52246 6.149511
v 9.500938 21.86572 6.149511
v 2.611474 21.86572 6.149511
v 2.611474 15.52246 6.149511
v 0 21.86572 6.149511
v 0 15.52246 6.149511
v -2.611474 15.52246 6.149511
v -2.611474 21.86572 6.149511
v -9.500938 15.52246 6.149511
v -9.500938 21.86572 6.149511
v 2.611474 15.52246 1.476283
v 9.582237 15.52246 1.476283
v 9.582237 21.91492 1.476283
v 2.611474 21.91492 1.476283
v 0 15.52246 1.476283
v 0 21.91492 1.476283
v -2.611474 21.91492 1.476283
v -2.611474 15.52246 1.476283
v -9.582237 21.91492 1.476283
v -9.582237 15.52246 1.476283
v -2.611474 21.86572 6.149511
v -9.500938 21.86572 1.476283
v -9.500938 21.86572 6.149511
v -2.611474 21.86572 1.476283
v 0 21.86572 6.149511
v 0 21.86572 1.476283
v -9.500938 15.52246 1.476283
v -9.500938 15.52246 6.149511
v -9.500938 21.86572 6.149511
v -9.500938 21.86572 1.476283
v 2.611474 15.52246 1.476283
v 9.500938 21.86572 1.476283
v 9.500938 15.52246 1.476283
v 2.611474 21.86572 1.476283
v 0 15.52246 1.476283
v 0 21.86572 1.476283
v -2.611474 15.52246 1.476283
v -9.500938 15.52246 1.476283
v -9.500938 21.86572 1.476283
v -2.611474 21.86572 1.476283
v 0 15.52246 1.476283
v 0 21.86572 1.476283
v 2.611474 21.91492 6.205875
v 9.582237 21.91492 1.476283
v 9.582237 21.91492 6.205875
v 2.611474 21.91492 1.476283
v 0 21.91492 6.205875
v 0 21.91492 1.476283
v 9.582237 15.52246 1.476283
v 9.582237 15.52246 6.205875
v 9.582237 21.91492 6.205875
v 9.582237 21.91492 1.476283
v 9.582237 15.52246 6.205875
v 2.611474 21.91492 6.205875
v 9.582237 21.91492 6.205875
v 2.611474 15.52246 6.205875
v 0 21.91492 6.205875
v 0 15.52246 6.205875
v -2.611474 15.52246 6.205875
v -2.611474 21.91492 6.205875
v -9.582237 15.52246 6.205875
v -9.582237 21.91492 6.205875
v -2.611474 21.91492 6.205875
v -9.582237 21.91492 6.205875
v -9.582237 21.91492 1.476283
v -2.611474 21.91492 1.476283
v 0 21.91492 6.205875
v 0 21.91492 1.476283
v -9.582237 15.52246 1.476283
v -9.582237 21.91492 1.476283
v -9.582237 21.91492 6.205875
v -9.582237 15.52246 6.205875
vt 2.232176 0.196938
vt 1.736835 0.196938
vt 1.736835 0.50711
vt 2.232176 0.50711
vt 2.292258 0.196938
vt 2.292258 0.50711
vt 2.232176 0.196938
vt 1.736835 0.50711
vt 1.736835 0.196938
vt 2.232176 0.50711
vt 2.292258 0.196938
vt 2.292258 0.50711
vt 2.232176 0.196938
vt 1.736835 0.196938
vt 1.736835 0.50711
vt 2.232176 0.50711
vt 2.292258 0.196938
vt 2.292258 0.50711
vt 1.736835 0.50711
vt 1.736835 0.50711
vt 1.736835 0.196938
vt 1.736835 0.196938
vt 1.736835 0.196938
vt 1.736835 0.196938
vt 2.232176 0.196938
vt 2.232176 0.196938
vt 2.292258 0.196938
vt 2.292258 0.196938
vt 2.232176 0.196938
vt 2.232176 0.196938
vt 1.736835 0.196938
vt 1.736835 0.196938
vt 2.232176 0.50711
vt 1.736835 0.50711
vt 1.736835 0.50711
vt 2.232176 0.50711
vt 2.292258 0.50711
vt 2.292258 0.50711
vt 2.232176 0.50711
vt 2.232176 0.50711
vt 1.736835 0.50711
vt 1.736835 0.50711
vt 2.232176 0.196938
vt 1.736835 0.50711
vt 1.736835 0.196938
vt 2.232176 0.50711
vt 2.292258 0.196938
vt 2.292258 0.50711
vt 1.736835 0.50711
vt 1.736835 0.196938
vt 1.736835 0.196938
vt 1.736835 0.50711
vt 0.633743 0.320331
vt 0.996263 0.662801
vt 0.996263 0.320331
vt 0.633743 0.662801
vt 0.496329 0.320331
vt 0.496329 0.662801
vt 0.633743 0.320331
vt 0.996263 0.320331
vt 0.996263 0.662801
vt 0.633743 0.662801
vt 0.496329 0.320331
vt 0.496329 0.662801
vt 2.232176 0.196938
vt 1.736835 0.50711
vt 1.736835 0.196938
vt 2.232176 0.50711
vt 2.292258 0.196938
vt 2.292258 0.50711
vt 1.736835 0.50711
vt 1.736835 0.196938
vt 1.736835 0.196938
vt 1.736835 0.50711
vt 1.736835 0.196938
vt 2.232176 0.196938
vt 1.736835 0.196938
vt 2.232176 0.196938
vt 2.292258 0.196938
vt 2.292258 0.196938
vt 2.232176 0.196938
vt 2.232176 0.196938
vt 1.736835 0.196938
vt 1.736835 0.196938
vt 2.232176 0.196938
vt 1.736835 0.196938
vt 1.736835 0.50711
vt 2.232176 0.50711
vt 2.292258 0.196938
vt 2.292258 0.50711
vt 1.736835 0.50711
vt 1.736835 0.50711
vt 1.736835 0.196938
vt 1.736835 0.196938
vn 0 -1 0
vn 0 -1 0
vn 0 -1 0
vn 0 -1 0
vn 0 -1 0
vn 0 -1 0
vn 0 -1 0
vn 0 -1 0
vn 0 -1 0
vn 0 -1 0
vn 0 -1 0
vn 0 -1 0
vn 0 -1 0
vn 0 -1 0
vn 0 -1 0
vn 0 -1 0
vn 0 -1 0
vn 0 -1 0
vn -1 0 0
vn -1 0 0
vn -1 0 0
vn -1 0 0
vn 0 0 -1
vn 0 0 -1
vn 0 0 -1
vn 0 0 -1
vn 0 0 -1
vn 0 0 -1
vn 0 0 -1
vn 0 0 -1
vn 0 0 -1
vn 0 0 -1
vn 0 0 -1
vn 0 0 -1
vn 0 0 -1
vn 0 0 -1
vn 0 0 -1
vn 0 0 -1
vn 0 0 -1
vn 0 0 -1
vn 0 0 -1
vn 0 0 -1
vn 0 -1 0
vn 0 -1 0
vn 0 -1 0
vn 0 -1 0
vn 0 -1 0
vn 0 -1 0
vn 1 0 0
vn 1 0 0
vn 1 0 0
vn 1 0 0
vn 0 0 1
vn 0 0 1
vn 0 0 1
vn 0 0 1
vn 0 0 1
vn 0 0 1
vn 0 0 1
vn 0 0 1
vn 0 0 1
vn 0 0 1
vn 0 0 1
vn 0 0 1
vn 0 1 0
vn 0 1 0
vn 0 1 0
vn 0 1 0
vn 0 1 0
vn 0 1 0
vn 1 0 0
vn 1 0 0
vn 1 0 0
vn 1 0 0
vn 0 0 1
vn 0 0 1
vn 0 0 1
vn 0 0 1
vn 0 0 1
vn 0 0 1
vn 0 0 1
vn 0 0 1
vn 0 0 1
vn 0 0 1
vn 0 1 0
vn 0 1 0
vn 0 1 0
vn 0 1 0
vn 0 1 0
vn 0 1 0
vn -1 0 0
vn -1 0 0
vn -1 0 0
vn -1 0 0
g Museum_BugRoomBackFishTank_0
f 3/3/3 2/2/2 1/1/1
f 4/4/4 3/3/3 1/1/1
f 4/4/4 1/1/1 5/5/5
f 6/6/6 4/4/4 5/5/5
f 9/9/9 8/8/8 7/7/7
f 8/8/8 10/10/10 7/7/7
f 7/7/7 10/10/10 11/11/11
f 10/10/10 12/12/12 11/11/11
g Museum_BugRoomBackFishTank_1
f 15/15/15 14/14/14 13/13/13
f 16/16/16 15/15/15 13/13/13
f 16/16/16 13/13/13 17/17/17
f 18/18/18 16/16/16 17/17/17
f 21/21/21 20/20/20 19/19/19
f 22/22/22 21/21/21 19/19/19
f 25/25/25 24/24/24 23/23/23
f 26/26/26 25/25/25 23/23/23
f 27/27/27 25/25/25 26/26/26
f 28/28/28 27/27/27 26/26/26
f 27/27/27 28/28/28 29/29/29
f 30/30/30 27/27/27 29/29/29
f 30/30/30 29/29/29 31/31/31
f 32/32/32 30/30/30 31/31/31
f 35/35/35 34/34/34 33/33/33
f 36/36/36 35/35/35 33/33/33
f 36/36/36 33/33/33 37/37/37
f 38/38/38 36/36/36 37/37/37
f 39/39/39 38/38/38 37/37/37
f 40/40/40 39/39/39 37/37/37
f 41/41/41 39/39/39 40/40/40
f 42/42/42 41/41/41 40/40/40
f 45/45/45 44/44/44 43/43/43
f 44/44/44 46/46/46 43/43/43
f 43/43/43 46/46/46 47/47/47
f 46/46/46 48/48/48 47/47/47
f 51/51/51 50/50/50 49/49/49
f 52/52/52 51/51/51 49/49/49
g Museum_BugRoomBackFishTank_2
f 55/55/55 54/54/54 53/53/53
f 54/54/54 56/56/56 53/53/53
f 53/53/53 56/56/56 57/57/57
f 56/56/56 58/58/58 57/57/57
f 61/61/61 60/60/60 59/59/59
f 62/62/62 61/61/61 59/59/59
f 62/62/62 59/59/59 63/63/63
f 64/64/64 62/62/62 63/63/63
g Museum_BugRoomBackFishTank_3
f 67/67/67 66/66/66 65/65/65
f 66/66/66 68/68/68 65/65/65
f 65/65/65 68/68/68 69/69/69
f 68/68/68 70/70/70 69/69/69
f 73/73/73 72/72/72 71/71/71
f 74/74/74 73/73/73 71/71/71
f 77/77/77 76/76/76 75/75/75
f 76/76/76 78/78/78 75/75/75
f 76/76/76 79/79/79 78/78/78
f 79/79/79 80/80/80 78/78/78
f 80/80/80 79/79/79 81/81/81
f 79/79/79 82/82/82 81/81/81
f 81/81/81 82/82/82 83/83/83
f 82/82/82 84/84/84 83/83/83
f 87/87/87 86/86/86 85/85/85
f 88/88/88 87/87/87 85/85/85
f 88/88/88 85/85/85 89/89/89
f 90/90/90 88/88/88 89/89/89
f 93/93/93 92/92/92 91/91/91
f 94/94/94 93/93/93 91/91/91
