g Nordic_Closet_Door
v -0.889386 0.007639 0.028008
v -0.889386 0.007639 2.207456
v 0.086145 0.007639 2.207456
v 0.086145 0.007639 0.028008
v -0.889386 0.040332 0.028008
v 0.086145 0.040332 0.028008
v 0.086145 0.040332 2.207456
v -0.889386 0.040332 2.207456
v 0.086145 0.007639 2.207456
v -0.889386 0.007639 2.207456
v -0.889386 0.040332 2.207456
v 0.086145 0.040332 2.207456
v -0.889386 0.007639 0.028008
v 0.086145 0.007639 0.028008
v 0.086145 0.040332 0.028008
v -0.889386 0.040332 0.028008
v 0.086145 0.007639 0.028008
v 0.086145 0.007639 2.207456
v 0.086145 0.040332 2.207456
v 0.086145 0.040332 0.028008
v -0.889386 0.007639 2.207456
v -0.889386 0.007639 0.028008
v -0.889386 0.040332 0.028008
v -0.889386 0.040332 2.207456
v -0.793968 -0.018818 1.272463
v -0.794562 0.122784 1.207277
v -0.799055 0.010821 1.27933
v -0.798199 0.095951 1.194539
v -0.794562 0.122784 0.87653
v -0.798199 0.095951 0.889267
v -0.799055 0.010821 0.804476
v -0.793968 -0.018818 0.811343
v -0.709864 -0.018818 0.811343
v -0.709269 0.122784 0.87653
v -0.704776 0.010821 0.804476
v -0.705632 0.095951 0.889267
v -0.709269 0.122784 1.207277
v -0.705632 0.095951 1.194539
v -0.704776 0.010821 1.27933
v -0.709864 -0.018818 1.272463
v -0.798199 0.095951 1.194539
v -0.793968 -0.018818 1.272463
v -0.77479 -0.031998 1.272955
v -0.775004 0.084178 1.187069
v -0.798199 0.095951 0.889267
v -0.775004 0.084178 0.896737
v -0.728827 0.084178 0.896737
v -0.728827 0.084178 1.187069
v -0.729042 -0.031998 1.272955
v -0.709864 -0.018818 1.272463
v -0.705632 0.095951 1.194539
v -0.705632 0.095951 0.889267
v -0.709269 0.122784 1.207277
v -0.704776 0.010821 1.27933
v -0.728129 0.02787 1.283941
v -0.729153 0.134648 1.208864
v -0.709269 0.122784 0.87653
v -0.775702 0.02787 1.283941
v -0.729153 0.134648 0.874942
v -0.774679 0.134648 1.208864
v -0.799055 0.010821 1.27933
v -0.774679 0.134648 0.874942
v -0.794562 0.122784 1.207277
v -0.794562 0.122784 0.87653
v -0.793968 -0.018818 0.811343
v -0.798199 0.095951 0.889267
v -0.775004 0.084178 0.896737
v -0.77479 -0.031998 0.810852
v -0.729042 -0.031998 0.810852
v -0.728827 0.084178 0.896737
v -0.705632 0.095951 0.889267
v -0.709864 -0.018818 0.811343
v -0.775702 0.02787 0.799865
v -0.794562 0.122784 0.87653
v -0.799055 0.010821 0.804476
v -0.774679 0.134648 0.874942
v -0.728129 0.02787 0.799865
v -0.729153 0.134648 0.874942
v -0.704776 0.010821 0.804476
v -0.709269 0.122784 0.87653
vt 0.705295 0.892132
vt 0.884997 0.892132
vt 0.884997 0.650398
vt 0.705295 0.650398
vt 0.705295 0.892132
vt 0.705295 0.650398
vt 0.884997 0.650398
vt 0.884997 0.892132
vt 0.884997 0.650398
vt 0.884997 0.892132
vt 0.884997 0.892132
vt 0.884997 0.650398
vt 0.705295 0.892132
vt 0.705295 0.650398
vt 0.705295 0.650398
vt 0.705295 0.892132
vt 0.705295 0.650398
vt 0.884997 0.650398
vt 0.884997 0.650398
vt 0.705295 0.650398
vt 0.884997 0.892132
vt 0.705295 0.892132
vt 0.705295 0.892132
vt 0.884997 0.892132
vt 0.452909 0.945878
vt 0.452909 0.938928
vt 0.452909 0.945878
vt 0.452909 0.938928
vt 0.452909 0.931977
vt 0.452909 0.931977
vt 0.452909 0.925026
vt 0.452909 0.925026
vt 0.494815 0.925026
vt 0.494815 0.931977
vt 0.494815 0.925026
vt 0.494815 0.931977
vt 0.494815 0.938928
vt 0.494815 0.938928
vt 0.494815 0.945878
vt 0.494815 0.945878
vt 0.452909 0.938928
vt 0.452909 0.945878
vt 0.456909 0.945878
vt 0.456909 0.938928
vt 0.452909 0.931977
vt 0.456909 0.931977
vt 0.490815 0.931977
vt 0.490815 0.938928
vt 0.490815 0.945878
vt 0.494815 0.945878
vt 0.494815 0.938928
vt 0.494815 0.931977
vt 0.494815 0.938928
vt 0.494815 0.945878
vt 0.490815 0.945878
vt 0.490815 0.938928
vt 0.494815 0.931977
vt 0.456909 0.945878
vt 0.490815 0.931977
vt 0.456909 0.938928
vt 0.452909 0.945878
vt 0.456909 0.931977
vt 0.452909 0.938928
vt 0.452909 0.931977
vt 0.452909 0.925026
vt 0.452909 0.931977
vt 0.456909 0.931977
vt 0.456909 0.925026
vt 0.490815 0.925026
vt 0.490815 0.931977
vt 0.494815 0.931977
vt 0.494815 0.925026
vt 0.456909 0.925026
vt 0.452909 0.931977
vt 0.452909 0.925026
vt 0.456909 0.931977
vt 0.490815 0.925026
vt 0.490815 0.931977
vt 0.494815 0.925026
vt 0.494815 0.931977
vn 0 -1 0
vn 0 -1 0
vn 0 -1 0
vn 0 -1 0
vn 0 1 0
vn 0 1 0
vn 0 1 0
vn 0 1 0
vn 0 0 1
vn 0 0 1
vn 0 0 1
vn 0 0 1
vn 0 0 -1
vn 0 0 -1
vn 0 0 -1
vn 0 0 -1
vn 1 0 0
vn 1 0 0
vn 1 0 0
vn 1 0 0
vn -1 0 0
vn -1 0 0
vn -1 0 0
vn -1 0 0
vn -0.6665194 -0.4352809 -0.6052126
vn -0.8119686 0.5592086 0.1673108
vn -0.9512729 0.1757366 0.2533706
vn -0.9528849 -0.2837394 -0.1072493
vn -0.8119687 0.5592099 -0.1673052
vn -0.9528841 -0.2837417 0.1072501
vn -0.9512718 0.1757393 -0.2533726
vn -0.6665263 -0.4352761 0.6052086
vn 0.6665241 -0.43528 0.6052082
vn 0.8119591 0.5592241 -0.1673042
vn 0.9512738 0.175734 -0.2533689
vn 0.9528829 -0.2837451 0.107252
vn 0.811959 0.5592227 0.1673098
vn 0.9528836 -0.2837428 -0.1072511
vn 0.9512748 0.1757313 0.2533669
vn 0.6665172 -0.435285 -0.6052123
vn -0.9528849 -0.2837394 -0.1072493
vn -0.6665194 -0.4352809 -0.6052126
vn -0.1121306 -0.5884206 -0.800742
vn -0.1963397 -0.940946 -0.2758105
vn -0.9528841 -0.2837417 0.1072501
vn -0.1963421 -0.9409454 0.2758107
vn 0.1963422 -0.9409456 0.2758097
vn 0.1963398 -0.9409462 -0.2758095
vn 0.1121297 -0.5884215 -0.8007417
vn 0.6665172 -0.435285 -0.6052123
vn 0.9528836 -0.2837428 -0.1072511
vn 0.9528829 -0.2837451 0.107252
vn 0.811959 0.5592227 0.1673098
vn 0.9512748 0.1757313 0.2533669
vn 0.1807043 0.562636 0.8067135
vn 0.1752324 0.9536033 0.2448149
vn 0.8119591 0.5592241 -0.1673042
vn -0.180705 0.5626355 0.8067138
vn 0.1752319 0.9536027 -0.2448178
vn -0.1752343 0.9536028 0.2448157
vn -0.9512729 0.1757366 0.2533706
vn -0.1752338 0.9536021 -0.2448186
vn -0.8119686 0.5592086 0.1673108
vn -0.8119687 0.5592099 -0.1673052
vn -0.6665263 -0.4352761 0.6052086
vn -0.9528841 -0.2837417 0.1072501
vn -0.1963421 -0.9409454 0.2758107
vn -0.112137 -0.5884167 0.800744
vn 0.1121362 -0.5884174 0.8007436
vn 0.1963422 -0.9409456 0.2758097
vn 0.9528829 -0.2837451 0.107252
vn 0.6665241 -0.43528 0.6052082
vn -0.1807131 0.5626355 -0.806712
vn -0.8119687 0.5592099 -0.1673052
vn -0.9512718 0.1757393 -0.2533726
vn -0.1752338 0.9536021 -0.2448186
vn 0.1807124 0.562636 -0.8067117
vn 0.1752319 0.9536027 -0.2448178
vn 0.9512738 0.175734 -0.2533689
vn 0.8119591 0.5592241 -0.1673042
g Nordic_Closet_Door_0
f 3/3/3 2/2/2 1/1/1
f 4/4/4 3/3/3 1/1/1
f 7/7/7 6/6/6 5/5/5
f 8/8/8 7/7/7 5/5/5
f 11/11/11 10/10/10 9/9/9
f 12/12/12 11/11/11 9/9/9
f 15/15/15 14/14/14 13/13/13
f 16/16/16 15/15/15 13/13/13
f 19/19/19 18/18/18 17/17/17
f 20/20/20 19/19/19 17/17/17
f 23/23/23 22/22/22 21/21/21
f 24/24/24 23/23/23 21/21/21
f 27/27/27 26/26/26 25/25/25
f 26/26/26 28/28/28 25/25/25
f 26/26/26 29/29/29 28/28/28
f 29/29/29 30/30/30 28/28/28
f 29/29/29 31/31/31 30/30/30
f 31/31/31 32/32/32 30/30/30
f 35/35/35 34/34/34 33/33/33
f 34/34/34 36/36/36 33/33/33
f 34/34/34 37/37/37 36/36/36
f 37/37/37 38/38/38 36/36/36
f 37/37/37 39/39/39 38/38/38
f 39/39/39 40/40/40 38/38/38
f 43/43/43 42/42/42 41/41/41
f 44/44/44 43/43/43 41/41/41
f 44/44/44 41/41/41 45/45/45
f 46/46/46 44/44/44 45/45/45
f 46/46/46 47/47/47 44/44/44
f 44/44/44 48/48/48 43/43/43
f 47/47/47 48/48/48 44/44/44
f 48/48/48 49/49/49 43/43/43
f 50/50/50 49/49/49 48/48/48
f 51/51/51 50/50/50 48/48/48
f 51/51/51 48/48/48 47/47/47
f 52/52/52 51/51/51 47/47/47
f 55/55/55 54/54/54 53/53/53
f 56/56/56 55/55/55 53/53/53
f 56/56/56 53/53/53 57/57/57
f 55/55/55 56/56/56 58/58/58
f 59/59/59 56/56/56 57/57/57
f 56/56/56 60/60/60 58/58/58
f 56/56/56 59/59/59 60/60/60
f 61/61/61 58/58/58 60/60/60
f 59/59/59 62/62/62 60/60/60
f 63/63/63 61/61/61 60/60/60
f 63/63/63 60/60/60 62/62/62
f 64/64/64 63/63/63 62/62/62
f 67/67/67 66/66/66 65/65/65
f 68/68/68 67/67/67 65/65/65
f 68/68/68 69/69/69 67/67/67
f 69/69/69 70/70/70 67/67/67
f 71/71/71 70/70/70 69/69/69
f 72/72/72 71/71/71 69/69/69
f 75/75/75 74/74/74 73/73/73
f 74/74/74 76/76/76 73/73/73
f 77/77/77 73/73/73 76/76/76
f 78/78/78 77/77/77 76/76/76
f 77/77/77 78/78/78 79/79/79
f 78/78/78 80/80/80 79/79/79
