g Nordic_CoffeeTable
v 0.590477 0.469322 0.768295
v 0.634822 0.303821 0.768295
v 0.634822 -0.303821 0.768295
v 0.590477 -0.469322 0.768295
v 0.469322 0.590477 0.768295
v 0.469322 -0.590477 0.768295
v 0.303822 0.634822 0.768295
v 0.303822 -0.634822 0.768295
v -0.303821 0.634822 0.768295
v -0.303821 -0.634822 0.768295
v -0.469322 0.590477 0.768295
v -0.469322 -0.590477 0.768295
v -0.590477 0.469322 0.768295
v -0.590477 -0.469322 0.768295
v -0.634822 0.303821 0.768295
v -0.634822 -0.303821 0.768295
v -0.431759 0.272996 0.742175
v -0.431471 0.204853 0.740764
v -0.590217 0.381558 0.003275
v -0.588531 0.400749 0.006201
v -0.394577 0.310211 0.740288
v -0.551881 0.436677 0.004207
v 0.333783 0.309718 0.735414
v 0.536125 0.437041 4E-05
v 0.551881 0.436677 0.004207
v 0.394577 0.310211 0.740288
v 0.300147 0.205912 0.730757
v 0.499726 0.380452 -0.007737
v 0.499812 0.401686 -0.004056
v 0.298258 0.271818 0.731095
v 0.393952 0.169038 0.736344
v 0.553432 0.342715 -0.001697
v 0.535724 0.343617 -0.006131
v 0.335466 0.170639 0.732545
v 0.431759 -0.272996 0.742175
v 0.431471 -0.204853 0.740764
v 0.590218 -0.381558 0.003275
v 0.588531 -0.400749 0.006201
v 0.394577 -0.310211 0.740288
v 0.551881 -0.436677 0.004207
v -0.333783 0.309718 0.735414
v -0.394577 0.310211 0.740288
v -0.551881 0.436677 0.004207
v -0.536125 0.437041 4E-05
v -0.300147 0.205912 0.730757
v -0.298258 0.271818 0.731095
v -0.499811 0.401686 -0.004056
v -0.499726 0.380452 -0.007737
v -0.393952 0.169038 0.736344
v -0.335466 0.170639 0.732545
v -0.535723 0.343617 -0.006131
v -0.553432 0.342715 -0.001697
v -0.431759 -0.272996 0.742175
v -0.590217 -0.381558 0.003275
v -0.431471 -0.204853 0.740764
v -0.588531 -0.400749 0.006201
v -0.551881 -0.436677 0.004207
v -0.394577 -0.310211 0.740288
v 0.333783 -0.309718 0.735414
v 0.394577 -0.310211 0.740288
v 0.551881 -0.436677 0.004207
v 0.536125 -0.437041 4E-05
v 0.300147 -0.205912 0.730757
v 0.298258 -0.271818 0.731095
v 0.499812 -0.401686 -0.004056
v 0.499726 -0.380452 -0.007737
v 0.393952 -0.169038 0.736344
v 0.335466 -0.170639 0.732545
v 0.535724 -0.343617 -0.006131
v 0.553432 -0.342715 -0.001697
v -0.333783 -0.309718 0.735414
v -0.536125 -0.437041 4E-05
v -0.551881 -0.436677 0.004207
v -0.394577 -0.310211 0.740288
v -0.300147 -0.205912 0.730757
v -0.499726 -0.380452 -0.007737
v -0.499811 -0.401686 -0.004056
v -0.298258 -0.271818 0.731095
v -0.393952 -0.169038 0.736344
v -0.553432 -0.342715 -0.001697
v -0.535723 -0.343617 -0.006131
v -0.335466 -0.170639 0.732545
v 0.590477 -0.469322 0.646494
v 0.634822 -0.303821 0.646494
v 0.634822 0.303821 0.646494
v 0.590477 0.469322 0.646494
v 0.469322 -0.590477 0.646494
v 0.469322 0.590477 0.646494
v 0.303822 -0.634822 0.646494
v 0.303822 0.634822 0.646494
v -0.303821 -0.634822 0.646494
v -0.303821 0.634822 0.646494
v -0.469322 -0.590477 0.646494
v -0.469322 0.590477 0.646494
v -0.590477 -0.469322 0.646494
v -0.590477 0.469322 0.646494
v -0.634822 -0.303821 0.646494
v -0.634822 0.303821 0.646494
v 0.303822 -0.634822 0.768295
v 0.469322 -0.590477 0.768295
v 0.469322 -0.590477 0.646494
v 0.303822 -0.634822 0.646494
v -0.303821 -0.634822 0.768295
v -0.303821 -0.634822 0.646494
v -0.469322 -0.590477 0.768295
v -0.469322 -0.590477 0.646494
v 0.469322 -0.590477 0.768295
v 0.590477 -0.469322 0.646494
v 0.469322 -0.590477 0.646494
v 0.590477 -0.469322 0.768295
v 0.634822 -0.303821 0.646494
v 0.634822 -0.303821 0.768295
v 0.634822 0.303821 0.646494
v 0.634822 0.303821 0.768295
v 0.590477 0.469322 0.646494
v 0.590477 0.469322 0.768295
v 0.590477 0.469322 0.768295
v 0.469322 0.590477 0.646494
v 0.590477 0.469322 0.646494
v 0.469322 0.590477 0.768295
v 0.303822 0.634822 0.646494
v 0.303822 0.634822 0.768295
v -0.303821 0.634822 0.646494
v -0.303821 0.634822 0.768295
v -0.469322 0.590477 0.646494
v -0.469322 0.590477 0.768295
v -0.590477 0.469322 0.646494
v -0.590477 0.469322 0.768295
v -0.590477 0.469322 0.768295
v -0.634822 0.303821 0.646494
v -0.590477 0.469322 0.646494
v -0.634822 0.303821 0.768295
v -0.634822 -0.303821 0.646494
v -0.634822 -0.303821 0.768295
v -0.590477 -0.469322 0.646494
v -0.590477 -0.469322 0.768295
v -0.469322 -0.590477 0.646494
v -0.469322 -0.590477 0.768295
v 0.333783 0.309718 0.735414
v 0.298258 0.271818 0.731095
v 0.499812 0.401686 -0.004056
v 0.536125 0.437041 4E-05
v 0.535724 0.343617 -0.006131
v 0.499726 0.380452 -0.007737
v 0.300147 0.205912 0.730757
v 0.335466 0.170639 0.732545
v 0.393952 0.169038 0.736344
v 0.431471 0.204853 0.740764
v 0.590218 0.381558 0.003275
v 0.553432 0.342715 -0.001697
v 0.551881 0.436677 0.004207
v 0.431759 0.272996 0.742175
v 0.394577 0.310211 0.740288
v 0.588531 0.400749 0.006201
v 0.590218 0.381558 0.003275
v 0.431471 0.204853 0.740764
v -0.298258 0.271818 0.731095
v -0.333783 0.309718 0.735414
v -0.536125 0.437041 4E-05
v -0.499811 0.401686 -0.004056
v -0.499726 0.380452 -0.007737
v -0.535723 0.343617 -0.006131
v -0.335466 0.170639 0.732545
v -0.300147 0.205912 0.730757
v -0.431471 0.204853 0.740764
v -0.393952 0.169038 0.736344
v -0.553432 0.342715 -0.001697
v -0.590217 0.381558 0.003275
v 0.298258 -0.271818 0.731095
v 0.333783 -0.309718 0.735414
v 0.536125 -0.437041 4E-05
v 0.499812 -0.401686 -0.004056
v 0.499726 -0.380452 -0.007737
v 0.535724 -0.343617 -0.006131
v 0.335466 -0.170639 0.732545
v 0.300147 -0.205912 0.730757
v 0.431471 -0.204853 0.740764
v 0.393952 -0.169038 0.736344
v 0.553432 -0.342715 -0.001697
v 0.590218 -0.381558 0.003275
v -0.333783 -0.309718 0.735414
v -0.298258 -0.271818 0.731095
v -0.499811 -0.401686 -0.004056
v -0.536125 -0.437041 4E-05
v -0.535723 -0.343617 -0.006131
v -0.499726 -0.380452 -0.007737
v -0.300147 -0.205912 0.730757
v -0.335466 -0.170639 0.732545
v -0.393952 -0.169038 0.736344
v -0.431471 -0.204853 0.740764
v -0.590217 -0.381558 0.003275
v -0.553432 -0.342715 -0.001697
vt 0.842993 0.800881
vt 0.853529 0.761559
vt 0.853529 0.617187
vt 0.842993 0.577865
vt 0.814207 0.829666
vt 0.814207 0.549079
vt 0.774885 0.840203
vt 0.774885 0.538543
vt 0.630513 0.840203
vt 0.630513 0.538543
vt 0.591191 0.829667
vt 0.591191 0.549079
vt 0.562406 0.800881
vt 0.562406 0.577865
vt 0.551869 0.761559
vt 0.551869 0.617187
vt 0.201286 0.568019
vt 0.193408 0.568541
vt 0.197045 0.5683
vt 0.197703 0.568256
vt 0.207146 0.554247
vt 0.209054 0.541584
vt 0.210724 0.530493
vt 0.208792 0.543322
vt 0.209054 0.541584
vt 0.207146 0.554247
vt 0.188229 0.517641
vt 0.195851 0.51738
vt 0.197257 0.517331
vt 0.204769 0.517074
vt 0.187026 0.555314
vt 0.184683 0.542681
vt 0.184997 0.544371
vt 0.182625 0.531577
vt 0.201286 0.568019
vt 0.193408 0.568541
vt 0.197045 0.5683
vt 0.197703 0.568256
vt 0.207146 0.554247
vt 0.209054 0.541584
vt 0.210724 0.530493
vt 0.207146 0.554247
vt 0.209054 0.541584
vt 0.208792 0.543322
vt 0.188229 0.517641
vt 0.204769 0.517074
vt 0.197257 0.517331
vt 0.195851 0.51738
vt 0.187026 0.555314
vt 0.182625 0.531577
vt 0.184997 0.544371
vt 0.184683 0.542681
vt 0.201286 0.568019
vt 0.197045 0.5683
vt 0.193408 0.568541
vt 0.197703 0.568256
vt 0.209054 0.541584
vt 0.207146 0.554247
vt 0.210724 0.530493
vt 0.207146 0.554247
vt 0.209054 0.541584
vt 0.208792 0.543322
vt 0.188229 0.517641
vt 0.204769 0.517074
vt 0.197257 0.517331
vt 0.195851 0.51738
vt 0.187026 0.555314
vt 0.182625 0.531577
vt 0.184997 0.544371
vt 0.184683 0.542681
vt 0.210724 0.530493
vt 0.208792 0.543322
vt 0.209054 0.541584
vt 0.207146 0.554247
vt 0.188229 0.517641
vt 0.195851 0.51738
vt 0.197257 0.517331
vt 0.204769 0.517074
vt 0.187026 0.555314
vt 0.184683 0.542681
vt 0.184997 0.544371
vt 0.182625 0.531577
vt 0.562406 0.578367
vt 0.551869 0.617689
vt 0.551869 0.762061
vt 0.562406 0.801383
vt 0.591191 0.549581
vt 0.591191 0.830169
vt 0.630513 0.539045
vt 0.630513 0.840705
vt 0.774885 0.539045
vt 0.774885 0.840705
vt 0.814207 0.549581
vt 0.814207 0.830169
vt 0.842993 0.578367
vt 0.842993 0.801383
vt 0.853529 0.617689
vt 0.853529 0.762061
vt 0.142468 0.530165
vt 0.145639 0.531223
vt 0.147353 0.52896
vt 0.143164 0.527344
vt 0.129832 0.530054
vt 0.129311 0.527344
vt 0.12666 0.531025
vt 0.125314 0.528704
vt 0.145639 0.531223
vt 0.150412 0.532362
vt 0.147353 0.52896
vt 0.147916 0.533754
vt 0.15191 0.536608
vt 0.149088 0.537245
vt 0.15231 0.55069
vt 0.149429 0.550119
vt 0.150882 0.554956
vt 0.148561 0.55335
vt 0.148561 0.55335
vt 0.147608 0.558082
vt 0.150882 0.554956
vt 0.146193 0.555638
vt 0.143408 0.559599
vt 0.142825 0.556784
vt 0.129167 0.559499
vt 0.129925 0.556648
vt 0.124997 0.557749
vt 0.126722 0.555438
vt 0.121876 0.554432
vt 0.124325 0.552976
vt 0.124325 0.552976
vt 0.120308 0.550284
vt 0.121876 0.554432
vt 0.12311 0.549699
vt 0.120473 0.535957
vt 0.123336 0.536712
vt 0.12219 0.531763
vt 0.124546 0.533374
vt 0.125314 0.528704
vt 0.12666 0.531025
vt 0.210724 0.530493
vt 0.204769 0.517074
vt 0.197257 0.517331
vt 0.208792 0.543322
vt 0.184997 0.544371
vt 0.195851 0.51738
vt 0.188229 0.517641
vt 0.182625 0.531577
vt 0.187026 0.555314
vt 0.193408 0.568541
vt 0.197045 0.5683
vt 0.184683 0.542681
vt 0.209054 0.541584
vt 0.201286 0.568019
vt 0.207146 0.554247
vt 0.197703 0.568256
vt 0.197045 0.5683
vt 0.193408 0.568541
vt 0.204769 0.517074
vt 0.210724 0.530493
vt 0.208792 0.543322
vt 0.197257 0.517331
vt 0.195851 0.51738
vt 0.184997 0.544371
vt 0.182625 0.531577
vt 0.188229 0.517641
vt 0.193408 0.568541
vt 0.187026 0.555314
vt 0.184683 0.542681
vt 0.197045 0.5683
vt 0.204769 0.517074
vt 0.210724 0.530493
vt 0.208792 0.543322
vt 0.197257 0.517331
vt 0.195851 0.51738
vt 0.184997 0.544371
vt 0.182625 0.531577
vt 0.188229 0.517641
vt 0.193408 0.568541
vt 0.187026 0.555314
vt 0.184683 0.542681
vt 0.197045 0.5683
vt 0.210724 0.530493
vt 0.204769 0.517074
vt 0.197257 0.517331
vt 0.208792 0.543322
vt 0.184997 0.544371
vt 0.195851 0.51738
vt 0.188229 0.517641
vt 0.182625 0.531577
vt 0.187026 0.555314
vt 0.193408 0.568541
vt 0.197045 0.5683
vt 0.184683 0.542681
vn 0 0 1
vn 0 0 1
vn 0 0 1
vn 0 0 1
vn 0 0 1
vn 0 0 1
vn 0 0 1
vn 0 0 1
vn 0 0 1
vn 0 0 1
vn 0 0 1
vn 0 0 1
vn 0 0 1
vn 0 0 1
vn 0 0 1
vn 0 0 1
vn -0.8836248 0.391591 0.2566392
vn -0.8811643 -0.4662257 0.07863337
vn -0.9189404 -0.3795626 0.1071483
vn -0.8747656 0.4101886 0.2579349
vn -0.3933215 0.8883522 0.2369145
vn -0.400474 0.884899 0.2378536
vn -0.4906489 0.8711932 0.01691054
vn -0.4178218 0.9075077 0.04306782
vn 0.4004741 0.884899 0.2378537
vn 0.3933215 0.8883522 0.2369146
vn -0.846006 -0.4200491 -0.3283788
vn -0.863122 -0.3863844 -0.3251576
vn -0.8869457 0.4304985 -0.1673272
vn -0.9150245 0.3570936 -0.1876548
vn 0.3945791 -0.9096731 -0.1296227
vn 0.4583003 -0.8820214 -0.1095403
vn -0.4096932 -0.857127 -0.3122258
vn -0.4297254 -0.8461967 -0.315099
vn 0.8836225 -0.3915957 0.25664
vn 0.8811634 0.4662271 0.07863335
vn 0.9189403 0.3795628 0.1071487
vn 0.874764 -0.4101916 0.2579356
vn 0.3933216 -0.8883522 0.2369146
vn 0.400474 -0.8848989 0.2378536
vn 0.4906463 0.8711947 0.01691188
vn -0.3933215 0.8883522 0.2369145
vn -0.400474 0.884899 0.2378536
vn 0.4178195 0.9075087 0.04306889
vn 0.8460066 -0.4200483 -0.3283781
vn 0.915025 0.3570924 -0.1876547
vn 0.8869461 0.4304976 -0.1673269
vn 0.8631219 -0.3863852 -0.325157
vn -0.3945786 -0.9096733 -0.1296231
vn 0.4297256 -0.8461967 -0.3150988
vn 0.4096927 -0.8571273 -0.3122255
vn -0.4583021 -0.8820204 -0.1095401
vn -0.8836248 -0.3915911 0.2566391
vn -0.9189404 0.3795627 0.1071483
vn -0.8811642 0.4662259 0.07863338
vn -0.8747656 -0.4101886 0.2579348
vn -0.400474 -0.884899 0.2378536
vn -0.3933215 -0.8883522 0.2369145
vn -0.4906489 -0.8711932 0.01691052
vn 0.3933216 -0.8883522 0.2369146
vn 0.400474 -0.8848989 0.2378536
vn -0.4178218 -0.9075077 0.04306778
vn -0.846006 0.420049 -0.3283788
vn -0.9150244 -0.3570937 -0.1876548
vn -0.8869457 -0.4304985 -0.1673272
vn -0.863122 0.3863843 -0.3251576
vn 0.3945791 0.9096732 -0.1296227
vn -0.4297254 0.8461967 -0.315099
vn -0.4096932 0.857127 -0.3122258
vn 0.4583003 0.8820215 -0.1095403
vn 0.4906462 -0.8711948 0.0169119
vn 0.4178195 -0.9075087 0.04306891
vn -0.400474 -0.884899 0.2378536
vn -0.3933215 -0.8883522 0.2369145
vn 0.8460066 0.4200484 -0.3283781
vn 0.8631219 0.3863853 -0.325157
vn 0.8869461 -0.4304977 -0.1673269
vn 0.915025 -0.3570924 -0.1876547
vn -0.3945786 0.9096733 -0.1296231
vn -0.458302 0.8820205 -0.1095401
vn 0.4096927 0.8571273 -0.3122255
vn 0.4297256 0.8461967 -0.3150987
vn 0 0 -1
vn 0 0 -1
vn 0 0 -1
vn 0 0 -1
vn 0 0 -1
vn 0 0 -1
vn 0 0 -1
vn 0 0 -1
vn 0 0 -1
vn 0 0 -1
vn 0 0 -1
vn 0 0 -1
vn 0 0 -1
vn 0 0 -1
vn 0 0 -1
vn 0 0 -1
vn 0.05726271 -0.9983591 0
vn 0.4999993 -0.8660258 0
vn 0.4999993 -0.8660258 0
vn 0.05726271 -0.9983591 0
vn -0.05726263 -0.9983591 0
vn -0.05726263 -0.9983591 0
vn -0.499998 -0.8660266 0
vn -0.499998 -0.8660266 0
vn 0.4999993 -0.8660258 0
vn 0.8660266 -0.499998 0
vn 0.4999993 -0.8660258 0
vn 0.8660266 -0.499998 0
vn 0.9983591 -0.05726271 0
vn 0.9983591 -0.05726271 0
vn 0.9983591 0.05726271 0
vn 0.9983591 0.05726271 0
vn 0.8660266 0.499998 0
vn 0.8660266 0.499998 0
vn 0.8660266 0.499998 0
vn 0.4999993 0.8660258 0
vn 0.8660266 0.499998 0
vn 0.4999993 0.8660258 0
vn 0.05726271 0.9983591 0
vn 0.05726271 0.9983591 0
vn -0.05726263 0.9983591 0
vn -0.05726263 0.9983591 0
vn -0.499998 0.8660266 0
vn -0.499998 0.8660266 0
vn -0.8660266 0.499998 0
vn -0.8660266 0.499998 0
vn -0.8660266 0.499998 0
vn -0.9983591 0.05726271 0
vn -0.8660266 0.499998 0
vn -0.9983591 0.05726271 0
vn -0.9983591 -0.05726271 0
vn -0.9983591 -0.05726271 0
vn -0.8660266 -0.499998 0
vn -0.8660266 -0.499998 0
vn -0.499998 -0.8660266 0
vn -0.499998 -0.8660266 0
vn -0.4906489 0.8711932 0.01691054
vn -0.9150245 0.3570936 -0.1876548
vn -0.8869457 0.4304985 -0.1673272
vn -0.4178218 0.9075077 0.04306782
vn -0.4096932 -0.857127 -0.3122258
vn -0.863122 -0.3863844 -0.3251576
vn -0.846006 -0.4200491 -0.3283788
vn -0.4297254 -0.8461967 -0.315099
vn 0.3945791 -0.9096731 -0.1296227
vn 0.8811634 -0.4662271 0.07863338
vn 0.9189403 -0.3795628 0.1071487
vn 0.4583003 -0.8820214 -0.1095403
vn 0.4004741 0.884899 0.2378537
vn 0.8836225 0.3915957 0.25664
vn 0.3933215 0.8883522 0.2369146
vn 0.874764 0.4101917 0.2579356
vn 0.9189403 -0.3795628 0.1071487
vn 0.8811634 -0.4662271 0.07863338
vn 0.915025 0.3570924 -0.1876547
vn 0.4906463 0.8711947 0.01691188
vn 0.4178195 0.9075087 0.04306889
vn 0.8869461 0.4304976 -0.1673269
vn 0.8631219 -0.3863852 -0.325157
vn 0.4096927 -0.8571273 -0.3122255
vn 0.4297256 -0.8461967 -0.3150988
vn 0.8460066 -0.4200483 -0.3283781
vn -0.8811643 -0.4662257 0.07863337
vn -0.3945786 -0.9096733 -0.1296231
vn -0.4583021 -0.8820204 -0.1095401
vn -0.9189404 -0.3795626 0.1071483
vn -0.9150244 -0.3570937 -0.1876548
vn -0.4906489 -0.8711932 0.01691052
vn -0.4178218 -0.9075077 0.04306778
vn -0.8869457 -0.4304985 -0.1673272
vn -0.863122 0.3863843 -0.3251576
vn -0.4096932 0.857127 -0.3122258
vn -0.4297254 0.8461967 -0.315099
vn -0.846006 0.420049 -0.3283788
vn 0.8811634 0.4662271 0.07863335
vn 0.3945791 0.9096732 -0.1296227
vn 0.4583003 0.8820215 -0.1095403
vn 0.9189403 0.3795628 0.1071487
vn 0.4906462 -0.8711948 0.0169119
vn 0.915025 -0.3570924 -0.1876547
vn 0.8869461 -0.4304977 -0.1673269
vn 0.4178195 -0.9075087 0.04306891
vn 0.4096927 0.8571273 -0.3122255
vn 0.8631219 0.3863853 -0.325157
vn 0.8460066 0.4200484 -0.3283781
vn 0.4297256 0.8461967 -0.3150987
vn -0.3945786 0.9096733 -0.1296231
vn -0.8811642 0.4662259 0.07863338
vn -0.9189404 0.3795627 0.1071483
vn -0.458302 0.8820205 -0.1095401
g Nordic_CoffeeTable_0
f 3/3/3 2/2/2 1/1/1
f 1/1/1 4/4/4 3/3/3
f 1/1/1 5/5/5 4/4/4
f 5/5/5 6/6/6 4/4/4
f 5/5/5 7/7/7 6/6/6
f 7/7/7 8/8/8 6/6/6
f 7/7/7 9/9/9 8/8/8
f 9/9/9 10/10/10 8/8/8
f 9/9/9 11/11/11 10/10/10
f 11/11/11 12/12/12 10/10/10
f 11/11/11 13/13/13 12/12/12
f 13/13/13 14/14/14 12/12/12
f 13/13/13 15/15/15 14/14/14
f 15/15/15 16/16/16 14/14/14
f 19/19/19 18/18/18 17/17/17
f 20/20/20 19/19/19 17/17/17
f 17/17/17 21/21/21 20/20/20
f 21/21/21 22/22/22 20/20/20
f 25/25/25 24/24/24 23/23/23
f 26/26/26 25/25/25 23/23/23
f 29/29/29 28/28/28 27/27/27
f 30/30/30 29/29/29 27/27/27
f 33/33/33 32/32/32 31/31/31
f 34/34/34 33/33/33 31/31/31
f 37/37/37 36/36/36 35/35/35
f 38/38/38 37/37/37 35/35/35
f 35/35/35 39/39/39 38/38/38
f 39/39/39 40/40/40 38/38/38
f 43/43/43 42/42/42 41/41/41
f 44/44/44 43/43/43 41/41/41
f 47/47/47 46/46/46 45/45/45
f 48/48/48 47/47/47 45/45/45
f 51/51/51 50/50/50 49/49/49
f 52/52/52 51/51/51 49/49/49
f 55/55/55 54/54/54 53/53/53
f 54/54/54 56/56/56 53/53/53
f 53/53/53 56/56/56 57/57/57
f 58/58/58 53/53/53 57/57/57
f 61/61/61 60/60/60 59/59/59
f 62/62/62 61/61/61 59/59/59
f 65/65/65 64/64/64 63/63/63
f 66/66/66 65/65/65 63/63/63
f 69/69/69 68/68/68 67/67/67
f 70/70/70 69/69/69 67/67/67
f 73/73/73 72/72/72 71/71/71
f 74/74/74 73/73/73 71/71/71
f 77/77/77 76/76/76 75/75/75
f 78/78/78 77/77/77 75/75/75
f 81/81/81 80/80/80 79/79/79
f 82/82/82 81/81/81 79/79/79
f 85/85/85 84/84/84 83/83/83
f 83/83/83 86/86/86 85/85/85
f 83/83/83 87/87/87 86/86/86
f 87/87/87 88/88/88 86/86/86
f 87/87/87 89/89/89 88/88/88
f 89/89/89 90/90/90 88/88/88
f 89/89/89 91/91/91 90/90/90
f 91/91/91 92/92/92 90/90/90
f 91/91/91 93/93/93 92/92/92
f 93/93/93 94/94/94 92/92/92
f 93/93/93 95/95/95 94/94/94
f 95/95/95 96/96/96 94/94/94
f 95/95/95 97/97/97 96/96/96
f 97/97/97 98/98/98 96/96/96
f 101/101/101 100/100/100 99/99/99
f 102/102/102 101/101/101 99/99/99
f 99/99/99 103/103/103 102/102/102
f 103/103/103 104/104/104 102/102/102
f 103/103/103 105/105/105 104/104/104
f 105/105/105 106/106/106 104/104/104
f 109/109/109 108/108/108 107/107/107
f 108/108/108 110/110/110 107/107/107
f 108/108/108 111/111/111 110/110/110
f 111/111/111 112/112/112 110/110/110
f 112/112/112 111/111/111 113/113/113
f 114/114/114 112/112/112 113/113/113
f 113/113/113 115/115/115 114/114/114
f 115/115/115 116/116/116 114/114/114
f 119/119/119 118/118/118 117/117/117
f 118/118/118 120/120/120 117/117/117
f 118/118/118 121/121/121 120/120/120
f 121/121/121 122/122/122 120/120/120
f 122/122/122 121/121/121 123/123/123
f 124/124/124 122/122/122 123/123/123
f 123/123/123 125/125/125 124/124/124
f 125/125/125 126/126/126 124/124/124
f 125/125/125 127/127/127 126/126/126
f 127/127/127 128/128/128 126/126/126
f 131/131/131 130/130/130 129/129/129
f 130/130/130 132/132/132 129/129/129
f 132/132/132 130/130/130 133/133/133
f 134/134/134 132/132/132 133/133/133
f 134/134/134 133/133/133 135/135/135
f 136/136/136 134/134/134 135/135/135
f 136/136/136 135/135/135 137/137/137
f 138/138/138 136/136/136 137/137/137
f 141/141/141 140/140/140 139/139/139
f 142/142/142 141/141/141 139/139/139
f 145/145/145 144/144/144 143/143/143
f 146/146/146 145/145/145 143/143/143
f 149/149/149 148/148/148 147/147/147
f 150/150/150 149/149/149 147/147/147
f 153/153/153 152/152/152 151/151/151
f 152/152/152 154/154/154 151/151/151
f 155/155/155 154/154/154 152/152/152
f 156/156/156 155/155/155 152/152/152
f 159/159/159 158/158/158 157/157/157
f 160/160/160 159/159/159 157/157/157
f 163/163/163 162/162/162 161/161/161
f 164/164/164 163/163/163 161/161/161
f 167/167/167 166/166/166 165/165/165
f 168/168/168 167/167/167 165/165/165
f 171/171/171 170/170/170 169/169/169
f 172/172/172 171/171/171 169/169/169
f 175/175/175 174/174/174 173/173/173
f 176/176/176 175/175/175 173/173/173
f 179/179/179 178/178/178 177/177/177
f 180/180/180 179/179/179 177/177/177
f 183/183/183 182/182/182 181/181/181
f 184/184/184 183/183/183 181/181/181
f 187/187/187 186/186/186 185/185/185
f 188/188/188 187/187/187 185/185/185
f 191/191/191 190/190/190 189/189/189
f 192/192/192 191/191/191 189/189/189
