g NoSideAllCornersExceptTopRight
v -0.75 1 0
v -1 0.75 0
v -1 1 -0.25
v 1 -1 -0.25
v 0.75 -1 0
v 1 -0.75 0
v 0.75 1 0
v 1 1 -0.25
v 1 0.75 0
v -0.8 -1 0
v -1 -1 0
v -1 -0.802731 0
v -0.8 -0.8 0
v 0.75 -1 0
v -1 0.75 0
v 0.8 -0.8 0
v 1 -0.75 0
v -0.8 0.8 0
v -0.75 1 0
v 0.798208 0.8 0
v 1 0.75 0
v 0.75 1 0
vt 0.875 0
vt 1 0.125
vt 1 0
vt 0 1
vt 0.100896 1
vt 0 0.899545
vt 0.098208 0
vt 0 0
vt 0 0.1
vt 0.9 1
vt 1 1
vt 1 0.901365
vt 0.9 0.899544
vt 0.100896 1
vt 1 0.125
vt 0.100896 0.899545
vt 0 0.899545
vt 0.9 0.099999
vt 0.875 0
vt 0.100896 0.1
vt 0 0.1
vt 0.098208 0
vn -0.5773503 0.5773503 0.5773503
vn -0.5773503 0.5773503 0.5773503
vn -0.5773503 0.5773503 0.5773503
vn 0.5773503 -0.5773503 0.5773503
vn 0.5773503 -0.5773503 0.5773503
vn 0.5773503 -0.5773503 0.5773503
vn 0.5773503 0.5773503 0.5773503
vn 0.5773503 0.5773503 0.5773503
vn 0.5773503 0.5773503 0.5773503
vn 0 0 1
vn 0 0 1
vn 0 0 1
vn 0 0 1
vn 0 0 1
vn 0 0 1
vn 0 0 1
vn 0 0 1
vn 0 0 1
vn 0 0 1
vn 0 0 1
vn 0 0 1
vn 0 0 1
g NoSideAllCornersExceptTopRight_0
f 3/3/3 2/2/2 1/1/1
f 6/6/6 5/5/5 4/4/4
f 9/9/9 8/8/8 7/7/7
f 12/12/12 11/11/11 10/10/10
f 13/13/13 12/12/12 10/10/10
f 13/13/13 10/10/10 14/14/14
f 15/15/15 12/12/12 13/13/13
f 16/16/16 13/13/13 14/14/14
f 17/17/17 16/16/16 14/14/14
f 18/18/18 15/15/15 13/13/13
f 18/18/18 13/13/13 16/16/16
f 19/19/19 15/15/15 18/18/18
f 20/20/20 16/16/16 17/17/17
f 20/20/20 18/18/18 16/16/16
f 19/19/19 18/18/18 20/20/20
f 21/21/21 20/20/20 17/17/17
f 22/22/22 19/19/19 20/20/20
f 22/22/22 20/20/20 21/21/21
