g OldMineLampPost
v 0.086474 -0.184729 1.033461
v 0.111082 -0.185408 -0.014902
v -0.111082 -0.185408 -0.014902
v -0.115613 -0.184729 1.033461
v 0.073794 -0.198721 2.721893
v -0.128292 -0.198721 2.721893
v 0.069263 -0.231554 4.661952
v -0.152901 -0.231554 4.661952
v -0.115613 0.152575 1.033461
v -0.111082 0.185408 -0.014902
v 0.111082 0.185408 -0.014902
v 0.086474 0.152575 1.033461
v -0.128292 0.138584 2.721893
v 0.073794 0.138584 2.721893
v -0.152901 0.139263 4.661952
v 0.069263 0.139263 4.661952
v -0.128292 -0.198721 2.721893
v -0.227227 -0.157227 4.661952
v -0.152901 -0.231554 4.661952
v -0.195902 -0.131112 2.721893
v -0.115613 -0.184729 1.033461
v -0.195902 0.070975 2.721893
v -0.227227 0.064937 4.661952
v -0.152901 0.139263 4.661952
v -0.128292 0.138584 2.721893
v -0.183222 0.084966 1.033461
v -0.115613 0.152575 1.033461
v -0.183222 -0.11712 1.033461
v -0.111082 -0.185408 -0.014902
v -0.185408 -0.111082 -0.014902
v -0.185408 0.111082 -0.014902
v -0.111082 0.185408 -0.014902
v 0.086474 -0.184729 1.033461
v 0.185408 -0.111082 -0.014902
v 0.111082 -0.185408 -0.014902
v 0.154083 -0.11712 1.033461
v 0.073794 -0.198721 2.721893
v 0.154083 0.084966 1.033461
v 0.185408 0.111082 -0.014902
v 0.111082 0.185408 -0.014902
v 0.086474 0.152575 1.033461
v 0.141403 0.070975 2.721893
v 0.073794 0.138584 2.721893
v 0.141403 -0.131112 2.721893
v 0.069263 -0.231554 4.661952
v 0.14359 -0.157227 4.661952
v 0.14359 0.064937 4.661952
v 0.069263 0.139263 4.661952
v -0.152901 -0.231554 4.661952
v -0.227227 -0.157227 4.661952
v -0.152901 -0.157227 4.661952
v -0.227227 0.064937 4.661952
v 0.069263 -0.157227 4.661952
v 0.069263 -0.231554 4.661952
v 0.14359 -0.157227 4.661952
v -0.152901 0.064937 4.661952
v -0.152901 0.139263 4.661952
v 0.069263 0.139263 4.661952
v 0.069263 0.064937 4.661952
v 0.14359 0.064937 4.661952
vt 0.700019 0.818847
vt 0.700019 0.738089
vt 0.661716 0.738089
vt 0.661716 0.818847
vt 0.700019 0.899605
vt 0.661716 0.899605
vt 0.700019 0.980363
vt 0.661716 0.980363
vt 0.661716 0.818847
vt 0.661716 0.738089
vt 0.700019 0.738089
vt 0.700019 0.818847
vt 0.661716 0.899605
vt 0.700019 0.899605
vt 0.661716 0.980363
vt 0.700019 0.980363
vt 0.654364 0.898087
vt 0.664861 0.980936
vt 0.654364 0.980936
vt 0.664861 0.898087
vt 0.654364 0.815238
vt 0.696235 0.898087
vt 0.696235 0.980936
vt 0.706731 0.980936
vt 0.706731 0.898087
vt 0.696235 0.815238
vt 0.706731 0.815238
vt 0.664861 0.815238
vt 0.654364 0.732389
vt 0.664861 0.732389
vt 0.696235 0.732389
vt 0.706731 0.732389
vt 0.654364 0.815238
vt 0.664861 0.732389
vt 0.654364 0.732389
vt 0.664861 0.815238
vt 0.654364 0.898087
vt 0.696235 0.815238
vt 0.696235 0.732389
vt 0.706731 0.732389
vt 0.706731 0.815238
vt 0.696235 0.898087
vt 0.706731 0.898087
vt 0.664861 0.898087
vt 0.654364 0.980936
vt 0.664861 0.980936
vt 0.696235 0.980936
vt 0.706731 0.980936
vt 0.230645 0.855926
vt 0.207918 0.878652
vt 0.230645 0.878652
vt 0.207918 0.946582
vt 0.298575 0.878652
vt 0.298575 0.855926
vt 0.321301 0.878652
vt 0.230645 0.946582
vt 0.230645 0.969308
vt 0.298575 0.969308
vt 0.298575 0.946582
vt 0.321301 0.946582
vn 0.2426917 -0.9701027 -0.001262491
vn 0.2475093 -0.9688641 0.006437246
vn -0.2423078 -0.9701994 -0.0004188695
vn -0.2430351 -0.9699981 -0.006148422
vn 0.2431747 -0.9699146 -0.0114825
vn -0.2429017 -0.9699327 -0.01515075
vn 0.2413893 -0.9702988 -0.01585729
vn -0.2441807 -0.9695336 -0.01950533
vn -0.24317 0.9698625 0.01533564
vn -0.2398275 0.9703717 0.02935391
vn 0.2449796 0.9688561 0.03609333
vn 0.2428014 0.9698638 0.02029094
vn -0.2428092 0.9700736 0.0009383022
vn 0.243068 0.9699982 0.004604605
vn -0.2455054 0.969389 -0.003453364
vn 0.2427001 0.9701014 0.0002272401
vn -0.2429017 -0.9699327 -0.01515075
vn -0.9694922 -0.2443889 -0.01894365
vn -0.2441807 -0.9695336 -0.01950533
vn -0.9699453 -0.2428856 -0.01458607
vn -0.2430351 -0.9699981 -0.006148422
vn -0.9699224 0.2431859 -0.01053834
vn -0.9703338 0.2413085 -0.01491646
vn -0.2455054 0.969389 -0.003453364
vn -0.2428092 0.9700736 0.0009383022
vn -0.9701057 0.2426824 0
vn -0.24317 0.9698625 0.01533564
vn -0.9699954 -0.243063 -0.005396094
vn -0.2423078 -0.9701994 -0.0004188695
vn -0.9702935 -0.2419301 0.0006298303
vn -0.9688106 0.2476674 0.00818982
vn -0.2398275 0.9703717 0.02935391
vn 0.2426917 -0.9701027 -0.001262491
vn 0.9704579 -0.2396846 0.02761675
vn 0.2475093 -0.9688641 0.006437246
vn 0.9698778 -0.2431854 0.01407065
vn 0.2431747 -0.9699146 -0.0114825
vn 0.9698848 0.2427796 0.0195352
vn 0.9687946 0.2453724 0.03506003
vn 0.2449796 0.9688561 0.03609333
vn 0.2428014 0.9698638 0.02029094
vn 0.9699957 0.2430886 0.004040316
vn 0.243068 0.9699982 0.004604605
vn 0.9700758 -0.2428024 0
vn 0.2413893 -0.9702988 -0.01585729
vn 0.9693635 -0.2455915 -0.004398638
vn 0.9701521 0.2424972 -0.0003388595
vn 0.2427001 0.9701014 0.0002272401
vn 0 0 1
vn 0 0 1
vn 0 0 1
vn 0 0 1
vn 0 0 1
vn 0 0 1
vn 0 0 1
vn 0 0 1
vn 0 0 1
vn 0 0 1
vn 0 0 1
vn 0 0 1
g OldMineLampPost_0
f 3/3/3 2/2/2 1/1/1
f 4/4/4 3/3/3 1/1/1
f 4/4/4 1/1/1 5/5/5
f 6/6/6 4/4/4 5/5/5
f 6/6/6 5/5/5 7/7/7
f 8/8/8 6/6/6 7/7/7
f 11/11/11 10/10/10 9/9/9
f 12/12/12 11/11/11 9/9/9
f 12/12/12 9/9/9 13/13/13
f 14/14/14 12/12/12 13/13/13
f 14/14/14 13/13/13 15/15/15
f 16/16/16 14/14/14 15/15/15
f 19/19/19 18/18/18 17/17/17
f 18/18/18 20/20/20 17/17/17
f 17/17/17 20/20/20 21/21/21
f 22/22/22 20/20/20 18/18/18
f 23/23/23 22/22/22 18/18/18
f 22/22/22 23/23/23 24/24/24
f 25/25/25 22/22/22 24/24/24
f 26/26/26 22/22/22 25/25/25
f 22/22/22 26/26/26 20/20/20
f 27/27/27 26/26/26 25/25/25
f 20/20/20 28/28/28 21/21/21
f 26/26/26 28/28/28 20/20/20
f 21/21/21 28/28/28 29/29/29
f 28/28/28 30/30/30 29/29/29
f 31/31/31 30/30/30 28/28/28
f 26/26/26 31/31/31 28/28/28
f 31/31/31 26/26/26 27/27/27
f 32/32/32 31/31/31 27/27/27
f 35/35/35 34/34/34 33/33/33
f 34/34/34 36/36/36 33/33/33
f 33/33/33 36/36/36 37/37/37
f 36/36/36 34/34/34 38/38/38
f 34/34/34 39/39/39 38/38/38
f 39/39/39 40/40/40 38/38/38
f 40/40/40 41/41/41 38/38/38
f 38/38/38 41/41/41 42/42/42
f 36/36/36 38/38/38 42/42/42
f 41/41/41 43/43/43 42/42/42
f 36/36/36 44/44/44 37/37/37
f 44/44/44 36/36/36 42/42/42
f 37/37/37 44/44/44 45/45/45
f 44/44/44 46/46/46 45/45/45
f 46/46/46 44/44/44 47/47/47
f 44/44/44 42/42/42 47/47/47
f 42/42/42 43/43/43 47/47/47
f 43/43/43 48/48/48 47/47/47
f 51/51/51 50/50/50 49/49/49
f 52/52/52 50/50/50 51/51/51
f 51/51/51 49/49/49 53/53/53
f 49/49/49 54/54/54 53/53/53
f 54/54/54 55/55/55 53/53/53
f 56/56/56 52/52/52 51/51/51
f 56/56/56 51/51/51 53/53/53
f 57/57/57 52/52/52 56/56/56
f 58/58/58 57/57/57 56/56/56
f 53/53/53 55/55/55 59/59/59
f 59/59/59 56/56/56 53/53/53
f 59/59/59 58/58/58 56/56/56
f 55/55/55 60/60/60 59/59/59
f 60/60/60 58/58/58 59/59/59
