g OldRoadSign
v -1.240692 -0.068962 3.987576
v -1.240692 -0.104952 3.987576
v -0.111113 -0.104952 2.837193
v -0.11141 -0.068962 2.837193
v 0.084293 -0.068962 2.837193
v 0.08459 -0.104952 2.837193
v 1.255776 -0.104952 3.987576
v 1.255776 -0.068962 3.987576
v 1.255777 -0.077473 4.187049
v 1.255776 -0.113301 4.183636
v 0.105393 -0.222399 5.328834
v 0.105394 -0.186572 5.332247
v -0.11141 -0.068962 2.837193
v -0.018593 -0.068962 2.796662
v 0.084293 -0.068962 2.837193
v -1.240692 -0.068962 3.987576
v 1.255776 -0.068962 3.987576
v -1.281224 -0.068194 4.089639
v 1.296308 -0.068194 4.089639
v -1.240692 -0.077473 4.187049
v 1.255777 -0.077473 4.187049
v -0.090309 -0.186572 5.332247
v 0.105394 -0.186572 5.332247
v 0.007542 -0.190415 5.372595
v -0.090309 -0.222399 5.328834
v 0.007542 -0.226243 5.369182
v 0.105393 -0.222399 5.328834
v -1.240692 -0.113301 4.183636
v 1.255776 -0.113301 4.183636
v -1.281223 -0.104021 4.086226
v 1.296308 -0.104021 4.086226
v -1.279579 -0.103645 4.082274
v -1.240692 -0.104952 3.987576
v 1.255776 -0.104952 3.987576
v -0.111113 -0.104952 2.837193
v 0.08459 -0.104952 2.837193
v -0.018424 -0.104952 2.796662
v 0.084293 -0.068962 2.837193
v -0.018593 -0.068962 2.796662
v -0.018424 -0.104952 2.796662
v 0.08459 -0.104952 2.837193
v -0.018593 -0.068962 2.796662
v -0.11141 -0.068962 2.837193
v -0.111113 -0.104952 2.837193
v -0.018424 -0.104952 2.796662
v -1.240692 -0.113301 4.183636
v -1.281223 -0.104021 4.086226
v -1.281224 -0.068194 4.089639
v -1.240692 -0.077473 4.187049
v -1.281224 -0.068194 4.089639
v -1.281223 -0.104021 4.086226
v -1.279579 -0.103645 4.082274
v -1.240692 -0.068962 3.987576
v -1.240692 -0.104952 3.987576
v 1.255777 -0.077473 4.187049
v 1.296308 -0.068194 4.089639
v 1.296308 -0.104021 4.086226
v 1.255776 -0.113301 4.183636
v 1.296308 -0.068194 4.089639
v 1.255776 -0.068962 3.987576
v 1.255776 -0.104952 3.987576
v 1.296308 -0.104021 4.086226
v 0.105393 -0.222399 5.328834
v 0.007542 -0.226243 5.369182
v 0.007542 -0.190415 5.372595
v 0.105394 -0.186572 5.332247
v 0.007542 -0.226243 5.369182
v -0.090309 -0.222399 5.328834
v -0.090309 -0.186572 5.332247
v 0.007542 -0.190415 5.372595
v -0.090309 -0.186572 5.332247
v -0.090309 -0.222399 5.328834
v -1.240692 -0.113301 4.183636
v -1.240692 -0.077473 4.187049
v 0.07192 0.080613 4.707016
v 0.091398 0.033588 4.707016
v 0.091398 -0.001117 4.707016
v 0.07192 -0.048142 4.707016
v 0.024895 0.100091 4.707016
v 0.024895 -0.06762 4.707016
v -0.009811 0.100091 4.707016
v -0.009811 -0.06762 4.707016
v -0.056835 0.080613 4.707016
v -0.056835 -0.048142 4.707016
v -0.076314 0.033588 4.707016
v -0.076314 -0.001117 4.707016
v 0.07192 -0.048142 -0.131138
v 0.091398 -0.001117 -0.131138
v 0.091398 0.033588 -0.131138
v 0.07192 0.080613 -0.131138
v 0.024895 -0.06762 -0.131138
v 0.024895 0.100091 -0.131138
v -0.009811 -0.06762 -0.131138
v -0.009811 0.100091 -0.131138
v -0.056835 -0.048142 -0.131138
v -0.056835 0.080613 -0.131138
v -0.076314 -0.001117 -0.131138
v -0.076314 0.033588 -0.131138
v -0.129945 0.080613 2.28794
v -0.009811 0.100091 4.707016
v -0.056835 0.080613 4.707016
v -0.08292 0.100091 2.28794
v -0.056835 0.080613 -0.131138
v -0.009811 0.100091 -0.131138
v 0.024895 0.100091 -0.131138
v -0.048215 0.100091 2.28794
v 0.024895 0.100091 4.707016
v 0.07192 0.080613 4.707016
v -0.00119 0.080613 2.28794
v 0.07192 0.080613 -0.131138
v -0.00119 -0.048142 2.28794
v 0.024895 -0.06762 4.707016
v 0.07192 -0.048142 4.707016
v -0.048215 -0.06762 2.28794
v 0.07192 -0.048142 -0.131138
v 0.024895 -0.06762 -0.131138
v -0.009811 -0.06762 -0.131138
v -0.08292 -0.06762 2.28794
v -0.009811 -0.06762 4.707016
v -0.056835 -0.048142 4.707016
v -0.129945 -0.048142 2.28794
v -0.056835 -0.048142 -0.131138
v -0.076314 -0.001117 4.707016
v -0.056835 -0.048142 4.707016
v -0.129945 -0.048142 2.28794
v -0.149424 -0.001117 2.28794
v -0.056835 -0.048142 -0.131138
v -0.076314 -0.001117 -0.131138
v -0.076314 0.033588 -0.131138
v -0.149424 0.033588 2.28794
v -0.076314 0.033588 4.707016
v -0.056835 0.080613 4.707016
v -0.129945 0.080613 2.28794
v -0.056835 0.080613 -0.131138
v 0.091398 -0.001117 -0.131138
v 0.07192 -0.048142 -0.131138
v -0.00119 -0.048142 2.28794
v 0.018288 -0.001117 2.28794
v 0.07192 -0.048142 4.707016
v 0.091398 -0.001117 4.707016
v 0.091398 0.033588 4.707016
v 0.018288 0.033588 2.28794
v 0.091398 0.033588 -0.131138
v 0.07192 0.080613 -0.131138
v -0.00119 0.080613 2.28794
v 0.07192 0.080613 4.707016
vt 0.37742 0.523856
vt 0.37742 0.528337
vt 0.381902 0.528337
vt 0.381902 0.523856
vt 0.37742 0.523856
vt 0.37742 0.528337
vt 0.381902 0.528337
vt 0.381902 0.523856
vt 0.37742 0.523856
vt 0.37742 0.528337
vt 0.381902 0.528337
vt 0.381902 0.523856
vt 0.42656 0.406992
vt 0.427628 0.404412
vt 0.42656 0.401832
vt 0.396228 0.437324
vt 0.396228 0.3715
vt 0.393648 0.438393
vt 0.393648 0.370431
vt 0.391068 0.437324
vt 0.391068 0.3715
vt 0.360736 0.406992
vt 0.360736 0.401832
vt 0.359667 0.404412
vt 0.51252 0.66725
vt 0.523325 0.671726
vt 0.534131 0.66725
vt 0.385487 0.540217
vt 0.661163 0.540217
vt 0.381011 0.529412
vt 0.665639 0.529412
vt 0.381193 0.528974
vt 0.385487 0.518606
vt 0.661163 0.518606
vt 0.51252 0.391574
vt 0.534131 0.391574
vt 0.523325 0.387098
vt 0.37742 0.523856
vt 0.37742 0.528337
vt 0.381902 0.528337
vt 0.381902 0.523856
vt 0.37742 0.523856
vt 0.37742 0.528337
vt 0.381902 0.528337
vt 0.381902 0.523856
vt 0.37742 0.523856
vt 0.37742 0.528337
vt 0.381902 0.528337
vt 0.381902 0.523856
vt 0.381902 0.523856
vt 0.37742 0.523856
vt 0.37742 0.524037
vt 0.381902 0.528337
vt 0.37742 0.528337
vt 0.37742 0.523856
vt 0.37742 0.528337
vt 0.381902 0.528337
vt 0.381902 0.523856
vt 0.37742 0.523856
vt 0.37742 0.528337
vt 0.381902 0.528337
vt 0.381902 0.523856
vt 0.37742 0.523856
vt 0.37742 0.528337
vt 0.381902 0.528337
vt 0.381902 0.523856
vt 0.37742 0.523856
vt 0.37742 0.528337
vt 0.381902 0.528337
vt 0.381902 0.523856
vt 0.37742 0.523856
vt 0.37742 0.528337
vt 0.381902 0.528337
vt 0.381902 0.523856
vt 0.42349 0.450218
vt 0.425671 0.444952
vt 0.425671 0.441066
vt 0.42349 0.435801
vt 0.418224 0.452399
vt 0.418224 0.433619
vt 0.414338 0.452399
vt 0.414338 0.433619
vt 0.409072 0.450218
vt 0.409072 0.435801
vt 0.406891 0.444952
vt 0.406891 0.441066
vt 0.379997 0.640475
vt 0.481097 0.682352
vt 0.555711 0.682352
vt 0.65681 0.640475
vt 0.33812 0.539375
vt 0.698687 0.539375
vt 0.33812 0.464761
vt 0.698687 0.464761
vt 0.379997 0.363661
vt 0.65681 0.363661
vt 0.481097 0.321784
vt 0.555711 0.321784
vt 0.428265 0.410271
vt 0.401528 0.452278
vt 0.428265 0.452278
vt 0.401528 0.410271
vt 0.428265 0.368264
vt 0.401528 0.368264
vt 0.387574 0.368264
vt 0.387574 0.410271
vt 0.387574 0.452278
vt 0.360836 0.452278
vt 0.360836 0.410271
vt 0.360836 0.368264
vt 0.428265 0.410271
vt 0.401528 0.452278
vt 0.428265 0.452278
vt 0.401528 0.410271
vt 0.428265 0.368264
vt 0.401528 0.368264
vt 0.387574 0.368264
vt 0.387574 0.410271
vt 0.387574 0.452278
vt 0.360836 0.452278
vt 0.360836 0.410271
vt 0.360836 0.368264
vt 0.401528 0.452278
vt 0.428265 0.452278
vt 0.428265 0.410271
vt 0.401528 0.410271
vt 0.428265 0.368264
vt 0.401528 0.368264
vt 0.387574 0.368264
vt 0.387574 0.410271
vt 0.387574 0.452278
vt 0.360836 0.452278
vt 0.360836 0.410271
vt 0.360836 0.368264
vt 0.387574 0.368264
vt 0.360836 0.368264
vt 0.360836 0.410271
vt 0.387574 0.410271
vt 0.360836 0.452278
vt 0.387574 0.452278
vt 0.401528 0.452278
vt 0.401528 0.410271
vt 0.401528 0.368264
vt 0.428265 0.368264
vt 0.428265 0.410271
vt 0.428265 0.452278
vn -0.835755 0.002132657 -0.5490984
vn -0.8344141 -0.001506047 -0.5511361
vn -0.5666668 -0.002818856 -0.8239422
vn -0.5680217 -0.002820377 -0.8230088
vn 0.5436977 0.002683478 -0.8392769
vn 0.545171 0.002685762 -0.8383205
vn 0.8310056 0.0105465 -0.5561641
vn 0.8315845 0.01058464 -0.5552974
vn 0.8314703 -0.0526982 0.5530643
vn 0.831467 -0.05269866 0.5530692
vn 0.5555645 -0.07885605 0.8277256
vn 0.5555702 -0.07885569 0.8277219
vn 0 1 0
vn 0 1 0
vn 0 1 0
vn 0 0.9999857 -0.005345051
vn 0 0.9999856 -0.005381029
vn 0 0.9990582 0.04339168
vn 0 0.9990582 0.0433919
vn 0 0.9954934 0.09483071
vn 0 0.9954934 0.09483071
vn 0 0.9954931 0.09483425
vn 0 0.9954931 0.09483422
vn 0 0.9954947 0.09481699
vn 0 -0.9954928 -0.09483708
vn 0 -0.9954923 -0.09484176
vn 0 -0.9954928 -0.09483705
vn 0 -0.9954927 -0.09483741
vn 0 -0.9954927 -0.0948374
vn 0 -0.9954986 -0.09477574
vn 0 -0.9990882 -0.04269412
vn -6.290642E-05 -0.9985409 -0.05400077
vn -0.0001165 -0.9999529 0.00971123
vn 0 -0.9999772 0.006760018
vn 0 -1 0
vn 0 -1 0
vn 0 -1 0
vn 0.5436977 0.002683478 -0.8392769
vn -0.01960065 -0.0001269284 -0.9998079
vn -0.01730896 -0.0001120918 -0.9998502
vn 0.545171 0.002685762 -0.8383205
vn -0.01960065 -0.0001269284 -0.9998079
vn -0.5680217 -0.002820377 -0.8230088
vn -0.5666668 -0.002818856 -0.8239422
vn -0.01730896 -0.0001120918 -0.9998502
vn -0.831468 -0.05268988 0.5530684
vn -1 -2.047314E-05 2.264983E-05
vn -0.9998245 -0.00253348 0.01856694
vn -0.8314693 -0.05268971 0.5530666
vn -0.9998245 -0.00253348 0.01856694
vn -1 -2.047314E-05 2.264983E-05
vn -0.926281 0.03127091 -0.3755337
vn -0.835755 0.002132657 -0.5490984
vn -0.8344141 -0.001506047 -0.5511361
vn 0.8314703 -0.0526982 0.5530643
vn 0.999809 -0.01090838 0.01621939
vn 0.9999205 -0.009122982 -0.008713165
vn 0.831467 -0.05269866 0.5530692
vn 0.999809 -0.01090838 0.01621939
vn 0.8315845 0.01058464 -0.5552974
vn 0.8310056 0.0105465 -0.5561641
vn 0.9999205 -0.009122982 -0.008713165
vn 0.5555645 -0.07885605 0.8277256
vn 0 -0.09482794 0.9954937
vn 0 -0.09482794 0.9954937
vn 0.5555702 -0.07885569 0.8277219
vn 0 -0.09482794 0.9954937
vn -0.5555677 -0.0788445 0.8277246
vn -0.5555686 -0.07884445 0.827724
vn 0 -0.09482794 0.9954937
vn -0.5555686 -0.07884445 0.827724
vn -0.5555677 -0.0788445 0.8277246
vn -0.831468 -0.05268988 0.5530684
vn -0.8314693 -0.05268971 0.5530666
vn 0 0 1
vn 0 0 1
vn 0 0 1
vn 0 0 1
vn 0 0 1
vn 0 0 1
vn 0 0 1
vn 0 0 1
vn 0 0 1
vn 0 0 1
vn 0 0 1
vn 0 0 1
vn 0 0 -1
vn 0 0 -1
vn 0 0 -1
vn 0 0 -1
vn 0 0 -1
vn 0 0 -1
vn 0 0 -1
vn 0 0 -1
vn 0 0 -1
vn 0 0 -1
vn 0 0 -1
vn 0 0 -1
vn -0.7107443 0.7034504 0
vn -0.1914708 0.9814812 0.005786645
vn -0.7032248 0.7106498 0.02125302
vn -0.1986929 0.9800617 0
vn -0.7032248 0.7106498 -0.021253
vn -0.1914708 0.9814812 -0.00578664
vn 0.1986875 0.9800444 0.006004784
vn 0.1914721 0.981498 0
vn 0.1986875 0.9800444 -0.00600479
vn 0.7105855 0.703283 -0.02147552
vn 0.7033887 0.7108054 0
vn 0.7105855 0.703283 0.0214755
vn 0.7033887 -0.7108054 0
vn 0.1986875 -0.9800444 -0.00600479
vn 0.7105855 -0.703283 -0.02147552
vn 0.1914721 -0.981498 0
vn 0.7105855 -0.703283 0.0214755
vn 0.1986875 -0.9800444 0.006004785
vn -0.1914708 -0.9814812 -0.005786641
vn -0.1986929 -0.9800617 0
vn -0.1914708 -0.9814812 0.005786645
vn -0.7032248 -0.7106498 0.02125302
vn -0.7107443 -0.7034504 0
vn -0.7032248 -0.7106498 -0.021253
vn -0.9802099 -0.1957316 0.02962418
vn -0.7032248 -0.7106498 0.02125302
vn -0.7107443 -0.7034504 0
vn -0.980926 -0.1943816 0
vn -0.7032248 -0.7106498 -0.021253
vn -0.98021 -0.1957316 -0.02962416
vn -0.98021 0.1957316 -0.02962416
vn -0.980926 0.1943816 0
vn -0.9802099 0.1957316 0.02962418
vn -0.7032248 0.7106498 0.02125302
vn -0.7107443 0.7034504 0
vn -0.7032248 0.7106498 -0.021253
vn 0.9804969 -0.1942874 0.02963283
vn 0.7105855 -0.703283 0.0214755
vn 0.7033887 -0.7108054 0
vn 0.9806421 -0.1958085 0
vn 0.7105855 -0.703283 -0.02147552
vn 0.9804969 -0.1942874 -0.02963286
vn 0.9804969 0.1942874 -0.02963286
vn 0.9806421 0.1958085 0
vn 0.9804969 0.1942874 0.02963283
vn 0.7105855 0.703283 0.0214755
vn 0.7033887 0.7108054 0
vn 0.7105855 0.703283 -0.02147552
g OldRoadSign_0
f 3/3/3 2/2/2 1/1/1
f 4/4/4 3/3/3 1/1/1
f 7/7/7 6/6/6 5/5/5
f 8/8/8 7/7/7 5/5/5
f 11/11/11 10/10/10 9/9/9
f 12/12/12 11/11/11 9/9/9
f 15/15/15 14/14/14 13/13/13
f 13/13/13 16/16/16 15/15/15
f 16/16/16 17/17/17 15/15/15
f 16/16/16 18/18/18 17/17/17
f 18/18/18 19/19/19 17/17/17
f 18/18/18 20/20/20 19/19/19
f 20/20/20 21/21/21 19/19/19
f 20/20/20 22/22/22 21/21/21
f 22/22/22 23/23/23 21/21/21
f 22/22/22 24/24/24 23/23/23
f 27/27/27 26/26/26 25/25/25
f 27/27/27 25/25/25 28/28/28
f 29/29/29 27/27/27 28/28/28
f 29/29/29 28/28/28 30/30/30
f 31/31/31 29/29/29 30/30/30
f 30/30/30 32/32/32 31/31/31
f 31/31/31 32/32/32 33/33/33
f 34/34/34 31/31/31 33/33/33
f 34/34/34 33/33/33 35/35/35
f 36/36/36 34/34/34 35/35/35
f 35/35/35 37/37/37 36/36/36
f 40/40/40 39/39/39 38/38/38
f 41/41/41 40/40/40 38/38/38
f 44/44/44 43/43/43 42/42/42
f 45/45/45 44/44/44 42/42/42
f 48/48/48 47/47/47 46/46/46
f 49/49/49 48/48/48 46/46/46
f 52/52/52 51/51/51 50/50/50
f 50/50/50 53/53/53 52/52/52
f 54/54/54 52/52/52 53/53/53
f 57/57/57 56/56/56 55/55/55
f 58/58/58 57/57/57 55/55/55
f 61/61/61 60/60/60 59/59/59
f 62/62/62 61/61/61 59/59/59
f 65/65/65 64/64/64 63/63/63
f 66/66/66 65/65/65 63/63/63
f 69/69/69 68/68/68 67/67/67
f 70/70/70 69/69/69 67/67/67
f 73/73/73 72/72/72 71/71/71
f 74/74/74 73/73/73 71/71/71
f 77/77/77 76/76/76 75/75/75
f 75/75/75 78/78/78 77/77/77
f 75/75/75 79/79/79 78/78/78
f 79/79/79 80/80/80 78/78/78
f 79/79/79 81/81/81 80/80/80
f 81/81/81 82/82/82 80/80/80
f 81/81/81 83/83/83 82/82/82
f 83/83/83 84/84/84 82/82/82
f 83/83/83 85/85/85 84/84/84
f 85/85/85 86/86/86 84/84/84
f 89/89/89 88/88/88 87/87/87
f 87/87/87 90/90/90 89/89/89
f 87/87/87 91/91/91 90/90/90
f 91/91/91 92/92/92 90/90/90
f 91/91/91 93/93/93 92/92/92
f 93/93/93 94/94/94 92/92/92
f 93/93/93 95/95/95 94/94/94
f 95/95/95 96/96/96 94/94/94
f 95/95/95 97/97/97 96/96/96
f 97/97/97 98/98/98 96/96/96
f 101/101/101 100/100/100 99/99/99
f 100/100/100 102/102/102 99/99/99
f 99/99/99 102/102/102 103/103/103
f 102/102/102 104/104/104 103/103/103
f 104/104/104 102/102/102 105/105/105
f 102/102/102 100/100/100 106/106/106
f 102/102/102 106/106/106 105/105/105
f 100/100/100 107/107/107 106/106/106
f 106/106/106 107/107/107 108/108/108
f 109/109/109 106/106/106 108/108/108
f 105/105/105 106/106/106 109/109/109
f 110/110/110 105/105/105 109/109/109
f 113/113/113 112/112/112 111/111/111
f 112/112/112 114/114/114 111/111/111
f 111/111/111 114/114/114 115/115/115
f 114/114/114 116/116/116 115/115/115
f 116/116/116 114/114/114 117/117/117
f 114/114/114 112/112/112 118/118/118
f 114/114/114 118/118/118 117/117/117
f 112/112/112 119/119/119 118/118/118
f 118/118/118 119/119/119 120/120/120
f 121/121/121 118/118/118 120/120/120
f 117/117/117 118/118/118 121/121/121
f 122/122/122 117/117/117 121/121/121
f 125/125/125 124/124/124 123/123/123
f 126/126/126 125/125/125 123/123/123
f 127/127/127 125/125/125 126/126/126
f 128/128/128 127/127/127 126/126/126
f 128/128/128 126/126/126 129/129/129
f 126/126/126 123/123/123 130/130/130
f 126/126/126 130/130/130 129/129/129
f 123/123/123 131/131/131 130/130/130
f 131/131/131 132/132/132 130/130/130
f 132/132/132 133/133/133 130/130/130
f 130/130/130 133/133/133 129/129/129
f 133/133/133 134/134/134 129/129/129
f 137/137/137 136/136/136 135/135/135
f 138/138/138 137/137/137 135/135/135
f 139/139/139 137/137/137 138/138/138
f 140/140/140 139/139/139 138/138/138
f 141/141/141 140/140/140 138/138/138
f 142/142/142 138/138/138 135/135/135
f 142/142/142 141/141/141 138/138/138
f 143/143/143 142/142/142 135/135/135
f 143/143/143 144/144/144 142/142/142
f 144/144/144 145/145/145 142/142/142
f 142/142/142 145/145/145 141/141/141
f 145/145/145 146/146/146 141/141/141
