g Onion
v 0.106294 -0.024261 0.208487
v 0.044127 -0.102215 0.208487
v -0.005726 0.001307 0.35221
v 0.084107 0.072947 0.208487
v -0.005726 0.116208 0.208487
v -0.095559 0.072947 0.208487
v -0.117746 -0.024261 0.208487
v -0.05558 -0.102215 0.208487
v 0.044127 -0.102215 0.208487
v 0.079251 -0.018088 -0.244173
v 0.035462 -0.072997 -0.244173
v 0.111172 -0.230209 -0.141428
v 0.249368 -0.056916 -0.141428
v 0.063623 0.050382 -0.244173
v 0.138543 -0.287046 -0.049617
v 0.200046 0.159176 -0.141428
v 0.000347 0.080854 -0.244173
v 0.310871 -0.070954 -0.049617
v 0.138543 -0.287046 0.052286
v 0.000347 0.255346 -0.141428
v -0.06293 0.050382 -0.244173
v 0.249368 0.198509 -0.049617
v 0.310871 -0.070954 0.052286
v 0.111172 -0.230209 0.144096
v -0.199353 0.159176 -0.141428
v -0.078557 -0.018088 -0.244173
v 0.000347 0.318431 -0.049617
v 0.249368 0.198509 0.052286
v 0.249368 -0.056916 0.144096
v 0.044127 -0.102215 0.208487
v 0.106294 -0.024261 0.208487
v 0.200046 0.159176 0.144096
v 0.084107 0.072947 0.208487
v -0.248674 -0.056916 -0.141428
v -0.034769 -0.072997 -0.244173
v 0.000347 0.318431 0.052286
v 0.000347 0.255346 0.144096
v -0.005726 0.116208 0.208487
v -0.248674 0.198509 -0.049617
v -0.110478 -0.230209 -0.141428
v 0.035462 -0.072997 -0.244173
v 0.111172 -0.230209 -0.141428
v -0.248674 0.198509 0.052286
v -0.199353 0.159176 0.144096
v -0.095559 0.072947 0.208487
v -0.310177 -0.070954 -0.049617
v -0.13785 -0.287046 -0.049617
v 0.138543 -0.287046 -0.049617
v -0.310177 -0.070954 0.052286
v -0.248674 -0.056916 0.144096
v -0.117746 -0.024261 0.208487
v -0.13785 -0.287046 0.052286
v 0.138543 -0.287046 0.052286
v -0.110478 -0.230209 0.144096
v -0.05558 -0.102215 0.208487
v 0.111172 -0.230209 0.144096
v 0.044127 -0.102215 0.208487
v 0.000347 -7.9E-05 -0.25712
v 0.079251 -0.018088 -0.244173
v 0.063623 0.050382 -0.244173
v 0.000347 0.080854 -0.244173
v 0.035462 -0.072997 -0.244173
v -0.06293 0.050382 -0.244173
v -0.034769 -0.072997 -0.244173
v -0.078557 -0.018088 -0.244173
vt -2.151011 -1.285981
vt -3.087151 -1.166992
vt -2.407701 0.436527
vt -1.290238 -0.899214
vt -0.757572 -0.12025
vt -0.709412 0.822193
vt -1.159899 1.651398
vt -1.976761 2.123895
vt -2.920155 2.100952
vt 1.744905 -0.472487
vt 2.073156 -0.786464
vt 1.248486 -1.991687
vt 0.736877 -1.010516
vt 1.523596 -0.107425
vt 0.674516 -2.315613
vt 0.530801 -0.354871
vt 1.373004 0.266804
vt 0.383443 -1.123073
vt 0.110254 -2.363626
vt 0.432029 0.190913
vt 1.280131 0.635557
vt 0.252614 -0.41037
vt 0.072851 -1.178028
vt -0.451333 -2.168649
vt 0.401528 0.693418
vt 1.2496 0.994831
vt 0.185131 0.166925
vt 0.010001 -0.446553
vt -0.288674 -1.177249
vt -1.073156 -1.775888
vt -0.934905 -1.099525
vt -0.283617 -0.456767
vt -0.83627 -0.454262
vt 0.434692 1.19926
vt 1.308925 1.340518
vt -0.029476 0.147277
vt -0.29218 0.143736
vt -0.769474 0.146343
vt 0.164454 0.693587
vt 0.570843 1.767556
vt 1.525408 1.630233
vt 0.984035 2.521452
vt -0.041947 0.686019
vt -0.292425 0.683734
vt -0.686124 0.689233
vt 0.184585 1.228391
vt 0.278385 1.853982
vt 0.573696 2.842001
vt -0.038868 1.234169
vt -0.313644 1.233766
vt -0.779045 1.220904
vt 0.002619 1.885711
vt 0.090885 2.955251
vt -0.336556 1.884253
vt -0.87623 1.808054
vt -0.471443 2.840322
vt -1.073156 2.421428
vt 0.03194 0.048053
vt 0.058993 0.048053
vt 0.048807 0.026902
vt 0.02592 0.021678
vt 0.048807 0.069203
vt 0.007566 0.036315
vt 0.02592 0.074427
vt 0.007566 0.05979
vn 0.4699943 -0.1072739 0.8761266
vn 0.2092287 -0.440153 0.873206
vn 0 0 1
vn 0.3794842 0.3057824 0.8732061
vn -0.003247896 0.4993961 0.8663677
vn -0.3991082 0.3163446 0.8606036
vn -0.4968424 -0.1118498 0.8606029
vn -0.2196064 -0.4485304 0.866368
vn 0.2092287 -0.440153 0.873206
vn 0.4782054 -0.1091475 -0.8714393
vn 0.2128208 -0.4419283 -0.8714394
vn 0.3082974 -0.6401854 -0.7036443
vn 0.6927369 -0.158112 -0.703645
vn 0.383491 0.3058246 -0.871439
vn 0.4179267 -0.8678361 -0.2686963
vn 0.5555311 0.4430218 -0.7036455
vn 0 0.4905038 -0.871439
vn 0.9390745 -0.2143381 -0.2686972
vn 0.4179266 -0.8678359 0.2686972
vn 0 0.7105512 -0.7036456
vn -0.3834907 0.3058238 -0.8714394
vn 0.7530792 0.6005605 -0.2686982
vn 0.9390743 -0.2143381 0.2686981
vn 0.3030136 -0.6247207 0.7196575
vn -0.555532 0.4430217 -0.7036447
vn -0.478206 -0.1091487 -0.8714387
vn 0 0.9632244 -0.2686983
vn 0.7530791 0.6005604 0.2686991
vn 0.6743233 -0.1539089 0.722219
vn 0.2092287 -0.440153 0.873206
vn 0.4699943 -0.1072739 0.8761266
vn 0.5440605 0.4313805 0.7196589
vn 0.3794842 0.3057824 0.8732061
vn -0.6927375 -0.1581126 -0.7036442
vn -0.2128223 -0.4419278 -0.8714393
vn 0 0.9632241 0.2686992
vn 0.002524191 0.7004724 0.713675
vn -0.003247896 0.4993961 0.8663677
vn -0.753079 0.6005613 -0.2686971
vn -0.3082964 -0.6401854 -0.7036448
vn 0.2128208 -0.4419283 -0.8714394
vn 0.3082974 -0.6401854 -0.7036443
vn -0.7530789 0.6005611 0.2686979
vn -0.5509238 0.4408287 0.7086275
vn -0.3991082 0.3163446 0.8606036
vn -0.9390748 -0.2143372 -0.268697
vn -0.4179281 -0.8678352 -0.2686972
vn 0.4179267 -0.8678361 -0.2686963
vn -0.9390746 -0.2143371 0.2686979
vn -0.6876339 -0.1581361 0.7086272
vn -0.4968424 -0.1118498 0.8606029
vn -0.417928 -0.867835 0.268698
vn 0.4179266 -0.8678359 0.2686972
vn -0.3016492 -0.6322002 0.713674
vn -0.2196064 -0.4485304 0.866368
vn 0.3030136 -0.6247207 0.7196575
vn 0.2092287 -0.440153 0.873206
vn 0 0 -1
vn 0.4782054 -0.1091475 -0.8714393
vn 0.383491 0.3058246 -0.871439
vn 0 0.4905038 -0.871439
vn 0.2128208 -0.4419283 -0.8714394
vn -0.3834907 0.3058238 -0.8714394
vn -0.2128223 -0.4419278 -0.8714393
vn -0.478206 -0.1091487 -0.8714387
g Onion_0
f 3/3/3 2/2/2 1/1/1
f 3/3/3 1/1/1 4/4/4
f 3/3/3 4/4/4 5/5/5
f 3/3/3 5/5/5 6/6/6
f 3/3/3 6/6/6 7/7/7
f 3/3/3 7/7/7 8/8/8
f 3/3/3 8/8/8 9/9/9
f 12/12/12 11/11/11 10/10/10
f 13/13/13 12/12/12 10/10/10
f 13/13/13 10/10/10 14/14/14
f 15/15/15 12/12/12 13/13/13
f 16/16/16 13/13/13 14/14/14
f 16/16/16 14/14/14 17/17/17
f 18/18/18 15/15/15 13/13/13
f 18/18/18 13/13/13 16/16/16
f 19/19/19 15/15/15 18/18/18
f 20/20/20 16/16/16 17/17/17
f 20/20/20 17/17/17 21/21/21
f 22/22/22 18/18/18 16/16/16
f 22/22/22 16/16/16 20/20/20
f 23/23/23 19/19/19 18/18/18
f 23/23/23 18/18/18 22/22/22
f 24/24/24 19/19/19 23/23/23
f 25/25/25 20/20/20 21/21/21
f 25/25/25 21/21/21 26/26/26
f 27/27/27 22/22/22 20/20/20
f 27/27/27 20/20/20 25/25/25
f 28/28/28 23/23/23 22/22/22
f 28/28/28 22/22/22 27/27/27
f 29/29/29 24/24/24 23/23/23
f 29/29/29 23/23/23 28/28/28
f 30/30/30 24/24/24 29/29/29
f 31/31/31 30/30/30 29/29/29
f 31/31/31 29/29/29 32/32/32
f 32/32/32 29/29/29 28/28/28
f 33/33/33 31/31/31 32/32/32
f 34/34/34 25/25/25 26/26/26
f 34/34/34 26/26/26 35/35/35
f 36/36/36 28/28/28 27/27/27
f 32/32/32 28/28/28 36/36/36
f 33/33/33 32/32/32 37/37/37
f 37/37/37 32/32/32 36/36/36
f 38/38/38 33/33/33 37/37/37
f 39/39/39 27/27/27 25/25/25
f 36/36/36 27/27/27 39/39/39
f 39/39/39 25/25/25 34/34/34
f 40/40/40 34/34/34 35/35/35
f 40/40/40 35/35/35 41/41/41
f 42/42/42 40/40/40 41/41/41
f 37/37/37 36/36/36 43/43/43
f 43/43/43 36/36/36 39/39/39
f 38/38/38 37/37/37 44/44/44
f 44/44/44 37/37/37 43/43/43
f 45/45/45 38/38/38 44/44/44
f 46/46/46 39/39/39 34/34/34
f 46/46/46 34/34/34 40/40/40
f 43/43/43 39/39/39 46/46/46
f 47/47/47 40/40/40 42/42/42
f 47/47/47 46/46/46 40/40/40
f 48/48/48 47/47/47 42/42/42
f 49/49/49 43/43/43 46/46/46
f 44/44/44 43/43/43 49/49/49
f 49/49/49 46/46/46 47/47/47
f 45/45/45 44/44/44 50/50/50
f 50/50/50 44/44/44 49/49/49
f 51/51/51 45/45/45 50/50/50
f 52/52/52 47/47/47 48/48/48
f 52/52/52 49/49/49 47/47/47
f 50/50/50 49/49/49 52/52/52
f 53/53/53 52/52/52 48/48/48
f 51/51/51 50/50/50 54/54/54
f 54/54/54 50/50/50 52/52/52
f 54/54/54 52/52/52 53/53/53
f 55/55/55 51/51/51 54/54/54
f 56/56/56 54/54/54 53/53/53
f 55/55/55 54/54/54 56/56/56
f 57/57/57 55/55/55 56/56/56
f 60/60/60 59/59/59 58/58/58
f 61/61/61 60/60/60 58/58/58
f 59/59/59 62/62/62 58/58/58
f 63/63/63 61/61/61 58/58/58
f 62/62/62 64/64/64 58/58/58
f 65/65/65 63/63/63 58/58/58
f 64/64/64 65/65/65 58/58/58
