g OreBar
v -0.197653 -0.489175 0.239592
v -0.274122 -0.586272 -0.135676
v -0.274122 0.586272 -0.135676
v -0.197653 0.489175 0.239592
v -0.197653 0.489175 0.239592
v -0.274122 0.586272 -0.135676
v 0.274122 0.586272 -0.135676
v 0.197653 0.489175 0.239592
v 0.197653 0.489175 0.239592
v 0.274122 0.586272 -0.135676
v 0.274122 -0.586272 -0.135676
v 0.197653 -0.489175 0.239592
v 0.197653 -0.489175 0.239592
v 0.274122 -0.586272 -0.135676
v -0.274122 -0.586272 -0.135676
v -0.197653 -0.489175 0.239592
v -0.274122 -0.586272 -0.135676
v 0.274122 -0.586272 -0.135676
v 0.274122 0.586272 -0.135676
v -0.274122 0.586272 -0.135676
v 0.133813 -0.425335 0.239592
v 0.133813 -0.425335 0.187036
v 0.133813 0.425335 0.187036
v 0.133813 0.425335 0.239592
v 0.133813 -0.425335 0.187036
v -0.133813 -0.425335 0.187036
v -0.133813 0.425335 0.187036
v 0.133813 0.425335 0.187036
v -0.133813 0.425335 0.239592
v -0.133813 0.425335 0.187036
v -0.133813 -0.425335 0.187036
v -0.133813 -0.425335 0.239592
v -0.133813 -0.425335 0.239592
v -0.133813 -0.425335 0.187036
v 0.133813 -0.425335 0.187036
v 0.133813 -0.425335 0.239592
v 0.133813 0.425335 0.239592
v 0.133813 0.425335 0.187036
v -0.133813 0.425335 0.187036
v -0.133813 0.425335 0.239592
v -0.133813 -0.425335 0.239592
v -0.197653 -0.489175 0.239592
v -0.197653 0.489175 0.239592
v -0.133813 0.425335 0.239592
v 0.133813 -0.425335 0.239592
v 0.197653 0.489175 0.239592
v 0.197653 -0.489175 0.239592
v 0.133813 0.425335 0.239592
vt 0.381008 0.607615
vt 0.381008 0.698309
vt 0.471702 0.698309
vt 0.471702 0.607615
vt 0.381008 0.607615
vt 0.381008 0.698309
vt 0.471702 0.698309
vt 0.471702 0.607615
vt 0.381008 0.607615
vt 0.381008 0.698309
vt 0.471702 0.698309
vt 0.471702 0.607615
vt 0.381008 0.607615
vt 0.381008 0.698309
vt 0.471702 0.698309
vt 0.471702 0.607615
vt 0.381008 0.607615
vt 0.381008 0.698309
vt 0.471702 0.698309
vt 0.471702 0.607615
vt 0.386926 0.622262
vt 0.386926 0.622262
vt 0.465784 0.622262
vt 0.465784 0.622262
vt 0.386926 0.622262
vt 0.386926 0.683662
vt 0.465784 0.683662
vt 0.465784 0.622262
vt 0.465784 0.683662
vt 0.465784 0.683662
vt 0.386926 0.683662
vt 0.386926 0.683662
vt 0.386926 0.683662
vt 0.386926 0.683662
vt 0.386926 0.622262
vt 0.386926 0.622262
vt 0.465784 0.622262
vt 0.465784 0.622262
vt 0.465784 0.683662
vt 0.465784 0.683662
vt 0.386926 0.683662
vt 0.381008 0.698309
vt 0.471702 0.698309
vt 0.465784 0.683662
vt 0.386926 0.622262
vt 0.471702 0.607615
vt 0.381008 0.607615
vt 0.465784 0.622262
vn -0.9798636 0 0.1996685
vn -0.9798636 0 0.1996685
vn -0.9798636 0 0.1996685
vn -0.9798636 0 0.1996685
vn 0 0.9681188 0.2504915
vn 0 0.9681188 0.2504915
vn 0 0.9681188 0.2504915
vn 0 0.9681188 0.2504915
vn 0.9798636 0 0.1996685
vn 0.9798636 0 0.1996685
vn 0.9798636 0 0.1996685
vn 0.9798636 0 0.1996685
vn 0 -0.9681188 0.2504915
vn 0 -0.9681188 0.2504915
vn 0 -0.9681188 0.2504915
vn 0 -0.9681188 0.2504915
vn 0 0 -1
vn 0 0 -1
vn 0 0 -1
vn 0 0 -1
vn -1 0 0
vn -1 0 0
vn -1 0 0
vn -1 0 0
vn 0 0 1
vn 0 0 1
vn 0 0 1
vn 0 0 1
vn 1 0 0
vn 1 0 0
vn 1 0 0
vn 1 0 0
vn 0 1 0
vn 0 1 0
vn 0 1 0
vn 0 1 0
vn 0 -1 0
vn 0 -1 0
vn 0 -1 0
vn 0 -1 0
vn 0 0 1
vn 0 0 1
vn 0 0 1
vn 0 0 1
vn 0 0 1
vn 0 0 1
vn 0 0 1
vn 0 0 1
g OreBar_0
f 3/3/3 2/2/2 1/1/1
f 4/4/4 3/3/3 1/1/1
f 7/7/7 6/6/6 5/5/5
f 8/8/8 7/7/7 5/5/5
f 11/11/11 10/10/10 9/9/9
f 12/12/12 11/11/11 9/9/9
f 15/15/15 14/14/14 13/13/13
f 16/16/16 15/15/15 13/13/13
f 19/19/19 18/18/18 17/17/17
f 20/20/20 19/19/19 17/17/17
f 23/23/23 22/22/22 21/21/21
f 24/24/24 23/23/23 21/21/21
f 27/27/27 26/26/26 25/25/25
f 28/28/28 27/27/27 25/25/25
f 31/31/31 30/30/30 29/29/29
f 32/32/32 31/31/31 29/29/29
f 35/35/35 34/34/34 33/33/33
f 36/36/36 35/35/35 33/33/33
f 39/39/39 38/38/38 37/37/37
f 40/40/40 39/39/39 37/37/37
f 43/43/43 42/42/42 41/41/41
f 44/44/44 43/43/43 41/41/41
f 41/41/41 42/42/42 45/45/45
f 46/46/46 43/43/43 44/44/44
f 42/42/42 47/47/47 45/45/45
f 48/48/48 46/46/46 44/44/44
f 45/45/45 47/47/47 48/48/48
f 47/47/47 46/46/46 48/48/48
