g OreRock
v 0.089697 -0.569388 0.626501
v 0.569662 0.006487 0.85014
v 0.48729 -0.672457 0.376035
v 0.154523 -0.080656 1.040965
v 0.569662 0.006487 0.85014
v -0.683198 0.769175 0.377802
v -0.554941 0.140647 0.907022
v -0.787727 0.391975 0.556572
v 0.803239 -0.281489 -0.008602
v 0.765868 0.107764 0.278867
v 0.733133 0.23458 -6E-05
v 0.317505 0.686075 0.036448
v 0.322086 0.5886 0.219054
v -0.277514 0.942046 -0.009499
v 0.569662 0.006487 0.85014
v 0.158175 0.272193 0.99975
v 0.613178 0.364039 0.321025
v 0.158175 0.272193 0.99975
v 0.376349 0.542478 0.256574
v 0.371536 0.644883 0.064732
v 0.367979 0.6513 0.036627
v 0.707084 0.294116 0.00266
v 0.716358 0.281397 0.033166
v 0.745663 0.143179 0.326197
v -0.755846 0.670388 -0.009499
v -0.787727 0.391975 0.556572
v -1.068356 0.346061 -0.009499
v 0.158175 0.272193 0.99975
v 0.154523 -0.080656 1.040965
v -0.440396 0.110445 0.94613
v 0.104331 0.315379 0.978795
v -0.554941 0.140647 0.907022
v -0.683198 0.769175 0.377802
v -1.02262 -0.28735 -0.009499
v -0.757407 -0.637089 0.382121
v -0.567067 -0.769438 -0.009499
v -0.505286 0.073012 0.921591
v 0.103611 -0.117365 1.031783
v -0.332499 -0.377618 0.691749
v -0.332499 -0.377618 0.691749
v 0.033839 -0.612011 0.605055
v -0.200661 -0.790847 0.470479
v 0.033839 -0.612011 0.605055
v 0.078886 -0.909204 0.534398
v -0.332499 -0.377618 0.691749
v 0.033839 -0.612011 0.605055
v 0.443053 -0.835024 -0.009499
v 0.473422 -0.725699 0.324908
v 0.803239 -0.281489 -0.008602
v 0.473422 -0.725699 0.324908
v 0.765868 0.107764 0.278867
v 0.569662 0.006487 0.85014
v 0.154523 -0.080656 1.040965
v 0.158175 0.272193 0.99975
v 0.745663 0.143179 0.326197
v 0.569662 0.006487 0.85014
v 0.613178 0.364039 0.321025
v 0.322086 0.5886 0.219054
v 0.104331 0.315379 0.978795
v -0.683198 0.769175 0.377802
v -0.277514 0.942046 -0.009499
v -0.683198 0.769175 0.377802
v -0.755846 0.670388 -0.009499
v -0.277514 0.942046 -0.009499
v 0.322086 0.5886 0.219054
v -0.683198 0.769175 0.377802
v 0.443053 -0.835024 -0.009499
v 0.078886 -0.909204 0.534398
v 0.473422 -0.725699 0.324908
v -0.707069 -0.672424 0.384256
v -0.332499 -0.377618 0.691749
v -0.200661 -0.790847 0.470479
v 0.078886 -0.909204 0.534398
v 0.033839 -0.612011 0.605055
v 0.473422 -0.725699 0.324908
v 0.48729 -0.672457 0.376035
v 0.569662 0.006487 0.85014
v 0.745663 0.143179 0.326197
v -0.755846 0.670388 -0.009499
v -0.683198 0.769175 0.377802
v -0.787727 0.391975 0.556572
v -1.02262 -0.28735 -0.009499
v -0.979518 -0.243076 0.593594
v -0.757407 -0.637089 0.382121
v -0.033849 -0.808169 -0.009499
v 0.078886 -0.909204 0.534398
v 0.443053 -0.835024 -0.009499
v -0.979518 -0.243076 0.593594
v -0.405037 -0.362451 0.682161
v -0.757407 -0.637089 0.382121
v -0.576847 0.08998 0.908869
v -0.524272 -0.791979 0.020303
v -0.033849 -0.808169 -0.009499
v -0.515193 -0.793014 -0.009499
v -0.200661 -0.790847 0.470479
v -0.707069 -0.672424 0.384256
v 0.078886 -0.909204 0.534398
v -0.805205 0.330961 0.572821
v -0.576847 0.08998 0.908869
v -0.979518 -0.243076 0.593594
v -1.080204 0.290076 0.029172
v -1.080204 0.290076 0.029172
v -0.979518 -0.243076 0.593594
v -1.02262 -0.28735 -0.009499
v -1.083915 0.296255 -0.009499
v 0.716358 0.281397 0.033166
v 0.707084 0.294116 0.00266
v 0.733133 0.23458 -6E-05
v -0.524272 -0.791979 0.020303
v -0.515193 -0.793014 -0.009499
v -0.567067 -0.769438 -0.009499
v -1.080204 0.290076 0.029172
v -1.083915 0.296255 -0.009499
v -1.068356 0.346061 -0.009499
v 0.317505 0.686075 0.036448
v 0.367979 0.6513 0.036627
v 0.371536 0.644883 0.064732
v 0.716358 0.281397 0.033166
v 0.765868 0.107764 0.278867
v 0.745663 0.143179 0.326197
v -0.554941 0.140647 0.907022
v -0.787727 0.391975 0.556572
v -0.576847 0.08998 0.908869
v 0.104331 0.315379 0.978795
v -0.505286 0.073012 0.921591
v 0.103611 -0.117365 1.031783
v 0.104331 0.315379 0.978795
v 0.765868 0.107764 0.278867
v 0.473422 -0.725699 0.324908
v 0.103611 -0.117365 1.031783
v 0.033839 -0.612011 0.605055
v 0.473422 -0.725699 0.324908
vt 0.401976 0.327917
vt 0.587189 0.409703
vt 0.487386 0.190781
vt 0.501062 0.460402
vt 0.587189 0.409703
vt 0.507408 0.8277
vt 0.408502 0.602263
vt 0.397348 0.743844
vt 0.753142 0.123702
vt 0.765994 0.331059
vt 0.908456 0.33791
vt 0.88247 0.642844
vt 0.804 0.597324
vt 0.730659 0.915753
vt 0.587189 0.409703
vt 0.552208 0.518242
vt 0.789196 0.450068
vt 0.553947 0.514499
vt 0.798275 0.564974
vt 0.880713 0.612796
vt 0.891635 0.614132
vt 0.918093 0.368633
vt 0.906447 0.363287
vt 0.756152 0.355692
vt 0.452872 0.999904
vt 0.399576 0.746807
vt 0.217739 0.954292
vt 0.552413 0.518836
vt 0.500793 0.462066
vt 0.423069 0.576539
vt 0.550557 0.53768
vt 0.408502 0.602263
vt 0.507408 0.8277
vt 9.6E-05 0.693161
vt 0.153679 0.487236
vt 9.6E-05 0.341622
vt 0.404004 0.577966
vt 0.484503 0.461238
vt 0.335868 0.454996
vt 0.337931 0.453494
vt 0.383866 0.325606
vt 0.270712 0.307801
vt 0.380941 0.324349
vt 0.345167 0.2443
vt 0.339258 0.453874
vt 0.381446 0.32487
vt 0.429322 9.6E-05
vt 0.474728 0.165269
vt 0.753142 0.123702
vt 0.482277 0.16754
vt 0.765994 0.331059
vt 0.587189 0.409703
vt 0.50089 0.461213
vt 0.5525 0.518074
vt 0.759963 0.355
vt 0.587189 0.409703
vt 0.789196 0.450068
vt 0.799826 0.589624
vt 0.550557 0.53768
vt 0.507408 0.8277
vt 0.730659 0.915753
vt 0.507408 0.8277
vt 0.452872 0.999904
vt 0.730659 0.915753
vt 0.801444 0.601836
vt 0.507408 0.8277
vt 0.429322 9.6E-05
vt 0.345167 0.2443
vt 0.47558 0.166002
vt 0.15999 0.460263
vt 0.338396 0.45094
vt 0.270712 0.307801
vt 0.345167 0.2443
vt 0.384316 0.32528
vt 0.479055 0.173211
vt 0.487386 0.190781
vt 0.587189 0.409703
vt 0.760793 0.351739
vt 0.452872 0.999904
vt 0.507408 0.8277
vt 0.397335 0.744828
vt 9.6E-05 0.693161
vt 0.237193 0.614726
vt 0.154064 0.481459
vt 0.175011 0.098587
vt 0.345167 0.2443
vt 0.429322 9.6E-05
vt 0.237193 0.614726
vt 0.325344 0.470754
vt 0.156035 0.47941
vt 0.393416 0.593714
vt 0.016899 0.324055
vt 0.175011 0.098587
vt 0.010519 0.31163
vt 0.270712 0.307801
vt 0.15999 0.460263
vt 0.345167 0.2443
vt 0.381396 0.730125
vt 0.393416 0.593714
vt 0.237193 0.614726
vt 0.205785 0.929958
vt 0.205785 0.929958
vt 0.237193 0.614726
vt 9.6E-05 0.693161
vt 0.193571 0.938782
vt 0.906447 0.363287
vt 0.914362 0.357429
vt 0.912611 0.353115
vt 0.016899 0.324055
vt 0.008246 0.324609
vt 0.005346 0.330128
vt 0.205785 0.929958
vt 0.204479 0.943069
vt 0.206436 0.948366
vt 0.88247 0.642844
vt 0.886586 0.627328
vt 0.876016 0.621196
vt 0.906447 0.363287
vt 0.765994 0.331059
vt 0.756152 0.355692
vt 0.408502 0.602263
vt 0.397348 0.743844
vt 0.393416 0.593714
vt 0.550557 0.53768
vt 0.404004 0.577966
vt 0.484503 0.461238
vt 0.550557 0.53768
vt 0.765994 0.331059
vt 0.482277 0.16754
vt 0.484503 0.461238
vt 0.383866 0.325606
vt 0.479055 0.173211
vn 0.3228719 -0.6333118 0.7033277
vn 0.411652 -0.384057 0.826464
vn 0.2899532 -0.6324537 0.7182824
vn 0.3553668 -0.6333416 0.6874539
vn 0.6079815 -0.5261747 0.5945576
vn -0.3925372 0.544204 0.7414557
vn -0.3915376 0.368884 0.8429845
vn -0.6978667 0.4827953 0.529047
vn 0.9523671 -0.2417417 0.1858973
vn 0.9770896 -0.01624686 0.2122076
vn 0.9529978 0.3011386 -0.03332708
vn 0.4362847 0.8365059 0.3315323
vn 0.3250117 0.8297697 0.4537064
vn 0.2804203 0.8093855 0.5160033
vn 0.6338892 0.4381323 0.6373574
vn 0.5072638 0.6213257 0.5971917
vn 0.6890439 0.6750956 0.2635609
vn 0.5017828 0.7434857 0.4420894
vn 0.4456181 0.792555 0.4162703
vn 0.5538867 0.7916546 0.2578615
vn 0.6758387 0.7325059 0.08171438
vn 0.8002214 0.5996667 0.006741391
vn 0.8670126 0.4962727 0.04474981
vn 0.8661292 0.4553785 0.2060355
vn -0.7535943 0.6509168 0.09166759
vn -0.7661942 0.4576088 0.4511547
vn -0.8428686 0.4610197 0.2775486
vn 0.03319997 0.1933335 0.9805713
vn 0.02562441 0.03348001 0.9991109
vn -0.1960128 0.08743091 0.9766958
vn -0.07278568 0.6594146 0.7482477
vn -0.3915376 0.368884 0.8429845
vn -0.08711649 0.74475 0.661633
vn -0.8891352 -0.4572104 0.01992692
vn -0.7139887 -0.7001569 -0.0006930394
vn -0.5635154 -0.8234652 -0.06599569
vn -0.2630717 -0.2951443 0.9185222
vn -0.1199461 -0.5055439 0.8544227
vn -0.2385866 -0.5306938 0.81329
vn -0.2385866 -0.5306938 0.81329
vn -0.02671677 -0.5708769 0.8206009
vn -0.2341489 -0.4317678 0.8710631
vn -0.2212266 -0.4682893 0.855432
vn -0.3200946 -0.2647812 0.909632
vn -0.2385866 -0.5306938 0.81329
vn 0.06881278 -0.511775 0.8563592
vn 0.6882677 -0.7056884 0.1682004
vn 0.8109713 -0.5064962 0.2928944
vn 0.9523671 -0.2417417 0.1858973
vn 0.7845801 -0.4477898 0.4288571
vn 0.9556319 -0.1458697 0.2559098
vn 0.5212376 0.07096881 0.8504556
vn 0.02562441 0.03348001 0.9991109
vn 0.1918864 0.3350507 0.9224536
vn 0.8661292 0.4553785 0.2060355
vn 0.6953478 0.5676374 0.4407713
vn 0.6890439 0.6750956 0.2635609
vn 0.3250117 0.8297697 0.4537064
vn 0.1481979 0.8162149 0.558418
vn 0.07418267 0.7908567 0.6074888
vn -0.489774 0.862388 -0.1280957
vn -0.489774 0.862388 -0.1280957
vn -0.6092054 0.7887005 0.08258443
vn 0.2804203 0.8093855 0.5160033
vn 0.3250117 0.8297697 0.4537064
vn 0.07418267 0.7908567 0.6074888
vn 0.4777367 -0.8765779 0.0581283
vn 0.2412273 -0.9700288 0.02921555
vn 0.7243821 -0.5691848 0.3889719
vn -0.2726622 -0.5120246 0.8145466
vn -0.2385866 -0.5306938 0.81329
vn -0.2341489 -0.4317678 0.8710631
vn 0.5100256 -0.1250222 0.8510249
vn 0.2435223 -0.5187662 0.8194989
vn 0.6814332 -0.3730246 0.6296837
vn 0.918466 -0.2823002 0.2769959
vn 0.7317482 -0.4813593 0.4825328
vn 0.973385 -0.0730601 0.2172181
vn -0.842135 0.5011791 0.1990681
vn -0.9459651 0.3088985 0.09865028
vn -0.8123641 0.4435886 0.3785416
vn -0.8891352 -0.4572104 0.01992692
vn -0.9414456 -0.3246203 0.09111438
vn -0.7139887 -0.7001569 -0.0006930394
vn -0.1545898 -0.9845954 -0.08169387
vn 0.02987253 -0.999445 -0.01474156
vn 0.2412273 -0.9700288 0.02921555
vn -0.236013 -0.5329117 0.8125902
vn -0.2497804 -0.5202671 0.816659
vn -0.2621693 -0.5329967 0.804476
vn -0.2549418 -0.3451829 0.9032461
vn -0.3150114 -0.9484582 0.03456712
vn -0.1545898 -0.9845954 -0.08169387
vn -0.2264863 -0.9733785 -0.03518921
vn -0.2219616 -0.9742802 0.03887533
vn -0.3987902 -0.9111939 0.1034017
vn -0.2154253 -0.9671429 -0.1350059
vn -0.7773743 0.3168622 0.5434036
vn -0.5653419 0.2057672 0.7987792
vn -0.9027222 0.145492 0.404876
vn -0.9387755 0.222023 0.2634508
vn -0.9387755 0.222023 0.2634508
vn -0.9383886 -0.03137048 0.3441549
vn -0.8891352 -0.4572104 0.01992692
vn -0.9890671 0.09763771 0.1105135
vn 0.8670126 0.4962727 0.04474981
vn 0.8002214 0.5996667 0.006741391
vn 0.9529978 0.3011386 -0.03332708
vn -0.3150114 -0.9484582 0.03456712
vn -0.2264863 -0.9733785 -0.03518921
vn -0.5635154 -0.8234652 -0.06599569
vn -0.9387755 0.222023 0.2634508
vn -0.9890671 0.09763771 0.1105135
vn -0.8428686 0.4610197 0.2775486
vn 0.4362847 0.8365059 0.3315323
vn 0.6758387 0.7325059 0.08171438
vn 0.5538867 0.7916546 0.2578615
vn 0.8670126 0.4962727 0.04474981
vn 0.990878 0.07271009 0.113463
vn 0.95274 0.1697069 0.2519643
vn -0.3915376 0.368884 0.8429845
vn -0.7661942 0.4576088 0.4511547
vn -0.4671994 -0.09364946 0.8791782
vn -0.2143789 0.4722576 0.8549938
vn -0.2630717 -0.2951443 0.9185222
vn -0.25054 -0.434493 0.8651274
vn 0.3308799 0.8531872 0.4032246
vn 0.9770896 -0.01624686 0.2122076
vn 0.7845801 -0.4477898 0.4288571
vn -0.08617659 -0.6183913 0.7811311
vn 0.14983 -0.5503265 0.8213963
vn 0.4654277 -0.6066049 0.6445211
g OreRock_0
f 3/3/3 2/2/2 1/1/1
f 5/5/5 4/4/4 1/1/1
f 8/8/8 7/7/7 6/6/6
f 11/11/11 10/10/10 9/9/9
f 14/14/14 13/13/13 12/12/12
f 17/17/17 16/16/16 15/15/15
f 19/19/19 18/18/18 17/17/17
f 19/19/19 17/17/17 20/20/20
f 21/21/21 20/20/20 17/17/17
f 22/22/22 21/21/21 17/17/17
f 17/17/17 23/23/23 22/22/22
f 17/17/17 24/24/24 23/23/23
f 27/27/27 26/26/26 25/25/25
f 30/30/30 29/29/29 28/28/28
f 33/33/33 32/32/32 31/31/31
f 36/36/36 35/35/35 34/34/34
f 39/39/39 38/38/38 37/37/37
f 41/41/41 38/38/38 40/40/40
f 44/44/44 43/43/43 42/42/42
f 42/42/42 46/46/46 45/45/45
f 49/49/49 48/48/48 47/47/47
f 51/51/51 50/50/50 49/49/49
f 54/54/54 53/53/53 52/52/52
f 57/57/57 56/56/56 55/55/55
f 60/60/60 59/59/59 58/58/58
f 63/63/63 62/62/62 61/61/61
f 66/66/66 65/65/65 64/64/64
f 69/69/69 68/68/68 67/67/67
f 72/72/72 71/71/71 70/70/70
f 75/75/75 74/74/74 73/73/73
f 78/78/78 77/77/77 76/76/76
f 81/81/81 80/80/80 79/79/79
f 84/84/84 83/83/83 82/82/82
f 87/87/87 86/86/86 85/85/85
f 90/90/90 89/89/89 88/88/88
f 88/88/88 89/89/89 91/91/91
f 94/94/94 93/93/93 92/92/92
f 93/93/93 95/95/95 92/92/92
f 95/95/95 96/96/96 92/92/92
f 97/97/97 95/95/95 93/93/93
f 100/100/100 99/99/99 98/98/98
f 100/100/100 98/98/98 101/101/101
f 104/104/104 103/103/103 102/102/102
f 105/105/105 104/104/104 102/102/102
g OreRock_1
f 108/108/108 107/107/107 106/106/106
f 111/111/111 110/110/110 109/109/109
f 114/114/114 113/113/113 112/112/112
f 117/117/117 116/116/116 115/115/115
f 119/119/119 11/11/11 118/118/118
f 120/120/120 119/119/119 118/118/118
f 35/35/35 36/36/36 92/92/92
f 96/96/96 35/35/35 92/92/92
f 26/26/26 27/27/27 101/101/101
f 98/98/98 26/26/26 101/101/101
f 98/98/98 99/99/99 121/121/121
f 122/122/122 98/98/98 121/121/121
f 30/30/30 121/121/121 123/123/123
f 121/121/121 30/30/30 124/124/124
f 30/30/30 28/28/28 124/124/124
f 125/125/125 30/30/30 123/123/123
f 30/30/30 125/125/125 29/29/29
f 125/125/125 126/126/126 29/29/29
f 70/70/70 71/71/71 89/89/89
f 90/90/90 70/70/70 89/89/89
f 89/89/89 39/39/39 91/91/91
f 39/39/39 37/37/37 91/91/91
f 58/58/58 127/127/127 18/18/18
f 19/19/19 58/58/58 18/18/18
f 12/12/12 13/13/13 19/19/19
f 20/20/20 12/12/12 19/19/19
f 129/129/129 128/128/128 78/78/78
f 76/76/76 129/129/129 78/78/78
f 1/1/1 4/4/4 130/130/130
f 131/131/131 1/1/1 130/130/130
f 3/3/3 1/1/1 131/131/131
f 132/132/132 3/3/3 131/131/131
