g Oriental_DiningTable
v 0 -0.807491 1.106726
v 1.766798 -0.807491 1.106726
v 1.766798 0.807491 1.106726
v 0 0.807491 1.106726
v 1.578058 -0.632913 0.556597
v 1.578058 -0.632913 1.113195
v 1.578058 -0.708938 1.113195
v 1.578058 -0.708938 0.556597
v 1.649917 -0.708938 0.556597
v 1.649917 -0.708938 1.113195
v 1.649917 -0.632913 1.113195
v 1.649917 -0.632913 0.556597
v 1.675674 -0.724523 0
v 1.675674 -0.646827 0
v 1.578058 -0.708938 0.556597
v 1.578058 -0.708938 1.113195
v 1.649917 -0.708938 1.113195
v 1.649917 -0.708938 0.556597
v 1.649917 -0.632913 0.556597
v 1.649917 -0.632913 1.113195
v 1.578058 -0.632913 1.113195
v 1.578058 -0.632913 0.556597
v 1.675674 -0.646827 0
v 1.603814 -0.646827 0
v 1.578058 0.708938 0.556597
v 1.578058 0.708938 1.113195
v 1.578058 0.632913 1.113195
v 1.578058 0.632913 0.556597
v 1.649917 0.632913 0.556597
v 1.649917 0.632913 1.113195
v 1.649917 0.708938 1.113195
v 1.649917 0.708938 0.556597
v 1.675674 0.646827 0
v 1.675674 0.724523 0
v 1.578058 0.632913 0.556597
v 1.578058 0.632913 1.113195
v 1.649917 0.632913 1.113195
v 1.649917 0.632913 0.556597
v 1.603814 0.646827 0
v 1.675674 0.646827 0
v 1.649917 0.708938 0.556597
v 1.649917 0.708938 1.113195
v 1.578058 0.708938 1.113195
v 1.578058 0.708938 0.556597
v 1.766798 -0.807491 1.106726
v 1.766798 -0.807491 1.192271
v 1.766798 0.807491 1.192271
v 1.766798 0.807491 1.106726
v 0 -0.807491 1.106726
v 0 -0.807491 1.192271
v 1.766798 -0.807491 1.192271
v 1.766798 -0.807491 1.106726
v 1.766798 0.807491 1.106726
v 1.766798 0.807491 1.192271
v 0 0.807491 1.192271
v 0 0.807491 1.106726
v 0 -0.807491 1.192271
v 0 0.807491 1.192271
v 1.766798 0.807491 1.192271
v 1.766798 -0.807491 1.192271
v 0 -0.749339 0.932674
v 1.70318 -0.749339 0.932674
v 1.70318 0.749339 0.932674
v 0 0.749339 0.932674
v 1.70318 0.749339 1.10194
v 1.70318 0.749339 0.932674
v 1.70318 -0.749339 0.932674
v 1.70318 -0.749339 1.10194
v 1.70318 -0.749339 1.10194
v 1.70318 -0.749339 0.932674
v 0 -0.749339 0.932674
v 0 -0.749339 1.10194
v 0 0.749339 1.10194
v 0 0.749339 0.932674
v 1.70318 0.749339 0.932674
v 1.70318 0.749339 1.10194
v 1.675674 0.724523 0
v 1.649917 0.708938 0.556597
v 1.578058 0.708938 0.556597
v 1.603814 0.724523 0
v 1.603814 0.724523 0
v 1.578058 0.708938 0.556597
v 1.578058 0.632913 0.556597
v 1.603814 0.646827 0
v 1.603814 -0.724523 0
v 1.578058 -0.708938 0.556597
v 1.649917 -0.708938 0.556597
v 1.675674 -0.724523 0
v 1.603814 -0.646827 0
v 1.578058 -0.632913 0.556597
v 1.578058 -0.708938 0.556597
v 1.603814 -0.724523 0
v 0 -0.693333 0.675888
v 1.641909 -0.693333 0.675888
v 1.641909 0.693333 0.675888
v 0 0.693333 0.675888
v 1.641909 -0.693333 0.675888
v 1.641909 -0.693333 0.714967
v 1.641909 0.693333 0.714967
v 1.641909 0.693333 0.675888
v 0 -0.693333 0.675888
v 0 -0.693333 0.714967
v 1.641909 -0.693333 0.714967
v 1.641909 -0.693333 0.675888
v 1.641909 0.693333 0.675888
v 1.641909 0.693333 0.714967
v 0 0.693333 0.714967
v 0 0.693333 0.675888
v 0 -0.693333 0.714967
v 0 0.693333 0.714967
v 1.641909 0.693333 0.714967
v 1.641909 -0.693333 0.714967
v 1.618317 -0.682079 0.94584
v 1.618317 -0.682079 0.723427
v 0 -0.682079 0.723427
v 0 -0.682079 0.94584
v 0 0.682079 0.94584
v 0 0.682079 0.723427
v 1.618317 0.682079 0.723427
v 1.618317 0.682079 0.94584
v 1.618317 0.682079 0.94584
v 1.618317 0.682079 0.723427
v 1.618317 -0.682079 0.723427
v 1.618317 -0.682079 0.94584
v 0 -0.807491 1.106726
v 0 0.807491 1.106726
v -1.766798 0.807491 1.106726
v -1.766798 -0.807491 1.106726
v -1.578058 -0.632913 0.556597
v -1.578058 -0.708938 0.556597
v -1.578058 -0.708938 1.113195
v -1.578058 -0.632913 1.113195
v -1.649917 -0.708938 0.556597
v -1.649917 -0.632913 1.113195
v -1.649917 -0.708938 1.113195
v -1.649917 -0.632913 0.556597
v -1.675674 -0.724523 0
v -1.675674 -0.646827 0
v -1.578058 -0.708938 0.556597
v -1.649917 -0.708938 0.556597
v -1.649917 -0.708938 1.113195
v -1.578058 -0.708938 1.113195
v -1.649917 -0.632913 0.556597
v -1.578058 -0.632913 1.113195
v -1.649917 -0.632913 1.113195
v -1.578058 -0.632913 0.556597
v -1.675674 -0.646827 0
v -1.603814 -0.646827 0
v -1.578058 0.708938 0.556597
v -1.578058 0.632913 0.556597
v -1.578058 0.632913 1.113195
v -1.578058 0.708938 1.113195
v -1.649917 0.632913 0.556597
v -1.649917 0.708938 1.113195
v -1.649917 0.632913 1.113195
v -1.649917 0.708938 0.556597
v -1.675674 0.646827 0
v -1.675674 0.724523 0
v -1.578058 0.632913 0.556597
v -1.649917 0.632913 1.113195
v -1.578058 0.632913 1.113195
v -1.649917 0.632913 0.556597
v -1.603814 0.646827 0
v -1.675674 0.646827 0
v -1.649917 0.708938 0.556597
v -1.578058 0.708938 0.556597
v -1.578058 0.708938 1.113195
v -1.649917 0.708938 1.113195
v -1.766798 -0.807491 1.106726
v -1.766798 0.807491 1.106726
v -1.766798 0.807491 1.192271
v -1.766798 -0.807491 1.192271
v 0 -0.807491 1.106726
v -1.766798 -0.807491 1.106726
v -1.766798 -0.807491 1.192271
v 0 -0.807491 1.192271
v -1.766798 0.807491 1.106726
v 0 0.807491 1.106726
v 0 0.807491 1.192271
v -1.766798 0.807491 1.192271
v 0 -0.807491 1.192271
v -1.766798 -0.807491 1.192271
v -1.766798 0.807491 1.192271
v 0 0.807491 1.192271
v 0 -0.749339 0.932674
v 0 0.749339 0.932674
v -1.70318 0.749339 0.932674
v -1.70318 -0.749339 0.932674
v -1.70318 0.749339 1.10194
v -1.70318 -0.749339 1.10194
v -1.70318 -0.749339 0.932674
v -1.70318 0.749339 0.932674
v -1.70318 -0.749339 1.10194
v 0 -0.749339 1.10194
v 0 -0.749339 0.932674
v -1.70318 -0.749339 0.932674
v 0 0.749339 1.10194
v -1.70318 0.749339 1.10194
v -1.70318 0.749339 0.932674
v 0 0.749339 0.932674
v -1.675674 0.724523 0
v -1.603814 0.724523 0
v -1.578058 0.708938 0.556597
v -1.649917 0.708938 0.556597
v -1.603814 0.724523 0
v -1.603814 0.646827 0
v -1.578058 0.632913 0.556597
v -1.578058 0.708938 0.556597
v -1.603814 -0.724523 0
v -1.675674 -0.724523 0
v -1.649917 -0.708938 0.556597
v -1.578058 -0.708938 0.556597
v -1.603814 -0.646827 0
v -1.603814 -0.724523 0
v -1.578058 -0.708938 0.556597
v -1.578058 -0.632913 0.556597
v 0 -0.693333 0.675888
v 0 0.693333 0.675888
v -1.641909 0.693333 0.675888
v -1.641909 -0.693333 0.675888
v -1.641909 -0.693333 0.675888
v -1.641909 0.693333 0.675888
v -1.641909 0.693333 0.714967
v -1.641909 -0.693333 0.714967
v 0 -0.693333 0.675888
v -1.641909 -0.693333 0.675888
v -1.641909 -0.693333 0.714967
v 0 -0.693333 0.714967
v -1.641909 0.693333 0.675888
v 0 0.693333 0.675888
v 0 0.693333 0.714967
v -1.641909 0.693333 0.714967
v 0 -0.693333 0.714967
v -1.641909 -0.693333 0.714967
v -1.641909 0.693333 0.714967
v 0 0.693333 0.714967
v -1.618317 -0.682079 0.94584
v 0 -0.682079 0.94584
v 0 -0.682079 0.723427
v -1.618317 -0.682079 0.723427
v 0 0.682079 0.94584
v -1.618317 0.682079 0.94584
v -1.618317 0.682079 0.723427
v 0 0.682079 0.723427
v -1.618317 0.682079 0.94584
v -1.618317 -0.682079 0.94584
v -1.618317 -0.682079 0.723427
v -1.618317 0.682079 0.723427
vt 0.268106 0.515993
vt 0.429374 0.516048
vt 0.429298 0.736031
vt 0.26803 0.735976
vt 0.948123 0.749498
vt 0.945844 0.900617
vt 0.941537 0.894107
vt 0.95137 0.750883
vt 0.948281 0.751309
vt 0.946162 0.891873
vt 0.958778 0.894283
vt 0.955328 0.750965
vt 0.950401 0.610745
vt 0.951877 0.607647
vt 0.95137 0.750883
vt 0.941537 0.894107
vt 0.946162 0.891873
vt 0.948281 0.751309
vt 0.955328 0.750965
vt 0.958778 0.894283
vt 0.945844 0.900617
vt 0.948123 0.749498
vt 0.951877 0.607647
vt 0.950402 0.598379
vt 0.931606 0.751237
vt 0.941452 0.894794
vt 0.937134 0.90132
vt 0.93486 0.74985
vt 0.927639 0.75132
vt 0.924171 0.894971
vt 0.936817 0.892555
vt 0.934701 0.751664
vt 0.931107 0.607668
vt 0.932586 0.610774
vt 0.93486 0.74985
vt 0.937134 0.90132
vt 0.924171 0.894971
vt 0.927639 0.75132
vt 0.932586 0.598379
vt 0.931107 0.607668
vt 0.934701 0.751664
vt 0.936817 0.892555
vt 0.941452 0.894794
vt 0.931606 0.751237
vt 0.903038 0.653607
vt 0.983379 0.653607
vt 0.983377 0.771714
vt 0.903039 0.771714
vt 0.903038 0.524394
vt 0.98338 0.524394
vt 0.983379 0.653607
vt 0.903038 0.653607
vt 0.903039 0.771714
vt 0.983377 0.771714
vt 0.983376 0.900923
vt 0.903038 0.900923
vt 0.128776 0.355403
vt 0.128776 0.739529
vt 0.428633 0.739529
vt 0.428633 0.355403
vt 0.268106 0.515993
vt 0.429374 0.516048
vt 0.429298 0.736031
vt 0.26803 0.735976
vt 0.983153 0.650238
vt 0.903265 0.650238
vt 0.903265 0.79422
vt 0.983153 0.79422
vt 0.983153 0.79422
vt 0.903265 0.79422
vt 0.903265 0.95785
vt 0.983153 0.95785
vt 0.983153 0.486608
vt 0.903265 0.486608
vt 0.903265 0.650238
vt 0.983153 0.650238
vt 0.932586 0.610774
vt 0.934701 0.751664
vt 0.931606 0.751237
vt 0.92176 0.60768
vt 0.92176 0.60768
vt 0.931606 0.751237
vt 0.93486 0.74985
vt 0.932586 0.598379
vt 0.961202 0.607659
vt 0.95137 0.750883
vt 0.948281 0.751309
vt 0.950401 0.610745
vt 0.950402 0.598379
vt 0.948123 0.749498
vt 0.95137 0.750883
vt 0.961202 0.607659
vt 0.268106 0.515993
vt 0.429374 0.516048
vt 0.429298 0.736031
vt 0.26803 0.735976
vt 0.903038 0.653607
vt 0.983379 0.653607
vt 0.983377 0.771714
vt 0.903039 0.771714
vt 0.903038 0.524394
vt 0.98338 0.524394
vt 0.983379 0.653607
vt 0.903038 0.653607
vt 0.903039 0.771714
vt 0.983377 0.771714
vt 0.983376 0.900923
vt 0.903038 0.900923
vt 0.128776 0.355403
vt 0.128776 0.739529
vt 0.428633 0.739529
vt 0.428633 0.355403
vt 0.837897 0.955908
vt 0.837897 0.807384
vt 0.35804 0.807384
vt 0.35804 0.955908
vt 0.35804 0.955908
vt 0.35804 0.807384
vt 0.837897 0.807384
vt 0.837897 0.955908
vt 0.560288 0.955908
vt 0.560288 0.807384
vt 0.155793 0.807384
vt 0.155793 0.955908
vt 0.268106 0.515993
vt 0.26803 0.735976
vt 0.429298 0.736031
vt 0.429374 0.516048
vt 0.948123 0.749498
vt 0.95137 0.750883
vt 0.941537 0.894107
vt 0.945844 0.900617
vt 0.948281 0.751309
vt 0.958778 0.894283
vt 0.946162 0.891873
vt 0.955328 0.750965
vt 0.950401 0.610745
vt 0.951877 0.607647
vt 0.95137 0.750883
vt 0.948281 0.751309
vt 0.946162 0.891873
vt 0.941537 0.894107
vt 0.955328 0.750965
vt 0.945844 0.900617
vt 0.958778 0.894283
vt 0.948123 0.749498
vt 0.951877 0.607647
vt 0.950402 0.598379
vt 0.931606 0.751237
vt 0.93486 0.74985
vt 0.937134 0.90132
vt 0.941452 0.894794
vt 0.927639 0.75132
vt 0.936817 0.892555
vt 0.924171 0.894971
vt 0.934701 0.751664
vt 0.931107 0.607668
vt 0.932586 0.610774
vt 0.93486 0.74985
vt 0.924171 0.894971
vt 0.937134 0.90132
vt 0.927639 0.75132
vt 0.932586 0.598379
vt 0.931107 0.607668
vt 0.934701 0.751664
vt 0.931606 0.751237
vt 0.941452 0.894794
vt 0.936817 0.892555
vt 0.903038 0.653607
vt 0.903039 0.771714
vt 0.983377 0.771714
vt 0.983379 0.653607
vt 0.903038 0.524394
vt 0.903038 0.653607
vt 0.983379 0.653607
vt 0.98338 0.524394
vt 0.903039 0.771714
vt 0.903038 0.900923
vt 0.983376 0.900923
vt 0.983377 0.771714
vt 0.128776 0.355403
vt 0.428633 0.355403
vt 0.428633 0.739529
vt 0.128776 0.739529
vt 0.268106 0.515993
vt 0.26803 0.735976
vt 0.429298 0.736031
vt 0.429374 0.516048
vt 0.983153 0.650238
vt 0.983153 0.79422
vt 0.903265 0.79422
vt 0.903265 0.650238
vt 0.983153 0.79422
vt 0.983153 0.95785
vt 0.903265 0.95785
vt 0.903265 0.79422
vt 0.983153 0.486608
vt 0.983153 0.650238
vt 0.903265 0.650238
vt 0.903265 0.486608
vt 0.932586 0.610774
vt 0.92176 0.60768
vt 0.931606 0.751237
vt 0.934701 0.751664
vt 0.92176 0.60768
vt 0.932586 0.598379
vt 0.93486 0.74985
vt 0.931606 0.751237
vt 0.961202 0.607659
vt 0.950401 0.610745
vt 0.948281 0.751309
vt 0.95137 0.750883
vt 0.950402 0.598379
vt 0.961202 0.607659
vt 0.95137 0.750883
vt 0.948123 0.749498
vt 0.268106 0.515993
vt 0.26803 0.735976
vt 0.429298 0.736031
vt 0.429374 0.516048
vt 0.903038 0.653607
vt 0.903039 0.771714
vt 0.983377 0.771714
vt 0.983379 0.653607
vt 0.903038 0.524394
vt 0.903038 0.653607
vt 0.983379 0.653607
vt 0.98338 0.524394
vt 0.903039 0.771714
vt 0.903038 0.900923
vt 0.983376 0.900923
vt 0.983377 0.771714
vt 0.128776 0.355403
vt 0.428633 0.355403
vt 0.428633 0.739529
vt 0.128776 0.739529
vt 0.837897 0.955908
vt 0.35804 0.955908
vt 0.35804 0.807384
vt 0.837897 0.807384
vt 0.35804 0.955908
vt 0.837897 0.955908
vt 0.837897 0.807384
vt 0.35804 0.807384
vt 0.560288 0.955908
vt 0.155793 0.955908
vt 0.155793 0.807384
vt 0.560288 0.807384
vn 0 0 -1
vn 0 0 -1
vn 0 0 -1
vn 0 0 -1
vn -0.9997337 0 -0.02307196
vn -1 0 0
vn -1 0 0
vn -0.9997247 0 -0.0234611
vn 0.9997247 0 0.02346197
vn 1 0 0
vn 1 0 0
vn 0.9997337 0 0.02307281
vn 0.998931 0 0.0462263
vn 0.998931 0 0.0462263
vn 0 -0.999905 0.01378992
vn 0 -1 0
vn 0 -1 0
vn 0 -0.9998991 0.01420187
vn 0 0.9999197 -0.01267943
vn 0 1 0
vn 0 1 0
vn 0 0.9999242 -0.01231159
vn 0 0.9996877 -0.02499051
vn 0 0.9996877 -0.02499051
vn -0.9997247 0 -0.0234611
vn -1 0 0
vn -1 0 0
vn -0.9997337 0 -0.02307196
vn 0.9997337 0 0.02307281
vn 1 0 0
vn 1 0 0
vn 0.9997247 0 0.02346197
vn 0.998931 0 0.0462263
vn 0.998931 0 0.0462263
vn 0 -0.9999242 -0.01231159
vn 0 -1 0
vn 0 -1 0
vn 0 -0.9999197 -0.01267943
vn 0 -0.9996877 -0.02499051
vn 0 -0.9996877 -0.02499051
vn 0 0.9998991 0.01420187
vn 0 1 0
vn 0 1 0
vn 0 0.999905 0.01378992
vn 1 0 0
vn 1 0 0
vn 1 0 0
vn 1 0 0
vn 0 -1 0
vn 0 -1 0
vn 0 -1 0
vn 0 -1 0
vn 0 1 0
vn 0 1 0
vn 0 1 0
vn 0 1 0
vn 0 0 1
vn 0 0 1
vn 0 0 1
vn 0 0 1
vn 0 0 -1
vn 0 0 -1
vn 0 0 -1
vn 0 0 -1
vn 1 0 0
vn 1 0 0
vn 1 0 0
vn 1 0 0
vn 0 -1 0
vn 0 -1 0
vn 0 -1 0
vn 0 -1 0
vn 0 1 0
vn 0 1 0
vn 0 1 0
vn 0 1 0
vn 0 0.9996082 0.02798955
vn 0 0.9998991 0.01420187
vn 0 0.999905 0.01378992
vn 0 0.9996082 0.02798955
vn -0.9989311 0 -0.04622459
vn -0.9997247 0 -0.0234611
vn -0.9997337 0 -0.02307196
vn -0.9989311 0 -0.0462246
vn 0 -0.9996082 0.02798955
vn 0 -0.999905 0.01378992
vn 0 -0.9998991 0.01420187
vn 0 -0.9996082 0.02798955
vn -0.9989311 0 -0.0462246
vn -0.9997337 0 -0.02307196
vn -0.9997247 0 -0.0234611
vn -0.9989311 0 -0.0462246
vn 0 0 -1
vn 0 0 -1
vn 0 0 -1
vn 0 0 -1
vn 1 0 0
vn 1 0 0
vn 1 0 0
vn 1 0 0
vn 0 -1 0
vn 0 -1 0
vn 0 -1 0
vn 0 -1 0
vn 0 1 0
vn 0 1 0
vn 0 1 0
vn 0 1 0
vn 0 0 1
vn 0 0 1
vn 0 0 1
vn 0 0 1
vn 0 -1 0
vn 0 -1 0
vn 0 -1 0
vn 0 -1 0
vn 0 1 0
vn 0 1 0
vn 0 1 0
vn 0 1 0
vn 1 0 0
vn 1 0 0
vn 1 0 0
vn 1 0 0
vn 0 0 -1
vn 0 0 -1
vn 0 0 -1
vn 0 0 -1
vn 0.9997337 0 -0.02307196
vn 0.9997247 0 -0.0234611
vn 1 0 0
vn 1 0 0
vn -0.9997247 0 0.02346197
vn -1 0 0
vn -1 0 0
vn -0.9997337 0 0.02307281
vn -0.998931 0 0.0462263
vn -0.998931 0 0.0462263
vn 0 -0.999905 0.01378992
vn 0 -0.9998991 0.01420187
vn 0 -1 0
vn 0 -1 0
vn 0 0.9999197 -0.01267943
vn 0 1 0
vn 0 1 0
vn 0 0.9999242 -0.01231159
vn 0 0.9996877 -0.02499051
vn 0 0.9996877 -0.02499051
vn 0.9997247 0 -0.0234611
vn 0.9997337 0 -0.02307196
vn 1 0 0
vn 1 0 0
vn -0.9997337 0 0.02307281
vn -1 0 0
vn -1 0 0
vn -0.9997247 0 0.02346197
vn -0.998931 0 0.0462263
vn -0.998931 0 0.0462263
vn 0 -0.9999242 -0.01231159
vn 0 -1 0
vn 0 -1 0
vn 0 -0.9999197 -0.01267943
vn 0 -0.9996877 -0.02499051
vn 0 -0.9996877 -0.02499051
vn 0 0.9998991 0.01420187
vn 0 0.999905 0.01378992
vn 0 1 0
vn 0 1 0
vn -1 0 0
vn -1 0 0
vn -1 0 0
vn -1 0 0
vn 0 -1 0
vn 0 -1 0
vn 0 -1 0
vn 0 -1 0
vn 0 1 0
vn 0 1 0
vn 0 1 0
vn 0 1 0
vn 0 0 1
vn 0 0 1
vn 0 0 1
vn 0 0 1
vn 0 0 -1
vn 0 0 -1
vn 0 0 -1
vn 0 0 -1
vn -1 0 0
vn -1 0 0
vn -1 0 0
vn -1 0 0
vn 0 -1 0
vn 0 -1 0
vn 0 -1 0
vn 0 -1 0
vn 0 1 0
vn 0 1 0
vn 0 1 0
vn 0 1 0
vn 0 0.9996082 0.02798955
vn 0 0.9996082 0.02798955
vn 0 0.999905 0.01378992
vn 0 0.9998991 0.01420187
vn 0.9989311 0 -0.04622459
vn 0.9989311 0 -0.0462246
vn 0.9997337 0 -0.02307196
vn 0.9997247 0 -0.0234611
vn 0 -0.9996082 0.02798955
vn 0 -0.9996082 0.02798955
vn 0 -0.9998991 0.01420187
vn 0 -0.999905 0.01378992
vn 0.9989311 0 -0.0462246
vn 0.9989311 0 -0.0462246
vn 0.9997247 0 -0.0234611
vn 0.9997337 0 -0.02307196
vn 0 0 -1
vn 0 0 -1
vn 0 0 -1
vn 0 0 -1
vn -1 0 0
vn -1 0 0
vn -1 0 0
vn -1 0 0
vn 0 -1 0
vn 0 -1 0
vn 0 -1 0
vn 0 -1 0
vn 0 1 0
vn 0 1 0
vn 0 1 0
vn 0 1 0
vn 0 0 1
vn 0 0 1
vn 0 0 1
vn 0 0 1
vn 0 -1 0
vn 0 -1 0
vn 0 -1 0
vn 0 -1 0
vn 0 1 0
vn 0 1 0
vn 0 1 0
vn 0 1 0
vn -1 0 0
vn -1 0 0
vn -1 0 0
vn -1 0 0
g Oriental_DiningTable_0
f 3/3/3 2/2/2 1/1/1
f 4/4/4 3/3/3 1/1/1
f 7/7/7 6/6/6 5/5/5
f 8/8/8 7/7/7 5/5/5
f 11/11/11 10/10/10 9/9/9
f 12/12/12 11/11/11 9/9/9
f 12/12/12 9/9/9 13/13/13
f 14/14/14 12/12/12 13/13/13
f 17/17/17 16/16/16 15/15/15
f 18/18/18 17/17/17 15/15/15
f 21/21/21 20/20/20 19/19/19
f 22/22/22 21/21/21 19/19/19
f 22/22/22 19/19/19 23/23/23
f 24/24/24 22/22/22 23/23/23
f 27/27/27 26/26/26 25/25/25
f 28/28/28 27/27/27 25/25/25
f 31/31/31 30/30/30 29/29/29
f 32/32/32 31/31/31 29/29/29
f 32/32/32 29/29/29 33/33/33
f 34/34/34 32/32/32 33/33/33
f 37/37/37 36/36/36 35/35/35
f 38/38/38 37/37/37 35/35/35
f 38/38/38 35/35/35 39/39/39
f 40/40/40 38/38/38 39/39/39
f 43/43/43 42/42/42 41/41/41
f 44/44/44 43/43/43 41/41/41
f 47/47/47 46/46/46 45/45/45
f 48/48/48 47/47/47 45/45/45
f 51/51/51 50/50/50 49/49/49
f 52/52/52 51/51/51 49/49/49
f 55/55/55 54/54/54 53/53/53
f 56/56/56 55/55/55 53/53/53
f 59/59/59 58/58/58 57/57/57
f 60/60/60 59/59/59 57/57/57
f 63/63/63 62/62/62 61/61/61
f 64/64/64 63/63/63 61/61/61
f 67/67/67 66/66/66 65/65/65
f 68/68/68 67/67/67 65/65/65
f 71/71/71 70/70/70 69/69/69
f 72/72/72 71/71/71 69/69/69
f 75/75/75 74/74/74 73/73/73
f 76/76/76 75/75/75 73/73/73
f 79/79/79 78/78/78 77/77/77
f 80/80/80 79/79/79 77/77/77
f 83/83/83 82/82/82 81/81/81
f 84/84/84 83/83/83 81/81/81
f 87/87/87 86/86/86 85/85/85
f 88/88/88 87/87/87 85/85/85
f 91/91/91 90/90/90 89/89/89
f 92/92/92 91/91/91 89/89/89
f 95/95/95 94/94/94 93/93/93
f 96/96/96 95/95/95 93/93/93
f 99/99/99 98/98/98 97/97/97
f 100/100/100 99/99/99 97/97/97
f 103/103/103 102/102/102 101/101/101
f 104/104/104 103/103/103 101/101/101
f 107/107/107 106/106/106 105/105/105
f 108/108/108 107/107/107 105/105/105
f 111/111/111 110/110/110 109/109/109
f 112/112/112 111/111/111 109/109/109
f 115/115/115 114/114/114 113/113/113
f 116/116/116 115/115/115 113/113/113
f 119/119/119 118/118/118 117/117/117
f 120/120/120 119/119/119 117/117/117
f 123/123/123 122/122/122 121/121/121
f 124/124/124 123/123/123 121/121/121
f 127/127/127 126/126/126 125/125/125
f 128/128/128 127/127/127 125/125/125
f 131/131/131 130/130/130 129/129/129
f 132/132/132 131/131/131 129/129/129
f 135/135/135 134/134/134 133/133/133
f 134/134/134 136/136/136 133/133/133
f 133/133/133 136/136/136 137/137/137
f 136/136/136 138/138/138 137/137/137
f 141/141/141 140/140/140 139/139/139
f 142/142/142 141/141/141 139/139/139
f 145/145/145 144/144/144 143/143/143
f 144/144/144 146/146/146 143/143/143
f 143/143/143 146/146/146 147/147/147
f 146/146/146 148/148/148 147/147/147
f 151/151/151 150/150/150 149/149/149
f 152/152/152 151/151/151 149/149/149
f 155/155/155 154/154/154 153/153/153
f 154/154/154 156/156/156 153/153/153
f 153/153/153 156/156/156 157/157/157
f 156/156/156 158/158/158 157/157/157
f 161/161/161 160/160/160 159/159/159
f 160/160/160 162/162/162 159/159/159
f 159/159/159 162/162/162 163/163/163
f 162/162/162 164/164/164 163/163/163
f 167/167/167 166/166/166 165/165/165
f 168/168/168 167/167/167 165/165/165
f 171/171/171 170/170/170 169/169/169
f 172/172/172 171/171/171 169/169/169
f 175/175/175 174/174/174 173/173/173
f 176/176/176 175/175/175 173/173/173
f 179/179/179 178/178/178 177/177/177
f 180/180/180 179/179/179 177/177/177
f 183/183/183 182/182/182 181/181/181
f 184/184/184 183/183/183 181/181/181
f 187/187/187 186/186/186 185/185/185
f 188/188/188 187/187/187 185/185/185
f 191/191/191 190/190/190 189/189/189
f 192/192/192 191/191/191 189/189/189
f 195/195/195 194/194/194 193/193/193
f 196/196/196 195/195/195 193/193/193
f 199/199/199 198/198/198 197/197/197
f 200/200/200 199/199/199 197/197/197
f 203/203/203 202/202/202 201/201/201
f 204/204/204 203/203/203 201/201/201
f 207/207/207 206/206/206 205/205/205
f 208/208/208 207/207/207 205/205/205
f 211/211/211 210/210/210 209/209/209
f 212/212/212 211/211/211 209/209/209
f 215/215/215 214/214/214 213/213/213
f 216/216/216 215/215/215 213/213/213
f 219/219/219 218/218/218 217/217/217
f 220/220/220 219/219/219 217/217/217
f 223/223/223 222/222/222 221/221/221
f 224/224/224 223/223/223 221/221/221
f 227/227/227 226/226/226 225/225/225
f 228/228/228 227/227/227 225/225/225
f 231/231/231 230/230/230 229/229/229
f 232/232/232 231/231/231 229/229/229
f 235/235/235 234/234/234 233/233/233
f 236/236/236 235/235/235 233/233/233
f 239/239/239 238/238/238 237/237/237
f 240/240/240 239/239/239 237/237/237
f 243/243/243 242/242/242 241/241/241
f 244/244/244 243/243/243 241/241/241
f 247/247/247 246/246/246 245/245/245
f 248/248/248 247/247/247 245/245/245
