g PalmWoodGate
v 0.424791 0.042999 1.506907
v 0.427134 0.037187 -0.063829
v 0.65752 0.037187 -0.063829
v 0.661079 0.043506 1.533458
v 0.427134 -0.037187 -0.063829
v 0.424791 -0.042999 1.506907
v 0.661079 -0.043506 1.533458
v 0.65752 -0.037187 -0.063829
v 0.424791 0.042999 1.506907
v 0.424791 -0.042999 1.506907
v 0.427134 -0.037187 -0.063829
v 0.427134 0.037187 -0.063829
v 0.65752 0.037187 -0.063829
v 0.65752 -0.037187 -0.063829
v 0.661079 -0.043506 1.533458
v 0.661079 0.043506 1.533458
v 0.149869 0.042977 1.476568
v 0.152166 0.037187 -0.063829
v 0.382552 0.037187 -0.063829
v 0.386166 0.043525 1.505333
v 0.152166 -0.037187 -0.063829
v 0.149869 -0.042977 1.476568
v 0.386166 -0.043525 1.505333
v 0.382552 -0.037187 -0.063829
v 0.149869 0.042977 1.476568
v 0.149869 -0.042977 1.476568
v 0.152166 -0.037187 -0.063829
v 0.152166 0.037187 -0.063829
v 0.382552 0.037187 -0.063829
v 0.382552 -0.037187 -0.063829
v 0.386166 -0.043525 1.505333
v 0.386166 0.043525 1.505333
v 0.149869 0.042977 1.476568
v 0.386166 0.043525 1.505333
v 0.386166 -0.043525 1.505333
v 0.149869 -0.042977 1.476568
v 0.424791 0.042999 1.506907
v 0.661079 0.043506 1.533458
v 0.661079 -0.043506 1.533458
v 0.424791 -0.042999 1.506907
v 0.699567 0.04309 1.534708
v 0.702103 0.037187 -0.063829
v 0.934919 0.037187 -0.063829
v 0.93826 0.043425 1.552415
v 0.702103 -0.037187 -0.063829
v 0.699567 -0.04309 1.534708
v 0.93826 -0.043425 1.552415
v 0.934919 -0.037187 -0.063829
v 0.699567 0.04309 1.534708
v 0.699567 -0.04309 1.534708
v 0.702103 -0.037187 -0.063829
v 0.702103 0.037187 -0.063829
v 0.934919 0.037187 -0.063829
v 0.934919 -0.037187 -0.063829
v 0.93826 -0.043425 1.552415
v 0.93826 0.043425 1.552415
v 0.699567 0.04309 1.534708
v 0.93826 0.043425 1.552415
v 0.93826 -0.043425 1.552415
v 0.699567 -0.04309 1.534708
v 0.940043 0.0884 1.259926
v 0.137555 0.084459 1.257583
v 0.137555 0.084459 1.027197
v 0.940043 0.088743 1.023638
v 0.137555 0.03404 1.257583
v 0.940043 0.030099 1.259926
v 0.940043 0.029756 1.023638
v 0.137555 0.03404 1.027197
v 0.940043 0.0884 1.259926
v 0.940043 0.030099 1.259926
v 0.137555 0.03404 1.257583
v 0.137555 0.084459 1.257583
v 0.137555 0.084459 1.027197
v 0.137555 0.03404 1.027197
v 0.940043 0.029756 1.023638
v 0.940043 0.088743 1.023638
v 0.940043 0.0884 1.259926
v 0.940043 0.088743 1.023638
v 0.940043 0.029756 1.023638
v 0.940043 0.030099 1.259926
v 0.940043 0.0884 0.45928
v 0.137555 0.084459 0.456937
v 0.137555 0.084459 0.226552
v 0.940043 0.088743 0.222992
v 0.137555 0.03404 0.456937
v 0.940043 0.030099 0.45928
v 0.940043 0.029756 0.222992
v 0.137555 0.03404 0.226552
v 0.940043 0.0884 0.45928
v 0.940043 0.030099 0.45928
v 0.137555 0.03404 0.456937
v 0.137555 0.084459 0.456937
v 0.137555 0.084459 0.226552
v 0.137555 0.03404 0.226552
v 0.940043 0.029756 0.222992
v 0.940043 0.088743 0.222992
v 0.940043 0.0884 0.45928
v 0.940043 0.088743 0.222992
v 0.940043 0.029756 0.222992
v 0.940043 0.030099 0.45928
vt 0.645532 0.984763
vt 0.645532 0.81553
vt 0.715151 0.81553
vt 0.715151 0.984763
vt 0.645532 0.81553
vt 0.645532 0.984763
vt 0.715151 0.984763
vt 0.715151 0.81553
vt 0.645532 0.984763
vt 0.645532 0.984763
vt 0.645532 0.81553
vt 0.645532 0.81553
vt 0.715151 0.81553
vt 0.715151 0.81553
vt 0.715151 0.984763
vt 0.715151 0.984763
vt 0.646889 0.984763
vt 0.646889 0.81553
vt 0.716508 0.81553
vt 0.716508 0.984763
vt 0.646889 0.81553
vt 0.646889 0.984763
vt 0.716508 0.984763
vt 0.716508 0.81553
vt 0.646889 0.984763
vt 0.646889 0.984763
vt 0.646889 0.81553
vt 0.646889 0.81553
vt 0.716508 0.81553
vt 0.716508 0.81553
vt 0.716508 0.984763
vt 0.716508 0.984763
vt 0.646889 0.984763
vt 0.716508 0.984763
vt 0.716508 0.984763
vt 0.646889 0.984763
vt 0.645532 0.984763
vt 0.715151 0.984763
vt 0.715151 0.984763
vt 0.645532 0.984763
vt 0.645532 0.984763
vt 0.645532 0.81553
vt 0.715151 0.81553
vt 0.715151 0.984763
vt 0.645532 0.81553
vt 0.645532 0.984763
vt 0.715151 0.984763
vt 0.715151 0.81553
vt 0.645532 0.984763
vt 0.645532 0.984763
vt 0.645532 0.81553
vt 0.645532 0.81553
vt 0.715151 0.81553
vt 0.715151 0.81553
vt 0.715151 0.984763
vt 0.715151 0.984763
vt 0.645532 0.984763
vt 0.715151 0.984763
vt 0.715151 0.984763
vt 0.645532 0.984763
vt 0.645532 0.984763
vt 0.645532 0.81553
vt 0.715151 0.81553
vt 0.715151 0.984763
vt 0.645532 0.81553
vt 0.645532 0.984763
vt 0.715151 0.984763
vt 0.715151 0.81553
vt 0.645532 0.984763
vt 0.645532 0.984763
vt 0.645532 0.81553
vt 0.645532 0.81553
vt 0.715151 0.81553
vt 0.715151 0.81553
vt 0.715151 0.984763
vt 0.715151 0.984763
vt 0.645532 0.984763
vt 0.715151 0.984763
vt 0.715151 0.984763
vt 0.645532 0.984763
vt 0.645532 0.984763
vt 0.645532 0.81553
vt 0.715151 0.81553
vt 0.715151 0.984763
vt 0.645532 0.81553
vt 0.645532 0.984763
vt 0.715151 0.984763
vt 0.715151 0.81553
vt 0.645532 0.984763
vt 0.645532 0.984763
vt 0.645532 0.81553
vt 0.645532 0.81553
vt 0.715151 0.81553
vt 0.715151 0.81553
vt 0.715151 0.984763
vt 0.715151 0.984763
vt 0.645532 0.984763
vt 0.715151 0.984763
vt 0.715151 0.984763
vt 0.645532 0.984763
vn -0.0008685668 0.9999924 -0.003828841
vn -0.0008685668 0.9999924 -0.00382884
vn -0.0008685669 0.9999924 -0.003828841
vn -0.0008685667 0.9999924 -0.00382884
vn -0.000868567 -0.9999924 -0.00382884
vn -0.000868567 -0.9999924 -0.003828841
vn -0.0008685669 -0.9999924 -0.00382884
vn -0.000868567 -0.9999924 -0.003828841
vn -0.9999989 0 -0.001491655
vn -0.9999989 0 -0.001491655
vn -0.9999989 0 -0.001491655
vn -0.9999989 0 -0.001491655
vn 0.9999975 0 -0.002228144
vn 0.9999975 0 -0.002228144
vn 0.9999975 0 -0.002228144
vn 0.9999975 0 -0.002228144
vn -0.0009338588 0.999992 -0.003899806
vn -0.0009338589 0.999992 -0.003899806
vn -0.0009338587 0.999992 -0.003899806
vn -0.0009338588 0.999992 -0.003899805
vn -0.000933858 -0.999992 -0.003899806
vn -0.000933858 -0.999992 -0.003899806
vn -0.000933858 -0.999992 -0.003899806
vn -0.0009338579 -0.999992 -0.003899806
vn -0.9999989 0 -0.001491172
vn -0.9999989 0 -0.001491172
vn -0.9999989 0 -0.001491172
vn -0.9999989 0 -0.001491172
vn 0.9999974 0 -0.00230314
vn 0.9999974 0 -0.00230314
vn 0.9999974 0 -0.00230314
vn 0.9999974 0 -0.00230314
vn -0.1208402 0 0.992672
vn -0.1208402 0 0.992672
vn -0.1208402 0 0.992672
vn -0.1208402 0 0.992672
vn -0.1116644 0 0.9937459
vn -0.1116644 0 0.9937459
vn -0.1116644 0 0.9937459
vn -0.1116644 0 0.9937459
vn -0.0005686608 0.9999927 -0.003776449
vn -0.0005686608 0.9999927 -0.00377645
vn -0.0005686608 0.9999927 -0.00377645
vn -0.0005686608 0.9999927 -0.00377645
vn -0.0005686607 -0.9999927 -0.00377645
vn -0.0005686607 -0.9999927 -0.003776449
vn -0.0005686607 -0.9999927 -0.00377645
vn -0.0005686608 -0.9999927 -0.00377645
vn -0.9999988 0 -0.001586448
vn -0.9999988 0 -0.001586448
vn -0.9999988 0 -0.001586448
vn -0.9999988 0 -0.001586448
vn 0.9999979 0 -0.002067146
vn 0.9999979 0 -0.002067146
vn 0.9999979 0 -0.002067146
vn 0.9999979 0 -0.002067146
vn -0.07397983 0 0.9972597
vn -0.07397983 0 0.9972597
vn -0.07397983 0 0.9972597
vn -0.07397983 0 0.9972597
vn -0.005124063 0.9999866 0.0007349834
vn -0.005124063 0.9999866 0.0007349834
vn -0.005124063 0.9999866 0.0007349834
vn -0.005124063 0.9999866 0.0007349834
vn -0.005124061 -0.9999866 0.0007349793
vn -0.005124062 -0.9999866 0.0007349795
vn -0.005124061 -0.9999866 0.0007349793
vn -0.005124061 -0.9999866 0.0007349794
vn -0.002919582 0 0.9999957
vn -0.002919582 0 0.9999957
vn -0.002919582 0 0.9999957
vn -0.002919582 0 0.9999957
vn -0.004434906 0 -0.9999902
vn -0.004434906 0 -0.9999902
vn -0.004434907 0 -0.9999902
vn -0.004434907 0 -0.9999902
vn 1 0 0
vn 1 0 0
vn 1 0 0
vn 1 0 0
vn -0.005124063 0.9999866 0.0007349849
vn -0.005124063 0.9999866 0.000734985
vn -0.005124063 0.9999866 0.000734985
vn -0.005124063 0.9999866 0.000734985
vn -0.005124061 -0.9999866 0.0007349809
vn -0.005124061 -0.9999866 0.0007349809
vn -0.005124061 -0.9999866 0.000734981
vn -0.005124062 -0.9999866 0.000734981
vn -0.002919693 0 0.9999957
vn -0.002919693 0 0.9999957
vn -0.002919693 0 0.9999957
vn -0.002919693 0 0.9999957
vn -0.00443615 0 -0.9999902
vn -0.00443615 0 -0.9999902
vn -0.004436151 0 -0.9999902
vn -0.004436151 0 -0.9999902
vn 1 0 0
vn 1 0 0
vn 1 0 0
vn 1 0 0
g PalmWoodGate_0
f 3/3/3 2/2/2 1/1/1
f 4/4/4 3/3/3 1/1/1
f 7/7/7 6/6/6 5/5/5
f 8/8/8 7/7/7 5/5/5
f 11/11/11 10/10/10 9/9/9
f 12/12/12 11/11/11 9/9/9
f 15/15/15 14/14/14 13/13/13
f 16/16/16 15/15/15 13/13/13
f 19/19/19 18/18/18 17/17/17
f 20/20/20 19/19/19 17/17/17
f 23/23/23 22/22/22 21/21/21
f 24/24/24 23/23/23 21/21/21
f 27/27/27 26/26/26 25/25/25
f 28/28/28 27/27/27 25/25/25
f 31/31/31 30/30/30 29/29/29
f 32/32/32 31/31/31 29/29/29
f 35/35/35 34/34/34 33/33/33
f 36/36/36 35/35/35 33/33/33
f 39/39/39 38/38/38 37/37/37
f 40/40/40 39/39/39 37/37/37
f 43/43/43 42/42/42 41/41/41
f 44/44/44 43/43/43 41/41/41
f 47/47/47 46/46/46 45/45/45
f 48/48/48 47/47/47 45/45/45
f 51/51/51 50/50/50 49/49/49
f 52/52/52 51/51/51 49/49/49
f 55/55/55 54/54/54 53/53/53
f 56/56/56 55/55/55 53/53/53
f 59/59/59 58/58/58 57/57/57
f 60/60/60 59/59/59 57/57/57
f 63/63/63 62/62/62 61/61/61
f 64/64/64 63/63/63 61/61/61
f 67/67/67 66/66/66 65/65/65
f 68/68/68 67/67/67 65/65/65
f 71/71/71 70/70/70 69/69/69
f 72/72/72 71/71/71 69/69/69
f 75/75/75 74/74/74 73/73/73
f 76/76/76 75/75/75 73/73/73
f 79/79/79 78/78/78 77/77/77
f 80/80/80 79/79/79 77/77/77
f 83/83/83 82/82/82 81/81/81
f 84/84/84 83/83/83 81/81/81
f 87/87/87 86/86/86 85/85/85
f 88/88/88 87/87/87 85/85/85
f 91/91/91 90/90/90 89/89/89
f 92/92/92 91/91/91 89/89/89
f 95/95/95 94/94/94 93/93/93
f 96/96/96 95/95/95 93/93/93
f 99/99/99 98/98/98 97/97/97
f 100/100/100 99/99/99 97/97/97
