g PalmLog
v 0.474115 0 -0.283076
v 0.697941 -0.147354 -0.255225
v 0.697941 0 -0.294709
v 0.474115 -0.141538 -0.245151
v 0.155797 0 -0.279061
v 0.697941 -0.255225 -0.147354
v 0.155797 -0.13953 -0.241674
v -0.155797 0 -0.279061
v 0.474115 -0.245151 -0.141538
v 0.697941 -0.294709 0
v -0.155797 -0.13953 -0.241674
v -0.474115 0 -0.283076
v 0.474115 -0.283076 0
v 0.746766 -0.220843 0.208235
v 0.155797 -0.241674 -0.13953
v -0.474115 -0.141538 -0.245151
v -0.697941 0 -0.294708
v -0.697941 -0.147354 -0.255225
v 0.474115 -0.245151 0.141538
v 0.567098 -0.147355 0.255225
v 0.155797 -0.279061 0
v -0.155797 -0.241674 -0.13953
v -0.474115 -0.245151 -0.141538
v -0.697941 -0.255225 -0.147354
v 0.474115 -0.141538 0.245151
v 0.742224 -0.108351 0.294709
v 0.155797 -0.241674 0.13953
v -0.155797 -0.279061 0
v -0.474115 -0.283076 0
v -0.697941 -0.294709 0
v 0.474115 0 0.283076
v 0.697941 0.147354 0.255225
v 0.155797 -0.139531 0.241674
v -0.155797 -0.241674 0.13953
v -0.474115 -0.245151 0.141538
v -0.697941 -0.255225 0.147354
v 0.474115 0.141538 0.245151
v 0.697941 0.255225 0.147354
v 0.155797 0 0.279061
v -0.155797 -0.139531 0.241674
v -0.474115 -0.141538 0.245151
v -0.697941 -0.147355 0.255225
v 0.474115 0.245151 0.141538
v 0.697941 0.294708 0
v 0.155797 0.13953 0.241674
v -0.155797 0 0.279061
v -0.474115 0 0.283076
v -0.697941 0 0.294708
v 0.474115 0.283076 0
v 0.697941 0.255225 -0.147354
v 0.155797 0.241674 0.139531
v -0.155797 0.13953 0.241674
v -0.474115 0.141538 0.245151
v -0.697941 0.179453 0.248469
v 0.474115 0.245151 -0.141538
v 0.697941 0.147354 -0.255225
v 0.155797 0.279061 0
v -0.155797 0.241674 0.139531
v -0.474115 0.245151 0.141538
v -0.697941 0.29453 0.034447
v 0.474115 0.141538 -0.245151
v 0.697941 0 -0.294709
v 0.474115 0 -0.283076
v 0.155797 0.241674 -0.13953
v -0.155797 0.279061 0
v -0.474115 0.283076 0
v -0.558321 0.294708 0
v 0.155797 0.13953 -0.241674
v 0.155797 0 -0.279061
v -0.155797 0.241674 -0.13953
v -0.474115 0.245151 -0.141538
v -0.697941 0.304689 -0.058658
v -0.155797 0.13953 -0.241674
v -0.155797 0 -0.279061
v -0.474115 0.141538 -0.245151
v -0.697941 0.147354 -0.255225
v -0.474115 0 -0.283076
v -0.697941 0 -0.294708
v 0.748531 -0.204615 0.198865
v 0.688336 -0.237572 0.137162
v 0.688336 -0.274325 0
v 0.699707 -0.275969 0
v 0.688336 -0.237572 -0.137162
v 0.699707 -0.238996 -0.137985
v 0.688336 -0.137162 -0.237572
v 0.699707 -0.137985 -0.238996
v 0.688336 0 -0.274325
v 0.699707 0 -0.275969
v 0.688336 0.137162 -0.237572
v 0.699707 0.137985 -0.238996
v 0.688336 0.237572 -0.137162
v 0.699707 0.238996 -0.137985
v 0.688336 0.274325 0
v 0.699707 0.275969 0
v 0.688336 0.237572 0.137162
v 0.699707 0.238996 0.137985
v 0.688336 0.137162 0.237572
v 0.699707 0.137985 0.238996
v 0.688336 0 0.274325
v 0.743989 -0.108351 0.275969
v 0.697941 -0.147354 -0.255225
v 0.697941 0 -0.294709
v 0.697941 -0.255225 -0.147354
v 0.697941 0.147354 -0.255225
v 0.697941 0.255225 -0.147354
v 0.697941 -0.294709 0
v 0.697941 0.294708 0
v 0.746766 -0.220843 0.208235
v 0.697941 0.255225 0.147354
v 0.567098 -0.147355 0.255225
v 0.568863 -0.137985 0.238996
v 0.697941 0.147354 0.255225
v 0.742224 -0.108351 0.294709
v -0.699707 0.28846 -0.049289
v -0.688336 0.237572 -0.137162
v -0.688336 0.137162 -0.237572
v -0.699707 0.137984 -0.238996
v -0.688336 0 -0.274325
v -0.699707 0 -0.275969
v -0.688336 -0.137162 -0.237572
v -0.699707 -0.137985 -0.238996
v -0.688336 -0.237572 -0.137162
v -0.699707 -0.238996 -0.137984
v -0.688336 -0.274325 0
v -0.699707 -0.275969 0
v -0.688336 -0.237572 0.137162
v -0.699707 -0.238997 0.137985
v -0.688336 -0.137163 0.237572
v -0.699707 -0.137985 0.238996
v -0.688336 0 0.274325
v -0.699707 0 0.275969
v -0.688336 0.137162 0.237572
v -0.699707 0.170084 0.23224
v -0.688336 0.237572 0.137163
v -0.699707 0.278301 0.025078
v -0.697941 -0.147354 -0.255225
v -0.697941 -0.255225 -0.147354
v -0.697941 0 -0.294708
v -0.697941 -0.294709 0
v -0.697941 -0.255225 0.147354
v -0.697941 0.147354 -0.255225
v -0.697941 -0.147355 0.255225
v -0.697941 0.304689 -0.058658
v -0.697941 0 0.294708
v -0.558321 0.294708 0
v -0.560086 0.275969 0
v -0.697941 0.179453 0.248469
v -0.697941 0.29453 0.034447
v 0.688336 -0.237572 -0.137162
v 0.688336 -0.274325 0
v 0.688336 -0.237572 0.137162
v 0.688336 -0.137162 -0.237572
v 0.688336 -0.137163 0.237572
v 0.688336 0 0.274325
v 0.688336 0 -0.274325
v 0.688336 0.137162 -0.237572
v 0.688336 0.137162 0.237572
v 0.688336 0.237572 -0.137162
v 0.688336 0.237572 0.137162
v 0.688336 0.274325 0
v -0.688336 -0.237572 0.137162
v -0.688336 -0.274325 0
v -0.688336 -0.237572 -0.137162
v -0.688336 -0.137163 0.237572
v -0.688336 -0.137162 -0.237572
v -0.688336 0 0.274325
v -0.688336 0 -0.274325
v -0.688336 0.137162 0.237572
v -0.688336 0.137162 -0.237572
v -0.688336 0.237572 0.137163
v -0.688336 0.237572 -0.137162
v -0.688336 0.274325 0
v -0.699707 0.278301 0.025078
v -0.688336 0.237572 0.137163
v -0.688336 0.274325 0
v -0.560086 0.275969 0
v -0.688336 0.237572 -0.137162
v -0.699707 0.28846 -0.049289
v 0.568863 -0.137985 0.238996
v 0.688336 -0.237572 0.137162
v 0.748531 -0.204615 0.198865
v 0.688336 -0.137163 0.237572
v 0.743989 -0.108351 0.275969
v 0.688336 0 0.274325
vt -0.030412 0.268146
vt 0.041234 0.157106
vt -0.030358 0.157071
vt 0.04118 0.268181
vt -0.030488 0.422576
vt 0.112827 0.157141
vt 0.041105 0.422611
vt -0.030563 0.577005
vt 0.112773 0.268216
vt 0.184419 0.157176
vt 0.04103 0.57704
vt -0.030638 0.731435
vt 0.184365 0.268251
vt 0.256012 0.157211
vt 0.112697 0.422645
vt 0.040954 0.73147
vt -0.030692 0.84251
vt 0.0409 0.842545
vt 0.255958 0.268286
vt 0.327604 0.157246
vt 0.18429 0.42268
vt 0.112622 0.577075
vt 0.112547 0.731505
vt 0.112493 0.84258
vt 0.32755 0.26832
vt 0.399197 0.157281
vt 0.255883 0.422715
vt 0.184215 0.57711
vt 0.184139 0.73154
vt 0.184085 0.842615
vt 0.399143 0.268355
vt 0.47079 0.157316
vt 0.327475 0.42275
vt 0.255807 0.577145
vt 0.255732 0.731575
vt 0.255678 0.842649
vt 0.470736 0.26839
vt 0.542382 0.157351
vt 0.399068 0.422785
vt 0.3274 0.57718
vt 0.327324 0.73161
vt 0.32727 0.842684
vt 0.542328 0.268425
vt 0.613975 0.157385
vt 0.47066 0.42282
vt 0.398992 0.577215
vt 0.398917 0.731645
vt 0.398863 0.842719
vt 0.613921 0.26846
vt 0.685567 0.15742
vt 0.542253 0.422855
vt 0.470585 0.57725
vt 0.47051 0.731679
vt 0.470455 0.842754
vt 0.685513 0.268495
vt 0.75716 0.157455
vt 0.613845 0.42289
vt 0.542177 0.577285
vt 0.542102 0.731714
vt 0.542048 0.842789
vt 0.757106 0.26853
vt 0.828752 0.15749
vt 0.828698 0.268565
vt 0.685438 0.422925
vt 0.61377 0.577319
vt 0.613695 0.731749
vt 0.61364 0.842824
vt 0.75703 0.42296
vt 0.828623 0.422994
vt 0.685362 0.577354
vt 0.685287 0.731784
vt 0.685233 0.842859
vt 0.756955 0.577389
vt 0.828547 0.577424
vt 0.756879 0.731819
vt 0.756825 0.842893
vt 0.828472 0.731854
vt 0.828418 0.842928
vt 0 0
vt 0 0
vt 0 0
vt 0 0
vt 0 0
vt 0 0
vt 0 0
vt 0 0
vt 0 0
vt 0 0
vt 0 0
vt 0 0
vt 0 0
vt 0 0
vt 0 0
vt 0 0
vt 0 0
vt 0 0
vt 0 0
vt 0 0
vt 0 0
vt 0 0
vt 0 0
vt 0 0
vt 0 0
vt 0 0
vt 0 0
vt 0 0
vt 0 0
vt 0 0
vt 0 0
vt 0 0
vt 0 0
vt 0 0
vt 0 0
vt 0 0
vt 0 0
vt 0 0
vt 0 0
vt 0 0
vt 0 0
vt 0 0
vt 0 0
vt 0 0
vt 0 0
vt 0 0
vt 0 0
vt 0 0
vt 0 0
vt 0 0
vt 0 0
vt 0 0
vt 0 0
vt 0 0
vt 0 0
vt 0 0
vt 0 0
vt 0 0
vt 0 0
vt 0 0
vt 0 0
vt 0 0
vt 0 0
vt 0 0
vt 0 0
vt 0 0
vt 0 0
vt 0 0
vt 0 0
vt 0 0
vt 0.215458 0.864153
vt 0.19781 0.894719
vt 0.19781 0.930014
vt 0.246024 0.846505
vt 0.215458 0.960581
vt 0.246024 0.978229
vt 0.28132 0.846505
vt 0.311886 0.864153
vt 0.28132 0.978229
vt 0.329534 0.894719
vt 0.311886 0.960581
vt 0.329534 0.930014
vt 0.215458 0.863638
vt 0.19781 0.894205
vt 0.19781 0.9295
vt 0.246024 0.84599
vt 0.215458 0.960066
vt 0.28132 0.84599
vt 0.246024 0.977714
vt 0.311886 0.863638
vt 0.28132 0.977714
vt 0.329534 0.894204
vt 0.311886 0.960066
vt 0.329534 0.9295
vt 0.235361 0.934561
vt 0.23362 0.947807
vt 0.248788 0.913481
vt 0.222643 0.891909
vt 0.279496 0.891909
vt 0.267456 0.895663
vt 0.303809 0.891909
vt 0.293688 0.959887
vt 0.311374 0.943094
vt 0.295637 0.92241
vt 0.279516 0.933245
vt 0.29759 0.959887
vn -0.02921441 0 -0.9995732
vn 0.01747966 -0.4999245 -0.8658926
vn 0.01747992 0 -0.9998472
vn -0.02921425 -0.4997875 -0.8656552
vn -0.006402947 0 -0.9999795
vn 0.01747965 -0.8658926 -0.4999245
vn -0.006403157 -0.4999906 -0.8660073
vn 0.006402947 0 -0.9999795
vn -0.02921426 -0.8656552 -0.4997875
vn 0.03376947 -0.9964406 0.07723887
vn 0.006403158 -0.4999906 -0.8660073
vn 0.02921346 0 -0.9995732
vn -0.02171865 -0.9992859 0.03091969
vn 0.07883503 -0.8850975 0.45868
vn -0.00640316 -0.8660073 -0.4999906
vn 0.02921379 -0.499787 -0.8656555
vn -0.01748069 0 -0.9998472
vn -0.01748048 -0.4999232 -0.8658933
vn -0.02689778 -0.8829674 0.4686631
vn -0.1019325 -0.5102426 0.8539685
vn -0.00640295 -0.9999795 0
vn 0.00640316 -0.8660073 -0.4999906
vn 0.02921426 -0.8656552 -0.4997875
vn -0.01748055 -0.8658926 -0.4999245
vn -0.0528006 -0.5056898 0.8610981
vn 0.09023075 0.03835196 0.9951821
vn -0.006402872 -0.8660083 0.4999885
vn 0.006402951 -0.9999795 0
vn 0.02921442 -0.9995732 0
vn -0.01747909 -0.9998472 0
vn -0.02300069 0.04160735 0.9988692
vn 0.04591608 0.4117791 0.9101262
vn -0.006402765 -0.4999907 0.8660072
vn 0.006402873 -0.8660083 0.4999885
vn 0.02921426 -0.865656 0.4997862
vn -0.01747809 -0.8658934 0.4999232
vn -0.01777387 0.4623307 0.8865295
vn 0.01747968 0.8658933 0.4999232
vn -0.006402835 0 0.9999795
vn 0.006402765 -0.4999907 0.8660072
vn 0.02921382 -0.4997865 0.8656558
vn -0.01747881 -0.4999238 0.865893
vn -0.02921335 0.8656557 0.4997868
vn 0.01748055 0.9998472 0
vn -0.006402868 0.4999886 0.8660085
vn 0.006402834 0 0.9999795
vn 0.03056517 0.004820284 0.9995211
vn -0.0194729 0.0111922 0.9997477
vn -0.02921333 0.9995732 0
vn 0.01747969 0.8658933 -0.4999232
vn -0.006402763 0.8660071 0.4999907
vn 0.006402868 0.4999885 0.8660083
vn 0.02722121 0.5334086 0.8454196
vn -0.03069979 0.6184154 0.7852514
vn -0.0292138 0.8656555 -0.4997869
vn 0.01747965 0.4999245 -0.8658926
vn -0.006402836 0.9999795 0
vn 0.006402763 0.8660071 0.4999907
vn 0.0248851 0.861126 0.5077823
vn -0.08181781 0.8884687 0.4515852
vn -0.02921426 0.4997875 -0.8656552
vn 0.01747992 0 -0.9998472
vn -0.02921441 0 -0.9995732
vn -0.006403163 0.8660073 -0.4999906
vn 0.006402836 0.9999795 0
vn 0.04671644 0.9989022 0.003476046
vn 0.1053455 0.9942438 0.01953715
vn -0.006403162 0.4999906 -0.8660073
vn -0.006402947 0 -0.9999795
vn 0.006403163 0.8660073 -0.4999906
vn 0.02239434 0.843083 -0.5373169
vn -0.0799674 0.8442063 -0.5300198
vn 0.006403162 0.4999906 -0.8660073
vn 0.006402947 0 -0.9999795
vn 0.01810024 0.5305519 -0.8474593
vn -0.05109227 0.5652003 -0.8233701
vn 0.02921346 0 -0.9995732
vn -0.01748069 0 -0.9998472
vn 0.8296109 0.4940178 0.2601768
vn 0.9697417 0.2382821 -0.05312933
vn 0.7338356 0.6701537 -0.1112619
vn 0.7217627 0.6513759 -0.2340255
vn 0.9895349 0.1249627 0.07214558
vn 0.9379886 0.3002195 0.1733369
vn 0.9981153 0.03068285 0.05314546
vn 0.9379886 0.173337 0.3002195
vn 0.9987177 0 0.05062739
vn 0.9379877 0 0.3466687
vn 0.9983363 -0.02882956 0.0499354
vn 0.9379886 -0.173337 0.3002195
vn 0.995934 -0.07801689 0.04504205
vn 0.9379871 -0.3002229 0.173339
vn 0.9405116 -0.3397615 0
vn 0.9379848 -0.3466764 0
vn 0.9895349 -0.1249627 -0.07214559
vn 0.9379871 -0.3002228 -0.173339
vn 0.9882975 -0.05264914 -0.1431647
vn 0.7499095 -0.1196857 -0.6506237
vn 0.9840447 -0.0447271 -0.172208
vn 0.8183917 -0.4285244 -0.3828861
vn 0.01747966 -0.4999245 -0.8658926
vn 0.01747992 0 -0.9998472
vn 0.01747965 -0.8658926 -0.4999245
vn 0.01747965 0.4999245 -0.8658926
vn 0.01747969 0.8658933 -0.4999232
vn 0.03376947 -0.9964406 0.07723887
vn 0.01748055 0.9998472 0
vn 0.07883503 -0.8850975 0.45868
vn 0.01747968 0.8658933 0.4999232
vn -0.1019325 -0.5102426 0.8539685
vn 0.8521095 -0.2203514 0.4747153
vn 0.04591608 0.4117791 0.9101262
vn 0.09023075 0.03835196 0.9951821
vn -0.828365 0.3854424 0.4065042
vn -0.9801816 -0.1339368 0.1459617
vn -0.996612 -0.04678638 0.06764186
vn -0.9355742 -0.1945497 0.2947055
vn -0.9985697 0 0.05346398
vn -0.937985 0 0.346676
vn -0.9983363 0.02882968 0.04993542
vn -0.9379876 0.1733388 0.3002216
vn -0.995934 0.07801611 0.04504287
vn -0.9379875 0.3002244 0.1733341
vn -0.9405124 0.3397593 0
vn -0.9379872 0.3466699 0
vn -0.9895347 0.1249641 -0.07214729
vn -0.9379904 0.3002167 -0.1733315
vn -0.9976913 0.03395655 -0.05881428
vn -0.937986 0.173336 -0.300228
vn -0.9984066 -0.0006545607 -0.05642567
vn -0.9454349 -0.003092043 -0.3257965
vn -0.9974483 -0.02858941 -0.06541857
vn -0.9661364 -0.2090117 -0.1513095
vn -0.9945343 -0.08524751 -0.06028722
vn -0.8421561 0.2803489 -0.4606273
vn -0.01748048 -0.4999232 -0.8658933
vn -0.01748055 -0.8658926 -0.4999245
vn -0.01748069 0 -0.9998472
vn -0.01747909 -0.9998472 0
vn -0.01747809 -0.8658934 0.4999232
vn -0.05109227 0.5652003 -0.8233701
vn -0.01747881 -0.4999238 0.865893
vn -0.0799674 0.8442063 -0.5300198
vn -0.0194729 0.0111922 0.9997477
vn 0.1053455 0.9942438 0.01953715
vn -0.6763039 0.7357243 0.03636949
vn -0.03069979 0.6184154 0.7852514
vn -0.08181781 0.8884687 0.4515852
vn 0.9895349 0.1249627 0.07214558
vn 0.7338356 0.6701537 -0.1112619
vn 0.9697417 0.2382821 -0.05312933
vn 0.9981153 0.03068285 0.05314546
vn 0.9997393 -0.01042939 -0.02031088
vn 0.9840447 -0.0447271 -0.172208
vn 0.9987177 0 0.05062739
vn 0.9983363 -0.02882956 0.0499354
vn 0.9882975 -0.05264914 -0.1431647
vn 0.995934 -0.07801689 0.04504205
vn 0.9895349 -0.1249627 -0.07214559
vn 0.9405116 -0.3397615 0
vn -0.9895347 0.1249641 -0.07214729
vn -0.9405124 0.3397593 0
vn -0.995934 0.07801611 0.04504287
vn -0.9976913 0.03395655 -0.05881428
vn -0.9983363 0.02882968 0.04993542
vn -0.9984066 -0.0006545607 -0.05642567
vn -0.9985697 0 0.05346398
vn -0.9974483 -0.02858941 -0.06541857
vn -0.996612 -0.04678638 0.06764186
vn -0.9945343 -0.08524751 -0.06028722
vn -0.9801816 -0.1339368 0.1459617
vn -0.9588142 0.2783566 0.0565059
vn -0.8421561 0.2803489 -0.4606273
vn -0.9945343 -0.08524751 -0.06028722
vn -0.9588142 0.2783566 0.0565059
vn -0.6763039 0.7357243 0.03636949
vn -0.9801816 -0.1339368 0.1459617
vn -0.828365 0.3854424 0.4065042
vn 0.8521095 -0.2203514 0.4747153
vn 0.9697417 0.2382821 -0.05312933
vn 0.8296109 0.4940178 0.2601768
vn 0.9997393 -0.01042939 -0.02031088
vn 0.8183917 -0.4285244 -0.3828861
vn 0.9840447 -0.0447271 -0.172208
g PalmLog_0
f 3/3/3 2/2/2 1/1/1
f 2/2/2 4/4/4 1/1/1
f 1/1/1 4/4/4 5/5/5
f 2/2/2 6/6/6 4/4/4
f 4/4/4 7/7/7 5/5/5
f 5/5/5 7/7/7 8/8/8
f 6/6/6 9/9/9 4/4/4
f 4/4/4 9/9/9 7/7/7
f 6/6/6 10/10/10 9/9/9
f 7/7/7 11/11/11 8/8/8
f 8/8/8 11/11/11 12/12/12
f 10/10/10 13/13/13 9/9/9
f 10/10/10 14/14/14 13/13/13
f 9/9/9 15/15/15 7/7/7
f 7/7/7 15/15/15 11/11/11
f 9/9/9 13/13/13 15/15/15
f 11/11/11 16/16/16 12/12/12
f 12/12/12 16/16/16 17/17/17
f 16/16/16 18/18/18 17/17/17
f 14/14/14 19/19/19 13/13/13
f 14/14/14 20/20/20 19/19/19
f 13/13/13 21/21/21 15/15/15
f 13/13/13 19/19/19 21/21/21
f 15/15/15 22/22/22 11/11/11
f 11/11/11 22/22/22 16/16/16
f 15/15/15 21/21/21 22/22/22
f 16/16/16 23/23/23 18/18/18
f 22/22/22 23/23/23 16/16/16
f 23/23/23 24/24/24 18/18/18
f 20/20/20 25/25/25 19/19/19
f 20/20/20 26/26/26 25/25/25
f 19/19/19 27/27/27 21/21/21
f 19/19/19 25/25/25 27/27/27
f 21/21/21 28/28/28 22/22/22
f 22/22/22 28/28/28 23/23/23
f 21/21/21 27/27/27 28/28/28
f 23/23/23 29/29/29 24/24/24
f 28/28/28 29/29/29 23/23/23
f 29/29/29 30/30/30 24/24/24
f 26/26/26 31/31/31 25/25/25
f 26/26/26 32/32/32 31/31/31
f 25/25/25 33/33/33 27/27/27
f 25/25/25 31/31/31 33/33/33
f 27/27/27 34/34/34 28/28/28
f 28/28/28 34/34/34 29/29/29
f 27/27/27 33/33/33 34/34/34
f 29/29/29 35/35/35 30/30/30
f 34/34/34 35/35/35 29/29/29
f 35/35/35 36/36/36 30/30/30
f 32/32/32 37/37/37 31/31/31
f 32/32/32 38/38/38 37/37/37
f 31/31/31 39/39/39 33/33/33
f 31/31/31 37/37/37 39/39/39
f 33/33/33 40/40/40 34/34/34
f 34/34/34 40/40/40 35/35/35
f 33/33/33 39/39/39 40/40/40
f 35/35/35 41/41/41 36/36/36
f 40/40/40 41/41/41 35/35/35
f 41/41/41 42/42/42 36/36/36
f 38/38/38 43/43/43 37/37/37
f 38/38/38 44/44/44 43/43/43
f 37/37/37 45/45/45 39/39/39
f 37/37/37 43/43/43 45/45/45
f 39/39/39 46/46/46 40/40/40
f 40/40/40 46/46/46 41/41/41
f 39/39/39 45/45/45 46/46/46
f 41/41/41 47/47/47 42/42/42
f 46/46/46 47/47/47 41/41/41
f 47/47/47 48/48/48 42/42/42
f 44/44/44 49/49/49 43/43/43
f 44/44/44 50/50/50 49/49/49
f 43/43/43 51/51/51 45/45/45
f 43/43/43 49/49/49 51/51/51
f 45/45/45 52/52/52 46/46/46
f 46/46/46 52/52/52 47/47/47
f 45/45/45 51/51/51 52/52/52
f 47/47/47 53/53/53 48/48/48
f 52/52/52 53/53/53 47/47/47
f 53/53/53 54/54/54 48/48/48
f 50/50/50 55/55/55 49/49/49
f 50/50/50 56/56/56 55/55/55
f 49/49/49 57/57/57 51/51/51
f 49/49/49 55/55/55 57/57/57
f 51/51/51 58/58/58 52/52/52
f 52/52/52 58/58/58 53/53/53
f 51/51/51 57/57/57 58/58/58
f 53/53/53 59/59/59 54/54/54
f 58/58/58 59/59/59 53/53/53
f 59/59/59 60/60/60 54/54/54
f 56/56/56 61/61/61 55/55/55
f 56/56/56 62/62/62 61/61/61
f 62/62/62 63/63/63 61/61/61
f 55/55/55 64/64/64 57/57/57
f 55/55/55 61/61/61 64/64/64
f 57/57/57 65/65/65 58/58/58
f 58/58/58 65/65/65 59/59/59
f 57/57/57 64/64/64 65/65/65
f 59/59/59 66/66/66 60/60/60
f 65/65/65 66/66/66 59/59/59
f 66/66/66 67/67/67 60/60/60
f 61/61/61 63/63/63 68/68/68
f 61/61/61 68/68/68 64/64/64
f 63/63/63 69/69/69 68/68/68
f 64/64/64 70/70/70 65/65/65
f 65/65/65 70/70/70 66/66/66
f 64/64/64 68/68/68 70/70/70
f 66/66/66 71/71/71 67/67/67
f 70/70/70 71/71/71 66/66/66
f 71/71/71 72/72/72 67/67/67
f 68/68/68 69/69/69 73/73/73
f 68/68/68 73/73/73 70/70/70
f 70/70/70 73/73/73 71/71/71
f 69/69/69 74/74/74 73/73/73
f 71/71/71 75/75/75 72/72/72
f 73/73/73 75/75/75 71/71/71
f 73/73/73 74/74/74 75/75/75
f 75/75/75 76/76/76 72/72/72
f 74/74/74 77/77/77 75/75/75
f 75/75/75 77/77/77 76/76/76
f 77/77/77 78/78/78 76/76/76
f 81/81/81 80/80/80 79/79/79
f 82/82/82 81/81/81 79/79/79
f 83/83/83 81/81/81 82/82/82
f 84/84/84 83/83/83 82/82/82
f 85/85/85 83/83/83 84/84/84
f 86/86/86 85/85/85 84/84/84
f 87/87/87 85/85/85 86/86/86
f 88/88/88 87/87/87 86/86/86
f 89/89/89 87/87/87 88/88/88
f 90/90/90 89/89/89 88/88/88
f 91/91/91 89/89/89 90/90/90
f 92/92/92 91/91/91 90/90/90
f 93/93/93 91/91/91 92/92/92
f 94/94/94 93/93/93 92/92/92
f 95/95/95 93/93/93 94/94/94
f 96/96/96 95/95/95 94/94/94
f 97/97/97 95/95/95 96/96/96
f 98/98/98 97/97/97 96/96/96
f 99/99/99 97/97/97 98/98/98
f 100/100/100 99/99/99 98/98/98
f 86/86/86 101/101/101 88/88/88
f 101/101/101 102/102/102 88/88/88
f 88/88/88 102/102/102 90/90/90
f 103/103/103 101/101/101 86/86/86
f 102/102/102 104/104/104 90/90/90
f 90/90/90 104/104/104 92/92/92
f 84/84/84 103/103/103 86/86/86
f 104/104/104 105/105/105 92/92/92
f 106/106/106 103/103/103 84/84/84
f 92/92/92 105/105/105 94/94/94
f 82/82/82 106/106/106 84/84/84
f 105/105/105 107/107/107 94/94/94
f 108/108/108 106/106/106 82/82/82
f 94/94/94 107/107/107 96/96/96
f 79/79/79 108/108/108 82/82/82
f 107/107/107 109/109/109 96/96/96
f 110/110/110 108/108/108 79/79/79
f 96/96/96 109/109/109 98/98/98
f 111/111/111 110/110/110 79/79/79
f 109/109/109 112/112/112 98/98/98
f 113/113/113 110/110/110 111/111/111
f 98/98/98 112/112/112 100/100/100
f 100/100/100 113/113/113 111/111/111
f 112/112/112 113/113/113 100/100/100
f 116/116/116 115/115/115 114/114/114
f 117/117/117 116/116/116 114/114/114
f 118/118/118 116/116/116 117/117/117
f 119/119/119 118/118/118 117/117/117
f 120/120/120 118/118/118 119/119/119
f 121/121/121 120/120/120 119/119/119
f 122/122/122 120/120/120 121/121/121
f 123/123/123 122/122/122 121/121/121
f 124/124/124 122/122/122 123/123/123
f 125/125/125 124/124/124 123/123/123
f 126/126/126 124/124/124 125/125/125
f 127/127/127 126/126/126 125/125/125
f 128/128/128 126/126/126 127/127/127
f 129/129/129 128/128/128 127/127/127
f 130/130/130 128/128/128 129/129/129
f 131/131/131 130/130/130 129/129/129
f 132/132/132 130/130/130 131/131/131
f 133/133/133 132/132/132 131/131/131
f 134/134/134 132/132/132 133/133/133
f 135/135/135 134/134/134 133/133/133
f 121/121/121 136/136/136 123/123/123
f 136/136/136 137/137/137 123/123/123
f 123/123/123 137/137/137 125/125/125
f 138/138/138 136/136/136 121/121/121
f 137/137/137 139/139/139 125/125/125
f 125/125/125 139/139/139 127/127/127
f 119/119/119 138/138/138 121/121/121
f 139/139/139 140/140/140 127/127/127
f 141/141/141 138/138/138 119/119/119
f 127/127/127 140/140/140 129/129/129
f 117/117/117 141/141/141 119/119/119
f 140/140/140 142/142/142 129/129/129
f 143/143/143 141/141/141 117/117/117
f 129/129/129 142/142/142 131/131/131
f 114/114/114 143/143/143 117/117/117
f 142/142/142 144/144/144 131/131/131
f 145/145/145 143/143/143 114/114/114
f 131/131/131 144/144/144 133/133/133
f 146/146/146 145/145/145 114/114/114
f 144/144/144 147/147/147 133/133/133
f 148/148/148 145/145/145 146/146/146
f 133/133/133 147/147/147 135/135/135
f 135/135/135 148/148/148 146/146/146
f 147/147/147 148/148/148 135/135/135
g PalmLog_1
f 151/151/151 150/150/150 149/149/149
f 149/149/149 152/152/152 151/151/151
f 152/152/152 153/153/153 151/151/151
f 152/152/152 154/154/154 153/153/153
f 152/152/152 155/155/155 154/154/154
f 155/155/155 156/156/156 154/154/154
f 156/156/156 157/157/157 154/154/154
f 156/156/156 158/158/158 157/157/157
f 158/158/158 159/159/159 157/157/157
f 158/158/158 160/160/160 159/159/159
f 163/163/163 162/162/162 161/161/161
f 161/161/161 164/164/164 163/163/163
f 164/164/164 165/165/165 163/163/163
f 164/164/164 166/166/166 165/165/165
f 166/166/166 167/167/167 165/165/165
f 166/166/166 168/168/168 167/167/167
f 168/168/168 169/169/169 167/167/167
f 168/168/168 170/170/170 169/169/169
f 170/170/170 171/171/171 169/169/169
f 170/170/170 172/172/172 171/171/171
f 175/175/175 174/174/174 173/173/173
f 176/176/176 175/175/175 173/173/173
f 177/177/177 175/175/175 176/176/176
f 178/178/178 177/177/177 176/176/176
f 181/181/181 180/180/180 179/179/179
f 180/180/180 182/182/182 179/179/179
f 179/179/179 182/182/182 183/183/183
f 182/182/182 184/184/184 183/183/183
