g Pastie
v -0.270926 0.136593 0.062725
v -0.330405 0.047576 0.087268
v -0.330405 0.047576 0.062725
v -0.270926 0.136593 0.087268
v -0.253329 0.139495 0.09359
v -0.253329 0.139495 0.056403
v -0.341499 0.020793 0.062725
v -0.362385 -0.084209 0.087268
v -0.362385 -0.084209 0.062725
v -0.341499 0.020793 0.087268
v -0.326352 0.030208 0.09359
v -0.326352 0.030208 0.056403
v 0.332123 -0.084209 0.062725
v 0.332123 -0.084209 0.087268
v 0.311237 0.020793 0.087268
v 0.311237 0.020793 0.062725
v 0.29609 0.030208 0.056403
v 0.29609 0.030208 0.09359
v 0.300709 0.04673 0.062239
v 0.300709 0.04673 0.087754
v 0.240099 0.137439 0.087754
v 0.240099 0.137439 0.062239
v 0.223067 0.139495 0.056403
v 0.223067 0.139495 0.09359
v -0.341499 0.020793 0.087268
v -0.351994 -0.102976 0.106159
v -0.362385 -0.084209 0.087268
v -0.326352 0.030208 0.09359
v -0.253145 -0.102976 0.131311
v -0.31893 -0.169434 0.101882
v -0.235027 -0.00762 0.131311
v -0.183432 0.069597 0.131311
v -0.229783 -0.169434 0.124565
v -0.253329 0.139495 0.09359
v -0.270926 0.136593 0.087268
v -0.330405 0.047576 0.087268
v -0.144043 0.212517 0.09359
v -0.161411 0.21657 0.087268
v -0.250427 0.157092 0.087268
v -0.106215 0.121192 0.131311
v -0.015131 0.23816 0.09359
v -0.029626 0.248551 0.087268
v -0.134628 0.227664 0.087268
v -0.015131 0.13931 0.131311
v 0.113781 0.212517 0.09359
v 0.104366 0.227664 0.087268
v -0.000636 0.248551 0.087268
v 0.075953 0.121192 0.131311
v 0.223067 0.139495 0.09359
v 0.220166 0.157092 0.087268
v 0.131149 0.21657 0.087268
v 0.15317 0.069598 0.131311
v 0.204765 -0.00762 0.131311
v 0.29609 0.030208 0.09359
v 0.300709 0.04673 0.087754
v 0.240099 0.137439 0.087754
v 0.222883 -0.102976 0.131311
v 0.321732 -0.102976 0.106159
v 0.332123 -0.084209 0.087268
v 0.311237 0.020793 0.087268
v 0.199521 -0.169434 0.124565
v 0.288668 -0.169434 0.101882
v -0.174453 -0.226844 0.098727
v 0.137545 -0.226844 0.098727
v -0.239241 -0.226844 0.082242
v 0.202333 -0.226844 0.082242
v 0.288668 -0.169434 0.045675
v -0.239241 -0.226844 0.041394
v -0.31893 -0.169434 0.045675
v -0.191303 -0.255165 0.065725
v -0.143791 -0.255165 0.077814
v 0.085009 -0.255165 0.077814
v 0.132521 -0.255165 0.065725
v -0.191303 -0.255165 0.035768
v -0.191303 -0.255165 0.035768
v 0.202333 -0.226844 0.041394
v -0.175398 -0.255165 0.023549
v -0.217553 -0.226844 0.024731
v 0.132521 -0.255165 0.035768
v 0.132521 -0.255165 0.065725
v 0.202333 -0.226844 0.082242
v -0.14786 -0.255165 0.021059
v 0.116616 -0.255165 0.023549
v -0.14786 -0.255165 0.021059
v 0.089078 -0.255165 0.021059
v 0.180645 -0.226844 0.024731
v -0.180001 -0.226844 0.021336
v 0.089078 -0.255165 0.021059
v 0.143093 -0.226844 0.021336
v 0.258826 -0.169434 0.022747
v -0.289088 -0.169434 0.022747
v -0.351994 -0.102976 0.043834
v -0.237417 -0.169434 0.018075
v 0.207156 -0.169434 0.018075
v -0.351994 -0.102976 0.106159
v -0.31893 -0.169434 0.101882
v -0.362385 -0.084209 0.087268
v -0.362385 -0.084209 0.062725
v -0.318904 -0.102976 0.018411
v -0.26161 -0.102976 0.013231
v 0.231348 -0.102976 0.013231
v -0.242848 -0.00438 0.013231
v -0.326352 0.030208 0.056403
v -0.341499 0.020793 0.062725
v -0.295781 0.017545 0.018411
v -0.189418 0.075583 0.013231
v -0.229931 0.116096 0.018411
v 0.288642 -0.102976 0.018411
v -0.109454 0.129013 0.013231
v -0.253329 0.139495 0.056403
v -0.330405 0.047576 0.062725
v -0.270926 0.136593 0.062725
v -0.13138 0.181946 0.018411
v 0.321732 -0.102976 0.043834
v 0.288668 -0.169434 0.101882
v 0.321732 -0.102976 0.106159
v 0.332123 -0.084209 0.062725
v 0.332123 -0.084209 0.087268
v 0.311237 0.020793 0.062725
v 0.29609 0.030208 0.056403
v -0.015131 0.147776 0.013231
v -0.144043 0.212517 0.056403
v -0.250427 0.157092 0.062725
v -0.161411 0.21657 0.062725
v -0.015131 0.205069 0.018411
v 0.265519 0.017545 0.018411
v 0.212586 -0.00438 0.013231
v 0.079193 0.129013 0.013231
v -0.015131 0.23816 0.056403
v -0.134628 0.227664 0.062725
v -0.029626 0.248551 0.062725
v 0.159156 0.075583 0.013231
v 0.101118 0.181946 0.018411
v 0.199669 0.116096 0.018411
v 0.113781 0.212517 0.056403
v -0.000636 0.248551 0.062725
v 0.104366 0.227664 0.062725
v 0.223067 0.139495 0.056403
v 0.131149 0.21657 0.062725
v 0.220166 0.157092 0.062725
v 0.240099 0.137439 0.062239
v 0.300709 0.04673 0.062239
v -0.330405 0.047576 0.087268
v -0.326352 0.030208 0.09359
v -0.326352 0.030208 0.056403
v -0.330405 0.047576 0.062725
v -0.161411 0.21657 0.062725
v -0.144043 0.212517 0.056403
v -0.144043 0.212517 0.09359
v -0.161411 0.21657 0.087268
v -0.250427 0.157092 0.087268
v -0.250427 0.157092 0.062725
v -0.253329 0.139495 0.056403
v -0.253329 0.139495 0.09359
v -0.029626 0.248551 0.062725
v -0.015131 0.23816 0.056403
v -0.015131 0.23816 0.09359
v -0.029626 0.248551 0.087268
v -0.134628 0.227664 0.087268
v -0.134628 0.227664 0.062725
v -0.144043 0.212517 0.056403
v -0.144043 0.212517 0.09359
v 0.104366 0.227664 0.062725
v 0.113781 0.212517 0.056403
v 0.113781 0.212517 0.09359
v 0.104366 0.227664 0.087268
v -0.000636 0.248551 0.087268
v -0.000636 0.248551 0.062725
v -0.015131 0.23816 0.056403
v -0.015131 0.23816 0.09359
v 0.131149 0.21657 0.087268
v 0.113781 0.212517 0.09359
v 0.113781 0.212517 0.056403
v 0.131149 0.21657 0.062725
v 0.220166 0.157092 0.062725
v 0.220166 0.157092 0.087268
v 0.223067 0.139495 0.09359
v 0.223067 0.139495 0.056403
v 0.300709 0.04673 0.062239
v 0.29609 0.030208 0.056403
v 0.29609 0.030208 0.09359
v 0.300709 0.04673 0.087754
vt 0.652175 0.896037
vt 0.646661 0.888064
vt 0.652175 0.888064
vt 0.646661 0.896037
vt 0.645241 0.898396
vt 0.653595 0.898396
vt 0.652175 0.886577
vt 0.646661 0.883778
vt 0.652175 0.883778
vt 0.646661 0.886577
vt 0.645241 0.888608
vt 0.653595 0.888608
vt 0.652175 0.976869
vt 0.646661 0.976869
vt 0.646661 0.97407
vt 0.652175 0.97407
vt 0.653595 0.972039
vt 0.645241 0.972039
vt 0.652284 0.972659
vt 0.646552 0.972659
vt 0.646552 0.964535
vt 0.652284 0.964535
vt 0.653595 0.962252
vt 0.645241 0.962252
vt 0.580653 0.765402
vt 0.582394 0.785933
vt 0.584117 0.78282
vt 0.57814 0.76384
vt 0.565996 0.785933
vt 0.576909 0.796957
vt 0.562991 0.770115
vt 0.554432 0.757306
vt 0.562121 0.796957
vt 0.566027 0.745711
vt 0.568946 0.746193
vt 0.578812 0.760959
vt 0.547898 0.733598
vt 0.550779 0.732926
vt 0.565545 0.742792
vt 0.541623 0.748747
vt 0.526514 0.729344
vt 0.528918 0.72762
vt 0.546336 0.731085
vt 0.526514 0.745742
vt 0.505129 0.733598
vt 0.506691 0.731085
vt 0.524109 0.72762
vt 0.511404 0.748747
vt 0.487 0.745711
vt 0.487481 0.742792
vt 0.502248 0.732926
vt 0.498595 0.757306
vt 0.490036 0.770115
vt 0.474887 0.76384
vt 0.474121 0.761099
vt 0.484175 0.746052
vt 0.487031 0.785933
vt 0.470633 0.785933
vt 0.468909 0.78282
vt 0.472374 0.765402
vt 0.490906 0.796957
vt 0.476118 0.796957
vt 0.552943 0.806481
vt 0.501187 0.806481
vt 0.56369 0.806481
vt 0.49044 0.806481
vt 0.476118 0.796957
vt 0.56369 0.806481
vt 0.576909 0.796957
vt 0.555738 0.811179
vt 0.547856 0.811179
vt 0.509902 0.811179
vt 0.50202 0.811179
vt 0.555738 0.811179
vt 0.555738 0.811179
vt 0.49044 0.806481
vt 0.553099 0.811179
vt 0.560092 0.806481
vt 0.50202 0.811179
vt 0.50202 0.811179
vt 0.49044 0.806481
vt 0.548531 0.811179
vt 0.504659 0.811179
vt 0.548531 0.811179
vt 0.509227 0.811179
vt 0.494037 0.806481
vt 0.553863 0.806481
vt 0.509227 0.811179
vt 0.500267 0.806481
vt 0.481068 0.796957
vt 0.571959 0.796957
vt 0.582394 0.785933
vt 0.563387 0.796957
vt 0.48964 0.796957
vt 0.582394 0.785933
vt 0.576909 0.796957
vt 0.584117 0.78282
vt 0.584117 0.78282
vt 0.576905 0.785933
vt 0.5674 0.785933
vt 0.485626 0.785933
vt 0.564288 0.769578
vt 0.57814 0.76384
vt 0.580653 0.765402
vt 0.573069 0.765941
vt 0.555425 0.756313
vt 0.562145 0.749593
vt 0.476122 0.785933
vt 0.54216 0.74745
vt 0.566027 0.745711
vt 0.578812 0.760959
vt 0.568946 0.746193
vt 0.545797 0.738669
vt 0.470633 0.785933
vt 0.476118 0.796957
vt 0.470633 0.785933
vt 0.468909 0.78282
vt 0.468909 0.78282
vt 0.472374 0.765402
vt 0.474887 0.76384
vt 0.526514 0.744338
vt 0.547898 0.733598
vt 0.565545 0.742792
vt 0.550779 0.732926
vt 0.526514 0.734833
vt 0.479958 0.765941
vt 0.488739 0.769578
vt 0.510867 0.74745
vt 0.526514 0.729344
vt 0.546336 0.731085
vt 0.528918 0.72762
vt 0.497602 0.756313
vt 0.50723 0.738669
vt 0.490882 0.749593
vt 0.505129 0.733598
vt 0.524109 0.72762
vt 0.506691 0.731085
vt 0.487 0.745711
vt 0.502248 0.732926
vt 0.487481 0.742792
vt 0.484175 0.746052
vt 0.474121 0.761099
vt 0.646661 0.888064
vt 0.645241 0.888608
vt 0.653595 0.888608
vt 0.652175 0.888064
vt 0.652175 0.910716
vt 0.653595 0.913044
vt 0.645241 0.913044
vt 0.646661 0.910716
vt 0.646661 0.898785
vt 0.652175 0.898785
vt 0.653595 0.898396
vt 0.645241 0.898396
vt 0.652175 0.928381
vt 0.653595 0.930324
vt 0.645241 0.930324
vt 0.646661 0.928381
vt 0.646661 0.914306
vt 0.652175 0.914306
vt 0.653595 0.913044
vt 0.645241 0.913044
vt 0.652175 0.946341
vt 0.653595 0.947603
vt 0.645241 0.947603
vt 0.646661 0.946341
vt 0.646661 0.932266
vt 0.652175 0.932266
vt 0.653595 0.930324
vt 0.645241 0.930324
vt 0.646661 0.949931
vt 0.645241 0.947603
vt 0.653595 0.947603
vt 0.652175 0.949931
vt 0.652175 0.961863
vt 0.646661 0.961863
vt 0.645241 0.962252
vt 0.653595 0.962252
vt 0.652284 0.972659
vt 0.653595 0.972039
vt 0.645241 0.972039
vt 0.646552 0.972659
vn -0.7342584 0.6788701 0
vn -0.9081841 0.4185709 0
vn -0.9081841 0.4185709 0
vn -0.7342584 0.6788701 0
vn -0.1627168 0.9866728 0
vn -0.1627168 0.9866728 0
vn -0.8705238 0.2790391 -0.4053708
vn -0.930196 0.05962501 0.3621883
vn -0.930196 0.05962502 -0.3621883
vn -0.8705238 0.2790391 0.4053708
vn -0.5279058 0.849303 0
vn -0.5279058 0.849303 0
vn 0.930196 0.05962501 -0.3621883
vn 0.930196 0.059625 0.3621883
vn 0.8705238 0.2790391 0.4053708
vn 0.8705238 0.2790391 -0.4053708
vn 0.5279058 0.849303 0
vn 0.5279058 0.849303 0
vn 0.9062812 0.4226751 0
vn 0.9062812 0.4226751 0
vn 0.7373217 0.6755419 0
vn 0.7373217 0.6755419 0
vn 0.1198441 0.9927927 0
vn 0.1198441 0.9927927 0
vn -0.8705238 0.2790391 0.4053708
vn -0.3109882 0.03035151 0.9499289
vn -0.930196 0.05962501 0.3621883
vn -0.3226037 0.1604756 0.9328315
vn -0.1044553 -0.04321078 0.9935905
vn -0.5684726 -0.5268685 0.631861
vn -0.2677003 0.1391315 0.9534039
vn -0.1944923 0.194492 0.9614289
vn -0.04659024 -0.2314218 0.9717373
vn -0.2565719 0.2565723 0.9318485
vn -0.3632002 0.2426817 0.8995505
vn -0.3632002 0.2426817 0.8995505
vn -0.1388562 0.3352275 0.9318483
vn -0.2426806 0.3632005 0.8995507
vn -0.2426807 0.3632005 0.8995507
vn -0.08890996 0.2146467 0.9726365
vn 0 0.3628474 0.9318486
vn -0.0852211 0.4284205 0.8995517
vn -0.0852211 0.4284205 0.8995517
vn 0 0.1986232 0.9800759
vn 0.1388557 0.3352282 0.9318482
vn 0.0852211 0.4284205 0.8995517
vn 0.0852211 0.4284205 0.8995517
vn 0.06678117 0.1612245 0.9846557
vn 0.2556916 0.2558503 0.9322888
vn 0.2426756 0.3631947 0.8995544
vn 0.2426756 0.3631947 0.8995544
vn 0.1122425 0.1122426 0.9873213
vn 0.1240462 0.06447016 0.9901799
vn 0.3216262 0.1599082 0.9332663
vn 0.3401012 0.2272483 0.9125181
vn 0.3401012 0.2272483 0.9125181
vn 0.09021009 -0.03731788 0.9952233
vn 0.3109881 0.03035149 0.9499289
vn 0.930196 0.059625 0.3621883
vn 0.8705238 0.2790391 0.4053708
vn 0.04770339 -0.2328502 0.9713419
vn 0.5647284 -0.5424464 0.6219594
vn -0.02741391 -0.4660324 0.8843428
vn 0.02820354 -0.4715502 0.8813881
vn -0.3995907 -0.7623978 0.5089959
vn 0.374809 -0.7974394 0.4728727
vn 0.7297962 -0.6333579 -0.2574007
vn -0.5592962 -0.7934172 -0.2401604
vn -0.7436351 -0.6145507 -0.2633137
vn -0.1799975 -0.9535459 0.2415599
vn -0.01542774 -0.6964626 0.7174273
vn 0.0103097 -0.720008 0.6938893
vn 0.1557946 -0.9622375 0.2232193
vn -0.1873567 -0.9774317 -0.09759497
vn -0.1873567 -0.9774317 -0.09759497
vn 0.5002692 -0.8386714 -0.2153159
vn -0.08742837 -0.8931416 -0.4411966
vn -0.2495387 -0.3521814 -0.9020525
vn 0.167321 -0.9820138 -0.08747941
vn 0.1557946 -0.9622375 0.2232193
vn 0.374809 -0.7974394 0.4728727
vn -0.003047294 0.006321914 -0.9999754
vn 0.08457989 -0.8826952 -0.4622721
vn 0 -1 0
vn 0 -1 0
vn 0.2415884 -0.4317801 -0.869023
vn -0.006217987 -0.05482781 -0.9984764
vn 0.001895137 0.006165877 -0.9999793
vn 0.006394832 -0.05987903 -0.9981851
vn 0.3221813 -0.3401769 -0.8834471
vn -0.3220257 -0.3212049 -0.8905768
vn -0.8338773 -0.1410593 -0.5336205
vn -0.01077214 -0.07625435 -0.9970301
vn 0.01104865 -0.07737558 -0.9969408
vn -0.8932238 -0.4496124 0
vn -0.5684726 -0.5268685 0.631861
vn -0.930196 0.05962501 0.3621883
vn -0.930196 0.05962502 -0.3621883
vn -0.4174576 -0.008183802 -0.9086596
vn -0.02165028 -0.04424328 -0.9987862
vn 0.01809672 -0.03698171 -0.9991521
vn -0.06751645 0.02732817 -0.9973438
vn -0.6420323 0.2877038 -0.7106484
vn -0.8705238 0.2790391 -0.4053708
vn -0.4263124 0.1920192 -0.8839605
vn -0.03891885 0.03891899 -0.9984842
vn -0.3503523 0.3503512 -0.8686237
vn 0.417458 -0.008183619 -0.9086594
vn -0.01610684 0.03888519 -0.9991139
vn -0.5054129 0.5054145 -0.6993669
vn -0.3632004 0.2426818 -0.8995504
vn -0.3632004 0.2426818 -0.8995505
vn -0.1896093 0.457757 -0.8686236
vn 0.8338772 -0.1410593 -0.5336208
vn 0.5647284 -0.5424464 0.6219594
vn 0.8932238 -0.4496124 0
vn 0.930196 0.05962501 -0.3621883
vn 0.930196 0.059625 0.3621883
vn 0.8705238 0.2790391 -0.4053708
vn 0.6401325 0.2866704 -0.7127766
vn 0 0.03354063 -0.9994373
vn -0.2735277 0.6603538 -0.699368
vn -0.2426808 0.3632007 -0.8995506
vn -0.2426808 0.3632008 -0.8995506
vn 0 0.4954725 -0.8686236
vn 0.4263124 0.1920192 -0.8839607
vn 0.02140914 0.008665632 -0.9997333
vn 0.01076463 0.02598785 -0.9996043
vn 0 0.7147601 -0.6993697
vn -0.08522113 0.4284207 -0.8995516
vn -0.08522113 0.4284207 -0.8995516
vn 0.01757672 0.01757672 -0.999691
vn 0.1896094 0.4577576 -0.8686232
vn 0.3503529 0.3503519 -0.8686233
vn 0.2735274 0.6603531 -0.6993688
vn 0.08522116 0.4284207 -0.8995516
vn 0.08522114 0.4284207 -0.8995516
vn 0.5037852 0.5040588 -0.7015164
vn 0.2426758 0.3631949 -0.8995543
vn 0.2426757 0.3631949 -0.8995543
vn 0.3401013 0.2272484 -0.9125181
vn 0.3401013 0.2272484 -0.9125181
vn -0.9081841 0.4185709 0
vn -0.9738355 -0.2272543 0
vn -0.9738355 -0.2272543 0
vn -0.9081841 0.4185709 0
vn -0.4185672 0.9081858 0
vn 0.227255 0.9738352 0
vn 0.227255 0.9738352 0
vn -0.4185672 0.9081858 0
vn -0.6788698 0.7342587 0
vn -0.6788698 0.7342587 0
vn -0.9866729 0.1627167 0
vn -0.9866729 0.1627167 0
vn -0.03916857 0.9992326 0
vn 0.5826268 0.8127397 0
vn 0.5826268 0.8127398 0
vn -0.03916857 0.9992326 0
vn -0.3462148 0.9381554 0
vn -0.3462148 0.9381554 0
vn -0.849303 0.5279058 0
vn -0.849303 0.5279058 0
vn 0.3462148 0.9381554 0
vn 0.849303 0.5279058 0
vn 0.849303 0.5279058 0
vn 0.3462148 0.9381554 0
vn 0.03916858 0.9992326 0
vn 0.03916858 0.9992326 0
vn -0.5826268 0.8127397 0
vn -0.5826268 0.8127398 0
vn 0.4185642 0.9081872 0
vn -0.2272551 0.9738352 0
vn -0.2272551 0.9738352 0
vn 0.4185642 0.9081872 0
vn 0.678872 0.7342566 0
vn 0.678872 0.7342566 0
vn 0.9866818 0.1626621 0
vn 0.9866818 0.1626621 0
vn 0.9062812 0.4226751 0
vn 0.9630723 -0.269243 0
vn 0.9630723 -0.269243 0
vn 0.9062812 0.4226751 0
g Pastie_0
f 3/3/3 2/2/2 1/1/1
f 2/2/2 4/4/4 1/1/1
f 4/4/4 5/5/5 1/1/1
f 5/5/5 6/6/6 1/1/1
f 9/9/9 8/8/8 7/7/7
f 8/8/8 10/10/10 7/7/7
f 10/10/10 11/11/11 7/7/7
f 11/11/11 12/12/12 7/7/7
f 15/15/15 14/14/14 13/13/13
f 16/16/16 15/15/15 13/13/13
f 16/16/16 17/17/17 15/15/15
f 17/17/17 18/18/18 15/15/15
f 21/21/21 20/20/20 19/19/19
f 22/22/22 21/21/21 19/19/19
f 22/22/22 23/23/23 21/21/21
f 23/23/23 24/24/24 21/21/21
f 27/27/27 26/26/26 25/25/25
f 26/26/26 28/28/28 25/25/25
f 26/26/26 29/29/29 28/28/28
f 26/26/26 30/30/30 29/29/29
f 29/29/29 31/31/31 28/28/28
f 32/32/32 31/31/31 29/29/29
f 30/30/30 33/33/33 29/29/29
f 28/28/28 31/31/31 34/34/34
f 31/31/31 32/32/32 34/34/34
f 28/28/28 34/34/34 35/35/35
f 36/36/36 28/28/28 35/35/35
f 34/34/34 32/32/32 37/37/37
f 34/34/34 37/37/37 38/38/38
f 39/39/39 34/34/34 38/38/38
f 40/40/40 32/32/32 29/29/29
f 32/32/32 40/40/40 37/37/37
f 37/37/37 40/40/40 41/41/41
f 37/37/37 41/41/41 42/42/42
f 43/43/43 37/37/37 42/42/42
f 44/44/44 40/40/40 29/29/29
f 40/40/40 44/44/44 41/41/41
f 41/41/41 44/44/44 45/45/45
f 41/41/41 45/45/45 46/46/46
f 47/47/47 41/41/41 46/46/46
f 48/48/48 44/44/44 29/29/29
f 44/44/44 48/48/48 45/45/45
f 45/45/45 48/48/48 49/49/49
f 45/45/45 49/49/49 50/50/50
f 51/51/51 45/45/45 50/50/50
f 52/52/52 48/48/48 29/29/29
f 48/48/48 52/52/52 49/49/49
f 53/53/53 52/52/52 29/29/29
f 49/49/49 52/52/52 54/54/54
f 52/52/52 53/53/53 54/54/54
f 49/49/49 54/54/54 55/55/55
f 56/56/56 49/49/49 55/55/55
f 29/29/29 57/57/57 53/53/53
f 29/29/29 33/33/33 57/57/57
f 54/54/54 53/53/53 58/58/58
f 53/53/53 57/57/57 58/58/58
f 54/54/54 58/58/58 59/59/59
f 60/60/60 54/54/54 59/59/59
f 57/57/57 61/61/61 58/58/58
f 33/33/33 61/61/61 57/57/57
f 61/61/61 62/62/62 58/58/58
f 33/33/33 63/63/63 61/61/61
f 61/61/61 64/64/64 62/62/62
f 63/63/63 64/64/64 61/61/61
f 65/65/65 63/63/63 33/33/33
f 30/30/30 65/65/65 33/33/33
f 64/64/64 66/66/66 62/62/62
f 62/62/62 66/66/66 67/67/67
f 68/68/68 65/65/65 30/30/30
f 69/69/69 68/68/68 30/30/30
f 65/65/65 70/70/70 63/63/63
f 63/63/63 71/71/71 64/64/64
f 70/70/70 71/71/71 63/63/63
f 71/71/71 72/72/72 64/64/64
f 64/64/64 72/72/72 66/66/66
f 72/72/72 71/71/71 70/70/70
f 72/72/72 73/73/73 66/66/66
f 73/73/73 72/72/72 70/70/70
f 73/73/73 70/70/70 74/74/74
f 75/75/75 70/70/70 65/65/65
f 68/68/68 75/75/75 65/65/65
f 66/66/66 76/76/76 67/67/67
f 77/77/77 75/75/75 68/68/68
f 78/78/78 68/68/68 69/69/69
f 78/78/78 77/77/77 68/68/68
f 79/79/79 75/75/75 77/77/77
f 79/79/79 80/80/80 75/75/75
f 80/80/80 79/79/79 76/76/76
f 81/81/81 80/80/80 76/76/76
f 82/82/82 77/77/77 78/78/78
f 83/83/83 79/79/79 77/77/77
f 83/83/83 77/77/77 84/84/84
f 84/84/84 85/85/85 83/83/83
f 76/76/76 79/79/79 86/86/86
f 79/79/79 83/83/83 86/86/86
f 87/87/87 82/82/82 78/78/78
f 88/88/88 82/82/82 87/87/87
f 83/83/83 88/88/88 89/89/89
f 86/86/86 83/83/83 89/89/89
f 89/89/89 88/88/88 87/87/87
f 76/76/76 86/86/86 90/90/90
f 67/67/67 76/76/76 90/90/90
f 87/87/87 78/78/78 91/91/91
f 91/91/91 78/78/78 69/69/69
f 91/91/91 69/69/69 92/92/92
f 89/89/89 87/87/87 93/93/93
f 93/93/93 87/87/87 91/91/91
f 86/86/86 89/89/89 94/94/94
f 90/90/90 86/86/86 94/94/94
f 94/94/94 89/89/89 93/93/93
f 92/92/92 69/69/69 95/95/95
f 69/69/69 96/96/96 95/95/95
f 92/92/92 95/95/95 97/97/97
f 98/98/98 92/92/92 97/97/97
f 93/93/93 91/91/91 99/99/99
f 99/99/99 91/91/91 92/92/92
f 94/94/94 93/93/93 100/100/100
f 100/100/100 93/93/93 99/99/99
f 101/101/101 94/94/94 100/100/100
f 90/90/90 94/94/94 101/101/101
f 100/100/100 99/99/99 102/102/102
f 103/103/103 92/92/92 98/98/98
f 104/104/104 103/103/103 98/98/98
f 99/99/99 92/92/92 105/105/105
f 99/99/99 105/105/105 102/102/102
f 92/92/92 103/103/103 105/105/105
f 102/102/102 105/105/105 106/106/106
f 100/100/100 102/102/102 106/106/106
f 105/105/105 103/103/103 107/107/107
f 105/105/105 107/107/107 106/106/106
f 108/108/108 90/90/90 101/101/101
f 67/67/67 90/90/90 108/108/108
f 100/100/100 106/106/106 109/109/109
f 106/106/106 107/107/107 109/109/109
f 103/103/103 110/110/110 107/107/107
f 110/110/110 103/103/103 111/111/111
f 112/112/112 110/110/110 111/111/111
f 107/107/107 113/113/113 109/109/109
f 107/107/107 110/110/110 113/113/113
f 114/114/114 67/67/67 108/108/108
f 115/115/115 67/67/67 114/114/114
f 116/116/116 115/115/115 114/114/114
f 116/116/116 114/114/114 117/117/117
f 118/118/118 116/116/116 117/117/117
f 117/117/117 114/114/114 119/119/119
f 114/114/114 120/120/120 119/119/119
f 120/120/120 114/114/114 108/108/108
f 109/109/109 113/113/113 121/121/121
f 100/100/100 109/109/109 121/121/121
f 110/110/110 122/122/122 113/113/113
f 122/122/122 110/110/110 123/123/123
f 124/124/124 122/122/122 123/123/123
f 113/113/113 125/125/125 121/121/121
f 113/113/113 122/122/122 125/125/125
f 126/126/126 120/120/120 108/108/108
f 126/126/126 108/108/108 101/101/101
f 127/127/127 101/101/101 100/100/100
f 127/127/127 126/126/126 101/101/101
f 100/100/100 121/121/121 128/128/128
f 121/121/121 125/125/125 128/128/128
f 122/122/122 129/129/129 125/125/125
f 129/129/129 122/122/122 130/130/130
f 131/131/131 129/129/129 130/130/130
f 100/100/100 132/132/132 127/127/127
f 100/100/100 128/128/128 132/132/132
f 125/125/125 133/133/133 128/128/128
f 125/125/125 129/129/129 133/133/133
f 128/128/128 133/133/133 132/132/132
f 132/132/132 134/134/134 127/127/127
f 134/134/134 126/126/126 127/127/127
f 133/133/133 134/134/134 132/132/132
f 129/129/129 135/135/135 133/133/133
f 133/133/133 135/135/135 134/134/134
f 135/135/135 129/129/129 136/136/136
f 137/137/137 135/135/135 136/136/136
f 134/134/134 138/138/138 126/126/126
f 135/135/135 138/138/138 134/134/134
f 138/138/138 135/135/135 139/139/139
f 140/140/140 138/138/138 139/139/139
f 138/138/138 120/120/120 126/126/126
f 120/120/120 138/138/138 141/141/141
f 142/142/142 120/120/120 141/141/141
f 145/145/145 144/144/144 143/143/143
f 146/146/146 145/145/145 143/143/143
f 149/149/149 148/148/148 147/147/147
f 150/150/150 149/149/149 147/147/147
f 151/151/151 150/150/150 147/147/147
f 152/152/152 151/151/151 147/147/147
f 152/152/152 153/153/153 151/151/151
f 153/153/153 154/154/154 151/151/151
f 157/157/157 156/156/156 155/155/155
f 158/158/158 157/157/157 155/155/155
f 159/159/159 158/158/158 155/155/155
f 160/160/160 159/159/159 155/155/155
f 160/160/160 161/161/161 159/159/159
f 161/161/161 162/162/162 159/159/159
f 165/165/165 164/164/164 163/163/163
f 166/166/166 165/165/165 163/163/163
f 167/167/167 166/166/166 163/163/163
f 168/168/168 167/167/167 163/163/163
f 168/168/168 169/169/169 167/167/167
f 169/169/169 170/170/170 167/167/167
f 173/173/173 172/172/172 171/171/171
f 174/174/174 173/173/173 171/171/171
f 174/174/174 171/171/171 175/175/175
f 171/171/171 176/176/176 175/175/175
f 176/176/176 177/177/177 175/175/175
f 177/177/177 178/178/178 175/175/175
f 181/181/181 180/180/180 179/179/179
f 182/182/182 181/181/181 179/179/179
