g PhotoFrame
v 1.315541 0.054713 1.054304
v 1.315541 -0.072924 1.054304
v -1.315541 -0.072924 1.054304
v -1.315541 0.054713 1.054304
v -1.315541 0.054713 -1.054304
v -1.315541 -0.072924 -1.054304
v 1.315541 -0.072924 -1.054304
v 1.315541 0.054713 -1.054304
v -1.176002 -0.072924 0.914766
v -1.176002 -0.029908 0.914766
v -1.176002 -0.029908 -0.914766
v -1.176002 -0.072924 -0.914766
v 1.315541 0.054713 -1.054304
v 1.315541 -0.072924 -1.054304
v 1.315541 -0.072924 1.054304
v 1.315541 0.054713 1.054304
v -1.315541 0.054713 -1.054304
v 1.315541 0.054713 -1.054304
v 1.315541 0.054713 1.054304
v -1.315541 0.054713 1.054304
v -1.315541 -0.072924 -1.054304
v -1.315541 0.054713 -1.054304
v -1.315541 0.054713 1.054304
v -1.315541 -0.072924 1.054304
v -1.176002 -0.072924 -0.914766
v -1.176002 -0.029908 -0.914766
v 1.176002 -0.029908 -0.914766
v 1.176002 -0.072924 -0.914766
v 1.176002 -0.072924 -0.914766
v 1.176002 -0.029908 -0.914766
v 1.176002 -0.029908 0.914766
v 1.176002 -0.072924 0.914766
v 1.176002 -0.072924 0.914766
v 1.176002 -0.029908 0.914766
v -1.176002 -0.029908 0.914766
v -1.176002 -0.072924 0.914766
v -1.176002 -0.072924 0.914766
v 1.315541 -0.072924 1.054304
v 1.176002 -0.072924 0.914766
v -1.315541 -0.072924 1.054304
v 1.315541 -0.072924 -1.054304
v -1.176002 -0.072924 -0.914766
v 1.176002 -0.072924 -0.914766
v -1.315541 -0.072924 -1.054304
v 1.176002 -0.029908 -0.914766
v -1.176002 -0.029908 -0.914766
v -1.176002 -0.029908 0.914766
v 1.176002 -0.029908 0.914766
vt 0 0
vt 0 0
vt 0 0
vt 0 0
vt 0 0
vt 0 0
vt 0 0
vt 0 0
vt 0 0
vt 0 0
vt 0 0
vt 0 0
vt 0 0
vt 0 0
vt 0 0
vt 0 0
vt 0 0
vt 0 0
vt 0 0
vt 0 0
vt 0 0
vt 0 0
vt 0 0
vt 0 0
vt 0 0
vt 0 0
vt 0 0
vt 0 0
vt 0 0
vt 0 0
vt 0 0
vt 0 0
vt 0 0
vt 0 0
vt 0 0
vt 0 0
vt 0 0
vt 0 0
vt 0 0
vt 0 0
vt 0 0
vt 0 0
vt 0 0
vt 0 0
vt 0.999912 0.103792
vt 8.8E-05 0.103792
vt 8.8E-05 0.881515
vt 0.999912 0.881515
vn 0 0 1
vn 0 0 1
vn 0 0 1
vn 0 0 1
vn 0 0 -1
vn 0 0 -1
vn 0 0 -1
vn 0 0 -1
vn 1 0 0
vn 1 0 0
vn 1 0 0
vn 1 0 0
vn 1 0 0
vn 1 0 0
vn 1 0 0
vn 1 0 0
vn 0 1 0
vn 0 1 0
vn 0 1 0
vn 0 1 0
vn -1 0 0
vn -1 0 0
vn -1 0 0
vn -1 0 0
vn 0 0 1
vn 0 0 1
vn 0 0 1
vn 0 0 1
vn -1 0 0
vn -1 0 0
vn -1 0 0
vn -1 0 0
vn 0 0 -1
vn 0 0 -1
vn 0 0 -1
vn 0 0 -1
vn 0 -1 0
vn 0 -1 0
vn 0 -1 0
vn 0 -1 0
vn 0 -1 0
vn 0 -1 0
vn 0 -1 0
vn 0 -1 0
vn 0 -1 0
vn 0 -1 0
vn 0 -1 0
vn 0 -1 0
g PhotoFrame_0
f 3/3/3 2/2/2 1/1/1
f 4/4/4 3/3/3 1/1/1
f 7/7/7 6/6/6 5/5/5
f 8/8/8 7/7/7 5/5/5
f 11/11/11 10/10/10 9/9/9
f 12/12/12 11/11/11 9/9/9
f 15/15/15 14/14/14 13/13/13
f 16/16/16 15/15/15 13/13/13
f 19/19/19 18/18/18 17/17/17
f 20/20/20 19/19/19 17/17/17
f 23/23/23 22/22/22 21/21/21
f 24/24/24 23/23/23 21/21/21
f 27/27/27 26/26/26 25/25/25
f 28/28/28 27/27/27 25/25/25
f 31/31/31 30/30/30 29/29/29
f 32/32/32 31/31/31 29/29/29
f 35/35/35 34/34/34 33/33/33
f 36/36/36 35/35/35 33/33/33
f 39/39/39 38/38/38 37/37/37
f 38/38/38 40/40/40 37/37/37
f 41/41/41 38/38/38 39/39/39
f 37/37/37 40/40/40 42/42/42
f 43/43/43 41/41/41 39/39/39
f 40/40/40 44/44/44 42/42/42
f 44/44/44 41/41/41 43/43/43
f 42/42/42 44/44/44 43/43/43
g PhotoFrame_1
f 47/47/47 46/46/46 45/45/45
f 48/48/48 47/47/47 45/45/45
