g PineTree_Impostor
v 4.249511 1.757225 0
v 4.247326 -2.680871 0
v 0.70139 -5.393992 0
v -0.8311771 -5.393992 0
v -4.216025 -2.553777 0
v -4.216936 1.702657 0
v -0.348005 5.246212 0
v 0.5274236 5.246212 0
vt 0.1040898 0.672094
vt 0.1042951 0.2549877
vt 0.4375534 0
vt 0.5815889 0
vt 0.8997076 0.2669324
vt 0.8997931 0.6669655
vt 0.5361788 1
vt 0.4539033 1
vn 0 0 -1
vn 0 0 -1
vn 0 0 -1
vn 0 0 -0.9999999
vn 0 0 -0.9999999
vn 0 0 -1
vn 0 0 -1
vn 0 0 -1
g PineTree_Impostor_0
f 4/4/4 6/6/6 8/8/8
f 8/8/8 2/2/2 4/4/4
f 6/6/6 7/7/7 8/8/8
f 4/4/4 5/5/5 6/6/6
f 2/2/2 3/3/3 4/4/4
f 8/8/8 1/1/1 2/2/2
