g PlatysheepDenFloor
v 1.370703 0.893433 0.358394
v 0.948782 -0.844017 0.358394
v -0.948782 -0.844017 0.358394
v -1.370703 0.893433 0.358394
v 1.370703 3.171665 -0.510226
v -1.370703 3.171665 -0.510226
vt 0.999905 0.734042
vt 0.999905 9.5E-05
vt 9.5E-05 9.5E-05
vt 9.5E-05 0.734042
vt 0.999905 0.734042
vt 9.5E-05 0.734042
vn 0 0.1811227 0.9834605
vn 0 0 1
vn 0 0 1
vn 0 0.1811227 0.9834605
vn 0 0.356254 0.9343892
vn 0 0.356254 0.9343892
g PlatysheepDenFloor_0
f 3/3/3 2/2/2 1/1/1
f 4/4/4 3/3/3 1/1/1
f 1/1/1 5/5/5 4/4/4
f 5/5/5 6/6/6 4/4/4
