g PostOfficeBase
v -3.2 -1.8 4
v -3.2 5 4
v 3.2 5 4
v 3.2 -1.8 4
v -3.2 -5 4
v 3.2 -5 4
v 8.2 -1.8 4
v 8.2 5 4
v 2.959588 -1.8 0
v 7.959588 -1.8 0
v 7.959588 5 0
v 2.959588 5 0
v -2.959588 -1.8 0
v -3.2 -5 4
v -2.959588 -5 0
v -3.2 -1.8 4
v -2.959588 5 0
v -3.2 5 4
v 2.959588 5 0
v -3.2 5 4
v -2.959588 5 0
v 3.2 5 4
v 8.2 5 4
v 7.959588 5 0
v -2.959588 -5 0
v -3.2 -5 4
v 3.2 -5 4
v 2.959588 -5 0
v 2.959588 -5 0
v 3.2 -5 4
v 3.2 -1.8 4
v 2.959588 -1.8 0
v 7.959588 -1.8 0
v 8.2 -1.8 4
v 8.2 5 4
v 7.959588 5 0
v 3.2 -1.8 4
v 8.2 -1.8 4
v 7.959588 -1.8 0
v 2.959588 -1.8 0
vt -0.24985 0.500007
vt -0.24985 1.249857
vt 1.24985 1.249857
vt 1.24985 0.500007
vt -0.24985 -0.249843
vt 1.24985 -0.249843
vt 1.24985 0.500007
vt 1.24985 1.249857
vt 0 0
vt 0 0
vt 0 0
vt 0 0
vt 0.140045 0.60107
vt -0.499873 -0.200272
vt -0.499873 0.60107
vt 0.140046 -0.200272
vt 1.499873 0.60107
vt 1.499873 -0.200272
vt 0.41938 -0.175359
vt 1.499882 0.526313
vt 1.457709 -0.175359
vt 0.377207 0.526313
vt -0.499882 0.526313
vt -0.457709 -0.175358
vt -0.694274 -0.212089
vt -0.749867 0.471983
vt 0.346036 0.495066
vt 0.319295 -0.190741
vt 0.319295 -0.190741
vt 0.346036 0.495066
vt 0.893693 0.473712
vt 0.866952 -0.212095
vt 7.7E-05 7.7E-05
vt 7.7E-05 0.589283
vt 0.999923 0.589283
vt 0.999923 7.7E-05
vt 0.893693 0.473712
vt 1.749867 0.491744
vt 1.723126 -0.194062
vt 0.866952 -0.212095
vn 0 0 1
vn 0 0 1
vn 0 0 1
vn 0 0 1
vn 0 0 1
vn 0 0 1
vn 0 0 1
vn 0 0 1
vn 0 0 -1
vn 0 0 -1
vn 0 0 -1
vn 0 0 -1
vn -0.9981987 0 -0.05999474
vn -0.9981987 0 -0.05999473
vn -0.9981987 0 -0.05999473
vn -0.9981987 0 -0.05999474
vn -0.9981987 0 -0.05999473
vn -0.9981987 0 -0.05999473
vn 0 1 0
vn 0 1 0
vn 0 1 0
vn 0 1 0
vn 0 1 0
vn 0 1 0
vn 0 -1 0
vn 0 -1 0
vn 0 -1 0
vn 0 -1 0
vn 0.9981987 0 -0.05999473
vn 0.9981987 0 -0.05999473
vn 0.9981987 0 -0.05999473
vn 0.9981987 0 -0.05999473
vn 0.9981987 0 -0.05999468
vn 0.9981987 0 -0.05999468
vn 0.9981987 0 -0.05999468
vn 0.9981987 0 -0.05999468
vn 0 -1 0
vn 0 -1 0
vn 0 -1 0
vn 0 -1 0
g PostOfficeBase_0
f 3/3/3 2/2/2 1/1/1
f 4/4/4 3/3/3 1/1/1
f 4/4/4 1/1/1 5/5/5
f 6/6/6 4/4/4 5/5/5
f 4/4/4 7/7/7 3/3/3
f 7/7/7 8/8/8 3/3/3
f 11/11/11 10/10/10 9/9/9
f 12/12/12 11/11/11 9/9/9
f 15/15/15 14/14/14 13/13/13
f 14/14/14 16/16/16 13/13/13
f 13/13/13 16/16/16 17/17/17
f 16/16/16 18/18/18 17/17/17
f 21/21/21 20/20/20 19/19/19
f 20/20/20 22/22/22 19/19/19
f 22/22/22 23/23/23 19/19/19
f 23/23/23 24/24/24 19/19/19
f 27/27/27 26/26/26 25/25/25
f 28/28/28 27/27/27 25/25/25
f 31/31/31 30/30/30 29/29/29
f 32/32/32 31/31/31 29/29/29
f 35/35/35 34/34/34 33/33/33
f 36/36/36 35/35/35 33/33/33
f 39/39/39 38/38/38 37/37/37
f 40/40/40 39/39/39 37/37/37
