g PostOfficeBase
v -2 2 0
v 4 4 0
v -2 4 0
v 4 2 0
v -2 -4 0
v 4 -4 0
v -6 -4 0
v -6 2 0
v -2 2 4
v -2 4 4
v 4 4 4
v 4 2 4
v -2 -4 4
v 4 -4 4
v -6 -4 4
v -6 2 4
v 4 2 0
v 4 4 4
v 4 4 0
v 4 2 4
v 4 -4 0
v 4 -4 4
v -6 2 0
v -6 2 4
v -6 -4 4
v -6 -4 0
v -2 -4 0
v 4 -4 4
v 4 -4 0
v -2 -4 4
v -6 -4 0
v -6 -4 4
v 4 4 0
v 4 4 4
v -2 4 4
v -2 4 0
v -2 4 0
v -2 4 4
v -2 2 4
v -2 2 0
v -2 2 4
v -6 2 4
v -6 2 0
v -2 2 0
vt 0.5 0.5
vt 1 1
vt 1 0.5
vt 0.5 1
vt 0 0.5
vt 0 1
vt 0 0
vt 0.5 0
vt 0.5 0.5
vt 0.5 1
vt 1 1
vt 1 0.5
vt 0.5 0
vt 1 0
vt 0 0
vt 0 0.5
vt 0.749965 7.1E-05
vt 0.999929 0.5
vt 0.999929 7.1E-05
vt 0.749965 0.5
vt 7.1E-05 7.1E-05
vt 7.1E-05 0.5
vt 0.749807 0.499903
vt 0.749807 9.7E-05
vt 9.7E-05 9.7E-05
vt 9.7E-05 0.499904
vt 0.400013 6.3E-05
vt 0.999937 0.400013
vt 0.999937 6.3E-05
vt 0.400013 0.400013
vt 6.3E-05 6.3E-05
vt 6.3E-05 0.400013
vt 0.749778 0.499889
vt 0.749778 0.000111
vt 0.000111 0.000111
vt 0.000111 0.499889
vt 9.7E-05 0.500097
vt 9.7E-05 0.999904
vt 0.25 0.999903
vt 0.25 0.500097
vt 0.499889 0.500111
vt 0.000111 0.500111
vt 0.000111 0.999889
vt 0.499889 0.999889
vn 0 0 -1
vn 0 0 -1
vn 0 0 -1
vn 0 0 -1
vn 0 0 -1
vn 0 0 -1
vn 0 0 -1
vn 0 0 -1
vn 0 0 1
vn 0 0 1
vn 0 0 1
vn 0 0 1
vn 0 0 1
vn 0 0 1
vn 0 0 1
vn 0 0 1
vn 1 0 0
vn 1 0 0
vn 1 0 0
vn 1 0 0
vn 1 0 0
vn 1 0 0
vn -1 0 0
vn -1 0 0
vn -1 0 0
vn -1 0 0
vn 0 -1 0
vn 0 -1 0
vn 0 -1 0
vn 0 -1 0
vn 0 -1 0
vn 0 -1 0
vn 0 1 0
vn 0 1 0
vn 0 1 0
vn 0 1 0
vn -1 0 0
vn -1 0 0
vn -1 0 0
vn -1 0 0
vn 0 1 0
vn 0 1 0
vn 0 1 0
vn 0 1 0
g PostOfficeBase_0
f 3/3/3 2/2/2 1/1/1
f 2/2/2 4/4/4 1/1/1
f 1/1/1 4/4/4 5/5/5
f 4/4/4 6/6/6 5/5/5
f 1/1/1 5/5/5 7/7/7
f 8/8/8 1/1/1 7/7/7
f 11/11/11 10/10/10 9/9/9
f 12/12/12 11/11/11 9/9/9
f 12/12/12 9/9/9 13/13/13
f 14/14/14 12/12/12 13/13/13
f 13/13/13 9/9/9 15/15/15
f 9/9/9 16/16/16 15/15/15
f 19/19/19 18/18/18 17/17/17
f 18/18/18 20/20/20 17/17/17
f 17/17/17 20/20/20 21/21/21
f 20/20/20 22/22/22 21/21/21
f 25/25/25 24/24/24 23/23/23
f 26/26/26 25/25/25 23/23/23
f 29/29/29 28/28/28 27/27/27
f 28/28/28 30/30/30 27/27/27
f 27/27/27 30/30/30 31/31/31
f 30/30/30 32/32/32 31/31/31
f 35/35/35 34/34/34 33/33/33
f 36/36/36 35/35/35 33/33/33
f 39/39/39 38/38/38 37/37/37
f 40/40/40 39/39/39 37/37/37
f 43/43/43 42/42/42 41/41/41
f 44/44/44 43/43/43 41/41/41
