g PotatoLeaf_Part
v 0.226886 0.169861 -0.003506
v 0.125632 -0.050627 -0.049194
v -0.200677 0.100572 -0.055704
v -0.112363 0.296928 0.078112
v -0.526986 0.251771 -0.062213
v 0.327024 0.388714 0.060144
v -0.429689 0.464878 0.010429
v -0.009986 0.520668 0.143098
v 0.425185 0.602749 0.111011
v -0.326441 0.68953 0.052901
v 0.092132 0.742084 0.167011
v 0.539035 0.846044 0.055025
v -0.224323 0.910946 0.076814
v 0.208155 0.989431 0.096228
v -0.113582 1.148442 0.042005
v 0.226886 0.169861 -0.003506
v -0.200677 0.100572 -0.055704
v 0.125632 -0.050627 -0.049194
v -0.112363 0.296928 0.078112
v -0.526986 0.251771 -0.062213
v 0.327024 0.388714 0.060144
v -0.429689 0.464878 0.010429
v -0.009986 0.520668 0.143098
v 0.425185 0.602749 0.111011
v -0.326441 0.68953 0.052901
v 0.092132 0.742084 0.167011
v 0.539035 0.846044 0.055025
v -0.224323 0.910946 0.076814
v 0.208155 0.989431 0.096228
v -0.113582 1.148442 0.042005
vt 0.472428 0.540023
vt 0.472428 0.503015
vt 0.418155 0.503015
vt 0.418155 0.540023
vt 0.363881 0.503015
vt 0.472428 0.577031
vt 0.363881 0.540023
vt 0.418155 0.577031
vt 0.472428 0.614039
vt 0.363881 0.577031
vt 0.418155 0.614039
vt 0.472428 0.651047
vt 0.363881 0.614039
vt 0.418155 0.651047
vt 0.363881 0.651047
vt 0.472428 0.540023
vt 0.418155 0.503015
vt 0.472428 0.503015
vt 0.418155 0.540023
vt 0.363881 0.503015
vt 0.472428 0.577031
vt 0.363881 0.540023
vt 0.418155 0.577031
vt 0.472428 0.614039
vt 0.363881 0.577031
vt 0.418155 0.614039
vt 0.472428 0.651047
vt 0.363881 0.614039
vt 0.418155 0.651047
vt 0.363881 0.651047
vn 0.02966258 -0.3485965 0.9368034
vn -0.05225861 -0.3748305 0.9256194
vn -0.1619451 -0.3563024 0.9202295
vn -0.1274642 -0.2847094 0.9501017
vn -0.269457 -0.3333941 0.9034608
vn 0.1092561 -0.2715957 0.9561898
vn -0.281247 -0.2132204 0.935648
vn -0.08669606 -0.1600946 0.9832871
vn 0.1666406 -0.01736614 0.9858648
vn -0.2771739 -0.03884685 0.9600341
vn -0.00755592 0.05539064 0.9984362
vn 0.2065959 0.1529005 0.9664055
vn -0.1714737 0.1461072 0.9742944
vn 0.06071655 0.2043051 0.9770225
vn -0.08890104 0.2514756 0.9637721
vn -0.02966258 0.3485965 -0.9368034
vn 0.1619451 0.3563024 -0.9202295
vn 0.05225861 0.3748305 -0.9256193
vn 0.1274642 0.2847095 -0.9501017
vn 0.269457 0.3333941 -0.9034608
vn -0.1092561 0.2715957 -0.9561898
vn 0.281247 0.2132204 -0.935648
vn 0.08669605 0.1600946 -0.9832871
vn -0.1666406 0.01736615 -0.9858648
vn 0.2771739 0.03884685 -0.9600341
vn 0.00755592 -0.05539064 -0.9984362
vn -0.206596 -0.1529005 -0.9664055
vn 0.1714737 -0.1461072 -0.9742944
vn -0.06071655 -0.2043051 -0.9770225
vn 0.08890104 -0.2514756 -0.9637721
g PotatoLeaf_Part_0
f 3/3/3 2/2/2 1/1/1
f 4/4/4 3/3/3 1/1/1
f 5/5/5 3/3/3 4/4/4
f 4/4/4 1/1/1 6/6/6
f 7/7/7 5/5/5 4/4/4
f 8/8/8 4/4/4 6/6/6
f 7/7/7 4/4/4 8/8/8
f 8/8/8 6/6/6 9/9/9
f 10/10/10 7/7/7 8/8/8
f 11/11/11 8/8/8 9/9/9
f 10/10/10 8/8/8 11/11/11
f 11/11/11 9/9/9 12/12/12
f 13/13/13 10/10/10 11/11/11
f 14/14/14 11/11/11 12/12/12
f 13/13/13 11/11/11 14/14/14
f 15/15/15 13/13/13 14/14/14
f 18/18/18 17/17/17 16/16/16
f 17/17/17 19/19/19 16/16/16
f 17/17/17 20/20/20 19/19/19
f 16/16/16 19/19/19 21/21/21
f 20/20/20 22/22/22 19/19/19
f 19/19/19 23/23/23 21/21/21
f 19/19/19 22/22/22 23/23/23
f 21/21/21 23/23/23 24/24/24
f 22/22/22 25/25/25 23/23/23
f 23/23/23 26/26/26 24/24/24
f 23/23/23 25/25/25 26/26/26
f 24/24/24 26/26/26 27/27/27
f 25/25/25 28/28/28 26/26/26
f 26/26/26 29/29/29 27/27/27
f 26/26/26 28/28/28 29/29/29
f 28/28/28 30/30/30 29/29/29
