g PresentCrateBox
v 0.74412 -0.768144 -0.039175
v 0.768144 -0.74412 -0.039175
v 0.751156 -0.751156 -0.039175
v 0.768144 0.74412 -0.039175
v 0.74412 0.768144 -0.039175
v 0.751156 0.751156 -0.039175
v -0.74412 0.768144 -0.039175
v -0.768144 0.74412 -0.039175
v -0.751156 0.751156 -0.039175
v -0.768144 -0.74412 -0.039175
v -0.74412 -0.768144 -0.039175
v -0.751156 -0.751156 -0.039175
v -0.66064 -0.66064 1.22261
v -0.66064 -0.66064 -0.039175
v 0.66064 -0.66064 -0.039175
v 0.66064 -0.66064 1.22261
v 0.66064 0.66064 1.22261
v 0.66064 0.66064 -0.039175
v -0.66064 0.66064 -0.039175
v -0.66064 0.66064 1.22261
v 0.66064 -0.66064 1.22261
v 0.66064 -0.66064 -0.039175
v 0.66064 0.66064 -0.039175
v 0.66064 0.66064 1.22261
v -0.66064 0.66064 1.22261
v -0.66064 0.66064 -0.039175
v -0.66064 -0.66064 -0.039175
v -0.66064 -0.66064 1.22261
v -0.66064 0.66064 1.22261
v -0.751156 0.751156 1.22261
v -0.74412 0.768144 1.22261
v 0.66064 0.66064 1.22261
v 0.74412 0.768144 1.22261
v 0.751156 0.751156 1.22261
v 0.768144 0.74412 1.22261
v -0.768144 0.74412 1.22261
v -0.768144 -0.74412 1.22261
v -0.768144 -0.74412 -0.039175
v -0.768144 0.74412 -0.039175
v 0.74412 0.768144 -0.039175
v 0.751156 0.751156 -0.039175
v 0.66064 0.66064 -0.039175
v -0.74412 0.768144 -0.039175
v -0.66064 0.66064 -0.039175
v -0.751156 0.751156 -0.039175
v -0.751156 0.751156 1.22261
v -0.66064 0.66064 1.22261
v -0.66064 -0.66064 1.22261
v -0.751156 -0.751156 1.22261
v -0.768144 0.74412 1.22261
v -0.768144 -0.74412 1.22261
v -0.74412 0.768144 1.22261
v 0.751156 0.751156 1.22261
v 0.768144 0.74412 1.22261
v 0.768144 -0.74412 1.22261
v 0.751156 -0.751156 1.22261
v 0.74412 -0.768144 1.22261
v 0.66064 0.66064 1.22261
v 0.66064 -0.66064 1.22261
v 0.74412 0.768144 1.22261
v -0.74412 0.768144 1.22261
v -0.74412 0.768144 -0.039175
v 0.74412 0.768144 -0.039175
v 0.768144 -0.74412 1.22261
v 0.768144 0.74412 1.22261
v 0.768144 0.74412 -0.039175
v 0.768144 -0.74412 -0.039175
v 0.66064 -0.66064 1.22261
v 0.751156 -0.751156 1.22261
v 0.74412 -0.768144 1.22261
v -0.74412 -0.768144 1.22261
v -0.66064 -0.66064 1.22261
v -0.751156 -0.751156 1.22261
v -0.768144 -0.74412 1.22261
v -0.74412 -0.768144 1.22261
v 0.74412 -0.768144 1.22261
v 0.74412 -0.768144 -0.039175
v -0.74412 -0.768144 -0.039175
v -0.751156 0.751156 -0.039175
v -0.66064 0.66064 -0.039175
v -0.66064 -0.66064 -0.039175
v -0.751156 -0.751156 -0.039175
v -0.768144 0.74412 -0.039175
v -0.768144 -0.74412 -0.039175
v 0.751156 0.751156 -0.039175
v 0.768144 0.74412 -0.039175
v 0.768144 -0.74412 -0.039175
v 0.751156 -0.751156 -0.039175
v 0.66064 0.66064 -0.039175
v 0.66064 -0.66064 -0.039175
v -0.66064 -0.66064 -0.039175
v -0.66064 0.66064 -0.039175
v 0.66064 0.66064 -0.039175
v 0.66064 -0.66064 -0.039175
v -0.768144 0.74412 1.22261
v -0.768144 0.74412 -0.039175
v -0.74412 0.768144 -0.039175
v -0.74412 0.768144 1.22261
v 0.768144 0.74412 -0.039175
v 0.768144 0.74412 1.22261
v 0.74412 0.768144 1.22261
v 0.74412 0.768144 -0.039175
v 0.768144 -0.74412 1.22261
v 0.768144 -0.74412 -0.039175
v 0.74412 -0.768144 -0.039175
v 0.74412 -0.768144 1.22261
v -0.768144 -0.74412 -0.039175
v -0.768144 -0.74412 1.22261
v -0.74412 -0.768144 1.22261
v -0.74412 -0.768144 -0.039175
v 0.66064 -0.66064 -0.039175
v 0.751156 -0.751156 -0.039175
v 0.74412 -0.768144 -0.039175
v -0.74412 -0.768144 -0.039175
v -0.66064 -0.66064 -0.039175
v -0.751156 -0.751156 -0.039175
vt 0.444832 0.194026
vt 0.447857 0.194026
vt 0.447857 0.194026
vt 0.444832 0.194026
vt 0.447857 0.194026
vt 0.447857 0.194026
vt 0.257425 0.009279
vt 0.2544 0.009279
vt 0.2544 0.009279
vt 0.257425 0.009279
vt 0.2544 0.009279
vt 0.2544 0.009279
vt 0.2544 0.009279
vt 0.2544 0.194026
vt 0.447857 0.194026
vt 0.447857 0.009279
vt 0.447857 0.194026
vt 0.447857 0.009279
vt 0.2544 0.009279
vt 0.2544 0.194026
vt 0.2544 0.009279
vt 0.2544 0.194026
vt 0.447857 0.194026
vt 0.447857 0.009279
vt 0.447857 0.194026
vt 0.447857 0.009279
vt 0.2544 0.009279
vt 0.2544 0.194026
vt 0.2544 0.194026
vt 0.2544 0.194026
vt 0.257425 0.194026
vt 0.447857 0.194026
vt 0.444832 0.194026
vt 0.447857 0.194026
vt 0.447857 0.194026
vt 0.450368 0.199482
vt 0.25189 0.199482
vt 0.25189 0.003822
vt 0.450368 0.003822
vt 0.444832 0.009279
vt 0.447857 0.009279
vt 0.447857 0.009279
vt 0.257425 0.009279
vt 0.2544 0.009279
vt 0.2544 0.009279
vt 0.447857 0.194026
vt 0.447857 0.194026
vt 0.2544 0.194026
vt 0.2544 0.194026
vt 0.444832 0.194026
vt 0.257425 0.194026
vt 0.447857 0.194026
vt 0.447857 0.009279
vt 0.444832 0.009279
vt 0.257425 0.009279
vt 0.2544 0.009279
vt 0.2544 0.009279
vt 0.447857 0.009279
vt 0.2544 0.009279
vt 0.450368 0.199482
vt 0.25189 0.199482
vt 0.25189 0.003822
vt 0.450368 0.003822
vt 0.450368 0.199482
vt 0.25189 0.199482
vt 0.25189 0.003822
vt 0.450368 0.003822
vt 0.447857 0.009279
vt 0.447857 0.009279
vt 0.444832 0.009279
vt 0.257425 0.009279
vt 0.2544 0.009279
vt 0.2544 0.009279
vt 0.2544 0.009279
vt 0.450368 0.199482
vt 0.25189 0.199482
vt 0.25189 0.003822
vt 0.450368 0.003822
vt 0.447857 0.009279
vt 0.447857 0.009279
vt 0.2544 0.009279
vt 0.2544 0.009279
vt 0.444832 0.009279
vt 0.257425 0.009279
vt 0.447857 0.194026
vt 0.444832 0.194026
vt 0.257425 0.194026
vt 0.2544 0.194026
vt 0.447857 0.194026
vt 0.2544 0.194026
vt 0.185695 -0.217303
vt 0.185695 -0.217303
vt 0.185695 -0.217303
vt 0.185695 -0.217303
vt 0.444832 0.194026
vt 0.444832 0.009279
vt 0.447857 0.009279
vt 0.447857 0.194026
vt 0.257425 0.009279
vt 0.257425 0.194026
vt 0.2544 0.194026
vt 0.2544 0.009279
vt 0.444832 0.194026
vt 0.444832 0.009279
vt 0.447857 0.009279
vt 0.447857 0.194026
vt 0.257425 0.009279
vt 0.257425 0.194026
vt 0.2544 0.194026
vt 0.2544 0.009279
vt 0.447857 0.194026
vt 0.447857 0.194026
vt 0.444832 0.194026
vt 0.257425 0.194026
vt 0.2544 0.194026
vt 0.2544 0.194026
vn 0 0 -1
vn 0 0 -1
vn 0 0 -1
vn 0 0 -1
vn 0 0 -1
vn 0 0 -1
vn 0 0 -1
vn 0 0 -1
vn 0 0 -1
vn 0 0 -1
vn 0 0 -1
vn 0 0 -1
vn 0 1 0
vn 0 1 0
vn 0 1 0
vn 0 1 0
vn 0 -1 0
vn 0 -1 0
vn 0 -1 0
vn 0 -1 0
vn -1 0 0
vn -1 0 0
vn -1 0 0
vn -1 0 0
vn 1 0 0
vn 1 0 0
vn 1 0 0
vn 1 0 0
vn 0 0 1
vn 0 0 1
vn 0 0 1
vn 0 0 1
vn 0 0 1
vn 0 0 1
vn 0 0 1
vn -0.9998739 0.01588411 0
vn -0.9998739 -0.01588411 0
vn -0.9998739 -0.01588411 0
vn -0.9998739 0.01588411 0
vn 0 0 1
vn 0 0 1
vn 0 0 1
vn 0 0 1
vn 0 0 1
vn 0 0 1
vn 0 0 1
vn 0 0 1
vn 0 0 1
vn 0 0 1
vn 0 0 1
vn 0 0 1
vn 0 0 1
vn 0 0 1
vn 0 0 1
vn 0 0 1
vn 0 0 1
vn 0 0 1
vn 0 0 1
vn 0 0 1
vn 0.01588411 0.9998739 0
vn -0.01588411 0.9998739 0
vn -0.01588411 0.9998739 0
vn 0.01588411 0.9998739 0
vn 0.9998739 -0.01588411 0
vn 0.9998739 0.01588411 0
vn 0.9998739 0.01588411 0
vn 0.9998739 -0.01588411 0
vn 0 0 1
vn 0 0 1
vn 0 0 1
vn 0 0 1
vn 0 0 1
vn 0 0 1
vn 0 0 1
vn -0.01588411 -0.9998739 0
vn 0.01588411 -0.9998739 0
vn 0.01588411 -0.9998739 0
vn -0.01588411 -0.9998739 0
vn 0 0 1
vn 0 0 1
vn 0 0 1
vn 0 0 1
vn 0 0 1
vn 0 0 1
vn 0 0 1
vn 0 0 1
vn 0 0 1
vn 0 0 1
vn 0 0 1
vn 0 0 1
vn 0 0 1
vn 0 0 1
vn 0 0 1
vn 0 0 1
vn -0.9998739 0.01588411 0
vn -0.9998739 0.01588411 0
vn -0.01588411 0.9998739 0
vn -0.01588411 0.9998739 0
vn 0.9998739 0.01588411 0
vn 0.9998739 0.01588411 0
vn 0.01588411 0.9998739 0
vn 0.01588411 0.9998739 0
vn 0.9998739 -0.01588411 0
vn 0.9998739 -0.01588411 0
vn 0.01588411 -0.9998739 0
vn 0.01588411 -0.9998739 0
vn -0.9998739 -0.01588411 0
vn -0.9998739 -0.01588411 0
vn -0.01588411 -0.9998739 0
vn -0.01588411 -0.9998739 0
vn 0 0 1
vn 0 0 1
vn 0 0 1
vn 0 0 1
vn 0 0 1
vn 0 0 1
g PresentCrateBox_0
f 3/3/3 2/2/2 1/1/1
f 6/6/6 5/5/5 4/4/4
f 9/9/9 8/8/8 7/7/7
f 12/12/12 11/11/11 10/10/10
f 15/15/15 14/14/14 13/13/13
f 16/16/16 15/15/15 13/13/13
f 19/19/19 18/18/18 17/17/17
f 20/20/20 19/19/19 17/17/17
f 23/23/23 22/22/22 21/21/21
f 24/24/24 23/23/23 21/21/21
f 27/27/27 26/26/26 25/25/25
f 28/28/28 27/27/27 25/25/25
f 31/31/31 30/30/30 29/29/29
f 31/31/31 29/29/29 32/32/32
f 33/33/33 31/31/31 32/32/32
f 32/32/32 34/34/34 33/33/33
f 34/34/34 35/35/35 33/33/33
f 38/38/38 37/37/37 36/36/36
f 39/39/39 38/38/38 36/36/36
f 42/42/42 41/41/41 40/40/40
f 40/40/40 43/43/43 42/42/42
f 43/43/43 44/44/44 42/42/42
f 43/43/43 45/45/45 44/44/44
f 48/48/48 47/47/47 46/46/46
f 46/46/46 49/49/49 48/48/48
f 46/46/46 50/50/50 49/49/49
f 50/50/50 51/51/51 49/49/49
f 46/46/46 52/52/52 50/50/50
f 55/55/55 54/54/54 53/53/53
f 53/53/53 56/56/56 55/55/55
f 56/56/56 57/57/57 55/55/55
f 53/53/53 58/58/58 56/56/56
f 58/58/58 59/59/59 56/56/56
f 62/62/62 61/61/61 60/60/60
f 63/63/63 62/62/62 60/60/60
f 66/66/66 65/65/65 64/64/64
f 67/67/67 66/66/66 64/64/64
f 70/70/70 69/69/69 68/68/68
f 68/68/68 71/71/71 70/70/70
f 68/68/68 72/72/72 71/71/71
f 72/72/72 73/73/73 71/71/71
f 73/73/73 74/74/74 71/71/71
f 77/77/77 76/76/76 75/75/75
f 78/78/78 77/77/77 75/75/75
f 81/81/81 80/80/80 79/79/79
f 79/79/79 82/82/82 81/81/81
f 79/79/79 83/83/83 82/82/82
f 83/83/83 84/84/84 82/82/82
f 87/87/87 86/86/86 85/85/85
f 85/85/85 88/88/88 87/87/87
f 85/85/85 89/89/89 88/88/88
f 89/89/89 90/90/90 88/88/88
f 93/93/93 92/92/92 91/91/91
f 94/94/94 93/93/93 91/91/91
f 97/97/97 96/96/96 95/95/95
f 98/98/98 97/97/97 95/95/95
f 101/101/101 100/100/100 99/99/99
f 102/102/102 101/101/101 99/99/99
f 105/105/105 104/104/104 103/103/103
f 106/106/106 105/105/105 103/103/103
f 109/109/109 108/108/108 107/107/107
f 110/110/110 109/109/109 107/107/107
f 113/113/113 112/112/112 111/111/111
f 111/111/111 114/114/114 113/113/113
f 111/111/111 115/115/115 114/114/114
f 115/115/115 116/116/116 114/114/114
