g Propeller
v 0.197696 0.278981 0.19208
v 0.196848 0.299916 0.174526
v 0.085192 0.411793 0.434551
v 0.085981 0.390977 0.456272
v -0.021699 0.449212 0.519399
v -0.03442 0.429188 0.542023
v -0.133071 0.459465 0.42621
v -0.132282 0.438649 0.447931
v -0.197577 0.356959 0.175348
v -0.196729 0.336025 0.192902
v 0.00193 0.271186 0.192238
v -0.03442 0.429188 0.542023
v 0.197696 0.278981 0.19208
v 0.085981 0.390977 0.456272
v 0.005754 0.263235 0.170216
v 0.053855 0.28506 0.169836
v 0.045436 0.324497 0.151966
v 0.196848 0.299916 0.174526
v 0.05065 0.244627 0.084625
v 0.002548 0.222802 0.085005
v -0.05712 0.311175 0.171152
v -0.197577 0.356959 0.175348
v -0.065539 0.350613 0.153281
v -0.060325 0.270742 0.08594
v -0.065539 0.350613 0.153281
v -0.068744 0.31018 0.06807
v -0.005871 0.262239 0.067135
v 0.042231 0.284064 0.066754
v 0.05065 0.244627 0.084625
v 0.196848 0.299916 0.174526
v -0.021699 0.449212 0.519399
v 0.085192 0.411793 0.434551
v 0.001082 0.29212 0.174684
v -0.133071 0.459465 0.42621
v -0.197577 0.356959 0.175348
v -0.065539 0.350613 0.153281
v -0.002665 0.302673 0.152346
v -0.068744 0.31018 0.06807
v 0.045436 0.324497 0.151966
v -0.005871 0.262239 0.067135
v 0.042231 0.284064 0.066754
v 0.053855 0.28506 0.169836
v 0.05065 0.244627 0.084625
v 0.042231 0.284064 0.066754
v 0.045436 0.324497 0.151966
v -0.049224 -0.095072 0.093882
v 0.071393 -0.088176 0.008101
v 0.082104 -0.089121 0.093506
v -0.038945 -0.09368 0.008208
v -0.049158 -0.097683 -0.077442
v 0.081973 -0.091726 -0.077308
v 0.084137 0.110563 0.07646
v 0.082104 -0.089121 0.093506
v 0.071393 -0.088176 0.008101
v 0.075399 0.111015 0.003365
v 0.136319 0.282804 0.001616
v 0.136347 0.285354 0.134385
v 0.084838 0.399327 0.083658
v 0.08415 0.107523 -0.069624
v 0.081973 -0.091726 -0.077308
v 0.136326 0.279655 -0.131148
v 0.084817 0.396451 -0.084121
v 0.084808 0.398373 -0.00024
v -0.091112 0.391368 -9.7E-05
v -0.091082 0.392322 0.083801
v 0.136347 0.285354 0.134385
v -0.132674 0.277563 0.13452
v -0.060863 0.106057 0.076452
v 0.084137 0.110563 0.07646
v 0.082104 -0.089121 0.093506
v -0.049224 -0.095072 0.093882
v -0.132674 0.277563 0.13452
v -0.091103 0.389445 -0.083978
v 0.136326 0.279655 -0.131148
v -0.132695 0.271863 -0.131012
v -0.060914 0.10302 -0.069466
v 0.08415 0.107523 -0.069624
v 0.081973 -0.091726 -0.077308
v -0.049158 -0.097683 -0.077442
v -0.132695 0.271863 -0.131012
v -0.132701 0.275013 0.001751
v -0.052181 0.106921 0.003426
v -0.060863 0.106057 0.076452
v -0.060914 0.10302 -0.069466
v -0.049224 -0.095072 0.093882
v -0.049158 -0.097683 -0.077442
v -0.038945 -0.09368 0.008208
v 0.197647 0.272459 -0.188383
v 0.089846 0.393055 -0.440043
v 0.196804 0.293983 -0.171557
v 0.09075 0.371409 -0.461159
v -0.016056 0.427978 -0.524048
v -0.030124 0.40706 -0.546264
v -0.129043 0.442515 -0.429485
v -0.12814 0.420869 -0.450601
v -0.197622 0.350966 -0.174232
v -0.196778 0.329442 -0.191058
v 0.001881 0.264663 -0.188224
v -0.030124 0.40706 -0.546264
v 0.197647 0.272459 -0.188383
v 0.09075 0.371409 -0.461159
v 0.005711 0.257472 -0.165943
v 0.053812 0.279297 -0.166324
v 0.045397 0.319323 -0.149813
v 0.196804 0.293983 -0.171557
v 0.050629 0.241808 -0.079776
v 0.002527 0.219984 -0.079395
v -0.057164 0.305352 -0.168505
v -0.197622 0.350966 -0.174232
v -0.065578 0.345379 -0.151995
v -0.060347 0.267864 -0.081957
v -0.065578 0.345379 -0.151995
v -0.068762 0.307891 -0.065447
v -0.005887 0.26001 -0.062885
v 0.042214 0.281835 -0.063266
v 0.050629 0.241808 -0.079776
v 0.196804 0.293983 -0.171557
v 0.089846 0.393055 -0.440043
v -0.016056 0.427978 -0.524048
v 0.001037 0.286187 -0.171398
v -0.129043 0.442515 -0.429485
v -0.197622 0.350966 -0.174232
v -0.065578 0.345379 -0.151995
v -0.002704 0.297499 -0.149433
v -0.068762 0.307891 -0.065447
v 0.045397 0.319323 -0.149813
v -0.005887 0.26001 -0.062885
v 0.042214 0.281835 -0.063266
v 0.053812 0.279297 -0.166324
v 0.045397 0.319323 -0.149813
v 0.042214 0.281835 -0.063266
v 0.050629 0.241808 -0.079776
vt 0.611769 0.869622
vt 0.611769 0.869622
vt 0.605083 0.869571
vt 0.605083 0.869571
vt 0.605075 0.882847
vt 0.605075 0.882847
vt 0.605068 0.896124
vt 0.605068 0.896124
vt 0.611759 0.889092
vt 0.611759 0.889092
vt 0.611764 0.879357
vt 0.605075 0.882847
vt 0.611769 0.869622
vt 0.605083 0.869571
vt 0.611764 0.879357
vt 0.611769 0.869622
vt 0.611769 0.869622
vt 0.611769 0.869622
vt 0.611769 0.869622
vt 0.611764 0.879357
vt 0.611759 0.889092
vt 0.611759 0.889092
vt 0.611759 0.889092
vt 0.611759 0.889092
vt 0.611759 0.889092
vt 0.611759 0.889092
vt 0.611764 0.879357
vt 0.611769 0.869622
vt 0.611769 0.869622
vt 0.611769 0.869622
vt 0.605075 0.882847
vt 0.605083 0.869571
vt 0.611764 0.879357
vt 0.605068 0.896124
vt 0.611759 0.889092
vt 0.611759 0.889092
vt 0.611764 0.879357
vt 0.611759 0.889092
vt 0.611769 0.869622
vt 0.611764 0.879357
vt 0.611769 0.869622
vt 0.611769 0.869622
vt 0.611769 0.869622
vt 0.611769 0.869622
vt 0.611769 0.869622
vt 0.605068 0.896124
vt 0.605083 0.869571
vt 0.605083 0.869571
vt 0.605068 0.896124
vt 0.605068 0.896124
vt 0.605083 0.869571
vt 0.605083 0.869571
vt 0.605083 0.869571
vt 0.605083 0.869571
vt 0.605083 0.869571
vt 0.611769 0.869622
vt 0.611769 0.869622
vt 0.611769 0.869622
vt 0.605083 0.869571
vt 0.605083 0.869571
vt 0.611769 0.869622
vt 0.611769 0.869622
vt 0.611769 0.869622
vt 0.611759 0.889092
vt 0.611759 0.889092
vt 0.611769 0.869622
vt 0.611759 0.889092
vt 0.605068 0.896124
vt 0.605083 0.869571
vt 0.605083 0.869571
vt 0.605068 0.896124
vt 0.611759 0.889092
vt 0.611759 0.889092
vt 0.611769 0.869622
vt 0.611759 0.889092
vt 0.605068 0.896124
vt 0.605083 0.869571
vt 0.605083 0.869571
vt 0.605068 0.896124
vt 0.611759 0.889092
vt 0.611759 0.889092
vt 0.605068 0.896124
vt 0.605068 0.896124
vt 0.605068 0.896124
vt 0.605068 0.896124
vt 0.605068 0.896124
vt 0.605068 0.896124
vt 0.611769 0.869622
vt 0.605083 0.869571
vt 0.611769 0.869622
vt 0.605083 0.869571
vt 0.605075 0.882847
vt 0.605075 0.882847
vt 0.605068 0.896124
vt 0.605068 0.896124
vt 0.611759 0.889092
vt 0.611759 0.889092
vt 0.611764 0.879357
vt 0.605075 0.882847
vt 0.611769 0.869622
vt 0.605083 0.869571
vt 0.611764 0.879357
vt 0.611769 0.869622
vt 0.611769 0.869622
vt 0.611769 0.869622
vt 0.611769 0.869622
vt 0.611764 0.879357
vt 0.611759 0.889092
vt 0.611759 0.889092
vt 0.611759 0.889092
vt 0.611759 0.889092
vt 0.611759 0.889092
vt 0.611759 0.889092
vt 0.611764 0.879357
vt 0.611769 0.869622
vt 0.611769 0.869622
vt 0.611769 0.869622
vt 0.605083 0.869571
vt 0.605075 0.882847
vt 0.611764 0.879357
vt 0.605068 0.896124
vt 0.611759 0.889092
vt 0.611759 0.889092
vt 0.611764 0.879357
vt 0.611759 0.889092
vt 0.611769 0.869622
vt 0.611764 0.879357
vt 0.611769 0.869622
vt 0.611769 0.869622
vt 0.611769 0.869622
vt 0.611769 0.869622
vt 0.611769 0.869622
vn -0.9190819 -0.2885249 -0.2684064
vn -0.9190819 -0.2885249 -0.2684064
vn -0.8636023 -0.347109 -0.365659
vn -0.8183218 -0.383554 -0.4280607
vn -0.2011144 -0.936371 0.2876842
vn -0.0412802 -0.7293923 -0.6828489
vn -0.2002533 -0.9105589 0.3616368
vn 0.4293571 0.7924847 -0.4331519
vn 0.9715108 -0.1410609 -0.1904431
vn 0.494567 0.8156679 -0.3001489
vn 0.1497423 0.9224762 -0.3558299
vn 0.18251 0.8974063 -0.4016864
vn -0.03233054 0.9551494 -0.2943543
vn -0.0227554 0.9131278 -0.407038
vn 0.1949844 0.9653901 -0.1732136
vn -0.2126142 0.8876307 0.4085424
vn -0.07983223 0.4953164 0.8650367
vn -0.07983223 0.4953164 0.8650367
vn -0.3840238 0.839689 -0.3839898
vn 0.1978809 0.9745474 -0.1053583
vn 0.6364245 0.7358789 0.2311838
vn 0.193877 0.5184515 0.8328384
vn 0.1938769 0.5184515 0.8328384
vn 0.7620764 0.6463751 -0.03793256
vn 0.9809545 0.1585912 -0.1121477
vn 0.9570136 0.2613201 0.1258441
vn 0.1479242 0.4342197 0.8885785
vn -0.1642262 0.3778382 0.9111905
vn -0.1642262 0.3778383 0.9111905
vn 0.02756563 -0.9183906 0.3947137
vn -0.2011144 -0.936371 0.2876842
vn 0.02628324 -0.9112035 0.4111171
vn -0.1517087 -0.932011 0.3291506
vn -0.2002533 -0.9105589 0.3616368
vn -0.329484 -0.8647314 0.3790514
vn -0.4795156 -0.8041639 -0.3512625
vn -0.211624 -0.9631261 -0.1661425
vn -0.5591972 -0.7406463 0.3724803
vn 0.2378573 -0.8828015 -0.4050746
vn -0.1943922 -0.8833627 0.4264764
vn 0.3840194 -0.8396895 0.3839931
vn -0.9809538 -0.1585944 0.1121492
vn -0.9809538 -0.1585944 0.1121492
vn -0.9809538 -0.1585944 0.1121492
vn -0.9809538 -0.1585944 0.1121492
vn -0.04731507 0.9987852 0.01376325
vn -0.04735696 0.9987625 -0.01519543
vn -0.04731506 0.9987852 0.01376325
vn -0.04735696 0.9987625 -0.01519487
vn -0.04735912 0.9979012 -0.04416328
vn -0.04735912 0.9979012 -0.04416328
vn -0.9797155 0.1861365 0.07423534
vn -0.992299 0.02168316 0.1219528
vn -0.9998162 0.01915191 0.0008119312
vn -0.9843723 0.1760607 -0.003723164
vn -0.9999951 0.003122237 -9.038469E-05
vn -0.9995968 0.01030247 0.02646087
vn -0.2929381 -0.7207215 -0.6282895
vn -0.9797226 0.1829214 -0.08175314
vn -0.9924158 0.0163018 -0.1218399
vn -0.9995294 0.0134385 -0.02757609
vn -0.2924287 -0.6962631 0.6555175
vn -0.5044705 -0.8632903 0.01547323
vn 0.5635666 -0.8259414 0.01461511
vn 0.3393212 -0.696947 -0.6317641
vn -0.000425746 0.02104322 -0.9997784
vn -0.0001170646 0.01118755 -0.9999374
vn -0.005497018 0.1707685 -0.9852959
vn -0.0054616 0.16954 -0.9855081
vn 0.001914476 -0.08565304 -0.9963232
vn 0.001914476 -0.08565304 -0.9963232
vn 0.993066 0.1149016 0.0248493
vn 0.3388311 -0.6725011 0.6579785
vn -8.398746E-05 0.04545324 0.9989665
vn 0.0002217109 0.03575334 0.9993606
vn -0.005417351 0.2020137 0.9793677
vn -0.005383247 0.2008386 0.9796095
vn 0.001567127 -0.03908719 0.9992346
vn 0.001567127 -0.03908719 0.9992346
vn 0.9925438 0.1179625 -0.03068549
vn 0.9944285 0.1053855 -0.002404926
vn 0.9671984 0.2539612 -0.005551934
vn 0.9613042 0.2659465 0.07187957
vn 0.9612851 0.2627163 -0.0831335
vn 0.9905303 0.06793016 0.1193112
vn 0.9906113 0.06265932 -0.1215033
vn 0.9978334 0.06578996 -0.0003516104
vn -0.9249407 -0.271365 0.2661686
vn -0.8689378 -0.327667 0.3709194
vn -0.9249407 -0.271365 0.2661686
vn -0.8216941 -0.3631206 0.4392747
vn -0.201767 -0.9480717 -0.2458658
vn -0.02498559 -0.7093763 0.7043869
vn -0.2034639 -0.9239535 -0.3239017
vn 0.4330746 0.8067005 0.4020953
vn 0.96781 -0.1429155 0.2071692
vn 0.4998704 0.8234836 0.2683363
vn 0.1561206 0.9366584 0.3135241
vn 0.1831775 0.9145219 0.3606879
vn -0.02404052 0.9681664 0.2491504
vn -0.01454274 0.9328048 0.3600885
vn 0.1950245 0.9707603 0.1399633
vn -0.2127192 0.8731079 -0.4386721
vn -0.08005675 0.4653888 -0.8814784
vn -0.08005674 0.4653888 -0.8814784
vn -0.3839195 0.8523631 0.3550817
vn 0.1979065 0.977585 0.07183776
vn 0.6363581 0.7275215 -0.2564386
vn 0.1936586 0.4895847 -0.8501784
vn 0.1936586 0.4895846 -0.8501784
vn 0.7620798 0.6472962 0.01555738
vn 0.9809823 0.1623361 0.1063989
vn 0.9569787 0.2568522 -0.1349773
vn 0.147694 0.403506 -0.902978
vn -0.1644712 0.3463739 -0.9235661
vn -0.1644712 0.3463739 -0.9235661
vn 0.01889667 -0.9372014 -0.3482763
vn 0.01760139 -0.9310197 -0.3645445
vn -0.201767 -0.9480717 -0.2458658
vn -0.1585638 -0.9445789 -0.287451
vn -0.2034639 -0.9239535 -0.3239017
vn -0.3318898 -0.8781738 -0.3444705
vn -0.4794204 -0.7916545 0.3787338
vn -0.2115788 -0.9568658 0.1991035
vn -0.5592852 -0.7529806 -0.3467277
vn 0.2379596 -0.868408 0.4350205
vn -0.1945022 -0.8974614 -0.3958941
vn 0.3839255 -0.8523594 -0.3550841
vn -0.9809802 -0.1623483 -0.1064
vn -0.9809802 -0.1623483 -0.1064
vn -0.9809802 -0.1623483 -0.1064
vn -0.9809802 -0.1623483 -0.1064
g Propeller_0
f 3/3/3 2/2/2 1/1/1
f 4/4/4 3/3/3 1/1/1
f 5/5/5 3/3/3 4/4/4
f 6/6/6 5/5/5 4/4/4
f 7/7/7 5/5/5 6/6/6
f 8/8/8 7/7/7 6/6/6
f 9/9/9 7/7/7 8/8/8
f 10/10/10 9/9/9 8/8/8
f 10/10/10 8/8/8 11/11/11
f 8/8/8 12/12/12 11/11/11
f 11/11/11 12/12/12 13/13/13
f 12/12/12 14/14/14 13/13/13
f 11/11/11 15/15/15 10/10/10
f 13/13/13 16/16/16 11/11/11
f 16/16/16 15/15/15 11/11/11
f 17/17/17 16/16/16 13/13/13
f 18/18/18 17/17/17 13/13/13
f 16/16/16 19/19/19 15/15/15
f 19/19/19 20/20/20 15/15/15
f 15/15/15 21/21/21 10/10/10
f 15/15/15 20/20/20 21/21/21
f 10/10/10 21/21/21 22/22/22
f 21/21/21 23/23/23 22/22/22
f 20/20/20 24/24/24 21/21/21
f 21/21/21 24/24/24 25/25/25
f 24/24/24 26/26/26 25/25/25
f 27/27/27 26/26/26 24/24/24
f 20/20/20 27/27/27 24/24/24
f 28/28/28 27/27/27 20/20/20
f 29/29/29 28/28/28 20/20/20
f 32/32/32 31/31/31 30/30/30
f 31/31/31 33/33/33 30/30/30
f 31/31/31 34/34/34 33/33/33
f 34/34/34 35/35/35 33/33/33
f 35/35/35 36/36/36 33/33/33
f 33/33/33 37/37/37 30/30/30
f 36/36/36 37/37/37 33/33/33
f 36/36/36 38/38/38 37/37/37
f 37/37/37 39/39/39 30/30/30
f 38/38/38 40/40/40 37/37/37
f 37/37/37 40/40/40 39/39/39
f 40/40/40 41/41/41 39/39/39
f 44/44/44 43/43/43 42/42/42
f 45/45/45 44/44/44 42/42/42
f 48/48/48 47/47/47 46/46/46
f 47/47/47 49/49/49 46/46/46
f 49/49/49 47/47/47 50/50/50
f 47/47/47 51/51/51 50/50/50
f 54/54/54 53/53/53 52/52/52
f 55/55/55 54/54/54 52/52/52
f 56/56/56 55/55/55 52/52/52
f 57/57/57 56/56/56 52/52/52
f 57/57/57 58/58/58 56/56/56
f 54/54/54 55/55/55 59/59/59
f 55/55/55 56/56/56 59/59/59
f 60/60/60 54/54/54 59/59/59
f 56/56/56 61/61/61 59/59/59
f 62/62/62 61/61/61 56/56/56
f 58/58/58 63/63/63 56/56/56
f 63/63/63 62/62/62 56/56/56
f 64/64/64 63/63/63 58/58/58
f 63/63/63 64/64/64 62/62/62
f 65/65/65 64/64/64 58/58/58
f 65/65/65 58/58/58 66/66/66
f 67/67/67 65/65/65 66/66/66
f 68/68/68 67/67/67 66/66/66
f 69/69/69 68/68/68 66/66/66
f 69/69/69 70/70/70 68/68/68
f 70/70/70 71/71/71 68/68/68
f 64/64/64 65/65/65 72/72/72
f 64/64/64 73/73/73 62/62/62
f 62/62/62 73/73/73 74/74/74
f 73/73/73 75/75/75 74/74/74
f 75/75/75 76/76/76 74/74/74
f 76/76/76 77/77/77 74/74/74
f 78/78/78 77/77/77 76/76/76
f 79/79/79 78/78/78 76/76/76
f 73/73/73 64/64/64 80/80/80
f 81/81/81 64/64/64 72/72/72
f 64/64/64 81/81/81 80/80/80
f 82/82/82 81/81/81 72/72/72
f 81/81/81 82/82/82 80/80/80
f 83/83/83 82/82/82 72/72/72
f 82/82/82 84/84/84 80/80/80
f 83/83/83 85/85/85 82/82/82
f 86/86/86 84/84/84 82/82/82
f 85/85/85 87/87/87 82/82/82
f 87/87/87 86/86/86 82/82/82
f 90/90/90 89/89/89 88/88/88
f 89/89/89 91/91/91 88/88/88
f 89/89/89 92/92/92 91/91/91
f 92/92/92 93/93/93 91/91/91
f 92/92/92 94/94/94 93/93/93
f 94/94/94 95/95/95 93/93/93
f 94/94/94 96/96/96 95/95/95
f 96/96/96 97/97/97 95/95/95
f 95/95/95 97/97/97 98/98/98
f 99/99/99 95/95/95 98/98/98
f 99/99/99 98/98/98 100/100/100
f 101/101/101 99/99/99 100/100/100
f 102/102/102 98/98/98 97/97/97
f 103/103/103 100/100/100 98/98/98
f 102/102/102 103/103/103 98/98/98
f 103/103/103 104/104/104 100/100/100
f 104/104/104 105/105/105 100/100/100
f 106/106/106 103/103/103 102/102/102
f 107/107/107 106/106/106 102/102/102
f 108/108/108 102/102/102 97/97/97
f 107/107/107 102/102/102 108/108/108
f 108/108/108 97/97/97 109/109/109
f 110/110/110 108/108/108 109/109/109
f 111/111/111 107/107/107 108/108/108
f 111/111/111 108/108/108 112/112/112
f 113/113/113 111/111/111 112/112/112
f 113/113/113 114/114/114 111/111/111
f 114/114/114 107/107/107 111/111/111
f 114/114/114 115/115/115 107/107/107
f 115/115/115 116/116/116 107/107/107
f 119/119/119 118/118/118 117/117/117
f 120/120/120 119/119/119 117/117/117
f 121/121/121 119/119/119 120/120/120
f 122/122/122 121/121/121 120/120/120
f 123/123/123 122/122/122 120/120/120
f 124/124/124 120/120/120 117/117/117
f 124/124/124 123/123/123 120/120/120
f 125/125/125 123/123/123 124/124/124
f 126/126/126 124/124/124 117/117/117
f 127/127/127 125/125/125 124/124/124
f 127/127/127 124/124/124 126/126/126
f 128/128/128 127/127/127 126/126/126
f 131/131/131 130/130/130 129/129/129
f 132/132/132 131/131/131 129/129/129
