g PumpkinLeaf
v -0.387685 0.148408 -0.082852
v -0.387685 0.445225 -0.136108
v -0.129228 0.445225 -0.09341
v -0.129228 0.148408 -0.015024
v -0.387685 -0.148408 -0.082852
v 0.129228 0.445225 -0.09341
v -0.129228 -0.148408 0.008646
v -0.387685 -0.445225 -0.082852
v -0.129228 -0.445225 -0.040153
v 0.129228 0.148408 -0.015024
v 0.387685 0.445225 -0.136108
v 0.387685 0.148408 -0.082852
v 0.129228 -0.148408 0.008646
v 0.129228 -0.445225 -0.040153
v 0.387685 -0.148408 -0.082852
v 0.387685 -0.445225 -0.082852
vt 0.566468 0.913052
vt 0.566676 0.87479
vt 0.533446 0.875566
vt 0.533007 0.914119
vt 0.56712 0.950843
vt 0.500566 0.875602
vt 0.532786 0.950795
vt 0.56681 0.988537
vt 0.533542 0.988264
vt 0.500974 0.913983
vt 0.467462 0.874744
vt 0.467571 0.912864
vt 0.501202 0.950561
vt 0.500482 0.988345
vt 0.466804 0.950625
vt 0.467022 0.988537
vn -0.2499244 0.1268012 0.9599268
vn -0.2043431 0.2119286 0.955683
vn -0.1046754 0.2345078 0.9664623
vn -0.1277195 0.1473882 0.9807978
vn -0.2730671 -0.02035648 0.9617796
vn 0.1046754 0.2345078 0.9664623
vn -0.1387944 -0.03129225 0.9898267
vn -0.2504902 -0.0793156 0.9648646
vn -0.1288287 -0.1210264 0.9842539
vn 0.1277195 0.1473882 0.9807978
vn 0.2043431 0.2119286 0.955683
vn 0.2499244 0.1268012 0.9599268
vn 0.1387944 -0.03129226 0.9898267
vn 0.1288287 -0.1210264 0.9842539
vn 0.2730671 -0.02035649 0.9617796
vn 0.2504902 -0.0793156 0.9648646
g PumpkinLeaf_0
f 3/3/3 2/2/2 1/1/1
f 4/4/4 3/3/3 1/1/1
f 4/4/4 1/1/1 5/5/5
f 6/6/6 3/3/3 4/4/4
f 7/7/7 4/4/4 5/5/5
f 7/7/7 5/5/5 8/8/8
f 9/9/9 7/7/7 8/8/8
f 10/10/10 6/6/6 4/4/4
f 10/10/10 4/4/4 7/7/7
f 11/11/11 6/6/6 10/10/10
f 12/12/12 11/11/11 10/10/10
f 13/13/13 7/7/7 9/9/9
f 13/13/13 10/10/10 7/7/7
f 12/12/12 10/10/10 13/13/13
f 14/14/14 13/13/13 9/9/9
f 15/15/15 12/12/12 13/13/13
f 15/15/15 13/13/13 14/14/14
f 16/16/16 15/15/15 14/14/14
