g PurpleAzureButterFlyWings
v 0 0.361581 0.04873
v 0 -0.361581 0.04873
v -0.581516 -0.361581 0.448132
v -0.581516 0.361581 0.448132
v 0 0.361581 0.04873
v -0.581516 0.361581 0.448132
v -0.581516 -0.361581 0.448132
v 0 -0.361581 0.04873
v 0 0.361581 0.04873
v 0.581516 0.361581 0.448132
v 0.581516 -0.361581 0.448132
v 0 -0.361581 0.04873
v 0 0.361581 0.04873
v 0 -0.361581 0.04873
v 0.581516 -0.361581 0.448132
v 0.581516 0.361581 0.448132
vt 0.476646 0.356313
vt 0.476646 0.468923
vt 0.540042 0.468923
vt 0.540042 0.356313
vt 0.476646 0.356313
vt 0.540042 0.356313
vt 0.540042 0.468923
vt 0.476646 0.468923
vt 0.476646 0.356313
vt 0.540042 0.356313
vt 0.540042 0.468923
vt 0.476646 0.468923
vt 0.476646 0.356313
vt 0.476646 0.468923
vt 0.540042 0.468923
vt 0.540042 0.356313
vn 0.5661532 0 0.8243001
vn 0.5661532 0 0.8243001
vn 0.5661532 0 0.8243001
vn 0.5661532 0 0.8243001
vn -0.5661532 0 -0.8243001
vn -0.5661532 0 -0.8243001
vn -0.5661532 0 -0.8243001
vn -0.5661532 0 -0.8243001
vn -0.5661532 0 0.8243001
vn -0.5661532 0 0.8243001
vn -0.5661532 0 0.8243001
vn -0.5661532 0 0.8243001
vn 0.5661532 0 -0.8243001
vn 0.5661532 0 -0.8243001
vn 0.5661532 0 -0.8243001
vn 0.5661532 0 -0.8243001
g PurpleAzureButterFlyWings_0
f 3/3/3 2/2/2 1/1/1
f 4/4/4 3/3/3 1/1/1
f 7/7/7 6/6/6 5/5/5
f 8/8/8 7/7/7 5/5/5
f 11/11/11 10/10/10 9/9/9
f 12/12/12 11/11/11 9/9/9
f 15/15/15 14/14/14 13/13/13
f 16/16/16 15/15/15 13/13/13
