g Ramp
v -1 -1 0
v -1 1 1
v 1 1 1
v 1 -1 0
v -1 -1 -0.056797
v 1 -1 -0.056797
v 1 1 0.927732
v -1 1 0.927732
v 1 1 1
v -1 1 1
v -1 1 0.927732
v 1 1 0.927732
v -1 1 1
v -1 -1 0
v -1 -1 -0.056797
v -1 1 0.927732
v -1 -1 0
v 1 -1 0
v 1 -1 -0.056797
v -1 -1 -0.056797
v 1 -1 0
v 1 1 1
v 1 1 0.927732
v 1 -1 -0.056797
vt 1 2
vt 1 3
vt 2 3
vt 2 2
vt 1 2
vt 2 2
vt 2 3
vt 1 3
vt 2 3
vt 1 3
vt 1 3
vt 2 3
vt 1 3
vt 1 2
vt 1 2
vt 1 3
vt 1 2
vt 2 2
vt 2 2
vt 1 2
vt 2 2
vt 2 3
vt 2 3
vt 2 2
vn 0 -0.4472136 0.8944272
vn 0 -0.4472136 0.8944272
vn 0 -0.4472136 0.8944272
vn 0 -0.4472136 0.8944272
vn 0 0.4416528 -0.897186
vn 0 0.4416528 -0.897186
vn 0 0.4416528 -0.897186
vn 0 0.4416528 -0.897186
vn 0 1 0
vn 0 1 0
vn 0 1 0
vn 0 1 0
vn -1 0 0
vn -1 0 0
vn -1 0 0
vn -1 0 0
vn 0 -1 0
vn 0 -1 0
vn 0 -1 0
vn 0 -1 0
vn 1 0 0
vn 1 0 0
vn 1 0 0
vn 1 0 0
g Ramp_0
f 3/3/3 2/2/2 1/1/1
f 4/4/4 3/3/3 1/1/1
f 7/7/7 6/6/6 5/5/5
f 8/8/8 7/7/7 5/5/5
f 11/11/11 10/10/10 9/9/9
f 12/12/12 11/11/11 9/9/9
f 15/15/15 14/14/14 13/13/13
f 16/16/16 15/15/15 13/13/13
f 19/19/19 18/18/18 17/17/17
f 20/20/20 19/19/19 17/17/17
f 23/23/23 22/22/22 21/21/21
f 24/24/24 23/23/23 21/21/21
