g RecyclingLid
v -1.895924 -1.917069 -0.405944
v 1.895924 -1.917069 -0.405944
v 1.895924 -0.001237 0.026811
v -1.895924 -0.001237 0.026811
v -1.895924 -1.928407 -0.354049
v -1.895924 -0.012575 0.078706
v 1.895924 -0.012575 0.078706
v 1.895924 -1.928407 -0.354049
v 1.895924 -1.917069 -0.405944
v 1.895924 -1.928407 -0.354049
v 1.895924 -0.012575 0.078706
v 1.895924 -0.001237 0.026811
v -1.895924 -0.001237 0.026811
v -1.895924 -0.012575 0.078706
v -1.895924 -1.928407 -0.354049
v -1.895924 -1.917069 -0.405944
v 1.895924 -0.001237 0.026811
v 1.895924 -0.012575 0.078706
v -1.895924 -0.012575 0.078706
v -1.895924 -0.001237 0.026811
v -1.895924 -1.917069 -0.405944
v -1.895924 -1.928407 -0.354049
v 1.895924 -1.928407 -0.354049
v 1.895924 -1.917069 -0.405944
vt -0.5 1.5
vt -0.5 -0.5
vt 1.5 -0.5
vt 1.5 1.5
vt -0.5 1.5
vt 1.5 1.5
vt 1.5 -0.5
vt -0.5 -0.5
vt -0.5 -0.5
vt -0.5 -0.5
vt 1.5 -0.5
vt 1.5 -0.5
vt 1.5 1.5
vt 1.5 1.5
vt -0.5 1.5
vt -0.5 1.5
vt 1.5 -0.5
vt 1.5 -0.5
vt 1.5 1.5
vt 1.5 1.5
vt -0.5 1.5
vt -0.5 1.5
vt -0.5 -0.5
vt -0.5 -0.5
vn 0 0.2203325 -0.9754249
vn 0 0.2203325 -0.9754249
vn 0 0.2203325 -0.9754249
vn 0 0.2203325 -0.9754249
vn 0 -0.2203325 0.9754249
vn 0 -0.2203325 0.9754249
vn 0 -0.2203325 0.9754249
vn 0 -0.2203325 0.9754249
vn 1 0 0
vn 1 0 0
vn 1 0 0
vn 1 0 0
vn -1 0 0
vn -1 0 0
vn -1 0 0
vn -1 0 0
vn 0 0.9769552 0.2134448
vn 0 0.9769552 0.2134448
vn 0 0.9769552 0.2134448
vn 0 0.9769552 0.2134448
vn 0 -0.9769552 -0.2134447
vn 0 -0.9769552 -0.2134447
vn 0 -0.9769552 -0.2134447
vn 0 -0.9769552 -0.2134447
g RecyclingLid_0
f 3/3/3 2/2/2 1/1/1
f 4/4/4 3/3/3 1/1/1
f 7/7/7 6/6/6 5/5/5
f 8/8/8 7/7/7 5/5/5
f 11/11/11 10/10/10 9/9/9
f 12/12/12 11/11/11 9/9/9
f 15/15/15 14/14/14 13/13/13
f 16/16/16 15/15/15 13/13/13
f 19/19/19 18/18/18 17/17/17
f 20/20/20 19/19/19 17/17/17
f 23/23/23 22/22/22 21/21/21
f 24/24/24 23/23/23 21/21/21
