g RoadsideReflector
v 0.12919 0.017306 -0.004739
v 0.12919 -0.017306 -0.004739
v 0.12919 -0.017306 1.723037
v 0.12919 0.017306 1.723037
v 0.105272 0.017306 1.746955
v 0.105272 -0.017306 1.746955
v -0.105272 -0.017306 1.746955
v -0.105272 0.017306 1.746955
v -0.12919 0.017306 1.723037
v -0.12919 -0.017306 1.723037
v -0.12919 -0.017306 -0.004739
v -0.12919 0.017306 -0.004739
v -0.12919 0.017306 -0.004739
v -0.12919 -0.017306 -0.004739
v 0.12919 -0.017306 -0.004739
v 0.12919 0.017306 -0.004739
v -0.12919 0.017306 1.723037
v -0.12919 0.017306 -0.004739
v 0.12919 0.017306 -0.004739
v 0.12919 0.017306 1.723037
v -0.105272 0.017306 1.746955
v 0.105272 0.017306 1.746955
v 0.12919 -0.017306 1.723037
v 0.12919 -0.017306 -0.004739
v -0.12919 -0.017306 -0.004739
v -0.12919 -0.017306 1.723037
v 0.105272 -0.017306 1.746955
v -0.105272 -0.017306 1.746955
v -0.07014 -0.042742 1.311331
v -0.07014 -0.042742 1.633959
v 0.07014 -0.042742 1.633959
v 0.07014 -0.042742 1.311331
v -0.081707 -0.031175 1.303158
v 0.081707 -0.031175 1.303158
v 0.081707 -0.031175 1.303158
v 0.081707 -0.031175 1.642131
v 0.081707 -0.031175 1.303158
v 0.081707 -0.031175 1.642131
v 0.081707 0.031175 1.642131
v 0.081707 0.031175 1.303158
v 0.07014 0.042742 1.311331
v 0.07014 0.042742 1.633959
v 0.081707 0.031175 1.642131
v -0.081707 -0.031175 1.642131
v -0.081707 0.031175 1.642131
v 0.081707 -0.031175 1.642131
v -0.07014 -0.042742 1.633959
v 0.07014 -0.042742 1.633959
v 0.07014 0.042742 1.311331
v -0.07014 0.042742 1.633959
v -0.07014 0.042742 1.311331
v 0.07014 0.042742 1.633959
v -0.081707 0.031175 1.642131
v 0.081707 0.031175 1.642131
v 0.081707 0.031175 1.303158
v -0.081707 -0.031175 1.303158
v 0.081707 -0.031175 1.303158
v -0.081707 0.031175 1.303158
v -0.07014 0.042742 1.311331
v 0.07014 0.042742 1.311331
v -0.081707 0.031175 1.303158
v -0.07014 0.042742 1.311331
v -0.07014 0.042742 1.633959
v -0.081707 0.031175 1.642131
v -0.081707 -0.031175 1.642131
v -0.081707 -0.031175 1.303158
v -0.07014 -0.042742 1.311331
v -0.07014 -0.042742 1.633959
vt 0.920869 0.886073
vt 0.918269 0.888538
vt 0.917555 0.969809
vt 0.920869 0.97122
vt 0.917647 0.973353
vt 0.915798 0.971325
vt 0.898755 0.971766
vt 0.896725 0.97418
vt 0.893788 0.971643
vt 0.896587 0.97043
vt 0.899917 0.888635
vt 0.897222 0.886826
vt 0.897222 0.886826
vt 0.899917 0.888635
vt 0.918269 0.888538
vt 0.920869 0.886073
vt 0.923672 0.975457
vt 0.923672 0.887853
vt 0.892052 0.887853
vt 0.892052 0.975457
vt 0.920745 0.976669
vt 0.894979 0.976669
vt 0.923652 0.975457
vt 0.923652 0.887853
vt 0.892032 0.887853
vt 0.892033 0.975457
vt 0.920725 0.976669
vt 0.89496 0.976669
vt 0.944069 0.920451
vt 0.944069 0.960872
vt 0.968371 0.960872
vt 0.968371 0.920451
vt 0.942065 0.919427
vt 0.970375 0.919427
vt 0.970375 0.919427
vt 0.970375 0.961896
vt 0.945896 0.919427
vt 0.945896 0.961896
vt 0.966544 0.961896
vt 0.966544 0.919427
vt 0.970375 0.920451
vt 0.970375 0.960873
vt 0.942065 0.925174
vt 0.970375 0.95615
vt 0.970375 0.925174
vt 0.942065 0.95615
vt 0.968371 0.961897
vt 0.944069 0.961896
vt 0.944069 0.920451
vt 0.968371 0.960872
vt 0.968371 0.920451
vt 0.944069 0.960872
vt 0.970375 0.961896
vt 0.942065 0.961896
vt 0.924406 0.702436
vt 0.97474 0.739148
vt 0.924406 0.739148
vt 0.97474 0.702436
vt 0.971177 0.695625
vt 0.927969 0.695625
vt 0.945896 0.919427
vt 0.942065 0.920451
vt 0.942065 0.960873
vt 0.945896 0.961896
vt 0.966544 0.961896
vt 0.966544 0.919427
vt 0.970375 0.920451
vt 0.970375 0.960873
vn 1 0 0
vn 1 0 0
vn 0.9238797 0 0.3826831
vn 0.9238797 0 0.3826831
vn 0.3826838 0 0.9238794
vn 0.3826838 0 0.9238794
vn -0.3826838 0 0.9238794
vn -0.3826838 0 0.9238794
vn -0.9238797 0 0.3826831
vn -0.9238797 0 0.3826831
vn -1 0 0
vn -1 0 0
vn 0 0 -1
vn 0 0 -1
vn 0 0 -1
vn 0 0 -1
vn 0 1 0
vn 0 1 0
vn 0 1 0
vn 0 1 0
vn 0 1 0
vn 0 1 0
vn 0 -1 0
vn 0 -1 0
vn 0 -1 0
vn 0 -1 0
vn 0 -1 0
vn 0 -1 0
vn -0.2933257 -0.8791054 -0.3756776
vn -0.2933238 -0.8790944 0.3757049
vn 0.2933238 -0.8790944 0.3757049
vn 0.2933257 -0.8791056 -0.3756776
vn 0 -0.2174957 -0.9760612
vn 0 -0.2174957 -0.9760612
vn 0.9488697 -0.3156681 0
vn 0.9488667 -0.315677 0
vn 0.9488697 -0.3156681 0
vn 0.9488667 -0.315677 0
vn 0.9488667 0.3156771 0
vn 0.9488697 0.3156681 0
vn 0.2933256 0.8791054 -0.3756776
vn 0.2933238 0.8790944 0.3757049
vn 0 0.2174713 0.9760667
vn 0 -0.2174713 0.9760667
vn 0 0.2174713 0.9760667
vn 0 -0.2174713 0.9760667
vn -0.2933238 -0.8790944 0.3757049
vn 0.2933238 -0.8790944 0.3757049
vn 0.2933256 0.8791054 -0.3756776
vn -0.2933238 0.8790944 0.3757049
vn -0.2933257 0.8791054 -0.3756776
vn 0.2933238 0.8790944 0.3757049
vn 0 0.2174713 0.9760667
vn 0 0.2174713 0.9760667
vn 0 0.2174957 -0.9760612
vn 0 -0.2174957 -0.9760612
vn 0 -0.2174957 -0.9760612
vn 0 0.2174957 -0.9760612
vn -0.2933257 0.8791054 -0.3756776
vn 0.2933256 0.8791054 -0.3756776
vn -0.9488697 0.3156681 0
vn -0.2933257 0.8791054 -0.3756776
vn -0.2933238 0.8790944 0.3757049
vn -0.9488667 0.315677 0
vn -0.9488667 -0.315677 0
vn -0.9488697 -0.3156681 0
vn -0.2933257 -0.8791054 -0.3756776
vn -0.2933238 -0.8790944 0.3757049
g RoadsideReflector_0
f 3/3/3 2/2/2 1/1/1
f 4/4/4 3/3/3 1/1/1
f 3/3/3 4/4/4 5/5/5
f 6/6/6 3/3/3 5/5/5
f 7/7/7 6/6/6 5/5/5
f 8/8/8 7/7/7 5/5/5
f 8/8/8 9/9/9 7/7/7
f 9/9/9 10/10/10 7/7/7
f 10/10/10 9/9/9 11/11/11
f 9/9/9 12/12/12 11/11/11
f 15/15/15 14/14/14 13/13/13
f 16/16/16 15/15/15 13/13/13
f 19/19/19 18/18/18 17/17/17
f 17/17/17 20/20/20 19/19/19
f 17/17/17 21/21/21 20/20/20
f 21/21/21 22/22/22 20/20/20
f 25/25/25 24/24/24 23/23/23
f 23/23/23 26/26/26 25/25/25
f 23/23/23 27/27/27 26/26/26
f 27/27/27 28/28/28 26/26/26
f 31/31/31 30/30/30 29/29/29
f 32/32/32 31/31/31 29/29/29
f 29/29/29 33/33/33 32/32/32
f 33/33/33 34/34/34 32/32/32
f 32/32/32 35/35/35 31/31/31
f 35/35/35 36/36/36 31/31/31
f 39/39/39 38/38/38 37/37/37
f 40/40/40 39/39/39 37/37/37
f 40/40/40 41/41/41 39/39/39
f 41/41/41 42/42/42 39/39/39
f 45/45/45 44/44/44 43/43/43
f 44/44/44 46/46/46 43/43/43
f 44/44/44 47/47/47 46/46/46
f 47/47/47 48/48/48 46/46/46
f 51/51/51 50/50/50 49/49/49
f 50/50/50 52/52/52 49/49/49
f 50/50/50 53/53/53 52/52/52
f 53/53/53 54/54/54 52/52/52
f 57/57/57 56/56/56 55/55/55
f 56/56/56 58/58/58 55/55/55
f 58/58/58 59/59/59 55/55/55
f 59/59/59 60/60/60 55/55/55
f 63/63/63 62/62/62 61/61/61
f 64/64/64 63/63/63 61/61/61
f 65/65/65 64/64/64 61/61/61
f 66/66/66 65/65/65 61/61/61
f 66/66/66 67/67/67 65/65/65
f 67/67/67 68/68/68 65/65/65
