g Rock_Impostor
v 0.9840345 0.4252377 0
v 0.9836549 -0.6469075 0
v 0.418955 -1.107019 0
v -0.3215982 -1.107019 0
v -0.9828398 -0.7337479 0
v -0.98414 0.4056084 0
v -0.4323806 0.9686416 0
v 0.4214537 0.9686416 0
vt 0.02591746 0.7382019
vt 0.02610036 0.2216699
vt 0.2981583 0
vt 0.6549377 0
vt 0.973507 0.1798325
vt 0.9741334 0.728745
vt 0.7083099 1
vt 0.2969545 1
vn 0 0 -0.9999999
vn 0 0 -1
vn 0 0 -1
vn 0 0 -1
vn 0 0 -1
vn 0 0 -1
vn 0 0 -1
vn 0 0 -0.9999999
g Rock_Impostor_0
f 4/4/4 6/6/6 8/8/8
f 8/8/8 2/2/2 4/4/4
f 6/6/6 7/7/7 8/8/8
f 4/4/4 5/5/5 6/6/6
f 2/2/2 3/3/3 4/4/4
f 8/8/8 1/1/1 2/2/2
