g RoofStrut
v 0.121579 0.038141 -0.054915
v 0.121579 -0.038141 4
v 0.121579 0.038141 4
v 0.121579 -0.038141 -0.054915
v 0.035136 -0.124584 4
v 0.035136 -0.124584 -0.054915
v -0.121579 0.038141 4
v -0.121579 -0.038141 4
v -0.121579 -0.038141 -0.054915
v -0.121579 0.038141 -0.054915
v -0.035136 0.124584 4
v -0.035136 0.124584 -0.054915
v 0.035136 0.124584 4
v -0.035136 0.124584 4
v -0.035136 0.124584 -0.054915
v 0.035136 0.124584 -0.054915
v 0.121579 0.038141 4
v 0.121579 0.038141 -0.054915
v 0.035136 -0.124584 -0.054915
v 0.121579 -0.038141 -0.054915
v 0.121579 0.038141 -0.054915
v 0.035136 0.124584 -0.054915
v -0.035136 -0.124584 -0.054915
v -0.035136 0.124584 -0.054915
v -0.121579 -0.038141 -0.054915
v -0.121579 0.038141 -0.054915
v 0.035136 -0.124584 4
v 0.035136 -0.124584 -0.054915
v -0.035136 -0.124584 -0.054915
v -0.035136 -0.124584 4
v -0.121579 -0.038141 4
v -0.121579 -0.038141 -0.054915
v 0.035136 0.124584 4
v 0.121579 0.038141 4
v 0.121579 -0.038141 4
v 0.035136 -0.124584 4
v -0.035136 0.124584 4
v -0.035136 -0.124584 4
v -0.121579 0.038141 4
v -0.121579 -0.038141 4
vt 0.321166 0.708412
vt 0.342896 0.416588
vt 0.321166 0.416588
vt 0.342896 0.708412
vt 0.372056 0.416588
vt 0.372056 0.708412
vt 0.321816 0.417454
vt 0.342246 0.417454
vt 0.342246 0.707546
vt 0.321816 0.707546
vt 0.2944 0.417454
vt 0.2944 0.707546
vt 0.322718 0.417454
vt 0.341344 0.417454
vt 0.341344 0.707546
vt 0.322718 0.707546
vt 0.321166 0.416588
vt 0.321166 0.708412
vt 0.342091 0.720953
vt 0.372678 0.605512
vt 0.372678 0.519488
vt 0.342091 0.404047
vt 0.321972 0.720953
vt 0.321972 0.404047
vt 0.291384 0.605512
vt 0.291384 0.519488
vt 0.321972 0.426589
vt 0.321972 0.698411
vt 0.342091 0.698411
vt 0.342091 0.426589
vt 0.372678 0.426589
vt 0.372678 0.698411
vt 0.321972 0.404047
vt 0.291384 0.519488
vt 0.291384 0.605512
vt 0.321972 0.720953
vt 0.342091 0.404047
vt 0.342091 0.720953
vt 0.372678 0.519488
vt 0.372678 0.605512
vn 0.8831262 0.4691356 0
vn 0.8831262 -0.4691356 0
vn 0.8831262 0.4691356 0
vn 0.8831262 -0.4691356 0
vn 0.4829898 -0.8756261 0
vn 0.4829898 -0.8756261 0
vn -0.8831262 0.4691356 0
vn -0.8831262 -0.4691356 0
vn -0.8831262 -0.4691356 0
vn -0.8831262 0.4691356 0
vn -0.4829898 0.8756261 0
vn -0.4829898 0.8756261 0
vn 0.4829898 0.8756261 0
vn -0.4829898 0.8756261 0
vn -0.4829898 0.8756261 0
vn 0.4829898 0.8756261 0
vn 0.8831262 0.4691356 0
vn 0.8831262 0.4691356 0
vn 0 0 -1
vn 0 0 -1
vn 0 0 -1
vn 0 0 -1
vn 0 0 -1
vn 0 0 -1
vn 0 0 -1
vn 0 0 -1
vn 0.4829898 -0.8756261 0
vn 0.4829898 -0.8756261 0
vn -0.4829898 -0.8756261 0
vn -0.4829898 -0.8756261 0
vn -0.8831262 -0.4691356 0
vn -0.8831262 -0.4691356 0
vn 0 0 1
vn 0 0 1
vn 0 0 1
vn 0 0 1
vn 0 0 1
vn 0 0 1
vn 0 0 1
vn 0 0 1
g RoofStrut_0
f 3/3/3 2/2/2 1/1/1
f 2/2/2 4/4/4 1/1/1
f 2/2/2 5/5/5 4/4/4
f 5/5/5 6/6/6 4/4/4
f 9/9/9 8/8/8 7/7/7
f 10/10/10 9/9/9 7/7/7
f 7/7/7 11/11/11 10/10/10
f 11/11/11 12/12/12 10/10/10
f 15/15/15 14/14/14 13/13/13
f 16/16/16 15/15/15 13/13/13
f 13/13/13 17/17/17 16/16/16
f 17/17/17 18/18/18 16/16/16
f 21/21/21 20/20/20 19/19/19
f 19/19/19 22/22/22 21/21/21
f 19/19/19 23/23/23 22/22/22
f 23/23/23 24/24/24 22/22/22
f 23/23/23 25/25/25 24/24/24
f 25/25/25 26/26/26 24/24/24
f 29/29/29 28/28/28 27/27/27
f 30/30/30 29/29/29 27/27/27
f 30/30/30 31/31/31 29/29/29
f 31/31/31 32/32/32 29/29/29
f 35/35/35 34/34/34 33/33/33
f 33/33/33 36/36/36 35/35/35
f 33/33/33 37/37/37 36/36/36
f 37/37/37 38/38/38 36/36/36
f 37/37/37 39/39/39 38/38/38
f 39/39/39 40/40/40 38/38/38
