g RoundTableTop
v 0.222492 0.684761 -0.056565
v 0.423205 0.582492 -0.056565
v 0.423205 0.582492 0.083435
v 0.222492 0.684761 0.083435
v 0 0.72 -0.056565
v 0 0.72 0.083435
v -0.222491 0.684761 -0.056565
v -0.222491 0.684761 0.083435
v 0.423205 0.582492 -0.056565
v 0.582492 0.423205 -0.056565
v 0.582492 0.423205 0.083435
v 0.423205 0.582492 0.083435
v 0.582492 0.423205 -0.056565
v 0.684761 0.222492 0.083435
v 0.582492 0.423205 0.083435
v 0.684761 0.222492 -0.056565
v 0.72 0 0.083435
v 0.72 0 -0.056565
v 0.684761 -0.222492 0.083435
v 0.684761 -0.222492 -0.056565
v 0.582492 -0.423205 0.083435
v 0.582492 -0.423205 -0.056565
v 0.582492 -0.423205 -0.056565
v 0.423205 -0.582492 0.083435
v 0.582492 -0.423205 0.083435
v 0.423205 -0.582492 -0.056565
v 0.222492 -0.684761 0.083435
v 0.222492 -0.684761 -0.056565
v 0 -0.72 0.083435
v 0 -0.72 -0.056565
v -0.222493 -0.684761 0.083435
v -0.222493 -0.684761 -0.056565
v -0.222493 -0.684761 -0.056565
v -0.423206 -0.582492 0.083435
v -0.222493 -0.684761 0.083435
v -0.423206 -0.582492 -0.056565
v -0.582493 -0.423205 0.083435
v -0.582493 -0.423205 -0.056565
v -0.684761 -0.222492 0.083435
v -0.684761 -0.222492 -0.056565
v -0.72 1E-06 0.083435
v -0.72 1E-06 -0.056565
v -0.72 1E-06 -0.056565
v -0.68476 0.222493 -0.056565
v -0.68476 0.222493 0.083435
v -0.72 1E-06 0.083435
v -0.68476 0.222493 -0.056565
v -0.582492 0.423206 0.083435
v -0.68476 0.222493 0.083435
v -0.582492 0.423206 -0.056565
v -0.423205 0.582493 0.083435
v -0.423205 0.582493 -0.056565
v -0.222491 0.684761 0.083435
v -0.222491 0.684761 -0.056565
v 0.684761 0.222492 0.083435
v 0.72 0 0.083435
v 0.684761 -0.222492 0.083435
v 0.582492 0.423205 0.083435
v 0.582492 -0.423205 0.083435
v 0.423205 0.582492 0.083435
v 0.423205 -0.582492 0.083435
v 0.222492 0.684761 0.083435
v 0.222492 -0.684761 0.083435
v 0 0.72 0.083435
v 0 -0.72 0.083435
v -0.222491 0.684761 0.083435
v -0.222493 -0.684761 0.083435
v -0.423205 0.582493 0.083435
v -0.423206 -0.582492 0.083435
v -0.582492 0.423206 0.083435
v -0.582493 -0.423205 0.083435
v -0.68476 0.222493 0.083435
v -0.684761 -0.222492 0.083435
v -0.72 1E-06 0.083435
v 0.684761 -0.222492 -0.056565
v 0.72 0 -0.056565
v 0.684761 0.222492 -0.056565
v 0.582492 -0.423205 -0.056565
v 0.582492 0.423205 -0.056565
v 0.423205 -0.582492 -0.056565
v 0.423205 0.582492 -0.056565
v 0.222492 -0.684761 -0.056565
v 0.222492 0.684761 -0.056565
v 0 -0.72 -0.056565
v 0 0.72 -0.056565
v -0.222493 -0.684761 -0.056565
v -0.222491 0.684761 -0.056565
v -0.423205 0.582493 -0.056565
v -0.423206 -0.582492 -0.056565
v -0.582492 0.423206 -0.056565
v -0.582493 -0.423205 -0.056565
v -0.68476 0.222493 -0.056565
v -0.684761 -0.222492 -0.056565
v -0.72 1E-06 -0.056565
vt 0.776945 0.34956
vt 0.776945 0.392487
vt 0.844831 0.392487
vt 0.844831 0.34956
vt 0.776945 0.290477
vt 0.844831 0.290477
vt 0.776945 0.221021
vt 0.844831 0.221021
vt 0.903019 0.388464
vt 0.90302 0.447547
vt 0.970906 0.447547
vt 0.970906 0.388464
vt 0.90302 0.447547
vt 0.970906 0.517003
vt 0.970906 0.447547
vt 0.903019 0.517003
vt 0.970906 0.590034
vt 0.90302 0.590034
vt 0.970906 0.65949
vt 0.90302 0.65949
vt 0.970906 0.718573
vt 0.90302 0.718573
vt 0.776945 0.43139
vt 0.844831 0.490473
vt 0.844831 0.43139
vt 0.776945 0.490473
vt 0.844831 0.559929
vt 0.776945 0.559929
vt 0.844831 0.63296
vt 0.776945 0.63296
vt 0.844831 0.702416
vt 0.776945 0.702416
vt 0.90302 0.019452
vt 0.970906 0.078535
vt 0.970906 0.019452
vt 0.90302 0.078535
vt 0.970906 0.147991
vt 0.90302 0.147991
vt 0.970906 0.221021
vt 0.903019 0.221021
vt 0.970906 0.290478
vt 0.90302 0.290478
vt 0.90302 0.290478
vt 0.90302 0.34956
vt 0.970906 0.34956
vt 0.970906 0.290478
vt 0.776945 0.019452
vt 0.844831 0.078535
vt 0.844831 0.019452
vt 0.776945 0.078535
vt 0.844831 0.147991
vt 0.776945 0.147991
vt 0.844831 0.221021
vt 0.776945 0.221021
vt 0.215424 0.957981
vt 0.319309 0.980548
vt 0.428541 0.980548
vt 0.127053 0.915054
vt 0.532427 0.957981
vt 0.062849 0.855971
vt 0.620797 0.915054
vt 0.029094 0.786515
vt 0.685002 0.855971
vt 0.029094 0.713485
vt 0.718757 0.786515
vt 0.062848 0.644029
vt 0.718757 0.713485
vt 0.127053 0.584946
vt 0.685002 0.644029
vt 0.215424 0.54202
vt 0.620797 0.584946
vt 0.319309 0.519452
vt 0.532427 0.542019
vt 0.428541 0.519452
vt 0.319309 0.019452
vt 0.215424 0.04202
vt 0.127053 0.084946
vt 0.428541 0.019452
vt 0.062849 0.144029
vt 0.532427 0.042019
vt 0.029094 0.213485
vt 0.620797 0.084946
vt 0.029094 0.286515
vt 0.685002 0.144029
vt 0.062849 0.355972
vt 0.718757 0.213485
vt 0.127053 0.415054
vt 0.215424 0.45798
vt 0.718757 0.286515
vt 0.319309 0.480548
vt 0.685002 0.355971
vt 0.428541 0.480548
vt 0.620797 0.415054
vt 0.532427 0.457981
vn 0.3090178 0.9510562 0
vn 0.5877863 0.8090163 0
vn 0.5877863 0.8090163 0
vn 0.3090178 0.9510562 0
vn 0 1 0
vn 0 1 0
vn -0.3090157 0.9510569 0
vn -0.3090157 0.9510569 0
vn 0.5877863 0.8090163 0
vn 0.8090163 0.5877863 0
vn 0.8090163 0.5877863 0
vn 0.5877863 0.8090163 0
vn 0.8090163 0.5877863 0
vn 0.9510562 0.3090178 0
vn 0.8090163 0.5877863 0
vn 0.9510562 0.3090178 0
vn 1 0 0
vn 1 0 0
vn 0.9510562 -0.3090178 0
vn 0.9510562 -0.3090178 0
vn 0.8090163 -0.5877863 0
vn 0.8090163 -0.5877863 0
vn 0.8090163 -0.5877863 0
vn 0.5877863 -0.8090163 0
vn 0.8090163 -0.5877863 0
vn 0.5877863 -0.8090163 0
vn 0.3090178 -0.9510562 0
vn 0.3090178 -0.9510562 0
vn 0 -1 0
vn 0 -1 0
vn -0.3090172 -0.9510565 0
vn -0.3090172 -0.9510565 0
vn -0.3090172 -0.9510565 0
vn -0.5877863 -0.8090163 0
vn -0.3090172 -0.9510565 0
vn -0.5877863 -0.8090163 0
vn -0.8090174 -0.5877848 0
vn -0.8090174 -0.5877848 0
vn -0.9510571 -0.3090151 0
vn -0.9510571 -0.3090151 0
vn -1 0 0
vn -1 0 0
vn -1 0 0
vn -0.9510562 0.3090178 0
vn -0.9510562 0.3090178 0
vn -1 0 0
vn -0.9510562 0.3090178 0
vn -0.8090174 0.5877848 0
vn -0.9510562 0.3090178 0
vn -0.8090174 0.5877848 0
vn -0.5877837 0.8090181 0
vn -0.5877837 0.8090181 0
vn -0.3090157 0.9510569 0
vn -0.3090157 0.9510569 0
vn 0 0 1
vn 0 0 1
vn 0 0 1
vn 0 0 1
vn 0 0 1
vn 0 0 1
vn 0 0 1
vn 0 0 1
vn 0 0 1
vn 0 0 1
vn 0 0 1
vn 0 0 1
vn 0 0 1
vn 0 0 1
vn 0 0 1
vn 0 0 1
vn 0 0 1
vn 0 0 1
vn 0 0 1
vn 0 0 1
vn 0 0 -1
vn 0 0 -1
vn 0 0 -1
vn 0 0 -1
vn 0 0 -1
vn 0 0 -1
vn 0 0 -1
vn 0 0 -1
vn 0 0 -1
vn 0 0 -1
vn 0 0 -1
vn 0 0 -1
vn 0 0 -1
vn 0 0 -1
vn 0 0 -1
vn 0 0 -1
vn 0 0 -1
vn 0 0 -1
vn 0 0 -1
vn 0 0 -1
g RoundTableTop_0
f 3/3/3 2/2/2 1/1/1
f 4/4/4 3/3/3 1/1/1
f 4/4/4 1/1/1 5/5/5
f 6/6/6 4/4/4 5/5/5
f 6/6/6 5/5/5 7/7/7
f 8/8/8 6/6/6 7/7/7
f 11/11/11 10/10/10 9/9/9
f 12/12/12 11/11/11 9/9/9
f 15/15/15 14/14/14 13/13/13
f 14/14/14 16/16/16 13/13/13
f 14/14/14 17/17/17 16/16/16
f 17/17/17 18/18/18 16/16/16
f 17/17/17 19/19/19 18/18/18
f 19/19/19 20/20/20 18/18/18
f 19/19/19 21/21/21 20/20/20
f 21/21/21 22/22/22 20/20/20
f 25/25/25 24/24/24 23/23/23
f 24/24/24 26/26/26 23/23/23
f 24/24/24 27/27/27 26/26/26
f 27/27/27 28/28/28 26/26/26
f 27/27/27 29/29/29 28/28/28
f 29/29/29 30/30/30 28/28/28
f 29/29/29 31/31/31 30/30/30
f 31/31/31 32/32/32 30/30/30
f 35/35/35 34/34/34 33/33/33
f 34/34/34 36/36/36 33/33/33
f 34/34/34 37/37/37 36/36/36
f 37/37/37 38/38/38 36/36/36
f 37/37/37 39/39/39 38/38/38
f 39/39/39 40/40/40 38/38/38
f 39/39/39 41/41/41 40/40/40
f 41/41/41 42/42/42 40/40/40
f 45/45/45 44/44/44 43/43/43
f 46/46/46 45/45/45 43/43/43
f 49/49/49 48/48/48 47/47/47
f 48/48/48 50/50/50 47/47/47
f 48/48/48 51/51/51 50/50/50
f 51/51/51 52/52/52 50/50/50
f 51/51/51 53/53/53 52/52/52
f 53/53/53 54/54/54 52/52/52
f 57/57/57 56/56/56 55/55/55
f 55/55/55 58/58/58 57/57/57
f 58/58/58 59/59/59 57/57/57
f 58/58/58 60/60/60 59/59/59
f 60/60/60 61/61/61 59/59/59
f 60/60/60 62/62/62 61/61/61
f 62/62/62 63/63/63 61/61/61
f 62/62/62 64/64/64 63/63/63
f 64/64/64 65/65/65 63/63/63
f 64/64/64 66/66/66 65/65/65
f 66/66/66 67/67/67 65/65/65
f 66/66/66 68/68/68 67/67/67
f 68/68/68 69/69/69 67/67/67
f 68/68/68 70/70/70 69/69/69
f 70/70/70 71/71/71 69/69/69
f 70/70/70 72/72/72 71/71/71
f 72/72/72 73/73/73 71/71/71
f 72/72/72 74/74/74 73/73/73
f 77/77/77 76/76/76 75/75/75
f 75/75/75 78/78/78 77/77/77
f 78/78/78 79/79/79 77/77/77
f 78/78/78 80/80/80 79/79/79
f 80/80/80 81/81/81 79/79/79
f 80/80/80 82/82/82 81/81/81
f 82/82/82 83/83/83 81/81/81
f 82/82/82 84/84/84 83/83/83
f 84/84/84 85/85/85 83/83/83
f 84/84/84 86/86/86 85/85/85
f 86/86/86 87/87/87 85/85/85
f 86/86/86 88/88/88 87/87/87
f 86/86/86 89/89/89 88/88/88
f 89/89/89 90/90/90 88/88/88
f 89/89/89 91/91/91 90/90/90
f 91/91/91 92/92/92 90/90/90
f 91/91/91 93/93/93 92/92/92
f 93/93/93 94/94/94 92/92/92
