g RubyShard
v 0 0 -0.0167
v -0.060042 -0.184793 0.342031
v 0.157195 -0.114207 0.342031
v 0.157195 -0.114207 0.342031
v 0.157195 0.114207 0.342031
v 0 0 -0.0167
v 0 0 -0.0167
v -0.194305 0 0.342031
v -0.060042 -0.184793 0.342031
v -0.186089 -0.114207 0.662641
v -0.060042 -0.184793 0.342031
v 0 0 -0.0167
v -0.060042 0.184793 0.342031
v -0.194305 0 0.342031
v -0.060042 0.184793 0.342031
v -0.186089 0.114207 0.662641
v 0 0 -0.0167
v 0.157195 0.114207 0.342031
v -0.060042 0.184793 0.342031
v 0.157195 -0.114207 0.342031
v 0.16541 0 0.662641
v 0.157195 0.114207 0.342031
v -0.060042 -0.184793 0.342031
v 0.031147 -0.184793 0.662641
v 0.157195 -0.114207 0.342031
v 0.157195 0.114207 0.342031
v 0.031147 0.184793 0.662641
v -0.060042 0.184793 0.342031
v 0.157195 -0.114207 0.342031
v 0.031147 -0.184793 0.662641
v 0.16541 0 0.662641
v 0.031147 -0.184793 0.662641
v 0 0 1.021372
v -0.060042 -0.184793 0.342031
v -0.186089 -0.114207 0.662641
v 0.031147 -0.184793 0.662641
v -0.194305 0 0.342031
v -0.186089 0.114207 0.662641
v -0.186089 -0.114207 0.662641
v -0.060042 0.184793 0.342031
v 0.031147 0.184793 0.662641
v -0.186089 0.114207 0.662641
v 0.157195 0.114207 0.342031
v 0.16541 0 0.662641
v 0.031147 0.184793 0.662641
v 0 0 1.021372
v 0.031147 0.184793 0.662641
v -0.186089 -0.114207 0.662641
v 0 0 1.021372
v 0.031147 -0.184793 0.662641
v -0.186089 0.114207 0.662641
v 0 0 1.021372
v -0.186089 -0.114207 0.662641
v 0.031147 0.184793 0.662641
v 0 0 1.021372
v -0.186089 0.114207 0.662641
vt 0.25002 0.514451
vt 0.182295 0.678465
vt 0.427331 0.678465
vt 0.427331 0.678465
vt 0.427331 0.678465
vt 0.25002 0.514451
vt 0.25002 0.514451
vt 0.030851 0.678465
vt 0.182295 0.678465
vt 0.07271 0.82505
vt 0.182295 0.678465
vt 0.25002 0.514451
vt 0.182295 0.678465
vt 0.030851 0.678465
vt 0.182295 0.678465
vt 0.07271 0.82505
vt 0.25002 0.514451
vt 0.427331 0.678465
vt 0.182295 0.678465
vt 0.427331 0.678465
vt 0.469189 0.82505
vt 0.427331 0.678465
vt 0.182295 0.678465
vt 0.317745 0.82505
vt 0.427331 0.678465
vt 0.427331 0.678465
vt 0.317745 0.82505
vt 0.182295 0.678465
vt 0.427331 0.678465
vt 0.317745 0.82505
vt 0.469189 0.82505
vt 0.317745 0.82505
vt 0.25002 0.989064
vt 0.182295 0.678465
vt 0.07271 0.82505
vt 0.317745 0.82505
vt 0.030851 0.678465
vt 0.07271 0.82505
vt 0.07271 0.82505
vt 0.182295 0.678465
vt 0.317745 0.82505
vt 0.07271 0.82505
vt 0.427331 0.678465
vt 0.469189 0.82505
vt 0.317745 0.82505
vt 0.25002 0.989064
vt 0.317745 0.82505
vt 0.07271 0.82505
vt 0.25002 0.989064
vt 0.317745 0.82505
vt 0.07271 0.82505
vt 0.25002 0.989064
vt 0.07271 0.82505
vt 0.317745 0.82505
vt 0.25002 0.989064
vt 0.07271 0.82505
vn 0.2830411 -0.8710935 -0.4013526
vn 0.2993906 -0.9214109 -0.2477242
vn 0.2993906 -0.9214109 -0.2477242
vn 0.9760485 0 -0.2175528
vn 0.9760485 0 -0.2175528
vn 0.9159226 0 -0.4013549
vn -0.7409914 -0.5383739 -0.4013546
vn -0.8970606 -0.3948103 -0.1985118
vn -0.7729425 -0.5615883 -0.2952597
vn -0.8091702 -0.5869168 -0.02778971
vn -0.6557356 -0.7338217 -0.1775284
vn -0.7409914 0.5383739 -0.4013546
vn -0.7729425 0.5615883 -0.2952597
vn -0.8970606 0.3948103 -0.1985117
vn -0.6557356 0.7338217 -0.1775284
vn -0.8091702 0.5869168 -0.0277897
vn 0.2830411 0.8710935 -0.4013526
vn 0.2993906 0.9214109 -0.2477242
vn 0.2993906 0.9214109 -0.2477242
vn 0.974346 -0.207626 -0.0868406
vn 0.9691482 0 0.2464793
vn 0.974346 0.207626 -0.0868406
vn 0.100756 -0.9845992 -0.1428726
vn 0.3053312 -0.9495807 0.07120049
vn 0.4976873 -0.8604802 -0.109001
vn 0.4976873 0.8604802 -0.109001
vn 0.3053311 0.9495807 0.07120048
vn 0.100756 0.9845992 -0.1428726
vn 0.8091699 -0.586917 0.02779201
vn 0.659076 -0.7351975 0.1584402
vn 0.8997741 -0.3977207 0.1795128
vn 0.7793214 -0.566223 0.2684209
vn 0.7579894 -0.550724 0.3495071
vn -0.3053321 -0.9495804 -0.07119925
vn -0.4978419 -0.8594708 0.1160313
vn -0.1000167 -0.9836325 0.1498786
vn -0.962484 0 -0.2713386
vn -0.9717727 0.2092586 0.1089434
vn -0.9717727 -0.2092586 0.1089434
vn -0.3053321 0.9495804 -0.07119925
vn -0.1000167 0.9836325 0.1498786
vn -0.4978419 0.8594708 0.1160313
vn 0.8091699 0.586917 0.02779201
vn 0.8997741 0.3977207 0.1795128
vn 0.659076 0.7351975 0.1584402
vn 0.7579894 0.550724 0.3495071
vn 0.7793214 0.566223 0.2684209
vn -0.2985839 -0.9189241 0.257733
vn -0.2804159 -0.86301 0.4202149
vn -0.2985839 -0.9189241 0.257733
vn -0.968397 0 0.2494137
vn -0.8876733 0 0.4604738
vn -0.968397 0 0.2494137
vn -0.2985839 0.9189241 0.257733
vn -0.2804159 0.86301 0.4202149
vn -0.2985839 0.9189241 0.257733
g RubyShard_0
f 3/3/3 2/2/2 1/1/1
f 6/6/6 5/5/5 4/4/4
f 9/9/9 8/8/8 7/7/7
f 11/11/11 10/10/10 8/8/8
f 14/14/14 13/13/13 12/12/12
f 14/14/14 16/16/16 15/15/15
f 19/19/19 18/18/18 17/17/17
f 22/22/22 21/21/21 20/20/20
f 25/25/25 24/24/24 23/23/23
f 28/28/28 27/27/27 26/26/26
f 31/31/31 30/30/30 29/29/29
f 31/31/31 33/33/33 32/32/32
f 36/36/36 35/35/35 34/34/34
f 39/39/39 38/38/38 37/37/37
f 42/42/42 41/41/41 40/40/40
f 45/45/45 44/44/44 43/43/43
f 47/47/47 46/46/46 44/44/44
f 50/50/50 49/49/49 48/48/48
f 53/53/53 52/52/52 51/51/51
f 56/56/56 55/55/55 54/54/54
