g SawBlade
v 0 0.270815 0.383888
v 0 -1.180025 0.417054
v -0.016653 -1.066694 0.289572
v -0.012827 -0.200519 0.27126
v 0 -1.364655 0.021288
v -0.016653 -1.176922 0.071051
v -0.016653 -1.168927 0.193754
v 0 -1.351264 0.243516
v 0 -1.180025 0.417054
v 0 -1.29678 0.366204
v -0.016653 -1.136399 0.261496
v -0.016653 -1.066694 0.289572
v 0 -1.29678 0.366204
v 0 -1.351264 0.243516
v -0.016653 -1.168927 0.193754
v -0.016653 -1.136399 0.261496
v -0.016653 -1.153219 0.00331
v -0.016653 -1.176922 0.071051
v 0 -1.364655 0.021288
v 0 -1.324953 -0.101399
v -0.016653 -1.087171 -0.024767
v -0.016653 -1.153219 0.00331
v 0 -1.324953 -0.101399
v 0 -1.214322 -0.152248
v -0.012827 -0.200519 -0.006455
v -0.016653 -1.087171 -0.024767
v 0 -1.214322 -0.152248
v 0 0.270815 -0.119083
v 0 0.270815 0.383888
v 0.012827 -0.200519 0.27126
v 0.016653 -1.066694 0.289572
v 0 -1.180025 0.417054
v 0 -1.364655 0.021288
v 0 -1.351264 0.243516
v 0.016653 -1.168927 0.193754
v 0.016653 -1.176922 0.071051
v 0 -1.180025 0.417054
v 0.016653 -1.066694 0.289572
v 0.016653 -1.136399 0.261496
v 0 -1.29678 0.366204
v 0 -1.29678 0.366204
v 0.016653 -1.136399 0.261496
v 0.016653 -1.168927 0.193754
v 0 -1.351264 0.243516
v 0.016653 -1.153219 0.00331
v 0 -1.324953 -0.101399
v 0 -1.364655 0.021288
v 0.016653 -1.176922 0.071051
v 0.016653 -1.087171 -0.024767
v 0 -1.214322 -0.152248
v 0 -1.324953 -0.101399
v 0.016653 -1.153219 0.00331
v 0.012827 -0.200519 -0.006455
v 0 0.270815 -0.119083
v 0 -1.214322 -0.152248
v 0.016653 -1.087171 -0.024767
vt 0.974555 0.54526
vt -0.002256 0.545258
vt 0.065955 0.469563
vt 0.699678 0.470952
vt 0.419812 0.542487
vt 0.395346 0.475926
vt 0.33346 0.475189
vt 0.3167 0.541705
vt 0.339741 0.542632
vt 0.431738 0.542268
vt 0.365637 0.458671
vt 0.306658 0.457571
vt 0.258619 0.539071
vt 0.3167 0.541705
vt 0.33346 0.475189
vt 0.281201 0.47658
vt 0.446142 0.477982
vt 0.395346 0.475926
vt 0.419812 0.542487
vt 0.47564 0.540714
vt 0.304244 0.454721
vt 0.360586 0.454754
vt 0.43359 0.540453
vt 0.345665 0.542465
vt 0.259468 0.472709
vt 0.908166 0.471357
vt 0.984443 0.544904
vt -0.015447 0.544904
vt 0.974555 0.54526
vt 0.699678 0.470952
vt 0.065955 0.469563
vt -0.002256 0.545258
vt 0.419812 0.542487
vt 0.3167 0.541705
vt 0.33346 0.475189
vt 0.395346 0.475926
vt 0.339741 0.542632
vt 0.306658 0.457571
vt 0.365637 0.458671
vt 0.431738 0.542268
vt 0.258619 0.539071
vt 0.281201 0.47658
vt 0.33346 0.475189
vt 0.3167 0.541705
vt 0.446142 0.477982
vt 0.47564 0.540714
vt 0.419812 0.542487
vt 0.395346 0.475926
vt 0.304244 0.454721
vt 0.345665 0.542465
vt 0.43359 0.540453
vt 0.360586 0.454754
vt 0.259468 0.472709
vt -0.015447 0.544904
vt 0.984443 0.544904
vt 0.908166 0.471357
vn -0.9932782 0.004210001 0.115675
vn -0.9932782 0.004210001 0.115675
vn -0.9932782 0.004210001 0.115675
vn -0.9932782 0.004210001 0.115675
vn -0.9959593 -0.08963404 0.005557002
vn -0.9959593 -0.08963404 0.005557002
vn -0.9959593 -0.08963404 0.005557002
vn -0.9959593 -0.08963404 0.005557002
vn -0.9946445 -0.04028902 0.09518005
vn -0.9946445 -0.04028902 0.09518005
vn -0.9946445 -0.04028902 0.09518005
vn -0.9946445 -0.04028902 0.09518005
vn -0.996098 -0.08027001 0.03667801
vn -0.996098 -0.08027001 0.03667801
vn -0.996098 -0.08027001 0.03667801
vn -0.996098 -0.08027001 0.03667801
vn -0.9963708 -0.08076099 -0.02688999
vn -0.9963708 -0.08076099 -0.02688999
vn -0.9963708 -0.08076099 -0.02688999
vn -0.9963708 -0.08076099 -0.02688999
vn -0.9950622 -0.04048201 -0.09062202
vn -0.9950622 -0.04048201 -0.09062202
vn -0.9950622 -0.04048201 -0.09062202
vn -0.9950622 -0.04048201 -0.09062202
vn -0.993236 0.004121 -0.11604
vn -0.993236 0.004121 -0.11604
vn -0.993236 0.004121 -0.11604
vn -0.993236 0.004121 -0.11604
vn 0.9932782 0.004210001 0.115675
vn 0.9932782 0.004210001 0.115675
vn 0.9932782 0.004210001 0.115675
vn 0.9932782 0.004210001 0.115675
vn 0.9959593 -0.08963404 0.005557002
vn 0.9959593 -0.08963404 0.005557002
vn 0.9959593 -0.08963404 0.005557002
vn 0.9959593 -0.08963404 0.005557002
vn 0.9946445 -0.04028898 0.09517995
vn 0.9946445 -0.04028898 0.09517995
vn 0.9946445 -0.04028898 0.09517995
vn 0.9946445 -0.04028898 0.09517995
vn 0.996098 -0.08027001 0.03667801
vn 0.996098 -0.08027001 0.03667801
vn 0.996098 -0.08027001 0.03667801
vn 0.996098 -0.08027001 0.03667801
vn 0.9963708 -0.08076099 -0.02688999
vn 0.9963708 -0.08076099 -0.02688999
vn 0.9963708 -0.08076099 -0.02688999
vn 0.9963708 -0.08076099 -0.02688999
vn 0.9950622 -0.04048201 -0.09062202
vn 0.9950622 -0.04048201 -0.09062202
vn 0.9950622 -0.04048201 -0.09062202
vn 0.9950622 -0.04048201 -0.09062202
vn 0.993236 0.004121 -0.11604
vn 0.993236 0.004121 -0.11604
vn 0.993236 0.004121 -0.11604
vn 0.993236 0.004121 -0.11604
g SawBlade_0
f 3/3/3 2/2/2 1/1/1
f 4/4/4 3/3/3 1/1/1
f 7/7/7 6/6/6 5/5/5
f 8/8/8 7/7/7 5/5/5
f 11/11/11 10/10/10 9/9/9
f 12/12/12 11/11/11 9/9/9
f 15/15/15 14/14/14 13/13/13
f 16/16/16 15/15/15 13/13/13
f 19/19/19 18/18/18 17/17/17
f 20/20/20 19/19/19 17/17/17
f 23/23/23 22/22/22 21/21/21
f 24/24/24 23/23/23 21/21/21
f 27/27/27 26/26/26 25/25/25
f 28/28/28 27/27/27 25/25/25
f 31/31/31 30/30/30 29/29/29
f 32/32/32 31/31/31 29/29/29
f 35/35/35 34/34/34 33/33/33
f 36/36/36 35/35/35 33/33/33
f 39/39/39 38/38/38 37/37/37
f 40/40/40 39/39/39 37/37/37
f 43/43/43 42/42/42 41/41/41
f 44/44/44 43/43/43 41/41/41
f 47/47/47 46/46/46 45/45/45
f 48/48/48 47/47/47 45/45/45
f 51/51/51 50/50/50 49/49/49
f 52/52/52 51/51/51 49/49/49
f 55/55/55 54/54/54 53/53/53
f 56/56/56 55/55/55 53/53/53
