g SCALLOP_Shell
v 0.261406 -0.223158 -0.0011
v 0.217707 -0.19743 -0.005385
v 0.215894 -0.194295 0.027667
v 0.259243 -0.219614 0.025965
v 0.255735 -0.213822 0.071362
v 0.213049 -0.18917 0.08672
v 0.230554 -0.136477 0.141654
v 0.268341 -0.198424 0.108307
v 0.288843 -0.226716 0.088707
v 0.281666 -0.255171 0.061495
v 0.28529 -0.262084 0.02594
v 0.287493 -0.266313 0.003594
v 0.29921 -0.241893 -0.006786
v 0.279494 -0.21384 -0.013676
v 0.330775 -0.181048 -0.015606
v 0.339579 -0.224462 -0.008335
v 0.374329 -0.183326 -0.005539
v 0.381006 -0.147284 -0.009299
v 0.24108 -0.147383 -0.022249
v 0.371505 -0.089164 -0.01001
v 0.321476 -0.106414 -0.019119
v 0.318376 0 -0.02029
v 0.368339 0 -0.010247
v 0.371505 0.089164 -0.01001
v 0.232873 0 -0.025759
v 0.111409 0 -0.025419
v 0.11135 -0.210615 -0.020233
v -0.049812 -0.278085 -0.016483
v 0.24108 0.147383 -0.022249
v 0.321476 0.106414 -0.019119
v 0.330775 0.181048 -0.015606
v 0.381006 0.147284 -0.009299
v 0.374329 0.183326 -0.005539
v 0.339579 0.224462 -0.008335
v 0.29921 0.241893 -0.006786
v 0.279494 0.21384 -0.013676
v 0.11135 0.210615 -0.020233
v 0.261406 0.223158 -0.0011
v 0.287493 0.266313 0.003594
v -0.049812 0.278085 -0.016483
v 0.28529 0.262084 0.02594
v -0.050187 0 -0.02166
v -0.256084 0 -0.01687
v -0.255157 0.27664 -0.011706
v -0.255157 -0.27664 -0.011706
v -0.380313 0.193769 -0.004761
v -0.380313 -0.193769 -0.004761
v -0.425581 0 -0.007741
v 0.259243 0.219614 0.025965
v 0.255735 0.213822 0.071362
v 0.281666 0.255171 0.061495
v 0.288843 0.226716 0.088707
v 0.268341 0.198424 0.108307
v 0.230554 0.136477 0.141654
v 0.213049 0.18917 0.08672
v 0.215894 0.194295 0.027667
v 0.217707 0.19743 -0.005385
v 0.261406 -0.223158 -0.0011
v 0.279494 -0.21384 -0.013676
v 0.24108 -0.147383 -0.022249
v 0.217707 -0.19743 -0.005385
v 0.261406 0.223158 -0.0011
v 0.217707 0.19743 -0.005385
v 0.24108 0.147383 -0.022249
v 0.279494 0.21384 -0.013676
v 0.111017 -0.267141 0.107482
v 0.213049 -0.18917 0.08672
v 0.215894 -0.194295 0.027667
v 0.230554 -0.136477 0.141654
v 0.111018 -0.274377 0.033739
v 0.111174 -0.278805 -0.004673
v -0.046247 -0.362272 0.039947
v 0.217707 -0.19743 -0.005385
v 0.24108 -0.147383 -0.022249
v 0.11135 -0.210615 -0.020233
v -0.049812 -0.278085 -0.016483
v -0.048688 -0.368118 -0.000954
v -0.252376 -0.366206 0.003785
v -0.255157 -0.27664 -0.011706
v -0.380313 -0.193769 -0.004761
v -0.421577 -0.250891 0.007721
v -0.477977 0 0.009033
v -0.413361 -0.246907 0.042113
v -0.425581 0 -0.007741
v -0.380313 0.193769 -0.004761
v -0.246759 -0.36039 0.042062
v -0.237324 -0.350885 0.115586
v -0.04192 -0.352718 0.12124
v -0.037969 -0.258834 0.197355
v 0.111075 -0.196035 0.176038
v 0.111094 0 0.19889
v -0.421577 0.250892 0.007721
v -0.252376 0.366206 0.003785
v -0.413361 0.246907 0.042113
v -0.255157 0.27664 -0.011706
v -0.049812 0.278085 -0.016483
v -0.468896 0 0.04213
v -0.45396 0 0.100226
v -0.399801 -0.240395 0.104066
v -0.349927 -0.182294 0.153122
v -0.228815 -0.257489 0.183946
v -0.225979 0 0.206732
v -0.388034 0 0.16215
v -0.349927 0.182294 0.153122
v -0.399801 0.240395 0.104066
v -0.237324 0.350885 0.115586
v -0.036651 0 0.222727
v -0.037969 0.258834 0.197355
v -0.228815 0.257489 0.183946
v -0.246759 0.36039 0.042062
v -0.046247 0.362272 0.039947
v -0.04192 0.352718 0.12124
v 0.111017 0.267141 0.107482
v 0.111075 0.196035 0.176038
v 0.230554 0.136477 0.141654
v -0.048688 0.368118 -0.000954
v 0.111174 0.278805 -0.004673
v 0.11135 0.210615 -0.020233
v 0.24108 0.147383 -0.022249
v 0.217707 0.19743 -0.005385
v 0.215894 0.194295 0.027667
v 0.111018 0.274377 0.033739
v 0.213049 0.18917 0.08672
v 0.222144 0 0.158483
v 0.301386 0 0.124767
v 0.304669 0.097605 0.121078
v 0.314518 0.166061 0.110013
v 0.35407 0.082631 0.091485
v 0.268341 0.198424 0.108307
v 0.288843 0.226716 0.088707
v 0.304669 -0.097605 0.121078
v 0.314518 -0.166061 0.110013
v 0.35407 -0.082631 0.091485
v 0.268341 -0.198424 0.108307
v 0.288843 -0.226716 0.088707
v 0.350858 0 0.092463
v 0.372596 0 0.056291
v 0.325812 0.20831 0.089433
v 0.33343 0.227294 0.057202
v 0.281666 0.255171 0.061495
v 0.28529 0.262084 0.02594
v 0.359976 0.17141 0.079258
v 0.363708 0.136474 0.088552
v 0.385353 0.129403 0.055994
v 0.375786 0.079351 0.056217
v 0.382368 0.081501 0.023875
v 0.378751 0.171576 0.056148
v 0.384896 0.176224 0.023816
v 0.33826 0.233452 0.024901
v 0.341192 0.237219 0.004111
v 0.287493 0.266313 0.003594
v 0.29921 0.241893 -0.006786
v 0.339579 0.224462 -0.008335
v 0.374329 0.183326 -0.005539
v 0.388631 0.179068 0.003008
v 0.39594 0.135053 0.002838
v 0.381006 0.147284 -0.009299
v 0.371505 0.089164 -0.01001
v 0.391936 0.132908 0.023653
v 0.386372 0.082816 0.00306
v 0.383183 0 0.003135
v 0.368339 0 -0.010247
v 0.371505 -0.089164 -0.01001
v 0.379179 0 0.023949
v 0.382368 -0.081501 0.023875
v 0.386372 -0.082816 0.00306
v 0.39594 -0.135053 0.002838
v 0.381006 -0.147284 -0.009299
v 0.374329 -0.183326 -0.005539
v 0.375786 -0.079351 0.056217
v 0.385353 -0.129403 0.055994
v 0.391936 -0.132908 0.023653
v 0.384896 -0.176224 0.023816
v 0.388631 -0.179068 0.003008
v 0.341192 -0.237219 0.004111
v 0.339579 -0.224462 -0.008335
v 0.29921 -0.241893 -0.006786
v 0.287493 -0.266313 0.003594
v 0.28529 -0.262084 0.02594
v 0.33826 -0.233452 0.024901
v 0.33343 -0.227294 0.057202
v 0.281666 -0.255171 0.061495
v 0.378751 -0.171576 0.056148
v 0.325812 -0.20831 0.089433
v 0.359976 -0.17141 0.079258
v 0.363708 -0.136475 0.088552
vt 0.030943 0.89737
vt 0.041675 0.898668
vt 0.041984 0.899015
vt 0.031423 0.897669
vt 0.032207 0.898158
vt 0.04249 0.899582
vt 0.043094 0.900259
vt 0.033143 0.898741
vt 0.023192 0.897223
vt 0.021924 0.896733
vt 0.020861 0.896324
vt 0.020211 0.896073
vt 0.022109 0.894117
vt 0.032204 0.895403
vt 0.036643 0.88991
vt 0.028691 0.888594
vt 0.037616 0.881287
vt 0.042672 0.882653
vt 0.036901 0.902223
vt 0.04982 0.883678
vt 0.046747 0.890896
vt 0.061152 0.891225
vt 0.061152 0.884019
vt 0.072484 0.883678
vt 0.061152 0.900363
vt 0.061152 0.913363
vt 0.023001 0.913363
vt 0.010779 0.930668
vt 0.085403 0.902223
vt 0.075557 0.890896
vt 0.085661 0.88991
vt 0.079633 0.882653
vt 0.084688 0.881287
vt 0.093613 0.888594
vt 0.100195 0.894117
vt 0.0901 0.895403
vt 0.099303 0.913363
vt 0.091361 0.89737
vt 0.102093 0.896073
vt 0.111525 0.930668
vt 0.101443 0.896324
vt 0.061152 0.930668
vt 0.061152 0.952716
vt 0.111263 0.952716
vt 0.011041 0.952716
vt 0.10476 0.977136
vt 0.017544 0.977136
vt 0.061152 0.977136
vt 0.090881 0.897669
vt 0.090097 0.898158
vt 0.100381 0.896733
vt 0.099112 0.897223
vt 0.089161 0.898741
vt 0.079211 0.900259
vt 0.079814 0.899582
vt 0.08032 0.899015
vt 0.080629 0.898668
vt 0.030943 0.89737
vt 0.032204 0.895403
vt 0.036901 0.902223
vt 0.041675 0.898668
vt 0.091361 0.89737
vt 0.080629 0.898668
vt 0.085403 0.902223
vt 0.0901 0.895403
vt 0.024989 0.913736
vt 0.04249 0.899582
vt 0.041984 0.899015
vt 0.040455 0.89971
vt 0.024009 0.913552
vt 0.02341 0.91344
vt 0.012111 0.930399
vt 0.041675 0.898668
vt 0.041464 0.898431
vt 0.023001 0.913363
vt 0.010779 0.930668
vt 0.01132 0.930559
vt 0.011578 0.95237
vt 0.011041 0.952716
vt 0.02682 0.971031
vt 0.027189 0.970489
vt 0.061152 0.976528
vt 0.027728 0.969695
vt 0.061152 0.977136
vt 0.095484 0.971031
vt 0.012366 0.951864
vt 0.013652 0.951038
vt 0.013404 0.930139
vt 0.026113 0.929905
vt 0.034615 0.913901
vt 0.061152 0.913955
vt 0.095116 0.970489
vt 0.110726 0.95237
vt 0.094576 0.969695
vt 0.111263 0.952716
vt 0.111525 0.930668
vt 0.061152 0.975639
vt 0.061152 0.974185
vt 0.02861 0.968398
vt 0.036475 0.963182
vt 0.026296 0.950297
vt 0.061152 0.95005
vt 0.061152 0.967283
vt 0.085829 0.963182
vt 0.093695 0.968398
vt 0.108652 0.951038
vt 0.061152 0.929827
vt 0.096191 0.929905
vt 0.096009 0.950297
vt 0.109938 0.951864
vt 0.110193 0.930399
vt 0.1089 0.930139
vt 0.097315 0.913736
vt 0.08769 0.913901
vt 0.081849 0.89971
vt 0.110985 0.930559
vt 0.098894 0.91344
vt 0.099303 0.913363
vt 0.08084 0.898431
vt 0.080629 0.898668
vt 0.08032 0.899015
vt 0.098295 0.913552
vt 0.079814 0.899582
vt 0.061152 0.90197
vt 0.061152 0.893405
vt 0.074365 0.893044
vt 0.083632 0.891963
vt 0.072338 0.887683
vt 0.089161 0.898741
vt 0.096941 0.89748
vt 0.047939 0.893044
vt 0.038672 0.891963
vt 0.049966 0.887683
vt 0.033143 0.898741
vt 0.025363 0.89748
vt 0.061152 0.88803
vt 0.061152 0.885613
vt 0.089351 0.890703
vt 0.091921 0.889807
vt 0.100381 0.896733
vt 0.101443 0.896324
vt 0.084356 0.887021
vt 0.079627 0.886645
vt 0.078669 0.884247
vt 0.071894 0.885271
vt 0.072185 0.884486
vt 0.084378 0.884954
vt 0.085008 0.884216
vt 0.092755 0.88921
vt 0.093265 0.888844
vt 0.102093 0.896073
vt 0.102537 0.895901
vt 0.093613 0.888594
vt 0.085656 0.883456
vt 0.085393 0.883764
vt 0.079434 0.882981
vt 0.079633 0.882653
vt 0.072484 0.883678
vt 0.079144 0.883462
vt 0.072363 0.884006
vt 0.061152 0.884347
vt 0.061152 0.884019
vt 0.04982 0.883678
vt 0.061152 0.884828
vt 0.050119 0.884486
vt 0.049941 0.884006
vt 0.04287 0.882981
vt 0.042672 0.882653
vt 0.036649 0.883456
vt 0.05041 0.885271
vt 0.043635 0.884247
vt 0.04316 0.883462
vt 0.037296 0.884216
vt 0.036911 0.883764
vt 0.02904 0.888844
vt 0.028691 0.888594
vt 0.019767 0.895901
vt 0.020211 0.896073
vt 0.020861 0.896324
vt 0.02955 0.88921
vt 0.030383 0.889807
vt 0.021924 0.896733
vt 0.037926 0.884954
vt 0.032953 0.890703
vt 0.037948 0.887021
vt 0.042677 0.886645
vn -0.5006258 -0.5804585 -0.6422163
vn 0.2230726 -0.5909092 -0.7752838
vn 0.3949305 -0.9137309 0.09552872
vn -0.6782603 -0.7338304 0.03815842
vn -0.5551814 -0.7574615 0.3435484
vn 0.4227143 -0.794481 0.436019
vn 0.3610075 -0.2393939 0.9013125
vn -0.02274311 -0.4907196 0.8710207
vn 0.04134429 -0.6481055 0.7604274
vn -0.2266484 -0.9099637 0.3472702
vn -0.2203709 -0.9616288 0.1634223
vn -0.1917609 -0.9431293 -0.2715416
vn 0.01979728 -0.3397278 -0.9403155
vn -0.04116951 -0.1709251 -0.9844236
vn 0.09766021 -0.07968601 -0.9920245
vn 0.2481432 -0.3034655 -0.9199639
vn 0.3835745 -0.2392147 -0.8919904
vn 0.2845373 -0.03074076 -0.958172
vn 0.01768176 -0.05493645 -0.9983333
vn 0.287867 0.01098766 -0.9576074
vn 0.09087761 -0.0214387 -0.9956313
vn 0.09714436 0 -0.9952703
vn 0.3140338 0 -0.9494118
vn 0.287867 -0.01098766 -0.9576074
vn 0.01473175 0 -0.9998915
vn -0.01314717 0 -0.9999136
vn 0.0133747 -0.06919476 -0.9975135
vn -0.009839558 -0.06619896 -0.997758
vn 0.01768176 0.05493644 -0.9983333
vn 0.0908776 0.02143869 -0.9956313
vn 0.09766021 0.07968602 -0.9920245
vn 0.2845373 0.03074076 -0.958172
vn 0.3835745 0.2392147 -0.8919904
vn 0.2481432 0.3034655 -0.9199639
vn 0.01979728 0.3397278 -0.9403155
vn -0.04116949 0.1709251 -0.9844236
vn 0.0133747 0.06919476 -0.9975135
vn -0.5006258 0.5804585 -0.6422163
vn -0.1917608 0.9431293 -0.2715416
vn -0.00983956 0.06619896 -0.997758
vn -0.2203709 0.9616288 0.1634223
vn -0.02148617 0 -0.9997692
vn -0.03736392 0 -0.9993018
vn -0.04839235 0.06446853 -0.9967457
vn -0.04839244 -0.06446858 -0.9967457
vn -0.1174691 0.05286893 -0.9916682
vn -0.1174691 -0.05286909 -0.9916682
vn -0.1273386 0 -0.9918594
vn -0.6782603 0.7338304 0.03815842
vn -0.5551814 0.7574615 0.3435484
vn -0.2266485 0.9099637 0.3472702
vn 0.04134429 0.6481055 0.7604274
vn -0.02274309 0.4907196 0.8710207
vn 0.3610074 0.2393938 0.9013125
vn 0.4227143 0.794481 0.4360189
vn 0.3949306 0.9137309 0.09552874
vn 0.2230727 0.5909092 -0.7752838
vn -0.5006258 -0.5804585 -0.6422163
vn -0.04116951 -0.1709251 -0.9844236
vn 0.01768176 -0.05493645 -0.9983333
vn 0.2230726 -0.5909092 -0.7752838
vn -0.5006258 0.5804585 -0.6422163
vn 0.2230727 0.5909092 -0.7752838
vn 0.01768176 0.05493644 -0.9983333
vn -0.04116949 0.1709251 -0.9844236
vn 0.4983365 -0.7517802 0.4318419
vn 0.4227143 -0.794481 0.436019
vn 0.3949305 -0.9137309 0.09552872
vn 0.3610075 -0.2393939 0.9013125
vn 0.5376465 -0.83851 0.08852724
vn 0.3243478 -0.5681133 -0.7563371
vn 0.2325127 -0.9658821 0.1140593
vn 0.2230726 -0.5909092 -0.7752838
vn 0.01768176 -0.05493645 -0.9983333
vn 0.0133747 -0.06919476 -0.9975135
vn -0.009839558 -0.06619896 -0.997758
vn 0.1090334 -0.6000695 -0.7924824
vn -0.1904702 -0.5928828 -0.7824392
vn -0.04839244 -0.06446858 -0.9967457
vn -0.1174691 -0.05286909 -0.9916682
vn -0.6471058 -0.4129786 -0.6408609
vn -0.8036951 0 -0.5950414
vn -0.8182811 -0.5229339 0.238655
vn -0.1273386 0 -0.9918594
vn -0.1174691 0.05286893 -0.9916682
vn -0.2831696 -0.9436817 0.171114
vn -0.2370243 -0.7993047 0.5522062
vn 0.184558 -0.8329028 0.5217386
vn 0.06774712 -0.2978487 0.9522061
vn 0.3055322 -0.2879781 0.9075894
vn 0.2315518 0 0.9728225
vn -0.647103 0.4129814 -0.6408619
vn -0.1904697 0.5928832 -0.782439
vn -0.8182815 0.522932 0.2386579
vn -0.04839235 0.06446853 -0.9967457
vn -0.00983956 0.06619896 -0.997758
vn -0.9684901 0 0.2490522
vn -0.8499624 0 0.5268434
vn -0.7112001 -0.4626032 0.5293324
vn -0.4183494 -0.1904901 0.8880863
vn -0.1723512 -0.2741916 0.9461046
vn -0.1560414 0 0.9877506
vn -0.4407102 0 0.8976495
vn -0.4183494 0.1904901 0.8880864
vn -0.7112001 0.4626032 0.5293325
vn -0.2370243 0.7993046 0.5522062
vn 0.02522078 0 0.9996819
vn 0.06774712 0.2978487 0.9522061
vn -0.1723512 0.2741916 0.9461046
vn -0.2831691 0.9436814 0.1711158
vn 0.2325128 0.9658821 0.1140592
vn 0.1845581 0.8329028 0.5217388
vn 0.4983366 0.7517802 0.4318419
vn 0.3055321 0.2879781 0.9075894
vn 0.3610074 0.2393938 0.9013125
vn 0.1090334 0.6000695 -0.7924824
vn 0.3243478 0.5681133 -0.7563371
vn 0.0133747 0.06919476 -0.9975135
vn 0.01768176 0.05493644 -0.9983333
vn 0.2230727 0.5909092 -0.7752838
vn 0.3949306 0.9137309 0.09552874
vn 0.5376465 0.8385102 0.0885272
vn 0.4227143 0.794481 0.4360189
vn 0.3373844 0 0.9413669
vn 0.412154 0 0.9111142
vn 0.3905405 0.07359865 0.917639
vn 0.3568591 0.2098461 0.9102836
vn 0.6464329 -0.01880283 0.762739
vn -0.02274309 0.4907196 0.8710207
vn 0.04134429 0.6481055 0.7604274
vn 0.3905405 -0.07359858 0.917639
vn 0.3568588 -0.2098458 0.9102837
vn 0.6464331 0.01880283 0.762739
vn -0.02274311 -0.4907196 0.8710207
vn 0.04134429 -0.6481055 0.7604274
vn 0.6705806 0 0.7418367
vn 0.9223523 0 0.3863498
vn 0.4628835 0.4997541 0.7321098
vn 0.6026176 0.7053181 0.3733344
vn -0.2266485 0.9099637 0.3472702
vn -0.2203709 0.9616288 0.1634223
vn 0.6543598 0.3514661 0.6695408
vn 0.6275746 0.05118952 0.7768719
vn 0.9203268 -0.03685422 0.3894101
vn 0.9168053 -0.08077874 0.3910789
vn 0.9776364 -0.09478328 0.1877318
vn 0.8312903 0.4164028 0.3681916
vn 0.8602259 0.4575995 0.2249758
vn 0.6364197 0.7371489 0.2271157
vn 0.6235624 0.7645972 -0.1629759
vn -0.1917608 0.9431293 -0.2715416
vn 0.01979728 0.3397278 -0.9403155
vn 0.2481432 0.3034655 -0.9199639
vn 0.3835745 0.2392147 -0.8919904
vn 0.8841473 0.4482024 -0.1319027
vn 0.9418762 -0.03611707 -0.3340134
vn 0.2845373 0.03074076 -0.958172
vn 0.287867 -0.01098766 -0.9576074
vn 0.9809276 -0.02436829 0.19284
vn 0.9308167 -0.08354616 -0.3558095
vn 0.9463925 0 -0.323019
vn 0.3140338 0 -0.9494118
vn 0.287867 0.01098766 -0.9576074
vn 0.9809836 0 0.1940908
vn 0.9776364 0.09478327 0.1877318
vn 0.9308167 0.08354616 -0.3558095
vn 0.9418762 0.03611706 -0.3340134
vn 0.2845373 -0.03074076 -0.958172
vn 0.3835745 -0.2392147 -0.8919904
vn 0.9168051 0.08077855 0.3910797
vn 0.9203267 0.03685537 0.3894107
vn 0.9809276 0.02436827 0.19284
vn 0.8602259 -0.4575995 0.2249758
vn 0.8841473 -0.4482023 -0.1319026
vn 0.6235625 -0.7645971 -0.1629758
vn 0.2481432 -0.3034655 -0.9199639
vn 0.01979728 -0.3397278 -0.9403155
vn -0.1917609 -0.9431293 -0.2715416
vn -0.2203709 -0.9616288 0.1634223
vn 0.6364197 -0.7371489 0.2271157
vn 0.6026174 -0.7053181 0.3733344
vn -0.2266484 -0.9099637 0.3472702
vn 0.8312903 -0.4164038 0.3681903
vn 0.462883 -0.4997552 0.7321094
vn 0.6543599 -0.3514688 0.6695393
vn 0.627574 -0.05119098 0.7768722
g SCALLOP_Shell_0
f 3/3/3 2/2/2 1/1/1
f 4/4/4 3/3/3 1/1/1
f 3/3/3 4/4/4 5/5/5
f 6/6/6 3/3/3 5/5/5
f 7/7/7 6/6/6 5/5/5
f 8/8/8 7/7/7 5/5/5
f 9/9/9 8/8/8 5/5/5
f 10/10/10 9/9/9 5/5/5
f 11/11/11 10/10/10 5/5/5
f 4/4/4 11/11/11 5/5/5
f 11/11/11 4/4/4 1/1/1
f 12/12/12 11/11/11 1/1/1
f 13/13/13 12/12/12 1/1/1
f 14/14/14 13/13/13 1/1/1
f 13/13/13 14/14/14 15/15/15
f 16/16/16 13/13/13 15/15/15
f 17/17/17 16/16/16 15/15/15
f 18/18/18 17/17/17 15/15/15
f 14/14/14 19/19/19 15/15/15
f 20/20/20 18/18/18 15/15/15
f 21/21/21 20/20/20 15/15/15
f 19/19/19 21/21/21 15/15/15
f 20/20/20 21/21/21 22/22/22
f 21/21/21 19/19/19 22/22/22
f 23/23/23 20/20/20 22/22/22
f 24/24/24 23/23/23 22/22/22
f 19/19/19 25/25/25 22/22/22
f 25/25/25 19/19/19 26/26/26
f 19/19/19 27/27/27 26/26/26
f 27/27/27 28/28/28 26/26/26
f 25/25/25 29/29/29 22/22/22
f 29/29/29 25/25/25 26/26/26
f 30/30/30 24/24/24 22/22/22
f 29/29/29 30/30/30 22/22/22
f 24/24/24 30/30/30 31/31/31
f 30/30/30 29/29/29 31/31/31
f 32/32/32 24/24/24 31/31/31
f 33/33/33 32/32/32 31/31/31
f 34/34/34 33/33/33 31/31/31
f 35/35/35 34/34/34 31/31/31
f 29/29/29 36/36/36 31/31/31
f 36/36/36 35/35/35 31/31/31
f 37/37/37 29/29/29 26/26/26
f 35/35/35 36/36/36 38/38/38
f 39/39/39 35/35/35 38/38/38
f 40/40/40 37/37/37 26/26/26
f 41/41/41 39/39/39 38/38/38
f 42/42/42 40/40/40 26/26/26
f 40/40/40 42/42/42 43/43/43
f 28/28/28 42/42/42 26/26/26
f 42/42/42 28/28/28 43/43/43
f 44/44/44 40/40/40 43/43/43
f 28/28/28 45/45/45 43/43/43
f 46/46/46 44/44/44 43/43/43
f 45/45/45 47/47/47 43/43/43
f 48/48/48 46/46/46 43/43/43
f 47/47/47 48/48/48 43/43/43
f 49/49/49 41/41/41 38/38/38
f 41/41/41 49/49/49 50/50/50
f 51/51/51 41/41/41 50/50/50
f 52/52/52 51/51/51 50/50/50
f 53/53/53 52/52/52 50/50/50
f 54/54/54 53/53/53 50/50/50
f 55/55/55 54/54/54 50/50/50
f 56/56/56 55/55/55 50/50/50
f 49/49/49 56/56/56 50/50/50
f 56/56/56 49/49/49 38/38/38
f 57/57/57 56/56/56 38/38/38
f 60/60/60 59/59/59 58/58/58
f 61/61/61 60/60/60 58/58/58
f 64/64/64 63/63/63 62/62/62
f 65/65/65 64/64/64 62/62/62
f 68/68/68 67/67/67 66/66/66
f 67/67/67 69/69/69 66/66/66
f 70/70/70 68/68/68 66/66/66
f 68/68/68 70/70/70 71/71/71
f 72/72/72 70/70/70 66/66/66
f 70/70/70 72/72/72 71/71/71
f 73/73/73 68/68/68 71/71/71
f 74/74/74 73/73/73 71/71/71
f 75/75/75 74/74/74 71/71/71
f 76/76/76 75/75/75 71/71/71
f 77/77/77 76/76/76 71/71/71
f 72/72/72 77/77/77 71/71/71
f 76/76/76 77/77/77 78/78/78
f 77/77/77 72/72/72 78/78/78
f 79/79/79 76/76/76 78/78/78
f 80/80/80 79/79/79 78/78/78
f 81/81/81 80/80/80 78/78/78
f 80/80/80 81/81/81 82/82/82
f 83/83/83 81/81/81 78/78/78
f 81/81/81 83/83/83 82/82/82
f 84/84/84 80/80/80 82/82/82
f 85/85/85 84/84/84 82/82/82
f 72/72/72 86/86/86 78/78/78
f 86/86/86 83/83/83 78/78/78
f 86/86/86 72/72/72 87/87/87
f 83/83/83 86/86/86 87/87/87
f 72/72/72 88/88/88 87/87/87
f 88/88/88 89/89/89 87/87/87
f 88/88/88 72/72/72 66/66/66
f 89/89/89 88/88/88 66/66/66
f 90/90/90 89/89/89 66/66/66
f 89/89/89 90/90/90 91/91/91
f 69/69/69 90/90/90 66/66/66
f 90/90/90 69/69/69 91/91/91
f 92/92/92 85/85/85 82/82/82
f 85/85/85 92/92/92 93/93/93
f 94/94/94 92/92/92 82/82/82
f 92/92/92 94/94/94 93/93/93
f 95/95/95 85/85/85 93/93/93
f 96/96/96 95/95/95 93/93/93
f 83/83/83 97/97/97 82/82/82
f 97/97/97 94/94/94 82/82/82
f 97/97/97 83/83/83 98/98/98
f 94/94/94 97/97/97 98/98/98
f 83/83/83 99/99/99 98/98/98
f 99/99/99 83/83/83 87/87/87
f 100/100/100 99/99/99 87/87/87
f 99/99/99 100/100/100 98/98/98
f 101/101/101 100/100/100 87/87/87
f 100/100/100 101/101/101 102/102/102
f 89/89/89 101/101/101 87/87/87
f 101/101/101 89/89/89 102/102/102
f 100/100/100 103/103/103 98/98/98
f 103/103/103 100/100/100 102/102/102
f 103/103/103 104/104/104 98/98/98
f 104/104/104 103/103/103 102/102/102
f 105/105/105 94/94/94 98/98/98
f 104/104/104 105/105/105 98/98/98
f 94/94/94 105/105/105 106/106/106
f 105/105/105 104/104/104 106/106/106
f 89/89/89 107/107/107 102/102/102
f 107/107/107 108/108/108 102/102/102
f 107/107/107 89/89/89 91/91/91
f 108/108/108 107/107/107 91/91/91
f 109/109/109 104/104/104 102/102/102
f 104/104/104 109/109/109 106/106/106
f 108/108/108 109/109/109 102/102/102
f 109/109/109 108/108/108 106/106/106
f 110/110/110 94/94/94 106/106/106
f 111/111/111 110/110/110 106/106/106
f 94/94/94 110/110/110 93/93/93
f 110/110/110 111/111/111 93/93/93
f 108/108/108 112/112/112 106/106/106
f 112/112/112 111/111/111 106/106/106
f 112/112/112 108/108/108 113/113/113
f 111/111/111 112/112/112 113/113/113
f 114/114/114 108/108/108 91/91/91
f 108/108/108 114/114/114 113/113/113
f 115/115/115 114/114/114 91/91/91
f 114/114/114 115/115/115 113/113/113
f 111/111/111 116/116/116 93/93/93
f 116/116/116 111/111/111 117/117/117
f 116/116/116 96/96/96 93/93/93
f 96/96/96 116/116/116 117/117/117
f 118/118/118 96/96/96 117/117/117
f 119/119/119 118/118/118 117/117/117
f 120/120/120 119/119/119 117/117/117
f 121/121/121 120/120/120 117/117/117
f 111/111/111 122/122/122 117/117/117
f 122/122/122 121/121/121 117/117/117
f 122/122/122 111/111/111 113/113/113
f 121/121/121 122/122/122 113/113/113
f 123/123/123 121/121/121 113/113/113
f 115/115/115 123/123/123 113/113/113
f 124/124/124 115/115/115 91/91/91
f 115/115/115 124/124/124 125/125/125
f 69/69/69 124/124/124 91/91/91
f 124/124/124 69/69/69 125/125/125
f 126/126/126 115/115/115 125/125/125
f 115/115/115 126/126/126 127/127/127
f 128/128/128 126/126/126 125/125/125
f 126/126/126 128/128/128 127/127/127
f 129/129/129 115/115/115 127/127/127
f 130/130/130 129/129/129 127/127/127
f 69/69/69 131/131/131 125/125/125
f 131/131/131 69/69/69 132/132/132
f 131/131/131 133/133/133 125/125/125
f 133/133/133 131/131/131 132/132/132
f 69/69/69 134/134/134 132/132/132
f 134/134/134 135/135/135 132/132/132
f 136/136/136 128/128/128 125/125/125
f 133/133/133 136/136/136 125/125/125
f 128/128/128 136/136/136 137/137/137
f 136/136/136 133/133/133 137/137/137
f 138/138/138 130/130/130 127/127/127
f 130/130/130 138/138/138 139/139/139
f 140/140/140 130/130/130 139/139/139
f 141/141/141 140/140/140 139/139/139
f 142/142/142 138/138/138 127/127/127
f 138/138/138 142/142/142 139/139/139
f 128/128/128 143/143/143 127/127/127
f 143/143/143 142/142/142 127/127/127
f 143/143/143 128/128/128 144/144/144
f 142/142/142 143/143/143 144/144/144
f 145/145/145 128/128/128 137/137/137
f 128/128/128 145/145/145 144/144/144
f 146/146/146 145/145/145 137/137/137
f 145/145/145 146/146/146 144/144/144
f 142/142/142 147/147/147 139/139/139
f 147/147/147 142/142/142 144/144/144
f 147/147/147 148/148/148 139/139/139
f 148/148/148 147/147/147 144/144/144
f 149/149/149 141/141/141 139/139/139
f 148/148/148 149/149/149 139/139/139
f 141/141/141 149/149/149 150/150/150
f 149/149/149 148/148/148 150/150/150
f 151/151/151 141/141/141 150/150/150
f 152/152/152 151/151/151 150/150/150
f 153/153/153 152/152/152 150/150/150
f 154/154/154 153/153/153 150/150/150
f 155/155/155 154/154/154 150/150/150
f 148/148/148 155/155/155 150/150/150
f 154/154/154 155/155/155 156/156/156
f 155/155/155 148/148/148 156/156/156
f 157/157/157 154/154/154 156/156/156
f 158/158/158 157/157/157 156/156/156
f 159/159/159 148/148/148 144/144/144
f 148/148/148 159/159/159 156/156/156
f 146/146/146 159/159/159 144/144/144
f 159/159/159 146/146/146 156/156/156
f 160/160/160 158/158/158 156/156/156
f 146/146/146 160/160/160 156/156/156
f 158/158/158 160/160/160 161/161/161
f 160/160/160 146/146/146 161/161/161
f 162/162/162 158/158/158 161/161/161
f 163/163/163 162/162/162 161/161/161
f 146/146/146 164/164/164 161/161/161
f 164/164/164 165/165/165 161/161/161
f 164/164/164 146/146/146 137/137/137
f 165/165/165 164/164/164 137/137/137
f 166/166/166 163/163/163 161/161/161
f 165/165/165 166/166/166 161/161/161
f 163/163/163 166/166/166 167/167/167
f 166/166/166 165/165/165 167/167/167
f 168/168/168 163/163/163 167/167/167
f 169/169/169 168/168/168 167/167/167
f 170/170/170 165/165/165 137/137/137
f 165/165/165 170/170/170 171/171/171
f 133/133/133 170/170/170 137/137/137
f 170/170/170 133/133/133 171/171/171
f 165/165/165 172/172/172 167/167/167
f 172/172/172 165/165/165 171/171/171
f 172/172/172 173/173/173 167/167/167
f 173/173/173 172/172/172 171/171/171
f 174/174/174 169/169/169 167/167/167
f 173/173/173 174/174/174 167/167/167
f 169/169/169 174/174/174 175/175/175
f 174/174/174 173/173/173 175/175/175
f 176/176/176 169/169/169 175/175/175
f 177/177/177 176/176/176 175/175/175
f 178/178/178 177/177/177 175/175/175
f 179/179/179 178/178/178 175/175/175
f 180/180/180 179/179/179 175/175/175
f 173/173/173 180/180/180 175/175/175
f 179/179/179 180/180/180 181/181/181
f 180/180/180 173/173/173 181/181/181
f 182/182/182 179/179/179 181/181/181
f 135/135/135 182/182/182 181/181/181
f 183/183/183 173/173/173 171/171/171
f 173/173/173 183/183/183 181/181/181
f 184/184/184 135/135/135 181/181/181
f 135/135/135 184/184/184 132/132/132
f 183/183/183 185/185/185 181/181/181
f 185/185/185 184/184/184 181/181/181
f 185/185/185 183/183/183 171/171/171
f 184/184/184 185/185/185 132/132/132
f 186/186/186 185/185/185 171/171/171
f 185/185/185 186/186/186 132/132/132
f 133/133/133 186/186/186 171/171/171
f 186/186/186 133/133/133 132/132/132
