g ScarecrowFace
v 0.170959 0.055173 -0.303755
v -0.170959 0.055173 -0.303755
v -0.276618 -0.055173 -0.116024
v 0.276618 -0.055173 -0.116024
v -0.276618 -0.055173 0.116024
v 0.276618 -0.055173 0.116024
v -0.170959 0.055173 0.303755
v 0.170959 0.055173 0.303755
vt 0.809017 0
vt 0.190983 0
vt 0 0.309017
vt 1 0.309017
vt 0 0.690983
vt 1 0.690983
vt 0.190983 1
vt 0.809017 1
vn 0 -0.8621027 -0.5067335
vn 0 -0.8621027 -0.5067335
vn 0 -0.9829758 -0.1837351
vn 0 -0.9829758 -0.1837351
vn 0 -0.9829758 0.1837351
vn 0 -0.9829758 0.1837351
vn 0 -0.8621027 0.5067335
vn 0 -0.8621027 0.5067335
g ScarecrowFace_0
f 3/3/3 2/2/2 1/1/1
f 4/4/4 3/3/3 1/1/1
f 5/5/5 3/3/3 4/4/4
f 6/6/6 5/5/5 4/4/4
f 7/7/7 5/5/5 6/6/6
f 8/8/8 7/7/7 6/6/6
