g Screwdriver
v 0.523245 -0.012868 0.005107
v 0.523245 0.012868 -0.005107
v 0.523245 -0.012868 -0.005107
v -0.071624 0.017945 -0.039987
v -0.006249 -0.021529 -0.047973
v -0.006249 0.021529 -0.047973
v -0.071624 -0.017945 -0.039987
v -0.136663 0.023055 -0.052323
v -0.006249 -0.047973 -0.021529
v -0.136663 -0.023055 -0.052323
v -0.480326 0.022991 -0.052133
v -0.071624 -0.039987 -0.017945
v -0.071624 -0.039987 0.017945
v -0.006249 -0.047973 0.021529
v -0.006249 -0.021529 0.047973
v -0.071624 -0.017945 0.039987
v -0.006249 0.021529 0.047973
v -0.136663 -0.052323 0.023055
v -0.136663 -0.052323 -0.023055
v -0.480326 -0.022991 -0.052133
v -0.071624 0.017945 0.039987
v -0.006249 0.047973 0.021529
v -0.136663 -0.023055 0.052323
v -0.523154 -0.01584 -0.035969
v -0.523154 0.01584 -0.035969
v -0.523154 -0.035969 -0.01584
v -0.480326 -0.052133 -0.022991
v -0.523154 -0.035969 0.01584
v -0.480326 -0.052133 0.022991
v -0.523154 -0.01584 0.035969
v -0.480326 -0.022991 0.052133
v -0.523154 0.01584 0.035969
v -0.136663 0.023055 0.052323
v -0.480326 0.022991 0.052133
v -0.523154 0.035969 0.01584
v -0.071624 0.039987 0.017945
v -0.480326 0.052133 0.022991
v -0.523154 0.035969 -0.01584
v -0.136663 0.052323 0.023055
v -0.480326 0.052133 -0.022991
v -0.523154 0.01584 -0.035969
v -0.480326 0.022991 -0.052133
v -0.136663 0.023055 -0.052323
v -0.136663 0.052323 -0.023055
v -0.071624 0.017945 -0.039987
v -0.071624 0.039987 -0.017945
v -0.006249 0.047973 -0.021529
v -0.006249 0.021529 -0.047973
v -0.523154 -0.01584 0.035969
v -0.523154 -0.035969 0.01584
v -0.523154 -0.035969 -0.01584
v -0.523154 -0.01584 -0.035969
v -0.523154 0.01584 0.035969
v -0.523154 0.01584 -0.035969
v -0.523154 0.035969 0.01584
v -0.523154 0.035969 -0.01584
v -0.006249 -0.007603 -0.015019
v 0.399508 0.007603 -0.015019
v -0.006249 0.007603 -0.015019
v 0.399508 -0.007603 -0.015019
v 0.523245 0.012868 -0.005107
v 0.523245 -0.012868 -0.005107
v -0.006249 0.015019 -0.007603
v -0.006249 0.021529 -0.047973
v -0.006249 0.007603 -0.015019
v -0.006249 0.047973 -0.021529
v -0.006249 0.015019 0.007603
v -0.006249 0.047973 0.021529
v -0.006249 0.007603 0.015019
v -0.006249 0.021529 0.047973
v -0.006249 -0.007603 0.015019
v -0.006249 -0.021529 0.047973
v -0.006249 -0.015019 0.007603
v -0.006249 -0.047973 0.021529
v -0.006249 -0.015019 -0.007603
v -0.006249 -0.047973 -0.021529
v -0.006249 -0.007603 -0.015019
v -0.006249 -0.021529 -0.047973
v -0.006249 0.007603 -0.015019
v -0.006249 0.021529 -0.047973
v 0.399508 0.007603 0.015019
v 0.523245 0.012868 0.005107
v 0.523245 -0.012868 0.005107
v 0.399508 -0.007603 0.015019
v -0.006249 0.007603 0.015019
v -0.006249 -0.007603 0.015019
v -0.006249 0.015019 0.007603
v 0.399508 0.007603 0.015019
v -0.006249 0.007603 0.015019
v 0.399508 0.015019 0.007603
v 0.523245 0.012868 0.005107
v 0.523245 0.025419 0.002585
v 0.399508 0.015019 -0.007603
v 0.523245 0.025419 0.002585
v 0.523245 0.025419 -0.002585
v -0.006249 -0.007603 0.015019
v 0.399508 -0.015019 0.007603
v -0.006249 -0.015019 0.007603
v 0.399508 -0.007603 0.015019
v 0.523245 -0.025419 0.002585
v 0.523245 -0.012868 0.005107
v -0.006249 -0.015019 0.007603
v 0.399508 -0.015019 -0.007603
v -0.006249 -0.015019 -0.007603
v 0.399508 -0.015019 0.007603
v 0.523245 -0.025419 -0.002585
v 0.523245 -0.025419 0.002585
v -0.006249 0.015019 -0.007603
v 0.399508 0.015019 -0.007603
v 0.399508 0.015019 0.007603
v -0.006249 0.015019 0.007603
v -0.006249 0.007603 -0.015019
v 0.399508 0.015019 -0.007603
v -0.006249 0.015019 -0.007603
v 0.399508 0.007603 -0.015019
v 0.523245 0.025419 -0.002585
v 0.523245 0.012868 -0.005107
v -0.006249 -0.015019 -0.007603
v 0.399508 -0.007603 -0.015019
v -0.006249 -0.007603 -0.015019
v 0.399508 -0.015019 -0.007603
v 0.523245 -0.012868 -0.005107
v 0.523245 -0.025419 -0.002585
v 0.523245 -0.012868 -0.005107
v 0.523245 -0.025419 -0.002585
v 0.523245 -0.025419 0.002585
v 0.523245 -0.012868 0.005107
v 0.523245 -0.012868 0.005107
v 0.523245 0.012868 0.005107
v 0.523245 0.012868 -0.005107
v 0.523245 0.025419 -0.002585
v 0.523245 0.025419 0.002585
vt 0.723912 0.400042
vt 0.724361 0.399845
vt 0.723912 0.400344
vt 0.723162 0.487803
vt 0.747384 0.49557
vt 0.746174 0.4861
vt 0.722899 0.496477
vt 0.699149 0.485497
vt 0.748014 0.503919
vt 0.698529 0.495663
vt 0.587755 0.488748
vt 0.722637 0.504421
vt 0.723437 0.513842
vt 0.748302 0.51354
vt 0.748461 0.521873
vt 0.723206 0.52203
vt 0.748423 0.531528
vt 0.698351 0.513805
vt 0.698506 0.50433
vt 0.591554 0.498523
vt 0.722926 0.531489
vt 0.748199 0.539982
vt 0.698531 0.522301
vt 0.575041 0.501314
vt 0.570928 0.493751
vt 0.577248 0.508407
vt 0.593649 0.506774
vt 0.578774 0.516458
vt 0.595014 0.515642
vt 0.579582 0.523723
vt 0.595671 0.523414
vt 0.580044 0.531738
vt 0.698734 0.531682
vt 0.595844 0.531982
vt 0.579825 0.538791
vt 0.722609 0.53958
vt 0.595363 0.539735
vt 0.57856 0.546368
vt 0.698979 0.540081
vt 0.593726 0.548509
vt 0.575677 0.552676
vt 0.590877 0.55707
vt 0.7 0.55814
vt 0.699232 0.549588
vt 0.722881 0.55607
vt 0.7231 0.548683
vt 0.747544 0.549557
vt 0.746345 0.55814
vt 0.620292 0.464081
vt 0.619917 0.461403
vt 0.617532 0.458994
vt 0.612696 0.45873
vt 0.619706 0.467209
vt 0.59991 0.463933
vt 0.617185 0.469596
vt 0.611087 0.469576
vt 0.580272 0.398006
vt 0.713307 0.399877
vt 0.580421 0.39728
vt 0.71326 0.400366
vt 0.724361 0.399845
vt 0.723912 0.400344
vt 0.711687 0.467756
vt 0.712066 0.480877
vt 0.71495 0.469179
vt 0.704754 0.474994
vt 0.708198 0.464616
vt 0.70059 0.469021
vt 0.706441 0.46216
vt 0.69841 0.464563
vt 0.704712 0.458427
vt 0.697 0.459492
vt 0.704153 0.455815
vt 0.696653 0.455058
vt 0.704221 0.452153
vt 0.697602 0.450136
vt 0.705033 0.449791
vt 0.699353 0.445625
vt 0.707893 0.447275
vt 0.704832 0.439023
vt 0.713263 0.400406
vt 0.724485 0.40053
vt 0.723912 0.400042
vt 0.713294 0.399925
vt 0.579189 0.398092
vt 0.57826 0.397233
vt 0.579878 0.397336
vt 0.713263 0.400406
vt 0.579189 0.398092
vt 0.713282 0.399907
vt 0.724485 0.40053
vt 0.725578 0.4004
vt 0.713301 0.400383
vt 0.725578 0.4004
vt 0.725092 0.399851
vt 0.57826 0.397233
vt 0.713278 0.400397
vt 0.57919 0.397972
vt 0.713294 0.399925
vt 0.72393 0.400032
vt 0.723912 0.400042
vt 0.57919 0.397972
vt 0.713267 0.399894
vt 0.579881 0.3972
vt 0.713278 0.400397
vt 0.723924 0.400374
vt 0.72393 0.400032
vt 0.58027 0.398092
vt 0.713301 0.400383
vt 0.713282 0.399907
vt 0.579878 0.397336
vt 0.580421 0.39728
vt 0.713301 0.400383
vt 0.58027 0.398092
vt 0.713307 0.399877
vt 0.725092 0.399851
vt 0.724361 0.399845
vt 0.579881 0.3972
vt 0.71326 0.400366
vt 0.580272 0.398006
vt 0.713267 0.399894
vt 0.723912 0.400344
vt 0.723924 0.400374
vt 0.723912 0.400344
vt 0.723924 0.400374
vt 0.72393 0.400032
vt 0.723912 0.400042
vt 0.723912 0.400042
vt 0.724485 0.40053
vt 0.724361 0.399845
vt 0.725092 0.399851
vt 0.725578 0.4004
vn 1 0 0
vn 1 0 0
vn 1 0 0
vn 0.04060477 0.3567519 -0.9333163
vn -0.1324962 -0.3533718 -0.9260525
vn -0.1324962 0.3533718 -0.9260525
vn 0.04060477 -0.3567519 -0.9333163
vn 0.02768234 0.3613046 -0.9320368
vn -0.1324962 -0.9260525 -0.3533719
vn 0.02768234 -0.3613046 -0.9320368
vn -0.03636746 0.361781 -0.9315535
vn 0.04060477 -0.9333163 -0.3567519
vn 0.04060477 -0.9333163 0.3567519
vn -0.1324962 -0.9260525 0.3533719
vn -0.1324962 -0.3533719 0.9260525
vn 0.04060477 -0.3567519 0.9333163
vn -0.1324962 0.3533719 0.9260525
vn 0.02768234 -0.9320369 0.3613046
vn 0.02768234 -0.9320368 -0.3613046
vn -0.03636746 -0.361781 -0.9315535
vn 0.04060476 0.3567519 0.9333163
vn -0.1324962 0.9260525 0.3533719
vn 0.02768234 -0.3613046 0.9320368
vn -0.3811097 -0.3327927 -0.862557
vn -0.3811096 0.3327926 -0.862557
vn -0.3811096 -0.862557 -0.3327926
vn -0.03636746 -0.9315535 -0.3617809
vn -0.3811096 -0.862557 0.3327926
vn -0.03636746 -0.9315535 0.361781
vn -0.3811096 -0.3327927 0.862557
vn -0.03636746 -0.361781 0.9315535
vn -0.3811096 0.3327926 0.862557
vn 0.02768234 0.3613046 0.9320368
vn -0.03636746 0.361781 0.9315535
vn -0.3811096 0.862557 0.3327926
vn 0.04060476 0.9333163 0.3567519
vn -0.03636746 0.9315535 0.3617809
vn -0.3811096 0.862557 -0.3327926
vn 0.02768234 0.9320368 0.3613046
vn -0.03636746 0.9315535 -0.3617809
vn -0.3811096 0.3327926 -0.862557
vn -0.03636746 0.361781 -0.9315535
vn 0.02768234 0.3613046 -0.9320368
vn 0.02768234 0.9320368 -0.3613046
vn 0.04060477 0.3567519 -0.9333163
vn 0.04060477 0.9333163 -0.3567519
vn -0.1324962 0.9260525 -0.3533719
vn -0.1324962 0.3533718 -0.9260525
vn -1 0 0
vn -1 0 0
vn -1 0 0
vn -1 0 0
vn -1 0 0
vn -1 0 0
vn -1 0 0
vn -1 0 0
vn 0 -0.3115109 -0.9502426
vn 0.01801037 0.2671515 -0.9634862
vn 0 0.3115109 -0.9502426
vn 0.01801037 -0.2671515 -0.9634862
vn 0.06156919 0.167435 -0.9839587
vn 0.0615692 -0.167435 -0.9839587
vn 1 0 0
vn 1 0 0
vn 1 0 0
vn 1 0 0
vn 1 0 0
vn 1 0 0
vn 1 0 0
vn 1 0 0
vn 1 0 0
vn 1 0 0
vn 1 0 0
vn 1 0 0
vn 1 0 0
vn 1 0 0
vn 1 0 0
vn 1 0 0
vn 1 0 0
vn 1 0 0
vn 0.01801037 0.2671515 0.9634862
vn 0.06156919 0.167435 0.9839587
vn 0.06156919 -0.167435 0.9839587
vn 0.01801037 -0.2671515 0.9634862
vn 0 0.3115109 0.9502426
vn 0 -0.3115109 0.9502426
vn 0 0.9502426 0.3115109
vn 0.01801037 0.2671515 0.9634862
vn 0 0.3115109 0.9502426
vn -0.005530073 0.9315982 0.3634474
vn 0.06156919 0.167435 0.9839587
vn 0.02579589 0.4454326 0.8949438
vn -0.005530073 0.9315982 -0.3634474
vn -0.08375394 0.9964865 0
vn -0.08375394 0.9964865 0
vn 0 -0.3115109 0.9502426
vn -0.005530073 -0.9315982 0.3634474
vn 0 -0.9502426 0.3115109
vn 0.01801037 -0.2671515 0.9634862
vn 0.02579589 -0.4454326 0.8949438
vn 0.06156919 -0.167435 0.9839587
vn 0 -0.9502426 0.3115109
vn -0.005530071 -0.9315982 -0.3634474
vn 0 -0.9502426 -0.3115109
vn -0.005530073 -0.9315982 0.3634474
vn -0.08375394 -0.9964865 0
vn -0.08375394 -0.9964865 0
vn 0 0.9502426 -0.3115109
vn -0.005530073 0.9315982 -0.3634474
vn -0.005530073 0.9315982 0.3634474
vn 0 0.9502426 0.3115109
vn 0 0.3115109 -0.9502426
vn -0.005530073 0.9315982 -0.3634474
vn 0 0.9502426 -0.3115109
vn 0.01801037 0.2671515 -0.9634862
vn 0.02579588 0.4454326 -0.8949438
vn 0.06156919 0.167435 -0.9839587
vn 0 -0.9502426 -0.3115109
vn 0.01801037 -0.2671515 -0.9634862
vn 0 -0.3115109 -0.9502426
vn -0.005530071 -0.9315982 -0.3634474
vn 0.0615692 -0.167435 -0.9839587
vn 0.02579589 -0.4454326 -0.8949438
vn 1 0 0
vn 1 0 0
vn 1 0 0
vn 1 0 0
vn 1 0 0
vn 1 0 0
vn 1 0 0
vn 1 0 0
vn 1 0 0
g Screwdriver_0
f 3/3/3 2/2/2 1/1/1
f 6/6/6 5/5/5 4/4/4
f 5/5/5 7/7/7 4/4/4
f 4/4/4 7/7/7 8/8/8
f 5/5/5 9/9/9 7/7/7
f 7/7/7 10/10/10 8/8/8
f 8/8/8 10/10/10 11/11/11
f 9/9/9 12/12/12 7/7/7
f 7/7/7 12/12/12 10/10/10
f 13/13/13 12/12/12 9/9/9
f 14/14/14 13/13/13 9/9/9
f 13/13/13 14/14/14 15/15/15
f 16/16/16 13/13/13 15/15/15
f 16/16/16 15/15/15 17/17/17
f 13/13/13 18/18/18 12/12/12
f 18/18/18 13/13/13 16/16/16
f 12/12/12 19/19/19 10/10/10
f 18/18/18 19/19/19 12/12/12
f 10/10/10 20/20/20 11/11/11
f 10/10/10 19/19/19 20/20/20
f 21/21/21 16/16/16 17/17/17
f 17/17/17 22/22/22 21/21/21
f 23/23/23 18/18/18 16/16/16
f 23/23/23 16/16/16 21/21/21
f 20/20/20 24/24/24 11/11/11
f 24/24/24 25/25/25 11/11/11
f 26/26/26 24/24/24 20/20/20
f 27/27/27 26/26/26 20/20/20
f 19/19/19 27/27/27 20/20/20
f 28/28/28 26/26/26 27/27/27
f 18/18/18 29/29/29 19/19/19
f 29/29/29 27/27/27 19/19/19
f 29/29/29 28/28/28 27/27/27
f 29/29/29 18/18/18 23/23/23
f 30/30/30 28/28/28 29/29/29
f 31/31/31 30/30/30 29/29/29
f 31/31/31 29/29/29 23/23/23
f 32/32/32 30/30/30 31/31/31
f 33/33/33 23/23/23 21/21/21
f 31/31/31 23/23/23 33/33/33
f 34/34/34 32/32/32 31/31/31
f 34/34/34 31/31/31 33/33/33
f 35/35/35 32/32/32 34/34/34
f 21/21/21 36/36/36 33/33/33
f 22/22/22 36/36/36 21/21/21
f 37/37/37 35/35/35 34/34/34
f 38/38/38 35/35/35 37/37/37
f 33/33/33 39/39/39 34/34/34
f 39/39/39 37/37/37 34/34/34
f 36/36/36 39/39/39 33/33/33
f 40/40/40 38/38/38 37/37/37
f 37/37/37 39/39/39 40/40/40
f 41/41/41 38/38/38 40/40/40
f 42/42/42 41/41/41 40/40/40
f 42/42/42 40/40/40 43/43/43
f 39/39/39 44/44/44 40/40/40
f 40/40/40 44/44/44 43/43/43
f 39/39/39 36/36/36 44/44/44
f 43/43/43 44/44/44 45/45/45
f 36/36/36 22/22/22 46/46/46
f 36/36/36 46/46/46 44/44/44
f 44/44/44 46/46/46 45/45/45
f 22/22/22 47/47/47 46/46/46
f 45/45/45 46/46/46 48/48/48
f 46/46/46 47/47/47 48/48/48
f 51/51/51 50/50/50 49/49/49
f 49/49/49 52/52/52 51/51/51
f 49/49/49 53/53/53 52/52/52
f 53/53/53 54/54/54 52/52/52
f 53/53/53 55/55/55 54/54/54
f 55/55/55 56/56/56 54/54/54
f 59/59/59 58/58/58 57/57/57
f 58/58/58 60/60/60 57/57/57
f 58/58/58 61/61/61 60/60/60
f 61/61/61 62/62/62 60/60/60
f 65/65/65 64/64/64 63/63/63
f 64/64/64 66/66/66 63/63/63
f 63/63/63 66/66/66 67/67/67
f 66/66/66 68/68/68 67/67/67
f 67/67/67 68/68/68 69/69/69
f 68/68/68 70/70/70 69/69/69
f 69/69/69 70/70/70 71/71/71
f 70/70/70 72/72/72 71/71/71
f 71/71/71 72/72/72 73/73/73
f 72/72/72 74/74/74 73/73/73
f 73/73/73 74/74/74 75/75/75
f 74/74/74 76/76/76 75/75/75
f 75/75/75 76/76/76 77/77/77
f 76/76/76 78/78/78 77/77/77
f 77/77/77 78/78/78 79/79/79
f 78/78/78 80/80/80 79/79/79
f 83/83/83 82/82/82 81/81/81
f 84/84/84 83/83/83 81/81/81
f 84/84/84 81/81/81 85/85/85
f 86/86/86 84/84/84 85/85/85
f 89/89/89 88/88/88 87/87/87
f 88/88/88 90/90/90 87/87/87
f 88/88/88 91/91/91 90/90/90
f 91/91/91 92/92/92 90/90/90
f 90/90/90 94/94/94 93/93/93
f 94/94/94 95/95/95 93/93/93
f 98/98/98 97/97/97 96/96/96
f 97/97/97 99/99/99 96/96/96
f 97/97/97 100/100/100 99/99/99
f 100/100/100 101/101/101 99/99/99
f 104/104/104 103/103/103 102/102/102
f 103/103/103 105/105/105 102/102/102
f 103/103/103 106/106/106 105/105/105
f 106/106/106 107/107/107 105/105/105
f 110/110/110 109/109/109 108/108/108
f 111/111/111 110/110/110 108/108/108
f 114/114/114 113/113/113 112/112/112
f 113/113/113 115/115/115 112/112/112
f 113/113/113 116/116/116 115/115/115
f 116/116/116 117/117/117 115/115/115
f 120/120/120 119/119/119 118/118/118
f 119/119/119 121/121/121 118/118/118
f 119/119/119 122/122/122 121/121/121
f 122/122/122 123/123/123 121/121/121
f 126/126/126 125/125/125 124/124/124
f 124/124/124 127/127/127 126/126/126
f 130/130/130 129/129/129 128/128/128
f 130/130/130 131/131/131 129/129/129
f 131/131/131 132/132/132 129/129/129
