g ShopBuildingInterior
v -4.526521 0 5.919003
v -4.526521 3.041186 4.495298
v -4.526521 3.041186 0.021679
v -4.526521 0 0.021679
v -4.526521 -3.041186 4.495298
v -4.526521 -3.041186 0.021679
v -4.526521 3.041186 4.495298
v 4.526521 3.041186 4.495298
v 4.526521 3.041186 0.021679
v -4.526521 3.041186 0.021679
v 4.526521 0 5.919003
v 4.526521 -3.041186 4.495298
v 4.526521 -3.041186 0.021679
v 4.526521 0 0.021679
v 4.526521 3.041186 4.495298
v 4.526521 3.041186 0.021679
v 4.526521 -3.041186 4.495298
v -4.526521 -3.041186 4.495298
v -4.526521 -3.041186 0.021679
v 4.526521 -3.041186 0.021679
v -4.526521 0 0.021679
v -4.526521 3.041186 0.021679
v 4.526521 3.041186 0.021679
v 4.526521 0 0.021679
v -4.526521 -3.041186 0.021679
v 4.526521 -3.041186 0.021679
vt 0.5 9.8E-05
vt 0.999902 0.234123
vt 0.999902 0.969484
vt 0.5 0.969484
vt 9.8E-05 0.234123
vt 9.8E-05 0.969484
vt 7E-05 7E-05
vt 0.99993 7E-05
vt 0.99993 0.494157
vt 7E-05 0.494157
vt 0.5 0.969484
vt 9.8E-05 0.735459
vt 9.8E-05 9.8E-05
vt 0.5 9.8E-05
vt 0.999902 0.735459
vt 0.999902 9.8E-05
vt 0.99993 0.735314
vt 7E-05 0.735314
vt 7E-05 7E-05
vt 0.99993 7E-05
vt -2.144504 0.335956
vt -2.144504 -1.440778
vt 3.144504 -1.440778
vt 3.144504 0.335956
vt -2.144504 2.112691
vt 3.144504 2.11269
vn 1 0 0
vn 1 0 0
vn 1 0 0
vn 1 0 0
vn 1 0 0
vn 1 0 0
vn 0 -1 0
vn 0 -1 0
vn 0 -1 0
vn 0 -1 0
vn -1 0 0
vn -1 0 0
vn -1 0 0
vn -1 0 0
vn -1 0 0
vn -1 0 0
vn 0 1 0
vn 0 1 0
vn 0 1 0
vn 0 1 0
vn 0 0 1
vn 0 0 1
vn 0 0 1
vn 0 0 1
vn 0 0 1
vn 0 0 1
g ShopBuildingInterior_0
f 3/3/3 2/2/2 1/1/1
f 4/4/4 3/3/3 1/1/1
f 4/4/4 1/1/1 5/5/5
f 6/6/6 4/4/4 5/5/5
f 9/9/9 8/8/8 7/7/7
f 10/10/10 9/9/9 7/7/7
f 13/13/13 12/12/12 11/11/11
f 14/14/14 13/13/13 11/11/11
f 14/14/14 11/11/11 15/15/15
f 16/16/16 14/14/14 15/15/15
f 19/19/19 18/18/18 17/17/17
f 20/20/20 19/19/19 17/17/17
g ShopBuildingInterior_1
f 23/23/23 22/22/22 21/21/21
f 24/24/24 23/23/23 21/21/21
f 24/24/24 21/21/21 25/25/25
f 26/26/26 24/24/24 25/25/25
