g ShopBuilding
v -4.526521 0 5.919003
v -4.526521 3.041186 0.021679
v -4.526521 3.041186 4.495298
v -4.526521 0 0.021679
v -4.526521 -3.041186 4.495298
v -4.526521 -3.041186 0.021679
v -4.526521 3.041186 4.495298
v -4.526521 3.041186 0.021679
v 4.526521 3.041186 0.021679
v 4.526521 3.041186 4.495298
v 4.526521 0 5.919003
v 4.526521 -3.041186 0.021679
v 4.526521 -3.041186 4.495298
v 4.526521 0 0.021679
v 4.526521 3.041186 4.495298
v 4.526521 3.041186 0.021679
v 4.526521 -3.041186 4.495298
v 4.526521 -3.041186 0.021679
v -4.526521 -3.041186 0.021679
v -4.526521 -3.041186 4.495298
v -4.526521 0 0.021679
v 4.526521 3.041186 0.021679
v -4.526521 3.041186 0.021679
v 4.526521 0 0.021679
v -4.526521 -3.041186 0.021679
v 4.526521 -3.041186 0.021679
v -4.775983 -3.041186 4.66759
v -4.775983 -3.197174 4.594631
v -4.775983 -3.197174 4.42234
v -4.775983 -3.041186 4.495298
v -4.775983 0 5.919003
v -4.775983 0 6.091294
v -4.775983 3.041186 4.495298
v -4.775983 3.041186 4.66759
v -4.775983 3.197174 4.594631
v -4.775983 3.197174 4.42234
v 4.775983 3.041186 4.66759
v 4.775983 3.197174 4.594631
v 4.775983 3.197174 4.42234
v 4.775983 3.041186 4.495298
v 4.775983 0 5.919003
v 4.775983 0 6.091294
v 4.775983 -3.041186 4.495298
v 4.775983 -3.041186 4.66759
v 4.775983 -3.197174 4.594631
v 4.775983 -3.197174 4.42234
v -4.775983 3.041186 4.66759
v -4.775983 3.197174 4.594631
v -4.526521 3.197174 4.594631
v -4.526521 3.041186 4.66759
v 4.526521 3.197174 4.594631
v -4.526521 0 6.091294
v -4.775983 0 6.091294
v 4.526521 3.041186 4.66759
v 4.775983 3.197174 4.594631
v 4.775983 3.041186 4.66759
v 4.775983 0 6.091294
v 4.526521 0 6.091294
v 4.775983 -3.041186 4.66759
v -4.526521 -3.041186 4.66759
v -4.775983 -3.041186 4.66759
v -4.775983 -3.197174 4.594631
v -4.526521 -3.197174 4.594631
v 4.526521 -3.041186 4.66759
v 4.526521 -3.197174 4.594631
v 4.775983 -3.197174 4.594631
v -4.526521 -3.197174 4.42234
v -4.775983 -3.197174 4.42234
v -4.775983 -3.197174 4.594631
v -4.526521 -3.197174 4.594631
v 4.526521 -3.197174 4.594631
v 4.526521 -3.197174 4.42234
v 4.775983 -3.197174 4.42234
v 4.775983 -3.197174 4.594631
v -4.526521 3.197174 4.594631
v -4.775983 3.197174 4.594631
v -4.775983 3.197174 4.42234
v -4.526521 3.197174 4.42234
v 4.526521 3.197174 4.42234
v 4.526521 3.197174 4.594631
v 4.775983 3.197174 4.594631
v 4.775983 3.197174 4.42234
v 4.775983 3.041186 4.495298
v 4.775983 3.197174 4.42234
v 4.526521 3.197174 4.42234
v 4.526521 3.041186 4.495298
v -4.526521 3.197174 4.42234
v 4.526521 0 5.919003
v 4.775983 0 5.919003
v -4.526521 3.041186 4.495298
v 4.526521 -3.041186 4.495298
v -4.775983 3.197174 4.42234
v -4.775983 3.041186 4.495298
v -4.775983 0 5.919003
v -4.526521 0 5.919003
v 4.775983 -3.041186 4.495298
v 4.775983 -3.197174 4.42234
v 4.526521 -3.197174 4.42234
v -4.775983 -3.041186 4.495298
v -4.526521 -3.041186 4.495298
v -4.526521 -3.197174 4.42234
v -4.775983 -3.197174 4.42234
vt 0.5 9.8E-05
vt 0.999902 0.969484
vt 0.999902 0.234123
vt 0.5 0.969484
vt 9.8E-05 0.234123
vt 9.8E-05 0.969484
vt 7E-05 7E-05
vt 7E-05 0.494157
vt 0.99993 0.494157
vt 0.99993 7E-05
vt 0.5 0.969484
vt 9.8E-05 9.8E-05
vt 9.8E-05 0.735459
vt 0.5 9.8E-05
vt 0.999902 0.735459
vt 0.999902 9.8E-05
vt 0.99993 0.735314
vt 0.99993 7E-05
vt 7E-05 7E-05
vt 7E-05 0.735314
vt 0 0
vt 0 0
vt 0 0
vt 0 0
vt 0 0
vt 0 0
vt 0.024443 0.22268
vt 5.1E-05 0.234089
vt 5.1E-05 0.26103
vt 0.024443 0.249621
vt 0.499987 0.026993
vt 0.499987 5.1E-05
vt 0.975556 0.249621
vt 0.975556 0.222679
vt 0.999949 0.234088
vt 0.999949 0.26103
vt 0.975557 0.038401
vt 0.999949 0.026992
vt 0.999949 5.1E-05
vt 0.975557 0.01146
vt 0.500013 0.234088
vt 0.500014 0.26103
vt 0.024444 0.01146
vt 0.024445 0.038402
vt 5.1E-05 0.026994
vt 5.1E-05 5.1E-05
vt 9.2E-05 0.721072
vt 9.2E-05 0.739096
vt 0.026202 0.739096
vt 0.026202 0.721072
vt 0.973802 0.739091
vt 0.026201 0.369596
vt 8.9E-05 0.369597
vt 0.973802 0.721066
vt 0.999914 0.739091
vt 0.999914 0.721065
vt 0.999911 0.369586
vt 0.973799 0.369586
vt 0.999908 0.01811
vt 0.026198 0.018117
vt 8.6E-05 0.018117
vt 8.6E-05 9.2E-05
vt 0.026198 9.1E-05
vt 0.973798 0.018111
vt 0.973798 8.6E-05
vt 0.999908 8.6E-05
vt 0.026127 1.5E-05
vt 1.3E-05 1.5E-05
vt 1.3E-05 0.01805
vt 0.026127 0.01805
vt 0.973871 0.01805
vt 0.973871 1.3E-05
vt 0.999987 1.3E-05
vt 0.999987 0.01805
vt 0.026129 1.3E-05
vt 1.3E-05 1.3E-05
vt 1.3E-05 0.01805
vt 0.026129 0.01805
vt 0.973873 0.01805
vt 0.973873 1.5E-05
vt 0.999987 1.5E-05
vt 0.999987 0.01805
vt 0 0
vt 0 0
vt 0 0
vt 0 0
vt 0 0
vt 0 0
vt 0 0
vt 0 0
vt 0 0
vt 0 0
vt 0 0
vt 0 0
vt 0 0
vt 0 0
vt 0 0
vt 0 0
vt 0 0
vt 0 0
vt 0 0
vt 0 0
vn -1 0 0
vn -1 0 0
vn -1 0 0
vn -1 0 0
vn -1 0 0
vn -1 0 0
vn 0 1 0
vn 0 1 0
vn 0 1 0
vn 0 1 0
vn 1 0 0
vn 1 0 0
vn 1 0 0
vn 1 0 0
vn 1 0 0
vn 1 0 0
vn 0 -1 0
vn 0 -1 0
vn 0 -1 0
vn 0 -1 0
vn 0 0 -1
vn 0 0 -1
vn 0 0 -1
vn 0 0 -1
vn 0 0 -1
vn 0 0 -1
vn -1 0 0
vn -1 0 0
vn -1 0 0
vn -1 0 0
vn -1 0 0
vn -1 0 0
vn -1 0 0
vn -1 0 0
vn -1 0 0
vn -1 0 0
vn 1 0 0
vn 1 0 0
vn 1 0 0
vn 1 0 0
vn 1 0 0
vn 1 0 0
vn 1 0 0
vn 1 0 0
vn 1 0 0
vn 1 0 0
vn 0 0.4238258 0.9057437
vn 0 0.8437032 0.53681
vn 0 0.8437032 0.53681
vn 0 0.4238258 0.9057437
vn 0 0.8437032 0.53681
vn 0 0 1
vn 0 0 1
vn 0 0.4238258 0.9057437
vn 0 0.8437032 0.53681
vn 0 0.4238258 0.9057437
vn 0 0 1
vn 0 0 1
vn 0 -0.4238258 0.9057437
vn 0 -0.4238258 0.9057437
vn 0 -0.4238258 0.9057437
vn 0 -0.8437032 0.53681
vn 0 -0.8437032 0.53681
vn 0 -0.4238258 0.9057437
vn 0 -0.8437032 0.53681
vn 0 -0.8437032 0.53681
vn 0 -1 0
vn 0 -1 0
vn 0 -0.8437032 0.53681
vn 0 -0.8437032 0.53681
vn 0 -0.8437032 0.53681
vn 0 -1 0
vn 0 -1 0
vn 0 -0.8437032 0.53681
vn 0 0.8437032 0.53681
vn 0 0.8437032 0.53681
vn 0 1 0
vn 0 1 0
vn 0 1 0
vn 0 0.8437032 0.53681
vn 0 0.8437032 0.53681
vn 0 1 0
vn 0 -0.4238237 -0.9057447
vn 0 -0.4236655 -0.9058188
vn 0 -0.4236655 -0.9058188
vn 0 -0.423771 -0.9057695
vn 0 -0.4236655 -0.9058188
vn 0 0 -1
vn 0 0 -1
vn 0 -0.423771 -0.9057695
vn 0 0.423771 -0.9057695
vn 0 -0.4236655 -0.9058188
vn 0 -0.4238237 -0.9057447
vn 0 0 -1
vn 0 0 -1
vn 0 0.4238237 -0.9057447
vn 0 0.4236655 -0.9058188
vn 0 0.4236655 -0.9058188
vn 0 0.4238237 -0.9057447
vn 0 0.423771 -0.9057695
vn 0 0.4236655 -0.9058188
vn 0 0.4236655 -0.9058188
g ShopBuilding_0
f 3/3/3 2/2/2 1/1/1
f 2/2/2 4/4/4 1/1/1
f 1/1/1 4/4/4 5/5/5
f 4/4/4 6/6/6 5/5/5
f 9/9/9 8/8/8 7/7/7
f 10/10/10 9/9/9 7/7/7
f 13/13/13 12/12/12 11/11/11
f 12/12/12 14/14/14 11/11/11
f 11/11/11 14/14/14 15/15/15
f 14/14/14 16/16/16 15/15/15
f 19/19/19 18/18/18 17/17/17
f 20/20/20 19/19/19 17/17/17
g ShopBuilding_1
f 23/23/23 22/22/22 21/21/21
f 22/22/22 24/24/24 21/21/21
f 21/21/21 24/24/24 25/25/25
f 24/24/24 26/26/26 25/25/25
f 29/29/29 28/28/28 27/27/27
f 30/30/30 29/29/29 27/27/27
f 30/30/30 27/27/27 31/31/31
f 27/27/27 32/32/32 31/31/31
f 31/31/31 32/32/32 33/33/33
f 32/32/32 34/34/34 33/33/33
f 34/34/34 35/35/35 33/33/33
f 35/35/35 36/36/36 33/33/33
f 39/39/39 38/38/38 37/37/37
f 40/40/40 39/39/39 37/37/37
f 40/40/40 37/37/37 41/41/41
f 37/37/37 42/42/42 41/41/41
f 41/41/41 42/42/42 43/43/43
f 42/42/42 44/44/44 43/43/43
f 44/44/44 45/45/45 43/43/43
f 45/45/45 46/46/46 43/43/43
f 49/49/49 48/48/48 47/47/47
f 50/50/50 49/49/49 47/47/47
f 51/51/51 49/49/49 50/50/50
f 50/50/50 47/47/47 52/52/52
f 47/47/47 53/53/53 52/52/52
f 54/54/54 51/51/51 50/50/50
f 55/55/55 51/51/51 54/54/54
f 56/56/56 55/55/55 54/54/54
f 57/57/57 56/56/56 54/54/54
f 54/54/54 50/50/50 58/58/58
f 58/58/58 57/57/57 54/54/54
f 50/50/50 52/52/52 58/58/58
f 59/59/59 57/57/57 58/58/58
f 52/52/52 53/53/53 60/60/60
f 53/53/53 61/61/61 60/60/60
f 61/61/61 62/62/62 60/60/60
f 62/62/62 63/63/63 60/60/60
f 58/58/58 52/52/52 64/64/64
f 52/52/52 60/60/60 64/64/64
f 60/60/60 63/63/63 64/64/64
f 64/64/64 59/59/59 58/58/58
f 63/63/63 65/65/65 64/64/64
f 64/64/64 65/65/65 59/59/59
f 65/65/65 66/66/66 59/59/59
f 69/69/69 68/68/68 67/67/67
f 70/70/70 69/69/69 67/67/67
f 71/71/71 70/70/70 67/67/67
f 72/72/72 71/71/71 67/67/67
f 72/72/72 73/73/73 71/71/71
f 73/73/73 74/74/74 71/71/71
f 77/77/77 76/76/76 75/75/75
f 78/78/78 77/77/77 75/75/75
f 78/78/78 75/75/75 79/79/79
f 75/75/75 80/80/80 79/79/79
f 80/80/80 81/81/81 79/79/79
f 81/81/81 82/82/82 79/79/79
f 85/85/85 84/84/84 83/83/83
f 86/86/86 85/85/85 83/83/83
f 87/87/87 85/85/85 86/86/86
f 86/86/86 83/83/83 88/88/88
f 83/83/83 89/89/89 88/88/88
f 90/90/90 87/87/87 86/86/86
f 88/88/88 89/89/89 91/91/91
f 92/92/92 87/87/87 90/90/90
f 93/93/93 92/92/92 90/90/90
f 94/94/94 93/93/93 90/90/90
f 95/95/95 94/94/94 90/90/90
f 89/89/89 96/96/96 91/91/91
f 96/96/96 97/97/97 91/91/91
f 97/97/97 98/98/98 91/91/91
f 99/99/99 94/94/94 95/95/95
f 91/91/91 98/98/98 100/100/100
f 100/100/100 99/99/99 95/95/95
f 98/98/98 101/101/101 100/100/100
f 100/100/100 101/101/101 99/99/99
f 101/101/101 102/102/102 99/99/99
