g SmallCrateLid
v 0.531623 -0.531623 1.363264
v 0.531623 -0.531623 1.29779
v 0.531623 0.531623 1.29779
v 0.531623 0.531623 1.363264
v -0.531623 -0.531623 1.363264
v -0.664528 -0.664528 1.363264
v -0.664528 0.664528 1.363264
v -0.531623 0.531623 1.363264
v -0.531623 0.531623 1.363264
v -0.664528 0.664528 1.363264
v 0.664528 0.664528 1.363264
v 0.531623 0.531623 1.363264
v 0.531623 0.531623 1.363264
v 0.664528 0.664528 1.363264
v 0.664528 -0.664528 1.363264
v 0.531623 -0.531623 1.363264
v 0.531623 -0.531623 1.363264
v 0.664528 -0.664528 1.363264
v -0.664528 -0.664528 1.363264
v -0.531623 -0.531623 1.363264
v 0.531623 -0.531623 1.29779
v -0.531623 -0.531623 1.29779
v -0.531623 0.531623 1.29779
v 0.531623 0.531623 1.29779
v -0.531623 0.531623 1.363264
v -0.531623 0.531623 1.29779
v -0.531623 -0.531623 1.29779
v -0.531623 -0.531623 1.363264
v -0.531623 -0.531623 1.363264
v -0.531623 -0.531623 1.29779
v 0.531623 -0.531623 1.29779
v 0.531623 -0.531623 1.363264
v 0.531623 0.531623 1.363264
v 0.531623 0.531623 1.29779
v -0.531623 0.531623 1.29779
v -0.531623 0.531623 1.363264
v 0.664528 0.664528 1.363264
v 0.664528 0.664528 1.276982
v 0.664528 -0.664528 1.276982
v 0.664528 -0.664528 1.363264
v -0.664528 -0.664528 1.363264
v -0.664528 -0.664528 1.276982
v -0.664528 0.664528 1.276982
v -0.664528 0.664528 1.363264
v 0.664528 -0.664528 1.363264
v 0.664528 -0.664528 1.276982
v -0.664528 -0.664528 1.276982
v -0.664528 -0.664528 1.363264
v -0.664528 0.664528 1.363264
v -0.664528 0.664528 1.276982
v 0.664528 0.664528 1.276982
v 0.664528 0.664528 1.363264
v -0.664528 -0.664528 1.276982
v 0.664528 -0.664528 1.276982
v 0.664528 0.664528 1.276982
v -0.664528 0.664528 1.276982
vt 0.11083 0.389816
vt 0.11083 0.389816
vt 0.11083 0.389816
vt 0.11083 0.389816
vt 0.352618 0.958449
vt 0.28932 0.829705
vt 0.922307 0.829705
vt 0.859008 0.958449
vt 0.352618 0.958449
vt 0.28932 0.829705
vt 0.922307 0.829705
vt 0.859008 0.958449
vt 0.859009 0.958449
vt 0.922307 0.829705
vt 0.28932 0.829705
vt 0.352619 0.958449
vt 0.859009 0.958449
vt 0.922307 0.829705
vt 0.28932 0.829705
vt 0.352619 0.958449
vt 0.464956 0.389852
vt 0.110865 0.389852
vt 0.110865 0.743942
vt 0.464956 0.743942
vt 0.11083 0.389816
vt 0.11083 0.389816
vt 0.11083 0.389816
vt 0.11083 0.389816
vt 0.11083 0.389816
vt 0.11083 0.389816
vt 0.11083 0.389816
vt 0.11083 0.389816
vt 0.11083 0.389816
vt 0.11083 0.389816
vt 0.11083 0.389816
vt 0.11083 0.389816
vt 0.301069 0.86992
vt 0.300525 0.869421
vt 0.300525 0.876531
vt 0.30098 0.876042
vt 0.307004 0.876759
vt 0.307549 0.877258
vt 0.307549 0.870148
vt 0.307093 0.870637
vt 0.30098 0.876042
vt 0.300525 0.876531
vt 0.307549 0.877258
vt 0.307004 0.876759
vt 0.307093 0.870637
vt 0.307549 0.870148
vt 0.300525 0.869421
vt 0.301069 0.86992
vt 0.110491 0.739401
vt 0.456411 0.739401
vt 0.456411 0.393481
vt 0.110491 0.393481
vn -1 0 0
vn -1 0 0
vn -1 0 0
vn -1 0 0
vn 0 0 1
vn 0 0 1
vn 0 0 1
vn 0 0 1
vn 0 0 1
vn 0 0 1
vn 0 0 1
vn 0 0 1
vn 0 0 1
vn 0 0 1
vn 0 0 1
vn 0 0 1
vn 0 0 1
vn 0 0 1
vn 0 0 1
vn 0 0 1
vn 0 0 1
vn 0 0 1
vn 0 0 1
vn 0 0 1
vn 1 0 0
vn 1 0 0
vn 1 0 0
vn 1 0 0
vn 0 1 0
vn 0 1 0
vn 0 1 0
vn 0 1 0
vn 0 -1 0
vn 0 -1 0
vn 0 -1 0
vn 0 -1 0
vn 1 0 0
vn 1 0 0
vn 1 0 0
vn 1 0 0
vn -1 0 0
vn -1 0 0
vn -1 0 0
vn -1 0 0
vn 0 -1 0
vn 0 -1 0
vn 0 -1 0
vn 0 -1 0
vn 0 1 0
vn 0 1 0
vn 0 1 0
vn 0 1 0
vn 0 0 -1
vn 0 0 -1
vn 0 0 -1
vn 0 0 -1
g SmallCrateLid_0
f 3/3/3 2/2/2 1/1/1
f 4/4/4 3/3/3 1/1/1
f 7/7/7 6/6/6 5/5/5
f 8/8/8 7/7/7 5/5/5
f 11/11/11 10/10/10 9/9/9
f 12/12/12 11/11/11 9/9/9
f 15/15/15 14/14/14 13/13/13
f 16/16/16 15/15/15 13/13/13
f 19/19/19 18/18/18 17/17/17
f 20/20/20 19/19/19 17/17/17
f 23/23/23 22/22/22 21/21/21
f 24/24/24 23/23/23 21/21/21
f 27/27/27 26/26/26 25/25/25
f 28/28/28 27/27/27 25/25/25
f 31/31/31 30/30/30 29/29/29
f 32/32/32 31/31/31 29/29/29
f 35/35/35 34/34/34 33/33/33
f 36/36/36 35/35/35 33/33/33
f 39/39/39 38/38/38 37/37/37
f 40/40/40 39/39/39 37/37/37
f 43/43/43 42/42/42 41/41/41
f 44/44/44 43/43/43 41/41/41
f 47/47/47 46/46/46 45/45/45
f 48/48/48 47/47/47 45/45/45
f 51/51/51 50/50/50 49/49/49
f 52/52/52 51/51/51 49/49/49
f 55/55/55 54/54/54 53/53/53
f 56/56/56 55/55/55 53/53/53
