g Spanner
v 0.469607 0.072563 0.019095
v 0.546697 0.043551 0.019095
v 0.546697 0.043551 -0.019097
v 0.469607 0.072563 -0.019097
v 0.403592 0.038158 0.019095
v 0.403592 0.038158 -0.019097
v 0.392517 0 0.019095
v 0.392517 0 -0.019097
v 0.403336 -0.038158 0.019095
v 0.403336 -0.038158 -0.019097
v 0.469095 -0.072563 0.019095
v 0.469095 -0.072563 -0.019097
v 0.545674 -0.043552 0.019095
v 0.545674 -0.043552 -0.019097
v 0.546697 0.043551 -0.019097
v 0.546697 0.043551 0.019095
v 0.546697 0.05864 0.019095
v 0.546697 0.05864 -0.019097
v 0.469607 0.126699 -0.019097
v 0.469607 0.126699 0.019095
v 0.403592 0.120366 -0.019097
v 0.403592 0.120366 0.019095
v 0.392517 0.107478 -0.019097
v 0.392517 0.107478 0.019095
v 0.332695 0.041982 -0.019097
v 0.332695 0.041982 0.019095
v -0.256373 0.054015 0.019095
v -0.256373 0.054015 -0.019097
v -0.279862 0.081413 -0.019097
v -0.279862 0.081413 0.019095
v -0.356132 0.099261 -0.019097
v -0.356132 0.099261 0.019095
v -0.432401 0.081413 -0.019097
v -0.432401 0.081413 0.019095
v -0.453933 0.052332 -0.019097
v -0.453933 0.052332 0.019095
v -0.466107 0 0.019095
v -0.466107 0 -0.019097
v -0.453933 -0.052332 0.019095
v -0.453933 -0.052332 -0.019097
v -0.432401 -0.081413 -0.019097
v -0.432401 -0.081413 0.019095
v -0.356132 -0.099261 -0.019097
v -0.356132 -0.099261 0.019095
v -0.279862 -0.081413 -0.019097
v -0.279862 -0.081413 0.019095
v -0.256373 -0.054015 -0.019097
v -0.256373 -0.054015 0.019095
v 0.332694 -0.041982 0.019095
v 0.332694 -0.041982 -0.019097
v 0.392517 -0.107478 -0.019097
v 0.392517 -0.107478 0.019095
v 0.403336 -0.120366 -0.019097
v 0.403336 -0.120366 0.019095
v 0.469095 -0.126699 -0.019097
v 0.469095 -0.126699 0.019095
v 0.545673 -0.05864 -0.019097
v 0.545673 -0.05864 0.019095
v 0.545674 -0.043552 0.019095
v 0.545674 -0.043552 -0.019097
v 0.469607 0.072563 -0.019097
v 0.546697 0.043551 -0.019097
v 0.546697 0.05864 -0.019097
v 0.469607 0.126699 -0.019097
v 0.403592 0.038158 -0.019097
v 0.403592 0.120366 -0.019097
v 0.392517 0 -0.019097
v 0.392517 0.107478 -0.019097
v 0.332694 0 -0.019097
v 0.332695 0.041982 -0.019097
v -0.256373 0.054015 -0.019097
v 0.332694 -0.041982 -0.019097
v 0.392517 -0.107478 -0.019097
v 0.403336 -0.038158 -0.019097
v 0.403336 -0.120366 -0.019097
v 0.469095 -0.072563 -0.019097
v 0.469095 -0.126699 -0.019097
v 0.545674 -0.043552 -0.019097
v 0.545673 -0.05864 -0.019097
v -0.256373 0 -0.019097
v -0.256373 -0.054015 -0.019097
v -0.279862 -0.081413 -0.019097
v -0.279862 0 -0.019097
v -0.279862 0.081413 -0.019097
v -0.313446 -0.038859 -0.019097
v -0.29953 0 -0.019097
v -0.356132 -0.047378 -0.019097
v -0.313446 0.038859 -0.019097
v -0.356132 -0.099261 -0.019097
v -0.356132 0.099261 -0.019097
v -0.398817 -0.038859 -0.019097
v -0.356132 0.047378 -0.019097
v -0.432401 -0.081413 -0.019097
v -0.432401 0.081413 -0.019097
v -0.410992 0 -0.019097
v -0.398817 0.038859 -0.019097
v -0.444576 0 -0.019097
v -0.453933 -0.052332 -0.019097
v -0.466107 0 -0.019097
v -0.453933 0.052332 -0.019097
v 0.469607 0.126699 0.019095
v 0.546697 0.05864 0.019095
v 0.546697 0.043551 0.019095
v 0.469607 0.072563 0.019095
v 0.403592 0.120366 0.019095
v 0.403592 0.038158 0.019095
v 0.392517 0.107478 0.019095
v 0.392517 0 0.019095
v 0.332695 0.041982 0.019095
v 0.332694 0 0.019095
v -0.256373 0.054015 0.019095
v -0.256373 0 0.019095
v -0.279862 0.081413 0.019095
v 0.392517 -0.107478 0.019095
v 0.332694 -0.041982 0.019095
v 0.403336 -0.120366 0.019095
v 0.403336 -0.038158 0.019095
v 0.469095 -0.126699 0.019095
v 0.469095 -0.072563 0.019095
v 0.545673 -0.05864 0.019095
v 0.545674 -0.043552 0.019095
v -0.256373 -0.054015 0.019095
v -0.279862 0 0.019095
v -0.279862 -0.081413 0.019095
v -0.313446 0.038859 0.019095
v -0.29953 0 0.019095
v -0.356132 0.047378 0.019095
v -0.313446 -0.038859 0.019095
v -0.356132 0.099261 0.019095
v -0.356132 -0.099261 0.019095
v -0.398817 0.038859 0.019095
v -0.356132 -0.047378 0.019095
v -0.432401 0.081413 0.019095
v -0.432401 -0.081413 0.019095
v -0.410992 0 0.019095
v -0.398817 -0.038859 0.019095
v -0.444576 0 0.019095
v -0.453933 0.052332 0.019095
v -0.466107 0 0.019095
v -0.453933 -0.052332 0.019095
v -0.410992 0 -0.019097
v -0.398817 -0.038859 -0.019097
v -0.398817 -0.038859 0.019095
v -0.410992 0 0.019095
v -0.398817 0.038859 -0.019097
v -0.398817 0.038859 0.019095
v -0.356132 -0.047378 0.019095
v -0.398817 -0.038859 0.019095
v -0.398817 -0.038859 -0.019097
v -0.356132 -0.047378 -0.019097
v -0.313446 -0.038859 0.019095
v -0.313446 -0.038859 -0.019097
v -0.29953 0 0.019095
v -0.29953 0 -0.019097
v -0.313446 0.038859 -0.019097
v -0.313446 0.038859 0.019095
v -0.356132 0.047378 0.019095
v -0.356132 0.047378 -0.019097
v -0.398817 0.038859 0.019095
v -0.398817 0.038859 -0.019097
vt 0.928205 0.462084
vt 0.928205 0.462084
vt 0.928205 0.462084
vt 0.928205 0.462084
vt 0.928205 0.462084
vt 0.928205 0.462084
vt 0.928205 0.462084
vt 0.928205 0.462084
vt 0.928205 0.462084
vt 0.928205 0.462084
vt 0.928205 0.462084
vt 0.928205 0.462084
vt 0.928205 0.462084
vt 0.928205 0.462084
vt 0.928205 0.462084
vt 0.928205 0.462084
vt 0.928205 0.532062
vt 0.928205 0.532062
vt 0.928205 0.532062
vt 0.928205 0.532062
vt 0.928205 0.532062
vt 0.928205 0.532062
vt 0.928205 0.532062
vt 0.928205 0.532062
vt 0.928205 0.532062
vt 0.928205 0.532062
vt 0.798357 0.532062
vt 0.798357 0.532062
vt 0.798357 0.532062
vt 0.798357 0.532062
vt 0.798357 0.532062
vt 0.798357 0.532062
vt 0.798357 0.532062
vt 0.798357 0.532062
vt 0.798357 0.532062
vt 0.798357 0.532062
vt 0.798357 0.462084
vt 0.798357 0.462084
vt 0.798357 0.392107
vt 0.798357 0.392107
vt 0.798357 0.392107
vt 0.798357 0.392107
vt 0.798357 0.392107
vt 0.798357 0.392107
vt 0.798357 0.392107
vt 0.798357 0.392107
vt 0.798357 0.392107
vt 0.798357 0.392107
vt 0.928205 0.392106
vt 0.928205 0.392106
vt 0.928205 0.392106
vt 0.928205 0.392106
vt 0.928205 0.392106
vt 0.928205 0.392106
vt 0.928205 0.392106
vt 0.928205 0.392106
vt 0.928205 0.392106
vt 0.928205 0.392106
vt 0.928205 0.462084
vt 0.928205 0.462084
vt 0.928205 0.462084
vt 0.928205 0.462084
vt 0.928205 0.532062
vt 0.928205 0.532062
vt 0.928205 0.462084
vt 0.928205 0.532062
vt 0.928205 0.462084
vt 0.928205 0.532062
vt 0.928205 0.462084
vt 0.928205 0.532062
vt 0.798357 0.532062
vt 0.928205 0.392106
vt 0.928205 0.392106
vt 0.928205 0.462084
vt 0.928205 0.392106
vt 0.928205 0.462084
vt 0.928205 0.392106
vt 0.928205 0.462084
vt 0.928205 0.392106
vt 0.798357 0.462084
vt 0.798357 0.392107
vt 0.798357 0.392107
vt 0.798357 0.462084
vt 0.798357 0.532062
vt 0.798357 0.414465
vt 0.798357 0.462084
vt 0.798357 0.414465
vt 0.798357 0.509703
vt 0.798357 0.392107
vt 0.798357 0.532062
vt 0.798357 0.414465
vt 0.798357 0.509703
vt 0.798357 0.392107
vt 0.798357 0.532062
vt 0.798357 0.462084
vt 0.798357 0.509703
vt 0.798357 0.462084
vt 0.798357 0.392107
vt 0.798357 0.462084
vt 0.798357 0.532062
vt 0.928205 0.532062
vt 0.928205 0.532062
vt 0.928205 0.462084
vt 0.928205 0.462084
vt 0.928205 0.532062
vt 0.928205 0.462084
vt 0.928205 0.532062
vt 0.928205 0.462084
vt 0.928205 0.532062
vt 0.928205 0.462084
vt 0.798357 0.532062
vt 0.798357 0.462084
vt 0.798357 0.532062
vt 0.928205 0.392106
vt 0.928205 0.392106
vt 0.928205 0.392106
vt 0.928205 0.462084
vt 0.928205 0.392106
vt 0.928205 0.462084
vt 0.928205 0.392106
vt 0.928205 0.462084
vt 0.798357 0.392107
vt 0.798357 0.462084
vt 0.798357 0.392107
vt 0.798357 0.509703
vt 0.798357 0.462084
vt 0.798357 0.509703
vt 0.798357 0.414465
vt 0.798357 0.532062
vt 0.798357 0.392107
vt 0.798357 0.509703
vt 0.798357 0.414465
vt 0.798357 0.532062
vt 0.798357 0.392107
vt 0.798357 0.462084
vt 0.798357 0.414465
vt 0.798357 0.462084
vt 0.798357 0.532062
vt 0.798357 0.462084
vt 0.798357 0.392107
vt 0.798357 0.462084
vt 0.798357 0.414465
vt 0.798357 0.414465
vt 0.798357 0.462084
vt 0.798357 0.509703
vt 0.798357 0.509703
vt 0.798357 0.414465
vt 0.798357 0.414465
vt 0.798357 0.414465
vt 0.798357 0.414465
vt 0.798357 0.414465
vt 0.798357 0.414465
vt 0.798357 0.462084
vt 0.798357 0.462084
vt 0.798357 0.509703
vt 0.798357 0.509703
vt 0.798357 0.509703
vt 0.798357 0.509703
vt 0.798357 0.509703
vt 0.798357 0.509703
vn 0.0376589 -0.9992906 0
vn -0.3522221 -0.9359165 0
vn -0.3522221 -0.9359165 0
vn 0.0376589 -0.9992906 0
vn 0.6854033 -0.7281636 0
vn 0.6854033 -0.7281636 0
vn 0.9999944 -0.00335448 0
vn 0.9999944 -0.00335448 0
vn 0.6878217 0.7258796 0
vn 0.6878217 0.7258796 0
vn 0.03786855 0.9992828 0
vn 0.03786855 0.9992828 0
vn -0.3542675 0.9351441 0
vn -0.3542675 0.9351441 0
vn 1 0 0
vn 1 0 0
vn 0.7333158 0.6798881 0
vn 0.7333158 0.6798881 0
vn 0.3960609 0.9182243 0
vn 0.3960609 0.9182243 0
vn -0.2419255 0.9702948 0
vn -0.2419255 0.9702948 0
vn -0.7416387 0.6707995 0
vn -0.7416387 0.6707995 0
vn -0.08211324 0.996623 0
vn -0.08211324 0.996623 0
vn 0.0642382 0.9979346 0
vn 0.0642382 0.9979346 0
vn 0.4130538 0.9107066 0
vn 0.4130538 0.9107066 0
vn 0 1 0
vn 0 1 0
vn -0.432615 0.9015787 0
vn -0.432615 0.9015787 0
vn -0.9239451 0.3825249 0
vn -0.9239451 0.3825249 0
vn -1 0 0
vn -1 0 0
vn -0.9239451 -0.3825249 0
vn -0.9239451 -0.3825249 0
vn -0.432615 -0.9015787 0
vn -0.432615 -0.9015787 0
vn 0 -1 0
vn 0 -1 0
vn 0.4130538 -0.9107066 0
vn 0.4130538 -0.9107066 0
vn 0.06423831 -0.9979346 0
vn 0.06423831 -0.9979346 0
vn -0.08211324 -0.996623 0
vn -0.08211324 -0.996623 0
vn -0.7428398 -0.6694693 0
vn -0.7428398 -0.6694693 0
vn -0.2434475 -0.9699141 0
vn -0.2434475 -0.9699141 0
vn 0.3978604 -0.917446 0
vn 0.3978604 -0.917446 0
vn 0.7355615 -0.6774579 0
vn 0.7355615 -0.6774579 0
vn 1 0 0
vn 1 0 0
vn 0 0 -1
vn 0 0 -1
vn 0 0 -1
vn 0 0 -1
vn 0 0 -1
vn 0 0 -1
vn 0 0 -1
vn 0 0 -1
vn 0 0 -1
vn 0 0 -1
vn 0 0 -1
vn 0 0 -1
vn 0 0 -1
vn 0 0 -1
vn 0 0 -1
vn 0 0 -1
vn 0 0 -1
vn 0 0 -1
vn 0 0 -1
vn 0 0 -1
vn 0 0 -1
vn 0 0 -1
vn 0 0 -1
vn 0 0 -1
vn 0 0 -1
vn 0 0 -1
vn 0 0 -1
vn 0 0 -1
vn 0 0 -1
vn 0 0 -1
vn 0 0 -1
vn 0 0 -1
vn 0 0 -1
vn 0 0 -1
vn 0 0 -1
vn 0 0 -1
vn 0 0 -1
vn 0 0 -1
vn 0 0 -1
vn 0 0 -1
vn 0 0 1
vn 0 0 1
vn 0 0 1
vn 0 0 1
vn 0 0 1
vn 0 0 1
vn 0 0 1
vn 0 0 1
vn 0 0 1
vn 0 0 1
vn 0 0 1
vn 0 0 1
vn 0 0 1
vn 0 0 1
vn 0 0 1
vn 0 0 1
vn 0 0 1
vn 0 0 1
vn 0 0 1
vn 0 0 1
vn 0 0 1
vn 0 0 1
vn 0 0 1
vn 0 0 1
vn 0 0 1
vn 0 0 1
vn 0 0 1
vn 0 0 1
vn 0 0 1
vn 0 0 1
vn 0 0 1
vn 0 0 1
vn 0 0 1
vn 0 0 1
vn 0 0 1
vn 0 0 1
vn 0 0 1
vn 0 0 1
vn 0 0 1
vn 0 0 1
vn 1 0 0
vn 0.954259 0.2989809 0
vn 0.954259 0.2989809 0
vn 1 0 0
vn 0.954259 -0.2989809 0
vn 0.954259 -0.2989809 0
vn 0 1 0
vn 0.1957185 0.9806601 0
vn 0.1957185 0.9806601 0
vn 0 1 0
vn -0.6418592 0.7668226 0
vn -0.6418592 0.7668226 0
vn -1 0 0
vn -1 0 0
vn -0.6418592 -0.7668226 0
vn -0.6418592 -0.7668226 0
vn 0 -1 0
vn 0 -1 0
vn 0.1957185 -0.9806601 0
vn 0.1957185 -0.9806601 0
g Spanner_0
f 3/3/3 2/2/2 1/1/1
f 4/4/4 3/3/3 1/1/1
f 4/4/4 1/1/1 5/5/5
f 6/6/6 4/4/4 5/5/5
f 6/6/6 5/5/5 7/7/7
f 8/8/8 6/6/6 7/7/7
f 7/7/7 9/9/9 8/8/8
f 9/9/9 10/10/10 8/8/8
f 9/9/9 11/11/11 10/10/10
f 11/11/11 12/12/12 10/10/10
f 11/11/11 13/13/13 12/12/12
f 13/13/13 14/14/14 12/12/12
f 17/17/17 16/16/16 15/15/15
f 18/18/18 17/17/17 15/15/15
f 17/17/17 18/18/18 19/19/19
f 20/20/20 17/17/17 19/19/19
f 20/20/20 19/19/19 21/21/21
f 22/22/22 20/20/20 21/21/21
f 22/22/22 21/21/21 23/23/23
f 24/24/24 22/22/22 23/23/23
f 24/24/24 23/23/23 25/25/25
f 26/26/26 24/24/24 25/25/25
f 27/27/27 26/26/26 25/25/25
f 28/28/28 27/27/27 25/25/25
f 28/28/28 29/29/29 27/27/27
f 29/29/29 30/30/30 27/27/27
f 29/29/29 31/31/31 30/30/30
f 31/31/31 32/32/32 30/30/30
f 31/31/31 33/33/33 32/32/32
f 33/33/33 34/34/34 32/32/32
f 33/33/33 35/35/35 34/34/34
f 35/35/35 36/36/36 34/34/34
f 37/37/37 36/36/36 35/35/35
f 38/38/38 37/37/37 35/35/35
f 39/39/39 37/37/37 38/38/38
f 40/40/40 39/39/39 38/38/38
f 39/39/39 40/40/40 41/41/41
f 42/42/42 39/39/39 41/41/41
f 42/42/42 41/41/41 43/43/43
f 44/44/44 42/42/42 43/43/43
f 44/44/44 43/43/43 45/45/45
f 46/46/46 44/44/44 45/45/45
f 46/46/46 45/45/45 47/47/47
f 48/48/48 46/46/46 47/47/47
f 49/49/49 48/48/48 47/47/47
f 50/50/50 49/49/49 47/47/47
f 50/50/50 51/51/51 49/49/49
f 51/51/51 52/52/52 49/49/49
f 51/51/51 53/53/53 52/52/52
f 53/53/53 54/54/54 52/52/52
f 53/53/53 55/55/55 54/54/54
f 55/55/55 56/56/56 54/54/54
f 55/55/55 57/57/57 56/56/56
f 57/57/57 58/58/58 56/56/56
f 59/59/59 58/58/58 57/57/57
f 60/60/60 59/59/59 57/57/57
f 63/63/63 62/62/62 61/61/61
f 64/64/64 63/63/63 61/61/61
f 64/64/64 61/61/61 65/65/65
f 66/66/66 64/64/64 65/65/65
f 66/66/66 65/65/65 67/67/67
f 68/68/68 66/66/66 67/67/67
f 68/68/68 67/67/67 69/69/69
f 70/70/70 68/68/68 69/69/69
f 70/70/70 69/69/69 71/71/71
f 69/69/69 67/67/67 72/72/72
f 67/67/67 73/73/73 72/72/72
f 67/67/67 74/74/74 73/73/73
f 74/74/74 75/75/75 73/73/73
f 74/74/74 76/76/76 75/75/75
f 76/76/76 77/77/77 75/75/75
f 76/76/76 78/78/78 77/77/77
f 78/78/78 79/79/79 77/77/77
f 69/69/69 72/72/72 80/80/80
f 69/69/69 80/80/80 71/71/71
f 72/72/72 81/81/81 80/80/80
f 81/81/81 82/82/82 80/80/80
f 80/80/80 83/83/83 71/71/71
f 82/82/82 83/83/83 80/80/80
f 83/83/83 84/84/84 71/71/71
f 83/83/83 82/82/82 85/85/85
f 86/86/86 83/83/83 85/85/85
f 84/84/84 83/83/83 86/86/86
f 85/85/85 82/82/82 87/87/87
f 88/88/88 84/84/84 86/86/86
f 82/82/82 89/89/89 87/87/87
f 90/90/90 84/84/84 88/88/88
f 87/87/87 89/89/89 91/91/91
f 92/92/92 90/90/90 88/88/88
f 89/89/89 93/93/93 91/91/91
f 94/94/94 90/90/90 92/92/92
f 91/91/91 93/93/93 95/95/95
f 96/96/96 94/94/94 92/92/92
f 95/95/95 97/97/97 96/96/96
f 93/93/93 97/97/97 95/95/95
f 97/97/97 94/94/94 96/96/96
f 93/93/93 98/98/98 97/97/97
f 98/98/98 99/99/99 97/97/97
f 97/97/97 99/99/99 94/94/94
f 99/99/99 100/100/100 94/94/94
f 103/103/103 102/102/102 101/101/101
f 104/104/104 103/103/103 101/101/101
f 104/104/104 101/101/101 105/105/105
f 106/106/106 104/104/104 105/105/105
f 106/106/106 105/105/105 107/107/107
f 108/108/108 106/106/106 107/107/107
f 108/108/108 107/107/107 109/109/109
f 110/110/110 108/108/108 109/109/109
f 110/110/110 109/109/109 111/111/111
f 112/112/112 110/110/110 111/111/111
f 111/111/111 113/113/113 112/112/112
f 114/114/114 108/108/108 110/110/110
f 115/115/115 114/114/114 110/110/110
f 115/115/115 110/110/110 112/112/112
f 114/114/114 116/116/116 108/108/108
f 116/116/116 117/117/117 108/108/108
f 116/116/116 118/118/118 117/117/117
f 118/118/118 119/119/119 117/117/117
f 118/118/118 120/120/120 119/119/119
f 120/120/120 121/121/121 119/119/119
f 122/122/122 115/115/115 112/112/112
f 112/112/112 123/123/123 122/122/122
f 113/113/113 123/123/123 112/112/112
f 123/123/123 124/124/124 122/122/122
f 123/123/123 113/113/113 125/125/125
f 126/126/126 123/123/123 125/125/125
f 124/124/124 123/123/123 126/126/126
f 125/125/125 113/113/113 127/127/127
f 128/128/128 124/124/124 126/126/126
f 113/113/113 129/129/129 127/127/127
f 130/130/130 124/124/124 128/128/128
f 127/127/127 129/129/129 131/131/131
f 132/132/132 130/130/130 128/128/128
f 129/129/129 133/133/133 131/131/131
f 134/134/134 130/130/130 132/132/132
f 131/131/131 133/133/133 135/135/135
f 136/136/136 134/134/134 132/132/132
f 133/133/133 137/137/137 135/135/135
f 135/135/135 137/137/137 136/136/136
f 137/137/137 134/134/134 136/136/136
f 133/133/133 138/138/138 137/137/137
f 138/138/138 139/139/139 137/137/137
f 137/137/137 139/139/139 134/134/134
f 139/139/139 140/140/140 134/134/134
f 143/143/143 142/142/142 141/141/141
f 144/144/144 143/143/143 141/141/141
f 144/144/144 141/141/141 145/145/145
f 146/146/146 144/144/144 145/145/145
f 149/149/149 148/148/148 147/147/147
f 150/150/150 149/149/149 147/147/147
f 150/150/150 147/147/147 151/151/151
f 152/152/152 150/150/150 151/151/151
f 152/152/152 151/151/151 153/153/153
f 154/154/154 152/152/152 153/153/153
f 155/155/155 154/154/154 153/153/153
f 156/156/156 155/155/155 153/153/153
f 156/156/156 157/157/157 155/155/155
f 157/157/157 158/158/158 155/155/155
f 157/157/157 159/159/159 158/158/158
f 159/159/159 160/160/160 158/158/158
