g SquareDoorFrame
v -0.909091 0 0
v -1.054291 -0.008518 0
v -1.054291 -0.008518 3.12108
v -0.909091 0 3.12108
v 0.909091 0 3.12108
v 0.909091 0 0
v 0.909091 0.136938 0
v 0.909091 0.136938 3.12108
v -1.054291 -0.008518 0
v -1.054291 0.145456 0
v -1.054291 0.145456 3.12108
v -1.054291 -0.008518 3.12108
v 1.054291 -0.008518 3.12108
v 1.054291 0.145456 3.12108
v 1.054291 0.145456 0
v 1.054291 -0.008518 0
v 0.909091 0.136938 0
v 1.054291 0.145456 0
v 1.054291 0.145456 3.12108
v 0.909091 0.136938 3.12108
v 0.909091 0 3.12108
v 1.054291 -0.008518 3.12108
v 1.054291 -0.008518 0
v 0.909091 0 0
v 0.909091 0 0
v 1.054291 -0.008518 0
v 1.054291 0.145456 0
v 0.909091 0.136938 0
v -0.909091 0.136938 0
v -1.054291 0.145456 0
v -1.054291 -0.008518 0
v -0.909091 0 0
v -0.909091 0.136938 3.12108
v -1.054291 0.145456 3.12108
v -1.054291 0.145456 0
v -0.909091 0.136938 0
v -0.909091 0 3.12108
v -0.909091 0.136938 3.12108
v -0.909091 0.136938 0
v -0.909091 0 0
v -1.091274 0.168749 2.99376
v -1.091274 -0.031811 2.99376
v 1.091274 -0.031811 2.99376
v 1.091274 0.168749 2.99376
v -1.091274 -0.031811 2.99376
v -1.091274 -0.031811 3.179725
v 1.091274 -0.031811 3.179725
v 1.091274 -0.031811 2.99376
v 1.091274 0.168749 2.99376
v 1.091274 0.168749 3.179725
v -1.091274 0.168749 3.179725
v -1.091274 0.168749 2.99376
v -1.091274 -0.031811 3.179725
v -1.091274 0.168749 3.179725
v 1.091274 0.168749 3.179725
v 1.091274 -0.031811 3.179725
v 1.091274 0.168749 2.99376
v 1.091274 -0.031811 2.99376
v 1.091274 -0.031811 3.179725
v 1.091274 0.168749 3.179725
v -1.091274 0.168749 2.99376
v -1.091274 0.168749 3.179725
v -1.091274 -0.031811 3.179725
v -1.091274 -0.031811 2.99376
v 0.909091 0.028259 0
v 0.909091 0.028259 2.989754
v -0.909091 0.028259 2.989754
v -0.909091 0.028259 0
vt 0.00852 0.895799
vt 0.00852 0.984712
vt 0.991481 0.984712
vt 0.991481 0.895799
vt 0.00852 0.895799
vt 0.00852 0.984712
vt 0.991481 0.984712
vt 0.991481 0.895799
vt 0.00852 0.895799
vt 0.00852 0.984712
vt 0.991481 0.984712
vt 0.991481 0.895799
vt 0.00852 0.895799
vt 0.00852 0.984712
vt 0.991481 0.984712
vt 0.991481 0.895799
vt 0.00852 0.895799
vt 0.00852 0.984712
vt 0.991481 0.984712
vt 0.991481 0.895799
vt 0.00852 0.895799
vt 0.00852 0.984712
vt 0.991481 0.984712
vt 0.991481 0.895799
vt 0 0
vt 0 0
vt 0 0
vt 0 0
vt 1 0
vt 1 0
vt 1 0
vt 1 0
vt 0.00852 0.895799
vt 0.00852 0.984712
vt 0.991481 0.984712
vt 0.991481 0.895799
vt 0.00852 0.895799
vt 0.00852 0.984712
vt 0.991481 0.984712
vt 0.991481 0.895799
vt 0 0.890958
vt 0 0.995754
vt 1 0.995754
vt 1 0.890958
vt 0 0.890958
vt 0 0.995754
vt 1 0.995754
vt 1 0.890958
vt 0 0.890958
vt 0 0.995754
vt 1 0.995754
vt 1 0.890958
vt 0 0.890958
vt 0 0.995754
vt 1 0.995754
vt 1 0.890958
vt 0.044551 0.941277
vt 0 1
vt 0.999975 2.6E-05
vt 0.00147 0.99988
vt 0.737119 0.941306
vt 0.780195 0.999912
vt 2.5E-05 2.5E-05
vt 1 1
vt 0 0
vt 0 1
vt 1 1
vt 1 0
vn 0.05856322 -0.9982837 0
vn 0.05856322 -0.9982837 0
vn 0.05856322 -0.9982837 0
vn 0.05856322 -0.9982837 0
vn -1 0 0
vn -1 0 0
vn -1 0 0
vn -1 0 0
vn -1 0 0
vn -1 0 0
vn -1 0 0
vn -1 0 0
vn 1 0 0
vn 1 0 0
vn 1 0 0
vn 1 0 0
vn -0.05856319 0.9982837 0
vn -0.05856319 0.9982837 0
vn -0.05856319 0.9982837 0
vn -0.05856319 0.9982837 0
vn -0.05856322 -0.9982837 0
vn -0.05856322 -0.9982837 0
vn -0.05856322 -0.9982837 0
vn -0.05856322 -0.9982837 0
vn 0 0 -1
vn 0 0 -1
vn 0 0 -1
vn 0 0 -1
vn 0 0 -1
vn 0 0 -1
vn 0 0 -1
vn 0 0 -1
vn 0.05856319 0.9982837 0
vn 0.05856319 0.9982837 0
vn 0.05856319 0.9982837 0
vn 0.05856319 0.9982837 0
vn 1 0 0
vn 1 0 0
vn 1 0 0
vn 1 0 0
vn 0 0 -1
vn 0 0 -1
vn 0 0 -1
vn 0 0 -1
vn 0 -1 0
vn 0 -1 0
vn 0 -1 0
vn 0 -1 0
vn 0 1 0
vn 0 1 0
vn 0 1 0
vn 0 1 0
vn 0 0 1
vn 0 0 1
vn 0 0 1
vn 0 0 1
vn 1 0 0
vn 1 0 0
vn 1 0 0
vn 1 0 0
vn -1 0 0
vn -1 0 0
vn -1 0 0
vn -1 0 0
vn 0 1 0
vn 0 1 0
vn 0 1 0
vn 0 1 0
g SquareDoorFrame_0
f 3/3/3 2/2/2 1/1/1
f 4/4/4 3/3/3 1/1/1
f 7/7/7 6/6/6 5/5/5
f 8/8/8 7/7/7 5/5/5
f 11/11/11 10/10/10 9/9/9
f 12/12/12 11/11/11 9/9/9
f 15/15/15 14/14/14 13/13/13
f 16/16/16 15/15/15 13/13/13
f 19/19/19 18/18/18 17/17/17
f 20/20/20 19/19/19 17/17/17
f 23/23/23 22/22/22 21/21/21
f 24/24/24 23/23/23 21/21/21
f 27/27/27 26/26/26 25/25/25
f 28/28/28 27/27/27 25/25/25
f 31/31/31 30/30/30 29/29/29
f 32/32/32 31/31/31 29/29/29
f 35/35/35 34/34/34 33/33/33
f 36/36/36 35/35/35 33/33/33
f 39/39/39 38/38/38 37/37/37
f 40/40/40 39/39/39 37/37/37
f 43/43/43 42/42/42 41/41/41
f 44/44/44 43/43/43 41/41/41
f 47/47/47 46/46/46 45/45/45
f 48/48/48 47/47/47 45/45/45
f 51/51/51 50/50/50 49/49/49
f 52/52/52 51/51/51 49/49/49
f 55/55/55 54/54/54 53/53/53
f 56/56/56 55/55/55 53/53/53
f 59/59/59 58/58/58 57/57/57
f 60/60/60 59/59/59 57/57/57
f 63/63/63 62/62/62 61/61/61
f 64/64/64 63/63/63 61/61/61
g SquareDoorFrame_1
f 67/67/67 66/66/66 65/65/65
f 68/68/68 67/67/67 65/65/65
