g Stairs
v -1 -0.221601 0.456077
v -1 0.342248 0.456077
v 1 0.342248 0.456077
v 1 -0.221601 0.456077
v -1 -1.044984 -0.414655
v 1 -1.044984 0.081353
v 1 -1.044984 -0.414655
v -1 -1.044984 0.081353
v 1 -0.915217 0.206077
v -1 -0.915217 0.206077
v -1 0.472015 0.75
v -1 1.06118 0.75
v 1 1.06118 0.75
v 1 0.472015 0.75
v -1 -0.221601 0.456077
v -1 -0.351368 0.331353
v -1 -0.351368 0.206077
v -1 0.342248 0.206077
v -1 0.342248 0.456077
v -1 0.342248 -0.414655
v -1 1.06118 -0.414655
v -1 -0.351368 -0.414655
v -1 1.06118 0.206077
v -1 -0.915217 0.206077
v -1 -1.044984 -0.414655
v -1 -1.044984 0.081353
v -1 1.06118 0.456077
v -1 0.472015 0.75
v -1 0.342248 0.625275
v -1 1.06118 0.75
v 1 0.342248 -0.414655
v 1 1.06118 0.206077
v 1 1.06118 -0.414655
v 1 0.342248 0.206077
v 1 -0.351368 -0.414655
v 1 1.06118 0.456077
v 1 -0.351368 0.206077
v 1 -0.915217 0.206077
v 1 -1.044984 0.081353
v 1 -1.044984 -0.414655
v 1 -0.351368 0.331353
v 1 -0.221601 0.456077
v 1 0.342248 0.456077
v 1 0.342248 0.625275
v 1 0.472015 0.75
v 1 1.06118 0.75
v -1 -0.915217 0.206077
v -1 -0.351368 0.206077
v 1 -0.351368 0.206077
v 1 -0.915217 0.206077
v 1 1.06118 -0.414655
v -1 1.06118 0.206077
v -1 1.06118 -0.414655
v 1 1.06118 0.206077
v -1 1.06118 0.456077
v 1 1.06118 0.456077
v -1 1.06118 0.75
v 1 1.06118 0.75
v -1 -0.351368 0.206077
v -1 -0.351368 0.331353
v 1 -0.351368 0.331353
v 1 -0.351368 0.206077
v -1 0.342248 0.456077
v -1 0.342248 0.625275
v 1 0.342248 0.625275
v 1 0.342248 0.456077
v 1 -0.221601 0.456077
v 1 -0.351368 0.331353
v -1 -0.351368 0.331353
v -1 -0.221601 0.456077
v 1 0.472015 0.75
v 1 0.342248 0.625275
v -1 0.342248 0.625275
v -1 0.472015 0.75
vt 0.000173 0.062471
vt 0.000173 0.33316
vt 0.999134 0.33316
vt 0.999134 0.062471
vt 0.000106 0.437497
vt 0.999894 0.500122
vt 0.999894 0.437497
vt 0.000106 0.500122
vt 0.999894 0.562471
vt 0.000106 0.562471
vt 0.000173 0.726944
vt 0.000173 0.999827
vt 0.999134 0.999827
vt 0.999134 0.726944
vt 0.333333 0.604304
vt 0.499633 0.666667
vt 0.666667 0.666667
vt 0.666667 0.333333
vt 0.333333 0.333333
vt 1 0.333333
vt 1 0
vt 1 0.666667
vt 0.666667 0
vt 0.666667 0.937638
vt 1 1
vt 0.832966 1
vt 0.333333 0
vt 0 0.273167
vt 0.1663 0.333333
vt 0 0
vt 1 0.666667
vt 0.666667 1
vt 1 1
vt 0.666667 0.666667
vt 1 0.333333
vt 0.333334 1
vt 0.666666 0.333333
vt 0.666666 0.062362
vt 0.832966 0
vt 0.999999 0
vt 0.499633 0.333333
vt 0.333333 0.395696
vt 0.333333 0.666667
vt 0.166299 0.666667
vt 0 0.726833
vt 0 1
vt 0.000173 0.066059
vt 0.000173 0.336749
vt 0.999134 0.336749
vt 0.999134 0.066059
vt 0 0
vt 0 0
vt 0 0
vt 0 0
vt 0 0
vt 0 0
vt 0 0
vt 0 0
vt 0.000106 0.484566
vt 0.000106 0.547191
vt 0.999894 0.547191
vt 0.999894 0.484566
vt 0.000106 0.428282
vt 0.000106 0.490907
vt 0.999894 0.490907
vt 0.999894 0.428282
vt 0.999134 0.480804
vt 0.999134 0.418506
vt 0.000173 0.418506
vt 0.000173 0.480804
vt 0.999134 0.554689
vt 0.999134 0.494585
vt 0.000173 0.494585
vt 0.000173 0.554689
vn 0 -0.3735121 0.9276252
vn 0 0 1
vn 0 0 1
vn 0 -0.3735121 0.9276252
vn 0 -1 0
vn 0 -0.9200431 0.3918171
vn 0 -1 0
vn 0 -0.9200431 0.3918171
vn 0 -0.3735122 0.9276252
vn 0 -0.3735122 0.9276252
vn 0 -0.373514 0.9276245
vn 0 0 1
vn 0 0 1
vn 0 -0.373514 0.9276245
vn -1 0 0
vn -1 0 0
vn -1 0 0
vn -1 0 0
vn -1 0 0
vn -1 0 0
vn -1 0 0
vn -1 0 0
vn -1 0 0
vn -1 0 0
vn -1 0 0
vn -1 0 0
vn -1 0 0
vn -1 0 0
vn -1 0 0
vn -1 0 0
vn 1 0 0
vn 1 0 0
vn 1 0 0
vn 1 0 0
vn 1 0 0
vn 1 0 0
vn 1 0 0
vn 1 0 0
vn 1 0 0
vn 1 0 0
vn 1 0 0
vn 1 0 0
vn 1 0 0
vn 1 0 0
vn 1 0 0
vn 1 0 0
vn 0 -0.3735122 0.9276252
vn 0 0 1
vn 0 0 1
vn 0 -0.3735122 0.9276252
vn 0 1 0
vn 0 1 0
vn 0 1 0
vn 0 1 0
vn 0 1 0
vn 0 1 0
vn 0 1 0
vn 0 1 0
vn 0 -1 0
vn 0 -0.9200431 0.3918172
vn 0 -0.9200431 0.3918172
vn 0 -1 0
vn 0 -1 0
vn 0 -0.9200439 0.3918153
vn 0 -0.9200439 0.3918153
vn 0 -1 0
vn 0 -0.3735121 0.9276252
vn 0 -0.9200431 0.3918172
vn 0 -0.9200431 0.3918172
vn 0 -0.3735121 0.9276252
vn 0 -0.373514 0.9276245
vn 0 -0.9200439 0.3918153
vn 0 -0.9200439 0.3918153
vn 0 -0.373514 0.9276245
g Stairs_0
f 3/3/3 2/2/2 1/1/1
f 4/4/4 3/3/3 1/1/1
f 7/7/7 6/6/6 5/5/5
f 6/6/6 8/8/8 5/5/5
f 6/6/6 9/9/9 8/8/8
f 9/9/9 10/10/10 8/8/8
f 13/13/13 12/12/12 11/11/11
f 14/14/14 13/13/13 11/11/11
f 17/17/17 16/16/16 15/15/15
f 15/15/15 18/18/18 17/17/17
f 15/15/15 19/19/19 18/18/18
f 17/17/17 18/18/18 20/20/20
f 20/20/20 18/18/18 21/21/21
f 22/22/22 17/17/17 20/20/20
f 18/18/18 23/23/23 21/21/21
f 18/18/18 19/19/19 23/23/23
f 24/24/24 17/17/17 22/22/22
f 24/24/24 22/22/22 25/25/25
f 25/25/25 26/26/26 24/24/24
f 19/19/19 27/27/27 23/23/23
f 28/28/28 27/27/27 19/19/19
f 19/19/19 29/29/29 28/28/28
f 28/28/28 30/30/30 27/27/27
f 33/33/33 32/32/32 31/31/31
f 32/32/32 34/34/34 31/31/31
f 31/31/31 34/34/34 35/35/35
f 32/32/32 36/36/36 34/34/34
f 34/34/34 37/37/37 35/35/35
f 35/35/35 37/37/37 38/38/38
f 35/35/35 38/38/38 39/39/39
f 39/39/39 40/40/40 35/35/35
f 41/41/41 37/37/37 34/34/34
f 34/34/34 42/42/42 41/41/41
f 34/34/34 43/43/43 42/42/42
f 36/36/36 43/43/43 34/34/34
f 44/44/44 43/43/43 36/36/36
f 36/36/36 45/45/45 44/44/44
f 36/36/36 46/46/46 45/45/45
f 49/49/49 48/48/48 47/47/47
f 50/50/50 49/49/49 47/47/47
f 53/53/53 52/52/52 51/51/51
f 52/52/52 54/54/54 51/51/51
f 52/52/52 55/55/55 54/54/54
f 55/55/55 56/56/56 54/54/54
f 55/55/55 57/57/57 56/56/56
f 57/57/57 58/58/58 56/56/56
f 61/61/61 60/60/60 59/59/59
f 62/62/62 61/61/61 59/59/59
f 65/65/65 64/64/64 63/63/63
f 66/66/66 65/65/65 63/63/63
f 69/69/69 68/68/68 67/67/67
f 70/70/70 69/69/69 67/67/67
f 73/73/73 72/72/72 71/71/71
f 74/74/74 73/73/73 71/71/71
