g StarLightTreeTop
v 0.243868 0.076562 0.193943
v 0.59684 -0.07458 0.467106
v 0.59684 0.076562 0.467106
v 0.243868 -0.07458 0.193943
v 0.368868 0.076562 -0.234522
v 0.368868 -0.07458 -0.234522
v 0.293487 -0.112043 -0.13077
v 0.194032 -0.112043 0.210136
v 0.474872 -0.112043 0.427476
v 0 -0.112043 0.069163
v 0.368868 -0.07458 -0.234522
v -0.194032 -0.112043 0.210136
v 0 -0.07458 0.016762
v 0 0.076562 0.016762
v 0.368868 0.076562 -0.234522
v -0.368868 0.076562 -0.234522
v -0.368868 -0.07458 -0.234522
v -0.293487 -0.112043 -0.13077
v -0.368868 -0.07458 -0.234522
v -0.243868 -0.07458 0.193943
v -0.474872 -0.112043 0.427476
v -0.596841 -0.07458 0.467106
v -0.596841 0.076562 0.467106
v -0.243868 0.076562 0.193943
v -0.199707 0.120705 0.208292
v -0.488761 0.120705 0.431988
v 0.119918 -0.112043 0.438234
v -0.119918 -0.112043 0.438234
v -0.596841 -0.07458 0.467106
v 0.150719 -0.07458 0.480627
v 0.59684 -0.07458 0.467106
v 0.59684 0.076562 0.467106
v 0.150719 0.076562 0.480627
v 0 0.076562 0.900736
v 0 -0.07458 0.900736
v 0 -0.112043 0.772491
v -0.150719 -0.07458 0.480627
v 0 -0.07458 0.900736
v -0.150719 0.076562 0.480627
v -0.596841 0.076562 0.467106
v 0 0.076562 0.900736
v -0.243868 -0.07458 0.193943
v -0.368868 -0.07458 -0.234522
v -0.368868 0.076562 -0.234522
v -0.302071 0.120705 -0.142584
v 0 0.120705 0.063196
v -0.368868 0.076562 -0.234522
v 0 0.076562 0.016762
v 0.199707 0.120705 0.208292
v 0.302071 0.120705 -0.142584
v 0.368868 0.076562 -0.234522
v 0.368868 0.076562 -0.234522
v 0.243868 0.076562 0.193943
v 0.488761 0.120705 0.431988
v 0.59684 0.076562 0.467106
v -0.123426 0.120705 0.443061
v -0.150719 0.076562 0.480627
v -0.596841 0.076562 0.467106
v 0 0.076562 0.900736
v 0 0.120705 0.787094
v 0.123426 0.120705 0.443061
v 0.59684 0.076562 0.467106
v 0.150719 0.076562 0.480627
v 0 0.076562 0.900736
v -0.056297 0.048495 0.114223
v 0.056297 0.048494 0.114223
v 0.056297 -0.048495 0.114223
v -0.056297 -0.048495 0.114223
v -0.115329 0.099345 -0.422943
v -0.115329 -0.099345 -0.422943
v 0.115329 -0.099345 -0.422943
v 0.115329 0.099345 -0.422943
v 0.056297 0.048494 0.114223
v 0.115329 0.099345 -0.422943
v 0.115329 -0.099345 -0.422943
v 0.056297 -0.048495 0.114223
v -0.056297 0.048495 0.114223
v -0.115329 0.099345 -0.422943
v 0.115329 0.099345 -0.422943
v 0.056297 0.048494 0.114223
v -0.056297 -0.048495 0.114223
v -0.115329 -0.099345 -0.422943
v -0.115329 0.099345 -0.422943
v -0.056297 0.048495 0.114223
v 0.056297 -0.048495 0.114223
v 0.115329 -0.099345 -0.422943
v -0.115329 -0.099345 -0.422943
v -0.056297 -0.048495 0.114223
vt 0.672082 0.468279
vt 0.921152 0.661033
vt 0.921152 0.661033
vt 0.672082 0.468279
vt 0.760287 0.165939
vt 0.760287 0.165939
vt 0.707096 0.23915
vt 0.636916 0.479706
vt 0.835087 0.633069
vt 0.5 0.38023
vt 0.760287 0.165939
vt 0.363084 0.479706
vt 0.5 0.343255
vt 0.5 0.343255
vt 0.760287 0.165939
vt 0.239714 0.165939
vt 0.239714 0.165939
vt 0.292905 0.23915
vt 0.239714 0.165939
vt 0.327918 0.468279
vt 0.164913 0.633069
vt 0.078847 0.661033
vt 0.078847 0.661033
vt 0.327918 0.468279
vt 0.35908 0.478405
vt 0.155113 0.636253
vt 0.584619 0.64066
vt 0.415381 0.64066
vt 0.078847 0.661033
vt 0.606353 0.670574
vt 0.921152 0.661033
vt 0.921152 0.661033
vt 0.606353 0.670574
vt 0.5 0.967018
vt 0.5 0.967018
vt 0.5 0.876524
vt 0.393647 0.670574
vt 0.5 0.967018
vt 0.393647 0.670574
vt 0.078847 0.661033
vt 0.5 0.967018
vt 0.327918 0.468279
vt 0.239714 0.165939
vt 0.239714 0.165939
vt 0.286848 0.230813
vt 0.5 0.37602
vt 0.239714 0.165939
vt 0.5 0.343255
vt 0.640921 0.478405
vt 0.713152 0.230814
vt 0.760287 0.165939
vt 0.760287 0.165939
vt 0.672082 0.468279
vt 0.844888 0.636253
vt 0.921152 0.661033
vt 0.412906 0.644066
vt 0.393647 0.670574
vt 0.078847 0.661033
vt 0.5 0.967018
vt 0.5 0.886829
vt 0.587094 0.644066
vt 0.921152 0.661033
vt 0.606353 0.670574
vt 0.5 0.967018
vt 0.460275 0.412026
vt 0.539725 0.412026
vt 0.539725 0.412026
vt 0.460275 0.412026
vt 0.41862 0.032982
vt 0.41862 0.032982
vt 0.581381 0.032982
vt 0.581381 0.032982
vt 0.539725 0.412026
vt 0.581381 0.032982
vt 0.581381 0.032982
vt 0.539725 0.412026
vt 0.460275 0.412026
vt 0.41862 0.032982
vt 0.581381 0.032982
vt 0.539725 0.412026
vt 0.460275 0.412026
vt 0.41862 0.032982
vt 0.41862 0.032982
vt 0.460275 0.412026
vt 0.539725 0.412026
vt 0.581381 0.032982
vt 0.41862 0.032982
vt 0.460275 0.412026
vn 0.9193352 0.2561168 -0.2987089
vn 0.6106045 -0.06809865 -0.7890024
vn 0.6106224 0.06766518 -0.7890258
vn 0.9072742 -0.2999202 -0.2947901
vn 0.957781 0.06766644 0.2794221
vn 0.9577528 -0.0680994 0.2794139
vn 0.1293568 -0.9754827 -0.1780453
vn 0.1225827 -0.9916587 -0.03982976
vn 0.1814609 -0.9816291 0.05896006
vn 0 -0.9897026 -0.1431385
vn -0.5616981 -0.0680982 -0.8245349
vn -0.07544871 -0.9968483 -0.02451499
vn 0 -0.2999186 -0.9539648
vn 0 0.2561195 -0.9666451
vn -0.5617146 0.06766697 -0.8245592
vn 0.5617146 0.06766696 -0.8245592
vn 0.5616981 -0.0680982 -0.8245349
vn -0.1293568 -0.9754828 -0.1780453
vn -0.9577528 -0.0680994 0.2794139
vn -0.9072738 -0.2999211 -0.2947911
vn -0.1586273 -0.9859924 0.0515413
vn -0.6106033 -0.0680989 -0.7890032
vn -0.6106213 0.06766547 -0.7890265
vn -0.9193346 0.2561177 -0.29871
vn -0.1475004 0.9879001 -0.04792609
vn -0.2235254 0.9719885 0.07262646
vn 0.1499507 -0.9669122 0.2063873
vn -0.1678761 -0.9583471 0.2310594
vn -0.0302236 -0.06809837 0.9972208
vn 0.5607258 -0.2999205 0.7717734
vn 0.03022366 -0.06809887 0.9972208
vn 0.03022458 0.06766827 0.9972499
vn 0.56818 0.2561208 0.7820317
vn 0.9391009 0.06766672 0.3369135
vn 0.9390733 -0.06809907 0.3369035
vn 0 -0.9754829 0.2200749
vn -0.5607253 -0.2999204 0.7717738
vn -0.9390733 -0.06809907 0.3369035
vn -0.5681794 0.2561207 0.7820321
vn -0.03022452 0.0676678 0.9972499
vn -0.9391009 0.06766672 0.3369135
vn -0.9072738 -0.2999211 -0.2947911
vn -0.9577528 -0.0680994 0.2794139
vn -0.957781 0.06766643 0.2794221
vn -0.1619208 0.9613081 -0.2228643
vn 0 0.9850153 -0.1724671
vn 0.5617146 0.06766696 -0.8245592
vn 0 0.2561195 -0.9666451
vn 0.09029305 0.995483 -0.02933812
vn 0.1619208 0.9613081 -0.2228643
vn -0.5617146 0.06766697 -0.8245592
vn 0.957781 0.06766644 0.2794221
vn 0.9193352 0.2561168 -0.2987089
vn 0.1927826 0.9792403 0.06263732
vn 0.6106224 0.06766518 -0.7890258
vn -0.1819302 0.9508932 0.2504065
vn -0.5681794 0.2561207 0.7820321
vn -0.03022452 0.0676678 0.9972499
vn -0.9391009 0.06766672 0.3369135
vn 0 0.9613082 0.2754753
vn 0.2038183 0.9379549 0.2805328
vn 0.03022458 0.06766827 0.9972499
vn 0.56818 0.2561208 0.7820317
vn 0.9391009 0.06766672 0.3369135
vn 0 0 1
vn 0 0 1
vn 0 0 1
vn 0 0 1
vn 0 0 -1
vn 0 0 -1
vn 0 0 -1
vn 0 0 -1
vn 0.9940157 0 0.1092376
vn 0.9940157 0 0.1092376
vn 0.9940157 0 0.1092376
vn 0.9940157 0 0.1092376
vn 0 0.9955492 0.09424306
vn 0 0.9955492 0.09424306
vn 0 0.9955492 0.09424306
vn 0 0.9955492 0.09424305
vn -0.9940157 0 0.1092376
vn -0.9940157 0 0.1092376
vn -0.9940157 0 0.1092376
vn -0.9940157 0 0.1092376
vn 0 -0.9955493 0.09424215
vn 0 -0.9955493 0.09424214
vn 0 -0.9955493 0.09424214
vn 0 -0.9955493 0.09424215
g StarLightTreeTop_0
f 3/3/3 2/2/2 1/1/1
f 2/2/2 4/4/4 1/1/1
f 1/1/1 4/4/4 5/5/5
f 4/4/4 6/6/6 5/5/5
f 7/7/7 6/6/6 4/4/4
f 8/8/8 4/4/4 2/2/2
f 8/8/8 7/7/7 4/4/4
f 9/9/9 8/8/8 2/2/2
f 10/10/10 7/7/7 8/8/8
f 7/7/7 10/10/10 11/11/11
f 8/8/8 9/9/9 12/12/12
f 10/10/10 8/8/8 12/12/12
f 10/10/10 13/13/13 11/11/11
f 11/11/11 13/13/13 14/14/14
f 15/15/15 11/11/11 14/14/14
f 14/14/14 13/13/13 16/16/16
f 13/13/13 17/17/17 16/16/16
f 18/18/18 17/17/17 13/13/13
f 10/10/10 18/18/18 13/13/13
f 12/12/12 18/18/18 10/10/10
f 18/18/18 12/12/12 19/19/19
f 12/12/12 20/20/20 19/19/19
f 9/9/9 21/21/21 12/12/12
f 12/12/12 21/21/21 20/20/20
f 21/21/21 22/22/22 20/20/20
f 20/20/20 22/22/22 23/23/23
f 24/24/24 20/20/20 23/23/23
f 25/25/25 24/24/24 23/23/23
f 26/26/26 25/25/25 23/23/23
f 9/9/9 27/27/27 21/21/21
f 27/27/27 28/28/28 21/21/21
f 21/21/21 28/28/28 29/29/29
f 27/27/27 9/9/9 30/30/30
f 9/9/9 31/31/31 30/30/30
f 30/30/30 31/31/31 32/32/32
f 33/33/33 30/30/30 32/32/32
f 30/30/30 33/33/33 34/34/34
f 35/35/35 30/30/30 34/34/34
f 27/27/27 30/30/30 35/35/35
f 36/36/36 27/27/27 35/35/35
f 27/27/27 36/36/36 28/28/28
f 28/28/28 36/36/36 37/37/37
f 28/28/28 37/37/37 29/29/29
f 36/36/36 38/38/38 37/37/37
f 29/29/29 37/37/37 39/39/39
f 37/37/37 38/38/38 39/39/39
f 40/40/40 29/29/29 39/39/39
f 38/38/38 41/41/41 39/39/39
f 43/43/43 42/42/42 24/24/24
f 44/44/44 43/43/43 24/24/24
f 45/45/45 44/44/44 24/24/24
f 25/25/25 45/45/45 24/24/24
f 46/46/46 45/45/45 25/25/25
f 45/45/45 46/46/46 47/47/47
f 46/46/46 48/48/48 47/47/47
f 46/46/46 25/25/25 49/49/49
f 25/25/25 26/26/26 49/49/49
f 46/46/46 50/50/50 48/48/48
f 49/49/49 50/50/50 46/46/46
f 50/50/50 51/51/51 48/48/48
f 50/50/50 49/49/49 52/52/52
f 49/49/49 53/53/53 52/52/52
f 49/49/49 54/54/54 53/53/53
f 26/26/26 54/54/54 49/49/49
f 54/54/54 55/55/55 53/53/53
f 26/26/26 56/56/56 54/54/54
f 56/56/56 26/26/26 57/57/57
f 26/26/26 58/58/58 57/57/57
f 56/56/56 57/57/57 59/59/59
f 60/60/60 56/56/56 59/59/59
f 56/56/56 61/61/61 54/54/54
f 56/56/56 60/60/60 61/61/61
f 54/54/54 61/61/61 62/62/62
f 61/61/61 63/63/63 62/62/62
f 61/61/61 60/60/60 63/63/63
f 60/60/60 64/64/64 63/63/63
f 67/67/67 66/66/66 65/65/65
f 68/68/68 67/67/67 65/65/65
f 71/71/71 70/70/70 69/69/69
f 72/72/72 71/71/71 69/69/69
f 75/75/75 74/74/74 73/73/73
f 76/76/76 75/75/75 73/73/73
f 79/79/79 78/78/78 77/77/77
f 80/80/80 79/79/79 77/77/77
f 83/83/83 82/82/82 81/81/81
f 84/84/84 83/83/83 81/81/81
f 87/87/87 86/86/86 85/85/85
f 88/88/88 87/87/87 85/85/85
