g StatueBase
v -0.4655018 -1.5 -0.03855
v -0.4655018 -1.5 0.1817033
v 0.4655018 -1.5 0.1817033
v 0.4655018 -1.5 -0.03855
v 0.7086165 -1.394678 -0.03855
v 0.7086165 -1.394678 0.1817033
v -0.4424325 1.388716 0.3048225
v -0.4424325 1.388716 0.2452305
v 0.4424325 1.388716 0.2452305
v 0.4424325 1.388716 0.3048225
v 0.622113 1.310876 0.2452305
v 0.622113 1.310876 0.3048225
v 0.4655018 1.5 -0.03855
v 0.4655018 1.5 0.1817033
v -0.4655018 1.5 0.1817033
v -0.4655018 1.5 -0.03855
v -0.7086165 1.394678 -0.03855
v -0.7086165 1.394678 0.1817033
v -0.6874485 1.353016 0.2452305
v -0.451596 1.455192 0.2452305
v 0.4655018 1.5 0.1817033
v 0.451596 1.455192 0.2452305
v 0.7086165 1.394678 0.1817033
v 0.6874485 1.353016 0.2452305
v 0.4655018 1.5 -0.03855
v 0.7086165 1.394678 -0.03855
v -0.8093182 1.140409 -0.03855
v -0.7086165 1.394678 -0.03855
v -0.7086165 1.394678 0.1817033
v -0.8093182 1.140409 0.1817033
v -0.7851421 1.106343 0.2452305
v -0.6874485 1.353016 0.2452305
v -0.7851421 -1.106343 0.2452305
v -0.8093182 -1.140409 0.1817033
v -0.8093182 -1.140409 -0.03855
v -0.6874485 -1.353016 0.2452305
v -0.7086165 -1.394678 -0.03855
v -0.7086165 -1.394678 0.1817033
v 0.8093182 -1.140409 -0.03855
v 0.7086165 -1.394678 -0.03855
v 0.7086165 -1.394678 0.1817033
v 0.8093182 -1.140409 0.1817033
v 0.7851421 -1.106343 0.2452305
v 0.6874485 -1.353016 0.2452305
v 0.7851421 1.106343 0.2452305
v 0.8093182 1.140409 0.1817033
v 0.8093182 1.140409 -0.03855
v 0.6874485 1.353016 0.2452305
v 0.7086165 1.394678 -0.03855
v 0.7086165 1.394678 0.1817033
v -0.7086165 -1.394678 0.1817033
v -0.4655018 -1.5 0.1817033
v -0.4655018 -1.5 -0.03855
v -0.7086165 -1.394678 -0.03855
v 0.622113 -1.310876 0.3048225
v 0.622113 -1.310876 0.2452305
v 0.4424325 -1.388716 0.2452305
v 0.4424325 -1.388716 0.3048225
v -0.4424325 -1.388716 0.2452305
v -0.4424325 -1.388716 0.3048225
v -0.588768 -1.278572 0.3477195
v -0.6551377 -1.110991 0.3477195
v -0.6551377 1.110991 0.3477195
v -0.588768 1.278572 0.3477195
v -0.622113 1.310876 0.3048225
v -0.6980348 1.119175 0.3048225
v -0.4335405 -1.345819 0.3477195
v -0.622113 -1.310876 0.3048225
v -0.4424325 -1.388716 0.3048225
v -0.4335405 1.345819 0.3477195
v 0.4335405 -1.345819 0.3477195
v 0.4335405 1.345819 0.3477195
v 0.588768 -1.278572 0.3477195
v 0.4424325 1.388716 0.3048225
v -0.4424325 1.388716 0.3048225
v 0.622113 1.310876 0.3048225
v 0.588768 1.278572 0.3477195
v 0.6980348 1.119175 0.3048225
v 0.6551377 -1.110991 0.3477195
v 0.622113 -1.310876 0.3048225
v 0.6980348 -1.119175 0.3048225
v 0.6551377 1.110991 0.3477195
v -0.622113 -1.310876 0.3048225
v -0.622113 -1.310876 0.2452305
v -0.6980348 -1.119175 0.2452305
v -0.6980348 -1.119175 0.3048225
v -0.6980348 1.119175 0.2452305
v -0.6980348 1.119175 0.3048225
v -0.622113 1.310876 0.2452305
v -0.622113 1.310876 0.3048225
v -0.4424325 -1.388716 0.3048225
v -0.4424325 -1.388716 0.2452305
v -0.622113 -1.310876 0.2452305
v -0.622113 -1.310876 0.3048225
v 0.4424325 -1.388716 0.2452305
v 0.451596 -1.455192 0.2452305
v -0.451596 -1.455192 0.2452305
v -0.4424325 -1.388716 0.2452305
v -0.6874485 -1.353016 0.2452305
v -0.622113 -1.310876 0.2452305
v -0.7086165 -1.394678 0.1817033
v -0.7851421 -1.106343 0.2452305
v -0.4655018 -1.5 0.1817033
v -0.6980348 -1.119175 0.2452305
v -0.7851421 1.106343 0.2452305
v -0.6980348 1.119175 0.2452305
v -0.6874485 1.353016 0.2452305
v -0.622113 1.310876 0.2452305
v -0.451596 1.455192 0.2452305
v -0.4424325 1.388716 0.2452305
v 0.451596 1.455192 0.2452305
v 0.4424325 1.388716 0.2452305
v 0.6874485 1.353016 0.2452305
v 0.622113 1.310876 0.2452305
v 0.7851421 1.106343 0.2452305
v 0.6980348 1.119175 0.2452305
v 0.7851421 -1.106343 0.2452305
v 0.6980348 -1.119175 0.2452305
v 0.6874485 -1.353016 0.2452305
v 0.622113 -1.310876 0.2452305
v 0.451596 -1.455192 0.2452305
v 0.4655018 -1.5 0.1817033
v 0.7086165 -1.394678 0.1817033
v 0.622113 1.310876 0.3048225
v 0.622113 1.310876 0.2452305
v 0.6980348 1.119175 0.2452305
v 0.6980348 1.119175 0.3048225
v 0.6980348 -1.119175 0.2452305
v 0.6980348 -1.119175 0.3048225
v 0.622113 -1.310876 0.2452305
v 0.622113 -1.310876 0.3048225
v -0.588768 1.278572 0.3477195
v -0.622113 1.310876 0.3048225
v -0.4424325 1.388716 0.3048225
v -0.4335405 1.345819 0.3477195
v 0.588768 -1.278572 0.3477195
v 0.622113 -1.310876 0.3048225
v 0.4424325 -1.388716 0.3048225
v 0.4335405 -1.345819 0.3477195
v -0.4424325 -1.388716 0.3048225
v -0.4335405 -1.345819 0.3477195
v -0.588768 -1.278572 0.3477195
v -0.622113 -1.310876 0.3048225
v -0.6980348 -1.119175 0.3048225
v -0.6551377 -1.110991 0.3477195
v -0.6980348 1.119175 0.3048225
v -0.6551377 1.110991 0.3477195
v -0.622113 1.310876 0.3048225
v -0.622113 1.310876 0.2452305
v -0.4424325 1.388716 0.2452305
v -0.4424325 1.388716 0.3048225
vt 0.079063 0.009629
vt 0.079063 0.069751
vt 0.079063 0.069751
vt 0.079063 0.009629
vt 0.107812 0.009629
vt 0.107812 0.069751
vt 0.867591 0.103359
vt 0.867591 0.087092
vt 0.867591 0.087092
vt 0.867591 0.103359
vt 0.846343 0.087092
vt 0.846343 0.103359
vt 0.897967 0.009629
vt 0.897967 0.069751
vt 0.897967 0.069751
vt 0.897967 0.009629
vt 0.869218 0.009629
vt 0.869218 0.069751
vt 0.869218 0.087092
vt 0.897967 0.087092
vt 0.897967 0.069751
vt 0.897967 0.087092
vt 0.869218 0.069751
vt 0.869218 0.087092
vt 0.897967 0.009629
vt 0.869218 0.009629
vt 0.799811 0.009629
vt 0.869218 0.009629
vt 0.869218 0.069751
vt 0.799811 0.069751
vt 0.799811 0.087092
vt 0.869218 0.087092
vt 0.177219 0.087092
vt 0.177219 0.069751
vt 0.177219 0.009629
vt 0.107812 0.087092
vt 0.107812 0.009629
vt 0.107812 0.069751
vt 0.177219 0.009629
vt 0.107812 0.009629
vt 0.107812 0.069751
vt 0.177219 0.069751
vt 0.177219 0.087092
vt 0.107812 0.087092
vt 0.799811 0.087092
vt 0.799811 0.069751
vt 0.799811 0.009629
vt 0.869218 0.087092
vt 0.869218 0.009629
vt 0.869218 0.069751
vt 0.107812 0.069751
vt 0.079063 0.069751
vt 0.079063 0.009629
vt 0.107812 0.009629
vt 0.130688 0.103359
vt 0.130688 0.087092
vt 0.10944 0.087092
vt 0.10944 0.103359
vt 0.10944 0.087092
vt 0.10944 0.103359
vt 0.203612 0.30345
vt 0.187314 0.344603
vt 0.187314 0.89024
vt 0.203612 0.931392
vt 0.195424 0.939325
vt 0.17678 0.89225
vt 0.241731 0.286937
vt 0.195424 0.295518
vt 0.239547 0.276403
vt 0.241731 0.947906
vt 0.454654 0.286937
vt 0.454654 0.947906
vt 0.492772 0.30345
vt 0.456838 0.95844
vt 0.239547 0.95844
vt 0.500961 0.939325
vt 0.492772 0.931392
vt 0.519604 0.89225
vt 0.50907 0.344603
vt 0.500961 0.295518
vt 0.519604 0.342592
vt 0.50907 0.89024
vt 0.130688 0.103359
vt 0.130688 0.087092
vt 0.183016 0.087092
vt 0.183016 0.103359
vt 0.794015 0.087092
vt 0.794015 0.103359
vt 0.846343 0.087092
vt 0.846343 0.103359
vt 0.10944 0.103359
vt 0.10944 0.087092
vt 0.130688 0.087092
vt 0.130688 0.103359
vt 0.10944 0.087092
vt 0.079063 0.087092
vt 0.079063 0.087092
vt 0.10944 0.087092
vt 0.107812 0.087092
vt 0.130688 0.087092
vt 0.107812 0.069751
vt 0.177219 0.087092
vt 0.079063 0.069751
vt 0.183016 0.087092
vt 0.799811 0.087092
vt 0.794015 0.087092
vt 0.869218 0.087092
vt 0.846343 0.087092
vt 0.897967 0.087092
vt 0.867591 0.087092
vt 0.897967 0.087092
vt 0.867591 0.087092
vt 0.869218 0.087092
vt 0.846343 0.087092
vt 0.799811 0.087092
vt 0.794015 0.087092
vt 0.177219 0.087092
vt 0.183016 0.087092
vt 0.107812 0.087092
vt 0.130688 0.087092
vt 0.079063 0.087092
vt 0.079063 0.069751
vt 0.107812 0.069751
vt 0.846343 0.103359
vt 0.846343 0.087092
vt 0.794015 0.087092
vt 0.794015 0.103359
vt 0.183016 0.087092
vt 0.183016 0.103359
vt 0.130688 0.087092
vt 0.130688 0.103359
vt 0.203612 0.931392
vt 0.195424 0.939325
vt 0.239547 0.95844
vt 0.241731 0.947906
vt 0.492772 0.30345
vt 0.500961 0.295518
vt 0.456838 0.276403
vt 0.454654 0.286937
vt 0.239547 0.276403
vt 0.241731 0.286937
vt 0.203612 0.30345
vt 0.195424 0.295518
vt 0.17678 0.342592
vt 0.187314 0.344603
vt 0.17678 0.89225
vt 0.187314 0.89024
vt 0.846343 0.103359
vt 0.846343 0.087092
vt 0.867591 0.087092
vt 0.867591 0.103359
vn -0.08934412 -0.9960008 0
vn -0.08951776 -0.9852287 0.1459836
vn 0.08951776 -0.9852285 0.1459836
vn 0.08934412 -0.9960008 0
vn 0.7227821 -0.6910759 0
vn 0.7083288 -0.6923827 0.1373918
vn -0.06653247 0.9277124 0.3673188
vn -0.07292589 0.9973373 0
vn 0.07292589 0.9973373 0
vn 0.06653247 0.9277124 0.3673188
vn 0.7256197 0.6880959 0
vn 0.6775676 0.6420094 0.3587843
vn 0.08934412 0.9960008 0
vn 0.08951776 0.9852285 0.1459836
vn -0.08951777 0.9852285 0.1459836
vn -0.08934412 0.9960008 0
vn -0.7227821 0.6910759 0
vn -0.7083288 0.6923827 0.1373918
vn -0.4403732 0.3867764 0.8102317
vn -0.04612686 0.5423989 0.8388538
vn 0.08951776 0.9852285 0.1459836
vn 0.04612685 0.5423989 0.8388538
vn 0.7083288 0.6923827 0.1373918
vn 0.4403733 0.3867764 0.8102317
vn 0.08934412 0.9960008 0
vn 0.7227821 0.6910759 0
vn -0.9992119 0.03969186 0
vn -0.7227821 0.6910759 0
vn -0.7083288 0.6923827 0.1373918
vn -0.996392 0.04365844 0.07277999
vn -0.5479443 0.01407848 0.8363963
vn -0.4403732 0.3867764 0.8102317
vn -0.5479443 -0.01407848 0.8363963
vn -0.996392 -0.04365845 0.07277999
vn -0.9992119 -0.03969186 0
vn -0.4403733 -0.3867764 0.8102317
vn -0.7227821 -0.6910759 0
vn -0.7083288 -0.6923827 0.1373918
vn 0.9992119 -0.03969186 0
vn 0.7227821 -0.6910759 0
vn 0.7083288 -0.6923827 0.1373918
vn 0.996392 -0.04365844 0.07277999
vn 0.5479443 -0.01407848 0.8363963
vn 0.4403732 -0.3867764 0.8102317
vn 0.5479443 0.01407848 0.8363963
vn 0.996392 0.04365844 0.07277999
vn 0.9992119 0.03969186 0
vn 0.4403733 0.3867764 0.8102317
vn 0.7227821 0.6910759 0
vn 0.7083288 0.6923827 0.1373918
vn -0.7083288 -0.6923827 0.1373918
vn -0.08951776 -0.9852287 0.1459836
vn -0.08934412 -0.9960008 0
vn -0.7227821 -0.6910759 0
vn 0.6775674 -0.6420094 0.3587842
vn 0.7256197 -0.6880959 0
vn 0.07292589 -0.9973373 0
vn 0.06653247 -0.9277124 0.3673188
vn -0.07292589 -0.9973373 0
vn -0.06653247 -0.9277124 0.3673188
vn -0.0444334 -0.04203974 0.9981274
vn -0.4197317 -0.01239203 0.9075636
vn -0.3936611 0.01162232 0.9191822
vn -0.04220163 0.0399282 0.998311
vn -0.6775675 0.6420094 0.3587843
vn -0.9289873 0.02839315 0.3690208
vn -0.002491702 -0.03583889 0.9993544
vn -0.6775675 -0.6420094 0.3587843
vn -0.06653247 -0.9277124 0.3673188
vn -0.002478399 0.03564756 0.9993613
vn 0.002478399 -0.03564756 0.9993613
vn 0.002491702 0.03583889 0.9993544
vn 0.04220163 -0.03992821 0.998311
vn 0.06653247 0.9277124 0.3673188
vn -0.06653247 0.9277124 0.3673188
vn 0.6775676 0.6420094 0.3587843
vn 0.04443339 0.04203973 0.9981274
vn 0.9289873 0.02839315 0.3690208
vn 0.3936611 -0.01162232 0.9191822
vn 0.6775674 -0.6420094 0.3587842
vn 0.9289873 -0.02839315 0.3690208
vn 0.4197317 0.01239202 0.9075636
vn -0.6775675 -0.6420094 0.3587843
vn -0.7256197 -0.6880959 0
vn -0.9995123 -0.03122762 0
vn -0.9289873 -0.02839315 0.3690208
vn -0.9995123 0.03122762 0
vn -0.9289873 0.02839315 0.3690208
vn -0.7256197 0.6880959 0
vn -0.6775675 0.6420094 0.3587843
vn -0.06653247 -0.9277124 0.3673188
vn -0.07292589 -0.9973373 0
vn -0.7256197 -0.6880959 0
vn -0.6775675 -0.6420094 0.3587843
vn 0 0 1
vn 0.04612685 -0.5423989 0.8388538
vn -0.04612685 -0.5423989 0.8388538
vn 0 0 1
vn -0.4403733 -0.3867764 0.8102317
vn 0 0 1
vn -0.7083288 -0.6923827 0.1373918
vn -0.5479443 -0.01407848 0.8363963
vn -0.08951776 -0.9852287 0.1459836
vn 0 0 1
vn -0.5479443 0.01407848 0.8363963
vn 0 0 1
vn -0.4403732 0.3867764 0.8102317
vn 0 0 1
vn -0.04612686 0.5423989 0.8388538
vn 0 0 1
vn 0.04612685 0.5423989 0.8388538
vn 0 0 1
vn 0.4403733 0.3867764 0.8102317
vn 0 0 1
vn 0.5479443 0.01407848 0.8363963
vn 0 0 1
vn 0.5479443 -0.01407848 0.8363963
vn 0 0 1
vn 0.4403732 -0.3867764 0.8102317
vn 0 0 1
vn 0.04612685 -0.5423989 0.8388538
vn 0.08951776 -0.9852285 0.1459836
vn 0.7083288 -0.6923827 0.1373918
vn 0.6775676 0.6420094 0.3587843
vn 0.7256197 0.6880959 0
vn 0.9995123 0.03122762 0
vn 0.9289873 0.02839315 0.3690208
vn 0.9995123 -0.03122762 0
vn 0.9289873 -0.02839315 0.3690208
vn 0.7256197 -0.6880959 0
vn 0.6775674 -0.6420094 0.3587842
vn -0.04220163 0.0399282 0.998311
vn -0.6775675 0.6420094 0.3587843
vn -0.06653247 0.9277124 0.3673188
vn -0.002478399 0.03564756 0.9993613
vn 0.04220163 -0.03992821 0.998311
vn 0.6775674 -0.6420094 0.3587842
vn 0.06653247 -0.9277124 0.3673188
vn 0.002478399 -0.03564756 0.9993613
vn -0.06653247 -0.9277124 0.3673188
vn -0.002491702 -0.03583889 0.9993544
vn -0.0444334 -0.04203974 0.9981274
vn -0.6775675 -0.6420094 0.3587843
vn -0.9289873 -0.02839315 0.3690208
vn -0.4197317 -0.01239203 0.9075636
vn -0.9289873 0.02839315 0.3690208
vn -0.3936611 0.01162232 0.9191822
vn -0.6775675 0.6420094 0.3587843
vn -0.7256197 0.6880959 0
vn -0.07292589 0.9973373 0
vn -0.06653247 0.9277124 0.3673188
g StatueBase_0
f 3/3/3 2/2/2 1/1/1
f 4/4/4 3/3/3 1/1/1
f 3/3/3 4/4/4 5/5/5
f 6/6/6 3/3/3 5/5/5
f 9/9/9 8/8/8 7/7/7
f 10/10/10 9/9/9 7/7/7
f 11/11/11 9/9/9 10/10/10
f 12/12/12 11/11/11 10/10/10
f 15/15/15 14/14/14 13/13/13
f 16/16/16 15/15/15 13/13/13
f 15/15/15 16/16/16 17/17/17
f 18/18/18 15/15/15 17/17/17
f 18/18/18 19/19/19 15/15/15
f 19/19/19 20/20/20 15/15/15
f 15/15/15 20/20/20 21/21/21
f 20/20/20 22/22/22 21/21/21
f 21/21/21 22/22/22 23/23/23
f 22/22/22 24/24/24 23/23/23
f 25/25/25 21/21/21 23/23/23
f 26/26/26 25/25/25 23/23/23
f 29/29/29 28/28/28 27/27/27
f 30/30/30 29/29/29 27/27/27
f 30/30/30 31/31/31 29/29/29
f 31/31/31 32/32/32 29/29/29
f 33/33/33 31/31/31 30/30/30
f 34/34/34 30/30/30 27/27/27
f 34/34/34 33/33/33 30/30/30
f 35/35/35 34/34/34 27/27/27
f 36/36/36 33/33/33 34/34/34
f 35/35/35 37/37/37 34/34/34
f 38/38/38 36/36/36 34/34/34
f 37/37/37 38/38/38 34/34/34
f 41/41/41 40/40/40 39/39/39
f 42/42/42 41/41/41 39/39/39
f 42/42/42 43/43/43 41/41/41
f 43/43/43 44/44/44 41/41/41
f 45/45/45 43/43/43 42/42/42
f 46/46/46 42/42/42 39/39/39
f 46/46/46 45/45/45 42/42/42
f 47/47/47 46/46/46 39/39/39
f 48/48/48 45/45/45 46/46/46
f 47/47/47 49/49/49 46/46/46
f 50/50/50 48/48/48 46/46/46
f 49/49/49 50/50/50 46/46/46
f 53/53/53 52/52/52 51/51/51
f 54/54/54 53/53/53 51/51/51
f 57/57/57 56/56/56 55/55/55
f 58/58/58 57/57/57 55/55/55
f 59/59/59 57/57/57 58/58/58
f 60/60/60 59/59/59 58/58/58
f 63/63/63 62/62/62 61/61/61
f 64/64/64 63/63/63 61/61/61
f 64/64/64 65/65/65 63/63/63
f 65/65/65 66/66/66 63/63/63
f 64/64/64 61/61/61 67/67/67
f 61/61/61 68/68/68 67/67/67
f 68/68/68 69/69/69 67/67/67
f 70/70/70 64/64/64 67/67/67
f 70/70/70 67/67/67 71/71/71
f 72/72/72 70/70/70 71/71/71
f 72/72/72 71/71/71 73/73/73
f 72/72/72 74/74/74 70/70/70
f 74/74/74 75/75/75 70/70/70
f 76/76/76 74/74/74 72/72/72
f 77/77/77 76/76/76 72/72/72
f 77/77/77 72/72/72 73/73/73
f 78/78/78 76/76/76 77/77/77
f 77/77/77 73/73/73 79/79/79
f 73/73/73 80/80/80 79/79/79
f 80/80/80 81/81/81 79/79/79
f 82/82/82 78/78/78 77/77/77
f 79/79/79 82/82/82 77/77/77
f 81/81/81 78/78/78 82/82/82
f 79/79/79 81/81/81 82/82/82
f 85/85/85 84/84/84 83/83/83
f 86/86/86 85/85/85 83/83/83
f 87/87/87 85/85/85 86/86/86
f 88/88/88 87/87/87 86/86/86
f 89/89/89 87/87/87 88/88/88
f 90/90/90 89/89/89 88/88/88
f 93/93/93 92/92/92 91/91/91
f 94/94/94 93/93/93 91/91/91
f 97/97/97 96/96/96 95/95/95
f 98/98/98 97/97/97 95/95/95
f 99/99/99 97/97/97 98/98/98
f 100/100/100 99/99/99 98/98/98
f 97/97/97 99/99/99 101/101/101
f 102/102/102 99/99/99 100/100/100
f 103/103/103 97/97/97 101/101/101
f 104/104/104 102/102/102 100/100/100
f 105/105/105 102/102/102 104/104/104
f 106/106/106 105/105/105 104/104/104
f 107/107/107 105/105/105 106/106/106
f 108/108/108 107/107/107 106/106/106
f 109/109/109 107/107/107 108/108/108
f 110/110/110 109/109/109 108/108/108
f 111/111/111 109/109/109 110/110/110
f 112/112/112 111/111/111 110/110/110
f 113/113/113 111/111/111 112/112/112
f 114/114/114 113/113/113 112/112/112
f 115/115/115 113/113/113 114/114/114
f 116/116/116 115/115/115 114/114/114
f 117/117/117 115/115/115 116/116/116
f 118/118/118 117/117/117 116/116/116
f 119/119/119 117/117/117 118/118/118
f 120/120/120 119/119/119 118/118/118
f 121/121/121 119/119/119 120/120/120
f 95/95/95 121/121/121 120/120/120
f 119/119/119 121/121/121 122/122/122
f 123/123/123 119/119/119 122/122/122
f 122/122/122 121/121/121 103/103/103
f 121/121/121 97/97/97 103/103/103
f 126/126/126 125/125/125 124/124/124
f 127/127/127 126/126/126 124/124/124
f 128/128/128 126/126/126 127/127/127
f 129/129/129 128/128/128 127/127/127
f 130/130/130 128/128/128 129/129/129
f 131/131/131 130/130/130 129/129/129
f 134/134/134 133/133/133 132/132/132
f 135/135/135 134/134/134 132/132/132
f 138/138/138 137/137/137 136/136/136
f 139/139/139 138/138/138 136/136/136
f 140/140/140 138/138/138 139/139/139
f 141/141/141 140/140/140 139/139/139
f 144/144/144 143/143/143 142/142/142
f 145/145/145 144/144/144 142/142/142
f 146/146/146 144/144/144 145/145/145
f 147/147/147 146/146/146 145/145/145
f 150/150/150 149/149/149 148/148/148
f 151/151/151 150/150/150 148/148/148
