g StoreShelf
v -1.610103 -0.298662 0.818205
v -1.610103 0.587376 1.261224
v -1.610103 -0.298662 1.261224
v -1.610103 0.587376 0.818205
v -1.610103 -0.298662 0.05802
v -1.610103 0.587376 0.05802
v -1.610103 0.587376 0.818205
v 1.610103 0.587376 1.261224
v -1.610103 0.587376 1.261224
v 1.610103 0.587376 0.818205
v -1.610103 0.587376 0.05802
v 1.610103 0.587376 0.05802
v 1.610103 0.587376 0.818205
v 1.610103 -0.298662 1.261224
v 1.610103 0.587376 1.261224
v 1.610103 -0.298662 0.818205
v 1.610103 0.587376 0.05802
v 1.610103 -0.298662 0.05802
v -1.560104 -0.298662 0.10802
v -1.560104 0.082126 0.10802
v 1.560103 0.082126 0.10802
v 1.560103 -0.298662 0.10802
v -1.610103 0.587376 0.05802
v -1.610103 -0.298662 0.05802
v 1.610103 -0.298662 0.05802
v 1.610103 0.587376 0.05802
v 1.610103 0.587376 1.261224
v 1.610103 -0.298662 1.261224
v -1.610103 -0.298662 1.261224
v -1.610103 0.587376 1.261224
v 1.560103 -0.298662 0.768205
v 1.560103 0.082126 0.768205
v -1.560104 0.082126 0.768205
v -1.560104 -0.298662 0.768205
v 1.560103 -0.298662 0.768205
v 1.610103 -0.298662 0.818205
v 1.610103 -0.298662 0.05802
v 1.560103 -0.298662 0.10802
v 1.560103 -0.298662 0.10802
v 1.610103 -0.298662 0.05802
v -1.610103 -0.298662 0.05802
v -1.560104 -0.298662 0.10802
v -1.560104 -0.298662 0.10802
v -1.610103 -0.298662 0.05802
v -1.610103 -0.298662 0.818205
v -1.560104 -0.298662 0.768205
v -1.560104 -0.298662 0.768205
v -1.610103 -0.298662 0.818205
v 1.610103 -0.298662 0.818205
v 1.560103 -0.298662 0.768205
v -1.560104 -0.298662 0.868205
v -1.610103 -0.298662 0.818205
v -1.610103 -0.298662 1.261224
v -1.560104 -0.298662 1.211224
v -1.560104 -0.298662 1.211224
v -1.610103 -0.298662 1.261224
v 1.610103 -0.298662 1.261224
v 1.560103 -0.298662 1.211224
v 1.560103 -0.298662 1.211224
v 1.610103 -0.298662 1.261224
v 1.610103 -0.298662 0.818205
v 1.560103 -0.298662 0.868205
v 1.560103 -0.298662 0.868205
v 1.610103 -0.298662 0.818205
v -1.610103 -0.298662 0.818205
v -1.560104 -0.298662 0.868205
v 1.560103 0.082126 0.868205
v -1.560104 0.082126 0.868205
v -1.560104 0.082126 1.211224
v 1.560103 0.082126 1.211224
v 1.560103 0.082126 0.10802
v -1.560104 0.082126 0.10802
v -1.560104 0.082126 0.768205
v 1.560103 0.082126 0.768205
v 1.560103 -0.298662 0.868205
v 1.560103 0.082126 0.868205
v 1.560103 0.082126 1.211224
v 1.560103 -0.298662 1.211224
v -1.560104 -0.298662 1.211224
v -1.560104 0.082126 1.211224
v -1.560104 0.082126 0.868205
v -1.560104 -0.298662 0.868205
v -1.560104 -0.298662 0.768205
v -1.560104 0.082126 0.768205
v -1.560104 0.082126 0.10802
v -1.560104 -0.298662 0.10802
v -1.560104 -0.298662 0.868205
v -1.560104 0.082126 0.868205
v 1.560103 0.082126 0.868205
v 1.560103 -0.298662 0.868205
v 1.560103 -0.298662 0.10802
v 1.560103 0.082126 0.10802
v 1.560103 0.082126 0.768205
v 1.560103 -0.298662 0.768205
v 1.560103 -0.298662 1.211224
v 1.560103 0.082126 1.211224
v -1.560104 0.082126 1.211224
v -1.560104 -0.298662 1.211224
vt -0.958793 0.032621
vt -0.440976 -0.226288
vt -0.958793 -0.226288
vt -0.440975 0.032621
vt -0.958793 0.476887
vt -0.440975 0.476887
vt -0.440975 0.032621
vt 1.440974 -0.226289
vt -0.440976 -0.226288
vt 1.440974 0.03262
vt -0.440975 0.476887
vt 1.440974 0.476887
vt 1.440974 0.03262
vt 1.958793 -0.226289
vt 1.440974 -0.226289
vt 1.958793 0.03262
vt 1.440974 0.476887
vt 1.958793 0.476887
vt -0.496187 0.246318
vt -0.496187 0.489465
vt 1.496187 0.489465
vt 1.496187 0.246317
vt 0 0
vt 0 1
vt 1 1
vt 1 0
vt 1.551103 0.573292
vt 1.551103 -0.005129
vt -0.551103 -0.005129
vt -0.551103 0.573292
vt 0 0
vt 0 1
vt 1 1
vt 1 0
vt 0 0
vt 0 1
vt 1 1
vt 1 0
vt 0 0
vt 0 1
vt 1 1
vt 1 0
vt 0 0
vt 0 1
vt 1 1
vt 1 0
vt 0 0
vt 0 1
vt 1 1
vt 1 0
vt 0 0
vt 0 1
vt 1 1
vt 1 0
vt 0 0
vt 0 1
vt 1 1
vt 1 0
vt 0 0
vt 0 1
vt 1 1
vt 1 0
vt 0 0
vt 0 1
vt 1 1
vt 1 0
vt 2.050803 0.318776
vt -1.050807 0.318775
vt -1.050807 0.659751
vt 2.050802 0.659751
vt 2.050807 -0.337967
vt -1.050807 -0.337967
vt -1.050807 0.318284
vt 2.050807 0.318284
vt 0.002652 0.354423
vt 0.398499 0.354423
vt 0.398499 -0.002163
vt 0.002652 -0.002163
vt -0.000122 0.351756
vt 0.392237 0.351756
vt 0.392237 -0.001687
vt -0.000122 -0.001687
vt 0.381207 -0.001422
vt 0.004981 -0.001422
vt 0.004981 0.650853
vt 0.381207 0.650853
vt -0.496187 0.002891
vt -0.496187 0.246038
vt 1.496187 0.246038
vt 1.496187 0.002891
vt 0.006348 0.650372
vt 0.381837 0.650372
vt 0.381837 -0.000625
vt 0.006348 -0.000625
vt 0 0
vt 0 1
vt 1 1
vt 1 0
vn -1 0 0
vn -1 0 0
vn -1 0 0
vn -1 0 0
vn -1 0 0
vn -1 0 0
vn 0 1 0
vn 0 1 0
vn 0 1 0
vn 0 1 0
vn 0 1 0
vn 0 1 0
vn 1 0 0
vn 1 0 0
vn 1 0 0
vn 1 0 0
vn 1 0 0
vn 1 0 0
vn 0 0 1
vn 0 0 1
vn 0 0 1
vn 0 0 1
vn 0 0 -1
vn 0 0 -1
vn 0 0 -1
vn 0 0 -1
vn 0 0 1
vn 0 0 1
vn 0 0 1
vn 0 0 1
vn 0 0 -1
vn 0 0 -1
vn 0 0 -1
vn 0 0 -1
vn 0 -1 0
vn 0 -1 0
vn 0 -1 0
vn 0 -1 0
vn 0 -1 0
vn 0 -1 0
vn 0 -1 0
vn 0 -1 0
vn 0 -1 0
vn 0 -1 0
vn 0 -1 0
vn 0 -1 0
vn 0 -1 0
vn 0 -1 0
vn 0 -1 0
vn 0 -1 0
vn 0 -1 0
vn 0 -1 0
vn 0 -1 0
vn 0 -1 0
vn 0 -1 0
vn 0 -1 0
vn 0 -1 0
vn 0 -1 0
vn 0 -1 0
vn 0 -1 0
vn 0 -1 0
vn 0 -1 0
vn 0 -1 0
vn 0 -1 0
vn 0 -1 0
vn 0 -1 0
vn 0 -1 0
vn 0 -1 0
vn 0 -1 0
vn 0 -1 0
vn 0 -1 0
vn 0 -1 0
vn 0 -1 0
vn 0 -1 0
vn -1 0 0
vn -1 0 0
vn -1 0 0
vn -1 0 0
vn 1 0 0
vn 1 0 0
vn 1 0 0
vn 1 0 0
vn 1 0 0
vn 1 0 0
vn 1 0 0
vn 1 0 0
vn 0 0 1
vn 0 0 1
vn 0 0 1
vn 0 0 1
vn -1 0 0
vn -1 0 0
vn -1 0 0
vn -1 0 0
vn 0 0 -1
vn 0 0 -1
vn 0 0 -1
vn 0 0 -1
g StoreShelf_0
f 3/3/3 2/2/2 1/1/1
f 2/2/2 4/4/4 1/1/1
f 1/1/1 4/4/4 5/5/5
f 4/4/4 6/6/6 5/5/5
f 9/9/9 8/8/8 7/7/7
f 8/8/8 10/10/10 7/7/7
f 7/7/7 10/10/10 11/11/11
f 10/10/10 12/12/12 11/11/11
f 15/15/15 14/14/14 13/13/13
f 14/14/14 16/16/16 13/13/13
f 13/13/13 16/16/16 17/17/17
f 16/16/16 18/18/18 17/17/17
f 21/21/21 20/20/20 19/19/19
f 22/22/22 21/21/21 19/19/19
f 25/25/25 24/24/24 23/23/23
f 26/26/26 25/25/25 23/23/23
f 29/29/29 28/28/28 27/27/27
f 30/30/30 29/29/29 27/27/27
f 33/33/33 32/32/32 31/31/31
f 34/34/34 33/33/33 31/31/31
f 37/37/37 36/36/36 35/35/35
f 38/38/38 37/37/37 35/35/35
f 41/41/41 40/40/40 39/39/39
f 42/42/42 41/41/41 39/39/39
f 45/45/45 44/44/44 43/43/43
f 46/46/46 45/45/45 43/43/43
f 49/49/49 48/48/48 47/47/47
f 50/50/50 49/49/49 47/47/47
f 53/53/53 52/52/52 51/51/51
f 54/54/54 53/53/53 51/51/51
f 57/57/57 56/56/56 55/55/55
f 58/58/58 57/57/57 55/55/55
f 61/61/61 60/60/60 59/59/59
f 62/62/62 61/61/61 59/59/59
f 65/65/65 64/64/64 63/63/63
f 66/66/66 65/65/65 63/63/63
f 69/69/69 68/68/68 67/67/67
f 70/70/70 69/69/69 67/67/67
f 73/73/73 72/72/72 71/71/71
f 74/74/74 73/73/73 71/71/71
f 77/77/77 76/76/76 75/75/75
f 78/78/78 77/77/77 75/75/75
f 81/81/81 80/80/80 79/79/79
f 82/82/82 81/81/81 79/79/79
f 85/85/85 84/84/84 83/83/83
f 86/86/86 85/85/85 83/83/83
f 89/89/89 88/88/88 87/87/87
f 90/90/90 89/89/89 87/87/87
f 93/93/93 92/92/92 91/91/91
f 94/94/94 93/93/93 91/91/91
f 97/97/97 96/96/96 95/95/95
f 98/98/98 97/97/97 95/95/95
