g StreetLamLight
v 0.256296 -0.256296 4.304353
v 0.228236 -0.228236 4.351799
v 0.228236 0.228236 4.351799
v 0.256296 0.256296 4.304353
v 0.248697 -0.200238 4.257101
v 0.164185 -0.121296 3.814944
v 0.163654 -0.163654 3.811645
v 0.248697 0.200238 4.257101
v 0.163654 0.163654 3.811645
v 0.163654 -0.121296 3.793676
v 0.163654 -0.163654 3.751318
v 0.164185 0.121296 3.814944
v 0.163654 0.163654 3.751318
v 0.163654 0.121296 3.793676
v 0.164397 -0.10831 3.816054
v 0.246259 -0.184776 4.244345
v 0.246259 0.184776 4.244345
v 0.164397 0.10831 3.816054
v 0.163978 -0.10831 3.806658
v 0.163978 0.10831 3.806658
v -0.256296 0.256296 4.304353
v -0.228236 0.228236 4.351799
v -0.228236 -0.228236 4.351799
v -0.256296 -0.256296 4.304353
v -0.248697 0.200238 4.257101
v -0.164185 0.121296 3.814944
v -0.163654 0.163654 3.811645
v -0.248697 -0.200238 4.257101
v -0.163654 -0.163654 3.811645
v -0.163654 0.121296 3.793676
v -0.163654 0.163654 3.751318
v -0.164185 -0.121296 3.814944
v -0.163654 -0.163654 3.751318
v -0.163654 -0.121296 3.793676
v -0.164397 0.10831 3.816054
v -0.246259 0.184776 4.244345
v -0.246259 -0.184776 4.244345
v -0.164397 -0.10831 3.816054
v -0.163978 0.10831 3.806658
v -0.163978 -0.10831 3.806658
v -0.256296 -0.256296 4.304353
v -0.228236 -0.228236 4.351799
v 0.228236 -0.228236 4.351799
v 0.256296 -0.256296 4.304353
v -0.200238 -0.248697 4.257101
v -0.121296 -0.164185 3.814944
v -0.163654 -0.163654 3.811645
v 0.200238 -0.248697 4.257101
v 0.163654 -0.163654 3.811645
v -0.121296 -0.163654 3.793676
v -0.163654 -0.163654 3.751318
v 0.121296 -0.164185 3.814944
v 0.163654 -0.163654 3.751318
v 0.121296 -0.163654 3.793676
v -0.10831 -0.164397 3.816054
v -0.184776 -0.246259 4.244345
v 0.184776 -0.246259 4.244345
v 0.10831 -0.164397 3.816054
v -0.10831 -0.163978 3.806658
v 0.10831 -0.163978 3.806658
v 0.256296 0.256296 4.304353
v 0.228236 0.228236 4.351799
v -0.228236 0.228236 4.351799
v -0.256296 0.256296 4.304353
v 0.200238 0.248697 4.257101
v 0.121296 0.164185 3.814944
v 0.163654 0.163654 3.811645
v -0.200238 0.248697 4.257101
v -0.163654 0.163654 3.811645
v 0.121296 0.163654 3.793676
v 0.163654 0.163654 3.751318
v -0.121296 0.164185 3.814944
v -0.163654 0.163654 3.751318
v -0.121296 0.163654 3.793676
v 0.10831 0.164397 3.816054
v 0.184776 0.246259 4.244345
v -0.184776 0.246259 4.244345
v -0.10831 0.164397 3.816054
v 0.10831 0.163978 3.806658
v -0.10831 0.163978 3.806658
v 0.248661 -0.248661 4.302256
v 0.22227 0.22227 4.344742
v 0.22227 -0.22227 4.344742
v 0.248661 0.248661 4.302256
v 0.237871 -0.20018 4.259047
v 0.153244 -0.121243 3.816087
v 0.15595 -0.15595 3.81316
v 0.237871 0.20018 4.259047
v 0.15595 0.15595 3.81316
v 0.152655 -0.12128 3.793779
v 0.157029 -0.157029 3.757081
v 0.153244 0.121243 3.816087
v 0.157029 0.157029 3.757081
v 0.152655 0.12128 3.793779
v 0.15347 -0.1083 3.817321
v 0.235455 -0.184776 4.24641
v 0.235455 0.184776 4.24641
v 0.15347 0.1083 3.817321
v 0.152984 -0.108294 3.807011
v 0.152984 0.108294 3.807011
v -0.248661 0.248661 4.302256
v -0.22227 -0.22227 4.344742
v -0.22227 0.22227 4.344742
v -0.248661 -0.248661 4.302256
v -0.237871 0.20018 4.259047
v -0.153244 0.121243 3.816087
v -0.15595 0.15595 3.81316
v -0.237871 -0.20018 4.259047
v -0.15595 -0.15595 3.81316
v -0.152655 0.12128 3.793779
v -0.157029 0.157029 3.757081
v -0.153244 -0.121243 3.816087
v -0.157029 -0.157029 3.757081
v -0.152655 -0.12128 3.793779
v -0.15347 0.1083 3.817321
v -0.235455 0.184776 4.24641
v -0.235455 -0.184776 4.24641
v -0.15347 -0.1083 3.817321
v -0.152984 0.108294 3.807011
v -0.152984 -0.108294 3.807011
v -0.248661 -0.248661 4.302256
v 0.22227 -0.22227 4.344742
v -0.22227 -0.22227 4.344742
v 0.248661 -0.248661 4.302256
v -0.20018 -0.237871 4.259047
v -0.121243 -0.153244 3.816087
v -0.15595 -0.15595 3.81316
v 0.20018 -0.237871 4.259047
v 0.15595 -0.15595 3.81316
v -0.12128 -0.152655 3.793779
v -0.157029 -0.157029 3.757081
v 0.121243 -0.153244 3.816087
v 0.157029 -0.157029 3.757081
v 0.12128 -0.152655 3.793779
v -0.1083 -0.15347 3.817321
v -0.184776 -0.235455 4.24641
v 0.184776 -0.235455 4.24641
v 0.1083 -0.15347 3.817321
v -0.108294 -0.152984 3.807011
v 0.108294 -0.152984 3.807011
v 0.248661 0.248661 4.302256
v -0.22227 0.22227 4.344742
v 0.22227 0.22227 4.344742
v -0.248661 0.248661 4.302256
v 0.20018 0.237871 4.259047
v 0.121243 0.153244 3.816087
v 0.15595 0.15595 3.81316
v -0.20018 0.237871 4.259047
v -0.15595 0.15595 3.81316
v 0.12128 0.152655 3.793779
v 0.157029 0.157029 3.757081
v -0.121243 0.153244 3.816087
v -0.157029 0.157029 3.757081
v -0.12128 0.152655 3.793779
v 0.1083 0.15347 3.817321
v 0.184776 0.235455 4.24641
v -0.184776 0.235455 4.24641
v -0.1083 0.15347 3.817321
v 0.108294 0.152984 3.807011
v -0.108294 0.152984 3.807011
v -0.050414 -0.050414 3.719302
v -0.04889 -0.04889 3.730089
v -0.04889 0.04889 3.730089
v -0.050414 0.050414 3.719302
v 0.050414 0.050414 3.719302
v 0.04889 0.04889 3.730089
v 0.04889 -0.04889 3.730089
v 0.050414 -0.050414 3.719302
v -0.050414 0.050414 3.719302
v -0.04889 0.04889 3.730089
v 0.04889 0.04889 3.730089
v 0.050414 0.050414 3.719302
v 0.050414 -0.050414 3.719302
v 0.04889 -0.04889 3.730089
v -0.04889 -0.04889 3.730089
v -0.050414 -0.050414 3.719302
v 0.228236 -0.228236 4.351799
v 0.22227 -0.22227 4.344742
v 0.22227 0.22227 4.344742
v 0.228236 0.228236 4.351799
v -0.228236 0.228236 4.351799
v -0.22227 0.22227 4.344742
v -0.22227 -0.22227 4.344742
v -0.228236 -0.228236 4.351799
v -0.228236 -0.228236 4.351799
v -0.22227 -0.22227 4.344742
v 0.22227 -0.22227 4.344742
v 0.228236 -0.228236 4.351799
v 0.228236 0.228236 4.351799
v 0.22227 0.22227 4.344742
v -0.22227 0.22227 4.344742
v -0.228236 0.228236 4.351799
v -0.050414 -0.050414 3.719302
v 0.163654 -0.163654 3.751318
v 0.050414 -0.050414 3.719302
v -0.163654 -0.163654 3.751318
v 0.163654 0.163654 3.751318
v -0.050414 0.050414 3.719302
v 0.050414 0.050414 3.719302
v -0.163654 0.163654 3.751318
v -0.04889 -0.04889 3.730089
v 0.04889 -0.04889 3.730089
v 0.157029 -0.157029 3.757081
v -0.157029 -0.157029 3.757081
v 0.157029 0.157029 3.757081
v -0.04889 0.04889 3.730089
v 0.04889 0.04889 3.730089
v -0.157029 0.157029 3.757081
vn 0.9846379 -0.003601806 0.1745714
vn 0.8607368 0 0.5090501
vn 0.8607368 0 0.5090501
vn 0.9846379 0.003601806 0.1745714
vn 0.9846222 -0.006365484 -0.1745812
vn 0.9841929 -0.0100105 -0.1768163
vn 0.9844041 -0.0129175 -0.1754465
vn 0.9846222 0.006365484 -0.1745812
vn 0.9844041 0.0129175 -0.1754465
vn 0.9999967 -0.0003381531 -0.002564183
vn 0.9999996 0 -0.0008150552
vn 0.9841929 0.0100105 -0.1768163
vn 0.9999996 0 -0.0008150552
vn 0.9999967 0.0003381532 -0.002564183
vn 0.9826216 0 -0.1856201
vn 0.9822192 0 -0.1877372
vn 0.9822192 0 -0.1877372
vn 0.9826216 0 -0.18562
vn 0.9995168 0 -0.03107958
vn 0.9995168 0 -0.03107958
vn -0.9846379 0.003601784 0.1745714
vn -0.8607368 0 0.5090501
vn -0.8607368 0 0.5090501
vn -0.9846379 -0.003601784 0.1745715
vn -0.9846222 0.006365435 -0.1745812
vn -0.9841929 0.01001038 -0.1768163
vn -0.9844041 0.01291742 -0.1754465
vn -0.9846222 -0.006365435 -0.1745812
vn -0.9844043 -0.01291742 -0.1754464
vn -0.9999967 0.0003381532 -0.002564183
vn -0.9999996 0 -0.0008150552
vn -0.9841929 -0.01001038 -0.1768163
vn -0.9999996 0 -0.0008150552
vn -0.9999967 -0.0003381532 -0.002564183
vn -0.9826216 0 -0.1856201
vn -0.9822192 0 -0.1877372
vn -0.9822192 0 -0.1877372
vn -0.9826216 0 -0.1856201
vn -0.9995168 0 -0.03107958
vn -0.9995168 0 -0.03107958
vn -0.003601784 -0.9846379 0.1745714
vn 0 -0.8607368 0.5090502
vn 0 -0.8607368 0.5090502
vn 0.003601784 -0.9846379 0.1745714
vn -0.006365436 -0.9846222 -0.1745813
vn -0.01001038 -0.9841929 -0.1768163
vn -0.01291742 -0.9844041 -0.1754465
vn 0.006365436 -0.9846222 -0.1745813
vn 0.01291742 -0.9844041 -0.1754465
vn -0.0003381532 -0.9999967 -0.002564183
vn 0 -0.9999996 -0.0008150553
vn 0.01001038 -0.9841929 -0.1768163
vn 0 -0.9999996 -0.0008150553
vn 0.0003381531 -0.9999967 -0.002564183
vn 0 -0.9826216 -0.1856201
vn 0 -0.9822192 -0.1877372
vn 0 -0.9822192 -0.1877372
vn 0 -0.9826216 -0.18562
vn 0 -0.9995168 -0.03107958
vn 0 -0.9995168 -0.03107958
vn 0.003601784 0.9846379 0.1745714
vn 0 0.8607368 0.5090502
vn 0 0.8607368 0.5090502
vn -0.003601784 0.9846379 0.1745714
vn 0.006365436 0.9846222 -0.1745812
vn 0.01001038 0.9841929 -0.1768163
vn 0.01291742 0.9844041 -0.1754465
vn -0.006365436 0.9846222 -0.1745813
vn -0.01291742 0.9844041 -0.1754465
vn 0.0003381532 0.9999967 -0.002564183
vn 0 0.9999996 -0.0008150553
vn -0.01001038 0.9841929 -0.1768163
vn 0 0.9999996 -0.0008150553
vn -0.0003381532 0.9999967 -0.002564183
vn 0 0.9826216 -0.1856201
vn 0 0.9822192 -0.1877372
vn 0 0.9822192 -0.1877372
vn 0 0.9826216 -0.18562
vn 0 0.9995168 -0.03107958
vn 0 0.9995168 -0.03107958
vn -0.986355 -0.01820608 -0.1636228
vn -0.849456 0 -0.5276595
vn -0.849456 0 -0.5276595
vn -0.986355 0.01820608 -0.1636228
vn -0.977652 -0.03377537 0.2074991
vn -0.9844468 -0.05726244 0.1660889
vn -0.9840068 -0.07719934 0.1605329
vn -0.977652 0.03377537 0.2074991
vn -0.9840068 0.07719933 0.1605329
vn -0.995538 -0.01058773 -0.09376533
vn -0.9943304 -0.01089197 -0.1057749
vn -0.9844468 0.05726246 0.1660889
vn -0.9943304 0.01089197 -0.1057749
vn -0.995538 0.01058773 -0.09376533
vn -0.9826627 0 0.1854026
vn -0.9822316 -2.943046E-05 0.1876735
vn -0.9822316 2.943962E-05 0.1876735
vn -0.9826627 0 0.1854026
vn -0.9994805 0 0.03222764
vn -0.9994805 0 0.03222764
vn 0.986355 0.01820609 -0.1636228
vn 0.849456 0 -0.5276595
vn 0.849456 0 -0.5276595
vn 0.986355 -0.01820609 -0.1636228
vn 0.977652 0.03377536 0.2074991
vn 0.9844468 0.05726238 0.1660889
vn 0.9840068 0.07719935 0.1605329
vn 0.977652 -0.03377537 0.2074991
vn 0.9840068 -0.07719935 0.1605329
vn 0.995538 0.01058773 -0.09376533
vn 0.9943304 0.01089197 -0.1057749
vn 0.9844468 -0.05726242 0.1660889
vn 0.9943304 -0.01089197 -0.1057749
vn 0.995538 -0.01058773 -0.09376533
vn 0.9826627 0 0.1854026
vn 0.9822316 2.941048E-05 0.1876735
vn 0.9822316 -2.942585E-05 0.1876735
vn 0.9826627 0 0.1854026
vn 0.9994805 0 0.03222764
vn 0.9994805 0 0.03222764
vn -0.01820609 0.986355 -0.1636228
vn 0 0.849456 -0.5276595
vn 0 0.849456 -0.5276595
vn 0.01820609 0.986355 -0.1636228
vn -0.03377539 0.977652 0.2074991
vn -0.05726249 0.9844468 0.1660889
vn -0.07719936 0.9840068 0.1605329
vn 0.03377539 0.977652 0.2074991
vn 0.07719939 0.9840068 0.1605329
vn -0.01058773 0.995538 -0.09376533
vn -0.01089197 0.9943304 -0.1057749
vn 0.0572625 0.9844468 0.1660889
vn 0.01089197 0.9943304 -0.1057749
vn 0.01058773 0.995538 -0.09376533
vn 0 0.9826627 0.1854026
vn -2.944121E-05 0.9822316 0.1876735
vn 2.943779E-05 0.9822316 0.1876735
vn 0 0.9826627 0.1854026
vn 0 0.9994805 0.03222764
vn 0 0.9994805 0.03222763
vn 0.01820609 -0.986355 -0.1636228
vn 0 -0.849456 -0.5276595
vn 0 -0.849456 -0.5276595
vn -0.01820609 -0.986355 -0.1636228
vn 0.03377539 -0.977652 0.2074991
vn 0.0572625 -0.9844468 0.1660889
vn 0.07719937 -0.9840068 0.1605329
vn -0.03377538 -0.977652 0.2074991
vn -0.07719936 -0.9840068 0.1605329
vn 0.01058774 -0.995538 -0.09376533
vn 0.01089198 -0.9943304 -0.1057749
vn -0.05726245 -0.9844468 0.1660889
vn -0.01089198 -0.9943304 -0.1057749
vn -0.01058774 -0.995538 -0.09376533
vn 0 -0.9826627 0.1854026
vn 2.944121E-05 -0.9822316 0.1876735
vn -2.94291E-05 -0.9822316 0.1876735
vn 0 -0.9826627 0.1854026
vn 0 -0.9994805 0.03222764
vn 0 -0.9994805 0.03222763
vn 0.9901668 0 -0.1398919
vn 0.9901668 0 -0.1398919
vn 0.9901668 0 -0.1398919
vn 0.9901668 0 -0.1398919
vn -0.9901668 0 -0.1398919
vn -0.9901668 0 -0.1398919
vn -0.9901668 0 -0.1398919
vn -0.9901668 0 -0.1398919
vn 0 -0.9901668 -0.1398919
vn 0 -0.9901668 -0.1398919
vn 0 -0.9901668 -0.1398919
vn 0 -0.9901668 -0.1398919
vn 0 0.9901668 -0.1398919
vn 0 0.9901668 -0.1398919
vn 0 0.9901668 -0.1398919
vn 0 0.9901668 -0.1398919
vn -0.7636777 0 0.6455978
vn -0.7636776 0 0.6455978
vn -0.7636776 0 0.6455978
vn -0.7636777 0 0.6455978
vn 0.7636777 0 0.6455978
vn 0.7636776 0 0.6455978
vn 0.7636776 0 0.6455978
vn 0.7636777 0 0.6455978
vn 0 0.7636777 0.6455978
vn 0 0.7636776 0.6455978
vn 0 0.7636776 0.6455978
vn 0 0.7636777 0.6455978
vn 0 -0.7636777 0.6455978
vn 0 -0.7636776 0.6455978
vn 0 -0.7636776 0.6455978
vn 0 -0.7636777 0.6455978
vn -0.1386206 -0.1386206 -0.9805961
vn 0.1386206 -0.1386206 -0.9805961
vn 0.1386206 -0.1386206 -0.9805961
vn -0.1386206 -0.1386206 -0.9805961
vn 0.1386206 0.1386206 -0.9805961
vn -0.1386206 0.1386206 -0.9805961
vn 0.1386206 0.1386206 -0.9805961
vn -0.1386206 0.1386206 -0.9805961
vn 0.1229031 0.1229031 0.9847791
vn -0.1229031 0.1229031 0.9847791
vn -0.1229031 0.1229031 0.9847791
vn 0.1229031 0.1229031 0.9847791
vn -0.1229031 -0.1229031 0.9847791
vn 0.1229031 -0.1229031 0.9847791
vn -0.1229031 -0.1229031 0.9847791
vn 0.1229031 -0.1229031 0.9847791
g StreetLamLight_0
f 3/3/3 2/2/2 1/1/1
f 4/4/4 3/3/3 1/1/1
f 4/4/4 1/1/1 5/5/5
f 5/5/5 1/1/1 6/6/6
f 1/1/1 7/7/7 6/6/6
f 8/8/8 4/4/4 5/5/5
f 9/9/9 4/4/4 8/8/8
f 6/6/6 7/7/7 10/10/10
f 7/7/7 11/11/11 10/10/10
f 12/12/12 9/9/9 8/8/8
f 13/13/13 9/9/9 12/12/12
f 11/11/11 13/13/13 14/14/14
f 10/10/10 11/11/11 14/14/14
f 14/14/14 13/13/13 12/12/12
f 5/5/5 6/6/6 15/15/15
f 8/8/8 5/5/5 16/16/16
f 16/16/16 5/5/5 15/15/15
f 17/17/17 8/8/8 16/16/16
f 12/12/12 8/8/8 17/17/17
f 17/17/17 16/16/16 15/15/15
f 18/18/18 12/12/12 17/17/17
f 14/14/14 12/12/12 18/18/18
f 18/18/18 17/17/17 15/15/15
f 15/15/15 6/6/6 19/19/19
f 6/6/6 10/10/10 19/19/19
f 18/18/18 15/15/15 19/19/19
f 10/10/10 14/14/14 20/20/20
f 19/19/19 10/10/10 20/20/20
f 20/20/20 18/18/18 19/19/19
f 20/20/20 14/14/14 18/18/18
f 23/23/23 22/22/22 21/21/21
f 24/24/24 23/23/23 21/21/21
f 24/24/24 21/21/21 25/25/25
f 25/25/25 21/21/21 26/26/26
f 21/21/21 27/27/27 26/26/26
f 28/28/28 24/24/24 25/25/25
f 29/29/29 24/24/24 28/28/28
f 26/26/26 27/27/27 30/30/30
f 27/27/27 31/31/31 30/30/30
f 32/32/32 29/29/29 28/28/28
f 33/33/33 29/29/29 32/32/32
f 31/31/31 33/33/33 34/34/34
f 30/30/30 31/31/31 34/34/34
f 34/34/34 33/33/33 32/32/32
f 25/25/25 26/26/26 35/35/35
f 28/28/28 25/25/25 36/36/36
f 36/36/36 25/25/25 35/35/35
f 37/37/37 28/28/28 36/36/36
f 32/32/32 28/28/28 37/37/37
f 37/37/37 36/36/36 35/35/35
f 38/38/38 32/32/32 37/37/37
f 34/34/34 32/32/32 38/38/38
f 38/38/38 37/37/37 35/35/35
f 35/35/35 26/26/26 39/39/39
f 26/26/26 30/30/30 39/39/39
f 38/38/38 35/35/35 39/39/39
f 30/30/30 34/34/34 40/40/40
f 39/39/39 30/30/30 40/40/40
f 40/40/40 38/38/38 39/39/39
f 40/40/40 34/34/34 38/38/38
f 43/43/43 42/42/42 41/41/41
f 44/44/44 43/43/43 41/41/41
f 44/44/44 41/41/41 45/45/45
f 45/45/45 41/41/41 46/46/46
f 41/41/41 47/47/47 46/46/46
f 48/48/48 44/44/44 45/45/45
f 49/49/49 44/44/44 48/48/48
f 46/46/46 47/47/47 50/50/50
f 47/47/47 51/51/51 50/50/50
f 52/52/52 49/49/49 48/48/48
f 53/53/53 49/49/49 52/52/52
f 51/51/51 53/53/53 54/54/54
f 50/50/50 51/51/51 54/54/54
f 54/54/54 53/53/53 52/52/52
f 45/45/45 46/46/46 55/55/55
f 48/48/48 45/45/45 56/56/56
f 56/56/56 45/45/45 55/55/55
f 57/57/57 48/48/48 56/56/56
f 52/52/52 48/48/48 57/57/57
f 57/57/57 56/56/56 55/55/55
f 58/58/58 52/52/52 57/57/57
f 54/54/54 52/52/52 58/58/58
f 58/58/58 57/57/57 55/55/55
f 55/55/55 46/46/46 59/59/59
f 46/46/46 50/50/50 59/59/59
f 58/58/58 55/55/55 59/59/59
f 50/50/50 54/54/54 60/60/60
f 59/59/59 50/50/50 60/60/60
f 60/60/60 58/58/58 59/59/59
f 60/60/60 54/54/54 58/58/58
f 63/63/63 62/62/62 61/61/61
f 64/64/64 63/63/63 61/61/61
f 64/64/64 61/61/61 65/65/65
f 65/65/65 61/61/61 66/66/66
f 61/61/61 67/67/67 66/66/66
f 68/68/68 64/64/64 65/65/65
f 69/69/69 64/64/64 68/68/68
f 66/66/66 67/67/67 70/70/70
f 67/67/67 71/71/71 70/70/70
f 72/72/72 69/69/69 68/68/68
f 73/73/73 69/69/69 72/72/72
f 71/71/71 73/73/73 74/74/74
f 70/70/70 71/71/71 74/74/74
f 74/74/74 73/73/73 72/72/72
f 65/65/65 66/66/66 75/75/75
f 68/68/68 65/65/65 76/76/76
f 76/76/76 65/65/65 75/75/75
f 77/77/77 68/68/68 76/76/76
f 72/72/72 68/68/68 77/77/77
f 77/77/77 76/76/76 75/75/75
f 78/78/78 72/72/72 77/77/77
f 74/74/74 72/72/72 78/78/78
f 78/78/78 77/77/77 75/75/75
f 75/75/75 66/66/66 79/79/79
f 66/66/66 70/70/70 79/79/79
f 78/78/78 75/75/75 79/79/79
f 70/70/70 74/74/74 80/80/80
f 79/79/79 70/70/70 80/80/80
f 80/80/80 78/78/78 79/79/79
f 80/80/80 74/74/74 78/78/78
f 83/83/83 82/82/82 81/81/81
f 82/82/82 84/84/84 81/81/81
f 81/81/81 84/84/84 85/85/85
f 81/81/81 85/85/85 86/86/86
f 87/87/87 81/81/81 86/86/86
f 84/84/84 88/88/88 85/85/85
f 84/84/84 89/89/89 88/88/88
f 87/87/87 86/86/86 90/90/90
f 91/91/91 87/87/87 90/90/90
f 89/89/89 92/92/92 88/88/88
f 89/89/89 93/93/93 92/92/92
f 93/93/93 91/91/91 94/94/94
f 91/91/91 90/90/90 94/94/94
f 93/93/93 94/94/94 92/92/92
f 86/86/86 85/85/85 95/95/95
f 85/85/85 88/88/88 96/96/96
f 85/85/85 96/96/96 95/95/95
f 88/88/88 97/97/97 96/96/96
f 88/88/88 92/92/92 97/97/97
f 96/96/96 97/97/97 95/95/95
f 92/92/92 98/98/98 97/97/97
f 92/92/92 94/94/94 98/98/98
f 97/97/97 98/98/98 95/95/95
f 86/86/86 95/95/95 99/99/99
f 90/90/90 86/86/86 99/99/99
f 95/95/95 98/98/98 99/99/99
f 94/94/94 90/90/90 100/100/100
f 90/90/90 99/99/99 100/100/100
f 98/98/98 100/100/100 99/99/99
f 94/94/94 100/100/100 98/98/98
f 103/103/103 102/102/102 101/101/101
f 102/102/102 104/104/104 101/101/101
f 101/101/101 104/104/104 105/105/105
f 101/101/101 105/105/105 106/106/106
f 107/107/107 101/101/101 106/106/106
f 104/104/104 108/108/108 105/105/105
f 104/104/104 109/109/109 108/108/108
f 107/107/107 106/106/106 110/110/110
f 111/111/111 107/107/107 110/110/110
f 109/109/109 112/112/112 108/108/108
f 109/109/109 113/113/113 112/112/112
f 113/113/113 111/111/111 114/114/114
f 111/111/111 110/110/110 114/114/114
f 113/113/113 114/114/114 112/112/112
f 106/106/106 105/105/105 115/115/115
f 105/105/105 108/108/108 116/116/116
f 105/105/105 116/116/116 115/115/115
f 108/108/108 117/117/117 116/116/116
f 108/108/108 112/112/112 117/117/117
f 116/116/116 117/117/117 115/115/115
f 112/112/112 118/118/118 117/117/117
f 112/112/112 114/114/114 118/118/118
f 117/117/117 118/118/118 115/115/115
f 106/106/106 115/115/115 119/119/119
f 110/110/110 106/106/106 119/119/119
f 115/115/115 118/118/118 119/119/119
f 114/114/114 110/110/110 120/120/120
f 110/110/110 119/119/119 120/120/120
f 118/118/118 120/120/120 119/119/119
f 114/114/114 120/120/120 118/118/118
f 123/123/123 122/122/122 121/121/121
f 122/122/122 124/124/124 121/121/121
f 121/121/121 124/124/124 125/125/125
f 121/121/121 125/125/125 126/126/126
f 127/127/127 121/121/121 126/126/126
f 124/124/124 128/128/128 125/125/125
f 124/124/124 129/129/129 128/128/128
f 127/127/127 126/126/126 130/130/130
f 131/131/131 127/127/127 130/130/130
f 129/129/129 132/132/132 128/128/128
f 129/129/129 133/133/133 132/132/132
f 133/133/133 131/131/131 134/134/134
f 131/131/131 130/130/130 134/134/134
f 133/133/133 134/134/134 132/132/132
f 126/126/126 125/125/125 135/135/135
f 125/125/125 128/128/128 136/136/136
f 125/125/125 136/136/136 135/135/135
f 128/128/128 137/137/137 136/136/136
f 128/128/128 132/132/132 137/137/137
f 136/136/136 137/137/137 135/135/135
f 132/132/132 138/138/138 137/137/137
f 132/132/132 134/134/134 138/138/138
f 137/137/137 138/138/138 135/135/135
f 126/126/126 135/135/135 139/139/139
f 130/130/130 126/126/126 139/139/139
f 135/135/135 138/138/138 139/139/139
f 134/134/134 130/130/130 140/140/140
f 130/130/130 139/139/139 140/140/140
f 138/138/138 140/140/140 139/139/139
f 134/134/134 140/140/140 138/138/138
f 143/143/143 142/142/142 141/141/141
f 142/142/142 144/144/144 141/141/141
f 141/141/141 144/144/144 145/145/145
f 141/141/141 145/145/145 146/146/146
f 147/147/147 141/141/141 146/146/146
f 144/144/144 148/148/148 145/145/145
f 144/144/144 149/149/149 148/148/148
f 147/147/147 146/146/146 150/150/150
f 151/151/151 147/147/147 150/150/150
f 149/149/149 152/152/152 148/148/148
f 149/149/149 153/153/153 152/152/152
f 153/153/153 151/151/151 154/154/154
f 151/151/151 150/150/150 154/154/154
f 153/153/153 154/154/154 152/152/152
f 146/146/146 145/145/145 155/155/155
f 145/145/145 148/148/148 156/156/156
f 145/145/145 156/156/156 155/155/155
f 148/148/148 157/157/157 156/156/156
f 148/148/148 152/152/152 157/157/157
f 156/156/156 157/157/157 155/155/155
f 152/152/152 158/158/158 157/157/157
f 152/152/152 154/154/154 158/158/158
f 157/157/157 158/158/158 155/155/155
f 146/146/146 155/155/155 159/159/159
f 150/150/150 146/146/146 159/159/159
f 155/155/155 158/158/158 159/159/159
f 154/154/154 150/150/150 160/160/160
f 150/150/150 159/159/159 160/160/160
f 158/158/158 160/160/160 159/159/159
f 154/154/154 160/160/160 158/158/158
f 163/163/163 162/162/162 161/161/161
f 164/164/164 163/163/163 161/161/161
f 167/167/167 166/166/166 165/165/165
f 168/168/168 167/167/167 165/165/165
f 171/171/171 170/170/170 169/169/169
f 172/172/172 171/171/171 169/169/169
f 175/175/175 174/174/174 173/173/173
f 176/176/176 175/175/175 173/173/173
f 179/179/179 178/178/178 177/177/177
f 180/180/180 179/179/179 177/177/177
f 183/183/183 182/182/182 181/181/181
f 184/184/184 183/183/183 181/181/181
f 187/187/187 186/186/186 185/185/185
f 188/188/188 187/187/187 185/185/185
f 191/191/191 190/190/190 189/189/189
f 192/192/192 191/191/191 189/189/189
f 195/195/195 194/194/194 193/193/193
f 194/194/194 196/196/196 193/193/193
f 197/197/197 194/194/194 195/195/195
f 193/193/193 196/196/196 198/198/198
f 199/199/199 197/197/197 195/195/195
f 196/196/196 200/200/200 198/198/198
f 200/200/200 197/197/197 199/199/199
f 198/198/198 200/200/200 199/199/199
f 203/203/203 202/202/202 201/201/201
f 204/204/204 203/203/203 201/201/201
f 203/203/203 205/205/205 202/202/202
f 204/204/204 201/201/201 206/206/206
f 205/205/205 207/207/207 202/202/202
f 208/208/208 204/204/204 206/206/206
f 208/208/208 206/206/206 207/207/207
f 205/205/205 208/208/208 207/207/207
