g SugarCane_Impostor
v 1.628531 -0.0238251 0
v 0.6770879 -2.427001 0
v -0.6996822 -2.427001 0
v -1.648109 0.09917393 0
v -1.641199 2.141327 0
v -0.6687112 2.564898 0
v 0.8149211 2.564898 0
v 1.623952 2.020289 0
vt 0.1737652 0.4814151
vt 0.3643627 0
vt 0.6401635 0
vt 0.8301568 0.5060548
vt 0.8287725 0.9151483
vt 0.6339593 1
vt 0.3367513 1
vt 0.1746826 0.8909014
vn 0 0 -0.9999999
vn 0 0 -1
vn 0 0 -0.9999999
vn 0 0 -1
vn 0 0 -1
vn 0 0 -1
vn 0 0 -1
vn 0 0 -1
g SugarCane_Impostor_0
f 4/4/4 6/6/6 8/8/8
f 8/8/8 2/2/2 4/4/4
f 6/6/6 7/7/7 8/8/8
f 4/4/4 5/5/5 6/6/6
f 2/2/2 3/3/3 4/4/4
f 8/8/8 1/1/1 2/2/2
