g TentPeg
v 0.146272 0 0.552047
v 0.110218 0 0.630732
v 0.082176 0.080121 0.610332
v 0.002055 0 0.65696
v 0.002055 0.108163 0.630732
v 0.110218 0 0.630732
v 0.002055 0 -0.131076
v 0.002055 0.049784 -0.100716
v -0.035398 0.037453 -0.077102
v -0.047728 0 -0.100716
v 0.002055 0 -0.131076
v 0.039508 0.037453 -0.077102
v 0.002055 0.049784 -0.100716
v 0.051839 0 -0.100716
v 0.039508 -0.037453 -0.077102
v 0.002055 -0.049784 -0.100716
v 0.002055 0 -0.131076
v -0.047728 0 -0.100716
v -0.035398 -0.037453 -0.077102
v 0.002055 -0.049784 -0.100716
v -0.066917 0 -0.009634
v -0.049674 -0.051729 -0.009634
v -0.035398 -0.037453 -0.077102
v -0.047728 0 -0.100716
v -0.066917 0 -0.009634
v -0.055208 -0.057263 0.105547
v -0.049674 -0.051729 -0.009634
v -0.074296 0 0.105547
v -0.088648 0 0.208206
v -0.065972 -0.068027 0.208206
v -0.079611 -0.081666 0.275625
v -0.106833 0 0.275625
v -0.079611 0.081666 0.275625
v -0.065972 0.068027 0.208206
v -0.055208 0.057263 0.105547
v -0.049674 0.051729 -0.009634
v -0.035398 0.037453 -0.077102
v -0.047728 0 -0.100716
v 0.002055 -0.068973 -0.009634
v 0.053785 -0.051729 -0.009634
v 0.039508 -0.037453 -0.077102
v 0.002055 -0.049784 -0.100716
v 0.002055 -0.068973 -0.009634
v 0.059318 -0.057263 0.105547
v 0.053785 -0.051729 -0.009634
v 0.002055 -0.076351 0.105547
v 0.002055 -0.090703 0.208206
v 0.070082 -0.068027 0.208206
v 0.083721 -0.081666 0.275625
v 0.002055 -0.108888 0.275625
v -0.079611 -0.081666 0.275625
v -0.065972 -0.068027 0.208206
v -0.055208 -0.057263 0.105547
v -0.049674 -0.051729 -0.009634
v -0.035398 -0.037453 -0.077102
v 0.002055 -0.049784 -0.100716
v 0.002055 0 0.65696
v -0.078066 -0.080121 0.610332
v -0.106108 0 0.630732
v 0.002055 -0.108163 0.630732
v 0.002055 -0.144217 0.552047
v -0.106108 -0.108163 0.552047
v -0.110898 -0.112953 0.475202
v 0.002055 -0.150604 0.475202
v 0.115008 -0.112953 0.475202
v 0.110218 -0.108163 0.552047
v 0.082176 -0.080121 0.610332
v 0.110218 0 0.630732
v 0.002055 0 0.65696
v -0.078066 0.080121 0.610332
v 0.002055 0.108163 0.630732
v -0.106108 0 0.630732
v -0.142162 0 0.552047
v -0.078066 -0.080121 0.610332
v -0.106108 -0.108163 0.552047
v -0.078066 0.080121 0.610332
v -0.110898 -0.112953 0.475202
v -0.106108 0.108163 0.552047
v -0.148549 0 0.475202
v -0.110898 0.112953 0.475202
v 0.146272 0 0.552047
v 0.082176 0.080121 0.610332
v 0.110218 0.108163 0.552047
v 0.115008 0.112953 0.475202
v 0.152659 0 0.475202
v 0.115008 -0.112953 0.475202
v 0.110218 -0.108163 0.552047
v 0.082176 -0.080121 0.610332
v 0.110218 0 0.630732
v 0.002055 0.144217 0.552047
v 0.002055 0.108163 0.630732
v -0.078066 0.080121 0.610332
v -0.106108 0.108163 0.552047
v 0.082176 0.080121 0.610332
v -0.110898 0.112953 0.475202
v 0.110218 0.108163 0.552047
v 0.002055 0.150604 0.475202
v 0.115008 0.112953 0.475202
v 0.002055 0.068973 -0.009634
v 0.053785 0.051729 -0.009634
v 0.059318 0.057263 0.105547
v 0.039508 0.037453 -0.077102
v 0.002055 0.049784 -0.100716
v -0.035398 0.037453 -0.077102
v -0.049674 0.051729 -0.009634
v -0.055208 0.057263 0.105547
v 0.002055 0.076351 0.105547
v 0.002055 0.090703 0.208206
v 0.070082 0.068027 0.208206
v -0.065972 0.068027 0.208206
v 0.083721 0.081666 0.275625
v -0.079611 0.081666 0.275625
v 0.002055 0.108888 0.275625
v 0.071028 0 -0.009634
v 0.053785 -0.051729 -0.009634
v 0.059318 -0.057263 0.105547
v 0.039508 -0.037453 -0.077102
v 0.051839 0 -0.100716
v 0.039508 0.037453 -0.077102
v 0.053785 0.051729 -0.009634
v 0.059318 0.057263 0.105547
v 0.078406 0 0.105547
v 0.092758 0 0.208206
v 0.070082 -0.068027 0.208206
v 0.070082 0.068027 0.208206
v 0.083721 -0.081666 0.275625
v 0.083721 0.081666 0.275625
v 0.110943 0 0.275625
v -0.16771 0 0.454493
v -0.148549 0 0.475202
v -0.110898 -0.112953 0.475202
v -0.125268 -0.127324 0.454493
v -0.135109 -0.137164 0.435476
v -0.180831 0 0.435476
v -0.16771 0 0.454493
v -0.110898 0.112953 0.475202
v -0.148549 0 0.475202
v -0.125268 0.127324 0.454493
v -0.135109 0.137164 0.435476
v -0.180831 0 0.435476
v -0.169099 0 0.36371
v -0.135109 -0.137164 0.435476
v -0.12631 0.128366 0.36371
v -0.12631 -0.128366 0.36371
v -0.109116 0.111172 0.294982
v -0.146174 0 0.294982
v -0.109116 -0.111172 0.294982
v -0.125713 0 0.285085
v -0.093771 -0.095826 0.285085
v -0.079611 -0.081666 0.275625
v -0.106833 0 0.275625
v -0.125713 0 0.285085
v -0.106833 0 0.275625
v -0.079611 0.081666 0.275625
v -0.093771 0.095826 0.285085
v -0.109116 0.111172 0.294982
v -0.146174 0 0.294982
v 0.002055 0.127769 0.285085
v 0.002055 0.108888 0.275625
v 0.083721 0.081666 0.275625
v 0.097882 0.095826 0.285085
v 0.113227 0.111172 0.294982
v 0.002055 0.148229 0.294982
v 0.002055 0.171154 0.36371
v 0.130421 0.128366 0.36371
v -0.109116 0.111172 0.294982
v -0.12631 0.128366 0.36371
v 0.13922 0.137164 0.435476
v -0.135109 0.137164 0.435476
v 0.002055 0.182886 0.435476
v 0.002055 0.169765 0.454493
v -0.125268 0.127324 0.454493
v 0.129379 0.127324 0.454493
v 0.115008 0.112953 0.475202
v 0.002055 0.150604 0.475202
v 0.002055 0.127769 0.285085
v -0.079611 0.081666 0.275625
v 0.002055 0.108888 0.275625
v -0.093771 0.095826 0.285085
v -0.109116 0.111172 0.294982
v 0.002055 0.148229 0.294982
v 0.002055 0.169765 0.454493
v 0.002055 0.150604 0.475202
v -0.110898 0.112953 0.475202
v -0.125268 0.127324 0.454493
v 0.002055 -0.169765 0.454493
v 0.002055 -0.150604 0.475202
v 0.115008 -0.112953 0.475202
v -0.110898 -0.112953 0.475202
v -0.125268 -0.127324 0.454493
v -0.135109 -0.137164 0.435476
v 0.002055 -0.182886 0.435476
v 0.002055 -0.171154 0.36371
v 0.13922 -0.137164 0.435476
v -0.12631 -0.128366 0.36371
v 0.130421 -0.128366 0.36371
v -0.109116 -0.111172 0.294982
v 0.113227 -0.111172 0.294982
v 0.002055 -0.148229 0.294982
v 0.002055 -0.169765 0.454493
v 0.115008 -0.112953 0.475202
v 0.129379 -0.127324 0.454493
v 0.13922 -0.137164 0.435476
v 0.002055 -0.182886 0.435476
v 0.17182 0 0.454493
v 0.129379 -0.127324 0.454493
v 0.115008 -0.112953 0.475202
v 0.152659 0 0.475202
v 0.115008 0.112953 0.475202
v 0.129379 0.127324 0.454493
v 0.13922 -0.137164 0.435476
v 0.13922 0.137164 0.435476
v 0.184941 0 0.435476
v 0.173209 0 0.36371
v 0.130421 -0.128366 0.36371
v 0.130421 0.128366 0.36371
v 0.113227 -0.111172 0.294982
v 0.113227 0.111172 0.294982
v 0.150284 0 0.294982
v 0.129824 0 0.285085
v 0.097882 0.095826 0.285085
v 0.083721 0.081666 0.275625
v 0.110943 0 0.275625
v 0.113227 0.111172 0.294982
v 0.083721 -0.081666 0.275625
v 0.150284 0 0.294982
v 0.097882 -0.095826 0.285085
v 0.113227 -0.111172 0.294982
v 0.002055 -0.127769 0.285085
v -0.079611 -0.081666 0.275625
v -0.093771 -0.095826 0.285085
v 0.002055 -0.108888 0.275625
v -0.109116 -0.111172 0.294982
v 0.083721 -0.081666 0.275625
v 0.002055 -0.148229 0.294982
v 0.097882 -0.095826 0.285085
v 0.113227 -0.111172 0.294982
vt 1 0.5
vt 1 0.5
vt 1 0
vt 1 0.25
vt 1 0
vt 1 0
vt 0.5 0.5
vt 0.5 0
vt 0 0
vt 0 0.5
vt 0.5 0.5
vt 1 0
vt 0.5 0
vt 1 0.5
vt 1 1
vt 0.5 1
vt 0.5 0.5
vt 0 0.5
vt 0 1
vt 0.5 1
vt 0.5 0.5
vt 0.5 0
vt 0 0
vt 0 0.5
vt 0.5 0.5
vt 0.875 0
vt 0.5 0
vt 0.875 0.5
vt 1 0.5
vt 1 0
vt 1 0
vt 1 0.5
vt 1 1
vt 1 1
vt 0.875 1
vt 0.5 1
vt 0 1
vt 0 0.5
vt 0.5 0.5
vt 0.5 0
vt 0 0
vt 0 0.5
vt 0.5 0.5
vt 0.875 0
vt 0.5 0
vt 0.875 0.5
vt 1 0.5
vt 1 0
vt 1 0
vt 1 0.5
vt 1 1
vt 1 1
vt 0.875 1
vt 0.5 1
vt 0 1
vt 0 0.5
vt 1 0.25
vt 1 0.875
vt 1 0.5
vt 1 0.4375
vt 1 0.5
vt 1 1
vt 1 1
vt 1 0.5
vt 1 0
vt 1 0
vt 1 0
vt 1 0
vt 1 0.25
vt 1 0
vt 1 0
vt 1 0.5
vt 1 0.5
vt 1 0
vt 1 0
vt 1 1
vt 1 0
vt 1 1
vt 1 0.5
vt 1 1
vt 1 0.5
vt 1 0
vt 1 0
vt 1 0
vt 1 0.5
vt 1 1
vt 1 1
vt 1 1
vt 1 0.5
vt 1 0.5
vt 1 0.5
vt 1 0
vt 1 0
vt 1 1
vt 1 0
vt 1 1
vt 1 0.5
vt 1 1
vt 0.5 0.5
vt 0.5 1
vt 0.875 1
vt 0 1
vt 0 0.5
vt 0 0
vt 0.5 0
vt 0.875 0
vt 0.875 0.5
vt 1 0.5
vt 1 1
vt 1 0
vt 1 1
vt 1 0
vt 1 0.5
vt 0.5 0.5
vt 0.5 1
vt 0.875 1
vt 0 1
vt 0 0.5
vt 0 0
vt 0.5 0
vt 0.875 0
vt 0.875 0.5
vt 1 0.5
vt 1 1
vt 1 0
vt 1 1
vt 1 0
vt 1 0.5
vt 0.077453 0.792998
vt 0.065601 0.792998
vt 0.065601 0.896287
vt 0.077453 0.907081
vt 0.101012 0.911316
vt 0.101012 0.792998
vt 0.077453 0.792998
vt 0.065601 0.689709
vt 0.065601 0.792998
vt 0.077453 0.678914
vt 0.101012 0.674679
vt 0.101012 0.792998
vt 0.147984 0.792998
vt 0.101012 0.911316
vt 0.147984 0.683565
vt 0.147984 0.90243
vt 0.194364 0.697181
vt 0.194364 0.792997
vt 0.194364 0.888814
vt 0.216147 0.792997
vt 0.216147 0.878859
vt 0.225632 0.870735
vt 0.225632 0.792997
vt 0.216147 0.792997
vt 0.225632 0.792997
vt 0.225632 0.71526
vt 0.216147 0.707136
vt 0.194364 0.697181
vt 0.194364 0.792997
vt 0.216183 0.793041
vt 0.225667 0.793045
vt 0.225694 0.715307
vt 0.216213 0.707179
vt 0.194433 0.697217
vt 0.1944 0.793034
vt 0.14802 0.793018
vt 0.148057 0.683586
vt 0.194367 0.88885
vt 0.147982 0.90245
vt 0.101088 0.674683
vt 0.101006 0.91132
vt 0.101047 0.793002
vt 0.077488 0.792993
vt 0.077449 0.907077
vt 0.077528 0.67891
vt 0.065672 0.6897
vt 0.065636 0.792989
vt 0.216183 0.793041
vt 0.22564 0.870782
vt 0.225667 0.793045
vt 0.216153 0.878903
vt 0.194367 0.88885
vt 0.1944 0.793034
vt 0.077488 0.792993
vt 0.065636 0.792989
vt 0.065601 0.896278
vt 0.077449 0.907077
vt 0.213779 0.792998
vt 0.225632 0.792997
vt 0.225632 0.689709
vt 0.225632 0.896286
vt 0.213779 0.907081
vt 0.190221 0.911316
vt 0.190221 0.792998
vt 0.143248 0.792997
vt 0.190221 0.674679
vt 0.143248 0.90243
vt 0.143248 0.683565
vt 0.096868 0.888814
vt 0.096868 0.697181
vt 0.096868 0.792998
vt 0.213779 0.792998
vt 0.225632 0.689709
vt 0.213779 0.678914
vt 0.190221 0.674679
vt 0.190221 0.792998
vt 0.213779 0.792998
vt 0.213779 0.907081
vt 0.225631 0.896286
vt 0.225631 0.792997
vt 0.225631 0.689709
vt 0.213779 0.678914
vt 0.190221 0.911316
vt 0.190221 0.674679
vt 0.190221 0.792998
vt 0.143248 0.792997
vt 0.143248 0.90243
vt 0.143248 0.683565
vt 0.096868 0.888814
vt 0.096868 0.697181
vt 0.096868 0.792998
vt 0.075085 0.792998
vt 0.075085 0.707136
vt 0.065601 0.71526
vt 0.065601 0.792998
vt 0.096868 0.697181
vt 0.065601 0.870735
vt 0.096868 0.792998
vt 0.075085 0.878859
vt 0.096868 0.888814
vt 0.075085 0.792998
vt 0.065601 0.870735
vt 0.075085 0.878859
vt 0.065601 0.792998
vt 0.096868 0.888814
vt 0.065601 0.71526
vt 0.096868 0.792998
vt 0.075085 0.707136
vt 0.096868 0.697181
vn 0.9607452 0 0.2774324
vn 0.6428325 0 0.7660068
vn 0.5188835 0.5188836 0.6793525
vn 0 0 1
vn 0 0.6428325 0.7660068
vn 0.6428325 0 0.7660068
vn 0 0 -1
vn 0 0.7971557 -0.6037737
vn -0.6508867 0.6508728 -0.3907827
vn -0.7971568 0 -0.6037723
vn 0 0 -1
vn 0.650879 0.6508785 -0.3907861
vn 0 0.7971557 -0.6037737
vn 0.7971557 0 -0.6037738
vn 0.650879 -0.6508785 -0.3907861
vn 0 -0.7971557 -0.6037737
vn 0 0 -1
vn -0.7971568 0 -0.6037723
vn -0.6508867 -0.6508728 -0.3907826
vn 0 -0.7971557 -0.6037737
vn -0.9888061 0 -0.1492064
vn -0.6988454 -0.6988361 -0.152457
vn -0.6508867 -0.6508728 -0.3907826
vn -0.7971568 0 -0.6037723
vn -0.9888061 0 -0.1492064
vn -0.7029303 -0.7029275 -0.1085449
vn -0.6988454 -0.6988361 -0.152457
vn -0.994781 0 -0.1020334
vn -0.9793178 0 -0.2023283
vn -0.6905239 -0.6905239 -0.2152987
vn -0.4962232 -0.4962201 -0.7124101
vn -0.7366328 0 -0.676293
vn -0.4962232 0.4962202 -0.7124101
vn -0.6905239 0.6905239 -0.2152987
vn -0.7029303 0.7029275 -0.1085449
vn -0.6988453 0.6988361 -0.152457
vn -0.6508867 0.6508728 -0.3907827
vn -0.7971568 0 -0.6037723
vn 0 -0.9888062 -0.1492051
vn 0.6988441 -0.6988376 -0.1524561
vn 0.650879 -0.6508785 -0.3907861
vn 0 -0.7971557 -0.6037737
vn 0 -0.9888062 -0.1492051
vn 0.7029294 -0.7029287 -0.1085423
vn 0.6988441 -0.6988376 -0.1524561
vn 0 -0.9947812 -0.1020311
vn 0 -0.9793178 -0.2023283
vn 0.6905239 -0.6905239 -0.2152987
vn 0.4962157 -0.4962195 -0.7124157
vn 0 -0.7366274 -0.6762989
vn -0.4962232 -0.4962201 -0.7124101
vn -0.6905239 -0.6905239 -0.2152987
vn -0.7029303 -0.7029275 -0.1085449
vn -0.6988454 -0.6988361 -0.152457
vn -0.6508867 -0.6508728 -0.3907826
vn 0 -0.7971557 -0.6037737
vn 0 0 1
vn -0.5188835 -0.5188836 0.6793525
vn -0.6428325 0 0.7660068
vn 0 -0.6428325 0.7660068
vn 0 -0.9607452 0.2774324
vn -0.6793941 -0.679394 0.277214
vn -0.6277251 -0.6277211 0.4603557
vn 0 -0.9031146 0.4293994
vn 0.6277212 -0.6277213 0.460361
vn 0.679394 -0.679394 0.277214
vn 0.5188835 -0.5188836 0.6793525
vn 0.6428325 0 0.7660068
vn 0 0 1
vn -0.5188835 0.5188836 0.6793525
vn 0 0.6428325 0.7660068
vn -0.6428325 0 0.7660068
vn -0.9607452 0 0.2774324
vn -0.5188835 -0.5188836 0.6793525
vn -0.6793941 -0.679394 0.277214
vn -0.5188835 0.5188836 0.6793525
vn -0.6277251 -0.6277211 0.4603557
vn -0.679394 0.6793941 0.277214
vn -0.9031171 0 0.4293943
vn -0.6277251 0.6277211 0.4603557
vn 0.9607452 0 0.2774324
vn 0.5188835 0.5188836 0.6793525
vn 0.679394 0.679394 0.277214
vn 0.6277212 0.6277213 0.460361
vn 0.9031141 0 0.4294005
vn 0.6277212 -0.6277213 0.460361
vn 0.679394 -0.679394 0.277214
vn 0.5188835 -0.5188836 0.6793525
vn 0.6428325 0 0.7660068
vn 0 0.9607452 0.2774324
vn 0 0.6428325 0.7660068
vn -0.5188835 0.5188836 0.6793525
vn -0.679394 0.6793941 0.277214
vn 0.5188835 0.5188836 0.6793525
vn -0.6277251 0.6277211 0.4603557
vn 0.679394 0.679394 0.277214
vn 0 0.9031147 0.4293995
vn 0.6277212 0.6277213 0.460361
vn 0 0.9888062 -0.1492051
vn 0.6988441 0.6988376 -0.1524561
vn 0.7029294 0.7029287 -0.1085423
vn 0.650879 0.6508785 -0.3907861
vn 0 0.7971557 -0.6037737
vn -0.6508867 0.6508728 -0.3907827
vn -0.6988453 0.6988361 -0.152457
vn -0.7029303 0.7029275 -0.1085449
vn 0 0.9947812 -0.1020311
vn 0 0.9793178 -0.2023283
vn 0.6905239 0.6905239 -0.2152987
vn -0.6905239 0.6905239 -0.2152987
vn 0.4962157 0.4962195 -0.7124157
vn -0.4962232 0.4962202 -0.7124101
vn 0 0.7366273 -0.6762989
vn 0.9888062 0 -0.1492052
vn 0.6988441 -0.6988376 -0.1524561
vn 0.7029294 -0.7029287 -0.1085423
vn 0.650879 -0.6508785 -0.3907861
vn 0.7971557 0 -0.6037738
vn 0.650879 0.6508785 -0.3907861
vn 0.6988441 0.6988376 -0.1524561
vn 0.7029294 0.7029287 -0.1085423
vn 0.9947813 0 -0.1020292
vn 0.9793178 0 -0.2023283
vn 0.6905239 -0.6905239 -0.2152987
vn 0.6905239 0.6905239 -0.2152987
vn 0.4962157 -0.4962195 -0.7124157
vn 0.4962157 0.4962195 -0.7124157
vn 0.7366241 0 -0.6763024
vn -0.7860565 0 0.6181546
vn -0.9031171 0 0.4293943
vn -0.6277251 -0.6277211 0.4603557
vn -0.5450245 -0.5450352 0.637091
vn -0.6918538 -0.6918479 0.206603
vn -0.9788445 0 0.204606
vn -0.7860565 0 0.6181546
vn -0.6277251 0.6277211 0.4603557
vn -0.9031171 0 0.4293943
vn -0.5450245 0.5450352 0.6370909
vn -0.6918538 0.6918479 0.2066029
vn -0.9788445 0 0.204606
vn -0.9717575 0 -0.2359817
vn -0.6918538 -0.6918479 0.206603
vn -0.6851231 0.6851276 -0.2473997
vn -0.6851231 -0.6851275 -0.2473997
vn -0.5525638 0.5525694 -0.6239715
vn -0.7817461 0 -0.6235967
vn -0.5525638 -0.5525693 -0.6239715
vn -0.4405686 0 -0.8977189
vn -0.2965769 -0.2965727 -0.9077923
vn -0.4962232 -0.4962201 -0.7124101
vn -0.7366328 0 -0.676293
vn -0.4405686 0 -0.8977189
vn -0.7366328 0 -0.676293
vn -0.4962232 0.4962202 -0.7124101
vn -0.2965769 0.2965727 -0.9077923
vn -0.5525638 0.5525694 -0.6239715
vn -0.7817461 0 -0.6235967
vn 0 0.4405654 -0.8977205
vn 0 0.7366273 -0.6762989
vn 0.4962157 0.4962195 -0.7124157
vn 0.2965771 0.29657 -0.907793
vn 0.5525663 0.5525684 -0.6239699
vn 0 0.7817466 -0.6235963
vn 0 0.9717581 -0.235979
vn 0.6851246 0.6851259 -0.2474001
vn -0.5525638 0.5525694 -0.6239715
vn -0.6851231 0.6851276 -0.2473997
vn 0.6918551 0.6918465 0.206603
vn -0.6918538 0.6918479 0.2066029
vn 0 0.9788452 0.2046024
vn 0 0.7860579 0.6181527
vn -0.5450245 0.5450352 0.6370909
vn 0.5450253 0.5450308 0.637094
vn 0.6277212 0.6277213 0.460361
vn 0 0.9031147 0.4293995
vn 0 0.4405654 -0.8977205
vn -0.4962232 0.4962202 -0.7124101
vn 0 0.7366273 -0.6762989
vn -0.2965769 0.2965727 -0.9077923
vn -0.5525638 0.5525694 -0.6239715
vn 0 0.7817466 -0.6235963
vn 0 0.7860579 0.6181527
vn 0 0.9031147 0.4293995
vn -0.6277251 0.6277211 0.4603557
vn -0.5450245 0.5450352 0.6370909
vn 0 -0.7860579 0.6181528
vn 0 -0.9031146 0.4293994
vn 0.6277212 -0.6277213 0.460361
vn -0.6277251 -0.6277211 0.4603557
vn -0.5450245 -0.5450352 0.637091
vn -0.6918538 -0.6918479 0.206603
vn 0 -0.9788452 0.2046024
vn 0 -0.9717581 -0.235979
vn 0.6918551 -0.6918465 0.206603
vn -0.6851231 -0.6851275 -0.2473997
vn 0.6851246 -0.6851259 -0.2474001
vn -0.5525638 -0.5525693 -0.6239715
vn 0.5525664 -0.5525685 -0.62397
vn 0 -0.7817466 -0.6235963
vn 0 -0.7860579 0.6181528
vn 0.6277212 -0.6277213 0.460361
vn 0.5450253 -0.5450309 0.6370941
vn 0.6918551 -0.6918465 0.206603
vn 0 -0.9788452 0.2046024
vn 0.7860535 0 0.6181583
vn 0.5450253 -0.5450309 0.6370941
vn 0.6277212 -0.6277213 0.460361
vn 0.9031141 0 0.4294005
vn 0.6277212 0.6277213 0.460361
vn 0.5450253 0.5450308 0.637094
vn 0.6918551 -0.6918465 0.206603
vn 0.6918551 0.6918465 0.206603
vn 0.9788445 0 0.2046057
vn 0.9717577 0 -0.2359811
vn 0.6851246 -0.6851259 -0.2474001
vn 0.6851246 0.6851259 -0.2474001
vn 0.5525664 -0.5525685 -0.62397
vn 0.5525663 0.5525684 -0.6239699
vn 0.7817485 0 -0.6235939
vn 0.4405662 0 -0.8977201
vn 0.2965771 0.29657 -0.907793
vn 0.4962157 0.4962195 -0.7124157
vn 0.7366241 0 -0.6763024
vn 0.5525663 0.5525684 -0.6239699
vn 0.4962157 -0.4962195 -0.7124157
vn 0.7817485 0 -0.6235939
vn 0.2965771 -0.29657 -0.907793
vn 0.5525664 -0.5525685 -0.62397
vn 0 -0.4405654 -0.8977205
vn -0.4962232 -0.4962201 -0.7124101
vn -0.2965769 -0.2965727 -0.9077923
vn 0 -0.7366274 -0.6762989
vn -0.5525638 -0.5525693 -0.6239715
vn 0.4962157 -0.4962195 -0.7124157
vn 0 -0.7817466 -0.6235963
vn 0.2965771 -0.29657 -0.907793
vn 0.5525664 -0.5525685 -0.62397
g TentPeg_0
f 3/3/3 2/2/2 1/1/1
f 3/3/3 5/5/5 4/4/4
f 6/6/6 3/3/3 4/4/4
f 9/9/9 8/8/8 7/7/7
f 10/10/10 9/9/9 7/7/7
f 13/13/13 12/12/12 11/11/11
f 12/12/12 14/14/14 11/11/11
f 14/14/14 15/15/15 11/11/11
f 15/15/15 16/16/16 11/11/11
f 19/19/19 18/18/18 17/17/17
f 20/20/20 19/19/19 17/17/17
f 23/23/23 22/22/22 21/21/21
f 24/24/24 23/23/23 21/21/21
f 27/27/27 26/26/26 25/25/25
f 26/26/26 28/28/28 25/25/25
f 28/28/28 26/26/26 29/29/29
f 26/26/26 30/30/30 29/29/29
f 30/30/30 31/31/31 29/29/29
f 31/31/31 32/32/32 29/29/29
f 32/32/32 33/33/33 29/29/29
f 33/33/33 34/34/34 29/29/29
f 34/34/34 35/35/35 29/29/29
f 35/35/35 28/28/28 29/29/29
f 28/28/28 35/35/35 25/25/25
f 35/35/35 36/36/36 25/25/25
f 36/36/36 37/37/37 25/25/25
f 37/37/37 38/38/38 25/25/25
f 41/41/41 40/40/40 39/39/39
f 42/42/42 41/41/41 39/39/39
f 45/45/45 44/44/44 43/43/43
f 44/44/44 46/46/46 43/43/43
f 46/46/46 44/44/44 47/47/47
f 44/44/44 48/48/48 47/47/47
f 48/48/48 49/49/49 47/47/47
f 49/49/49 50/50/50 47/47/47
f 50/50/50 51/51/51 47/47/47
f 51/51/51 52/52/52 47/47/47
f 52/52/52 53/53/53 47/47/47
f 53/53/53 46/46/46 47/47/47
f 46/46/46 53/53/53 43/43/43
f 53/53/53 54/54/54 43/43/43
f 54/54/54 55/55/55 43/43/43
f 55/55/55 56/56/56 43/43/43
f 59/59/59 58/58/58 57/57/57
f 58/58/58 60/60/60 57/57/57
f 60/60/60 58/58/58 61/61/61
f 58/58/58 62/62/62 61/61/61
f 62/62/62 63/63/63 61/61/61
f 63/63/63 64/64/64 61/61/61
f 64/64/64 65/65/65 61/61/61
f 65/65/65 66/66/66 61/61/61
f 66/66/66 67/67/67 61/61/61
f 67/67/67 60/60/60 61/61/61
f 60/60/60 67/67/67 57/57/57
f 67/67/67 68/68/68 57/57/57
f 71/71/71 70/70/70 69/69/69
f 70/70/70 72/72/72 69/69/69
f 74/74/74 72/72/72 73/73/73
f 75/75/75 74/74/74 73/73/73
f 72/72/72 76/76/76 73/73/73
f 77/77/77 75/75/75 73/73/73
f 76/76/76 78/78/78 73/73/73
f 79/79/79 77/77/77 73/73/73
f 78/78/78 80/80/80 73/73/73
f 80/80/80 79/79/79 73/73/73
f 83/83/83 82/82/82 81/81/81
f 84/84/84 83/83/83 81/81/81
f 85/85/85 84/84/84 81/81/81
f 86/86/86 85/85/85 81/81/81
f 87/87/87 86/86/86 81/81/81
f 88/88/88 87/87/87 81/81/81
f 89/89/89 88/88/88 81/81/81
f 92/92/92 91/91/91 90/90/90
f 93/93/93 92/92/92 90/90/90
f 91/91/91 94/94/94 90/90/90
f 95/95/95 93/93/93 90/90/90
f 94/94/94 96/96/96 90/90/90
f 97/97/97 95/95/95 90/90/90
f 96/96/96 98/98/98 90/90/90
f 98/98/98 97/97/97 90/90/90
f 101/101/101 100/100/100 99/99/99
f 100/100/100 102/102/102 99/99/99
f 102/102/102 103/103/103 99/99/99
f 103/103/103 104/104/104 99/99/99
f 104/104/104 105/105/105 99/99/99
f 105/105/105 106/106/106 99/99/99
f 107/107/107 101/101/101 99/99/99
f 106/106/106 107/107/107 99/99/99
f 101/101/101 107/107/107 108/108/108
f 107/107/107 106/106/106 108/108/108
f 109/109/109 101/101/101 108/108/108
f 106/106/106 110/110/110 108/108/108
f 111/111/111 109/109/109 108/108/108
f 110/110/110 112/112/112 108/108/108
f 113/113/113 111/111/111 108/108/108
f 112/112/112 113/113/113 108/108/108
f 116/116/116 115/115/115 114/114/114
f 115/115/115 117/117/117 114/114/114
f 117/117/117 118/118/118 114/114/114
f 118/118/118 119/119/119 114/114/114
f 119/119/119 120/120/120 114/114/114
f 120/120/120 121/121/121 114/114/114
f 122/122/122 116/116/116 114/114/114
f 121/121/121 122/122/122 114/114/114
f 116/116/116 122/122/122 123/123/123
f 122/122/122 121/121/121 123/123/123
f 124/124/124 116/116/116 123/123/123
f 121/121/121 125/125/125 123/123/123
f 126/126/126 124/124/124 123/123/123
f 125/125/125 127/127/127 123/123/123
f 128/128/128 126/126/126 123/123/123
f 127/127/127 128/128/128 123/123/123
g TentPeg_1
f 131/131/131 130/130/130 129/129/129
f 132/132/132 131/131/131 129/129/129
f 133/133/133 132/132/132 129/129/129
f 134/134/134 133/133/133 129/129/129
f 137/137/137 136/136/136 135/135/135
f 136/136/136 138/138/138 135/135/135
f 138/138/138 139/139/139 135/135/135
f 139/139/139 140/140/140 135/135/135
f 140/140/140 139/139/139 141/141/141
f 142/142/142 140/140/140 141/141/141
f 139/139/139 143/143/143 141/141/141
f 144/144/144 142/142/142 141/141/141
f 143/143/143 145/145/145 141/141/141
f 145/145/145 146/146/146 141/141/141
f 147/147/147 144/144/144 141/141/141
f 146/146/146 147/147/147 141/141/141
f 147/147/147 146/146/146 148/148/148
f 149/149/149 147/147/147 148/148/148
f 150/150/150 149/149/149 148/148/148
f 151/151/151 150/150/150 148/148/148
f 154/154/154 153/153/153 152/152/152
f 155/155/155 154/154/154 152/152/152
f 156/156/156 155/155/155 152/152/152
f 157/157/157 156/156/156 152/152/152
f 160/160/160 159/159/159 158/158/158
f 161/161/161 160/160/160 158/158/158
f 162/162/162 161/161/161 158/158/158
f 163/163/163 162/162/162 158/158/158
f 162/162/162 163/163/163 164/164/164
f 165/165/165 162/162/162 164/164/164
f 163/163/163 166/166/166 164/164/164
f 166/166/166 167/167/167 164/164/164
f 168/168/168 165/165/165 164/164/164
f 167/167/167 169/169/169 164/164/164
f 170/170/170 168/168/168 164/164/164
f 169/169/169 170/170/170 164/164/164
f 168/168/168 170/170/170 171/171/171
f 170/170/170 169/169/169 171/171/171
f 169/169/169 172/172/172 171/171/171
f 173/173/173 168/168/168 171/171/171
f 174/174/174 173/173/173 171/171/171
f 175/175/175 174/174/174 171/171/171
f 178/178/178 177/177/177 176/176/176
f 177/177/177 179/179/179 176/176/176
f 179/179/179 180/180/180 176/176/176
f 180/180/180 181/181/181 176/176/176
f 184/184/184 183/183/183 182/182/182
f 185/185/185 184/184/184 182/182/182
f 188/188/188 187/187/187 186/186/186
f 187/187/187 189/189/189 186/186/186
f 189/189/189 190/190/190 186/186/186
f 190/190/190 191/191/191 186/186/186
f 191/191/191 192/192/192 186/186/186
f 192/192/192 191/191/191 193/193/193
f 194/194/194 192/192/192 193/193/193
f 191/191/191 195/195/195 193/193/193
f 196/196/196 194/194/194 193/193/193
f 195/195/195 197/197/197 193/193/193
f 198/198/198 196/196/196 193/193/193
f 197/197/197 199/199/199 193/193/193
f 199/199/199 198/198/198 193/193/193
f 202/202/202 201/201/201 200/200/200
f 203/203/203 202/202/202 200/200/200
f 204/204/204 203/203/203 200/200/200
f 207/207/207 206/206/206 205/205/205
f 208/208/208 207/207/207 205/205/205
f 209/209/209 208/208/208 205/205/205
f 210/210/210 209/209/209 205/205/205
f 206/206/206 211/211/211 205/205/205
f 212/212/212 210/210/210 205/205/205
f 211/211/211 213/213/213 205/205/205
f 213/213/213 212/212/212 205/205/205
f 213/213/213 211/211/211 214/214/214
f 212/212/212 213/213/213 214/214/214
f 211/211/211 215/215/215 214/214/214
f 216/216/216 212/212/212 214/214/214
f 215/215/215 217/217/217 214/214/214
f 218/218/218 216/216/216 214/214/214
f 217/217/217 219/219/219 214/214/214
f 219/219/219 218/218/218 214/214/214
f 222/222/222 221/221/221 220/220/220
f 223/223/223 222/222/222 220/220/220
f 221/221/221 224/224/224 220/220/220
f 225/225/225 223/223/223 220/220/220
f 224/224/224 226/226/226 220/220/220
f 227/227/227 225/225/225 220/220/220
f 226/226/226 228/228/228 220/220/220
f 228/228/228 227/227/227 220/220/220
f 231/231/231 230/230/230 229/229/229
f 230/230/230 232/232/232 229/229/229
f 233/233/233 231/231/231 229/229/229
f 232/232/232 234/234/234 229/229/229
f 235/235/235 233/233/233 229/229/229
f 234/234/234 236/236/236 229/229/229
f 237/237/237 235/235/235 229/229/229
f 236/236/236 237/237/237 229/229/229
