g TigerMoth
v 0 0.671573 0.052523
v 0 -0.072216 0.052523
v -0.580029 -0.072216 0.393877
v -0.580029 0.671573 0.393877
v 0 0.671573 0.052523
v -0.580029 0.671573 0.393877
v -0.580029 -0.072216 0.393877
v 0 -0.072216 0.052523
v 0 0.671573 0.052523
v 0.580029 0.671573 0.393877
v 0.580029 -0.072216 0.393877
v 0 -0.072216 0.052523
v 0 0.671573 0.052523
v 0 -0.072216 0.052523
v 0.580029 -0.072216 0.393877
v 0.580029 0.671573 0.393877
vt 0.25672 0.294603
vt 0.25672 0.421558
vt 0.371869 0.421558
vt 0.371869 0.294603
vt 0.25672 0.294603
vt 0.371869 0.294603
vt 0.371869 0.421558
vt 0.25672 0.421558
vt 0.25672 0.294603
vt 0.371869 0.294603
vt 0.371869 0.421558
vt 0.25672 0.421558
vt 0.25672 0.294603
vt 0.25672 0.421558
vt 0.371869 0.421558
vt 0.371869 0.294603
vn 0.5071972 0 0.8618299
vn 0.5071972 0 0.8618299
vn 0.5071972 0 0.8618299
vn 0.5071972 0 0.8618299
vn -0.5071972 0 -0.8618299
vn -0.5071972 0 -0.8618299
vn -0.5071972 0 -0.8618299
vn -0.5071972 0 -0.8618299
vn -0.5071972 0 0.8618299
vn -0.5071972 0 0.8618299
vn -0.5071972 0 0.8618299
vn -0.5071972 0 0.8618299
vn 0.5071972 0 -0.8618299
vn 0.5071972 0 -0.8618299
vn 0.5071972 0 -0.8618299
vn 0.5071972 0 -0.8618299
g TigerMoth_0
f 3/3/3 2/2/2 1/1/1
f 4/4/4 3/3/3 1/1/1
f 7/7/7 6/6/6 5/5/5
f 8/8/8 7/7/7 5/5/5
f 11/11/11 10/10/10 9/9/9
f 12/12/12 11/11/11 9/9/9
f 15/15/15 14/14/14 13/13/13
f 16/16/16 15/15/15 13/13/13
