g TinGate
v 0.794489 0.035798 1.506338
v 0.794489 -0.035798 1.506338
v 0.248847 -0.035798 1.506338
v 0.248847 0.035798 1.506338
v 0.900981 -0.035798 1.46496
v 0.794489 0.072941 1.469194
v 0.900981 0.035798 1.46496
v 0.248847 0.072941 1.469194
v 0.16862 0.072941 1.438695
v 0.142356 0.035798 1.46496
v 0.248847 -0.035798 1.506338
v 0.248847 0.072941 1.407193
v 0.212462 0.072941 1.394854
v 0.874716 0.072941 1.438695
v 0.794489 0.072941 1.407193
v 0.945981 -0.035798 1.414868
v 0.945981 0.035798 1.414868
v 0.830875 0.072941 1.394854
v 0.794489 0.035798 1.370049
v 0.919716 0.072941 1.388604
v 0.945981 -0.035798 0.011409
v 0.945981 0.035798 0.011409
v 0.919716 -0.072941 0.011409
v 0.919716 0.072941 0.011409
v 0.919716 -0.072941 1.388604
v 0.875875 -0.072941 0.011409
v 0.875875 0.072941 1.344762
v 0.875875 0.072941 0.011409
v 0.874716 -0.072941 1.438695
v 0.794489 -0.035798 1.506338
v 0.875875 -0.072941 1.344762
v 0.84961 -0.035798 0.011409
v 0.80461 0.035798 1.368589
v 0.84961 0.035798 1.318498
v 0.84961 0.035798 0.011409
v 0.84961 -0.035798 1.318498
v 0.830875 -0.072941 1.394854
v 0.80461 -0.035798 1.368589
v 0.794489 -0.035798 1.370049
v 0.794489 -0.072941 1.407193
v 0.248847 -0.035798 1.370049
v 0.794489 -0.072941 1.469194
v 0.248847 -0.072941 1.469194
v 0.248847 -0.072941 1.407193
v 0.142356 -0.035798 1.46496
v 0.212462 -0.072941 1.394854
v 0.238726 -0.035798 1.368589
v 0.16862 -0.072941 1.438695
v 0.097356 0.035798 1.414868
v 0.097356 -0.035798 1.414868
v 0.12362 -0.072941 1.388604
v 0.167462 -0.072941 1.344762
v 0.12362 0.072941 1.388604
v 0.167462 0.072941 1.344762
v 0.097356 0.035798 0.011409
v 0.097356 -0.035798 0.011409
v 0.12362 0.072941 0.011409
v 0.12362 -0.072941 0.011409
v 0.167462 0.072941 0.011409
v 0.167462 -0.072941 0.011409
v 0.193726 0.035798 0.011409
v 0.193726 -0.035798 1.318498
v 0.193726 -0.035798 0.011409
v 0.193726 0.035798 1.318498
v 0.238726 0.035798 1.368589
v 0.248847 0.035798 1.370049
v 0.248847 -0.035798 1.370049
v 0.794489 -0.035798 1.370049
v 0.919087 -0.007625 0
v 0.149568 -0.007625 0
v 0.149568 -0.007625 1.392166
v 0.919087 -0.007625 1.392166
v 0.919087 0.007625 0
v 0.919087 0.007625 1.392166
v 0.149568 0.007625 1.392166
v 0.149568 0.007625 0
vt 0.980216 0.316104
vt 0.980216 0.316104
vt 0.980217 0.358094
vt 0.980217 0.358094
vt 0.980216 0.316104
vt 0.960274 0.316104
vt 0.980216 0.316104
vt 0.960274 0.358094
vt 0.960274 0.358094
vt 0.980217 0.358094
vt 0.980217 0.358094
vt 0.926985 0.358094
vt 0.926985 0.358094
vt 0.960274 0.316104
vt 0.926985 0.316104
vt 0.980216 0.316104
vt 0.980216 0.316104
vt 0.926985 0.316104
vt 0.907042 0.316104
vt 0.960274 0.316104
vt 0.980216 0.316104
vt 0.980216 0.316104
vt 0.960274 0.316104
vt 0.960274 0.316104
vt 0.960274 0.316104
vt 0.926985 0.316104
vt 0.926985 0.316104
vt 0.926985 0.316104
vt 0.960274 0.316104
vt 0.980216 0.316104
vt 0.926985 0.316104
vt 0.907042 0.316104
vt 0.907042 0.316104
vt 0.907042 0.316104
vt 0.907042 0.316104
vt 0.907042 0.316104
vt 0.926985 0.316104
vt 0.907042 0.316104
vt 0.907042 0.316104
vt 0.926985 0.316104
vt 0.907042 0.358094
vt 0.960274 0.316104
vt 0.960274 0.358094
vt 0.926985 0.358094
vt 0.980217 0.358094
vt 0.926985 0.358094
vt 0.907042 0.358094
vt 0.960274 0.358094
vt 0.980217 0.358094
vt 0.980217 0.358094
vt 0.960274 0.358094
vt 0.926985 0.358094
vt 0.960274 0.358094
vt 0.926985 0.358094
vt 0.980217 0.358094
vt 0.980217 0.358094
vt 0.960274 0.358094
vt 0.960274 0.358094
vt 0.926985 0.358094
vt 0.926985 0.358094
vt 0.907042 0.358094
vt 0.907042 0.358094
vt 0.907042 0.358094
vt 0.907042 0.358094
vt 0.907042 0.358094
vt 0.907042 0.358094
vt 0.907042 0.358094
vt 0.907042 0.316104
vt 0.942563 -0.22178
vt -0.004571 -0.22178
vt -0.004571 1.22178
vt 0.942563 1.22178
vt 0.942563 -0.22178
vt 0.942563 1.22178
vt -0.004571 1.22178
vt -0.004571 -0.22178
vn 0.05532515 0.3138993 0.947843
vn 0.05532515 -0.3138993 0.947843
vn -0.05532519 -0.3138993 0.947843
vn -0.05532519 0.3138993 0.947843
vn 0.5045265 -0.2795325 0.8168932
vn 0.02367175 0.9283841 0.3708676
vn 0.5045266 0.2795326 0.8168932
vn -0.02367177 0.9283841 0.3708676
vn -0.2342672 0.8899821 0.3912171
vn -0.5045283 0.2795304 0.8168929
vn -0.05532519 -0.3138993 0.947843
vn 0.003489874 0.9422533 -0.334883
vn 0.1630532 0.9686852 -0.1872507
vn 0.234266 0.889982 0.391218
vn -0.003489888 0.9422532 -0.3348832
vn 0.9815487 -0.1880759 0.03449011
vn 0.9815487 0.1880759 0.0344901
vn -0.1630533 0.968685 -0.1872511
vn -0.005845793 0.3276748 -0.9447724
vn 0.6385972 0.7693999 0.01474019
vn 0.9723765 -0.233418 0
vn 0.9723765 0.233418 0
vn 0.4739888 -0.8805309 0
vn 0.4739888 0.8805309 0
vn 0.6385972 -0.7693999 0.01474019
vn -0.4621614 -0.8867958 0
vn -0.2795186 0.9600407 -0.01382903
vn -0.4621614 0.8867958 0
vn 0.2342659 -0.889982 0.391218
vn 0.05532515 -0.3138993 0.947843
vn -0.2795186 -0.9600407 -0.01382903
vn -0.971692 -0.2362516 0
vn -0.6113343 0.3731694 -0.6978645
vn -0.9584615 0.2838148 -0.02829915
vn -0.971692 0.2362516 0
vn -0.9584615 -0.2838148 -0.02829916
vn -0.1630533 -0.968685 -0.1872511
vn -0.6113343 -0.3731693 -0.6978645
vn -0.005845793 -0.3276748 -0.9447724
vn -0.003489888 -0.9422532 -0.3348832
vn 0.005845794 -0.3276747 -0.9447725
vn 0.02367176 -0.9283841 0.3708676
vn -0.02367177 -0.9283841 0.3708676
vn 0.003489875 -0.9422533 -0.334883
vn -0.5045283 -0.2795304 0.8168929
vn 0.1630532 -0.9686852 -0.1872507
vn 0.6113372 -0.3731639 -0.697865
vn -0.2342672 -0.8899821 0.3912171
vn -0.9815501 0.1880686 0.03449028
vn -0.9815501 -0.1880686 0.03449028
vn -0.6386013 -0.7693966 0.01474011
vn 0.279516 -0.9600415 -0.01382909
vn -0.6386013 0.7693966 0.01474011
vn 0.279516 0.9600415 -0.01382909
vn -0.9723785 0.2334095 0
vn -0.9723785 -0.2334095 0
vn -0.4739891 0.8805307 0
vn -0.4739891 -0.8805307 0
vn 0.4621614 0.8867958 0
vn 0.4621614 -0.8867958 0
vn 0.9716941 0.2362428 0
vn 0.9584643 -0.2838051 -0.02829915
vn 0.9716941 -0.2362428 0
vn 0.9584643 0.2838051 -0.02829916
vn 0.6113373 0.3731638 -0.6978651
vn 0.005845794 0.3276747 -0.9447725
vn 0.005845794 -0.3276747 -0.9447725
vn -0.005845793 -0.3276748 -0.9447724
vn 0 -1 0
vn 0 -1 0
vn 0 -1 0
vn 0 -1 0
vn 0 1 0
vn 0 1 0
vn 0 1 0
vn 0 1 0
g TinGate_0
f 3/3/3 2/2/2 1/1/1
f 4/4/4 3/3/3 1/1/1
f 2/2/2 5/5/5 1/1/1
f 1/1/1 6/6/6 4/4/4
f 5/5/5 7/7/7 1/1/1
f 1/1/1 7/7/7 6/6/6
f 6/6/6 8/8/8 4/4/4
f 8/8/8 9/9/9 4/4/4
f 9/9/9 10/10/10 4/4/4
f 4/4/4 10/10/10 11/11/11
f 8/8/8 6/6/6 12/12/12
f 13/13/13 9/9/9 8/8/8
f 12/12/12 13/13/13 8/8/8
f 7/7/7 14/14/14 6/6/6
f 6/6/6 15/15/15 12/12/12
f 6/6/6 14/14/14 15/15/15
f 5/5/5 16/16/16 7/7/7
f 7/7/7 17/17/17 14/14/14
f 16/16/16 17/17/17 7/7/7
f 14/14/14 18/18/18 15/15/15
f 12/12/12 15/15/15 19/19/19
f 15/15/15 18/18/18 19/19/19
f 17/17/17 20/20/20 14/14/14
f 14/14/14 20/20/20 18/18/18
f 16/16/16 21/21/21 17/17/17
f 21/21/21 22/22/22 17/17/17
f 17/17/17 22/22/22 20/20/20
f 23/23/23 21/21/21 16/16/16
f 22/22/22 24/24/24 20/20/20
f 25/25/25 23/23/23 16/16/16
f 25/25/25 16/16/16 5/5/5
f 26/26/26 23/23/23 25/25/25
f 20/20/20 24/24/24 27/27/27
f 20/20/20 27/27/27 18/18/18
f 24/24/24 28/28/28 27/27/27
f 29/29/29 25/25/25 5/5/5
f 29/29/29 5/5/5 30/30/30
f 31/31/31 26/26/26 25/25/25
f 31/31/31 25/25/25 29/29/29
f 32/32/32 26/26/26 31/31/31
f 18/18/18 27/27/27 33/33/33
f 18/18/18 33/33/33 19/19/19
f 27/27/27 28/28/28 34/34/34
f 27/27/27 34/34/34 33/33/33
f 28/28/28 35/35/35 34/34/34
f 35/35/35 32/32/32 36/36/36
f 36/36/36 32/32/32 31/31/31
f 34/34/34 35/35/35 36/36/36
f 37/37/37 31/31/31 29/29/29
f 36/36/36 31/31/31 37/37/37
f 34/34/34 36/36/36 38/38/38
f 33/33/33 34/34/34 38/38/38
f 38/38/38 36/36/36 37/37/37
f 19/19/19 33/33/33 39/39/39
f 33/33/33 38/38/38 39/39/39
f 39/39/39 38/38/38 40/40/40
f 38/38/38 37/37/37 40/40/40
f 39/39/39 40/40/40 41/41/41
f 37/37/37 29/29/29 42/42/42
f 40/40/40 37/37/37 42/42/42
f 42/42/42 29/29/29 30/30/30
f 43/43/43 42/42/42 30/30/30
f 42/42/42 43/43/43 40/40/40
f 11/11/11 43/43/43 30/30/30
f 40/40/40 44/44/44 41/41/41
f 43/43/43 44/44/44 40/40/40
f 11/11/11 45/45/45 43/43/43
f 10/10/10 45/45/45 11/11/11
f 44/44/44 46/46/46 41/41/41
f 46/46/46 47/47/47 41/41/41
f 43/43/43 48/48/48 44/44/44
f 45/45/45 48/48/48 43/43/43
f 48/48/48 46/46/46 44/44/44
f 10/10/10 49/49/49 45/45/45
f 45/45/45 50/50/50 48/48/48
f 49/49/49 50/50/50 45/45/45
f 48/48/48 51/51/51 46/46/46
f 50/50/50 51/51/51 48/48/48
f 46/46/46 52/52/52 47/47/47
f 51/51/51 52/52/52 46/46/46
f 53/53/53 49/49/49 10/10/10
f 9/9/9 53/53/53 10/10/10
f 54/54/54 53/53/53 9/9/9
f 13/13/13 54/54/54 9/9/9
f 49/49/49 55/55/55 50/50/50
f 55/55/55 56/56/56 50/50/50
f 50/50/50 56/56/56 51/51/51
f 57/57/57 55/55/55 49/49/49
f 53/53/53 57/57/57 49/49/49
f 56/56/56 58/58/58 51/51/51
f 51/51/51 58/58/58 52/52/52
f 59/59/59 57/57/57 53/53/53
f 54/54/54 59/59/59 53/53/53
f 58/58/58 60/60/60 52/52/52
f 61/61/61 59/59/59 54/54/54
f 52/52/52 60/60/60 62/62/62
f 60/60/60 63/63/63 62/62/62
f 52/52/52 62/62/62 47/47/47
f 64/64/64 61/61/61 54/54/54
f 63/63/63 61/61/61 64/64/64
f 62/62/62 63/63/63 64/64/64
f 64/64/64 54/54/54 13/13/13
f 62/62/62 64/64/64 65/65/65
f 65/65/65 64/64/64 13/13/13
f 47/47/47 62/62/62 65/65/65
f 65/65/65 13/13/13 12/12/12
f 47/47/47 65/65/65 66/66/66
f 66/66/66 65/65/65 12/12/12
f 67/67/67 47/47/47 66/66/66
f 66/66/66 12/12/12 19/19/19
f 68/68/68 67/67/67 66/66/66
f 19/19/19 68/68/68 66/66/66
g TinGate_1
f 71/71/71 70/70/70 69/69/69
f 72/72/72 71/71/71 69/69/69
f 75/75/75 74/74/74 73/73/73
f 76/76/76 75/75/75 73/73/73
