g TractorCollider
v -1.148373 3.767929 1.506922
v -1.148373 3.767929 -1.022213
v -1.148373 4.330004 -1.022213
v -1.148373 4.330004 1.506921
v -1.148373 3.767929 -1.022213
v 1.148373 3.767929 -1.022213
v 1.148373 4.330004 -1.022213
v -1.148373 4.330004 -1.022213
v 1.148373 3.767929 -1.022213
v 1.148373 3.767929 1.506922
v 1.148373 4.330004 1.506921
v 1.148373 4.330004 -1.022213
v 1.148373 3.767929 1.506922
v -1.148373 3.767929 1.506922
v -1.148373 4.330004 1.506921
v 1.148373 4.330004 1.506921
v -1.148373 3.767929 -1.022213
v -1.148373 3.767929 1.506922
v 1.148373 3.767929 1.506922
v 1.148373 3.767929 -1.022213
v 1.148373 4.330004 -1.022213
v 1.148373 4.330004 1.506921
v -1.148373 4.330004 1.506921
v -1.148373 4.330004 -1.022213
v -1.244087 0.191755 1.445863
v -1.244087 0.191755 0.602818
v -1.244087 2.014249 0.602818
v -1.244087 2.507205 1.445862
v -1.244087 0.191755 2.288908
v -1.244087 2.507205 2.288907
v -1.244087 0.191755 3.131952
v -1.244087 2.014249 3.131952
v -1.244087 0.191755 0.602818
v 1.244087 0.191755 0.602818
v 1.244087 2.014249 0.602818
v -1.244087 2.014249 0.602818
v -1.244087 2.507205 1.445862
v 1.244087 2.507205 1.445862
v -1.244087 2.507205 2.288907
v 1.244087 2.507205 2.288908
v -1.244087 2.014249 3.131952
v 1.244087 2.014249 3.131952
v 1.244087 0.191755 3.131952
v -1.244087 0.191755 3.131952
v 1.244087 0.191755 2.288907
v 1.244087 0.191755 3.131952
v 1.244087 2.014249 3.131952
v 1.244087 2.507205 2.288908
v 1.244087 0.191755 1.445863
v 1.244087 2.507205 1.445862
v 1.244087 0.191755 0.602818
v 1.244087 2.014249 0.602818
v -1.244087 0.191755 2.288908
v -1.244087 0.191755 3.131952
v 1.244087 0.191755 3.131952
v 1.244087 0.191755 2.288907
v -1.244087 0.191755 1.445863
v 1.244087 0.191755 1.445863
v -1.244087 0.191755 0.602818
v 1.244087 0.191755 0.602818
v -0.942357 0.228102 1.089906
v -0.942357 0.228101 -1.439229
v -0.942357 1.505486 -1.439229
v -0.942357 1.505486 1.089906
v -0.942357 0.228101 -1.439229
v 0.942357 0.228101 -1.439229
v 0.942357 1.505486 -1.439229
v -0.942357 1.505486 -1.439229
v 0.942357 0.228101 -1.439229
v 0.942357 0.228102 1.089906
v 0.942357 1.505486 1.089906
v 0.942357 1.505486 -1.439229
v 0.942357 0.228102 1.089906
v -0.942357 0.228102 1.089906
v -0.942357 1.505486 1.089906
v 0.942357 1.505486 1.089906
v -0.942357 0.228101 -1.439229
v -0.942357 0.228102 1.089906
v 0.942357 0.228102 1.089906
v 0.942357 0.228101 -1.439229
v 0.942357 1.505486 -1.439229
v 0.942357 1.505486 1.089906
v -0.942357 1.505486 1.089906
v -0.942357 1.505486 -1.439229
v -0.942357 0.272584 -2.288774
v -0.942357 0.272584 -2.890333
v -0.942357 2.192877 -2.890333
v -0.942357 2.450918 -2.288774
v -0.942357 0.272584 -1.821133
v -0.942357 2.450918 -1.821133
v -0.942357 0.272584 -1.427416
v -0.942357 2.450918 -1.427416
v -0.942357 0.272584 -2.890333
v 0.942357 0.272584 -2.890333
v 0.942357 2.192877 -2.890333
v -0.942357 2.192877 -2.890333
v -0.942357 2.450918 -2.288774
v 0.942357 2.450918 -2.288774
v -0.942357 2.450918 -1.821133
v 0.942357 2.450918 -1.821133
v -0.942357 2.450918 -1.427416
v 0.942357 2.450918 -1.427416
v 0.942357 0.272584 -1.821133
v 0.942357 0.272584 -1.427416
v 0.942357 2.450918 -1.427416
v 0.942357 2.450918 -1.821133
v 0.942357 0.272584 -2.288774
v 0.942357 2.450918 -2.288774
v 0.942357 0.272584 -2.890333
v 0.942357 2.192877 -2.890333
v 0.942357 0.272584 -1.427416
v -0.942357 0.272584 -1.427416
v -0.942357 2.450918 -1.427416
v 0.942357 2.450918 -1.427416
v -0.942357 0.272584 -1.821133
v -0.942357 0.272584 -1.427416
v 0.942357 0.272584 -1.427416
v 0.942357 0.272584 -1.821133
v -0.942357 0.272584 -2.288774
v 0.942357 0.272584 -2.288774
v -0.942357 0.272584 -2.890333
v 0.942357 0.272584 -2.890333
v 1.096832 1.979755 1.257157
v -1.096832 1.979755 1.257157
v -1.096832 1.979755 3.107306
v 1.096832 1.979755 3.107306
v 1.096832 2.795126 1.257157
v 1.096832 2.795126 3.107306
v -1.096832 2.795126 3.107306
v -1.096832 2.795126 1.257157
v 1.096832 1.979755 1.257157
v 1.096832 2.795126 1.257157
v -1.096832 2.795126 1.257157
v -1.096832 1.979755 1.257157
v -1.096832 1.979755 1.257157
v -1.096832 2.795126 1.257157
v -1.096832 2.795126 3.107306
v -1.096832 1.979755 3.107306
v -1.096832 1.979755 3.107306
v -1.096832 2.795126 3.107306
v 1.096832 2.795126 3.107306
v 1.096832 1.979755 3.107306
v 1.096832 1.979755 3.107306
v 1.096832 2.795126 3.107306
v 1.096832 2.795126 1.257157
v 1.096832 1.979755 1.257157
vn -1 0 0
vn -1 0 0
vn -1 0 0
vn -1 0 0
vn 0 0 -1
vn 0 0 -1
vn 0 0 -1
vn 0 0 -1
vn 1 0 0
vn 1 0 0
vn 1 0 0
vn 1 0 0
vn 0 0 1
vn 0 0 1
vn 0 0 1
vn 0 0 1
vn 0 -1 0
vn 0 -1 0
vn 0 -1 0
vn 0 -1 0
vn 0 1 0
vn 0 1 0
vn 0 1 0
vn 0 1 0
vn -1 0 0
vn -1 0 0
vn -1 0 0
vn -1 0 0
vn -1 0 0
vn -1 0 0
vn -1 0 0
vn -1 0 0
vn 0 0 -1
vn 0 0 -1
vn 0 0.3421237 -0.9396548
vn 0 0.3421237 -0.9396548
vn 0 0.9598193 -0.2806189
vn 0 0.9598193 -0.2806189
vn 0 0.9598193 0.2806188
vn 0 0.9598193 0.2806189
vn 0 0.3421239 0.9396548
vn 0 0.3421239 0.9396548
vn 0 0 1
vn 0 0 1
vn 1 0 0
vn 1 0 0
vn 1 0 0
vn 1 0 0
vn 1 0 0
vn 1 0 0
vn 1 0 0
vn 1 0 0
vn 0 -1 0
vn 0 -1 0
vn 0 -1 0
vn 0 -1 0
vn 0 -1 0
vn 0 -1 0
vn 0 -1 0
vn 0 -1 0
vn -1 0 0
vn -1 0 0
vn -1 0 0
vn -1 0 0
vn 0 0 -1
vn 0 0 -1
vn 0 0 -1
vn 0 0 -1
vn 1 0 0
vn 1 0 0
vn 1 0 0
vn 1 0 0
vn 0 0 1
vn 0 0 1
vn 0 0 1
vn 0 0 1
vn 0 -1 0
vn 0 -1 0
vn 0 -1 0
vn 0 -1 0
vn 0 1 0
vn 0 1 0
vn 0 1 0
vn 0 1 0
vn -1 0 0
vn -1 0 0
vn -1 0 0
vn -1 0 0
vn -1 0 0
vn -1 0 0
vn -1 0 0
vn -1 0 0
vn 0 0 -1
vn 0 0 -1
vn 0 0.2661918 -0.9639201
vn 0 0.2661918 -0.9639201
vn 0 0.9720909 -0.2346046
vn 0 0.9720909 -0.2346046
vn 0 1 0
vn 0 1 0
vn 0 1 0
vn 0 1 0
vn 1 0 0
vn 1 0 0
vn 1 0 0
vn 1 0 0
vn 1 0 0
vn 1 0 0
vn 1 0 0
vn 1 0 0
vn 0 0 1
vn 0 0 1
vn 0 0 1
vn 0 0 1
vn 0 -1 0
vn 0 -1 0
vn 0 -1 0
vn 0 -1 0
vn 0 -1 0
vn 0 -1 0
vn 0 -1 0
vn 0 -1 0
vn 0 -1 0
vn 0 -1 0
vn 0 -1 0
vn 0 -1 0
vn 0 1 0
vn 0 1 0
vn 0 1 0
vn 0 1 0
vn 0 0 -1
vn 0 0 -1
vn 0 0 -1
vn 0 0 -1
vn -1 0 0
vn -1 0 0
vn -1 0 0
vn -1 0 0
vn 0 0 1
vn 0 0 1
vn 0 0 1
vn 0 0 1
vn 1 0 0
vn 1 0 0
vn 1 0 0
vn 1 0 0
g TractorCollider_0
f 3/3/3 2/2/2 1/1/1
f 4/4/4 3/3/3 1/1/1
f 7/7/7 6/6/6 5/5/5
f 8/8/8 7/7/7 5/5/5
f 11/11/11 10/10/10 9/9/9
f 12/12/12 11/11/11 9/9/9
f 15/15/15 14/14/14 13/13/13
f 16/16/16 15/15/15 13/13/13
f 19/19/19 18/18/18 17/17/17
f 20/20/20 19/19/19 17/17/17
f 23/23/23 22/22/22 21/21/21
f 24/24/24 23/23/23 21/21/21
f 27/27/27 26/26/26 25/25/25
f 28/28/28 27/27/27 25/25/25
f 28/28/28 25/25/25 29/29/29
f 30/30/30 28/28/28 29/29/29
f 30/30/30 29/29/29 31/31/31
f 32/32/32 30/30/30 31/31/31
f 35/35/35 34/34/34 33/33/33
f 36/36/36 35/35/35 33/33/33
f 36/36/36 37/37/37 35/35/35
f 37/37/37 38/38/38 35/35/35
f 37/37/37 39/39/39 38/38/38
f 39/39/39 40/40/40 38/38/38
f 39/39/39 41/41/41 40/40/40
f 41/41/41 42/42/42 40/40/40
f 42/42/42 41/41/41 43/43/43
f 41/41/41 44/44/44 43/43/43
f 47/47/47 46/46/46 45/45/45
f 48/48/48 47/47/47 45/45/45
f 48/48/48 45/45/45 49/49/49
f 50/50/50 48/48/48 49/49/49
f 50/50/50 49/49/49 51/51/51
f 52/52/52 50/50/50 51/51/51
f 55/55/55 54/54/54 53/53/53
f 56/56/56 55/55/55 53/53/53
f 56/56/56 53/53/53 57/57/57
f 58/58/58 56/56/56 57/57/57
f 58/58/58 57/57/57 59/59/59
f 60/60/60 58/58/58 59/59/59
f 63/63/63 62/62/62 61/61/61
f 64/64/64 63/63/63 61/61/61
f 67/67/67 66/66/66 65/65/65
f 68/68/68 67/67/67 65/65/65
f 71/71/71 70/70/70 69/69/69
f 72/72/72 71/71/71 69/69/69
f 75/75/75 74/74/74 73/73/73
f 76/76/76 75/75/75 73/73/73
f 79/79/79 78/78/78 77/77/77
f 80/80/80 79/79/79 77/77/77
f 83/83/83 82/82/82 81/81/81
f 84/84/84 83/83/83 81/81/81
f 87/87/87 86/86/86 85/85/85
f 88/88/88 87/87/87 85/85/85
f 88/88/88 85/85/85 89/89/89
f 90/90/90 88/88/88 89/89/89
f 90/90/90 89/89/89 91/91/91
f 92/92/92 90/90/90 91/91/91
f 95/95/95 94/94/94 93/93/93
f 96/96/96 95/95/95 93/93/93
f 96/96/96 97/97/97 95/95/95
f 97/97/97 98/98/98 95/95/95
f 97/97/97 99/99/99 98/98/98
f 99/99/99 100/100/100 98/98/98
f 99/99/99 101/101/101 100/100/100
f 101/101/101 102/102/102 100/100/100
f 105/105/105 104/104/104 103/103/103
f 106/106/106 105/105/105 103/103/103
f 106/106/106 103/103/103 107/107/107
f 108/108/108 106/106/106 107/107/107
f 108/108/108 107/107/107 109/109/109
f 110/110/110 108/108/108 109/109/109
f 113/113/113 112/112/112 111/111/111
f 114/114/114 113/113/113 111/111/111
f 117/117/117 116/116/116 115/115/115
f 118/118/118 117/117/117 115/115/115
f 118/118/118 115/115/115 119/119/119
f 120/120/120 118/118/118 119/119/119
f 120/120/120 119/119/119 121/121/121
f 122/122/122 120/120/120 121/121/121
f 125/125/125 124/124/124 123/123/123
f 126/126/126 125/125/125 123/123/123
f 129/129/129 128/128/128 127/127/127
f 130/130/130 129/129/129 127/127/127
f 133/133/133 132/132/132 131/131/131
f 134/134/134 133/133/133 131/131/131
f 137/137/137 136/136/136 135/135/135
f 138/138/138 137/137/137 135/135/135
f 141/141/141 140/140/140 139/139/139
f 142/142/142 141/141/141 139/139/139
f 145/145/145 144/144/144 143/143/143
f 146/146/146 145/145/145 143/143/143
