g Tractor_Attachment
v -1.162068 3.569252 0.478546
v 0 3.569252 0.478546
v 0 3.569252 0.833333
v -1.162068 3.569252 0.833333
v -2.324135 3.569252 0.478546
v -2.324135 3.569252 0.833333
v -2.324135 3.159121 0.478546
v -2.324135 2.969546 0.478546
v -2.324135 2.969546 0.833333
v -2.324135 3.159121 0.833333
v -1.162068 3.569252 0.833333
v -2.194535 3.521962 1.005399
v -2.324135 3.569252 0.833333
v -1.097268 3.521962 1.005399
v 0 3.569252 0.833333
v 0 3.521962 1.005399
v -1.097268 3.206411 1.005399
v 0 3.206411 1.005399
v -2.194535 3.206411 1.005399
v -2.324135 3.569252 0.833333
v -2.324135 3.159121 0.833333
v -1.162068 3.159121 0.833333
v -2.324135 3.159121 0.833333
v -0.558556 2.526639 1.137026
v -0.493756 2.573929 1.309091
v 0 2.573929 1.309091
v 0 2.526639 1.137026
v -0.493756 2.573929 1.309091
v 0 2.573929 1.309091
v 0.493756 2.573929 1.309091
v 1.097268 3.206411 1.005399
v -2.596321 3.569252 0.833333
v -2.324135 4.652286 0.833333
v -2.596321 4.652286 0.833333
v -2.596321 3.159121 0.833333
v -2.596321 2.969546 0.833333
v -2.324135 2.969546 0.833333
v -2.324135 2.969546 0.478546
v -2.596321 2.969546 0.478546
v -2.596321 2.969546 0.833333
v -2.324135 2.969546 0.833333
v -2.596321 3.159121 0.833333
v -2.596321 2.969546 0.833333
v -2.596321 2.969546 0.478546
v -2.596321 3.159121 0.478546
v -2.596321 3.569252 0.833333
v -2.596321 3.569252 0.478546
v -2.596321 4.652286 0.833333
v -2.596321 4.652286 0.478546
v -2.596321 3.159121 0.478546
v -2.596321 2.969546 0.478546
v -2.324135 2.969546 0.478546
v -2.324135 3.159121 0.478546
v -2.324135 3.569252 0.478546
v -2.596321 3.569252 0.478546
v -2.596321 4.652286 0.478546
v -2.324135 4.652286 0.478546
v -1.162068 3.159121 0.478546
v -1.162068 3.569252 0.478546
v 0 3.159121 0.478546
v 0 3.569252 0.478546
v 1.162068 3.569252 0.478546
v 1.162068 3.159121 0.478546
v 2.324135 3.569252 0.478546
v 0 2.526639 0.782239
v -0.558556 2.526639 0.782239
v 0 2.526639 1.137026
v -0.558556 2.526639 1.137026
v -1.162068 3.159121 0.833333
v -2.324135 3.159121 0.478546
v -2.324135 3.159121 0.833333
v 0.558556 2.526639 0.782239
v 2.324135 3.159121 0.478546
v 1.162068 3.159121 0.833333
v 2.324135 3.159121 0.478546
v 2.324135 3.159121 0.833333
v 0.558556 2.526639 1.137026
v 0 2.526639 1.137026
v 0 2.526639 0.782239
v 2.596321 3.159121 0.478546
v 2.324135 2.969546 0.478546
v 2.596321 2.969546 0.478546
v 2.596321 3.569252 0.478546
v 2.596321 4.652286 0.478546
v 2.324135 4.652286 0.478546
v -2.324135 4.652286 0.833333
v -2.596321 4.652286 0.833333
v -2.596321 4.652286 0.478546
v -2.324135 4.652286 0.478546
v -2.324135 3.569252 0.833333
v -2.324135 4.652286 0.833333
v -2.324135 4.652286 0.478546
v -2.324135 3.569252 0.478546
v 1.162068 3.569252 0.478546
v 0 3.569252 0.833333
v 0 3.569252 0.478546
v 1.162068 3.569252 0.833333
v 2.324135 3.569252 0.478546
v 2.324135 3.569252 0.833333
v 2.324135 3.159121 0.478546
v 2.324135 3.159121 0.833333
v 2.324135 2.969546 0.833333
v 2.324135 2.969546 0.478546
v 1.097268 3.206411 1.005399
v 0 3.206411 1.005399
v 0 3.521962 1.005399
v 1.097268 3.521962 1.005399
v 0 3.569252 0.833333
v 1.162068 3.569252 0.833333
v 2.194535 3.521962 1.005399
v 2.324135 3.569252 0.833333
v 2.194535 3.206411 1.005399
v 2.324135 3.569252 0.833333
v 2.324135 3.159121 0.833333
v 1.162068 3.159121 0.833333
v 0.558556 2.526639 1.137026
v 0.493756 2.573929 1.309091
v 0 2.573929 1.309091
v 0 2.526639 1.137026
v 2.324135 3.159121 0.833333
v 2.596321 3.569252 0.833333
v 2.324135 4.652286 0.833333
v 2.596321 4.652286 0.833333
v 2.596321 3.159121 0.833333
v 2.596321 2.969546 0.833333
v 2.324135 2.969546 0.833333
v 2.324135 2.969546 0.478546
v 2.324135 2.969546 0.833333
v 2.596321 2.969546 0.833333
v 2.596321 2.969546 0.478546
v 2.596321 3.159121 0.833333
v 2.596321 2.969546 0.478546
v 2.596321 2.969546 0.833333
v 2.596321 3.159121 0.478546
v 2.596321 3.569252 0.833333
v 2.596321 3.569252 0.478546
v 2.596321 4.652286 0.833333
v 2.596321 4.652286 0.478546
v 2.324135 4.652286 0.833333
v 2.324135 4.652286 0.478546
v 2.596321 4.652286 0.478546
v 2.596321 4.652286 0.833333
v 2.324135 3.569252 0.833333
v 2.324135 3.569252 0.478546
v 2.324135 4.652286 0.478546
v 2.324135 4.652286 0.833333
vt 0.561871 0.393373
vt 0.485282 0.393373
vt 0.485282 0.588538
vt 0.561871 0.588538
vt 0.63846 0.393373
vt 0.63846 0.588538
vt 0.63846 0.393373
vt 0.63846 0.393373
vt 0.63846 0.588538
vt 0.63846 0.588538
vt 0.142376 0.967836
vt 0.032951 0.938655
vt 0.015693 0.967836
vt 0.151005 0.938655
vt 0.269059 0.967836
vt 0.269059 0.938655
vt 0.151005 0.743939
vt 0.269059 0.743939
vt 0.032951 0.743939
vt 0.015693 0.967836
vt 0.015693 0.714759
vt 0.142376 0.714759
vt 0.015693 0.714759
vt 0.142376 0.714759
vt 0.151005 0.743939
vt 0.269059 0.743939
vt 0.269059 0.714759
vt 0.151005 0.743939
vt 0.269059 0.743939
vt 0.151005 0.743939
vt 0.151005 0.743939
vt 0.015693 0.967836
vt 0.015693 0.967836
vt 0.015693 0.967836
vt 0.015693 0.714759
vt 0.015693 0.714759
vt 0.015693 0.714759
vt 0.63846 0.393373
vt 0.63846 0.393373
vt 0.63846 0.588538
vt 0.63846 0.588538
vt 0.63846 0.588538
vt 0.63846 0.588538
vt 0.63846 0.393373
vt 0.63846 0.393373
vt 0.63846 0.588538
vt 0.63846 0.393373
vt 0.63846 0.588538
vt 0.63846 0.393373
vt 0.63846 0.393373
vt 0.63846 0.393373
vt 0.63846 0.393373
vt 0.63846 0.393373
vt 0.63846 0.393373
vt 0.63846 0.393373
vt 0.63846 0.393373
vt 0.63846 0.393373
vt 0.561871 0.393373
vt 0.561871 0.393373
vt 0.485282 0.393373
vt 0.485282 0.393373
vt 0.561871 0.393373
vt 0.561871 0.393373
vt 0.63846 0.393373
vt 0.485282 0.393373
vt 0.561871 0.393373
vt 0.485282 0.588538
vt 0.561871 0.588538
vt 0.561871 0.588538
vt 0.63846 0.393373
vt 0.63846 0.588538
vt 0.561871 0.393373
vt 0.63846 0.393373
vt 0.561871 0.588538
vt 0.63846 0.393373
vt 0.63846 0.588538
vt 0.561871 0.588538
vt 0.485282 0.588538
vt 0.485282 0.393373
vt 0.63846 0.393373
vt 0.63846 0.393373
vt 0.63846 0.393373
vt 0.63846 0.393373
vt 0.63846 0.393373
vt 0.63846 0.393373
vt 0.63846 0.588538
vt 0.63846 0.588538
vt 0.63846 0.393373
vt 0.63846 0.393373
vt 0.63846 0.588538
vt 0.63846 0.588538
vt 0.63846 0.393373
vt 0.63846 0.393373
vt 0.561871 0.393373
vt 0.485282 0.588538
vt 0.485282 0.393373
vt 0.561871 0.588538
vt 0.63846 0.393373
vt 0.63846 0.588538
vt 0.63846 0.393373
vt 0.63846 0.588538
vt 0.63846 0.588538
vt 0.63846 0.393373
vt 0.151005 0.743939
vt 0.269059 0.743939
vt 0.269059 0.938655
vt 0.151005 0.938655
vt 0.269059 0.967836
vt 0.142376 0.967836
vt 0.032951 0.938655
vt 0.015693 0.967836
vt 0.032951 0.743939
vt 0.015693 0.967836
vt 0.015693 0.714759
vt 0.142376 0.714759
vt 0.142376 0.714759
vt 0.151005 0.743939
vt 0.269059 0.743939
vt 0.269059 0.714759
vt 0.015693 0.714759
vt 0.015693 0.967836
vt 0.015693 0.967836
vt 0.015693 0.967836
vt 0.015693 0.714759
vt 0.015693 0.714759
vt 0.015693 0.714759
vt 0.63846 0.393373
vt 0.63846 0.588538
vt 0.63846 0.588538
vt 0.63846 0.393373
vt 0.63846 0.588538
vt 0.63846 0.393373
vt 0.63846 0.588538
vt 0.63846 0.393373
vt 0.63846 0.588538
vt 0.63846 0.393373
vt 0.63846 0.588538
vt 0.63846 0.393373
vt 0.63846 0.588538
vt 0.63846 0.393373
vt 0.63846 0.393373
vt 0.63846 0.588538
vt 0.63846 0.588538
vt 0.63846 0.393373
vt 0.63846 0.393373
vt 0.63846 0.588538
vn 0 1 0
vn 0 1 0
vn 0 0.9961452 0.08771934
vn 0 0.9961452 0.08771932
vn 0 1 0
vn 0 0.9981682 0.06050005
vn 1 0 0
vn 1 0 0
vn 1 0 0
vn 1 0 0
vn 0 0.9961452 0.08771932
vn -0.1287572 0.4933076 0.8602727
vn 0 0.9981682 0.06050005
vn 0 0.4373661 0.8992836
vn 0 0.9961452 0.08771934
vn 0 0.4373661 0.8992836
vn -0.1359656 -0.1099224 0.9845966
vn 0 0.2735771 0.96185
vn -0.1287572 -0.493308 0.8602725
vn -0.1195975 0 0.9928225
vn 0 -0.9981682 0.06049974
vn -0.35044 -0.9296816 0.1135083
vn -0.255449 0 0.9668226
vn -0.5116587 -0.8435064 0.1634088
vn -0.4390839 -0.8103154 0.3880648
vn 0 -0.9642451 0.2650117
vn 0 -0.9963065 0.08586748
vn 0 0.4328478 0.9014671
vn 0 0.4328477 0.9014671
vn 0 0.4328477 0.9014671
vn 0.1359656 -0.1099224 0.9845966
vn 0 0 1
vn 0 0 1
vn 0 0 1
vn 0 0 1
vn 0 0 1
vn 0 0 1
vn 0 -1 0
vn 0 -1 0
vn 0 -1 0
vn 0 -1 0
vn -1 0 0
vn -1 0 0
vn -1 0 0
vn -1 0 0
vn -1 0 0
vn -1 0 0
vn -1 0 0
vn -1 0 0
vn 0 0 -1
vn 0 0 -1
vn 0 0 -1
vn 0 0 -1
vn 0 0 -1
vn 0 0 -1
vn 0 0 -1
vn 0 0 -1
vn -0.1212856 -0.4970971 -0.8591765
vn 0 0 -1
vn 0 -0.2479697 -0.9687677
vn 0 0 -1
vn 0 0 -1
vn 0.1212856 -0.4970971 -0.8591765
vn 0 0 -1
vn 0 -0.6451398 -0.7640646
vn -0.2300534 -0.7077513 -0.6679547
vn 0 -0.9963065 0.08586748
vn -0.5116587 -0.8435064 0.1634088
vn -0.35044 -0.9296816 0.1135083
vn 0 -1 0
vn 0 -0.9981682 0.06049974
vn 0.2300534 -0.7077513 -0.6679547
vn 0 0 -1
vn 0.3504399 -0.9296816 0.1135083
vn 0 -1 0
vn 0 -0.9981682 0.06049975
vn 0.5116587 -0.8435064 0.1634088
vn 0 -0.9963065 0.08586748
vn 0 -0.6451398 -0.7640646
vn 0 0 -1
vn 0 0 -1
vn 0 0 -1
vn 0 0 -1
vn 0 0 -1
vn 0 0 -1
vn 0 1 0
vn 0 1 0
vn 0 1 0
vn 0 1 0
vn 1 0 0
vn 1 0 0
vn 1 0 0
vn 1 0 0
vn 0 1 0
vn 0 0.9961452 0.08771934
vn 0 1 0
vn 0 0.9961452 0.08771931
vn 0 1 0
vn 0 0.9981682 0.06050005
vn -1 0 0
vn -1 0 0
vn -1 0 0
vn -1 0 0
vn 0.1359656 -0.1099224 0.9845966
vn 0 0.2735771 0.96185
vn 0 0.4373661 0.8992836
vn 0 0.4373661 0.8992836
vn 0 0.9961452 0.08771934
vn 0 0.9961452 0.08771931
vn 0.1287572 0.4933076 0.8602727
vn 0 0.9981682 0.06050005
vn 0.1287572 -0.493308 0.8602725
vn 0.1195975 0 0.9928225
vn 0 -0.9981682 0.06049975
vn 0.3504399 -0.9296816 0.1135083
vn 0.5116587 -0.8435064 0.1634088
vn 0.4390839 -0.8103154 0.3880647
vn 0 -0.9642451 0.2650117
vn 0 -0.9963065 0.08586748
vn 0.255449 0 0.9668226
vn 0 0 1
vn 0 0 1
vn 0 0 1
vn 0 0 1
vn 0 0 1
vn 0 0 1
vn 0 -1 0
vn 0 -1 0
vn 0 -1 0
vn 0 -1 0
vn 1 0 0
vn 1 0 0
vn 1 0 0
vn 1 0 0
vn 1 0 0
vn 1 0 0
vn 1 0 0
vn 1 0 0
vn 0 1 0
vn 0 1 0
vn 0 1 0
vn 0 1 0
vn -1 0 0
vn -1 0 0
vn -1 0 0
vn -1 0 0
g Tractor_Attachment_0
f 3/3/3 2/2/2 1/1/1
f 4/4/4 3/3/3 1/1/1
f 4/4/4 1/1/1 5/5/5
f 6/6/6 4/4/4 5/5/5
f 9/9/9 8/8/8 7/7/7
f 10/10/10 9/9/9 7/7/7
f 13/13/13 12/12/12 11/11/11
f 12/12/12 14/14/14 11/11/11
f 11/11/11 14/14/14 15/15/15
f 14/14/14 16/16/16 15/15/15
f 16/16/16 14/14/14 17/17/17
f 18/18/18 16/16/16 17/17/17
f 14/14/14 12/12/12 19/19/19
f 17/17/17 14/14/14 19/19/19
f 19/19/19 12/12/12 20/20/20
f 17/17/17 19/19/19 21/21/21
f 22/22/22 17/17/17 21/21/21
f 23/23/23 19/19/19 20/20/20
f 22/22/22 24/24/24 17/17/17
f 24/24/24 25/25/25 17/17/17
f 26/26/26 25/25/25 24/24/24
f 27/27/27 26/26/26 24/24/24
f 17/17/17 28/28/28 18/18/18
f 28/28/28 29/29/29 18/18/18
f 29/29/29 30/30/30 18/18/18
f 30/30/30 31/31/31 18/18/18
f 20/20/20 32/32/32 23/23/23
f 20/20/20 33/33/33 32/32/32
f 33/33/33 34/34/34 32/32/32
f 32/32/32 35/35/35 23/23/23
f 35/35/35 36/36/36 23/23/23
f 36/36/36 37/37/37 23/23/23
f 40/40/40 39/39/39 38/38/38
f 41/41/41 40/40/40 38/38/38
f 44/44/44 43/43/43 42/42/42
f 45/45/45 44/44/44 42/42/42
f 42/42/42 46/46/46 45/45/45
f 46/46/46 47/47/47 45/45/45
f 46/46/46 48/48/48 47/47/47
f 48/48/48 49/49/49 47/47/47
f 52/52/52 51/51/51 50/50/50
f 53/53/53 52/52/52 50/50/50
f 53/53/53 50/50/50 54/54/54
f 50/50/50 55/55/55 54/54/54
f 55/55/55 56/56/56 54/54/54
f 56/56/56 57/57/57 54/54/54
f 53/53/53 54/54/54 58/58/58
f 54/54/54 59/59/59 58/58/58
f 58/58/58 59/59/59 60/60/60
f 59/59/59 61/61/61 60/60/60
f 61/61/61 62/62/62 60/60/60
f 62/62/62 63/63/63 60/60/60
f 62/62/62 64/64/64 63/63/63
f 60/60/60 65/65/65 58/58/58
f 65/65/65 60/60/60 63/63/63
f 65/65/65 66/66/66 58/58/58
f 65/65/65 67/67/67 66/66/66
f 67/67/67 68/68/68 66/66/66
f 66/66/66 68/68/68 69/69/69
f 58/58/58 66/66/66 69/69/69
f 58/58/58 69/69/69 70/70/70
f 69/69/69 71/71/71 70/70/70
f 72/72/72 65/65/65 63/63/63
f 64/64/64 73/73/73 63/63/63
f 72/72/72 63/63/63 74/74/74
f 74/74/74 63/63/63 75/75/75
f 76/76/76 74/74/74 75/75/75
f 77/77/77 72/72/72 74/74/74
f 77/77/77 78/78/78 72/72/72
f 78/78/78 79/79/79 72/72/72
f 80/80/80 73/73/73 64/64/64
f 81/81/81 73/73/73 80/80/80
f 82/82/82 81/81/81 80/80/80
f 83/83/83 80/80/80 64/64/64
f 84/84/84 83/83/83 64/64/64
f 85/85/85 84/84/84 64/64/64
f 88/88/88 87/87/87 86/86/86
f 89/89/89 88/88/88 86/86/86
f 92/92/92 91/91/91 90/90/90
f 93/93/93 92/92/92 90/90/90
f 96/96/96 95/95/95 94/94/94
f 95/95/95 97/97/97 94/94/94
f 94/94/94 97/97/97 98/98/98
f 97/97/97 99/99/99 98/98/98
f 102/102/102 101/101/101 100/100/100
f 103/103/103 102/102/102 100/100/100
f 106/106/106 105/105/105 104/104/104
f 107/107/107 106/106/106 104/104/104
f 106/106/106 107/107/107 108/108/108
f 107/107/107 109/109/109 108/108/108
f 107/107/107 110/110/110 109/109/109
f 110/110/110 111/111/111 109/109/109
f 110/110/110 107/107/107 112/112/112
f 107/107/107 104/104/104 112/112/112
f 110/110/110 112/112/112 113/113/113
f 112/112/112 104/104/104 114/114/114
f 104/104/104 115/115/115 114/114/114
f 116/116/116 115/115/115 104/104/104
f 117/117/117 116/116/116 104/104/104
f 117/117/117 118/118/118 116/116/116
f 118/118/118 119/119/119 116/116/116
f 112/112/112 120/120/120 113/113/113
f 121/121/121 113/113/113 120/120/120
f 122/122/122 113/113/113 121/121/121
f 123/123/123 122/122/122 121/121/121
f 124/124/124 121/121/121 120/120/120
f 125/125/125 124/124/124 120/120/120
f 126/126/126 125/125/125 120/120/120
f 129/129/129 128/128/128 127/127/127
f 130/130/130 129/129/129 127/127/127
f 133/133/133 132/132/132 131/131/131
f 132/132/132 134/134/134 131/131/131
f 135/135/135 131/131/131 134/134/134
f 136/136/136 135/135/135 134/134/134
f 137/137/137 135/135/135 136/136/136
f 138/138/138 137/137/137 136/136/136
f 141/141/141 140/140/140 139/139/139
f 142/142/142 141/141/141 139/139/139
f 145/145/145 144/144/144 143/143/143
f 146/146/146 145/145/145 143/143/143
