g TractorHoePlantOff
v -0.072462 -0.139555 -0.100929
v 0 -0.139065 -0.100929
v 0 0.139591 -0.100929
v -0.072623 0.139565 -0.100929
v -0.12628 -0.118498 -0.100929
v -0.126327 0.118194 -0.100929
v -0.148572 -0.067035 -0.100929
v -0.148572 0.066634 -0.100929
v 0 -0.104663 -0.044991
v 0 -0.139065 -0.044991
v -0.072462 -0.139555 -0.044991
v -0.031791 -0.104854 -0.044991
v -0.08552 -0.083722 -0.044991
v -0.12628 -0.118498 -0.044991
v -0.107775 -0.032228 -0.044991
v -0.148572 -0.067035 -0.044991
v -0.148572 0.066634 -0.044991
v -0.107775 0.03204 -0.044991
v -0.085528 0.083599 -0.044991
v -0.126327 0.118194 -0.044991
v -0.031819 0.104966 -0.044991
v -0.072623 0.139565 -0.044991
v 0 0.139591 -0.044991
v 0 0.104976 -0.044991
v 0.12628 -0.118498 -0.100929
v 0.148572 -0.067035 -0.100929
v 0.148572 0.066634 -0.100929
v 0.126327 0.118194 -0.100929
v 0.072623 0.139565 -0.100929
v 0.072462 -0.139555 -0.100929
v 0 0.139591 -0.100929
v 0 -0.139065 -0.100929
v 0 -0.104663 -0.044991
v 0.072462 -0.139555 -0.044991
v 0 -0.139065 -0.044991
v 0.031791 -0.104854 -0.044991
v 0.08552 -0.083722 -0.044991
v 0.12628 -0.118498 -0.044991
v 0.107775 -0.032228 -0.044991
v 0.148572 -0.067035 -0.044991
v 0.148572 0.066634 -0.044991
v 0.107775 0.03204 -0.044991
v 0.085528 0.083599 -0.044991
v 0.126327 0.118194 -0.044991
v 0.031819 0.104966 -0.044991
v 0.072623 0.139565 -0.044991
v 0 0.139591 -0.044991
v 0 0.104976 -0.044991
v 0 0.139591 -0.100929
v -0.072623 0.139565 -0.044991
v -0.072623 0.139565 -0.100929
v -0.126327 0.118194 -0.100929
v 0 0.139591 -0.044991
v -0.126327 0.118194 -0.044991
v 0.072623 0.139565 -0.044991
v 0.072623 0.139565 -0.100929
v 0.126327 0.118194 -0.100929
v 0.126327 0.118194 -0.044991
v -0.148572 0.066634 -0.100929
v -0.148572 0.066634 -0.044991
v 0.148572 0.066634 -0.100929
v 0.148572 0.066634 -0.044991
v -0.148572 -0.067035 -0.044991
v -0.148572 -0.067035 -0.100929
v -0.12628 -0.118498 -0.100929
v -0.12628 -0.118498 -0.044991
v 0.148572 -0.067035 -0.044991
v 0.148572 -0.067035 -0.100929
v 0.12628 -0.118498 -0.100929
v 0.12628 -0.118498 -0.044991
v -0.072462 -0.139555 -0.100929
v -0.072462 -0.139555 -0.044991
v 0.072462 -0.139555 -0.100929
v 0.072462 -0.139555 -0.044991
v 0 -0.139065 -0.044991
v 0 -0.139065 -0.100929
v 0.091004 -0.372977 -0.097028
v -0.091004 -0.372977 -0.097028
v -0.091004 -0.168198 -0.097028
v 0.091004 -0.168198 -0.097028
v 0.031791 -0.104854 -0.044991
v 0 -0.104663 0.078375
v 0.031791 -0.104854 0.078375
v 0 -0.104663 -0.044991
v -0.031791 -0.104854 -0.044991
v -0.031791 -0.104854 0.078375
v 0 -0.076124 0.112541
v -0.08552 -0.083722 0.078375
v -0.08552 -0.083722 -0.044991
v -0.01094 -0.076263 0.112541
v -0.107775 -0.032228 0.078375
v -0.107775 -0.032228 -0.044991
v -0.107775 0.03204 -0.044991
v -0.010964 0.076352 0.112541
v 0 0.076359 0.112541
v 0 0.104976 0.078375
v -0.056262 -0.060892 0.112541
v -0.107775 0.03204 0.078375
v -0.075035 -0.023437 0.112541
v -0.056269 0.06081 0.112541
v -0.031819 0.104966 0.078375
v -0.085528 0.083599 0.078375
v -0.085528 0.083599 -0.044991
v -0.031819 0.104966 -0.044991
v 0 0.104976 -0.044991
v 0.031819 0.104966 0.078375
v 0.031819 0.104966 -0.044991
v 0.085528 0.083599 -0.044991
v -0.075035 0.023309 0.112541
v 0.085528 0.083599 0.078375
v 0.107775 0.03204 -0.044991
v 0.056269 0.06081 0.112541
v 0.010964 0.076352 0.112541
v 0 0.104976 0.078375
v 0 0.076359 0.112541
v 0.01094 -0.076263 0.112541
v 0 -0.076124 0.112541
v 0.056262 -0.060892 0.112541
v 0.031791 -0.104854 0.078375
v 0 -0.104663 0.078375
v 0.08552 -0.083722 0.078375
v 0.08552 -0.083722 -0.044991
v 0.107775 -0.032228 0.078375
v 0.107775 -0.032228 -0.044991
v 0.075035 -0.023437 0.112541
v 0.107775 0.03204 0.078375
v 0.075035 0.023309 0.112541
vt 0.119898 0.651095
vt 0.19778 0.651626
vt 0.19778 0.954224
vt 0.119748 0.954196
vt 0.055983 0.658395
vt 0.055969 0.946443
vt 0.049068 0.729845
vt 0.049068 0.874999
vt 0.165577 0.688985
vt 0.19778 0.651626
vt 0.119898 0.651095
vt 0.135102 0.688777
vt 0.081272 0.68841
vt 0.05835 0.661506
vt 0.081272 0.767643
vt 0.049068 0.729845
vt 0.049068 0.874999
vt 0.081272 0.837433
vt 0.081272 0.916604
vt 0.058332 0.943365
vt 0.135082 0.916624
vt 0.119748 0.954196
vt 0.19778 0.954224
vt 0.165577 0.916635
vt 0.055983 0.658395
vt 0.049068 0.729845
vt 0.049068 0.874999
vt 0.055969 0.946443
vt 0.119748 0.954196
vt 0.119898 0.651095
vt 0.19778 0.954224
vt 0.19778 0.651626
vt 0.165577 0.688985
vt 0.119898 0.651095
vt 0.19778 0.651626
vt 0.135102 0.688777
vt 0.081272 0.68841
vt 0.05835 0.661506
vt 0.081272 0.767643
vt 0.049068 0.729845
vt 0.049068 0.874999
vt 0.081272 0.837433
vt 0.081272 0.916604
vt 0.058332 0.943365
vt 0.135082 0.916624
vt 0.119748 0.954196
vt 0.19778 0.954224
vt 0.165577 0.916635
vt 0.19778 0.954224
vt 0.119748 0.954196
vt 0.119748 0.954196
vt 0.055969 0.946443
vt 0.19778 0.954224
vt 0.058332 0.943365
vt 0.119748 0.954196
vt 0.119748 0.954196
vt 0.055969 0.946443
vt 0.058332 0.943365
vt 0.049068 0.874999
vt 0.049068 0.874999
vt 0.049068 0.874999
vt 0.049068 0.874999
vt 0.049068 0.729845
vt 0.049068 0.729845
vt 0.055983 0.658395
vt 0.05835 0.661506
vt 0.049068 0.729845
vt 0.049068 0.729845
vt 0.055983 0.658395
vt 0.05835 0.661506
vt 0.119898 0.651095
vt 0.119898 0.651095
vt 0.119898 0.651095
vt 0.119898 0.651095
vt 0.19778 0.651626
vt 0.19778 0.651626
vt 0.281725 0.687876
vt 0.23227 0.687876
vt 0.23227 0.743517
vt 0.281725 0.743517
vt 0.113144 0.807872
vt 0.137113 0.808016
vt 0.113144 0.807872
vt 0.137113 0.808016
vt 0.113144 0.807872
vt 0.113144 0.807872
vt 0.137113 0.829534
vt 0.072634 0.823805
vt 0.072634 0.823805
vt 0.128865 0.829429
vt 0.055854 0.86263
vt 0.055854 0.86263
vt 0.055854 0.911086
vt 0.128847 0.944496
vt 0.137113 0.944501
vt 0.137113 0.966077
vt 0.094693 0.841018
vt 0.055854 0.911086
vt 0.080539 0.869257
vt 0.094688 0.932778
vt 0.113123 0.966069
vt 0.072628 0.94996
vt 0.072628 0.94996
vt 0.113123 0.966069
vt 0.137113 0.966077
vt 0.113123 0.966069
vt 0.113123 0.966069
vt 0.072628 0.94996
vt 0.080539 0.904503
vt 0.072628 0.94996
vt 0.055854 0.911086
vt 0.094688 0.932778
vt 0.128847 0.944496
vt 0.137113 0.966077
vt 0.137113 0.944501
vt 0.128865 0.829429
vt 0.137113 0.829534
vt 0.094693 0.841018
vt 0.113144 0.807872
vt 0.137113 0.808016
vt 0.072634 0.823805
vt 0.072634 0.823805
vt 0.055854 0.86263
vt 0.055854 0.86263
vt 0.080539 0.869257
vt 0.055854 0.911086
vt 0.080539 0.904503
vn 0 0 -1
vn 0 0 -1
vn 0 0 -1
vn 0 0 -1
vn 0 0 -1
vn 0 0 -1
vn 0 0 -1
vn 0 0 -1
vn 0 0 1
vn 0 0 1
vn 0 0 1
vn 0 0 1
vn 0 0 1
vn 0 0 1
vn 0 0 1
vn 0 0 1
vn 0 0 1
vn 0 0 1
vn 0 0 1
vn 0 0 1
vn 0 0 1
vn 0 0 1
vn 0 0 1
vn 0 0 1
vn 0 0 -1
vn 0 0 -1
vn 0 0 -1
vn 0 0 -1
vn 0 0 -1
vn 0 0 -1
vn 0 0 -1
vn 0 0 -1
vn 0 0 1
vn 0 0 1
vn 0 0 1
vn 0 0 1
vn 0 0 1
vn 0 0 1
vn 0 0 1
vn 0 0 1
vn 0 0 1
vn 0 0 1
vn 0 0 1
vn 0 0 1
vn 0 0 1
vn 0 0 1
vn 0 0 1
vn 0 0 1
vn 0 1 0
vn -0.1669993 0.985957 0
vn -0.1669993 0.985957 0
vn -0.6926305 0.7212926 0
vn 0 1 0
vn -0.6926305 0.7212926 0
vn 0.1669993 0.985957 0
vn 0.1669993 0.985957 0
vn 0.6926305 0.7212926 0
vn 0.6926305 0.7212926 0
vn -0.9928657 0.1192378 0
vn -0.9928657 0.1192378 0
vn 0.9928657 0.1192378 0
vn 0.9928657 0.1192378 0
vn -0.9928284 -0.1195479 0
vn -0.9928284 -0.1195479 0
vn -0.6898262 -0.723975 0
vn -0.6898262 -0.723975 0
vn 0.9928284 -0.1195479 0
vn 0.9928284 -0.1195479 0
vn 0.6898262 -0.723975 0
vn 0.6898262 -0.723975 0
vn -0.1607501 -0.9869952 0
vn -0.1607501 -0.9869952 0
vn 0.1607501 -0.9869952 0
vn 0.1607501 -0.9869952 0
vn 0 -1 0
vn 0 -1 0
vn 0 0 1
vn 0 0 1
vn 0 0 1
vn 0 0 1
vn 0.23784 -0.9713044 0
vn 0 -0.9915162 0.1299832
vn 0.2412049 -0.9546598 0.1744848
vn 0 -1 0
vn -0.23784 -0.9713044 0
vn -0.2412049 -0.9546598 0.1744848
vn 0 -0.4486287 0.8937182
vn -0.6799228 -0.7115172 0.1773365
vn -0.6909525 -0.7229 0
vn -0.08373713 -0.3782733 0.9218988
vn -0.965767 -0.1890103 0.1776769
vn -0.9820173 -0.1887908 0
vn -0.9820495 0.1886232 0
vn -0.09135573 0.401509 0.9112872
vn 0 0.4506259 0.8927129
vn 0 0.9914684 0.1303472
vn -0.2649968 -0.3144573 0.9115334
vn -0.9658114 0.1888175 0.1776409
vn -0.5464399 -0.1106226 0.8301603
vn -0.2887512 0.3408929 0.8946591
vn -0.2456664 0.9534834 0.1746922
vn -0.6814507 0.7100386 0.1773984
vn -0.6925726 0.7213483 0
vn -0.2424822 0.9701559 0
vn 0 1 0
vn 0.2456664 0.9534834 0.1746921
vn 0.2424822 0.9701559 0
vn 0.6925726 0.7213483 0
vn -0.6265901 0.1268118 0.7689628
vn 0.6814507 0.7100386 0.1773984
vn 0.9820495 0.1886232 0
vn 0.2887512 0.3408929 0.8946591
vn 0.09134495 0.4014616 0.9113094
vn 0 0.9914684 0.1303472
vn 0 0.4506259 0.8927129
vn 0.08374446 -0.3783064 0.9218845
vn 0 -0.4486287 0.8937182
vn 0.2649968 -0.3144573 0.9115334
vn 0.2412049 -0.9546598 0.1744848
vn 0 -0.9915162 0.1299832
vn 0.6799228 -0.7115172 0.1773365
vn 0.6909525 -0.7229 0
vn 0.965767 -0.1890103 0.1776769
vn 0.9820173 -0.1887908 0
vn 0.5464399 -0.1106226 0.8301603
vn 0.9658114 0.1888175 0.1776409
vn 0.6265901 0.1268118 0.7689628
g TractorHoePlantOff_0
f 3/3/3 2/2/2 1/1/1
f 1/1/1 4/4/4 3/3/3
f 1/1/1 5/5/5 4/4/4
f 5/5/5 6/6/6 4/4/4
f 5/5/5 7/7/7 6/6/6
f 7/7/7 8/8/8 6/6/6
f 11/11/11 10/10/10 9/9/9
f 12/12/12 11/11/11 9/9/9
f 12/12/12 13/13/13 11/11/11
f 13/13/13 14/14/14 11/11/11
f 13/13/13 15/15/15 14/14/14
f 15/15/15 16/16/16 14/14/14
f 17/17/17 16/16/16 15/15/15
f 18/18/18 17/17/17 15/15/15
f 17/17/17 18/18/18 19/19/19
f 20/20/20 17/17/17 19/19/19
f 20/20/20 19/19/19 21/21/21
f 22/22/22 20/20/20 21/21/21
f 23/23/23 22/22/22 21/21/21
f 24/24/24 23/23/23 21/21/21
f 27/27/27 26/26/26 25/25/25
f 25/25/25 28/28/28 27/27/27
f 25/25/25 29/29/29 28/28/28
f 25/25/25 30/30/30 29/29/29
f 30/30/30 31/31/31 29/29/29
f 30/30/30 32/32/32 31/31/31
f 35/35/35 34/34/34 33/33/33
f 34/34/34 36/36/36 33/33/33
f 37/37/37 36/36/36 34/34/34
f 38/38/38 37/37/37 34/34/34
f 39/39/39 37/37/37 38/38/38
f 40/40/40 39/39/39 38/38/38
f 40/40/40 41/41/41 39/39/39
f 41/41/41 42/42/42 39/39/39
f 42/42/42 41/41/41 43/43/43
f 41/41/41 44/44/44 43/43/43
f 43/43/43 44/44/44 45/45/45
f 44/44/44 46/46/46 45/45/45
f 46/46/46 47/47/47 45/45/45
f 47/47/47 48/48/48 45/45/45
f 51/51/51 50/50/50 49/49/49
f 50/50/50 51/51/51 52/52/52
f 50/50/50 53/53/53 49/49/49
f 54/54/54 50/50/50 52/52/52
f 53/53/53 55/55/55 49/49/49
f 55/55/55 56/56/56 49/49/49
f 56/56/56 55/55/55 57/57/57
f 55/55/55 58/58/58 57/57/57
f 54/54/54 52/52/52 59/59/59
f 60/60/60 54/54/54 59/59/59
f 57/57/57 58/58/58 61/61/61
f 58/58/58 62/62/62 61/61/61
f 63/63/63 60/60/60 59/59/59
f 64/64/64 63/63/63 59/59/59
f 64/64/64 65/65/65 63/63/63
f 65/65/65 66/66/66 63/63/63
f 62/62/62 67/67/67 61/61/61
f 67/67/67 68/68/68 61/61/61
f 69/69/69 68/68/68 67/67/67
f 70/70/70 69/69/69 67/67/67
f 65/65/65 71/71/71 66/66/66
f 71/71/71 72/72/72 66/66/66
f 73/73/73 69/69/69 70/70/70
f 74/74/74 73/73/73 70/70/70
f 75/75/75 72/72/72 71/71/71
f 74/74/74 75/75/75 73/73/73
f 76/76/76 75/75/75 71/71/71
f 75/75/75 76/76/76 73/73/73
g TractorHoePlantOff_1
f 79/79/79 78/78/78 77/77/77
f 80/80/80 79/79/79 77/77/77
f 83/83/83 82/82/82 81/81/81
f 82/82/82 84/84/84 81/81/81
f 84/84/84 82/82/82 85/85/85
f 82/82/82 86/86/86 85/85/85
f 82/82/82 87/87/87 86/86/86
f 86/86/86 88/88/88 85/85/85
f 88/88/88 89/89/89 85/85/85
f 87/87/87 90/90/90 86/86/86
f 86/86/86 90/90/90 88/88/88
f 88/88/88 91/91/91 89/89/89
f 91/91/91 92/92/92 89/89/89
f 92/92/92 91/91/91 93/93/93
f 94/94/94 90/90/90 87/87/87
f 87/87/87 95/95/95 94/94/94
f 94/94/94 95/95/95 96/96/96
f 90/90/90 97/97/97 88/88/88
f 88/88/88 97/97/97 91/91/91
f 94/94/94 97/97/97 90/90/90
f 91/91/91 98/98/98 93/93/93
f 97/97/97 99/99/99 91/91/91
f 91/91/91 99/99/99 98/98/98
f 94/94/94 100/100/100 97/97/97
f 100/100/100 99/99/99 97/97/97
f 101/101/101 94/94/94 96/96/96
f 100/100/100 94/94/94 101/101/101
f 93/93/93 98/98/98 102/102/102
f 102/102/102 100/100/100 101/101/101
f 103/103/103 93/93/93 102/102/102
f 103/103/103 102/102/102 101/101/101
f 104/104/104 103/103/103 101/101/101
f 104/104/104 101/101/101 105/105/105
f 101/101/101 96/96/96 105/105/105
f 96/96/96 106/106/106 105/105/105
f 106/106/106 107/107/107 105/105/105
f 108/108/108 107/107/107 106/106/106
f 100/100/100 109/109/109 99/99/99
f 99/99/99 109/109/109 98/98/98
f 109/109/109 100/100/100 102/102/102
f 98/98/98 109/109/109 102/102/102
f 110/110/110 108/108/108 106/106/106
f 111/111/111 108/108/108 110/110/110
f 112/112/112 110/110/110 106/106/106
f 113/113/113 112/112/112 106/106/106
f 113/113/113 106/106/106 114/114/114
f 115/115/115 113/113/113 114/114/114
f 113/113/113 115/115/115 116/116/116
f 115/115/115 117/117/117 116/116/116
f 112/112/112 113/113/113 118/118/118
f 113/113/113 116/116/116 118/118/118
f 116/116/116 117/117/117 119/119/119
f 117/117/117 120/120/120 119/119/119
f 116/116/116 119/119/119 121/121/121
f 118/118/118 116/116/116 121/121/121
f 121/121/121 119/119/119 81/81/81
f 122/122/122 121/121/121 81/81/81
f 123/123/123 121/121/121 122/122/122
f 118/118/118 121/121/121 123/123/123
f 124/124/124 123/123/123 122/122/122
f 123/123/123 124/124/124 111/111/111
f 112/112/112 118/118/118 125/125/125
f 125/125/125 118/118/118 123/123/123
f 126/126/126 123/123/123 111/111/111
f 125/125/125 123/123/123 126/126/126
f 126/126/126 111/111/111 110/110/110
f 125/125/125 127/127/127 112/112/112
f 112/112/112 127/127/127 110/110/110
f 127/127/127 125/125/125 126/126/126
f 127/127/127 126/126/126 110/110/110
