g TreeFern
v 0.145579 -0.036088 0.621409
v 0.145332 -0.027753 0.250637
v 0.114734 -0.119195 0.252256
v 0.115711 -0.12578 0.623206
v 0.026053 -0.155664 0.623309
v 0.093908 -0.10767 0.88034
v 0.028002 -0.132712 0.970667
v -0.038927 -0.107644 0.879511
v 0.023523 -0.149652 0.252289
v 0.021148 -0.150141 0.067281
v 0.117858 -0.118215 0.067423
v 0.123033 -0.120038 -0.02435
v 0.018849 -0.153881 -0.024721
v -0.085444 -0.118798 -0.025407
v -0.075625 -0.117705 0.066319
v -0.067714 -0.11917 0.251125
v -0.063618 -0.12575 0.622089
v -0.093527 -0.036049 0.619919
v -0.061679 -0.042997 0.968124
v -0.098392 -0.027795 0.249155
v -0.068139 0.06359 0.247555
v -0.063659 0.053643 0.618121
v 0.145579 -0.036088 0.621409
v 0.115711 -0.12578 0.623206
v 0.093908 -0.10767 0.88034
v 0.117647 -0.043035 0.969242
v 0.028637 -0.045332 1.08469
v 0.028002 -0.132712 0.970667
v -0.038927 -0.107644 0.879511
v -0.061679 -0.042997 0.968124
v -0.038955 0.02524 0.876573
v 0.09388 0.025214 0.877401
v 0.027966 0.046681 0.9667
v 0.025999 0.083527 0.618019
v -0.063659 0.053643 0.618121
v -0.068139 0.06359 0.247555
v 0.11567 0.053613 0.619239
v 0.114999 0.063678 0.248647
v 0.145332 -0.027753 0.250637
v 0.149807 -0.02129 0.066372
v 0.114734 -0.119195 0.252256
v 0.117858 -0.118215 0.067423
v 0.123033 -0.120038 -0.02435
v 0.156644 -0.015763 -0.02464
v 0.121248 0.088378 -0.025285
v 0.117364 0.075571 0.064956
v 0.020898 0.107306 0.064006
v 0.018412 0.121821 -0.025981
v -0.084315 0.086339 -0.026363
v 0.023416 0.094104 0.247503
v -0.075506 0.074679 0.063875
v -0.107761 -0.021545 0.064915
v -0.098392 -0.027795 0.249155
v -0.119382 -0.016297 -0.026063
v -0.085444 -0.118798 -0.025407
v -0.075625 -0.117705 0.066319
v -0.093527 -0.036049 0.619919
v -0.063659 0.053643 0.618121
v -0.038955 0.02524 0.876573
v -0.061679 -0.042997 0.968124
v -0.107761 -0.021545 0.064915
v -0.098392 -0.027795 0.249155
v -0.067714 -0.11917 0.251125
v -0.075625 -0.117705 0.066319
vt 0.557633 0.418968
vt 0.557529 0.262677
vt 0.557406 0.263694
vt 0.557645 0.420083
vt 0.50725 0.419769
vt 0.559098 0.615668
vt 0.508349 0.615368
vt 0.470374 0.614861
vt 0.506184 0.263374
vt 0.505182 0.185388
vt 0.559598 0.1857
vt 0.563004 0.146902
vt 0.504213 0.146607
vt 0.445423 0.146311
vt 0.450767 0.185076
vt 0.454683 0.213875
vt 0.469451 0.419254
vt 0.456844 0.418339
vt 0.457946 0.613939
vt 0.455742 0.22274
vt 0.455374 0.22164
vt 0.456833 0.417225
vt 0.557633 0.418968
vt 0.557645 0.420083
vt 0.546047 0.566697
vt 0.54586 0.565589
vt 0.508339 0.614253
vt 0.508349 0.615368
vt 0.4576 0.615068
vt 0.457946 0.613939
vt 0.457841 0.564196
vt 0.535841 0.526875
vt 0.508057 0.564517
vt 0.507227 0.417539
vt 0.456833 0.417225
vt 0.455831 0.270811
vt 0.545026 0.418053
vt 0.544743 0.261839
vt 0.557529 0.262677
vt 0.559416 0.185005
vt 0.557406 0.263694
vt 0.559598 0.1857
vt 0.563004 0.146902
vt 0.562297 0.146641
vt 0.547377 0.146369
vt 0.54574 0.184408
vt 0.505077 0.184008
vt 0.504029 0.146076
vt 0.460727 0.145915
vt 0.506139 0.261356
vt 0.46444 0.183952
vt 0.450844 0.184391
vt 0.455742 0.22274
vt 0.445945 0.146041
vt 0.445423 0.146311
vt 0.450767 0.185076
vt 0.456844 0.418339
vt 0.456833 0.417225
vt 0.458292 0.612809
vt 0.457946 0.613939
vt 0.450844 0.184391
vt 0.455742 0.22274
vt 0.456111 0.223841
vt 0.450767 0.185076
vn 0.9992402 -0.0006649779 0.03897081
vn 0.9999673 0.001503403 0.007939772
vn 0.7080661 -0.7061108 -0.007066716
vn 0.7061653 -0.7075154 0.02743174
vn 8.230512E-05 -0.9997056 0.02426005
vn 0.7017606 -0.7009952 0.1270344
vn -0.002150249 -0.9338805 0.3575788
vn -0.7013588 -0.7000176 0.1344295
vn -0.0009246699 -0.9999522 -0.009742441
vn -0.00277148 -0.9998596 0.01652729
vn 0.7074365 -0.7064319 0.02208042
vn 0.7111686 -0.7012068 0.05047996
vn -0.01047114 -0.9990621 0.04201565
vn -0.7177652 -0.6911126 0.08471479
vn -0.7061732 -0.7065993 0.04513126
vn -0.7081502 -0.7060415 0.005344888
vn -0.7051439 -0.7081446 0.03610039
vn -0.9986764 -0.0009556441 0.05142579
vn -0.9273482 0.007199845 0.3741303
vn -0.9996632 0.0009517831 0.02593068
vn -0.7056123 0.7072923 0.04299795
vn -0.7062982 0.7048692 0.06559107
vn 0.9992402 -0.0006649779 0.03897081
vn 0.7061653 -0.7075154 0.02743174
vn 0.7017606 -0.7009952 0.1270344
vn 0.9302217 0.007394481 0.3669236
vn -0.00145857 0.00517004 0.9999856
vn -0.002150249 -0.9338805 0.3575788
vn -0.7013588 -0.7000176 0.1344295
vn -0.9273482 0.007199845 0.3741303
vn -0.697539 0.6983463 0.1604735
vn 0.6980299 0.6994957 0.1531667
vn -0.001964698 0.9236817 0.3831554
vn 0 0.9978127 0.06610277
vn -0.7062982 0.7048692 0.06559107
vn -0.7056123 0.7072923 0.04299795
vn 0.7072514 0.7046705 0.05687573
vn 0.7050242 0.7085257 0.03053195
vn 0.9999673 0.001503403 0.007939772
vn 0.9990921 0.003162124 0.04248579
vn 0.7080661 -0.7061108 -0.007066716
vn 0.7074365 -0.7064319 0.02208042
vn 0.7111686 -0.7012068 0.05047996
vn 0.9969021 0.01784039 0.07660315
vn 0.6840844 0.7174618 0.1314425
vn 0.7030596 0.7064353 0.08158748
vn -0.005087402 0.9947175 0.1025244
vn -0.01445595 0.9872558 0.1584833
vn -0.6946341 0.7008819 0.1620118
vn -0.001623653 0.9990529 0.0434809
vn -0.7032996 0.7031417 0.1046963
vn -0.997015 0.00189329 0.07718556
vn -0.9996632 0.0009517831 0.02593068
vn -0.991827 0.01536953 0.1266609
vn -0.7177652 -0.6911126 0.08471479
vn -0.7061732 -0.7065993 0.04513126
vn -0.9986764 -0.0009556441 0.05142579
vn -0.7062982 0.7048692 0.06559107
vn -0.697539 0.6983463 0.1604735
vn -0.9273482 0.007199845 0.3741303
vn -0.997015 0.00189329 0.07718556
vn -0.9996632 0.0009517831 0.02593068
vn -0.7081502 -0.7060415 0.005344888
vn -0.7061732 -0.7065993 0.04513126
g TreeFern_0
f 3/3/3 2/2/2 1/1/1
f 4/4/4 3/3/3 1/1/1
f 3/3/3 4/4/4 5/5/5
f 4/4/4 6/6/6 5/5/5
f 6/6/6 7/7/7 5/5/5
f 7/7/7 8/8/8 5/5/5
f 9/9/9 3/3/3 5/5/5
f 3/3/3 9/9/9 10/10/10
f 11/11/11 3/3/3 10/10/10
f 12/12/12 11/11/11 10/10/10
f 13/13/13 12/12/12 10/10/10
f 14/14/14 13/13/13 10/10/10
f 15/15/15 14/14/14 10/10/10
f 16/16/16 15/15/15 10/10/10
f 9/9/9 16/16/16 10/10/10
f 16/16/16 9/9/9 5/5/5
f 8/8/8 17/17/17 5/5/5
f 17/17/17 16/16/16 5/5/5
f 17/17/17 8/8/8 18/18/18
f 16/16/16 17/17/17 18/18/18
f 8/8/8 19/19/19 18/18/18
f 20/20/20 16/16/16 18/18/18
f 21/21/21 20/20/20 18/18/18
f 22/22/22 21/21/21 18/18/18
f 25/25/25 24/24/24 23/23/23
f 26/26/26 25/25/25 23/23/23
f 25/25/25 26/26/26 27/27/27
f 28/28/28 25/25/25 27/27/27
f 29/29/29 28/28/28 27/27/27
f 30/30/30 29/29/29 27/27/27
f 31/31/31 30/30/30 27/27/27
f 26/26/26 32/32/32 27/27/27
f 32/32/32 26/26/26 23/23/23
f 33/33/33 31/31/31 27/27/27
f 32/32/32 33/33/33 27/27/27
f 31/31/31 33/33/33 34/34/34
f 33/33/33 32/32/32 34/34/34
f 35/35/35 31/31/31 34/34/34
f 36/36/36 35/35/35 34/34/34
f 37/37/37 32/32/32 23/23/23
f 32/32/32 37/37/37 34/34/34
f 38/38/38 37/37/37 23/23/23
f 37/37/37 38/38/38 34/34/34
f 39/39/39 38/38/38 23/23/23
f 38/38/38 39/39/39 40/40/40
f 39/39/39 41/41/41 40/40/40
f 41/41/41 42/42/42 40/40/40
f 42/42/42 43/43/43 40/40/40
f 43/43/43 44/44/44 40/40/40
f 44/44/44 45/45/45 40/40/40
f 45/45/45 46/46/46 40/40/40
f 46/46/46 38/38/38 40/40/40
f 46/46/46 45/45/45 47/47/47
f 38/38/38 46/46/46 47/47/47
f 45/45/45 48/48/48 47/47/47
f 48/48/48 49/49/49 47/47/47
f 38/38/38 50/50/50 34/34/34
f 50/50/50 38/38/38 47/47/47
f 50/50/50 36/36/36 34/34/34
f 36/36/36 50/50/50 47/47/47
f 49/49/49 51/51/51 47/47/47
f 51/51/51 36/36/36 47/47/47
f 51/51/51 49/49/49 52/52/52
f 36/36/36 51/51/51 52/52/52
f 53/53/53 36/36/36 52/52/52
f 49/49/49 54/54/54 52/52/52
f 54/54/54 55/55/55 52/52/52
f 55/55/55 56/56/56 52/52/52
f 59/59/59 58/58/58 57/57/57
f 60/60/60 59/59/59 57/57/57
f 63/63/63 62/62/62 61/61/61
f 64/64/64 63/63/63 61/61/61
