g TriangleSunglasses
v -0.32271 -0.014788 0.377577
v -0.297553 0.087411 0.303192
v -0.312904 0.0901 0.303192
v -0.305742 -0.391163 0.38889
v -0.292694 -0.394052 0.388787
v -0.323732 -0.015382 0.377959
v 0.32271 -0.014788 0.377577
v 0.312904 0.0901 0.303192
v 0.297553 0.087411 0.303192
v 0.305742 -0.391163 0.38889
v 0.323732 -0.015382 0.377959
v 0.292694 -0.394052 0.388787
v -0.327776 -0.018352 0.406099
v -0.312904 0.0901 0.303192
v -0.311202 0.086458 0.333846
v -0.32271 -0.014788 0.377577
v -0.3059 -0.391275 0.418846
v -0.305742 -0.391163 0.38889
v -0.32271 -0.014788 0.377577
v -0.323732 -0.015382 0.377959
v -0.297553 0.087411 0.303192
v -0.305742 -0.391163 0.38889
v -0.31922 -0.020619 0.405979
v -0.311202 0.086458 0.333846
v -0.300392 0.084565 0.333846
v -0.327776 -0.018352 0.406099
v -0.288558 -0.394216 0.418957
v -0.3059 -0.391275 0.418846
v -0.300392 0.084565 0.333846
v -0.297553 0.087411 0.303192
v -0.323732 -0.015382 0.377959
v -0.31922 -0.020619 0.405979
v -0.292694 -0.394052 0.388787
v -0.288558 -0.394216 0.418957
v -0.365519 -0.392651 0.480168
v -0.365519 -0.405763 0.480168
v 0 -0.397444 0.376321
v 0 -0.384331 0.376321
v 0.365519 -0.392651 0.480168
v 0.365519 -0.405763 0.480168
v 0 -0.384041 0.394186
v -0.37114 -0.405763 0.502349
v -0.37114 -0.39236 0.502349
v 0 -0.397444 0.394186
v 0.37114 -0.405763 0.502349
v 0.37114 -0.39236 0.502349
v -0.365519 -0.405763 0.480168
v -0.37114 -0.405763 0.502349
v 0 -0.397444 0.394186
v 0 -0.397444 0.376321
v 0.365519 -0.405763 0.480168
v 0.37114 -0.405763 0.502349
v -0.365519 -0.392651 0.480168
v 0 -0.384041 0.394186
v -0.37114 -0.39236 0.502349
v 0 -0.384331 0.376321
v 0.365519 -0.392651 0.480168
v 0.37114 -0.39236 0.502349
v -0.365519 -0.405763 0.480168
v -0.365519 -0.392651 0.480168
v -0.37114 -0.39236 0.502349
v -0.37114 -0.405763 0.502349
v 0.327776 -0.018352 0.406099
v 0.311202 0.086458 0.333846
v 0.312904 0.0901 0.303192
v 0.32271 -0.014788 0.377577
v 0.3059 -0.391275 0.418846
v 0.305742 -0.391163 0.38889
v 0.32271 -0.014788 0.377577
v 0.297553 0.087411 0.303192
v 0.323732 -0.015382 0.377959
v 0.305742 -0.391163 0.38889
v 0.31922 -0.020619 0.405979
v 0.300392 0.084565 0.333846
v 0.311202 0.086458 0.333846
v 0.327776 -0.018352 0.406099
v 0.288558 -0.394216 0.418957
v 0.3059 -0.391275 0.418846
v 0.300392 0.084565 0.333846
v 0.323732 -0.015382 0.377959
v 0.297553 0.087411 0.303192
v 0.31922 -0.020619 0.405979
v 0.292694 -0.394052 0.388787
v 0.288558 -0.394216 0.418957
v 0.365519 -0.405763 0.480168
v 0.37114 -0.405763 0.502349
v 0.37114 -0.39236 0.502349
v 0.365519 -0.392651 0.480168
v -0.054531 -0.395008 0.248492
v 0 -0.390848 0.381719
v 0 -0.390848 0.295848
v -0.081393 -0.395008 0.403355
v -0.187339 -0.399167 0.244059
v -0.366895 -0.399167 0.489881
v -0.054531 -0.395008 0.248492
v 0 -0.390848 0.295848
v 0 -0.390848 0.381719
v -0.081393 -0.395008 0.403355
v -0.187339 -0.399167 0.244059
v -0.366895 -0.399167 0.489881
v 0.054531 -0.395008 0.248492
v 0 -0.390848 0.295848
v 0 -0.390848 0.381719
v 0.081393 -0.395008 0.403355
v 0.187339 -0.399167 0.244059
v 0.366895 -0.399167 0.489881
v 0.054531 -0.395008 0.248492
v 0 -0.390848 0.381719
v 0 -0.390848 0.295848
v 0.081393 -0.395008 0.403355
v 0.187339 -0.399167 0.244059
v 0.366895 -0.399167 0.489881
vt 0 0
vt 0 0
vt 0 0
vt 0 0
vt 0 0
vt 0 0
vt 0 0
vt 0 0
vt 0 0
vt 0 0
vt 0 0
vt 0 0
vt 0 0
vt 0 0
vt 0 0
vt 0 0
vt 0 0
vt 0 0
vt 0 0
vt 0 0
vt 0 0
vt 0 0
vt 0 0
vt 0 0
vt 0 0
vt 0 0
vt 0 0
vt 0 0
vt 0 0
vt 0 0
vt 0 0
vt 0 0
vt 0 0
vt 0 0
vt 0 0
vt 0 0
vt 0 0
vt 0 0
vt 0 0
vt 0 0
vt 0 0
vt 0 0
vt 0 0
vt 0 0
vt 0 0
vt 0 0
vt 0 0
vt 0 0
vt 0 0
vt 0 0
vt 0 0
vt 0 0
vt 0 0
vt 0 0
vt 0 0
vt 0 0
vt 0 0
vt 0 0
vt 0 0
vt 0 0
vt 0 0
vt 0 0
vt 0 0
vt 0 0
vt 0 0
vt 0 0
vt 0 0
vt 0 0
vt 0 0
vt 0 0
vt 0 0
vt 0 0
vt 0 0
vt 0 0
vt 0 0
vt 0 0
vt 0 0
vt 0 0
vt 0 0
vt 0 0
vt 0 0
vt 0 0
vt 0 0
vt 0 0
vt 0 0
vt 0 0
vt 0 0
vt 0 0
vt 8.1E-05 0.250674
vt 0.656014 0.159269
vt 0.506212 8.1E-05
vt 0.542674 0.341554
vt 8.1E-05 0.765599
vt 0.164034 0.999919
vt 8.1E-05 0.250674
vt 0.506212 8.1E-05
vt 0.656014 0.159269
vt 0.542674 0.341554
vt 8.1E-05 0.765599
vt 0.164034 0.999919
vt 8.1E-05 0.250674
vt 0.506212 8.1E-05
vt 0.656014 0.159269
vt 0.542674 0.341554
vt 8.1E-05 0.765599
vt 0.164034 0.999919
vt 8.1E-05 0.250674
vt 0.656014 0.159269
vt 0.506212 8.1E-05
vt 0.542674 0.341554
vt 8.1E-05 0.765599
vt 0.164034 0.999919
vn -0.7158482 -0.1914232 -0.6715046
vn 0.5805803 -0.5556865 -0.5950958
vn -0.7464486 -0.3207621 -0.5830319
vn -0.6666611 -0.05640967 -0.7432232
vn 0.6602243 0.03175064 -0.7503971
vn 0.6523252 -0.2709224 -0.7078651
vn 0.7158482 -0.1914232 -0.6715046
vn 0.7464485 -0.3207621 -0.583032
vn -0.5805804 -0.5556865 -0.5950958
vn 0.6666611 -0.05640966 -0.7432232
vn -0.6523252 -0.2709224 -0.7078651
vn -0.6602241 0.03175063 -0.7503971
vn -0.7182984 0.2404378 0.6528684
vn -0.7464486 -0.3207621 -0.5830319
vn -0.6527524 0.4804928 0.5856969
vn -0.7158482 -0.1914232 -0.6715046
vn -0.7361502 -0.01458106 0.6766611
vn -0.6666611 -0.05640967 -0.7432232
vn -0.7158482 -0.1914232 -0.6715046
vn 0.6523252 -0.2709224 -0.7078651
vn 0.5805803 -0.5556865 -0.5950958
vn -0.6666611 -0.05640967 -0.7432232
vn 0.7793242 0.1521464 0.6078693
vn -0.6527524 0.4804928 0.5856969
vn 0.7987093 0.2165992 0.5613807
vn -0.7182984 0.2404378 0.6528684
vn 0.7538312 0.0845154 0.6516101
vn -0.7361502 -0.01458106 0.6766611
vn 0.7987093 0.2165992 0.5613807
vn 0.5805803 -0.5556865 -0.5950958
vn 0.6523252 -0.2709224 -0.7078651
vn 0.7793242 0.1521464 0.6078693
vn 0.6602243 0.03175064 -0.7503971
vn 0.7538312 0.0845154 0.6516101
vn -0.6262332 0.4926183 -0.604284
vn -0.614498 -0.5039077 -0.6070168
vn 0 -0.7217842 -0.6921182
vn 0 0.7138951 -0.7002527
vn 0.6262331 0.4926183 -0.604284
vn 0.614498 -0.5039077 -0.6070168
vn 0 0.7278376 0.6857496
vn -0.4759635 -0.7144218 0.5128939
vn -0.5075569 0.7070635 0.4923892
vn 0 -0.7200785 0.6938927
vn 0.4759635 -0.7144219 0.5128939
vn 0.5075569 0.7070635 0.4923892
vn -0.614498 -0.5039077 -0.6070168
vn -0.4759635 -0.7144218 0.5128939
vn 0 -0.7200785 0.6938927
vn 0 -0.7217842 -0.6921182
vn 0.614498 -0.5039077 -0.6070168
vn 0.4759635 -0.7144219 0.5128939
vn -0.6262332 0.4926183 -0.604284
vn 0 0.7278376 0.6857496
vn -0.5075569 0.7070635 0.4923892
vn 0 0.7138951 -0.7002527
vn 0.6262331 0.4926183 -0.604284
vn 0.5075569 0.7070635 0.4923892
vn -0.614498 -0.5039077 -0.6070168
vn -0.6262332 0.4926183 -0.604284
vn -0.5075569 0.7070635 0.4923892
vn -0.4759635 -0.7144218 0.5128939
vn 0.7182984 0.2404377 0.6528684
vn 0.6527525 0.4804928 0.5856969
vn 0.7464485 -0.3207621 -0.583032
vn 0.7158482 -0.1914232 -0.6715046
vn 0.7361502 -0.01458104 0.6766611
vn 0.6666611 -0.05640966 -0.7432232
vn 0.7158482 -0.1914232 -0.6715046
vn -0.5805804 -0.5556865 -0.5950958
vn -0.6523252 -0.2709224 -0.7078651
vn 0.6666611 -0.05640966 -0.7432232
vn -0.7793242 0.1521464 0.6078693
vn -0.7987093 0.2165992 0.5613806
vn 0.6527525 0.4804928 0.5856969
vn 0.7182984 0.2404377 0.6528684
vn -0.7538311 0.08451539 0.6516101
vn 0.7361502 -0.01458104 0.6766611
vn -0.7987093 0.2165992 0.5613806
vn -0.6523252 -0.2709224 -0.7078651
vn -0.5805804 -0.5556865 -0.5950958
vn -0.7793242 0.1521464 0.6078693
vn -0.6602241 0.03175063 -0.7503971
vn -0.7538311 0.08451539 0.6516101
vn 0.614498 -0.5039077 -0.6070168
vn 0.4759635 -0.7144219 0.5128939
vn 0.5075569 0.7070635 0.4923892
vn 0.6262331 0.4926183 -0.604284
vn 0.04098264 -0.999119 0.009036262
vn 0.05983604 -0.9981858 0.006676732
vn 0.05983604 -0.9981858 0.006676732
vn 0.04098264 -0.999119 0.009036262
vn 0.02211441 -0.9996905 0.01139252
vn 0.02211441 -0.9996905 0.01139252
vn -0.04098264 0.999119 -0.009036261
vn -0.05983604 0.9981858 -0.006676731
vn -0.05983604 0.9981858 -0.006676731
vn -0.04098264 0.999119 -0.009036261
vn -0.02211441 0.9996905 -0.01139252
vn -0.02211441 0.9996905 -0.01139252
vn -0.04098264 -0.999119 0.009036263
vn -0.05983603 -0.9981858 0.00667673
vn -0.05983603 -0.9981858 0.00667673
vn -0.04098264 -0.999119 0.009036263
vn -0.02211441 -0.9996905 0.01139252
vn -0.02211441 -0.9996905 0.01139252
vn 0.04098265 0.999119 -0.009036263
vn 0.05983604 0.9981858 -0.006676732
vn 0.05983604 0.9981858 -0.006676732
vn 0.04098265 0.999119 -0.009036263
vn 0.02211441 0.9996905 -0.01139252
vn 0.02211441 0.9996905 -0.01139252
g TriangleSunglasses_0
f 3/3/3 2/2/2 1/1/1
f 6/6/6 5/5/5 4/4/4
f 9/9/9 8/8/8 7/7/7
f 12/12/12 11/11/11 10/10/10
f 15/15/15 14/14/14 13/13/13
f 14/14/14 16/16/16 13/13/13
f 13/13/13 16/16/16 17/17/17
f 16/16/16 18/18/18 17/17/17
f 21/21/21 20/20/20 19/19/19
f 19/19/19 20/20/20 22/22/22
f 25/25/25 24/24/24 23/23/23
f 24/24/24 26/26/26 23/23/23
f 23/23/23 26/26/26 27/27/27
f 26/26/26 28/28/28 27/27/27
f 31/31/31 30/30/30 29/29/29
f 32/32/32 31/31/31 29/29/29
f 33/33/33 31/31/31 32/32/32
f 34/34/34 33/33/33 32/32/32
f 37/37/37 36/36/36 35/35/35
f 38/38/38 37/37/37 35/35/35
f 37/37/37 38/38/38 39/39/39
f 40/40/40 37/37/37 39/39/39
f 43/43/43 42/42/42 41/41/41
f 42/42/42 44/44/44 41/41/41
f 44/44/44 45/45/45 41/41/41
f 45/45/45 46/46/46 41/41/41
f 49/49/49 48/48/48 47/47/47
f 50/50/50 49/49/49 47/47/47
f 49/49/49 50/50/50 51/51/51
f 52/52/52 49/49/49 51/51/51
f 55/55/55 54/54/54 53/53/53
f 54/54/54 56/56/56 53/53/53
f 56/56/56 54/54/54 57/57/57
f 54/54/54 58/58/58 57/57/57
f 61/61/61 60/60/60 59/59/59
f 62/62/62 61/61/61 59/59/59
f 65/65/65 64/64/64 63/63/63
f 66/66/66 65/65/65 63/63/63
f 66/66/66 63/63/63 67/67/67
f 68/68/68 66/66/66 67/67/67
f 71/71/71 70/70/70 69/69/69
f 71/71/71 69/69/69 72/72/72
f 75/75/75 74/74/74 73/73/73
f 76/76/76 75/75/75 73/73/73
f 76/76/76 73/73/73 77/77/77
f 78/78/78 76/76/76 77/77/77
f 81/81/81 80/80/80 79/79/79
f 80/80/80 82/82/82 79/79/79
f 80/80/80 83/83/83 82/82/82
f 83/83/83 84/84/84 82/82/82
f 87/87/87 86/86/86 85/85/85
f 88/88/88 87/87/87 85/85/85
g TriangleSunglasses_1
f 91/91/91 90/90/90 89/89/89
f 90/90/90 92/92/92 89/89/89
f 89/89/89 92/92/92 93/93/93
f 92/92/92 94/94/94 93/93/93
f 97/97/97 96/96/96 95/95/95
f 98/98/98 97/97/97 95/95/95
f 98/98/98 95/95/95 99/99/99
f 100/100/100 98/98/98 99/99/99
f 103/103/103 102/102/102 101/101/101
f 104/104/104 103/103/103 101/101/101
f 104/104/104 101/101/101 105/105/105
f 106/106/106 104/104/104 105/105/105
f 109/109/109 108/108/108 107/107/107
f 108/108/108 110/110/110 107/107/107
f 107/107/107 110/110/110 111/111/111
f 110/110/110 112/112/112 111/111/111
