g TuckshopBar_Collider
v -2.338097 -4.069638 -0.059342
v -2.338097 -3.820904 -0.059342
v -2.533539 -3.820904 -0.059342
v -2.533539 -4.069638 -0.059342
v -7.447247 -5.85118 -0.077551
v -7.447247 -3.752234 -0.077551
v -7.447247 -3.752234 1.195256
v -7.447247 -5.85118 1.195256
v -7.447247 -7.962287 -0.077551
v -7.447247 -7.962287 1.195256
v -5.398941 -3.752234 -0.077551
v 0 -3.752234 -0.077551
v 0 -3.752234 1.195256
v -5.398941 -3.752234 1.195256
v -7.447247 -3.752234 -0.077551
v -7.447247 -3.752234 1.195256
v 0 -5.85118 -0.077551
v -5.262749 -5.85118 -0.077551
v -5.262749 -5.85118 1.195256
v 0 -5.85118 1.195256
v -5.262749 -5.85118 -0.077551
v -5.262749 -7.962287 -0.077551
v -5.262749 -7.962287 1.195256
v -5.262749 -5.85118 1.195256
v -5.262749 -7.962287 -0.077551
v -7.447247 -7.962287 -0.077551
v -7.447247 -7.962287 1.195256
v -5.262749 -7.962287 1.195256
v -7.447247 -7.962287 1.195256
v -5.262749 -5.85118 1.195256
v -5.262749 -7.962287 1.195256
v -7.447247 -5.85118 1.195256
v -7.447247 -3.752234 1.195256
v -5.398941 -3.752234 1.195256
v -5.262749 -5.85118 1.195256
v 0 -3.752234 1.195256
v 0 -5.85118 1.195256
v 5.262749 -5.85118 1.195256
v 5.398941 -3.752234 1.195256
v 7.447247 -3.752234 1.195256
v 5.262749 -5.85118 1.195256
v 7.447247 -5.85118 1.195256
v 7.447247 -7.962287 1.195256
v 5.262749 -7.962287 1.195256
v 2.338097 -4.069638 -0.059342
v 2.533539 -4.069638 -0.059342
v 2.533539 -3.820904 -0.059342
v 2.338097 -3.820904 -0.059342
v 7.447247 -5.85118 -0.077551
v 7.447247 -3.752234 1.195256
v 7.447247 -3.752234 -0.077551
v 7.447247 -5.85118 1.195256
v 7.447247 -7.962287 -0.077551
v 7.447247 -7.962287 1.195256
v 5.398941 -3.752234 -0.077551
v 0 -3.752234 1.195256
v 0 -3.752234 -0.077551
v 5.398941 -3.752234 1.195256
v 7.447247 -3.752234 -0.077551
v 7.447247 -3.752234 1.195256
v 0 -5.85118 -0.077551
v 0 -5.85118 1.195256
v 5.262749 -5.85118 1.195256
v 5.262749 -5.85118 -0.077551
v 5.262749 -5.85118 -0.077551
v 5.262749 -5.85118 1.195256
v 5.262749 -7.962287 1.195256
v 5.262749 -7.962287 -0.077551
v 5.262749 -7.962287 -0.077551
v 5.262749 -7.962287 1.195256
v 7.447247 -7.962287 1.195256
v 7.447247 -7.962287 -0.077551
vt 0.361406 0.787666
vt 0.361406 0.787666
vt 0.383066 0.787667
vt 0.383066 0.787667
vt 0.379769 0.579016
vt 0.659214 0.579016
vt 0.659214 0.793969
vt 0.379769 0.793969
vt 0.014915 0.579016
vt 0.014915 0.793969
vt 0.262836 0.579016
vt 1 0.579016
vt 1 0.793969
vt 0.262836 0.793969
vt 0 0.579016
vt 0 0.793969
vt 0.847071 0.579016
vt 0.007444 0.579016
vt 0.007444 0.793969
vt 0.847071 0.793969
vt 0.328194 0.579016
vt 0.007599 0.579016
vt 0.007599 0.793969
vt 0.328194 0.793969
vt 0.339912 0.579016
vt 0.005373 0.579016
vt 0.005373 0.793969
vt 0.339912 0.793969
vt 0.014915 0.793969
vt 0.328194 0.793969
vt 0.007599 0.793969
vt 0.379769 0.793969
vt 0.659214 0.793969
vt 0.262836 0.793969
vt 0.007444 0.793969
vt 1 0.793969
vt 0.847071 0.793969
vt 0.007444 0.793969
vt 0.262836 0.793969
vt 0.659214 0.793969
vt 0.328194 0.793969
vt 0.379769 0.793969
vt 0.014915 0.793969
vt 0.007599 0.793969
vt 0.361406 0.787666
vt 0.383066 0.787667
vt 0.383066 0.787667
vt 0.361406 0.787666
vt 0.379769 0.579016
vt 0.659214 0.793969
vt 0.659214 0.579016
vt 0.379769 0.793969
vt 0.014915 0.579016
vt 0.014915 0.793969
vt 0.262836 0.579016
vt 1 0.793969
vt 1 0.579016
vt 0.262836 0.793969
vt 0 0.579016
vt 0 0.793969
vt 0.847071 0.579016
vt 0.847071 0.793969
vt 0.007444 0.793969
vt 0.007444 0.579016
vt 0.328194 0.579016
vt 0.328194 0.793969
vt 0.007599 0.793969
vt 0.007599 0.579016
vt 0.339912 0.579016
vt 0.339912 0.793969
vt 0.005373 0.793969
vt 0.005373 0.579016
vn 0 0 -1
vn 0 0 -1
vn 0 0 -1
vn 0 0 -1
vn -1 0 0
vn -1 0 0
vn -1 0 0
vn -1 0 0
vn -1 0 0
vn -1 0 0
vn 0 1 0
vn 0 1 0
vn 0 1 0
vn 0 1 0
vn 0 1 0
vn 0 1 0
vn 0 -1 0
vn 0 -1 0
vn 0 -1 0
vn 0 -1 0
vn 1 0 0
vn 1 0 0
vn 1 0 0
vn 1 0 0
vn 0 -1 0
vn 0 -1 0
vn 0 -1 0
vn 0 -1 0
vn 0 0 1
vn 0 0 1
vn 0 0 1
vn 0 0 1
vn 0 0 1
vn 0 0 1
vn 0 0 1
vn 0 0 1
vn 0 0 1
vn 0 0 1
vn 0 0 1
vn 0 0 1
vn 0 0 1
vn 0 0 1
vn 0 0 1
vn 0 0 1
vn 0 0 -1
vn 0 0 -1
vn 0 0 -1
vn 0 0 -1
vn 1 0 0
vn 1 0 0
vn 1 0 0
vn 1 0 0
vn 1 0 0
vn 1 0 0
vn 0 1 0
vn 0 1 0
vn 0 1 0
vn 0 1 0
vn 0 1 0
vn 0 1 0
vn 0 -1 0
vn 0 -1 0
vn 0 -1 0
vn 0 -1 0
vn -1 0 0
vn -1 0 0
vn -1 0 0
vn -1 0 0
vn 0 -1 0
vn 0 -1 0
vn 0 -1 0
vn 0 -1 0
g TuckshopBar_Collider_0
f 3/3/3 2/2/2 1/1/1
f 4/4/4 3/3/3 1/1/1
f 7/7/7 6/6/6 5/5/5
f 8/8/8 7/7/7 5/5/5
f 8/8/8 5/5/5 9/9/9
f 10/10/10 8/8/8 9/9/9
f 13/13/13 12/12/12 11/11/11
f 14/14/14 13/13/13 11/11/11
f 14/14/14 11/11/11 15/15/15
f 16/16/16 14/14/14 15/15/15
f 19/19/19 18/18/18 17/17/17
f 20/20/20 19/19/19 17/17/17
f 23/23/23 22/22/22 21/21/21
f 24/24/24 23/23/23 21/21/21
f 27/27/27 26/26/26 25/25/25
f 28/28/28 27/27/27 25/25/25
f 31/31/31 30/30/30 29/29/29
f 30/30/30 32/32/32 29/29/29
f 32/32/32 30/30/30 33/33/33
f 30/30/30 34/34/34 33/33/33
f 36/36/36 34/34/34 35/35/35
f 37/37/37 36/36/36 35/35/35
f 36/36/36 37/37/37 38/38/38
f 39/39/39 36/36/36 38/38/38
f 39/39/39 41/41/41 40/40/40
f 41/41/41 42/42/42 40/40/40
f 42/42/42 41/41/41 43/43/43
f 41/41/41 44/44/44 43/43/43
f 47/47/47 46/46/46 45/45/45
f 48/48/48 47/47/47 45/45/45
f 51/51/51 50/50/50 49/49/49
f 50/50/50 52/52/52 49/49/49
f 49/49/49 52/52/52 53/53/53
f 52/52/52 54/54/54 53/53/53
f 57/57/57 56/56/56 55/55/55
f 56/56/56 58/58/58 55/55/55
f 55/55/55 58/58/58 59/59/59
f 58/58/58 60/60/60 59/59/59
f 63/63/63 62/62/62 61/61/61
f 64/64/64 63/63/63 61/61/61
f 67/67/67 66/66/66 65/65/65
f 68/68/68 67/67/67 65/65/65
f 71/71/71 70/70/70 69/69/69
f 72/72/72 71/71/71 69/69/69
