g UteCollider
v -1.365786 -0.30458 -1.437626
v 0 -0.30458 -1.530872
v 0 -0.30458 -1.437626
v 1.365786 -0.30458 -1.437626
v -1.458255 -0.30458 -1.530872
v -1.365786 -0.30458 0.264911
v 1.458255 -0.30458 -1.530872
v 1.365786 -0.30458 0.264911
v -1.458255 -0.30458 0.246171
v -1.365786 -0.30458 0.446959
v 0 -0.563504 -1.530872
v 1.458255 -0.30458 0.246171
v 1.365786 -0.30458 0.446959
v -1.458255 -0.30458 0.436185
v -1.365786 -0.30458 1.763404
v -1.458255 -0.30458 1.825859
v -1.365786 -0.30458 2.242644
v -1.458255 -0.423651 -0.038136
v -1.458255 -0.423651 -0.811218
v -1.365786 -0.490005 -0.748145
v -1.458255 -0.563504 -1.530872
v -1.365786 -0.563504 -1.437626
v 0 -0.563504 -1.437626
v -1.458255 -0.30458 2.326071
v -1.365786 -0.30458 3.925404
v 1.458255 -0.563504 -1.530872
v 1.458255 -0.423651 -0.811218
v 1.365786 -0.563504 -1.437626
v 1.365786 -0.490005 -0.748145
v 0 -0.794185 -1.437626
v 1.458255 -0.423651 -0.038136
v -1.458255 -0.30458 3.995461
v 0 -0.30458 3.925404
v -1.365786 -0.794185 -1.437626
v 1.365786 -0.794185 -1.437626
v 0 -0.794185 -1.12523
v 1.458255 -0.30458 0.436185
v 1.365786 -0.30458 1.763404
v 1.458255 -0.30458 1.825859
v 1.365786 -0.30458 2.242644
v -1.365786 -0.794185 -1.12523
v 1.365786 -0.794185 -1.12523
v 0 -0.490005 -0.748145
v 0 -0.490005 -0.007475
v 1.365786 -0.490005 -0.007475
v 0 -0.794185 0.429937
v -1.365786 -0.490005 -0.007475
v 1.458255 -0.423651 2.194087
v 1.365786 -0.490005 2.639124
v 1.458255 -0.423651 3.14229
v 1.365786 -0.794185 0.429937
v -1.458255 -0.423651 2.194087
v -1.365786 -0.490005 2.639124
v -1.458255 -0.423651 3.14229
v -1.458255 -0.563504 3.995461
v 1.458255 -0.30458 2.326071
v 1.365786 -0.30458 3.925404
v 1.458255 -0.30458 3.995461
v 0 -0.30458 3.995461
v 1.458255 -0.563504 3.995461
v -1.365786 -0.490005 3.245874
v 0 -0.563504 3.995461
v 1.365786 -0.490005 3.245874
v -1.365786 -0.563504 3.925404
v 1.365786 -0.563504 3.925404
v 0 -0.563504 3.925404
v -1.365786 -0.794185 3.52562
v -1.365786 -0.794185 3.782581
v 0 -0.794185 3.782581
v 1.365786 -0.794185 3.782581
v 1.365786 -0.794185 3.52562
v 0 -0.794185 3.52562
v 0 -0.490005 3.245874
v 0 -0.490005 2.639124
v 1.365786 -0.794185 2.247584
v 0 -0.794185 2.247584
v -1.365786 -0.794185 2.247584
v -1.365786 -0.794185 0.429937
v 0 0.643798 2.187773
v 0 0.588816 2.217309
v -1.306512 0.588816 2.217309
v 1.306512 0.588816 2.217309
v -1.241173 0.643798 2.187773
v -1.245841 1.390471 1.786662
v 1.241173 0.643798 2.187773
v 1.245841 1.390471 1.786662
v -1.180502 1.335489 1.816198
v 0 1.390471 1.786662
v 0 0.561735 2.080837
v -1.241173 0.561735 2.080837
v 1.241173 0.561735 2.080837
v -1.180502 1.253426 1.709263
v 1.180502 1.335489 1.816198
v 1.180502 1.253426 1.709263
v 0 1.335489 1.816198
v 0 1.253426 1.709263
v 0 1.316095 0.422389
v 0 1.375181 0.434447
v -1.303207 1.375181 0.434447
v 1.303207 1.375181 0.434447
v -1.242903 1.316095 0.422389
v -1.303207 0.6057 0.277423
v 1.242903 1.316095 0.422389
v 1.303207 0.6057 0.277423
v -1.242903 0.664786 0.289481
v 0 0.6057 0.277423
v 0 1.299668 0.461841
v -1.242903 1.299668 0.461841
v 1.242903 1.299668 0.461841
v -1.242903 0.648359 0.461841
v 1.242903 0.664786 0.289481
v 1.242903 0.648359 0.461841
v 0 0.664786 0.289481
v 0 0.648359 0.461841
v -1.365786 0.544384 -1.437626
v -1.365786 0.544384 0.264911
v -1.365786 -0.189254 0.361401
v -1.365786 0.530523 0.361401
v -1.365786 1.436496 0.446959
v -1.365786 -0.189253 0.446959
v -1.365786 -0.189253 1.763404
v -1.365786 -0.189253 2.146153
v -1.365786 1.32117 0.522744
v -1.365786 0.510548 2.146153
v -1.365786 0.544384 2.242644
v -1.365786 1.32117 1.71069
v -1.365786 1.436496 1.763404
v 0 1.436496 1.763404
v -1.365786 0.234279 4.00253
v 0 0.234279 4.00253
v 1.365786 1.436496 1.763404
v 1.365786 1.436496 0.446959
v 1.365786 0.544384 2.242644
v 0 0.544384 2.242644
v 0 1.436496 0.446959
v 1.365786 0.544384 0.264911
v 0 0.544384 0.264911
v 0 0.544384 0.134063
v -1.365786 0.544384 3.743073
v 0 0.544384 3.743073
v 1.365786 0.544384 3.743073
v 1.365786 0.234279 4.00253
v -1.209395 0.544384 0.134063
v 1.365786 0.510548 2.146153
v 1.365786 -0.189253 2.146153
v 1.365786 1.32117 1.71069
v 1.365786 -0.189253 1.763404
v 1.365786 1.32117 0.522744
v 1.365786 -0.189253 0.446959
v 1.365786 0.530523 0.361401
v 1.365786 -0.189254 0.361401
v 1.365786 0.544384 -1.437626
v 1.209395 0.544384 0.134063
v 0 0.544384 -1.437626
v 0 0.251883 0.134063
v 1.209395 0.544384 -1.306778
v -1.209395 0.544384 -1.306778
v -1.209395 0.251883 0.134063
v 1.209395 0.251883 0.134063
v 0 0.544384 -1.306778
v 0 0.251883 -1.037648
v -1.209395 0.251883 -1.037648
v 1.209395 0.251883 -1.037648
vn -0.4082483 0.8164966 -0.4082483
vn 0 0.7071068 -0.7071068
vn 0 0.7071068 -0.7071068
vn 0.4082483 0.8164966 -0.4082483
vn -0.4082482 0.8164966 -0.4082483
vn -0.8320503 0.5547003 0
vn 0.4082482 0.8164966 -0.4082483
vn 0.8320503 0.5547003 0
vn -0.7071068 0.7071068 0
vn -0.7071068 0.7071068 0
vn 0 -0.7071068 -0.7071068
vn 0.7071068 0.7071068 0
vn 0.7071068 0.7071068 0
vn -0.7071068 0.7071067 0
vn -0.7071068 0.7071068 0
vn -0.7071067 0.7071068 0
vn -0.8944272 0.4472136 0
vn -0.8896654 -0.456613 0
vn -0.870113 -0.4913142 0.03890709
vn -0.4924425 -0.850183 0.1862502
vn -0.5676219 -0.7486574 -0.3425163
vn -0.567622 -0.7486574 -0.3425163
vn 0 -0.7071068 -0.7071068
vn -0.7071067 0.7071068 0
vn -0.4290122 0.79724 0.4246843
vn 0.5676219 -0.7486574 -0.3425163
vn 0.870113 -0.4913141 0.03890709
vn 0.5676219 -0.7486574 -0.3425163
vn 0.4924425 -0.850183 0.1862502
vn 0 -0.7071067 -0.7071068
vn 0.8896654 -0.456613 0
vn -0.4082483 0.8164966 0.4082483
vn 0 0.6551012 0.7555411
vn -0.5773503 -0.5773502 -0.5773503
vn 0.5773503 -0.5773502 -0.5773503
vn 0 -0.9429563 0.3329166
vn 0.7071068 0.7071067 0
vn 0.7071067 0.7071068 0
vn 0.7071066 0.7071068 0
vn 0.8320503 0.5547003 0
vn -0.4684642 -0.8330854 0.2941259
vn 0.4684642 -0.8330854 0.2941259
vn 0 -0.9429563 0.3329166
vn 0 -0.954201 -0.2991664
vn 0.5270128 -0.8384276 -0.1389126
vn 0 -0.954201 -0.2991664
vn -0.5270128 -0.8384276 -0.1389126
vn 0.8896654 -0.456613 0
vn 0.5295953 -0.8348821 0.1500017
vn 0.8549064 -0.5173415 -0.03863604
vn 0.4641384 -0.8451957 -0.2649904
vn -0.8896654 -0.456613 0
vn -0.5295953 -0.8348821 0.1500017
vn -0.8549064 -0.5173414 -0.03863603
vn -0.5256257 -0.7764014 0.3477334
vn 0.7071066 0.7071068 0
vn 0.6887034 0.639914 0.3408778
vn 0.4082483 0.8164966 0.4082483
vn 0 0.7071067 0.7071068
vn 0.5256257 -0.7764014 0.3477334
vn -0.4725107 -0.854451 -0.2159795
vn 0 -0.7071067 0.7071068
vn 0.4725106 -0.854451 -0.2159795
vn -0.4552051 -0.8547881 0.2492499
vn 0.4552051 -0.8547881 0.2492499
vn 0 -0.8736157 0.4866163
vn -0.4792512 -0.8036688 -0.3527533
vn -0.4967311 -0.758215 0.4223365
vn 0 -0.8736157 0.4866163
vn 0.4967311 -0.758215 0.4223365
vn 0.4792512 -0.8036688 -0.3527533
vn 0 -0.9156762 -0.4019166
vn 0 -0.9156762 -0.4019166
vn 0 -0.9459639 0.3242722
vn 0.4673004 -0.8363253 0.2866886
vn 0 -0.9459639 0.3242722
vn -0.4673004 -0.8363253 0.2866886
vn -0.4641384 -0.8451957 -0.2649904
vn 0 0.9776865 0.2100693
vn 0 0.4843224 0.8748896
vn 0.003603681 0.4786859 0.8779788
vn -0.003603696 0.4786859 0.8779788
vn 0.4350798 0.7322435 0.5239514
vn 0.003603672 0.467605 0.8839302
vn -0.4350798 0.7322435 0.5239513
vn -0.003603688 0.467605 0.8839302
vn 0.3809178 0.03485735 0.9239517
vn 0 0.4621621 0.8867953
vn 0 0.9776868 0.2100683
vn 0.6246516 0.7547827 0.2002835
vn -0.6246516 0.7547827 0.2002835
vn 0.532664 -0.2041033 0.8213471
vn -0.3809178 0.03485737 0.9239517
vn -0.5326641 -0.2041033 0.8213471
vn 0 -0.2100668 0.9776871
vn 0 -0.210066 0.9776872
vn 0 -0.4683911 -0.8835212
vn 0 0.1999473 -0.9798067
vn 0 0.1999454 -0.979807
vn 0 0.1999454 -0.979807
vn 0.3843834 -0.2011375 -0.9009956
vn 0 0.1999448 -0.9798071
vn -0.3843834 -0.2011375 -0.9009956
vn 0 0.1999448 -0.9798071
vn 0.394535 0.550529 -0.7357036
vn 0 0.199946 -0.9798069
vn 0 -0.5548016 -0.8319826
vn 0.5151095 -0.475534 -0.7131127
vn -0.5151095 -0.475534 -0.7131127
vn 0.5965238 0.5938329 -0.5399278
vn -0.394535 0.550529 -0.7357036
vn -0.5965238 0.5938329 -0.5399278
vn 0 0.8037453 -0.5949736
vn 0 0.7398906 -0.6727272
vn -0.4082483 0.8164966 -0.4082483
vn -0.6956173 0.5564661 -0.4543808
vn -1 0 0
vn -1 0 0
vn -0.6388844 0.4471817 -0.6259834
vn -1 0 0
vn -1 0 0
vn -1 0 0
vn -1 0 0
vn -1 0 0
vn -0.8343222 0.4119962 0.3662862
vn -1 0 0
vn -0.6044986 0.5856894 0.5399531
vn 0 0.851768 0.5239192
vn -0.8541288 0.142358 0.5001981
vn 0 0.273733 0.9618058
vn 0.6044986 0.5856894 0.5399531
vn 0.6388844 0.4471817 -0.6259834
vn 0.8842245 0.3490582 0.3103311
vn 0 0.8646772 0.5023279
vn 0 0.7745774 -0.6324791
vn 0.6956174 0.5564662 -0.4543808
vn 0 0.7745764 -0.6324803
vn 0 0.7071068 -0.7071068
vn -0.4831769 0.7932294 0.370577
vn 0 0.9060066 0.4232637
vn 0.4831769 0.7932294 0.370577
vn 0.7383841 0.1846002 0.6486229
vn 0.4082483 0.8164966 -0.4082483
vn 1 0 0
vn 1 0 0
vn 1 0 0
vn 1 0 0
vn 1 0 0
vn 1 0 0
vn 1 0 0
vn 1 0 0
vn 0.4082483 0.8164966 -0.4082483
vn -0.4082483 0.8164966 -0.4082483
vn 0 0.7071068 -0.7071068
vn 0 0.7071068 -0.7071068
vn -0.3388685 0.9071836 0.2493715
vn 0.3388685 0.9071836 0.2493715
vn 0.5773503 0.5773503 -0.5773503
vn -0.5773503 0.5773503 -0.5773503
vn 0 0.9157227 0.4018108
vn 0 0.9157227 0.4018108
vn 0.4792325 0.8037189 0.3526645
vn -0.4792325 0.8037189 0.3526645
g UteCollider_0
f 3/3/3 2/2/2 1/1/1
f 2/2/2 3/3/3 4/4/4
f 2/2/2 5/5/5 1/1/1
f 1/1/1 5/5/5 6/6/6
f 7/7/7 2/2/2 4/4/4
f 7/7/7 4/4/4 8/8/8
f 5/5/5 9/9/9 6/6/6
f 6/6/6 9/9/9 10/10/10
f 2/2/2 11/11/11 5/5/5
f 11/11/11 2/2/2 7/7/7
f 12/12/12 7/7/7 8/8/8
f 12/12/12 8/8/8 13/13/13
f 9/9/9 14/14/14 10/10/10
f 10/10/10 14/14/14 15/15/15
f 14/14/14 16/16/16 15/15/15
f 15/15/15 16/16/16 17/17/17
f 14/14/14 9/9/9 18/18/18
f 14/14/14 18/18/18 16/16/16
f 9/9/9 5/5/5 19/19/19
f 9/9/9 19/19/19 18/18/18
f 18/18/18 19/19/19 20/20/20
f 5/5/5 21/21/21 19/19/19
f 11/11/11 21/21/21 5/5/5
f 19/19/19 21/21/21 22/22/22
f 20/20/20 19/19/19 22/22/22
f 21/21/21 11/11/11 23/23/23
f 22/22/22 21/21/21 23/23/23
f 16/16/16 24/24/24 17/17/17
f 17/17/17 24/24/24 25/25/25
f 11/11/11 26/26/26 23/23/23
f 26/26/26 11/11/11 7/7/7
f 26/26/26 7/7/7 27/27/27
f 7/7/7 12/12/12 27/27/27
f 26/26/26 28/28/28 23/23/23
f 26/26/26 27/27/27 28/28/28
f 27/27/27 29/29/29 28/28/28
f 23/23/23 30/30/30 22/22/22
f 30/30/30 23/23/23 28/28/28
f 27/27/27 12/12/12 31/31/31
f 27/27/27 31/31/31 29/29/29
f 24/24/24 32/32/32 25/25/25
f 25/25/25 32/32/32 33/33/33
f 30/30/30 34/34/34 22/22/22
f 22/22/22 34/34/34 20/20/20
f 35/35/35 30/30/30 28/28/28
f 35/35/35 28/28/28 29/29/29
f 34/34/34 30/30/30 36/36/36
f 30/30/30 35/35/35 36/36/36
f 12/12/12 37/37/37 31/31/31
f 37/37/37 12/12/12 13/13/13
f 37/37/37 13/13/13 38/38/38
f 39/39/39 37/37/37 38/38/38
f 31/31/31 37/37/37 39/39/39
f 39/39/39 38/38/38 40/40/40
f 34/34/34 41/41/41 20/20/20
f 41/41/41 34/34/34 36/36/36
f 35/35/35 42/42/42 36/36/36
f 42/42/42 35/35/35 29/29/29
f 41/41/41 36/36/36 43/43/43
f 36/36/36 42/42/42 43/43/43
f 20/20/20 41/41/41 43/43/43
f 42/42/42 29/29/29 43/43/43
f 20/20/20 43/43/43 44/44/44
f 43/43/43 29/29/29 44/44/44
f 31/31/31 45/45/45 29/29/29
f 29/29/29 45/45/45 44/44/44
f 46/46/46 44/44/44 45/45/45
f 47/47/47 20/20/20 44/44/44
f 44/44/44 46/46/46 47/47/47
f 47/47/47 18/18/18 20/20/20
f 48/48/48 31/31/31 39/39/39
f 31/31/31 48/48/48 45/45/45
f 48/48/48 49/49/49 45/45/45
f 50/50/50 48/48/48 39/39/39
f 48/48/48 50/50/50 49/49/49
f 51/51/51 46/46/46 45/45/45
f 51/51/51 45/45/45 49/49/49
f 52/52/52 18/18/18 47/47/47
f 53/53/53 52/52/52 47/47/47
f 18/18/18 52/52/52 16/16/16
f 52/52/52 54/54/54 16/16/16
f 54/54/54 52/52/52 53/53/53
f 54/54/54 24/24/24 16/16/16
f 54/54/54 55/55/55 24/24/24
f 55/55/55 32/32/32 24/24/24
f 56/56/56 50/50/50 39/39/39
f 56/56/56 39/39/39 40/40/40
f 56/56/56 40/40/40 57/57/57
f 58/58/58 56/56/56 57/57/57
f 58/58/58 57/57/57 33/33/33
f 32/32/32 59/59/59 33/33/33
f 59/59/59 58/58/58 33/33/33
f 32/32/32 55/55/55 59/59/59
f 58/58/58 60/60/60 56/56/56
f 60/60/60 50/50/50 56/56/56
f 60/60/60 58/58/58 59/59/59
f 61/61/61 54/54/54 53/53/53
f 55/55/55 54/54/54 61/61/61
f 55/55/55 62/62/62 59/59/59
f 62/62/62 60/60/60 59/59/59
f 50/50/50 60/60/60 63/63/63
f 50/50/50 63/63/63 49/49/49
f 64/64/64 55/55/55 61/61/61
f 62/62/62 55/55/55 64/64/64
f 60/60/60 62/62/62 65/65/65
f 60/60/60 65/65/65 63/63/63
f 66/66/66 62/62/62 64/64/64
f 62/62/62 66/66/66 65/65/65
f 61/61/61 67/67/67 64/64/64
f 64/64/64 68/68/68 66/66/66
f 67/67/67 68/68/68 64/64/64
f 68/68/68 69/69/69 66/66/66
f 69/69/69 68/68/68 67/67/67
f 70/70/70 65/65/65 66/66/66
f 69/69/69 70/70/70 66/66/66
f 70/70/70 71/71/71 65/65/65
f 70/70/70 69/69/69 71/71/71
f 71/71/71 63/63/63 65/65/65
f 72/72/72 69/69/69 67/67/67
f 69/69/69 72/72/72 71/71/71
f 72/72/72 67/67/67 61/61/61
f 71/71/71 72/72/72 63/63/63
f 73/73/73 72/72/72 61/61/61
f 72/72/72 73/73/73 63/63/63
f 73/73/73 61/61/61 53/53/53
f 63/63/63 73/73/73 49/49/49
f 73/73/73 74/74/74 49/49/49
f 74/74/74 73/73/73 53/53/53
f 75/75/75 49/49/49 74/74/74
f 75/75/75 51/51/51 49/49/49
f 46/46/46 51/51/51 75/75/75
f 76/76/76 75/75/75 74/74/74
f 76/76/76 46/46/46 75/75/75
f 77/77/77 76/76/76 74/74/74
f 53/53/53 77/77/77 74/74/74
f 46/46/46 76/76/76 77/77/77
f 78/78/78 77/77/77 53/53/53
f 78/78/78 46/46/46 77/77/77
f 47/47/47 78/78/78 53/53/53
f 46/46/46 78/78/78 47/47/47
f 81/81/81 80/80/80 79/79/79
f 80/80/80 82/82/82 79/79/79
f 83/83/83 81/81/81 79/79/79
f 84/84/84 81/81/81 83/83/83
f 82/82/82 85/85/85 79/79/79
f 82/82/82 86/86/86 85/85/85
f 87/87/87 84/84/84 83/83/83
f 88/88/88 84/84/84 87/87/87
f 79/79/79 89/89/89 83/83/83
f 89/89/89 79/79/79 85/85/85
f 89/89/89 90/90/90 83/83/83
f 83/83/83 90/90/90 87/87/87
f 91/91/91 89/89/89 85/85/85
f 90/90/90 92/92/92 87/87/87
f 86/86/86 93/93/93 85/85/85
f 91/91/91 85/85/85 93/93/93
f 86/86/86 88/88/88 93/93/93
f 94/94/94 91/91/91 93/93/93
f 87/87/87 92/92/92 95/95/95
f 95/95/95 88/88/88 87/87/87
f 88/88/88 95/95/95 93/93/93
f 94/94/94 93/93/93 95/95/95
f 92/92/92 96/96/96 95/95/95
f 96/96/96 94/94/94 95/95/95
f 99/99/99 98/98/98 97/97/97
f 98/98/98 100/100/100 97/97/97
f 101/101/101 99/99/99 97/97/97
f 102/102/102 99/99/99 101/101/101
f 100/100/100 103/103/103 97/97/97
f 100/100/100 104/104/104 103/103/103
f 105/105/105 102/102/102 101/101/101
f 106/106/106 102/102/102 105/105/105
f 97/97/97 107/107/107 101/101/101
f 107/107/107 97/97/97 103/103/103
f 107/107/107 108/108/108 101/101/101
f 101/101/101 108/108/108 105/105/105
f 109/109/109 107/107/107 103/103/103
f 108/108/108 110/110/110 105/105/105
f 104/104/104 111/111/111 103/103/103
f 109/109/109 103/103/103 111/111/111
f 104/104/104 106/106/106 111/111/111
f 112/112/112 109/109/109 111/111/111
f 105/105/105 110/110/110 113/113/113
f 113/113/113 106/106/106 105/105/105
f 106/106/106 113/113/113 111/111/111
f 112/112/112 111/111/111 113/113/113
f 110/110/110 114/114/114 113/113/113
f 114/114/114 112/112/112 113/113/113
g UteCollider_1
f 115/115/115 1/1/1 6/6/6
f 3/3/3 1/1/1 115/115/115
f 116/116/116 115/115/115 6/6/6
f 116/116/116 6/6/6 117/117/117
f 118/118/118 116/116/116 117/117/117
f 119/119/119 116/116/116 118/118/118
f 117/117/117 6/6/6 120/120/120
f 6/6/6 10/10/10 120/120/120
f 120/120/120 10/10/10 121/121/121
f 10/10/10 15/15/15 121/121/121
f 121/121/121 15/15/15 122/122/122
f 15/15/15 17/17/17 122/122/122
f 123/123/123 119/119/119 118/118/118
f 122/122/122 17/17/17 124/124/124
f 17/17/17 125/125/125 124/124/124
f 124/124/124 125/125/125 126/126/126
f 126/126/126 127/127/127 123/123/123
f 127/127/127 119/119/119 123/123/123
f 125/125/125 127/127/127 126/126/126
f 119/119/119 127/127/127 128/128/128
f 129/129/129 125/125/125 17/17/17
f 17/17/17 25/25/25 129/129/129
f 129/129/129 25/25/25 130/130/130
f 25/25/25 33/33/33 130/130/130
f 33/33/33 57/57/57 130/130/130
f 128/128/128 127/127/127 84/84/84
f 84/84/84 127/127/127 81/81/81
f 127/127/127 125/125/125 81/81/81
f 88/88/88 128/128/128 84/84/84
f 128/128/128 88/88/88 86/86/86
f 81/81/81 125/125/125 80/80/80
f 131/131/131 128/128/128 86/86/86
f 131/131/131 132/132/132 128/128/128
f 131/131/131 86/86/86 82/82/82
f 133/133/133 82/82/82 80/80/80
f 133/133/133 131/131/131 82/82/82
f 134/134/134 133/133/133 80/80/80
f 125/125/125 134/134/134 80/80/80
f 132/132/132 135/135/135 128/128/128
f 135/135/135 119/119/119 128/128/128
f 119/119/119 135/135/135 98/98/98
f 135/135/135 132/132/132 98/98/98
f 99/99/99 119/119/119 98/98/98
f 116/116/116 119/119/119 99/99/99
f 132/132/132 100/100/100 98/98/98
f 102/102/102 116/116/116 99/99/99
f 132/132/132 136/136/136 100/100/100
f 136/136/136 104/104/104 100/100/100
f 136/136/136 137/137/137 104/104/104
f 137/137/137 116/116/116 102/102/102
f 137/137/137 106/106/106 104/104/104
f 106/106/106 137/137/137 102/102/102
f 116/116/116 137/137/137 138/138/138
f 137/137/137 136/136/136 138/138/138
f 125/125/125 139/139/139 134/134/134
f 129/129/129 139/139/139 125/125/125
f 139/139/139 129/129/129 140/140/140
f 139/139/139 140/140/140 134/134/134
f 129/129/129 130/130/130 140/140/140
f 140/140/140 141/141/141 134/134/134
f 141/141/141 133/133/133 134/134/134
f 130/130/130 142/142/142 140/140/140
f 142/142/142 141/141/141 140/140/140
f 133/133/133 141/141/141 142/142/142
f 57/57/57 142/142/142 130/130/130
f 133/133/133 142/142/142 57/57/57
f 57/57/57 40/40/40 133/133/133
f 143/143/143 116/116/116 138/138/138
f 115/115/115 116/116/116 143/143/143
f 133/133/133 40/40/40 144/144/144
f 40/40/40 145/145/145 144/144/144
f 133/133/133 144/144/144 146/146/146
f 40/40/40 38/38/38 145/145/145
f 131/131/131 133/133/133 146/146/146
f 38/38/38 147/147/147 145/145/145
f 131/131/131 146/146/146 148/148/148
f 38/38/38 13/13/13 147/147/147
f 132/132/132 131/131/131 148/148/148
f 13/13/13 149/149/149 147/147/147
f 132/132/132 148/148/148 150/150/150
f 13/13/13 8/8/8 149/149/149
f 136/136/136 132/132/132 150/150/150
f 8/8/8 151/151/151 149/149/149
f 136/136/136 150/150/150 151/151/151
f 8/8/8 136/136/136 151/151/151
f 152/152/152 136/136/136 8/8/8
f 4/4/4 152/152/152 8/8/8
f 4/4/4 3/3/3 152/152/152
f 136/136/136 152/152/152 153/153/153
f 136/136/136 153/153/153 138/138/138
f 3/3/3 154/154/154 152/152/152
f 154/154/154 3/3/3 115/115/115
f 155/155/155 138/138/138 153/153/153
f 138/138/138 155/155/155 143/143/143
f 152/152/152 156/156/156 153/153/153
f 152/152/152 154/154/154 156/156/156
f 157/157/157 115/115/115 143/143/143
f 154/154/154 115/115/115 157/157/157
f 155/155/155 158/158/158 143/143/143
f 143/143/143 158/158/158 157/157/157
f 159/159/159 155/155/155 153/153/153
f 159/159/159 153/153/153 156/156/156
f 160/160/160 154/154/154 157/157/157
f 154/154/154 160/160/160 156/156/156
f 155/155/155 161/161/161 158/158/158
f 161/161/161 155/155/155 159/159/159
f 158/158/158 162/162/162 157/157/157
f 157/157/157 162/162/162 160/160/160
f 161/161/161 162/162/162 158/158/158
f 162/162/162 161/161/161 160/160/160
f 163/163/163 159/159/159 156/156/156
f 163/163/163 156/156/156 160/160/160
f 163/163/163 161/161/161 159/159/159
f 161/161/161 163/163/163 160/160/160
g UteCollider_2
f 92/92/92 90/90/90 96/96/96
f 90/90/90 89/89/89 96/96/96
f 89/89/89 91/91/91 96/96/96
f 91/91/91 94/94/94 96/96/96
f 114/114/114 110/110/110 108/108/108
f 107/107/107 114/114/114 108/108/108
f 114/114/114 107/107/107 109/109/109
f 112/112/112 114/114/114 109/109/109
