g VaseTall
v 0.154953 0.154953 0.010134
v 0.127308 0.127308 -0.032943
v 0.127308 -0.127308 -0.032943
v 0.154953 -0.154953 0.010134
v 0.174741 0.174741 0.088584
v 0.174741 -0.174741 0.088584
v 0.122541 0.122541 0.208404
v 0.122541 -0.122541 0.208404
v 0.039414 0.039414 0.268212
v 0.039414 -0.039414 0.268212
v 0.037023 0.037023 0.429861
v 0.037023 -0.037023 0.429861
v 0.051798 0.051798 0.5182559
v 0.051798 -0.051798 0.5182559
v -0.127308 -0.127308 -0.032943
v 0.127308 -0.127308 -0.032943
v 0.127308 0.127308 -0.032943
v -0.127308 0.127308 -0.032943
v -0.154953 -0.154953 0.010134
v -0.127308 -0.127308 -0.032943
v -0.127308 0.127308 -0.032943
v -0.154953 0.154953 0.010134
v -0.174741 -0.174741 0.088584
v -0.174741 0.174741 0.088584
v -0.122541 -0.122541 0.208404
v -0.122541 0.122541 0.208404
v -0.039414 -0.039414 0.268212
v -0.039414 0.039414 0.268212
v -0.037023 -0.037023 0.429861
v -0.037023 0.037023 0.429861
v -0.051798 -0.051798 0.5182559
v -0.051798 0.051798 0.5182559
v -0.154953 0.154953 0.010134
v -0.127308 0.127308 -0.032943
v 0.127308 0.127308 -0.032943
v 0.154953 0.154953 0.010134
v -0.174741 0.174741 0.088584
v 0.174741 0.174741 0.088584
v -0.122541 0.122541 0.208404
v 0.122541 0.122541 0.208404
v -0.039414 0.039414 0.268212
v 0.039414 0.039414 0.268212
v -0.037023 0.037023 0.429861
v 0.037023 0.037023 0.429861
v -0.051798 0.051798 0.5182559
v 0.051798 0.051798 0.5182559
v 0.154953 -0.154953 0.010134
v 0.127308 -0.127308 -0.032943
v -0.127308 -0.127308 -0.032943
v -0.154953 -0.154953 0.010134
v 0.174741 -0.174741 0.088584
v -0.174741 -0.174741 0.088584
v 0.122541 -0.122541 0.208404
v -0.122541 -0.122541 0.208404
v 0.039414 -0.039414 0.268212
v -0.039414 -0.039414 0.268212
v 0.037023 -0.037023 0.429861
v -0.037023 -0.037023 0.429861
v 0.051798 -0.051798 0.5182559
v -0.051798 -0.051798 0.5182559
v -0.027288 0.027288 0.5182559
v -0.025767 0.025767 0.321042
v -0.025767 -0.025767 0.321042
v -0.027288 -0.027288 0.5182559
v -0.025767 -0.025767 0.321042
v -0.025767 0.025767 0.321042
v 0.025767 0.025767 0.321042
v 0.025767 -0.025767 0.321042
v 0.027288 -0.027288 0.5182559
v 0.025767 -0.025767 0.321042
v 0.025767 0.025767 0.321042
v 0.027288 0.027288 0.5182559
v 0.027288 0.027288 0.5182559
v 0.025767 0.025767 0.321042
v -0.025767 0.025767 0.321042
v -0.027288 0.027288 0.5182559
v -0.027288 -0.027288 0.5182559
v -0.025767 -0.025767 0.321042
v 0.025767 -0.025767 0.321042
v 0.027288 -0.027288 0.5182559
v 0.027288 0.027288 0.5182559
v 0.051798 0.051798 0.5182559
v 0.051798 -0.051798 0.5182559
v 0.027288 -0.027288 0.5182559
v -0.027288 0.027288 0.5182559
v -0.051798 -0.051798 0.5182559
v -0.051798 0.051798 0.5182559
v -0.027288 -0.027288 0.5182559
vn 0.6382261 0.6382261 -0.4305054
vn 0.1811102 0.1811102 -0.9666427
vn 0.1811102 -0.1811102 -0.9666427
vn 0.6382261 -0.6382261 -0.4305054
vn 0.6958871 0.6958871 0.1774325
vn 0.6958871 -0.6958871 0.1774325
vn 0.5616452 0.5616452 0.6075437
vn 0.5616452 -0.5616452 0.6075437
vn 0.4865148 0.4865149 0.7256767
vn 0.4865148 -0.4865148 0.7256767
vn 0.9982162 0 -0.0597011
vn 0.9982162 0 -0.0597011
vn 0.986317 0 -0.1648604
vn 0.986317 0 -0.1648604
vn -0.1811102 -0.1811102 -0.9666427
vn 0.1811102 -0.1811102 -0.9666427
vn 0.1811102 0.1811102 -0.9666427
vn -0.1811102 0.1811102 -0.9666427
vn -0.6382261 -0.6382261 -0.4305054
vn -0.1811102 -0.1811102 -0.9666427
vn -0.1811102 0.1811102 -0.9666427
vn -0.6382261 0.6382261 -0.4305054
vn -0.6958871 -0.6958871 0.1774325
vn -0.6958871 0.6958871 0.1774325
vn -0.5616452 -0.5616452 0.6075437
vn -0.5616452 0.5616452 0.6075437
vn -0.4865148 -0.4865148 0.7256767
vn -0.4865147 0.4865149 0.7256767
vn -0.9982162 0 -0.0597011
vn -0.9982162 0 -0.0597011
vn -0.986317 0 -0.1648604
vn -0.986317 0 -0.1648604
vn -0.6382261 0.6382261 -0.4305054
vn -0.1811102 0.1811102 -0.9666427
vn 0.1811102 0.1811102 -0.9666427
vn 0.6382261 0.6382261 -0.4305054
vn -0.6958871 0.6958871 0.1774325
vn 0.6958871 0.6958871 0.1774325
vn -0.5616452 0.5616452 0.6075437
vn 0.5616452 0.5616452 0.6075437
vn -0.4865147 0.4865149 0.7256767
vn 0.4865148 0.4865149 0.7256767
vn 0 0.9982162 -0.0597011
vn 0 0.9982162 -0.0597011
vn 0 0.986317 -0.1648604
vn 0 0.986317 -0.1648604
vn 0.6382261 -0.6382261 -0.4305054
vn 0.1811102 -0.1811102 -0.9666427
vn -0.1811102 -0.1811102 -0.9666427
vn -0.6382261 -0.6382261 -0.4305054
vn 0.6958871 -0.6958871 0.1774325
vn -0.6958871 -0.6958871 0.1774325
vn 0.5616452 -0.5616452 0.6075437
vn -0.5616452 -0.5616452 0.6075437
vn 0.4865148 -0.4865148 0.7256767
vn -0.4865148 -0.4865148 0.7256767
vn 0 -0.9982162 -0.05970109
vn 0 -0.9982162 -0.05970109
vn 0 -0.986317 -0.1648604
vn 0 -0.986317 -0.1648604
vn 0.9999703 0 0.007712205
vn 0.9999703 0 0.007712204
vn 0.9999703 0 0.007712204
vn 0.9999703 0 0.007712205
vn 0 0 1
vn 0 0 1
vn 0 0 1
vn 0 0 1
vn -0.9999703 0 0.007712205
vn -0.9999703 0 0.007712204
vn -0.9999703 0 0.007712204
vn -0.9999703 0 0.007712205
vn 0 -0.9999703 0.007712203
vn 0 -0.9999703 0.007712204
vn 0 -0.9999703 0.007712204
vn 0 -0.9999703 0.007712203
vn 0 0.9999703 0.007712205
vn 0 0.9999703 0.007712205
vn 0 0.9999703 0.007712205
vn 0 0.9999703 0.007712205
vn 0 0 1
vn 0 0 1
vn 0 0 1
vn 0 0 1
vn 0 0 1
vn 0 0 1
vn 0 0 1
vn 0 0 1
g VaseTall_0
f 3/3/3 2/2/2 1/1/1
f 4/4/4 3/3/3 1/1/1
f 4/4/4 1/1/1 5/5/5
f 6/6/6 4/4/4 5/5/5
f 6/6/6 5/5/5 7/7/7
f 8/8/8 6/6/6 7/7/7
f 7/7/7 9/9/9 8/8/8
f 9/9/9 10/10/10 8/8/8
f 9/9/9 11/11/11 10/10/10
f 11/11/11 12/12/12 10/10/10
f 11/11/11 13/13/13 12/12/12
f 13/13/13 14/14/14 12/12/12
f 17/17/17 16/16/16 15/15/15
f 18/18/18 17/17/17 15/15/15
f 21/21/21 20/20/20 19/19/19
f 22/22/22 21/21/21 19/19/19
f 22/22/22 19/19/19 23/23/23
f 24/24/24 22/22/22 23/23/23
f 24/24/24 23/23/23 25/25/25
f 26/26/26 24/24/24 25/25/25
f 25/25/25 27/27/27 26/26/26
f 27/27/27 28/28/28 26/26/26
f 27/27/27 29/29/29 28/28/28
f 29/29/29 30/30/30 28/28/28
f 29/29/29 31/31/31 30/30/30
f 31/31/31 32/32/32 30/30/30
f 35/35/35 34/34/34 33/33/33
f 36/36/36 35/35/35 33/33/33
f 36/36/36 33/33/33 37/37/37
f 38/38/38 36/36/36 37/37/37
f 38/38/38 37/37/37 39/39/39
f 40/40/40 38/38/38 39/39/39
f 39/39/39 41/41/41 40/40/40
f 41/41/41 42/42/42 40/40/40
f 41/41/41 43/43/43 42/42/42
f 43/43/43 44/44/44 42/42/42
f 43/43/43 45/45/45 44/44/44
f 45/45/45 46/46/46 44/44/44
f 49/49/49 48/48/48 47/47/47
f 50/50/50 49/49/49 47/47/47
f 50/50/50 47/47/47 51/51/51
f 52/52/52 50/50/50 51/51/51
f 52/52/52 51/51/51 53/53/53
f 54/54/54 52/52/52 53/53/53
f 53/53/53 55/55/55 54/54/54
f 55/55/55 56/56/56 54/54/54
f 55/55/55 57/57/57 56/56/56
f 57/57/57 58/58/58 56/56/56
f 57/57/57 59/59/59 58/58/58
f 59/59/59 60/60/60 58/58/58
f 63/63/63 62/62/62 61/61/61
f 64/64/64 63/63/63 61/61/61
f 67/67/67 66/66/66 65/65/65
f 68/68/68 67/67/67 65/65/65
f 71/71/71 70/70/70 69/69/69
f 72/72/72 71/71/71 69/69/69
f 75/75/75 74/74/74 73/73/73
f 76/76/76 75/75/75 73/73/73
f 79/79/79 78/78/78 77/77/77
f 80/80/80 79/79/79 77/77/77
f 83/83/83 82/82/82 81/81/81
f 84/84/84 83/83/83 81/81/81
f 81/81/81 82/82/82 85/85/85
f 86/86/86 83/83/83 84/84/84
f 82/82/82 87/87/87 85/85/85
f 88/88/88 86/86/86 84/84/84
f 85/85/85 87/87/87 88/88/88
f 87/87/87 86/86/86 88/88/88
