g VehicleBoxEnd
v 0 -0.347586 -0.347586
v 0 0.347586 -0.347586
v 0 0.347586 0.347586
v 0 -0.347586 0.347586
v 0 -0.347586 -0.347586
v 0 -0.347586 0.347586
v 0 0.347586 0.347586
v 0 0.347586 -0.347586
vt 0.926551 0.246206
vt 0.92655 0.003413
vt 0.683757 0.003413
vt 0.683758 0.246206
vt 0.926551 0.246206
vt 0.683758 0.246206
vt 0.683757 0.003413
vt 0.92655 0.003413
vn -1 0 0
vn -1 0 0
vn -1 0 0
vn -1 0 0
vn 1 0 0
vn 1 0 0
vn 1 0 0
vn 1 0 0
g VehicleBoxEnd_0
f 3/3/3 2/2/2 1/1/1
f 4/4/4 3/3/3 1/1/1
f 7/7/7 6/6/6 5/5/5
f 8/8/8 7/7/7 5/5/5
