g VerandahStrut
v -4.220511 4.170511 0.047244
v -4.220511 -3.95 0.052756
v -4.220511 -3.95 0.047244
v 4.170511 4.220511 0.047244
v -4.170511 4.220511 0.052756
v -4.170511 4.220511 0.047244
v 4.220511 -3.95 0.047244
v 4.220511 4.170511 0.052756
v 4.220511 4.170511 0.047244
v -4.049996 -3.95 -0.000625
v -4.05 -4 0.049379
v -4 -3.95 0.05
v 4.049996 -3.95 -0.000625
v 4 -3.95 0.05
v 4.05 -4 0.049379
v -4.049996 -3.95 0.100625
v -4 -3.95 0.05
v -4.05 -4 0.050621
v 4.049996 -3.95 0.100625
v 4.05 -4 0.050621
v 4 -3.95 0.05
v 4.170515 -3.95 0.102131
v 4.220511 -3.95 0.052756
v 4.170511 -4 0.052127
v 4.049996 3.979288 0.100625
v 4.170515 4.099807 0.102131
v 4.049996 -3.95 0.100625
v 4.099807 4.170515 0.102131
v 4 3.95 0.05
v 4 -3.95 0.05
v 3.979288 4.049996 0.100625
v -3.979288 4.049996 0.100625
v -4.099807 4.170515 0.102131
v -4.170515 4.099807 0.102131
v -3.95 4 0.05
v 3.95 4 0.05
v -4 3.95 0.05
v -4.049996 3.979288 0.100625
v -4 -3.95 0.05
v -4.049996 -3.95 0.100625
v -4.170515 -3.95 0.102131
v -4.170511 -4 0.052127
v -4.05 -4 0.050621
v -4.220511 -3.95 0.052756
v 4 -3.95 0.05
v 4.05 -4 0.050621
v 4.05 -4 0.049379
v -4 -3.95 0.05
v -4.05 -4 0.049379
v -4.05 -4 0.050621
v -4.220511 4.170511 0.047244
v -4.220511 4.170511 0.052756
v -4.220511 -3.95 0.052756
v -4.170515 -3.95 0.102131
v -4.170515 4.099807 0.102131
v 4.170511 4.220511 0.047244
v 4.170511 4.220511 0.052756
v -4.170511 4.220511 0.052756
v -4.099807 4.170515 0.102131
v 4.099807 4.170515 0.102131
v 4.220511 -3.95 0.047244
v 4.220511 -3.95 0.052756
v 4.220511 4.170511 0.052756
v 4.170515 4.099807 0.102131
v 4.170515 -3.95 0.102131
v 4.05 -4 0.050621
v 4.170511 -4 0.052127
v 4.170511 -4 0.047873
v 4.05 -4 0.049379
v -4.05 -4 0.049379
v -4.170511 -4 0.047873
v -4.170511 -4 0.052127
v -4.05 -4 0.050621
v 4 3.95 0.05
v 3.979288 4.049996 -0.000625
v 3.95 4 0.05
v 4.049996 3.979288 -0.000625
v 4 -3.95 0.05
v 4.049996 -3.95 -0.000625
v 4.170515 4.099807 -0.002131
v 4.170515 -3.95 -0.002131
v 4.220511 4.170511 0.047244
v 4.220511 -3.95 0.047244
v 4.170511 -4 0.047873
v 4 3.95 0.05
v 3.95 4 0.05
v 3.979288 4.049996 0.100625
v 4.049996 3.979288 0.100625
v -4.099807 4.170515 -0.002131
v -4.220511 4.170511 0.047244
v -4.170515 4.099807 -0.002131
v -4.170511 4.220511 0.047244
v 4.099807 4.170515 -0.002131
v 4.170511 4.220511 0.047244
v 4.220511 4.170511 0.047244
v 4.170515 4.099807 -0.002131
v 3.979288 4.049996 -0.000625
v 4.170515 4.099807 -0.002131
v 4.049996 3.979288 -0.000625
v -3.979288 4.049996 -0.000625
v 3.95 4 0.05
v -3.95 4 0.05
v -4 3.95 0.05
v -4.049996 3.979288 -0.000625
v -4.170515 4.099807 -0.002131
v -4.049996 -3.95 -0.000625
v -4 -3.95 0.05
v -4.170515 -3.95 -0.002131
v -4.05 -4 0.049379
v -4.170511 -4 0.047873
v -4.220511 -3.95 0.047244
v -4.220511 4.170511 0.047244
v -4.170511 -4 0.047873
v -4.170515 4.099807 0.102131
v -4.220511 4.170511 0.052756
v -4.170511 4.220511 0.052756
v -4.099807 4.170515 0.102131
v 4.170515 4.099807 0.102131
v 4.099807 4.170515 0.102131
v 4.170511 4.220511 0.052756
v 4.220511 4.170511 0.052756
v 4.170511 4.220511 0.047244
v 4.220511 4.170511 0.047244
v 4.220511 4.170511 0.052756
v 4.170511 4.220511 0.052756
v 4.170511 -4 0.052127
v 4.220511 -3.95 0.052756
v 4.220511 -3.95 0.047244
v 4.170511 -4 0.047873
v -4.170511 -4 0.047873
v -4.220511 -3.95 0.047244
v -4.220511 -3.95 0.052756
v -4.170511 -4 0.052127
v -4.170511 4.220511 0.052756
v -4.220511 4.170511 0.052756
v -4.220511 4.170511 0.047244
v -4.170511 4.220511 0.047244
v 4.05 -4 0.050621
v 4.049996 -3.95 0.100625
v 4.170515 -3.95 0.102131
v 4.170511 -4 0.052127
v 4.170511 -4 0.047873
v 4.170515 -3.95 -0.002131
v 4.049996 -3.95 -0.000625
v 4.05 -4 0.049379
vt 0.006082 0.473876
vt 0.993918 0.526124
vt 0.993918 0.473876
vt 0.005924 0.473876
vt 0.994077 0.526124
vt 0.994077 0.473876
vt 0.006082 0.473876
vt 0.993918 0.526124
vt 0.993918 0.473876
vt 0.006191 0
vt 0 0
vt 0.00625 0
vt 0.006191 1
vt 0.00625 1
vt 0 1
vt -0.154911 -0.146802
vt -0.154911 -0.146724
vt -0.154911 -0.154911
vt 1.154911 -0.146802
vt 1.154911 -0.154911
vt 1.154911 -0.146724
vt 1.154911 -0.146866
vt 1.154911 -0.146944
vt 1.154911 -0.154911
vt 1.154911 1.143544
vt 1.154911 1.143613
vt 1.154911 -0.146802
vt 1.143877 1.154911
vt 1.154911 1.146724
vt 1.154911 -0.146724
vt 1.143743 1.154911
vt -0.143743 1.154911
vt -0.143878 1.154911
vt -0.154911 1.143613
vt 0.426638 0.58058
vt 1.073362 1.07433
vt 0.41942 0.573362
vt -0.154911 1.143544
vt -0.07433 -0.073362
vt -0.154911 -0.146802
vt -0.154911 -0.146866
vt -0.154911 -0.154911
vt -0.154911 -0.154911
vt -0.154911 -0.146944
vt 0.503609 1.000484
vt 0.506211 1
vt 0.493789 1
vt -0.07433 -0.073362
vt -0.076493 -0.076493
vt -0.078417 -0.078417
vt 0.006082 0.473876
vt 0.006082 0.526124
vt 0.993918 0.526124
vt 0.993918 1
vt 0.014683 1
vt 0.005924 0.473876
vt 0.005924 0.526124
vt 0.994077 0.526124
vt 0.9857 1
vt 0.0143 1
vt 0.006082 0.473876
vt 0.006082 0.526124
vt 0.993918 0.526124
vt 0.985317 1
vt 0.006082 1
vt 1 0.506148
vt 1 0.520362
vt 1 0.479638
vt 1 0.493852
vt 0 0.493852
vt 0 0.479638
vt 0 0.520362
vt 0 0.506148
vt 1.073846 1.076971
vt 1 0.991474
vt 1.073362 1.07433
vt 0.991322 1
vt 0.503609 1.000484
vt 0.006191 1
vt 0.991375 1
vt 0.006142 1
vt 0.993918 1
vt 0.006082 1
vt 0 1
vt 1.073846 1.076971
vt 1.077455 1.077455
vt 1.154911 1.154911
vt 1.15451 1.15451
vt 1 0.008423
vt 1 0
vt 1 0
vt 1 0.005924
vt 1 0.991577
vt 1 0.994077
vt 1 1
vt 1 1
vt 1 0.991474
vt 0.991375 1
vt 0.991322 1
vt 1 0.008526
vt 1.073362 1.07433
vt 0.426638 0.58058
vt 0.41942 0.573362
vt 0.991322 0
vt 0.991375 0
vt 0.006191 0
vt -0.07433 -0.073362
vt 0.006142 0
vt 0 0.493852
vt 0 0.479638
vt 0.006082 0
vt 0.993918 0
vt 0 0
vt -0.154911 1.143613
vt -0.154911 1.146944
vt -0.154911 1.154911
vt -0.154911 1.154911
vt 1.154911 1.143613
vt 1.154911 1.154911
vt 1.154911 1.154911
vt 1.154911 1.146944
vt 0.005924 0.473876
vt 0 0.473876
vt 0 0.526124
vt 0.005924 0.526124
vt 1 0.520362
vt 1 0.526124
vt 1 0.473876
vt 1 0.479638
vt 0 0.479638
vt 0 0.473876
vt 0 0.526124
vt 0 0.520362
vt 0.994077 0.526124
vt 1 0.526124
vt 1 0.473876
vt 0.994077 0.473876
vt 1 0.506148
vt 1 1
vt 1 1
vt 1 0.520362
vt 1 0.479638
vt 1 0
vt 1 0
vt 1 0.493852
vn -0.820935 0.3675593 -0.4369963
vn -0.8742271 -0.3420023 0.3446175
vn -0.8742271 -0.3420023 -0.3446175
vn 0.3675593 0.820935 -0.4369963
vn -0.3675594 0.820935 0.4369964
vn -0.3675593 0.820935 -0.4369963
vn 0.8742271 -0.3420023 -0.3446175
vn 0.820935 0.3675593 0.4369962
vn 0.820935 0.3675593 -0.4369963
vn 0.3494908 -0.3411947 -0.8726067
vn 0.3445361 -0.8749398 -0.3402576
vn 0.9438071 -0.3304971 0
vn -0.3494908 -0.3411947 -0.8726067
vn -0.9438069 -0.3304971 0
vn -0.3445361 -0.8749398 -0.3402576
vn 0.3494908 -0.3411947 0.8726067
vn 0.9438071 -0.3304971 0
vn 0.3445361 -0.8749398 0.3402576
vn -0.3494908 -0.3411947 0.8726067
vn -0.3445361 -0.8749398 0.3402576
vn -0.9438069 -0.3304971 0
vn 0.3336668 -0.3420021 0.8784651
vn 0.8742271 -0.3420023 0.3446175
vn 0.3385961 -0.876244 0.3428543
vn -0.2547635 -0.1102812 0.9606943
vn 0.3753452 0.08658894 0.9228318
vn -0.3494908 -0.3411947 0.8726067
vn 0.08658893 0.3753452 0.9228318
vn -0.6213447 -0.2326305 0.7482072
vn -0.9438069 -0.3304971 0
vn -0.1102812 -0.2547635 0.9606943
vn 0.1102812 -0.2547635 0.9606943
vn -0.08658891 0.3753451 0.9228318
vn -0.3753452 0.08658891 0.9228318
vn 0.2326305 -0.6213447 0.748207
vn -0.2326305 -0.6213447 0.748207
vn 0.6213447 -0.2326305 0.7482072
vn 0.2547635 -0.1102812 0.9606943
vn 0.9438071 -0.3304971 0
vn 0.3494908 -0.3411947 0.8726067
vn -0.3336669 -0.342002 0.8784651
vn -0.3385962 -0.876244 0.3428544
vn 0.3445361 -0.8749398 0.3402576
vn -0.8742271 -0.3420023 0.3446175
vn -0.9438069 -0.3304971 0
vn -0.3445361 -0.8749398 0.3402576
vn -0.3445361 -0.8749398 -0.3402576
vn 0.9438071 -0.3304971 0
vn 0.3445361 -0.8749398 -0.3402576
vn 0.3445361 -0.8749398 0.3402576
vn -0.820935 0.3675593 -0.4369963
vn -0.820935 0.3675593 0.4369963
vn -0.8742271 -0.3420023 0.3446175
vn -0.3336669 -0.342002 0.8784651
vn -0.3753452 0.08658891 0.9228318
vn 0.3675593 0.820935 -0.4369963
vn 0.3675593 0.820935 0.4369963
vn -0.3675594 0.820935 0.4369964
vn -0.08658891 0.3753451 0.9228318
vn 0.08658893 0.3753452 0.9228318
vn 0.8742271 -0.3420023 -0.3446175
vn 0.8742271 -0.3420023 0.3446175
vn 0.820935 0.3675593 0.4369962
vn 0.3753452 0.08658894 0.9228318
vn 0.3336668 -0.3420021 0.8784651
vn -0.3445361 -0.8749398 0.3402576
vn 0.3385961 -0.876244 0.3428543
vn 0.3385962 -0.876244 -0.3428544
vn -0.3445361 -0.8749398 -0.3402576
vn 0.3445361 -0.8749398 -0.3402576
vn -0.3385962 -0.876244 -0.3428544
vn -0.3385962 -0.876244 0.3428544
vn 0.3445361 -0.8749398 0.3402576
vn -0.6213447 -0.2326305 -0.7482072
vn -0.1102812 -0.2547635 -0.9606943
vn -0.2326305 -0.6213447 -0.748207
vn -0.2547635 -0.1102812 -0.9606943
vn -0.9438069 -0.3304971 0
vn -0.3494908 -0.3411947 -0.8726067
vn 0.3753452 0.08658894 -0.9228318
vn 0.3336669 -0.342002 -0.8784651
vn 0.820935 0.3675593 -0.4369963
vn 0.8742271 -0.3420023 -0.3446175
vn 0.3385962 -0.876244 -0.3428544
vn -0.6213447 -0.2326305 0.7482072
vn -0.2326305 -0.6213447 0.748207
vn -0.1102812 -0.2547635 0.9606943
vn -0.2547635 -0.1102812 0.9606943
vn -0.08658891 0.3753452 -0.9228318
vn -0.820935 0.3675593 -0.4369963
vn -0.3753452 0.08658892 -0.9228318
vn -0.3675593 0.820935 -0.4369963
vn 0.08658893 0.3753452 -0.9228318
vn 0.3675593 0.820935 -0.4369963
vn 0.820935 0.3675593 -0.4369963
vn 0.3753452 0.08658894 -0.9228318
vn -0.1102812 -0.2547635 -0.9606943
vn 0.3753452 0.08658894 -0.9228318
vn -0.2547635 -0.1102812 -0.9606943
vn 0.1102812 -0.2547635 -0.9606943
vn -0.2326305 -0.6213447 -0.748207
vn 0.2326305 -0.6213447 -0.748207
vn 0.6213447 -0.2326305 -0.7482072
vn 0.2547635 -0.1102812 -0.9606943
vn -0.3753452 0.08658892 -0.9228318
vn 0.3494908 -0.3411947 -0.8726067
vn 0.9438071 -0.3304971 0
vn -0.3336669 -0.342002 -0.8784651
vn 0.3445361 -0.8749398 -0.3402576
vn -0.3385962 -0.876244 -0.3428544
vn -0.8742271 -0.3420023 -0.3446175
vn -0.820935 0.3675593 -0.4369963
vn -0.3385962 -0.876244 -0.3428544
vn -0.3753452 0.08658891 0.9228318
vn -0.820935 0.3675593 0.4369963
vn -0.3675594 0.820935 0.4369964
vn -0.08658891 0.3753451 0.9228318
vn 0.3753452 0.08658894 0.9228318
vn 0.08658893 0.3753452 0.9228318
vn 0.3675593 0.820935 0.4369963
vn 0.820935 0.3675593 0.4369962
vn 0.3675593 0.820935 -0.4369963
vn 0.820935 0.3675593 -0.4369963
vn 0.820935 0.3675593 0.4369962
vn 0.3675593 0.820935 0.4369963
vn 0.3385961 -0.876244 0.3428543
vn 0.8742271 -0.3420023 0.3446175
vn 0.8742271 -0.3420023 -0.3446175
vn 0.3385962 -0.876244 -0.3428544
vn -0.3385962 -0.876244 -0.3428544
vn -0.8742271 -0.3420023 -0.3446175
vn -0.8742271 -0.3420023 0.3446175
vn -0.3385962 -0.876244 0.3428544
vn -0.3675594 0.820935 0.4369964
vn -0.820935 0.3675593 0.4369963
vn -0.820935 0.3675593 -0.4369963
vn -0.3675593 0.820935 -0.4369963
vn -0.3445361 -0.8749398 0.3402576
vn -0.3494908 -0.3411947 0.8726067
vn 0.3336668 -0.3420021 0.8784651
vn 0.3385961 -0.876244 0.3428543
vn 0.3385962 -0.876244 -0.3428544
vn 0.3336669 -0.342002 -0.8784651
vn -0.3494908 -0.3411947 -0.8726067
vn -0.3445361 -0.8749398 -0.3402576
g VerandahStrut_0
f 3/3/3 2/2/2 1/1/1
f 6/6/6 5/5/5 4/4/4
f 9/9/9 8/8/8 7/7/7
f 12/12/12 11/11/11 10/10/10
f 15/15/15 14/14/14 13/13/13
f 18/18/18 17/17/17 16/16/16
f 21/21/21 20/20/20 19/19/19
f 24/24/24 23/23/23 22/22/22
f 22/22/22 26/26/26 25/25/25
f 27/27/27 22/22/22 25/25/25
f 25/25/25 26/26/26 28/28/28
f 25/25/25 29/29/29 27/27/27
f 29/29/29 30/30/30 27/27/27
f 31/31/31 25/25/25 28/28/28
f 31/31/31 28/28/28 32/32/32
f 28/28/28 33/33/33 32/32/32
f 33/33/33 34/34/34 32/32/32
f 32/32/32 35/35/35 31/31/31
f 35/35/35 36/36/36 31/31/31
f 35/35/35 32/32/32 37/37/37
f 32/32/32 38/38/38 37/37/37
f 34/34/34 38/38/38 32/32/32
f 39/39/39 37/37/37 38/38/38
f 40/40/40 39/39/39 38/38/38
f 38/38/38 34/34/34 40/40/40
f 34/34/34 41/41/41 40/40/40
f 41/41/41 42/42/42 40/40/40
f 42/42/42 43/43/43 40/40/40
f 44/44/44 42/42/42 41/41/41
f 47/47/47 46/46/46 45/45/45
f 50/50/50 49/49/49 48/48/48
f 53/53/53 52/52/52 51/51/51
f 53/53/53 54/54/54 52/52/52
f 54/54/54 55/55/55 52/52/52
f 58/58/58 57/57/57 56/56/56
f 58/58/58 59/59/59 57/57/57
f 59/59/59 60/60/60 57/57/57
f 63/63/63 62/62/62 61/61/61
f 63/63/63 64/64/64 62/62/62
f 64/64/64 65/65/65 62/62/62
f 68/68/68 67/67/67 66/66/66
f 69/69/69 68/68/68 66/66/66
f 72/72/72 71/71/71 70/70/70
f 73/73/73 72/72/72 70/70/70
f 76/76/76 75/75/75 74/74/74
f 75/75/75 77/77/77 74/74/74
f 74/74/74 77/77/77 78/78/78
f 77/77/77 79/79/79 78/78/78
f 77/77/77 80/80/80 79/79/79
f 80/80/80 81/81/81 79/79/79
f 80/80/80 82/82/82 81/81/81
f 82/82/82 83/83/83 81/81/81
f 83/83/83 84/84/84 81/81/81
f 87/87/87 86/86/86 85/85/85
f 88/88/88 87/87/87 85/85/85
f 91/91/91 90/90/90 89/89/89
f 90/90/90 92/92/92 89/89/89
f 89/89/89 92/92/92 93/93/93
f 92/92/92 94/94/94 93/93/93
f 94/94/94 95/95/95 93/93/93
f 95/95/95 96/96/96 93/93/93
f 89/89/89 93/93/93 97/97/97
f 97/97/97 93/93/93 98/98/98
f 99/99/99 97/97/97 98/98/98
f 100/100/100 89/89/89 97/97/97
f 100/100/100 97/97/97 101/101/101
f 102/102/102 100/100/100 101/101/101
f 100/100/100 102/102/102 103/103/103
f 89/89/89 100/100/100 104/104/104
f 104/104/104 100/100/100 103/103/103
f 105/105/105 89/89/89 104/104/104
f 106/106/106 104/104/104 103/103/103
f 107/107/107 106/106/106 103/103/103
f 106/106/106 108/108/108 104/104/104
f 108/108/108 105/105/105 104/104/104
f 106/106/106 109/109/109 108/108/108
f 109/109/109 110/110/110 108/108/108
f 108/108/108 111/111/111 105/105/105
f 111/111/111 112/112/112 105/105/105
f 113/113/113 111/111/111 108/108/108
f 116/116/116 115/115/115 114/114/114
f 117/117/117 116/116/116 114/114/114
f 120/120/120 119/119/119 118/118/118
f 121/121/121 120/120/120 118/118/118
f 124/124/124 123/123/123 122/122/122
f 125/125/125 124/124/124 122/122/122
f 128/128/128 127/127/127 126/126/126
f 129/129/129 128/128/128 126/126/126
f 132/132/132 131/131/131 130/130/130
f 133/133/133 132/132/132 130/130/130
f 136/136/136 135/135/135 134/134/134
f 137/137/137 136/136/136 134/134/134
f 140/140/140 139/139/139 138/138/138
f 141/141/141 140/140/140 138/138/138
f 144/144/144 143/143/143 142/142/142
f 145/145/145 144/144/144 142/142/142
