g VerandahBase
v -4.739331 -2.831467 0.32204
v -4.739331 -2.831467 0.071408
v -4.739331 0.868799 0.071408
v -4.739331 0.868799 0.32204
v -4.739331 0.868799 0.32204
v -4.739331 0.868799 0.071408
v 4.739331 0.868799 0.071408
v 4.739331 0.868799 0.32204
v 4.739331 0.868799 0.32204
v 4.739331 0.868799 0.071408
v 4.739331 -2.831467 0.071408
v 4.739331 -2.831467 0.32204
v 4.739331 -2.831467 0.32204
v 4.739331 -2.831467 0.071408
v -4.739331 -2.831467 0.071408
v -4.739331 -2.831467 0.32204
v -4.739331 -2.831467 0.071408
v 4.739331 -2.831467 0.071408
v 4.739331 0.868799 0.071408
v -4.739331 0.868799 0.071408
v 4.739331 -2.831467 0.32204
v -4.739331 -2.831467 0.32204
v -4.739331 0.868799 0.32204
v 4.739331 0.868799 0.32204
vt 2.6E-05 2.6E-05
vt 2.6E-05 0.067756
vt 0.999974 0.067756
vt 0.999974 2.6E-05
vt 1.6E-05 1.6E-05
vt 1.6E-05 0.026457
vt 0.999984 0.026457
vt 0.999984 1.6E-05
vt 0.999974 0.067756
vt 0.999974 2.6E-05
vt 2.6E-05 2.6E-05
vt 2.6E-05 0.067756
vt 0.999984 0.026457
vt 0.999984 1.6E-05
vt 1.6E-05 1.6E-05
vt 1.6E-05 0.026457
vt 6.2E-05 0.390392
vt 0.999938 0.390392
vt 0.999938 6.2E-05
vt 6.2E-05 6.2E-05
vt 0.999938 0.200093
vt 6.2E-05 0.200093
vt 6.2E-05 0.731712
vt 0.999938 0.731712
vn -1 0 0
vn -1 0 0
vn -1 0 0
vn -1 0 0
vn 0 1 0
vn 0 1 0
vn 0 1 0
vn 0 1 0
vn 1 0 0
vn 1 0 0
vn 1 0 0
vn 1 0 0
vn 0 -1 0
vn 0 -1 0
vn 0 -1 0
vn 0 -1 0
vn 0 0 -1
vn 0 0 -1
vn 0 0 -1
vn 0 0 -1
vn 0 0 1
vn 0 0 1
vn 0 0 1
vn 0 0 1
g VerandahBase_0
f 3/3/3 2/2/2 1/1/1
f 4/4/4 3/3/3 1/1/1
f 7/7/7 6/6/6 5/5/5
f 8/8/8 7/7/7 5/5/5
f 11/11/11 10/10/10 9/9/9
f 12/12/12 11/11/11 9/9/9
f 15/15/15 14/14/14 13/13/13
f 16/16/16 15/15/15 13/13/13
f 19/19/19 18/18/18 17/17/17
f 20/20/20 19/19/19 17/17/17
f 23/23/23 22/22/22 21/21/21
f 24/24/24 23/23/23 21/21/21
