g VinePlantBase
v 0.061193 -0.094761 0.402107
v 0.133477 -0.051686 0.52704
v 0.109077 -0.074541 0.427682
v 0.089112 -0.069961 0.503088
v 0.043371 -0.05162 0.490072
v 0.126331 -0.026384 0.620216
v 0.011976 -0.07504 0.38773
v -0.005943 -0.014738 0.397266
v 0.165243 -0.012875 0.637732
v 0.176603 0.033794 0.655178
v 0.146346 0.003135 0.550179
v 0.129223 0.058023 0.56071
v 0.166343 0.018785 0.747936
v 0.132157 0.009216 0.738473
v 0.176499 0.057001 0.758559
v 0.095905 0.023879 0.735241
v 0.162418 0.095556 0.76537
v 0.161016 0.080773 0.663974
v 0.119085 0.095209 0.655537
v 0.123893 0.106144 0.763398
v 0.083609 0.076501 0.546836
v 0.039371 0.058363 0.522025
v 0.05586 0.065003 0.446902
v 0.008372 0.045494 0.42042
v 0.087433 0.0925 0.755194
v 0.085608 -0.009495 0.61153
v 0.068814 0.035031 0.620574
v 0.079551 0.058359 0.743311
v 0.078966 0.079248 0.638269
v 0.026374 0.003405 0.499745
v 0.05586 0.065003 0.446902
v 0.129223 0.058023 0.56071
v 0.083609 0.076501 0.546836
v 0.10468 0.044572 0.462184
v 0.122996 -0.01502 0.451743
v 0.146346 0.003135 0.550179
v 0.133477 -0.051686 0.52704
v 0.109077 -0.074541 0.427682
v 0.084538 0.034838 0.358848
v 0.033036 0.055732 0.344172
v 0.103817 -0.026235 0.34961
v -0.017026 0.035824 0.319185
v 0.008372 0.045494 0.42042
v 0.089146 -0.087126 0.327343
v -0.005943 -0.014738 0.397266
v -0.031986 -0.025507 0.297489
v 0.061193 -0.094761 0.402107
v 0.038796 -0.107473 0.302927
v -0.012995 -0.08702 0.288823
v 0.011976 -0.07504 0.38773
v -0.0556 -0.03501 0.184765
v -0.031986 -0.025507 0.297489
v -0.012995 -0.08702 0.288823
v -0.017026 0.035824 0.319185
v -0.035959 -0.094823 0.177668
v 0.018139 -0.114783 0.191201
v -0.053225 -0.091754 0.037668
v 0.038796 -0.107473 0.302927
v 0.089146 -0.087126 0.327343
v -0.039822 0.024536 0.204052
v 0.012336 0.043698 0.227087
v -0.056879 0.024885 0.060396
v 0.033036 0.055732 0.344172
v 0.084538 0.034838 0.358848
v -0.073614 -0.033285 0.043365
v -0.08286 -0.010368 -0.142442
v 0.070786 -0.095124 0.213705
v 0.086074 -0.036076 0.233522
v 0.058795 -0.091967 0.071157
v 0.103817 -0.026235 0.34961
v 0.065944 0.023239 0.24115
v 0.053849 0.023296 0.094908
v 0.003502 -0.111186 0.050539
v -0.000836 -0.091176 -0.135448
v -0.061102 -0.071118 -0.147776
v -0.002232 0.043415 0.081526
v -0.006658 0.069398 -0.106631
v 0.074885 -0.034486 0.088699
v 0.075366 -0.01141 -0.099637
v -0.065062 0.050122 -0.126407
v 0.057974 -0.071091 -0.115916
v -0.064284 -0.041699 -0.35594
v -2.5E-05 -0.062961 -0.344098
v -0.087721 0.023144 -0.350452
v 0.062737 -0.041354 -0.325252
v -0.068807 0.087803 -0.334784
v 0.081682 0.022408 -0.30973
v -0.006014 0.108513 -0.316084
v 0.058276 0.086354 -0.304388
v 0.053201 0.04853 -0.094059
v -0.128045 -0.04511 1.15995
v -0.196365 -0.065123 1.322366
v -0.1601 -0.049876 1.282643
v -0.196698 -0.050985 1.274751
v -0.101647 -0.033986 1.162843
v -0.090613 -0.006946 1.161135
v -0.171391 -0.038061 1.323567
v -0.157863 -0.009968 1.276345
v -0.002326 -0.000216 0.970951
v -0.033743 -0.011953 0.970828
v 0.008149 0.028906 0.973729
v -0.06588 -0.004061 0.973233
v -0.003041 0.057229 0.977584
v -0.154381 -0.037524 1.1563
v -0.165232 -0.008435 1.155734
v -0.219659 -0.03739 1.311003
v -0.078513 0.025707 0.978036
v -0.197333 -0.008925 1.270668
v -0.069481 0.056275 0.981762
v -0.098233 0.019722 1.158077
v -0.1278 0.029729 1.156919
v -0.194685 -0.010328 1.312204
v -0.036621 0.066567 0.980936
v -0.157428 0.021027 1.156519
v 0.065895 0.010091 0.84284
v 0.132157 0.009216 0.738473
v 0.095905 0.023879 0.735241
v 0.166343 0.018785 0.747936
v 0.031479 0.021049 0.844344
v 0.016761 0.051612 0.851513
v 0.079551 0.058359 0.743311
v 0.087433 0.0925 0.755194
v -0.06588 -0.004061 0.973233
v -0.033743 -0.011953 0.970828
v -0.078513 0.025707 0.978036
v -0.002326 -0.000216 0.970951
v -0.069481 0.056275 0.981762
v 0.098746 0.02019 0.845829
v 0.108767 0.052797 0.85214
v 0.176499 0.057001 0.758559
v 0.008149 0.028906 0.973729
v 0.162418 0.095556 0.76537
v -0.003041 0.057229 0.977584
v 0.025045 0.082471 0.858839
v 0.059633 0.094317 0.860813
v 0.123893 0.106144 0.763398
v -0.036621 0.066567 0.980936
v 0.095787 0.085108 0.858294
v -0.218059 -0.047737 1.370235
v -0.171391 -0.038061 1.323567
v -0.1601 -0.049876 1.282643
v -0.196365 -0.065123 1.322366
v -0.157863 -0.009968 1.276345
v -0.196698 -0.050985 1.274751
v -0.194685 -0.010328 1.312204
v -0.219659 -0.03739 1.311003
v -0.197333 -0.008925 1.270668
vt 0.591633 0.429988
vt 0.54223 0.438991
vt 0.601908 0.425714
vt 0.54704 0.409067
vt 0.560602 0.390911
vt 0.502447 0.388145
vt 0.568619 0.430811
vt 0.54707 0.436047
vt 0.482553 0.452268
vt 0.51262 0.507726
vt 0.54893 0.458925
vt 0.563437 0.465699
vt 0.422876 0.465545
vt 0.457854 0.367224
vt 0.47631 0.556526
vt 0.544568 0.311111
vt 0.572253 0.595063
vt 0.567845 0.530381
vt 0.623425 0.496098
vt 0.6648 0.536055
vt 0.582051 0.456141
vt 0.591913 0.434814
vt 0.540676 0.416184
vt 0.535064 0.434801
vt 0.705611 0.43484
vt 0.552585 0.351011
vt 0.613252 0.376518
vt 0.646343 0.346754
vt 0.648762 0.434827
vt 0.580161 0.406282
vt 0.540676 0.416184
vt 0.563437 0.465699
vt 0.582051 0.456141
vt 0.559028 0.401017
vt 0.585239 0.410125
vt 0.54893 0.458925
vt 0.54223 0.438991
vt 0.601908 0.425714
vt 0.55462 0.336335
vt 0.499302 0.376227
vt 0.621549 0.361325
vt 0.478215 0.434789
vt 0.535064 0.434801
vt 0.661585 0.412436
vt 0.54707 0.436047
vt 0.513979 0.465811
vt 0.591633 0.429988
vt 0.636226 0.450909
vt 0.576636 0.470711
vt 0.568619 0.430811
vt 0.528682 0.455122
vt 0.513979 0.465811
vt 0.576636 0.470711
vt 0.478215 0.434789
vt 0.575441 0.459191
vt 0.620056 0.444552
vt 0.574247 0.44767
vt 0.636226 0.450909
vt 0.661585 0.412436
vt 0.501978 0.431627
vt 0.517529 0.387987
vt 0.525742 0.428465
vt 0.499302 0.376227
vt 0.55462 0.336335
vt 0.543386 0.444433
vt 0.558089 0.433744
vt 0.639039 0.415772
vt 0.608903 0.377416
vt 0.616493 0.419107
vt 0.621549 0.361325
vt 0.558711 0.358488
vt 0.562803 0.38064
vt 0.603887 0.438195
vt 0.587717 0.431837
vt 0.573053 0.436149
vt 0.535756 0.399746
vt 0.553983 0.411506
vt 0.596257 0.393508
vt 0.583611 0.4096
vt 0.549505 0.425303
vt 0.593947 0.422443
vt 0.571859 0.424629
vt 0.571547 0.42548
vt 0.572792 0.423055
vt 0.571401 0.425778
vt 0.573269 0.422141
vt 0.570965 0.425691
vt 0.57221 0.423266
vt 0.570985 0.424945
vt 0.566894 0.402793
vt 0.657285 0.508704
vt 0.723762 0.555864
vt 0.726889 0.390125
vt 0.632047 0.68061
vt 0.650886 0.40898
vt 0.574723 0.3519
vt 0.607528 0.283691
vt 0.457695 0.27235
vt 0.574883 0.427835
vt 0.590808 0.461544
vt 0.541919 0.420108
vt 0.588307 0.495861
vt 0.514974 0.433707
vt 0.610177 0.588235
vt 0.525817 0.584735
vt 0.485642 0.664062
vt 0.565993 0.505408
vt 0.369709 0.552422
vt 0.53766 0.493631
vt 0.486334 0.353028
vt 0.443255 0.427931
vt 0.369407 0.391889
vt 0.517104 0.463972
vt 0.453684 0.523026
vt 0.524331 0.414384
vt 0.457854 0.367224
vt 0.544568 0.311111
vt 0.422876 0.465545
vt 0.566438 0.403486
vt 0.606168 0.426081
vt 0.646343 0.346754
vt 0.705611 0.43484
vt 0.588307 0.495861
vt 0.590808 0.461544
vt 0.565993 0.505408
vt 0.574883 0.427835
vt 0.53766 0.493631
vt 0.498879 0.44669
vt 0.509115 0.488317
vt 0.47631 0.556526
vt 0.541919 0.420108
vt 0.572253 0.595063
vt 0.514974 0.433707
vt 0.621635 0.464235
vt 0.590952 0.500014
vt 0.6648 0.536055
vt 0.517104 0.463972
vt 0.543613 0.514385
vt 0.546585 0.473877
vt 0.607528 0.283691
vt 0.788133 0.360472
vt 0.723762 0.555864
vt 0.426922 0.20691
vt 0.659392 0.751257
vt 0.369407 0.391889
vt 0.485642 0.664062
vt 0.311892 0.576868
vn -0.07316757 -0.9771731 0.1994475
vn 0.7785788 -0.6275373 -0.00346315
vn 0.8048568 -0.5905636 -0.05865318
vn -0.1332384 -0.9367164 0.3237438
vn -0.702779 -0.5965007 0.3876706
vn -0.1245055 -0.9362334 0.3285811
vn -0.732196 -0.6122212 0.2984534
vn -0.951741 -0.1077546 0.2873638
vn 0.7692123 -0.6373931 0.04519326
vn 0.98204 0.09138004 -0.1650671
vn 0.9550717 0.1146372 -0.2733064
vn 0.7188162 0.6191764 -0.3161075
vn 0.710768 -0.6429691 0.2853062
vn -0.04878421 -0.9823595 0.1805275
vn 0.9586684 0.01249525 0.2842513
vn -0.6862925 -0.7273059 -0.005359108
vn 0.7137829 0.6670081 0.2135746
vn 0.7168533 0.6616773 -0.2197832
vn 0.05656053 0.9834272 -0.1722554
vn 0.0266323 0.9995691 0.01234395
vn 0.06010998 0.984826 -0.1628022
vn -0.8296306 0.5224543 0.1968617
vn 0.06034727 0.9919629 -0.1112116
vn -0.8203054 0.5447813 0.1741043
vn -0.6414617 0.7460247 -0.1788129
vn -0.6775708 -0.635745 0.369765
vn -0.9511113 -0.1471304 0.2715511
vn -0.9798441 -0.03113783 -0.1973222
vn -0.7680764 0.6383581 0.05057455
vn -0.9271684 -0.1429414 0.3463043
vn 0.06034727 0.9919629 -0.1112116
vn 0.7188162 0.6191764 -0.3161075
vn 0.06010998 0.984826 -0.1628022
vn 0.7469347 0.6191328 -0.242411
vn 0.9700042 0.1016337 -0.2208224
vn 0.9550717 0.1146372 -0.2733064
vn 0.7785788 -0.6275373 -0.00346315
vn 0.8048568 -0.5905636 -0.05865318
vn 0.7461601 0.636629 -0.1948038
vn 0.05761182 0.9933751 -0.09943223
vn 0.979634 0.09037086 -0.1793052
vn -0.7931077 0.5967834 0.121777
vn -0.8203054 0.5447813 0.1741043
vn 0.8044963 -0.5884611 -0.08061746
vn -0.951741 -0.1077546 0.2873638
vn -0.9701903 -0.08165076 0.2281751
vn -0.07316757 -0.9771731 0.1994475
vn -0.03104585 -0.9939144 0.1056891
vn -0.7375272 -0.6379985 0.2213852
vn -0.732196 -0.6122212 0.2984534
vn -0.9853711 -0.06559354 0.1572934
vn -0.9701903 -0.08165076 0.2281751
vn -0.7375272 -0.6379985 0.2213852
vn -0.7931077 0.5967834 0.121777
vn -0.7251211 -0.6782019 0.1193387
vn -0.002929546 -0.9997485 0.02223409
vn -0.7053221 -0.7088773 -0.003740847
vn -0.03104585 -0.9939144 0.1056891
vn 0.8044963 -0.5884611 -0.08061746
vn -0.7718109 0.6271881 0.1046089
vn 0.03640623 0.9983941 -0.04340174
vn -0.7568909 0.6429552 0.1171531
vn 0.05761182 0.9933751 -0.09943223
vn 0.7461601 0.636629 -0.1948038
vn -0.9959022 -0.05124816 0.07451394
vn -0.9987915 -0.04026884 0.02817621
vn 0.778011 -0.623999 -0.0729662
vn 0.9904963 0.06941187 -0.1187402
vn 0.7523216 -0.6548041 -0.07241412
vn 0.979634 0.09037086 -0.1793052
vn 0.7386212 0.6627573 -0.1232538
vn 0.7215316 0.6921324 0.0185711
vn 0.02400202 -0.9972957 -0.06946357
vn 0.03600341 -0.9920373 -0.1206881
vn -0.6947209 -0.7155584 -0.07306762
vn -0.004755871 0.9964806 0.08368865
vn -0.02753194 0.9860253 0.1643048
vn 0.9984522 0.04469304 -0.03310358
vn 0.9992129 0.03379516 0.02077169
vn -0.745722 0.6537856 0.1283083
vn 0.7412502 -0.6668672 -0.07639527
vn -0.7284606 -0.6798457 -0.08458761
vn -0.01101624 -0.9909176 -0.1340184
vn -0.9991874 -0.03643134 0.01724065
vn 0.7073298 -0.7019593 -0.08329401
vn -0.7744373 0.6200752 0.1255135
vn 0.9988924 0.0315956 0.03486712
vn -0.08084987 0.9797351 0.1832549
vn 0.6566572 0.739382 0.1487132
vn 0.6982359 0.7060413 0.118204
vn 0.05181402 -0.9904925 -0.1274359
vn -0.0238537 -0.9907926 0.1332706
vn 0.6897262 -0.6793775 0.2504475
vn -0.6466255 -0.6970679 -0.3097934
vn 0.665121 -0.7149935 0.2154028
vn 0.8889685 -0.03159095 0.4568774
vn 0.7852512 0.06702964 0.6155384
vn 0.5932215 0.6580362 0.4637634
vn 0.6541129 -0.6960924 0.295959
vn 0.04817325 -0.9857164 -0.1613773
vn 0.8324711 -0.05471255 0.5513605
vn -0.6039707 -0.6346899 -0.4820666
vn 0.5952482 0.6096146 0.5234977
vn -0.635435 -0.6700517 -0.3837357
vn -0.916359 -0.03728116 -0.3986178
vn -0.9922585 -0.01013269 -0.1237755
vn -0.8628718 0.005240067 -0.5053957
vn -0.7240928 0.6854985 -0.07603597
vn -0.6644133 0.6994113 -0.2633988
vn 0.6003152 0.6594155 0.4525403
vn -0.0115444 0.9763426 0.2159211
vn -0.06969499 0.9076 0.4140107
vn -0.00406481 0.9811572 0.1931678
vn -0.7241536 0.6668847 -0.1756883
vn 0.0002639908 -0.9973787 -0.07235788
vn -0.04878421 -0.9823595 0.1805275
vn -0.6862925 -0.7273059 -0.005359108
vn 0.710768 -0.6429691 0.2853062
vn -0.6106292 -0.624206 -0.4873386
vn -0.8270919 0.04826851 -0.5599903
vn -0.9798441 -0.03113783 -0.1973222
vn -0.6414617 0.7460247 -0.1788129
vn -0.6039707 -0.6346899 -0.4820666
vn 0.04817325 -0.9857164 -0.1613773
vn -0.8628718 0.005240067 -0.5053957
vn 0.6541129 -0.6960924 0.295959
vn -0.6644133 0.6994113 -0.2633988
vn 0.6070562 -0.678545 0.4135935
vn 0.7933371 -0.07219855 0.6044862
vn 0.9586684 0.01249525 0.2842513
vn 0.8324711 -0.05471255 0.5513605
vn 0.7137829 0.6670081 0.2135746
vn 0.5952482 0.6096146 0.5234977
vn -0.6270762 0.7149272 -0.3092809
vn -0.0207986 0.9851007 0.1707166
vn 0.0266323 0.9995691 0.01234395
vn -0.00406481 0.9811572 0.1931678
vn 0.5930721 0.5882034 0.5498021
vn -0.2881191 -0.03159848 0.9570731
vn 0.7852512 0.06702964 0.6155384
vn 0.6897262 -0.6793775 0.2504475
vn -0.0238537 -0.9907926 0.1332706
vn 0.5932215 0.6580362 0.4637634
vn -0.6466255 -0.6970679 -0.3097934
vn -0.06969499 0.9076 0.4140107
vn -0.9922585 -0.01013269 -0.1237755
vn -0.7240928 0.6854985 -0.07603597
g VinePlantBase_0
f 3/3/3 2/2/2 1/1/1
f 2/2/2 4/4/4 1/1/1
f 4/4/4 5/5/5 1/1/1
f 4/4/4 2/2/2 6/6/6
f 5/5/5 4/4/4 6/6/6
f 5/5/5 7/7/7 1/1/1
f 7/7/7 5/5/5 8/8/8
f 2/2/2 9/9/9 6/6/6
f 9/9/9 2/2/2 10/10/10
f 2/2/2 11/11/11 10/10/10
f 11/11/11 12/12/12 10/10/10
f 9/9/9 13/13/13 6/6/6
f 13/13/13 9/9/9 10/10/10
f 13/13/13 14/14/14 6/6/6
f 15/15/15 13/13/13 10/10/10
f 14/14/14 16/16/16 6/6/6
f 17/17/17 15/15/15 10/10/10
f 12/12/12 18/18/18 10/10/10
f 18/18/18 17/17/17 10/10/10
f 18/18/18 12/12/12 19/19/19
f 17/17/17 18/18/18 19/19/19
f 20/20/20 17/17/17 19/19/19
f 12/12/12 21/21/21 19/19/19
f 21/21/21 22/22/22 19/19/19
f 22/22/22 21/21/21 23/23/23
f 24/24/24 22/22/22 23/23/23
f 25/25/25 20/20/20 19/19/19
f 22/22/22 24/24/24 8/8/8
f 16/16/16 26/26/26 6/6/6
f 26/26/26 16/16/16 27/27/27
f 26/26/26 5/5/5 6/6/6
f 5/5/5 26/26/26 27/27/27
f 16/16/16 28/28/28 27/27/27
f 28/28/28 25/25/25 27/27/27
f 29/29/29 25/25/25 19/19/19
f 22/22/22 29/29/29 19/19/19
f 25/25/25 29/29/29 27/27/27
f 29/29/29 22/22/22 27/27/27
f 5/5/5 30/30/30 8/8/8
f 30/30/30 5/5/5 27/27/27
f 22/22/22 30/30/30 27/27/27
f 30/30/30 22/22/22 8/8/8
f 33/33/33 32/32/32 31/31/31
f 32/32/32 34/34/34 31/31/31
f 34/34/34 32/32/32 35/35/35
f 32/32/32 36/36/36 35/35/35
f 36/36/36 37/37/37 35/35/35
f 37/37/37 38/38/38 35/35/35
f 34/34/34 39/39/39 31/31/31
f 39/39/39 34/34/34 35/35/35
f 39/39/39 40/40/40 31/31/31
f 41/41/41 39/39/39 35/35/35
f 40/40/40 42/42/42 31/31/31
f 42/42/42 43/43/43 31/31/31
f 44/44/44 41/41/41 35/35/35
f 38/38/38 44/44/44 35/35/35
f 43/43/43 42/42/42 45/45/45
f 42/42/42 46/46/46 45/45/45
f 44/44/44 38/38/38 47/47/47
f 48/48/48 44/44/44 47/47/47
f 46/46/46 49/49/49 45/45/45
f 49/49/49 48/48/48 47/47/47
f 49/49/49 50/50/50 45/45/45
f 50/50/50 49/49/49 47/47/47
f 53/53/53 52/52/52 51/51/51
f 52/52/52 54/54/54 51/51/51
f 55/55/55 53/53/53 51/51/51
f 53/53/53 55/55/55 56/56/56
f 57/57/57 55/55/55 51/51/51
f 55/55/55 57/57/57 56/56/56
f 58/58/58 53/53/53 56/56/56
f 59/59/59 58/58/58 56/56/56
f 54/54/54 60/60/60 51/51/51
f 60/60/60 54/54/54 61/61/61
f 60/60/60 62/62/62 51/51/51
f 62/62/62 60/60/60 61/61/61
f 54/54/54 63/63/63 61/61/61
f 63/63/63 64/64/64 61/61/61
f 65/65/65 57/57/57 51/51/51
f 62/62/62 65/65/65 51/51/51
f 57/57/57 65/65/65 66/66/66
f 65/65/65 62/62/62 66/66/66
f 67/67/67 59/59/59 56/56/56
f 59/59/59 67/67/67 68/68/68
f 69/69/69 67/67/67 56/56/56
f 67/67/67 69/69/69 68/68/68
f 70/70/70 59/59/59 68/68/68
f 64/64/64 70/70/70 68/68/68
f 64/64/64 71/71/71 61/61/61
f 71/71/71 64/64/64 68/68/68
f 71/71/71 72/72/72 61/61/61
f 72/72/72 71/71/71 68/68/68
f 57/57/57 73/73/73 56/56/56
f 73/73/73 69/69/69 56/56/56
f 73/73/73 57/57/57 74/74/74
f 69/69/69 73/73/73 74/74/74
f 75/75/75 57/57/57 66/66/66
f 57/57/57 75/75/75 74/74/74
f 72/72/72 76/76/76 61/61/61
f 76/76/76 72/72/72 77/77/77
f 76/76/76 62/62/62 61/61/61
f 62/62/62 76/76/76 77/77/77
f 69/69/69 78/78/78 68/68/68
f 78/78/78 72/72/72 68/68/68
f 78/78/78 69/69/69 79/79/79
f 72/72/72 78/78/78 79/79/79
f 62/62/62 80/80/80 66/66/66
f 80/80/80 62/62/62 77/77/77
f 81/81/81 69/69/69 74/74/74
f 69/69/69 81/81/81 79/79/79
f 75/75/75 82/82/82 74/74/74
f 82/82/82 75/75/75 66/66/66
f 82/82/82 83/83/83 74/74/74
f 84/84/84 82/82/82 66/66/66
f 83/83/83 85/85/85 74/74/74
f 85/85/85 81/81/81 74/74/74
f 81/81/81 85/85/85 79/79/79
f 86/86/86 84/84/84 66/66/66
f 80/80/80 86/86/86 66/66/66
f 86/86/86 80/80/80 77/77/77
f 85/85/85 87/87/87 79/79/79
f 88/88/88 86/86/86 77/77/77
f 87/87/87 89/89/89 79/79/79
f 89/89/89 88/88/88 77/77/77
f 89/89/89 90/90/90 79/79/79
f 90/90/90 89/89/89 77/77/77
f 90/90/90 72/72/72 79/79/79
f 72/72/72 90/90/90 77/77/77
f 93/93/93 92/92/92 91/91/91
f 92/92/92 94/94/94 91/91/91
f 95/95/95 93/93/93 91/91/91
f 93/93/93 95/95/95 96/96/96
f 97/97/97 93/93/93 96/96/96
f 98/98/98 97/97/97 96/96/96
f 99/99/99 95/95/95 91/91/91
f 95/95/95 99/99/99 96/96/96
f 100/100/100 99/99/99 91/91/91
f 99/99/99 101/101/101 96/96/96
f 102/102/102 100/100/100 91/91/91
f 101/101/101 103/103/103 96/96/96
f 94/94/94 104/104/104 91/91/91
f 104/104/104 102/102/102 91/91/91
f 104/104/104 94/94/94 105/105/105
f 102/102/102 104/104/104 105/105/105
f 94/94/94 106/106/106 105/105/105
f 107/107/107 102/102/102 105/105/105
f 106/106/106 108/108/108 105/105/105
f 109/109/109 107/107/107 105/105/105
f 110/110/110 98/98/98 96/96/96
f 103/103/103 110/110/110 96/96/96
f 98/98/98 110/110/110 111/111/111
f 110/110/110 103/103/103 111/111/111
f 112/112/112 98/98/98 111/111/111
f 108/108/108 112/112/112 111/111/111
f 103/103/103 113/113/113 111/111/111
f 113/113/113 109/109/109 111/111/111
f 114/114/114 109/109/109 105/105/105
f 108/108/108 114/114/114 105/105/105
f 109/109/109 114/114/114 111/111/111
f 114/114/114 108/108/108 111/111/111
f 117/117/117 116/116/116 115/115/115
f 116/116/116 118/118/118 115/115/115
f 119/119/119 117/117/117 115/115/115
f 117/117/117 119/119/119 120/120/120
f 121/121/121 117/117/117 120/120/120
f 122/122/122 121/121/121 120/120/120
f 123/123/123 119/119/119 115/115/115
f 119/119/119 123/123/123 120/120/120
f 124/124/124 123/123/123 115/115/115
f 123/123/123 125/125/125 120/120/120
f 126/126/126 124/124/124 115/115/115
f 125/125/125 127/127/127 120/120/120
f 118/118/118 128/128/128 115/115/115
f 128/128/128 126/126/126 115/115/115
f 128/128/128 118/118/118 129/129/129
f 126/126/126 128/128/128 129/129/129
f 118/118/118 130/130/130 129/129/129
f 131/131/131 126/126/126 129/129/129
f 130/130/130 132/132/132 129/129/129
f 133/133/133 131/131/131 129/129/129
f 134/134/134 122/122/122 120/120/120
f 127/127/127 134/134/134 120/120/120
f 122/122/122 134/134/134 135/135/135
f 134/134/134 127/127/127 135/135/135
f 136/136/136 122/122/122 135/135/135
f 132/132/132 136/136/136 135/135/135
f 127/127/127 137/137/137 135/135/135
f 137/137/137 133/133/133 135/135/135
f 132/132/132 138/138/138 129/129/129
f 138/138/138 132/132/132 135/135/135
f 138/138/138 133/133/133 129/129/129
f 133/133/133 138/138/138 135/135/135
f 141/141/141 140/140/140 139/139/139
f 142/142/142 141/141/141 139/139/139
f 140/140/140 143/143/143 139/139/139
f 144/144/144 142/142/142 139/139/139
f 143/143/143 145/145/145 139/139/139
f 146/146/146 144/144/144 139/139/139
f 145/145/145 147/147/147 139/139/139
f 147/147/147 146/146/146 139/139/139
