g VineShoot
v 0 0.000311 0.044825
v 0 0.042567 0.00099
v 0.135827 0.079733 -0.014871
v 0.146598 0.0357 0.029796
v 0 -0.042567 -0.00099
v 0.135739 0.034402 -0.059537
v 0 -0.000311 -0.044825
v 0.146509 -0.009631 -0.014871
v 0.25325 0.078731 -0.031418
v 0.252863 0.035019 0.014832
v 0.237976 -0.009887 -0.027734
v 0.238364 0.033826 -0.073984
v 0.342896 0.046088 -0.047714
v 0.33003 0.006926 0.000771
v 0.2995 -0.032274 -0.038993
v 0.312366 0.006887 -0.087479
v 0.407351 -0.007289 -0.061893
v 0.385243 -0.039178 -0.011451
v 0.344216 -0.070119 -0.048994
v 0.366324 -0.03823 -0.099435
v 0.45305 -0.067393 -0.072456
v 0.426314 -0.09363 -0.021009
v 0.381416 -0.119845 -0.05771
v 0.408153 -0.093607 -0.109157
v 0.488899 -0.122364 -0.078831
v 0.461125 -0.147156 -0.027218
v 0.417919 -0.175725 -0.064191
v 0.445693 -0.150933 -0.115804
v 0.521335 -0.16264 -0.080962
v 0.496775 -0.190921 -0.029514
v 0.463011 -0.229741 -0.066971
v 0.487571 -0.20146 -0.118419
v 0.55533 -0.184177 -0.079387
v 0.540368 -0.217842 -0.027495
v 0.527445 -0.268351 -0.063988
v 0.542408 -0.234687 -0.115881
v 0.604667 -0.18673 -0.073578
v 0.602035 -0.221517 -0.020353
v 0.613164 -0.274218 -0.054248
v 0.615796 -0.23943 -0.107473
v 0.686398 -0.159627 -0.06127
v 0.692297 -0.192032 -0.006817
v 0.718839 -0.240428 -0.038493
v 0.71294 -0.208023 -0.092946
v 0.808043 -0.089068 -0.041206
v 0.818493 -0.118983 0.013984
v 0.852675 -0.163199 -0.016456
v 0.842225 -0.133284 -0.071645
v 1 0.034655 -0.012934
v 1 0.006616 0.04269
v 1 -0.006616 -0.04269
v 1 -0.034655 0.012934
vn 0.1218165 -0.1307807 0.9838989
vn -0.245796 0.9668708 0.06888454
vn -0.1378924 0.9903125 0.01633587
vn 0.1084689 0.07531579 0.9912426
vn 0.2339274 -0.9703737 0.06043992
vn -0.1329138 0.06888581 -0.9887308
vn -0.08785472 -0.1180996 -0.9891077
vn 0.1389801 -0.9898844 0.02852213
vn 0.1545608 0.9877992 -0.01907112
vn 0.1818677 0.159636 0.9702785
vn -0.1416533 -0.9882969 0.05660017
vn -0.1311305 0.1331757 -0.9823793
vn 0.4749073 0.8763944 -0.07997408
vn 0.2685299 0.1447436 0.9523345
vn -0.4716277 -0.8747578 0.1112034
vn -0.116313 0.1435311 -0.9827869
vn 0.6977079 0.7024634 -0.1405304
vn 0.2889067 0.07608423 0.9543291
vn -0.7032002 -0.6960718 0.1448916
vn -0.1287694 0.09630118 -0.9869876
vn 0.79101 0.5846665 -0.1801895
vn 0.2328515 0.0242733 0.9722093
vn -0.8000295 -0.5819885 0.1457471
vn -0.1719745 0.02439416 -0.9847993
vn 0.7845312 0.5850731 -0.2054272
vn 0.1271576 0.001195843 0.9918818
vn -0.7941197 -0.5960223 0.118875
vn -0.2178766 -0.08058883 -0.9726434
vn 0.65143 0.7218241 -0.2336853
vn -0.008531974 -0.02960954 0.9995251
vn -0.6494702 -0.755852 0.08292352
vn -0.208397 -0.2529475 -0.9447688
vn 0.2907542 0.9196686 -0.2639537
vn -0.1001637 -0.04390224 0.9940019
vn -0.2897819 -0.9524964 0.09368588
vn -0.04085139 -0.400132 -0.9155466
vn -0.1302382 0.9534664 -0.2719188
vn -0.1482924 0.02963554 0.9884995
vn 0.1271777 -0.9776765 0.167256
vn 0.1718408 -0.3590221 -0.9173734
vn -0.3766676 0.8838132 -0.2774812
vn -0.2048386 0.09932215 0.9737434
vn 0.3810479 -0.8947501 0.2328622
vn 0.2622377 -0.2518417 -0.9315616
vn -0.4992248 0.8383666 -0.2188974
vn -0.2709915 0.2079507 0.9398511
vn 0.53391 -0.8130951 0.2319838
vn 0.3228506 -0.2014793 -0.9247559
vn -0.5541254 0.8308835 -0.0507721
vn -0.4192751 0.471736 0.7756763
vn 0.1949219 0.02998744 -0.9803602
vn 0.5573928 -0.7593374 0.3357382
g VineShoot_0
f 3/3/3 2/2/2 1/1/1
f 4/4/4 3/3/3 1/1/1
f 4/4/4 1/1/1 5/5/5
f 3/3/3 6/6/6 2/2/2
f 6/6/6 7/7/7 2/2/2
f 8/8/8 5/5/5 7/7/7
f 8/8/8 4/4/4 5/5/5
f 6/6/6 8/8/8 7/7/7
f 9/9/9 3/3/3 4/4/4
f 10/10/10 4/4/4 8/8/8
f 10/10/10 9/9/9 4/4/4
f 11/11/11 8/8/8 6/6/6
f 11/11/11 10/10/10 8/8/8
f 12/12/12 6/6/6 3/3/3
f 9/9/9 12/12/12 3/3/3
f 12/12/12 11/11/11 6/6/6
f 13/13/13 9/9/9 10/10/10
f 14/14/14 10/10/10 11/11/11
f 14/14/14 13/13/13 10/10/10
f 15/15/15 11/11/11 12/12/12
f 15/15/15 14/14/14 11/11/11
f 16/16/16 12/12/12 9/9/9
f 13/13/13 16/16/16 9/9/9
f 16/16/16 15/15/15 12/12/12
f 17/17/17 13/13/13 14/14/14
f 18/18/18 14/14/14 15/15/15
f 18/18/18 17/17/17 14/14/14
f 19/19/19 15/15/15 16/16/16
f 19/19/19 18/18/18 15/15/15
f 20/20/20 16/16/16 13/13/13
f 17/17/17 20/20/20 13/13/13
f 20/20/20 19/19/19 16/16/16
f 21/21/21 17/17/17 18/18/18
f 22/22/22 18/18/18 19/19/19
f 22/22/22 21/21/21 18/18/18
f 23/23/23 19/19/19 20/20/20
f 23/23/23 22/22/22 19/19/19
f 24/24/24 20/20/20 17/17/17
f 21/21/21 24/24/24 17/17/17
f 24/24/24 23/23/23 20/20/20
f 25/25/25 21/21/21 22/22/22
f 26/26/26 22/22/22 23/23/23
f 26/26/26 25/25/25 22/22/22
f 27/27/27 23/23/23 24/24/24
f 27/27/27 26/26/26 23/23/23
f 28/28/28 24/24/24 21/21/21
f 25/25/25 28/28/28 21/21/21
f 28/28/28 27/27/27 24/24/24
f 29/29/29 25/25/25 26/26/26
f 30/30/30 26/26/26 27/27/27
f 30/30/30 29/29/29 26/26/26
f 31/31/31 27/27/27 28/28/28
f 31/31/31 30/30/30 27/27/27
f 32/32/32 28/28/28 25/25/25
f 29/29/29 32/32/32 25/25/25
f 32/32/32 31/31/31 28/28/28
f 33/33/33 29/29/29 30/30/30
f 34/34/34 30/30/30 31/31/31
f 34/34/34 33/33/33 30/30/30
f 35/35/35 31/31/31 32/32/32
f 35/35/35 34/34/34 31/31/31
f 36/36/36 32/32/32 29/29/29
f 33/33/33 36/36/36 29/29/29
f 36/36/36 35/35/35 32/32/32
f 37/37/37 33/33/33 34/34/34
f 38/38/38 34/34/34 35/35/35
f 38/38/38 37/37/37 34/34/34
f 39/39/39 35/35/35 36/36/36
f 39/39/39 38/38/38 35/35/35
f 40/40/40 36/36/36 33/33/33
f 37/37/37 40/40/40 33/33/33
f 40/40/40 39/39/39 36/36/36
f 41/41/41 37/37/37 38/38/38
f 42/42/42 38/38/38 39/39/39
f 42/42/42 41/41/41 38/38/38
f 43/43/43 39/39/39 40/40/40
f 43/43/43 42/42/42 39/39/39
f 44/44/44 40/40/40 37/37/37
f 41/41/41 44/44/44 37/37/37
f 44/44/44 43/43/43 40/40/40
f 45/45/45 41/41/41 42/42/42
f 46/46/46 42/42/42 43/43/43
f 46/46/46 45/45/45 42/42/42
f 47/47/47 43/43/43 44/44/44
f 47/47/47 46/46/46 43/43/43
f 48/48/48 44/44/44 41/41/41
f 45/45/45 48/48/48 41/41/41
f 48/48/48 47/47/47 44/44/44
f 49/49/49 45/45/45 46/46/46
f 50/50/50 49/49/49 46/46/46
f 50/50/50 46/46/46 47/47/47
f 49/49/49 51/51/51 45/45/45
f 51/51/51 48/48/48 45/45/45
f 52/52/52 50/50/50 47/47/47
f 52/52/52 47/47/47 48/48/48
f 51/51/51 52/52/52 48/48/48
