g WaterbedSides
v -0.201408 1 0
v -0.201408 1 0.90897
v -0.201408 -1 0.90897
v -0.201408 -1 0
v 0.008393 1 0
v -0.201408 1 0
v -0.201408 -1 0
v 0.008393 -1 0
v 0.008393 -1 0
v -0.201408 -1 0
v -0.201408 -1 0.90897
v 0.008393 -1 0.90897
v 0.008393 1 0.90897
v -0.201408 1 0.90897
v -0.201408 1 0
v 0.008393 1 0
v 0.008393 -1 0.90897
v -0.201408 -1 0.90897
v -0.201408 1 0.90897
v 0.008393 1 0.90897
v 0.008393 1 0.90897
v 0.008393 1 0
v 0.008393 -1 0
v 0.008393 -1 0.90897
vt 0.491661 0.634278
vt 0.491661 0.738537
vt 0.262261 0.738537
vt 0.262261 0.634278
vt 0.405685 0.521445
vt 0.332311 0.521445
vt 0.332311 0.521446
vt 0.405685 0.521446
vt 0.405685 0.521446
vt 0.332311 0.521446
vt 0.332311 0.742995
vt 0.405685 0.742995
vt 0.405685 0.742995
vt 0.332311 0.742995
vt 0.332311 0.521445
vt 0.405685 0.521445
vt 0.259636 0.509087
vt 0.259636 0.743982
vt 0.491891 0.743982
vt 0.491891 0.509087
vt 0.491661 0.738537
vt 0.491661 0.634278
vt 0.262261 0.634278
vt 0.262261 0.738537
vn -1 0 0
vn -1 0 0
vn -1 0 0
vn -1 0 0
vn 0 0 -1
vn 0 0 -1
vn 0 0 -1
vn 0 0 -1
vn 0 -1 0
vn 0 -1 0
vn 0 -1 0
vn 0 -1 0
vn 0 1 0
vn 0 1 0
vn 0 1 0
vn 0 1 0
vn 0 0 1
vn 0 0 1
vn 0 0 1
vn 0 0 1
vn 1 0 0
vn 1 0 0
vn 1 0 0
vn 1 0 0
g WaterbedSides_0
f 3/3/3 2/2/2 1/1/1
f 4/4/4 3/3/3 1/1/1
f 7/7/7 6/6/6 5/5/5
f 8/8/8 7/7/7 5/5/5
f 11/11/11 10/10/10 9/9/9
f 12/12/12 11/11/11 9/9/9
f 15/15/15 14/14/14 13/13/13
f 16/16/16 15/15/15 13/13/13
f 19/19/19 18/18/18 17/17/17
f 20/20/20 19/19/19 17/17/17
f 23/23/23 22/22/22 21/21/21
f 24/24/24 23/23/23 21/21/21
