g WattleLeaf_Atlas
v 2.15659 -0.500875 0.196397
v 2.905503 0.500875 0.067918
v 2.905503 -0.500875 0.067918
v 2.15659 0.500875 0.196397
v 1.407677 -0.500875 0.161357
v 1.407677 0.500875 0.161357
v 0.658763 -0.500875 0.044558
v 0.658763 0.500875 0.044558
v -0.09015 -0.500875 -0.083921
v -0.09015 0.500875 -0.083921
v 2.15659 -0.233519 -0.406032
v 2.905503 0.132903 0.587811
v 2.905503 -0.115777 -0.437926
v 2.15659 0.015161 0.619705
v 1.407677 -0.201407 -0.414731
v 1.407677 0.047273 0.611007
v 0.658763 -0.094369 -0.443725
v 0.658763 0.154311 0.582012
v -0.09015 0.023372 -0.47562
v -0.09015 0.272052 0.550118
v 2.15659 -0.500875 0.196397
v 2.905503 -0.500875 0.067918
v 2.905503 0.500875 0.067918
v 2.15659 0.500875 0.196397
v 1.407677 -0.500875 0.161357
v 1.407677 0.500875 0.161357
v 0.658763 -0.500875 0.044558
v 0.658763 0.500875 0.044558
v -0.09015 -0.500875 -0.083921
v -0.09015 0.500875 -0.083921
v 2.15659 -0.233519 -0.406032
v 2.905503 -0.115777 -0.437926
v 2.905503 0.132903 0.587811
v 2.15659 0.015161 0.619705
v 1.407677 -0.201407 -0.414731
v 1.407677 0.047273 0.611007
v 0.658763 -0.094369 -0.443725
v 0.658763 0.154311 0.582012
v -0.09015 0.023372 -0.47562
v -0.09015 0.272052 0.550118
vt 0.088269 0.501272
vt 0.019938 0.544181
vt 0.088269 0.544181
vt 0.019938 0.501272
vt 0.088269 0.458363
vt 0.019938 0.458363
vt 0.088269 0.415454
vt 0.019938 0.415454
vt 0.088269 0.372545
vt 0.019938 0.372545
vt 0.088269 0.501272
vt 0.019938 0.544181
vt 0.088269 0.544181
vt 0.019938 0.501272
vt 0.088269 0.458363
vt 0.019938 0.458363
vt 0.088269 0.415454
vt 0.019938 0.415454
vt 0.088269 0.372545
vt 0.019938 0.372545
vt 0.088269 0.501272
vt 0.088269 0.544181
vt 0.019938 0.544181
vt 0.019938 0.501272
vt 0.088269 0.458363
vt 0.019938 0.458363
vt 0.088269 0.415454
vt 0.019938 0.415454
vt 0.088269 0.372545
vt 0.019938 0.372545
vt 0.088269 0.501272
vt 0.088269 0.544181
vt 0.019938 0.544181
vt 0.019938 0.501272
vt 0.088269 0.458363
vt 0.019938 0.458363
vt 0.088269 0.415454
vt 0.019938 0.415454
vt 0.088269 0.372545
vt 0.019938 0.372545
vn 0.06226205 0 0.9980598
vn 0.1690839 0 0.9856017
vn 0.1690839 0 0.9856017
vn 0.06226205 0 0.9980598
vn -0.100856 0 0.9949011
vn -0.100856 0 0.9949011
vn -0.1616034 0 0.9868558
vn -0.1616034 0 0.9868558
vn -0.1690839 0 0.9856017
vn -0.1690839 0 0.9856017
vn 0.05920691 -0.9701417 0.2352014
vn 0.1607087 -0.9592144 0.2325523
vn 0.1607087 -0.9592144 0.2325522
vn 0.05900317 -0.9701534 0.2352042
vn -0.09585549 -0.9673715 0.2345297
vn -0.09568986 -0.967387 0.2345334
vn -0.1535979 -0.9603142 0.2328188
vn -0.1535607 -0.9603198 0.2328201
vn -0.1607076 -0.9592145 0.2325522
vn -0.1607076 -0.9592145 0.2325522
vn -0.06226205 0 -0.9980598
vn -0.1690839 0 -0.9856017
vn -0.1690839 0 -0.9856017
vn -0.06226205 0 -0.9980598
vn 0.100856 0 -0.9949011
vn 0.100856 0 -0.9949011
vn 0.1616034 0 -0.9868558
vn 0.1616034 0 -0.9868558
vn 0.1690839 0 -0.9856017
vn 0.1690839 0 -0.9856017
vn -0.05920691 0.9701417 -0.2352014
vn -0.1607087 0.9592144 -0.2325522
vn -0.1607087 0.9592144 -0.2325523
vn -0.05900317 0.9701534 -0.2352042
vn 0.09585549 0.9673715 -0.2345297
vn 0.09568986 0.967387 -0.2345334
vn 0.1535979 0.9603142 -0.2328188
vn 0.1535607 0.9603198 -0.2328201
vn 0.1607076 0.9592145 -0.2325522
vn 0.1607076 0.9592145 -0.2325522
g WattleLeaf_Atlas_0
f 3/3/3 2/2/2 1/1/1
f 2/2/2 4/4/4 1/1/1
f 1/1/1 4/4/4 5/5/5
f 4/4/4 6/6/6 5/5/5
f 5/5/5 6/6/6 7/7/7
f 6/6/6 8/8/8 7/7/7
f 7/7/7 8/8/8 9/9/9
f 8/8/8 10/10/10 9/9/9
f 13/13/13 12/12/12 11/11/11
f 12/12/12 14/14/14 11/11/11
f 11/11/11 14/14/14 15/15/15
f 14/14/14 16/16/16 15/15/15
f 15/15/15 16/16/16 17/17/17
f 16/16/16 18/18/18 17/17/17
f 17/17/17 18/18/18 19/19/19
f 18/18/18 20/20/20 19/19/19
f 23/23/23 22/22/22 21/21/21
f 24/24/24 23/23/23 21/21/21
f 24/24/24 21/21/21 25/25/25
f 26/26/26 24/24/24 25/25/25
f 26/26/26 25/25/25 27/27/27
f 28/28/28 26/26/26 27/27/27
f 28/28/28 27/27/27 29/29/29
f 30/30/30 28/28/28 29/29/29
f 33/33/33 32/32/32 31/31/31
f 34/34/34 33/33/33 31/31/31
f 34/34/34 31/31/31 35/35/35
f 36/36/36 34/34/34 35/35/35
f 36/36/36 35/35/35 37/37/37
f 38/38/38 36/36/36 37/37/37
f 38/38/38 37/37/37 39/39/39
f 40/40/40 38/38/38 39/39/39
