g Wattle_FullGrown_Impostor
v 1.880332 -0.9006293 0
v 0.6936872 -1.914728 0
v -0.8905619 -1.914728 0
v -1.880332 -0.7154076 0
v -1.880332 1.031591 0
v -0.3734687 1.845935 0
v 1.023851 1.845935 0
v 1.880332 0.4191632 0
vt 0 0.2696595
vt 0.3155413 0
vt 0.7368098 0
vt 1 0.3189119
vt 1 0.7834573
vt 0.5993093 1
vt 0.2277473 1
vt 0 0.6206062
vn 0 0 -1
vn 0 0 -0.9999999
vn 0 0 -1
vn 0 0 -1
vn 0 0 -1
vn 0 0 -1
vn 0 0 -1
vn 0 0 -1
g Wattle_FullGrown_Impostor_0
f 4/4/4 6/6/6 8/8/8
f 8/8/8 2/2/2 4/4/4
f 6/6/6 7/7/7 8/8/8
f 4/4/4 5/5/5 6/6/6
f 2/2/2 3/3/3 4/4/4
f 8/8/8 1/1/1 2/2/2
