g WeatherStationTop1
v 0.137411 -0.063479 -0.082776
v 0.140403 0.063334 0.082493
v 0.137411 0.063479 -0.082776
v 0.140403 -0.063334 0.082493
v 0.063111 -0.140718 0.082777
v 0.059942 -0.14086 -0.082491
v -0.059942 -0.14086 -0.082491
v -0.063111 -0.140718 0.082777
v -0.140403 -0.063334 0.082494
v -0.137411 -0.063479 -0.082776
v -0.137411 0.063479 -0.082776
v -0.140403 0.063334 0.082494
v -0.137411 0.063479 -0.082776
v -0.063111 0.140718 0.082777
v -0.140403 0.063334 0.082494
v -0.059942 0.14086 -0.082491
v 0.063111 0.140718 0.082777
v 0.059942 0.14086 -0.082491
v 0.140403 0.063334 0.082493
v 0.137411 0.063479 -0.082776
v -0.140403 0.063334 0.082494
v -0.202805 -0.091482 0.110041
v -0.140403 -0.063334 0.082494
v -0.202805 0.091482 0.110041
v -0.063111 0.140718 0.082777
v -0.091161 0.20326 0.110449
v 0.063111 0.140718 0.082777
v 0.091161 0.20326 0.110449
v 0.140403 0.063334 0.082493
v 0.202805 0.091482 0.11004
v 0.140403 -0.063334 0.082493
v 0.202805 -0.091482 0.11004
v 0.059942 -0.14086 -0.082491
v 0.137411 -0.063479 -0.082776
v 0.137411 0.063479 -0.082776
v 0.059942 0.14086 -0.082491
v -0.059942 -0.14086 -0.082491
v -0.059942 0.14086 -0.082491
v -0.137411 -0.063479 -0.082776
v -0.137411 0.063479 -0.082776
v 0.063111 -0.140718 0.082777
v 0.202805 -0.091482 0.11004
v 0.140403 -0.063334 0.082493
v 0.091161 -0.20326 0.110449
v -0.063111 -0.140718 0.082777
v -0.091161 -0.20326 0.110449
v -0.140403 -0.063334 0.082494
v -0.202805 -0.091482 0.110041
v 0.076944 -0.171468 0.150536
v 0.171085 -0.077215 0.321197
v 0.17114 -0.077157 0.150139
v 0.076887 -0.171524 0.321594
v -0.076944 -0.171468 0.150536
v -0.076886 -0.171524 0.321594
v -0.17114 -0.077157 0.15014
v -0.171084 -0.077215 0.321198
v 0.17114 -0.077157 0.150139
v 0.171085 -0.077215 0.321197
v 0.171085 0.077215 0.321197
v 0.17114 0.077157 0.150139
v 0.076887 0.171524 0.321594
v 0.076944 0.171468 0.150536
v -0.076886 0.171524 0.321594
v -0.076944 0.171468 0.150536
v -0.171084 0.077215 0.321198
v -0.17114 0.077157 0.15014
v -0.171084 -0.077215 0.321198
v -0.17114 -0.077157 0.15014
v -0.122183 0.058116 0.411105
v -0.202804 0.091482 0.361284
v -0.09116 0.20326 0.361693
v -0.057738 0.122638 0.411513
v 0.091162 0.20326 0.361693
v 0.057739 0.122638 0.411513
v 0.202805 0.091482 0.361284
v 0.122184 0.058116 0.411104
v 0.046805 0.099414 0.526445
v 0.099045 0.04711 0.526114
v -0.046804 0.099414 0.526445
v -0.099044 0.04711 0.526114
v -0.099044 -0.04711 0.526114
v -0.122183 -0.058116 0.411105
v -0.046804 -0.099414 0.526445
v -0.057738 -0.122638 0.411513
v 0.046805 -0.099414 0.526445
v 0.057739 -0.122638 0.411513
v 0.099045 -0.04711 0.526114
v 0.122184 -0.058116 0.411104
v 0.099045 0.04711 0.526114
v 0.122184 0.058116 0.411104
v 0.202805 -0.091482 0.361284
v 0.202805 0.091482 0.361284
v 0.091162 -0.20326 0.361693
v -0.09116 -0.20326 0.361693
v -0.202804 -0.091482 0.361284
v -0.202804 0.091482 0.361284
v -0.122183 0.058116 0.411105
v 0.046805 0.099414 0.526445
v 0.099045 0.04711 0.526114
v 0.099045 -0.04711 0.526114
v 0.046805 -0.099414 0.526445
v -0.046804 0.099414 0.526445
v -0.046804 -0.099414 0.526445
v -0.099044 0.04711 0.526114
v -0.099044 -0.04711 0.526114
v -0.202826 0.091461 0.133612
v -0.202805 0.091482 0.110041
v -0.091161 0.20326 0.110449
v -0.091182 0.203238 0.13402
v 0.091161 0.20326 0.110449
v 0.091183 0.203238 0.13402
v 0.202805 0.091482 0.11004
v 0.202826 0.091461 0.133611
v -0.202826 -0.091461 0.133612
v -0.202805 0.091482 0.110041
v -0.202826 0.091461 0.133612
v -0.202805 -0.091482 0.110041
v -0.091182 -0.203238 0.13402
v -0.091161 -0.20326 0.110449
v 0.091183 -0.203238 0.13402
v 0.091161 -0.20326 0.110449
v 0.202826 -0.091461 0.133611
v 0.202805 -0.091482 0.11004
v 0.202826 0.091461 0.133611
v 0.202805 0.091482 0.11004
v -0.091139 0.203281 0.338122
v -0.202804 0.091482 0.361284
v -0.202783 0.091504 0.337713
v -0.09116 0.20326 0.361693
v 0.09114 0.203281 0.338122
v 0.091162 0.20326 0.361693
v 0.202784 0.091504 0.337713
v 0.202805 0.091482 0.361284
v -0.202783 0.091504 0.337713
v -0.202804 0.091482 0.361284
v -0.202804 -0.091482 0.361284
v -0.202783 -0.091504 0.337713
v -0.09116 -0.20326 0.361693
v -0.091139 -0.203281 0.338122
v 0.091162 -0.20326 0.361693
v 0.09114 -0.203281 0.338122
v 0.202805 -0.091482 0.361284
v 0.202784 -0.091504 0.337713
v 0.202805 0.091482 0.361284
v 0.202784 0.091504 0.337713
v -0.17114 0.077157 0.15014
v -0.202826 0.091461 0.133612
v -0.091182 0.203238 0.13402
v -0.076944 0.171468 0.150536
v 0.091183 0.203238 0.13402
v 0.076944 0.171468 0.150536
v 0.202826 0.091461 0.133611
v 0.17114 0.077157 0.150139
v -0.17114 -0.077157 0.15014
v -0.202826 0.091461 0.133612
v -0.17114 0.077157 0.15014
v -0.202826 -0.091461 0.133612
v -0.076944 -0.171468 0.150536
v -0.091182 -0.203238 0.13402
v 0.076944 -0.171468 0.150536
v 0.091183 -0.203238 0.13402
v 0.17114 -0.077157 0.150139
v 0.202826 -0.091461 0.133611
v 0.17114 0.077157 0.150139
v 0.202826 0.091461 0.133611
v -0.076886 0.171524 0.321594
v -0.202783 0.091504 0.337713
v -0.171084 0.077215 0.321198
v -0.091139 0.203281 0.338122
v 0.076887 0.171524 0.321594
v 0.09114 0.203281 0.338122
v 0.171085 0.077215 0.321197
v 0.202784 0.091504 0.337713
v -0.171084 0.077215 0.321198
v -0.202783 0.091504 0.337713
v -0.202783 -0.091504 0.337713
v -0.171084 -0.077215 0.321198
v -0.091139 -0.203281 0.338122
v -0.076886 -0.171524 0.321594
v 0.09114 -0.203281 0.338122
v 0.076887 -0.171524 0.321594
v 0.202784 -0.091504 0.337713
v 0.171085 -0.077215 0.321197
v 0.202784 0.091504 0.337713
v 0.171085 0.077215 0.321197
vt 0.036906 0.873454
vt 0.035611 0.809758
vt 0.036906 0.873454
vt 0.035611 0.809758
vt 0.06907 0.809649
vt 0.070442 0.873344
vt 0.122339 0.873344
vt 0.123711 0.809649
vt 0.15717 0.809758
vt 0.155875 0.873454
vt 0.155875 0.873454
vt 0.15717 0.809758
vt 0.155875 0.873454
vt 0.123711 0.809649
vt 0.15717 0.809758
vt 0.122339 0.873344
vt 0.06907 0.809649
vt 0.070442 0.873344
vt 0.035611 0.809758
vt 0.036906 0.873454
vt 0.15717 0.809758
vt 0.184184 0.799141
vt 0.15717 0.809758
vt 0.184184 0.799141
vt 0.123711 0.809649
vt 0.135854 0.798983
vt 0.06907 0.809649
vt 0.056927 0.798983
vt 0.035611 0.809758
vt 0.008597 0.799141
vt 0.035611 0.809758
vt 0.008597 0.799141
vt 0.070442 0.873344
vt 0.036906 0.873454
vt 0.036906 0.873454
vt 0.070442 0.873344
vt 0.122339 0.873344
vt 0.122339 0.873344
vt 0.155875 0.873454
vt 0.155875 0.873454
vt 0.06907 0.809649
vt 0.008597 0.799141
vt 0.035611 0.809758
vt 0.056927 0.798983
vt 0.123711 0.809649
vt 0.135854 0.798983
vt 0.15717 0.809758
vt 0.184184 0.799141
vt 0.416528 0.700298
vt 0.404769 0.605413
vt 0.404769 0.700518
vt 0.416535 0.605192
vt 0.435743 0.700298
vt 0.435736 0.605192
vt 0.447501 0.700518
vt 0.447501 0.605412
vt 0.404769 0.700518
vt 0.404769 0.605413
vt 0.404769 0.605412
vt 0.404769 0.700518
vt 0.416535 0.605192
vt 0.416528 0.700298
vt 0.435736 0.605192
vt 0.435743 0.700297
vt 0.447501 0.605412
vt 0.447501 0.700518
vt 0.447501 0.605412
vt 0.447501 0.700518
vt 0.149283 0.683109
vt 0.184183 0.70231
vt 0.135853 0.702152
vt 0.121385 0.682951
vt 0.056927 0.702152
vt 0.071396 0.682951
vt 0.008597 0.70231
vt 0.043498 0.683109
vt 0.076129 0.638656
vt 0.053514 0.638784
vt 0.116651 0.638656
vt 0.139266 0.638784
vt 0.139266 0.638784
vt 0.149283 0.683109
vt 0.116651 0.638656
vt 0.121385 0.682951
vt 0.076129 0.638656
vt 0.071396 0.682951
vt 0.053514 0.638784
vt 0.043498 0.683109
vt 0.053514 0.638784
vt 0.043498 0.683109
vt 0.008597 0.70231
vt 0.008597 0.70231
vt 0.056927 0.702152
vt 0.135853 0.702152
vt 0.184183 0.70231
vt 0.184183 0.70231
vt 0.149283 0.683109
vt 0.245824 0.560881
vt 0.219626 0.58711
vt 0.219626 0.63436
vt 0.245824 0.660589
vt 0.292767 0.560881
vt 0.292767 0.660589
vt 0.318964 0.58711
vt 0.318964 0.63436
vt 0.184184 0.790057
vt 0.184184 0.799141
vt 0.135854 0.798983
vt 0.135863 0.789899
vt 0.056927 0.798983
vt 0.056918 0.789899
vt 0.008597 0.799141
vt 0.008597 0.790057
vt 0.184184 0.790057
vt 0.184184 0.799141
vt 0.184184 0.790057
vt 0.184184 0.799141
vt 0.135863 0.789899
vt 0.135854 0.798983
vt 0.056918 0.789899
vt 0.056927 0.798983
vt 0.008597 0.790057
vt 0.008597 0.799141
vt 0.008597 0.790057
vt 0.008597 0.799141
vt 0.135844 0.711237
vt 0.184183 0.70231
vt 0.184183 0.711394
vt 0.135853 0.702152
vt 0.056936 0.711237
vt 0.056927 0.702152
vt 0.008597 0.711395
vt 0.008597 0.70231
vt 0.184183 0.711394
vt 0.184183 0.70231
vt 0.184183 0.70231
vt 0.184183 0.711394
vt 0.135853 0.702152
vt 0.135844 0.711237
vt 0.056927 0.702152
vt 0.056936 0.711237
vt 0.008597 0.70231
vt 0.008597 0.711395
vt 0.008597 0.70231
vt 0.008597 0.711395
vt 0.184184 0.784739
vt 0.184184 0.790057
vt 0.135863 0.789899
vt 0.135868 0.784581
vt 0.056918 0.789899
vt 0.056912 0.784581
vt 0.008597 0.790057
vt 0.008597 0.784739
vt 0.184184 0.784739
vt 0.184184 0.790057
vt 0.184184 0.784739
vt 0.184184 0.790057
vt 0.135868 0.784581
vt 0.135863 0.789899
vt 0.056912 0.784581
vt 0.056918 0.789899
vt 0.008597 0.784739
vt 0.008597 0.790057
vt 0.008597 0.784739
vt 0.008597 0.790057
vt 0.135839 0.716554
vt 0.184183 0.711394
vt 0.184183 0.716712
vt 0.135844 0.711237
vt 0.056942 0.716554
vt 0.056936 0.711237
vt 0.008597 0.716712
vt 0.008597 0.711395
vt 0.184183 0.716712
vt 0.184183 0.711394
vt 0.184183 0.711394
vt 0.184183 0.716712
vt 0.135844 0.711237
vt 0.135839 0.716554
vt 0.056936 0.711237
vt 0.056942 0.716554
vt 0.008597 0.711395
vt 0.008597 0.716712
vt 0.008597 0.711395
vt 0.008597 0.716712
vn 0.9344258 -0.3557613 -0.01679831
vn 0.9355116 0.3528953 -0.01681892
vn 0.9344258 0.3557613 -0.01679831
vn 0.9355116 -0.3528954 -0.01681892
vn 0.3639258 -0.9314088 -0.005979741
vn 0.3563955 -0.934317 -0.005836951
vn -0.3563961 -0.9343166 -0.005836943
vn -0.3639275 -0.9314081 -0.005979755
vn -0.9355122 -0.3528936 -0.01681885
vn -0.9344261 -0.3557606 -0.01679823
vn -0.9344261 0.3557606 -0.01679823
vn -0.9355122 0.3528936 -0.01681885
vn -0.9344261 0.3557606 -0.01679823
vn -0.3639275 0.9314081 -0.005979753
vn -0.9355122 0.3528936 -0.01681885
vn -0.3563961 0.9343166 -0.005836942
vn 0.3639258 0.9314088 -0.005979739
vn 0.3563955 0.934317 -0.005836949
vn 0.9355116 0.3528953 -0.01681892
vn 0.9344258 0.3557613 -0.01679831
vn -0.3501354 0.1314035 -0.9274365
vn -0.3476665 -0.136994 -0.9275563
vn -0.3501354 -0.1314035 -0.9274365
vn -0.3476665 0.136994 -0.9275563
vn -0.1302779 0.3517262 -0.9269932
vn -0.1351375 0.3495955 -0.9271035
vn 0.1302757 0.3517282 -0.9269927
vn 0.135135 0.3495978 -0.927103
vn 0.3501334 0.1314057 -0.9274369
vn 0.3476643 0.1369965 -0.9275568
vn 0.3501334 -0.1314057 -0.9274369
vn 0.3476642 -0.1369965 -0.9275568
vn -0.0006820911 0 -0.9999998
vn -0.003678861 0 -0.9999932
vn -0.003678861 0 -0.9999932
vn -0.0008988745 0 -0.9999996
vn 0.0008988745 0 -0.9999996
vn 0.0006820911 0 -0.9999998
vn 0.003678861 0 -0.9999932
vn 0.003678861 0 -0.9999932
vn 0.1302756 -0.3517282 -0.9269927
vn 0.3476642 -0.1369965 -0.9275568
vn 0.3501334 -0.1314057 -0.9274369
vn 0.1351349 -0.3495978 -0.927103
vn -0.1302778 -0.3517262 -0.9269932
vn -0.1351375 -0.3495955 -0.9271035
vn -0.3501354 -0.1314035 -0.9274365
vn -0.3476665 -0.136994 -0.9275563
vn 0.3558764 -0.9345329 -0.000191524
vn 0.9349849 -0.3546872 0.0001844982
vn 0.9353361 -0.3537607 0.0001849145
vn 0.3549499 -0.9348853 -0.0001919372
vn -0.3558767 -0.9345329 -0.000189427
vn -0.3549495 -0.9348854 -0.0001898459
vn -0.9353358 -0.353761 0.0001903931
vn -0.9349851 -0.3546868 0.0001899752
vn 0.9353361 -0.3537607 0.0001849145
vn 0.9349849 -0.3546872 0.0001844982
vn 0.9349849 0.3546872 0.0001845079
vn 0.9353361 0.3537607 0.0001849241
vn 0.3549499 0.9348853 -0.0001919276
vn 0.3558764 0.9345329 -0.0001915143
vn -0.3549495 0.9348854 -0.0001898556
vn -0.3558767 0.9345329 -0.0001894366
vn -0.9349851 0.3546868 0.0001899656
vn -0.9353358 0.353761 0.0001903835
vn -0.9349851 -0.3546868 0.0001899752
vn -0.9353358 -0.353761 0.0001903931
vn -0.696348 0.252593 0.6717858
vn -0.466074 0.1712265 0.8680187
vn -0.1740165 0.4640439 0.8685514
vn -0.2556942 0.6948276 0.6721869
vn 0.1740172 0.4640402 0.8685532
vn 0.2556948 0.6948268 0.6721875
vn 0.4660688 0.1712235 0.8680221
vn 0.6963469 0.2525906 0.6717879
vn 0.3273064 0.9196696 0.2169756
vn 0.9204296 0.3255877 0.2163376
vn -0.327305 0.91967 0.2169759
vn -0.9204288 0.3255889 0.2163391
vn -0.9204288 -0.3255889 0.2163391
vn -0.696348 -0.2525931 0.6717858
vn -0.327305 -0.91967 0.2169759
vn -0.2556942 -0.6948276 0.6721869
vn 0.3273063 -0.9196696 0.2169756
vn 0.2556947 -0.6948268 0.6721874
vn 0.9204295 -0.3255877 0.2163376
vn 0.6963469 -0.2525906 0.6717879
vn 0.9204296 0.3255877 0.2163376
vn 0.6963469 0.2525906 0.6717879
vn 0.4660688 -0.1712235 0.8680221
vn 0.4660688 0.1712235 0.8680221
vn 0.1740172 -0.4640402 0.8685532
vn -0.1740165 -0.4640439 0.8685514
vn -0.466074 -0.1712265 0.8680187
vn -0.466074 0.1712265 0.8680187
vn -0.696348 0.252593 0.6717858
vn 0.001038948 0 0.9999995
vn 0.006335719 0 0.99998
vn 0.006335719 0 0.99998
vn 0.001381394 0 0.999999
vn -0.001381394 0 0.999999
vn -0.001038948 0 0.9999995
vn -0.006335718 0 0.99998
vn -0.006335719 0 0.99998
vn -0.9351313 0.3543011 -0.000509872
vn -0.9351713 0.3541953 -0.0005100042
vn -0.3554405 0.9346988 0.0005484046
vn -0.3553421 0.9347361 0.0005485294
vn 0.3554328 0.9347016 0.0005408781
vn 0.3553507 0.9347329 0.000540984
vn 0.9351721 0.3541932 -0.0005175264
vn 0.9351315 0.3543006 -0.0005173945
vn -0.9351313 -0.3543011 -0.000509872
vn -0.9351713 0.3541953 -0.0005100042
vn -0.9351313 0.3543011 -0.000509872
vn -0.9351713 -0.3541953 -0.0005100042
vn -0.3553421 -0.9347361 0.0005485293
vn -0.3554405 -0.9346988 0.0005484046
vn 0.3553507 -0.9347329 0.000540984
vn 0.3554328 -0.9347016 0.0005408781
vn 0.9351315 -0.3543006 -0.0005173945
vn 0.9351721 -0.3541932 -0.0005175264
vn 0.9351315 0.3543006 -0.0005173945
vn 0.9351721 0.3541932 -0.0005175264
vn -0.3554904 0.9346798 0.0005234753
vn -0.9351515 0.3542478 -0.000509889
vn -0.9351854 0.3541583 -0.0005100009
vn -0.3553829 0.9347207 0.0005236053
vn 0.3554821 0.934683 0.0005158978
vn 0.3553924 0.9347171 0.0005160081
vn 0.9351859 0.354157 -0.000517571
vn 0.935152 0.3542465 -0.000517461
vn -0.9351854 0.3541583 -0.0005100009
vn -0.9351515 0.3542478 -0.000509889
vn -0.9351515 -0.3542478 -0.0005099392
vn -0.9351854 -0.3541583 -0.000510051
vn -0.3553829 -0.9347206 0.000523555
vn -0.3554905 -0.9346798 0.0005234251
vn 0.3553924 -0.9347171 0.0005159578
vn 0.3554821 -0.934683 0.0005158476
vn 0.935152 -0.3542464 -0.0005175112
vn 0.9351859 -0.3541569 -0.0005176211
vn 0.935152 0.3542465 -0.000517461
vn 0.9351859 0.354157 -0.000517571
vn -0.4038526 0.1491466 0.9025843
vn -0.40126 0.1550999 0.9027372
vn -0.1568906 0.3989636 0.9034452
vn -0.1512364 0.4014422 0.9033116
vn 0.1568954 0.3989584 0.9034467
vn 0.151236 0.4014394 0.9033128
vn 0.4012609 0.1550965 0.9027374
vn 0.4038534 0.1491434 0.9025844
vn -0.4038526 -0.1491465 0.9025843
vn -0.40126 0.1550999 0.9027372
vn -0.4038526 0.1491466 0.9025843
vn -0.40126 -0.1550999 0.9027372
vn -0.1512364 -0.4014421 0.9033116
vn -0.1568906 -0.3989636 0.9034453
vn 0.151236 -0.4014394 0.9033129
vn 0.1568954 -0.3989584 0.9034467
vn 0.4038534 -0.1491434 0.9025844
vn 0.4012609 -0.1550965 0.9027374
vn 0.4038534 0.1491434 0.9025844
vn 0.4012609 0.1550965 0.9027374
vn -0.1496694 0.4030804 -0.9028428
vn -0.3994736 0.1568822 -0.9032214
vn -0.4021955 0.1506983 -0.9030664
vn -0.1550983 0.4007257 -0.9029747
vn 0.1496726 0.4030847 -0.9028405
vn 0.1551014 0.4007303 -0.9029722
vn 0.4022107 0.1507024 -0.9030589
vn 0.3994885 0.1568865 -0.903214
vn -0.4021955 0.1506983 -0.9030664
vn -0.3994736 0.1568822 -0.9032214
vn -0.3994736 -0.1568822 -0.9032214
vn -0.4021955 -0.1506983 -0.9030664
vn -0.1550983 -0.4007257 -0.9029747
vn -0.1496694 -0.4030803 -0.9028428
vn 0.1551015 -0.4007303 -0.9029722
vn 0.1496727 -0.4030847 -0.9028404
vn 0.3994886 -0.1568865 -0.903214
vn 0.4022108 -0.1507024 -0.9030589
vn 0.3994885 0.1568865 -0.903214
vn 0.4022107 0.1507024 -0.9030589
g WeatherStationTop1_0
f 3/3/3 2/2/2 1/1/1
f 2/2/2 4/4/4 1/1/1
f 1/1/1 4/4/4 5/5/5
f 6/6/6 1/1/1 5/5/5
f 7/7/7 6/6/6 5/5/5
f 8/8/8 7/7/7 5/5/5
f 8/8/8 9/9/9 7/7/7
f 9/9/9 10/10/10 7/7/7
f 11/11/11 10/10/10 9/9/9
f 12/12/12 11/11/11 9/9/9
f 15/15/15 14/14/14 13/13/13
f 14/14/14 16/16/16 13/13/13
f 16/16/16 14/14/14 17/17/17
f 18/18/18 16/16/16 17/17/17
f 18/18/18 17/17/17 19/19/19
f 20/20/20 18/18/18 19/19/19
f 23/23/23 22/22/22 21/21/21
f 22/22/22 24/24/24 21/21/21
f 21/21/21 24/24/24 25/25/25
f 24/24/24 26/26/26 25/25/25
f 25/25/25 26/26/26 27/27/27
f 26/26/26 28/28/28 27/27/27
f 27/27/27 28/28/28 29/29/29
f 28/28/28 30/30/30 29/29/29
f 29/29/29 30/30/30 31/31/31
f 30/30/30 32/32/32 31/31/31
f 35/35/35 34/34/34 33/33/33
f 33/33/33 36/36/36 35/35/35
f 33/33/33 37/37/37 36/36/36
f 37/37/37 38/38/38 36/36/36
f 37/37/37 39/39/39 38/38/38
f 39/39/39 40/40/40 38/38/38
f 43/43/43 42/42/42 41/41/41
f 42/42/42 44/44/44 41/41/41
f 41/41/41 44/44/44 45/45/45
f 44/44/44 46/46/46 45/45/45
f 45/45/45 46/46/46 47/47/47
f 46/46/46 48/48/48 47/47/47
f 51/51/51 50/50/50 49/49/49
f 50/50/50 52/52/52 49/49/49
f 49/49/49 52/52/52 53/53/53
f 52/52/52 54/54/54 53/53/53
f 53/53/53 54/54/54 55/55/55
f 54/54/54 56/56/56 55/55/55
f 59/59/59 58/58/58 57/57/57
f 60/60/60 59/59/59 57/57/57
f 61/61/61 59/59/59 60/60/60
f 62/62/62 61/61/61 60/60/60
f 63/63/63 61/61/61 62/62/62
f 64/64/64 63/63/63 62/62/62
f 65/65/65 63/63/63 64/64/64
f 66/66/66 65/65/65 64/64/64
f 67/67/67 65/65/65 66/66/66
f 68/68/68 67/67/67 66/66/66
f 71/71/71 70/70/70 69/69/69
f 72/72/72 71/71/71 69/69/69
f 73/73/73 71/71/71 72/72/72
f 74/74/74 73/73/73 72/72/72
f 75/75/75 73/73/73 74/74/74
f 76/76/76 75/75/75 74/74/74
f 74/74/74 77/77/77 76/76/76
f 77/77/77 78/78/78 76/76/76
f 79/79/79 77/77/77 74/74/74
f 72/72/72 79/79/79 74/74/74
f 80/80/80 79/79/79 72/72/72
f 69/69/69 80/80/80 72/72/72
f 81/81/81 80/80/80 69/69/69
f 82/82/82 81/81/81 69/69/69
f 83/83/83 81/81/81 82/82/82
f 84/84/84 83/83/83 82/82/82
f 85/85/85 83/83/83 84/84/84
f 86/86/86 85/85/85 84/84/84
f 87/87/87 85/85/85 86/86/86
f 88/88/88 87/87/87 86/86/86
f 89/89/89 87/87/87 88/88/88
f 90/90/90 89/89/89 88/88/88
f 88/88/88 91/91/91 90/90/90
f 91/91/91 92/92/92 90/90/90
f 93/93/93 91/91/91 88/88/88
f 86/86/86 93/93/93 88/88/88
f 94/94/94 93/93/93 86/86/86
f 84/84/84 94/94/94 86/86/86
f 95/95/95 94/94/94 84/84/84
f 82/82/82 95/95/95 84/84/84
f 96/96/96 95/95/95 82/82/82
f 97/97/97 96/96/96 82/82/82
f 100/100/100 99/99/99 98/98/98
f 98/98/98 101/101/101 100/100/100
f 98/98/98 102/102/102 101/101/101
f 102/102/102 103/103/103 101/101/101
f 102/102/102 104/104/104 103/103/103
f 104/104/104 105/105/105 103/103/103
f 108/108/108 107/107/107 106/106/106
f 109/109/109 108/108/108 106/106/106
f 110/110/110 108/108/108 109/109/109
f 111/111/111 110/110/110 109/109/109
f 112/112/112 110/110/110 111/111/111
f 113/113/113 112/112/112 111/111/111
f 116/116/116 115/115/115 114/114/114
f 115/115/115 117/117/117 114/114/114
f 114/114/114 117/117/117 118/118/118
f 117/117/117 119/119/119 118/118/118
f 118/118/118 119/119/119 120/120/120
f 119/119/119 121/121/121 120/120/120
f 120/120/120 121/121/121 122/122/122
f 121/121/121 123/123/123 122/122/122
f 122/122/122 123/123/123 124/124/124
f 123/123/123 125/125/125 124/124/124
f 128/128/128 127/127/127 126/126/126
f 127/127/127 129/129/129 126/126/126
f 126/126/126 129/129/129 130/130/130
f 129/129/129 131/131/131 130/130/130
f 130/130/130 131/131/131 132/132/132
f 131/131/131 133/133/133 132/132/132
f 136/136/136 135/135/135 134/134/134
f 137/137/137 136/136/136 134/134/134
f 138/138/138 136/136/136 137/137/137
f 139/139/139 138/138/138 137/137/137
f 140/140/140 138/138/138 139/139/139
f 141/141/141 140/140/140 139/139/139
f 142/142/142 140/140/140 141/141/141
f 143/143/143 142/142/142 141/141/141
f 144/144/144 142/142/142 143/143/143
f 145/145/145 144/144/144 143/143/143
f 148/148/148 147/147/147 146/146/146
f 149/149/149 148/148/148 146/146/146
f 150/150/150 148/148/148 149/149/149
f 151/151/151 150/150/150 149/149/149
f 152/152/152 150/150/150 151/151/151
f 153/153/153 152/152/152 151/151/151
f 156/156/156 155/155/155 154/154/154
f 155/155/155 157/157/157 154/154/154
f 154/154/154 157/157/157 158/158/158
f 157/157/157 159/159/159 158/158/158
f 158/158/158 159/159/159 160/160/160
f 159/159/159 161/161/161 160/160/160
f 160/160/160 161/161/161 162/162/162
f 161/161/161 163/163/163 162/162/162
f 162/162/162 163/163/163 164/164/164
f 163/163/163 165/165/165 164/164/164
f 168/168/168 167/167/167 166/166/166
f 167/167/167 169/169/169 166/166/166
f 166/166/166 169/169/169 170/170/170
f 169/169/169 171/171/171 170/170/170
f 170/170/170 171/171/171 172/172/172
f 171/171/171 173/173/173 172/172/172
f 176/176/176 175/175/175 174/174/174
f 177/177/177 176/176/176 174/174/174
f 178/178/178 176/176/176 177/177/177
f 179/179/179 178/178/178 177/177/177
f 180/180/180 178/178/178 179/179/179
f 181/181/181 180/180/180 179/179/179
f 182/182/182 180/180/180 181/181/181
f 183/183/183 182/182/182 181/181/181
f 184/184/184 182/182/182 183/183/183
f 185/185/185 184/184/184 183/183/183
