g WheatPlant_Stage1_Impostor
v 1.504889 -1.283988 0
v 0.2458744 -1.832713 0
v -0.3656624 -1.832713 0
v -1.424406 -1.188749 0
v -1.428769 0.6532857 0
v -1.029147 1.956267 0
v 0.4752764 1.956267 0
v 1.297991 1.595105 0
vt 0.1028248 0.1448214
vt 0.435108 0
vt 0.5965068 0
vt 0.8759339 0.169957
vt 0.8770854 0.656113
vt 0.7716159 1
vt 0.3745635 1
vt 0.1574301 0.904681
vn 0 0 -1
vn 0 0 -1
vn 0 0 -1
vn 0 0 -0.9999999
vn 0 0 -0.9999999
vn 0 0 -1
vn 0 0 -1
vn 0 0 -1
g WheatPlant_Stage1_Impostor_0
f 4/4/4 6/6/6 8/8/8
f 8/8/8 2/2/2 4/4/4
f 6/6/6 7/7/7 8/8/8
f 4/4/4 5/5/5 6/6/6
f 2/2/2 3/3/3 4/4/4
f 8/8/8 1/1/1 2/2/2
