g WheatPlant
v 0.122015 -0.103931 0.756207
v 0.086283 -0.017989 -0.059865
v 0.072878 -0.055796 -0.056801
v 0.074228 0.019858 -0.063914
v 0.112152 -0.132115 0.758501
v 0.084468 -0.141627 0.758078
v 0.14531 -0.231484 1.567772
v 0.035431 -0.068844 -0.057194
v -0.002049 -0.056424 -0.059908
v 0.113063 -0.075692 0.753064
v 0.084304 -0.066016 0.750939
v 0.145772 -0.193164 1.563786
v 0.035297 0.033028 -0.06648
v -0.003601 0.02073 -0.066723
v 0.151851 -0.212354 1.566116
v 0.169896 -0.365738 2.3637
v 0.056743 -0.132236 0.755871
v 0.046757 -0.103711 0.75281
v 0.108037 -0.231256 1.565723
v -0.015554 -0.017827 -0.063808
v 0.055586 -0.075242 0.750599
v 0.107326 -0.193034 1.561792
v 0.126695 -0.237749 1.567407
v 0.155301 -0.380549 2.364851
v 0.166236 -0.376952 2.36498
v 0.126528 -0.18672 1.562129
v 0.155189 -0.350747 2.360862
v 0.101372 -0.212115 1.56342
v 0.140594 -0.365557 2.362013
v 0.16623 -0.35448 2.361998
v 0.144338 -0.376696 2.363724
v 0.173368 -0.46955 2.804191
v 0.173358 -0.457284 2.802203
v 0.16143 -0.469418 2.803517
v 0.144176 -0.354464 2.360723
v 0.161351 -0.457258 2.80152
v 0.177766 -0.497627 2.9572
v 0.177082 -0.541561 3.154859
v 0.171644 -0.503872 2.958103
v 0.165479 -0.497539 2.956517
v 0.171601 -0.491294 2.955614
v -0.11826 -0.037071 0.75638
v -0.034031 -0.031699 -0.060368
v -0.071952 -0.018295 -0.058279
v 0.003959 -0.019683 -0.063431
v -0.146562 -0.027203 0.75757
v -0.155881 0.000414 0.755923
v -0.241355 -0.020055 1.541972
v -0.084828 0.019233 -0.058927
v -0.072237 0.056715 -0.061269
v -0.089872 -0.028209 0.753653
v -0.080293 0.000367 0.750688
v -0.20279 -0.020662 1.539053
v 0.01704 0.019049 -0.065702
v 0.004654 0.057828 -0.06628
v -0.222117 -0.026617 1.541379
v -0.36523 0.015487 2.262881
v -0.146303 0.028019 0.752967
v -0.117913 0.037851 0.750231
v -0.240774 0.01688 1.536828
v -0.033758 0.069981 -0.064262
v -0.089611 0.028954 0.749032
v -0.202827 0.017507 1.533797
v -0.24744 -0.001589 1.539896
v -0.380013 0.03004 2.262115
v -0.376513 0.019203 2.263481
v -0.196432 -0.001576 1.53593
v -0.350186 0.029962 2.258873
v -0.221755 0.023452 1.534446
v -0.364968 0.044514 2.258107
v -0.353882 0.019029 2.261087
v -0.376055 0.040857 2.259938
v -0.461789 0.050998 2.646463
v -0.449431 0.050866 2.644779
v -0.461561 0.062819 2.644634
v -0.353946 0.040915 2.25747
v -0.449436 0.062791 2.642918
v -0.487273 0.060171 2.780052
v -0.527919 0.078362 2.952062
v -0.493528 0.066343 2.780272
v -0.487155 0.072372 2.778288
v -0.480899 0.066201 2.778068
v 0.005357 0.049042 -0.033301
v -0.016701 0.067514 0.166188
v 0.008876 0.055372 0.321473
v 0.032126 0.122981 0.766554
v 0.009166 0.108433 0.32246
v 0.022178 0.028531 0.166216
v 0.072807 0.082004 0.764905
v 0.042067 0.09205 0.765451
v 0.139537 0.187352 1.56181
v 0.061805 0.05557 0.321752
v 0.022371 0.106544 0.167053
v 0.073243 0.164043 0.767974
v 0.061881 0.108316 0.322874
v 0.042635 0.153933 0.7676
v 0.140179 0.227058 1.565263
v 0.133348 0.207192 1.563716
v 0.268476 0.311894 2.353588
v 0.06125 0.067562 0.167081
v 0.113924 0.123066 0.766325
v 0.103657 0.092467 0.765127
v 0.178792 0.187808 1.560569
v 0.103742 0.153644 0.767581
v 0.179043 0.226761 1.56435
v 0.15909 0.181025 1.560587
v 0.28287 0.29716 2.35108
v 0.159685 0.233465 1.565409
v 0.283411 0.326734 2.355302
v 0.185427 0.207298 1.56228
v 0.297805 0.312 2.352794
v 0.271953 0.300745 2.351934
v 0.272331 0.323069 2.355044
v 0.294356 0.323005 2.354505
v 0.293921 0.300968 2.351283
v 0.356145 0.369695 2.789504
v 0.356398 0.381856 2.791429
v 0.368423 0.381848 2.791361
v 0.368145 0.369815 2.789386
v 0.383794 0.398116 2.943356
v 0.425588 0.426889 3.140202
v 0.390139 0.404369 2.944589
v 0.396158 0.39819 2.943544
v 0.389813 0.391938 2.942311
vn 0.998759 -0.02488262 -0.04314212
vn 0.998958 0.01811545 -0.04188919
vn 0.7141036 -0.6929792 -0.09917658
vn 0.6586567 0.7503199 0.05649133
vn 0.7016045 -0.7046025 -0.1062368
vn 0.01204231 -0.9946833 -0.1022746
vn 0.7006056 -0.7021237 -0.1271785
vn -0.01000877 -0.9960446 -0.08828858
vn -0.7465551 -0.6652744 -0.008082779
vn 0.709742 0.7020064 0.05876639
vn 0.006841575 0.9914368 0.1304078
vn 0.7097118 0.6984455 0.09210324
vn -0.01457221 0.9925246 0.1211724
vn -0.6826469 0.7184092 0.133722
vn 0.9992124 -0.02189884 -0.03309077
vn 0.9989795 -0.03659825 -0.02646766
vn -0.7003227 -0.7133207 -0.02686439
vn -0.9973139 -0.01790487 0.07102352
vn -0.6953392 -0.7157772 -0.06454603
vn -0.9965463 0.02619567 0.07879847
vn -0.6982716 0.7023312 0.1383745
vn -0.6975601 0.6992623 0.15634
vn 0.009897157 -0.9897182 -0.1426885
vn 0.01065996 -0.9827842 -0.1844496
vn 0.6830371 -0.7144209 -0.1518656
vn 0.002270575 0.9860536 0.1664121
vn -0.0009172876 0.9781271 0.208006
vn -0.9980825 -0.01826102 0.05914285
vn -0.9985278 -0.03536257 0.04113205
vn 0.7231311 0.679148 0.1258544
vn -0.6703392 -0.7338488 -0.1100514
vn 0.6959884 -0.7001059 -0.1595364
vn 0.6903882 0.7070125 0.1532888
vn -0.6964169 -0.7070827 -0.1226277
vn -0.7086204 0.683596 0.1747963
vn -0.6910999 0.6976125 0.1889915
vn 0.9999708 0.003927223 0.006555695
vn 0 0 1
vn 0.003122845 -0.9824949 -0.1862635
vn -0.9980305 0.007977376 0.06222104
vn -0.007053238 0.9690568 0.2467373
vn -0.02182249 -0.9997618 -0.0003594373
vn 0.01550282 -0.999867 -0.005066228
vn -0.6911311 -0.7192351 -0.07098328
vn 0.7392936 -0.6688456 0.0780433
vn -0.7025537 -0.7077364 -0.07434668
vn -0.9949826 -0.01044831 -0.09950069
vn -0.6962252 -0.7131016 -0.08219922
vn -0.9962156 0.006783195 -0.08665086
vn -0.6734188 0.738417 -0.03531948
vn 0.6992999 -0.7095417 0.08677768
vn 0.991645 -0.001020859 0.1289924
vn 0.6941884 -0.7070966 0.1345988
vn 0.992865 0.01149812 0.1186882
vn 0.7200282 0.6855803 0.1074201
vn -0.0191859 -0.9993979 0.02891216
vn -0.03241741 -0.9976805 0.05985573
vn -0.7127007 0.6993199 -0.05485789
vn -0.01801755 0.9994013 0.02953538
vn -0.7177932 0.6880291 -0.1067201
vn 0.02146641 0.9989035 0.04160545
vn 0.7028303 0.7030529 0.1083806
vn 0.6997509 0.7049085 0.1159854
vn -0.9897626 -0.01680814 -0.1417301
vn -0.981725 -0.02372028 -0.1888211
vn -0.7079006 -0.6998409 -0.09539004
vn 0.9858994 0.008984391 0.1670977
vn 0.9763281 0.02230443 0.2151416
vn -0.02133973 0.9997723 -0.0003637661
vn -0.03980725 0.9983184 -0.04213852
vn 0.6764889 -0.7110302 0.1918301
vn -0.7341835 0.6572363 -0.1703384
vn -0.6970581 -0.7104284 -0.09696165
vn 0.7056583 -0.669991 0.2305608
vn -0.7062771 0.6801172 -0.1965025
vn 0.6829143 0.7202842 0.1217324
vn 0.6933978 0.7085704 0.1308713
vn 0.006875813 -0.9939933 0.1092244
vn 0 0 1
vn -0.9810333 -0.01786224 -0.1930143
vn 0.004592502 0.9995003 -0.03127458
vn 0.9649096 0.02938937 0.2609326
vn -0.05180242 -0.0499977 -0.997405
vn -0.998871 0.004005193 -0.04733443
vn -0.7033088 -0.7018455 0.1130024
vn -0.9945103 0.002685389 0.1046042
vn -0.7066571 0.7073562 -0.01682611
vn 0.001336966 -0.9992239 -0.03936752
vn 0.004666555 -0.9943292 0.1062434
vn -0.6983601 -0.7009535 0.1447668
vn -0.6959939 -0.6938992 0.1846515
vn 0.7064177 -0.7077739 -0.00549107
vn 0.00178878 0.9759079 -0.2181756
vn 0.001012581 0.9957674 -0.09190368
vn 0.7007853 0.7004528 -0.135151
vn -0.7155711 0.6984857 0.008699977
vn -0.7007931 0.7128956 0.02586148
vn -0.9899596 0.01024064 0.1409787
vn -0.9848808 0.02039975 0.1720276
vn 0.9775411 0.0006069338 -0.2107435
vn 0.9959224 -0.0005003207 -0.09021164
vn 0.6974691 -0.7165226 0.01149351
vn 0.7119142 -0.7021787 0.0110967
vn 0.700903 0.7011101 -0.1310709
vn 0.690154 0.7072626 -0.15319
vn 0.01247041 -0.9914209 0.1301113
vn 0.02487803 -0.9891545 0.1447565
vn 0.004875643 0.9950783 -0.09897138
vn 0.01319168 0.9923556 -0.1227044
vn 0.9938616 0.01170745 -0.110009
vn 0.9881138 0.03077694 -0.1506114
vn -0.6907104 -0.6887146 0.2204341
vn -0.6788351 0.73379 0.02710933
vn 0.675379 0.7118104 -0.1928453
vn 0.7313736 -0.6819005 -0.01021659
vn -0.6741488 -0.6987956 0.239182
vn -0.7061423 0.7069309 0.04014702
vn 0.6813926 0.700973 -0.2105725
vn 0.7048468 -0.7093077 -0.00857364
vn -0.9772914 -0.01261222 0.2115245
vn 0 0 1
vn -0.003746984 0.9937436 -0.1116232
vn 0.9892555 0.001174659 -0.1461919
vn 0.004177466 -0.9845293 0.1751703
g WheatPlant_0
f 3/3/3 2/2/2 1/1/1
f 2/2/2 4/4/4 1/1/1
f 5/5/5 3/3/3 1/1/1
f 3/3/3 5/5/5 6/6/6
f 7/7/7 5/5/5 1/1/1
f 5/5/5 7/7/7 6/6/6
f 8/8/8 3/3/3 6/6/6
f 9/9/9 8/8/8 6/6/6
f 4/4/4 10/10/10 1/1/1
f 10/10/10 4/4/4 11/11/11
f 10/10/10 12/12/12 1/1/1
f 12/12/12 10/10/10 11/11/11
f 4/4/4 13/13/13 11/11/11
f 13/13/13 14/14/14 11/11/11
f 15/15/15 7/7/7 1/1/1
f 12/12/12 15/15/15 1/1/1
f 7/7/7 15/15/15 16/16/16
f 15/15/15 12/12/12 16/16/16
f 17/17/17 9/9/9 6/6/6
f 9/9/9 17/17/17 18/18/18
f 19/19/19 17/17/17 6/6/6
f 17/17/17 19/19/19 18/18/18
f 20/20/20 9/9/9 18/18/18
f 14/14/14 20/20/20 18/18/18
f 14/14/14 21/21/21 11/11/11
f 21/21/21 14/14/14 18/18/18
f 21/21/21 22/22/22 11/11/11
f 22/22/22 21/21/21 18/18/18
f 7/7/7 23/23/23 6/6/6
f 23/23/23 19/19/19 6/6/6
f 23/23/23 7/7/7 24/24/24
f 19/19/19 23/23/23 24/24/24
f 25/25/25 7/7/7 16/16/16
f 7/7/7 25/25/25 24/24/24
f 22/22/22 26/26/26 11/11/11
f 26/26/26 22/22/22 27/27/27
f 26/26/26 12/12/12 11/11/11
f 12/12/12 26/26/26 27/27/27
f 19/19/19 28/28/28 18/18/18
f 28/28/28 22/22/22 18/18/18
f 28/28/28 19/19/19 29/29/29
f 22/22/22 28/28/28 29/29/29
f 12/12/12 30/30/30 16/16/16
f 30/30/30 12/12/12 27/27/27
f 31/31/31 19/19/19 24/24/24
f 19/19/19 31/31/31 29/29/29
f 32/32/32 25/25/25 16/16/16
f 25/25/25 32/32/32 24/24/24
f 30/30/30 33/33/33 16/16/16
f 33/33/33 30/30/30 27/27/27
f 34/34/34 31/31/31 24/24/24
f 31/31/31 34/34/34 29/29/29
f 35/35/35 22/22/22 29/29/29
f 22/22/22 35/35/35 27/27/27
f 36/36/36 35/35/35 29/29/29
f 35/35/35 36/36/36 27/27/27
f 37/37/37 32/32/32 16/16/16
f 33/33/33 37/37/37 16/16/16
f 32/32/32 37/37/37 38/38/38
f 37/37/37 33/33/33 38/38/38
f 32/32/32 39/39/39 24/24/24
f 39/39/39 34/34/34 24/24/24
f 39/39/39 32/32/32 38/38/38
f 34/34/34 39/39/39 38/38/38
f 34/34/34 40/40/40 29/29/29
f 40/40/40 36/36/36 29/29/29
f 40/40/40 34/34/34 38/38/38
f 36/36/36 40/40/40 38/38/38
f 36/36/36 41/41/41 27/27/27
f 41/41/41 33/33/33 27/27/27
f 33/33/33 41/41/41 38/38/38
f 41/41/41 36/36/36 38/38/38
f 44/44/44 43/43/43 42/42/42
f 43/43/43 45/45/45 42/42/42
f 46/46/46 44/44/44 42/42/42
f 44/44/44 46/46/46 47/47/47
f 48/48/48 46/46/46 42/42/42
f 46/46/46 48/48/48 47/47/47
f 49/49/49 44/44/44 47/47/47
f 50/50/50 49/49/49 47/47/47
f 45/45/45 51/51/51 42/42/42
f 51/51/51 45/45/45 52/52/52
f 51/51/51 53/53/53 42/42/42
f 53/53/53 51/51/51 52/52/52
f 45/45/45 54/54/54 52/52/52
f 54/54/54 55/55/55 52/52/52
f 56/56/56 48/48/48 42/42/42
f 53/53/53 56/56/56 42/42/42
f 48/48/48 56/56/56 57/57/57
f 56/56/56 53/53/53 57/57/57
f 58/58/58 50/50/50 47/47/47
f 50/50/50 58/58/58 59/59/59
f 60/60/60 58/58/58 47/47/47
f 58/58/58 60/60/60 59/59/59
f 61/61/61 50/50/50 59/59/59
f 55/55/55 61/61/61 59/59/59
f 55/55/55 62/62/62 52/52/52
f 62/62/62 55/55/55 59/59/59
f 62/62/62 63/63/63 52/52/52
f 63/63/63 62/62/62 59/59/59
f 48/48/48 64/64/64 47/47/47
f 64/64/64 60/60/60 47/47/47
f 64/64/64 48/48/48 65/65/65
f 60/60/60 64/64/64 65/65/65
f 66/66/66 48/48/48 57/57/57
f 48/48/48 66/66/66 65/65/65
f 63/63/63 67/67/67 52/52/52
f 67/67/67 63/63/63 68/68/68
f 67/67/67 53/53/53 52/52/52
f 53/53/53 67/67/67 68/68/68
f 60/60/60 69/69/69 59/59/59
f 69/69/69 63/63/63 59/59/59
f 69/69/69 60/60/60 70/70/70
f 63/63/63 69/69/69 70/70/70
f 53/53/53 71/71/71 57/57/57
f 71/71/71 53/53/53 68/68/68
f 72/72/72 60/60/60 65/65/65
f 60/60/60 72/72/72 70/70/70
f 73/73/73 66/66/66 57/57/57
f 66/66/66 73/73/73 65/65/65
f 71/71/71 74/74/74 57/57/57
f 74/74/74 71/71/71 68/68/68
f 75/75/75 72/72/72 65/65/65
f 72/72/72 75/75/75 70/70/70
f 76/76/76 63/63/63 70/70/70
f 63/63/63 76/76/76 68/68/68
f 77/77/77 76/76/76 70/70/70
f 76/76/76 77/77/77 68/68/68
f 78/78/78 73/73/73 57/57/57
f 74/74/74 78/78/78 57/57/57
f 73/73/73 78/78/78 79/79/79
f 78/78/78 74/74/74 79/79/79
f 73/73/73 80/80/80 65/65/65
f 80/80/80 75/75/75 65/65/65
f 80/80/80 73/73/73 79/79/79
f 75/75/75 80/80/80 79/79/79
f 75/75/75 81/81/81 70/70/70
f 81/81/81 77/77/77 70/70/70
f 81/81/81 75/75/75 79/79/79
f 77/77/77 81/81/81 79/79/79
f 77/77/77 82/82/82 68/68/68
f 82/82/82 74/74/74 68/68/68
f 74/74/74 82/82/82 79/79/79
f 82/82/82 77/77/77 79/79/79
f 85/85/85 84/84/84 83/83/83
f 84/84/84 85/85/85 86/86/86
f 84/84/84 87/87/87 83/83/83
f 87/87/87 84/84/84 86/86/86
f 88/88/88 85/85/85 83/83/83
f 85/85/85 88/88/88 89/89/89
f 85/85/85 90/90/90 86/86/86
f 90/90/90 85/85/85 89/89/89
f 90/90/90 91/91/91 86/86/86
f 91/91/91 90/90/90 89/89/89
f 92/92/92 88/88/88 83/83/83
f 88/88/88 92/92/92 89/89/89
f 87/87/87 93/93/93 83/83/83
f 93/93/93 87/87/87 94/94/94
f 93/93/93 95/95/95 83/83/83
f 95/95/95 93/93/93 94/94/94
f 96/96/96 87/87/87 86/86/86
f 87/87/87 96/96/96 94/94/94
f 97/97/97 96/96/96 86/86/86
f 96/96/96 97/97/97 94/94/94
f 91/91/91 98/98/98 86/86/86
f 98/98/98 97/97/97 86/86/86
f 98/98/98 91/91/91 99/99/99
f 97/97/97 98/98/98 99/99/99
f 100/100/100 92/92/92 83/83/83
f 95/95/95 100/100/100 83/83/83
f 92/92/92 100/100/100 101/101/101
f 100/100/100 95/95/95 101/101/101
f 92/92/92 102/102/102 89/89/89
f 102/102/102 92/92/92 101/101/101
f 102/102/102 103/103/103 89/89/89
f 103/103/103 102/102/102 101/101/101
f 104/104/104 95/95/95 94/94/94
f 95/95/95 104/104/104 101/101/101
f 105/105/105 104/104/104 94/94/94
f 104/104/104 105/105/105 101/101/101
f 106/106/106 91/91/91 89/89/89
f 103/103/103 106/106/106 89/89/89
f 91/91/91 106/106/106 107/107/107
f 106/106/106 103/103/103 107/107/107
f 97/97/97 108/108/108 94/94/94
f 108/108/108 105/105/105 94/94/94
f 108/108/108 97/97/97 109/109/109
f 105/105/105 108/108/108 109/109/109
f 105/105/105 110/110/110 101/101/101
f 110/110/110 103/103/103 101/101/101
f 110/110/110 105/105/105 111/111/111
f 103/103/103 110/110/110 111/111/111
f 112/112/112 91/91/91 107/107/107
f 91/91/91 112/112/112 99/99/99
f 113/113/113 97/97/97 99/99/99
f 97/97/97 113/113/113 109/109/109
f 105/105/105 114/114/114 111/111/111
f 114/114/114 105/105/105 109/109/109
f 115/115/115 103/103/103 111/111/111
f 103/103/103 115/115/115 107/107/107
f 112/112/112 116/116/116 99/99/99
f 116/116/116 112/112/112 107/107/107
f 117/117/117 113/113/113 99/99/99
f 113/113/113 117/117/117 109/109/109
f 118/118/118 114/114/114 109/109/109
f 114/114/114 118/118/118 111/111/111
f 119/119/119 115/115/115 111/111/111
f 115/115/115 119/119/119 107/107/107
f 116/116/116 120/120/120 99/99/99
f 120/120/120 117/117/117 99/99/99
f 120/120/120 116/116/116 121/121/121
f 117/117/117 120/120/120 121/121/121
f 117/117/117 122/122/122 109/109/109
f 122/122/122 118/118/118 109/109/109
f 122/122/122 117/117/117 121/121/121
f 118/118/118 122/122/122 121/121/121
f 118/118/118 123/123/123 111/111/111
f 123/123/123 119/119/119 111/111/111
f 123/123/123 118/118/118 121/121/121
f 119/119/119 123/123/123 121/121/121
f 119/119/119 124/124/124 107/107/107
f 124/124/124 116/116/116 107/107/107
f 116/116/116 124/124/124 121/121/121
f 124/124/124 119/119/119 121/121/121
