g WheatLeaf
v 0.171819 -1.323997 -0.072168
v 0.005167 -1.863395 -0.422954
v -0.161384 -1.320915 -0.074981
v 0.178356 -0.600701 0.04249
v -0.164198 -0.613728 0.015584
v -0.016103 -0.26345 0.00337
v 0.033748 -0.272689 -0.005979
v -0.016103 -0.26345 0.00337
v -0.016103 0.069575 0.00337
v 0.033748 0.060337 -0.005979
v 0.033748 -0.272689 -0.005979
v 0.171819 -1.323997 -0.072168
v -0.161384 -1.320915 -0.074981
v 0.005167 -1.863395 -0.422954
v 0.178356 -0.600701 0.04249
v -0.164198 -0.613728 0.015584
v -0.016103 -0.26345 0.00337
v 0.033748 -0.272689 -0.005979
v -0.016103 -0.26345 0.00337
v 0.033748 -0.272689 -0.005979
v 0.033748 0.060337 -0.005979
v -0.016103 0.069575 0.00337
vt 0.372001 0.777335
vt 0.392964 0.827949
vt 0.415179 0.777794
vt 0.372001 0.720026
vt 0.416409 0.722018
vt 0.397892 0.694133
vt 0.391363 0.694542
vt 0.394481 0.705339
vt 0.394845 0.697792
vt 0.392952 0.697911
vt 0.392588 0.705458
vt 0.372001 0.777335
vt 0.415179 0.777794
vt 0.392964 0.827949
vt 0.372001 0.720026
vt 0.416409 0.722018
vt 0.397892 0.694133
vt 0.391363 0.694542
vt 0.394481 0.705339
vt 0.392588 0.705458
vt 0.392952 0.697911
vt 0.394845 0.697792
vn -0.03413663 -0.2544138 0.9664927
vn -0.01210935 -0.5425102 0.839962
vn -0.03419983 -0.2534786 0.9667362
vn -0.04682096 -0.1102429 0.9928013
vn -0.04729009 -0.1113276 0.992658
vn 0.02892509 0.06047772 0.9977503
vn 0.2012551 0.09988013 0.9744333
vn 0.02892509 0.06047772 0.9977503
vn 0.1843255 0 0.9828653
vn 0.1843255 0 0.9828653
vn 0.2012551 0.09988013 0.9744333
vn 0.03413664 0.2544138 -0.9664927
vn 0.03419983 0.2534786 -0.9667362
vn 0.01210935 0.5425102 -0.839962
vn 0.04682097 0.1102429 -0.9928013
vn 0.04729009 0.1113276 -0.992658
vn -0.02892508 -0.06047772 -0.9977503
vn -0.2012551 -0.09988013 -0.9744333
vn -0.02892508 -0.06047772 -0.9977503
vn -0.2012551 -0.09988013 -0.9744333
vn -0.1843255 0 -0.9828653
vn -0.1843254 0 -0.9828653
g WheatLeaf_0
f 3/3/3 2/2/2 1/1/1
f 1/1/1 4/4/4 3/3/3
f 4/4/4 5/5/5 3/3/3
f 4/4/4 6/6/6 5/5/5
f 4/4/4 7/7/7 6/6/6
f 10/10/10 9/9/9 8/8/8
f 11/11/11 10/10/10 8/8/8
f 14/14/14 13/13/13 12/12/12
f 15/15/15 12/12/12 13/13/13
f 16/16/16 15/15/15 13/13/13
f 17/17/17 15/15/15 16/16/16
f 18/18/18 15/15/15 17/17/17
f 21/21/21 20/20/20 19/19/19
f 22/22/22 21/21/21 19/19/19
