g WhiteCoffeeTableLong
v 0 -0.738141 0.653285
v 0 -0.738141 0.724354
v 1.244069 -0.738141 0.724354
v 1.244069 -0.738141 0.653285
v 0 -0.36907 0.653285
v 1.402159 0 0.653285
v 0 0 0.653285
v 1.402159 -0.36907 0.653285
v 1.244069 -0.738141 0.653285
v 0 -0.738141 0.653285
v 1.402159 -0.58005 0.653285
v 1.511047 -0.623528 0.653285
v 1.594702 -0.36907 0.653285
v 1.752792 0 0.653285
v 1.643905 -0.483683 0.653285
v 1.752792 -0.21098 0.653285
v 1.752792 -0.21098 0.653285
v 1.752792 0 0.724354
v 1.752792 0 0.653285
v 1.752792 -0.21098 0.724354
v 1.643905 -0.483683 0.724354
v 1.643905 -0.483683 0.653285
v 1.511047 -0.623528 0.653285
v 1.511047 -0.623528 0.724354
v 1.244069 -0.738141 0.724354
v 1.244069 -0.738141 0.653285
v 1.402159 0 0.724354
v 1.752792 0 0.724354
v 1.752792 -0.21098 0.724354
v 1.594702 -0.36907 0.724354
v 1.643905 -0.483683 0.724354
v 1.511047 -0.623528 0.724354
v 1.402159 -0.36907 0.724354
v 0 -0.36907 0.724354
v 0 0 0.724354
v 1.402159 -0.58005 0.724354
v 1.244069 -0.738141 0.724354
v 0 -0.738141 0.724354
v 1.445081 -0.439893 0.659885
v 1.60199 -0.524099 0.00013
v 1.60199 -0.474725 0.00013
v 1.445081 -0.330776 0.659885
v 1.445081 -0.330776 0.659885
v 1.60199 -0.474725 0.00013
v 1.651364 -0.474725 0.00013
v 1.554198 -0.330776 0.659885
v 1.554198 -0.330776 0.659885
v 1.651364 -0.474725 0.00013
v 1.651364 -0.524099 0.00013
v 1.554198 -0.439893 0.659885
v 1.554198 -0.439893 0.659885
v 1.651364 -0.524099 0.00013
v 1.60199 -0.524099 0.00013
v 1.445081 -0.439893 0.659885
v 1.60199 -0.524099 0.00013
v 1.651364 -0.524099 0.00013
v 1.651364 -0.474725 0.00013
v 1.60199 -0.474725 0.00013
v 1.554198 -0.439893 0.659885
v 1.445081 -0.439893 0.659885
v 1.445081 -0.330776 0.659885
v 1.554198 -0.330776 0.659885
v 0 -0.738141 0.653285
v -1.244069 -0.738141 0.724354
v 0 -0.738141 0.724354
v -1.244069 -0.738141 0.653285
v -1.511047 -0.623528 0.653285
v -1.511047 -0.623528 0.724354
v -1.643905 -0.483683 0.724354
v -1.643905 -0.483683 0.653285
v 0 -0.36907 0.653285
v 0 0 0.653285
v -1.402159 0 0.653285
v -1.402159 -0.36907 0.653285
v -1.244069 -0.738141 0.653285
v 0 -0.738141 0.653285
v -1.402159 -0.58005 0.653285
v -1.511047 -0.623528 0.653285
v -1.594702 -0.36907 0.653285
v -1.752792 0 0.653285
v -1.643905 -0.483683 0.653285
v -1.752792 -0.21098 0.653285
v -1.752792 -0.21098 0.653285
v -1.752792 0 0.653285
v -1.752792 0 0.724354
v -1.752792 -0.21098 0.724354
v -1.643905 -0.483683 0.724354
v -1.643905 -0.483683 0.653285
v 0 -0.36907 0.724354
v -1.402159 0 0.724354
v 0 0 0.724354
v -1.402159 -0.36907 0.724354
v 0 -0.738141 0.724354
v -1.752792 0 0.724354
v -1.244069 -0.738141 0.724354
v -1.594702 -0.36907 0.724354
v -1.752792 -0.21098 0.724354
v -1.643905 -0.483683 0.724354
v -1.511047 -0.623528 0.724354
v -1.402159 -0.58005 0.724354
v -1.445081 -0.439893 0.659885
v -1.445081 -0.330776 0.659885
v -1.60199 -0.474725 0.00013
v -1.60199 -0.524099 0.00013
v -1.445081 -0.330776 0.659885
v -1.554198 -0.330776 0.659885
v -1.651364 -0.474725 0.00013
v -1.60199 -0.474725 0.00013
v -1.554198 -0.330776 0.659885
v -1.554198 -0.439893 0.659885
v -1.651364 -0.524099 0.00013
v -1.651364 -0.474725 0.00013
v -1.554198 -0.439893 0.659885
v -1.445081 -0.439893 0.659885
v -1.60199 -0.524099 0.00013
v -1.651364 -0.524099 0.00013
v -1.60199 -0.524099 0.00013
v -1.60199 -0.474725 0.00013
v -1.651364 -0.474725 0.00013
v -1.651364 -0.524099 0.00013
v -1.554198 -0.439893 0.659885
v -1.554198 -0.330776 0.659885
v -1.445081 -0.330776 0.659885
v -1.445081 -0.439893 0.659885
v 0 0.738141 0.653285
v 1.244069 0.738141 0.724354
v 0 0.738141 0.724354
v 1.244069 0.738141 0.653285
v 1.511047 0.623528 0.653285
v 1.511047 0.623528 0.724354
v 1.643905 0.483683 0.724354
v 1.643905 0.483683 0.653285
v 1.752792 0.21098 0.653285
v 1.752792 0.21098 0.724354
v 0 0.36907 0.653285
v 0 0 0.653285
v 1.402159 0 0.653285
v 1.402159 0.36907 0.653285
v 1.402159 0.58005 0.653285
v 1.244069 0.738141 0.653285
v 0 0.738141 0.653285
v 1.511047 0.623528 0.653285
v 1.594702 0.36907 0.653285
v 1.643905 0.483683 0.653285
v 1.752792 0.21098 0.653285
v 1.752792 0 0.653285
v 1.752792 0.21098 0.653285
v 1.752792 0 0.653285
v 1.752792 0 0.724354
v 1.752792 0.21098 0.724354
v 0 0.36907 0.724354
v 1.402159 0 0.724354
v 0 0 0.724354
v 1.402159 0.36907 0.724354
v 1.244069 0.738141 0.724354
v 0 0.738141 0.724354
v 1.402159 0.58005 0.724354
v 1.511047 0.623528 0.724354
v 1.594702 0.36907 0.724354
v 1.752792 0 0.724354
v 1.643905 0.483683 0.724354
v 1.752792 0.21098 0.724354
v 1.445081 0.439893 0.659885
v 1.445081 0.330776 0.659885
v 1.60199 0.474725 0.00013
v 1.60199 0.524099 0.00013
v 1.445081 0.330776 0.659885
v 1.554198 0.330776 0.659885
v 1.651364 0.474725 0.00013
v 1.60199 0.474725 0.00013
v 1.554198 0.330776 0.659885
v 1.554198 0.439893 0.659885
v 1.651364 0.524099 0.00013
v 1.651364 0.474725 0.00013
v 1.554198 0.439893 0.659885
v 1.445081 0.439893 0.659885
v 1.60199 0.524099 0.00013
v 1.651364 0.524099 0.00013
v 1.60199 0.524099 0.00013
v 1.60199 0.474725 0.00013
v 1.651364 0.474725 0.00013
v 1.651364 0.524099 0.00013
v 1.554198 0.439893 0.659885
v 1.554198 0.330776 0.659885
v 1.445081 0.330776 0.659885
v 1.445081 0.439893 0.659885
v 0 0.738141 0.653285
v 0 0.738141 0.724354
v -1.244069 0.738141 0.724354
v -1.244069 0.738141 0.653285
v -1.511047 0.623528 0.653285
v -1.511047 0.623528 0.724354
v -1.643905 0.483683 0.724354
v -1.511047 0.623528 0.653285
v -1.643905 0.483683 0.724354
v -1.643905 0.483683 0.653285
v -1.752792 0.21098 0.653285
v -1.752792 0.21098 0.724354
v -1.752792 0 0.724354
v -1.752792 0 0.653285
v 0 0.36907 0.653285
v -1.402159 0 0.653285
v 0 0 0.653285
v -1.402159 0.36907 0.653285
v 0 0.738141 0.653285
v -1.752792 0 0.653285
v -1.244069 0.738141 0.653285
v -1.594702 0.36907 0.653285
v -1.752792 0.21098 0.653285
v -1.643905 0.483683 0.653285
v -1.511047 0.623528 0.653285
v -1.402159 0.58005 0.653285
v 0 0.36907 0.724354
v 0 0 0.724354
v -1.402159 0 0.724354
v -1.402159 0.36907 0.724354
v -1.244069 0.738141 0.724354
v 0 0.738141 0.724354
v -1.402159 0.58005 0.724354
v -1.511047 0.623528 0.724354
v -1.594702 0.36907 0.724354
v -1.752792 0 0.724354
v -1.643905 0.483683 0.724354
v -1.752792 0.21098 0.724354
v -1.445081 0.439893 0.659885
v -1.60199 0.524099 0.00013
v -1.60199 0.474725 0.00013
v -1.445081 0.330776 0.659885
v -1.445081 0.330776 0.659885
v -1.60199 0.474725 0.00013
v -1.651364 0.474725 0.00013
v -1.554198 0.330776 0.659885
v -1.554198 0.330776 0.659885
v -1.651364 0.474725 0.00013
v -1.651364 0.524099 0.00013
v -1.554198 0.439893 0.659885
v -1.554198 0.439893 0.659885
v -1.651364 0.524099 0.00013
v -1.60199 0.524099 0.00013
v -1.445081 0.439893 0.659885
v -1.60199 0.524099 0.00013
v -1.651364 0.524099 0.00013
v -1.651364 0.474725 0.00013
v -1.60199 0.474725 0.00013
v -1.554198 0.439893 0.659885
v -1.445081 0.439893 0.659885
v -1.445081 0.330776 0.659885
v -1.554198 0.330776 0.659885
vt 0.394859 0.472502
vt 0.405287 0.472502
vt 0.405287 0.289961
vt 0.394859 0.289961
vt 0.806435 0.485625
vt 0.951346 0.369738
vt 0.806435 0.369737
vt 0.951346 0.485625
vt 0.935007 0.601512
vt 0.806435 0.601512
vt 0.951346 0.551872
vt 0.962599 0.565524
vt 0.971244 0.485625
vt 0.987583 0.369738
vt 0.976329 0.521613
vt 0.987583 0.435985
vt 0.39486 0.175943
vt 0.405287 0.144986
vt 0.39486 0.144986
vt 0.405287 0.175943
vt 0.405287 0.219028
vt 0.394859 0.219028
vt 0.394859 0.247331
vt 0.405287 0.247331
vt 0.405287 0.289961
vt 0.394859 0.289961
vt 0.942744 0.284407
vt 0.993421 0.284407
vt 0.993421 0.205977
vt 0.970572 0.147209
vt 0.977684 0.104603
vt 0.958482 0.052617
vt 0.942744 0.147209
vt 0.740093 0.147209
vt 0.740093 0.284407
vt 0.942744 0.068779
vt 0.919896 0.010011
vt 0.740093 0.010011
vt 0.655239 0.66602
vt 0.655239 0.973671
vt 0.962889 0.973671
vt 0.962889 0.66602
vt 0.655239 0.66602
vt 0.655239 0.973671
vt 0.962889 0.973671
vt 0.962889 0.66602
vt 0.655239 0.66602
vt 0.655239 0.973671
vt 0.962889 0.973671
vt 0.962889 0.66602
vt 0.655239 0.66602
vt 0.655239 0.973671
vt 0.962889 0.973671
vt 0.962889 0.66602
vt 0.716459 0.959081
vt 0.973456 0.95917
vt 0.973545 0.702172
vt 0.716547 0.702084
vt 0 0
vt 0 1
vt 1 1
vt 1 0
vt 0.394859 0.472502
vt 0.405287 0.289961
vt 0.405287 0.472502
vt 0.394859 0.289961
vt 0.394859 0.247331
vt 0.405287 0.247331
vt 0.405287 0.219028
vt 0.394859 0.219028
vt 0.806435 0.485625
vt 0.806435 0.369737
vt 0.951346 0.369738
vt 0.951346 0.485625
vt 0.935007 0.601512
vt 0.806435 0.601512
vt 0.951346 0.551872
vt 0.962599 0.565524
vt 0.971244 0.485625
vt 0.987583 0.369738
vt 0.976329 0.521613
vt 0.987583 0.435985
vt 0.39486 0.175943
vt 0.39486 0.144986
vt 0.405287 0.144986
vt 0.405287 0.175943
vt 0.405287 0.219028
vt 0.394859 0.219028
vt 0.740093 0.147209
vt 0.942744 0.284407
vt 0.740093 0.284407
vt 0.942744 0.147209
vt 0.740093 0.010011
vt 0.993421 0.284407
vt 0.919896 0.010011
vt 0.970572 0.147209
vt 0.993421 0.205977
vt 0.977684 0.104603
vt 0.958482 0.052617
vt 0.942744 0.068779
vt 0.655239 0.66602
vt 0.962889 0.66602
vt 0.962889 0.973671
vt 0.655239 0.973671
vt 0.655239 0.66602
vt 0.962889 0.66602
vt 0.962889 0.973671
vt 0.655239 0.973671
vt 0.655239 0.66602
vt 0.962889 0.66602
vt 0.962889 0.973671
vt 0.655239 0.973671
vt 0.655239 0.66602
vt 0.962889 0.66602
vt 0.962889 0.973671
vt 0.655239 0.973671
vt 0.716459 0.959081
vt 0.716547 0.702084
vt 0.973545 0.702172
vt 0.973456 0.95917
vt 0 0
vt 1 0
vt 1 1
vt 0 1
vt 0.394859 0.472502
vt 0.405287 0.289961
vt 0.405287 0.472502
vt 0.394859 0.289961
vt 0.394859 0.247331
vt 0.405287 0.247331
vt 0.405287 0.219028
vt 0.394859 0.219028
vt 0.39486 0.175943
vt 0.405287 0.175943
vt 0.806435 0.485625
vt 0.806435 0.369737
vt 0.951346 0.369738
vt 0.951346 0.485625
vt 0.951346 0.551872
vt 0.935007 0.601512
vt 0.806435 0.601512
vt 0.962599 0.565524
vt 0.971244 0.485625
vt 0.976329 0.521613
vt 0.987583 0.435985
vt 0.987583 0.369738
vt 0.39486 0.175943
vt 0.39486 0.144986
vt 0.405287 0.144986
vt 0.405287 0.175943
vt 0.740093 0.147209
vt 0.942744 0.284407
vt 0.740093 0.284407
vt 0.942744 0.147209
vt 0.919896 0.010011
vt 0.740093 0.010011
vt 0.942744 0.068779
vt 0.958482 0.052617
vt 0.970572 0.147209
vt 0.993421 0.284407
vt 0.977684 0.104603
vt 0.993421 0.205977
vt 0.655239 0.66602
vt 0.962889 0.66602
vt 0.962889 0.973671
vt 0.655239 0.973671
vt 0.655239 0.66602
vt 0.962889 0.66602
vt 0.962889 0.973671
vt 0.655239 0.973671
vt 0.655239 0.66602
vt 0.962889 0.66602
vt 0.962889 0.973671
vt 0.655239 0.973671
vt 0.655239 0.66602
vt 0.962889 0.66602
vt 0.962889 0.973671
vt 0.655239 0.973671
vt 0.716459 0.959081
vt 0.716547 0.702084
vt 0.973545 0.702172
vt 0.973456 0.95917
vt 0 0
vt 1 0
vt 1 1
vt 0 1
vt 0.394859 0.472502
vt 0.405287 0.472502
vt 0.405287 0.289961
vt 0.394859 0.289961
vt 0.394859 0.247331
vt 0.405287 0.247331
vt 0.405287 0.219028
vt 0.394859 0.247331
vt 0.405287 0.219028
vt 0.394859 0.219028
vt 0.39486 0.175943
vt 0.405287 0.175943
vt 0.405287 0.144986
vt 0.39486 0.144986
vt 0.806435 0.485625
vt 0.951346 0.369738
vt 0.806435 0.369737
vt 0.951346 0.485625
vt 0.806435 0.601512
vt 0.987583 0.369738
vt 0.935007 0.601512
vt 0.971244 0.485625
vt 0.987583 0.435985
vt 0.976329 0.521613
vt 0.962599 0.565524
vt 0.951346 0.551872
vt 0.740093 0.147209
vt 0.740093 0.284407
vt 0.942744 0.284407
vt 0.942744 0.147209
vt 0.919896 0.010011
vt 0.740093 0.010011
vt 0.942744 0.068779
vt 0.958482 0.052617
vt 0.970572 0.147209
vt 0.993421 0.284407
vt 0.977684 0.104603
vt 0.993421 0.205977
vt 0.655239 0.66602
vt 0.655239 0.973671
vt 0.962889 0.973671
vt 0.962889 0.66602
vt 0.655239 0.66602
vt 0.655239 0.973671
vt 0.962889 0.973671
vt 0.962889 0.66602
vt 0.655239 0.66602
vt 0.655239 0.973671
vt 0.962889 0.973671
vt 0.962889 0.66602
vt 0.655239 0.66602
vt 0.655239 0.973671
vt 0.962889 0.973671
vt 0.962889 0.66602
vt 0.716459 0.959081
vt 0.973456 0.95917
vt 0.973545 0.702172
vt 0.716547 0.702084
vt 0 0
vt 0 1
vt 1 1
vt 1 0
vn 0 -1 0
vn 0 -1 0
vn 0.0756328 -0.9971358 0
vn 0.0756328 -0.9971358 0
vn 0 0 -1
vn 0 0 -1
vn 0 0 -1
vn 0 0 -1
vn 0 0 -1
vn 0 0 -1
vn 0 0 -1
vn 0 0 -1
vn 0 0 -1
vn 0 0 -1
vn 0 0 -1
vn 0 0 -1
vn 0.9755846 -0.2196241 0
vn 1 0 0
vn 1 0 0
vn 0.9755846 -0.2196241 0
vn 0.8627833 -0.5055739 0
vn 0.8627833 -0.5055739 0
vn 0.5369009 -0.8436454 0
vn 0.5369009 -0.8436454 0
vn 0.0756328 -0.9971358 0
vn 0.0756328 -0.9971358 0
vn 0 0 1
vn 0 0 1
vn 0 0 1
vn 0 0 1
vn 0 0 1
vn 0 0 1
vn 0 0 1
vn 0 0 1
vn 0 0 1
vn 0 0 1
vn 0 0 1
vn 0 0 1
vn -0.9728645 0 -0.2313756
vn -0.96083 0 -0.2771383
vn -0.663556 0.6706954 -0.3314531
vn -0.9728645 0 -0.2313756
vn 0 0.977015 -0.2131706
vn -0.663556 0.6706954 -0.3314531
vn 0 0.9655555 -0.2601973
vn 0 0.977015 -0.2131705
vn 0.9250387 0 0.3798729
vn 0.9893282 0 0.1457041
vn 0.9893282 0 0.1457041
vn 0.6651194 -0.672749 0.3240755
vn 0.6651194 -0.672749 0.3240755
vn 0 -0.9919532 0.1266052
vn 0 -0.9919532 0.1266052
vn 0 -0.9301459 0.36719
vn -0.96083 0 -0.2771383
vn 0 0 -1
vn 0 0.9655555 -0.2601973
vn -0.663556 0.6706954 -0.3314531
vn 0.6651194 -0.672749 0.3240755
vn 0 -0.9301459 0.36719
vn 0 0 1
vn 0.9250387 0 0.3798729
vn 0 -1 0
vn -0.0756328 -0.9971358 0
vn 0 -1 0
vn -0.0756328 -0.9971358 0
vn -0.5369009 -0.8436454 0
vn -0.5369009 -0.8436454 0
vn -0.8627833 -0.5055739 0
vn -0.8627833 -0.5055739 0
vn 0 0 -1
vn 0 0 -1
vn 0 0 -1
vn 0 0 -1
vn 0 0 -1
vn 0 0 -1
vn 0 0 -1
vn 0 0 -1
vn 0 0 -1
vn 0 0 -1
vn 0 0 -1
vn 0 0 -1
vn -0.9755846 -0.2196241 0
vn -1 0 0
vn -1 0 0
vn -0.9755846 -0.2196241 0
vn -0.8627833 -0.5055739 0
vn -0.8627833 -0.5055739 0
vn 0 0 1
vn 0 0 1
vn 0 0 1
vn 0 0 1
vn 0 0 1
vn 0 0 1
vn 0 0 1
vn 0 0 1
vn 0 0 1
vn 0 0 1
vn 0 0 1
vn 0 0 1
vn 0.9728645 0 -0.2313756
vn 0.9728645 0 -0.2313756
vn 0.663556 0.6706954 -0.3314531
vn 0.96083 0 -0.2771383
vn 0 0.977015 -0.2131706
vn 0 0.977015 -0.2131706
vn 0 0.9655555 -0.2601973
vn 0.663556 0.6706954 -0.3314531
vn -0.9250387 0 0.3798729
vn -0.6651194 -0.6727491 0.3240755
vn -0.9893282 0 0.1457041
vn -0.9893282 0 0.1457041
vn -0.6651194 -0.6727491 0.3240755
vn 0 -0.9301459 0.36719
vn 0 -0.9919532 0.1266052
vn 0 -0.9919532 0.1266052
vn 0.96083 0 -0.2771383
vn 0.663556 0.6706954 -0.3314531
vn 0 0.9655555 -0.2601973
vn 0 0 -1
vn -0.6651194 -0.6727491 0.3240755
vn -0.9250387 0 0.3798729
vn 0 0 1
vn 0 -0.9301459 0.36719
vn 0 1 0
vn 0.0756328 0.9971358 0
vn 0 1 0
vn 0.0756328 0.9971358 0
vn 0.5369009 0.8436454 0
vn 0.5369009 0.8436454 0
vn 0.8627833 0.5055739 0
vn 0.8627833 0.5055739 0
vn 0.9755846 0.2196241 0
vn 0.9755846 0.2196241 0
vn 0 0 -1
vn 0 0 -1
vn 0 0 -1
vn 0 0 -1
vn 0 0 -1
vn 0 0 -1
vn 0 0 -1
vn 0 0 -1
vn 0 0 -1
vn 0 0 -1
vn 0 0 -1
vn 0 0 -1
vn 0.9755846 0.2196241 0
vn 1 0 0
vn 1 0 0
vn 0.9755846 0.2196241 0
vn 0 0 1
vn 0 0 1
vn 0 0 1
vn 0 0 1
vn 0 0 1
vn 0 0 1
vn 0 0 1
vn 0 0 1
vn 0 0 1
vn 0 0 1
vn 0 0 1
vn 0 0 1
vn -0.9728645 0 -0.2313756
vn -0.9728645 0 -0.2313756
vn -0.663556 -0.6706954 -0.3314531
vn -0.96083 0 -0.2771384
vn 0 -0.977015 -0.2131705
vn 0 -0.977015 -0.2131705
vn 0 -0.9655555 -0.2601973
vn -0.663556 -0.6706954 -0.3314531
vn 0.9250387 0 0.3798729
vn 0.6651194 0.672749 0.3240755
vn 0.9893282 0 0.1457041
vn 0.9893282 0 0.1457041
vn 0.6651194 0.672749 0.3240755
vn 0 0.9301459 0.36719
vn 0 0.9919532 0.1266052
vn 0 0.9919532 0.1266052
vn -0.96083 0 -0.2771384
vn -0.663556 -0.6706954 -0.3314531
vn 0 -0.9655555 -0.2601973
vn 0 0 -1
vn 0.6651194 0.672749 0.3240755
vn 0.9250387 0 0.3798729
vn 0 0 1
vn 0 0.9301459 0.36719
vn 0 1 0
vn 0 1 0
vn -0.0756328 0.9971358 0
vn -0.0756328 0.9971358 0
vn -0.5369009 0.8436454 0
vn -0.5369009 0.8436454 0
vn -0.8627833 0.5055739 0
vn -0.5369009 0.8436454 0
vn -0.8627833 0.5055739 0
vn -0.8627833 0.5055739 0
vn -0.9755846 0.2196241 0
vn -0.9755846 0.2196241 0
vn -1 0 0
vn -1 0 0
vn 0 0 -1
vn 0 0 -1
vn 0 0 -1
vn 0 0 -1
vn 0 0 -1
vn 0 0 -1
vn 0 0 -1
vn 0 0 -1
vn 0 0 -1
vn 0 0 -1
vn 0 0 -1
vn 0 0 -1
vn 0 0 1
vn 0 0 1
vn 0 0 1
vn 0 0 1
vn 0 0 1
vn 0 0 1
vn 0 0 1
vn 0 0 1
vn 0 0 1
vn 0 0 1
vn 0 0 1
vn 0 0 1
vn 0.9728645 0 -0.2313756
vn 0.96083 0 -0.2771384
vn 0.6635559 -0.6706954 -0.3314531
vn 0.9728645 0 -0.2313756
vn 0 -0.977015 -0.2131705
vn 0.6635559 -0.6706954 -0.3314531
vn 0 -0.9655555 -0.2601973
vn 0 -0.977015 -0.2131705
vn -0.9250387 0 0.3798729
vn -0.9893282 0 0.1457041
vn -0.9893282 0 0.1457041
vn -0.6651194 0.6727491 0.3240755
vn -0.6651194 0.6727491 0.3240755
vn 0 0.9919532 0.1266052
vn 0 0.9919532 0.1266052
vn 0 0.9301459 0.36719
vn 0.96083 0 -0.2771384
vn 0 0 -1
vn 0 -0.9655555 -0.2601973
vn 0.6635559 -0.6706954 -0.3314531
vn -0.6651194 0.6727491 0.3240755
vn 0 0.9301459 0.36719
vn 0 0 1
vn -0.9250387 0 0.3798729
g WhiteCoffeeTableLong_0
f 3/3/3 2/2/2 1/1/1
f 4/4/4 3/3/3 1/1/1
f 7/7/7 6/6/6 5/5/5
f 6/6/6 8/8/8 5/5/5
f 9/9/9 5/5/5 8/8/8
f 9/9/9 10/10/10 5/5/5
f 8/8/8 11/11/11 9/9/9
f 9/9/9 11/11/11 12/12/12
f 12/12/12 11/11/11 8/8/8
f 13/13/13 8/8/8 6/6/6
f 12/12/12 8/8/8 13/13/13
f 13/13/13 6/6/6 14/14/14
f 13/13/13 15/15/15 12/12/12
f 14/14/14 16/16/16 13/13/13
f 15/15/15 13/13/13 16/16/16
f 19/19/19 18/18/18 17/17/17
f 18/18/18 20/20/20 17/17/17
f 20/20/20 21/21/21 17/17/17
f 21/21/21 22/22/22 17/17/17
f 22/22/22 21/21/21 23/23/23
f 21/21/21 24/24/24 23/23/23
f 23/23/23 24/24/24 25/25/25
f 26/26/26 23/23/23 25/25/25
f 29/29/29 28/28/28 27/27/27
f 27/27/27 30/30/30 29/29/29
f 29/29/29 30/30/30 31/31/31
f 32/32/32 31/31/31 30/30/30
f 27/27/27 33/33/33 30/30/30
f 30/30/30 33/33/33 32/32/32
f 33/33/33 27/27/27 34/34/34
f 27/27/27 35/35/35 34/34/34
f 33/33/33 36/36/36 32/32/32
f 36/36/36 33/33/33 34/34/34
f 32/32/32 36/36/36 37/37/37
f 34/34/34 37/37/37 36/36/36
f 34/34/34 38/38/38 37/37/37
f 41/41/41 40/40/40 39/39/39
f 42/42/42 41/41/41 39/39/39
f 45/45/45 44/44/44 43/43/43
f 46/46/46 45/45/45 43/43/43
f 49/49/49 48/48/48 47/47/47
f 50/50/50 49/49/49 47/47/47
f 53/53/53 52/52/52 51/51/51
f 54/54/54 53/53/53 51/51/51
f 57/57/57 56/56/56 55/55/55
f 58/58/58 57/57/57 55/55/55
f 61/61/61 60/60/60 59/59/59
f 62/62/62 61/61/61 59/59/59
f 65/65/65 64/64/64 63/63/63
f 64/64/64 66/66/66 63/63/63
f 67/67/67 66/66/66 64/64/64
f 68/68/68 67/67/67 64/64/64
f 68/68/68 69/69/69 67/67/67
f 69/69/69 70/70/70 67/67/67
f 73/73/73 72/72/72 71/71/71
f 74/74/74 73/73/73 71/71/71
f 75/75/75 74/74/74 71/71/71
f 71/71/71 76/76/76 75/75/75
f 75/75/75 77/77/77 74/74/74
f 77/77/77 75/75/75 78/78/78
f 74/74/74 77/77/77 78/78/78
f 73/73/73 74/74/74 79/79/79
f 78/78/78 79/79/79 74/74/74
f 79/79/79 80/80/80 73/73/73
f 78/78/78 81/81/81 79/79/79
f 79/79/79 82/82/82 80/80/80
f 79/79/79 81/81/81 82/82/82
f 85/85/85 84/84/84 83/83/83
f 86/86/86 85/85/85 83/83/83
f 87/87/87 86/86/86 83/83/83
f 88/88/88 87/87/87 83/83/83
f 91/91/91 90/90/90 89/89/89
f 90/90/90 92/92/92 89/89/89
f 93/93/93 89/89/89 92/92/92
f 92/92/92 90/90/90 94/94/94
f 92/92/92 95/95/95 93/93/93
f 94/94/94 96/96/96 92/92/92
f 94/94/94 97/97/97 96/96/96
f 96/96/96 97/97/97 98/98/98
f 96/96/96 98/98/98 99/99/99
f 92/92/92 100/100/100 95/95/95
f 100/100/100 99/99/99 95/95/95
f 100/100/100 92/92/92 96/96/96
f 96/96/96 99/99/99 100/100/100
f 103/103/103 102/102/102 101/101/101
f 104/104/104 103/103/103 101/101/101
f 107/107/107 106/106/106 105/105/105
f 108/108/108 107/107/107 105/105/105
f 111/111/111 110/110/110 109/109/109
f 112/112/112 111/111/111 109/109/109
f 115/115/115 114/114/114 113/113/113
f 116/116/116 115/115/115 113/113/113
f 119/119/119 118/118/118 117/117/117
f 120/120/120 119/119/119 117/117/117
f 123/123/123 122/122/122 121/121/121
f 124/124/124 123/123/123 121/121/121
f 127/127/127 126/126/126 125/125/125
f 126/126/126 128/128/128 125/125/125
f 129/129/129 128/128/128 126/126/126
f 130/130/130 129/129/129 126/126/126
f 130/130/130 131/131/131 129/129/129
f 131/131/131 132/132/132 129/129/129
f 132/132/132 131/131/131 133/133/133
f 131/131/131 134/134/134 133/133/133
f 137/137/137 136/136/136 135/135/135
f 138/138/138 137/137/137 135/135/135
f 139/139/139 138/138/138 135/135/135
f 135/135/135 140/140/140 139/139/139
f 135/135/135 141/141/141 140/140/140
f 139/139/139 140/140/140 142/142/142
f 138/138/138 139/139/139 142/142/142
f 143/143/143 138/138/138 142/142/142
f 137/137/137 138/138/138 143/143/143
f 142/142/142 144/144/144 143/143/143
f 143/143/143 144/144/144 145/145/145
f 137/137/137 143/143/143 145/145/145
f 145/145/145 146/146/146 137/137/137
f 149/149/149 148/148/148 147/147/147
f 150/150/150 149/149/149 147/147/147
f 153/153/153 152/152/152 151/151/151
f 152/152/152 154/154/154 151/151/151
f 155/155/155 151/151/151 154/154/154
f 155/155/155 156/156/156 151/151/151
f 154/154/154 157/157/157 155/155/155
f 157/157/157 158/158/158 155/155/155
f 158/158/158 157/157/157 154/154/154
f 159/159/159 154/154/154 152/152/152
f 158/158/158 154/154/154 159/159/159
f 159/159/159 152/152/152 160/160/160
f 159/159/159 161/161/161 158/158/158
f 160/160/160 162/162/162 159/159/159
f 159/159/159 162/162/162 161/161/161
f 165/165/165 164/164/164 163/163/163
f 166/166/166 165/165/165 163/163/163
f 169/169/169 168/168/168 167/167/167
f 170/170/170 169/169/169 167/167/167
f 173/173/173 172/172/172 171/171/171
f 174/174/174 173/173/173 171/171/171
f 177/177/177 176/176/176 175/175/175
f 178/178/178 177/177/177 175/175/175
f 181/181/181 180/180/180 179/179/179
f 182/182/182 181/181/181 179/179/179
f 185/185/185 184/184/184 183/183/183
f 186/186/186 185/185/185 183/183/183
f 189/189/189 188/188/188 187/187/187
f 190/190/190 189/189/189 187/187/187
f 190/190/190 191/191/191 189/189/189
f 191/191/191 192/192/192 189/189/189
f 193/193/193 192/192/192 191/191/191
f 196/196/196 195/195/195 194/194/194
f 195/195/195 196/196/196 197/197/197
f 198/198/198 195/195/195 197/197/197
f 199/199/199 198/198/198 197/197/197
f 200/200/200 199/199/199 197/197/197
f 203/203/203 202/202/202 201/201/201
f 202/202/202 204/204/204 201/201/201
f 205/205/205 201/201/201 204/204/204
f 204/204/204 202/202/202 206/206/206
f 204/204/204 207/207/207 205/205/205
f 206/206/206 208/208/208 204/204/204
f 206/206/206 209/209/209 208/208/208
f 210/210/210 208/208/208 209/209/209
f 208/208/208 210/210/210 211/211/211
f 204/204/204 212/212/212 207/207/207
f 207/207/207 212/212/212 211/211/211
f 212/212/212 204/204/204 208/208/208
f 208/208/208 211/211/211 212/212/212
f 215/215/215 214/214/214 213/213/213
f 216/216/216 215/215/215 213/213/213
f 217/217/217 216/216/216 213/213/213
f 213/213/213 218/218/218 217/217/217
f 217/217/217 219/219/219 216/216/216
f 220/220/220 219/219/219 217/217/217
f 216/216/216 219/219/219 220/220/220
f 215/215/215 216/216/216 221/221/221
f 220/220/220 221/221/221 216/216/216
f 221/221/221 222/222/222 215/215/215
f 220/220/220 223/223/223 221/221/221
f 221/221/221 224/224/224 222/222/222
f 224/224/224 221/221/221 223/223/223
f 227/227/227 226/226/226 225/225/225
f 228/228/228 227/227/227 225/225/225
f 231/231/231 230/230/230 229/229/229
f 232/232/232 231/231/231 229/229/229
f 235/235/235 234/234/234 233/233/233
f 236/236/236 235/235/235 233/233/233
f 239/239/239 238/238/238 237/237/237
f 240/240/240 239/239/239 237/237/237
f 243/243/243 242/242/242 241/241/241
f 244/244/244 243/243/243 241/241/241
f 247/247/247 246/246/246 245/245/245
f 248/248/248 247/247/247 245/245/245
