g WoodFlowerBedSide
v -0.149083 1 0.583522
v -0.149083 1 0.888184
v -0.149084 -1 0.888184
v -0.149084 -1 0.583522
v -0.149083 1 0.278859
v -0.149084 -1 0.278859
v -0.149083 1 -0.025803
v -0.149084 -1 -0.025803
v -0.201408 1 0.451607
v -0.201408 1 0.90897
v -0.201408 -1 0.90897
v -0.201408 -1 0.451607
v 0.008393 1 0.451607
v -0.201408 1 0.451607
v -0.201408 -1 0.451607
v 0.008393 -1 0.451607
v 0.008393 -1 0.451607
v -0.201408 -1 0.451607
v -0.201408 -1 0.90897
v 0.008393 -1 0.90897
v 0.008393 1 0.90897
v -0.201408 1 0.90897
v -0.201408 1 0.451607
v 0.008393 1 0.451607
v 0.008393 -1 0.90897
v -0.201408 -1 0.90897
v -0.201408 1 0.90897
v 0.008393 1 0.90897
v -0.201408 1 0.030476
v -0.201408 1 0.428583
v -0.201408 -1 0.428583
v -0.201408 -1 0.030476
v 0.008393 1 0.030476
v -0.201408 1 0.030476
v -0.201408 -1 0.030476
v 0.008393 -1 0.030476
v 0.008393 -1 0.030476
v -0.201408 -1 0.030476
v -0.201408 -1 0.428583
v 0.008393 -1 0.428583
v 0.008393 1 0.428583
v -0.201408 1 0.428583
v -0.201408 1 0.030476
v 0.008393 1 0.030476
v 0.008393 -1 0.428583
v -0.201408 -1 0.428583
v -0.201408 1 0.428583
v 0.008393 1 0.428583
v -0.026371 0.152331 0.994234
v -0.162154 0.152331 0.994234
v -0.162154 0.152331 -0.012173
v -0.026371 0.152331 -0.012173
v 0.057672 0.068288 0.994234
v 0.057672 0.068288 -0.012173
v -0.026371 -0.152331 -0.012173
v -0.162154 -0.152331 -0.012173
v -0.162154 -0.152331 0.994234
v -0.026371 -0.152331 0.994234
v 0.057672 -0.068288 -0.012173
v 0.057672 -0.068288 0.994234
v -0.026371 -0.152331 -0.012173
v 0.057672 -0.068288 -0.012173
v 0.057672 0.068288 -0.012173
v -0.026371 0.152331 -0.012173
v -0.162154 -0.152331 -0.012173
v -0.162154 0.152331 -0.012173
v -0.246197 -0.068288 -0.012173
v -0.246197 0.068288 -0.012173
v 0.008393 1 0.90897
v 0.008393 1 0.451607
v 0.008393 -1 0.451607
v 0.008393 -1 0.90897
v -0.026371 0.152331 0.994234
v 0.057672 0.068288 0.994234
v 0.057672 -0.068288 0.994234
v -0.026371 -0.152331 0.994234
v -0.162154 0.152331 0.994234
v -0.162154 -0.152331 0.994234
v -0.246197 0.068288 0.994234
v -0.246197 -0.068288 0.994234
v -0.246197 -0.068288 0.994234
v -0.162154 -0.152331 0.994234
v -0.162154 -0.152331 -0.012173
v -0.246197 -0.068288 -0.012173
v -0.246197 0.068288 0.994234
v -0.246197 0.068288 -0.012173
v -0.162154 0.152331 0.994234
v -0.162154 0.152331 -0.012173
v 0.057672 -0.068288 0.994234
v 0.057672 0.068288 0.994234
v 0.057672 0.068288 -0.012173
v 0.057672 -0.068288 -0.012173
vt 0.639529 0.809932
vt 0.650056 0.809932
vt 0.650056 0.962754
vt 0.639529 0.962754
vt 0.629003 0.809932
vt 0.629003 0.962754
vt 0.618476 0.809932
vt 0.618476 0.962754
vt 0.649162 0.744123
vt 0.714224 0.744123
vt 0.714224 0.967954
vt 0.649162 0.967954
vt 0.649162 0.729908
vt 0.649162 0.729908
vt 0.649162 0.982169
vt 0.649162 0.982169
vt 0.718324 0.727965
vt 0.645149 0.727965
vt 0.645149 0.985587
vt 0.718324 0.985587
vt 0.718324 0.985587
vt 0.645149 0.985587
vt 0.645149 0.727965
vt 0.718324 0.727965
vt 0.649285 0.983424
vt 0.713461 0.983424
vt 0.713461 0.729993
vt 0.649285 0.729993
vt 0.649162 0.744123
vt 0.714224 0.744123
vt 0.714224 0.967954
vt 0.649162 0.967954
vt 0.649162 0.729908
vt 0.649162 0.729908
vt 0.649162 0.982169
vt 0.649162 0.982169
vt 0.718324 0.733798
vt 0.645149 0.733798
vt 0.645149 0.986251
vt 0.718324 0.986251
vt 0.718324 0.986251
vt 0.645149 0.986251
vt 0.645149 0.733798
vt 0.718324 0.733798
vt 0.714224 0.982169
vt 0.714224 0.982169
vt 0.714224 0.729908
vt 0.714224 0.729908
vt 0.66628 0.982674
vt 0.694686 0.982674
vt 0.694686 0.726574
vt 0.66628 0.726574
vt 0.648697 0.982674
vt 0.648697 0.726574
vt 0.695397 0.726574
vt 0.666991 0.726574
vt 0.666991 0.982674
vt 0.695397 0.982674
vt 0.71298 0.726574
vt 0.71298 0.982674
vt 0.714224 0.982169
vt 0.696276 0.982169
vt 0.66711 0.982169
vt 0.649162 0.982169
vt 0.714224 0.982169
vt 0.649162 0.982169
vt 0.696276 0.982169
vt 0.66711 0.982169
vt 0.714224 0.729908
vt 0.649162 0.729908
vt 0.649162 0.982169
vt 0.714224 0.982169
vt 0.236664 0.851533
vt 0.203204 0.884993
vt 0.203204 0.939369
vt 0.236664 0.97283
vt 0.290724 0.851533
vt 0.290724 0.97283
vt 0.324185 0.884993
vt 0.324185 0.939369
vt 0.696276 0.729908
vt 0.714224 0.729908
vt 0.714224 0.982169
vt 0.696276 0.982169
vt 0.66711 0.729908
vt 0.66711 0.982169
vt 0.649162 0.729908
vt 0.649162 0.982169
vt 0.696276 0.729908
vt 0.66711 0.729908
vt 0.66711 0.982169
vt 0.696276 0.982169
vn -1 0 0
vn -1 0 0
vn -1 0 0
vn -1 0 0
vn -1 0 0
vn -1 0 0
vn -1 0 0
vn -1 0 0
vn -1 0 0
vn -1 0 0
vn -1 0 0
vn -1 0 0
vn 0 0 -1
vn 0 0 -1
vn 0 0 -1
vn 0 0 -1
vn 0 -1 0
vn 0 -1 0
vn 0 -1 0
vn 0 -1 0
vn 0 1 0
vn 0 1 0
vn 0 1 0
vn 0 1 0
vn 0 0 1
vn 0 0 1
vn 0 0 1
vn 0 0 1
vn -1 0 0
vn -1 0 0
vn -1 0 0
vn -1 0 0
vn 0 0 -1
vn 0 0 -1
vn 0 0 -1
vn 0 0 -1
vn 0 -1 0
vn 0 -1 0
vn 0 -1 0
vn 0 -1 0
vn 0 1 0
vn 0 1 0
vn 0 1 0
vn 0 1 0
vn 0 0 1
vn 0 0 1
vn 0 0 1
vn 0 0 1
vn 0.3571073 0.9340633 0
vn -0.3571074 0.9340633 0
vn -0.3571074 0.9340633 0
vn 0.3571073 0.9340633 0
vn 0.934491 0.3559867 0
vn 0.934491 0.3559867 0
vn 0.3571073 -0.9340633 0
vn -0.3571074 -0.9340633 0
vn -0.3571074 -0.9340633 0
vn 0.3571073 -0.9340633 0
vn 0.934491 -0.3559867 0
vn 0.934491 -0.3559867 0
vn 0 0 -1
vn 0 0 -1
vn 0 0 -1
vn 0 0 -1
vn 0 0 -1
vn 0 0 -1
vn 0 0 -1
vn 0 0 -1
vn 1 0 0
vn 1 0 0
vn 1 0 0
vn 1 0 0
vn 0 0 1
vn 0 0 1
vn 0 0 1
vn 0 0 1
vn 0 0 1
vn 0 0 1
vn 0 0 1
vn 0 0 1
vn -0.934491 -0.3559867 0
vn -0.3571074 -0.9340633 0
vn -0.3571074 -0.9340633 0
vn -0.934491 -0.3559867 0
vn -0.934491 0.3559867 0
vn -0.934491 0.3559867 0
vn -0.3571074 0.9340633 0
vn -0.3571074 0.9340633 0
vn 0.934491 -0.3559867 0
vn 0.934491 0.3559867 0
vn 0.934491 0.3559867 0
vn 0.934491 -0.3559867 0
g WoodFlowerBedSide_0
f 3/3/3 2/2/2 1/1/1
f 4/4/4 3/3/3 1/1/1
f 4/4/4 1/1/1 5/5/5
f 6/6/6 4/4/4 5/5/5
f 6/6/6 5/5/5 7/7/7
f 8/8/8 6/6/6 7/7/7
f 11/11/11 10/10/10 9/9/9
f 12/12/12 11/11/11 9/9/9
f 15/15/15 14/14/14 13/13/13
f 16/16/16 15/15/15 13/13/13
f 19/19/19 18/18/18 17/17/17
f 20/20/20 19/19/19 17/17/17
f 23/23/23 22/22/22 21/21/21
f 24/24/24 23/23/23 21/21/21
f 27/27/27 26/26/26 25/25/25
f 28/28/28 27/27/27 25/25/25
f 31/31/31 30/30/30 29/29/29
f 32/32/32 31/31/31 29/29/29
f 35/35/35 34/34/34 33/33/33
f 36/36/36 35/35/35 33/33/33
f 39/39/39 38/38/38 37/37/37
f 40/40/40 39/39/39 37/37/37
f 43/43/43 42/42/42 41/41/41
f 44/44/44 43/43/43 41/41/41
f 47/47/47 46/46/46 45/45/45
f 48/48/48 47/47/47 45/45/45
f 51/51/51 50/50/50 49/49/49
f 52/52/52 51/51/51 49/49/49
f 49/49/49 53/53/53 52/52/52
f 53/53/53 54/54/54 52/52/52
f 57/57/57 56/56/56 55/55/55
f 58/58/58 57/57/57 55/55/55
f 55/55/55 59/59/59 58/58/58
f 59/59/59 60/60/60 58/58/58
f 63/63/63 62/62/62 61/61/61
f 61/61/61 64/64/64 63/63/63
f 61/61/61 65/65/65 64/64/64
f 65/65/65 66/66/66 64/64/64
f 65/65/65 67/67/67 66/66/66
f 67/67/67 68/68/68 66/66/66
f 71/71/71 70/70/70 69/69/69
f 72/72/72 71/71/71 69/69/69
f 75/75/75 74/74/74 73/73/73
f 73/73/73 76/76/76 75/75/75
f 73/73/73 77/77/77 76/76/76
f 77/77/77 78/78/78 76/76/76
f 77/77/77 79/79/79 78/78/78
f 79/79/79 80/80/80 78/78/78
f 83/83/83 82/82/82 81/81/81
f 84/84/84 83/83/83 81/81/81
f 84/84/84 81/81/81 85/85/85
f 86/86/86 84/84/84 85/85/85
f 85/85/85 87/87/87 86/86/86
f 87/87/87 88/88/88 86/86/86
f 91/91/91 90/90/90 89/89/89
f 92/92/92 91/91/91 89/89/89
