g WoodenTorch
v -0.087593 -0.047132 0.254117
v -0.069977 -0.036504 -0.333941
v -0.070006 0.036447 -0.333848
v -0.035745 -0.07029 -0.333817
v -0.087635 0.047037 0.30091
v -0.046473 -0.087867 0.300916
v -0.047106 0.087608 0.300963
v -0.036551 0.069961 -0.333875
v 0.046402 -0.087894 0.32806
v 0.035637 -0.070335 -0.333771
v 0.036642 0.069917 -0.334023
v 0.047275 0.08753 0.228321
v 0.069861 -0.036777 -0.33394
v 0.087473 -0.04741 0.245995
v 0.087829 0.046583 0.301125
v 0.070263 0.035808 -0.333923
v 0.048786 -0.048786 0.589336
v -0.048786 -0.048786 0.589336
v -0.048786 0.048786 0.589336
v 0.048786 0.048786 0.589336
v -0.091719 -0.049 0.515833
v -0.048699 -0.091876 0.515642
v 0.048664 -0.091902 0.51558
v -0.091752 0.048987 0.5157
v -0.048786 -0.048786 0.589336
v 0.048786 -0.048786 0.589336
v -0.048786 0.048786 0.589336
v -0.049019 0.091733 0.515729
v 0.091664 -0.049128 0.515847
v 0.048786 0.048786 0.589336
v 0.049036 0.091684 0.515928
v 0.09183 0.048741 0.515782
vn -0.9512293 -0.3069751 -0.03047872
vn -0.9543927 -0.296743 -0.03283385
vn -0.952287 0.3035108 -0.03210662
vn -0.2778803 -0.9601042 -0.03134421
vn -0.9478022 0.3176726 -0.02747686
vn -0.2433839 -0.9695483 -0.02720791
vn -0.3259565 0.9450055 -0.02677489
vn -0.3097892 0.9502491 -0.03251535
vn 0.2560759 -0.9663081 -0.02596006
vn 0.2803509 -0.9593956 -0.03103915
vn 0.2960088 0.9545931 -0.03362723
vn 0.3066258 0.9513098 -0.03146989
vn 0.9511132 -0.3070943 -0.03281467
vn 0.945501 -0.3241467 -0.03093274
vn 0.9617433 0.2728392 -0.02466722
vn 0.9580368 0.2847621 -0.03279988
vn 0 0 1
vn 0 0 1
vn 0 0 1
vn 0 0 1
vn -0.9600265 -0.2615293 0.09975767
vn -0.2806494 -0.9536152 0.1088753
vn 0.2738687 -0.9554462 0.1100847
vn -0.9640042 0.2454048 0.1023358
vn -0.5560766 -0.5546139 0.6190172
vn 0.5557692 -0.5548702 0.6190634
vn -0.5555428 0.55532 0.6188633
vn -0.2394914 0.9658108 0.09926394
vn 0.961584 -0.2555355 0.1002881
vn 0.5547264 0.5557861 0.6191771
vn 0.2622364 0.9602469 0.09569856
vn 0.9596182 0.2640153 0.09710234
g WoodenTorch_0
f 3/3/3 2/2/2 1/1/1
f 1/1/1 2/2/2 4/4/4
f 5/5/5 3/3/3 1/1/1
f 6/6/6 1/1/1 4/4/4
f 3/3/3 5/5/5 7/7/7
f 8/8/8 3/3/3 7/7/7
f 6/6/6 4/4/4 9/9/9
f 4/4/4 10/10/10 9/9/9
f 11/11/11 8/8/8 7/7/7
f 12/12/12 11/11/11 7/7/7
f 10/10/10 13/13/13 9/9/9
f 13/13/13 14/14/14 9/9/9
f 11/11/11 12/12/12 15/15/15
f 14/14/14 13/13/13 15/15/15
f 16/16/16 11/11/11 15/15/15
f 13/13/13 16/16/16 15/15/15
g WoodenTorch_1
f 19/19/19 18/18/18 17/17/17
f 20/20/20 19/19/19 17/17/17
f 21/21/21 1/1/1 6/6/6
f 5/5/5 1/1/1 21/21/21
f 22/22/22 21/21/21 6/6/6
f 22/22/22 6/6/6 23/23/23
f 6/6/6 9/9/9 23/23/23
f 9/9/9 14/14/14 23/23/23
f 24/24/24 5/5/5 21/21/21
f 25/25/25 21/21/21 22/22/22
f 24/24/24 21/21/21 25/25/25
f 25/25/25 22/22/22 26/26/26
f 22/22/22 23/23/23 26/26/26
f 27/27/27 24/24/24 25/25/25
f 5/5/5 24/24/24 28/28/28
f 28/28/28 24/24/24 27/27/27
f 7/7/7 5/5/5 28/28/28
f 12/12/12 7/7/7 28/28/28
f 23/23/23 29/29/29 26/26/26
f 14/14/14 29/29/29 23/23/23
f 26/26/26 29/29/29 30/30/30
f 31/31/31 28/28/28 27/27/27
f 31/31/31 12/12/12 28/28/28
f 30/30/30 31/31/31 27/27/27
f 29/29/29 14/14/14 32/32/32
f 29/29/29 32/32/32 30/30/30
f 32/32/32 31/31/31 30/30/30
f 12/12/12 31/31/31 32/32/32
f 14/14/14 15/15/15 32/32/32
f 15/15/15 12/12/12 32/32/32
