g Wooden_Cabinet_Door
v -0.904655 0.067084 1.140461
v -0.966219 0.067084 1.184631
v -0.904655 0.067084 1.184631
v -0.96622 0.067084 1.140461
v -0.904655 0.038521 1.077879
v -0.96622 0.038521 1.077879
v -0.906507 -0.038023 1.04259
v -0.964368 -0.038023 1.04259
v 0.020454 -0.014918 2.407321
v -1.059517 -0.014918 2.412982
v -1.059517 -0.014918 -0.015368
v 0.020454 -0.014918 -0.015368
v -0.904655 0.095555 1.136112
v -0.904655 0.095555 1.184631
v -0.966219 0.095555 1.184631
v -0.96622 0.095555 1.136112
v -0.904655 0.066991 1.069181
v -0.96622 0.066991 1.069181
v -0.906507 -0.009552 1.033892
v -0.964368 -0.009552 1.033892
v -0.904655 0.038521 1.077879
v -0.906507 -0.009552 1.033892
v -0.906507 -0.038023 1.04259
v -0.904655 0.066991 1.069181
v -0.904655 0.067084 1.140461
v -0.904655 0.095555 1.136112
v -0.904655 0.067084 1.184631
v -0.904655 0.095555 1.184631
v -0.904655 0.095555 1.23315
v -0.904655 0.067084 1.228801
v -0.904655 0.066991 1.300081
v -0.904655 0.038521 1.291383
v -0.906507 -0.009552 1.33537
v -0.906507 -0.038023 1.326673
v -0.964368 -0.038023 1.04259
v -0.964368 -0.009552 1.033892
v -0.96622 0.066991 1.069181
v -0.96622 0.038521 1.077879
v -0.96622 0.095555 1.136112
v -0.96622 0.067084 1.140461
v -0.966219 0.095555 1.184631
v -0.966219 0.067084 1.184631
v -0.966219 0.067084 1.228801
v -0.966219 0.095555 1.23315
v -0.966219 0.038521 1.291383
v -0.966219 0.066991 1.300081
v -0.964368 -0.038023 1.326673
v -0.964368 -0.009552 1.33537
v -0.96801 -0.001904 1.014225
v -0.94254 -0.001904 1.00608
v -0.91642 -0.001904 1.00608
v -0.89095 -0.001904 1.014225
v -0.97856 -0.001904 1.03389
v -0.8804 -0.001904 1.03389
v -0.97856 -0.001904 1.049218
v -0.8804 -0.001904 1.049218
v -0.96801 -0.001904 1.068882
v -0.89095 -0.001904 1.068882
v -0.94254 -0.001904 1.077028
v -0.91642 -0.001904 1.077028
v -0.904655 0.067084 1.228801
v -0.904655 0.067084 1.184631
v -0.966219 0.067084 1.184631
v -0.966219 0.067084 1.228801
v -0.904655 0.038521 1.291383
v -0.966219 0.038521 1.291383
v -0.906507 -0.038023 1.326673
v -0.964368 -0.038023 1.326673
v -0.904655 0.095555 1.23315
v -0.966219 0.095555 1.184631
v -0.904655 0.095555 1.184631
v -0.966219 0.095555 1.23315
v -0.904655 0.066991 1.300081
v -0.966219 0.066991 1.300081
v -0.906507 -0.009552 1.33537
v -0.964368 -0.009552 1.33537
v -0.96801 -0.001904 1.30038
v -0.94254 -0.001904 1.292235
v -0.91642 -0.001904 1.292235
v -0.89095 -0.001904 1.30038
v -0.97856 -0.001904 1.320044
v -0.8804 -0.001904 1.320044
v -0.97856 -0.001904 1.335373
v -0.8804 -0.001904 1.335373
v -0.96801 -0.001904 1.355037
v -0.89095 -0.001904 1.355037
v -0.94254 -0.001904 1.363182
v -0.91642 -0.001904 1.363182
v 0.020454 -0.076724 2.407321
v 0.020454 -0.076724 -0.015368
v -1.059517 -0.076724 -0.015368
v -1.059517 -0.076724 2.412982
v 0.020454 -0.014918 2.407321
v 0.020454 -0.014918 -0.015368
v 0.020454 -0.076724 -0.015368
v 0.020454 -0.076724 2.407321
v 0.020454 -0.014918 -0.015368
v -1.059517 -0.014918 -0.015368
v -1.059517 -0.076724 -0.015368
v 0.020454 -0.076724 -0.015368
v -1.059517 -0.014918 2.412982
v 0.020454 -0.014918 2.407321
v 0.020454 -0.076724 2.407321
v -1.059517 -0.076724 2.412982
v -1.059517 -0.014918 -0.015368
v -1.059517 -0.014918 2.412982
v -1.059517 -0.076724 2.412982
v -1.059517 -0.076724 -0.015368
v -0.97856 -0.033141 1.03389
v -0.97856 -0.001904 1.049218
v -0.97856 -0.033141 1.049218
v -0.96801 -0.033141 1.068882
v -0.97856 -0.001904 1.03389
v -0.96801 -0.001904 1.068882
v -0.96801 -0.001904 1.014225
v -0.96801 -0.033141 1.014225
v -0.94254 -0.033141 1.077028
v -0.94254 -0.001904 1.077028
v -0.94254 -0.001904 1.00608
v -0.94254 -0.033141 1.00608
v -0.91642 -0.001904 1.077028
v -0.91642 -0.033141 1.077028
v -0.89095 -0.033141 1.068882
v -0.89095 -0.001904 1.068882
v -0.91642 -0.033141 1.00608
v -0.91642 -0.001904 1.00608
v -0.89095 -0.001904 1.014225
v -0.89095 -0.033141 1.014225
v -0.8804 -0.033141 1.049218
v -0.8804 -0.001904 1.049218
v -0.8804 -0.001904 1.03389
v -0.8804 -0.033141 1.03389
v -0.97856 -0.033141 1.335373
v -0.97856 -0.033141 1.320044
v -0.97856 -0.001904 1.320044
v -0.96801 -0.033141 1.30038
v -0.97856 -0.001904 1.335373
v -0.96801 -0.001904 1.30038
v -0.96801 -0.001904 1.355037
v -0.96801 -0.033141 1.355037
v -0.94254 -0.033141 1.292235
v -0.94254 -0.001904 1.292235
v -0.94254 -0.001904 1.363182
v -0.94254 -0.033141 1.363182
v -0.91642 -0.001904 1.292235
v -0.91642 -0.033141 1.292235
v -0.89095 -0.033141 1.30038
v -0.89095 -0.001904 1.30038
v -0.91642 -0.033141 1.363182
v -0.91642 -0.001904 1.363182
v -0.89095 -0.001904 1.355037
v -0.89095 -0.033141 1.355037
v -0.8804 -0.033141 1.320044
v -0.8804 -0.001904 1.320044
v -0.8804 -0.001904 1.335373
v -0.8804 -0.033141 1.335373
vt 0.920048 0.438966
vt 0.942723 0.392353
vt 0.942723 0.438966
vt 0.920048 0.392353
vt 0.897374 0.438966
vt 0.897374 0.392353
vt 0.852024 0.438966
vt 0.852024 0.392353
vt 0.022154 0.87315
vt 0.281305 0.873176
vt 0.281305 0.431731
vt 0.022154 0.431758
vt 0.920048 0.438966
vt 0.942723 0.438966
vt 0.942723 0.392353
vt 0.920048 0.392353
vt 0.897374 0.438966
vt 0.897374 0.392353
vt 0.852024 0.438966
vt 0.852024 0.392353
vt 0.897374 0.438966
vt 0.852024 0.438966
vt 0.852024 0.438966
vt 0.897374 0.438966
vt 0.920048 0.438966
vt 0.920048 0.438966
vt 0.942723 0.438966
vt 0.942723 0.438966
vt 0.920048 0.438966
vt 0.920048 0.438966
vt 0.897374 0.438966
vt 0.897374 0.438966
vt 0.852024 0.438966
vt 0.852024 0.438966
vt 0.852024 0.392353
vt 0.852024 0.392353
vt 0.897374 0.392353
vt 0.897374 0.392353
vt 0.920048 0.392353
vt 0.920048 0.392353
vt 0.942723 0.392353
vt 0.942723 0.392353
vt 0.920048 0.392353
vt 0.920048 0.392353
vt 0.897374 0.392353
vt 0.897374 0.392353
vt 0.852024 0.392353
vt 0.852024 0.392353
vt 0.852024 0.394023
vt 0.852024 0.409458
vt 0.852024 0.421861
vt 0.852024 0.437296
vt 0.852024 0.392353
vt 0.852024 0.438966
vt 0.852024 0.392353
vt 0.852024 0.438966
vt 0.852024 0.394023
vt 0.852024 0.437296
vt 0.852024 0.409458
vt 0.852024 0.421861
vt 0.920048 0.438966
vt 0.942723 0.438966
vt 0.942723 0.392353
vt 0.920048 0.392353
vt 0.897374 0.438966
vt 0.897374 0.392353
vt 0.852024 0.438966
vt 0.852024 0.392353
vt 0.920048 0.438966
vt 0.942723 0.392353
vt 0.942723 0.438966
vt 0.920048 0.392353
vt 0.897374 0.438966
vt 0.897374 0.392353
vt 0.852024 0.438966
vt 0.852024 0.392353
vt 0.852024 0.394023
vt 0.852024 0.409458
vt 0.852024 0.421861
vt 0.852024 0.437296
vt 0.852024 0.392353
vt 0.852024 0.438966
vt 0.852024 0.392353
vt 0.852024 0.438966
vt 0.852024 0.394023
vt 0.852024 0.437296
vt 0.852024 0.409458
vt 0.852024 0.421861
vt 0.022154 0.87315
vt 0.022154 0.431758
vt 0.281305 0.431731
vt 0.281305 0.873176
vt 0.022154 0.87315
vt 0.022154 0.431758
vt 0.022154 0.431758
vt 0.022154 0.87315
vt 0.022154 0.431758
vt 0.281305 0.431731
vt 0.281305 0.431731
vt 0.022154 0.431758
vt 0.281305 0.873176
vt 0.022154 0.87315
vt 0.022154 0.87315
vt 0.281305 0.873176
vt 0.281305 0.431731
vt 0.281305 0.873176
vt 0.281305 0.873176
vt 0.281305 0.431731
vt 0.852024 0.392353
vt 0.852024 0.392353
vt 0.852024 0.392353
vt 0.852024 0.392353
vt 0.852024 0.392353
vt 0.852024 0.394023
vt 0.852024 0.394023
vt 0.852024 0.392353
vt 0.852024 0.409458
vt 0.852024 0.409458
vt 0.852024 0.409458
vt 0.852024 0.409458
vt 0.852024 0.421861
vt 0.852024 0.421861
vt 0.852024 0.438966
vt 0.852024 0.437296
vt 0.852024 0.421861
vt 0.852024 0.421861
vt 0.852024 0.437296
vt 0.852024 0.438966
vt 0.852024 0.438966
vt 0.852024 0.438966
vt 0.852024 0.438966
vt 0.852024 0.438966
vt 0.852024 0.392353
vt 0.852024 0.392353
vt 0.852024 0.392353
vt 0.852024 0.392353
vt 0.852024 0.392353
vt 0.852024 0.394023
vt 0.852024 0.394023
vt 0.852024 0.392353
vt 0.852024 0.409458
vt 0.852024 0.409458
vt 0.852024 0.409458
vt 0.852024 0.409458
vt 0.852024 0.421861
vt 0.852024 0.421861
vt 0.852024 0.438966
vt 0.852024 0.437296
vt 0.852024 0.421861
vt 0.852024 0.421861
vt 0.852024 0.437296
vt 0.852024 0.438966
vt 0.852024 0.438966
vt 0.852024 0.438966
vt 0.852024 0.438966
vt 0.852024 0.438966
vn 0 -0.9660186 0.2584727
vn 0 -1 0
vn 0 -1 0
vn 0 -0.9660181 0.2584741
vn 0 -0.6874465 0.726235
vn 0 -0.6874465 0.726235
vn 0 -0.418676 0.9081357
vn 0 -0.418676 0.9081357
vn 0 1 0
vn 0 1 0
vn 0 1 0
vn 0 1 0
vn 0 0.97073 -0.2401734
vn 0 1 0
vn 0 1 0
vn 0 0.9707296 -0.2401747
vn 0 0.703302 -0.7108911
vn 0 0.703302 -0.7108911
vn 0 0.4186804 -0.9081336
vn 0 0.4186804 -0.9081336
vn 0.999817 -0.005589939 -0.01829715
vn 0.9994557 -0.009638147 -0.03154786
vn 0.9994557 -0.009638148 -0.03154786
vn 0.9999622 -0.002539325 -0.008311789
vn 1 0 0
vn 1 0 0
vn 1 0 0
vn 1 0 0
vn 1 0 0
vn 1 0 0
vn 0.9999622 -0.002539177 0.008311824
vn 0.999817 -0.00558963 0.01829728
vn 0.9994557 -0.009637698 0.03154835
vn 0.9994557 -0.009637698 0.03154834
vn -0.9994557 -0.009638146 -0.03154786
vn -0.9994557 -0.009638146 -0.03154786
vn -0.9999622 -0.002539324 -0.008311789
vn -0.999817 -0.005589938 -0.01829715
vn -1 0 0
vn -1 0 0
vn -1 0 0
vn -1 0 0
vn -1 0 0
vn -1 0 0
vn -0.9998172 -0.005586577 0.01828727
vn -0.9999623 -0.002537789 0.008307274
vn -0.9994563 -0.009632436 0.03153111
vn -0.9994563 -0.009632434 0.0315311
vn 0 1 0
vn 0 1 0
vn 0 1 0
vn 0 1 0
vn 0 1 0
vn 0 1 0
vn 0 1 0
vn 0 1 0
vn 0 1 0
vn 0 1 0
vn 0 1 0
vn 0 1 0
vn 0 -0.9660187 -0.2584718
vn 0 -1 0
vn 0 -1 0
vn 0 -0.9660187 -0.2584718
vn 0 -0.6874493 -0.7262324
vn 0 -0.6874484 -0.7262334
vn 0 -0.4186865 -0.9081308
vn 0 -0.4186865 -0.9081308
vn 0 0.9707302 0.2401726
vn 0 1 0
vn 0 1 0
vn 0 0.9707302 0.2401726
vn 0 0.703301 0.7108922
vn 0 0.7032999 0.7108933
vn 0 0.4186805 0.9081336
vn 0 0.4186805 0.9081336
vn 0 1 0
vn 0 1 0
vn 0 1 0
vn 0 1 0
vn 0 1 0
vn 0 1 0
vn 0 1 0
vn 0 1 0
vn 0 1 0
vn 0 1 0
vn 0 1 0
vn 0 1 0
vn 0 -1 0
vn 0 -1 0
vn 0 -1 0
vn 0 -1 0
vn 1 0 0
vn 1 0 0
vn 1 0 0
vn 1 0 0
vn 0 0 -1
vn 0 0 -1
vn 0 0 -1
vn 0 0 -1
vn 0.005241745 0 0.9999863
vn 0.005241745 0 0.9999863
vn 0.005241745 0 0.9999863
vn 0.005241745 0 0.9999863
vn -1 0 0
vn -1 0 0
vn -1 0 0
vn -1 0 0
vn -0.9574335 0 -0.288654
vn -0.957431 0 0.2886622
vn -0.957431 0 0.2886622
vn -0.6111221 0 0.7915363
vn -0.9574335 0 -0.288654
vn -0.6111221 0 0.7915363
vn -0.6111221 0 -0.7915363
vn -0.6111221 0 -0.7915363
vn -0.1559673 0 0.9877622
vn -0.1559673 0 0.9877622
vn -0.1559473 0 -0.9877653
vn -0.1559473 0 -0.9877653
vn 0.1559675 0 0.9877622
vn 0.1559675 0 0.9877622
vn 0.6111221 0 0.7915363
vn 0.6111221 0 0.7915363
vn 0.1559474 0 -0.9877653
vn 0.1559474 0 -0.9877653
vn 0.6111221 0 -0.7915363
vn 0.6111221 0 -0.7915363
vn 0.9574305 0 0.2886637
vn 0.9574305 0 0.2886637
vn 0.957433 0 -0.2886556
vn 0.957433 0 -0.2886556
vn -0.9574332 0 0.288655
vn -0.9574335 0 -0.2886541
vn -0.9574335 0 -0.2886541
vn -0.611109 0 -0.7915465
vn -0.9574332 0 0.288655
vn -0.611109 0 -0.7915465
vn -0.6111073 0 0.7915477
vn -0.6111073 0 0.7915477
vn -0.1559473 0 -0.9877653
vn -0.1559473 0 -0.9877653
vn -0.1559473 0 0.9877653
vn -0.1559473 0 0.9877653
vn 0.1559474 0 -0.9877653
vn 0.1559474 0 -0.9877653
vn 0.611109 0 -0.7915465
vn 0.611109 0 -0.7915465
vn 0.1559474 0 0.9877653
vn 0.1559474 0 0.9877653
vn 0.6111073 0 0.7915477
vn 0.6111073 0 0.7915477
vn 0.957433 0 -0.2886556
vn 0.957433 0 -0.2886556
vn 0.9574327 0 0.2886565
vn 0.9574327 0 0.2886565
g Wooden_Cabinet_Door_0
f 3/3/3 2/2/2 1/1/1
f 2/2/2 4/4/4 1/1/1
f 1/1/1 4/4/4 5/5/5
f 4/4/4 6/6/6 5/5/5
f 5/5/5 6/6/6 7/7/7
f 6/6/6 8/8/8 7/7/7
f 11/11/11 10/10/10 9/9/9
f 12/12/12 11/11/11 9/9/9
f 15/15/15 14/14/14 13/13/13
f 16/16/16 15/15/15 13/13/13
f 16/16/16 13/13/13 17/17/17
f 18/18/18 16/16/16 17/17/17
f 18/18/18 17/17/17 19/19/19
f 20/20/20 18/18/18 19/19/19
f 23/23/23 22/22/22 21/21/21
f 22/22/22 24/24/24 21/21/21
f 21/21/21 24/24/24 25/25/25
f 24/24/24 26/26/26 25/25/25
f 25/25/25 26/26/26 27/27/27
f 26/26/26 28/28/28 27/27/27
f 28/28/28 29/29/29 27/27/27
f 29/29/29 30/30/30 27/27/27
f 29/29/29 31/31/31 30/30/30
f 31/31/31 32/32/32 30/30/30
f 31/31/31 33/33/33 32/32/32
f 33/33/33 34/34/34 32/32/32
f 37/37/37 36/36/36 35/35/35
f 38/38/38 37/37/37 35/35/35
f 39/39/39 37/37/37 38/38/38
f 40/40/40 39/39/39 38/38/38
f 41/41/41 39/39/39 40/40/40
f 42/42/42 41/41/41 40/40/40
f 41/41/41 42/42/42 43/43/43
f 44/44/44 41/41/41 43/43/43
f 44/44/44 43/43/43 45/45/45
f 46/46/46 44/44/44 45/45/45
f 46/46/46 45/45/45 47/47/47
f 48/48/48 46/46/46 47/47/47
f 51/51/51 50/50/50 49/49/49
f 49/49/49 52/52/52 51/51/51
f 49/49/49 53/53/53 52/52/52
f 53/53/53 54/54/54 52/52/52
f 53/53/53 55/55/55 54/54/54
f 55/55/55 56/56/56 54/54/54
f 55/55/55 57/57/57 56/56/56
f 57/57/57 58/58/58 56/56/56
f 57/57/57 59/59/59 58/58/58
f 59/59/59 60/60/60 58/58/58
f 63/63/63 62/62/62 61/61/61
f 64/64/64 63/63/63 61/61/61
f 64/64/64 61/61/61 65/65/65
f 66/66/66 64/64/64 65/65/65
f 66/66/66 65/65/65 67/67/67
f 68/68/68 66/66/66 67/67/67
f 71/71/71 70/70/70 69/69/69
f 70/70/70 72/72/72 69/69/69
f 69/69/69 72/72/72 73/73/73
f 72/72/72 74/74/74 73/73/73
f 73/73/73 74/74/74 75/75/75
f 74/74/74 76/76/76 75/75/75
f 79/79/79 78/78/78 77/77/77
f 77/77/77 80/80/80 79/79/79
f 77/77/77 81/81/81 80/80/80
f 81/81/81 82/82/82 80/80/80
f 81/81/81 83/83/83 82/82/82
f 83/83/83 84/84/84 82/82/82
f 83/83/83 85/85/85 84/84/84
f 85/85/85 86/86/86 84/84/84
f 85/85/85 87/87/87 86/86/86
f 87/87/87 88/88/88 86/86/86
f 91/91/91 90/90/90 89/89/89
f 92/92/92 91/91/91 89/89/89
f 95/95/95 94/94/94 93/93/93
f 96/96/96 95/95/95 93/93/93
f 99/99/99 98/98/98 97/97/97
f 100/100/100 99/99/99 97/97/97
f 103/103/103 102/102/102 101/101/101
f 104/104/104 103/103/103 101/101/101
f 107/107/107 106/106/106 105/105/105
f 108/108/108 107/107/107 105/105/105
f 111/111/111 110/110/110 109/109/109
f 110/110/110 111/111/111 112/112/112
f 110/110/110 113/113/113 109/109/109
f 114/114/114 110/110/110 112/112/112
f 109/109/109 113/113/113 115/115/115
f 116/116/116 109/109/109 115/115/115
f 114/114/114 112/112/112 117/117/117
f 118/118/118 114/114/114 117/117/117
f 116/116/116 115/115/115 119/119/119
f 120/120/120 116/116/116 119/119/119
f 121/121/121 118/118/118 117/117/117
f 122/122/122 121/121/121 117/117/117
f 122/122/122 123/123/123 121/121/121
f 123/123/123 124/124/124 121/121/121
f 120/120/120 119/119/119 125/125/125
f 119/119/119 126/126/126 125/125/125
f 125/125/125 126/126/126 127/127/127
f 128/128/128 125/125/125 127/127/127
f 123/123/123 129/129/129 124/124/124
f 129/129/129 130/130/130 124/124/124
f 128/128/128 127/127/127 131/131/131
f 131/131/131 130/130/130 129/129/129
f 132/132/132 128/128/128 131/131/131
f 132/132/132 131/131/131 129/129/129
f 135/135/135 134/134/134 133/133/133
f 134/134/134 135/135/135 136/136/136
f 137/137/137 135/135/135 133/133/133
f 135/135/135 138/138/138 136/136/136
f 137/137/137 133/133/133 139/139/139
f 133/133/133 140/140/140 139/139/139
f 136/136/136 138/138/138 141/141/141
f 138/138/138 142/142/142 141/141/141
f 139/139/139 140/140/140 143/143/143
f 140/140/140 144/144/144 143/143/143
f 142/142/142 145/145/145 141/141/141
f 145/145/145 146/146/146 141/141/141
f 147/147/147 146/146/146 145/145/145
f 148/148/148 147/147/147 145/145/145
f 143/143/143 144/144/144 149/149/149
f 150/150/150 143/143/143 149/149/149
f 150/150/150 149/149/149 151/151/151
f 149/149/149 152/152/152 151/151/151
f 153/153/153 147/147/147 148/148/148
f 154/154/154 153/153/153 148/148/148
f 151/151/151 152/152/152 155/155/155
f 154/154/154 155/155/155 153/153/153
f 152/152/152 156/156/156 155/155/155
f 155/155/155 156/156/156 153/153/153
