g YellowFlag
v 0.772178 -0.018625 -0.867857
v -0.037513 0.018625 -0.520714
v -0.037513 -0.018625 -0.867857
v 0.772178 0.018625 -0.520714
v 1.581868 -0.018625 -0.867857
v -0.037513 -0.018625 -0.173571
v 1.581869 0.018625 -0.520714
v 2.391559 -0.018625 -0.867857
v 2.391559 0.018625 -0.520714
v 0.772178 -0.018625 -0.173571
v -0.037513 0.018625 0.173571
v 1.581869 -0.018625 -0.173571
v 2.391559 -0.018625 -0.173571
v 0.772178 0.018625 0.173571
v -0.037513 -0.018625 0.520714
v 1.581869 0.018625 0.173571
v 2.391559 0.018625 0.173571
v 0.772178 -0.018625 0.520714
v -0.037513 0.018625 0.867857
v 0.772178 0.018625 0.867857
v 1.581869 -0.018625 0.520714
v 2.391559 -0.018625 0.520714
v 1.581869 0.018625 0.867857
v 2.391559 0.018625 0.867857
v 0.772178 -0.018625 -0.867857
v -0.037513 -0.018625 -0.867857
v -0.037513 0.018625 -0.520714
v 0.772178 0.018625 -0.520714
v 1.581868 -0.018625 -0.867857
v -0.037513 -0.018625 -0.173571
v 1.581869 0.018625 -0.520714
v 2.391559 -0.018625 -0.867857
v 2.391559 0.018625 -0.520714
v 0.772178 -0.018625 -0.173571
v -0.037513 0.018625 0.173571
v 1.581869 -0.018625 -0.173571
v 2.391559 -0.018625 -0.173571
v 0.772178 0.018625 0.173571
v -0.037513 -0.018625 0.520714
v 1.581869 0.018625 0.173571
v 2.391559 0.018625 0.173571
v 0.772178 -0.018625 0.520714
v -0.037513 0.018625 0.867857
v 0.772178 0.018625 0.867857
v 1.581869 -0.018625 0.520714
v 2.391559 -0.018625 0.520714
v 1.581869 0.018625 0.867857
v 2.391559 0.018625 0.867857
vt 0.290529 0.122653
vt 0.430279 0.185876
vt 0.430279 0.122654
vt 0.290528 0.185874
vt 0.150778 0.122651
vt 0.430278 0.249097
vt 0.150778 0.185873
vt 0.011028 0.12265
vt 0.011027 0.185872
vt 0.290528 0.249096
vt 0.430278 0.312319
vt 0.150777 0.249095
vt 0.011027 0.249094
vt 0.290527 0.312318
vt 0.430277 0.37554
vt 0.150777 0.312316
vt 0.011026 0.312315
vt 0.290527 0.375539
vt 0.430277 0.438762
vt 0.290526 0.438761
vt 0.150776 0.375538
vt 0.011026 0.375537
vt 0.150776 0.43876
vt 0.011025 0.438758
vt 0.290529 0.122653
vt 0.430279 0.122654
vt 0.430279 0.185876
vt 0.290528 0.185874
vt 0.150778 0.122651
vt 0.430278 0.249097
vt 0.150778 0.185873
vt 0.011028 0.12265
vt 0.011027 0.185872
vt 0.290528 0.249096
vt 0.430278 0.312319
vt 0.150777 0.249095
vt 0.011027 0.249094
vt 0.290527 0.312318
vt 0.430277 0.37554
vt 0.150777 0.312316
vt 0.011026 0.312315
vt 0.290527 0.375539
vt 0.430277 0.438762
vt 0.290526 0.438761
vt 0.150776 0.375538
vt 0.011026 0.375537
vt 0.150776 0.43876
vt 0.011025 0.438758
vn 0 0.9942921 -0.106692
vn 0 1 0
vn 0 0.9942921 -0.106692
vn 0 1 0
vn 0 0.9942921 -0.106692
vn 0 1 0
vn 0 1 0
vn 0 0.9942921 -0.106692
vn 0 1 0
vn 0 1 0
vn 0 1 0
vn 0 1 0
vn 0 1 0
vn 0 1 0
vn 0 1 0
vn 0 1 0
vn 0 1 0
vn 0 1 0
vn 0 0.9942921 -0.106692
vn 0 0.9942921 -0.106692
vn 0 1 0
vn 0 1 0
vn 0 0.9942921 -0.106692
vn 0 0.9942921 -0.106692
vn 0 -0.9942921 0.106692
vn 0 -0.9942921 0.106692
vn 0 -1 0
vn 0 -1 0
vn 0 -0.9942921 0.106692
vn 0 -1 0
vn 0 -1 0
vn 0 -0.9942921 0.106692
vn 0 -1 0
vn 0 -1 0
vn 0 -1 0
vn 0 -1 0
vn 0 -1 0
vn 0 -1 0
vn 0 -1 0
vn 0 -1 0
vn 0 -1 0
vn 0 -1 0
vn 0 -0.9942921 0.106692
vn 0 -0.9942921 0.106692
vn 0 -1 0
vn 0 -1 0
vn 0 -0.9942921 0.106692
vn 0 -0.9942921 0.106692
g YellowFlag_0
f 3/3/3 2/2/2 1/1/1
f 2/2/2 4/4/4 1/1/1
f 1/1/1 4/4/4 5/5/5
f 2/2/2 6/6/6 4/4/4
f 4/4/4 7/7/7 5/5/5
f 5/5/5 7/7/7 8/8/8
f 7/7/7 9/9/9 8/8/8
f 6/6/6 10/10/10 4/4/4
f 4/4/4 10/10/10 7/7/7
f 6/6/6 11/11/11 10/10/10
f 7/7/7 12/12/12 9/9/9
f 10/10/10 12/12/12 7/7/7
f 12/12/12 13/13/13 9/9/9
f 11/11/11 14/14/14 10/10/10
f 10/10/10 14/14/14 12/12/12
f 11/11/11 15/15/15 14/14/14
f 12/12/12 16/16/16 13/13/13
f 14/14/14 16/16/16 12/12/12
f 16/16/16 17/17/17 13/13/13
f 15/15/15 18/18/18 14/14/14
f 14/14/14 18/18/18 16/16/16
f 15/15/15 19/19/19 18/18/18
f 19/19/19 20/20/20 18/18/18
f 16/16/16 21/21/21 17/17/17
f 18/18/18 21/21/21 16/16/16
f 18/18/18 20/20/20 21/21/21
f 21/21/21 22/22/22 17/17/17
f 20/20/20 23/23/23 21/21/21
f 21/21/21 23/23/23 22/22/22
f 23/23/23 24/24/24 22/22/22
f 27/27/27 26/26/26 25/25/25
f 28/28/28 27/27/27 25/25/25
f 28/28/28 25/25/25 29/29/29
f 30/30/30 27/27/27 28/28/28
f 31/31/31 28/28/28 29/29/29
f 31/31/31 29/29/29 32/32/32
f 33/33/33 31/31/31 32/32/32
f 34/34/34 30/30/30 28/28/28
f 34/34/34 28/28/28 31/31/31
f 35/35/35 30/30/30 34/34/34
f 36/36/36 31/31/31 33/33/33
f 36/36/36 34/34/34 31/31/31
f 37/37/37 36/36/36 33/33/33
f 38/38/38 35/35/35 34/34/34
f 38/38/38 34/34/34 36/36/36
f 39/39/39 35/35/35 38/38/38
f 40/40/40 36/36/36 37/37/37
f 40/40/40 38/38/38 36/36/36
f 41/41/41 40/40/40 37/37/37
f 42/42/42 39/39/39 38/38/38
f 42/42/42 38/38/38 40/40/40
f 43/43/43 39/39/39 42/42/42
f 44/44/44 43/43/43 42/42/42
f 45/45/45 40/40/40 41/41/41
f 45/45/45 42/42/42 40/40/40
f 44/44/44 42/42/42 45/45/45
f 46/46/46 45/45/45 41/41/41
f 47/47/47 44/44/44 45/45/45
f 47/47/47 45/45/45 46/46/46
f 48/48/48 47/47/47 46/46/46
