g FrontEdgeTileBothBack
v 1 0.75 0
v 0.75 1 0
v 1 1 -0.25
v -1 1 -0.25
v -0.75 1 0
v -1 0.75 0
v 0.8 -1 -0.25
v 1 -0.75 0
v 1 -1 -0.25
v 0.8 -0.75 0
v -0.8 -1 -0.25
v 1 0.75 0
v -0.8 -0.75 0
v -1 -1 -0.25
v -1 -0.75 0
v 0.8 0.8 0
v 0.75 1 0
v -0.8 0.8 0
v -1 0.75 0
v -0.75 1 0
v -0.8 -1 -0.25
v -1 -1 -20
v -1 -1 -0.25
v -0.8 -1 -20
v 0.8 -1 -0.25
v 0.8 -1 -20
v 1 -1 -0.25
v 1 -1 -20
vt 0 0.125
vt 0.125 0
vt 0 0
vt 1 0
vt 0.875 0
vt 1 0.125
vt 0.1 1
vt 0 0.875
vt 0 1
vt 0.1 0.875
vt 0.9 1
vt 0 0.125
vt 0.9 0.875
vt 1 1
vt 1 0.875
vt 0.1 0.1
vt 0.125 0
vt 0.9 0.1
vt 1 0.125
vt 0.875 0
vt 0.100075 0.99993
vt 0 -8.875
vt 0 0.99993
vt 0.100075 -8.875
vt 0.899925 0.99993
vt 0.899925 -8.875
vt 1 0.99993
vt 1 -8.875
vn 0.5773503 0.5773503 0.5773503
vn 0.5773503 0.5773503 0.5773503
vn 0.5773503 0.5773503 0.5773503
vn -0.5773503 0.5773503 0.5773503
vn -0.5773503 0.5773503 0.5773503
vn -0.5773503 0.5773503 0.5773503
vn 0 -0.9238795 0.3826834
vn 0 -0.3826834 0.9238795
vn 0 -0.9238795 0.3826834
vn 0 -0.3826834 0.9238795
vn 0 -0.9238795 0.3826834
vn 0 0 1
vn 0 -0.3826834 0.9238795
vn 0 -0.9238795 0.3826834
vn 0 -0.3826834 0.9238795
vn 0 0 1
vn 0 0 1
vn 0 0 1
vn 0 0 1
vn 0 0 1
vn 0 -0.9238795 0.3826834
vn 0 -1 0
vn 0 -0.9238795 0.3826834
vn 0 -1 0
vn 0 -0.9238795 0.3826834
vn 0 -1 0
vn 0 -0.9238795 0.3826834
vn 0 -1 0
g FrontEdgeTileBothBack_0
f 3/3/3 2/2/2 1/1/1
f 6/6/6 5/5/5 4/4/4
f 9/9/9 8/8/8 7/7/7
f 8/8/8 10/10/10 7/7/7
f 7/7/7 10/10/10 11/11/11
f 8/8/8 12/12/12 10/10/10
f 10/10/10 13/13/13 11/11/11
f 11/11/11 13/13/13 14/14/14
f 13/13/13 15/15/15 14/14/14
f 12/12/12 16/16/16 10/10/10
f 10/10/10 16/16/16 13/13/13
f 12/12/12 17/17/17 16/16/16
f 13/13/13 18/18/18 15/15/15
f 16/16/16 18/18/18 13/13/13
f 16/16/16 17/17/17 18/18/18
f 18/18/18 19/19/19 15/15/15
f 17/17/17 20/20/20 18/18/18
f 18/18/18 20/20/20 19/19/19
g FrontEdgeTileBothBack_1
f 23/23/23 22/22/22 21/21/21
f 22/22/22 24/24/24 21/21/21
f 21/21/21 24/24/24 25/25/25
f 24/24/24 26/26/26 25/25/25
f 25/25/25 26/26/26 27/27/27
f 26/26/26 28/28/28 27/27/27
