g LeftEdgeTileBackEdge
v 1 0.75 0
v 0.75 1 0
v 1 1 -0.25
v 0.8 -1 0
v 1 0.75 0
v 1 -1 0
v 0.8 0.8 0
v 0.75 1 0
v -0.75 -1 0
v -0.75 0.8 0
v -0.75 1 0
v -1 1 -0.25
v -1 0.8 -0.25
v -1 -1 -0.25
v -1 0.8 -0.25
v -1 1 -20
v -1 1 -0.25
v -1 0.8 -20
v -1 -1 -0.25
v -1 -1 -20
vt 0 0.125001
vt 0.125001 0
vt 0 0
vt 0.100001 1
vt 0 0.125001
vt 0 1
vt 0.100001 0.100001
vt 0.125001 0
vt 0.875 1
vt 0.875 0.100001
vt 0.875 0
vt 1 0
vt 1 0.100001
vt 1 1
vt 0.100075 1
vt 0 -8.875
vt 0 1
vt 0.100075 -8.875
vt 1 1
vt 1 -8.875
vn 0.5773503 0.5773503 0.5773503
vn 0.5773503 0.5773503 0.5773503
vn 0.5773503 0.5773503 0.5773503
vn 0 0 1
vn 0 0 1
vn 0 0 1
vn 0 0 1
vn 0 0 1
vn -0.3826834 0 0.9238795
vn -0.3826834 0 0.9238795
vn -0.3826834 0 0.9238795
vn -0.9238795 0 0.3826834
vn -0.9238795 0 0.3826834
vn -0.9238795 0 0.3826834
vn -0.9238795 0 0.3826834
vn -1 0 0
vn -0.9238795 0 0.3826834
vn -1 0 0
vn -0.9238795 0 0.3826834
vn -1 0 0
g LeftEdgeTileBackEdge_0
f 3/3/3 2/2/2 1/1/1
f 6/6/6 5/5/5 4/4/4
f 5/5/5 7/7/7 4/4/4
f 5/5/5 8/8/8 7/7/7
f 4/4/4 7/7/7 9/9/9
f 7/7/7 8/8/8 10/10/10
f 7/7/7 10/10/10 9/9/9
f 8/8/8 11/11/11 10/10/10
f 10/10/10 11/11/11 12/12/12
f 13/13/13 10/10/10 12/12/12
f 9/9/9 10/10/10 13/13/13
f 14/14/14 9/9/9 13/13/13
g LeftEdgeTileBackEdge_1
f 17/17/17 16/16/16 15/15/15
f 16/16/16 18/18/18 15/15/15
f 15/15/15 18/18/18 19/19/19
f 18/18/18 20/20/20 19/19/19
