g NoNieghboursUpTile
v -1 -1 -0.25
v 1 -0.75 0
v 1 -1 -0.25
v -1 -0.75 0
v 1 0.75 0
v -1 0.75 0
v 1 1 -0.25
v -1 1 -0.25
v -1 -1 -0.25
v 1 -1 -0.25
v 1 -1 -20
v -1 -1 -20
v 1 1 -0.25
v -1 1 -0.25
v -1 1 -20
v 1 1 -20
vt 1 1
vt 0 0.839747
vt 0 1
vt 1 0.839746
vt 0 0.160254
vt 1 0.160253
vt 0 0
vt 1 0
vt 0 0.99993
vt 1 0.99993
vt 1 -8.874953
vt 0 -8.874953
vt 0 1
vt 1 1
vt 1 -8.875047
vt 0 -8.875047
vn 0 -0.9238795 0.3826835
vn 0 -0.3826835 0.9238795
vn 0 -0.9238795 0.3826835
vn 0 -0.3826835 0.9238795
vn 0 0.3826835 0.9238795
vn 0 0.3826835 0.9238795
vn 0 0.9238795 0.3826835
vn 0 0.9238795 0.3826835
vn 0 -0.9238795 0.3826835
vn 0 -0.9238795 0.3826835
vn 0 -1 0
vn 0 -1 0
vn 0 0.9238795 0.3826835
vn 0 0.9238795 0.3826835
vn 0 1 0
vn 0 1 0
g NoNieghboursUpTile_0
f 3/3/3 2/2/2 1/1/1
f 2/2/2 4/4/4 1/1/1
f 2/2/2 5/5/5 4/4/4
f 5/5/5 6/6/6 4/4/4
f 6/6/6 5/5/5 7/7/7
f 8/8/8 6/6/6 7/7/7
g NoNieghboursUpTile_1
f 11/11/11 10/10/10 9/9/9
f 12/12/12 11/11/11 9/9/9
f 15/15/15 14/14/14 13/13/13
f 16/16/16 15/15/15 13/13/13
